<?xml version="1.0" encoding="utf-8"?>
<!-- Generator: Adobe Illustrator 25.0.1, SVG Export Plug-In . SVG Version: 6.00 Build 0)  -->
<svg version="1.1" id="Layer_1" xmlns:serif="http://www.serif.com/"
	 xmlns="http://www.w3.org/2000/svg" xmlns:xlink="http://www.w3.org/1999/xlink" x="0px" y="0px" viewBox="0 0 165.3 189.1"
	 style="enable-background:new 0 0 165.3 189.1;" xml:space="preserve">
<style type="text/css">
	.st0{fill:none;stroke:#E1DFE6;stroke-width:3.5706;stroke-linecap:round;stroke-linejoin:round;stroke-miterlimit:10;}
	.st1{fill-rule:evenodd;clip-rule:evenodd;fill:#FFFFFF;}
	.st2{fill-rule:evenodd;clip-rule:evenodd;fill:#A19CB1;}
	.st3{fill:none;stroke:#A19CB1;stroke-width:1.4641;stroke-linecap:round;stroke-linejoin:round;stroke-miterlimit:10;}
	.st4{fill-rule:evenodd;clip-rule:evenodd;fill:#A7A3B6;}
	.st5{fill-rule:evenodd;clip-rule:evenodd;}
	.st6{fill-rule:evenodd;clip-rule:evenodd;fill:#60577A;}
</style>
<path id="FLAG-HANDLE" serif:id="FLAG HANDLE" class="st0" d="M128.2,79.9l-4.5,22"/>
<g id="Bird">
	<path class="st1" d="M72.2,37.4c2,3,5.3,8.4,4.9,16.4c-0.2,4.7-2.4,10.5-5.5,17c0,0-6.4,8.9-1.8,23.5l-23.2-5.5
		c0,0-5.9,16.6-0.2,24.9l25.3,1.5c0,0-3,9,3.3,18.5c0,0,10.4,17.9,0.6,29.8c0,0,33.6-14.8,32.5-49.4c0,0,13.3-8,14.3-17.9l4.7-2.6
		c0,0-3.9-1-4.6-1.1c-0.8-0.2-2.6-8.1-17.2-3.9c0,0,0.9-23.2-8.2-36.4C97.2,52.5,88.9,37.4,72.2,37.4z"/>
	<g>
		<g id="BIRD">
			<path class="st2" d="M84.2,157c0.3-0.1,0.4-0.3,0.4-0.5s-0.2-0.4-0.4-0.4l-5.1-0.2c-0.2,0,0.8,0.5,0.7,0.8
				c-0.1,0.2-1.1,0.1-0.9,0.2c1,0.4,2.4,0.6,3.5,0.5C83.3,157.2,84.2,157,84.2,157z M86.9,150.2c0.3,0,0.4-0.3,0.4-0.5
				c0-0.3-0.2-0.4-0.4-0.4L80,149c-0.3,0-0.4,0.2-0.4,0.4c-0.1,0.3,0.1,0.4,0.3,0.5c1,0.3,2.8,0.4,4.4,0.4
				C85.6,150.3,86.9,150.2,86.9,150.2z M87.9,147.2c0.3-0.1,0.4-0.3,0.3-0.5c-0.1-0.3-0.3-0.4-0.4-0.4l-7.4,0.2
				c-0.3,0-0.4,0.2-0.4,0.4c-0.1,0.2,0.1,0.4,0.3,0.5c1.5,0.5,3.4,0.4,5,0.3C86.7,147.5,87.9,147.2,87.9,147.2z M86.7,144.6
				c0.3-0.1,0.4-0.3,0.4-0.5c0-0.3-0.3-0.4-0.5-0.4l-6.9,0.2c-0.3,0-0.4,0.2-0.4,0.4c-0.1,0.2,0.1,0.4,0.3,0.5
				c0.8,0.3,2.6,0.3,4.2,0.2C85.3,144.8,86.7,144.6,86.7,144.6z M82.8,135.1c0.3-0.1,0.4-0.3,0.4-0.5c0-0.3-0.3-0.4-0.5-0.4
				l-6.3,0.4c-0.3,0-0.4,0.2-0.4,0.4c0,0.3,0.2,0.4,0.4,0.5c0.8,0.2,2.4,0.1,3.9-0.2C81.5,135.2,82.8,135.1,82.8,135.1z M80.2,125.8
				c0.3-0.1,0.4-0.3,0.4-0.5c0-0.3-0.3-0.4-0.5-0.4l-8.6,0.6c-0.2,0-0.4,0.2-0.4,0.4c-0.1,0.2,0.1,0.4,0.3,0.5
				c0.2,0.1,0.6,0.2,1.1,0.2c0.9,0,2.4-0.2,3.9-0.3C78.4,126.1,80.2,125.8,80.2,125.8z M53.2,110.5c0.3,0,0.4-0.2,0.5-0.4
				c0-0.3-0.2-0.4-0.4-0.5l-8.4-0.7c-0.3,0,0.1,0.3,0,0.6c-0.1,0.3-0.4,0.3-0.2,0.4c1.1,0.3,3.3,0.4,5.2,0.6
				C51.7,110.5,53.2,110.5,53.2,110.5z M54.3,108c0.3,0,0.4-0.2,0.5-0.4c0-0.3-0.2-0.5-0.4-0.5l-9.8-1.2c-0.3,0-0.2,0.2-0.3,0.4
				c-0.1,0.3-0.2,0.4,0,0.5c0.9,0.3,3.4,0.6,5.7,0.9C52.3,108,54.3,108,54.3,108z M56.8,103.3c0.3,0.1,0.5-0.2,0.5-0.4
				c0.1-0.3-0.2-0.5-0.4-0.5l-12.3-1.9c-0.3-0.1-0.1,0.1-0.2,0.3c-0.1,0.3-0.4,0.5-0.2,0.6c0.4,0.2,3.5,0.7,6.5,1.1
				C54,103,56.8,103.3,56.8,103.3z M78.4,86.7c0.3,0,0.4-0.2,0.5-0.4c0-0.3-0.2-0.5-0.4-0.5L67.9,84c-0.3-0.1-0.2,0.2-0.2,0.4
				c-0.1,0.3-0.3,0.4-0.1,0.5c1.3,0.4,4,0.9,6.4,1.2C76.5,86.4,78.4,86.7,78.4,86.7z M71.9,71.1C71.7,71,71.7,71,71.7,71
				c-0.2-0.2-0.3-0.4-0.2-0.6s0.3-0.3,0.5-0.3l9.3,1.8c0.3,0.1,0.4,0.3,0.4,0.6S81.4,73,81.1,73c0,0-2.4-0.4-4.9-0.9
				c-2-0.3-3.4-0.7-4.1-0.9C72.2,71.3,72,71.3,71.9,71.1L71.9,71.1L71.9,71.1z M83,47.3c0.3,0,0.4-0.2,0.5-0.4
				c0-0.3-0.2-0.4-0.4-0.5c0,0-1.5-0.2-3.1-0.3c-1.8-0.2-3.1-0.3-3.5-0.3c-0.2,0.1-0.4,0.3-0.3,0.5c0,0.3,0.2,0.4,0.4,0.4L83,47.3z
				 M83.2,45.4c0.3,0,0.4-0.2,0.5-0.4c0-0.3-0.2-0.5-0.4-0.5c0,0-1.3-0.2-3-0.3c-1.5-0.1-3.5-0.3-4.5-0.3c-0.3,0-0.1,0.1-0.1,0.3
				s0.2,0.4,0.4,0.5L83.2,45.4z"/>
			<g transform="matrix(1,0,0,1,-0.710965,-0.709128)">
				<path class="st2" d="M105.2,89.5c0,0-0.2,2.5-0.4,3.6c-0.1,0.3,0.2,0.5,0.4,0.6c0.3,0.1,0.5-0.2,0.6-0.4
					c0.3-1.2,0.4-3.8,0.4-3.8c0-0.3-0.2-0.5-0.4-0.5C105.4,88.9,105.2,89.2,105.2,89.5z"/>
			</g>
			<path class="st2" d="M66.7,94.1c0,0,2.6,5.3,4,5.5l-0.9-5.2L66.7,94.1z"/>
			<g transform="matrix(1,0,0,1,1.42361,-0.561334)">
				<path class="st3" d="M70.5,115.9l7.7,0.5"/>
			</g>
			<path class="st2" d="M76.7,162.5c7-3,31.8-15.9,31.1-48.2c0-0.2,0.1-0.3,0.3-0.4c0,0,12.5-6.5,14.1-17.5c0-0.2,0.2-0.3,0.3-0.4
				c0,0,2.7-1.1,4.5-1.8l0,0l0,0c-2-0.4-5.1-0.9-5.1-0.9c-0.2-0.1-0.3-0.2-0.4-0.4c0,0-0.4-2-2.5-3.4c-2.2-1.5-6.4-2.4-13.8,0.1
				c-0.2,0.1-0.3,0-0.4-0.1c-0.2-0.2-0.2-0.3-0.2-0.4c0,0,0.9-12.1-2.6-24.5c-3.6-12.4-11.6-25.2-29.3-26.7c-0.3,0-0.4-0.3-0.4-0.5
				c0-0.3,0.1-0.5,0.4-0.5c18.2,1.5,26.4,14.7,30,27.4c3.1,10.8,2.8,21.4,2.7,24.1c7.5-2.2,11.7-1.3,13.9,0.3c2,1.3,2.6,3,2.8,3.6
				l4.7,0.9c0.4,0.1,0.8,0.4,0.8,0.9c0.1,0.4-0.2,0.9-0.6,1l-4.2,1.8c-1.6,10.4-12.3,16.8-14.2,17.9c0.7,38-33.6,49.6-33.6,49.6
				c-0.2,0.1-0.4,0-0.5-0.2c-0.2-0.2-0.1-0.4,0.1-0.6c4.1-4.4,5.1-9.8,4.6-14.8c-0.6-7.3-4-13.5-4.2-14.1
				c-6.1-8.3-4.4-16.4-3.8-18.6l-24.9-1.3c-0.2,0-0.3-0.2-0.4-0.3c-1.9-3.4-2.4-8.2-2.1-12.7c0.3-6.7,2-12.6,2-12.6
				c0.1-0.3,0.3-0.4,0.6-0.3l23,5.7c0.3,0.1,0.4,0.3,0.3,0.6s-0.3,0.4-0.6,0.3L46.5,90c-0.4,1.5-1.6,6.5-1.9,11.9
				c-0.2,4.1,0.2,8.6,1.8,11.9l25.2,1.3c0.2,0,0.3,0.1,0.4,0.2c0.1,0.2,0.2,0.3,0.1,0.4c0,0-3.4,9.2,3.4,18.4c0,0,0,0,0,0.1
				c0,0,3.8,6.7,4.4,14.4C80.7,153.2,80,158.2,76.7,162.5z"/>
			<path class="st2" d="M73.1,37.7c0.2,0.4,0.7,1.8,0.8,1.8c0.8,1.3,1.3,2.7,2,4.1c1.8,4.2,2.4,8.9,1.5,13.3
				c-0.9,4.1-2.6,8.1-4.3,12c-1.8,3.9-3.4,7.7-4.1,11.9c-1.1,6.5,1,12,2.4,18.2c0.1,0.3-0.2,0.5-0.4,0.6c-0.3,0.1-0.5-0.2-0.6-0.4
				c-1.3-6.3-3.5-11.9-2.4-18.5c0.8-4.2,2.4-8.2,4.1-12.1c1.8-3.9,3.4-7.7,4.2-11.8c0.9-4.3,0.3-8.8-1.3-12.9c-0.6-1.3-1.3-2.7-2-4
				c-0.1-0.1-0.8-1.6-0.9-2.2c-0.1-0.4,0.2-0.6,0.3-0.7c0.2-0.1,0.3-0.1,0.4,0C73.1,37.2,73.1,37.4,73.1,37.7z M72.5,38L72.5,38
				L72.5,38L72.5,38z M72.4,38L72.4,38L72.4,38L72.4,38z"/>
			<path class="st2" d="M108.4,113.8c-3,1.3-10.2,3.9-17,3.4c-0.2,0-0.3,0.1-0.3,0.2c-0.1,0.2,0,0.3,0.1,0.3
				c3.9,1.8,16.4,5.9,16.8,4.7L108.4,113.8z"/>
		</g>
		<g transform="matrix(1.12403,0,0,1.12403,-200.161,-121.44)">
			<circle class="st4" cx="276.9" cy="197.4" r="1.2"/>
		</g>
		<g transform="matrix(-0.862938,0.0224103,-0.025961,-0.999663,3022.72,1839.84)">
			<path class="st5" d="M3312.9,1820c0-0.9,0.3-1.8,0.9-2.2c0.3-0.3,0.8-0.4,1.2-0.4s0.9,0.2,1.2,0.4c0.6,0.4,0.9,1.3,0.9,2.2
				c0,0.3,0.3,0.4,0.5,0.4c0.3,0,0.5-0.2,0.5-0.4c0-2-1.5-3.5-3.3-3.5s-3.3,1.5-3.3,3.5c0,0.3,0.3,0.4,0.5,0.4
				C3312.7,1820.5,3312.9,1820.3,3312.9,1820z"/>
		</g>
	</g>
</g>
<g id="FLAG">
	<path class="st6" d="M125.1,83c-7.2-3.9-37.8-17.5-101.7-11.3c-0.4,0.1-0.8-0.2-1-0.4c-0.2-0.3-0.3-0.8-0.2-1.1
		c0,0,3.3-8,13.7-12.5c-2.6-1.3-7.3-3.5-11.6-3.5c-0.5,0-0.9-0.3-1.1-0.9c-0.2-0.4,0.2-1,0.6-1.2c0,0,47.6-22.2,109,7.6
		c0.4,0.2,0.7,0.8,0.6,1.2L128,85.3c-0.6-0.6-1.2-1.1-2-1.6l0,0c-0.2-0.1-0.3-0.2-0.4-0.3C125.6,83.2,125.3,83,125.1,83L125.1,83z"
		/>
	<g>
		<path class="st4" d="M46.5,53.1l-0.1-2c0-0.2,0.1-0.3,0.2-0.3c0.1-0.1,0.2-0.2,0.3-0.2c1.2,0.1,4.4,0.2,7.3,0.2
			c2.8,0.1,5.1,2.4,5.1,5.2l0,0c0.1,2.8-2.2,5.3-5,5.5s-5.8,0.3-6.9,0.4c-0.2,0-0.3-0.1-0.3-0.2c-0.1-0.1-0.2-0.2-0.2-0.3l-0.1-1.8
			l3.6-0.2c0.2,0,0.3-0.2,0.3-0.3s-0.2-0.3-0.3-0.3L46.8,59l-0.1-1h0.1l4.1-0.2c0.2,0,0.3-0.2,0.3-0.3s-0.2-0.3-0.3-0.3l-4.1,0.4
			h-0.1l-0.1-1.8l3.8-0.2c0.2,0,0.3-0.2,0.3-0.3c0-0.2-0.2-0.3-0.3-0.3l-3.8,0.2l-0.1-1.1l3.4-0.2c0.2,0,0.3-0.2,0.3-0.3
			s-0.2-0.3-0.3-0.3L46.5,53.1z"/>
		<path class="st1" d="M79.5,55.4c-2.6-0.8-7.1-2.7-8.7-7.4c0,0,1.5-0.3,3.3,0.2c2.2,0.8,7.1,3,7.4,7.3c5,0.4,10.4,1.3,15.9,2.5
			c-2.6-1-6.8-3.4-7.8-8.2c0,0,1.5-0.2,3.2,0.5c2.1,0.9,6.9,3.6,6.7,8.1c4.6,1.1,9.2,2.6,13.5,4.4c-2.4-1.3-6.1-4.5-6.3-9.4
			c0,0,1.5,0.1,3,1.1c1.9,1.3,6.1,4.7,5.1,9.2l0,0c1.1,0.5,2.4,1.1,3.4,1.8c0.9,0.4,1.8,0.9,2.6,1.5c0.2,0.2,0.4,0.3,0.7,0.4
			c0.1,0,0.1,0.1,0.2,0.1s0.1,0.1,0.2,0.1c0.1,0.1,0.1,0.1,0.2,0.2s0.2,0.2,0.2,0.3s0.1,0.2,0.1,0.3s0,0.2-0.1,0.3
			c0,0.1-0.1,0.2-0.1,0.2c-0.1,0.1-0.2,0.2-0.2,0.2c-0.2,0.2-0.3,0.2-0.5,0.2s-0.2,0-0.3-0.1c-0.1-0.1-0.2-0.2-0.3-0.2
			c-0.1-0.1-0.2-0.2-0.3-0.2c-0.3-0.2-0.6-0.4-0.9-0.6c-1-0.6-2-1.1-3.1-1.8c-3.1-1.6-6.3-3-9.8-4h-0.1l0,0c0.1,0.2,0.1,0.3-0.1,0.4
			C103,68.4,95,67.9,95,67.9c0.9-4.5,6.4-5.9,8.6-6.1c0.5-0.1,1.1-0.1,1.5,0c-4.7-1.5-9.6-2.6-14.2-3.4c0,0.1,0,0.1-0.1,0.2
			c-3,6.1-11.1,6.3-11.1,6.3c0.5-4.6,5.9-6.3,8.1-6.9h0.1c-4.1-0.6-8.1-0.9-11.7-1.2c0,0.1,0,0.2-0.1,0.3c-3,6.1-11.1,6.3-11.1,6.3
			c0.4-4.2,5.1-6.1,7.6-6.7c-7.7-0.3-12.7,0-12.7,0H60c0.3,2.8-3.2,4.5-3.2,4.5c-0.8-1.1-0.3-2.4,0.4-3.4c0.7-0.9,1.8-1.6,2.4-1.9
			c-0.8-0.3-4.1-1.8-3.5-4.9c0.6,0.1,1.8,0.7,2.8,1.5c0.7,0.7,1.2,1.5,1.2,2.4C60.3,54.9,68.6,54.4,79.5,55.4z"/>
	</g>
</g>
</svg>
