<?xml version="1.0" encoding="utf-8"?>
<!-- Generator: Adobe Illustrator 25.0.1, SVG Export Plug-In . SVG Version: 6.00 Build 0)  -->
<svg version="1.1" id="Layer_1" xmlns="http://www.w3.org/2000/svg" xmlns:xlink="http://www.w3.org/1999/xlink" x="0px" y="0px"
	 viewBox="0 0 1039.5 633.6" style="enable-background:new 0 0 1039.5 633.6;" xml:space="preserve">
<style type="text/css">
	.st0{fill:#2B3F44;}
	.st1{fill:#F8F9FB;}
	.st2{fill:#CCF0F1;}
	.st3{fill:#E86166;}
	.st4{fill:#00B9BC;}
	.st5{fill:none;stroke:#2B3F44;stroke-width:6;stroke-miterlimit:10;}
</style>
<g transform="translate(173.0 346.0) scale(0.6738078783690394 0.6738078783690394) rotate(45.100342768714405 144.7 144.7)">
	<g transform="translate(-0.0 -0.0)">
		<g>
			
				<rect x="-181.5" y="211.2" transform="matrix(0.7071 0.7071 -0.7071 0.7071 158.1899 50.5287)" class="st0" width="399.2" height="10"/>
		</g>
	</g>
</g>
<g transform="translate(108.0 128.0) scale(0.5186272299788608 0.5191002262744576) rotate(0.0 317.18350000000004 375.65)">
	<g transform="translate(-0.0 -0.0)">
		<path class="st1" d="M354.3,257c0.1,65.3-29,127.2-79.3,168.8c-11.4,9.4-21.6,20.3-30.3,32.3c-19.8,27-31.3,59.3-32.9,92.8
			l-4.6,75.8c-0.8,18.5-8.8,36-22.3,48.8C156.2,703,110.5,702,83,673.2c-12-12.6-19.1-29.1-19.9-46.5l-4.5-75.1
			c-1.6-33.7-12.9-66.2-32.7-93.5c-8.5-11.7-18.4-22.3-29.6-31.5C-54.9,384.7-84.4,321.9-84,255.7C-83.3,135,18.1,35.9,138.8,37.9
			C258.1,39.8,354.3,137.2,354.3,257z"/>
		<path class="st0" d="M135.2,700.4c-41.2,0-75.1-32.3-77.1-73.4l-4.5-75.1c-1.5-32.7-12.5-64.3-31.7-90.9
			C13.7,449.6,4,439.3-6.9,430.4c-52.4-42.8-82.6-107-82.1-174.7c0.4-59.7,24.5-115.9,67.9-158.4c20.8-20.5,45.4-36.7,72.4-47.8
			c27.8-11.5,57.6-17.1,87.6-16.6C262.7,35,361.4,137,359.3,260.8c-1.1,65.4-30.7,127.1-81.1,168.8c-11.1,9.2-21,19.7-29.4,31.4
			c-19.2,26.3-30.3,57.7-32,90.2l-4.6,75.9c-0.5,10-2.9,19.7-7.1,28.8c-4.1,8.8-9.8,16.7-16.8,23.3C174,692.8,155,700.4,135.2,700.4
			z M135.2,42.9c-55.8,0-108.7,21.8-149.4,61.6c-41.5,40.6-64.5,94.3-64.9,151.3c-0.5,64.6,28.3,126,78.4,166.9
			c11.5,9.4,21.8,20.3,30.5,32.4c20.3,28.1,32,61.5,33.6,96.2l4.5,75.1c0.4,8.7,2.5,17.3,6.2,25.2c15.7,33.6,55.6,48.2,89.3,32.5
			c22.6-10.5,37.5-32.7,38.7-57.6l4.6-75.9c1.7-34.5,13.5-67.7,33.9-95.5c9-12.3,19.4-23.4,31.1-33.2
			c91.1-75.5,103.7-210.6,28.1-301.7C260,72.1,201,43.8,138.5,42.8C137.5,42.9,136.4,42.9,135.2,42.9z"/>
		<ellipse class="st2" cx="135.3" cy="305.1" rx="79" ry="79.1"/>
		<polygon class="st2" points="135.2,458 75.2,271.9 135.3,271.9 		"/>
		<path class="st0" d="M135.2,463c-2.2,0-4.1-1.4-4.8-3.5l-60-186.1c-0.5-1.5-0.2-3.2,0.7-4.5c0.9-1.3,2.4-2.1,4-2.1h60.1
			c1.3,0,2.6,0.5,3.5,1.5c0.9,0.9,1.5,2.2,1.5,3.5l-0.1,186.1c0,2.5-1.8,4.6-4.2,4.9C135.7,463,135.5,463,135.2,463z M82,276.9
			l48.2,149.4l0.1-149.4H82z"/>
		<polygon class="st2" points="135.4,458 195.4,271.9 135.3,271.9 		"/>
		<path class="st0" d="M135.4,463c-0.3,0-0.5,0-0.8-0.1c-2.4-0.4-4.2-2.5-4.2-4.9l-0.1-186.1c0-1.3,0.5-2.6,1.5-3.5
			c0.9-0.9,2.2-1.5,3.5-1.5h60.1c1.6,0,3.1,0.8,4,2.1c0.9,1.3,1.2,3,0.7,4.5l-60,186.1C139.5,461.7,137.6,463.1,135.4,463z
			 M140.3,276.9l0.1,149.4l48.2-149.4H140.3z"/>
		<path class="st0" d="M249.1,455.8c-0.9-1.7-2.6-2.7-4.5-2.7H25.9c-1.9,0-3.6,1.1-4.5,2.7c-0.9,1.7-0.7,3.7,0.4,5.2
			C41,487.5,52,519.2,53.5,551.9L58,627c0.5,10,2.9,19.8,7.1,28.8c0.8,1.8,2.6,2.9,4.5,2.9h130.9c1.9,0,3.7-1.1,4.5-2.9
			c4.2-9.1,6.6-18.8,7.1-28.8l4.6-75.9c1.6-32.5,12.7-63.9,32-90.1C249.9,459.5,250,457.5,249.1,455.8z"/>
		<path class="st0" d="M135.2-10.4c-2.7,0-5-2.2-5-4.9v-0.1v-30.5c0-2.8,2.2-5,5-5s5,2.2,5,5v30.5C140.2-12.6,138-10.4,135.2-10.4z"
			/>
		<path class="st0" d="M232.4,6.5c-0.6,0-1.2-0.1-1.7-0.3c-2.6-0.9-3.9-3.8-3-6.4L238-28.9c1-2.6,3.9-3.8,6.5-2.8
			c2.5,1,3.7,3.7,2.9,6.2L237.1,3.2C236.5,5.2,234.6,6.6,232.4,6.5z"/>
		<path class="st0" d="M318.2,55.4c-1.2,0-2.3-0.4-3.2-1.1c-2.1-1.8-2.4-4.9-0.7-7l19.4-23.5c1.7-2.1,4.9-2.4,7-0.7
			c2.1,1.7,2.4,4.9,0.7,7l0,0L322,53.6C321.1,54.7,319.7,55.4,318.2,55.4z"/>
		<path class="st0" d="M382.4,130.3c-1.8,0-3.4-1-4.3-2.5c-1.4-2.4-0.6-5.5,1.8-6.9l26.2-15.5c2.4-1.4,5.5-0.6,6.9,1.8
			s0.6,5.5-1.8,6.9L385,129.6C384.2,130.1,383.3,130.3,382.4,130.3z"/>
		<path class="st0" d="M417.4,222.6c-2.8,0-5-2.3-5-5.1c0-2.4,1.7-4.4,4.1-4.9l29.9-5.7c2.7-0.5,5.4,1.3,5.9,4s-1.3,5.4-4,5.9
			l-29.9,5.7C418.1,222.6,417.8,222.6,417.4,222.6z"/>
		<path class="st0" d="M37.9,6.5c-2.1,0-4-1.3-4.7-3.3L22.9-25.5c-1-2.6,0.2-5.5,2.8-6.5s5.5,0.2,6.5,2.8c0,0.1,0.1,0.2,0.1,0.3
			L42.6-0.2c0.9,2.6-0.4,5.5-3,6.4C39.1,6.4,38.5,6.5,37.9,6.5z"/>
		<path class="st0" d="M-47.9,55.4c-1.5,0-2.9-0.7-3.9-1.8l-19.4-23.5c-1.7-2.1-1.4-5.3,0.7-7c2.1-1.7,5.3-1.4,7,0.7l19.4,23.5
			c1.7,2.1,1.4,5.2-0.7,7C-45.6,55-46.7,55.4-47.9,55.4z"/>
		<path class="st0" d="M-112.1,130.3c-0.9,0-1.8-0.2-2.5-0.7l-26.2-15.5c-2.4-1.4-3.2-4.5-1.8-6.9s4.5-3.2,6.9-1.8l26.2,15.5
			c2.4,1.4,3.2,4.5,1.8,6.9C-108.6,129.4-110.3,130.3-112.1,130.3z"/>
		<path class="st0" d="M-147.1,222.6c-0.3,0-0.6,0-0.9-0.1l-29.9-5.7c-2.7-0.5-4.5-3.2-4-5.9s3.2-4.5,5.9-4l29.9,5.7
			c2.7,0.5,4.5,3.2,4,5.9C-142.5,220.9-144.6,222.6-147.1,222.6z"/>
	</g>
</g>
<g transform="translate(870.0 346.0) scale(0.6738078783690394 0.6738078783690394) rotate(44.9978450216501 144.7 144.7)">
	<g transform="translate(-0.0 -0.0)">
		<g>
			
				<rect x="13" y="16.3" transform="matrix(-0.7071 0.7071 -0.7071 -0.7071 183.3652 355.9395)" class="st0" width="10" height="399.2"/>
		</g>
	</g>
</g>
<g transform="translate(816.0 169.0) scale(0.47921786599870425 0.4791694396379609) rotate(0.0 317.1835 375.65)">
	<g transform="translate(-0.0 -0.0)">
		<path class="st1" d="M339.4,252.8c0.1,65.3-29,127.2-79.3,168.8c-11.4,9.4-21.6,20.3-30.3,32.3c-19.8,27-31.3,59.3-32.9,92.8
			l-4.6,75.8c-0.8,18.5-8.8,36-22.3,48.8c-28.8,27.5-74.4,26.5-101.9-2.3c-12-12.6-19.1-29.1-19.9-46.5l-4.5-75.1
			c-1.6-33.7-12.9-66.2-32.7-93.5c-8.5-11.7-18.4-22.3-29.6-31.5c-51.2-41.9-80.7-104.7-80.3-170.9C-98.2,130.8,3.2,31.7,123.9,33.7
			C243.2,35.6,339.4,133,339.4,252.8z"/>
		<path class="st0" d="M120.3,696.2c-41.2,0-75.1-32.3-77.1-73.4l-4.5-75.1C37.2,515,26.2,483.4,7,456.8
			c-8.2-11.4-17.9-21.7-28.8-30.6c-52.4-42.8-82.6-107-82.1-174.7c0.4-59.7,24.5-115.9,67.9-158.4c20.8-20.5,45.4-36.7,72.4-47.8
			C64.1,33.8,93.9,28.1,124,28.7c123.8,2.1,222.4,104.1,220.4,227.9c-1.1,65.4-30.7,127.1-81.1,168.8c-11.1,9.2-21,19.7-29.4,31.4
			c-19.2,26.3-30.3,57.7-32,90.2l-4.6,75.9c-0.5,10-2.9,19.7-7.1,28.8c-4.1,8.8-9.8,16.7-16.8,23.3
			C159.1,688.6,140,696.2,120.3,696.2z M120.3,38.7c-55.8,0-108.7,21.8-149.4,61.6c-41.5,40.6-64.5,94.3-64.9,151.3
			c-0.5,64.6,28.3,126,78.4,166.9c11.5,9.4,21.8,20.3,30.5,32.4c20.3,28.1,32,61.5,33.6,96.2l4.5,75.1c0.4,8.7,2.5,17.3,6.2,25.2
			c15.7,33.6,55.6,48.2,89.3,32.5c22.6-10.5,37.5-32.7,38.7-57.6l4.6-75.9c1.7-34.5,13.5-67.7,33.9-95.5c9-12.3,19.4-23.4,31.1-33.2
			c91.1-75.5,103.7-210.6,28.1-301.7C245,67.9,186.1,39.6,123.6,38.6C122.6,38.7,121.5,38.7,120.3,38.7z"/>
		<ellipse class="st2" cx="120.4" cy="300.9" rx="73" ry="73"/>
		<polygon class="st2" points="120.3,453.8 60.3,267.7 120.4,267.7 		"/>
		<path class="st0" d="M120.3,458.8c-2.2,0-4.1-1.4-4.8-3.5l-60-186.1c-0.5-1.5-0.2-3.2,0.7-4.5s2.4-2.1,4-2.1h60.1
			c1.3,0,2.6,0.5,3.5,1.5c0.9,0.9,1.5,2.2,1.5,3.5l-0.1,186.1c0,2.5-1.8,4.6-4.2,4.9C120.8,458.7,120.5,458.8,120.3,458.8z
			 M67.1,272.7l48.2,149.4l0.1-149.4H67.1z"/>
		<polygon class="st2" points="120.5,453.8 180.5,267.7 120.4,267.7 		"/>
		<path class="st0" d="M120.5,458.8c-0.3,0-0.5,0-0.8-0.1c-2.4-0.4-4.2-2.5-4.2-4.9l-0.1-186.1c0-1.3,0.5-2.6,1.5-3.5
			c0.9-0.9,2.2-1.5,3.5-1.5h60.1c1.6,0,3.1,0.8,4,2.1c0.9,1.3,1.2,3,0.7,4.5l-60,186.1C124.6,457.4,122.6,458.8,120.5,458.8z
			 M125.4,272.7l0.1,149.4l48.2-149.4H125.4z"/>
		<path class="st0" d="M234.2,451.6c-0.9-1.7-2.6-2.7-4.5-2.7H11c-1.9,0-3.6,1.1-4.5,2.7c-0.9,1.7-0.7,3.7,0.4,5.2
			c19.2,26.5,30.2,58.2,31.7,90.9l4.5,75.1c0.5,10,2.9,19.8,7.1,28.8c0.8,1.8,2.6,2.9,4.5,2.9h130.9c1.9,0,3.7-1.1,4.5-2.9
			c4.2-9.1,6.6-18.8,7.1-28.8l4.6-75.9c1.6-32.5,12.7-63.9,32-90.1C234.9,455.3,235,453.2,234.2,451.6z"/>
		<path class="st0" d="M120.3-14.6c-2.7,0-5-2.2-5-4.9v-0.1v-30.5c0-2.8,2.2-5,5-5s5,2.2,5,5v30.5C125.3-16.9,123-14.6,120.3-14.6z"
			/>
		<path class="st0" d="M217.5,2.3c-0.6,0-1.2-0.1-1.7-0.3c-2.6-0.9-3.9-3.8-3-6.4l10.3-28.7c1-2.6,3.9-3.8,6.5-2.8
			c2.5,1,3.7,3.7,2.9,6.2L222.2-1C221.5,1,219.6,2.3,217.5,2.3z"/>
		<path class="st0" d="M303.3,51.2c-1.2,0-2.3-0.4-3.2-1.1c-2.1-1.8-2.4-4.9-0.7-7l19.4-23.5c1.7-2.1,4.9-2.4,7-0.7
			c2.1,1.7,2.4,4.9,0.7,7l0,0l-19.4,23.5C306.1,50.5,304.7,51.1,303.3,51.2z"/>
		<path class="st0" d="M367.5,126.1c-1.8,0-3.4-1-4.3-2.5c-1.4-2.4-0.6-5.5,1.8-6.9l26.2-15.5c2.4-1.4,5.5-0.6,6.9,1.8
			s0.6,5.5-1.8,6.9l-26.2,15.5C369.3,125.8,368.4,126.1,367.5,126.1z"/>
		<path class="st0" d="M402.5,218.4c-2.8,0-5-2.3-5-5.1c0-2.4,1.7-4.4,4.1-4.9l29.9-5.7c2.7-0.5,5.4,1.3,5.9,4s-1.3,5.4-4,5.9
			l-29.9,5.7C403.1,218.3,402.8,218.4,402.5,218.4z"/>
		<path class="st0" d="M23,2.3c-2.1,0-4-1.3-4.7-3.3L8-29.7c-1-2.6,0.2-5.5,2.8-6.5c2.6-1,5.5,0.2,6.5,2.8c0,0.1,0.1,0.2,0.1,0.3
			L27.7-4.4c0.9,2.6-0.4,5.5-3,6.4C24.1,2.2,23.6,2.3,23,2.3z"/>
		<path class="st0" d="M-62.8,51.2c-1.5,0-2.9-0.7-3.9-1.8l-19.4-23.5c-1.7-2.1-1.4-5.3,0.7-7s5.3-1.4,7,0.7L-59,43.1
			c1.7,2.1,1.4,5.2-0.7,7C-60.6,50.8-61.7,51.2-62.8,51.2z"/>
		<path class="st0" d="M-127,126.1c-0.9,0-1.8-0.2-2.5-0.7l-26.2-15.5c-2.4-1.4-3.2-4.5-1.8-6.9s4.5-3.2,6.9-1.8l26.2,15.5
			c2.4,1.4,3.2,4.5,1.8,6.9C-123.5,125.1-125.2,126.1-127,126.1z"/>
		<path class="st0" d="M-162,218.4c-0.3,0-0.6,0-0.9-0.1l-29.9-5.7c-2.7-0.5-4.5-3.2-4-5.9s3.2-4.5,5.9-4l29.9,5.7
			c2.7,0.5,4.5,3.2,4,5.9C-157.5,216.7-159.6,218.4-162,218.4z"/>
	</g>
</g>
<g transform="translate(893.0 262.0) scale(0.7657200811359027 0.7657200811359027) rotate(0.0 98.6 98.6)">
	<g transform="translate(-0.0 -0.0)">
		<circle class="st2" cx="-24.6" cy="64.1" r="93.6"/>
		<path class="st0" d="M-24.6,162.7c-54.5,0-98.6-44.1-98.6-98.6s44.1-98.6,98.6-98.6S74,9.6,74,64.1l0,0
			C73.9,118.5,29.8,162.7-24.6,162.7z M-24.6-24.5c-48.9,0-88.6,39.7-88.6,88.6s39.7,88.6,88.6,88.6S64,113,64,64.1l0,0
			C63.9,15.2,24.3-24.4-24.6-24.5z"/>
	</g>
</g>
<g transform="translate(777.0 200.0) scale(0.2259215219976219 0.2259215219976219) rotate(142.45559871472693 210.25 210.25)">
	<g transform="translate(-0.0 -0.0)">
		<g>
			<g>
				<g>
					<g>
						<path class="st3" d="M302.7-299.9l0,71.4c0,6.9,5.6,11.2,11.3,11.2c3.3,0,6.6-1.4,8.9-4.6c4.2-6.3,10.2-10.2,17-10.2
							c12.7,0,23.1,14.1,23.1,31.6c0,17.4-10.3,31.6-23.1,31.6c-3.3,0-6.6-1-9.4-2.8c-2.9-1.8-5.5-4.3-7.5-7.5
							c-6.4-8.7-20.2-4.2-20.2,6.6l0,76.4l-76.4,0c-6.9,0-11.2,5.6-11.2,11.3c0,3.3,1.4,6.6,4.6,8.9c6.3,4.2,10.2,10.3,10.2,17
							c0,12.7-14.1,23.1-31.6,23.1c-17.4,0-31.6-10.3-31.6-23.1c0-3.3,1-6.6,2.8-9.4c1.8-2.9,4.3-5.5,7.5-7.5
							c8.7-6.4,4.2-20.2-6.6-20.2l-71.4,0l0,0C99.1-208.8,190.3-299.9,302.7-299.9z"/>
						<path class="st0" d="M198.4-32.8c-19.2,0-34.8-11.8-34.8-26.3c0-3.9,1.1-7.7,3.3-11.1c2.1-3.3,4.9-6.2,8.4-8.5
							c3.4-2.5,3.7-6.2,2.8-8.9c-0.8-2.6-3.3-5.5-7.5-5.5l-71.4,0c-1.8,0-3.2-1.4-3.2-3.2c0-55.2,21.5-107.2,60.6-146.2
							s91-60.6,146.2-60.6c1.8,0,3.2,1.4,3.2,3.2l0,71.4c0,5,4.1,8,8.1,8c1.5,0,4.2-0.4,6.3-3.3c5.1-7.5,12-11.6,19.6-11.6
							c14.5,0,26.3,15.6,26.3,34.8c0,19.2-11.8,34.8-26.3,34.8c-3.9,0-7.7-1.1-11.1-3.3c-3.3-2.1-6.2-4.9-8.5-8.4
							c-2.5-3.4-6.2-3.7-8.9-2.8c-2.6,0.8-5.5,3.3-5.5,7.5l0,76.4c0,1.8-1.4,3.2-3.2,3.2l-76.4,0c-5,0-8,4.1-8,8.1
							c0,1.5,0.4,4.2,3.3,6.3c7.4,4.9,11.6,12.1,11.6,19.6C233.2-44.6,217.5-32.8,198.4-32.8z M102.3-99.5l68.1,0
							c6.3,0,11.7,3.9,13.6,10c2,6-0.1,12.4-5.2,16.1c-0.1,0-0.1,0.1-0.1,0.1c-2.7,1.8-4.9,4-6.5,6.6c-1.5,2.4-2.2,5-2.2,7.8
							C170-48,182.7-39,198.3-39s28.3-8.9,28.3-19.9c0-5.4-3.2-10.6-8.8-14.3c-0.1,0-0.1-0.1-0.1-0.1c-3.8-2.7-6-6.9-6-11.6
							c0-7.1,5.4-14.5,14.4-14.5l73.2,0l0-73.3c0-6.3,3.9-11.7,10-13.6c6-2,12.4,0.1,16.1,5.2c0,0.1,0.1,0.1,0.1,0.1
							c1.8,2.7,4,4.9,6.6,6.5c2.4,1.5,5,2.2,7.8,2.2c10.9,0,19.9-12.7,19.9-28.3s-8.9-28.3-19.9-28.3c-5.4,0-10.5,3.1-14.3,8.8
							l-0.1,0.1c-2.7,3.8-6.9,6-11.6,6c-7.1,0-14.5-5.4-14.5-14.4l0-68.1c-52.3,0.8-101.4,21.6-138.5,58.7S103.2-151.9,102.3-99.5z"
							/>
					</g>
				</g>
				<g>
					<g>
						<path class="st3" d="M314-217.4c3.3,0,6.6-1.4,8.9-4.6c4.2-6.3,10.2-10.2,17-10.2c12.7,0,23.1,14.1,23.1,31.6
							c0,17.4-10.3,31.6-23.1,31.6c-3.3,0-6.6-1-9.4-2.8c-2.8-1.8-5.5-4.3-7.5-7.5c-6.4-8.7-20.2-4.2-20.2,6.6l0,76.4l-76.4,0
							c-6.9,0-11.2,5.6-11.2,11.3c0,3.3,1.4,6.6,4.6,8.9c6.3,4.2,10.2,10.3,10.2,17c0,12.7-14.1,23.1-31.6,23.1
							c-17.4,0-31.6-10.3-31.6-23.1c0-3.3,1-6.6,2.8-9.4c1.8-2.9,4.3-5.5,7.5-7.5c8.7-6.4,4.2-20.2-6.6-20.2l-29.1,0l0,0
							c0-89.1,72.2-161.3,161.3-161.3l0,29.1C302.7-221.7,308.3-217.4,314-217.4z"/>
					</g>
					<g>
						<path class="st2" d="M137.3-96.3L137.3-96.3l8.4,0l0,0c0-86.6,70.5-157.1,157.1-157.1v-8.4
							C211.5-261.8,137.3-187.5,137.3-96.3z"/>
					</g>
				</g>
			</g>
			<g>
				<path class="st3" d="M302.7-96.3l0-76.4c0-10.9,13.9-15.4,20.2-6.6c2.1,3.1,4.7,5.7,7.5,7.5c2.8,1.7,6,2.8,9.4,2.8
					c12.7,0,23.1-14.1,23.1-31.6c0-17.4-10.3-31.6-23.1-31.6c-6.7,0-12.8,3.9-17,10.2c-2.3,3.2-5.7,4.6-8.9,4.6
					c-5.7,0-11.3-4.3-11.3-11.2l0-24.9v-4.2v-4.2l0-38.1"/>
				<path class="st0" d="M302.7-93.1c-1.8,0-3.2-1.4-3.2-3.2l0-76.4c0-6.4,3.9-11.8,10-13.7c6.1-1.9,12.3,0.1,16.1,5.3l0.1,0.1
					c1.9,2.8,4.1,5,6.6,6.5c2.5,1.5,5.1,2.3,7.8,2.3c10.9,0,19.9-12.7,19.9-28.3s-8.9-28.3-19.9-28.3c-5.5,0-10.5,3.1-14.3,8.8
					c0,0.1-0.1,0.1-0.1,0.1c-2.7,3.8-6.9,6-11.6,6c-7.1,0-14.5-5.4-14.5-14.4l0-71.4c0-1.8,1.4-3.2,3.2-3.2s3.2,1.4,3.2,3.2l0,71.4
					c0,5,4.1,8,8.1,8c1.5,0,4.2-0.4,6.3-3.3c4.9-7.4,12.1-11.6,19.6-11.6c14.5,0,26.3,15.6,26.3,34.8c0,19.2-11.8,34.8-26.3,34.8
					c-3.9,0-7.6-1.1-11.1-3.2c-3.1-1.9-6.1-4.8-8.5-8.4c-2.5-3.4-6.2-3.7-8.9-2.9c-2.6,0.8-5.5,3.3-5.5,7.6l0,76.4
					C305.9-94.5,304.5-93.1,302.7-93.1z"/>
			</g>
			<g>
				<path class="st3" d="M99.1-96.3l38.1,0h4.2l4.2,0l24.9,0c10.8,0,15.3,13.8,6.6,20.2c-3.1,2.1-5.7,4.7-7.5,7.5
					c-1.8,2.9-2.8,6-2.8,9.4c0,12.7,14.1,23.1,31.6,23.1S230-46.4,230-59.2c0-6.7-3.9-12.8-10.2-17c-3.2-2.3-4.6-5.7-4.6-8.9
					c0-5.7,4.3-11.3,11.2-11.3l76.4,0"/>
				<path class="st0" d="M198.4-32.9c-19.2,0-34.8-11.8-34.8-26.3c0-3.9,1.1-7.7,3.3-11.1c1.9-3.1,4.8-6,8.4-8.4
					c3.4-2.5,3.7-6.2,2.8-8.9c-0.8-2.6-3.3-5.5-7.5-5.5l-71.4,0c-1.8,0-3.2-1.4-3.2-3.2c0-1.8,1.4-3.2,3.2-3.2l71.4,0
					c6.4,0,11.7,3.9,13.7,9.9c2,6-0.1,12.3-5.2,16.1l-0.1,0.1c-2.8,1.9-5,4.1-6.5,6.6c-1.5,2.5-2.3,5-2.3,7.8
					c0,10.9,12.7,19.9,28.3,19.9S226.8-48,226.8-59c0-5.5-3.1-10.5-8.8-14.3c-0.1,0-0.1-0.1-0.1-0.1c-3.8-2.7-6-6.9-6-11.6
					c0-7.1,5.4-14.5,14.4-14.5l76.4,0c1.8,0,3.2,1.4,3.2,3.2c0,1.8-1.4,3.2-3.2,3.2l-76.4,0c-5,0-8,4.1-8,8.1c0,1.5,0.4,4.2,3.3,6.3
					c7.4,4.9,11.6,12.1,11.6,19.6C233.2-44.7,217.5-32.9,198.4-32.9z M177-76.2L177-76.2L177-76.2z"/>
			</g>
		</g>
	</g>
</g>
<g transform="translate(140.0 84.0) scale(0.798004987531172 0.7981220657276995) rotate(0.0 20.05 10.65)">
	<g transform="translate(-0.0 -0.0)">
		<g>
			<path class="st0" d="M-113.2-11.8c-2,0-3.9-1.2-4.7-3.2c-1-2.6,0.3-5.5,2.9-6.4l30.1-11.4c2.6-1,5.5,0.3,6.4,2.9
				c1,2.6-0.3,5.5-2.9,6.4l-30,11.4C-112-11.9-112.6-11.8-113.2-11.8z"/>
		</g>
	</g>
</g>
<g transform="translate(296.0 49.0) scale(1.346633416458853 1.3615023474178403) rotate(58.20971021417053 20.05 10.65)">
	<g transform="translate(-0.0 -0.0)">
		<g>
			<path class="st0" d="M-48.4,70.6c-2,0-3.9-1.2-4.7-3.2c-1-2.6,0.3-5.5,2.9-6.4l30.1-11.4c2.6-1,5.5,0.3,6.4,2.9
				c1,2.6-0.3,5.5-2.9,6.4l-30,11.4C-47.2,70.5-47.8,70.6-48.4,70.6z"/>
		</g>
	</g>
</g>
<g transform="translate(236.0 80.0) scale(1.6819571865443423 1.7045454545454544) rotate(270.0 16.35 8.800000000000002)">
	<g transform="translate(-0.0 -0.0)">
		<g>
			<path class="st4" d="M43.2-38.5c-0.3,0-0.6,0-0.9-0.1c-8.3-1.5-16.4-4.2-24.1-8.1c-2.4-1.2-3.4-4.2-2.2-6.7s4.3-3.4,6.7-2.2
				c6.8,3.5,14,5.9,21.3,7.1c2.7,0.5,4.5,3.1,4.1,5.8C47.7-40.2,45.6-38.5,43.2-38.5z"/>
		</g>
	</g>
</g>
<g transform="translate(151.0 30.0) scale(1.1926605504587156 1.1931818181818181) rotate(196.1071337338809 16.35 8.8)">
	<g transform="translate(-0.0 -0.0)">
		<g>
			<path class="st4" d="M109.9,16.9c-0.3,0-0.6,0-0.9-0.1c-8.3-1.5-16.4-4.2-24.1-8.1c-2.4-1.2-3.4-4.2-2.2-6.7
				c1.2-2.5,4.3-3.4,6.7-2.2c6.8,3.5,14,5.9,21.3,7.1c2.7,0.5,4.5,3.1,4.1,5.8C114.4,15.2,112.3,16.9,109.9,16.9z"/>
		</g>
	</g>
</g>
<g transform="translate(86.0 126.0) scale(1.3455657492354738 1.3636363636363635) rotate(45.99808334340768 16.35 8.8)">
	<g transform="translate(-0.0 -0.0)">
		<g>
			<path class="st4" d="M-35,54.6c-0.3,0-0.6,0-0.9-0.1c-8.3-1.5-16.4-4.2-24.1-8.1c-2.4-1.2-3.4-4.2-2.2-6.7s4.3-3.4,6.7-2.2
				c6.8,3.5,14,5.9,21.3,7.1c2.7,0.5,4.5,3.1,4.1,5.8C-30.5,52.9-32.6,54.6-35,54.6z"/>
		</g>
	</g>
</g>
<line class="st5" x1="172.5" y1="551.6" x2="874.2" y2="550.5"/>
</svg>
