<?xml version="1.0" encoding="utf-8"?>
<!-- Generator: Adobe Illustrator 25.0.1, SVG Export Plug-In . SVG Version: 6.00 Build 0)  -->
<svg version="1.1" id="Layer_1" xmlns="http://www.w3.org/2000/svg" xmlns:xlink="http://www.w3.org/1999/xlink" x="0px" y="0px"
	 viewBox="0 0 1064.3 760.8" style="enable-background:new 0 0 1064.3 760.8;" xml:space="preserve">
<style type="text/css">
	.st0{fill:#FFFFFF;}
	.st1{fill:#E86166;}
	.st2{fill:#EE898C;}
	.st3{fill:#FFFCFC;}
	.st4{fill:#F2A5A8;}
	.st5{fill:#F19FA2;}
</style>
<g>
	<g>
		<g>
			<rect x="319.7" y="222.8" class="st0" width="415.5" height="311.8"/>
			<path class="st1" d="M735.2,537.4H319.7c-1.5,0-2.7-1.2-2.7-2.7V222.9c0-1.5,1.2-2.7,2.7-2.7h415.5c1.5,0,2.7,1.2,2.7,2.7v311.8
				C737.9,536.2,736.7,537.4,735.2,537.4z M322.4,532h410.1V225.6H322.4V532z"/>
		</g>
		<g>
			<rect x="319.7" y="222.8" class="st2" width="415.5" height="97.4"/>
			<path class="st1" d="M735.2,323H319.7c-1.5,0-2.7-1.2-2.7-2.7v-97.4c0-1.5,1.2-2.7,2.7-2.7h415.5c1.5,0,2.7,1.2,2.7,2.7v97.4
				C737.9,321.7,736.7,323,735.2,323z M322.4,317.5h410.1v-91.9H322.4V317.5z"/>
		</g>
	</g>
	<g>
		<g>
			<rect x="353.2" y="252.8" class="st3" width="415.5" height="311.8"/>
			<path class="st1" d="M768.6,567.3H353.2c-1.5,0-2.7-1.2-2.7-2.7V252.8c0-1.5,1.2-2.7,2.7-2.7h415.5c1.5,0,2.7,1.2,2.7,2.7v311.8
				C771.4,566.1,770.2,567.3,768.6,567.3z M355.9,561.9H766V255.5H355.9V561.9z"/>
		</g>
		<g>
			<rect x="353.2" y="252.8" class="st4" width="415.5" height="97.4"/>
			<path class="st1" d="M768.6,352.9H353.2c-1.5,0-2.7-1.2-2.7-2.7v-97.4c0-1.5,1.2-2.7,2.7-2.7h415.5c1.5,0,2.7,1.2,2.7,2.7v97.4
				C771.4,351.7,770.2,352.9,768.6,352.9z M355.9,347.5H766v-91.9H355.9V347.5z"/>
		</g>
	</g>
	<g>
		<g>
			<g>
				<path class="st1" d="M423.7,321c-6.1,0-11-4.9-11-11s4.9-11,11-11s11,4.9,11,11S429.7,321,423.7,321z M423.7,304.5
					c-3.1,0-5.6,2.5-5.6,5.6s2.5,5.6,5.6,5.6s5.6-2.5,5.6-5.6C429.2,307,426.7,304.5,423.7,304.5z"/>
			</g>
			<g>
				<path class="st1" d="M451.1,321c-6.1,0-11-4.9-11-11s4.9-11,11-11s11,4.9,11,11C462.2,316.1,457.2,321,451.1,321z M451.1,304.5
					c-3.1,0-5.6,2.5-5.6,5.6s2.5,5.6,5.6,5.6s5.6-2.5,5.6-5.6S454.2,304.5,451.1,304.5z"/>
			</g>
			<g>
				<path class="st1" d="M478.6,321c-6.1,0-11-4.9-11-11s4.9-11,11-11s11,4.9,11,11S484.7,321,478.6,321z M478.6,304.5
					c-3.1,0-5.6,2.5-5.6,5.6s2.5,5.6,5.6,5.6s5.6-2.5,5.6-5.6S481.7,304.5,478.6,304.5z"/>
			</g>
		</g>
		<g>
			<g>
				<rect x="595.3" y="397.7" class="st4" width="55" height="117.6"/>
				<path class="st1" d="M650.3,517.9h-55c-1.5,0-2.7-1.2-2.7-2.7V397.7c0-1.5,1.2-2.7,2.7-2.7h55c1.5,0,2.7,1.2,2.7,2.7v117.6
					C653,516.7,651.8,517.9,650.3,517.9z M598,512.5h49.5V400.4H598V512.5z"/>
			</g>
			<g>
				<g>
					<rect x="527.9" y="437.6" class="st5" width="47.9" height="77.6"/>
				</g>
				<g>
					<path class="st1" d="M575.9,517.9H528c-1.5,0-2.7-1.2-2.7-2.7v-77.6c0-1.5,1.2-2.7,2.7-2.7h47.9c1.5,0,2.7,1.2,2.7,2.7v77.6
						C578.6,516.7,577.4,517.9,575.9,517.9z M530.7,512.5h42.5v-72.1h-42.5V512.5L530.7,512.5z"/>
				</g>
			</g>
			<g>
				<rect x="473.5" y="421.3" class="st0" width="33.9" height="93.9"/>
				<path class="st1" d="M507.4,517.9h-33.9c-1.5,0-2.7-1.2-2.7-2.7v-93.9c0-1.5,1.2-2.7,2.7-2.7h33.9c1.5,0,2.7,1.2,2.7,2.7v93.9
					C510.2,516.7,509,517.9,507.4,517.9z M476.3,512.5h28.5v-88.4h-28.5V512.5z"/>
			</g>
			<g>
				<rect x="451.6" y="512.5" class="st1" width="230.7" height="5.4"/>
			</g>
		</g>
	</g>
	<path class="st1" d="M685.4,470.7c0.2-0.3,0.6-0.3,0.9-0.3l53,17.7c0.3,0.1,0.5,0.3,0.6,0.7c0.1,0.3-0.1,0.6-0.3,0.8L727,498
		l16.8,14.4c0.3,0.3,0.3,0.8,0.1,1.2l-7.2,8.4c-0.1,0.1-0.3,0.3-0.6,0.3H736c-0.2,0-0.4-0.1-0.6-0.2l-16.8-14.5l-5.6,13.1
		c-0.1,0.3-0.4,0.5-0.7,0.5c-0.3,0-0.6-0.1-0.8-0.4l-26.2-49.4C685.1,471.3,685.2,470.9,685.4,470.7z"/>
</g>
</svg>
