<?xml version="1.0" encoding="utf-8"?>
<!-- Generator: Adobe Illustrator 25.0.1, SVG Export Plug-In . SVG Version: 6.00 Build 0)  -->
<svg version="1.1" id="Layer_1" xmlns="http://www.w3.org/2000/svg" xmlns:xlink="http://www.w3.org/1999/xlink" x="0px" y="0px"
	 viewBox="0 0 400 300" style="enable-background:new 0 0 400 300;" xml:space="preserve">
<style type="text/css">
	.st0{fill:#F9F2EF;enable-background:new    ;}
	.st1{fill:#E86166;}
	.st2{fill:#FFFFFF;}
	.st3{fill:#163847;}
	.st4{fill:none;stroke:#FFFFFF;stroke-width:2;}
	.st5{fill:#8E6743;stroke:#2E292A;stroke-miterlimit:10;}
	.st6{fill:#E6EA9A;stroke:#2E292A;stroke-miterlimit:10;}
</style>
<g id="Layer_2_2_">
	<polyline class="st0" points="195,139.7 183.2,124.3 196.3,125.7 171.6,99.3 206.4,115.8 196.5,76 228.5,107.4 231.4,81.5 
		243.9,110.5 253.9,83.8 255.4,115.7 290,94 275.1,118.1 327.7,85.1 281.3,129.3 310.1,120.1 282,141.5 337.7,119.4 291.6,148.8 
		340.6,148.8 288,164.3 344.6,170.3 286.5,176.7 346.6,218 273.3,191.2 274,209.1 247.4,187.7 255.2,233.4 228,187.7 212.6,226.4 
		210.4,191.2 192.8,209.5 205,180.5 148,209.1 189,161.1 146.6,159.4 194.3,148.2 153.1,139.5 195,139.7 	"/>
</g>
<g>
	<g>
		<g id="Layer_6">
			<g>
				<g id="flamenco-119" transform="translate(2.5 2.5)">
					<g id="Group_17_">
						<g id="Group" transform="translate(0.84910583 73.246765)">
							<path id="Shape" class="st1" d="M257.8,129.5c-24.6,1.9-45.1-24.7-41.7-48.1c0.1-6.8,3.4-14.6,6.9-20.8
								c0.4-2.1,2.8-1.7,4.3-2.4c1.5-0.3,3-0.9,4.4-1.3c5-0.3,10.1-4,9.5,4c-0.5,2,0,3.8,1.5,5.2c3,4,7.5,7.7,11.5,10.7
								c1.3,1.3-1.1,3.1-1.1,4.8c-1.7,7,6.4,10.2,12.2,8.5c-0.1,0,0.4-0.2,0.4-0.2c13.6-6.2,26.7,3,22.5,17.8
								c0.1-0.2-0.2,0.5-0.1,0.4c-1.3,4.4-4.9,8.5-8,11.3c-5.9,5.7-13.9,8.8-21.9,10.1C258.1,129.6,258,129.5,257.8,129.5
								L257.8,129.5z"/>
						</g>
						<g id="Group_1_" transform="translate(315.65802 78.13864)">
							<path id="Shape_1_" class="st1" d="M-31.2,92.1c5.3,0.7,12-0.7,14.1-6.3c1.1-5.5-0.1-11.3,1.5-16.7c1.7-6.8,5-13.7,10.9-17.3
								c4.5-3.1,11.6-5.2,16.5-2.6c5,2.8,3.9,12.2-2.3,12.8c0.1-0.1-0.6,0.4-0.5,0.3C4.4,63-1.2,63.2-4.8,66.7
								c0.1-0.1-0.5,0.4-0.5,0.4c-4.4,6.5,0.2,13.5-4.2,21.6c-7.3,10-21.9,13.7-33.6,9.8C-39.4,96.1-35,94.3-31.2,92.1z"/>
						</g>
						<g id="Group_2_" transform="translate(35.613464 45.900665)">
							<path id="Shape_2_" class="st1" d="M222.3,95.7c0.5,12-10.7,21.1-22.4,18.5c-15.2-3.6-18.7-25-5.3-32.9
								C205.8,73.7,221.8,82.4,222.3,95.7z"/>
						</g>
						<g id="Group_3_" transform="translate(52.793793 0.37280273)">
							<path id="Shape_3_" class="st1" d="M173.3,138.8c-2.4-6.7-2.4-13.6-0.1-20.5c1-5.7,10.3,6,11.3,8.1c1.5,2.5-0.5,2.1-1.4,4
								C179.6,132.8,176.5,135.9,173.3,138.8L173.3,138.8z"/>
						</g>
						<g id="Group_4_" transform="translate(199.17899 81.12564)">
							<path id="Shape_4_" class="st1" d="M53.6,67.6c4.4-2.4,7.9-6.4,10.7-10.5c1.1-2.2,2.7-5,3.4-7.7c0.2-1.1-1.3-0.5-1.9-0.7
								c0.2,0-0.7-0.2-0.5-0.2c-0.8-0.3-1.7-0.3-2.5-0.1c-1.4-0.2-3.2-0.3-4.5,0.4c-1-0.3-1.7,0.3-2.6,0.3c-1.4,0.7-3.1,0.9-4.5,1.8
								c-0.6,0.5,0.1,1.1-0.1,1.9C52.2,57.6,52.5,62.8,53.6,67.6z"/>
						</g>
						<g id="Group_12_" transform="translate(59.000336 87.26672)">
							<g id="Group_5_">
								<path id="Shape_5_" class="st2" d="M178.7,50.5c-0.7,4.2-5.4,6.3-9.2,4.4c-1.1-1.3-3-2.6-2.7-4.4c-0.6-3.2,3-6.2,6-5.5
									c1.9,0.5,3.4,1.3,4.9,2.8c0.1,0.7,0.7,0.9,0.5,1.5C178.6,49.5,178.7,50,178.7,50.5z"/>
							</g>
							<g id="Group_6_" transform="translate(20.01767 23.267166)">
								<path id="Shape_6_" class="st3" d="M153,26.9c-0.4,1.5-2.8,1.4-2.8-0.2c0.3-0.9,1.6-1.7,2.1-0.5
									C152.6,26.5,153,26.3,153,26.9z"/>
							</g>
							<g id="Group_7_" transform="translate(101.08136 34.157196)">
								<path id="Shape_7_" class="st2" d="M95.9,20.7c-1.3,8.1-12.8,5.8-12.1-1.5C85.7,13.6,95.3,14.9,95.9,20.7z"/>
							</g>
							<g id="Group_8_" transform="translate(138.3201 54.48105)">
								<path id="Shape_8_" class="st3" d="M55.4-0.2c0,0.7-1.3,1-1.7,0.9C51.4-0.3,54.7-2.2,55.4-0.2z"/>
							</g>
							<g id="Group_9_" transform="translate(48.532196 65.780914)">
								<path id="Shape_9_" class="st3" d="M128.6-9.7c2.1-0.7,9.5,1.1,7.7,3.8C135-6.2,122.8-7.8,128.6-9.7z"/>
							</g>
							<g id="Group_10_" transform="translate(64.23819 66.87427)">
								<path id="Shape_10_" class="st3" d="M121.2-3.1c-4.6,3.9-9-4.2-6.2-7.7c-0.1,0,0.7-0.1,0.7,0c2.8,0.1-1,5.7,2.7,7.1
									C119.1-3.3,122.1-5.4,121.2-3.1L121.2-3.1z"/>
							</g>
							<g id="Group_11_" transform="translate(38.68741 76.206055)">
								<path id="Shape_11_" class="st3" d="M138.7-14.7c0.7-0.6,0.9-3,1.3-3.7c2.7-0.1,2.2,4,0.2,4.8c-2.7,2.3-6.8-2.7-3.8-1.9
									C136.5-15.3,137.3-13.9,138.7-14.7z"/>
							</g>
						</g>
						<g id="Group_13_" transform="translate(0 214.92828)">
							<path id="Shape_12_" class="st1" d="M234.4-4.1c-0.5,2.3-3.7,1.5-5.4,1.7c-3-1.1-4.6-7.5-5.5-10.3c-5-12.8-6.8-26.4-6.6-39.8
								c-0.1-2.4,0.3-4.6,0.3-7c0.2-0.4,1.9-0.3,2.5-0.3c2.4,0.1,4.6-0.5,6.9-0.3c-0.3,5.8-0.1,11.8,0.2,17.6c0-0.1,0.3,0.4,0.3,0.4
								c0.3,9.1,2.2,18.4,4.2,27.2c0-0.2,0.3,0.7,0.3,0.5C232-11.1,234-7.5,234.4-4.1z"/>
						</g>
						<g id="Group_14_" transform="translate(335.62903 327.85938)">
							<path id="Shape_13_" class="st1" d="M-45.3-147.2c0.1,7.9-0.7,15.9-3.4,23.6c-0.7,1.2-0.8,2.7-1.7,3.8c0,1.9-1.5,2.8-3.2,2.8
								c-2.9,0.3-5.6-0.7-3.5-3.9c0.2-1.5,0.6-2.8,1.1-4.2c-0.2-1.2,0.9-2.4,0.5-3.7c0.1-0.1,0.3-0.2,0.3-0.4
								c0.9-8.3,1.8-17.2-0.1-25.9c0.1-1.3,3.5-0.4,4.7-0.7c1.7,0.4,4-1.3,4.4,0.5C-46-152.7-45.6-149.9-45.3-147.2z"/>
						</g>
						<g id="Group_16_" transform="translate(281.57886 327.73184)">
							<path id="Shape_15_" class="st1" d="M-3.4-146.5c0.9,8.3-0.5,17.2-2.5,25.2c-1.3,2.8-0.3,4.9-4.8,4.8c-4.6-0.4-1.7-4.2-1.9-7
								c0.7-3.8,1.3-7.7,1.1-11.2c0.7-6.9,0-13.8-0.6-20.4c1.6,0,3.5,0.3,5-0.2c0.3,0.3,0.5,0.3,0.8,0c0.8,0.4,2.6-0.8,2.1,0.5
								C-3.6-152.4-2.9-148.7-3.4-146.5L-3.4-146.5z"/>
						</g>
					</g>
					<g id="Group_18_" transform="translate(57.28601 86)">
						<path id="Ellipse" class="st2" d="M168.1,52c-0.5-7.9,11.9-8.1,12.3-0.5C180.9,58.5,168.3,58.9,168.1,52z"/>
						<path id="Ellipse-2" class="st2" d="M186.3,56c-0.3-6.6,11.8-6.4,12.4-0.5C198.9,63.4,187.1,63.1,186.3,56z"/>
						<g id="Group-2" transform="translate(16.5 20)">
							<path id="Ellipse_1_" class="st3" d="M154.5,31.3c-0.1-2.5,3.8-2.7,3.8-0.2C158.5,33.7,154.5,33.8,154.5,31.3z"/>
							<path id="Ellipse-2_1_" class="st3" d="M175.7,35.4c-0.1-2.5,3.8-2.7,3.8-0.2C179.8,37.8,175.9,37.9,175.7,35.4z"/>
							<path id="New-shape-6" class="st4" d="M155.2,30.9c0,0,0.3-1,1.7-0.9"/>
							<path id="New-shape-7" class="st4" d="M176.5,35c0,0,0.3-1,1.7-0.9"/>
						</g>
					</g>
				</g>
				<g id="Group_19_" transform="translate(57.28601 86)">
					<g id="Group-2_2_" transform="translate(16.5 20)">
						<path id="Ellipse_2_" class="st3" d="M156.8,34c-0.2-2.9,4.2-3.1,4.4-0.2C161.3,36.6,156.9,36.9,156.8,34z"/>
						<path id="Ellipse-2_2_" class="st3" d="M177.8,37.9c-0.2-2.9,4.3-3.2,4.4-0.2C182.3,40.5,177.9,40.8,177.8,37.9z"/>
						<path id="New-shape-7_2_" class="st4" d="M180.9,36.4"/>
						<path id="New-shape-7_1_" class="st4" d="M179,37.4"/>
					</g>
				</g>
			</g>
		</g>
		<g>
			<g id="Layer_3">
				<polygon class="st5" points="236.5,212.4 202.3,133.2 205.6,133.5 208.3,132.2 243.4,215.1 				"/>
			</g>
			<g id="Layer_4">
				<path class="st6" d="M202.9,133.4c1.6,0.1,3.1-0.1,4.4-0.2c0.5-0.7,1.3-1.7,1.8-3.2c0.5-1.2,1.7-4.4,0.4-7.3
					c-0.7-1.5-1.3-1.2-2.6-3.7c-0.7-1.2-0.7-1.7-1.5-3.2c-0.7-1.3-1.3-2.2-1.8-3c-0.8-1.1-1.9-2.6-3.4-4.2c-0.2,1.3-0.4,2.7-0.6,4
					c-0.8-2.1-1.1-2.5-1.3-2.5c-0.4,0.1,0.3,2.5-0.7,3.2c-0.7,0.5-2.1,0-3-0.5c-1.7-1.1-2.6-1.6-2.6-1.6l-0.1,0.1
					c-0.1,0.1,0.5,3.2-0.2,3.8c-0.2,0.2-0.7,0.2-1.9-0.5c-1.4,4-0.9,6.4-0.2,7.9c0.4,0.7,0.6,0.9,0.9,1.3c0.2,0.3,0.3,0.5,0.5,0.9
					c0.3,0.5,0.3,0.8,0.5,1.3c0.3,0.7,0.6,0.8,0.9,1.5c0.1,0.4,0.1,0.5,0.3,1.5c0.2,1.1,0.3,1.6,0.5,2c0.4,0.8,1.1,1.3,1.6,1.5
					c0.9,0.5,2.1,0.6,4.4,0.8C201.6,133.3,202.7,133.4,202.9,133.4z"/>
			</g>
		</g>
	</g>
	<g id="Layer_5">
		<g id="Group_20_" transform="translate(72.58322 214.67737)">
			<path id="Shape_16_" class="st1" d="M177,0.2c-1.3,2.6-5.4,2-7.1,0.1c-2.2-5.3-3.4-10.8-4.8-16.2c-1.4-7.6-2.6-15.2-3.1-23
				c-0.7-5,0.1-10.7-0.4-15.2c0-0.1,0.2-1.3,0.2-1.3c2.4,0,5-0.4,7.5-0.3c2.4-1.2,1.3,1.1,1.5,2.7c0.2,1.4,0.3,3-0.1,4.2
				c0.5,3.3,0.5,7.1,0.6,10.3c0.8,7.4,1.3,14.3,2.5,21.6C174.6-11.3,176.6-5.4,177,0.2L177,0.2z"/>
		</g>
	</g>
</g>
</svg>
