<?xml version="1.0" encoding="iso-8859-1" ?>
<svg version="1.1" xmlns="http://www.w3.org/2000/svg" xmlns:xlink="http://www.w3.org/1999/xlink" 
    viewBox="0 0 1200 800" width="1200" height="800">
    
    
    <!-- ITEM 0 -->
    <g>
        <defs>
            <clipPath id="clip-path-id-viewbox-item-0">
                <rect x="0.0" y="0.0" width="125.269" height="126.517"/>
            </clipPath>
        </defs>
        <g transform="translate(785.0 384.0) rotate(0.0 111.5 113.0) scale(1.7801690761481292 1.7863212058458549)">
            <g clip-path="url(#clip-path-id-viewbox-item-0)" transform="translate(-0.0 -0.0)">
                
<g>
	<g>
		<path style="fill:#24404E;" d="M5.299,70.264c-0.261-1.094-0.288-3.169-0.455-4.356c-0.381-2.702-1.478-5.228-1.851-7.87    c-0.508-3.595-1.424-7.034-1.829-10.43c-0.446-3.745-0.36-6.533-0.757-10.122c-0.262-2.367-0.479-4.962-0.383-7.397    c0.115-2.932,1.479-3.555,2.155-5.323c0.772-2.02-0.347-2.201,0.998-3.803c0.812-0.967,2.38-1.498,3.543-1.798    c5.572-1.435,6.726,1.529,8.303,6.201c1.529,4.528,0.095,6.762,0.153,11.228c0.036,2.817,0.331,11.847,2.191,13.935    c2.855,3.204,7.555-0.18,9.254-3.438c1.661-3.185,0.058-4.423,3.173-6.67c2.335-1.684,1.265-2.963,4.645-1.893    c2.222,0.703,3.616,3.803,4.23,5.802c0.922,3.001,0.192,7.166,2.676,9.573c6.339,6.143,10.628-5.809,17.475-4.417    c4.551,0.925,6.454,5.007,7.632,8.217c1.227,3.343,2.3,7.287,2.476,11.588c-2.141-0.931-5.673-0.944-8.148-0.771    c-0.683,0.513-1.361,1.033-2.032,1.56c-1.737-0.175-3.445-0.501-5.124-0.979c-5.417-0.328-11.023,1.105-16.374,0.88    c-4.809-0.202-8.927-0.458-13.816-0.449C17.414,69.541,11.341,70.21,5.299,70.264z"></path>
	</g>
	<g>
		<path style="fill:#24404E;" d="M29.559,0.014c-3.822-0.358-8.597,6.419-9.38,9.634c-1.371,5.632,2.617,13.36,8.86,13.665    c4.664,0.228,8.083-7.553,8.37-11.001c0.034-0.403-1.2-1.698-1.329-2.241c-0.299-1.253,0.538-2.414-0.062-3.721    C35.47,5.157,30.813,0.131,29.559,0.014z"></path>
	</g>
	<g>
		<path style="fill:#24404E;" d="M42.764,22.979c-0.199,5.872,6.157,5.744,5.544,0.148c-0.192-1.755-1.574-4.307-3.727-4.125    C41.212,19.288,42.841,20.699,42.764,22.979z"></path>
	</g>
	<g>
		<path style="fill:#55B7C9;" d="M52.268,126.517c-8.793,0-19.35-4.408-26.929-8.292c-2.185-1.12-2.571-2.835-4.179-3.934    c-1.354-0.926-2.618-0.748-3.883-1.79c-3.552-2.924-5.579-8.502-8.464-12.19c-1.478-1.89-1.715-1.469-2.896-3.884    c-1.3-2.658-2.017-6.101-2.8-8.945c-1.104-4.011-1.87-7.518-1.986-11.305c-0.123-3.975-0.4-3.867,2.686-6.627    c2.162-1.934,4.084-3.803,7.018-4.193c1.664-0.221,3.102,0.686,4.745,0.676c1.575-0.01,3.281-0.89,4.809-0.764    c1.954,0.161,3.569,1.211,5.916,1.145c2.566-0.073,4.912-0.721,7.478-0.583c4.475,0.241,9.136,0.113,13.476-0.008    c8.318-0.232,17.062-0.507,25.245,0.294c2.919,0.286,5.094-0.433,7.79-0.528c2.536-0.089,4.747,0.745,7.525,0.553    c5.276-0.364,11.404-0.744,14.569,4.594c1.809,3.051,1.827,9.722,0.941,13.253c-0.504,2.011-1.965,2.774-2.472,5.032    c-0.234,1.045,0.516,2.042,0.175,3.148c-0.46,1.496-2.117,1.356-2.694,2.595c-1.484,3.186-1.914,5.777-4.195,8.802    c-1.802,2.39-3.677,5.02-5.785,7.115c-1.848,1.837-4.425,5.32-6.558,6.685c-1.489,0.953-3.214,0.13-4.459,0.647    c-2.312,0.959-4.38,3.604-7.027,4.388c-1.977,0.586-4.716,1.972-6.78,2.331c-1.649,0.287-4.842,0.732-6.296,0.634    C55.785,125.268,52.268,126.033,52.268,126.517z"></path>
	</g>
	<g>
		<path style="fill:#55B7C9;" d="M112.273,78.769c-7.791,0-16.347,0.589-24.208,0.264c-3.353-0.139-6.781-0.111-10.177,0.213    c-2.28,0.218-2.839-1.432-4.537,0.593c-0.922,1.1-1.039,3.565-0.028,4.63c2.101,2.214,9.353-0.049,12.053,0.037    c2.78,0.088,6.289,0.622,8.726,0.756c0.511-0.432,1.024-0.862,1.537-1.29c0.546,0.263,1.059,0.577,1.539,0.942    c1.192-0.21,3.118-0.379,4.546-0.551c2.944-0.356,5.902,0.5,8.816,0.755c3.324,0.291,5.107-0.204,7.187,2.508    c1.601,2.087,1.709,4.442,1.463,5.884c-1.393,8.174-10.186,5.747-16.789,5.426c-3.153-0.153-5.793,0.566-8.518,0.802    c-2.824,0.244-5.659-0.91-8.441-0.832c-2.041,0.057-4.162,1.093-6.155,1.051c-0.024-0.001-4.468-1.025-4.354-1.062    c-1.425,0.464-3.252,3.554-1.544,5.645c-0.052-0.064,2.542,0.614,2.731,0.688c2.768,1.084,3.8,0.336,6.682,0.115    c4.875-0.373,9.871,0.108,14.784,0.032c7.593-0.118,14.639,1.612,21.091-2.278c4.32-2.605,3.535-2.203,5.138-6.29    c1.384-3.53,1.868-3.483,1.062-6.565c-0.338-1.294-0.817-4.489-1.313-5.328c-0.885-1.498-1.723-0.439-2.671-1.467    c-1.256-1.363-0.793-1.864-2.636-3.127C116.248,78.942,114.652,78.769,112.273,78.769z"></path>
	</g>
</g>

            </g>
        </g>
    </g>
    
    <!-- ITEM 1 -->
    <g>
        <defs>
            <clipPath id="clip-path-id-viewbox-item-1">
                <rect x="0.0" y="0.0" width="293.36" height="323.857"/>
            </clipPath>
        </defs>
        <g transform="translate(404.0 183.0) rotate(0.0 196.0 216.5) scale(1.3362421598036542 1.337009853114183)">
            <g clip-path="url(#clip-path-id-viewbox-item-1)" transform="translate(-0.0 -0.0)">
                
<g>
	<path style="fill:#F3BC1B;" d="M29.69,1.366c1.6,0.31,3.11-0.69,4.84-0.09c1.32,0.45,2.88,0,4.3-0.38c0.52-0.13,1-0.48,1.25,0.41   c0.266,0.484,0.873,0.661,1.358,0.396c0.086-0.047,0.164-0.106,0.232-0.176c1.186-0.761,2.718-0.709,3.85,0.13   c0.25,0.17,0.42-0.15,1-0.48c0.808-0.422,1.772-0.422,2.58,0c1.43,1,2.76,0,4-0.1c0.926-0.043,1.853,0.031,2.76,0.22   c1.36,0.27,2.82-0.58,3.93,0.2c0.88,0.61,1.25,0.14,1.84-0.17s1.15-0.82,1.92-0.29c0.27,0.18,0.87,0.24,1-0.17   c0.42-1.17,0.62-1.14,1.14,0c0.27,0.59,0.77,0.22,1-0.32c0.122-0.326,0.484-0.491,0.81-0.37c0.55,0.28-0.23,0.55-0.1,0.67   c0.37,0.36,0.86,1.14,1.28,0.8c1.65-1.33,3.28,0.08,4.89-0.13c0.11,0,0.25,0.27,0.38,0.41c0.85-1.47,2.21-0.19,3.16-0.58   s1.3,0,1.84,0.42c0.7-0.22,0.11-1,0.61-1.22c1.14,0.39,2.32,1.12,3.5,0c0.127-0.096,0.264-0.177,0.41-0.24c1,2,2.86,0.68,4.15,0.68   c1.53,0,3,0.57,4.63,0.32c1.357-0.264,2.738-0.378,4.12-0.34c2.07,0.15,4.08-0.5,6.26,0.46c0.92,0.41,2.77-0.08,4.2-0.15l3.24,0.09   c0.837-0.277,1.721-0.383,2.6-0.31c2,0.12,3.94,0,5.91,0c0.54,0,1.14-0.37,1.61,0.25c0.07,0.09,0.46,0.07,0.6,0   c0.77-0.55,0.74-0.34,1.5-0.28c1.35,0.11,2.81,1,4.1-0.25c0.11-0.081,0.231-0.145,0.36-0.19c0.9,1.65,2.38,0.33,3.48,0.9   c0.13-0.59-1-0.15-0.45-1c0.38-0.55,0.46-0.05,0.67,0c1.019,0.234,2.086,0.143,3.05-0.26c0.17-0.08,0.68,0.13,0.68,0.23   c0.1,2.11,2.11,1.63,3.18,2.08c1.429,0.705,2.646,1.774,3.53,3.1c0.3,0.38,0.2,0.7,0.83,0.36c0.81-0.43,1.57,0.35,1.4,1.29   c-0.009,0.128,0.026,0.255,0.1,0.36c1.29,0,1.36,1.7,2.52,1.82c0.55,0.06,0.6,0.13,0.52,0.73s0.37,1.17,1.08,1.66   c0.988,0.633,1.702,1.615,2,2.75c0.148,1.3,0.592,2.549,1.3,3.65c0.72,1,0.18,2.22,1.17,2.92c0.36,0.25-0.11,0.36-0.15,0.5   c-0.19,0.71-0.36,1.43,0.54,1.93c0.476,0.28,0.636,0.892,0.356,1.369c-0.041,0.069-0.09,0.134-0.146,0.191   c-0.511,0.307-0.676,0.971-0.369,1.482c0.018,0.03,0.038,0.06,0.059,0.088c0.33,0.71,0.47,1.28-0.2,1.87   c-0.22,0.2-0.26,0.72,0.13,0.8c0.64,0.13,0.75,0.25,0.24,0.72s-0.76,0.73-0.09,1.42c0.43,0.44-0.55,1.94,1.13,1.76   c-0.177,0.945-0.294,1.9-0.35,2.86c-0.29,1.39,0.29,2.9-0.61,4.21c-0.1,0.14,0.4,0.66,0.51,1.12c0.45,1.87-0.06,3.8,0.45,5.67   c0.27,1-1,0.34-1.21,1.07c1.12-0.24,1.36,0.35,1.27,1.26c-0.142,2.738-0.142,5.482,0,8.22c0.027,1.177,0.229,2.343,0.6,3.46   c0.16,0.52-0.48,1.27-0.56,2.07c-0.138,0.66-0.232,1.328-0.28,2c0.232,2.118,0.312,4.25,0.24,6.38c-0.33,2.91,0.47,5.79,0,8.72   c-0.088,1.001-0.044,2.01,0.13,3c0.09,0.7,0.17,1.4-0.37,1.89c-0.8,0.73,0.83,1.17,0.15,1.83c0.92,0.59,0.42,1.39,0.17,2   c-0.69,1.78,0.86,3.56,0,5.27c-0.72,1.43,0.78,3.1-0.58,4.41c1.06,1,0.22,1.81-0.3,2.65c-0.033,0.097-0.033,0.203,0,0.3   c2.18,0.27,0.58,1.82,0.79,2.69c0.38,1.54,0,3.2,0.23,4.85c0.204,1.685-0.044,3.393-0.72,4.95c-0.11,0.24,0.12,0.38,0.22,0.56   c0.68,1.411,0.825,3.02,0.41,4.53c-0.082,0.998-0.082,2.002,0,3c-0.06,2.77,0.21,5.57-0.62,8.29c1.49,1.2-0.31,2.8,0.49,4.08   c0.57,0.91-0.09,1.85,0,2.8c0.253,1.613,0.253,3.257,0,4.87c-0.28,1.15,0.24,2.47,0.17,3.7c-0.16,2.74,0.53,5.49-0.14,8.2   c-0.072,0.625,0.014,1.257,0.25,1.84c0.22,1,0.51,1.95-0.28,2.83c0,0-0.07,0.11-0.06,0.15c0.66,2,0.09,3.94,0.14,5.89   c-0.011,1.462-0.115,2.921-0.31,4.37c0,0.47-0.89,1.36,0.51,1.39c0.33,0,0.1,0.38,0.07,0.63c-0.268,1.714-0.398,3.446-0.39,5.18   c0.05,1,0.71,2,0.36,3.16c-0.51,1.78,0.09,3.65,0,5.44c-0.11,2.82-0.22,5.63-0.08,8.45c-0.59,0.9-0.68,2.39-0.19,2.75   c1.25,0.91,0.2,1.94,0.48,2.87s-0.45,2-0.47,3c-0.06,2.53,0.16,5.06,0,7.58c-0.181,1.686-0.131,3.388,0.15,5.06   c0.31,1.46-0.06,2.89,0.15,4.37c0.26,1.9-0.77,3.92,0.06,5.9c0.09,0.23,0,0.39-0.08,0.6c-0.401,1.093-0.461,2.282-0.17,3.41   c0.526,1.302,0.435,2.773-0.25,4c0.78,1.87,0.23,3.7-0.17,5.53c0,0.17-0.55,0.15-0.29,0.35c1.59,1.24,0.51,2.84,0.56,4.24   c0,1-0.58,2,0.4,3c0.17,0.16,0.06,0.62,0.09,0.95c0.1,1.29-1.29,2.54-0.1,3.85c-1.64,1.32,0.46,2.65,0,4.23   c-0.63,2,0,4.35-0.27,6.5s0.71,4.3-0.47,6.33c1.47,1.84,0,3.86,0.36,5.78c0.206,1.98,0.169,3.979-0.11,5.95   c-0.023,0.978,0.047,1.956,0.21,2.92c0.329,3.071,0.282,6.17-0.14,9.23c0.003,0.47,0.084,0.936,0.24,1.38   c0.27,1.1,0.79,2.21-0.24,3.21c-0.091,0.135-0.113,0.306-0.06,0.46c1.19,2.69,0.08,5.45,0.29,8.17   c0.059,0.59-0.034,1.186-0.27,1.73c-0.12,0.28-0.91,1,0.25,1.12c0.2,0,0.48,0.39,0.27,0.65c-0.37,0.45-0.67,1.06-1.33,1.11   c-1.072,0.184-2.174-0.03-3.1-0.6c-1-0.69-1.84-0.5-2.73,0.45s-1.79,2.75-3.4,0.61c-0.36-0.48-0.08,0.53-0.53,0.55   c-0.91,0-1.81,0.29-2.71,0.29c-1.82,0-3.67-0.17-5.46-0.08c-2.474,0.073-4.951,0.019-7.42-0.16c-0.89,0-0.52,0.93-0.92,1.31   s-0.07,0.56,0.3,0.71c0.9,0.37,0.49,1.25,0.54,1.83c0.24,2.51,0.08,5,0.81,7.53c0.3,1-0.86,1.61-1.91,1.63c-1.82,0-3.65,0-5.48,0   h-13.43c-0.79,0-1.83,0.21-1.14-1.24c0.17-0.36,0.07-0.76-0.5-1c-1.43-0.61-1.4-0.67-1.39-2.12c0,0,0-0.1,0-0.11   c-1.34-0.54-0.87-2.06-0.63-2.51c0.87-1.59-0.64-3.55,1-4.94c0.48-0.42,0.5-1.19-0.33-1c-1.007,0.195-2.049,0.094-3-0.29   c-1.72-0.6-3.2,0.41-4.85,0.3s-3.54,0.26-5.15,0c-2-0.32-3.91,0.12-5.83-0.18c-0.375-0.082-0.767-0.033-1.11,0.14   c-1.48,1-2.71,0.09-4-0.45c-0.47-0.21-0.87,0.15-1.12,0.21c-1.54,0.4-3,1.16-4.3-0.47c-0.094-0.048-0.206-0.048-0.3,0   c-2.78,1.45-5.77,0.5-8.64,0.81c-2,0.22-4-0.05-6.06,0s-4.15,0.5-6.21-0.19c-0.638-0.146-1.303-0.107-1.92,0.11   c-0.76,0.21-1.65,0.61-2.33-0.32c-0.158-0.226-0.47-0.282-0.696-0.124c-0.048,0.034-0.09,0.076-0.124,0.124   c-0.13,0.16-0.32,0.51-0.4,0.38c-0.83-1.34-1.49-0.72-2.66-0.29c-1.12,0.283-2.275,0.404-3.43,0.36   c-1.013,0.169-1.698,1.127-1.529,2.14c0.003,0.017,0.006,0.033,0.009,0.05c0.92,2.1,0.7,4.31,0.8,6.5   c0.027,0.612,0.163,1.215,0.4,1.78c0.67,1.56-0.4,1.82-1.46,1.92c-5.8,0.56-11.61,0.31-17.42,0.37c-0.82,0-1.4,0-1.81-1   c-0.26-0.776-0.838-1.406-1.59-1.73c-0.58-0.19-0.64-0.68-0.42-1.16c0.49-1.06-0.6-2.39,0.59-3.31c-1.08-0.83-0.55-2-0.54-3   c0-1.28,0.29-2.38,1.84-2.5c-0.026-0.378-0.341-0.671-0.72-0.67c-1.43,0.31-2.94,0-4.3,0.34c-1.473,0.407-3.044,0.265-4.42-0.4   c-0.56-0.27-1.89,0.3-2.88,0.43c-0.21,0-0.42,0.22-0.6,0.19c-1.39-0.28-2.68-1-4.22-0.4c-0.51,0.19-0.77-0.66-0.57-1.41   c0.52-1.303,0.111-2.793-1-3.65c-0.63,0.37,0.44,1-0.33,1.41c-0.926-0.865-1.249-2.198-0.82-3.39c0.74-2.05,0-4,0-6   c0-0.38-0.14-0.77,0.23-1c0.67-0.45,0.56-1,0-1.25c-1-0.5,0.19-0.79,0.06-1.27c-0.251-0.935-0.365-1.902-0.34-2.87   c0-1.09-1-2.84,1.84-2.52c-1.91-0.81-2.24-1.94-1.71-4.7c0.17-0.87,0.51-1.7-0.33-2.49c-0.39-0.37-0.15-0.8,0.48-0.81   c0.95,0,0.8-0.47,0.45-1.05c-0.45-0.75-2-1.26-0.56-2.45c0,0-0.15-0.28-0.15-0.43c-0.07-1.39-0.87-2.73,0.19-4.2   c0.37-0.51-0.81-1.68,0.28-2.61c0.2-0.17-0.79-1.58-0.2-2.56c0.14-0.23-0.13-0.53-0.37-0.66c-0.75-0.38-0.91-0.74-0.06-1.2   c0.46-0.25,0.35-0.59,0.26-1.07c-0.13-0.71-0.46-1.5,0.32-2.22c0.46-0.41-0.2-0.91-0.42-1.36s-1-1,0.16-1.35   c0.08,0,0.14-0.37,0.1-0.54c-0.51-2.47-0.18-5-0.32-7.47c-0.06-1.1,0.5-1.51,1.61-1.84c-1.48-0.39-1.85-1.13-1.24-2.21   c0.193-0.298,0.226-0.672,0.09-1c-0.497-1.541-0.651-3.173-0.45-4.78c0.11-0.53,0-1.11,0.7-1.31   c0.244-0.069,0.386-0.324,0.317-0.568c-0.009-0.032-0.022-0.063-0.037-0.092c-0.16-0.44-0.42,0-0.62,0c-0.71,0-0.39-0.32-0.34-0.67   c0.3-2.1-0.27-4.22,0.51-6.38c0.35-1-0.46-2.4-0.5-3.67c0-0.81,0.05-1.49,1.48-1.95c-2.97,0.02-1.38-1.64-1.42-2.34   c-0.16-2.93,0-5.88,0.06-8.83c0-1.1,0.63-2.32-0.45-3.29c-0.07-0.06,0-0.33,0-0.46c0.7-1.22,0.74-1.43-0.07-2.47   c-0.26-0.33-0.36-0.4,0-0.69c0.523-0.496,0.635-1.288,0.27-1.91c-0.9-1-0.1-1.73,0.09-2.54c0.15-0.62,0.55-1.2-0.15-1.74   c-0.083-0.106-0.132-0.235-0.14-0.37c1.26-0.79,0.28-1.81,0.37-2.73s0.41-1.54-0.63-2c-0.08,0-0.13-0.4-0.08-0.43   c1.37-1,0-2.64,1-3.73c0.16-0.18,0-0.78-0.18-1.13c-0.35-0.82-0.36-0.8,0.08-1.67c0.2-0.4-0.25-0.71-0.25-1.06   c0-2.27,0-4.53-0.06-6.8c-0.129-0.77,0.284-1.529,1-1.84c-1-0.69-1.47-1.44-0.56-2.41c0.65-0.69-0.54-0.67-0.4-1.1   c0.53-1.59-0.64-3.13-0.09-4.78c0.319-0.61,0.683-1.195,1.09-1.75c-0.74,0-1.36-0.26-1-1s0-1.57-0.14-2.23   c-0.21-1.33,0.91-2.43,0.53-3.57c-0.353-1.411-0.488-2.868-0.4-4.32c0-0.44-0.39-1.16,0.53-1.28c0,0,0.32,0.09,0.17-0.24   c-0.78-1.75-1-5.48-0.38-6.94c0-0.12,0.19-0.21,0.1-0.35c-1-1.67-0.07-3.4-0.2-5.09c0-0.45,0.45-1.26-0.45-1.59   c-0.12,0-0.18-0.65-0.07-0.91c0.44-1,0.45-1.24-0.22-2.61c-0.1-0.2-0.21-0.39,0.05-0.54c0.632-0.385,0.833-1.209,0.448-1.841   c-0.012-0.02-0.025-0.039-0.038-0.059c-0.68-1.11-0.07-2,0.18-2.94c0.13-0.51,0.32-0.89-0.12-1.31   c-0.131-0.151-0.226-0.328-0.28-0.52c1.21-0.8,0.33-1.8,0.36-2.74s0.45-1.54-0.62-2c-0.08,0-0.14-0.33-0.09-0.44   c0.88-1.89,0.45-3.81,0.48-5.77c0-2.61,0-5.19-0.09-7.8c0-0.94-0.18-2.49,1.66-2.8c-0.87-0.09-1.64-0.21-1.41-1.16   c0.57-2.37-0.2-4.73,0-7.1c-0.001-0.269,0.091-0.531,0.26-0.74c0.22-0.26,0.8-0.18,0.71-0.75c-0.12-0.77-0.62,0.12-0.83-0.2   c-0.47-0.74,0-1.52-0.11-2.32c-0.2-1-0.61-2.17,0.27-3.14c0.06,0.22,0,0.55,0.32,0.58c0.134-0.015,0.252-0.098,0.31-0.22   c0.08-0.3-0.2-0.42-0.37-0.59c-0.442-1.628-0.627-3.315-0.55-5c0-0.72-0.3-1.62,1.32-1.58c-2.21-0.26-1.13-1.72-1.2-2.46   c-0.06-0.85-0.08-1.77-0.22-2.61s0.12-1.16,0.93-1c0-0.64-0.82-0.44-0.8-1c0.39-0.51,1.14,0,1.53-0.38c0-0.56-0.27-0.44-0.55-0.4   c-0.81,0.14-0.92-0.55-1.14-1c-0.31-0.68,0.37-0.62,0.68-0.79c0.482-0.186,0.836-0.604,0.94-1.11c-0.79-0.32-1.07,0.25-1.33,0.75   c0-1.19,0-2.35,0-3.5c0-0.15,0.14-0.38,0.08-0.44c-1.24-1.16-0.14-1.43,0.63-1.64c0.18-0.72-0.81,0-0.8-1.1   c0.033-1.154,0.003-2.309-0.09-3.46c-0.11-1.06,0.57-2.7,0.36-3.44c-0.31-1.1,0.13-2,0-2.94c-0.06-0.62-0.59-1.2-0.1-1.89   c0.027-0.05,0.027-0.11,0-0.16c-1.36-1.85,0.38-3.77,0-5.39c-0.56-2.52,0.18-5-0.35-7.44c0.44-0.15,0.56,0.25,0.81,0.36   c0.237,0.118,0.525,0.022,0.644-0.216c0.01-0.021,0.019-0.042,0.026-0.064c0.18-0.43-0.34-0.39-0.45-0.42   C0.954,48,0.338,47.244,0.425,46.398c0.013-0.127,0.042-0.252,0.085-0.371c0.2-1.06,0.23-2.3,1.67-2.76   c-1-0.09-1.59-0.43-1.38-1.47c0.07-1.377-0.123-2.755-0.57-4.06c-0.268-1.229-0.302-2.498-0.1-3.74c0.24-1.72-0.1-3.41,0-5.11   c0-0.52-0.13-1,0.69-1.18s-0.22-0.67,0-1.07s-1.47-1.18,0.29-1.2c-0.187-0.662-0.141-1.368,0.13-2c0.37-0.72-0.17-2,1.26-2.09   c-0.059-1.124,0.559-2.175,1.57-2.67c0.2-0.15-0.85-1.06-0.47-1.7s0.88-1.8,2.14-1.55c0-1-0.81-0.36-1.08-0.74   c1.11-0.29,1.23-2,2.64-1.89c0.069-0.24,0.093-0.491,0.07-0.74c-0.238-1.225,0.563-2.411,1.788-2.649   C9.284,9.383,9.412,9.369,9.54,9.366c1.21,0,1.73-0.49,1.87-1.74c0.12-1.08,1.46-1.66,1.37-2.91c0.83,0.13,0.31,0.79,0.68,1.07   c0.46-0.38,1-0.71,0.85-1.52c-0.12-0.61,0.53-0.71,0.84-0.79c0.5-0.13,0.65,0.34,0.8,0.79c0.15,0.45-0.14,1.26,0.54,1.34   c0.68,0.08,0.57-1,0.79-1.1c1.17-0.51,1.19-2.95,3.21-2c0.36,0.18,0.44-0.19,0.66-0.26c1.28-0.4,2.46-1.38,4-0.59   c0.39,0.09,0.8-0.014,1.1-0.28c1.22-1.22,2.22-0.35,3.26,0.24c0.17,0.17,0.29,0.46,0.59,0.37c0.122-0.058,0.205-0.176,0.22-0.31   C30.25,1.366,29.92,1.446,29.69,1.366z M18.39,157.256c4,0.11,8.09,0,12.14,0.28c0.375-0.015,0.747-0.069,1.11-0.16   c2.056-0.271,4.135-0.315,6.2-0.13c3.17,0.24,6.34-0.45,9.5,0.14c1.62,0.3,3.29-0.37,4.78-0.24c2.87,0.27,5.75,0,8.61,0.34   c0.35,0,1.47,0.78,1.38-0.61c0-0.15,0.13-0.26,0.31-0.1c0.91,0.8,1.79,1.2,2.57-0.16c0,0,0.26,0.13,0.41,0.16   c3.324,0.783,6.768,0.908,10.14,0.37c1.62-0.27,3.1,0.27,4.69,0.22s3.17-0.43,4.65-0.07s2.91-1.54,4.35,0.19   c0.32,0.39,1.11-0.38,1.66-0.71s-0.23,1.37,1.15,0.72c1.67-0.79,3.72,0,5.64-0.23c1.47-0.15,3.25-0.56,4.88,0   c1.45,0.51,2.86-0.08,4.32-0.27c2-0.26,4.06,0.54,6.14,0.21c4.28-0.68,8.6,1,12.87-0.27c0.363-0.051,0.729,0.063,1,0.31   c0.6,0.65,1.27,0.36,1.9,0.26c2.473-0.454,5.007-0.454,7.48,0c1.25,0.24,1.11,0,1.27-1s-0.55-2.42,0.77-3.35   c1.706-1.148,2.619-3.16,2.36-5.2c-0.09-0.516-0.144-1.037-0.16-1.56c0.209-1.956,0.283-3.924,0.22-5.89   c-0.09-1.09,0.37-2.15,0.15-3.1c-0.57-2.393-0.642-4.878-0.21-7.3c0.252-1.351,0.342-2.727,0.27-4.1c-0.18-2.4,0.33-4.83-0.54-7.24   c-0.34-0.95,0.83-2.25-0.22-3.33c1.63-1.5,0.45-3.44,0.56-5.1c0.09-1.4-0.28-2.84,0-4.38c0.13-0.63,0.48-1.85,0.09-2.28   c-0.527-0.598-0.604-1.469-0.19-2.15c0.165-0.492,0.209-1.017,0.13-1.53c-0.09-1-0.49-2.11-0.21-2.82   c0.319-0.686,0.348-1.472,0.08-2.18c-0.177-0.42-0.215-0.886-0.11-1.33c0.205-2.752,0.114-5.518-0.27-8.25   c-0.06-0.3-0.08-0.8,0.09-0.94c0.617-0.558,0.806-1.449,0.47-2.21c-0.55-2.08-0.1-4.18-0.28-6.26c-0.23-2.67,0.1-5.36-0.11-8.06   c-0.08-1-0.72-1.88-0.44-2.79c1.15-3.82,0.53-7.71,0.6-11.57c0-2.32-0.28-4.64,0-7c0.211-0.739,0.211-1.521,0-2.26   c-0.569-1.484-0.811-3.074-0.71-4.66c0.09-1.19,0.73-2.59,0.26-3.5c-0.84-1.61-1-3.33-1.53-5c-0.21-0.62,0.3-1.33-0.42-1.86   c-0.592-0.509-1.017-1.186-1.22-1.94c-0.378-1.036-0.951-1.991-1.69-2.81c-1.218-1.065-2.489-2.066-3.81-3   c-0.68-0.59-1.36-1.46-2.47-1.09c-0.37,0.12-0.36-0.1-0.56-0.25c-1.05-0.751-2.3-1.173-3.59-1.21c-0.08,0-0.15-0.16-0.23-0.18   c-2.34-0.65-4.48-2.23-7.12-1.46c-0.55,0.16-0.11-0.33-0.2-0.46s-0.22-0.49-0.6-0.25c-1.091,0.673-2.411,0.869-3.65,0.54   c-2.156-0.391-4.364-0.391-6.52,0c-0.75,0.175-1.526,0.212-2.29,0.11c-1.23-1.09-2.44-0.16-3.62-0.21c-2.09-0.08-4.18-0.12-6.27,0   c-0.58,0-0.52-1-1.12-0.51c-1.6,1.41-3.58,0.63-5.23,0.56c-1.513-0.034-3.02-0.185-4.51-0.45c-1.32-0.27-2.74,0.35-4.32,0.11   c-1.48-0.188-2.98-0.154-4.45,0.1c-0.651,0.184-1.323,0.284-2,0.3c-2-0.16-4-0.54-6.2,0c-1.607,0.295-3.257,0.261-4.85-0.1   c-0.66-0.14-1.39-0.74-2-0.5c-2.67,1-5.4,0.33-8.1,0.44c-0.41,0-1.16-0.45-1.36-0.19c-1,1.29-2.44,0.47-3.28,0.39   c-2.07-0.19-4.12-0.06-6.18-0.16c-0.76,0-1.12,0.64-1.79,0.58c-1-0.1-2-1.46-3.14-0.24c-1-1.33-2.23,0.93-3.23-0.24   c-0.143,0.059-0.273,0.148-0.38,0.26c-0.77,0.95-2,0.85-3,1c-0.45,0.06-0.74,1.36-1.09,0.36c-0.42-1.21-0.77-0.17-0.84,0   c-0.25,0.5-0.89,0.49-1.07,0.71c-1,1.21-2.59,0.72-3.71,1.71c-1.88,1.67-4.35,2.68-5.49,5.15c-0.76,1.64-2.16,2.9-2.46,4.83   c-0.096,1.484-0.462,2.938-1.08,4.29c-0.32,0.57-0.78,1.33-0.64,1.86c0.676,1.943,0.676,4.057,0,6c-0.18,0.59-0.61,1.28-0.47,1.81   c0.55,2.13,0.29,4.26,0.29,6.4c0,1.73-0.05,3.47,0,5.21s-0.3,3.33,0,5c0.2,1.32,0.88,2.82,0.46,3.9   c-0.313,1.112-0.451,2.266-0.41,3.42c-0.26,3.05,0,6.13-0.08,9.2c0,1.76-0.26,3.53-0.17,5.29c0,0.84,1.54,1.94-0.4,2.47   c0.06,0.13,0.08,0.35,0.17,0.39c0.73,0.31,0.38,0.94,0.41,1.43c0.14,2.06-0.41,4.12,0.13,6.21c0.19,0.73-0.87,1.68-0.38,2.39   c0.84,1.22,0.06,2.36,0,3.46c-0.07,1.31,1.28,2.73-0.17,3.95c1.12,2.39,0.73,5.06,0.44,7.37c-0.136,1.814-0.086,3.637,0.15,5.44   c0.18,2.4-0.61,4.64-0.44,7.06c0.13,2-0.16,4.34,0.26,6.15c0.77,3.33-0.19,6.45-0.07,9.66c0.14,3.6,0.33,7.24,0.12,10.86   c-0.045,0.277,0.081,0.553,0.32,0.7c1,0.55,1.37,1.72,2.26,2.4c0.554,0.379,0.746,1.107,0.45,1.71c-0.52,1.76,0,2.26,1.75,2   C17.763,157.222,18.077,157.229,18.39,157.256z M59.39,257.666c0.17,0.34,0.25,1.1,1,1.23s1.51,0,2,0.3c2.63,1.94,6,2.27,8.7,4   c0.146,0.07,0.31,0.095,0.47,0.07c1.56-0.15,3.13-0.21,4.66-0.4c1-0.12,1.92,0.37,2.81-0.06c1.71-0.83,3.46,0.44,5.3-0.15   c0.6-0.2,2.16,0.27,3.25,0.51c1.846,0.26,3.724-0.144,5.3-1.14c2.91-1.64,6.51-1.87,8.93-4.44c0,0,0.28,0.05,0.38,0.14   c0.56,0.47,0.8-0.06,1.17-0.32c1.078-0.778,2.197-1.499,3.35-2.16c0.49-0.26,1.38,0,1.71-0.29c1.438-1.425,2.775-2.949,4-4.56   c1.87-2.54,4.22-4.81,5.07-8c0.26-1,1.35-1.54,1.14-2.59c-0.27-1.34,0.37-2.41,0.64-3.62c0.35-1.58,2.76-2.87,0.86-4.84   c-0.06-0.06,0-0.31,0.08-0.43c1-1.63,1.05-3.4,1.31-5.25c0.38-2.76-0.6-5.45,0.11-8.15c0.08-0.31-0.42-0.73-0.48-1.13   c-0.17-1.11-1.89-2.12-0.22-3.38c0.261-0.315,0.234-0.777-0.06-1.06c-1.41-1.43-2.225-3.342-2.28-5.35   c-0.027-1.085-0.33-2.145-0.88-3.08c-0.6-1.08-0.63-2.36-1.35-3.36c-0.902-1.314-1.874-2.579-2.91-3.79   c-2.22-2.43-3.78-5.46-7.23-6.76c-1.886-0.579-3.602-1.608-5-3c-0.28-0.32-0.57-0.07-0.85-0.16c-0.51-0.15-1.17,0-1.55-0.32   c-2.61-2-6-2.27-8.7-4c-0.146-0.07-0.31-0.095-0.47-0.07c-1.56,0.15-3.13,0.2-4.66,0.4c-1,0.13-2-0.35-3,0.1   c-1.65,0.75-3.34-0.44-5.14,0.1c-1.107,0.019-2.21-0.15-3.26-0.5c-1.855-0.252-3.738,0.178-5.3,1.21   c-2.91,1.63-6.51,1.86-8.93,4.44c0,0-0.28-0.06-0.38-0.14c-0.56-0.46-0.8,0.07-1.17,0.32c-1.078,0.779-2.196,1.5-3.35,2.16   c-0.49,0.26-1.38,0-1.71,0.29c-1.438,1.425-2.775,2.948-4,4.56c-1.87,2.54-4.14,4.83-5.12,8c-0.27,0.86-1.23,1.74-1.09,2.45   c0.3,1.56-0.43,2.73-0.76,4.08s-2.84,2.66-0.75,4.54c0.22,0.2-0.21,0.45-0.27,0.68c-0.25,1-1.34,1.92-1.17,2.68   c0.49,2.21-0.42,4.32-0.11,6.46c0.281,0.974,0.36,1.995,0.23,3c-0.138,0.785-0.011,1.594,0.36,2.3c0.36,1,1.84,2.07,0.16,3.23   c-0.26,0.18-0.23,0.76,0.06,1.05c1.41,1.43,2.225,3.342,2.28,5.35c0.07,1.082,0.362,2.137,0.86,3.1c0.683,1.974,1.698,3.817,3,5.45   c1.31,1.46,2.4,3.12,3.77,4.56c1.2,1.27,1.84,3,4,3.32c0.727,0.243,1.405,0.616,2,1.1c0.87,0.5,1.6,1.69,3.17,1.33L59.39,257.666z"></path>
	<path style="fill:#F3BC1B;" d="M169.5,202.446c0.216-0.121,0.44-0.227,0.67-0.32c0.83,1.33,1.59,0.51,2.55,0.11   c0.65-0.27,1.8,0.42,1-1.12c-0.11-0.22,0.29-0.17,0.43-0.26c0.61-0.36,1.36-0.38,1.33-1.61c0-1.6,1.42-2.84,2.56-3.69   s0.46-0.9-0.26-1.54c1.02,0.129,1.972-0.537,2.2-1.54c0.09-0.26-0.63-0.54-1.14-0.62c0.46-0.73,1.18,0.07,1.6-0.43   c-0.61-1.16-0.6-1.15,0.08-2.56c0.49-1,1-2,2.26-2.29c-0.64-0.8-1.4-0.65-2.28-0.52c0.26-0.82,2.17-1.35,0.31-2.52   c1.12,0.41,0.86-1.75,2.1-0.79c0.38-0.58-1-1.13,0-1.75c0.26-0.16-0.21-0.4-0.49-0.55s-0.35,0.81-0.59,0.08   c-0.16-0.5,0.07-0.8,0.59-0.94c0.843-0.147,1.408-0.949,1.262-1.793c-0.016-0.091-0.04-0.181-0.072-0.267   c-0.28-1,1.11-0.63,0.89-1.65c-0.17-0.33-1,0.36-1.18-0.46c0.699-0.379,1.476-0.592,2.27-0.62c-1.67-0.39-2.59-0.9-0.61-2.08   c-0.92-0.1-1.83-0.22-0.55-1c0.12-0.08,0.26-0.33,0.21-0.42c-0.92-1.79,0.83-2.08,1.67-2.46s0.88-0.56,0.25-1.1   c0.54-0.24-0.92-0.74,0.16-1c0.47-0.13-0.11-0.48-0.3-0.56c-0.75-0.32-0.55-0.43,0-0.84c1.14-0.85,1.82-2.23,3.15-2.94l-1-1.11   c1.107-0.18,2.029-0.945,2.41-2c0.12-0.34,0.23-0.77,0.78-0.61c0.13,0,0.37,0.25,0.38,0c0-1.09,0.25-2,1.66-1.66   c-0.36-0.91,0.33-1,1-1.05c-0.22-0.59-0.7-0.26-1-0.47c0.3-0.27,0.57-0.61,1.05-0.54c0.21,0.28,0.3,0.73,1,0.52l-0.81-0.73   c0.85-1.05,1.87-1.17,2.57-0.24c0.17-0.34,0.68-0.52,0.34-1c-0.08-0.12-0.36-0.45-0.19-0.38c1.47,0.56,0.83-0.71,1-1.17   c0.46-1,1.31-0.43,2-0.58c0.19,0.38-0.38,1,0.33,1.19c0.13,0,0.35-0.22,0.53-0.34c-0.3-0.27-0.11-1.07-0.89-0.83   c-0.139-0.749,0.356-1.469,1.106-1.608c0.025-0.005,0.05-0.008,0.074-0.012c-0.47,0.83-0.18,1.37,0.57,1.81   c0.49-1.17,1.71-1.29,2.61-1.9c1.14-0.78,1.6-0.63,1.75,1c0.82-2.22,1.34-2.45,3.77-2.31c0.59,0,1.19-0.47,1.8-0.63   c1.214-0.331,2.49-0.366,3.72-0.1c1,0.23,2.11,0.22,3.11,0.52c0.54,0.16,1.52-1,1.64,0.47c0.32-0.35,1,0.1,1.19-0.52   s1-0.35,1.31-0.77c0.01,0.486-0.089,0.968-0.29,1.41c-0.107,0.278-0.168,0.572-0.18,0.87c1.16,0,2.82-0.56,3.2,0.2   c0.55,1.1,1.76,1,2.18,1.87c0.33,0.67,1.2,0.72,1.38,1.44c0.06,0.23,0.23,0.26,0.34,0.2c2.12-1,2.54,1.83,4.2,1.84   c0,1.12,1.29,1.62,1.23,2.77c0,0.57,0,1.14,0.9,0.64s0.49,0.57,1,0.78c0.94,0.43,1.09,1.81,2.08,2.36   c0.021,0.044,0.021,0.096,0,0.14c-1.75,1.55,1,1.83,0.78,2.43c-0.45,1.15,0.19,1.59,0.63,2.38s0.13,0.83,1,1   c-0.93,0.22-0.92,0.22-0.34,1c0.38,0.49,0,1.25,0.57,1.71l-1.5,0.87c1.25,0.94,2.14,1.89,1.45,3.69   c-0.254,0.946-0.237,1.944,0.05,2.88c0.19,0.79,1,1.52-0.44,1.87c-0.104,0.011-0.18,0.105-0.168,0.21   c0.006,0.058,0.039,0.11,0.088,0.14c0.89,0.84,0.34,1.81,0.41,2.75c0,0.65-0.55,2,0.88,2.23c-0.35,1.5,1.5,2.87,0.16,4.57   c-0.583,0.842-0.559,1.964,0.06,2.78c0.3,0.31-0.39,0.67,0,1c-0.29,0-0.63-0.11-0.85,0.23c0.35,0.06,0.72,0.53,1-0.07   c0.38,0.45,0.38,0.45-0.35,1.07c0.23,0.56,0.88,0.21,1.3,0.63c-0.27,0.12-0.52,0.33-0.71,0.29s-0.75-0.34-0.66,0.2   c0.28,1.76-1,3.44-0.13,5.25c0.32,0.71-0.54,0.27-0.81,0.43s0.07,2.39,0.39,2.62c0.925,0.709,1.101,2.033,0.392,2.958   c-0.113,0.147-0.245,0.279-0.392,0.392c0-0.3,0-0.54-0.4-0.54c-0.09,0-0.25,0.08-0.24,0.11c0.023,0.268,0.204,0.497,0.46,0.58   c-0.041,0.067-0.041,0.153,0,0.22c-0.19,0-0.42-0.13-0.51,0.12c-0.024,0.138,0.025,0.278,0.13,0.37c0.34,0.12,0.42-0.13,0.47-0.39   c1.27,0.41,0.06,0.79-0.09,0.83c-1.27,0.29-0.86,1.19-0.4,1.61c0.486,0.364,0.649,1.02,0.39,1.57c-1.17,1.25,0.28,3.12-1.12,4.24   c0.76,1.09,0.4,2.23,0.11,3.35c-0.62,2.42,0,5.1-1.52,7.3c-0.36,0.51,0.07,0.34,0.19,0.39c0.37,0.18,0.82,0.54,0.65,0.82   c-0.85,1.37,0.68,0.49,0.8,0.9c-1.2,0.56-1.26,1.79-0.14,3.24c-0.09,0-0.2,0.15-0.27,0.12c-0.59-0.17-1.24-1-1.72-0.35   c-0.277,0.522-0.078,1.17,0.444,1.447c0.138,0.073,0.29,0.115,0.446,0.123c0.44,0.06,0.1,0.41,0,0.59   c-0.581,0.535-0.618,1.44-0.083,2.021c0.089,0.097,0.191,0.181,0.303,0.249c0.5,0.45,0.44,1.29,1.18,1.67   c0.29,0.15-0.17,0.46-0.39,0.69c-0.53,0.57-1.29,0.42-2,0.83c1.61-0.38,1.55,1.33,2.5,1.83c0.47,0.25-0.18,0.4-0.36,0.6   c-0.77,0.86-0.81,1.51,0.72,1.69c-1.06,0.48-1.78,0.95-0.74,2c0.19,0.2,0.08,0.73,0.06,1.1s0.1,0.85,0.61,0.57s0.74-0.21,0.84,0.27   s-0.18,0.57-0.59,0.53s-0.4,0.31-0.26,0.5c0.49,0.68,1.29,2,1.52,1.87c0.91-0.36,1.2,0.29,1.58,0.68s0.45,0.63,1,0.33   c1-0.57,1.73,0.82,2.75,0.61c0,0.24-0.38,0.44,0,0.78c0.88-1.55,2.16-2.12,3.62-0.94c0.58,0.46,0.37-0.14,0.54-0.16   c0.39,0,1.09-0.24,1.12-0.16c0.54,1.33,1.39,0.3,2.08,0.31c0.07,0,0.19-0.21,0.22-0.2c0.902,0.657,2.134,0.624,3-0.08   c1-0.75,1.91,0,2.83,0.2c0.68,0.13,0.42-0.73,1-0.63c0.33,0.34-0.1,1.46,0.62,1.24c0.56-0.17,1.39,0.92,1.81-0.41   c0.13-0.4,1.47-1.73,1.93,0.21c0.69-0.47,0.57,0.42,0.91,0.54c-0.12-0.85,1.23-0.06,1.1-1c-0.063-0.309,0.137-0.609,0.445-0.672   c0.091-0.018,0.185-0.014,0.275,0.012c0.806,0.095,1.572,0.402,2.22,0.89c0.26,0.22-0.53,1.06,0.48,0.72   c0.53-0.18,0.86-0.41,0.82-1c-0.004-0.335,0.023-0.67,0.08-1c0,0,0.08-0.08,0.12-0.07s0.08,0.07,0.12,0.1c0,0.53,0.06,1.07,0,1.6   c-0.13,2.28-1.74,4.44-0.59,6.84c0,0,0,0.09-0.05,0.14c-0.628,2.538-0.628,5.192,0,7.73c0.356,1.125,0.424,2.321,0.2,3.48   c-0.29,1.14-0.24,1.76,0.93,2c0.3,0.07,0.55,0.14,0.39,0.49s-0.22,0.44-0.6,0.31c-0.312-0.048-0.628-0.048-0.94,0   c-1.45,0.33-3-0.21-4.4,0.53c-0.2,0.11-0.39,0.15-0.5-0.14c-0.62-1.6-1.55-0.52-2.49-0.42c-0.68,0.07-0.74,0.53-1.11,0.72   c-0.95,0.46-1.23-0.59-1.85-0.88c-0.599-0.234-1.237-0.356-1.88-0.36c-1.446,0.047-2.882,0.259-4.28,0.63   c-0.24,0-1.39,0.28-1.49-0.77c0-0.18-0.34-0.07-0.8,0.45c-0.5-0.33,0.14-1.28-0.41-1.23s-1.15-0.24-1.5,0.67   c-0.28,0.71-1.3,0.14-1.76-0.11c-0.62-0.34-0.94-0.46-1.17,0.26c-0.28,0.88-0.9,0.34-1.19,0.19c-1.35-0.68-1.38-0.72-2.72-0.07   c-0.686,0.066-1.377-0.055-2-0.35c-0.08,0-0.16-0.11-0.24-0.11c-0.55,0,0,1.15-0.75,0.86s0.44-0.88-0.11-1.2   c-0.347-0.168-0.757-0.141-1.08,0.07c-1,0.53-1,0.52-1.47-0.7c-0.75,0.81-1.51,1.71-2.28,0c-0.067-0.085-0.172-0.13-0.28-0.12   c-1.91,0.87-2.2-1.9-3.87-1.71c-0.68,0.08,0-1-0.68-1.24s-1.45-0.52-2,0.34c-0.61-0.69,0.39-0.71,0.25-1.25   c-1,0.2-2,0.16-1.85-1.33c-0.008-0.329-0.225-0.615-0.54-0.71c-1.52,0.12-1.44-1.48-2.29-2s-1.54-0.95-1.55-2   c0-0.05-1,0.08-1.37-0.48c-0.1-0.14-0.6-0.07-0.62-0.38s0.49-0.11,0.57-0.27c0.22-0.44-0.14-0.81-0.2-1.39l-0.73,0.82   c-0.286-0.587-0.119-1.294,0.4-1.69c1.06-1.09,1.09-1.05-0.19-1.46c-0.28-0.09-0.61-1.19-0.81-1.39c-0.67-0.65-0.64-1.91-1.11-2.2   c-1.42-0.88-0.88-2.23-0.93-3.25c0.068-0.639-0.368-1.223-1-1.34c-0.06-0.47,2-0.81,0-1.28c0.249-0.724,0.293-1.502,0.13-2.25   c-0.337-1.015-0.503-2.08-0.49-3.15c0.15-1-0.75-1.82,0-2.83c0.42-0.6-0.79-0.33-1-0.93c1-0.56,0.87-1.38,0.88-2.5   c0-1.72,0.15-3.5,0.3-5.24c0.006-0.71-0.105-1.416-0.33-2.09c-0.32-0.38,0-0.53,0.21-0.78c0.6-0.74,0.51-1.25-0.23-1.68   c-0.108-0.112-0.163-0.265-0.15-0.42c0-0.16,0.15-0.14,0.31-0.18c0.72-0.17,0.84-0.32,0.4-0.81c-0.62-0.69,0-1.29,0.22-1.56   c0.7-1,0.79-0.94-0.41-1.46c-0.37-0.41,2.14-0.31,0.18-1c-0.24-0.09,0.06-0.36,0.18-0.5c0.39-0.47,0.64-0.86-0.15-1.22   c-0.25-0.11,0.29-0.61-0.15-0.84c1.44-0.16,1-1.74,0.81-1.93c-1.16-1.1,1.44-2.41-0.29-3.38c-0.22-0.12,0.09-0.69,0.34-0.78   c0.357-0.096,0.569-0.464,0.473-0.821c-0.006-0.023-0.014-0.046-0.023-0.069c-0.56-1.69,0.21-3.3,0.24-4.95   c0.14,0.32,0.41,0.35,0.6,0.14s-0.11-0.33-0.24-0.46c0.324-0.754,0.276-1.617-0.13-2.33c-0.36-0.67-0.28-1.27,0.82-1.13   c-0.985-0.895-1.057-2.42-0.162-3.404c0.033-0.036,0.067-0.071,0.102-0.106c0.41-0.3-0.24-0.82,0.36-0.89   c-1-0.28-0.06-1.25-0.67-1.75s0.33-1,0.32-1.49c0-1.72,0.78-3.55,0.3-5.06c-0.273-0.963-0.22-1.99,0.15-2.92   c0.11-0.4,0-0.29-0.16-0.45c-0.616-0.87-0.831-1.962-0.59-3c0.27-1.09-1-2.16,0.08-3.17c-1.11-0.93,0-2.45-0.91-3.46   c-0.121-0.242-0.121-0.528,0-0.77c0.81-1.55,0.74-1.49-0.46-3.34c-0.291-0.706-0.364-1.482-0.21-2.23c0.06-0.73,0-1.06-0.59-0.95   c-1.94,0.36-3.78,0.34-5.41-1l-0.13-0.08c0,1.58-2.67,1.16-2.29,3l-0.34-1.23l-0.23,1.37c-0.35-0.18-0.17-0.85-0.76-0.73   c-0.4,0.47,0.12,1.2-0.48,1.68c-0.34,0.15-0.4-0.21-0.52-0.39c-0.096-0.197-0.167-0.405-0.21-0.62c-0.1,0-0.22,0-0.26,0.1   c-1,1.55-2.71,2.61-2.76,4.84c0,0.8-1.37,1.45-0.54,2.7c0.36,0.55-0.69,0.59-1,1.07c-0.363,0.435-0.43,1.046-0.17,1.55   c0.43,0.9,0,1.8,0,2.69c0,2.76-1.74,4.91-2.32,7.45c-0.221,0.614-0.287,1.274-0.19,1.92c0.11,0.42,0.23,0.73-0.59,0.68   c-1.05-0.06,0.68,0.52,0,0.75c0.33,0.48-0.84,1.21,0.27,1.56c-0.53,0.3,0.17,1.12-0.59,1.34s-1.23,0.7-0.3,1.38   c-0.76,0.16,0,1.07-0.7,1.36c-0.447,0.264-0.594,0.841-0.33,1.288c0.006,0.011,0.013,0.022,0.02,0.032   c0.63,1.06,0.6,1.24-0.58,1.95c-0.35,0.21-0.89,0.49-0.91,0.77c-0.14,1.85-1.35,0.94-2.38,0.93c0.7,1.41,1,2.67-1.1,3   c-0.44,0.07-0.3,0.8-0.17,1.1c0.68,1.53-0.22,1.24-1.1,1c0.43,1-0.89,2.35-2.19,2.22c-0.11-0.28-0.29-0.37-0.56-0.2l0.31,0.44   c0.65,0.81,0.32,0.67-0.05,1.56s-0.19,1.52-1.34,1.15c-0.63,1.84-2.51,2.6-3.55,4.09c-0.17,0.24,0,0.69-0.49,0.76   c-0.4-0.29,0-1-0.68-1.25c0,1.34-0.42,2.39-2.06,2.14c-0.158,0.007-0.312,0.052-0.45,0.13c-0.4,0.15-0.29-1.17-0.83-0.34   c-0.31,0.47,0.44,0.6,0.69,1c-0.59-0.11-1,0.36-1.73-0.09c-0.44-0.28-1.81-0.54-1.8,1c-0.03,0.197-0.214,0.331-0.41,0.301   c-0.017-0.003-0.033-0.006-0.05-0.011c-1.729-0.256-3.496-0.024-5.1,0.67c-0.26,0.09-1.26,1.34-2.08,0   c-0.34-0.55-1.13,0.44-1.71,0.76c-0.09-1.12,1-1.85,0.91-3c0-0.93-0.3-2,0.35-2.85c0.78-1,0.25-1.85-0.13-2.74   c-0.08-0.19-0.57-0.19-0.31-0.57c1.3-1.88,0-4.19,1.07-6.19c0.52-1-0.55-2.16-0.41-3.3c0.17-1.4-0.74-2.07-1.83-2.71   C168.97,203.006,169.51,203.066,169.5,202.446z M215.88,148.836c0.13-0.38-0.12-0.42-0.29-0.51s-0.28,0.11-0.29,0.22   s0,0.44,0.3,0.45c0.1-0.01,0.22-0.14,0.28-0.17V148.836z M240.56,237.946c-0.27-0.09-0.41-0.19-0.48-0.16   c-0.113,0.071-0.195,0.181-0.23,0.31c0,0,0,0.36,0.22,0.18L240.56,237.946z M189.24,163.696l0.11-0.09l-0.1-0.1l-0.11,0.13   L189.24,163.696z M214.74,148.156c0,0-0.06,0.07,0,0.09c0.027,0.039,0.061,0.073,0.1,0.1l0.06-0.18L214.74,148.156z"></path>
	<path style="fill:#163747;" d="M273.21,273.186c0.312-0.048,0.628-0.048,0.94,0c0.37,0.13,0.5-0.1,0.6-0.31s-0.1-0.42-0.39-0.49   c-1.17-0.29-1.21-0.91-0.93-2c0.224-1.159,0.156-2.355-0.2-3.48c-0.628-2.538-0.628-5.192,0-7.73c0,0,0.07-0.11,0.05-0.14   c-1.15-2.4,0.46-4.55,0.59-6.84c0-0.53,0-1.06,0-1.6c1.81-1.07,2.77-3,4.33-4.35c0.81-0.7,2.45-0.5,2.46-2.11   c0.15,0,0.35,0.12,0.42,0.05c0.35-0.3,1.83,1.07,1.15-0.76c0.52-0.17,0.79-0.73,1.55-0.6c1.106,0.192,2.238-0.145,3.06-0.91   c0.303-0.331,0.8-0.398,1.18-0.16c1.36,1.08,2.81,0.09,4.19,0.29c-0.06,0.35,0.77,0.18,0.43,0.64c-0.85,1.11,0.13,2.5-0.59,3.64   c-0.12,0.19,0.54,0.41,0.31,0.82c1.32,0.25,0.44,0.28,0,0.58c-0.278,0.322-0.242,0.808,0.08,1.086   c0.073,0.063,0.158,0.112,0.25,0.144c-1,0.88-0.06,2-0.36,3c-0.376,0.826-0.273,1.792,0.27,2.52c-0.39,0.22-0.33,0.7-0.55,1   c-0.185,0.194-0.247,0.476-0.16,0.73c0.73,1,0.43,2.09,0.19,3.11c-0.19,0.78,0.21,1.41,0.24,2.1c-0.012,0.886-0.068,1.77-0.17,2.65   c0,0.56-0.67,1.06,0.39,1.22c-0.243,0.49-0.36,1.033-0.34,1.58c-0.011,1.565-0.118,3.128-0.32,4.68   c-0.113,0.923,0.335,1.824,1.14,2.29c0.15,0.09,0.23,0.3,0.34,0.46c-1.07,0.64-0.37,1.75-0.71,2.53c-0.22,0.51-0.45,1-0.67,1.53   c-0.51,1.27,0.12,2,1,2.66c0.09,0.08,0.11,0.25,0.16,0.38c-1.75-0.06-0.19,1.78-1.23,2.14c-2.08,0.9-4.29,0.2-6.34,0.11   c-3-0.13-5.78-1.84-8.38-3.48c-0.26-0.16-0.36-0.64-0.46-1c0-0.19,0-0.57-0.15-0.55c-1.49,0.13-1.37-1.47-2-1.86   c-1-0.58-0.85-1.08-0.84-1.88C273.775,274.267,273.586,273.667,273.21,273.186z M274.91,276.636l0.66-0.42   c-0.13-0.06-0.26-0.16-0.39-0.16c-0.142,0.007-0.274,0.076-0.36,0.19C274.77,276.366,274.87,276.516,274.91,276.636L274.91,276.636   z"></path>
	<path style="fill:#163747;" d="M169.5,202.446c0,0.63-0.52,0.57-1,0.74c1.09,0.64,2,1.31,1.83,2.71c-0.14,1.14,0.92,2.33,0.41,3.3   c-1.06,2,0.23,4.3-1.07,6.19c-0.26,0.38,0.22,0.38,0.31,0.57c0.38,0.88,0.91,1.73,0.13,2.74c-0.65,0.83-0.4,1.92-0.35,2.85   c0.06,1.18-1,1.91-0.91,3c-0.398,0.95-0.606,1.97-0.61,3c-0.06,0.52-1.45,1.23-2.29,1.74s-1.47,2-3,1.4   c-0.14-0.06-0.25,0.41-0.38,0.61c-0.347,0.81-1.184,1.298-2.06,1.2c-0.56-0.07-1.11-0.1-1.31,0.78s-0.72,0.51-1.08,0   c-0.53-0.78-1-0.82-1.63-0.14c-0.11,0.11-0.31,0.35-0.31,0.34c-0.94-0.77-2.11,0.21-3.06-0.4c0.685-1.227,0.776-2.698,0.25-4   c-0.291-1.128-0.231-2.317,0.17-3.41c0.05-0.2,0.17-0.37,0.08-0.6c-0.83-2,0.2-4-0.06-5.9c-0.2-1.48,0.17-2.92-0.15-4.37   c-0.281-1.672-0.331-3.374-0.15-5.06c0.16-2.52-0.06-5.05,0-7.58c0-1,0.73-2.1,0.47-3s0.77-2-0.48-2.87   c-0.49-0.36-0.4-1.85,0.19-2.75c0.31,0.2,0.77,0.34,0.89,0.62c0.48,1.09,0.77,1.25,1.06-0.07c0.07-0.31,0.48-0.32,0.69-0.27   c1.651,0.284,3.334,0.338,5,0.16c1.8,0,2.32,1.37,3.4,1.81c1.36,0.55,1.65,2.15,3.19,2.35c0.74,0.1,0.89,1.4,1.16,2.1   C169.2,200.92,169.428,201.672,169.5,202.446z"></path>
	<path style="fill:#F3BC1B;" d="M180.51,186.456c-0.08,0.06-0.16,0.16-0.24,0.16s-0.15-0.1-0.23-0.16   c0.08-0.066,0.171-0.117,0.27-0.15C180.37,186.296,180.44,186.366,180.51,186.456z"></path>
	<path style="fill:#163747;" d="M18.39,157.256c-0.333-0.024-0.667-0.024-1,0c-1.71,0.24-2.27-0.26-1.75-2   c0.296-0.603,0.104-1.331-0.45-1.71c-0.89-0.68-1.23-1.85-2.26-2.4c-0.239-0.147-0.365-0.423-0.32-0.7c0.21-3.62,0-7.26-0.12-10.86   c-0.13-3.21,0.84-6.34,0.07-9.66c-0.42-1.81-0.12-4.17-0.26-6.15c-0.16-2.42,0.63-4.66,0.44-7.06   c-0.236-1.803-0.286-3.626-0.15-5.44c0.29-2.31,0.68-5-0.44-7.37c1.45-1.22,0.09-2.64,0.17-3.95c0.06-1.1,0.85-2.24,0-3.46   c-0.48-0.71,0.57-1.65,0.38-2.39c-0.54-2.09,0-4.15-0.13-6.21c0-0.48,0.31-1.11-0.41-1.43c-0.1,0-0.12-0.26-0.17-0.39   c1.94-0.53,0.44-1.63,0.4-2.47c-0.09-1.77,0.12-3.53,0.17-5.29c0.08-3.07-0.19-6.14,0.08-9.2c-0.041-1.154,0.097-2.308,0.41-3.42   c0.42-1.08-0.25-2.59-0.46-3.9c-0.26-1.68,0.11-3.35,0-5s0-3.47,0-5.21c0-2.14,0.26-4.27-0.29-6.4c-0.14-0.53,0.28-1.23,0.47-1.81   c0.676-1.943,0.676-4.057,0-6c-0.14-0.53,0.32-1.29,0.64-1.86c0.618-1.352,0.984-2.806,1.08-4.29c0.3-1.93,1.7-3.2,2.46-4.83   c1.14-2.48,3.62-3.48,5.49-5.15c1.12-1,2.74-0.5,3.71-1.71c0.18-0.22,0.82-0.22,1.07-0.71c0.07-0.15,0.42-1.18,0.84,0   c0.35,1,0.63-0.3,1.09-0.36c1-0.14,2.19,0,3-1c0.107-0.112,0.237-0.201,0.38-0.26c1,1.18,2.26-1.09,3.23,0.24   c1.15-1.21,2.09,0.14,3.14,0.24c0.67,0.07,1-0.62,1.79-0.58c2.05,0.1,4.1,0,6.18,0.16c0.84,0.08,2.31,0.9,3.28-0.39   c0.2-0.26,0.95,0.2,1.36,0.19c2.7-0.1,5.43,0.56,8.1-0.44c0.64-0.24,1.36,0.36,2,0.5c1.593,0.361,3.243,0.395,4.85,0.1   c2.17-0.51,4.16-0.12,6.2,0c0.677-0.016,1.349-0.116,2-0.3c1.47-0.254,2.97-0.288,4.45-0.1c1.58,0.25,3-0.38,4.32-0.11   c1.49,0.265,2.997,0.416,4.51,0.45c1.65,0.07,3.63,0.85,5.23-0.56c0.6-0.53,0.54,0.53,1.12,0.51c2.09-0.09,4.18-0.05,6.27,0   c1.18,0,2.39-0.88,3.62,0.21c0.764,0.102,1.54,0.065,2.29-0.11c2.156-0.391,4.364-0.391,6.52,0c1.239,0.329,2.559,0.133,3.65-0.54   c0.38-0.24,0.48,0.07,0.6,0.25s-0.35,0.62,0.2,0.46c2.64-0.77,4.78,0.8,7.12,1.46c0.09,0,0.15,0.18,0.23,0.18   c1.29,0.037,2.54,0.459,3.59,1.21c0.19,0.15,0.18,0.37,0.56,0.25c1.11-0.37,1.78,0.5,2.47,1.09c1.321,0.934,2.592,1.935,3.81,3   c0.758,0.808,1.352,1.756,1.75,2.79c0.212,0.763,0.651,1.443,1.26,1.95c0.72,0.53,0.21,1.25,0.42,1.86c0.55,1.63,0.7,3.35,1.53,5   c0.47,0.91-0.17,2.31-0.26,3.5c-0.101,1.586,0.141,3.176,0.71,4.66c0.211,0.739,0.211,1.521,0,2.26c-0.27,2.32,0.05,4.64,0,7   c-0.06,3.86,0.55,7.75-0.6,11.57c-0.27,0.91,0.36,1.82,0.44,2.79c0.21,2.7-0.11,5.39,0.11,8.06c0.18,2.08-0.27,4.18,0.28,6.26   c0.336,0.761,0.147,1.652-0.47,2.21c-0.17,0.13-0.15,0.63-0.09,0.94c0.384,2.732,0.475,5.498,0.27,8.25   c-0.105,0.444-0.067,0.91,0.11,1.33c0.268,0.708,0.239,1.494-0.08,2.18c-0.27,0.71,0.12,1.86,0.21,2.82   c0.079,0.513,0.035,1.038-0.13,1.53c-0.414,0.681-0.337,1.552,0.19,2.15c0.39,0.43,0,1.65-0.09,2.28c-0.33,1.54,0,3,0,4.38   c-0.11,1.66,1.07,3.6-0.56,5.1c1.05,1.08-0.12,2.38,0.22,3.33c0.87,2.41,0.36,4.83,0.54,7.24c0.072,1.373-0.018,2.749-0.27,4.1   c-0.432,2.422-0.36,4.907,0.21,7.3c0.23,1-0.23,2-0.15,3.1c0.063,1.966-0.011,3.934-0.22,5.89c0.016,0.523,0.07,1.044,0.16,1.56   c0.259,2.04-0.654,4.052-2.36,5.2c-1.32,0.94-0.59,2.25-0.77,3.35s0,1.27-1.27,1c-2.473-0.454-5.007-0.454-7.48,0   c-0.63,0.11-1.3,0.39-1.9-0.26c-0.271-0.247-0.637-0.361-1-0.31c-4.27,1.32-8.6-0.41-12.87,0.27c-2.07,0.33-4.15-0.47-6.14-0.21   c-1.45,0.19-2.87,0.78-4.32,0.27c-1.64-0.57-3.41-0.16-4.88,0c-1.92,0.2-4-0.56-5.64,0.23c-1.38,0.65-0.5-1.1-1.15-0.72   s-1.34,1.09-1.66,0.71c-1.44-1.73-2.89,0.17-4.35-0.19s-3.12,0-4.65,0.07s-3.07-0.49-4.69-0.22   c-3.372,0.538-6.816,0.413-10.14-0.37c-0.15,0-0.4-0.18-0.41-0.16c-0.78,1.36-1.67,1-2.57,0.16c-0.18-0.16-0.32,0-0.31,0.1   c0.09,1.39-1,0.65-1.38,0.61c-2.86-0.34-5.74-0.07-8.61-0.34c-1.5-0.14-3.16,0.54-4.78,0.24c-3.16-0.59-6.33,0.1-9.5-0.14   c-2.065-0.185-4.144-0.141-6.2,0.13c-0.364,0.091-0.735,0.145-1.11,0.16C26.49,157.266,22.44,157.366,18.39,157.256z    M47.58,142.506c0,1.85,1.75,2.86,2.32,4.46c0.06,0.17,0.91,0.08,1.39,0.07s0.65-0.33,1.08-0.28c2.241,0.366,4.518,0.454,6.78,0.26   c2.82-0.34,5.64,0.14,8.49-0.11c2.333-0.109,4.67-0.082,7,0.08c1.09,0,2.14-0.42,3.07-0.27c1.168,0.184,2.348,0.284,3.53,0.3   c1.32,0,2.77-0.36,3.86-0.22c3.078,0.311,6.177,0.338,9.26,0.08c1.363-0.134,2.737-0.094,4.09,0.12c1.87,0.38,3.47,0.43,4.78-1.15   c0.357-0.427,0.96-0.555,1.46-0.31c1.18,0.33,1.68-0.16,1.66-1.4c-0.05-3.41,0-6.81,0-10.22c-0.145-2.646-0.112-5.299,0.1-7.94   c0.34-2.49-1.3-4.87-0.16-7.32c0.05-0.11-0.09-0.3-0.1-0.46c0-1.46,0.46-3-0.42-4.36c1.68-2.16-0.11-4.63,0.62-7   c0.42-1.34,0-3.14,0-4.73c-0.06-5.57,0-11.14-0.05-16.71c0-4-0.03-8.02-0.09-12.06c0-0.58-0.33-1.23-0.16-1.74   c0.8-2.42,0.14-4.89,0.29-7.33c0.17-2.69,0.1-5.45,0-8.19c-0.1-3.52-0.17-7,0-10.55c0.07-2-0.26-4-0.31-6.07   c0-1.63-2.51-4.11-4-3.92c-0.92,0.12-1.82-0.14-2.66-0.07c-2.89,0.24-5.79,0-8.66,0.27c-1,0.09-1.47-0.28-1.47-1.26   c-0.172-1.952-0.098-3.917,0.22-5.85c0.14-0.55,0.27-1.64-0.57-1.59c-1.55,0.09-3-0.47-4.62-0.09c-2.1,0.5-4.3,0.2-6.45,0.38   c-2.77,0.23-5.65-1.39-8.36,0.49c-0.3,0.21-0.48-0.38-0.77-0.49c-0.54-0.19-1.29-0.61-1.55,0.13   c-0.241,0.791-0.282,1.629-0.12,2.44c0.25,1.36-0.59,2.69,0,4.09c0.07,0.18-0.08,2.31-1.81,1.51c-0.2-0.09-0.52,0.15-0.78,0.14   c-1.7-0.11-3.43,0.48-5.09-0.25c-0.193-0.093-0.413-0.114-0.62-0.06c-1.325,0.499-2.766,0.607-4.15,0.31   c-1.391-0.352-2.864,0.068-3.86,1.1c-0.34,0.646-1.1,0.947-1.79,0.71c-0.9-0.12-1.4,0.08-1.33,1.36   c0.196,3.233,0.212,6.475,0.05,9.71c-0.233,4.127-0.153,8.265,0.24,12.38c0.116,1.137,0.116,2.283,0,3.42c-0.33,3,0,5.93-0.3,8.88   c-0.13,1.38-0.53,2.85,0.54,4.09c-1.23,2.45-0.46,5-0.52,7.57c-0.08,3.82-0.09,7.63-0.1,11.45c0,3-0.05,6,0.08,8.92   c0.1,2.31,0.08,4.65,0,6.93c-0.12,3.67-0.1,7.35-0.06,11c-0.03,6.44-0.49,12.89,0.03,19.35H47.58z"></path>
	<path style="fill:#54B8CB;" d="M59.37,257.676c-1.57,0.36-2.3-0.83-3.14-1.38c-0.595-0.484-1.273-0.857-2-1.1   c-2.12-0.29-2.76-2.05-4-3.32c-1.37-1.44-2.46-3.1-3.77-4.56c-1.302-1.633-2.317-3.476-3-5.45c-0.498-0.963-0.79-2.018-0.86-3.1   c-0.055-2.008-0.87-3.92-2.28-5.35c-0.29-0.29-0.32-0.87-0.06-1.05c1.68-1.17,0.19-2.27-0.16-3.23   c-0.371-0.706-0.498-1.515-0.36-2.3c0.13-1.005,0.051-2.026-0.23-3c-0.31-2.14,0.6-4.25,0.11-6.46c-0.17-0.77,0.91-1.7,1.17-2.68   c0.06-0.23,0.48-0.49,0.27-0.68c-2.09-1.88,0.39-3.08,0.75-4.54s1.06-2.52,0.76-4.08c-0.14-0.72,0.82-1.59,1.09-2.45   c1-3.13,3.25-5.42,5.12-8c1.225-1.612,2.562-3.135,4-4.56c0.32-0.33,1.22,0,1.71-0.29c1.154-0.66,2.272-1.381,3.35-2.16   c0.37-0.25,0.61-0.78,1.17-0.32c0.1,0.09,0.34,0.18,0.38,0.14c2.42-2.58,6-2.81,8.93-4.44c1.568-1.005,3.447-1.41,5.29-1.14   c1.05,0.35,2.153,0.519,3.26,0.5c1.8-0.54,3.49,0.65,5.14-0.1c1-0.45,2,0,3-0.1c1.53-0.2,3.11-0.26,4.66-0.4   c0.16-0.025,0.324,0,0.47,0.07c2.72,1.71,6.09,2,8.7,4c0.38,0.29,1,0.16,1.55,0.32c0.28,0.09,0.57-0.16,0.85,0.16   c1.398,1.392,3.114,2.421,5,3c3.44,1.3,5,4.33,7.23,6.76c1.036,1.211,2.008,2.476,2.91,3.79c0.73,1,0.75,2.27,1.35,3.36   c0.55,0.935,0.853,1.995,0.88,3.08c0.055,2.008,0.87,3.92,2.28,5.35c0.294,0.283,0.321,0.745,0.06,1.06   c-1.67,1.26,0.05,2.27,0.22,3.38c0.06,0.4,0.57,0.82,0.48,1.13c-0.71,2.7,0.27,5.4-0.11,8.15c-0.25,1.85-0.35,3.62-1.31,5.25   c-0.07,0.12-0.14,0.37-0.08,0.43c1.89,2-0.51,3.26-0.86,4.84c-0.27,1.2-0.91,2.28-0.64,3.62c0.21,1-0.89,1.64-1.14,2.59   c-0.85,3.17-3.19,5.44-5.07,8c-1.225,1.611-2.562,3.135-4,4.56c-0.33,0.33-1.22,0-1.71,0.29c-1.153,0.661-2.272,1.382-3.35,2.16   c-0.37,0.25-0.62,0.79-1.17,0.32c-0.1-0.09-0.34-0.18-0.38-0.14c-2.43,2.57-6,2.81-8.93,4.44c-1.576,0.996-3.454,1.4-5.3,1.14   c-1.09-0.24-2.64-0.7-3.25-0.51c-1.84,0.6-3.58-0.68-5.3,0.15c-0.89,0.43-1.84-0.06-2.81,0.06c-1.53,0.19-3.11,0.25-4.66,0.4   c-0.16,0.025-0.324,0-0.47-0.07c-2.72-1.71-6.07-2-8.7-4c-0.48-0.35-1.32-0.19-2-0.3S59.55,258.016,59.37,257.676z M72.17,245.896   c0.615,1.231,1.159,2.497,1.63,3.79c1,3,2.78,3.44,5.41,3.73c0.65,0.07,1.18-0.05,1.28-1c0.18-1.53,0.35-3.3,1.34-4.34   s0.39-3.09,2.31-4c0.79-0.36,1.41-2.2,2.08-3.38c1.49-2.62,2.13-5.67,4-8.1c0.83-1.06,0.72-2.51,1.3-3.55   c0.55-0.948,0.735-2.065,0.52-3.14c-0.106-0.638-0.169-1.283-0.19-1.93c0-0.66,0.91-1.86-0.9-1.33c-0.34,0.1-0.57-0.4-0.57-0.68   c0.033-0.634-0.454-1.175-1.088-1.208c-0.198-0.01-0.394,0.03-0.572,0.118c-1.698,0.571-3.456,0.947-5.24,1.12   c-1,0.16-2.22-0.76-3.1,0.45c-0.1-1.39-1.14-0.48-1.69-0.61c-1.23-0.29-2-0.48-0.48-1.54c0.192-0.194,0.321-0.442,0.37-0.71   c0.73-2.52,2.62-4.39,3.73-6.72c1-2.09,3.39-3.5,3.06-6.27c0.015-0.11,0.082-0.207,0.18-0.26c2-1,2.11-2.67,1.73-4.56   c-0.007-0.217,0.037-0.433,0.13-0.63c0.686-2.762-0.537-5.644-3-7.07c-0.398-0.189-0.867-0.143-1.22,0.12   c-1.007,0.492-2.082,0.829-3.19,1c-0.76,0.19-1.76,0.38-1.36,1.67c0.144,0.453-0.105,0.936-0.558,1.081   c-0.04,0.013-0.081,0.023-0.122,0.029c-0.489,0.079-0.846,0.505-0.84,1c-0.165,1.112-0.676,2.144-1.46,2.95   c-0.394,0.568-0.73,1.174-1,1.81c-0.58,1-0.88,2.19-1.47,3.19c-0.44,0.74-1.77,1.15-0.51,2.3c0.2,0.19-0.18,0.68-0.49,0.91   c-1.651,1.404-2.661,3.418-2.8,5.58c0,0.1-0.17,0.22-0.29,0.27c-1.19,0.56-1.61,1.66-2.19,2.74c-0.438,1.083-1.123,2.048-2,2.82   c-0.587,0.617-0.962,1.405-1.07,2.25c0.82,1.09,0.31,2.65,1.32,3.55s0.84,2,1.62,2.84c0.31,0.33,0.06,1.11,0.87,1.16   s0.57-0.9,1-1.24c0.061,0.904,0.843,1.587,1.747,1.526c0.236-0.016,0.465-0.083,0.673-0.196c0.967-0.444,2.016-0.679,3.08-0.69   c1.8,0,3.59,0.15,5.39,0.09c0.46,0,0.72,0.39,0.85,1.1c0.21,1.09-0.72,0.93-1,1.31c-0.84,1.07-0.83,2.56-1.85,3.49   s-1,2.61-2.14,3.54c-0.11,0.09-0.24,0.33-0.2,0.42c0.57,1.25-0.45,1.45-1.16,2c-0.745,0.518-1.105,1.434-0.91,2.32   c0.08,0.31,0.62,0.5,0.22,0.93S72.72,245.766,72.17,245.896z"></path>
	<path style="fill:#FFFFFF;" d="M1.42,96.456c0.17,0.17,0.45,0.29,0.37,0.59c-0.058,0.122-0.176,0.205-0.31,0.22   c-0.36,0-0.26-0.36-0.32-0.58L1.42,96.456z"></path>
	<path style="fill:#FFFFFF;" d="M29.69,1.366c0.22,0.06,0.55,0,0.58,0.32c-0.015,0.134-0.098,0.252-0.22,0.31   c-0.3,0.08-0.42-0.2-0.59-0.37L29.69,1.366z"></path>
	<path style="fill:#FFFFFF;" d="M200.85,151.366c0.78-0.25,0.58,0.56,0.89,0.83c-0.18,0.12-0.4,0.38-0.53,0.34   c-0.71-0.2-0.14-0.81-0.33-1.19L200.85,151.366z"></path>
	<path style="fill:#FFFFFF;" d="M215.88,148.826c-0.05,0-0.17,0.16-0.29,0.16c-0.27,0-0.32-0.24-0.3-0.45s0-0.35,0.29-0.22   S216,148.446,215.88,148.826z"></path>
	<path style="fill:#FFFFFF;" d="M195.13,154.716l0.81,0.73c-0.67,0.21-0.77-0.23-1-0.52   C194.997,154.85,195.06,154.78,195.13,154.716z"></path>
	<path style="fill:#FFFFFF;" d="M242.07,207.366c-0.256-0.083-0.437-0.312-0.46-0.58c0,0,0.16-0.11,0.24-0.11   c0.37,0,0.42,0.25,0.4,0.54L242.07,207.366z"></path>
	<path style="fill:#FFFFFF;" d="M240.56,237.946l-0.48,0.34c-0.27,0.18-0.24-0.13-0.22-0.18c0.035-0.129,0.117-0.239,0.23-0.31   C240.15,237.746,240.29,237.846,240.56,237.946z"></path>
	<path style="fill:#FFFFFF;" d="M243.25,193.366c-0.3,0.61-0.67,0.13-1,0.07c0.22-0.34,0.56-0.19,0.85-0.23L243.25,193.366z"></path>
	<path style="fill:#FFFFFF;" d="M190.48,212.746l-0.31-0.44c0.27-0.17,0.45-0.08,0.56,0.2L190.48,212.746z"></path>
	<path style="fill:#FFFFFF;" d="M242.15,207.676c0,0.26-0.13,0.52-0.47,0.39c-0.105-0.092-0.154-0.232-0.13-0.37   c0.09-0.24,0.33-0.13,0.51-0.12L242.15,207.676z"></path>
	<path style="fill:#FFFFFF;" d="M220.74,205.136c0.13,0.14,0.41,0.27,0.24,0.46s-0.46,0.18-0.6-0.14L220.74,205.136z"></path>
	<path style="fill:#FFFFFF;" d="M189.24,163.696l-0.1-0.05l0.11-0.13l0.1,0.1L189.24,163.696z"></path>
	<path style="fill:#FFFFFF;" d="M214.74,148.146h0.1l-0.06,0.18c-0.039-0.027-0.073-0.061-0.1-0.1   C214.68,148.226,214.72,148.176,214.74,148.146z"></path>
	<path style="fill:#FFFFFF;" d="M274.91,276.636c0-0.12-0.14-0.28-0.09-0.38c0.086-0.114,0.218-0.183,0.36-0.19   c0.13,0,0.26,0.1,0.39,0.16L274.91,276.636z"></path>
	<path style="fill:#E86166;" d="M47.59,142.506c-0.52-6.46-0.05-12.91-0.12-19.35c0-3.64-0.07-7.33,0.06-11   c0.08-2.27,0.11-4.61,0-6.93c-0.13-3-0.09-5.95-0.08-8.92c0-3.82,0-7.63,0.1-11.45c0.05-2.53-0.72-5.12,0.52-7.57   c-1.07-1.24-0.67-2.71-0.54-4.09c0.28-3,0-5.92,0.3-8.88c0.116-1.137,0.116-2.283,0-3.42c-0.393-4.115-0.473-8.253-0.24-12.38   c0.162-3.235,0.146-6.477-0.05-9.71c-0.08-1.27,0.43-1.48,1.33-1.36c0.69,0.237,1.45-0.064,1.79-0.71   c0.996-1.032,2.469-1.452,3.86-1.1c1.384,0.297,2.825,0.189,4.15-0.31c0.207-0.054,0.427-0.033,0.62,0.06   c1.67,0.73,3.4,0.15,5.09,0.25c0.26,0,0.59-0.23,0.78-0.14c1.73,0.8,1.88-1.33,1.81-1.51c-0.54-1.4,0.3-2.73,0-4.09   c-0.167-0.806-0.133-1.641,0.1-2.43c0.26-0.74,1-0.33,1.55-0.13c0.29,0.1,0.47,0.69,0.77,0.49c2.72-1.89,5.59-0.26,8.36-0.49   c2.16-0.18,4.35,0.12,6.45-0.38c1.58-0.38,3.07,0.18,4.62,0.09c0.84,0,0.71,1,0.57,1.59c-0.318,1.933-0.392,3.898-0.22,5.85   c0,1,0.46,1.35,1.47,1.26c2.88-0.26,5.77,0,8.66-0.27c0.84-0.07,1.73,0.18,2.66,0.07c1.49-0.19,4,2.29,4,3.92   c0.05,2,0.39,4,0.31,6.07c-0.13,3.51-0.05,7,0,10.55c0.08,2.73,0.14,5.49,0,8.19c-0.16,2.44,0.51,4.91-0.29,7.33   c-0.17,0.51,0.16,1.16,0.16,1.74c0.047,4,0.077,8.02,0.09,12.06c0,5.57,0,11.14,0.05,16.71c0,1.59,0.44,3.39,0,4.73   c-0.73,2.36,1.06,4.83-0.62,7c0.88,1.39,0.37,2.9,0.42,4.36c0,0.16,0.15,0.35,0.1,0.46c-1.14,2.45,0.5,4.83,0.16,7.32   c-0.212,2.641-0.245,5.294-0.1,7.94c0,3.41,0,6.81,0,10.22c0,1.24-0.48,1.73-1.66,1.4c-0.5-0.245-1.103-0.117-1.46,0.31   c-1.31,1.58-2.91,1.53-4.78,1.15c-1.353-0.214-2.727-0.254-4.09-0.12c-3.083,0.258-6.182,0.231-9.26-0.08   c-1.09-0.13-2.54,0.26-3.86,0.22c-1.182-0.016-2.362-0.116-3.53-0.3c-0.94-0.16-2,0.3-3.07,0.27c-2.33-0.162-4.667-0.189-7-0.08   c-2.85,0.25-5.67-0.23-8.49,0.11c-2.262,0.194-4.539,0.106-6.78-0.26c-0.43-0.05-0.71,0.26-1.08,0.28s-1.33,0.1-1.39-0.07   C49.33,145.366,47.6,144.366,47.59,142.506z M53.86,74.706c-0.94,0.53-1.35,1.15-0.32,2c0.46,2.76,0.21,5.55,0.35,8.32   c0.12,2.52-0.19,5-0.07,7.58c0.06,1.43-0.55,3-0.31,4.21c0.43,2,0,4,0.33,6c0.14,0.88-0.73,2-0.45,2.76   c0.6,1.64,0.12,3.23,0.3,4.83c0.29,2.62-0.34,5.26-0.09,7.83s0.25,4.92,0.24,7.34c0,4.4,0,8.8,0,13.2c0,1.13,0.37,1.46,1.51,1.44   c3.27-0.06,6.54,0,9.81,0.05c2.89,0,5.79,0.2,8.68,0.09s5.49-0.21,8.24-0.09c2.41,0.11,4.85,0.31,7.22,0.21   c3.55-0.15,7.14,0.08,10.66-0.56c0-1.93-0.57-3.92,0.41-5.82c0.07-0.13-0.19-0.47-0.35-0.68c-0.3-0.38-0.21-0.82-0.24-1.25   c-0.16-2.59,0.84-5.15,0.24-7.72c-0.24-1.06,0.29-2,0.17-3c-0.244-2.392-0.365-4.795-0.36-7.2c-0.06-3.62,0.32-7.24,0.07-10.87   c-0.051-0.311-0.051-0.629,0-0.94c0.51-2.1,0-4.27,0.09-6.38c0.07-2.82,0-5.72-0.17-8.57c-0.05-0.8,0.87-1.29,0.6-2   c-1-2.54-0.26-5.19-0.53-7.78c-0.17-1.56,0-3.28,0-4.9c0-3.83,0.07-7.65,0.22-11.47c0-0.54-0.7-1.31,0.42-1.57   c-1.25-1.39-0.42-3-0.62-4.53c-0.14-1.11,0.54-2.08,0.29-2.94c-0.589-1.972-0.662-4.062-0.21-6.07c0.29-1.2-0.23-2.13,0-3.18   c0.05-0.25-0.12-0.65-0.7-0.64c-1.23,0-2.46-0.23-3.69-0.22c-2.5,0-5,0.18-7.51,0.23s-4.81-0.22-7.23-0.16   c-1.42,0.081-2.844,0.057-4.26-0.07c-1.571-0.245-3.167-0.295-4.75-0.15c-3.6,0.5-7.16-0.28-10.74,0.15   c-2.601,0.168-5.213,0.057-7.79-0.33c0.569,0.89,0.763,1.968,0.54,3c-0.295,2.613-0.329,5.25-0.1,7.87c0.24,4.59-0.23,9.16,0,13.75   C53.89,69.296,53.75,72.006,53.86,74.706L53.86,74.706z"></path>
	<path style="fill:#F3BC1B;" d="M72.17,245.896c0.55-0.13,0.84,0.44,1.21,0s-0.14-0.63-0.22-0.93   c-0.195-0.886,0.165-1.802,0.91-2.32c0.71-0.55,1.73-0.75,1.16-2c0-0.09,0.09-0.33,0.2-0.42c1.14-0.93,1.07-2.57,2.14-3.54   s1-2.41,1.85-3.49c0.3-0.38,1.22-0.22,1-1.31c-0.14-0.71-0.39-1.12-0.85-1.1c-1.8,0.06-3.6-0.12-5.39-0.09   c-1.064,0.011-2.113,0.246-3.08,0.69c-0.818,0.39-1.796,0.043-2.186-0.774c-0.063-0.132-0.108-0.272-0.134-0.416   c-0.47,0.34-0.19,1.29-1,1.24s-0.55-0.83-0.87-1.16c-0.78-0.83-0.74-2.07-1.62-2.84s-0.5-2.46-1.32-3.55   c0.108-0.845,0.483-1.633,1.07-2.25c0.877-0.772,1.562-1.737,2-2.82c0.57-1.08,1-2.18,2.19-2.74c0.12-0.05,0.28-0.18,0.29-0.27   c0.139-2.162,1.149-4.176,2.8-5.58c0.31-0.23,0.7-0.72,0.49-0.91c-1.26-1.15,0.07-1.56,0.51-2.3c0.59-1,0.89-2.15,1.47-3.19   c0.27-0.636,0.606-1.242,1-1.81c0.784-0.806,1.295-1.838,1.46-2.95c-0.006-0.495,0.351-0.921,0.84-1   c0.469-0.077,0.786-0.519,0.709-0.988c-0.007-0.041-0.017-0.082-0.029-0.122c-0.4-1.3,0.6-1.48,1.36-1.67   c1.108-0.171,2.183-0.508,3.19-1c0.353-0.263,0.822-0.309,1.22-0.12c2.463,1.426,3.686,4.308,3,7.07   c-0.093,0.197-0.137,0.413-0.13,0.63c0.38,1.89,0.24,3.57-1.73,4.56c-0.098,0.053-0.165,0.15-0.18,0.26   c0.33,2.77-2.06,4.18-3.06,6.27c-1.11,2.33-3,4.2-3.73,6.72c-0.049,0.268-0.178,0.516-0.37,0.71c-1.49,1.06-0.75,1.25,0.48,1.54   c0.55,0.13,1.59-0.77,1.69,0.61c0.87-1.21,2.07-0.29,3.1-0.45c1.784-0.173,3.542-0.549,5.24-1.12   c0.569-0.283,1.259-0.05,1.542,0.518c0.088,0.177,0.129,0.374,0.118,0.572c0,0.28,0.23,0.78,0.57,0.68   c1.81-0.53,0.89,0.67,0.9,1.33c0.021,0.647,0.084,1.292,0.19,1.93c0.215,1.075,0.03,2.192-0.52,3.14c-0.58,1-0.47,2.49-1.3,3.55   c-1.91,2.43-2.55,5.48-4,8.1c-0.67,1.18-1.29,3-2.08,3.38c-1.91,0.87-1.2,2.8-2.31,4s-1.17,2.81-1.34,4.34c-0.1,0.9-0.63,1-1.28,1   c-2.63-0.3-4.38-0.69-5.41-3.73C73.42,248.45,72.832,247.154,72.17,245.896z M91.37,223.096c-0.232,0.205-0.254,0.558-0.05,0.79   c0.015,0.018,0.032,0.034,0.05,0.05C91.66,223.666,91.6,223.366,91.37,223.096z"></path>
	<path style="fill:#163747;" d="M53.86,74.706c-0.11-2.7,0-5.41-0.1-8.09c-0.24-4.59,0.23-9.16,0-13.75   c-0.229-2.62-0.195-5.257,0.1-7.87c0.223-1.032,0.029-2.11-0.54-3c2.577,0.387,5.189,0.498,7.79,0.33   c3.57-0.43,7.13,0.35,10.74-0.15c1.583-0.145,3.179-0.095,4.75,0.15c1.416,0.127,2.84,0.151,4.26,0.07   c2.42-0.07,4.82,0.2,7.23,0.16s5-0.2,7.51-0.23c1.23,0,2.46,0.24,3.69,0.22c0.59,0,0.76,0.39,0.7,0.64c-0.23,1,0.3,2,0,3.18   c-0.452,2.008-0.379,4.098,0.21,6.07c0.25,0.87-0.43,1.83-0.29,2.94c0.19,1.51-0.63,3.14,0.62,4.53c-1.12,0.25-0.4,1-0.42,1.57   c-0.15,3.82-0.26,7.64-0.22,11.47c0,1.62-0.17,3.34,0,4.9c0.28,2.59-0.5,5.24,0.53,7.78c0.27,0.67-0.65,1.16-0.6,2   c0.19,2.85,0.24,5.75,0.17,8.57c-0.05,2.12,0.42,4.28-0.09,6.38c-0.051,0.311-0.051,0.629,0,0.94c0.24,3.62-0.14,7.24-0.07,10.87   c-0.005,2.405,0.116,4.808,0.36,7.2c0.12,1-0.41,1.91-0.17,3c0.6,2.57-0.41,5.13-0.24,7.72c0,0.43-0.07,0.86,0.24,1.25   c0.16,0.2,0.42,0.54,0.35,0.68c-1,1.9-0.36,3.9-0.41,5.82c-3.52,0.64-7.11,0.42-10.66,0.56c-2.36,0.1-4.81-0.1-7.22-0.21   c-2.75-0.13-5.49,0-8.24,0.09s-5.79-0.06-8.68-0.09c-3.27,0-6.54-0.11-9.81-0.05c-1.14,0-1.52-0.31-1.51-1.44c0-4.4,0-8.8,0-13.2   c0-2.42,0-4.88-0.24-7.34s0.38-5.21,0.09-7.83c-0.17-1.59,0.3-3.19-0.3-4.83c-0.28-0.76,0.59-1.88,0.45-2.76c-0.32-2,0.09-4-0.33-6   c-0.24-1.17,0.37-2.78,0.31-4.21c-0.11-2.53,0.2-5.07,0.07-7.58c-0.14-2.77,0.11-5.56-0.35-8.32   C54.13,76.116,53.8,75.366,53.86,74.706z M77.43,98.706L77.43,98.706h-5.54c-3.71,0-7.42-0.08-11.12,0   c-1.983,0.169-3.516,1.81-3.55,3.8c-0.067,4.127,0.03,8.247,0.29,12.36c0,0.6,0.6,1.28,1,1c1-0.64,2-0.07,2.88-0.1   c2.53-0.11,5.09,0.08,7.64,0.15c0.85,0,1.42-0.84,2.09-0.58c3,1.17,6.07,0.49,9.08,0.43c2.39-0.05,4.76,0.08,7.12,0.21   c1.91,0.1,3.72-0.48,5.72-0.12s3.78-1.84,3.74-4.09c0-1.09,0-2.18-0.06-3.27c0-2.12,0.06-4.26-0.13-6.37   c-0.21-2.36-1.57-3.45-3.89-3.45L77.43,98.706z M77.43,118.956H71.6c-3.6,0-7.19,0-10.79,0c-1.38,0-3.58,1.72-3.58,2.74   c0,3.49-0.05,7,0,10.46c0,1,0.72,1.93,0.29,3c-0.17,0.45,0.44,1.09,0.84,1c1.38-0.35,2.73,0,4.09,0c3.42-0.06,6.84-0.17,10.26-0.18   c0.847,0.137,1.702,0.218,2.56,0.24c2.31-0.28,4.65-0.22,7-0.27c3-0.07,6,0.68,9-0.22c0.27-0.039,0.546,0.007,0.79,0.13   c1.75,0.71,4.61-0.72,4.63-2.51c0-3.75,0-7.52-0.23-11.26c-0.12-2-1.62-3.14-3.65-3.14L77.43,118.956z M77.43,78.546L77.43,78.546   H61.29c-2.057-0.185-3.875,1.333-4.06,3.39c-0.016,0.176-0.019,0.353-0.01,0.53c0,2.83,0.06,5.67,0,8.5c0,1.31,1,2.48,0.37,3.88   c-0.14,0.32,0.43,1,0.94,0.87c1.12-0.37,2.22,0.06,3.31-0.09c2.94-0.39,6,0.84,8.85-0.46c0.187-0.088,0.403-0.088,0.59,0   c1.351,0.435,2.775,0.601,4.19,0.49c2.26-0.13,4.53-0.24,6.78-0.24c3,0,6,0.54,8.95-0.11c0.373-0.055,0.755-0.003,1.1,0.15   c1.52,0.61,4.42-0.93,4.43-2.55c0-3.75,0-7.52-0.22-11.26c-0.12-2.07-1.57-3.12-3.65-3.12L77.43,78.546z"></path>
	<path style="fill:#8B505A;" d="M53.86,74.706c-0.06,0.67,0.27,1.41-0.32,2C52.51,75.856,52.92,75.236,53.86,74.706z"></path>
	<path style="fill:#54B8CB;" d="M91.37,223.096c0.23,0.29,0.29,0.56,0,0.84c-0.232-0.205-0.254-0.558-0.05-0.79   C91.336,223.128,91.352,223.112,91.37,223.096z"></path>
	<path style="fill:#E86166;" d="M77.43,98.726h15.21c2.32,0,3.68,1.09,3.89,3.45c0.19,2.11,0.09,4.25,0.13,6.37   c0,1.09,0,2.18,0.06,3.27c0,2.25-1.6,4.47-3.74,4.09s-3.81,0.22-5.72,0.12c-2.36-0.13-4.73-0.26-7.12-0.21   c-3,0.07-6.09,0.74-9.08-0.43c-0.67-0.26-1.24,0.6-2.09,0.58c-2.55-0.07-5.11-0.26-7.64-0.15c-0.91,0-1.89-0.54-2.88,0.1   c-0.36,0.23-0.92-0.44-1-1c-0.247-4.113-0.343-8.233-0.29-12.36c0.034-1.99,1.567-3.631,3.55-3.8c3.71-0.05,7.41,0,11.12,0h5.53   L77.43,98.726z"></path>
	<path style="fill:#E86166;" d="M77.46,118.976h15.36c2,0,3.53,1.11,3.65,3.14c0.22,3.75,0.28,7.51,0.23,11.26   c0,1.79-2.89,3.22-4.63,2.51c-0.244-0.123-0.52-0.169-0.79-0.13c-3,0.9-6,0.15-9,0.22c-2.32,0.05-4.66,0-7,0.27   c-0.858-0.022-1.713-0.103-2.56-0.24c-3.42,0-6.84,0.13-10.26,0.18c-1.36,0-2.71-0.33-4.09,0c-0.4,0.1-1-0.54-0.84-1   c0.42-1.12-0.27-2-0.29-3c-0.08-3.48,0-7,0-10.46c0-1,2.2-2.73,3.58-2.74c3.6,0,7.19,0,10.79,0L77.46,118.976z"></path>
	<path style="fill:#E86166;" d="M77.47,78.566h15.37c2.08,0,3.53,1,3.65,3.12c0.22,3.75,0.25,7.51,0.22,11.26   c0,1.62-2.91,3.16-4.43,2.55c-0.345-0.153-0.727-0.205-1.1-0.15c-3,0.64-6,0.11-8.95,0.11c-2.24,0-4.52,0.1-6.78,0.24   c-1.415,0.111-2.839-0.055-4.19-0.49c-0.187-0.088-0.403-0.088-0.59,0c-2.89,1.31-5.91,0.08-8.85,0.46   c-1.09,0.14-2.19-0.28-3.31,0.09c-0.5,0.17-1.07-0.55-0.94-0.87c0.59-1.39-0.41-2.57-0.37-3.88c0.09-2.83,0-5.67,0-8.5   c-0.108-2.063,1.477-3.822,3.54-3.93c0.177-0.009,0.354-0.006,0.53,0.01h16.2V78.566z"></path>
</g>

            </g>
        </g>
    </g>
    
</svg>