<?xml version="1.0" encoding="utf-8"?>
<!-- Generator: Adobe Illustrator 25.0.1, SVG Export Plug-In . SVG Version: 6.00 Build 0)  -->
<svg version="1.1" id="Layer_1" xmlns="http://www.w3.org/2000/svg" xmlns:xlink="http://www.w3.org/1999/xlink" x="0px" y="0px"
	 viewBox="0 0 186.9 205.5" style="enable-background:new 0 0 186.9 205.5;" xml:space="preserve">
<style type="text/css">
	.st0{fill:#E86166;}
	.st1{fill:#163847;}
	.st2{fill:#FFFFFF;}
	.st3{fill:none;stroke:#FFFFFF;stroke-width:2;}
	.st4{fill-rule:evenodd;clip-rule:evenodd;fill:#FFD798;}
	.st5{fill-rule:evenodd;clip-rule:evenodd;fill:#F8BB61;}
</style>
<g>
	<g id="flamenco-119" transform="translate(2.5 2.5)">
		<g id="Group_17_">
			<g id="Group" transform="translate(0.84910583 73.246765)">
				<path id="Shape" class="st0" d="M101.9,82.7c45,1.5,80.1-48.8,71.8-91.1c-0.7-12.4-7.5-26.2-14.4-37.2c-1-3.8-5.3-2.9-8.1-3.9
					c-2.7-0.4-5.4-1.4-8-2.1c-9-0.2-18.8-6.4-16.9,8.1c1.1,3.7,0.3,6.9-2.3,9.7c-5.1,7.5-13,14.7-20,20.4c-2.3,2.4,2.3,5.5,2.4,8.7
					C110.1,7.9,95.4,14.5,84.9,12c0.2,0-0.8-0.3-0.8-0.3C58.9,1.4,35.8,19.4,44.7,46c-0.1-0.3,0.3,0.9,0.3,0.8
					c2.7,7.9,9.7,15,15.6,19.8c11.2,9.8,26,14.8,40.8,16.6C101.3,83,101.6,82.9,101.9,82.7L101.9,82.7z"/>
			</g>
			<g id="Group_1_" transform="translate(315.65802 78.13864)">
				<path id="Shape_1_" class="st0" d="M-250.5,23.2c-9.7-0.9-21-6-22.6-16.9c0.3-10.2,4.8-20.1,4.1-30.4
					c-0.2-12.7-3.4-26.4-12.5-35.2c-6.8-7.3-18.5-13.8-28.2-11.1c-10.1,3-11.8,20-1.1,23.5c-0.1-0.1,0.9,0.9,0.7,0.8
					c8.1,3.2,17.9,5.7,22.9,13.5c0-0.1,0.7,0.9,0.6,0.8c5.1,13.4-5.8,23.9-1.1,40c9,20.8,33.6,33.3,55.9,31
					C-237.4,33.7-244.6,28.7-250.5,23.2z"/>
			</g>
			<g id="Group_2_" transform="translate(35.613464 45.900665)">
				<path id="Shape_2_" class="st0" d="M63.3-1.2c0.1,21.8,21.3,37.5,42.3,31.7c27.4-7.8,31.8-47.1,6.8-60.3
					C91.4-42.7,63-25.4,63.3-1.2z"/>
			</g>
			<g id="Group_3_" transform="translate(52.793793 0.37280273)">
				<path id="Shape_3_" class="st0" d="M103.8,37.1c3.9-12.4,3.1-25-1.5-37.3C100-10.4,84,11.6,82.4,15.6c-2.6,4.6,1.1,3.7,3,7
					C91.8,26.8,97.6,32.1,103.8,37.1L103.8,37.1z"/>
			</g>
			<g id="Group_4_" transform="translate(199.17899 81.12564)">
				<path id="Shape_4_" class="st0" d="M-90.4-23.8c-8.2-4-15-10.9-20.5-18.3c-2.3-4-5.3-8.9-6.7-13.7c-0.5-2,2.3-1.1,3.4-1.4
					c-0.3,0,1.2-0.5,0.9-0.3c1.5-0.5,3-0.6,4.6-0.3c2.6-0.6,5.9-0.7,8.3,0.3c1.8-0.8,3.1,0.5,4.8,0.2c2.7,1.2,5.7,1.4,8.3,2.9
					c1.2,0.9-0.1,2.1,0.5,3.4C-88.8-42.1-88.8-32.7-90.4-23.8z"/>
			</g>
			<g id="Group_12_" transform="translate(59.000336 87.26672)">
				<g id="Group_6_" transform="translate(20.01767 23.267166)">
					<path id="Shape_6_" class="st1" d="M66.6-75.6c0.9,2.6,5.2,2.4,5-0.7c-0.7-1.6-3.1-3-3.8-0.7C67.3-76.5,66.5-76.7,66.6-75.6z"
						/>
				</g>
				<g id="Group_7_" transform="translate(101.08136 34.157196)">
					<path id="Shape_7_" class="st2" d="M-57.6-75.9c3,14.5,23.8,9.6,21.9-3.7C-39.7-89.6-57.1-86.4-57.6-75.9z"/>
				</g>
				<g id="Group_8_" transform="translate(138.3201 54.48105)">
					<path id="Shape_8_" class="st1" d="M-89-97.6c0,1.3,2.4,1.7,3.2,1.5C-81.6-98-87.8-101.3-89-97.6z"/>
				</g>
				<g id="Group_9_" transform="translate(48.532196 65.780914)">
					<path id="Shape_9_" class="st1" d="M31.1-107c-3.9-1.1-17.1,2.9-13.7,7.7C19.8-100.1,41.8-104,31.1-107z"/>
				</g>
				<g id="Group_10_" transform="translate(64.23819 66.87427)">
					<path id="Shape_10_" class="st1" d="M1.1-93.4c8.6,6.7,16-8.4,10.5-14.5c0.2,0-1.3,0-1.2,0c-5.1,0.3,2.3,10.3-4.2,13.1
						C4.7-93.9-0.9-97.4,1.1-93.4L1.1-93.4z"/>
				</g>
				<g id="Group_11_" transform="translate(38.68741 76.206055)">
					<path id="Shape_11_" class="st1" d="M41-107.5c-1.4-1.1-1.8-5.4-2.7-6.5c-4.9,0.1-3.7,7.3,0.1,8.8c5.1,3.9,12.3-5.5,6.7-3.9
						C45-108.8,43.5-106.1,41-107.5z"/>
				</g>
			</g>
			<g id="Group_13_" transform="translate(0 214.92828)">
				<path id="Shape_12_" class="st0" d="M147.6-46.2c1.1,4.1,6.8,2.5,10,2.6c5.4-2.3,7.6-14.1,9.1-19.3c8-23.8,10.1-48.6,8.7-73
					c0-4.2-0.9-8.5-1-12.7c-0.3-0.7-3.5-0.4-4.6-0.4c-4.2,0.3-8.5-0.5-12.6,0.1c1.1,10.6,1.1,21.4,1.1,32.1c0-0.2-0.4,0.8-0.4,0.7
					c0.3,16.6-2.5,33.6-5.4,49.9c0-0.4-0.6,1.2-0.5,0.9C151.4-59.2,148.1-52.5,147.6-46.2z"/>
			</g>
			<g id="Group_14_" transform="translate(335.62903 327.85938)">
				<path id="Shape_13_" class="st0" d="M-292.4-209.3c0.4,14.4,2.6,28.9,8.2,42.8c1.3,2.2,1.7,4.8,3.4,6.7c0.1,3.5,3.1,4.9,6.1,4.7
					c5.2,0.2,10.1-1.8,6.1-7.4c-0.5-2.6-1.3-5.1-2.4-7.5c0.2-2.3-1.8-4.3-1.2-6.7c-0.1-0.2-0.6-0.4-0.7-0.7
					c-2.4-15.2-4.8-31.2-2-47.3c-0.3-2.3-6.4-0.5-8.6-0.8c-3.1,0.8-7.3-2.1-8,1.4C-291.5-219.3-292.2-214.2-292.4-209.3z"/>
			</g>
			<g id="Group_15_" transform="translate(72.58322 214.67737)">
				<path id="Shape_14_" class="st0" d="M56.1-45.9c2.7,4.7,10.1,3.2,12.9-0.5c3.7-9.8,5.4-19.9,7.4-29.8c2-13.9,3.4-27.8,3.6-42.2
					c0.8-9.3-1.2-19.5-0.6-27.8c0-0.2-0.5-2.4-0.5-2.4c-4.4,0.2-9.2-0.3-13.7,0.2c-4.5-2-2.3,2.2-2.5,5c-0.2,2.5-0.4,5.5,0.5,7.6
					c-0.5,6.1-0.3,13-0.2,18.8c-0.8,13.5-1.2,26.2-2.7,39.6C59.4-67.1,56.2-56.1,56.1-45.9L56.1-45.9z"/>
			</g>
			<g id="Group_16_" transform="translate(281.57886 327.73184)">
				<path id="Shape_15_" class="st0" d="M-216.3-209.2c-0.9,15.1,2.3,31.3,6.6,45.6c2.6,5.1,0.9,8.9,9.3,8.3
					c8.2-1.1,2.7-7.8,2.9-12.9c-1.5-6.8-2.9-13.8-3-20.3c-1.8-12.5-1.2-25.2-0.7-37.2c-3,0.1-6.3,0.9-9.1,0
					c-0.5,0.6-0.8,0.6-1.5,0.1c-1.4,0.8-4.7-1.2-3.8,1C-216.2-219.8-217.3-213.1-216.3-209.2L-216.3-209.2z"/>
			</g>
		</g>
		<g id="Group_18_" transform="translate(57.28601 86)">
			<path id="Ellipse" class="st2" d="M45.1-42c-0.2,14.4,22.4,13.7,22.4-0.2C67.8-55,44.8-54.5,45.1-42z"/>
			<g id="Group-2" transform="translate(16.5 20)">
				<path id="Ellipse_1_" class="st1" d="M33.8-61c-0.1,4.6,7.1,4.6,7,0C41-65.6,33.8-65.6,33.8-61z"/>
				<path id="New-shape-6" class="st3" d="M35.1-60.4c0,0,0.6,1.8,3.2,1.4"/>
			</g>
		</g>
	</g>
	<g id="Group_19_" transform="translate(57.28601 86)">
		<g id="Group-2_2_" transform="translate(16.5 20)">
			<path id="Ellipse_2_" class="st1" d="M35.6-58.9c-0.1,5.2,8,5.3,7.9,0C43.6-64.1,35.6-64.3,35.6-58.9z"/>
			<path id="New-shape-7_2_" class="st3" d="M79.4-65.4"/>
			<path id="New-shape-7_1_" class="st3" d="M75.8-67.1"/>
		</g>
	</g>
</g>
<g>
	<path id="Ellipse-2_3_" class="st2" d="M138.2,43c-7-10.3,12.6-22.2,19.4-13.1C165.7,42.3,146.6,53.7,138.2,43z"/>
</g>
<g>
	<g transform="matrix(1,0,0,1.02563,38.9823,-33.5916)">
		<rect x="-17.1" y="118.2" class="st4" width="165.1" height="114.9"/>
	</g>
	<g transform="matrix(1,0,0,1,36.5953,0)">
		<path class="st5" d="M17.4,205.5h-3.5V87.6h3.5V205.5z M94.7,87.6v61l-10.2-7.3l-10,7.3v-61H94.7z M7.8,87.6v40.9l-8.1-12.3
			l-5.5,5.2V87.6H7.8z"/>
	</g>
</g>
<path id="Ellipse-2_2_" class="st1" d="M146.1,34.9c-0.1,5.3,8,5.4,8,0C154.2,29.6,146.1,29.6,146.1,34.9z"/>
</svg>
