<?xml version="1.0" encoding="utf-8"?>
<!-- Generator: Adobe Illustrator 25.0.1, SVG Export Plug-In . SVG Version: 6.00 Build 0)  -->
<svg version="1.1" id="Layer_1" xmlns="http://www.w3.org/2000/svg" xmlns:xlink="http://www.w3.org/1999/xlink" x="0px" y="0px"
	 viewBox="0 0 604.2 504.1" style="enable-background:new 0 0 604.2 504.1;" xml:space="preserve">
<style type="text/css">
	.st0{fill:#E86166;}
	.st1{fill:#FFFFFF;}
	.st2{fill:#163847;}
	.st3{fill:none;stroke:#FFFFFF;stroke-width:2;}
</style>
<desc>Created with Lunacy</desc>
<g>
	<g id="flamenco-119" transform="translate(2.5 2.5)">
		<g id="Group_17_">
			<g id="Group" transform="translate(0.84910583 73.246765)">
				<path id="Shape" class="st0" d="M206.8,379.8C77.5,384-23.3,239.4,0.5,118C2.6,82.4,22,42.6,41.9,11.1
					C44.7,0.2,57.1,2.8,65.1-0.1C72.9-1.3,80.7-4,88.2-6c26-0.6,54.1-18.3,48.6,23.2c-3.2,10.5-0.8,19.8,6.7,27.9
					c14.6,21.7,37.5,42.2,57.6,58.6c6.5,7-6.7,15.8-6.9,24.9c-11,36,31.2,55,61.4,47.8c-0.6,0.1,2.3-1,2.2-1
					c72.4-29.3,138.8,22.3,113.4,98.7c0.2-1-1,2.5-0.9,2.2c-7.7,22.6-27.9,43.2-44.7,56.9c-32.2,28.3-74.8,42.6-117.2,47.8
					C208.4,380.6,207.6,380.2,206.8,379.8L206.8,379.8z"/>
			</g>
			<g id="Group_1_" transform="translate(315.65802 78.13864)">
				<path id="Shape_1_" class="st0" d="M35.2,211.5c27.5,4.8,62.9-0.6,75.5-29.6c7-28.6,2.1-59.3,12-87.2
					c10.4-35,29.6-70.5,61.6-87.9c24.3-15,61.8-24.2,86.7-9.2c25.6,16.1,17.5,64.5-14.9,66.1c0.3-0.2-3.2,1.8-2.5,1.7
					c-24.8,2.6-53.9,2.1-73.9,19.9c0.2-0.2-2.5,2-2.4,1.8c-24.4,33.2-2.2,70.8-27.6,111.7C108.9,249.6,31.2,265.4-29,242
					C-9,230.5,14.6,222.2,35.2,211.5z"/>
			</g>
			<g id="Group_2_" transform="translate(35.613464 45.900665)">
				<path id="Shape_2_" class="st0" d="M183.1,87.2c-0.4,62.8-61.3,107.7-121.7,91C-17.3,155.8-30.1,42.7,41.9,4.8
					C102.2-32,183.8,17.6,183.1,87.2z"/>
			</g>
			<g id="Group_3_" transform="translate(52.793793 0.37280273)">
				<path id="Shape_3_" class="st0" d="M0.1,112.1C-11,76.5-8.8,40.3,4.3,4.9c6.6-29.5,52.5,33.8,57.2,45.2
					c7.6,13.3-3.2,10.7-8.5,20.2C34.5,82.5,17.8,97.8,0.1,112.1L0.1,112.1z"/>
			</g>
			<g id="Group_4_" transform="translate(199.17899 81.12564)">
				<path id="Shape_4_" class="st0" d="M-8.8,88.4c23.7-11.5,43.1-31.4,59-52.6c6.6-11.4,15.3-25.7,19.4-39.5
					c1.3-5.8-6.6-3.1-9.7-3.9c1,0.1-3.4-1.3-2.6-1c-4.3-1.5-8.6-1.7-13.1-0.9c-7.5-1.6-17-2.1-23.8,1C15.2-10.7,11.6-7.1,6.5-8
					c-7.7,3.4-16.3,3.9-24,8.3c-3.4,2.6,0.3,6-1.3,9.7C-13.6,35.7-13.5,62.9-8.8,88.4z"/>
			</g>
			<g id="Group_12_" transform="translate(59.000336 87.26672)">
				<g id="Group_5_">
					<path id="Shape_5_" class="st1" d="M54.7,21C50.3,42.8,24.5,52.6,5.6,41.5C0.2,34.6-9.5,27-7.3,17.5C-9.6,0.7,9.6-14.3,25.6-10
						c10,3.4,17.7,7.7,24.8,16.1c0.5,3.7,3.5,4.7,2.1,7.9C54.7,15.7,54.9,18.2,54.7,21z"/>
				</g>
				<g id="Group_6_" transform="translate(20.01767 23.267166)">
					<path id="Shape_6_" class="st2" d="M5.3-5.4C2.7,2.2-9.7,1.4-9.2-7.3c1.9-4.5,8.8-8.5,11-2.1C3.2-7.9,5.5-8.6,5.3-5.4z"/>
				</g>
				<g id="Group_7_" transform="translate(101.08136 34.157196)">
					<path id="Shape_7_" class="st1" d="M48.3,14C39.6,55.8-20.1,41.5-14.6,3.4C-3.3-25.3,46.9-16.2,48.3,14z"/>
				</g>
				<g id="Group_8_" transform="translate(138.3201 54.48105)">
					<path id="Shape_8_" class="st2" d="M-5.7-10.2c-0.1,3.6-6.9,4.9-9.3,4.4C-26.9-11.4-9.2-20.7-5.7-10.2z"/>
				</g>
				<g id="Group_9_" transform="translate(48.532196 65.780914)">
					<path id="Shape_9_" class="st2" d="M-3.2-16C8-19.2,45.9-7.7,36.3,6.1C29.3,3.8-33.8-7.3-3.2-16z"/>
				</g>
				<g id="Group_10_" transform="translate(64.23819 66.87427)">
					<path id="Shape_10_" class="st2" d="M22.4,25.2C-2.4,44.5-23.5,1.1-7.9-16.4c-0.5,0,3.8,0,3.4,0c14.6,1-6.6,29.5,12.2,37.7
						C12,23.8,28,13.7,22.4,25.2L22.4,25.2z"/>
				</g>
				<g id="Group_11_" transform="translate(38.68741 76.206055)">
					<path id="Shape_11_" class="st2" d="M6.7,2.1c4.1-3.1,5.2-15.4,7.8-18.8c14,0.4,10.6,21.1-0.2,25.4C-0.5,19.9-21-7.1-5-2.6
						C-4.8-1.6-0.7,6.1,6.7,2.1z"/>
				</g>
			</g>
			<g id="Group_13_" transform="translate(0 214.92828)">
				<path id="Shape_12_" class="st0" d="M78.6,274.7c-3.2,11.8-19.6,7.2-28.8,7.6c-15.5-6.6-21.9-40.4-26.2-55.4
					C0.6,158.5-5.3,87.2-1.4,17.1c0.1-12.2,2.7-24.3,3-36.4c1-2,10-1.1,13.2-1.1c12.2,0.8,24.4-1.4,36.2,0.3
					c-3.3,30.6-3.2,61.5-3.2,92.2c0.1-0.7,1.1,2.3,1.1,2.1c-0.8,47.8,7.1,96.7,15.4,143.4c-0.1-1.1,1.6,3.4,1.3,2.5
					C67.7,237.5,77.2,256.7,78.6,274.7z"/>
			</g>
			<g id="Group_14_" transform="translate(335.62903 327.85938)">
				<path id="Shape_13_" class="st0" d="M43.1,17.7c-1.1,41.4-7.6,83.1-23.7,123c-3.8,6.2-4.9,13.7-9.8,19.4
					C9.2,170.1,0.7,174.3-8,173.6c-15,0.7-29-5.1-17.5-21.4c1.5-7.6,3.8-14.6,7-21.7c-0.7-6.5,5.3-12.4,3.4-19.2
					c0.2-0.7,1.6-1.1,2-2.1C-6.3,65.6,0.7,19.4-7.4-26.8c0.8-6.7,18.5-1.3,24.8-2.4c8.9,2.4,20.9-6.1,23.1,4
					C40.5-11,42.5,3.4,43.1,17.7z"/>
			</g>
			<g id="Group_15_" transform="translate(72.58322 214.67737)">
				<path id="Shape_14_" class="st0" d="M60.5,275c-7.7,13.4-29,9.3-37.2-1.3C12.8,245.5,7.9,216.4,1.9,188
					c-5.7-40-9.8-80-10.3-121.2c-2.4-26.7,3.4-56,1.6-80c0-0.6,1.5-6.8,1.5-6.8c12.7,0.5,26.3-0.8,39.5,0.6
					c12.8-5.7,6.5,6.2,7.2,14.4c0.7,7.3,1.1,15.8-1.4,21.9c1.5,17.4,0.8,37.3,0.6,53.9C43,109.5,44,146,48.4,184.5
					C50.9,214.3,60.1,245.8,60.5,275L60.5,275z"/>
			</g>
			<g id="Group_16_" transform="translate(281.57886 327.73184)">
				<path id="Shape_15_" class="st0" d="M33.6,17.8c2.5,43.4-6.7,89.9-19.1,131c-7.4,14.6-2.7,25.7-26.7,24
					c-23.7-3.3-7.8-22.5-8.4-37.1c4.3-19.5,8.4-39.7,8.7-58.3c5.2-35.9,3.4-72.5,2.1-107c8.6,0.4,18,2.6,26.2,0.1
					c1.4,1.6,2.4,1.6,4.3,0.3c4,2.2,13.4-3.5,11,2.9C33.5-12.8,36.7,6.4,33.6,17.8L33.6,17.8z"/>
			</g>
		</g>
		<g id="Group_18_" transform="translate(57.28601 86)">
			<path id="Ellipse" class="st1" d="M-7.7,20.3C-8.3-21.2,56.6-19,56.6,20.8C57.5,57.6-8.5,56.4-7.7,20.3z"/>
			<path id="Ellipse-2" class="st1" d="M86.6,45.6c0.1-34.5,63.6-30.9,64.8,0.5C150.5,87.3,89,83.3,86.6,45.6z"/>
			<g id="Group-2" transform="translate(16.5 20)">
				<path id="Ellipse_1_" class="st2" d="M-9.1-2.4c-0.2-13.1,20.5-13.1,20.2,0C11.4,10.7-9.3,10.6-9.1-2.4z"/>
				<path id="Ellipse-2_1_" class="st2" d="M101.4,24.2c-0.2-13.1,20.5-13.1,20.2,0C121.8,37.4,101.1,37.3,101.4,24.2z"/>
				<path id="New-shape-6" class="st3" d="M-5.4-4.3c0,0,1.6-5.2,9.2-4.1"/>
				<path id="New-shape-7" class="st3" d="M105,22.4c0,0,1.6-5.2,9.2-4.1"/>
			</g>
		</g>
	</g>
	<g id="Group_19_" transform="translate(57.28601 86)">
		<g id="Group-2_2_" transform="translate(16.5 20)">
			<path id="Ellipse_2_" class="st2" d="M-7.8,0.6C-8-14.4,15.1-14.7,14.9,0.5C15.1,15.5-8,16-7.8,0.6z"/>
			<path id="Ellipse-2_2_" class="st2" d="M101.4,26.6c-0.2-15.1,23.1-15.4,22.9-0.1C124.5,41.6,101.2,41.8,101.4,26.6z"/>
			<path id="New-shape-7_2_" class="st3" d="M118.1,19.2"/>
			<path id="New-shape-7_1_" class="st3" d="M107.7,24.1"/>
		</g>
	</g>
</g>
</svg>
