<?xml version="1.0" encoding="utf-8"?>
<!-- Generator: Adobe Illustrator 25.0.1, SVG Export Plug-In . SVG Version: 6.00 Build 0)  -->
<svg version="1.1" id="Layer_1" xmlns="http://www.w3.org/2000/svg" xmlns:xlink="http://www.w3.org/1999/xlink" x="0px" y="0px"
	 viewBox="0 0 716.9 208.5" style="enable-background:new 0 0 716.9 208.5;" xml:space="preserve">
<style type="text/css">
	.st0{fill-rule:evenodd;clip-rule:evenodd;fill:#B3B3B4;}
	.st1{fill-rule:evenodd;clip-rule:evenodd;fill:#F0F0F0;}
	.st2{fill-rule:evenodd;clip-rule:evenodd;fill:#464647;}
	.st3{fill:none;stroke:#464647;stroke-width:3.8352;stroke-linecap:round;stroke-linejoin:round;stroke-miterlimit:1.4382;}
	.st4{fill-rule:evenodd;clip-rule:evenodd;fill:#FFFFFF;}
</style>
<g>
	<g>
		<g>
			<path class="st0" d="M293.4,63.6c0,0-1.9-0.4-4.4-0.7c-0.9-0.1-2-0.2-2.9-0.2s-2,0.1-2.9,0.3c-2.5,0.3-4.4,0.7-4.4,0.7
				c-0.5,0-0.9,0.4-0.9,0.9s0.4,0.9,0.9,0.9c0,0,1.9,0.4,4.4,0.7c0.9,0.1,2,0.3,2.9,0.3s2-0.1,2.9-0.2c2.5-0.3,4.4-0.7,4.4-0.7
				c0.5,0,0.9-0.4,0.9-0.9C294.2,63.9,293.9,63.6,293.4,63.6L293.4,63.6z"/>
			<path class="st1" d="M289.4,64.1c0,0-0.9-0.2-2-0.3c-0.5-0.1-0.9-0.1-1.3-0.1s-0.9,0.1-1.3,0.1c-1.1,0.1-2,0.3-2,0.3
				c-0.2,0-0.4,0.2-0.4,0.4c0,0.2,0.2,0.4,0.4,0.4c0,0,0.9,0.2,2,0.3c0.5,0.1,0.9,0.1,1.3,0.1c0.5,0,0.9-0.1,1.3-0.1
				c1.1-0.1,2-0.3,2-0.3c0.2,0,0.4-0.2,0.4-0.4C289.8,64.3,289.6,64.1,289.4,64.1L289.4,64.1z"/>
			<path class="st2" d="M308.8,60.5c0,0.7,0.3,1.4,0.9,1.9s1.3,0.7,2,0.5c1.3-0.3,2.8-0.7,3.5-0.9c1.4-0.7,3.8-1.2,5.5-0.4l0,0
				c0.2,0.1,0.4,0.3,0.6,0.4l4.4,2.8c0.2,0.1,0.3,0.3,0.3,0.5c0,0.2-0.2,0.4-0.4,0.5l-2.1,0.5c-0.4,0.1-2.1,0.7-2.5,0.8
				c-3.5,1.3-7.7,3.3-7.7,3.3c-1.3,0.6-2.6,0.9-4,0.9h-5.7c-0.5,0-1-0.1-1.5-0.1l0,0c-0.5-0.1-0.9-0.2-1.3-0.3l-12-2.9
				c-0.3-0.1-0.4-0.3-0.4-0.5l0,0c0-0.2-0.1-0.4-0.3-0.5c-0.4-0.2-1-0.4-1.4-0.6c-0.2-0.1-0.4-0.3-0.4-0.5c0-0.7,0-1.9,0-2.5
				c0-0.3,0.2-0.5,0.4-0.5c0.4-0.2,1-0.4,1.4-0.6c0.2-0.1,0.4-0.3,0.4-0.5l0,0c0-0.3,0.3-0.6,0.6-0.6c0,0,2.3-0.1,4-0.1
				c0.9,0,1.7-0.7,2-1.6c2.1-10.6,10.2-14.7,13.3-16c0.3-0.1,0.5-0.1,0.7,0.2c0.1,0.1,0.2,0.3,0.2,0.4l0,0l0,0c0,0.1,0,0.1,0,0.1
				L308.8,60.5L308.8,60.5z"/>
			<path class="st0" d="M300.2,70.6l3.9-3.9c0.1-0.1,0.3-0.2,0.5-0.2h11.2c0.4,0,0.7,0.3,0.7,0.7v1.5c-0.5,0.2-1,0.5-1.4,0.7V68H305
				l-3.2,3.2c-0.5-0.1-0.8-0.2-1.2-0.3L300.2,70.6L300.2,70.6z M322.6,62.8l2.1,1.4c-0.1,0-0.1,0-0.1,0h-5.1c-0.4,0-0.7-0.3-0.7-0.7
				s0.3-0.7,0.7-0.7H322.6L322.6,62.8z M304.4,45.2l2.4,2.4c0.7-0.5,1.3-0.9,2-1.2V48c-3.2,2-7.6,5.7-9.4,12.7
				c0,0.1-0.1,0.1-0.1,0.2l0,0c-0.1,0.1-0.1,0.1-0.1,0.2c-0.1,0.1-0.2,0.2-0.3,0.2l0,0c-0.1,0.1-0.3,0.1-0.4,0
				c-0.1,0-0.1-0.1-0.2-0.1l0,0c-0.1-0.1-0.1-0.1-0.2-0.1l-3.2-3.2c0.2-0.5,0.3-1,0.5-1.5l2.9,2.9c0.4-1.2,0.8-2.3,1.3-3.4l-2.8-2.8
				c0.3-0.5,0.5-0.8,0.7-1.3l2.7,2.7c0.7-1.1,1.3-2,2-2.9l-2.6-2.6c0.3-0.4,0.7-0.7,0.9-1l2.6,2.6c0.8-0.9,1.7-1.6,2.5-2.3l-2.5-2.5
				C303.6,45.7,304,45.5,304.4,45.2z"/>
			<circle class="st0" cx="297" cy="67" r="1"/>
			<ellipse class="st0" cx="293.4" cy="67" rx="1" ry="1"/>
		</g>
		<g>
			<path class="st2" d="M278.6,60.4c-0.1,0.1-0.3,0.2-0.4,0.2c-0.3-0.1-0.7-0.1-1-0.1c-0.2-0.1-0.3-0.2-0.3-0.4
				c0.1-0.4,0.1-1,0.2-1.5c0-0.1,0.1-0.3,0.2-0.3c0.1-0.1,0.3-0.1,0.4,0c0.4,0.3,1,0.6,1.3,0.7c0.1,0.1,0.2,0.1,0.2,0.3
				c0.1,0.1,0,0.2-0.1,0.3C279,59.8,278.8,60.2,278.6,60.4L278.6,60.4z"/>
			<path class="st2" d="M317.6,74.3c-0.1,0.2-0.2,0.3-0.3,0.3s-0.4,0.1-0.6,0.1s-0.4-0.1-0.4-0.3c-0.1-0.3-0.1-0.6-0.1-0.8
				c0-0.1,0.1-0.3,0.1-0.3c0.1-0.1,0.3-0.1,0.4-0.1c0.3,0.1,0.6,0.2,0.8,0.3c0.1,0.1,0.2,0.1,0.3,0.2c0.1,0.1,0.1,0.2,0.1,0.3
				C317.8,74,317.6,74.2,317.6,74.3z"/>
			<path class="st2" d="M273.1,56.4c-0.2,0-0.3-0.1-0.3-0.3c-0.1-0.2-0.2-0.4-0.2-0.5c-0.1-0.2,0-0.4,0.2-0.5
				c0.3-0.1,0.5-0.3,0.7-0.4c0.1-0.1,0.3-0.1,0.4,0.1c0.1,0.1,0.2,0.2,0.2,0.3c0,0.3,0,0.6,0,0.9c0,0.1-0.1,0.2-0.1,0.3
				c-0.1,0.1-0.2,0.1-0.3,0.1C273.6,56.4,273.4,56.4,273.1,56.4z"/>
			<path class="st2" d="M311.9,78.6c0.1-0.1,0.1-0.1,0.1-0.1c0.1,0,0.1,0,0.2,0.1c0.3,0.3,0.9,0.7,1.3,1.1c0.1,0.1,0.1,0.1,0.1,0.2
				s-0.1,0.1-0.2,0.2c-0.6,0.1-1.5,0.4-2.1,0.6c-0.1,0-0.2,0-0.2-0.1c-0.1-0.1-0.1-0.2-0.1-0.2C311.2,79.7,311.6,79,311.9,78.6
				L311.9,78.6z"/>
			<path class="st2" d="M297.1,76.3c0,0.1-0.1,0.1-0.1,0.2c-0.1,0.1-0.1,0.1-0.2,0.1c-0.3-0.1-0.7-0.3-1.1-0.3
				c-0.1-0.1-0.1-0.1-0.1-0.2s0-0.2,0.1-0.2c0.3-0.3,0.8-0.6,1.1-0.9c0.1-0.1,0.2-0.1,0.2,0c0.1,0.1,0.1,0.1,0.1,0.2
				C297.1,75.5,297.1,76,297.1,76.3z"/>
			<path class="st2" d="M285,49.3c-0.1-0.1-0.1-0.1-0.1-0.2c0-0.1,0.1-0.1,0.1-0.2c0.4-0.2,1-0.7,1.4-0.9c0.1-0.1,0.2-0.1,0.2,0
				c0.1,0.1,0.1,0.1,0.1,0.2c-0.1,0.6-0.1,1.6-0.1,2.1c0,0.1-0.1,0.2-0.1,0.2c-0.1,0.1-0.2,0-0.2-0.1
				C285.9,50.1,285.2,49.6,285,49.3z"/>
		</g>
	</g>
	<path class="st3" d="M80.5,211.8C80.5,145.2,134.6,91,201.3,91l0,0"/>
	<g>
		<path class="st2" d="M145.7,190.9c-0.7,0-1.4,0.3-1.4,1.5s0.7,3,1.4,3s1.4-1.7,1.4-3C147.1,191.2,146.5,190.9,145.7,190.9z"/>
		<path class="st2" d="M141.9,192.4c0.6-0.6,1.2-0.8,2.1,0.1c0.9,0.9,1.7,2.5,1.1,3.1c-0.6,0.6-2.2-0.3-3.1-1.1
			C141.1,193.5,141.2,192.9,141.9,192.4z"/>
		<path class="st2" d="M139.6,204.9c0.6,0.6,1.2,0.8,2.1-0.1c0.9-0.9,1.7-2.5,1.1-3.1c-0.6-0.6-2.2,0.3-3.1,1.1
			C138.8,203.8,139,204.4,139.6,204.9z"/>
		<path class="st2" d="M151,196.2c0,0.7-0.3,1.4-1.5,1.4s-3-0.7-3-1.4s1.7-1.4,3-1.4C150.8,194.8,151,195.4,151,196.2z"/>
		<path class="st2" d="M149,204.6c-0.3-0.5-0.6-0.9-0.9-1.3c-0.3-0.3-0.5-0.5-0.7-0.7c-0.7-0.7-1-1.5-1-2.5c0-1.3,0-2.7,0-2.7
			c0-0.4-0.3-0.7-0.7-0.7c-0.5,0-0.7,0.3-0.7,0.7c0,0,0,1.5,0,2.7c0,1.3,0.5,2.5,1.4,3.4c0.3,0.3,0.5,0.5,0.7,0.7
			c0.7,0.7,1,1.5,1,2.5v2.9c0,0.4,0.3,0.7,0.7,0.7s0.7-0.3,0.7-0.7v-2.1l1.9-3.2c0.1-0.2,0.1-0.5-0.1-0.7c-0.2-0.2-0.5-0.2-0.7-0.1
			L149,204.6L149,204.6z"/>
		<circle class="st2" cx="145.7" cy="196.2" r="1.4"/>
	</g>
	<path class="st2" d="M134.9,210.3v-2.5c0-0.4,0.3-0.7,0.7-0.7c0.5,0,0.7,0.3,0.7,0.7v2.5c0,0.4-0.3,0.7-0.7,0.7
		S134.9,210.7,134.9,210.3z"/>
	<path class="st2" d="M100.6,210.3v-2.5c0-0.4,0.3-0.7,0.7-0.7s0.7,0.3,0.7,0.7v2.5c0,0.4-0.3,0.7-0.7,0.7
		C101,211,100.6,210.7,100.6,210.3z"/>
	<path class="st2" d="M132.1,210.3v-4.9c0-0.4,0.3-0.7,0.7-0.7s0.7,0.3,0.7,0.7v4.9c0,0.4-0.3,0.7-0.7,0.7S132.1,210.7,132.1,210.3z
		"/>
	<g>
		<path class="st2" d="M119.1,183.3c-0.2,0.2-0.5,0.3-0.8,0.1c-0.3-0.1-0.5-0.4-0.5-0.7c0-4.3,0-15.5,0-20.2c0-0.3-0.2-0.6-0.5-0.7
			c-0.3-0.1-0.7,0-0.8,0.3c-0.3,0.4-0.6,0.7-0.8,1.1c-0.2,0.3-0.5,0.3-0.7,0.3c-0.3-0.1-0.5-0.3-0.6-0.5c-0.4-1.3-1-3.1-1.3-4.2
			c-0.1-0.3-0.3-0.5-0.6-0.5c-0.3-0.1-0.6,0.1-0.7,0.3c-0.3,0.6-0.6,1.2-0.6,1.9v9.2c0,0.3-0.2,0.5-0.4,0.7
			c-0.3,0.1-0.5,0.1-0.7-0.1l0,0c-1.1-0.9-2.1-1.6-3-2.2c-0.1-0.1-0.3-0.1-0.4-0.1c-0.4-0.1-1.1-0.1-1.7-0.2
			c-0.3-0.1-0.5,0.1-0.7,0.3s-0.2,0.5-0.2,0.7c0.3,0.9,0.6,2.1,0.7,2.5c0.1,0.1,0.1,0.2,0.1,0.3c0.5,0.7,1.1,1.5,1.7,2.2
			c0.6,0.7,1.1,1.4,1.8,2.1c0.9,1,1.8,2,2.5,2.7c0.1,0.1,0.2,0.3,0.2,0.5c0,3.2,0,31.5,0,31.5c0,0.1,6.6,0.1,6.6,0v-17.9
			c0-0.2,0.1-0.4,0.2-0.5c1.2-1.3,3-3.1,4.8-5c0.9-0.9,1.8-2,2.6-2.9c0.9-1,1.7-2,2.3-2.9c0.1-0.1,0.1-0.2,0.2-0.3s0.1-0.4,0.1-0.6
			c0.1-0.3-0.1-0.7-0.3-0.8s-0.6-0.2-0.8,0.1c-0.4,0.3-0.8,0.6-1.2,0.9c-0.2,0.2-0.5,0.2-0.7,0.1c-0.3-0.1-0.4-0.4-0.3-0.6l0,0
			c0-0.3-0.1-0.5-0.4-0.7c-0.3-0.1-0.5-0.1-0.7,0.1c-0.6,0.5-1.1,0.9-1.7,1.4c-1,0.8-2,1.8-2.9,2.6
			C119.2,183.2,119.1,183.2,119.1,183.3L119.1,183.3z"/>
		<path class="st2" d="M118,191.9l-2.8,2.9c-0.3,0.3-0.3,0.7,0.1,1c0.3,0.3,0.7,0.3,1-0.1l1.7-1.7v-1.7
			C117.8,192.2,117.9,192.1,118,191.9L118,191.9z"/>
		<path class="st0" d="M114.6,205.4v-1.5c0-0.4,0.3-0.7,0.7-0.7s0.7,0.3,0.7,0.7v1.5c0,0.4-0.3,0.7-0.7,0.7S114.6,205.8,114.6,205.4
			z"/>
		<path class="st0" d="M114.6,176.8v-0.5c0-0.4,0.3-0.7,0.7-0.7s0.7,0.3,0.7,0.7v0.5c0,0.4-0.3,0.7-0.7,0.7S114.6,177.2,114.6,176.8
			z"/>
		<path class="st0" d="M112.8,200.6V200c0-0.4,0.3-0.7,0.7-0.7c0.5,0,0.7,0.3,0.7,0.7v0.5c0,0.4-0.3,0.7-0.7,0.7
			S112.8,200.9,112.8,200.6z"/>
	</g>
	<g>
		<path class="st2" d="M166.1,203.2c0,0.1,0.1,0.2,0.1,0.3l1.4,4.8h-5.8l0.6-5.1H166.1L166.1,203.2z"/>
		<path class="st2" d="M183.5,167.9l1.4-0.5c0.4-0.1,0.6-0.5,0.5-0.9s-0.5-0.6-0.9-0.5l-1.4,0.5c-0.4,0.1-0.6,0.5-0.5,0.9
			C182.8,167.8,183.2,168,183.5,167.9z"/>
		<path class="st2" d="M191.8,151.8l1.4-0.5c0.4-0.1,0.6-0.5,0.5-0.9s-0.5-0.6-0.9-0.5l-1.4,0.5c-0.4,0.1-0.6,0.5-0.5,0.9
			C191.1,151.7,191.4,151.9,191.8,151.8z"/>
		<path class="st2" d="M186.1,169.7l0.7-0.2c0.4-0.1,0.6-0.5,0.5-0.9s-0.5-0.6-0.9-0.5l-0.7,0.2c-0.4,0.1-0.6,0.5-0.5,0.9
			C185.2,169.6,185.7,169.8,186.1,169.7z"/>
		<path class="st2" d="M187.6,164.1l0.7-0.2c0.4-0.1,0.6-0.5,0.5-0.9s-0.5-0.6-0.9-0.5l-0.7,0.2c-0.4,0.1-0.6,0.5-0.5,0.9
			C186.8,164,187.2,164.2,187.6,164.1z"/>
		<path class="st2" d="M187.6,150.8l0.7-0.2c0.4-0.1,0.6-0.5,0.5-0.9s-0.5-0.6-0.9-0.5l-0.7,0.2c-0.4,0.1-0.6,0.5-0.5,0.9
			C186.8,150.7,187.2,150.9,187.6,150.8z"/>
		<path class="st2" d="M191.1,172.2l0.8-0.8c0.3-0.3,0.7-0.3,1-0.1c0.3,0.3,0.3,0.7,0.1,1c0,0-7.3,7.8-10.3,11.1
			c-0.7,0.7-0.9,1.8-0.7,2.7c1,4.2,3.4,14.1,3.9,16.2c0.1,0.2,0.1,0.4,0.3,0.6c0.7,1.2,3,5,3,5c0.1,0.2,0.1,0.5,0,0.7
			c-0.1,0.3-0.4,0.4-0.6,0.4h-5.6c-0.3,0-0.6-0.3-0.7-0.6c0,0-4.4-18.5-5.6-24c-0.3-1.1-0.1-2.3,0.6-3.4c1.4-2.3,4.2-6.7,4.2-6.7
			c0.2-0.3,0.7-0.5,0.9-0.3c0.2,0.1,0.3,0.3,0.3,0.4L191.1,172.2L191.1,172.2z"/>
		<path class="st2" d="M174,169.1c0.4-0.4,0.6-0.8,0.6-1.3V161c-0.6,0.5-1.4,0.9-2.5,0.8c-3.4-0.3-3.4-3.5-3.4-3.9
			c0-5,3.7-9.6,8.5-10.4c0,0,20-3.7,23.6-4.4c0.4-0.1,0.8-0.1,1.2-0.1h6.6v1.4c-0.5,0-0.9,0.2-1.3,0.6c-0.5,0.4-0.9,1-1.3,1.8
			c-1.3,2.4-2.1,6.4-2.1,10.8c0,4.4,0.8,8.4,2.1,10.8c0.4,0.7,0.8,1.3,1.3,1.8c0.4,0.4,0.8,0.6,1.3,0.6c0.4,0,0.7,0.3,0.7,0.7
			s-0.3,0.7-0.7,0.7h-14.4c-0.7,0-1.4,0.1-2.1,0.3c-4.6,1.5-21.6,6.9-21.6,6.9c-0.2,0.1-0.4,0.2-0.5,0.3c-0.5,0.3-0.7,0.8-0.8,1.3
			c-0.7,7.2-1.5,14.4-2.2,21.6c-0.1,0.3,0,0.6,0.1,0.9l1.4,4.8c0.1,0.2,0,0.5-0.1,0.6c-0.1,0.2-0.4,0.3-0.6,0.3H162
			c-0.2,0-0.4-0.1-0.5-0.3s-0.2-0.4-0.2-0.6c0,0,2.9-26.1,3.6-32.3c0.1-1.1,0.7-2,1.7-2.5l4-2.2L174,169.1z M171,172.4l-4,2.2
			c-0.5,0.3-0.9,0.8-0.9,1.4l-3.5,31.6h4.1l-1.1-4c-0.1-0.5-0.2-0.9-0.1-1.4c0.7-7.2,1.5-14.4,2.2-21.6c0.1-0.9,0.6-1.8,1.3-2.3
			c0.3-0.2,0.6-0.4,0.9-0.5l0,0c0,0,17.1-5.4,21.6-6.9c0.8-0.3,1.7-0.4,2.5-0.4h11.8c-0.4-0.5-0.8-1-1.1-1.7
			c-1.4-2.6-2.3-6.8-2.3-11.5s0.9-8.9,2.3-11.5c0.4-0.7,0.7-1.2,1.1-1.7h-3.9c-0.3,0-0.7,0.1-0.9,0.1c-3.5,0.7-23.6,4.4-23.6,4.4
			c-4.2,0.8-7.4,4.7-7.4,9.1v0.1c0,0-0.2,2.3,2.1,2.5c1.9,0.1,2.3-1.7,2.4-2v-3.4c0-0.4,0.3-0.7,0.7-0.7s0.7,0.3,0.7,0.7v12.9
			c0,0.1,0,0.1,0,0.2l1.6-0.9c0.3-0.2,0.7-0.1,0.9,0.3c0.2,0.3,0.1,0.7-0.3,0.9l-3.4,2c-0.2,0.1-0.3,0.3-0.5,0.4L171,172.4
			L171,172.4z"/>
	</g>
	<g>
		<path class="st2" d="M205.2,211.2c1.2-1.6,2-4,2-6.8c0-2.7-0.7-5.1-2-6.8c-1.2-1.6-2-4-2-6.8s0.7-5.1,2-6.8c1.2-1.6,2-4,2-6.8
			c0-2.7-0.7-5.1-2-6.8c-1.2-1.6-2-4-2-6.8s0.7-5.1,2-6.8c1.2-1.6,2-4,2-6.8s-0.7-5.1-2-6.8c-1.2-1.6-2-4-2-6.8c0-2.7,0.7-5.1,2-6.8
			c1.2-1.6,2-4,2-6.8s-0.7-5.1-2-6.8c-1.2-1.6-2-4-2-6.8c0-2.7,0.7-5.1,2-6.8c1.2-1.6,2-4,2-6.8c0-4.8-1.5-6.6-6.6-6.6
			s-6.6,1.5-6.6,6.6c0,2.7-0.7,5.1-2,6.8c-1.2,1.6-2,4-2,6.8c0,2.7,0.7,5.1,2,6.8c1.2,1.6,2,4,2,6.8s-0.7,5.1-2,6.8
			c-1.2,1.6-2,4-2,6.8c0,2.7,0.7,5.1,2,6.8c1.2,1.6,2,4,2,6.8s-0.7,5.1-2,6.8c-1.2,1.6-2,4-2,6.8c0,2.7,0.7,5.1,2,6.8
			c1.2,1.6,2,4,2,6.8s-0.7,5.1-2,6.8c-1.2,1.6-2,4-2,6.8c0,2.7,0.7,5.1,2,6.8c1.2,1.6,2,4,2,6.8c0,2.7-0.7,5.1-2,6.8H205.2
			L205.2,211.2z"/>
		<path class="st4" d="M204.9,143.5c0.1,0.1,0.1,0.2,0.2,0.3c0.3,0.3,0.5,0.7,0.7,1.1h-0.7c-1.3,0-2.4,1.1-3.4,2.8
			c-1.4,2.6-2.3,6.9-2.3,11.6s0.9,9,2.3,11.6c0.9,1.8,2.1,2.8,3.4,2.8h1.5c0.1,0.5,0.3,0.9,0.3,1.4h-1.8c-1.7,0-3.4-1.2-4.6-3.5
			c-1.5-2.8-2.5-7.3-2.5-12.3s1-9.6,2.5-12.3C201.8,144.7,203.4,143.5,204.9,143.5L204.9,143.5z"/>
		<path class="st4" d="M199,173.6c-1.5-2.5-2.6-6.4-3-10.8c-0.1-0.4-0.4-0.7-0.7-0.7c-0.4,0.1-0.7,0.4-0.7,0.7
			c0.4,4.7,1.6,8.7,3.2,11.4c0.2,0.3,0.7,0.5,0.9,0.3C199.1,174.4,199.2,173.9,199,173.6L199,173.6z"/>
		<path class="st4" d="M195.9,159.3c0-1,0.1-2,0.1-2.8c0.1-0.4-0.3-0.7-0.7-0.7c-0.4-0.1-0.7,0.3-0.7,0.7c-0.1,0.9-0.1,2-0.1,2.9
			c0,0.4,0.3,0.7,0.7,0.7C195.5,160.1,195.9,159.7,195.9,159.3L195.9,159.3z"/>
		<path class="st4" d="M198.1,147c0.3-0.7,0.6-1.3,0.9-1.9c0.7-1.1,1.5-2.1,2.3-2.6c0.3-0.3,0.4-0.7,0.2-1s-0.7-0.4-1-0.2
			c-1,0.7-1.9,1.7-2.7,3.1c-0.4,0.6-0.7,1.3-1,2c-0.2,0.4,0,0.7,0.4,0.9C197.5,147.5,198,147.3,198.1,147L198.1,147z"/>
		<path class="st4" d="M201.4,177.9c0,0,1.6,1,3.5,0.6c0.4-0.1,0.7-0.5,0.6-0.8c-0.1-0.4-0.5-0.7-0.8-0.6c-1.4,0.3-2.5-0.4-2.5-0.4
			c-0.3-0.2-0.7-0.1-0.9,0.3C200.9,177.3,201.1,177.7,201.4,177.9L201.4,177.9z"/>
		<path class="st4" d="M197.4,93.4v-0.5c0-0.4,0.3-0.7,0.7-0.7s0.7,0.3,0.7,0.7v0.5h0.5c0.4,0,0.7,0.3,0.7,0.7
			c0,0.4-0.3,0.7-0.7,0.7h-0.5v0.5c0,0.4-0.3,0.7-0.7,0.7s-0.7-0.3-0.7-0.7v-0.5h-0.5c-0.4,0-0.7-0.3-0.7-0.7s0.3-0.7,0.7-0.7H197.4
			L197.4,93.4z"/>
		<path class="st4" d="M198.5,122.4v-0.5c0-0.4,0.3-0.7,0.7-0.7c0.4,0,0.7,0.3,0.7,0.7v0.5h0.5c0.4,0,0.7,0.3,0.7,0.7
			s-0.3,0.7-0.7,0.7H200v0.5c0,0.4-0.3,0.7-0.7,0.7c-0.4,0-0.7-0.3-0.7-0.7v-0.5H198c-0.4,0-0.7-0.3-0.7-0.7c0-0.4,0.3-0.7,0.7-0.7
			H198.5L198.5,122.4z"/>
		<path class="st4" d="M194,137.7v-0.5c0-0.4,0.3-0.7,0.7-0.7c0.4,0,0.7,0.3,0.7,0.7v0.5h0.5c0.4,0,0.7,0.3,0.7,0.7
			s-0.3,0.7-0.7,0.7h-0.5v0.5c0,0.4-0.3,0.7-0.7,0.7c-0.4,0-0.7-0.3-0.7-0.7v-0.5h-0.5c-0.4,0-0.7-0.3-0.7-0.7s0.3-0.7,0.7-0.7H194
			L194,137.7z"/>
		<path class="st4" d="M194.4,187.5V187c0-0.4,0.3-0.7,0.7-0.7c0.4,0,0.7,0.3,0.7,0.7v0.5h0.5c0.4,0,0.7,0.3,0.7,0.7
			s-0.3,0.7-0.7,0.7h-0.5v0.5c0,0.4-0.3,0.7-0.7,0.7c-0.4,0-0.7-0.3-0.7-0.7v-0.5h-0.5c-0.4,0-0.7-0.3-0.7-0.7s0.3-0.7,0.7-0.7
			H194.4z"/>
		<path class="st4" d="M202.1,207.3v-0.5c0-0.4,0.3-0.7,0.7-0.7s0.7,0.3,0.7,0.7v0.5h0.5c0.4,0,0.7,0.3,0.7,0.7s-0.3,0.7-0.7,0.7
			h-0.5v0.5c0,0.4-0.3,0.7-0.7,0.7s-0.7-0.3-0.7-0.7v-0.5h-0.5c-0.4,0-0.7-0.3-0.7-0.7s0.3-0.7,0.7-0.7H202.1z"/>
		<path class="st4" d="M199.4,98.2L199.4,98.2c0-0.5,0.3-0.8,0.7-0.8c0.4,0,0.7,0.3,0.7,0.7v0.1h0.1c0.4,0,0.7,0.3,0.7,0.7
			s-0.3,0.7-0.7,0.7h-0.1v0.1c0,0.4-0.3,0.7-0.7,0.7s-0.7-0.3-0.7-0.7v-0.1h-0.1c-0.4,0-0.7-0.3-0.7-0.7c0-0.4,0.3-0.7,0.7-0.7
			H199.4z"/>
		<path class="st4" d="M194.6,114.8L194.6,114.8c0-0.5,0.3-0.8,0.7-0.8c0.4,0,0.7,0.3,0.7,0.7v0.1h0.1c0.4,0,0.7,0.3,0.7,0.7
			s-0.3,0.7-0.7,0.7h-0.1v0.1c0,0.4-0.3,0.7-0.7,0.7c-0.4,0-0.7-0.3-0.7-0.7v-0.1h-0.1c-0.4,0-0.7-0.3-0.7-0.7
			c0-0.4,0.3-0.7,0.7-0.7C194.5,114.8,194.6,114.8,194.6,114.8z"/>
		<path class="st4" d="M200.8,129.5L200.8,129.5c0-0.5,0.3-0.8,0.7-0.8s0.7,0.3,0.7,0.7v0.1h0.1c0.4,0,0.7,0.3,0.7,0.7
			c0,0.4-0.3,0.7-0.7,0.7h-0.1v0.1c0,0.4-0.3,0.7-0.7,0.7s-0.7-0.3-0.7-0.7v-0.2h-0.1c-0.4,0-0.7-0.3-0.7-0.7
			C200,129.7,200.4,129.5,200.8,129.5L200.8,129.5z"/>
		<path class="st4" d="M200.4,182.2v-0.1c0-0.4,0.3-0.7,0.7-0.7s0.7,0.3,0.7,0.7v0.1h0.1c0.4,0,0.7,0.3,0.7,0.7s-0.3,0.7-0.7,0.7
			h-0.1v0.1c0,0.4-0.3,0.7-0.7,0.7s-0.7-0.3-0.7-0.7v-0.1h-0.1c-0.4,0-0.7-0.3-0.7-0.7s0.3-0.7,0.7-0.7H200.4z"/>
		<path class="st4" d="M198,200.8v-0.1c0-0.4,0.3-0.7,0.7-0.7s0.7,0.3,0.7,0.7v0.1h0.1c0.4,0,0.7,0.3,0.7,0.7s-0.3,0.7-0.7,0.7h-0.1
			v0.1c0,0.4-0.3,0.7-0.7,0.7s-0.7-0.3-0.7-0.7v-0.1h-0.1c-0.4,0-0.7-0.3-0.7-0.7s0.3-0.7,0.7-0.7H198z"/>
		<path class="st4" d="M198,110.1L198,110.1c0-0.5,0.3-0.8,0.7-0.8c0.4,0,0.7,0.3,0.7,0.7v0.1h0.1c0.4,0,0.7,0.3,0.7,0.7
			s-0.3,0.7-0.7,0.7h-0.1v0.1c0,0.4-0.3,0.7-0.7,0.7c-0.4,0-0.7-0.3-0.7-0.7v-0.1h-0.1c-0.4,0-0.7-0.3-0.7-0.7
			c0-0.4,0.3-0.7,0.7-0.7H198z"/>
	</g>
	<g>
		<path class="st2" d="M247.1,154.8v1.2c0,1.6-1.3,2.9-2.9,2.9c-0.9,0-1.7,0.7-1.8,1.6v0.3c-0.1,1.7-1.5,3-3.3,3h-1.5
			c-0.7,1.3-1.2,2.1-1.3,2.3c-0.3,0.7-0.7,1.1-1.3,1.4l-2.1,1l-5.9,2.9c-0.2,0.1-0.3,0.2-0.4,0.4l-0.9,2.5l0,0l-0.4,1.1l0,0
			l-1.7,4.7c-0.1,0.1-0.1,0.2-0.1,0.2l-1.6,4.5c-0.1,0.3-0.2,0.6-0.2,0.9c0,0,0.1,4.8,0.1,7.4c0,0.3-0.2,0.5-0.4,0.6
			c-0.3,0.1-0.5,0.1-0.7-0.1c-0.5-0.5-0.9-0.9-0.9-0.9c-0.3-0.3-0.7-0.3-1,0s-0.3,0.7,0,1c0,0,2.2,2.2,2.9,2.9
			c0.1,0.1,0.2,0.3,0.2,0.5s0,0.5,0,0.8s-0.2,0.5-0.4,0.6c-0.3,0.1-0.5,0.1-0.7-0.2c-0.5-0.5-1-1-1-1c-0.3-0.3-0.7-0.3-1,0
			s-0.3,0.7,0,1c0,0,2.3,2.3,2.9,2.9c0.1,0.1,0.2,0.3,0.2,0.5s0,0.5,0,0.5c0,0.3,0.1,0.6,0.2,0.8l1.8,5.1c0.1,0.2,0.1,0.5-0.1,0.7
			s-0.4,0.3-0.6,0.3h-5.8c-0.4,0-4.1-2.6-4.1-3c0,0-0.1,0.6-0.1-2.2l0,0v-17.3c-0.5-0.3-0.7-0.7-0.7-1.2v-13.3h-3.1
			c-1.4,0-2.7-1.1-3.8-3c-1.4-2.6-2.3-6.8-2.3-11.5s0.9-8.9,2.3-11.5c1.1-2,2.4-3,3.8-3h11.9c1.3,0,2.5-0.5,3.4-1.3
			c2.1-1.9,5.7-4.9,7.4-6.4c0.6-0.5,1-1,1.3-1.7l2.3-4.7c0.1-0.1,0.1-0.1,0.1-0.2l1.2-2.5c-0.4-0.1-0.3-0.1,0.1-0.3
			c-3.2-0.1-5.6-0.2-5.6-0.2c-0.7,0-1.2-0.3-1.6-0.7l-7.5-8.6c-0.3-0.3-0.5-0.8-0.5-1.2l0.6-11.7c0-0.7,0.6-1.2,1.2-1.2
			c0.7,0,1.2,0.6,1.2,1.2l0.6,11c0,0,5.5,5.4,6.7,6.6c0.2,0.2,0.4,0.3,0.6,0.3l0,0c0.6,0,1-0.4,1.3-0.8c0.3-0.5,0.2-1.1-0.2-1.5
			c-1-1.2-2-2.4-2-2.4c-0.3-0.3-0.5-0.7-0.5-1.1l0.5-6.4c0-0.6,0.5-1,1-1c0.6,0,1,0.5,1,1l0.5,5.7l3.4,3.3c1.1-0.1,3.5-0.2,5.9-0.2
			s4.8,0.1,5.9,0.2l3.4-3.3l0.5-5.7c0-0.6,0.5-1,1-1s1,0.5,1,1l0.5,6.4c0,0.4-0.2,0.7-0.4,1c0,0-1,1.2-2,2.3c-0.4,0.5-0.5,1-0.2,1.5
			s0.7,0.9,1.3,0.9l0,0c0.2,0,0.5-0.1,0.6-0.3c1.2-1.2,6.6-6.6,6.6-6.6l0.5-11c0-0.7,0.6-1.2,1.2-1.2s1.2,0.6,1.2,1.2l0.6,11.7
			c0,0.5-0.2,0.9-0.5,1.2l-7.4,8.6c-0.4,0.5-1,0.7-1.6,0.7c0,0-2,0.1-4.8,0.2l9.9,6.6c0.5,0.3,0.7,0.7,0.8,1.2v0.1v0.1l0,0
			c0,0.1,0,0.1,0,0.2l-1.1,4.7c-0.2,0.7-0.8,1.3-1.6,1.3c-2.1,0.2-5.6,0.5-7.3,0.7c-0.1,0-0.2,0-0.3,0.1c-0.3,0.1-0.6,0.2-0.8,0.4
			c-0.1,0.1-0.4,0.5-0.7,1.1v8C250.2,152.4,249,154.1,247.1,154.8L247.1,154.8z M232.4,196.1c0.6-2.7,2.5-11.5,3.3-14.9
			c0.1-0.6-0.1-1.2-0.7-1.5l-7.9-4.6l0.9-2.5l5.9-2.9l6.6,5.3c0.8,0.7,1.2,1.7,0.9,2.8c0,0-1.9,7.7-2.7,11.1
			c-0.1,0.3-0.3,0.5-0.5,0.5c-0.3,0.1-0.5-0.1-0.7-0.3c-0.4-0.7-0.7-1.3-0.7-1.3c-0.2-0.3-0.7-0.5-0.9-0.3c-0.3,0.2-0.5,0.7-0.3,0.9
			c0,0,1.7,2.8,2.1,3.6c0.1,0.2,0.1,0.3,0.1,0.5c-0.1,0.2-0.1,0.5-0.2,0.7s-0.3,0.5-0.5,0.5c-0.3,0.1-0.5-0.1-0.7-0.3
			c-0.4-0.7-0.8-1.3-0.8-1.3c-0.2-0.3-0.7-0.5-0.9-0.3c-0.3,0.2-0.5,0.7-0.3,0.9c0,0,1.7,2.9,2.2,3.7c0.1,0.2,0.1,0.3,0.1,0.5
			s-0.1,0.4-0.1,0.5s0,0.1,0,0.1c0,0.1,0,0.1,0,0.2v5.5c0,0.3-0.1,0.5-0.3,0.6s-0.5,0.2-0.7,0.1l-4.8-1.7c-0.4-0.1-3.2-3.3-3.1-3.6
			c0,0,0,0,0.9-2.6c0,0,0,0,0.1-0.1l0.9-12.2c-0.1-0.1-0.2-0.1-0.3-0.2l-3.8-4l1.1-2.9l4.8,5c0.5,0.6,0.5,1.5-0.1,2
			c-0.1,0.1-0.3,0.2-0.4,0.3l-0.9,12.5c0.7,0.2,1.5,0.4,1.9,0.4c0.1-0.1,0.1-0.1,0.2-0.1C232.2,196.4,232.2,196.2,232.4,196.1
			L232.4,196.1L232.4,196.1z M215.6,169v16.2c0,0.5-0.3,1-0.7,1.2v17.1c0.9-0.1,2.1-0.2,2.1-0.3v-34.3c0-0.4-0.3-0.7-0.7-0.7
			C216,168.3,215.6,168.6,215.6,169L215.6,169z M245.9,155c-0.1,0-0.1,0-0.2,0h-2.9c-1.6,2.7-3.1,5.3-4.3,7.4h0.7
			c0.9,0,1.8-0.7,1.9-1.6v-0.4c0.1-1.7,1.5-3,3.2-3c0.8,0,1.5-0.7,1.5-1.5L245.9,155L245.9,155z M245.9,153.6v-3.7
			c-0.7,1.2-1.5,2.5-2.2,3.7h2.1C245.6,153.6,245.8,153.6,245.9,153.6L245.9,153.6z M248.9,144.8c-0.5,0.8-1.1,1.8-1.7,2.8v5.7
			c1-0.6,1.7-1.6,1.7-2.8V144.8z"/>
		<g>
			<path class="st0" d="M225.8,112.8h-3.4l0.1-1.4h3.2L225.8,112.8L225.8,112.8z M225.6,109.6h-3l0.1-1.4h2.9V109.6L225.6,109.6z"/>
			<path class="st0" d="M265.6,112.8h-3.3l0.1-1.4h3.2L265.6,112.8L265.6,112.8z M265.5,109.6h-3l0.1-1.4h2.8L265.5,109.6
				L265.5,109.6z"/>
			<path class="st0" d="M258.1,136.7c0,0,0.1,0.1,0.4,0.3c0.1,0.1,0.2,0.1,0.3,0.1c0.2,0,0.2-0.1,0.3-0.1c0.3-0.1,0.4-0.3,0.4-0.3
				c0.2,0,0.4-0.2,0.4-0.4c0-0.2-0.2-0.4-0.4-0.4c0,0-0.1-0.1-0.4-0.3c-0.1-0.1-0.2-0.1-0.3-0.1c-0.2,0-0.2,0.1-0.3,0.1
				c-0.3,0.2-0.4,0.3-0.4,0.3c-0.2,0-0.4,0.2-0.4,0.4C257.8,136.5,258,136.7,258.1,136.7z"/>
			<path class="st0" d="M255.1,136.7c0,0,0.1,0.1,0.4,0.3c0.1,0.1,0.2,0.1,0.3,0.1c0.2,0,0.2-0.1,0.3-0.1c0.3-0.1,0.4-0.3,0.4-0.3
				c0.2,0,0.4-0.2,0.4-0.4c0-0.2-0.2-0.4-0.4-0.4c0,0-0.1-0.1-0.4-0.3c-0.1-0.1-0.2-0.1-0.3-0.1c-0.2,0-0.2,0.1-0.3,0.1
				c-0.3,0.2-0.4,0.3-0.4,0.3c-0.2,0-0.4,0.2-0.4,0.4C254.8,136.5,255,136.7,255.1,136.7z"/>
			<path class="st0" d="M252.2,136.7c0,0,0.1,0.1,0.4,0.3c0.1,0.1,0.2,0.1,0.3,0.1s0.2-0.1,0.3-0.1c0.3-0.1,0.4-0.3,0.4-0.3
				c0.2,0,0.4-0.2,0.4-0.4c0-0.2-0.2-0.4-0.4-0.4c0,0-0.1-0.1-0.4-0.3c-0.1-0.1-0.2-0.1-0.3-0.1s-0.2,0.1-0.3,0.1
				c-0.3,0.2-0.4,0.3-0.4,0.3c-0.2,0-0.4,0.2-0.4,0.4C252,136.5,252.1,136.7,252.2,136.7z"/>
			<path class="st0" d="M256.6,134.8c0,0,0.1,0.1,0.4,0.3c0.1,0.1,0.2,0.1,0.3,0.1c0.2,0,0.2-0.1,0.3-0.1c0.3-0.1,0.4-0.3,0.4-0.3
				c0.2,0,0.4-0.2,0.4-0.4c0-0.2-0.2-0.4-0.4-0.4c0,0-0.1-0.1-0.4-0.3c-0.1-0.1-0.2-0.1-0.3-0.1c-0.2,0-0.2,0.1-0.3,0.1
				c-0.3,0.2-0.4,0.3-0.4,0.3c-0.2,0-0.4,0.2-0.4,0.4C256.4,134.7,256.5,134.8,256.6,134.8z"/>
			<path class="st0" d="M253.8,134.8c0,0,0.1,0.1,0.4,0.3c0.1,0.1,0.2,0.1,0.3,0.1s0.2-0.1,0.3-0.1c0.3-0.1,0.4-0.3,0.4-0.3
				c0.2,0,0.4-0.2,0.4-0.4c0-0.2-0.2-0.4-0.4-0.4c0,0-0.1-0.1-0.4-0.3c-0.1-0.1-0.2-0.1-0.3-0.1s-0.2,0.1-0.3,0.1
				c-0.3,0.2-0.4,0.3-0.4,0.3c-0.2,0-0.4,0.2-0.4,0.4C253.4,134.7,253.6,134.8,253.8,134.8z"/>
			<path class="st0" d="M256.6,138.5c0,0,0.1,0.1,0.4,0.3c0.1,0.1,0.2,0.1,0.3,0.1c0.2,0,0.2-0.1,0.3-0.1c0.3-0.1,0.4-0.3,0.4-0.3
				c0.2,0,0.4-0.2,0.4-0.4s-0.2-0.4-0.4-0.4c0,0-0.1-0.1-0.4-0.3c-0.1-0.1-0.2-0.1-0.3-0.1c-0.2,0-0.2,0.1-0.3,0.1
				c-0.3,0.2-0.4,0.3-0.4,0.3c-0.2,0-0.4,0.2-0.4,0.4C256.4,138.4,256.5,138.5,256.6,138.5z"/>
			<path class="st0" d="M253.8,138.5c0,0,0.1,0.1,0.4,0.3c0.1,0.1,0.2,0.1,0.3,0.1s0.2-0.1,0.3-0.1c0.3-0.1,0.4-0.3,0.4-0.3
				c0.2,0,0.4-0.2,0.4-0.4s-0.2-0.4-0.4-0.4c0,0-0.1-0.1-0.4-0.3c-0.1-0.1-0.2-0.1-0.3-0.1s-0.2,0.1-0.3,0.1
				c-0.3,0.2-0.4,0.3-0.4,0.3c-0.2,0-0.4,0.2-0.4,0.4C253.4,138.4,253.6,138.5,253.8,138.5z"/>
			<circle class="st0" cx="252.2" cy="123.4" r="1"/>
			<circle class="st0" cx="249.8" cy="120.9" r="1"/>
			<circle class="st0" cx="214.8" cy="150.8" r="1.3"/>
			<circle class="st0" cx="209.9" cy="150.8" r="1.3"/>
			<path class="st0" d="M225.4,141.4l9.4,9.4c0.3,0.3,0.3,0.7,0,1l-2.9,2.9c-0.3,0.3-0.7,0.3-1,0l-2.4-2.4l-2.3,2.3
				c-0.1,0.1-0.3,0.2-0.5,0.2h-12.9l9.1,9.1h10.4c0-0.1,0-0.1,0-0.1c0-3.1,2.5-5.6,5.6-5.6c1,0,2,0.3,2.7,0.7
				c-0.3,0.4-0.5,0.8-0.7,1.2c-0.6-0.3-1.3-0.5-2.1-0.5c-2.3,0-4.2,2-4.2,4.2c0,1.5,0.8,2.8,2,3.5c-0.2,0.1-0.3,0.2-0.5,0.3
				l-0.9,0.5c-0.9-0.7-1.5-1.7-1.8-2.8h-10.8c-0.2,0-0.4-0.1-0.5-0.2l-10.2-10.3H204c-0.1,0-0.1,0-0.1,0c0.1-0.5,0.1-0.9,0.1-1.4
				h21.4l4.9-4.9l-6.1-6.1c0.3-0.2,0.6-0.4,0.8-0.6L225.4,141.4L225.4,141.4z M231.4,149.4l-2,2l2,2l2-2L231.4,149.4z M239.5,142.8
				l1.2-1.2c0.3-0.3,0.3-0.7,0-1s-0.7-0.3-1,0l-1.2,1.2c-0.3,0.3-0.3,0.7,0,1S239.1,143.1,239.5,142.8z M233.5,142.8l1.2-1.2
				c0.3-0.3,0.3-0.7,0-1s-0.7-0.3-1,0l-1.2,1.2c-0.3,0.3-0.3,0.7,0,1S233.1,143.1,233.5,142.8z M236.5,142.8l1.2-1.2
				c0.3-0.3,0.3-0.7,0-1s-0.7-0.3-1,0l-1.2,1.2c-0.3,0.3-0.3,0.7,0,1S236.1,143.1,236.5,142.8z M254.1,126c-0.7,0.1-1.7,0.1-2.7,0.1
				l2,1.3h-8.3c-0.5,0-0.7,0.4-0.7,0.7v1.1c0,0.5,0.4,0.7,0.7,0.7h12.2l2.1,1.4h-14.3c-0.4,0-0.7-0.1-0.9-0.3l0,0l-6.5,6.5
				c-0.1,0.1-0.3,0.2-0.5,0.2h-7.6l1.6-1.4h5.7l6.3-6.3l0,0c-0.2-0.3-0.3-0.6-0.3-0.9V128c0-1.2,1-2.1,2.1-2.1L254.1,126L254.1,126z
				 M236.6,126.1h2.1c0.4,0,0.7,0.3,0.7,0.7c0,0.4-0.3,0.7-0.7,0.7h-2.1l0.6-1.1c-0.4-0.1-0.3-0.1,0.1-0.3
				C237.1,126.1,236.9,126.1,236.6,126.1L236.6,126.1z M242.2,118.1l-2,2h3.4l2-2c0.7,0,1.3,0.1,2,0.1l-3.1,3.1
				c-0.1,0.1-0.3,0.2-0.5,0.2h-5.1l-4.6,4.6c-0.8-0.1-1.5-0.1-2-0.1l5.6-5.6c0.1-0.1,0.1-0.1,0.2-0.2l2.1-2.1
				C240.9,118.1,241.6,118.1,242.2,118.1L242.2,118.1z"/>
			<g>
				<g>
					<path class="st0" d="M217.1,173.9V169c0-0.4-0.3-0.7-0.7-0.7c-0.4,0-0.7,0.3-0.7,0.7v4.9c0,0.4,0.3,0.7,0.7,0.7
						C216.8,174.6,217.1,174.3,217.1,173.9z"/>
					<path class="st0" d="M258.1,136.7c0,0,0.1,0.1,0.4,0.3c0.1,0.1,0.2,0.1,0.3,0.1c0.2,0,0.2-0.1,0.3-0.1c0.3-0.1,0.4-0.3,0.4-0.3
						c0.2,0,0.4-0.2,0.4-0.4c0-0.2-0.2-0.4-0.4-0.4c0,0-0.1-0.1-0.4-0.3c-0.1-0.1-0.2-0.1-0.3-0.1c-0.2,0-0.2,0.1-0.3,0.1
						c-0.3,0.2-0.4,0.3-0.4,0.3c-0.2,0-0.4,0.2-0.4,0.4C257.8,136.5,258,136.7,258.1,136.7z"/>
					<path class="st0" d="M255.1,136.7c0,0,0.1,0.1,0.4,0.3c0.1,0.1,0.2,0.1,0.3,0.1c0.2,0,0.2-0.1,0.3-0.1c0.3-0.1,0.4-0.3,0.4-0.3
						c0.2,0,0.4-0.2,0.4-0.4c0-0.2-0.2-0.4-0.4-0.4c0,0-0.1-0.1-0.4-0.3c-0.1-0.1-0.2-0.1-0.3-0.1c-0.2,0-0.2,0.1-0.3,0.1
						c-0.3,0.2-0.4,0.3-0.4,0.3c-0.2,0-0.4,0.2-0.4,0.4C254.8,136.5,255,136.7,255.1,136.7z"/>
					<path class="st0" d="M252.2,136.7c0,0,0.1,0.1,0.4,0.3c0.1,0.1,0.2,0.1,0.3,0.1s0.2-0.1,0.3-0.1c0.3-0.1,0.4-0.3,0.4-0.3
						c0.2,0,0.4-0.2,0.4-0.4c0-0.2-0.2-0.4-0.4-0.4c0,0-0.1-0.1-0.4-0.3c-0.1-0.1-0.2-0.1-0.3-0.1s-0.2,0.1-0.3,0.1
						c-0.3,0.2-0.4,0.3-0.4,0.3c-0.2,0-0.4,0.2-0.4,0.4C252,136.5,252.1,136.7,252.2,136.7z"/>
					<path class="st0" d="M256.6,134.8c0,0,0.1,0.1,0.4,0.3c0.1,0.1,0.2,0.1,0.3,0.1c0.2,0,0.2-0.1,0.3-0.1c0.3-0.1,0.4-0.3,0.4-0.3
						c0.2,0,0.4-0.2,0.4-0.4c0-0.2-0.2-0.4-0.4-0.4c0,0-0.1-0.1-0.4-0.3c-0.1-0.1-0.2-0.1-0.3-0.1c-0.2,0-0.2,0.1-0.3,0.1
						c-0.3,0.2-0.4,0.3-0.4,0.3c-0.2,0-0.4,0.2-0.4,0.4C256.4,134.7,256.5,134.8,256.6,134.8z"/>
					<path class="st0" d="M253.8,134.8c0,0,0.1,0.1,0.4,0.3c0.1,0.1,0.2,0.1,0.3,0.1s0.2-0.1,0.3-0.1c0.3-0.1,0.4-0.3,0.4-0.3
						c0.2,0,0.4-0.2,0.4-0.4c0-0.2-0.2-0.4-0.4-0.4c0,0-0.1-0.1-0.4-0.3c-0.1-0.1-0.2-0.1-0.3-0.1s-0.2,0.1-0.3,0.1
						c-0.3,0.2-0.4,0.3-0.4,0.3c-0.2,0-0.4,0.2-0.4,0.4C253.4,134.7,253.6,134.8,253.8,134.8z"/>
					<path class="st0" d="M256.6,138.5c0,0,0.1,0.1,0.4,0.3c0.1,0.1,0.2,0.1,0.3,0.1c0.2,0,0.2-0.1,0.3-0.1c0.3-0.1,0.4-0.3,0.4-0.3
						c0.2,0,0.4-0.2,0.4-0.4s-0.2-0.4-0.4-0.4c0,0-0.1-0.1-0.4-0.3c-0.1-0.1-0.2-0.1-0.3-0.1c-0.2,0-0.2,0.1-0.3,0.1
						c-0.3,0.2-0.4,0.3-0.4,0.3c-0.2,0-0.4,0.2-0.4,0.4C256.4,138.4,256.5,138.5,256.6,138.5z"/>
					<path class="st0" d="M253.8,138.5c0,0,0.1,0.1,0.4,0.3c0.1,0.1,0.2,0.1,0.3,0.1s0.2-0.1,0.3-0.1c0.3-0.1,0.4-0.3,0.4-0.3
						c0.2,0,0.4-0.2,0.4-0.4s-0.2-0.4-0.4-0.4c0,0-0.1-0.1-0.4-0.3c-0.1-0.1-0.2-0.1-0.3-0.1s-0.2,0.1-0.3,0.1
						c-0.3,0.2-0.4,0.3-0.4,0.3c-0.2,0-0.4,0.2-0.4,0.4C253.4,138.4,253.6,138.5,253.8,138.5z"/>
					<circle class="st0" cx="252.2" cy="123.4" r="1"/>
					<circle class="st0" cx="249.8" cy="120.9" r="1"/>
				</g>
			</g>
			<circle class="st0" cx="217.1" cy="205.7" r="1.1"/>
			<circle class="st0" cx="231.4" cy="199.2" r="1.1"/>
		</g>
	</g>
</g>
</svg>
