<?xml version="1.0" encoding="utf-8"?>
<!-- Generator: Adobe Illustrator 25.0.1, SVG Export Plug-In . SVG Version: 6.00 Build 0)  -->
<svg version="1.1" id="Layer_1" xmlns:serif="http://www.serif.com/"
	 xmlns="http://www.w3.org/2000/svg" xmlns:xlink="http://www.w3.org/1999/xlink" x="0px" y="0px" viewBox="0 0 532.1 361.5"
	 style="enable-background:new 0 0 532.1 361.5;" xml:space="preserve">
<style type="text/css">
	.st0{fill-rule:evenodd;clip-rule:evenodd;fill:#009092;}
	.st1{fill-rule:evenodd;clip-rule:evenodd;fill:#F1F1F1;}
	.st2{fill-rule:evenodd;clip-rule:evenodd;fill:#003E3F;}
	.st3{fill-rule:evenodd;clip-rule:evenodd;fill:#FFFFFF;}
	.st4{fill:none;stroke:#00B9BC;stroke-width:3.8352;stroke-linecap:round;stroke-linejoin:round;stroke-miterlimit:1.4382;}
	.st5{fill-rule:evenodd;clip-rule:evenodd;fill:#00B9BC;}
	.st6{fill:none;}
	.st7{fill:none;stroke:#003E3F;stroke-width:3;stroke-miterlimit:10;}
</style>
<g>
	<g>
		<path class="st0" d="M110.6,53.4c0,0-3.9-0.8-9-1.4c-1.9-0.2-4-0.4-6-0.4s-4.1,0.2-6,0.5c-5.1,0.6-9,1.3-9,1.3
			c-1,0-1.8,0.8-1.8,1.8s0.8,1.8,1.8,1.8c0,0,3.9,0.7,9,1.3c1.9,0.2,4,0.5,6,0.5s4.1-0.2,6-0.4c5.1-0.6,9-1.4,9-1.4
			c1,0,1.8-0.8,1.8-1.8C112.3,54.1,111.5,53.4,110.6,53.4L110.6,53.4z"/>
		<path class="st1" d="M102.4,54.4c0,0-1.8-0.3-4-0.6c-0.9-0.1-1.8-0.2-2.7-0.2s-1.9,0.1-2.7,0.2c-2.3,0.2-4,0.6-4,0.6
			c-0.4,0-0.7,0.3-0.7,0.7s0.3,0.7,0.7,0.7c0,0,1.8,0.3,4,0.6c0.9,0.1,1.8,0.2,2.7,0.2s1.9-0.1,2.7-0.2c2.3-0.2,4-0.6,4-0.6
			c0.4,0,0.7-0.3,0.7-0.7C103.2,54.8,102.8,54.4,102.4,54.4L102.4,54.4z"/>
		<path class="st2" d="M142.3,47c0,1.5,0.6,2.9,1.9,3.8c1.2,0.9,2.7,1.3,4.1,1c2.7-0.6,5.8-1.3,7.3-1.9c2.8-1.3,7.9-2.4,11.3-0.7
			l0,0c0.4,0.2,0.8,0.5,1.1,0.7l9,5.8c0.4,0.2,0.6,0.6,0.6,1s-0.3,0.8-0.8,0.9l-4.4,1c-0.8,0.2-4.3,1.3-5.2,1.6
			c-7.3,2.6-15.9,6.8-15.9,6.8c-2.6,1.2-5.3,1.9-8.2,1.9h-11.8c-1,0-2.1-0.1-3.1-0.2l0,0c-0.9-0.2-1.8-0.4-2.7-0.6l-24.8-6
			c-0.5-0.1-0.8-0.6-0.8-1l0,0c0-0.4-0.2-0.8-0.6-1c-0.8-0.3-2.1-0.8-2.9-1.2c-0.4-0.2-0.7-0.6-0.7-1c0-1.3,0-3.9,0-5.2
			c0-0.5,0.3-0.9,0.7-1c0.8-0.3,2.1-0.8,2.8-1.1c0.4-0.2,0.7-0.6,0.7-1l0,0c0-0.6,0.5-1.1,1.1-1.1c0,0,4.8-0.1,8.3-0.1
			c1.9,0,3.5-1.4,4-3.2c4.4-21.8,21-30.3,27.4-32.9c0.5-0.2,1-0.1,1.3,0.3c0.2,0.2,0.3,0.5,0.3,0.7l0,0l0,0c0,0.1,0,0.2,0,0.2
			L142.3,47L142.3,47z"/>
		<path class="st0" d="M124.8,67.9l8.1-8.1c0.2-0.2,0.6-0.4,1-0.4H157c0.8,0,1.5,0.6,1.5,1.5v3c-1,0.4-2,0.9-2.8,1.3v-2.8h-21.1
			l-6.5,6.5c-0.9-0.2-1.7-0.3-2.5-0.6L124.8,67.9L124.8,67.9z M170.7,51.7l4.4,2.8c-0.1,0-0.2,0-0.2,0h-10.6c-0.8,0-1.5-0.6-1.5-1.5
			c0-0.8,0.6-1.5,1.5-1.5L170.7,51.7L170.7,51.7z M133.3,15.6l5,5c1.4-1,2.7-1.8,4-2.4v3.3c-6.6,4-15.6,11.7-19.4,26.1
			c0,0.1-0.1,0.2-0.2,0.3l0,0c-0.1,0.1-0.2,0.2-0.2,0.3c-0.2,0.2-0.4,0.3-0.6,0.4l0,0c-0.2,0.1-0.5,0.1-0.7,0
			c-0.1,0-0.2-0.1-0.3-0.2l0,0c-0.1-0.1-0.2-0.2-0.3-0.2l-6.5-6.5c0.3-1,0.6-2.1,1-3.1l5.9,5.9c0.8-2.5,1.7-4.8,2.7-6.9l-5.7-5.7
			c0.5-0.9,1-1.7,1.5-2.6l5.6,5.6c1.3-2.2,2.7-4.1,4-5.9l-5.4-5.4c0.6-0.7,1.3-1.4,1.9-2.1l5.3,5.3c1.7-1.8,3.4-3.3,5.1-4.7
			l-5.1-5.1C131.7,16.7,132.5,16.1,133.3,15.6z"/>
		<circle class="st0" cx="117.9" cy="60.4" r="2.1"/>
		<ellipse class="st0" cx="110.7" cy="60.4" rx="2.1" ry="2.1"/>
	</g>
	<g>
		<path class="st2" d="M80.3,46.8c-0.2,0.2-0.5,0.4-0.7,0.3c-0.6-0.1-1.4-0.2-2-0.2c-0.4-0.1-0.6-0.4-0.6-0.8
			c0.1-0.8,0.2-2.1,0.3-3.1c0-0.2,0.2-0.5,0.4-0.6c0.2-0.1,0.5-0.1,0.7,0c0.8,0.5,2,1.1,2.7,1.5c0.2,0.1,0.3,0.2,0.3,0.5
			c0.1,0.2,0,0.4-0.1,0.6C81,45.6,80.5,46.3,80.3,46.8L80.3,46.8z"/>
		<path class="st2" d="M160.6,75.5c-0.1,0.3-0.3,0.5-0.6,0.5c-0.3,0-0.8,0.1-1.1,0.1c-0.4,0-0.7-0.2-0.8-0.6
			c-0.1-0.5-0.2-1.1-0.2-1.7c0-0.2,0.1-0.5,0.2-0.6c0.2-0.2,0.5-0.2,0.7-0.2c0.6,0.2,1.2,0.3,1.7,0.5c0.2,0.1,0.3,0.2,0.5,0.4
			c0.1,0.2,0.1,0.4,0.1,0.6C160.8,74.8,160.7,75.2,160.6,75.5z"/>
		<path class="st2" d="M69.1,38.5c-0.3,0-0.6-0.2-0.6-0.5c-0.2-0.3-0.3-0.7-0.4-1c-0.2-0.4,0-0.8,0.4-1c0.5-0.2,1-0.5,1.5-0.7
			c0.2-0.1,0.5-0.1,0.7,0.1c0.2,0.2,0.3,0.4,0.3,0.6c0,0.6,0,1.2,0,1.8c0,0.2-0.1,0.4-0.2,0.6c-0.2,0.2-0.3,0.2-0.6,0.2
			C69.9,38.5,69.4,38.5,69.1,38.5z"/>
		<path class="st2" d="M148.6,84.3c0.1-0.1,0.2-0.2,0.2-0.2c0.1,0,0.2,0,0.3,0.1c0.6,0.5,1.9,1.5,2.7,2.2c0.1,0.1,0.2,0.2,0.2,0.4
			s-0.2,0.2-0.3,0.3c-1.1,0.2-3.1,0.8-4.3,1.1c-0.2,0-0.3,0-0.4-0.2c-0.1-0.1-0.1-0.3-0.1-0.4C147.4,86.6,148.2,85.1,148.6,84.3
			L148.6,84.3z"/>
		<path class="st2" d="M118.4,79.5c0,0.1-0.1,0.2-0.2,0.3c-0.1,0.1-0.2,0.1-0.3,0.1c-0.6-0.2-1.5-0.5-2.2-0.6
			c-0.2-0.1-0.2-0.2-0.2-0.3s0-0.3,0.2-0.4c0.6-0.5,1.6-1.2,2.3-1.8c0.2-0.1,0.3-0.1,0.4,0c0.2,0.1,0.2,0.2,0.2,0.4
			C118.5,77.8,118.4,78.9,118.4,79.5z"/>
		<path class="st2" d="M93.3,23.9c-0.1-0.1-0.2-0.2-0.1-0.3c0-0.1,0.1-0.2,0.2-0.3c0.7-0.4,2.1-1.3,2.9-1.9c0.2-0.1,0.3-0.1,0.4,0
			c0.2,0.1,0.2,0.2,0.2,0.3c-0.1,1.1-0.2,3.2-0.2,4.4c0,0.2-0.1,0.3-0.2,0.3c-0.2,0.1-0.3,0-0.4-0.1C95.2,25.7,94,24.5,93.3,23.9z"
			/>
	</g>
</g>
<g>
	<path class="st0" d="M249.4,109.1C111.7,109.4,0,221.4,0,359.1h249.4V109.1L249.4,109.1z"/>
	<path class="st3" d="M249.4,321.2c-1.2,0.1-2.4,0.2-3.6,0.1c-2.6-0.1-5-0.5-7.2-1.1c-1.9-0.6-3.5-1.3-4.8-2.1
		c-0.3-0.2-0.7-0.5-1.2-0.8l0,0l0,0l0,0c-0.4-0.3-0.9-0.6-1.4-1l0,0c-2-1.3-4.4-2.4-7.2-3.2c-2.7-0.8-5.8-1.3-9-1.4
		s-6.3,0.2-9.1,0.9c-3.5,0.8-6.5,2.2-9,3.9c-1.5,1-3.5,1.9-5.8,2.3c-2.1,0.5-4.4,0.6-6.9,0.6c-2.4-0.1-4.7-0.5-6.7-1
		c-2.2-0.6-4-1.5-5.4-2.7l-0.5-0.3c-2.3-1.7-5.3-3.1-8.7-4.1c-2.9-0.8-6-1.3-9.4-1.5c-3.4-0.1-6.6,0.3-9.6,1c-3.8,0.9-7,2.4-9.6,4.2
		l-0.6,0.3c-1.3,0.7-2.9,1.3-4.7,1.7c-1.9,0.5-4.1,0.6-6.4,0.6s-4.4-0.5-6.2-1c-1.9-0.6-3.5-1.4-4.8-2.3l-0.5-0.4
		c-2.5-1.9-5.6-3.4-9.4-4.4c-3-0.9-6.4-1.4-9.9-1.5c-4.4-0.2-8.5,0.5-12.1,1.6c-3.2,1-6,2.3-8.2,4l-0.5,0.3c-1.1,0.6-2.5,1-4,1.5
		c-1.8,0.4-3.8,0.6-5.9,0.5c-2-0.1-4-0.4-5.7-1c-1.6-0.5-3-1.2-4-2c-2.3-1.8-5.1-3.3-8.4-4.4c-3.7-1.3-8-2.1-12.5-2.2
		c-4.6-0.2-9,0.6-12.7,1.7c-3.4,1-6.4,2.5-8.8,4.2c-1,0.7-2.3,1-3.9,1.5c-0.4,0.1-0.9,0.2-1.4,0.2c-1.3,7.1-2.3,14.3-3,21.5
		c4.3-0.2,8.3-1,11.9-2.3c3.4-1.2,6.3-2.7,8.6-4.6c1-0.8,2.3-1.5,3.7-1.9c1.7-0.5,3.5-0.9,5.5-0.9c2-0.1,3.9,0.1,5.6,0.5
		c1.4,0.3,2.7,0.7,3.7,1.3l0.6,0.4c2.3,1.6,5.1,3.1,8.3,4c3.7,1,7.9,1.8,12.4,1.6c3.6-0.1,7.1-0.6,10.2-1.5c4-1.2,7.5-2.9,10.2-4.9
		l0.5-0.3c1-0.7,2.4-1.4,4-1.9c1.9-0.6,3.8-0.9,6-1s4.2,0.1,6.1,0.5s3.5,1,4.8,1.9c2.2,1.5,4.8,2.9,8,3.8c3.5,1,7.5,1.6,11.8,1.5
		c3.5-0.1,6.8-0.6,9.7-1.5c3.8-1.1,7-2.7,9.5-4.7l0.5-0.4c1.2-0.9,2.7-1.6,4.5-2.1c1.9-0.6,4.1-1,6.5-1c2.3-0.1,4.6,0.1,6.6,0.6
		c1.9,0.4,3.5,1,4.9,1.9l0.6,0.4c2.5,1.7,5.6,3.1,9.3,4c2.8,0.6,6,1,9.4,1s6.5-0.6,9.2-1.4c3.4-1,6.3-2.4,8.5-4.1l0.6-0.4
		c1.5-1,3.3-1.9,5.4-2.6c2.1-0.6,4.4-1,6.9-1.1s4.9,0.2,7.1,0.6c2.4,0.6,4.5,1.4,6.1,2.5c2.3,1.6,5.2,2.9,8.6,3.7
		c2.7,0.6,5.7,1,8.9,0.9c1.2,0,2.4-0.2,3.6-0.2L249.4,321.2L249.4,321.2z M249.4,273.7c-1.2,0.1-2.4,0.2-3.6,0.1
		c-2.6-0.1-5-0.5-7.2-1.1c-1.9-0.6-3.5-1.3-4.8-2.1c-0.3-0.2-0.7-0.5-1.2-0.8l0,0l0,0l0,0c-0.4-0.3-0.9-0.6-1.4-1l0,0
		c-2-1.3-4.4-2.4-7.2-3.2c-2.7-0.8-5.8-1.3-9-1.4s-6.3,0.2-9.1,0.9c-3.5,0.8-6.5,2.2-9,3.9c-1.5,1-3.5,1.9-5.8,2.3
		c-2.1,0.5-4.4,0.6-6.9,0.6c-2.4-0.1-4.7-0.5-6.7-1c-2.2-0.6-4-1.5-5.4-2.7l-0.5-0.3c-2.3-1.7-5.3-3.1-8.7-4.1
		c-2.9-0.8-6-1.3-9.4-1.5c-3.4-0.1-6.6,0.3-9.6,1c-3.8,0.9-7,2.4-9.6,4.2l-0.6,0.3c-1.3,0.7-2.9,1.3-4.7,1.7
		c-1.9,0.5-4.1,0.6-6.4,0.6c-2.3-0.1-4.4-0.5-6.2-1c-1.9-0.6-3.5-1.4-4.8-2.3l-0.5-0.4c-2.5-1.9-5.6-3.4-9.4-4.4
		c-3-0.9-6.4-1.4-9.9-1.5c-4.4-0.2-8.5,0.5-12.1,1.6c-3.2,1-6,2.3-8.2,4l-0.5,0.3c-1.1,0.6-2.5,1-4,1.5c-1.8,0.4-3.8,0.6-5.9,0.5
		c-2-0.1-4-0.4-5.7-1c-1.6-0.5-3-1.2-4-2c-2.3-1.8-5.1-3.3-8.4-4.4c-3.7-1.3-8-2.1-12.5-2.2c-3.6-0.1-7.1,0.3-10.2,1
		c-3.8,8.6-7,17.5-9.8,26.5c0.7-0.2,1.5-0.4,2.1-0.6c3.4-1.2,6.3-2.7,8.6-4.6c1-0.8,2.3-1.5,3.7-1.9c1.7-0.5,3.5-0.9,5.5-0.9
		c2-0.1,3.9,0.1,5.6,0.5c1.4,0.3,2.7,0.7,3.7,1.3l0.6,0.4c2.3,1.6,5.1,3.1,8.3,4c3.7,1,7.9,1.8,12.4,1.6c3.6-0.1,7.1-0.6,10.2-1.5
		c4-1.2,7.5-2.9,10.2-4.9l0.5-0.3c1-0.7,2.4-1.4,4-1.9c1.9-0.6,3.8-0.9,6-1s4.2,0.1,6.1,0.5s3.5,1,4.8,1.9c2.2,1.5,4.8,2.9,8,3.8
		c3.5,1,7.5,1.6,11.8,1.5c3.5-0.1,6.8-0.6,9.7-1.5c3.8-1.1,7-2.7,9.5-4.7l0.5-0.4c1.2-0.9,2.7-1.6,4.5-2.1c1.9-0.6,4.1-1,6.5-1
		c2.3-0.1,4.6,0.1,6.6,0.6c1.9,0.4,3.5,1,4.9,1.9l0.6,0.4c2.5,1.7,5.6,3.1,9.3,4c2.8,0.6,6,1,9.4,1c3.3-0.1,6.5-0.6,9.2-1.4
		c3.4-1,6.3-2.4,8.5-4.1l0.6-0.4c1.5-1,3.3-1.9,5.4-2.6s4.4-1,6.9-1.1s4.9,0.2,7.1,0.6c2.4,0.6,4.5,1.4,6.1,2.5
		c2.3,1.6,5.2,2.9,8.6,3.7c2.7,0.6,5.7,1,8.9,0.9c1.2,0,2.4-0.2,3.6-0.2L249.4,273.7L249.4,273.7z M249.4,224.2
		c-1.2,0.1-2.4,0.2-3.6,0.1c-2.6-0.1-5-0.5-7.2-1.1c-1.9-0.6-3.5-1.3-4.8-2.1c-0.3-0.2-0.7-0.5-1.2-0.8l0,0l0,0l0,0
		c-0.4-0.3-0.9-0.6-1.4-1l0,0c-2-1.3-4.4-2.4-7.2-3.2c-2.7-0.8-5.8-1.3-9-1.4s-6.3,0.2-9.1,0.9c-3.5,0.8-6.5,2.2-9,3.9
		c-1.5,1-3.5,1.9-5.8,2.3c-2.1,0.5-4.4,0.6-6.9,0.6c-2.4-0.1-4.7-0.5-6.7-1c-2.2-0.6-4-1.5-5.4-2.7l-0.5-0.3
		c-2.3-1.7-5.3-3.1-8.7-4.1c-2.9-0.8-6-1.3-9.4-1.5c-3.4-0.1-6.6,0.3-9.6,1c-3.8,0.9-7,2.4-9.6,4.2l-0.6,0.3
		c-1.3,0.7-2.9,1.3-4.7,1.7c-1.9,0.5-4.1,0.6-6.4,0.6c-2.3-0.1-4.4-0.5-6.2-1c-1.9-0.6-3.5-1.4-4.8-2.3l-0.5-0.4
		c-2.5-1.9-5.6-3.4-9.4-4.4c-3-0.9-6.4-1.4-9.9-1.5c-4.4-0.2-8.5,0.5-12.1,1.6c-3.2,1-6,2.3-8.2,4l-0.5,0.3c-1.1,0.6-2.5,1-4,1.5
		c-1.8,0.4-3.8,0.6-5.9,0.5c-2-0.1-4-0.4-5.7-1c-1.6-0.5-3-1.2-4-2c-1.3-1-2.8-1.9-4.4-2.8c-3.8,5.2-7.3,10.6-10.7,16.1
		c1.4,0.3,2.6,0.6,3.6,1.2l0.6,0.4c2.3,1.6,5.1,3.1,8.3,4c3.7,1,7.9,1.8,12.4,1.6c3.6-0.1,7.1-0.6,10.2-1.5c4-1.2,7.5-2.9,10.2-4.9
		l0.5-0.3c1-0.7,2.4-1.4,4-1.9c1.9-0.6,3.8-0.9,6-1s4.2,0.1,6.1,0.5s3.5,1,4.8,1.9c2.2,1.5,4.8,2.9,8,3.8c3.5,1,7.5,1.6,11.8,1.5
		c3.5-0.1,6.8-0.6,9.7-1.5c3.8-1.1,7-2.7,9.5-4.7l0.5-0.4c1.2-0.9,2.7-1.6,4.5-2.1c1.9-0.6,4.1-1,6.5-1c2.3-0.1,4.6,0.1,6.6,0.6
		c1.9,0.4,3.5,1,4.9,1.9l0.7,0.4c2.5,1.7,5.6,3.1,9.3,4c2.8,0.6,6,1,9.4,1c3.3-0.1,6.5-0.6,9.2-1.4c3.4-1,6.3-2.4,8.5-4.1l0.6-0.4
		c1.5-1,3.3-1.9,5.4-2.6c2.1-0.6,4.4-1,6.9-1.1s4.9,0.2,7.1,0.6c2.4,0.6,4.5,1.4,6.1,2.5c2.3,1.6,5.2,2.9,8.6,3.7
		c2.7,0.6,5.7,1,8.9,0.9c1.2,0,2.4-0.2,3.6-0.2L249.4,224.2L249.4,224.2z M95.1,163c-9.5,7.5-18.4,15.6-26.7,24.4
		c1.1-0.2,2.3-0.5,3.4-0.8c4-1.2,7.5-2.9,10.2-4.9l0.5-0.3c1-0.7,2.4-1.4,4-1.9c1.9-0.6,3.8-0.9,6-1s4.2,0.1,6.1,0.5s3.5,1,4.8,1.9
		c2.2,1.5,4.8,2.9,8,3.8c3.5,1,7.5,1.6,11.8,1.5c3.5-0.1,6.8-0.6,9.7-1.5c3.8-1.1,7-2.7,9.5-4.7l0.5-0.4c1.2-0.9,2.7-1.6,4.5-2.1
		c1.9-0.6,4.1-1,6.5-1c2.3-0.1,4.6,0.1,6.6,0.6c1.9,0.4,3.5,1,4.9,1.9l0.6,0.4c2.5,1.7,5.6,3.1,9.3,4c2.8,0.6,6,1,9.4,1
		c3.3-0.1,6.5-0.6,9.2-1.4c3.4-1,6.3-2.4,8.5-4.1l0.6-0.4c1.5-1,3.3-1.9,5.4-2.6c2.1-0.6,4.4-1,6.9-1.1s4.9,0.2,7.1,0.6
		c2.4,0.6,4.5,1.4,6.1,2.5c2.3,1.6,5.2,2.9,8.6,3.7c2.7,0.6,5.7,1,8.9,0.9c1.2,0,2.4-0.2,3.6-0.2v-6c-1.2,0.1-2.4,0.2-3.6,0.1
		c-2.6-0.1-5-0.5-7.2-1.1c-1.9-0.6-3.5-1.3-4.8-2.1c-0.3-0.2-0.7-0.5-1.2-0.8l0,0l0,0l0,0c-0.4-0.3-0.9-0.6-1.4-1l0,0
		c-2-1.3-4.4-2.4-7.2-3.2c-2.7-0.8-5.8-1.3-9-1.4s-6.3,0.2-9.1,0.9c-3.5,0.8-6.5,2.2-9,3.9c-1.5,1-3.5,1.9-5.8,2.3
		c-2.1,0.5-4.4,0.6-6.9,0.6c-2.4-0.1-4.7-0.5-6.7-1c-2.2-0.6-4-1.5-5.4-2.7l-0.5-0.3c-2.3-1.7-5.3-3.1-8.7-4.1
		c-2.9-0.8-6-1.3-9.4-1.5c-3.4-0.1-6.6,0.3-9.6,1c-3.8,0.9-7,2.4-9.6,4.2l-0.6,0.3c-1.3,0.7-2.9,1.3-4.7,1.7
		c-1.9,0.5-4.1,0.6-6.4,0.6c-2.3-0.1-4.4-0.5-6.2-1c-1.9-0.6-3.5-1.4-4.8-2.3l-0.5-0.4c-2.5-1.9-5.6-3.4-9.4-4.4
		C100,163.7,97.6,163.2,95.1,163L95.1,163z"/>
</g>
<path class="st4" d="M249.4,110.7v248.5h249c0-137.1-111.3-248.5-248.5-248.5L249.4,110.7L249.4,110.7z"/>
<g>
	<path class="st5" d="M517,199.1c9-3,15.1-11.4,15.1-20.9V72.8c0-10.7-7.2-20.2-17.5-23c-1.4-0.4-2.8-0.8-4.2-1.2
		c-10.3-2.9-17.5-12.3-17.5-23v-1.7c0-6.4-2.5-12.4-7-16.9S475.3,0,469,0c-6.9,0-14.4,0-21.3,0c-6.4,0-12.4,2.5-16.9,7
		s-7,10.6-7,16.9v20.2c0,9.3-5.3,17.7-13.7,21.6c-1,0.5-2.1,1-3.1,1.5c-8.4,4-13.7,12.3-13.7,21.6v90.8c0,8.5,4.8,16.2,12.3,20
		c0.6,0.3,1.3,0.6,1.9,1c4.1,2.1,7.3,5.7,8.5,10.2l0,0c2.5,8.5,10.4,14.4,19.3,14.4c13.6,0,33.7,0,47,0c8.6,0,16.6-4.7,20.8-12.2
		c0.9-1.6,1.8-3.1,2.6-4.6C508.2,204,512.2,200.7,517,199.1L517,199.1L517,199.1z"/>
	<path class="st1" d="M439.2,148.3l4.2,4.4c0.6,0.6,0.6,1.5-0.1,2c-0.6,0.6-1.5,0.6-2-0.1l-4.2-4.4c-0.6-0.6-0.6-1.5,0.1-2
		C437.8,147.7,438.6,147.7,439.2,148.3z"/>
	<path class="st1" d="M449.5,76l4.2,4.4c0.6,0.6,0.6,1.5-0.1,2c-0.6,0.6-1.5,0.6-2-0.1l-4.2-4.4c-0.6-0.6-0.6-1.5,0.1-2
		C448.1,75.4,449,75.4,449.5,76z"/>
	<path class="st1" d="M490.9,83.7l-4.2,4.4c-0.6,0.6-1.5,0.6-2,0.1c-0.6-0.6-0.6-1.5-0.1-2l4.2-4.4c0.6-0.6,1.5-0.6,2-0.1
		C491.5,82.3,491.5,83.1,490.9,83.7z"/>
	<path class="st1" d="M510.2,170.5l-4.2,4.4c-0.6,0.6-1.5,0.6-2,0.1c-0.6-0.6-0.6-1.5-0.1-2l4.2-4.4c0.6-0.6,1.5-0.6,2-0.1
		S510.6,169.9,510.2,170.5z"/>
	<path class="st1" d="M477.8,20.6l-4.2,4.4c-0.6,0.6-1.5,0.6-2,0.1c-0.6-0.6-0.6-1.5-0.1-2l4.2-4.4c0.6-0.6,1.5-0.6,2-0.1
		C478.3,19.1,478.4,20,477.8,20.6z"/>
	<path class="st1" d="M429.3,202.5l4.2,4.4c0.6,0.6,0.6,1.5-0.1,2c-0.6,0.6-1.5,0.6-2-0.1l-4.2-4.4c-0.6-0.6-0.6-1.5,0.1-2
		C427.8,201.9,428.8,201.9,429.3,202.5z"/>
	<path class="st1" d="M416.5,96l4.2,4.4c0.6,0.6,0.6,1.5-0.1,2c-0.6,0.6-1.5,0.6-2-0.1l-4.2-4.4c-0.6-0.6-0.6-1.5,0.1-2
		C415,95.5,415.9,95.5,416.5,96L416.5,96z"/>
	<path class="st1" d="M435.6,136.2l2.1,2.2c0.6,0.6,0.6,1.5-0.1,2c-0.6,0.6-1.5,0.6-2-0.1l-2.1-2.2c-0.6-0.6-0.6-1.5,0.1-2
		C434.3,135.6,435.2,135.6,435.6,136.2z"/>
	<path class="st1" d="M447.4,60.7l2.1,2.2c0.6,0.6,0.6,1.5-0.1,2c-0.6,0.6-1.5,0.6-2-0.1l-2.1-2.2c-0.6-0.6-0.6-1.5,0.1-2
		C446,60.2,446.9,60.2,447.4,60.7z"/>
	<path class="st1" d="M436.4,31.4l2.1,2.2c0.6,0.6,0.6,1.5-0.1,2c-0.6,0.6-1.5,0.6-2-0.1l-2.1-2.2c-0.6-0.6-0.6-1.5,0.1-2
		C434.9,30.8,435.8,30.8,436.4,31.4z"/>
	<path class="st1" d="M503.3,90.2l-2.1,2.2c-0.6,0.6-1.5,0.6-2,0.1c-0.6-0.6-0.6-1.5-0.1-2l2.1-2.2c0.6-0.6,1.5-0.6,2-0.1
		C503.8,88.7,503.8,89.6,503.3,90.2z"/>
	<path class="st1" d="M504.6,190.2l-2.1,2.2c-0.6,0.6-1.5,0.6-2,0.1c-0.6-0.6-0.6-1.5-0.1-2l2.1-2.2c0.6-0.6,1.5-0.6,2-0.1
		C505.1,188.7,505.1,189.6,504.6,190.2z"/>
	<path class="st1" d="M493.2,55.1l-2.1,2.2c-0.6,0.6-1.5,0.6-2,0.1c-0.6-0.6-0.6-1.5-0.1-2l2.1-2.2c0.6-0.6,1.5-0.6,2-0.1
		C493.8,53.5,493.8,54.4,493.2,55.1L493.2,55.1z"/>
	<path class="st1" d="M486.6,133.1l-2.1,2.2c-0.6,0.6-1.5,0.6-2,0.1c-0.6-0.6-0.6-1.5-0.1-2l2.1-2.2c0.6-0.6,1.5-0.6,2-0.1
		C487.2,131.7,487.2,132.6,486.6,133.1L486.6,133.1z"/>
	<path class="st1" d="M415.4,82.8l2.1,2.2c0.6,0.6,0.6,1.5-0.1,2c-0.6,0.6-1.5,0.6-2-0.1l-2.1-2.2c-0.6-0.6-0.6-1.5,0.1-2
		C414,82.3,414.8,82.3,415.4,82.8z"/>
	<path class="st1" d="M412.9,140.9l2.1,2.2c0.6,0.6,0.6,1.5-0.1,2c-0.6,0.6-1.5,0.6-2-0.1l-2.1-2.2c-0.6-0.6-0.6-1.5,0.1-2
		C411.5,140.3,412.4,140.3,412.9,140.9z"/>
</g>
<g>
	<path class="st2" d="M468.9,172c-0.1-5.2-0.2-10.3-0.4-15.4c-1-24.4-2.4-45.7-2.4-45.7c0-1.9-1.5-3.4-3.4-3.4s-3.4,1.5-3.4,3.4
		c0,0-1.5,21.4-2.4,45.7c-0.2,6.8-0.4,13.7-0.5,20.6c-0.1,5.7-0.2,11.4-0.2,16.6c-2.3-2.2-4.8-4.6-7.3-7c-2.6-2.4-5.2-4.9-7.9-7.3
		c-9.6-8.5-18.3-15.4-18.3-15.4c-1.1-1.1-2.9-1.1-4,0s-1.1,2.9,0,4c0,0,6.9,8.7,15.4,18.3c2.3,2.7,4.8,5.3,7.3,7.9
		c5.9,6.3,11.5,12,14.8,15.2c-0.1,9.5-0.1,15.6-0.1,15.6v115.1c0,3.7,3.1,6.8,6.8,6.8c3.7,0,6.8-3.1,6.8-6.8v-115
		c0,0,0-16.8-0.3-37.5c3.2-3.3,9.4-9.5,15.8-16.3c2.6-2.7,5.2-5.5,7.7-8.2c8.9-10,16.2-19.1,16.2-19.1c1.1-1.1,1.1-2.9,0-4
		c-1.1-1.1-2.9-1.1-4,0c0,0-6.6,5.3-14.8,12.3c-0.8-0.7-2.2-2-3.7-3.3c-0.6-0.6-1.4-1.1-2.1-1.6c-2.7-1.8-5.2-2.8-5.2-2.8
		c-0.9-0.9-2.3-0.9-3.3,0c-0.9,0.9-0.9,2.3,0,3.3c0,0,1,2.4,2.8,5.2c0.5,0.7,1,1.4,1.6,2.1c1.1,1.3,2.2,2.5,3,3.3
		c-1.9,1.8-3.8,3.5-5.7,5.3C474.4,166.7,471.5,169.5,468.9,172L468.9,172z"/>
	<path class="st5" d="M463.8,293.1v-3c0-0.8,0.6-1.5,1.5-1.5c0.8,0,1.5,0.6,1.5,1.5v3c0,0.8-0.6,1.5-1.5,1.5
		C464.4,294.5,463.8,293.8,463.8,293.1z"/>
	<path class="st5" d="M479.5,166.3l2.1-2.1c0.6-0.6,1.5-0.6,2,0c0.6,0.6,0.6,1.5,0,2l-2.1,2.1c-0.6,0.6-1.5,0.6-2,0
		C479,167.7,479,166.9,479.5,166.3z"/>
	<path class="st5" d="M459.8,235.6v-3c0-0.8,0.6-1.5,1.5-1.5c0.8,0,1.5,0.6,1.5,1.5v3c0,0.8-0.6,1.5-1.5,1.5
		C460.5,237.1,459.8,236.5,459.8,235.6z"/>
	<path class="st5" d="M460.9,281v-1c0-0.8,0.6-1.5,1.5-1.5c0.8,0,1.5,0.6,1.5,1.5v1c0,0.8-0.6,1.5-1.5,1.5
		C461.5,282.4,460.9,281.8,460.9,281z"/>
	<path class="st5" d="M444.9,193.1l-0.7-0.7c-0.6-0.6-0.6-1.5,0-2s1.5-0.6,2,0l0.7,0.7c0.6,0.6,0.6,1.5,0,2S445.5,193.7,444.9,193.1
		z"/>
	<path class="st5" d="M456.1,189.8c0,1.4,0,2.7-0.1,4c-0.2-0.2-0.5-0.5-0.8-0.7l3,3.1c0.6,0.6,1.5,0.6,2,0.1c0.6-0.6,0.6-1.5,0.1-2
		L456.1,189.8z"/>
</g>
<g>
	<path class="st5" d="M443.6,304.3c-0.5-0.9-0.8-1.9-1-2.9c-4.2-19.4-21.5-34-42.2-34c-20.6,0-37.8,14.4-42.1,33.6
		c-1.1,5.1-5.4,9-10.6,9.5c-23,2.7-42.2,24.4-42.2,47.4c0,0.4,0,0.8,0,1.1h173.2c-0.1-20.4-11-38.2-27.3-48.1
		c-4.7-2.7-10.5-5.1-17.4-6.5c-0.8-0.2-1.3-0.9-1.1-1.7c0.2-0.8,0.9-1.3,1.7-1.1C437.8,302.4,440.8,303.3,443.6,304.3L443.6,304.3z"
		/>
	<path class="st1" d="M424.3,295.9l-4.2,4.4c-0.6,0.6-1.5,0.6-2,0.1c-0.6-0.6-0.6-1.5-0.1-2l4.2-4.4c0.6-0.6,1.5-0.6,2-0.1
		C424.8,294.5,424.8,295.4,424.3,295.9L424.3,295.9z"/>
	<path class="st1" d="M465.9,347.4l-4.2,4.4c-0.6,0.6-1.5,0.6-2,0.1c-0.6-0.6-0.6-1.5-0.1-2l4.2-4.4c0.6-0.6,1.5-0.6,2-0.1
		C466.4,345.9,466.4,346.8,465.9,347.4z"/>
	<path class="st1" d="M367.1,315l4.2,4.4c0.6,0.6,0.6,1.5-0.1,2c-0.6,0.6-1.5,0.6-2-0.1l-4.2-4.4c-0.6-0.6-0.6-1.5,0.1-2
		C365.6,314.4,366.5,314.4,367.1,315L367.1,315z"/>
	<path class="st1" d="M421.9,349.2l-4.2,4.4c-0.6,0.6-1.5,0.6-2,0.1c-0.6-0.6-0.6-1.5-0.1-2l4.2-4.4c0.6-0.6,1.5-0.6,2-0.1
		C422.4,347.8,422.5,348.7,421.9,349.2L421.9,349.2z"/>
	<path class="st1" d="M377.2,296.2l4.2,4.4c0.6,0.6,0.6,1.5-0.1,2c-0.6,0.6-1.5,0.6-2-0.1l-4.2-4.4c-0.6-0.6-0.6-1.5,0.1-2
		C375.7,295.7,376.6,295.7,377.2,296.2L377.2,296.2z"/>
	<path class="st1" d="M420.1,286l-2.1,2.2c-0.6,0.6-1.5,0.6-2,0.1c-0.6-0.6-0.6-1.5-0.1-2l2.1-2.2c0.6-0.6,1.5-0.6,2-0.1
		C420.6,284.5,420.6,285.4,420.1,286L420.1,286z"/>
	<path class="st1" d="M461.9,331.9l-2.1,2.2c-0.6,0.6-1.5,0.6-2,0.1c-0.6-0.6-0.6-1.5-0.1-2l2.1-2.2c0.6-0.6,1.5-0.6,2-0.1
		C462.4,330.4,462.4,331.3,461.9,331.9z"/>
	<path class="st1" d="M376.7,285.8l2.1,2.2c0.6,0.6,0.6,1.5-0.1,2c-0.6,0.6-1.5,0.6-2-0.1l-2.1-2.2c-0.6-0.6-0.6-1.5,0.1-2
		C375.2,285.3,376.1,285.3,376.7,285.8L376.7,285.8z"/>
	<path class="st1" d="M389.4,274.9l2.1,2.2c0.6,0.6,0.6,1.5-0.1,2c-0.6,0.6-1.5,0.6-2-0.1l-2.1-2.2c-0.6-0.6-0.6-1.5,0.1-2
		C387.9,274.3,388.8,274.3,389.4,274.9z"/>
	<path class="st1" d="M454.3,348l-2.1,2.2c-0.6,0.6-1.5,0.6-2,0.1c-0.6-0.6-0.6-1.5-0.1-2l2.1-2.2c0.6-0.6,1.5-0.6,2-0.1
		C454.8,346.6,454.8,347.5,454.3,348L454.3,348z"/>
	<path class="st1" d="M378.5,348l2.1,2.2c0.6,0.6,0.6,1.5-0.1,2c-0.6,0.6-1.5,0.6-2-0.1l-2.1-2.2c-0.6-0.6-0.6-1.5,0.1-2
		C377.1,347.5,378,347.5,378.5,348z"/>
	<path class="st1" d="M365.6,334.5l2.1,2.2c0.6,0.6,0.6,1.5-0.1,2c-0.6,0.6-1.5,0.6-2-0.1l-2.1-2.2c-0.6-0.6-0.6-1.5,0.1-2
		C364.1,333.9,365,333.9,365.6,334.5z"/>
	<path class="st1" d="M339.1,342.8l4.2,4.4c0.6,0.6,0.6,1.5-0.1,2c-0.6,0.6-1.5,0.6-2-0.1l-4.2-4.4c-0.6-0.6-0.6-1.5,0.1-2
		C337.7,342.1,338.5,342.2,339.1,342.8L339.1,342.8z"/>
	<path class="st1" d="M343.1,327.2l2.1,2.2c0.6,0.6,0.6,1.5-0.1,2c-0.6,0.6-1.5,0.6-2-0.1l-2.1-2.2c-0.6-0.6-0.6-1.5,0.1-2
		C341.7,326.6,342.6,326.6,343.1,327.2z"/>
</g>
<g>
	<path class="st2" d="M400.1,297c-2.4,0-4.4,0.8-4.4,4.8s2,9.5,4.4,9.5c2.4,0,4.4-5.6,4.4-9.5S402.6,297,400.1,297z"/>
	<path class="st2" d="M400.2,330.5c2.4,0,4.4-0.8,4.4-4.8s-2-9.5-4.4-9.5s-4.4,5.6-4.4,9.5S397.7,330.5,400.2,330.5z"/>
	<path class="st1" d="M412.3,301.6c-1.8-1.8-3.7-2.6-6.5,0.2c-2.8,2.8-5.3,8.1-3.6,9.8c1.8,1.8,7.1-0.8,9.8-3.6
		C414.9,305.3,414.1,303.3,412.3,301.6L412.3,301.6z"/>
	<path class="st1" d="M387.8,325.9c1.8,1.8,3.7,2.6,6.5-0.2c2.8-2.8,5.3-8.1,3.5-9.8c-1.8-1.8-7.1,0.8-9.8,3.6
		C385.3,322.2,386.1,324.2,387.8,325.9z"/>
	<path class="st1" d="M387.8,301.6c1.8-1.8,3.7-2.6,6.5,0.2c2.8,2.8,5.3,8.1,3.5,9.8c-1.8,1.8-7.1-0.8-9.8-3.6
		C385.3,305.3,386.1,303.3,387.8,301.6L387.8,301.6z"/>
	<path class="st1" d="M412.3,325.9c-1.8,1.8-3.7,2.6-6.5-0.2c-2.8-2.8-5.3-8.1-3.6-9.8c1.8-1.8,7.1,0.8,9.8,3.6
		C414.9,322.2,414.1,324.2,412.3,325.9z"/>
	<path class="st2" d="M383.1,313.8c0,2.4,0.8,4.4,4.8,4.4s9.5-2,9.5-4.4s-5.6-4.4-9.5-4.4C383.9,309.4,383.1,311.3,383.1,313.8z"/>
	<path class="st2" d="M417.1,313.8c0,2.4-0.8,4.4-4.8,4.4s-9.5-2-9.5-4.4s5.6-4.4,9.5-4.4S417.1,311.3,417.1,313.8z"/>
	<circle class="st5" cx="400.1" cy="313.7" r="4.5"/>
	<path class="st2" d="M401.5,337.4v-13.1c0-0.8-0.6-1.5-1.5-1.5c-0.9,0-1.5,0.6-1.5,1.5v9.6l-4.4-1.9c-0.5-0.2-1-0.1-1.4,0.4
		c-0.3,0.4-0.2,1,0.1,1.4l5.7,6.4v19.1c0,0.8,0.6,1.5,1.5,1.5s1.5-0.6,1.5-1.5v-12.4l6.3-10.7c0.2-0.4,0.2-1-0.2-1.4
		c-0.3-0.3-0.9-0.4-1.4-0.2L401.5,337.4z"/>
</g>
<g>
	<path class="st2" d="M433,346.2v-22c0-0.8-0.6-1.5-1.5-1.5c-0.9,0-1.5,0.6-1.5,1.5v34.9c0,0.8,0.6,1.5,1.5,1.5
		c0.9,0,1.5-0.6,1.5-1.5v-5.4l4.9-6.3c0.2-0.3,0.3-0.9,0.1-1.2c-0.2-0.4-0.6-0.6-1.1-0.6L433,346.2z"/>
	<g>
		<path class="st1" d="M431.5,319.8c-0.4-0.6-0.9-1-1.4-1.5c-3.1-3.1-6.5-3.5-8.5-1.5c-1.9,1.9-1.6,5.4,1.5,8.5
			c0.5,0.5,1,0.9,1.5,1.4c-0.6,0.4-1,0.9-1.5,1.4c-3.1,3.1-3.5,6.5-1.5,8.5c1.9,1.9,5.4,1.6,8.5-1.5c0.5-0.5,0.9-1,1.4-1.5
			c0.4,0.6,0.9,1,1.4,1.5c3.1,3.1,6.5,3.5,8.5,1.5c1.9-1.9,1.6-5.4-1.5-8.5c-0.5-0.5-1-0.9-1.5-1.4c0.6-0.4,1-0.9,1.5-1.4
			c3.1-3.1,3.5-6.5,1.5-8.5c-1.9-1.9-5.4-1.6-8.5,1.5C432.4,318.7,431.9,319.2,431.5,319.8z"/>
		<circle class="st2" cx="431.5" cy="326.6" r="3.9"/>
	</g>
</g>
<g>
	<path class="st2" d="M133.8,319.2c-1.5,0-2.8,0.6-2.8,3.1s1.3,6.1,2.8,6.1s2.8-3.5,2.8-6.1C136.7,319.8,135.4,319.2,133.8,319.2z"
		/>
	<path class="st2" d="M126,322.2c1.1-1.1,2.4-1.6,4.2,0.2s3.4,5.2,2.3,6.3c-1.1,1.1-4.5-0.5-6.3-2.3
		C124.4,324.6,124.8,323.3,126,322.2z"/>
	<path class="st2" d="M121.1,348c1.1,1.1,2.4,1.6,4.2-0.2s3.4-5.2,2.3-6.3c-1.1-1.1-4.5,0.5-6.3,2.3C119.5,345.7,120,347,121.1,348z
		"/>
	<path class="st2" d="M144.7,330c0,1.5-0.6,2.8-3.1,2.8s-6.1-1.3-6.1-2.8s3.5-2.8,6.1-2.8S144.7,328.5,144.7,330z"/>
	<path class="st2" d="M140.6,347.4c-0.5-1-1.1-1.9-1.9-2.7c-0.5-0.5-1-1-1.5-1.5c-1.4-1.4-2.1-3.1-2.1-5.1c0-2.6,0-5.6,0-5.6
		c0-0.8-0.6-1.5-1.5-1.5s-1.5,0.6-1.5,1.5c0,0,0,3,0,5.6c0,2.7,1,5.2,2.9,7.1c0.5,0.5,1,1,1.5,1.5c1.4,1.4,2.1,3.1,2.1,5.1v5.9
		c0,0.8,0.6,1.5,1.5,1.5c0.8,0,1.5-0.6,1.5-1.5v-4.2l3.9-6.6c0.2-0.4,0.2-1-0.2-1.4c-0.3-0.3-0.9-0.4-1.4-0.2L140.6,347.4
		L140.6,347.4z"/>
	<circle class="st2" cx="133.8" cy="330" r="2.9"/>
</g>
<path class="st2" d="M111.6,359.1V354c0-0.8,0.6-1.5,1.5-1.5s1.5,0.6,1.5,1.5v5.1c0,0.8-0.6,1.5-1.5,1.5S111.6,360,111.6,359.1z"/>
<path class="st2" d="M41,359.1V354c0-0.8,0.6-1.5,1.5-1.5c0.8,0,1.5,0.6,1.5,1.5v5.1c0,0.8-0.6,1.5-1.5,1.5
	C41.7,360.6,41,360,41,359.1z"/>
<path class="st2" d="M105.8,359.1V349c0-0.8,0.6-1.5,1.5-1.5c0.8,0,1.5,0.6,1.5,1.5v10.1c0,0.8-0.6,1.5-1.5,1.5
	S105.8,360,105.8,359.1z"/>
<g>
	<path class="st2" d="M79,303.5c-0.4,0.4-1,0.5-1.6,0.2c-0.6-0.2-0.9-0.8-0.9-1.4c0-8.8,0-31.8,0-41.5c0-0.6-0.4-1.2-1-1.5
		c-0.6-0.2-1.3,0-1.7,0.5c-0.6,0.7-1.1,1.5-1.7,2.2c-0.3,0.5-0.9,0.6-1.5,0.6c-0.6-0.1-1-0.5-1.2-1c-0.8-2.6-2-6.3-2.7-8.7
		c-0.2-0.6-0.6-1-1.2-1c-0.6-0.1-1.1,0.2-1.5,0.6c-0.6,1.1-1.1,2.4-1.1,3.9v19c0,0.6-0.3,1-0.8,1.3c-0.5,0.2-1,0.2-1.5-0.2l0,0
		c-2.3-1.8-4.4-3.3-6.1-4.5c-0.2-0.2-0.5-0.2-0.7-0.2c-0.7-0.1-2.3-0.2-3.5-0.3c-0.5-0.1-1,0.2-1.3,0.6s-0.4,0.9-0.3,1.4
		c0.5,1.9,1.2,4.4,1.5,5.2c0.1,0.2,0.2,0.3,0.2,0.5c1,1.4,2.2,3,3.4,4.6c1.1,1.5,2.3,2.8,3.6,4.2c1.9,2.1,3.7,4,5.2,5.6
		c0.2,0.2,0.4,0.6,0.4,1c0,6.6,0,64.7,0,64.7c0,0.2,13.5,0.2,13.5,0v-36.8c0-0.4,0.2-0.8,0.4-1c2.5-2.6,6.1-6.3,9.9-10.4
		c1.9-1.9,3.7-4,5.4-6c1.8-2.1,3.4-4.1,4.8-5.9c0.2-0.2,0.2-0.4,0.3-0.6c0.1-0.2,0.2-0.7,0.2-1.2c0.2-0.6-0.1-1.3-0.6-1.6
		s-1.2-0.3-1.7,0.1c-0.8,0.6-1.6,1.2-2.4,1.8c-0.4,0.3-1,0.3-1.4,0.1c-0.5-0.2-0.7-0.7-0.6-1.2l0,0c0-0.6-0.2-1-0.7-1.3
		c-0.5-0.2-1-0.2-1.5,0.2c-1.1,0.9-2.3,1.9-3.4,2.8c-2,1.7-4,3.6-6,5.4C79.2,303.3,79.1,303.4,79,303.5L79,303.5z"/>
	<path class="st2" d="M76.8,321.3l-5.8,6c-0.6,0.6-0.6,1.5,0.1,2c0.6,0.6,1.5,0.6,2-0.1l3.5-3.5v-3.5
		C76.4,321.9,76.6,321.6,76.8,321.3L76.8,321.3z"/>
	<path class="st0" d="M69.7,349.1v-3c0-0.8,0.6-1.5,1.5-1.5c0.8,0,1.5,0.6,1.5,1.5v3c0,0.8-0.6,1.5-1.5,1.5
		C70.3,350.5,69.7,349.9,69.7,349.1z"/>
	<path class="st0" d="M69.7,290.2v-0.9c0-0.8,0.6-1.5,1.5-1.5c0.8,0,1.5,0.6,1.5,1.5v0.9c0,0.8-0.6,1.5-1.5,1.5
		C70.3,291.6,69.7,290.9,69.7,290.2z"/>
	<path class="st0" d="M66.1,339.1V338c0-0.8,0.6-1.5,1.5-1.5s1.5,0.6,1.5,1.5v1c0,0.8-0.6,1.5-1.5,1.5S66.1,339.8,66.1,339.1z"/>
</g>
<g>
	<path class="st2" d="M168.4,346.2c0,0.2,0.1,0.4,0.2,0.6l2.8,10h-11.9l1.2-10.6H168.4L168.4,346.2z"/>
	<path class="st2" d="M204.2,273.6l2.9-0.9c0.7-0.2,1.1-1,0.9-1.8c-0.2-0.7-1-1.1-1.8-0.9l-2.9,0.9c-0.7,0.2-1.1,1-0.9,1.8
		C202.6,273.4,203.4,273.8,204.2,273.6z"/>
	<path class="st2" d="M221.3,240.4l2.9-0.9c0.7-0.2,1.1-1,0.9-1.8s-1-1.1-1.8-0.9l-2.9,0.9c-0.7,0.2-1.1,1-0.9,1.8
		C219.8,240.2,220.5,240.6,221.3,240.4z"/>
	<path class="st2" d="M209.4,277.3l1.4-0.4c0.7-0.2,1.1-1,0.9-1.8c-0.2-0.7-1-1.1-1.8-0.9l-1.4,0.4c-0.7,0.2-1.1,1-0.9,1.8
		C207.8,277.1,208.6,277.5,209.4,277.3z"/>
	<path class="st2" d="M212.5,265.7l1.4-0.4c0.7-0.2,1.1-1,0.9-1.8s-1-1.1-1.8-0.9l-1.4,0.4c-0.7,0.2-1.1,1-0.9,1.8
		C210.9,265.5,211.7,265.9,212.5,265.7z"/>
	<path class="st2" d="M212.5,238.3l1.4-0.4c0.7-0.2,1.1-1,0.9-1.8c-0.2-0.7-1-1.1-1.8-0.9l-1.4,0.4c-0.7,0.2-1.1,1-0.9,1.8
		C210.9,238.2,211.7,238.6,212.5,238.3z"/>
	<path class="st2" d="M219.7,282.4l1.6-1.7c0.6-0.6,1.5-0.6,2-0.1c0.6,0.6,0.6,1.5,0.1,2c0,0-14.9,16-21.2,22.8
		c-1.4,1.5-1.9,3.6-1.5,5.6c2.1,8.7,7,29,8.1,33.3c0.1,0.4,0.2,0.8,0.5,1.1c1.5,2.5,6.2,10.4,6.2,10.4c0.2,0.4,0.2,1,0,1.5
		s-0.7,0.7-1.2,0.7h-11.5c-0.6,0-1.2-0.5-1.4-1.1c0,0-9-38.2-11.6-49.5c-0.6-2.3-0.2-4.8,1.1-6.9c2.9-4.7,8.6-13.8,8.6-13.8
		c0.4-0.6,1.3-0.9,1.9-0.5c0.3,0.2,0.5,0.5,0.6,0.8L219.7,282.4L219.7,282.4z"/>
	<path class="st2" d="M184.6,276c0.7-0.7,1.1-1.6,1.1-2.7v-14c-1.2,1-2.9,1.9-5.2,1.7c-7-0.5-6.9-7.3-6.9-8.1
		c0-10.4,7.6-19.7,17.4-21.5c0,0,41.2-7.7,48.5-9.1c0.8-0.2,1.7-0.2,2.5-0.2h13.5v2.8c-0.9,0-1.8,0.4-2.6,1.1
		c-1,0.8-1.9,2.1-2.7,3.6c-2.7,5-4.4,13.1-4.4,22.3c0,9.1,1.7,17.3,4.4,22.3c0.8,1.5,1.7,2.7,2.7,3.6c0.8,0.7,1.7,1.1,2.6,1.1
		c0.8,0,1.5,0.6,1.5,1.5s-0.6,1.5-1.5,1.5h-29.7c-1.5,0-2.9,0.2-4.3,0.6c-9.4,3-44.5,14.2-44.5,14.2c-0.4,0.2-0.7,0.3-1,0.6
		c-0.9,0.6-1.5,1.6-1.6,2.7c-1.5,14.8-3.1,29.7-4.6,44.5c-0.1,0.6,0,1.2,0.2,1.8l2.8,10c0.1,0.4,0,0.9-0.2,1.2
		c-0.2,0.3-0.7,0.6-1.1,0.6h-11.9c-0.4,0-0.8-0.2-1-0.5s-0.4-0.7-0.3-1.1c0,0,6-53.7,7.4-66.5c0.2-2.2,1.5-4,3.4-5.1l8.2-4.6
		L184.6,276z M178.4,282.9l-8.3,4.6c-1,0.6-1.9,1.7-1.9,2.9l-7.3,64.9h8.5l-2.3-8.2c-0.2-0.9-0.3-1.9-0.2-2.8
		c1.5-14.8,3.1-29.7,4.6-44.5c0.2-1.9,1.2-3.6,2.7-4.8c0.6-0.4,1.2-0.7,1.9-0.9l0,0c0,0,35.1-11.2,44.5-14.2
		c1.7-0.6,3.4-0.8,5.2-0.8h24.4c-0.8-0.9-1.6-2-2.3-3.4c-2.8-5.3-4.8-14-4.8-23.6c0-9.6,1.9-18.3,4.8-23.6c0.7-1.4,1.5-2.5,2.3-3.4
		h-8c-0.6,0-1.3,0.1-1.9,0.2c-7.3,1.4-48.5,9.1-48.5,9.1c-8.6,1.6-15.2,9.7-15.2,18.8v0.1c0,0-0.4,4.8,4.2,5.1
		c3.8,0.2,4.8-3.4,5-4.1v-7c0-0.8,0.6-1.5,1.5-1.5c0.8,0,1.5,0.6,1.5,1.5v26.2c0,0.2,0,0.2,0,0.4l3.3-1.9c0.6-0.4,1.5-0.2,1.9,0.6
		c0.4,0.6,0.2,1.5-0.6,1.9l-7,4c-0.3,0.2-0.6,0.5-1,0.7L178.4,282.9L178.4,282.9z"/>
</g>
<g>
	<path class="st2" d="M162.5,272.5c0.2,0.2,0.5,0.4,0.8,0.4c0.5-0.1,1.3-0.2,1.9-0.2c0.4-0.1,0.7-0.5,0.7-0.9
		c-0.1-0.8-0.2-1.9-0.3-2.9c0-0.2-0.2-0.5-0.4-0.6c-0.2-0.2-0.6-0.1-0.8,0c-0.8,0.5-1.9,1-2.6,1.5c-0.2,0.1-0.3,0.3-0.4,0.5
		s0,0.4,0.1,0.6C161.9,271.4,162.3,272.1,162.5,272.5L162.5,272.5z"/>
	<path class="st2" d="M218.5,207c0.3-0.2,0.5-0.5,0.4-0.8c0-0.2,0-0.6-0.1-0.8c0-0.4-0.4-0.8-0.8-0.7c-0.3,0-0.8,0-1.1,0.1
		c-0.2,0-0.5,0.2-0.6,0.4c-0.2,0.2-0.2,0.5,0,0.8c0.2,0.4,0.4,0.7,0.6,1.1c0.1,0.2,0.2,0.3,0.5,0.4s0.4,0.1,0.6-0.1
		C218.1,207.2,218.3,207,218.5,207z"/>
	<path class="st2" d="M175.2,347.5c0.2-0.2,0.4-0.5,0.3-0.8c-0.1-0.4-0.2-1-0.3-1.5c-0.1-0.4-0.5-0.7-1-0.6
		c-0.6,0.2-1.5,0.3-2.3,0.5c-0.2,0.1-0.5,0.2-0.6,0.5s-0.1,0.6,0.1,0.7c0.4,0.6,1,1.5,1.4,2c0.2,0.2,0.3,0.3,0.6,0.3
		c0.2,0,0.4,0,0.6-0.2C174.4,348.2,174.9,347.8,175.2,347.5L175.2,347.5z"/>
	<path class="st2" d="M142.6,242.3c0.2-0.2,0.2-0.6,0.2-0.9c-0.2-0.2-0.3-0.6-0.4-1c-0.2-0.4-0.6-0.6-1-0.4s-1,0.4-1.5,0.6
		c-0.2,0.1-0.4,0.3-0.5,0.6c-0.1,0.2,0,0.6,0.2,0.7c0.4,0.4,0.8,0.8,1.1,1.1c0.2,0.2,0.4,0.2,0.6,0.2s0.4-0.1,0.6-0.2
		C142.1,242.8,142.3,242.5,142.6,242.3z"/>
	<path class="st2" d="M158.5,263.3c-0.2,0.3-0.7,0.5-1,0.2c-0.5-0.2-1-0.6-1.6-0.9c-0.2-0.1-0.3-0.3-0.4-0.6c0-0.2,0-0.5,0.2-0.6
		c0.3-0.4,0.8-0.9,1.1-1.2c0.2-0.3,0.7-0.3,1-0.1c0.4,0.3,0.9,0.7,1.2,1c0.3,0.2,0.4,0.7,0.2,1C159,262.6,158.8,263,158.5,263.3
		L158.5,263.3z"/>
	<path class="st2" d="M213.4,197.4c0.3,0.2,0.4,0.7,0.2,1c-0.3,0.4-0.7,1-1,1.5c-0.2,0.2-0.3,0.3-0.6,0.3c-0.2,0-0.5-0.1-0.6-0.2
		c-0.4-0.4-0.8-0.8-1.1-1.1s-0.3-0.8,0-1.1s0.8-0.8,1.1-1.2c0.2-0.3,0.7-0.3,1-0.1C212.7,196.8,213.1,197.1,213.4,197.4L213.4,197.4
		z"/>
	<path class="st2" d="M144.4,232.5c-0.1,0.1-0.1,0.2-0.1,0.4c0,0.2,0.2,0.2,0.2,0.2c0.7,0.3,2.2,0.8,3.1,1.1c0.2,0.1,0.3,0,0.4-0.1
		s0.2-0.2,0.2-0.4c-0.3-1-0.8-3-1.1-4.1c-0.1-0.2-0.2-0.2-0.3-0.3c-0.2,0-0.3,0.1-0.4,0.2C145.7,230.4,144.8,231.8,144.4,232.5
		L144.4,232.5z"/>
	<path class="st2" d="M218.5,176.8c0-0.2-0.2-0.2-0.2-0.2c-0.1-0.1-0.2-0.1-0.4,0c-0.7,0.4-2.1,1.1-2.9,1.5
		c-0.2,0.1-0.2,0.2-0.2,0.4c0,0.2,0.1,0.3,0.2,0.4c1,0.5,2.8,1.4,3.9,1.9c0.2,0.1,0.3,0.1,0.5-0.1c0.2-0.1,0.2-0.2,0.2-0.4
		C219.2,179.2,218.8,177.6,218.5,176.8L218.5,176.8z"/>
	<path class="st2" d="M154.6,291.1c-0.2,0-0.2,0-0.4,0.1c-0.1,0.1-0.2,0.2-0.2,0.3c0,0.6-0.1,1.6-0.2,2.3c0,0.2,0.1,0.3,0.2,0.4
		c0.2,0.1,0.3,0.1,0.5,0c0.7-0.5,1.8-1.1,2.5-1.6c0.2-0.1,0.2-0.2,0.2-0.4c0-0.2-0.2-0.3-0.3-0.3
		C156.2,291.6,155.2,291.2,154.6,291.1z"/>
</g>
<g>
	<path class="st2" d="M259.7,358.7c2.4-3.2,4-8.2,4-13.9c0-5.6-1.5-10.6-4-13.9c-2.4-3.2-4-8.2-4-13.9s1.5-10.6,4-13.9
		c2.4-3.2,4-8.2,4-13.9c0-5.6-1.5-10.6-4-13.9c-2.4-3.2-4-8.2-4-13.9c0-5.7,1.5-10.6,4-13.9c2.4-3.2,4-8.2,4-13.9s-1.5-10.6-4-13.9
		c-2.4-3.2-4-8.2-4-13.9c0-5.6,1.5-10.6,4-13.9c2.4-3.2,4-8.2,4-13.9s-1.5-10.6-4-13.9c-2.4-3.2-4-8.2-4-13.9c0-5.6,1.5-10.6,4-13.9
		c2.4-3.2,4-8.2,4-13.9c0-9.8-3.1-13.5-13.5-13.5c-10.5,0-13.5,3.1-13.5,13.5c0,5.6-1.5,10.6-4,13.9c-2.4,3.2-4,8.2-4,13.9
		c0,5.6,1.5,10.6,4,13.9c2.4,3.2,4,8.2,4,13.9s-1.5,10.6-4,13.9c-2.4,3.2-4,8.2-4,13.9c0,5.6,1.5,10.6,4,13.9c2.4,3.2,4,8.2,4,13.9
		s-1.5,10.6-4,13.9c-2.4,3.2-4,8.2-4,13.9c0,5.6,1.5,10.6,4,13.9c2.4,3.2,4,8.2,4,13.9s-1.5,10.6-4,13.9c-2.4,3.2-4,8.2-4,13.9
		c0,5.6,1.5,10.6,4,13.9c2.4,3.2,4,8.2,4,13.9c0,5.6-1.5,10.6-4,13.9H259.7L259.7,358.7z"/>
	<path class="st0" d="M259.2,219.4c0.2,0.2,0.2,0.4,0.4,0.6c0.5,0.6,1,1.5,1.4,2.3h-1.5c-2.6,0-5,2.2-6.9,5.8
		c-2.9,5.4-4.8,14.2-4.8,24c0,9.8,1.9,18.6,4.8,24c1.9,3.6,4.4,5.8,6.9,5.8h3c0.2,0.9,0.5,1.9,0.6,2.8h-3.6c-3.4,0-6.9-2.5-9.4-7.3
		c-3.1-5.7-5.1-15-5.1-25.4c0-10.4,2-19.7,5.1-25.4C252.6,222,256,219.5,259.2,219.4L259.2,219.4z"/>
	<path class="st0" d="M247.1,281.3c-3.1-5.2-5.4-13.1-6.2-22.2c-0.1-0.8-0.7-1.4-1.5-1.3s-1.4,0.7-1.3,1.5
		c0.8,9.6,3.3,17.8,6.6,23.4c0.4,0.6,1.3,0.9,1.9,0.5C247.2,282.9,247.5,282,247.1,281.3L247.1,281.3z"/>
	<path class="st0" d="M240.5,252c0-2,0.1-4,0.2-5.8c0.1-0.8-0.6-1.5-1.3-1.5c-0.8-0.1-1.5,0.6-1.5,1.3c-0.2,1.9-0.2,4-0.2,6
		c0,0.8,0.6,1.5,1.5,1.5C239.9,253.5,240.5,252.9,240.5,252L240.5,252z"/>
	<path class="st0" d="M245.1,226.6c0.6-1.4,1.2-2.7,1.9-3.8c1.4-2.3,3-4.2,4.8-5.4c0.6-0.5,0.8-1.4,0.3-2s-1.4-0.8-2-0.3
		c-2,1.5-3.9,3.5-5.6,6.3c-0.7,1.2-1.5,2.7-2.1,4.1c-0.3,0.7,0,1.5,0.7,1.9C244,227.7,244.8,227.4,245.1,226.6L245.1,226.6z"/>
	<path class="st0" d="M251.8,290.2c0,0,3.2,2,7.2,1.1c0.8-0.2,1.3-0.9,1.1-1.7c-0.2-0.8-0.9-1.3-1.7-1.1c-2.8,0.6-5.1-0.8-5.1-0.8
		c-0.6-0.4-1.5-0.2-1.9,0.5C250.9,288.9,251.2,289.8,251.8,290.2L251.8,290.2z"/>
	<path class="st0" d="M243.5,116.3v-1c0-0.8,0.6-1.5,1.5-1.5c0.8,0,1.5,0.6,1.5,1.5v1h1c0.8,0,1.5,0.6,1.5,1.5
		c0,0.8-0.6,1.5-1.5,1.5h-1v1c0,0.8-0.6,1.5-1.5,1.5c-0.8,0-1.5-0.6-1.5-1.5v-1h-1c-0.8,0-1.5-0.6-1.5-1.5c0-0.8,0.6-1.5,1.5-1.5
		L243.5,116.3L243.5,116.3z"/>
	<path class="st0" d="M246,176v-1c0-0.8,0.6-1.5,1.5-1.5c0.8,0,1.5,0.6,1.5,1.5v1h1c0.8,0,1.5,0.6,1.5,1.5c0,0.8-0.6,1.5-1.5,1.5h-1
		v1c0,0.8-0.6,1.5-1.5,1.5c-0.8,0-1.5-0.6-1.5-1.5v-1h-1c-0.8,0-1.5-0.6-1.5-1.5s0.6-1.5,1.5-1.5H246L246,176z"/>
	<path class="st0" d="M236.8,207.6v-1c0-0.8,0.6-1.5,1.5-1.5c0.8,0,1.5,0.6,1.5,1.5v1h1c0.8,0,1.5,0.6,1.5,1.5
		c0,0.8-0.6,1.5-1.5,1.5h-1v1c0,0.8-0.6,1.5-1.5,1.5c-0.8,0-1.5-0.6-1.5-1.5v-1h-1c-0.8,0-1.5-0.6-1.5-1.5c0-0.8,0.6-1.5,1.5-1.5
		H236.8L236.8,207.6z"/>
	<path class="st0" d="M237.5,309.9v-1c0-0.8,0.6-1.5,1.5-1.5c0.8,0,1.5,0.6,1.5,1.5v1h1c0.8,0,1.5,0.6,1.5,1.5s-0.6,1.5-1.5,1.5h-1
		v1c0,0.8-0.6,1.5-1.5,1.5c-0.8,0-1.5-0.6-1.5-1.5v-1h-1c-0.8,0-1.5-0.6-1.5-1.5s0.6-1.5,1.5-1.5H237.5z"/>
	<path class="st0" d="M253.5,350.7v-1c0-0.8,0.6-1.5,1.5-1.5c0.8,0,1.5,0.6,1.5,1.5v1h1c0.8,0,1.5,0.6,1.5,1.5s-0.6,1.5-1.5,1.5h-1
		v1c0,0.8-0.6,1.5-1.5,1.5c-0.8,0-1.5-0.6-1.5-1.5v-1h-1c-0.8,0-1.5-0.6-1.5-1.5s0.6-1.5,1.5-1.5H253.5z"/>
	<path class="st0" d="M247.6,126.3v-0.2c0-0.8,0.6-1.5,1.5-1.5c0.8,0,1.5,0.6,1.5,1.5v0.2h0.2c0.8,0,1.5,0.6,1.5,1.5
		c0,0.8-0.6,1.5-1.5,1.5h-0.2v0.2c0,0.8-0.6,1.5-1.5,1.5c-0.8,0-1.5-0.6-1.5-1.5v-0.2h-0.2c-0.8,0-1.5-0.6-1.5-1.5
		c0-0.8,0.6-1.5,1.5-1.5H247.6z"/>
	<path class="st0" d="M238,160.5v-0.2c0-0.8,0.6-1.5,1.5-1.5c0.8,0,1.5,0.6,1.5,1.5v0.2h0.2c0.8,0,1.5,0.6,1.5,1.5
		c0,0.8-0.6,1.5-1.5,1.5H241v0.2c0,0.8-0.6,1.5-1.5,1.5c-0.8,0-1.5-0.6-1.5-1.5v-0.2h-0.2c-0.8,0-1.5-0.6-1.5-1.5
		c0-0.8,0.6-1.5,1.5-1.5H238z"/>
	<path class="st0" d="M250.6,190.6v-0.2c0-0.8,0.6-1.5,1.5-1.5c0.8,0,1.5,0.6,1.5,1.5v0.2h0.2c0.8,0,1.5,0.6,1.5,1.5
		s-0.6,1.5-1.5,1.5h-0.2v0.2c0,0.8-0.6,1.5-1.5,1.5c-0.8,0-1.5-0.6-1.5-1.5v-0.3h-0.1c-0.8,0-1.5-0.6-1.5-1.5
		S249.7,190.6,250.6,190.6L250.6,190.6z"/>
	<path class="st0" d="M249.7,299v-0.2c0-0.8,0.6-1.5,1.5-1.5c0.8,0,1.5,0.6,1.5,1.5v0.2h0.2c0.8,0,1.5,0.6,1.5,1.5
		c0,0.8-0.6,1.5-1.5,1.5h-0.2v0.2c0,0.8-0.6,1.5-1.5,1.5c-0.8,0-1.5-0.6-1.5-1.5V302h-0.2c-0.8,0-1.5-0.6-1.5-1.5
		c0-0.8,0.6-1.5,1.5-1.5H249.7z"/>
	<path class="st0" d="M244.8,337.3v-0.2c0-0.8,0.6-1.5,1.5-1.5c0.8,0,1.5,0.6,1.5,1.5v0.2h0.2c0.8,0,1.5,0.6,1.5,1.5
		c0,0.8-0.6,1.5-1.5,1.5h-0.2v0.2c0,0.8-0.6,1.5-1.5,1.5c-0.8,0-1.5-0.6-1.5-1.5v-0.2h-0.2c-0.8,0-1.5-0.6-1.5-1.5
		c0-0.8,0.6-1.5,1.5-1.5H244.8z"/>
	<path class="st0" d="M245,150.8v-0.2c0-0.8,0.6-1.5,1.5-1.5c0.8,0,1.5,0.6,1.5,1.5v0.2h0.2c0.8,0,1.5,0.6,1.5,1.5
		c0,0.8-0.6,1.5-1.5,1.5H248v0.2c0,0.8-0.6,1.5-1.5,1.5c-0.8,0-1.5-0.6-1.5-1.5v-0.2h-0.2c-0.8,0-1.5-0.6-1.5-1.5
		c0-0.8,0.6-1.5,1.5-1.5H245z"/>
</g>
<g>
	<path class="st2" d="M336.9,246.6v2.5c0,3.3-2.7,6-6,6c-1.9,0-3.5,1.5-3.7,3.3v0.6c-0.2,3.5-3.1,6.1-6.7,6.1h-3.1
		c-1.5,2.7-2.5,4.4-2.7,4.8c-0.6,1.3-1.5,2.3-2.7,2.9l-4.3,2.1l-12.1,5.9c-0.3,0.2-0.6,0.4-0.7,0.8l-1.9,5.2l0,0l-0.8,2.3l0,0
		l-3.5,9.6c-0.1,0.2-0.1,0.3-0.1,0.4l-3.2,9.2c-0.2,0.6-0.3,1.2-0.3,1.9c0,0,0.2,9.9,0.2,15.2c0,0.6-0.3,1-0.8,1.2s-1,0.1-1.5-0.2
		c-1-1-1.9-1.9-1.9-1.9c-0.6-0.6-1.5-0.6-2,0c-0.6,0.6-0.6,1.5,0,2c0,0,4.5,4.5,5.9,5.9c0.2,0.2,0.4,0.6,0.4,0.9c0,0.4,0,1,0,1.7
		c0,0.6-0.3,1-0.8,1.2s-1,0.1-1.5-0.3c-1-1-2-2-2-2c-0.6-0.6-1.5-0.6-2,0c-0.6,0.6-0.6,1.5,0,2c0,0,4.7,4.7,6,6
		c0.2,0.2,0.4,0.6,0.4,0.9c0,0.4,0,0.9,0,0.9c0,0.6,0.1,1.1,0.3,1.7l3.6,10.6c0.2,0.4,0.1,0.9-0.2,1.3s-0.7,0.6-1.1,0.6h-11.9
		c-0.8,0-8.5-5.4-8.5-6.2c0,0-0.2,1.1-0.2-4.6l0,0v-35.7c-0.9-0.5-1.5-1.5-1.5-2.5v-27.3h-6.4c-2.9,0-5.6-2.2-7.8-6.2
		c-2.8-5.3-4.8-14-4.8-23.6c0-9.6,1.9-18.3,4.8-23.6c2.2-4,4.9-6.2,7.8-6.2h24.5c2.6,0,5.1-0.9,7-2.6c4.4-3.8,11.8-10.2,15.2-13.1
		c1.1-1,2-2.1,2.7-3.5l4.7-9.6c0.1-0.2,0.1-0.2,0.2-0.4l2.4-5.1c-0.8-0.1-0.6-0.2,0.2-0.5c-6.6-0.2-11.5-0.3-11.5-0.3
		c-1.3,0-2.4-0.5-3.3-1.5l-15.4-17.7c-0.6-0.6-1-1.6-1-2.5l1.2-24.2c0-1.4,1.1-2.5,2.5-2.5s2.5,1.1,2.5,2.5l1.1,22.6
		c0,0,11.3,11.1,13.8,13.5c0.3,0.3,0.7,0.5,1.1,0.5l0,0c1.1,0,2.1-0.7,2.6-1.7s0.3-2.2-0.4-3.1c-2-2.4-4.1-4.9-4.1-4.9
		c-0.6-0.6-0.9-1.4-0.9-2.2l1-13.1c0-1.2,1-2.1,2.1-2.1c1.2,0,2.1,1,2.1,2.1l0.9,11.7l7.1,6.7c2.3-0.1,7.3-0.3,12.2-0.3
		c4.9,0,9.8,0.2,12.2,0.4l7.1-6.7l0.9-11.7c0-1.2,1-2.1,2.1-2.1s2.1,1,2.1,2.1l1,13.1c0,0.8-0.3,1.5-0.8,2.1c0,0-2,2.4-4,4.8
		c-0.7,0.9-0.9,2.1-0.4,3.1s1.5,1.8,2.7,1.8l0,0c0.4,0,0.9-0.2,1.1-0.5c2.5-2.5,13.6-13.5,13.6-13.5l1-22.7c0-1.4,1.1-2.5,2.5-2.5
		s2.5,1.1,2.5,2.5l1.1,24.2c0,0.9-0.3,1.8-1,2.4l-15.2,17.6c-0.8,0.9-2,1.5-3.3,1.5c0,0-4.1,0.2-10,0.3l20.4,13.5
		c0.9,0.6,1.5,1.5,1.6,2.5v0.2v0.1l0,0c0,0.1,0,0.2,0,0.3l-2.4,10c-0.4,1.5-1.7,2.6-3.2,2.7c-4.4,0.4-11.5,1-14.9,1.3
		c-0.2,0-0.3,0-0.5,0.1c-0.6,0.1-1.2,0.4-1.6,0.8c-0.2,0.2-0.7,1-1.5,2.3v16.4C343.2,241.8,340.6,245.3,336.9,246.6L336.9,246.6z
		 M306.3,331.7c1.2-5.5,5.2-23.6,6.8-30.7c0.2-1.2-0.2-2.4-1.3-3l-16.2-9.5l1.9-5.2l12.1-5.9l13.5,11c1.7,1.4,2.4,3.5,1.9,5.7
		c0,0-3.8,15.9-5.5,22.8c-0.2,0.5-0.6,0.9-1,1c-0.6,0.1-1-0.2-1.4-0.6c-0.8-1.3-1.5-2.6-1.5-2.6c-0.4-0.6-1.3-0.9-1.9-0.5
		s-0.9,1.3-0.5,1.9c0,0,3.4,5.7,4.4,7.4c0.2,0.3,0.2,0.6,0.2,1c-0.1,0.4-0.2,1-0.4,1.5c-0.2,0.5-0.6,0.9-1,1c-0.6,0.1-1-0.2-1.3-0.6
		c-0.8-1.4-1.6-2.7-1.6-2.7c-0.4-0.6-1.3-0.9-1.9-0.5s-0.9,1.3-0.5,1.9c0,0,3.5,5.9,4.5,7.6c0.2,0.3,0.2,0.6,0.2,1s-0.2,0.7-0.2,0.9
		c0,0.1,0,0.2,0,0.2c0,0.2,0,0.2,0,0.4v11.3c0,0.5-0.2,0.9-0.6,1.1s-0.9,0.3-1.3,0.2l-10-3.4c-0.7-0.2-6.6-6.8-6.4-7.5
		c0,0,0,0,1.9-5.4c0,0,0,0,0.1-0.1l1.8-25.2c-0.2-0.1-0.3-0.2-0.5-0.4l-7.9-8.3l2.2-6l9.9,10.4c1,1.1,1,3-0.1,4
		c-0.2,0.2-0.5,0.4-0.7,0.5l-1.8,25.6c1.5,0.3,3.1,0.7,3.8,0.7c0.2-0.1,0.2-0.1,0.3-0.2c0.1-0.3,0.2-0.6,0.3-0.9L306.3,331.7
		L306.3,331.7z M272.1,275.8v33.4c0,1-0.6,2-1.5,2.5v35.2c1.9-0.2,4.3-0.4,4.3-0.6v-70.5c0-0.8-0.6-1.5-1.5-1.5
		C272.7,274.4,272.1,275,272.1,275.8L272.1,275.8z M334.1,247.1c-0.1,0-0.2,0-0.3,0h-5.9c-3.2,5.6-6.4,11-8.8,15.2h1.5
		c1.9,0,3.6-1.4,3.8-3.2v-0.8c0.2-3.4,3.1-6.1,6.5-6.1c1.7,0,3.1-1.4,3.1-3.1L334.1,247.1L334.1,247.1z M334.1,244.3v-7.7
		c-1.5,2.5-3,5.1-4.5,7.7h4.2C333.8,244.3,334,244.3,334.1,244.3L334.1,244.3z M340.4,226c-1,1.7-2.2,3.6-3.4,5.7v11.8
		c2-1.1,3.4-3.3,3.4-5.7V226z"/>
	<g>
		<path class="st0" d="M292.7,160.2h-6.8l0.2-2.8h6.5L292.7,160.2L292.7,160.2z M292.4,153.7h-6.1l0.2-2.8h5.9V153.7L292.4,153.7z"
			/>
		<path class="st0" d="M374.8,160.2h-6.7l0.2-2.8h6.5V160.2z M374.5,153.7h-6.1l0.2-2.8h5.8L374.5,153.7L374.5,153.7z"/>
		<path class="st0" d="M359.4,209.4c0,0,0.2,0.2,0.8,0.6c0.2,0.1,0.3,0.2,0.6,0.2s0.4-0.1,0.6-0.2c0.6-0.2,0.8-0.6,0.8-0.6
			c0.4,0,0.7-0.3,0.7-0.7c0-0.4-0.3-0.7-0.7-0.7c0,0-0.2-0.2-0.8-0.6c-0.2-0.1-0.3-0.2-0.6-0.2s-0.4,0.1-0.6,0.2
			c-0.6,0.3-0.8,0.6-0.8,0.6c-0.4,0-0.7,0.3-0.7,0.7S359,209.4,359.4,209.4z"/>
		<path class="st0" d="M353.4,209.4c0,0,0.2,0.2,0.8,0.6c0.2,0.1,0.3,0.2,0.6,0.2s0.4-0.1,0.6-0.2c0.6-0.2,0.8-0.6,0.8-0.6
			c0.4,0,0.7-0.3,0.7-0.7c0-0.4-0.3-0.7-0.7-0.7c0,0-0.2-0.2-0.8-0.6c-0.2-0.1-0.3-0.2-0.6-0.2s-0.4,0.1-0.6,0.2
			c-0.6,0.3-0.8,0.6-0.8,0.6c-0.4,0-0.7,0.3-0.7,0.7C352.6,209.1,353,209.4,353.4,209.4z"/>
		<path class="st0" d="M347.3,209.4c0,0,0.2,0.2,0.8,0.6c0.2,0.1,0.3,0.2,0.6,0.2s0.4-0.1,0.6-0.2c0.6-0.2,0.8-0.6,0.8-0.6
			c0.4,0,0.7-0.3,0.7-0.7c0-0.4-0.3-0.7-0.7-0.7c0,0-0.2-0.2-0.8-0.6c-0.2-0.1-0.3-0.2-0.6-0.2s-0.4,0.1-0.6,0.2
			c-0.6,0.3-0.8,0.6-0.8,0.6c-0.4,0-0.7,0.3-0.7,0.7S346.9,209.4,347.3,209.4z"/>
		<path class="st0" d="M356.4,205.6c0,0,0.2,0.2,0.8,0.6c0.2,0.1,0.3,0.2,0.6,0.2s0.4-0.1,0.6-0.2c0.6-0.2,0.8-0.6,0.8-0.6
			c0.4,0,0.7-0.3,0.7-0.7s-0.3-0.7-0.7-0.7c0,0-0.2-0.2-0.8-0.6c-0.2-0.1-0.3-0.2-0.6-0.2s-0.4,0.1-0.6,0.2
			c-0.6,0.3-0.8,0.6-0.8,0.6c-0.4,0-0.7,0.3-0.7,0.7S356,205.6,356.4,205.6z"/>
		<path class="st0" d="M350.4,205.6c0,0,0.2,0.2,0.8,0.6c0.2,0.1,0.3,0.2,0.6,0.2s0.4-0.1,0.6-0.2c0.6-0.2,0.8-0.6,0.8-0.6
			c0.4,0,0.7-0.3,0.7-0.7s-0.3-0.7-0.7-0.7c0,0-0.2-0.2-0.8-0.6c-0.2-0.1-0.3-0.2-0.6-0.2s-0.4,0.1-0.6,0.2
			c-0.6,0.3-0.8,0.6-0.8,0.6c-0.4,0-0.7,0.3-0.7,0.7S350,205.6,350.4,205.6z"/>
		<path class="st0" d="M356.4,213.1c0,0,0.2,0.2,0.8,0.6c0.2,0.1,0.3,0.2,0.6,0.2s0.4-0.1,0.6-0.2c0.6-0.2,0.8-0.6,0.8-0.6
			c0.4,0,0.7-0.3,0.7-0.7s-0.3-0.7-0.7-0.7c0,0-0.2-0.2-0.8-0.6c-0.2-0.1-0.3-0.2-0.6-0.2s-0.4,0.1-0.6,0.2
			c-0.6,0.3-0.8,0.6-0.8,0.6c-0.4,0-0.7,0.3-0.7,0.7C355.7,212.8,356,213.1,356.4,213.1z"/>
		<path class="st0" d="M350.4,213.1c0,0,0.2,0.2,0.8,0.6c0.2,0.1,0.3,0.2,0.6,0.2s0.4-0.1,0.6-0.2c0.6-0.2,0.8-0.6,0.8-0.6
			c0.4,0,0.7-0.3,0.7-0.7s-0.3-0.7-0.7-0.7c0,0-0.2-0.2-0.8-0.6c-0.2-0.1-0.3-0.2-0.6-0.2s-0.4,0.1-0.6,0.2
			c-0.6,0.3-0.8,0.6-0.8,0.6c-0.4,0-0.7,0.3-0.7,0.7C349.7,212.8,350,213.1,350.4,213.1z"/>
		<circle class="st0" cx="347.4" cy="182" r="2"/>
		<circle class="st0" cx="342.2" cy="176.9" r="2"/>
		<circle class="st0" cx="270.2" cy="238.3" r="2.7"/>
		<circle class="st0" cx="260.1" cy="238.3" r="2.7"/>
		<path class="st0" d="M292,219.1l19.3,19.3c0.6,0.6,0.6,1.5,0,2l-6,6c-0.6,0.6-1.5,0.6-2,0l-5-5l-4.7,4.7c-0.2,0.2-0.6,0.4-1,0.4
			h-26.5l18.8,18.8h21.4c0-0.1,0-0.1,0-0.2c0-6.4,5.2-11.6,11.6-11.6c2,0,4,0.6,5.6,1.5c-0.5,0.8-1,1.7-1.5,2.5
			c-1.2-0.6-2.7-1-4.2-1c-4.8,0-8.7,4-8.7,8.7c0,3.1,1.6,5.7,4,7.3c-0.3,0.2-0.6,0.4-0.9,0.6l-1.9,0.9c-1.8-1.5-3.1-3.5-3.6-5.8
			h-22.3c-0.4,0-0.7-0.2-1-0.4l-21.2-21.2H248c-0.1,0-0.1,0-0.2,0c0.1-1,0.2-1.9,0.2-2.8h44l10.2-10.2L289.6,221
			c0.6-0.3,1.1-0.7,1.6-1.1L292,219.1L292,219.1z M304.3,235.4l-4,4l4,4l4-4L304.3,235.4z M320.9,222l2.4-2.4c0.6-0.6,0.6-1.5,0-2
			c-0.6-0.6-1.5-0.6-2,0l-2.4,2.4c-0.6,0.6-0.6,1.5,0,2S320.4,222.5,320.9,222z M308.6,222l2.4-2.4c0.6-0.6,0.6-1.5,0-2
			c-0.6-0.6-1.5-0.6-2,0l-2.4,2.4c-0.6,0.6-0.6,1.5,0,2S308.1,222.5,308.6,222z M314.8,222l2.4-2.4c0.6-0.6,0.6-1.5,0-2
			c-0.6-0.6-1.5-0.6-2,0l-2.4,2.4c-0.6,0.6-0.6,1.5,0,2S314.2,222.5,314.8,222z M351.2,187.3c-1.5,0.1-3.5,0.1-5.6,0.2l4.1,2.7h-17
			c-0.9,0-1.5,0.7-1.5,1.5v2.2c0,0.9,0.7,1.5,1.5,1.5h25l4.4,2.8h-29.4c-0.7,0-1.4-0.2-1.9-0.5l0,0l-13.4,13.4
			c-0.2,0.2-0.6,0.4-1,0.4h-15.6l3.3-2.8h11.7l13-13l0,0c-0.3-0.6-0.5-1.2-0.5-1.9v-2.2c0-2.4,2-4.4,4.4-4.4L351.2,187.3
			L351.2,187.3z M315.1,187.5h4.4c0.8,0,1.5,0.6,1.5,1.5s-0.6,1.5-1.5,1.5h-4.2l1.1-2.3c-0.8-0.1-0.6-0.2,0.2-0.5
			C316.2,187.5,315.7,187.5,315.1,187.5L315.1,187.5z M326.7,171.2l-4,4h7.1l4-4c1.4,0,2.7,0.1,4,0.1l-6.3,6.3
			c-0.2,0.2-0.6,0.4-1,0.4h-10.6l-9.4,9.4c-1.7-0.1-3.1-0.1-4-0.1l11.5-11.5c0.1-0.2,0.2-0.2,0.3-0.3l4.2-4.2
			C323.8,171.2,325.3,171.2,326.7,171.2L326.7,171.2z"/>
		<g>
			<path class="st6" d="M292,219.1l19.3,19.3c0.6,0.6,0.6,1.5,0,2l-6,6c-0.6,0.6-1.5,0.6-2,0l-5-5l-4.7,4.7c-0.2,0.2-0.6,0.4-1,0.4
				h-26.5l18.8,18.8h21.4c0-0.1,0-0.1,0-0.2c0-6.4,5.2-11.6,11.6-11.6c2,0,4,0.6,5.6,1.5c-0.5,0.8-1,1.7-1.5,2.5
				c-1.2-0.6-2.7-1-4.2-1c-4.8,0-8.7,4-8.7,8.7c0,3.1,1.6,5.7,4,7.3c-0.3,0.2-0.6,0.4-0.9,0.6l-1.9,0.9c-1.8-1.5-3.1-3.5-3.6-5.8
				h-22.3c-0.4,0-0.7-0.2-1-0.4l-21.2-21.2H248c-0.1,0-0.1,0-0.2,0c0.1-1,0.2-1.9,0.2-2.8h44l10.2-10.2L289.6,221
				c0.6-0.3,1.1-0.7,1.6-1.1L292,219.1L292,219.1z M304.3,235.4l-4,4l4,4l4-4L304.3,235.4z M320.9,222l2.4-2.4c0.6-0.6,0.6-1.5,0-2
				c-0.6-0.6-1.5-0.6-2,0l-2.4,2.4c-0.6,0.6-0.6,1.5,0,2S320.4,222.5,320.9,222z M308.6,222l2.4-2.4c0.6-0.6,0.6-1.5,0-2
				c-0.6-0.6-1.5-0.6-2,0l-2.4,2.4c-0.6,0.6-0.6,1.5,0,2S308.1,222.5,308.6,222z M314.8,222l2.4-2.4c0.6-0.6,0.6-1.5,0-2
				c-0.6-0.6-1.5-0.6-2,0l-2.4,2.4c-0.6,0.6-0.6,1.5,0,2S314.2,222.5,314.8,222z M351.2,187.3c-1.5,0.1-3.5,0.1-5.6,0.2l4.1,2.7h-17
				c-0.9,0-1.5,0.7-1.5,1.5v2.2c0,0.9,0.7,1.5,1.5,1.5h25l4.4,2.8h-29.4c-0.7,0-1.4-0.2-1.9-0.5l0,0l-13.4,13.4
				c-0.2,0.2-0.6,0.4-1,0.4h-15.6l3.3-2.8h11.7l13-13l0,0c-0.3-0.6-0.5-1.2-0.5-1.9v-2.2c0-2.4,2-4.4,4.4-4.4L351.2,187.3
				L351.2,187.3z M315.1,187.5h4.4c0.8,0,1.5,0.6,1.5,1.5s-0.6,1.5-1.5,1.5h-4.2l1.1-2.3c-0.8-0.1-0.6-0.2,0.2-0.5
				C316.2,187.5,315.7,187.5,315.1,187.5L315.1,187.5z M326.7,171.2l-4,4h7.1l4-4c1.4,0,2.7,0.1,4,0.1l-6.3,6.3
				c-0.2,0.2-0.6,0.4-1,0.4h-10.6l-9.4,9.4c-1.7-0.1-3.1-0.1-4-0.1l11.5-11.5c0.1-0.2,0.2-0.2,0.3-0.3l4.2-4.2
				C323.8,171.2,325.3,171.2,326.7,171.2L326.7,171.2z"/>
			<g>
				<path class="st0" d="M274.9,285.9v-10.1c0-0.8-0.6-1.5-1.5-1.5s-1.5,0.6-1.5,1.5v10.1c0,0.8,0.6,1.5,1.5,1.5
					S274.9,286.7,274.9,285.9z"/>
				<path class="st0" d="M359.4,209.4c0,0,0.2,0.2,0.8,0.6c0.2,0.1,0.3,0.2,0.6,0.2s0.4-0.1,0.6-0.2c0.6-0.2,0.8-0.6,0.8-0.6
					c0.4,0,0.7-0.3,0.7-0.7c0-0.4-0.3-0.7-0.7-0.7c0,0-0.2-0.2-0.8-0.6c-0.2-0.1-0.3-0.2-0.6-0.2s-0.4,0.1-0.6,0.2
					c-0.6,0.3-0.8,0.6-0.8,0.6c-0.4,0-0.7,0.3-0.7,0.7S359,209.4,359.4,209.4z"/>
				<path class="st0" d="M353.4,209.4c0,0,0.2,0.2,0.8,0.6c0.2,0.1,0.3,0.2,0.6,0.2s0.4-0.1,0.6-0.2c0.6-0.2,0.8-0.6,0.8-0.6
					c0.4,0,0.7-0.3,0.7-0.7c0-0.4-0.3-0.7-0.7-0.7c0,0-0.2-0.2-0.8-0.6c-0.2-0.1-0.3-0.2-0.6-0.2s-0.4,0.1-0.6,0.2
					c-0.6,0.3-0.8,0.6-0.8,0.6c-0.4,0-0.7,0.3-0.7,0.7C352.6,209.1,353,209.4,353.4,209.4z"/>
				<path class="st0" d="M347.3,209.4c0,0,0.2,0.2,0.8,0.6c0.2,0.1,0.3,0.2,0.6,0.2s0.4-0.1,0.6-0.2c0.6-0.2,0.8-0.6,0.8-0.6
					c0.4,0,0.7-0.3,0.7-0.7c0-0.4-0.3-0.7-0.7-0.7c0,0-0.2-0.2-0.8-0.6c-0.2-0.1-0.3-0.2-0.6-0.2s-0.4,0.1-0.6,0.2
					c-0.6,0.3-0.8,0.6-0.8,0.6c-0.4,0-0.7,0.3-0.7,0.7S346.9,209.4,347.3,209.4z"/>
				<path class="st0" d="M356.4,205.6c0,0,0.2,0.2,0.8,0.6c0.2,0.1,0.3,0.2,0.6,0.2s0.4-0.1,0.6-0.2c0.6-0.2,0.8-0.6,0.8-0.6
					c0.4,0,0.7-0.3,0.7-0.7s-0.3-0.7-0.7-0.7c0,0-0.2-0.2-0.8-0.6c-0.2-0.1-0.3-0.2-0.6-0.2s-0.4,0.1-0.6,0.2
					c-0.6,0.3-0.8,0.6-0.8,0.6c-0.4,0-0.7,0.3-0.7,0.7S356,205.6,356.4,205.6z"/>
				<path class="st0" d="M350.4,205.6c0,0,0.2,0.2,0.8,0.6c0.2,0.1,0.3,0.2,0.6,0.2s0.4-0.1,0.6-0.2c0.6-0.2,0.8-0.6,0.8-0.6
					c0.4,0,0.7-0.3,0.7-0.7s-0.3-0.7-0.7-0.7c0,0-0.2-0.2-0.8-0.6c-0.2-0.1-0.3-0.2-0.6-0.2s-0.4,0.1-0.6,0.2
					c-0.6,0.3-0.8,0.6-0.8,0.6c-0.4,0-0.7,0.3-0.7,0.7S350,205.6,350.4,205.6z"/>
				<path class="st0" d="M356.4,213.1c0,0,0.2,0.2,0.8,0.6c0.2,0.1,0.3,0.2,0.6,0.2s0.4-0.1,0.6-0.2c0.6-0.2,0.8-0.6,0.8-0.6
					c0.4,0,0.7-0.3,0.7-0.7s-0.3-0.7-0.7-0.7c0,0-0.2-0.2-0.8-0.6c-0.2-0.1-0.3-0.2-0.6-0.2s-0.4,0.1-0.6,0.2
					c-0.6,0.3-0.8,0.6-0.8,0.6c-0.4,0-0.7,0.3-0.7,0.7C355.7,212.8,356,213.1,356.4,213.1z"/>
				<path class="st0" d="M350.4,213.1c0,0,0.2,0.2,0.8,0.6c0.2,0.1,0.3,0.2,0.6,0.2s0.4-0.1,0.6-0.2c0.6-0.2,0.8-0.6,0.8-0.6
					c0.4,0,0.7-0.3,0.7-0.7s-0.3-0.7-0.7-0.7c0,0-0.2-0.2-0.8-0.6c-0.2-0.1-0.3-0.2-0.6-0.2s-0.4,0.1-0.6,0.2
					c-0.6,0.3-0.8,0.6-0.8,0.6c-0.4,0-0.7,0.3-0.7,0.7C349.7,212.8,350,213.1,350.4,213.1z"/>
				<circle class="st0" cx="347.4" cy="182" r="2"/>
				<circle class="st0" cx="342.2" cy="176.9" r="2"/>
			</g>
		</g>
		<circle class="st0" cx="274.9" cy="351.3" r="2.2"/>
		<circle class="st0" cx="304.3" cy="338" r="2.2"/>
	</g>
</g>
<line class="st7" x1="498.3" y1="360" x2="0" y2="360"/>
</svg>
