<?xml version="1.0" encoding="utf-8"?>
<!-- Generator: Adobe Illustrator 25.0.1, SVG Export Plug-In . SVG Version: 6.00 Build 0)  -->
<svg version="1.1" id="Layer_1" xmlns:serif="http://www.serif.com/"
	 xmlns="http://www.w3.org/2000/svg" xmlns:xlink="http://www.w3.org/1999/xlink" x="0px" y="0px" viewBox="0 0 498.3 252.6"
	 style="enable-background:new 0 0 498.3 252.6;" xml:space="preserve">
<style type="text/css">
	.st0{fill-rule:evenodd;clip-rule:evenodd;fill:#009092;}
	.st1{fill-rule:evenodd;clip-rule:evenodd;fill:#FFFFFF;}
	.st2{fill-rule:evenodd;clip-rule:evenodd;fill:#003E3F;}
	.st3{fill-rule:evenodd;clip-rule:evenodd;fill:#F1F1F1;stroke:#E86166;stroke-width:2;stroke-miterlimit:10;}
	.st4{fill:none;}
	.st5{fill:none;stroke:#003E3F;stroke-width:3;stroke-miterlimit:10;}
</style>
<g>
	<path class="st0" d="M248.9,0.2c137.7,0.3,249.4,112.3,249.4,250H248.9V0.2L248.9,0.2z"/>
	<path class="st1" d="M248.9,212.3c1.2,0.1,2.4,0.2,3.6,0.1c2.6-0.1,5-0.5,7.2-1.1c1.9-0.6,3.5-1.3,4.8-2.1c0.3-0.2,0.7-0.5,1.2-0.8
		l0,0l0,0l0,0c0.4-0.3,0.9-0.6,1.4-1l0,0c2-1.3,4.4-2.4,7.2-3.2c2.7-0.8,5.8-1.3,9-1.4s6.3,0.2,9.1,0.9c3.5,0.8,6.5,2.2,9,3.9
		c1.5,1,3.5,1.9,5.8,2.3c2.1,0.5,4.4,0.6,6.9,0.6c2.4-0.1,4.7-0.5,6.7-1c2.2-0.6,4-1.5,5.4-2.7l0.5-0.3c2.3-1.7,5.3-3.1,8.7-4.1
		c2.9-0.8,6-1.3,9.4-1.5c3.4-0.1,6.6,0.3,9.6,1c3.8,0.9,7,2.4,9.6,4.2l0.6,0.3c1.3,0.7,2.9,1.3,4.7,1.7c1.9,0.5,4.1,0.6,6.4,0.6
		c2.3,0,4.4-0.5,6.2-1c1.9-0.6,3.5-1.4,4.8-2.3l0.5-0.4c2.5-1.9,5.6-3.4,9.4-4.4c3-0.9,6.4-1.4,9.9-1.5c4.4-0.2,8.5,0.5,12.1,1.6
		c3.2,1,6,2.3,8.2,4l0.5,0.3c1.1,0.6,2.5,1,4,1.5c1.8,0.4,3.8,0.6,5.9,0.5c2-0.1,4-0.4,5.7-1c1.6-0.5,3-1.2,4-2
		c2.3-1.8,5.1-3.3,8.4-4.4c3.7-1.3,8-2.1,12.5-2.2c4.6-0.2,9,0.6,12.7,1.7c3.4,1,6.4,2.5,8.8,4.2c1,0.7,2.3,1,3.9,1.5
		c0.4,0.1,0.9,0.2,1.4,0.2c1.3,7.1,2.3,14.3,3,21.5c-4.3-0.2-8.3-1-11.9-2.3c-3.4-1.2-6.3-2.7-8.6-4.6c-1-0.8-2.3-1.5-3.7-1.9
		c-1.7-0.5-3.5-0.9-5.5-0.9c-2-0.1-3.9,0.1-5.6,0.5c-1.4,0.3-2.7,0.7-3.7,1.3L458,219c-2.3,1.6-5.1,3.1-8.3,4
		c-3.7,1-7.9,1.8-12.4,1.6c-3.6-0.1-7.1-0.6-10.2-1.5c-4-1.2-7.5-2.9-10.2-4.9l-0.5-0.3c-1-0.7-2.4-1.4-4-1.9c-1.9-0.6-3.8-0.9-6-1
		s-4.2,0.1-6.1,0.5c-1.9,0.4-3.5,1-4.8,1.9c-2.2,1.5-4.8,2.9-8,3.8c-3.5,1-7.5,1.6-11.8,1.5c-3.5-0.1-6.8-0.6-9.7-1.5
		c-3.8-1.1-7-2.7-9.5-4.7l-0.5-0.4c-1.2-0.9-2.7-1.6-4.5-2.1c-1.9-0.6-4.1-1-6.5-1c-2.3-0.1-4.6,0.1-6.6,0.6c-1.9,0.4-3.5,1-4.9,1.9
		l-0.6,0.4c-2.5,1.7-5.6,3.1-9.3,4c-2.8,0.6-6,1-9.4,1s-6.5-0.6-9.2-1.4c-3.4-1-6.3-2.4-8.5-4.1l-0.6-0.4c-1.5-1-3.3-1.9-5.4-2.6
		c-2.1-0.6-4.4-1-6.9-1.1s-4.9,0.2-7.1,0.6c-2.4,0.6-4.5,1.4-6.1,2.5c-2.3,1.6-5.2,2.9-8.6,3.7c-2.7,0.6-5.7,1-8.9,0.9
		c-1.2,0-2.4-0.2-3.6-0.2L248.9,212.3L248.9,212.3z M248.9,164.8c1.2,0.1,2.4,0.2,3.6,0.1c2.6-0.1,5-0.5,7.2-1.1
		c1.9-0.6,3.5-1.3,4.8-2.1c0.3-0.2,0.7-0.5,1.2-0.8l0,0l0,0l0,0c0.4-0.3,0.9-0.6,1.4-1l0,0c2-1.3,4.4-2.4,7.2-3.2
		c2.7-0.8,5.8-1.3,9-1.4s6.3,0.2,9.1,0.9c3.5,0.8,6.5,2.2,9,3.9c1.5,1,3.5,1.9,5.8,2.3c2.1,0.5,4.4,0.6,6.9,0.6
		c2.4-0.1,4.7-0.5,6.7-1c2.2-0.6,4-1.5,5.4-2.7l0.5-0.3c2.3-1.7,5.3-3.1,8.7-4.1c2.9-0.8,6-1.3,9.4-1.5c3.4-0.1,6.6,0.3,9.6,1
		c3.8,0.9,7,2.4,9.6,4.2l0.6,0.3c1.3,0.7,2.9,1.3,4.7,1.7c1.9,0.5,4.1,0.6,6.4,0.6c2.3-0.1,4.4-0.5,6.2-1c1.9-0.6,3.5-1.4,4.8-2.3
		l0.5-0.4c2.5-1.9,5.6-3.4,9.4-4.4c3-0.9,6.4-1.4,9.9-1.5c4.4-0.2,8.5,0.5,12.1,1.6c3.2,1,6,2.3,8.2,4l0.5,0.3c1.1,0.6,2.5,1,4,1.5
		c1.8,0.4,3.8,0.6,5.9,0.5c2-0.1,4-0.4,5.7-1c1.6-0.5,3-1.2,4-2c2.3-1.8,5.1-3.3,8.4-4.4c3.7-1.3,8-2.1,12.5-2.2
		c3.6-0.1,7.1,0.3,10.2,1c3.8,8.6,7,17.5,9.8,26.5c-0.7-0.2-1.5-0.4-2.1-0.6c-3.4-1.2-6.3-2.7-8.6-4.6c-1-0.8-2.3-1.5-3.7-1.9
		c-1.7-0.5-3.5-0.9-5.5-0.9c-2-0.1-3.9,0.1-5.6,0.5c-1.4,0.3-2.7,0.7-3.7,1.3l-0.6,0.4c-2.3,1.6-5.1,3.1-8.3,4
		c-3.7,1-7.9,1.8-12.4,1.6c-3.6-0.1-7.1-0.6-10.2-1.5c-4-1.2-7.5-2.9-10.2-4.9l-0.5-0.3c-1-0.7-2.4-1.4-4-1.9c-1.9-0.6-3.8-0.9-6-1
		s-4.2,0.1-6.1,0.5c-1.9,0.4-3.5,1-4.8,1.9c-2.2,1.5-4.8,2.9-8,3.8c-3.5,1-7.5,1.6-11.8,1.5c-3.5-0.1-6.8-0.6-9.7-1.5
		c-3.8-1.1-7-2.7-9.5-4.7l-0.5-0.4c-1.2-0.9-2.7-1.6-4.5-2.1c-1.9-0.6-4.1-1-6.5-1c-2.3-0.1-4.6,0.1-6.6,0.6c-1.9,0.4-3.5,1-4.9,1.9
		l-0.6,0.4c-2.5,1.7-5.6,3.1-9.3,4c-2.8,0.6-6,1-9.4,1c-3.3-0.1-6.5-0.6-9.2-1.4c-3.4-1-6.3-2.4-8.5-4.1l-0.6-0.4
		c-1.5-1-3.3-1.9-5.4-2.6c-2.1-0.7-4.4-1-6.9-1.1s-4.9,0.2-7.1,0.6c-2.4,0.6-4.5,1.4-6.1,2.5c-2.3,1.6-5.2,2.9-8.6,3.7
		c-2.7,0.6-5.7,1-8.9,0.9c-1.2,0-2.4-0.2-3.6-0.2L248.9,164.8L248.9,164.8z M248.9,115.3c1.2,0.1,2.4,0.2,3.6,0.1
		c2.6-0.1,5-0.5,7.2-1.1c1.9-0.6,3.5-1.3,4.8-2.1c0.3-0.2,0.7-0.5,1.2-0.8l0,0l0,0l0,0c0.4-0.3,0.9-0.6,1.4-1l0,0
		c2-1.3,4.4-2.4,7.2-3.2c2.7-0.8,5.8-1.3,9-1.4s6.3,0.2,9.1,0.9c3.5,0.8,6.5,2.2,9,3.9c1.5,1,3.5,1.9,5.8,2.3
		c2.1,0.5,4.4,0.6,6.9,0.6c2.4-0.1,4.7-0.5,6.7-1c2.2-0.6,4-1.5,5.4-2.7l0.5-0.3c2.3-1.7,5.3-3.1,8.7-4.1c2.9-0.8,6-1.3,9.4-1.5
		c3.4-0.1,6.6,0.3,9.6,1c3.8,0.9,7,2.4,9.6,4.2l0.6,0.3c1.3,0.7,2.9,1.3,4.7,1.7c1.9,0.5,4.1,0.6,6.4,0.6c2.3-0.1,4.4-0.5,6.2-1
		c1.9-0.6,3.5-1.4,4.8-2.3l0.5-0.4c2.5-1.9,5.6-3.4,9.4-4.4c3-0.9,6.4-1.4,9.9-1.5c4.4-0.2,8.5,0.5,12.1,1.6c3.2,1,6,2.3,8.2,4
		l0.5,0.3c1.1,0.6,2.5,1,4,1.5c1.8,0.4,3.8,0.6,5.9,0.5c2-0.1,4-0.4,5.7-1c1.6-0.5,3-1.2,4-2c1.3-1,2.8-1.9,4.4-2.8
		c3.8,5.2,7.3,10.6,10.7,16.1c-1.4,0.3-2.6,0.6-3.6,1.2l-0.6,0.4c-2.3,1.6-5.1,3.1-8.3,4c-3.7,1-7.9,1.8-12.4,1.6
		c-3.6-0.1-7.1-0.6-10.2-1.5c-4-1.2-7.5-2.9-10.2-4.9l-0.5-0.3c-1-0.7-2.4-1.4-4-1.9c-1.9-0.6-3.8-0.9-6-1c-2.2-0.1-4.2,0.1-6.1,0.5
		s-3.5,1-4.8,1.9c-2.2,1.5-4.8,2.9-8,3.8c-3.5,1-7.5,1.6-11.8,1.5c-3.5-0.1-6.8-0.6-9.7-1.5c-3.8-1.1-7-2.7-9.5-4.7l-0.5-0.4
		c-1.2-0.9-2.7-1.6-4.5-2.1c-1.9-0.6-4.1-1-6.5-1c-2.3-0.1-4.6,0.1-6.6,0.6c-1.9,0.4-3.5,1-4.9,1.9l-0.7,0.4c-2.5,1.7-5.6,3.1-9.3,4
		c-2.8,0.6-6,1-9.4,1c-3.3-0.1-6.5-0.6-9.2-1.4c-3.4-1-6.3-2.4-8.5-4.1l-0.6-0.4c-1.5-1-3.3-1.9-5.4-2.6c-2.1-0.6-4.4-1-6.9-1.1
		s-4.9,0.2-7.1,0.6c-2.4,0.6-4.5,1.4-6.1,2.5c-2.3,1.6-5.2,2.9-8.6,3.7c-2.7,0.6-5.7,1-8.9,0.9c-1.2,0-2.4-0.2-3.6-0.2L248.9,115.3
		L248.9,115.3z M403.2,54.1c9.5,7.5,18.4,15.6,26.7,24.4c-1.1-0.2-2.3-0.5-3.4-0.8c-4-1.2-7.5-2.9-10.2-4.9l-0.5-0.3
		c-1-0.7-2.4-1.4-4-1.9c-1.9-0.6-3.8-0.9-6-1c-2.2-0.1-4.2,0.1-6.1,0.5c-1.9,0.4-3.5,1-4.8,1.9c-2.2,1.5-4.8,2.9-8,3.8
		c-3.5,1-7.5,1.6-11.8,1.5c-3.5-0.1-6.8-0.6-9.7-1.5c-3.8-1.1-7-2.7-9.5-4.7l-0.5-0.4c-1.2-0.9-2.7-1.6-4.5-2.1
		c-1.9-0.6-4.1-1-6.5-1c-2.3-0.1-4.6,0.1-6.6,0.6c-1.9,0.4-3.5,1-4.9,1.9l-0.6,0.4c-2.5,1.7-5.6,3.1-9.3,4c-2.8,0.6-6,1-9.4,1
		c-3.3-0.1-6.5-0.6-9.2-1.4c-3.4-1-6.3-2.4-8.5-4.1l-0.6-0.4c-1.5-1-3.3-1.9-5.4-2.6c-2.1-0.6-4.4-1-6.9-1.1s-4.9,0.2-7.1,0.6
		c-2.4,0.6-4.5,1.4-6.1,2.5c-2.3,1.6-5.2,2.9-8.6,3.7c-2.7,0.6-5.7,1-8.9,0.9c-1.2,0-2.4-0.2-3.6-0.2v-6c1.2,0.1,2.4,0.2,3.6,0.1
		c2.6-0.1,5-0.5,7.2-1.1c1.9-0.6,3.5-1.3,4.8-2.1c0.3-0.2,0.7-0.5,1.2-0.8l0,0l0,0l0,0c0.4-0.3,0.9-0.6,1.4-1l0,0
		c2-1.3,4.4-2.4,7.2-3.2c2.7-0.8,5.8-1.3,9-1.4s6.3,0.2,9.1,0.9c3.5,0.8,6.5,2.2,9,3.9c1.5,1,3.5,1.9,5.8,2.3
		c2.1,0.5,4.4,0.6,6.9,0.6c2.4-0.1,4.7-0.5,6.7-1c2.2-0.6,4-1.5,5.4-2.7l0.5-0.3c2.3-1.7,5.3-3.1,8.7-4.1c2.9-0.8,6-1.3,9.4-1.5
		c3.4-0.1,6.6,0.3,9.6,1c3.8,0.9,7,2.4,9.6,4.2l0.6,0.3c1.3,0.7,2.9,1.3,4.7,1.7c1.9,0.5,4.1,0.6,6.4,0.6c2.3-0.1,4.4-0.5,6.2-1
		c1.9-0.6,3.5-1.4,4.8-2.3l0.5-0.4c2.5-1.9,5.6-3.4,9.4-4.4C398.3,54.8,400.7,54.3,403.2,54.1L403.2,54.1z"/>
</g>
<g>
	<path class="st2" d="M44.6,237.2v-22c0-0.8,0.6-1.5,1.5-1.5s1.5,0.6,1.5,1.5v34.9c0,0.8-0.6,1.5-1.5,1.5s-1.5-0.6-1.5-1.5v-5.4
		l-4.9-6.3c-0.2-0.3-0.3-0.9-0.1-1.2c0.2-0.4,0.6-0.6,1.1-0.6L44.6,237.2z"/>
	<g>
		<path class="st3" d="M46.1,210.8c0.4-0.6,0.9-1,1.4-1.5c3.1-3.1,6.5-3.5,8.5-1.5c1.9,1.9,1.6,5.4-1.5,8.5c-0.5,0.5-1,0.9-1.5,1.4
			c0.6,0.4,1,0.9,1.5,1.4c3.1,3.1,3.5,6.5,1.5,8.5c-1.9,1.9-5.4,1.6-8.5-1.5c-0.5-0.5-0.9-1-1.4-1.5c-0.4,0.6-0.9,1-1.4,1.5
			c-3.1,3.1-6.5,3.5-8.5,1.5c-1.9-1.9-1.6-5.4,1.5-8.5c0.5-0.5,1-0.9,1.5-1.4c-0.6-0.4-1-0.9-1.5-1.4c-3.1-3.1-3.5-6.5-1.5-8.5
			c1.9-1.9,5.4-1.6,8.5,1.5C45.2,209.7,45.7,210.2,46.1,210.8z"/>
		<circle class="st2" cx="46.1" cy="217.6" r="3.9"/>
	</g>
</g>
<g>
	<path class="st2" d="M364.5,210.3c1.5,0,2.8,0.6,2.8,3.1s-1.3,6.1-2.8,6.1s-2.8-3.5-2.8-6.1C361.6,210.9,362.9,210.3,364.5,210.3z"
		/>
	<path class="st2" d="M372.3,213.3c-1.1-1.1-2.4-1.6-4.2,0.2c-1.8,1.8-3.4,5.2-2.3,6.3c1.1,1.1,4.5-0.5,6.3-2.3
		C373.9,215.7,373.5,214.4,372.3,213.3z"/>
	<path class="st2" d="M377.2,239.1c-1.1,1.1-2.4,1.6-4.2-0.2s-3.4-5.2-2.3-6.3c1.1-1.1,4.5,0.5,6.3,2.3
		C378.8,236.8,378.3,238.1,377.2,239.1z"/>
	<path class="st2" d="M353.6,221.1c0,1.5,0.6,2.8,3.1,2.8s6.1-1.3,6.1-2.8s-3.5-2.8-6.1-2.8C354.1,218.3,353.6,219.6,353.6,221.1z"
		/>
	<path class="st2" d="M357.7,238.5c0.5-1,1.1-1.9,1.9-2.7c0.5-0.5,1-1,1.5-1.5c1.4-1.4,2.1-3.1,2.1-5.1c0-2.6,0-5.6,0-5.6
		c0-0.8,0.6-1.5,1.5-1.5s1.5,0.6,1.5,1.5c0,0,0,3,0,5.6c0,2.7-1,5.2-2.9,7.1c-0.5,0.5-1,1-1.5,1.5c-1.4,1.4-2.1,3.1-2.1,5.1v5.9
		c0,0.8-0.6,1.5-1.5,1.5c-0.8,0-1.5-0.6-1.5-1.5v-4.2l-3.9-6.6c-0.2-0.4-0.2-1,0.2-1.4c0.3-0.3,0.9-0.4,1.4-0.2L357.7,238.5
		L357.7,238.5z"/>
	<circle class="st2" cx="364.5" cy="221.1" r="2.9"/>
</g>
<path class="st2" d="M386.7,250.2v-5.1c0-0.8-0.6-1.5-1.5-1.5s-1.5,0.6-1.5,1.5v5.1c0,0.8,0.6,1.5,1.5,1.5S386.7,251.1,386.7,250.2z
	"/>
<path class="st2" d="M457.3,250.2v-5.1c0-0.8-0.6-1.5-1.5-1.5c-0.8,0-1.5,0.6-1.5,1.5v5.1c0,0.8,0.6,1.5,1.5,1.5
	C456.6,251.7,457.3,251.1,457.3,250.2z"/>
<path class="st2" d="M392.5,250.2v-10.1c0-0.8-0.6-1.5-1.5-1.5c-0.8,0-1.5,0.6-1.5,1.5v10.1c0,0.8,0.6,1.5,1.5,1.5
	C391.9,251.7,392.5,251.1,392.5,250.2z"/>
<g>
	<path class="st2" d="M419.3,194.6c0.4,0.4,1,0.5,1.6,0.2c0.6-0.2,0.9-0.8,0.9-1.4c0-8.8,0-31.8,0-41.5c0-0.6,0.4-1.2,1-1.5
		c0.6-0.2,1.3,0,1.7,0.5c0.6,0.7,1.1,1.5,1.7,2.2c0.3,0.5,0.9,0.6,1.5,0.6c0.6-0.1,1-0.5,1.2-1c0.8-2.6,2-6.3,2.7-8.7
		c0.2-0.6,0.6-1,1.2-1c0.6-0.1,1.1,0.2,1.5,0.6c0.6,1.1,1.1,2.4,1.1,3.9v19c0,0.6,0.3,1,0.8,1.3c0.5,0.2,1,0.2,1.5-0.2l0,0
		c2.3-1.8,4.4-3.3,6.1-4.5c0.2-0.2,0.5-0.2,0.7-0.2c0.7-0.1,2.3-0.2,3.5-0.3c0.5-0.1,1,0.2,1.3,0.6c0.3,0.4,0.4,0.9,0.3,1.4
		c-0.5,1.9-1.2,4.4-1.5,5.2c-0.1,0.2-0.2,0.3-0.2,0.5c-1,1.4-2.2,3-3.4,4.6c-1.1,1.5-2.3,2.8-3.6,4.2c-1.9,2.1-3.7,4-5.2,5.6
		c-0.2,0.2-0.4,0.6-0.4,1c0,6.6,0,64.7,0,64.7c0,0.2-13.5,0.2-13.5,0v-36.8c0-0.4-0.2-0.8-0.4-1c-2.5-2.6-6.1-6.3-9.9-10.4
		c-1.9-1.9-3.7-4-5.4-6c-1.8-2.1-3.4-4.1-4.8-5.9c-0.2-0.2-0.2-0.4-0.3-0.6c-0.1-0.2-0.2-0.7-0.2-1.2c-0.2-0.6,0.1-1.3,0.6-1.6
		s1.2-0.3,1.7,0.1c0.8,0.6,1.6,1.2,2.4,1.8c0.4,0.3,1,0.3,1.4,0.1c0.5-0.2,0.7-0.7,0.6-1.2l0,0c0-0.6,0.2-1,0.7-1.3
		c0.5-0.2,1-0.2,1.5,0.2c1.1,0.9,2.3,1.9,3.4,2.8c2,1.7,4,3.6,6,5.4C419.1,194.4,419.2,194.5,419.3,194.6L419.3,194.6z"/>
	<path class="st2" d="M421.5,212.4l5.8,6c0.6,0.6,0.6,1.5-0.1,2c-0.6,0.6-1.5,0.6-2-0.1l-3.5-3.5v-3.5
		C421.9,213,421.7,212.7,421.5,212.4L421.5,212.4z"/>
	<path class="st0" d="M428.6,240.2v-3c0-0.8-0.6-1.5-1.5-1.5c-0.8,0-1.5,0.6-1.5,1.5v3c0,0.8,0.6,1.5,1.5,1.5
		C428,241.6,428.6,241,428.6,240.2z"/>
	<path class="st0" d="M428.6,181.3v-0.9c0-0.8-0.6-1.5-1.5-1.5c-0.8,0-1.5,0.6-1.5,1.5v0.9c0,0.8,0.6,1.5,1.5,1.5
		C428,182.7,428.6,182,428.6,181.3z"/>
	<path class="st0" d="M432.2,230.2v-1.1c0-0.8-0.6-1.5-1.5-1.5s-1.5,0.6-1.5,1.5v1c0,0.8,0.6,1.5,1.5,1.5S432.2,230.9,432.2,230.2z"
		/>
</g>
<g>
	<path class="st2" d="M329.9,237.3c0,0.2-0.1,0.4-0.2,0.6l-2.8,10h11.9l-1.2-10.6H329.9L329.9,237.3z"/>
	<path class="st2" d="M294.1,164.7l-2.9-0.9c-0.7-0.2-1.1-1-0.9-1.8c0.2-0.7,1-1.1,1.8-0.9l2.9,0.9c0.7,0.2,1.1,1,0.9,1.8
		C295.7,164.5,294.9,164.9,294.1,164.7z"/>
	<path class="st2" d="M277,131.5l-2.9-0.9c-0.7-0.2-1.1-1-0.9-1.8c0.2-0.8,1-1.1,1.8-0.9l2.9,0.9c0.7,0.2,1.1,1,0.9,1.8
		C278.5,131.3,277.8,131.7,277,131.5z"/>
	<path class="st2" d="M288.9,168.4l-1.4-0.4c-0.7-0.2-1.1-1-0.9-1.8c0.2-0.7,1-1.1,1.8-0.9l1.4,0.4c0.7,0.2,1.1,1,0.9,1.8
		C290.5,168.2,289.7,168.6,288.9,168.4z"/>
	<path class="st2" d="M285.8,156.8l-1.4-0.4c-0.7-0.2-1.1-1-0.9-1.8s1-1.1,1.8-0.9l1.4,0.4c0.7,0.2,1.1,1,0.9,1.8
		C287.4,156.6,286.6,157,285.8,156.8z"/>
	<path class="st2" d="M285.8,129.4l-1.4-0.4c-0.7-0.2-1.1-1-0.9-1.8c0.2-0.7,1-1.1,1.8-0.9l1.4,0.4c0.7,0.2,1.1,1,0.9,1.8
		C287.4,129.3,286.6,129.7,285.8,129.4z"/>
	<path class="st2" d="M278.6,173.5l-1.6-1.7c-0.6-0.6-1.5-0.6-2-0.1c-0.6,0.6-0.6,1.5-0.1,2c0,0,14.9,16,21.2,22.8
		c1.4,1.5,1.9,3.6,1.5,5.6c-2.1,8.7-7,29-8.1,33.3c-0.1,0.4-0.2,0.8-0.5,1.1c-1.5,2.5-6.2,10.4-6.2,10.4c-0.2,0.4-0.2,1,0,1.5
		c0.2,0.5,0.7,0.7,1.2,0.7h11.5c0.6,0,1.2-0.5,1.4-1.1c0,0,9-38.2,11.6-49.5c0.6-2.3,0.2-4.8-1.1-6.9c-2.9-4.7-8.6-13.8-8.6-13.8
		c-0.4-0.6-1.3-0.9-1.9-0.5c-0.3,0.2-0.5,0.5-0.6,0.8L278.6,173.5L278.6,173.5z"/>
	<path class="st2" d="M313.7,167.1c-0.7-0.7-1.1-1.6-1.1-2.7v-14c1.2,1,2.9,1.9,5.2,1.7c7-0.5,6.9-7.3,6.9-8.1
		c0-10.4-7.6-19.7-17.4-21.5c0,0-41.2-7.7-48.5-9.1c-0.8-0.2-1.7-0.2-2.5-0.2h-13.5v2.8c0.9,0,1.8,0.4,2.6,1.1
		c1,0.8,1.9,2.1,2.7,3.6c2.7,5,4.4,13.1,4.4,22.3c0,9.1-1.7,17.3-4.4,22.3c-0.8,1.5-1.7,2.7-2.7,3.6c-0.8,0.7-1.7,1.1-2.6,1.1
		c-0.8,0-1.5,0.6-1.5,1.5s0.6,1.5,1.5,1.5h29.7c1.5,0,2.9,0.2,4.3,0.6c9.4,3,44.5,14.2,44.5,14.2c0.4,0.2,0.7,0.3,1,0.6
		c0.9,0.6,1.5,1.6,1.6,2.7c1.5,14.8,3.1,29.7,4.6,44.5c0.1,0.6,0,1.2-0.2,1.8l-2.8,10c-0.1,0.4,0,0.9,0.2,1.2
		c0.2,0.3,0.7,0.6,1.1,0.6h11.9c0.4,0,0.8-0.2,1-0.5c0.2-0.3,0.4-0.7,0.3-1.1c0,0-6-53.7-7.4-66.5c-0.2-2.2-1.5-4-3.4-5.1l-8.2-4.6
		L313.7,167.1z M319.9,174l8.3,4.6c1,0.6,1.9,1.7,1.9,2.9l7.3,64.9h-8.5l2.3-8.2c0.2-0.9,0.3-1.9,0.2-2.8
		c-1.5-14.8-3.1-29.7-4.6-44.5c-0.2-1.9-1.2-3.6-2.7-4.8c-0.6-0.4-1.2-0.7-1.9-0.9l0,0c0,0-35.1-11.2-44.5-14.2
		c-1.7-0.6-3.4-0.8-5.2-0.8h-24.4c0.8-0.9,1.6-2,2.3-3.4c2.8-5.3,4.8-14,4.8-23.6s-1.9-18.3-4.8-23.6c-0.7-1.4-1.5-2.5-2.3-3.4h8
		c0.6,0,1.3,0.1,1.9,0.2c7.3,1.4,48.5,9.1,48.5,9.1c8.6,1.6,15.2,9.7,15.2,18.8v0.1c0,0,0.4,4.8-4.2,5.1c-3.8,0.2-4.8-3.4-5-4.1v-7
		c0-0.8-0.6-1.5-1.5-1.5c-0.8,0-1.5,0.6-1.5,1.5v26.2c0,0.2,0,0.2,0,0.4l-3.3-1.9c-0.6-0.4-1.5-0.2-1.9,0.6
		c-0.4,0.6-0.2,1.5,0.6,1.9l7,4c0.3,0.2,0.6,0.5,1,0.7L319.9,174L319.9,174z"/>
</g>
<g>
	<path class="st2" d="M238.6,249.8c-2.4-3.2-4-8.2-4-13.9c0-5.6,1.5-10.6,4-13.9c2.4-3.2,4-8.2,4-13.9s-1.5-10.6-4-13.9
		c-2.4-3.2-4-8.2-4-13.9c0-5.6,1.5-10.6,4-13.9c2.4-3.2,4-8.2,4-13.9s-1.5-10.6-4-13.9c-2.4-3.2-4-8.2-4-13.9c0-5.7,1.5-10.6,4-13.9
		c2.4-3.2,4-8.2,4-13.9c0-5.6-1.5-10.6-4-13.9c-2.4-3.2-4-8.2-4-13.9s1.5-10.6,4-13.9c2.4-3.2,4-8.2,4-13.9c0-5.6-1.5-10.6-4-13.9
		c-2.4-3.2-4-8.2-4-13.9c0-9.8,3.1-13.5,13.5-13.5c10.5,0,13.5,3.1,13.5,13.5c0,5.6,1.5,10.6,4,13.9c2.4,3.2,4,8.2,4,13.9
		c0,5.6-1.5,10.6-4,13.9c-2.4,3.2-4,8.2-4,13.9s1.5,10.6,4,13.9c2.4,3.2,4,8.2,4,13.9c0,5.6-1.5,10.6-4,13.9c-2.4,3.2-4,8.2-4,13.9
		c0,5.7,1.5,10.6,4,13.9c2.4,3.2,4,8.2,4,13.9c0,5.6-1.5,10.6-4,13.9c-2.4,3.2-4,8.2-4,13.9s1.5,10.6,4,13.9c2.4,3.2,4,8.2,4,13.9
		c0,5.6-1.5,10.6-4,13.9c-2.4,3.2-4,8.2-4,13.9c0,5.6,1.5,10.6,4,13.9H238.6L238.6,249.8z"/>
	<path class="st0" d="M239.1,110.5c-0.2,0.2-0.2,0.4-0.4,0.6c-0.5,0.6-1,1.5-1.4,2.3h1.5c2.6,0,5,2.2,6.9,5.8
		c2.9,5.4,4.8,14.2,4.8,24s-1.9,18.6-4.8,24c-1.9,3.6-4.4,5.8-6.9,5.8h-3c-0.2,0.9-0.5,1.9-0.6,2.8h3.6c3.4,0,6.9-2.5,9.4-7.3
		c3.1-5.7,5.1-15,5.1-25.4s-2-19.7-5.1-25.4C245.7,113.1,242.3,110.6,239.1,110.5L239.1,110.5z"/>
	<path class="st0" d="M251.2,172.4c3.1-5.2,5.4-13.1,6.2-22.2c0.1-0.8,0.7-1.4,1.5-1.3c0.8,0.1,1.4,0.7,1.3,1.5
		c-0.8,9.6-3.3,17.8-6.6,23.4c-0.4,0.6-1.3,0.9-1.9,0.5C251.1,174,250.8,173.1,251.2,172.4L251.2,172.4z"/>
	<path class="st0" d="M257.8,143.1c0-2-0.1-4-0.2-5.8c-0.1-0.8,0.6-1.5,1.3-1.5c0.8-0.1,1.5,0.6,1.5,1.3c0.2,1.9,0.2,4,0.2,6
		c0,0.8-0.6,1.5-1.5,1.5C258.4,144.6,257.8,144,257.8,143.1L257.8,143.1z"/>
	<path class="st0" d="M253.2,117.7c-0.6-1.4-1.2-2.7-1.9-3.8c-1.4-2.3-3-4.2-4.8-5.4c-0.6-0.5-0.8-1.4-0.3-2s1.4-0.8,2-0.3
		c2,1.5,3.9,3.5,5.6,6.3c0.7,1.2,1.5,2.7,2.1,4.1c0.3,0.7,0,1.5-0.7,1.9C254.3,118.8,253.5,118.5,253.2,117.7L253.2,117.7z"/>
	<path class="st0" d="M246.5,181.3c0,0-3.2,2-7.2,1.1c-0.8-0.2-1.3-0.9-1.1-1.7c0.2-0.8,0.9-1.3,1.7-1.1c2.8,0.6,5.1-0.8,5.1-0.8
		c0.6-0.4,1.5-0.2,1.9,0.5C247.4,180,247.1,180.9,246.5,181.3L246.5,181.3z"/>
	<path class="st0" d="M254.8,7.4v-1c0-0.8-0.6-1.5-1.5-1.5c-0.8,0-1.5,0.6-1.5,1.5v1h-1c-0.8,0-1.5,0.6-1.5,1.5
		c0,0.8,0.6,1.5,1.5,1.5h1v1c0,0.8,0.6,1.5,1.5,1.5c0.8,0,1.5-0.6,1.5-1.5v-1h1c0.8,0,1.5-0.6,1.5-1.5c0-0.8-0.6-1.5-1.5-1.5H254.8
		L254.8,7.4z"/>
	<path class="st0" d="M252.3,67.1v-1c0-0.8-0.6-1.5-1.5-1.5c-0.8,0-1.5,0.6-1.5,1.5v1h-1c-0.8,0-1.5,0.6-1.5,1.5
		c0,0.8,0.6,1.5,1.5,1.5h1v1c0,0.8,0.6,1.5,1.5,1.5c0.8,0,1.5-0.6,1.5-1.5v-1h1c0.8,0,1.5-0.6,1.5-1.5s-0.6-1.5-1.5-1.5H252.3
		L252.3,67.1z"/>
	<path class="st0" d="M261.5,98.7v-1c0-0.8-0.6-1.5-1.5-1.5c-0.8,0-1.5,0.6-1.5,1.5v1h-1c-0.8,0-1.5,0.6-1.5,1.5
		c0,0.8,0.6,1.5,1.5,1.5h1v1c0,0.8,0.6,1.5,1.5,1.5c0.8,0,1.5-0.6,1.5-1.5v-1h1c0.8,0,1.5-0.6,1.5-1.5c0-0.8-0.6-1.5-1.5-1.5H261.5
		L261.5,98.7z"/>
	<path class="st0" d="M260.8,201v-1c0-0.8-0.6-1.5-1.5-1.5c-0.8,0-1.5,0.6-1.5,1.5v1h-1c-0.8,0-1.5,0.6-1.5,1.5s0.6,1.5,1.5,1.5h1v1
		c0,0.8,0.6,1.5,1.5,1.5c0.8,0,1.5-0.6,1.5-1.5v-1h1c0.8,0,1.5-0.6,1.5-1.5s-0.6-1.5-1.5-1.5H260.8z"/>
	<path class="st0" d="M244.8,241.8v-1c0-0.8-0.6-1.5-1.5-1.5c-0.8,0-1.5,0.6-1.5,1.5v1h-1c-0.8,0-1.5,0.6-1.5,1.5s0.6,1.5,1.5,1.5h1
		v1c0,0.8,0.6,1.5,1.5,1.5c0.8,0,1.5-0.6,1.5-1.5v-1h1c0.8,0,1.5-0.6,1.5-1.5s-0.6-1.5-1.5-1.5H244.8z"/>
	<path class="st0" d="M250.7,17.4v-0.2c0-0.8-0.6-1.5-1.5-1.5c-0.8,0-1.5,0.6-1.5,1.5v0.2h-0.2c-0.8,0-1.5,0.6-1.5,1.5
		c0,0.8,0.6,1.5,1.5,1.5h0.2v0.2c0,0.8,0.6,1.5,1.5,1.5c0.8,0,1.5-0.6,1.5-1.5v-0.2h0.2c0.8,0,1.5-0.6,1.5-1.5
		c0-0.8-0.6-1.5-1.5-1.5H250.7z"/>
	<path class="st0" d="M260.3,51.6v-0.2c0-0.8-0.6-1.5-1.5-1.5c-0.8,0-1.5,0.6-1.5,1.5v0.2h-0.2c-0.8,0-1.5,0.6-1.5,1.5
		c0,0.8,0.6,1.5,1.5,1.5h0.2v0.2c0,0.8,0.6,1.5,1.5,1.5c0.8,0,1.5-0.6,1.5-1.5v-0.2h0.2c0.8,0,1.5-0.6,1.5-1.5
		c0-0.8-0.6-1.5-1.5-1.5H260.3z"/>
	<path class="st0" d="M247.7,81.7v-0.2c0-0.8-0.6-1.5-1.5-1.5c-0.8,0-1.5,0.6-1.5,1.5v0.2h-0.2c-0.8,0-1.5,0.6-1.5,1.5
		s0.6,1.5,1.5,1.5h0.2v0.2c0,0.8,0.6,1.5,1.5,1.5c0.8,0,1.5-0.6,1.5-1.5v-0.3h0.1c0.8,0,1.5-0.6,1.5-1.5S248.6,81.7,247.7,81.7
		L247.7,81.7z"/>
	<path class="st0" d="M248.6,190.1v-0.2c0-0.8-0.6-1.5-1.5-1.5c-0.8,0-1.5,0.6-1.5,1.5v0.2h-0.2c-0.8,0-1.5,0.6-1.5,1.5
		c0,0.8,0.6,1.5,1.5,1.5h0.2v0.2c0,0.8,0.6,1.5,1.5,1.5c0.8,0,1.5-0.6,1.5-1.5v-0.2h0.2c0.8,0,1.5-0.6,1.5-1.5
		c0-0.8-0.6-1.5-1.5-1.5H248.6z"/>
	<path class="st0" d="M253.5,228.4v-0.2c0-0.8-0.6-1.5-1.5-1.5c-0.8,0-1.5,0.6-1.5,1.5v0.2h-0.2c-0.8,0-1.5,0.6-1.5,1.5
		c0,0.8,0.6,1.5,1.5,1.5h0.2v0.2c0,0.8,0.6,1.5,1.5,1.5c0.8,0,1.5-0.6,1.5-1.5v-0.2h0.2c0.8,0,1.5-0.6,1.5-1.5
		c0-0.8-0.6-1.5-1.5-1.5H253.5z"/>
	<path class="st0" d="M253.3,41.9v-0.2c0-0.8-0.6-1.5-1.5-1.5c-0.8,0-1.5,0.6-1.5,1.5v0.2h-0.2c-0.8,0-1.5,0.6-1.5,1.5
		c0,0.8,0.6,1.5,1.5,1.5h0.2v0.2c0,0.8,0.6,1.5,1.5,1.5c0.8,0,1.5-0.6,1.5-1.5v-0.2h0.2c0.8,0,1.5-0.6,1.5-1.5
		c0-0.8-0.6-1.5-1.5-1.5H253.3z"/>
</g>
<g>
	<path class="st2" d="M161.4,137.7v2.5c0,3.3,2.7,6,6,6c1.9,0,3.5,1.5,3.7,3.3v0.6c0.2,3.5,3.1,6.1,6.7,6.1h3.1
		c1.5,2.7,2.5,4.4,2.7,4.8c0.6,1.3,1.5,2.3,2.7,2.9l4.3,2.1l12.1,5.9c0.3,0.2,0.6,0.4,0.7,0.8l1.9,5.2l0,0l0.8,2.3l0,0l3.5,9.6
		c0.1,0.2,0.1,0.3,0.1,0.4l3.2,9.2c0.2,0.6,0.3,1.2,0.3,1.9c0,0-0.2,9.9-0.2,15.2c0,0.6,0.3,1,0.8,1.2s1,0.1,1.5-0.2
		c1-1,1.9-1.9,1.9-1.9c0.6-0.6,1.5-0.6,2,0c0.6,0.6,0.6,1.5,0,2c0,0-4.5,4.5-5.9,5.9c-0.2,0.2-0.4,0.6-0.4,0.9c0,0.4,0,1,0,1.7
		c0,0.6,0.3,1,0.8,1.2s1,0.1,1.5-0.3c1-1,2-2,2-2c0.6-0.6,1.5-0.6,2,0c0.6,0.6,0.6,1.5,0,2c0,0-4.7,4.7-6,6
		c-0.2,0.2-0.4,0.6-0.4,0.9c0,0.4,0,0.9,0,0.9c0,0.6-0.1,1.1-0.3,1.7l-3.6,10.6c-0.2,0.4-0.1,0.9,0.2,1.3s0.7,0.6,1.1,0.6h11.9
		c0.8,0,8.5-5.4,8.5-6.2c0,0,0.2,1.1,0.2-4.6l0,0v-35.7c0.9-0.5,1.5-1.5,1.5-2.5v-27.3h6.4c2.9,0,5.6-2.2,7.8-6.2
		c2.8-5.3,4.8-14,4.8-23.6s-1.9-18.3-4.8-23.6c-2.2-4-4.9-6.2-7.8-6.2h-24.5c-2.6,0-5.1-0.9-7-2.6c-4.4-3.8-11.8-10.2-15.2-13.1
		c-1.1-1-2-2.1-2.7-3.5l-4.7-9.6c-0.1-0.2-0.1-0.2-0.2-0.4l-2.4-5.1c0.8-0.1,0.6-0.2-0.2-0.5c6.6-0.2,11.5-0.3,11.5-0.3
		c1.3,0,2.4-0.5,3.3-1.5L212,58.8c0.6-0.6,1-1.6,1-2.5l-1.2-24.2c0-1.4-1.1-2.5-2.5-2.5s-2.5,1.1-2.5,2.5l-1.1,22.6
		c0,0-11.3,11.1-13.8,13.5c-0.3,0.3-0.7,0.5-1.1,0.5l0,0c-1.1,0-2.1-0.7-2.6-1.7s-0.3-2.2,0.4-3.1c2-2.4,4.1-4.9,4.1-4.9
		c0.6-0.6,0.9-1.4,0.9-2.2l-1-13.1c0-1.2-1-2.1-2.1-2.1c-1.2,0-2.1,1-2.1,2.1l-0.9,11.7l-7.1,6.7c-2.3-0.1-7.3-0.3-12.2-0.3
		c-4.9,0-9.8,0.2-12.2,0.4l-7.1-6.7L148,43.8c0-1.2-1-2.1-2.1-2.1s-2.1,1-2.1,2.1l-1,13.1c0,0.8,0.3,1.5,0.8,2.1c0,0,2,2.4,4,4.8
		c0.7,0.9,0.9,2.1,0.4,3.1s-1.5,1.8-2.7,1.8l0,0c-0.4,0-0.9-0.2-1.1-0.5c-2.5-2.5-13.6-13.5-13.6-13.5l-1-22.7
		c0-1.4-1.1-2.5-2.5-2.5s-2.5,1.1-2.5,2.5l-1.1,24.2c0,0.9,0.3,1.8,1,2.4l15.2,17.6c0.8,0.9,2,1.5,3.3,1.5c0,0,4.1,0.2,10,0.3
		l-20.4,13.5c-0.9,0.6-1.5,1.5-1.6,2.5v0.2v0.1l0,0c0,0.1,0,0.2,0,0.3l2.4,10c0.4,1.5,1.7,2.6,3.2,2.7c4.4,0.4,11.5,1,14.9,1.3
		c0.2,0,0.3,0,0.5,0.1c0.6,0.1,1.2,0.4,1.6,0.8c0.2,0.2,0.7,1,1.5,2.3v16.4C155.1,132.9,157.7,136.4,161.4,137.7L161.4,137.7z
		 M192,222.8c-1.2-5.5-5.2-23.6-6.8-30.7c-0.2-1.2,0.2-2.4,1.3-3l16.2-9.5l-1.9-5.2l-12.1-5.9l-13.5,11c-1.7,1.4-2.4,3.5-1.9,5.7
		c0,0,3.8,15.9,5.5,22.8c0.2,0.5,0.6,0.9,1,1c0.6,0.1,1-0.2,1.4-0.6c0.8-1.3,1.5-2.6,1.5-2.6c0.4-0.6,1.3-0.9,1.9-0.5
		s0.9,1.3,0.5,1.9c0,0-3.4,5.7-4.4,7.4c-0.2,0.3-0.2,0.6-0.2,1c0.1,0.4,0.2,1,0.4,1.5c0.2,0.5,0.6,0.9,1,1c0.6,0.1,1-0.2,1.3-0.6
		c0.8-1.4,1.6-2.7,1.6-2.7c0.4-0.6,1.3-0.9,1.9-0.5s0.9,1.3,0.5,1.9c0,0-3.5,5.9-4.5,7.6c-0.2,0.3-0.2,0.6-0.2,1s0.2,0.7,0.2,0.9
		c0,0.1,0,0.2,0,0.2c0,0.2,0,0.2,0,0.4v11.3c0,0.5,0.2,0.9,0.6,1.1s0.9,0.3,1.3,0.2l10-3.4c0.7-0.2,6.6-6.8,6.4-7.5c0,0,0,0-1.9-5.4
		c0,0,0,0-0.1-0.1l-1.8-25.2c0.2-0.1,0.3-0.2,0.5-0.4l7.9-8.3l-2.2-6l-9.9,10.4c-1,1.1-1,3,0.1,4c0.2,0.2,0.5,0.4,0.7,0.5l1.8,25.6
		c-1.5,0.3-3.1,0.7-3.8,0.7c-0.2-0.1-0.2-0.1-0.3-0.2c-0.1-0.3-0.2-0.6-0.3-0.9L192,222.8L192,222.8z M226.2,166.9v33.4
		c0,1,0.6,2,1.5,2.5V238c-1.9-0.2-4.3-0.4-4.3-0.6v-70.5c0-0.8,0.6-1.5,1.5-1.5C225.6,165.5,226.2,166.1,226.2,166.9L226.2,166.9z
		 M164.2,138.2c0.1,0,0.2,0,0.3,0h5.9c3.2,5.6,6.4,11,8.8,15.2h-1.5c-1.9,0-3.6-1.4-3.8-3.2v-0.8c-0.2-3.4-3.1-6.1-6.5-6.1
		c-1.7,0-3.1-1.4-3.1-3.1L164.2,138.2L164.2,138.2z M164.2,135.4v-7.7c1.5,2.5,3,5.1,4.5,7.7h-4.2
		C164.5,135.4,164.3,135.4,164.2,135.4L164.2,135.4z M157.9,117.1c1,1.7,2.2,3.6,3.4,5.7v11.8c-2-1.1-3.4-3.3-3.4-5.7V117.1z"/>
	<g>
		<path class="st0" d="M205.6,51.3h6.8l-0.2-2.8h-6.5L205.6,51.3L205.6,51.3z M205.9,44.8h6.1l-0.2-2.8h-5.9V44.8L205.9,44.8z"/>
		<path class="st0" d="M123.5,51.3h6.7l-0.2-2.8h-6.5V51.3z M123.8,44.8h6.1l-0.2-2.8h-5.8L123.8,44.8L123.8,44.8z"/>
		<path class="st0" d="M138.9,100.5c0,0-0.2,0.2-0.8,0.6c-0.2,0.1-0.3,0.2-0.6,0.2s-0.4-0.1-0.6-0.2c-0.6-0.2-0.8-0.6-0.8-0.6
			c-0.4,0-0.7-0.3-0.7-0.7s0.3-0.7,0.7-0.7c0,0,0.2-0.2,0.8-0.6c0.2-0.1,0.3-0.2,0.6-0.2s0.4,0.1,0.6,0.2c0.6,0.3,0.8,0.6,0.8,0.6
			c0.4,0,0.7,0.3,0.7,0.7S139.3,100.5,138.9,100.5z"/>
		<path class="st0" d="M144.9,100.5c0,0-0.2,0.2-0.8,0.6c-0.2,0.1-0.3,0.2-0.6,0.2s-0.4-0.1-0.6-0.2c-0.6-0.2-0.8-0.6-0.8-0.6
			c-0.4,0-0.7-0.3-0.7-0.7s0.3-0.7,0.7-0.7c0,0,0.2-0.2,0.8-0.6c0.2-0.1,0.3-0.2,0.6-0.2s0.4,0.1,0.6,0.2c0.6,0.3,0.8,0.6,0.8,0.6
			c0.4,0,0.7,0.3,0.7,0.7C145.7,100.2,145.3,100.5,144.9,100.5z"/>
		<path class="st0" d="M151,100.5c0,0-0.2,0.2-0.8,0.6c-0.2,0.1-0.3,0.2-0.6,0.2s-0.4-0.1-0.6-0.2c-0.6-0.2-0.8-0.6-0.8-0.6
			c-0.4,0-0.7-0.3-0.7-0.7s0.3-0.7,0.7-0.7c0,0,0.2-0.2,0.8-0.6c0.2-0.1,0.3-0.2,0.6-0.2s0.4,0.1,0.6,0.2c0.6,0.3,0.8,0.6,0.8,0.6
			c0.4,0,0.7,0.3,0.7,0.7S151.4,100.5,151,100.5z"/>
		<path class="st0" d="M141.9,96.7c0,0-0.2,0.2-0.8,0.6c-0.2,0.1-0.3,0.2-0.6,0.2s-0.4-0.1-0.6-0.2c-0.6-0.2-0.8-0.6-0.8-0.6
			c-0.4,0-0.7-0.3-0.7-0.7s0.3-0.7,0.7-0.7c0,0,0.2-0.2,0.8-0.6c0.2-0.1,0.3-0.2,0.6-0.2s0.4,0.1,0.6,0.2c0.6,0.3,0.8,0.6,0.8,0.6
			c0.4,0,0.7,0.3,0.7,0.7S142.3,96.7,141.9,96.7z"/>
		<path class="st0" d="M147.9,96.7c0,0-0.2,0.2-0.8,0.6c-0.2,0.1-0.3,0.2-0.6,0.2s-0.4-0.1-0.6-0.2c-0.6-0.2-0.8-0.6-0.8-0.6
			c-0.4,0-0.7-0.3-0.7-0.7s0.3-0.7,0.7-0.7c0,0,0.2-0.2,0.8-0.6c0.2-0.1,0.3-0.2,0.6-0.2s0.4,0.1,0.6,0.2c0.6,0.3,0.8,0.6,0.8,0.6
			c0.4,0,0.7,0.3,0.7,0.7S148.3,96.7,147.9,96.7z"/>
		<path class="st0" d="M141.9,104.2c0,0-0.2,0.2-0.8,0.6c-0.2,0.1-0.3,0.2-0.6,0.2s-0.4-0.1-0.6-0.2c-0.6-0.2-0.8-0.6-0.8-0.6
			c-0.4,0-0.7-0.3-0.7-0.7s0.3-0.7,0.7-0.7c0,0,0.2-0.2,0.8-0.6c0.2-0.1,0.3-0.2,0.6-0.2s0.4,0.1,0.6,0.2c0.6,0.3,0.8,0.6,0.8,0.6
			c0.4,0,0.7,0.3,0.7,0.7C142.6,103.9,142.3,104.2,141.9,104.2z"/>
		<path class="st0" d="M147.9,104.2c0,0-0.2,0.2-0.8,0.6c-0.2,0.1-0.3,0.2-0.6,0.2s-0.4-0.1-0.6-0.2c-0.6-0.2-0.8-0.6-0.8-0.6
			c-0.4,0-0.7-0.3-0.7-0.7s0.3-0.7,0.7-0.7c0,0,0.2-0.2,0.8-0.6c0.2-0.1,0.3-0.2,0.6-0.2s0.4,0.1,0.6,0.2c0.6,0.3,0.8,0.6,0.8,0.6
			c0.4,0,0.7,0.3,0.7,0.7C148.6,103.9,148.3,104.2,147.9,104.2z"/>
		<circle class="st0" cx="150.9" cy="73.1" r="2"/>
		<circle class="st0" cx="156.1" cy="68" r="2"/>
		<circle class="st0" cx="228.1" cy="129.4" r="2.7"/>
		<circle class="st0" cx="238.2" cy="129.4" r="2.7"/>
		<path class="st0" d="M206.3,110.2L187,129.5c-0.6,0.6-0.6,1.5,0,2l6,6c0.6,0.6,1.5,0.6,2,0l5-5l4.7,4.7c0.2,0.2,0.6,0.4,1,0.4
			h26.5l-18.8,18.8H192c0-0.1,0-0.1,0-0.2c0-6.4-5.2-11.6-11.6-11.6c-2,0-4,0.6-5.6,1.5c0.5,0.8,1,1.7,1.5,2.5c1.2-0.6,2.7-1,4.2-1
			c4.8,0,8.7,4,8.7,8.7c0,3.1-1.6,5.7-4,7.3c0.3,0.2,0.6,0.4,0.9,0.6l1.9,0.9c1.8-1.5,3.1-3.5,3.6-5.8h22.3c0.4,0,0.7-0.2,1-0.4
			l21.2-21.2h14.2c0.1,0,0.1,0,0.2,0c-0.1-1-0.2-1.9-0.2-2.8h-44l-10.2-10.2l12.6-12.6c-0.6-0.3-1.1-0.7-1.6-1.1L206.3,110.2
			L206.3,110.2z M194,126.5l4,4l-4,4l-4-4L194,126.5z M177.4,113.1l-2.4-2.4c-0.6-0.6-0.6-1.5,0-2c0.6-0.6,1.5-0.6,2,0l2.4,2.4
			c0.6,0.6,0.6,1.5,0,2S177.9,113.6,177.4,113.1z M189.7,113.1l-2.4-2.4c-0.6-0.6-0.6-1.5,0-2c0.6-0.6,1.5-0.6,2,0l2.4,2.4
			c0.6,0.6,0.6,1.5,0,2S190.2,113.6,189.7,113.1z M183.5,113.1l-2.4-2.4c-0.6-0.6-0.6-1.5,0-2c0.6-0.6,1.5-0.6,2,0l2.4,2.4
			c0.6,0.6,0.6,1.5,0,2S184.1,113.6,183.5,113.1z M147.1,78.4c1.5,0.1,3.5,0.1,5.6,0.2l-4.1,2.7h17c0.9,0,1.5,0.7,1.5,1.5V85
			c0,0.9-0.7,1.5-1.5,1.5h-25l-4.4,2.8h29.4c0.7,0,1.4-0.2,1.9-0.5l0,0l13.4,13.4c0.2,0.2,0.6,0.4,1,0.4h15.6l-3.3-2.8h-11.7l-13-13
			l0,0c0.3-0.6,0.5-1.2,0.5-1.9v-2.2c0-2.4-2-4.4-4.4-4.4L147.1,78.4L147.1,78.4z M183.2,78.6h-4.4c-0.8,0-1.5,0.6-1.5,1.5
			s0.6,1.5,1.5,1.5h4.2l-1.1-2.3c0.8-0.1,0.6-0.2-0.2-0.5C182.1,78.6,182.6,78.6,183.2,78.6L183.2,78.6z M171.6,62.3l4,4h-7.1l-4-4
			c-1.4,0-2.7,0.1-4,0.1l6.3,6.3c0.2,0.2,0.6,0.4,1,0.4h10.6l9.4,9.4c1.7-0.1,3.1-0.1,4-0.1l-11.5-11.5c-0.1-0.2-0.2-0.2-0.3-0.3
			l-4.2-4.2C174.5,62.3,173,62.3,171.6,62.3L171.6,62.3z"/>
		<g>
			<path class="st4" d="M206.3,110.2L187,129.5c-0.6,0.6-0.6,1.5,0,2l6,6c0.6,0.6,1.5,0.6,2,0l5-5l4.7,4.7c0.2,0.2,0.6,0.4,1,0.4
				h26.5l-18.8,18.8H192c0-0.1,0-0.1,0-0.2c0-6.4-5.2-11.6-11.6-11.6c-2,0-4,0.6-5.6,1.5c0.5,0.8,1,1.7,1.5,2.5c1.2-0.6,2.7-1,4.2-1
				c4.8,0,8.7,4,8.7,8.7c0,3.1-1.6,5.7-4,7.3c0.3,0.2,0.6,0.4,0.9,0.6l1.9,0.9c1.8-1.5,3.1-3.5,3.6-5.8h22.3c0.4,0,0.7-0.2,1-0.4
				l21.2-21.2h14.2c0.1,0,0.1,0,0.2,0c-0.1-1-0.2-1.9-0.2-2.8h-44l-10.2-10.2l12.6-12.6c-0.6-0.3-1.1-0.7-1.6-1.1L206.3,110.2
				L206.3,110.2z M194,126.5l4,4l-4,4l-4-4L194,126.5z M177.4,113.1l-2.4-2.4c-0.6-0.6-0.6-1.5,0-2c0.6-0.6,1.5-0.6,2,0l2.4,2.4
				c0.6,0.6,0.6,1.5,0,2S177.9,113.6,177.4,113.1z M189.7,113.1l-2.4-2.4c-0.6-0.6-0.6-1.5,0-2c0.6-0.6,1.5-0.6,2,0l2.4,2.4
				c0.6,0.6,0.6,1.5,0,2S190.2,113.6,189.7,113.1z M183.5,113.1l-2.4-2.4c-0.6-0.6-0.6-1.5,0-2c0.6-0.6,1.5-0.6,2,0l2.4,2.4
				c0.6,0.6,0.6,1.5,0,2S184.1,113.6,183.5,113.1z M147.1,78.4c1.5,0.1,3.5,0.1,5.6,0.2l-4.1,2.7h17c0.9,0,1.5,0.7,1.5,1.5V85
				c0,0.9-0.7,1.5-1.5,1.5h-25l-4.4,2.8h29.4c0.7,0,1.4-0.2,1.9-0.5l0,0l13.4,13.4c0.2,0.2,0.6,0.4,1,0.4h15.6l-3.3-2.8h-11.7
				l-13-13l0,0c0.3-0.6,0.5-1.2,0.5-1.9v-2.2c0-2.4-2-4.4-4.4-4.4L147.1,78.4L147.1,78.4z M183.2,78.6h-4.4c-0.8,0-1.5,0.6-1.5,1.5
				s0.6,1.5,1.5,1.5h4.2l-1.1-2.3c0.8-0.1,0.6-0.2-0.2-0.5C182.1,78.6,182.6,78.6,183.2,78.6L183.2,78.6z M171.6,62.3l4,4h-7.1l-4-4
				c-1.4,0-2.7,0.1-4,0.1l6.3,6.3c0.2,0.2,0.6,0.4,1,0.4h10.6l9.4,9.4c1.7-0.1,3.1-0.1,4-0.1l-11.5-11.5c-0.1-0.2-0.2-0.2-0.3-0.3
				l-4.2-4.2C174.5,62.3,173,62.3,171.6,62.3L171.6,62.3z"/>
			<g>
				<path class="st0" d="M223.4,177v-10.1c0-0.8,0.6-1.5,1.5-1.5s1.5,0.6,1.5,1.5V177c0,0.8-0.6,1.5-1.5,1.5S223.4,177.8,223.4,177z
					"/>
				<path class="st0" d="M138.9,100.5c0,0-0.2,0.2-0.8,0.6c-0.2,0.1-0.3,0.2-0.6,0.2s-0.4-0.1-0.6-0.2c-0.6-0.2-0.8-0.6-0.8-0.6
					c-0.4,0-0.7-0.3-0.7-0.7s0.3-0.7,0.7-0.7c0,0,0.2-0.2,0.8-0.6c0.2-0.1,0.3-0.2,0.6-0.2s0.4,0.1,0.6,0.2c0.6,0.3,0.8,0.6,0.8,0.6
					c0.4,0,0.7,0.3,0.7,0.7S139.3,100.5,138.9,100.5z"/>
				<path class="st0" d="M144.9,100.5c0,0-0.2,0.2-0.8,0.6c-0.2,0.1-0.3,0.2-0.6,0.2s-0.4-0.1-0.6-0.2c-0.6-0.2-0.8-0.6-0.8-0.6
					c-0.4,0-0.7-0.3-0.7-0.7s0.3-0.7,0.7-0.7c0,0,0.2-0.2,0.8-0.6c0.2-0.1,0.3-0.2,0.6-0.2s0.4,0.1,0.6,0.2c0.6,0.3,0.8,0.6,0.8,0.6
					c0.4,0,0.7,0.3,0.7,0.7C145.7,100.2,145.3,100.5,144.9,100.5z"/>
				<path class="st0" d="M151,100.5c0,0-0.2,0.2-0.8,0.6c-0.2,0.1-0.3,0.2-0.6,0.2s-0.4-0.1-0.6-0.2c-0.6-0.2-0.8-0.6-0.8-0.6
					c-0.4,0-0.7-0.3-0.7-0.7s0.3-0.7,0.7-0.7c0,0,0.2-0.2,0.8-0.6c0.2-0.1,0.3-0.2,0.6-0.2s0.4,0.1,0.6,0.2c0.6,0.3,0.8,0.6,0.8,0.6
					c0.4,0,0.7,0.3,0.7,0.7S151.4,100.5,151,100.5z"/>
				<path class="st0" d="M141.9,96.7c0,0-0.2,0.2-0.8,0.6c-0.2,0.1-0.3,0.2-0.6,0.2s-0.4-0.1-0.6-0.2c-0.6-0.2-0.8-0.6-0.8-0.6
					c-0.4,0-0.7-0.3-0.7-0.7s0.3-0.7,0.7-0.7c0,0,0.2-0.2,0.8-0.6c0.2-0.1,0.3-0.2,0.6-0.2s0.4,0.1,0.6,0.2c0.6,0.3,0.8,0.6,0.8,0.6
					c0.4,0,0.7,0.3,0.7,0.7S142.3,96.7,141.9,96.7z"/>
				<path class="st0" d="M147.9,96.7c0,0-0.2,0.2-0.8,0.6c-0.2,0.1-0.3,0.2-0.6,0.2s-0.4-0.1-0.6-0.2c-0.6-0.2-0.8-0.6-0.8-0.6
					c-0.4,0-0.7-0.3-0.7-0.7s0.3-0.7,0.7-0.7c0,0,0.2-0.2,0.8-0.6c0.2-0.1,0.3-0.2,0.6-0.2s0.4,0.1,0.6,0.2c0.6,0.3,0.8,0.6,0.8,0.6
					c0.4,0,0.7,0.3,0.7,0.7S148.3,96.7,147.9,96.7z"/>
				<path class="st0" d="M141.9,104.2c0,0-0.2,0.2-0.8,0.6c-0.2,0.1-0.3,0.2-0.6,0.2s-0.4-0.1-0.6-0.2c-0.6-0.2-0.8-0.6-0.8-0.6
					c-0.4,0-0.7-0.3-0.7-0.7s0.3-0.7,0.7-0.7c0,0,0.2-0.2,0.8-0.6c0.2-0.1,0.3-0.2,0.6-0.2s0.4,0.1,0.6,0.2c0.6,0.3,0.8,0.6,0.8,0.6
					c0.4,0,0.7,0.3,0.7,0.7C142.6,103.9,142.3,104.2,141.9,104.2z"/>
				<path class="st0" d="M147.9,104.2c0,0-0.2,0.2-0.8,0.6c-0.2,0.1-0.3,0.2-0.6,0.2s-0.4-0.1-0.6-0.2c-0.6-0.2-0.8-0.6-0.8-0.6
					c-0.4,0-0.7-0.3-0.7-0.7s0.3-0.7,0.7-0.7c0,0,0.2-0.2,0.8-0.6c0.2-0.1,0.3-0.2,0.6-0.2s0.4,0.1,0.6,0.2c0.6,0.3,0.8,0.6,0.8,0.6
					c0.4,0,0.7,0.3,0.7,0.7C148.6,103.9,148.3,104.2,147.9,104.2z"/>
				<circle class="st0" cx="150.9" cy="73.1" r="2"/>
				<circle class="st0" cx="156.1" cy="68" r="2"/>
			</g>
		</g>
		<circle class="st0" cx="223.4" cy="242.4" r="2.2"/>
		<circle class="st0" cx="194" cy="229.1" r="2.2"/>
	</g>
</g>
<line class="st5" x1="0" y1="251.1" x2="498.3" y2="251.1"/>
</svg>
