<?xml version="1.0" encoding="utf-8"?>
<!-- Generator: Adobe Illustrator 25.0.1, SVG Export Plug-In . SVG Version: 6.00 Build 0)  -->
<svg version="1.1" id="Layer_1" xmlns="http://www.w3.org/2000/svg" xmlns:xlink="http://www.w3.org/1999/xlink" x="0px" y="0px"
	 viewBox="0 0 893.3 548.6" style="enable-background:new 0 0 893.3 548.6;" xml:space="preserve">
<style type="text/css">
	.st0{fill:#11808C;}
	.st1{fill:#144C59;}
	.st2{fill:#22F2DD;}
	.st3{filter:url(#Adobe_OpacityMaskFilter);}
	.st4{fill-rule:evenodd;clip-rule:evenodd;fill:#FFFFFF;}
	.st5{mask:url(#mask-2_1_);fill:#FFFFFF;}
	.st6{filter:url(#Adobe_OpacityMaskFilter_1_);}
	.st7{mask:url(#mask-4_1_);fill:#FFFFFF;}
	.st8{filter:url(#Adobe_OpacityMaskFilter_2_);}
	.st9{mask:url(#mask-6_1_);fill:#FFFFFF;}
	.st10{fill:#9BF9EF;}
	.st11{fill:#0FBFBF;}
	.st12{filter:url(#Adobe_OpacityMaskFilter_3_);}
	.st13{mask:url(#mask-12_2_);fill:#144C59;}
	.st14{filter:url(#Adobe_OpacityMaskFilter_4_);}
	.st15{mask:url(#mask-12_8_);fill:#144C59;}
	.st16{filter:url(#Adobe_OpacityMaskFilter_5_);}
	.st17{mask:url(#mask-12_6_);fill:#144C59;}
	.st18{filter:url(#Adobe_OpacityMaskFilter_6_);}
	.st19{mask:url(#mask-12_5_);fill:#144C59;}
	.st20{filter:url(#Adobe_OpacityMaskFilter_7_);}
	.st21{mask:url(#mask-10_2_);fill:#144C59;}
	.st22{filter:url(#Adobe_OpacityMaskFilter_8_);}
	.st23{mask:url(#mask-12_4_);fill:#144C59;}
	.st24{filter:url(#Adobe_OpacityMaskFilter_9_);}
	.st25{mask:url(#mask-12_3_);fill:#144C59;}
	.st26{filter:url(#Adobe_OpacityMaskFilter_10_);}
	.st27{mask:url(#mask-14_1_);fill:#FFFFFF;}
	.st28{filter:url(#Adobe_OpacityMaskFilter_11_);}
	.st29{mask:url(#mask-14_2_);fill:#FFFFFF;}
	.st30{filter:url(#Adobe_OpacityMaskFilter_12_);}
	.st31{mask:url(#mask-12_7_);fill:#144C59;}
	.st32{filter:url(#Adobe_OpacityMaskFilter_13_);}
	.st33{mask:url(#mask-12_1_);fill:#144C59;}
	.st34{filter:url(#Adobe_OpacityMaskFilter_14_);}
	.st35{mask:url(#mask-12_10_);fill:#144C59;}
	.st36{filter:url(#Adobe_OpacityMaskFilter_15_);}
	.st37{mask:url(#mask-12_9_);fill:#144C59;}
</style>
<g>
	<g transform="translate(400.000000, 400.000000)">
		<rect id="Shape" x="-348.2" y="-363.5" class="st0" width="200" height="200"/>
		<ellipse id="Shape_1_" class="st1" cx="-248.1" cy="-265.5" rx="82" ry="81"/>
		<g id="Shape_2_">
			<rect id="path-1_1_" x="-348.2" y="-263.7" class="st2" width="200" height="100"/>
		</g>
		<defs>
			<filter id="Adobe_OpacityMaskFilter" filterUnits="userSpaceOnUse" x="-330.2" y="-344.7" width="163.9" height="161.9">
				<feColorMatrix  type="matrix" values="1 0 0 0 0  0 1 0 0 0  0 0 1 0 0  0 0 0 1 0"/>
			</filter>
		</defs>
		<mask maskUnits="userSpaceOnUse" x="-330.2" y="-344.7" width="163.9" height="161.9" id="mask-2_1_">
			<g class="st3">
				<rect id="path-1_2_" x="-348.2" y="-263.7" class="st4" width="200" height="100"/>
			</g>
		</mask>
		<ellipse id="Shape_3_" class="st5" cx="-248.2" cy="-263.8" rx="82" ry="80.9"/>
	</g>
	
		<g transform="translate(700.000000, 900.000000) rotate(-270.000000) translate(-700.000000, -900.000000) translate(600.000000, 800.000000)">
		
			<ellipse id="Shape_5_" transform="matrix(2.535182e-06 1 -1 2.535182e-06 -15.9362 910.7263)" class="st1" cx="-463.3" cy="447.4" rx="81" ry="82"/>
		<g id="Shape_6_">
			
				<rect id="path-3_1_" x="-513.3" y="397.4" transform="matrix(2.535182e-06 1 -1 2.535182e-06 34.0904 960.788)" class="st2" width="100" height="200"/>
		</g>
		<defs>
			<filter id="Adobe_OpacityMaskFilter_1_" filterUnits="userSpaceOnUse">
				<feColorMatrix  type="matrix" values="1 0 0 0 0  0 1 0 0 0  0 0 1 0 0  0 0 0 1 0"/>
			</filter>
		</defs>
		<mask maskUnits="userSpaceOnUse" id="mask-4_1_">
			<g class="st6">
				
					<rect id="path-3_2_" x="-512.3" y="397.4" transform="matrix(2.535182e-06 1 -1 2.535182e-06 35.0904 959.788)" class="st4" width="100" height="200"/>
			</g>
		</mask>
		
			<ellipse id="Shape_7_" transform="matrix(2.535182e-06 1 -1 2.535182e-06 -14.9241 909.9)" class="st7" cx="-462.4" cy="447.5" rx="80.9" ry="82"/>
	</g>
	
		<g transform="translate(1100.000000, 700.000000) rotate(-90.000000) translate(-1100.000000, -700.000000) translate(1000.000000, 600.000000)">
		
			<ellipse id="Shape_9_" transform="matrix(-2.535182e-06 -1 1 -2.535182e-06 903.1961 388.4656)" class="st1" cx="645.8" cy="-257.4" rx="81" ry="82"/>
		<g id="Shape_10_">
			
				<rect id="path-5_1_" x="595.8" y="-305.4" transform="matrix(-2.535182e-06 -1 1 -2.535182e-06 851.1695 440.404)" class="st2" width="100" height="200"/>
		</g>
		<defs>
			<filter id="Adobe_OpacityMaskFilter_2_" filterUnits="userSpaceOnUse" x="563.8" y="174.8" width="163.9" height="161.9">
				<feColorMatrix  type="matrix" values="1 0 0 0 0  0 1 0 0 0  0 0 1 0 0  0 0 0 1 0"/>
			</filter>
		</defs>
		<mask maskUnits="userSpaceOnUse" x="563.8" y="174.8" width="163.9" height="161.9" id="mask-6_1_">
			<g class="st8">
				
					<rect id="path-5_2_" x="595.8" y="-305.4" transform="matrix(-2.535182e-06 -1 1 -2.535182e-06 851.1695 440.404)" class="st4" width="100" height="200"/>
			</g>
		</mask>
		
			<ellipse id="Shape_11_" transform="matrix(-2.535182e-06 -1 1 -2.535182e-06 901.4452 390.0307)" class="st9" cx="645.7" cy="-255.7" rx="80.9" ry="82"/>
	</g>
	
		<g transform="translate(1300.000000, 900.000000) scale(-1, 1) rotate(-270.000000) translate(-1300.000000, -900.000000) translate(1200.000000, 800.000000)">
		<path id="Shape_8_" class="st10" d="M-282.9-807.7"/>
		<path id="Shape_4_" class="st10" d="M-251.4-807.7"/>
	</g>
	
		<g transform="translate(500.000000, 100.000000) scale(-1, 1) translate(-500.000000, -100.000000) translate(400.000000, 0.000000)">
		<rect id="Shape_57_" x="-244.2" y="454.1" class="st11" width="200" height="-200"/>
	</g>
	<g transform="translate(600.000000, 200.000000)">
		<circle id="Shape_81_" class="st2" cx="-69.7" cy="169.9" r="15.7"/>
	</g>
	<g transform="translate(200.000000, 400.000000)">
		<defs>
			<filter id="Adobe_OpacityMaskFilter_3_" filterUnits="userSpaceOnUse" x="393.4" y="-198.2" width="102.2" height="102.2">
				<feColorMatrix  type="matrix" values="1 0 0 0 0  0 1 0 0 0  0 0 1 0 0  0 0 0 1 0"/>
			</filter>
		</defs>
		<mask maskUnits="userSpaceOnUse" x="393.4" y="-198.2" width="102.2" height="102.2" id="mask-12_2_">
			<g class="st12">
				<rect id="path-11_3_" x="244.2" y="-347.4" class="st4" width="200" height="200"/>
			</g>
		</mask>
		<circle id="Shape_90_" class="st13" cx="444.5" cy="-147.1" r="51.1"/>
	</g>
	<g transform="translate(200.000000, 400.000000)">
		<defs>
			<filter id="Adobe_OpacityMaskFilter_4_" filterUnits="userSpaceOnUse" x="393.4" y="-198.8" width="102.2" height="102.2">
				<feColorMatrix  type="matrix" values="1 0 0 0 0  0 1 0 0 0  0 0 1 0 0  0 0 0 1 0"/>
			</filter>
		</defs>
		<mask maskUnits="userSpaceOnUse" x="393.4" y="-198.8" width="102.2" height="102.2" id="mask-12_8_">
			<g class="st14">
				<rect id="path-11_8_" x="244.8" y="-147.4" class="st4" width="200" height="200"/>
			</g>
		</mask>
		<circle id="Shape_18_" class="st15" cx="444.5" cy="-147.7" r="51.1"/>
	</g>
	<g transform="translate(200.000000, 400.000000)">
		<defs>
			<filter id="Adobe_OpacityMaskFilter_5_" filterUnits="userSpaceOnUse" x="391.1" y="-197.2" width="102.2" height="102.2">
				<feColorMatrix  type="matrix" values="1 0 0 0 0  0 1 0 0 0  0 0 1 0 0  0 0 0 1 0"/>
			</filter>
		</defs>
		<mask maskUnits="userSpaceOnUse" x="391.1" y="-197.2" width="102.2" height="102.2" id="mask-12_6_">
			<g class="st16">
				<rect id="path-11_6_" x="442" y="-145.9" class="st4" width="200" height="200"/>
			</g>
		</mask>
		<circle id="Shape_23_" class="st17" cx="442.2" cy="-146.1" r="51.1"/>
		<defs>
			<filter id="Adobe_OpacityMaskFilter_6_" filterUnits="userSpaceOnUse" x="591.1" y="3.3" width="102.2" height="102.2">
				<feColorMatrix  type="matrix" values="1 0 0 0 0  0 1 0 0 0  0 0 1 0 0  0 0 0 1 0"/>
			</filter>
		</defs>
		<mask maskUnits="userSpaceOnUse" x="591.1" y="3.3" width="102.2" height="102.2" id="mask-12_5_">
			<g class="st18">
				<rect id="path-11_5_" x="442" y="-145.9" class="st4" width="200" height="200"/>
			</g>
		</mask>
		<circle id="Shape_22_" class="st19" cx="642.2" cy="54.4" r="51.1"/>
	</g>
	<g>
		
			<g transform="translate(1100.000000, 300.000000) scale(-1, 1) rotate(-270.000000) translate(-1100.000000, -300.000000) translate(1000.000000, 200.000000)">
			<defs>
				<filter id="Adobe_OpacityMaskFilter_7_" filterUnits="userSpaceOnUse">
					<feColorMatrix  type="matrix" values="1 0 0 0 0  0 1 0 0 0  0 0 1 0 0  0 0 0 1 0"/>
				</filter>
			</defs>
			<mask maskUnits="userSpaceOnUse" id="mask-10_2_">
				<g class="st20">
					
						<rect id="path-9_3_" x="236.9" y="-748.6" transform="matrix(2.535182e-06 1 -1 2.535182e-06 -511.7669 -1185.4694)" class="st4" width="200" height="-200"/>
				</g>
			</mask>
			<circle id="Shape_61_" class="st21" cx="236.6" cy="-948.9" r="51.1"/>
		</g>
		<g transform="translate(200.000000, 400.000000)">
			<defs>
				<filter id="Adobe_OpacityMaskFilter_8_" filterUnits="userSpaceOnUse" x="-199.4" y="-14.5" width="102.2" height="102.2">
					<feColorMatrix  type="matrix" values="1 0 0 0 0  0 1 0 0 0  0 0 1 0 0  0 0 0 1 0"/>
				</filter>
			</defs>
			<mask maskUnits="userSpaceOnUse" x="-199.4" y="-14.5" width="102.2" height="102.2" id="mask-12_4_">
				<g class="st22">
					<rect id="path-11_4_" x="-348" y="36.9" class="st4" width="200" height="200"/>
				</g>
			</mask>
			<circle id="Shape_13_" class="st23" cx="-148.3" cy="36.6" r="51.1"/>
			<defs>
				<filter id="Adobe_OpacityMaskFilter_9_" filterUnits="userSpaceOnUse" x="-199.6" y="-13.8" width="102.2" height="102.2">
					<feColorMatrix  type="matrix" values="1 0 0 0 0  0 1 0 0 0  0 0 1 0 0  0 0 0 1 0"/>
				</filter>
			</defs>
			<mask maskUnits="userSpaceOnUse" x="-199.6" y="-13.8" width="102.2" height="102.2" id="mask-12_3_">
				<g class="st24">
					<rect id="path-11_1_" x="-348.8" y="-163" class="st4" width="200" height="200"/>
				</g>
			</mask>
			<circle id="Shape_12_" class="st25" cx="-148.5" cy="37.3" r="51.1"/>
		</g>
		<g transform="translate(800.000000, 800.000000)">
			<g id="Shape_91_">
				<rect id="path-13_1_" x="-748.2" y="-563.7" class="st10" width="200" height="200"/>
			</g>
			<defs>
				<filter id="Adobe_OpacityMaskFilter_10_" filterUnits="userSpaceOnUse" x="-800" y="-414.5" width="102.2" height="102.2">
					<feColorMatrix  type="matrix" values="1 0 0 0 0  0 1 0 0 0  0 0 1 0 0  0 0 0 1 0"/>
				</filter>
			</defs>
			<mask maskUnits="userSpaceOnUse" x="-800" y="-414.5" width="102.2" height="102.2" id="mask-14_1_">
				<g class="st26">
					<rect id="path-13_2_" x="-749.2" y="-563.7" class="st4" width="200" height="200"/>
				</g>
			</mask>
			<circle id="Shape_92_" class="st27" cx="-748.9" cy="-363.4" r="51.1"/>
			<defs>
				<filter id="Adobe_OpacityMaskFilter_11_" filterUnits="userSpaceOnUse" x="-597" y="-615.1" width="102.2" height="102.2">
					<feColorMatrix  type="matrix" values="1 0 0 0 0  0 1 0 0 0  0 0 1 0 0  0 0 0 1 0"/>
				</filter>
			</defs>
			<mask maskUnits="userSpaceOnUse" x="-597" y="-615.1" width="102.2" height="102.2" id="mask-14_2_">
				<g class="st28">
					<rect id="path-13_3_" x="-746.2" y="-563.7" class="st4" width="200" height="200"/>
				</g>
			</mask>
			<circle id="Shape_93_" class="st29" cx="-545.9" cy="-564" r="51.1"/>
		</g>
	</g>
	<g>
		
			<g transform="translate(500.000000, 900.000000) scale(1, -1) translate(-500.000000, -900.000000) translate(400.000000, 800.000000)">
			<circle id="Shape_16_" class="st10" cx="145.5" cy="847.7" r="57.7"/>
			<polygon id="Shape_17_" class="st1" points="146.6,847.3 161.2,847.3 161.2,848.9 146.6,848.9 146.6,863.5 144.7,863.5 
				144.7,848.9 130.3,848.9 130.3,847.3 144.7,847.3 144.7,832.5 146.6,832.5 			"/>
		</g>
		<g transform="translate(200.000000, 400.000000)">
			<defs>
				<filter id="Adobe_OpacityMaskFilter_12_" filterUnits="userSpaceOnUse" x="194.4" y="-400" width="102.2" height="102.2">
					<feColorMatrix  type="matrix" values="1 0 0 0 0  0 1 0 0 0  0 0 1 0 0  0 0 0 1 0"/>
				</filter>
			</defs>
			<mask maskUnits="userSpaceOnUse" x="194.4" y="-400" width="102.2" height="102.2" id="mask-12_7_">
				<g class="st30">
					<rect id="path-11_7_" x="245.2" y="-348.6" class="st4" width="200" height="200"/>
				</g>
			</mask>
			<circle id="Shape_15_" class="st31" cx="245.5" cy="-348.9" r="51.1"/>
			<defs>
				<filter id="Adobe_OpacityMaskFilter_13_" filterUnits="userSpaceOnUse" x="394.4" y="-199.4" width="102.2" height="102.2">
					<feColorMatrix  type="matrix" values="1 0 0 0 0  0 1 0 0 0  0 0 1 0 0  0 0 0 1 0"/>
				</filter>
			</defs>
			<mask maskUnits="userSpaceOnUse" x="394.4" y="-199.4" width="102.2" height="102.2" id="mask-12_1_">
				<g class="st32">
					<rect id="path-11_2_" x="245.2" y="-348.6" class="st4" width="200" height="200"/>
				</g>
			</mask>
			<circle id="Shape_14_" class="st33" cx="445.5" cy="-148.3" r="51.1"/>
		</g>
		<g transform="translate(200.000000, 400.000000)">
			<defs>
				<filter id="Adobe_OpacityMaskFilter_14_" filterUnits="userSpaceOnUse" x="194.4" y="-198.6" width="102.2" height="102.2">
					<feColorMatrix  type="matrix" values="1 0 0 0 0  0 1 0 0 0  0 0 1 0 0  0 0 0 1 0"/>
				</filter>
			</defs>
			<mask maskUnits="userSpaceOnUse" x="194.4" y="-198.6" width="102.2" height="102.2" id="mask-12_10_">
				<g class="st34">
					<rect id="path-11_10_" x="245.2" y="-347.7" class="st4" width="200" height="200"/>
				</g>
			</mask>
			<circle id="Shape_20_" class="st35" cx="245.5" cy="-147.5" r="51.1"/>
			<defs>
				<filter id="Adobe_OpacityMaskFilter_15_" filterUnits="userSpaceOnUse" x="394.4" y="-399.1" width="102.2" height="102.2">
					<feColorMatrix  type="matrix" values="1 0 0 0 0  0 1 0 0 0  0 0 1 0 0  0 0 0 1 0"/>
				</filter>
			</defs>
			<mask maskUnits="userSpaceOnUse" x="394.4" y="-399.1" width="102.2" height="102.2" id="mask-12_9_">
				<g class="st36">
					<rect id="path-11_9_" x="245.2" y="-347.7" class="st4" width="200" height="200"/>
				</g>
			</mask>
			<circle id="Shape_19_" class="st37" cx="445.5" cy="-348" r="51.1"/>
		</g>
	</g>
</g>
<circle id="Shape_21_" class="st2" cx="741.5" cy="89.6" r="15.7"/>
</svg>
