<svg id="Layer_1" data-name="Layer 1" xmlns="http://www.w3.org/2000/svg" viewBox="0 0 518.73 303"><defs><style>.cls-1{fill:#2c3837;}.cls-2{fill:#fff;}</style></defs><g id="Layer_2" data-name="Layer 2"><g id="Layer_1-2" data-name="Layer 1-2"><polygon class="cls-1" points="274 291 274 185 302.5 185 302.5 0.5 0.5 0.5 0.5 302.5 302.5 302.5 302.5 291 274 291"/><path class="cls-2" d="M302,1V302H1V1H302m1-1H0V303H303Z"/><path class="cls-2" d="M105.48,13.08V30.37H74.12v9.24H96.73V56.9H74.12V83.43H56.23V13.08Z"/><path class="cls-2" d="M170,83.43H150.7l-11.35-22h-7.74v22H114.12V13.08h25.13c17.89,0,25.12,7.64,25.12,24.12,0,9.55-2.11,15.78-8.34,20.3Zm-38.39-53V44h8.24c4.82,0,7.24-.6,7.24-6.83s-2.42-6.83-7.24-6.73Z"/><path class="cls-2" d="M226.59,13.08V30.37H196.23v9.24h21.61V56.9H196.23v9.25h30.36V83.43H178.34V13.08Z"/><path class="cls-2" d="M285.19,13.08V30.37H254.83v9.24h21.61V56.9H254.83v9.25h30.36V83.43H236.94V13.08Z"/><path class="cls-2" d="M128.54,117h-20.1V99.71h57.49V117h-20.1v53.07H128.54Z"/><path class="cls-2" d="M191.86,99.71v31.16h15.68V99.71h17.29v70.36H207.54V148.16H191.86v21.91H174.57V99.71Z"/><path class="cls-2" d="M285.74,99.71V117H255.38v9.25H277v17.28H255.38v9.25h30.36v17.29H237.49V99.71Z"/><path class="cls-1" d="M311.18,201.27c18.9,0,25.13,7.64,25.13,24.12v22c0,16.48-6.23,24.22-25.13,24.22H285.75V201.27Zm.3,53.06c4.83,0,7.24-.8,7.24-6.83V225.39c0-6.23-2.41-6.84-7.24-6.84H303v35.78Z"/><path class="cls-1" d="M396.71,271.62H379.43V256.85H364.75v14.77H347.46v-46c0-12.66,2-26.13,24.63-26.13s24.62,13.47,24.62,26.13Zm-17.28-46c0-4.82-.71-7.24-7.34-7.24s-7.34,2.42-7.34,7.24v13.87h14.68Z"/><path class="cls-1" d="M423,218.55H402.9V201.27h57.49v17.28h-20.1v53.07H423Z"/><path class="cls-1" d="M518.73,271.62H501.45V256.85H486.77v14.77H469.48v-46c0-12.66,2-26.13,24.63-26.13s24.62,13.47,24.62,26.13Zm-17.28-46c0-4.82-.71-7.24-7.34-7.24s-7.34,2.42-7.34,7.24v13.87h14.68Z"/></g></g></svg>