<?xml version="1.0" encoding="utf-8"?>
<!-- Generator: Adobe Illustrator 25.0.1, SVG Export Plug-In . SVG Version: 6.00 Build 0)  -->
<svg version="1.1" id="Layer_1" xmlns="http://www.w3.org/2000/svg" xmlns:xlink="http://www.w3.org/1999/xlink" x="0px" y="0px"
	 viewBox="0 0 423.3 246.7" style="enable-background:new 0 0 423.3 246.7;" xml:space="preserve">
<style type="text/css">
	.st0{fill:#E86166;}
</style>
<g id="Layer_2_1_">
	<g id="Layer_1-2">
		<g>
			<path class="st0" d="M113.8,24.5l-6.7,0v11.1h6.7c3.9,0,5.9-0.5,5.9-5.6C119.7,24.9,117.8,24.4,113.8,24.5z"/>
			<path class="st0" d="M246.7,150.7V0H0v246.7h246.7v-9.4h-23.3v-86.6H246.7z M85.8,24.4H60.1v7.5h18.5v14.1H60.1v21.7H45.5V10.3
				h40.2V24.4z M135.1,95.2h-16.4v43.4h-14.1V95.2H88.2V81h47V95.2z M122.7,67.7l-9.3-18h-6.3v18H92.8V10.3h20.5
				c14.6,0,20.5,6.2,20.5,19.7c0,7.8-1.7,12.9-6.8,16.6l11.4,21.2H122.7z M183.3,138.5h-14.1v-17.9h-12.8v17.9h-14.1V81h14.1v25.5
				h12.8V81h14.1V138.5z M184.7,24.4h-24.8v7.5h17.7v14.1h-17.7v7.6h24.8v14.1h-39.4V10.3h39.4V24.4z M193.1,10.3h39.4v14.1h-24.8
				v7.5h17.7v14.1h-17.7v7.6h24.8v14.1h-39.4V10.3z M193.6,138.5V81H233v14.1h-24.8v7.6h17.7v14.1h-17.7v7.6H233v14.1H193.6z"/>
		</g>
		<path class="st0" d="M253.8,164c15.4,0,20.5,6.2,20.5,19.7v18c0,13.5-5.1,19.8-20.5,19.8H233V164H253.8z M254,207.3
			c3.9,0,5.9-0.7,5.9-5.6v-18.1c0-5.1-2-5.6-5.9-5.6h-6.9v29.2H254z"/>
		<path class="st0" d="M323.7,221.5h-14.1v-12.1h-12v12.1h-14.1v-37.6c0-10.3,1.6-21.3,20.1-21.3s20.1,11,20.1,21.3V221.5z
			 M309.5,183.9c0-3.9-0.6-5.9-6-5.9s-6,2-6,5.9v11.3h12V183.9z"/>
		<path class="st0" d="M345.1,178.1h-16.4V164h47v14.1h-16.4v43.4h-14.1V178.1z"/>
		<path class="st0" d="M423.3,221.5h-14.1v-12.1h-12v12.1h-14.1v-37.6c0-10.3,1.6-21.3,20.1-21.3c18.5,0,20.1,11,20.1,21.3
			L423.3,221.5z M409.2,183.9c0-3.9-0.6-5.9-6-5.9s-6,2-6,5.9v11.3h12V183.9z"/>
	</g>
</g>
</svg>
