<svg xmlns="http://www.w3.org/2000/svg" xmlns:xlink="http://www.w3.org/1999/xlink" viewBox="0 0 430.78 355.82"><defs><style>.cls-1{fill:#fff7ea;}.cls-2{fill:#ff6338;}.cls-3{fill:#333;}.cls-4{fill:#fff;}.cls-5{fill:#3a3a3a;}</style></defs><g id="Layer_2" data-name="Layer 2"><g id="Layer_1-2" data-name="Layer 1"><g id="Layer_2-i0" data-name="Layer 2-i0"><path class="cls-1" d="M70.25,289.09c4.09,3.05.16,6.59.16,6.59l-6.12-5.93C64.22,289.73,67.45,287.05,70.25,289.09Z"/><path class="cls-1" d="M38.88,223.66a9.09,9.09,0,0,1,11.17,4.54C47.37,229.55,39.5,226.35,38.88,223.66Z"/><path class="cls-1" d="M59.16,231c2.71,5.82-.94,12.33-3,13.6C54.5,242.13,56.65,232.14,59.16,231Z"/><path class="cls-1" d="M22.28,203.57c.93,3.75,5.66,5.68,9.2,5.42C30.5,205.14,22.28,203.57,22.28,203.57Z"/><path class="cls-1" d="M63.17,95.12c2.21,9.87,12.74,10,20.45,8C82,95.23,76.79,73.84,76.79,73.84S60.78,84.23,63.17,95.12Z"/><path class="cls-1" d="M8.71,174l29.9-.27S35,191.84,23.09,190.71C9.57,189.48,8.71,174,8.71,174Z"/><path class="cls-1" d="M101.69,93.78,112,129.49s-19.32,1.4-22.49-12.39C86.19,102.28,101.69,93.78,101.69,93.78Z"/><path class="cls-2" d="M64,97.81h0c4.36,9.76,19.6,5.31,19.6,5.31L76.79,73.84a46.22,46.22,0,0,0-6.93,5.82c1.29,2.53,4,4.85,5.13,8.92.73,2.57.44,5.81-1.79,7.24C70.53,97.58,66.44,95.65,64,97.81Z"/><path class="cls-3" d="M26.4,343.5a1.73,1.73,0,0,1-.8-.61c-3.85-4.39-6.43-34.15-4.66-60.69-2.48-8.69-5.41-15.63-8.5-18.64-1.35-1.28-2.6-1.73-3.83-1.37C3.23,263.86.73,273.33,1.3,289.55a200,200,0,0,0,2.62,24.59.61.61,0,0,1-.49.7.59.59,0,0,1-.69-.48c-.39-2-8.65-48.81,5.57-53.31,1.68-.52,3.37,0,5,1.62,3.08,3,5.75,9.38,7.88,16.19.94-11.69,2.74-22.45,5.78-29.89,2.64-6.54,6-10.12,10.07-10.43A9.46,9.46,0,0,1,44.33,241c6.11,5.29,9.78,18.55,11.54,41.8a248.46,248.46,0,0,1-.35,34.69,2.23,2.23,0,0,1,.66-.09c2.15-.1,4.37,2,6.44,6.36a.61.61,0,0,1-.28.78.58.58,0,0,1-.77-.27c-1.8-3.75-3.6-5.75-5.26-5.7a2.88,2.88,0,0,0-.94.22c-.67,6.29-1.75,10.85-3.26,11.58A1.36,1.36,0,0,1,50.5,330c-1-1-.26-4.79.57-7.12a10.29,10.29,0,0,1,3.12-4.79,219.83,219.83,0,0,0,.46-35.21c-1.68-22.58-5.3-36-11.12-41a8.49,8.49,0,0,0-6.45-2.14c-3.57.32-6.62,3.61-9.12,9.74-3.22,7.93-5,20-5.88,32.8,2.15,7.62,3.67,15.25,4.28,18.81,3.15,17.37,4.24,33.7,2.66,39.67-.41,1.6-1,2.49-1.92,2.74A1.17,1.17,0,0,1,26.4,343.5ZM21.94,286c-1.24,25.29,1.15,52.28,4.5,56.1.11.12.34.36.46.24s.66-.32,1.08-1.93C30.13,332.16,27.11,305.83,21.94,286ZM54,320a8.2,8.2,0,0,0-1.41,2.44c-1.42,3.08-1.66,6.42-1.28,6.88.19.14.26.17.28.1C52.54,328.91,53.38,325.22,54,320Z"/><path class="cls-3" d="M63,303a5.61,5.61,0,0,0,3.81.08c3.78-1.12,6.15-5.37,6.3-5.56a.57.57,0,0,0-.12-.76l-1.56-1.35c.89-1.84,1.76-5-.69-6.86s-5-.67-6.66.42L62,287.11a.43.43,0,0,0-.51-.1c-.16,0-.28.13-.43.32-.24.47-5.53,10.7.17,14.72a109.14,109.14,0,0,0-7,15.77.64.64,0,0,0,.36.76h0a.64.64,0,0,0,.76-.36,85.55,85.55,0,0,1,3.39-8.44c1.75.39,6.08,1.21,6.19-1.3s-3.67-1.14-5.28-.6c1.21-2.52,2.2-4.4,2.66-5.27A1.19,1.19,0,0,0,63,303Zm7-13.44c1.66,1.3,1.15,3.59.46,5.1L65,289.86C66.37,289,68.35,288.25,70,289.56Z"/><path class="cls-3" d="M21.88,281.1l-2.11-27.76a7.84,7.84,0,0,0,3.09-4.08c1.19-3.32.33-6.65-1.89-7.44s-5,1.25-6.18,4.57-.33,6.65,1.9,7.45a3.2,3.2,0,0,0,2,0l.46,6.21c-1.33-1.35-4.89-4.77-5.67-2.58s4.52,6.24,6,7.33l1.22,16.37a.57.57,0,0,0,.36.52.28.28,0,0,0,.24,0A.53.53,0,0,0,21.88,281.1Z"/><path class="cls-2" d="M24.91,179.65a13.51,13.51,0,0,0,9.32-1.07,8.9,8.9,0,0,0,4-4.93l-29.7.17s1,10.56,7.72,14.86c0-.33-.05-.73-.09-1.06C15,179.87,17.37,178.15,24.91,179.65Z"/><path class="cls-3" d="M62.34,253.37a.48.48,0,0,0-.38-.46.5.5,0,0,0-.59.11,22,22,0,0,0-5.57,7.26,58,58,0,0,0,.86-14.75,13.88,13.88,0,0,0,2.91-15,.55.55,0,0,0-.37-.29.79.79,0,0,0-.52.13c-2.08,1.65-2.87,5.2-3.13,8.37a37.66,37.66,0,0,0-4.06-10c0-.1,0-.17-.09-.19a4.26,4.26,0,0,1-.27-.34c-3.42-5.6-8-9.77-12.25-13.6.42-1.21,2.29-7.32-2.26-11.72a.45.45,0,0,0-.51-.11.83.83,0,0,0-.46.4,13.12,13.12,0,0,0,.38,9.06l-2.13-1.95c-.52-.51-1-1-1.46-1.4a5.29,5.29,0,0,0-.57-.6c-7.52-7.94-8.14-15.25-8.09-17.15C36.63,190.12,38.94,174,39,173.82a.49.49,0,0,0-.16-.45.9.9,0,0,0-.39-.22l-7.63.07C30,171.88,27,167.64,22.26,168c-4.13.36-5.87,4.12-6.39,5.37l-7.3,0a.71.71,0,0,0-.45.16.47.47,0,0,0-.15.42c0,.17,1.37,13.32,10.35,16.52a11.51,11.51,0,0,0,4.32.66c0,1.82.42,7.16,4.9,13.53-1.8-1.12-3.89-1.86-5.7-1.39-.16,0-.28.14-.36.35a.76.76,0,0,0,0,.47,10.94,10.94,0,0,0,5.93,5.14,11.88,11.88,0,0,0,4.58.6L33.21,211c1.12,1,2.38,2.13,3.64,3.21a84.21,84.21,0,0,1,10.28,10.12A10,10,0,0,0,38.71,223a.55.55,0,0,0-.36.35.88.88,0,0,0,0,.48c.09.19,1.41,2.65,5.72,4.18a21.22,21.22,0,0,0,6.51,1.13c3.45,5.93,5.65,13.4,5,23.61a13.67,13.67,0,0,0-3.08-5.88.48.48,0,0,0-.42-.15c-.17,0-.33,0-.38.18-.36.35-2,3.12,1.39,18.34.09.19.18.39.39.46h0c-.09.45-.24.87-.32,1.32h0l0,.07c0,.07-.05.14,0,.17h0l.46,3.75a.51.51,0,0,0,.39.46h0a.58.58,0,0,0,.59-.11C63.49,264.45,62.36,253.53,62.34,253.37Zm-3.43-21.62a12.55,12.55,0,0,1-2.2,11.88C56.62,240.81,56.61,234.44,58.91,231.75ZM11.55,182.14a29,29,0,0,1-2.33-7.76l28.54-.2c-.59,3-3.59,15.14-14.53,15.7C18.12,190.13,14.18,187.54,11.55,182.14ZM23,204.31c2.79-.12,6.2,2.85,7.85,4.39A9.27,9.27,0,0,1,23,204.31Zm16.78,19.84c4.68-1,8.34,2.33,9.84,4.06C43.53,227.79,40.81,225.3,39.81,224.15Z"/><path class="cls-3" d="M71,216c-.16-1.09-.42-2.14-.58-3.23,3.81-4.3,5.68-15.27,2.62-16.59-2.57-1.16-4.31,4.83-4.88,7.1-.47-1.76-1-3.55-1.58-5.26,2.23-4.07,11.45-21.58,6.22-23.2-5-1.62-8.17,11.27-9,15.26-1.63-4.24-3.42-8.46-5.28-12.48,1.71-5.68,2.41-22.4-1.08-21.65-3.12.64-1.85,12.25-1.37,16.4-1.75-3.65-3.54-7.23-5.27-10.72l-2.66-5.33c1.35-6,.39-20.25-2.41-19.66-2.44.49-.53,11.2.26,15.15-3.45-7.28-6.37-14.06-7.78-20.22,1.35-1.82,8.8-12.4,5.35-13.71-3.11-1.18-5.17,7.48-6,10.79a26.78,26.78,0,0,1-.16-8.35c1.36-8.67,7-14.29,12.78-17.83,3.12.71,12.18,2.58,10.88,0-.87-1.74-5.1-2-7.37-2a48.93,48.93,0,0,1,9.42-3.33,10.42,10.42,0,0,0,6.6,6.57c6.2,2.21,14,0,14,0a.67.67,0,0,0,.42-.72l-2-8.69c1.18-1.33,4.35-5.38,3.32-8.45s-4.66-3.42-6.07-3.44l-2-8.68c0-.17-.21-.31-.32-.43a.65.65,0,0,0-.56,0,44.58,44.58,0,0,0-8.07,7c-4.91,5.43-6.75,10.82-5.59,15.7-2.73.62-14.09,3.67-21.18,12.13,1.28-3.36,4.14-12.06,1.33-12.11-3.11-.07-3.1,11.8-3.12,14.5a23.52,23.52,0,0,0-3.63,9.54c-.84,5.44.29,11.5,2.7,18.18-1.57-2-4.71-5.5-6.13-3.7-1.81,2.22,6.08,5.83,7.17,6.3,1.86,4.88,4.26,10,7,15.46-2.53-1.93-9-6.54-10.22-4.12-1.31,2.57,8.78,6.4,11.91,7.51.36.77.78,1.56,1.14,2.32,2.87,5.8,5.83,11.8,8.63,18-2.07-1.69-6.57-4.89-7.93-2.19C49,181,58.4,184.72,60.74,185.63a134.5,134.5,0,0,1,9,29.82c-1.56-2.23-5.28-7-7.65-5-2.77,2.28,6.77,13.17,8.84,15.5.86,16.95-3.13,35-16,53.83a.6.6,0,0,0,.17.85l.14.05a.62.62,0,0,0,.71-.22C69.73,260.38,74.68,239.2,71,216ZM76.51,74.85,83,102.75c-2.82.67-15.9,3.26-18.82-6.38C61.14,86.51,73.39,77,76.51,74.85Z"/><path class="cls-2" d="M102.11,121.89c-1.56.64-3.37-.24-4.75-1.21s-2.7-2.32-4.43-2.53a4.42,4.42,0,0,0-2.73.62C95,131.78,112,129.49,112,129.49L101.62,93.76a28.25,28.25,0,0,0-4.32,3.08c-.83,5.44,2.33,10,5.16,14.58,1.56,2.47,2.69,5.66,1.48,8.42A3.44,3.44,0,0,1,102.11,121.89Z"/><path class="cls-3" d="M88.92,240.84s5.89-4.43,6.14-7.53-3.46-2.19-3.46-2.19S96.36,222.38,94,221c-2-1.1-5.85,3.65-7.28,5.45a146,146,0,0,0,4.91-32.27c2-2.48,13.52-17.25,9.2-19.67-4-2.22-8.32,6.84-9.56,9.66-.21-1.82-.45-3.58-.76-5.13,2.11-5.7,5.3-21.69.28-21.49-4.15.2-4.09,8.19-3.85,11.7-1.64-3.53-3.73-7.15-5.75-10.73-.09-.19-.24-.41-.33-.6.41-3.36.94-16.95-2.19-17.43-2.71-.33-1.93,7.2-1.44,10.88-4-7.65-7-15-5.28-20.84A12.4,12.4,0,0,1,75.37,125c2.11.67,9.06,2.75,10.1.25.9-2.31-5.63-2-8.31-1.76a31.66,31.66,0,0,1,12.37-5,16,16,0,0,0,10.32,10.21A29.86,29.86,0,0,0,112.16,130a.49.49,0,0,0,.4-.25c0-.14.13-.35.08-.45l-2.87-9.79a7.9,7.9,0,0,0-1.11-14.26,7.47,7.47,0,0,0-3.22-.42l-3.3-11.22a.55.55,0,0,0-.35-.36.46.46,0,0,0-.49.06c-.19.1-16.22,9.21-12.21,24.17a38.55,38.55,0,0,0-7.65,2.3c-5.72,2.43-9.47,6.11-10.82,10.57a15.22,15.22,0,0,0-.56,3.54c-1.37-4.07-4-10.58-5.53-7.14-1.74,4,4.28,11.32,6.42,13.68,1.63,6,5.36,12.5,9,18.88,3.37,6,6.89,12.17,8.48,17.6,1.75,5.88,2.28,14.52,1.32,24.93-1.15-5.35-4.25-18.25-8-17-4.67,1.44-.57,20.11,6.14,29.9-.55,3.08-1.31,6.31-2.07,9.55a6,6,0,0,0-1.17-3.53c-1.56-1.35-2.44,1.12-2.44,1.12s-2.26-1.6-3.28.83-.23,7.25-.23,7.25-1.91-2.12-3.21,1.32-.22,7.65.24,10.12a36.68,36.68,0,0,1,.07,12.78c-.92,2.14-2.45,5.58-2.88,6.54A45,45,0,0,1,55,280.22a.6.6,0,0,0-.28.78c.11.12.16.21.3.26a1,1,0,0,0,.46,0,46.12,46.12,0,0,0,18.46-20.12S76,256.57,77,254.28A22,22,0,0,1,84,249C90.68,245.37,92.15,240.8,88.92,240.84ZM101.32,94.6l10,34.31c-3.3.26-17.21.56-20.85-11.25C86.59,104.9,98.46,96.46,101.32,94.6Z"/></g><polyline class="cls-4" points="349.78 21.99 346.74 30.96 352.69 26.07"/><path class="cls-4" d="M372.73,16.48a12,12,0,0,0-11.84-12,8.86,8.86,0,0,0-1.36.07c-.95-1.84-2.71-4.35-4.8-4-2.58.34-1,4.55-1,4.55s-3.93-2.92-5.89-1c-2.44,2.38,2.51,6.73,2.51,6.73l.13-.07A11.8,11.8,0,0,0,349,16.55,11.87,11.87,0,0,0,364.41,28c1.76,2.45,4.8,6.12,6.09,5.37,2-1.09-1-4.89-1-4.89s6.64,5.71,8.46,3.06-4.67-7.41-4.67-7.41,8.13,5.57,8.94,1.76C382.89,23.35,376.66,18.93,372.73,16.48Z"/><path class="cls-5" d="M373,17.1a.59.59,0,0,1-.54-.55A11.51,11.51,0,0,0,361,5a7,7,0,0,0-1.15.06.65.65,0,0,1-.61-.47c-.06-.27.21-.55.48-.61A7.85,7.85,0,0,1,361,3.91a12.63,12.63,0,0,1,12.59,12.64A.5.5,0,0,1,373,17.1Z"/><path class="cls-5" d="M361,29.26a12.65,12.65,0,0,1-12.59-12.71,13,13,0,0,1,1.49-6,.55.55,0,0,1,.75-.2.54.54,0,0,1,.2.74,12.06,12.06,0,0,0-1.35,5.51A11.52,11.52,0,0,0,361,28.18a12.3,12.3,0,0,0,3.46-.55.56.56,0,0,1,.67.34.55.55,0,0,1-.34.68A11.84,11.84,0,0,1,361,29.26Z"/><path class="cls-5" d="M358.45,23.76h-.54a6.92,6.92,0,0,1-4.74-2.45,7,7,0,1,1,9.75.82A7.09,7.09,0,0,1,358.45,23.76Zm-.07-12.92a6.06,6.06,0,0,0-3.86,1.43,5.94,5.94,0,0,0-.67,8.36,5.87,5.87,0,0,0,8.32.68,5.94,5.94,0,0,0,.68-8.36A5.53,5.53,0,0,0,358.38,10.84Z"/><path class="cls-5" d="M353.91,17.44a5.77,5.77,0,0,0-1.42,1.76,8.16,8.16,0,0,0,1,1.7,6.42,6.42,0,0,0,9.07.75A5.81,5.81,0,0,0,364,19.88a8.71,8.71,0,0,0-1-1.7A6.41,6.41,0,0,0,353.91,17.44Z"/><path class="cls-5" d="M359.26,46.33a.58.58,0,0,1-.54-.55V28.59a.54.54,0,1,1,1.08,0V45.72A.6.6,0,0,1,359.26,46.33Z"/><path class="cls-5" d="M362.44,46.33a.58.58,0,0,1-.54-.55V28.59a.54.54,0,1,1,1.08,0V45.72A.52.52,0,0,1,362.44,46.33Z"/><path class="cls-5" d="M346.74,31.51a.58.58,0,0,1-.34-.07.74.74,0,0,1-.2-.68l3-9a.54.54,0,1,1,1,.34l-2.37,7.2,4.4-3.74a.53.53,0,0,1,.68.82l-6,4.89C347,31.44,346.87,31.51,346.74,31.51Z"/><path class="cls-5" d="M370.16,34.09c-2.3,0-6-5.3-7.65-7.75a.59.59,0,0,1,.14-.75.61.61,0,0,1,.74.14c2.84,4.28,6,7.68,6.84,7.21.2-.14.34-.28.34-.48.2-.95-.82-2.72-1.56-3.6a.54.54,0,0,1,.07-.75.53.53,0,0,1,.74,0c1.29,1.09,4.94,3.87,6.84,3.6a1.25,1.25,0,0,0,.81-.47c1.29-1.77-3-5.51-4.53-6.67a.53.53,0,0,1-.14-.74.52.52,0,0,1,.74-.14c2.1,1.43,6,3.54,7.52,2.92.2-.06.47-.27.61-.81.54-2.52-7.25-7.89-12.32-10.74a.56.56,0,0,1-.21-.75.55.55,0,0,1,.75-.2,70.51,70.51,0,0,1,6.7,4.28c4.6,3.33,6.63,5.78,6.23,7.61a2.18,2.18,0,0,1-1.29,1.57c-1.15.47-2.84,0-4.4-.68,1.36,1.56,2.3,3.46,1.29,5a2,2,0,0,1-1.56.88c-1.62.21-3.86-1-5.48-2.17a3.77,3.77,0,0,1,.34,2,1.85,1.85,0,0,1-.88,1.22A1.12,1.12,0,0,1,370.16,34.09Z"/><path class="cls-5" d="M350.33,11.39a.49.49,0,0,1-.34-.14c-.14-.14-3.25-2.92-3.32-5.44a3.08,3.08,0,0,1,.81-2.11c1.56-1.49,3.93-.54,5.35.21a3.84,3.84,0,0,1,.27-2.86,2.32,2.32,0,0,1,1.56-1c3.59-.54,6.09,5.85,6.23,6.12a.47.47,0,0,1-.34.68.47.47,0,0,1-.68-.34c-.61-1.63-2.78-5.78-5.08-5.44a1.13,1.13,0,0,0-.81.48c-.54.88,0,2.72.2,3.33a.55.55,0,0,1-.2.61.6.6,0,0,1-.68,0c-.88-.61-3.79-2.24-5.07-1a1.7,1.7,0,0,0-.54,1.22c.06,1.7,2.16,3.95,3,4.63a.53.53,0,0,1,.07.74A.48.48,0,0,1,350.33,11.39Z"/><path class="cls-5" d="M276.76,113.34H258.88V98.06H243.71v15.28H225.83V65.74c0-13.1,2.08-27,25.47-27s25.46,13.92,25.46,27Zm-17.88-47.6c0-5-.72-7.49-7.58-7.49s-7.59,2.5-7.59,7.49V80.08h15.17Z"/><path class="cls-5" d="M307.62,40.59,324,80.39V40.59h17.88v72.75h-21L304.51,73.22v40.12H286.63V40.59Z"/><path class="cls-5" d="M370,40.59v72.75H352.31V40.59Z"/><path class="cls-5" d="M430.78,113.34H412.9V98.06H397.73v15.28H379.85V65.74c0-13.1,2.08-27,25.46-27s25.47,13.92,25.47,27ZM412.9,65.74c0-5-.73-7.49-7.59-7.49s-7.58,2.5-7.58,7.49V80.08H412.9Z"/><image width="503" height="502" transform="translate(34.41 68.49) rotate(-0.1) scale(0.57)" xlink:href="../freethedataproject.github.io/media/team/ania.png"/></g></g></svg>