<svg xmlns="http://www.w3.org/2000/svg" xmlns:xlink="http://www.w3.org/1999/xlink" viewBox="0 0 435.68 331.07"><defs><style>.cls-1{fill:#3a3a3a;}.cls-2{fill:#324a58;}.cls-3{fill:#2568ef;}.cls-4{fill:#ff564f;}</style></defs><g id="Layer_2" data-name="Layer 2"><g id="Layer_2-2" data-name="Layer 2"><image width="1065" height="889" transform="translate(0 123.31) scale(0.23)" xlink:href="../freethedataproject.github.io/media/team/frida.png"/><path class="cls-1" d="M226.17,31.21V49H193.83v9.54h23.32V76.41H193.83v27.37H175.37V31.21Z"/><path class="cls-1" d="M290,103.78h-19.9L258.41,81.07h-8v22.71h-18V31.21h25.92c18.45,0,25.92,7.88,25.92,24.88,0,9.85-2.18,16.28-8.61,20.94Zm-39.6-54.64v14h8.5c5,0,7.46-.62,7.46-7s-2.48-7.05-7.46-7Z"/><path class="cls-1" d="M313.56,31.21v72.57H295.94V31.21Z"/><path class="cls-1" d="M350.16,31.21c19.49,0,25.91,7.88,25.91,24.88v22.7c0,17-6.42,25-25.91,25H323.93V31.21ZM350.47,86c5,0,7.46-.83,7.46-7V56.09c0-6.43-2.49-7.05-7.46-7.05h-8.71V86Z"/><path class="cls-1" d="M435.68,103.78H417.85V88.54H402.72v15.24H384.89V56.3c0-13.06,2.07-27,25.4-27s25.39,13.9,25.39,27ZM417.85,56.3c0-5-.72-7.47-7.56-7.47s-7.57,2.49-7.57,7.47V70.6h15.13Z"/><path class="cls-2" d="M327.51,14.13a.72.72,0,0,0,.72.62H335a.72.72,0,0,0,.72-.62h10.19a15.65,15.65,0,0,1,12.2,5.75l10.94,13.48a16.65,16.65,0,0,0,13,6.11h.77A2.32,2.32,0,0,0,385,41h7.91l-.1-4.55H385a2.31,2.31,0,0,0-2.28,1.81H382a15.42,15.42,0,0,1-12-5.67L359.08,19.14a16.87,16.87,0,0,0-13.16-6.21H335.73a.72.72,0,0,0-.72-.62h-6.78a.72.72,0,0,0-.72.62H325.4v1.2Z"/><path class="cls-3" d="M302.17,6.46c2.62-.78,6-1.63,7.93-2a23.08,23.08,0,0,1,4.06-.38c7.25,0,11.07,4.12,11.21,9.19l.12,5.51A2.5,2.5,0,0,1,323,21.31H290.52A2.5,2.5,0,0,1,288,19C288,12.84,297.61,7.81,302.17,6.46Z"/><path class="cls-2" d="M314.27,2.91a24.11,24.11,0,0,0-4.28.4c-.5.09-1.1.21-1.76.36a4.69,4.69,0,0,1,9-.52,17.67,17.67,0,0,0-3-.25"/><path class="cls-2" d="M314.27,4.1a16.7,16.7,0,0,1,3.19.3s0,.1,0,.15h-7.61l.35-.07A23.16,23.16,0,0,1,314.27,4.1Z"/><path class="cls-4" d="M301.89,6.56l.33-.1c2.63-.78,6-1.63,7.94-2,9.88-1.77,15.1,2.86,15.27,8.81v.24C320,11.93,310.43,9.1,301.89,6.56Z"/></g></g></svg>