<svg xmlns="http://www.w3.org/2000/svg" xmlns:xlink="http://www.w3.org/1999/xlink" viewBox="0 0 487.12 383.16"><defs><style>.cls-1,.cls-4{fill:#00e6b3;}.cls-1,.cls-2,.cls-3,.cls-7{fill-rule:evenodd;}.cls-2{fill:#fff;}.cls-3,.cls-5{fill:#142664;}.cls-6{fill:#3a3a3a;}.cls-7{fill:#ff2e93;}</style></defs><g id="Layer_2" data-name="Layer 2"><g id="Layer_2-2" data-name="Layer 2"><path class="cls-1" d="M44.52,196a15.69,15.69,0,0,1-10.69-14.84V106.64A16.83,16.83,0,0,1,46.3,90.32c.89-.3,2.07-.6,3-.89A16.85,16.85,0,0,0,61.73,73.1V71.92a16.1,16.1,0,0,1,5.05-11.87,16.59,16.59,0,0,1,11.87-5H93.78a16.11,16.11,0,0,1,11.87,5,16.59,16.59,0,0,1,5,11.87V86.16a17.38,17.38,0,0,0,9.79,15.43c.89.3,1.49.6,2.38.89a16.76,16.76,0,0,1,9.79,15.44v64.4a15.91,15.91,0,0,1-8.61,14.24c-.59.3-.89.6-1.48.6a11.71,11.71,0,0,0-5.94,7.12h0A14.33,14.33,0,0,1,103,214.37H69.74a16.84,16.84,0,0,1-14.84-8.61,31.07,31.07,0,0,0-1.78-3.26,18.58,18.58,0,0,0-8.6-6.53Z"/><path class="cls-2" d="M99.72,160.06l-3,3a1,1,0,0,0,1.48,1.48l3-3a1,1,0,0,0-1.48-1.48Z"/><path class="cls-2" d="M92.59,108.72l-3,3a1.32,1.32,0,0,0,0,1.49,1.31,1.31,0,0,0,1.48,0l3-3a1.31,1.31,0,0,0,0-1.48A1.32,1.32,0,0,0,92.59,108.72Z"/><path class="cls-2" d="M63.21,114.36l3,3a1.32,1.32,0,0,0,1.49,0,1.34,1.34,0,0,0,0-1.48l-3-3a1.32,1.32,0,0,0-1.49,0C62.62,113.17,62.62,113.76,63.21,114.36Z"/><path class="cls-2" d="M49.56,175.79l3,3a1.34,1.34,0,0,0,1.48,0,1.32,1.32,0,0,0,0-1.49l-3-3a1.36,1.36,0,0,0-1.49,0A1.38,1.38,0,0,0,49.56,175.79Z"/><path class="cls-2" d="M72.41,69.54l3,3a1.32,1.32,0,0,0,1.49,0,1.34,1.34,0,0,0,0-1.48l-3-3a1.32,1.32,0,0,0-1.49,0A1.34,1.34,0,0,0,72.41,69.54Z"/><path class="cls-2" d="M106.84,198.34l-3,3a1.05,1.05,0,0,0,1.49,1.49l3-3a1.32,1.32,0,0,0,0-1.49A1.34,1.34,0,0,0,106.84,198.34Z"/><path class="cls-2" d="M115.74,123l-3,3a1,1,0,0,0,1.48,1.48l3-3a1.05,1.05,0,0,0-1.49-1.49Z"/><path class="cls-2" d="M102.39,151.45l-1.49,1.49a1.34,1.34,0,0,0,0,1.48,1.32,1.32,0,0,0,1.49,0l1.48-1.48a1.32,1.32,0,0,0,0-1.49A1.34,1.34,0,0,0,102.39,151.45Z"/><path class="cls-2" d="M94.08,98l-1.49,1.49a1.34,1.34,0,0,0,0,1.48,1.32,1.32,0,0,0,1.49,0l1.48-1.48a1.32,1.32,0,0,0,0-1.49A1.34,1.34,0,0,0,94.08,98Z"/><path class="cls-2" d="M101.79,77.26l-1.48,1.48a1.32,1.32,0,0,0,0,1.49,1.34,1.34,0,0,0,1.48,0l1.49-1.49a1.31,1.31,0,0,0,0-1.48C102.69,76.66,102.09,76.66,101.79,77.26Z"/><path class="cls-2" d="M54.31,118.81l1.48,1.48a1.32,1.32,0,0,0,1.49,0,1.34,1.34,0,0,0,0-1.48l-1.49-1.49a1.34,1.34,0,0,0-1.48,0A1.32,1.32,0,0,0,54.31,118.81Z"/><path class="cls-2" d="M53.42,189.74l1.48,1.48a1.32,1.32,0,0,0,1.49,0,1.34,1.34,0,0,0,0-1.48l-1.49-1.49a1.05,1.05,0,1,0-1.48,1.49Z"/><path class="cls-2" d="M61.43,93.88l1.49,1.48a1,1,0,1,0,1.48-1.48l-1.48-1.49a1.05,1.05,0,1,0-1.49,1.49Z"/><path class="cls-2" d="M66.18,149.38l1.49,1.48a1,1,0,0,0,1.48-1.48l-1.48-1.49a1.05,1.05,0,0,0-1.49,1.49Z"/><path class="cls-2" d="M116.63,113.76l-1.48,1.49a1,1,0,1,0,1.48,1.48l1.49-1.48a1.36,1.36,0,0,0,0-1.49C117.52,113.17,116.93,113.17,116.63,113.76Z"/><path class="cls-2" d="M118.41,154.72l-1.48,1.48a1.32,1.32,0,0,0,0,1.49,1.34,1.34,0,0,0,1.48,0l1.49-1.49a1.31,1.31,0,0,0,0-1.48A1.32,1.32,0,0,0,118.41,154.72Z"/><path class="cls-3" d="M78.65,177c0-3.57.29-7.42.29-11,.6-17.22,1.78-32.35,1.78-32.35a2.38,2.38,0,1,1,4.75,0s1.19,15.13,1.78,32.35c.3,4.74.3,9.79.3,14.54,0,4.15,0,8,.3,11.87,1.48-1.49,3.26-3.27,5.34-5,1.78-1.78,3.86-3.56,5.64-5,6.82-5.94,13.06-11,13.06-11a2.09,2.09,0,1,1,3,3s-5,6.24-11,13.06c-1.78,1.78-3.56,3.86-5,5.64-4.16,4.45-8.31,8.61-10.39,10.69v92.59a4.75,4.75,0,0,1-9.5,0V214.37s0-11.87.3-26.71c-2.37-2.37-6.53-6.83-11.28-11.57-1.78-1.79-3.56-3.86-5.34-5.94C56.39,163,51.05,156.5,51.05,156.5a2.1,2.1,0,1,1,3-3s4.75,3.86,10.39,8.61a23,23,0,0,1,2.67-2.38c.6-.29.89-.89,1.49-1.18,2.07-1.19,3.85-2.08,3.85-2.08a1.68,1.68,0,0,1,2.38,2.37s-.89,1.78-2.08,3.86c-.3.59-.89.89-1.19,1.48-.89.89-1.48,1.79-2.07,2.38a48.75,48.75,0,0,1,4.15,3.86A22.63,22.63,0,0,0,78.65,177Z"/><path class="cls-1" d="M82.5,262.74v-2.07a.89.89,0,0,0-1.78,0v2.07a1,1,0,0,0,.89.9A1.34,1.34,0,0,0,82.5,262.74Z"/><path class="cls-1" d="M71.23,172.82l-1.49-1.48a1,1,0,1,0-1.48,1.48l1.48,1.48a1.32,1.32,0,0,0,1.49,0C71.82,174,71.52,173.12,71.23,172.82Z"/><path class="cls-1" d="M85.18,222.09V220a.9.9,0,0,0-1.79,0v2.08a1,1,0,0,0,.89.89A1.36,1.36,0,0,0,85.18,222.09Z"/><path class="cls-1" d="M84.28,254.14v-.89a.89.89,0,0,0-1.78,0v.89a1,1,0,0,0,.89.89A.79.79,0,0,0,84.28,254.14Z"/><path class="cls-1" d="M95.86,191.81l.59-.59A1,1,0,0,0,95,189.74l-.59.59a1,1,0,0,0,1.48,1.48Z"/><path class="cls-1" d="M87.85,189.44v3l.59-.6-2.08,2.08a1,1,0,0,1-1.48-1.48Z"/><path class="cls-1" d="M24.34,291.24a16.16,16.16,0,0,0,.89-2.08,30.75,30.75,0,0,1,60-.3,9.24,9.24,0,0,0,7.41,6.83c16.33,2.07,30,17.21,30,33.53v.89H0A39.91,39.91,0,0,1,19.29,296a49.61,49.61,0,0,1,12.47-4.74c.59,0,.89-.6.89-1.19s-.6-.89-1.19-.89a33.83,33.83,0,0,0-7.12,2.08Z"/><path class="cls-2" d="M38,285.3l3,3a1.34,1.34,0,0,0,1.48,0,1.32,1.32,0,0,0,0-1.49l-3-3A1,1,0,0,0,38,285.3Z"/><path class="cls-2" d="M8.61,321.8l3,3a1.32,1.32,0,0,0,1.49,0,1.31,1.31,0,0,0,0-1.48l-3-3a1.31,1.31,0,0,0-1.48,0A1,1,0,0,0,8.61,321.8Z"/><path class="cls-2" d="M78.65,298.65l-3,3a1.32,1.32,0,0,0,0,1.49,1.34,1.34,0,0,0,1.48,0l3-3a1.32,1.32,0,0,0,0-1.49,1.34,1.34,0,0,0-1.48,0Z"/><path class="cls-2" d="M39.77,323l3,3a1.31,1.31,0,0,0,1.48,0,1.32,1.32,0,0,0,0-1.49l-3-3a1.31,1.31,0,0,0-1.48,0c-.6.59-.6,1.18,0,1.48Z"/><path class="cls-2" d="M71.23,285.3l-3,3a1,1,0,0,0,1.48,1.48l3-3a1,1,0,1,0-1.48-1.48Z"/><path class="cls-2" d="M41,278.18l1.48,1.48a1,1,0,1,0,1.48-1.48l-1.48-1.49a1.34,1.34,0,0,0-1.48,0,1.32,1.32,0,0,0,0,1.49Z"/><path class="cls-2" d="M11.28,310.82l1.48,1.49a1.36,1.36,0,0,0,1.49,0,1.36,1.36,0,0,0,0-1.49l-1.49-1.48a1.31,1.31,0,0,0-1.48,0A1.31,1.31,0,0,0,11.28,310.82Z"/><path class="cls-2" d="M71.82,278.18l-1.48,1.48a1,1,0,0,0,1.48,1.48l1.48-1.48a1.31,1.31,0,0,0,0-1.48c-.59-.6-1.18-.6-1.48,0Z"/><path class="cls-2" d="M62.62,270.16l-1.48,1.49a1,1,0,1,0,1.48,1.48l1.48-1.48a1.32,1.32,0,0,0,0-1.49A1.34,1.34,0,0,0,62.62,270.16Z"/><path class="cls-2" d="M16.62,322.1l1.48,1.48a1.32,1.32,0,0,0,1.49,0,1.34,1.34,0,0,0,0-1.48l-1.49-1.48a1.31,1.31,0,0,0-1.48,0,1.31,1.31,0,0,0,0,1.48Z"/><path class="cls-2" d="M70.34,322.1l-1.49,1.48a1.05,1.05,0,0,0,1.49,1.49l1.48-1.49a1,1,0,0,0-1.48-1.48Z"/><path class="cls-2" d="M79.54,312.6l-1.49,1.49a1.34,1.34,0,0,0,0,1.48,1.32,1.32,0,0,0,1.49,0L81,314.09a1.32,1.32,0,0,0,0-1.49C80.72,312,80.13,312,79.54,312.6Z"/><path class="cls-2" d="M98.23,318.54l-3,3A1,1,0,1,0,96.75,323l3-3a1.34,1.34,0,0,0,0-1.48c-.3-.59-.89-.59-1.49,0Z"/><path class="cls-2" d="M95.56,307.26l-1.48,1.49a1,1,0,1,0,1.48,1.48l1.49-1.48a1.36,1.36,0,0,0,0-1.49A1.32,1.32,0,0,0,95.56,307.26Z"/><path class="cls-3" d="M55.2,285.89c1.78,0,3.27.6,3.27,3.27S57,296,55.2,296s-3.26-3.85-3.26-6.82C51.94,286.49,53.42,285.89,55.2,285.89Z"/><path class="cls-3" d="M55.2,309.64c-1.78,0-3.26-.6-3.26-3.27s1.48-6.82,3.26-6.82,3.27,3.85,3.27,6.82C58.17,309,57,309.64,55.2,309.64Z"/><path class="cls-2" d="M46.59,289.16c1.19-1.19,2.68-1.78,4.75.29s3.86,5.64,2.67,6.83-5-.59-6.82-2.67c-2.67-1.78-2.08-3.26-.6-4.45Z"/><path class="cls-2" d="M63.81,306.37c-1.19,1.19-2.67,1.78-4.75-.3s-3.86-5.63-2.38-6.82c1.19-1.19,5,.59,6.83,2.67C65.59,303.7,65,305.18,63.81,306.37Z"/><path class="cls-2" d="M63.81,289.16c-1.19-1.19-2.67-1.78-4.75.29s-3.86,5.64-2.38,6.83c1.19,1.19,5-.59,6.83-2.67,2.08-1.78,1.48-3.26.3-4.45Z"/><path class="cls-2" d="M46.59,306.37c1.19,1.19,2.68,1.78,4.75-.3s3.86-5.63,2.67-6.82-5,.59-6.82,2.67C44.52,303.7,45.11,305.18,46.59,306.37Z"/><path class="cls-3" d="M67.07,297.76c0,1.79-.59,3.27-3.26,3.27S57,299.55,57,297.76s3.86-3.26,6.83-3.26C66.48,294.8,67.07,296,67.07,297.76Z"/><path class="cls-3" d="M43,297.76c0,1.79.6,3.27,3.27,3.27s6.82-1.48,6.82-3.27-3.85-3.26-6.82-3.26C43.63,294.8,43,296,43,297.76Z"/><circle class="cls-4" cx="55.2" cy="297.76" r="3.26"/><path class="cls-3" d="M54,314.68v-9.2a1,1,0,0,1,.89-.89.94.94,0,0,1,.89.89v6.83l3.27-1.49a.57.57,0,0,1,.89.3.55.55,0,0,1,0,.89l-4.16,4.45v13.65a.89.89,0,0,1-1.78,0v-8.9l-4.45-7.72c-.29-.29,0-.59,0-.89a.56.56,0,0,1,.89,0Z"/><path class="cls-3" d="M31.76,320.91V305.18a.89.89,0,0,1,1.78,0v24.64a.89.89,0,0,1-1.78,0V326l-3.57-4.45a.56.56,0,0,1,0-.89c.3-.3.6-.6.89-.3Z"/><path class="cls-2" d="M32.94,302.22c.3-.3.6-.89.89-1.19,2.08-2.08,4.75-2.38,5.94-1.19,1.48,1.49,1.19,3.86-1.19,5.94a4.25,4.25,0,0,1-1.19.89c.3.29.89.59,1.19.89,2.08,2.08,2.38,4.75,1.19,5.93-1.49,1.49-3.86,1.19-5.94-1.18a4.41,4.41,0,0,1-.89-1.19c-.29.3-.59.89-.89,1.19-2.08,2.07-4.75,2.37-5.93,1.18-1.49-1.48-1.19-3.85,1.18-5.93a4,4,0,0,1,1.19-.89c-.3-.3-.89-.6-1.19-.89-2.07-2.08-2.37-4.75-1.18-5.94,1.48-1.48,3.85-1.19,5.93,1.19A3.9,3.9,0,0,1,32.94,302.22Z"/><circle class="cls-5" cx="32.94" cy="306.96" r="2.67"/><path class="cls-6" d="M138.73,37.57V85.88c0,6.71-1.42,24.72-25.53,24.72s-25.63-18-25.63-24.72l16.89-3.76c.4,7,1.22,11,8.74,11s8-4.78,8-12.61V37.57Z"/><path class="cls-6" d="M197.71,108.76H180.22v-15H165.37v15H147.88V62.19c0-12.82,2-26.45,24.91-26.45s24.92,13.63,24.92,26.45ZM180.22,62.19c0-4.89-.71-7.33-7.43-7.33s-7.42,2.44-7.42,7.33v14h14.85Z"/><path class="cls-6" d="M239.5,61.37c-.81-6.2-4.37-7.93-9.35-7.93-4,0-6.41,2.34-6,4.68,1.42,7.93,34.07,7.73,34.07,31.12,0,3.05-3.46,21.05-27.56,21.05-21.77,0-26.55-13.73-26.55-22.68l17.29-3.76c.51,7.32,4.27,9,9.26,9s8.64-3,8-5.7c-1.93-8.64-33.05-6.71-33.05-30.1-.1-3,1.73-21,24.51-21,21.35,0,26.54,12.71,26.54,21.66Z"/><path class="cls-6" d="M292.28,37.57l8.44,34.79,8.44-34.79h26.75v71.19H318.42V61.17l-11.6,47.59h-12.2L283,61.17v47.59h-17.5V37.57Z"/><path class="cls-6" d="M363.36,37.57v71.19H346.07V37.57Z"/><path class="cls-6" d="M394.07,37.57l16.07,39v-39h17.5v71.19H407.09L391,69.51v39.25H373.53V37.57Z"/><path class="cls-6" d="M487.12,108.76H469.63v-15H454.78v15H437.29V62.19c0-12.82,2-26.45,24.92-26.45s24.91,13.63,24.91,26.45ZM469.63,62.19c0-4.89-.71-7.33-7.42-7.33s-7.43,2.44-7.43,7.33v14h14.85Z"/><path class="cls-7" d="M354.46,28.91a7.69,7.69,0,0,1,0-15.23V13.6A10.87,10.87,0,0,1,365.33,2.73a10.65,10.65,0,0,1,6.36,2.08A8.84,8.84,0,0,1,385,11.42a5.62,5.62,0,0,1,.93-.05,6.58,6.58,0,0,1,6.56,6.57,6.33,6.33,0,0,1-.59,2.72A4.48,4.48,0,0,1,389.56,29l-35.1-.08Z"/><path class="cls-3" d="M384.54,9.55a8.93,8.93,0,0,1,.43,1.87c.21,0,.41-.05.62-.05a11.27,11.27,0,0,1-.1,1.54,7.79,7.79,0,0,1-.39,1.51,9.83,9.83,0,0,1-1.43,2.72.4.4,0,0,1-.52.11.41.41,0,0,1-.1-.52,9.46,9.46,0,0,0,1.16-2.59,8.22,8.22,0,0,0,.28-1.38,9.35,9.35,0,0,0,.13-1.41,6.85,6.85,0,0,0-.08-1.44.63.63,0,0,0,0-.36Z"/><path class="cls-3" d="M393,21.6a6.6,6.6,0,0,0-.87-.69,4.81,4.81,0,0,0-1.16-.51,4.1,4.1,0,0,0-1.25-.21,4.53,4.53,0,0,0-1.39.18A4.67,4.67,0,0,0,387,21a.37.37,0,0,1-.51-.07.38.38,0,0,1,.07-.52,6.62,6.62,0,0,1,1.44-.82,5.6,5.6,0,0,1,1.64-.3,5.21,5.21,0,0,1,1.54.2,3.84,3.84,0,0,1,.95.41,4.57,4.57,0,0,1-.31.8,4,4,0,0,1,1.13.94Z"/><path class="cls-3" d="M354.46,13a4.16,4.16,0,0,1,.61,0,9,9,0,0,1,2.36.31,7.75,7.75,0,0,1,2.16,1,8.57,8.57,0,0,1,3.07,3.54.37.37,0,0,1-.15.49.38.38,0,0,1-.49-.16,7.72,7.72,0,0,0-2.89-3.05,8.09,8.09,0,0,0-1.95-.84,8,8,0,0,0-2.08-.31,7.53,7.53,0,0,0-2.18.25c-.36.11-.72.23-1.05.36a7.44,7.44,0,0,1,2.59-.84V13Z"/><path class="cls-3" d="M365.23,21.53a2.11,2.11,0,0,1,1.61-.13,2.13,2.13,0,0,1,1.24,1,2.21,2.21,0,0,1,.25,1.54,2.14,2.14,0,0,1-.92,1.34.34.34,0,0,0-.13.48.35.35,0,0,0,.49.13,2.82,2.82,0,0,0,1.41-1.72,2.87,2.87,0,0,0-2.1-3.64,2.85,2.85,0,0,0-2.21.36.35.35,0,0,0-.13.49.33.33,0,0,0,.49.18Z"/><path class="cls-3" d="M372.38,4.45a8.07,8.07,0,0,1,.67.72A10.09,10.09,0,0,1,374.28,7a7.69,7.69,0,0,1,.54,1.2,11.81,11.81,0,0,1,.62,3,.38.38,0,0,1-.75.08,11.29,11.29,0,0,0-.77-2.74c-.15-.39-.33-.75-.51-1.11a1.24,1.24,0,0,1-.1-.2,5,5,0,0,1-.64,1.23,5,5,0,0,1-1.49,1.38,5,5,0,0,1-1.67.62,3,3,0,0,1,.08,1,3.53,3.53,0,0,1-.39,1.31,3.46,3.46,0,0,1-1.05,1.07,3.57,3.57,0,0,1-1.41.47.37.37,0,0,1-.41-.31.35.35,0,0,1,.31-.41,2.46,2.46,0,0,0,1-.49,2.6,2.6,0,0,0,.72-.82,2.56,2.56,0,0,0,.36-.92,2.5,2.5,0,0,0,0-.77,4.35,4.35,0,0,1-1.43-.21,5,5,0,0,1-3-2.41.34.34,0,0,1,.12-.49.35.35,0,0,1,.49.13,4.28,4.28,0,0,0,4.23,2A4.26,4.26,0,0,0,370.69,9,4.07,4.07,0,0,0,372,7.94a4.37,4.37,0,0,0,.77-1.52s0,0,0-.07c-.16-.23-.31-.46-.44-.67a11.19,11.19,0,0,0-.9-1.1c.11,0,.18.13.29.18s.41-.18.66-.31Z"/><path class="cls-3" d="M381.41,5.3a5.33,5.33,0,0,1,.74.61,2.77,2.77,0,0,0-.59.31,3.57,3.57,0,0,0-1.05,1,3.07,3.07,0,0,0-.56,1.2,3.38,3.38,0,0,0-.08,1.34.37.37,0,0,1-.72.15,3.62,3.62,0,0,1-.07-1.67,4,4,0,0,1,.61-1.56,4,4,0,0,1,1.41-1.23l.31-.15Z"/><path class="cls-3" d="M354.61,28.91a6,6,0,0,1,1.67-3.64,4.25,4.25,0,0,1,.9-.72,4.93,4.93,0,0,1-.67-.87,4,4,0,0,1-.41-1,4.27,4.27,0,0,1-.13-.77,4.76,4.76,0,0,1,.21-1.8.36.36,0,0,1,.69.18,4.09,4.09,0,0,0,0,1.52,2.27,2.27,0,0,0,.15.61,5.11,5.11,0,0,0,.38,1,7.26,7.26,0,0,0,.44.72,6.12,6.12,0,0,1,2.74-.57A.35.35,0,0,1,361,24a.35.35,0,0,1-.36.36,5.15,5.15,0,0,0-2.69.87A11.42,11.42,0,0,0,357,26a5.64,5.64,0,0,0-1.56,2.93l-.8,0Z"/><path class="cls-3" d="M385.21,29A4.87,4.87,0,0,0,385,26a5.53,5.53,0,0,0-.87-1.43,5,5,0,0,0-1.29-1.08,5.08,5.08,0,0,0-2.46-.72,4.94,4.94,0,0,0-2.43.54,4.32,4.32,0,0,1-4.36,3.74.35.35,0,0,1-.36-.36.35.35,0,0,1,.36-.36,3.34,3.34,0,0,0,2.43-1.1,3.46,3.46,0,0,0,1-2.43,3.35,3.35,0,0,0-1-2.44,3.5,3.5,0,0,0-2.43-1.1.35.35,0,0,1-.36-.36.35.35,0,0,1,.36-.36,4.32,4.32,0,0,1,3.07,1.18,4.36,4.36,0,0,1,1.31,2.77,5.74,5.74,0,0,1,5.36.15A6.48,6.48,0,0,1,384.82,24a5.64,5.64,0,0,1,1,1.75A5.9,5.9,0,0,1,386,29Z"/><path class="cls-7" d="M366.77,29a6.14,6.14,0,0,1-6,6.1.3.3,0,0,0-.2.08L359,36.84a.29.29,0,0,1-.31,0,.33.33,0,0,1-.18-.28V32.55a.3.3,0,0,1,.08-.2.3.3,0,0,1,.21-.08l1.89,0h0A3.32,3.32,0,0,0,363.92,29h2.85V29Z"/><path class="cls-7" d="M381.26,29,385,32.76a.28.28,0,0,0,.2.08h2.31a.3.3,0,0,1,.28.18.26.26,0,0,1-.05.3L384.9,36.2a.32.32,0,0,1-.41,0L377.26,29Z"/><path class="cls-3" d="M347.79,21.53a4.88,4.88,0,0,1,2.28,0,.5.5,0,1,1-.2,1,4,4,0,0,0-2,.05C347.84,22.19,347.82,21.86,347.79,21.53Zm.51-3a7.13,7.13,0,0,1,2.11.13.5.5,0,0,1,.38.59.51.51,0,0,1-.59.38,6.54,6.54,0,0,0-2.2-.08,7.86,7.86,0,0,1,.3-1Z"/><path class="cls-7" d="M392.05,6a1.12,1.12,0,0,1-1-.56,1.17,1.17,0,0,1,.1-1.28h0a.82.82,0,0,0,.15-.85l0,0c-.41-.88-.82-1.83-1.1-2.44a.54.54,0,0,1,.07-.62.58.58,0,0,1,.59-.23c1.05.16,2.59.36,3.28.46a.65.65,0,0,1,.49.36c.26.57,1,2.18,1.31,2.9a.57.57,0,0,1,0,.51h0a3.42,3.42,0,0,0-.18,2.21h0a6.7,6.7,0,0,1-6.18,9.26,1,1,0,0,1,0-2A4.72,4.72,0,0,0,394.31,9,4.49,4.49,0,0,0,394,7.35,2,2,0,0,0,392.05,6Z"/><path class="cls-7" d="M340.64,28.37c.05-.3.1-.59.13-.82a.57.57,0,0,1,.25-.43h0a3.27,3.27,0,0,0,1.26-1.82h0a6.45,6.45,0,0,1,.84-2.49,6.68,6.68,0,0,1,9.13-2.44,1,1,0,0,1-1,1.7,4.73,4.73,0,0,0-6.46,1.71,4.44,4.44,0,0,0-.57,1.62,2.1,2.1,0,0,0,1,2.1h0a1.17,1.17,0,0,1,.56,1,1.12,1.12,0,0,1-.72,1.05h0c-.2.1-.41.2-.48.43h0c-.21.41-.41.59-.8.49l-.15-.05a6.67,6.67,0,0,0-.9-.28l-1.54-.49c-.64-.26-.72-.56-.64-1,0-.06,0-.13,0-.18h0v-.06Z"/><path class="cls-3" d="M363.82,29.91A3.46,3.46,0,0,0,364,29h2.84V29a5.46,5.46,0,0,1-.07.9h-2.9Z"/><path class="cls-3" d="M391.64,13.25a11.37,11.37,0,0,1,1.08,1.64,5.52,5.52,0,0,1-.9.38,8.16,8.16,0,0,0-1.18-1.69,3.36,3.36,0,0,0,1-.33Z"/><path class="cls-3" d="M382.18,29.91h-4l-.92-.92h4Z"/><image width="3500" height="3500" transform="translate(33.7 111) scale(0.08)" xlink:href="../freethedataproject.github.io/media/team/jasmina.png"/></g></g></svg>