<?xml version="1.0" encoding="utf-8"?>
<!-- Generator: Adobe Illustrator 25.0.1, SVG Export Plug-In . SVG Version: 6.00 Build 0)  -->
<svg version="1.1" id="Layer_1" xmlns="http://www.w3.org/2000/svg" xmlns:xlink="http://www.w3.org/1999/xlink" x="0px" y="0px"
	 viewBox="0 0 1200 800" style="enable-background:new 0 0 1200 800;" xml:space="preserve">
<style type="text/css">
	.st0{clip-path:url(#SVGID_2_);}
	.st1{fill:#BDEDEE;}
	.st2{fill:#F8F9FB;}
	.st3{clip-path:url(#SVGID_4_);}
	.st4{fill:none;}
	.st5{fill:#00B9BC;}
	.st6{fill:none;stroke:#E86166;stroke-width:5;}
	.st7{fill:#E86166;}
	.st8{fill:#006465;}
	.st9{fill:#E86166;stroke:#E86166;}
	.st10{fill:none;stroke:#F8F9FB;stroke-width:2;}
	.st11{clip-path:url(#SVGID_6_);}
	.st12{fill:#7DB0B0;}
	.st13{clip-path:url(#SVGID_8_);}
	.st14{fill:#2B3F44;}
	.st15{clip-path:url(#SVGID_10_);}
	.st16{clip-path:url(#SVGID_12_);}
	.st17{clip-path:url(#SVGID_14_);}
	.st18{clip-path:url(#SVGID_16_);}
	.st19{clip-path:url(#SVGID_18_);}
</style>
<g>
	<g transform="translate(747.0 303.0) rotate(0.0 139.5 189.5) scale(0.8248337028824834 0.825494044027801)">
		<g>
			<defs>
				<rect id="SVGID_1_" x="63.6" y="70.8" width="279" height="379"/>
			</defs>
			<clipPath id="SVGID_2_">
				<use xlink:href="#SVGID_1_"  style="overflow:visible;"/>
			</clipPath>
			<g transform="translate(-0.0 -0.0)" class="st0">
				<g id="Layer_2-i0">
					<g id="Layer_1-2-i0">
						<rect x="182.9" y="247.1" class="st1" width="7.4" height="238.3"/>
						<path class="st1" d="M288.7,486.2H84.4l22.8-4.8c25.1-5.3,50.7-8,76.3-8h5.9c25.7,0,51.2,2.7,76.3,8L288.7,486.2z"/>
						<path class="st1" d="M288.7,489.9H84.4c-1.9,0-3.5-1.4-3.7-3.3c-0.2-1.9,1-3.6,2.9-4l22.8-4.8c25.3-5.3,51.2-8,77.1-8h5.9
							c25.9,0,51.7,2.7,77.1,8l22.8,4.8c1.8,0.4,3.1,2.1,2.9,4C292.1,488.4,290.6,489.9,288.7,489.9z M121,482.5h131.1
							c-20.7-3.6-41.6-5.4-62.6-5.4h-5.9C162.6,477.1,141.6,478.9,121,482.5z"/>
						<path class="st2" d="M310.7,268.7l-193.3-21.6l58.7-179.8c6.4-19.6,24.7-32.8,45.3-32.9h99.5c26.3,0,47.6,21.3,47.6,47.6
							c0,5-0.8,10-2.4,14.8L310.7,268.7z"/>
						<path class="st1" d="M310.7,272.4h-0.4l-193.3-21.6c-1.1-0.1-2.1-0.8-2.7-1.7c-0.6-0.9-0.7-2.1-0.4-3.2l58.6-179.8
							c6.9-21.1,26.6-35.4,48.8-35.4h99.5c16.5-0.1,31.9,7.8,41.5,21.2c9.7,13.3,12.4,30.5,7.2,46.1l-55.5,171.8
							C313.7,271.3,312.3,272.4,310.7,272.4z M122.3,243.9l185.8,20.7l54.5-168.9c7.5-23-5-47.8-28.1-55.3c-4.4-1.4-9-2.2-13.7-2.2
							h-99.5c-19,0-35.9,12.2-41.7,30.3L122.3,243.9z"/>
						<path class="st2" d="M54.4,280.6h240.3c7.4,0,13.9-4.9,16.1-12l0,0c2.7-8.9-2.4-18.2-11.2-20.9c-1.6-0.5-3.2-0.7-4.9-0.7H54.4
							c-9.2,0-16.7,7.5-16.8,16.8l0,0c0,9.2,7.4,16.7,16.6,16.8C54.3,280.6,54.3,280.6,54.4,280.6z"/>
						<path class="st1" d="M294.7,284.3H54.4c-11.3,0.2-20.6-8.8-20.8-20.1c-0.2-11.3,8.8-20.6,20.1-20.8c0.2,0,0.5,0,0.7,0h240.3
							c11.3,0,20.5,9.1,20.5,20.4c0,2-0.3,4-0.8,5.9C311.7,278.3,303.7,284.3,294.7,284.3z M54.4,250.8c-7.2,0.1-13,6-13,13.2
							c0.1,7.1,5.8,12.9,13,13h240.3c7.2,0,13.1-5.8,13.1-13c0-2.8-0.9-5.5-2.5-7.8c-2.5-3.4-6.4-5.3-10.6-5.3H54.4z"/>
					</g>
				</g>
			</g>
		</g>
	</g>
</g>
<g>
	<g transform="translate(110.0 46.0) rotate(0.0 344.5 320.0) scale(1.2807500845778357 1.2821591560187355)">
		<g>
			<defs>
				<rect id="SVGID_3_" x="-53.7" y="-50.6" width="689" height="640"/>
			</defs>
			<clipPath id="SVGID_4_">
				<use xlink:href="#SVGID_3_"  style="overflow:visible;"/>
			</clipPath>
			<g transform="translate(-0.0 -0.0)" class="st3">
				<g id="Layer_2-i1">
					<g id="Layer_1-2-i1">
						<path class="st4" d="M533.2,519H48.5c-13.9,0-25.1-11.2-25.1-25.1c0,0,0,0,0,0V47.5c0-12.2,9.9-22.1,22.1-22.1l0,0h490.7
							c12.2,0,22.1,9.9,22.1,22.1v446.3C558.3,507.7,547.1,519,533.2,519L533.2,519z"/>
						<path class="st5" d="M557.3,86.3h-8.5c-1,0-1.8-0.9-1.8-1.9c0-1,0.8-1.8,1.8-1.8h8.5c1,0,1.9,0.8,1.9,1.8
							S558.4,86.3,557.3,86.3C557.4,86.3,557.4,86.3,557.3,86.3z"/>
						<path class="st5" d="M531.3,86.3h-8.5c-1,0-1.9-0.8-1.9-1.8c0-1,0.8-1.9,1.8-1.9c0,0,0.1,0,0.1,0h8.5c1,0,1.8,0.8,1.8,1.8
							c0,0,0,0,0,0C533.1,85.4,532.3,86.3,531.3,86.3z"/>
						<path class="st5" d="M505.1,86.3h-8.5c-1,0-1.8-0.9-1.8-1.9c0-1,0.8-1.8,1.8-1.8h8.5c1,0,1.9,0.8,1.9,1.8
							C507,85.4,506.2,86.3,505.1,86.3C505.2,86.3,505.2,86.3,505.1,86.3z"/>
						<path class="st5" d="M479.1,86.3h-8.5c-1,0-1.9-0.8-1.9-1.8c0-1,0.8-1.9,1.8-1.9c0,0,0.1,0,0.1,0h8.5c1,0,1.8,0.8,1.8,1.8
							c0,0,0,0,0,0C480.9,85.4,480.1,86.3,479.1,86.3z"/>
						<path class="st5" d="M452.9,86.3h-8.5c-1,0-1.8-0.9-1.8-1.9c0-1,0.8-1.8,1.8-1.8h8.5c1,0,1.9,0.8,1.9,1.8
							C454.9,85.4,454,86.3,452.9,86.3C453,86.3,453,86.3,452.9,86.3L452.9,86.3z"/>
						<path class="st5" d="M426.9,86.3h-8.5c-1,0-1.8-0.9-1.8-1.9c0-1,0.8-1.8,1.8-1.8h8.5c1,0,1.8,0.8,1.8,1.8c0,0,0,0,0,0
							C428.7,85.4,427.9,86.3,426.9,86.3z"/>
						<path class="st5" d="M400.8,86.3h-8.5c-1,0-1.8-0.9-1.8-1.9c0-1,0.8-1.8,1.8-1.8h8.5c1,0,1.9,0.8,1.9,1.8
							C402.7,85.4,401.9,86.3,400.8,86.3C400.8,86.3,400.8,86.3,400.8,86.3z"/>
						<path class="st5" d="M374.7,86.3h-8.5c-1,0-1.8-0.9-1.8-1.9c0-1,0.8-1.8,1.8-1.8h8.5c1,0,1.8,0.8,1.8,1.8c0,0,0,0,0,0
							C376.5,85.4,375.7,86.3,374.7,86.3z"/>
						<path class="st5" d="M348.6,86.3h-8.5c-1,0-1.8-0.9-1.8-1.9c0-1,0.8-1.8,1.8-1.8h8.5c1,0,1.9,0.8,1.9,1.8
							C350.5,85.4,349.7,86.3,348.6,86.3C348.6,86.3,348.6,86.3,348.6,86.3z"/>
						<path class="st5" d="M322.5,86.3H314c-1,0-1.8-0.9-1.8-1.9c0-1,0.8-1.8,1.8-1.8h8.5c1,0,1.8,0.8,1.8,1.8c0,0,0,0,0,0
							C324.3,85.4,323.5,86.3,322.5,86.3z"/>
						<path class="st5" d="M296.4,86.3h-8.5c-1,0-1.8-0.9-1.8-1.9c0-1,0.8-1.8,1.8-1.8h8.5c1,0,1.9,0.8,1.9,1.8
							C298.3,85.4,297.5,86.3,296.4,86.3C296.4,86.3,296.4,86.3,296.4,86.3z"/>
						<path class="st5" d="M270.3,86.3h-8.5c-1,0-1.8-0.9-1.8-1.9c0-1,0.8-1.8,1.8-1.8h8.5c1,0,1.8,0.8,1.8,1.8c0,0,0,0,0,0
							C272.1,85.4,271.3,86.3,270.3,86.3z"/>
						<path class="st5" d="M244.2,86.3h-8.5c-1,0-1.8-0.9-1.8-1.9c0-1,0.8-1.8,1.8-1.8h8.5c1,0,1.9,0.8,1.9,1.8
							C246.1,85.4,245.3,86.3,244.2,86.3C244.2,86.3,244.2,86.3,244.2,86.3z"/>
						<path class="st5" d="M218.1,86.3h-8.5c-1,0-1.8-0.9-1.8-1.9c0-1,0.8-1.8,1.8-1.8h8.5c1,0,1.8,0.8,1.8,1.8c0,0,0,0,0,0
							C220,85.4,219.1,86.3,218.1,86.3z"/>
						<path class="st5" d="M192,86.3h-8.5c-1,0-1.8-0.9-1.8-1.9c0-1,0.8-1.8,1.8-1.8h8.5c1,0,1.9,0.8,1.9,1.8
							C193.9,85.4,193.1,86.3,192,86.3C192,86.3,192,86.3,192,86.3z"/>
						<path class="st5" d="M165.9,86.3h-8.5c-1,0-1.8-0.9-1.8-1.9c0-1,0.8-1.8,1.8-1.8h8.5c1,0,1.8,0.8,1.8,1.8c0,0,0,0,0,0
							C167.8,85.4,166.9,86.3,165.9,86.3z"/>
						<path class="st5" d="M139.8,86.3h-8.5c-1,0-1.8-0.9-1.8-1.9c0-1,0.8-1.8,1.8-1.8h8.5c1,0,1.9,0.8,1.9,1.8
							C141.7,85.4,140.9,86.3,139.8,86.3C139.9,86.3,139.8,86.3,139.8,86.3z"/>
						<path class="st5" d="M113.7,86.3h-8.5c-1,0-1.8-0.9-1.8-1.9c0-1,0.8-1.8,1.8-1.8h8.5c1,0,1.8,0.8,1.8,1.8c0,0,0,0,0,0
							C115.6,85.4,114.8,86.3,113.7,86.3z"/>
						<path class="st5" d="M87.6,86.3h-8.5c-1,0-1.8-0.9-1.8-1.9c0-1,0.8-1.8,1.8-1.8h8.5c1,0,1.8,0.9,1.8,1.9
							C89.4,85.5,88.6,86.3,87.6,86.3z"/>
						<path class="st5" d="M61.6,86.3h-8.5c-1,0-1.8-0.9-1.8-1.9c0-1,0.8-1.8,1.8-1.8h8.5c1,0,1.8,0.8,1.8,1.8c0,0,0,0,0,0
							C63.4,85.4,62.6,86.3,61.6,86.3z"/>
						<path class="st5" d="M35.4,86.3h-8.5c-1,0-1.8-0.9-1.8-1.9c0-1,0.8-1.8,1.8-1.8h8.5c1,0,1.8,0.9,1.8,1.9
							C37.2,85.5,36.4,86.3,35.4,86.3z"/>
						<path class="st5" d="M59.8,70.2L59.8,70.2c-1.1-0.1-2.3-0.2-3.4-0.5c-1-0.3-1.6-1.3-1.3-2.3c0.3-1,1.3-1.6,2.3-1.3
							c0.8,0.2,1.7,0.4,2.5,0.4c1,0.1,1.8,0.9,1.8,2C61.6,69.4,60.8,70.2,59.8,70.2L59.8,70.2z M66.9,68.4c-0.7,0-1.3-0.3-1.6-0.9
							c-0.5-0.9-0.2-2,0.6-2.5c0,0,0,0,0,0c0.7-0.4,1.4-1,2-1.6c0.7-0.7,1.9-0.6,2.6,0.1c0.7,0.7,0.6,1.9-0.1,2.6
							c-0.8,0.8-1.7,1.4-2.7,2C67.5,68.3,67.2,68.4,66.9,68.4z M50.7,65.9c-0.5,0-1-0.2-1.4-0.6c-0.7-0.8-1.4-1.8-2-2.7
							c-0.5-0.9-0.1-2,0.8-2.5c0.9-0.5,2-0.2,2.5,0.7c0.4,0.7,0.9,1.4,1.5,2.1c0.7,0.7,0.6,1.9-0.1,2.5c0,0,0,0-0.1,0.1
							C51.6,65.7,51.2,65.9,50.7,65.9z M73,60.4c-0.2,0-0.3,0-0.4-0.1c-1-0.2-1.6-1.2-1.3-2.2c0,0,0,0,0-0.1
							c0.2-0.8,0.3-1.7,0.4-2.5c0-1,0.8-1.9,1.8-1.9s1.9,0.8,1.9,1.8c0,0,0,0.1,0,0.1c0,1.1-0.2,2.2-0.4,3.3
							C74.6,59.7,73.8,60.3,73,60.4z M47.3,56.4L47.3,56.4c-1.1-0.1-1.8-0.9-1.8-1.9c0.1-1.1,0.3-2.2,0.6-3.3c0.3-1,1.3-1.5,2.3-1.3
							c1,0.3,1.5,1.3,1.3,2.3c-0.2,0.8-0.4,1.7-0.4,2.5C49.1,55.7,48.3,56.4,47.3,56.4z M71.4,50.4c-0.6,0-1.2-0.3-1.5-0.9
							c-0.4-0.7-1-1.4-1.6-2c-0.7-0.7-0.7-1.9,0-2.6c0.7-0.7,1.9-0.7,2.6,0c0.8,0.8,1.5,1.7,2.1,2.7c0.5,0.8,0.3,2-0.6,2.5
							c0,0,0,0,0,0C72.1,50.3,71.8,50.4,71.4,50.4z M51.8,47.4c-0.5,0-1.1-0.2-1.4-0.7c-0.7-0.8-0.6-1.9,0.1-2.6
							c0.8-0.7,1.7-1.4,2.7-1.9c0.9-0.5,2-0.1,2.5,0.8c0.5,0.9,0.2,2-0.7,2.5c-0.7,0.4-1.4,0.9-2.1,1.4
							C52.7,47.2,52.2,47.4,51.8,47.4z M63.3,44.5c-0.2,0-0.3,0-0.4-0.1c-0.8-0.2-1.7-0.3-2.5-0.3c-1,0-1.9-0.8-1.9-1.8
							c0-1,0.8-1.9,1.8-1.9c0,0,0.1,0,0.1,0c1.1,0,2.2,0.1,3.3,0.4c1,0.2,1.6,1.2,1.4,2.2C64.9,43.9,64.2,44.5,63.3,44.5z"/>
						<path class="st5" d="M104.2,70.2L104.2,70.2c-1.1-0.1-2.3-0.2-3.4-0.5c-1-0.3-1.6-1.3-1.3-2.3c0.3-1,1.3-1.6,2.3-1.3
							c0.8,0.2,1.7,0.4,2.5,0.4c1,0.1,1.8,0.9,1.8,2C106,69.4,105.2,70.2,104.2,70.2z M111.3,68.4c-0.7,0-1.3-0.3-1.6-0.9
							c-0.5-0.9-0.2-2,0.6-2.5c0,0,0,0,0,0c0.7-0.4,1.4-1,2-1.6c0.7-0.7,1.9-0.7,2.6,0c0.7,0.7,0.7,1.9,0,2.6c0,0,0,0,0,0
							c-0.8,0.8-1.7,1.4-2.7,2C111.9,68.3,111.6,68.4,111.3,68.4z M95.1,65.9c-0.5,0-1-0.2-1.4-0.6c-0.7-0.8-1.4-1.8-2-2.7
							c-0.5-0.9-0.2-2,0.7-2.5c0.9-0.5,2-0.2,2.5,0.7c0,0,0,0,0,0c0.4,0.7,0.9,1.4,1.5,2.1c0.7,0.7,0.6,1.9-0.1,2.5c0,0,0,0-0.1,0.1
							C96,65.7,95.5,65.9,95.1,65.9z M117.3,60.4c-0.2,0-0.3,0-0.4-0.1c-1-0.2-1.6-1.2-1.3-2.2c0,0,0,0,0-0.1
							c0.2-0.8,0.3-1.7,0.4-2.5c0-1,0.8-1.9,1.8-1.9s1.9,0.8,1.9,1.8c0,0,0,0.1,0,0.1c0,1.1-0.2,2.2-0.4,3.3
							C118.9,59.7,118.2,60.3,117.3,60.4z M91.7,56.4L91.7,56.4c-1.1-0.1-1.8-0.9-1.8-1.9c0.1-1.1,0.3-2.2,0.6-3.3
							c0.3-1,1.3-1.5,2.3-1.3c1,0.3,1.5,1.3,1.3,2.3c-0.2,0.8-0.4,1.7-0.4,2.5C93.4,55.7,92.7,56.4,91.7,56.4z M115.8,50.4
							c-0.6,0-1.2-0.3-1.6-0.9c-0.4-0.7-1-1.4-1.6-2c-0.7-0.7-0.7-1.9,0-2.6c0.7-0.7,1.9-0.7,2.6,0c0.8,0.8,1.5,1.7,2.1,2.7
							c0.5,0.8,0.3,2-0.6,2.5c0,0,0,0,0,0C116.5,50.3,116.1,50.4,115.8,50.4z M96.1,47.4c-0.5,0-1.1-0.2-1.4-0.7
							c-0.7-0.8-0.6-1.9,0.1-2.6c0.8-0.7,1.7-1.4,2.7-1.9c0.9-0.5,2-0.1,2.5,0.8c0.5,0.9,0.2,2-0.7,2.5c-0.7,0.4-1.4,0.9-2.1,1.4
							C97,47.2,96.6,47.4,96.1,47.4z M107.7,44.5c-0.2,0-0.3,0-0.4-0.1c-0.8-0.2-1.7-0.3-2.5-0.3c-1,0-1.8-0.9-1.8-1.9
							c0-1,0.8-1.8,1.8-1.8c1.1,0,2.2,0.1,3.3,0.4c1,0.2,1.6,1.2,1.4,2.2C109.3,43.9,108.5,44.5,107.7,44.5z"/>
						<path class="st5" d="M148.6,70.2L148.6,70.2c-1.1-0.1-2.3-0.2-3.4-0.5c-1-0.3-1.6-1.3-1.3-2.3c0.3-1,1.3-1.6,2.3-1.3
							c0,0,0,0,0,0c0.8,0.2,1.7,0.4,2.5,0.4c1,0.1,1.8,0.9,1.8,2C150.4,69.4,149.5,70.2,148.6,70.2z M155.6,68.4
							c-0.7,0-1.3-0.3-1.6-0.9c-0.5-0.9-0.2-2,0.6-2.5c0,0,0,0,0,0c0.7-0.4,1.4-1,2-1.6c0.7-0.7,1.9-0.6,2.6,0.1
							c0.7,0.7,0.6,1.8-0.1,2.5c-0.8,0.8-1.7,1.4-2.7,2C156.3,68.3,156,68.4,155.6,68.4L155.6,68.4z M139.5,65.9
							c-0.5,0-1-0.2-1.4-0.6c-0.7-0.8-1.4-1.8-2-2.7c-0.5-0.9-0.2-2,0.7-2.5c0.9-0.5,2-0.2,2.5,0.7c0,0,0,0,0,0
							c0.4,0.7,0.9,1.4,1.5,2.1c0.7,0.7,0.6,1.9-0.1,2.5c0,0,0,0-0.1,0.1C140.3,65.7,139.9,65.9,139.5,65.9L139.5,65.9z M161.7,60.4
							c-0.2,0-0.3,0-0.4-0.1c-1-0.2-1.6-1.2-1.3-2.2c0,0,0,0,0,0c0.2-0.8,0.3-1.7,0.4-2.5c0-1,0.8-1.9,1.8-1.9c1,0,1.9,0.8,1.9,1.8
							c0,0,0,0.1,0,0.1c0,1.1-0.2,2.2-0.4,3.3C163.3,59.7,162.6,60.3,161.7,60.4L161.7,60.4z M136.1,56.4L136.1,56.4
							c-1.1-0.1-1.8-0.9-1.8-1.9c0.1-1.1,0.3-2.2,0.6-3.3c0.3-1,1.3-1.5,2.3-1.3c1,0.3,1.5,1.3,1.3,2.3l0,0
							c-0.2,0.8-0.4,1.7-0.4,2.5C137.8,55.7,137,56.4,136.1,56.4L136.1,56.4z M160.1,50.4c-0.6,0-1.2-0.3-1.6-0.9
							c-0.4-0.7-1-1.4-1.6-2c-0.7-0.7-0.7-1.9,0-2.6c0.7-0.7,1.9-0.7,2.6,0c0,0,0,0,0,0c0.8,0.8,1.5,1.7,2.1,2.7
							c0.5,0.8,0.3,2-0.6,2.5c0,0,0,0,0,0C160.8,50.3,160.5,50.4,160.1,50.4L160.1,50.4z M140.5,47.4c-0.5,0-1.1-0.2-1.4-0.7
							c-0.7-0.8-0.6-1.9,0.1-2.6c0.8-0.7,1.7-1.4,2.7-1.9c0.9-0.5,2-0.1,2.5,0.8c0.5,0.9,0.1,2-0.7,2.5c-0.7,0.4-1.4,0.9-2.1,1.4
							C141.4,47.2,141,47.4,140.5,47.4L140.5,47.4z M152,44.5c-0.2,0-0.3,0-0.4-0.1c-0.8-0.2-1.7-0.3-2.5-0.3c-1,0-1.8-0.9-1.8-1.9
							c0-1,0.8-1.8,1.8-1.8c1.1,0,2.2,0.1,3.3,0.4c1,0.3,1.6,1.2,1.4,2.2C153.6,43.9,152.9,44.5,152,44.5L152,44.5z"/>
						<path class="st5" d="M533.3,516.4h-12.1c-0.8,0-1.5-0.7-1.5-1.5s0.7-1.5,1.5-1.5h12c0.8,0,1.5,0.7,1.5,1.5
							C534.8,515.7,534.1,516.4,533.3,516.4C533.3,516.4,533.3,516.4,533.3,516.4z M509.2,516.4h-12c-0.8,0-1.5-0.7-1.5-1.5
							s0.7-1.5,1.5-1.5l0,0h12c0.8,0,1.5,0.7,1.5,1.5S510,516.4,509.2,516.4z M485.2,516.4h-12c-0.8,0-1.5-0.7-1.5-1.5
							s0.7-1.5,1.5-1.5h12c0.8,0,1.5,0.7,1.5,1.5S486,516.4,485.2,516.4z M461.2,516.4h-12c-0.8,0-1.5-0.7-1.5-1.5s0.7-1.5,1.5-1.5
							h12c0.8,0,1.5,0.7,1.5,1.5S462,516.4,461.2,516.4z M437.2,516.4h-12c-0.8,0-1.5-0.7-1.5-1.5s0.7-1.5,1.5-1.5h12
							c0.8,0,1.5,0.7,1.5,1.5S438,516.4,437.2,516.4z M413.2,516.4h-12c-0.8,0-1.5-0.7-1.5-1.5s0.7-1.5,1.5-1.5h12
							c0.8,0,1.5,0.7,1.5,1.5S414,516.4,413.2,516.4z M389.2,516.4h-12c-0.8,0-1.5-0.7-1.5-1.5s0.7-1.5,1.5-1.5h12
							c0.8,0,1.5,0.7,1.5,1.5S390,516.4,389.2,516.4z M365.2,516.4h-12c-0.8,0-1.5-0.7-1.5-1.5s0.7-1.5,1.5-1.5h12
							c0.8,0,1.5,0.7,1.5,1.5S366,516.4,365.2,516.4z M341.2,516.4h-12c-0.8,0-1.5-0.7-1.5-1.5s0.7-1.5,1.5-1.5h12
							c0.8,0,1.5,0.7,1.5,1.5S342,516.4,341.2,516.4z M317.2,516.4h-12c-0.8,0-1.5-0.7-1.5-1.5s0.7-1.5,1.5-1.5h12
							c0.8,0,1.5,0.7,1.5,1.5S318,516.4,317.2,516.4z M293.2,516.4h-12c-0.8,0-1.5-0.7-1.5-1.5s0.7-1.5,1.5-1.5h12
							c0.8,0,1.5,0.7,1.5,1.5S294,516.4,293.2,516.4z M269.2,516.4h-12c-0.8,0-1.5-0.7-1.5-1.5s0.7-1.5,1.5-1.5h12
							c0.8,0,1.5,0.7,1.5,1.5S270,516.4,269.2,516.4z M245.2,516.4h-12c-0.8,0-1.5-0.7-1.5-1.5s0.7-1.5,1.5-1.5h12
							c0.8,0,1.5,0.7,1.5,1.5S246,516.4,245.2,516.4z M221.2,516.4h-12c-0.8,0-1.5-0.7-1.5-1.5s0.7-1.5,1.5-1.5h12
							c0.8,0,1.5,0.7,1.5,1.5S222,516.4,221.2,516.4z M197.2,516.4h-12c-0.8,0-1.5-0.7-1.5-1.5s0.7-1.5,1.5-1.5h12
							c0.8,0,1.5,0.7,1.5,1.5S198,516.4,197.2,516.4z M173.2,516.4h-12c-0.8,0-1.5-0.7-1.5-1.5s0.7-1.5,1.5-1.5h12
							c0.8,0,1.5,0.7,1.5,1.5S174,516.4,173.2,516.4z M149.1,516.4h-12c-0.8,0-1.5-0.7-1.5-1.5s0.7-1.5,1.5-1.5l0,0h12
							c0.8,0,1.5,0.7,1.5,1.5S150,516.4,149.1,516.4z M125.1,516.4h-12c-0.8,0-1.5-0.7-1.5-1.5s0.7-1.5,1.5-1.5h12
							c0.8,0,1.5,0.7,1.5,1.5S126,516.4,125.1,516.4z M101.1,516.4h-12c-0.8,0-1.5-0.7-1.5-1.5s0.7-1.5,1.5-1.5h12
							c0.8,0,1.5,0.7,1.5,1.5S102,516.4,101.1,516.4z M77.1,516.4h-12c-0.8,0-1.5-0.7-1.5-1.5s0.7-1.5,1.5-1.5h12
							c0.8,0,1.5,0.7,1.5,1.5S78,516.4,77.1,516.4z M53.1,516.4h-4.6c-2.6,0-5.2-0.4-7.7-1.1c-0.8-0.2-1.2-1.1-1-1.9s1.1-1.2,1.9-1
							c0,0,0,0,0,0c2.2,0.7,4.5,1,6.9,1h4.6c0.8,0,1.5,0.7,1.5,1.5S54,516.4,53.1,516.4z M544.9,513.5c-0.8,0-1.5-0.7-1.5-1.5
							c0-0.6,0.3-1.1,0.8-1.3c3.3-1.8,6.2-4.3,8.4-7.4c0.5-0.7,1.4-0.8,2.1-0.4c0.7,0.5,0.8,1.4,0.4,2.1c-2.5,3.5-5.7,6.3-9.5,8.3
							C545.3,513.5,545.1,513.5,544.9,513.5L544.9,513.5z M31,509.3c-0.4,0-0.8-0.2-1-0.4c-3.1-3-5.3-6.6-6.7-10.7
							c-0.3-0.8,0.1-1.6,0.9-1.9c0.8-0.3,1.6,0.1,1.9,0.9c0,0,0,0,0,0.1c1.2,3.6,3.2,6.8,5.9,9.5c0.6,0.6,0.6,1.5,0,2.1
							C31.7,509.1,31.4,509.3,31,509.3z M558.1,494.6c-0.1,0-0.1,0-0.2,0c-0.8-0.1-1.4-0.9-1.3-1.7c0.1-1,0.2-2.1,0.2-3.2v-8.6
							c0-0.8,0.7-1.5,1.5-1.5s1.5,0.7,1.5,1.5v8.6c0,1.2-0.1,2.4-0.2,3.6C559.5,494.1,558.9,494.6,558.1,494.6L558.1,494.6z
							 M23.4,487.3c-0.8,0-1.5-0.7-1.5-1.5l0,0v-12c0-0.8,0.7-1.5,1.5-1.5s1.5,0.7,1.5,1.5v12C24.9,486.7,24.2,487.3,23.4,487.3
							L23.4,487.3z M558.3,470.6c-0.8,0-1.5-0.7-1.5-1.5v-12c0-0.8,0.7-1.5,1.5-1.5s1.5,0.7,1.5,1.5v12
							C559.8,469.9,559.1,470.6,558.3,470.6L558.3,470.6z M23.4,463.3c-0.8,0-1.5-0.7-1.5-1.5l0,0v-12c0-0.8,0.7-1.5,1.5-1.5
							s1.5,0.7,1.5,1.5v12C24.9,462.6,24.2,463.3,23.4,463.3L23.4,463.3z M558.3,446.6c-0.8,0-1.5-0.7-1.5-1.5v-12
							c0-0.8,0.7-1.5,1.5-1.5s1.5,0.7,1.5,1.5v12C559.8,445.9,559.1,446.6,558.3,446.6L558.3,446.6z M23.4,439.3
							c-0.8,0-1.5-0.7-1.5-1.5v-12c0-0.8,0.7-1.5,1.5-1.5s1.5,0.7,1.5,1.5v12C24.9,438.6,24.2,439.3,23.4,439.3z M558.3,422.6
							c-0.8,0-1.5-0.7-1.5-1.5v-12c0-0.8,0.7-1.5,1.5-1.5s1.5,0.7,1.5,1.5v12C559.8,421.9,559.1,422.6,558.3,422.6L558.3,422.6z
							 M23.4,415.3c-0.8,0-1.5-0.7-1.5-1.5v-12c0-0.8,0.7-1.5,1.5-1.5s1.5,0.7,1.5,1.5v12C24.9,414.6,24.2,415.3,23.4,415.3
							C23.4,415.3,23.4,415.3,23.4,415.3z M558.3,398.6c-0.8,0-1.5-0.7-1.5-1.5v-12c0-0.8,0.7-1.5,1.5-1.5s1.5,0.7,1.5,1.5v12
							C559.8,397.9,559.1,398.6,558.3,398.6z M23.4,391.3c-0.8,0-1.5-0.7-1.5-1.5v-12c0-0.8,0.7-1.5,1.5-1.5s1.5,0.7,1.5,1.5v12
							C24.9,390.6,24.2,391.3,23.4,391.3z M558.3,374.6c-0.8,0-1.5-0.7-1.5-1.5v-12c0-0.8,0.7-1.5,1.5-1.5s1.5,0.7,1.5,1.5v12
							C559.8,373.9,559.1,374.6,558.3,374.6z M23.4,367.3c-0.8,0-1.5-0.7-1.5-1.5v-12c0-0.8,0.7-1.5,1.5-1.5s1.5,0.7,1.5,1.5v12
							C24.9,366.6,24.2,367.3,23.4,367.3z M558.3,350.6c-0.8,0-1.5-0.7-1.5-1.5v-12c0-0.8,0.7-1.5,1.5-1.5s1.5,0.7,1.5,1.5v12
							C559.8,349.9,559.1,350.6,558.3,350.6L558.3,350.6z M23.4,343.3c-0.8,0-1.5-0.7-1.5-1.5v-12c0-0.8,0.7-1.5,1.5-1.5
							s1.5,0.7,1.5,1.5v12C24.9,342.6,24.2,343.3,23.4,343.3z M558.3,326.6c-0.8,0-1.5-0.7-1.5-1.5v-12c0-0.8,0.7-1.5,1.5-1.5
							s1.5,0.7,1.5,1.5v12C559.8,325.9,559.1,326.6,558.3,326.6L558.3,326.6z M23.4,319.3c-0.8,0-1.5-0.7-1.5-1.5v-12
							c0-0.8,0.7-1.5,1.5-1.5s1.5,0.7,1.5,1.5v12C24.9,318.6,24.2,319.3,23.4,319.3z M558.3,302.6c-0.8,0-1.5-0.7-1.5-1.5v-12
							c0-0.8,0.7-1.5,1.5-1.5s1.5,0.7,1.5,1.5v12C559.8,301.9,559.1,302.6,558.3,302.6z M23.4,295.3c-0.8,0-1.5-0.7-1.5-1.5v-12
							c0-0.8,0.7-1.5,1.5-1.5s1.5,0.7,1.5,1.5v12C24.9,294.6,24.2,295.3,23.4,295.3z M558.3,278.6c-0.8,0-1.5-0.7-1.5-1.5v-12
							c0-0.8,0.7-1.5,1.5-1.5s1.5,0.7,1.5,1.5v12C559.8,277.9,559.1,278.6,558.3,278.6L558.3,278.6z M23.4,271.3
							c-0.8,0-1.5-0.7-1.5-1.5v-12c0-0.8,0.7-1.5,1.5-1.5s1.5,0.7,1.5,1.5v12C24.9,270.6,24.2,271.3,23.4,271.3z M558.3,254.6
							c-0.8,0-1.5-0.7-1.5-1.5v-12c0-0.8,0.7-1.5,1.5-1.5s1.5,0.7,1.5,1.5v12C559.8,253.9,559.1,254.6,558.3,254.6L558.3,254.6z
							 M23.4,247.3c-0.8,0-1.5-0.7-1.5-1.5v-12c0-0.8,0.7-1.5,1.5-1.5s1.5,0.7,1.5,1.5v12C24.9,246.6,24.2,247.3,23.4,247.3z
							 M558.3,230.6c-0.8,0-1.5-0.7-1.5-1.5v-12c0-0.8,0.7-1.5,1.5-1.5s1.5,0.7,1.5,1.5v12C559.8,229.9,559.1,230.6,558.3,230.6
							L558.3,230.6z M23.4,223.3c-0.8,0-1.5-0.7-1.5-1.5v-12c0-0.8,0.7-1.5,1.5-1.5s1.5,0.7,1.5,1.5v12
							C24.9,222.6,24.2,223.3,23.4,223.3z M558.3,206.6c-0.8,0-1.5-0.7-1.5-1.5v-12c0-0.8,0.7-1.5,1.5-1.5s1.5,0.7,1.5,1.5v12
							C559.8,205.9,559.1,206.6,558.3,206.6L558.3,206.6z M23.4,199.3c-0.8,0-1.5-0.7-1.5-1.5v-12c0-0.8,0.7-1.5,1.5-1.5
							s1.5,0.7,1.5,1.5v12C24.9,198.6,24.2,199.3,23.4,199.3z M558.3,182.6c-0.8,0-1.5-0.7-1.5-1.5v-12c0-0.8,0.7-1.5,1.5-1.5
							s1.5,0.7,1.5,1.5v12C559.8,181.9,559.1,182.6,558.3,182.6z M23.4,175.3c-0.8,0-1.5-0.7-1.5-1.5v-12c0-0.8,0.7-1.5,1.5-1.5
							s1.5,0.7,1.5,1.5v12C24.9,174.6,24.2,175.3,23.4,175.3z M558.3,158.6c-0.8,0-1.5-0.7-1.5-1.5v-12c0-0.8,0.7-1.5,1.5-1.5
							s1.5,0.7,1.5,1.5v12C559.8,157.9,559.1,158.5,558.3,158.6L558.3,158.6z M23.4,151.2c-0.8,0-1.5-0.7-1.5-1.5v-12
							c0-0.8,0.7-1.5,1.5-1.5s1.5,0.7,1.5,1.5v12C24.9,150.6,24.2,151.2,23.4,151.2z M558.3,134.5c-0.8,0-1.5-0.7-1.5-1.5v-12
							c0-0.8,0.7-1.5,1.5-1.5s1.5,0.7,1.5,1.5v12C559.8,133.9,559.1,134.5,558.3,134.5z M23.4,127.2c-0.8,0-1.5-0.7-1.5-1.5v-12
							c0-0.8,0.7-1.5,1.5-1.5s1.5,0.7,1.5,1.5v12C24.9,126.6,24.2,127.2,23.4,127.2z M558.3,110.5c-0.8,0-1.5-0.7-1.5-1.5V97
							c0-0.8,0.7-1.5,1.5-1.5s1.5,0.7,1.5,1.5v12C559.8,109.9,559.1,110.5,558.3,110.5L558.3,110.5z M23.4,103.2
							c-0.8,0-1.5-0.7-1.5-1.5v-12c0-0.8,0.7-1.5,1.5-1.5s1.5,0.7,1.5,1.5v12C24.9,102.6,24.2,103.2,23.4,103.2z M558.3,86.5
							c-0.8,0-1.5-0.7-1.5-1.5V73c0-0.8,0.7-1.5,1.5-1.5s1.5,0.7,1.5,1.5v12C559.8,85.9,559.1,86.5,558.3,86.5z M23.4,79.2
							c-0.8,0-1.5-0.7-1.5-1.5v-12c0-0.8,0.7-1.5,1.5-1.5s1.5,0.7,1.5,1.5v12C24.9,78.6,24.2,79.2,23.4,79.2z M558.3,62.5
							c-0.8,0-1.5-0.7-1.5-1.5V49c0-0.8,0.7-1.5,1.5-1.5s1.5,0.7,1.5,1.5v12C559.8,61.9,559.1,62.5,558.3,62.5L558.3,62.5z
							 M23.4,55.2c-0.8,0-1.5-0.7-1.5-1.5V43.4c0-0.6,0-1.2,0.1-1.8c0.1-0.8,0.8-1.4,1.6-1.4c0,0,0,0,0,0c0.8,0.1,1.4,0.8,1.4,1.6
							c0,0,0,0,0,0c0,0.5-0.1,1.1-0.1,1.6v10.3C24.9,54.6,24.2,55.2,23.4,55.2z M557.4,38.6c-0.7,0-1.2-0.4-1.4-1.1
							c-1.1-3.6-3.1-6.8-5.9-9.4c-0.6-0.6-0.6-1.5-0.1-2.1c0.6-0.6,1.5-0.6,2.1-0.1c3.2,2.9,5.5,6.6,6.7,10.7c0.2,0.8-0.2,1.6-1,1.9
							C557.7,38.6,557.5,38.6,557.4,38.6z M27.5,32.1c-0.8,0-1.5-0.7-1.5-1.5c0-0.3,0.1-0.6,0.3-0.9c2.5-3.5,5.9-6.2,9.8-8
							c0.8-0.3,1.6,0,2,0.8c0.3,0.8,0,1.6-0.8,2c-3.4,1.5-6.4,3.9-8.6,7C28.4,31.9,28,32.1,27.5,32.1z M540.5,23.2
							c-0.1,0-0.2,0-0.3,0c-1.3-0.3-2.7-0.4-4-0.4h-7.6c-0.8,0-1.5-0.7-1.5-1.5c0-0.8,0.7-1.5,1.5-1.5h7.6c1.6,0,3.1,0.2,4.6,0.5
							c0.8,0.2,1.3,1,1.2,1.8C541.8,22.7,541.2,23.2,540.5,23.2z M516.5,22.8h-12c-0.8,0-1.5-0.7-1.5-1.5c0-0.8,0.7-1.5,1.5-1.5h12
							c0.8,0,1.5,0.7,1.5,1.5C518,22.1,517.4,22.8,516.5,22.8z M492.5,22.8h-12c-0.8,0-1.5-0.7-1.5-1.5c0-0.8,0.7-1.5,1.5-1.5h12
							c0.8,0,1.5,0.7,1.5,1.5C494,22.1,493.4,22.8,492.5,22.8z M468.5,22.8h-12c-0.8,0-1.5-0.7-1.5-1.5c0-0.8,0.7-1.5,1.5-1.5h12
							c0.8,0,1.5,0.7,1.5,1.5C470,22.1,469.4,22.8,468.5,22.8z M444.5,22.8h-12c-0.8,0-1.5-0.7-1.5-1.5c0-0.8,0.7-1.5,1.5-1.5h12
							c0.8,0,1.5,0.7,1.5,1.5C446,22.1,445.4,22.8,444.5,22.8z M420.5,22.8h-12c-0.8,0-1.5-0.7-1.5-1.5c0-0.8,0.7-1.5,1.5-1.5h12
							c0.8,0,1.5,0.7,1.5,1.5C422,22.1,421.3,22.8,420.5,22.8z M396.5,22.8h-12c-0.8,0-1.5-0.7-1.5-1.5c0-0.8,0.7-1.5,1.5-1.5h12
							c0.8,0,1.5,0.7,1.5,1.5C398,22.1,397.3,22.8,396.5,22.8z M372.5,22.8h-12c-0.8,0-1.5-0.7-1.5-1.5c0-0.8,0.7-1.5,1.5-1.5h12
							c0.8,0,1.5,0.7,1.5,1.5C374,22.1,373.3,22.8,372.5,22.8z M348.5,22.8h-12c-0.8,0-1.5-0.7-1.5-1.5c0-0.8,0.7-1.5,1.5-1.5h12
							c0.8,0,1.5,0.7,1.5,1.5C350,22.1,349.3,22.8,348.5,22.8z M324.5,22.8h-12c-0.8,0-1.5-0.7-1.5-1.5c0-0.8,0.7-1.5,1.5-1.5h12
							c0.8,0,1.5,0.7,1.5,1.5C326,22.1,325.3,22.8,324.5,22.8z M300.5,22.8h-12c-0.8,0-1.5-0.7-1.5-1.5c0-0.8,0.7-1.5,1.5-1.5h12
							c0.8,0,1.5,0.7,1.5,1.5C302,22.1,301.3,22.8,300.5,22.8z M276.5,22.8h-12c-0.8,0-1.5-0.7-1.5-1.5c0-0.8,0.7-1.5,1.5-1.5h12
							c0.8,0,1.5,0.7,1.5,1.5C278,22.1,277.3,22.8,276.5,22.8z M252.5,22.8h-12c-0.8,0-1.5-0.7-1.5-1.5c0-0.8,0.7-1.5,1.5-1.5l0,0
							h12c0.8,0,1.5,0.7,1.5,1.5C254,22.1,253.3,22.8,252.5,22.8z M228.5,22.8h-12c-0.8,0-1.5-0.7-1.5-1.5c0-0.8,0.7-1.5,1.5-1.5h12
							c0.8,0,1.5,0.7,1.5,1.5C230,22.1,229.3,22.8,228.5,22.8z M204.5,22.8h-12c-0.8,0-1.5-0.7-1.5-1.5c0-0.8,0.7-1.5,1.5-1.5h12
							c0.8,0,1.5,0.7,1.5,1.5C206,22.1,205.3,22.8,204.5,22.8z M180.5,22.8h-12c-0.8,0-1.5-0.7-1.5-1.5c0-0.8,0.7-1.5,1.5-1.5h12
							c0.8,0,1.5,0.7,1.5,1.5C182,22.1,181.3,22.8,180.5,22.8z M156.5,22.8h-12c-0.8,0-1.5-0.7-1.5-1.5c0-0.8,0.7-1.5,1.5-1.5h12
							c0.8,0,1.5,0.7,1.5,1.5C158,22.1,157.3,22.8,156.5,22.8z M132.5,22.8h-12c-0.8,0-1.5-0.7-1.5-1.5c0-0.8,0.7-1.5,1.5-1.5h12
							c0.8,0,1.5,0.7,1.5,1.5C134,22.1,133.3,22.8,132.5,22.8z M108.4,22.8h-12c-0.8,0-1.5-0.7-1.5-1.5c0-0.8,0.7-1.5,1.5-1.5h12
							c0.8,0,1.5,0.7,1.5,1.5C109.9,22.1,109.3,22.8,108.4,22.8z M84.4,22.8h-12c-0.8,0-1.5-0.7-1.5-1.5c0-0.8,0.7-1.5,1.5-1.5h12
							c0.8,0,1.5,0.7,1.5,1.5C85.9,22.1,85.3,22.8,84.4,22.8z M60.4,22.8h-12c-0.8,0-1.5-0.7-1.5-1.5c0-0.8,0.7-1.5,1.5-1.5h12
							c0.8,0,1.5,0.7,1.5,1.5C61.9,22.1,61.3,22.8,60.4,22.8z"/>
					</g>
				</g>
			</g>
		</g>
	</g>
</g>
<g>
	<g id="flamenco-119" transform="translate(2.5 2.5)">
		<g id="Group_17_">
			<path id="New-shape-3" class="st6" d="M854.9,439.6l4.4-0.3l9.6,9c0,0,3.4,21.9,8,40.7c1.7,6.8,5.3,8.9,8.3,9.9
				c5.3,2,10.8-1.4,12.1-2.8c2.1-2.2-1.5-13.7-2.4-21.5s-0.2-7.6-0.2-7.6s15,8.2,32.9,9.2c17.9,1.1,38.8-5,38.8-5s-0.8,9.6-4.3,21
				c-1.2,3.9,1.3,6.7,3.3,7.6c2.5,1.1,7.9,1.3,10.9-0.7c4.6-3,12.6-38.8,12.6-38.8l10.8-10.6c0,0-1.6,5.9-3.5,17.3
				c-1.3,7.9-3.7,13.8-5.7,19.6c-0.9,2.6-3.3,8.3-2.6,10.9c0.6,2,6.1,2.8,6.1,2.8l4.3,0.3c1.8-0.2,5.8-0.4,7.6-2.4
				c2.2-2.5-0.9,4.6,9.9-23.6c10.9-28.2,8.5-61.8,8.5-61.8s5-1.1,17.3-6.9c42.1-19.8,32.2-41.8,35.8-65.8
				c1.5-9.9,8.3-17.1,20.1-20.1s27-3.1,31.7-5.4c12.6-6.4,13.7-21.9,5.7-30.3c-2.7-2.9-5-5.7-18.4-5.9c-8.3-0.1-16.3,2.2-18.9,3.3
				c-49.5,20.8-45.9,80.9-46.2,87.8s-3.2,13.5-11.6,19.4c-4.2,3-18.9,5.4-18.9,5.4s-1.2-10.6-8-17s-15-9.6-24.4-9.7
				s-6.7,0.9-23.9,3.8c-42.3,7-34.1-25.8-34.1-25.8l3.8-7.6l8.5-17.3c0,0,10.4-10.8,16.6-20.8c6.1-10,8-18,8-18s-6.9-1.3-15.6-1.4
				c-8.7-0.1-19.4,2.6-19.4,2.6s-9-11.3-20.8-15.8c-11.8-4.6-26.5-2.4-26.5-2.4s-4.8-8.6-10.4-14.4s-12.1-9-12.1-9
				s-4.3,6.5-6.4,17.3c-2.1,10.8-1.8,15.2-2.1,25.8"/>
			<path id="New-shape-2" class="st6" d="M864.3,271.2c0,0-26.7,28-33.9,74.3c-3,19.3-1.8,45.3,0.5,72.6s11.3,56,13.7,63.4
				c2.4,7.4,6.1,18.3,11.8,18.2c5.7-0.1,12.5,0.7,13.7-4.7c1.2-5.6-4.1-18.2-7.3-30l-5.9-33.3l-3.8-141"/>
			<g id="Group" transform="translate(0.84910583 73.246765)">
				<path id="Shape" class="st7" d="M935.7,403.5c-2.8,0.1-5.3,0.4-7.9,0.1c-2.8-0.3-5.9-0.7-8.5-0.6c-1,0.1-2-0.4-3-0.7
					c-0.9-0.3-0.8-0.5-1.7-0.7c-0.8-0.1-0.8,0.4-1.9,0.1c-1-0.2-2.3-1.2-3.4-1.6c-2.1-0.8-3.9-0.6-5.9-1.6c-4.3-2.2-8-3.1-12.3-5.3
					c-0.9-0.5-1.7-1.1-2.7-1.5c-1.1-0.4-2.7-1.3-3.7-2c-1.4-0.9-2.6-1.9-4-2.8c-0.9-0.6-1.7-1.5-2.7-2.1c-2.5-1.3-3.7-3.9-6.2-5.3
					c-0.5-0.3-1.5-0.4-1.8-0.7c-0.4-0.2,0-1.2-0.3-1.5c-0.4-0.3-1.3-0.5-1.8-0.8c-0.6-0.4-1.8-1.5-2.2-2c-0.7-0.7-1.2-1.8-1.9-2.4
					c-0.6-0.6-1.7-1.3-2.3-2c-0.5-0.5-0.8-1.5-1.2-2.2c-0.2-0.3-0.8-0.4-1.1-0.7c-1-1.1-1.7-2.1-2.9-3.1c-0.8-0.7-1.8-2-2.3-2.8
					c-0.5-0.8-1.5-1.4-2.1-2.2c-0.3-0.4-0.2-1.1-0.5-1.5c-0.1-0.1-0.2-0.1-0.4-0.1c-0.7,0-0.9-0.4-0.7-1c-0.9-1.3-1.5-3.4-2.7-4.8
					c-0.2-0.3-1.1-0.4-1.3-0.6c-0.7-0.9-0.4-1.5-0.8-2.4c-0.2-0.4-1.1-0.3-1.3-0.6c-0.4-0.6-0.3-1.8-0.6-2.5c-0.7-1.5-2.2-2.4-2.8-4
					c-0.1-0.4,0-0.9-0.1-1.3c-0.3-0.8-0.7-1.2-1-1.9c-2.3-5.1-4.4-9.6-6.4-14.8c-0.9-2.2-1.2-4.8-2-7c-1.2-3.9-1.8-7.9-2.5-11.8
					c-0.3-1.7,0-3.2-0.4-4.8c-0.2-1.1-0.5-0.9-0.6-2.4c0-0.5,0.2-1.4,0.1-1.8c-0.1-1.1-0.4-1.8-0.5-3c-0.1-1.3,0.2-2.4,0.2-3.7
					c0-2.5-0.1-4.9,0.2-7.3c0.2-2,0.6-4,0.7-6c0-0.4-0.6-0.8-0.6-1.3c0-1.4,0.9-2.3,1.2-3.5c0.1-0.5,0.4-2,0.4-2.4
					c0,0.4-0.2-2.4-0.4-2.1c-0.1,0.1,0.4-1.7,0.4-0.9c0,0.1,0.3-1.8,0.3-1.8c0.1-0.4,0.7-0.7,0.8-1.1c0.2-1.1-0.2-1.5-0.1-2.5
					c0.2-2,0.8-4.4,1.5-6.2c0.4-1.3,1.1-2.7,1.4-4c0.4-1.1,0.6-2,0.8-2.9c0.1-0.2,0.6-1.1,0.7-1.4c0.1-0.4,0.3-1.1,0.4-1.5
					c0.4-1.1,1.2-1.9,1.5-3c0.7-2.2,1.1-4.1,2.1-6.3c1.1-2.7,2.4-5.8,4.1-8c1.1-1.3,1.1-2.5,1.8-3.8c0.2-0.5,0.9-0.6,1.2-1.1
					c0.4-0.7,0.1-1.3,0.6-2.1c1.3-2.4,3.3-4.1,4.3-6.6c0.4-0.9,1.1-2.6,2-3.2c0.7-0.5,1.8-0.8,2.7-1.2c0.6-0.2,1.7-0.6,2.4-0.7
					c0.9-0.1,1.8,0.2,2.5,0.1c0.7-0.1,1.5-0.6,2.3-0.8c1-0.2,1.5-0.1,2.5-0.2c1.2-0.2,2.3-1.2,3.4-1.5c1.5-0.5,3.2-0.4,4.6-0.6
					c0.5-0.1,0.9-0.6,1.4-0.7c0.6-0.1,1.1,0.3,1.5,0.1c0.9-0.2,0.8-0.6,2-0.8c0.7-0.1,1.2,0.1,1.9,0.1c3.2-0.5,6.8-1,10.3-1.4
					c1.6-0.2,2.8-0.1,4.3,0.3c1,0.2,3.8,0.8,4.5,1.8c0.4,0.6,0.2,1.9,0.3,2.9c0.2,1.8,0.1,2.8-0.1,4.4c-0.1,1.4,0.4,2.9,0.2,4.5
					c-0.1,0.8-0.5,0.9-0.5,1.8c0,0.8,0.2,1.5,0.1,2.4c-0.1,0.5-0.7,2.5-0.6,3c0.2,1.2,1.4,3,2,3.8c0.7,1.1,1.7,2.3,2.4,3.5
					c0.2,0.4,0.1,1,0.3,1.3c0.7,0.9,1.9,1.5,2.6,2.6c0.8,1.1,1,2,2.1,3c0.8,0.7,1.9,1,2.5,1.8c0.9,1.1,0.9,2.5,2.4,3.7
					c0.5,0.4,1.1,0.7,1.5,1c0.7,0.5,0.8,0.9,1.4,1.5c1.9,2,4,4.4,6.3,6.2c1.2,0.9,2.4,1.8,3.4,3c0.2,0.2,0.8,0.9,1.1,1.1
					c0.4,0.3,1.2,0.6,1.7,0.9c0.5,0.4,0.6,1.1,1.1,1.5c0.3,0.2,0.8,0.4,1.1,0.6c0.6,0.5,0.5,1.2,1,1.6c0.3,0.3,1,0.1,1.3,0.4
					c2.2,2.2,0.5,3.8-0.7,6.1c-0.5,0.9-1.8,2.1-2.1,3.1c-0.2,0.5,0.1,1.4,0,2c-0.1,0.7-0.6,1.1-0.8,1.7c-0.8,2.5-0.9,5.8-0.5,8.5
					c0.1,0.4,0.6,0.7,0.7,1.1c-0.1,0.2-0.2,0.5-0.3,0.7c-0.4,0.5-0.4,0.9,0.2,1.2c0.1,0.9,0.8,2.7,1.5,3.4c1,1.2,1.5,2.5,2.5,3.5
					c1.1,1,3,1.8,4.2,2.6c2.2,1.5,4.7,2.5,7.4,3c1,0.2,1.9,0.6,3,0.8c0.4,0.1,0.9-0.4,1.3-0.4c0.8,0.2,1.4,0.9,2.4,1
					c1.4,0.1,2.8-0.7,4.4-0.4c1.6,0.3,1.7,0,3-0.4c0.5-0.1,1.4-0.1,1.8-0.2c-0.3,0.1,1.2-0.5,1.1-0.5c1.3-0.6,2.9-0.5,4.2-1
					c0.6-0.2,1-0.8,1.6-1.1c0.4-0.1,1.7-0.3,1.8-0.4c1.3-0.3,3-0.8,4.1-1.1c1.2-0.2,2.8-0.1,4.3-0.4c0.4-0.1,2.2-0.9,2.4-0.9
					c0.5,0,1.2,0.6,1.8,0.7c2.8,0.5,5.4-0.6,8.1,0.1c0.5,0.1,0.9,0.7,1.4,0.8c0.2,0.1,1.3,0,1.5,0s1.3,0,1.5,0.1
					c0.4-0.1,0.7,0,0.8,0.5c0.3,0.6,0.7,0.7,1.2,0.4c0.2,0.1,0.9,0.1,1.2,0.2c0.5,0.2,1.1,0.8,1.5,1.1c0.4,0.2,0.9-0.1,1.3,0
					c0.5,0.2,1.5,1.2,2,1.5c1.3,0.8,2.7,1.1,4,1.6c1.4,0.6,1.9,1.7,3,2.7c2,2,4.1,3.5,5.9,5.6c0.9,1.2,1.3,2.1,1.9,3.4
					c0.6,1.3,1.1,2.2,1.8,3.4c1,1.7,0.7,2.9,1.3,4.6c0.4,1.1,1.3,2,1.5,3.3c0.1,0.7-0.1,1.1,0.1,1.8c0.1,0.6,0.6,1.1,0.7,1.7
					c0.1,1.4-0.7,3.3-0.4,4.8c0.1,0.8,0.7,1.4,0.8,2.1c0.1,0.6-0.3,0.8-0.4,1.5c-0.1,1.4-0.2,2.8-0.2,4.3c-0.1,1.9-0.3,3-1.1,4.7
					c-0.4,0.7-0.9,1.3-0.9,2.2c-0.3,0.4-0.4,0.8-0.1,1.3c0.4,0.6,0.2,0.9-0.4,1.1c0.1-0.5-0.5,1.3-0.5,1.1c-0.4,0.8-0.4,2-0.8,3
					c-0.5,0.9-1.2,1.8-1.7,2.5c-0.5,0.9-0.7,1.8-1.2,2.8c-0.6,1.3-2.1,2.1-2.8,3.2c-1.2,2-2.1,4.3-4.1,6c-2.2,2-3.6,4-5.6,6
					c-0.2,0.2-1,0.7-1.3,0.9c-0.1,0.1-0.8,0.8-1.1,1.1c-0.5,0.6-1.5,1.2-2.1,1.8c-0.3,0.3-0.2,1-0.5,1.2c-0.2,0-0.5,0.1-0.8,0.1
					c-0.6-0.2-1,0.1-1,0.7c0.1-0.1-0.7,0.8-0.8,0.9c-1.1,1.1-2.8,1.8-3.9,2.8c-0.8,0.8-1.5,1.3-2.4,1.9c-0.8,0.6-1.4,0.7-2.1,1.2
					c-0.4,0.2-0.4,0.9-0.8,1.1c-1.2,0.6-1.8,0.5-2.8,1.3c-1.5,1.2-3.2,1.1-5,2.2c-1,0.6-1.8,1.7-2.9,2.3c-1.5,0.8-3.1,0.9-4.6,1.5
					c-2.4,0.9-4.5,2.6-7.3,3c-2.7,0.4-5,1.7-7.4,2.7c-1.3,0.6-2.2,0.7-3.5,0.8c-1.4,0.1-2.4,0.4-3.8,0.8c-2,0.7-4.1,0.4-6.3,0.6
					c-1.4,0.1-3.1,0.6-4.5,0.8c-0.2,0.1-1.5,0.1-1.5,0.1c-0.2,0.1-0.4,0.2-0.6,0.4C936.6,403.9,936.1,403.7,935.7,403.5L935.7,403.5
					z"/>
			</g>
			<g id="Group_1_" transform="translate(315.65802 78.13864)">
				<path id="Shape_1_" class="st7" d="M694.6,314.6c1.7,0.2,3.7,0.9,5.3,0.8c0.6-0.1,1.2-0.5,1.8-0.5c0.8,0,1.6,0.7,2.4,0.7
					c1,0,1.8-0.6,2.7-0.6c1.2,0,2,0.4,3.3,0.1c0.8-0.2,1.2-0.5,2-0.7c1.3-0.2,2.2-0.5,3.4-0.9c0.9-0.4,1.8-0.2,2.7-0.4
					c1.1-0.2,1.3-0.7,2.1-1.1s1.7-0.4,2.5-0.9c0.8-0.5,1.3-1.1,2.2-1.7c1.5-1.1,2.5-1.9,3.8-3.4c1.6-1.8,2.2-3.3,3.4-5.3
					c0.4-0.7,0.7-0.8,1-1.5c0.2-0.7,0.5-1.9,0.7-2.7c0.4-1.4,0.6-3.2,0.8-4.4c0-0.1-0.1-0.8-0.1-0.9c0.1-0.4,0.5-0.7,0.6-1.2
					c0.1-1.1-0.5-2.2-0.4-3.4c0.4-2.4,0.8-4.7,0.8-7.3c-0.1-1.1-0.2-1.6-0.1-2.7c0.1-0.9,0.1-1.8,0.1-2.7c0-1.8,0.7-4,0.9-6
					c0.2-1.5,0-3.3,0.6-4.8c0.2-0.5,0.4-1.5,0.6-2c0.1-0.3-0.4-0.7-0.2-1c0.2-0.6,0.8-0.9,1.1-1.6c0.4-1.4,0.5-2.8,0.8-4.1
					c0.4-2,1.2-3.7,1.8-5.5c0.2-0.8,0.2-1.3,0.5-2.1c0.4-0.8,0.9-1.5,1.2-2.5c0.7-2,1.4-4,2.4-5.9c0.4-0.6,1.2-1.4,1.5-2
					c0.1-0.4-0.4-1.1-0.2-1.5c0.1-0.3,0.7-0.4,0.8-0.6c0.8-2.2,2.4-3.5,3.5-5.3c0.8-1.3,1.3-3.1,2.2-4.4c0.1-0.2,0.8-0.1,1-0.4
					c0.1-0.1,0.4-0.8,0.5-0.8c0.6-0.5,1.4-1.4,2.1-2.2c1.1-1.1,2.4-2.4,3.3-3.5c0.7-0.9,0.6-1.8,1.8-2.6c1.1-0.8,2-1.3,3-2.1
					c0.6-0.5,2-0.8,2.4-1.3c0.4-0.4,0.4-1.3,0.8-1.5c0.6-0.5,2.1-0.5,3-1c1.1-0.7,1.8-1.6,3-2.1c3.6-1.4,6.5-3.1,10.5-4.2
					c2.1-0.6,4-0.6,6-1.1c0.8-0.2,1.2-0.6,2-0.7c1.1-0.1,2,0.2,3.1,0c1.8-0.4,2.8-0.6,4.6-0.5c1,0.1,2.5-0.4,3.4-0.2
					c0.9,0.1,0.8,0.5,1.8,0.7c0.5,0.1,1.5,0.1,2.1,0.1c0.5,0.1,0.9,0.4,1.4,0.5c0.4,0.1,0.9-0.6,1.4-0.5c1.8,0.4,3.8,2,5.3,3.1
					c1.5,1,2.5,1.8,3.7,3.2c0.2,0.2,0.7,0.2,0.8,0.5c0.2,0.4,0,0.9,0.2,1.3c0.5,1,1.2,2,1.7,3c1.8,3.8,1.8,9.6,0.7,13.7
					c-0.4,1.7-1.6,3.5-2.5,5.3c-0.8,1.6-1.9,2.2-3.2,3.3c-0.4,0.3-0.3,0.8-0.7,1.1c-0.2,0.2-0.7,0.1-0.9,0.3
					c-1.1,0.7-2.4,1.3-3.6,1.7c-0.8,0.2-1.3,0.2-2.1,0.4c-0.5,0.1-1.3,0.1-1.8,0.4c0.2-0.1-1.7,0.9-1.3,0.9
					c-0.6,0.1-1.1-0.3-1.7-0.3c-1.2,0.1-1.9,0.6-3,0.8c-1.8,0.4-3.7,0.1-5.5,0.2c-1.2,0.1-1.8,0.4-3,0.7c-1,0.2-2.2-0.3-3.1-0.1
					c-0.4,0.1-1.3,0.8-1.7,0.9c-0.6,0.2-1.8,0.4-2.4,0.4c-0.8,0.1-1.5-0.4-2.2-0.1c-0.8,0.2-1.7,0.9-2.5,1.1c-2.2,0.5-3.9,1-6,2.2
					c-1.5,0.9-3.2,1.4-4.6,2.4c-0.5,0.4-1.3,0.9-1.8,1.3c-0.1,0.1-0.4,0.7-0.5,0.8c0.1-0.1-1.3,1-1.2,0.9c-0.8,1-1.7,2.2-2.4,3.5
					c-0.3,0.5-0.6,1.1-0.8,1.5c-0.6,0.9-0.6,1.4-1,2.2c-1.5,3.3-1.9,7.8-2.3,11.3c-0.2,1.4,0.4,3,0.2,4.5c-0.1,0.8-0.5,1.4-0.7,2.1
					c-0.2,1.4,0.4,3,0.3,4.2c0,0.1,0.1,1,0.1,1c0,0.1-0.6,0.4-0.6,0.6c0,0.6,0.4,1.4,0.4,2c0.1,0.8-0.1,2.2-0.1,3
					c-0.1,0.6-0.2,1.8-0.4,2.4c-0.3,1.5-1.1,3.1-1.4,4.6c-0.5,1.9-1.1,3.5-1.5,5.4c-0.8,3.3-2.4,5.6-4.1,8c-0.2,0.2,0.2,0.8,0.1,1.1
					c-0.2,0.4-1.1,0.2-1.4,0.5c-0.6,0.6-1.2,1.7-1.8,2.4c-0.8,0.9-0.8,2-1.5,2.7c-0.6,0.8-1.5,1.2-2.2,1.7c-0.3,0.2-0.3,0.8-0.6,1.1
					c-0.2,0.2-0.8,0.1-1.1,0.2c-0.9,0.7-1.6,1.5-2.4,2.3c-1.5,1.5-3.1,2.1-4.8,3.2c-1.4,0.9-2.8,1.9-4.4,2.7
					c-0.9,0.5-1.5,0.9-2.3,1.4c-0.4,0.2-0.9,0-1.2,0.2c-0.4,0.2-0.5,0.9-0.8,1.1c-1.7,0.9-3.4,0.9-5.1,2c-1.8,1.1-3.5,0.8-5.3,1.5
					c-0.6,0.2-1.2,0.8-1.9,1.1c-1.2,0.5-2.5,0.8-3.8,1.1c-2.7,0.7-5.1,1.1-7.8,1.5c-2.1,0.4-4,0.4-6,0.8c-1.1,0.2-2.2,0.1-3.4,0.1
					c-0.4,0.1-0.8-0.1-1.2-0.1c-0.5,0.1-0.7,0.6-1.2,0.6c-1.5,0-3-0.4-4.3-0.5c-2-0.1-3.9-0.4-5.8-0.5c-1.8-0.1-4-0.8-6-1.1
					c-1.2-0.2-2,0.1-3.1,0.1c-1.4-0.1-2.2-1.1-3.4-1.5c-1.8-0.7-3.8-0.5-5.1-0.8c-0.2-0.1-0.8-0.8-1-0.8c-0.2-0.1-0.7,0.1-0.9,0.1
					c-0.7-0.4-1.2-0.7-1.9-0.9c0.5-0.2,1.1-1.1,1.7-1.4c1-0.6,2.3-0.9,3.4-1.4c1.5-0.7,3.1-0.9,4.6-1.7c0.2-0.1,1.5-0.8,1.5-0.9
					c0.1-0.1,1.3-1.1,1.5-1.1c0.3-0.1,1.5-0.4,1.8-0.5c0.7-0.2,1.5-0.6,2.2-0.8c2.4-0.8,4.4-2.4,6.5-3.3
					C688.2,317.6,691.6,316,694.6,314.6L694.6,314.6z"/>
			</g>
			<g id="Group_2_" transform="translate(35.613464 45.900665)">
				<path id="Shape_2_" class="st7" d="M906.7,266.3c0,1.4-0.2,2.2-0.4,3.6c-0.2,1.2,0.1,2.2,0.1,3.4c0,0.6-0.2,2-0.5,2.7
					c-0.2,0.6-0.7,1.1-0.9,1.7c-0.4,1-0.1,2.1-0.4,3c-0.2,0.7-0.6,1.6-0.8,2.2c-0.4,0.8-0.9,1.3-1.2,2.1c-0.1,0.4,0.3,1,0.1,1.4
					c-0.2,0.4-0.9,0.4-1.1,0.8c-0.4,0.8-0.6,1.5-0.9,2.2c-0.6,1.4-1.1,1.9-2.1,3c-1.8,2.1-2.8,4.5-4.8,6.1c-1.1,0.9-0.9,1.8-1.6,2.7
					c-0.9,1.3-2.3,1.2-3.4,2.2c-0.4,0.4-0.7,1.3-1.2,1.8c-0.3,0.3-1.9,1.2-2,1.3c-0.7,0.3-1.2,0-1.9,0.4c-0.6,0.4-0.8,1-1.3,1.4
					c-1.3,1.1-2.6,0.8-4,1.4c-1.3,0.6-2.4,1.9-3.6,2.4c-2,0.8-5.1,1.3-7.1,1.7c-2.4,0.5-4.7,0.6-7.3,0.8c-1.6,0.1-3.2,0.6-4.8,0.5
					c-1.5-0.1-3-0.8-4.4-1.1c-1.2-0.1-2.1,0.4-3.4-0.1c-0.4-0.2-0.9-0.8-1.4-0.9c-0.6-0.1-1.5,0.1-2.2,0.1c-2-0.1-3.8-1.5-5.5-2.7
					c-1.4-0.8-2.7-0.6-4.1-1.3c-0.4-0.2-0.6-0.7-0.9-0.9c-0.8-0.5-1.5-0.5-2.2-0.9c-1.5-0.9-2.1-2.2-3.7-3.2
					c-1.1-0.7-1.9-1.4-2.8-2.2c-1.9-1.8-3.4-3.5-5.2-5.5c-3.2-3.7-5.2-7.8-7-12.4c-0.5-1.4-1.3-2.3-1.5-4c-0.2-1.8-0.6-3.6-0.9-5.3
					c-0.7-2.8-1.2-5.8-0.8-9c0.2-2-0.1-3.7,0.4-5.7c0.3-1.1,0-2.3,0.2-3.4c0.1-0.6,0.7-1.1,0.8-1.7c0.4-1.1-0.1-2.2,0.1-3.1
					c0.3-1.1,1.3-2.1,1.7-3.3c0.4-1.5,0.6-2,1.5-3.3c1.2-1.8,2.2-3.9,3.3-5.8c1.2-2,2.4-3.6,3.9-5.4c0.9-1.1,1.7-1.7,2.6-2.5
					c0.3-0.2,0.2-1,0.5-1.2c0.8-0.7,1.8-0.7,2.5-1.3c0.8-0.7,1.5-1.5,2.5-2.2c0.9-0.7,1.6-0.9,2.7-1.5c0.1-0.1,1-0.8,0.9-0.8
					c-0.4,0.1,1.2-0.7,1.1-0.6c0.2,0,0.5,0.1,0.7,0.1c0.3-0.4,0.5-0.7,0.8-1.1c0.9-0.5,1.8-0.9,2.8-1.2c5.4-1.5,10.3-4,15.8-4.1
					c0.8,0,1.5,0.4,2.1,0.4c0.6,0,0.9-0.6,1.5-0.6c1.4-0.1,0.9,0.2,1.8,0.3c0.4,0,1.2-0.1,1.5-0.1c2.1,0.3,4.1,0.8,6.6,1.1
					c2.7,0.4,5.1,1.3,7.5,2.2c2.1,0.8,4.8,1.8,7,3c1.3,0.8,2.7,1.8,4,2.7c0.4,0.2,0.4,0.8,0.7,1.1c0.4,0.3,1.3,0.4,1.8,0.7
					c1.2,0.8,2.5,2.4,3.4,3.4c0.7,0.9,1.7,1.8,2.5,2.7c2.1,2.2,3.1,3.9,4.4,6.5c1.5,2.9,3.5,4.8,4.4,8c0.4,1.5,0.5,3.4,1.1,4.8
					c0.1,0.1,0.6,1.1,0.6,1.1c0.2,0.1,0.4,0.2,0.6,0.5c-0.1,0.4-0.2,0.9-0.4,1.3C905.7,260,906.7,263.2,906.7,266.3L906.7,266.3z"/>
			</g>
			<g id="Group_3_" transform="translate(52.793793 0.37280273)">
				<path id="Shape_3_" class="st7" d="M804.2,301.2c-0.7-2.2-1.6-4.5-1.7-6.7c0-1-0.5-1.9-0.8-3c-0.4-1.5-0.5-2.7-0.6-4.1
					c0.1-0.2,0.2-0.4,0.4-0.7c-0.2-0.4-0.5-0.8-0.8-1.1c-0.1-0.6-0.3-1.9-0.3-2.4c0.1-0.9,0.7-1.3,0.7-2.5c0-0.4-0.8-0.8-0.8-1.2
					c-0.1-0.5,0.4-1.9,0.4-2.4c0.1-0.8,0-1.5-0.1-2.4c-0.1-1.2-0.4-1-0.2-2.4c0.1-0.8,0.6-1.5,0.7-2.4c0.1-1.7-0.2-3.2,0.1-4.8
					c0.2-1.3,0.7-2.2,0.9-3.6c0.1-0.6-0.3-1-0.1-1.6c0.1-0.5,0.7-0.9,0.8-1.4c0.1-0.6-0.1-1.1,0.1-1.5c0.2-0.8,0.8-1.5,1.1-2.6
					c0.7-2.7,1.4-5.6,2.5-8.3c1.4-3.2,2-6.3,5.3-3.7c2.1,1.7,4.4,2.1,6.1,4.1c0.9,1.1,1.5,1.9,2.7,2.7c1.4,0.8,1.7,1.4,2.5,2.7
					c1.3,2.1,3.5,2.8,4.8,4.8c0.6,0.8,0.4,1.2,1.1,2.1c0.3,0.4,0.9,0.9,1.2,1.3c0.8,1.1,1.5,2.2,2.4,3.4c1.3,1.8,1.8,3.7,3.2,5.7
					c0.7,1.1,1.1,2.7,1.2,4c0.1,1,0.6,0.1,0.2,1.2c-0.1,0.4-1.2,0.7-1.5,0.9c-0.9,0.8-1.2,1.2-2.3,1.9c-1.3,0.7-1.1,1.5-2,2.4
					c-0.9,1-1.7,0.7-2.7,1.4c-1,0.7-1.3,1.8-2.5,2.7c-1.1,0.8-2.3,0.9-3.3,1.7c-0.9,0.7-1.1,1.9-2.2,2.6s-2,0.7-3,1.5
					c-0.9,0.8-1.5,2.2-2.3,2.9c-1.8,1.5-4.1,2.9-5.9,4.2c-1,0.8-1.8,1.5-2.8,2.2c-0.4,0.2-0.7,0.5-0.9,0.8
					C805.7,299.8,804.4,301.1,804.2,301.2L804.2,301.2z"/>
			</g>
			<g id="Group_4_" transform="translate(199.17899 81.12564)">
				<path id="Shape_4_" class="st7" d="M728.6,249.8c2.1-1.1,5.4-2.4,7.4-4.1c0.7-0.6,0.7-1.4,1.5-2.1c0.3-0.2,1-0.1,1.3-0.3
					c0.5-0.4,0.7-0.9,1.3-1.3c0.5-0.4,1.2-0.4,1.8-0.7c1.4-0.9,2.6-2.7,3.9-3.9c0.8-0.8,1.5-1.3,2.4-2c1.2-1,1.5-1.7,2.5-2.7
					c0.4-0.5,1.1-0.8,1.4-1.2c0.4-0.4,0.7-0.9,1.1-1.5c0.9-1.1,2-2.1,2.8-3.3c0.6-0.9,1.1-2.2,1.8-3.1c0.3-0.4,0.9-0.7,1.2-1
					c0.3-0.4,0.2-1.1,0.5-1.5c0.2-0.1,0.4-0.2,0.6-0.3c0.6-0.1,0.8-0.4,0.6-1c0.4-0.5,0.8-1.4,1.2-2c0.8-1.3,1.1-3,2.1-4.3
					c0.7-0.9,1.5-2.1,1.9-3c0.5-1.2,0.9-2.5,1.4-3.9c0.6-1.8,1.8-2.7,1.8-4.4c0.1-1.8,0.5-0.8-0.8-1.7c-1.1-0.7-2.1-0.1-3.1-0.2
					c-0.2-0.1-0.9-0.1-1.1-0.1c0.5,0.1-1.8-0.7-1.4-0.5c-0.8-0.2-3.3-0.8-4.3-0.8c-1.1-0.1-1.1,0.6-2.5,0.4
					c-0.9-0.1-0.8-0.6-1.8-0.5c-2.7-0.1-5,0.2-7.4,0.1c-0.1,0-1.4,0.1-1.5,0.1c-0.4,0.1-1,0.8-1.4,0.8c-1.2,0.1-1.6-0.6-2.5-0.6
					c-0.4,0.1-1.9,0.9-2.2,0.9c-1.1,0.2-1.5-0.2-2.4-0.1c-1.4,0.3-1.2,0.9-2.2,1.2c-0.3,0.1-0.9-0.4-1.2-0.2
					c-1.1,0.2-2.4,0.7-3.4,1.2c-1.3,0.6-2,0.8-3.4,1.1c-0.8,0.2-1.5,0.4-2.1,1c-1.4,1.4-0.6,0.1-0.7,1.7c-0.1,0.6,0.3,1.2,0.3,1.8
					c0,0.4-0.3,1.2-0.2,1.5c0.1,1.1,0.7,2.2,0.8,3.3c0.2,2.4,0.4,4.2,0.8,6.7c0.2,1.3-0.1,2.4,0.2,3.7c0.2,1.5,0.6,2.7,0.7,4.2
					c0.1,2.5,0.4,5,0.7,7.3c0.2,1.1,0.4,2.6,0.5,3.7c0.1,1.3,0.5,2.2,0.8,3.6c0.2,1.2-0.4,2.5-0.2,3.7
					C727.7,246.7,728.2,249,728.6,249.8L728.6,249.8z"/>
			</g>
			<g id="Group_12_" transform="translate(59.000336 87.26672)">
				<g id="Group_5_">
					<path id="Shape_5_" class="st2" d="M829.3,212.1c-0.1,0.4-0.6,1.3-0.7,1.7c-0.2,0.7-0.3,1.7-0.6,2.3c-0.4,0.9-0.8,1.1-1.4,1.9
						c-0.6,0.7-0.8,1.8-1.7,2.5c-0.8,0.8-2.2,1.2-3.1,1.8c-0.4,0.2-1.5,1.4-1.9,1.5c-0.3,0.1-0.8-0.3-1.1-0.2
						c-0.6,0.2-1.3,0.4-2,0.6c-1.1,0.4-2.7,1.1-3.7,1.1c-0.7-0.1-1.1-0.4-1.8-0.5c-0.9-0.3-1.9-0.2-2.7-0.4
						c-1.1-0.2-3.4-1.1-4.6-1.8c-1.6-0.9-2.4-3-3.4-4.4c-0.9-1.1-1.5-1.5-2.2-2.9c-0.2-0.5-1.2-1.7-1.3-2.2c-0.1-0.8,0.4-2,0.4-2.9
						c-0.2-2.3-0.6-2.8,0.4-5c0.7-1.4,1.7-2.4,2.5-3.9c1-1.6,1.3-2.3,3-3.3c0.6-0.4,0.8-0.6,1.5-0.9c0.8-0.3,1.8-0.2,2.6-0.5
						c1.1-0.4,1.4-1.2,2.9-1.1c0.7,0,1.5,0.1,2.2,0.2c0.7,0.1,1.1,0.1,1.8,0.3c1,0.2,1.7,0.9,2.5,1.2c0.9,0.3,1.7,0.1,2.7,0.6
						c0.3,0.1,0.3,0.8,0.5,0.9c0.4,0.2,0.9-0.1,1.3,0.2c1.4,0.9,2.4,2.2,3.5,3.3c0.7,0.7,1.8,1.1,2.2,2.1c0.4,0.7,0.4,1.4,0.6,2.1
						c0.1,0.2,0.7,0.4,0.8,0.7c0.1,0.4-0.5,1-0.4,1.4c0.1,0.3,0.7,0.5,0.8,0.8C829.2,210.2,829.4,211.1,829.3,212.1L829.3,212.1z"/>
				</g>
				<g id="Group_6_" transform="translate(20.01767 23.267166)">
					<path id="Shape_6_" class="st8" d="M794.1,187.2c-0.1,0.4-1.4,1.9-1.7,2.1c-1.3,1-1.9,0.8-3,0.5c-1.3-0.3-3.2-1.8-2.7-3.5
						c0.2-1.1,2.7-3,3.7-3c1.3,0.1,1.2,1.2,2,1.9C793.1,186,794.2,185.6,794.1,187.2L794.1,187.2z"/>
				</g>
				<g id="Group_7_" transform="translate(101.08136 34.157196)">
					<path id="Shape_7_" class="st2" d="M776.9,191.9c0,0.7-1,2.7-1.3,3.4c-0.3,0.8-1,2.5-1.5,3.2c-0.9,1.2-2.1,2.7-3.4,3.5
						c-0.8,0.5-1.8,0.8-2.5,1.3s-0.5,0.9-1.7,1.2c-0.5-0.1-0.9-0.2-1.4-0.3c-0.3,0.2-0.5,0.5-0.6,0.8c-0.5,0.1-1.7,0.3-2.2,0.2
						c-1.7-0.3-3.1,0.1-4.8-0.3c-2.8-0.7-4.2-2.4-6.6-4c-3-2.1-6.9-6.7-7-10.8c-0.1-0.8,0.4-2.7,0.7-3.7c0.4-1.3,0.7-0.9,1.3-2
						c0.6-0.8,0.1-1.2,1.1-2.1c0.8-0.8,1.5-1.1,2.4-1.7c0.7-0.4,1.6-1.8,2.2-2c1.1-0.4,2.1-0.3,3-0.6c1.8-0.6,3.3-0.6,5.3-0.7
						c2.3-0.1,4.1,0.6,6.5,1.4c1.9,0.7,2.8,1,4.1,2.4c0.8,0.9,2.1,0.8,2.8,1.5c0.1,0.4,0.2,0.9,0.4,1.4c0.4,0.6,0.8,1,1.3,1.3
						C776.1,187,776.9,189.9,776.9,191.9L776.9,191.9z"/>
				</g>
				<g id="Group_8_" transform="translate(138.3201 54.48105)">
					<path id="Shape_8_" class="st8" d="M731,169.6c-0.1,1.8-3.5,2.5-4.8,2.2c-1.5-0.4-2.5-1.5-1.8-3.2c0.4-0.8,1.5-1.7,2.5-1.8
						C727.8,166.8,731,168.5,731,169.6L731,169.6z"/>
				</g>
				<g id="Group_9_" transform="translate(48.532196 65.780914)">
					<path id="Shape_9_" class="st8" d="M775.9,161.2c2.7-0.4,3.1-0.3,7.3,0.2c4.2,0.5,5.1,1.4,6.4,1.9c2.2,0.8,6.5,4.4,7.3,5.7
						c0.2,0.2,1.1,3.1-0.7,3.5s-3.2-0.7-6.4-1.7c-3.2-0.9-4.8-1.5-6.7-1.9c-1.3-0.3-2.6-0.6-3.9-1c-1.2-0.4-2-0.5-3.1-0.9
						c-0.8-0.3-1.8-0.5-3.1-0.9c-1.2-0.4-1.5-1.2-1.5-2.2C771.6,162.8,773.2,161.5,775.9,161.2z"/>
				</g>
				<g id="Group_10_" transform="translate(64.23819 66.87427)">
					<path id="Shape_10_" class="st8" d="M781.5,181.8c-1.1,0.7-2.5,1.7-3.8,2c-0.9,0.2-1.4,0.4-2.3,0.4c-2.2,0.1-3,0.1-5.1-1.1
						c-1.3-0.8-2.2-1.6-3.1-2.5c-1.2-1.3-1.8-3.5-2.6-5.3c-0.6-1.2-1.2-1.4-1.3-3c-0.1-0.9,0.5-1.7,0.2-2.7
						c-0.4-1.8-0.2-1.9,0.2-3.8c0.2-1.1-0.2-2.4,0.4-3.3c0.5-0.8,0.7-1.7,1.8-2.1c-0.2,0,2,0,1.8,0c0.8,0.1,0.9-0.1,1.8,0.6
						c0.9,0.7,0.6,0.5,1.1,1.5c0.6,1.4,0.5,1.7-0.1,3.2c-0.7,1.5-0.8,2.3-1,4c-0.3,2.2,0.6,5,1.7,7.3c1.1,2.4,2.7,2.7,2.9,2.7
						c0.5,0.1,1.5,0.4,2.8,0.1c1.3-0.2,1.6-0.6,2.6-0.9c0.7-0.2,1.5-0.6,2.2-0.1C782.3,179.5,782.2,181.3,781.5,181.8L781.5,181.8z"
						/>
				</g>
				<g id="Group_11_" transform="translate(38.68741 76.206055)">
					<path id="Shape_11_" class="st8" d="M785.8,165.4c2.1-1.6,2.7-7.9,4-9.7c0.8-1.1,3.2,1.7,4.3,2.6c1.7,1.3,0.4,4-0.1,5.3
						c-1.1,2.5-2,4.1-4.3,5.1c-2.4,1.1-4.1,1.4-6.5,1.1c-1.5-0.2-4.1-1.7-5.2-3.3c-0.6-0.8-1.3-2.2-1.1-3.1l0,0
						c0.2-0.9,1.5-1.9,2.8-0.5C779.8,163.4,781.9,167.5,785.8,165.4z"/>
				</g>
			</g>
			<g id="Group_13_" transform="translate(0 214.92828)">
				<path id="Shape_12_" class="st9" d="M870.2,280.6c-0.6,2.1-1.8,3.7-4.4,3.8c-1.2,0.1-2,0.5-3.4,0.1c-1.8-0.4-2.1,0.1-3.9,0.3
					c-0.9,0.1-2.1-0.5-3.1-0.4c-0.8,0.1-4.8-2.8-5.2-4.6c-0.1-0.8-0.7-1.3-1.1-2.3c-0.8-1.7-1.3-3.2-1.8-4.8c-0.9-2.5-2-4.8-2.6-7.5
					c-0.4-1.7-1-3.7-1.8-5.1c-0.3-0.5-0.9-1.1-1.1-1.5c-0.2-0.7,0.4-1.7,0.2-2.6c-0.5-1.8-1.5-3.2-1.8-5.1c-0.3-1.7-1-3.3-1.5-5
					c-0.2-0.7-0.2-1.5-0.4-2.1c-0.2-0.7-0.8-1-1-1.6c-0.4-1.1-0.1-2.1-0.3-3.1c-0.2-0.9-0.7-1.4-0.9-2.2c-0.4-1.2-0.1-2.4-0.6-3.6
					c-0.7-2-1.1-3.9-1.4-5.9c-0.1-0.9,0-2.2-0.2-3.1c-0.2-0.8-0.8-1.3-0.9-2.3c0.1-0.4,0.1-0.8,0.2-1.3c-0.2-0.4-0.5-0.8-0.8-1.1
					c-0.1-1.3,0.1-2.7-0.1-4c-0.2-1.5-0.2-3-0.5-4.6c-0.2-1.1-0.7-1.1-0.8-2.4c-0.1-0.6,0.1-1.2,0-1.8c-0.1-0.6-0.1-1.5-0.2-2.1
					c0.1-0.4,0.3-0.7,0.4-0.9c-0.3-0.4-0.6-0.8-0.9-1.1c-0.2-1.1-0.1-1.5-0.1-2.5c0-0.5,0.1-1.5,0.1-1.8c0.1-1.1-0.4-1.9-0.5-3
					c-0.1-0.7-0.1-1.2-0.2-1.8c-0.2-0.8-0.4-1.5-0.4-2.4c0.1-2,0.6-4,0.2-6.1c-0.4-1.8-0.9-3-0.7-4.8c0.1-1.3,0.4-3,0.4-4.3
					c-0.1-1.5-1-2.7-0.8-4.3c0.1-0.7,0.7-1.2,0.8-1.8c-0.2-0.4-0.5-0.8-0.7-1.2c0.2-0.4,0.5-0.8,0.7-1.2c-0.1-1.1-0.9-1.1-0.9-2.4
					c0-0.4,0.5-0.8,0.6-1.2c0.2-1.9-0.1-4,0.1-6c0.1-1.5-0.4-2.2-0.4-3.7c-0.2-2,0.7-4.1,0.8-6c0.1-2.4,0.3-4.8,0.5-7.3
					c0.2-2,0.4-3.9,0.6-6c0.2-1.2,0.5-2.2,0.6-3.5c0-0.6-0.4-1.3-0.1-1.9c0.5-1,5.1-0.6,6.8-0.6c2.4-0.1,4.8,0.1,7.3,0.1
					c1.1-0.1,1.9-0.3,3-0.2c0.6,0.1,1.2,0.4,1.8,0.4c0.8,0,1.1-0.5,1.8-0.5c0.8-0.1,2.2,0.1,3,0.2c0.4,0.1,1.5-0.1,1.8,0.2
					c0.3,0.4-0.4,3.1-0.4,3.5c-0.1,1,0.1,2.1,0.1,3c-0.1,0.7-0.4,1.1-0.5,1.8c-0.2,1.5,0.1,3.3,0,4.8c-0.1,1.4,0.1,3.1-0.2,4.2
					c-0.3,1.1-0.5,2.7-0.5,4.2c-0.1,3.4,0.5,6.4,0,9.7c-0.2,1.1-0.5,2.5-0.4,3.7c0.1,0.8,0.6,0.9,0.6,1.8c0,0.8-0.2,1.6-0.2,2.4
					c0.1,1.1,0.1,2.5,0.1,3.7c0.1,1.7-0.1,3.3-0.2,4.7c0.1-0.4,0.6,1.2,0.6,1.1c0,0.1-0.1,1.5-0.1,1.5c-0.1,0.4-0.2,1.4-0.2,1.8
					c0.2,0.4,0.4,0.8,0.6,1.2c-0.2,0.4-0.4,0.8-0.5,1.2c-0.1,2.9,0.6,5.6,0.6,8.5c0,2.1-0.2,3.9,0.1,6.1c0.3,1.8,0.4,3,0.4,4.8
					c0.1,0.8,0.5,1.5,0.5,2.4c0.1,1.1,0.2,2,0.3,3c0.1,1.3,0.7,2.9,0.8,4.2c0,0.6-0.5,1.2-0.5,1.9c0.1,0.8,0.4,1.6,0.5,2.4
					c0.1,0.6,0.3,1.5,0.3,2.1c0.1,0.7-0.2,1.5-0.1,2.2c0.1,1.1,0.8,1.4,1,2.3c0.2,1.3-0.1,2.4,0,3.7c0.1,2.1,1.1,3.9,1.4,5.9
					c0.1,0.7-0.3,1.8-0.3,2.5c0.1,1.2,0.7,2.4,0.8,3.5c0.3,1.8,0.4,2.5,1,4.1c0.5,1.4,0.2,3.2,0.7,4.6c0.3,1.1,0.6,0.2,0.8,1.9
					c0.1,0.4-0.1,1.4-0.1,1.7c-0.1-0.6,0.8,1.8,0.7,1.3c0.2,0.6,0.1,2,0.3,2.4c-0.1,0.2-0.1,0.5-0.2,0.7c0.4,0.4,0.7,0.7,1.1,1
					c0.1,0.5,0.1,1.3,0.3,1.8c0.9,3.7,1.7,7.6,2.5,11.3c0.6,2.4,1.7,4.5,2.5,6.9C870.8,278.2,870.4,279.1,870.2,280.6L870.2,280.6z"
					/>
			</g>
			<g id="Group_14_" transform="translate(335.62903 327.85938)">
				<path id="Shape_13_" class="st7" d="M689,93.6c-0.2,0.4-0.4,0.8-0.7,1.2c0.1,0.4,0.1,0.8,0.2,1.2c0,1,0.1,1.8,0.1,2.7
					c-0.1,0.3-0.3,0.6-0.4,0.9c0.2,0.4,0.4,0.6,0.6,0.9c0,0.6-0.1,1.4-0.2,2.1c-0.1,0.9,0.2,2.1,0.1,3c-0.1,0.9-0.8,1.5-1,2.4
					c-0.4,1.6-0.2,4-0.1,5.4c0.1,1.6,0.1,3.4-0.5,4.8c-0.6,1.7-1.2,3.8-1.2,5.9c0,1.9,0.1,4.3-0.6,6c-0.2,0.6-0.9,1.1-1.1,1.6
					c-0.2,0.8,0.3,1.5,0,2.5c-0.2,0.2-0.5,0.5-0.8,0.8c-0.4,0.2-0.4,0.5-0.1,0.9c0,0-0.5,1.6-0.5,1.8c-0.4,1.8-0.8,3-1.3,4.6
					c-0.5,1.8-0.2,3.2-1.2,5c-0.9,1.8-1.4,3.5-2.2,5.3c-0.6,1.3-0.9,2.7-1.4,4c-0.3,0.8-0.7,0.8-1.1,1.5c-0.4,1-0.1,1.6-0.5,2.4
					c-0.2,0.4-0.8,1.1-1.1,1.5c-0.4,0.7-0.5,1.5-0.8,2.2c-0.4,0.9-1.3,1.5-1.6,2.2c-0.2,0.5-0.1,1.3-0.4,1.9
					c-0.7,1.9-1.1,2.2-1.8,3.2c-1.2,1.7-5.1,1.8-7,1.9c-1.7,0.1-4.6-0.3-6.1-0.5c-0.9-0.1-3.4-1.1-4-1.8c-1.1-1.4-0.9-1.1-1.1-3.1
					c0.1-0.2,0.4-2,0.5-2.3c0.4-1.5,1.1-2.1,1.7-3.3c0.6-1.2,0.2-2.6,0.5-3.7c0.1-0.4,0.8-0.6,0.9-0.9c0.4-0.9,0.3-2,0.7-3
					c0.4-0.9,0.6-1.7,0.9-2.5c0.1-0.4,0.5-0.8,0.6-1.1c0.1-0.4-0.2-1-0.1-1.3c0.8-2.4,1.8-4.7,2.1-7.3c0.1-0.4-0.4-0.9-0.2-1.3
					c0.1-0.4,0.8-0.6,1-1.1c0.2-0.8,0.4-2.2,0.4-3c0-0.6-0.1-1.5,0.1-2.2c0.1-1.1,1.2-2.2,1.4-3.1c0.1-0.8-0.4-1.7-0.4-2.5
					c0.1-0.4,0.7-0.7,0.8-1.1c0.1-0.4-0.4-0.9-0.4-1.3c0.1-0.4,0.8-0.7,0.8-1.1c0.1-0.4-0.5-0.9-0.4-1.3c0.1-0.8,0.2-2,0.4-2.7
					c0.1-0.5,0.5-0.9,0.6-1.5c0.1-0.8-0.1-1.7-0.1-2.5c0-1.4,0.5-2.3,0.6-3.6c0.1-0.7-0.1-1.5,0-2.1c0.1-0.3,0.6-0.6,0.6-0.8
					c0.1-1.5-0.4-2.8-0.1-4.3c0.3-1.5,0.4-2.7,0.4-4.2c0-1.1-0.3-2.1-0.2-3c0-1,0.5-1.3,0.7-2.4c0.3-1.4-0.5-2.8-0.4-4.3
					c0.1-1.3,0.4-2.4,0.4-3.7s-0.4-2.4-0.4-3.7c-0.1-1.2,0-1.9-0.2-3c-0.2-1.5,0.1-2.5,0-4c0-0.7-0.5-1.6-0.6-2.4
					c-0.1-1,0.2-2,0-3.1c-0.2-1.1-0.8-2.1-0.8-3.3c0.1-2.2,0.4-1.5,2.1-1.5c3.6,0.1,7-0.1,10.7,0.2c1.8,0.2,3.7,0.2,5.6-0.1
					c1-0.4,1.5-0.4,2.6-0.4c0.9,0.1,2.1-0.4,3.1-0.1c-0.1,0.5-0.2,1-0.4,1.5c0.4,0.4,0.6,0.8,0.9,1.1c0.4,1.4-0.2,1.9-0.2,3.1
					c0,0.8,0.1,1.8,0.2,2.4c0.1,0.6,0,1.8,0.2,2.4c0.7,2.1,0.5,3.8,0.4,6.1C688.4,88.4,689,90.9,689,93.6L689,93.6z"/>
			</g>
			<g id="Group_15_" transform="translate(72.58322 214.67737)">
				<path id="Shape_14_" class="st7" d="M825.7,280.9c-1.2,2.2-3.9,4.3-6.6,4.2c-1.3-0.1-1.8-0.1-3,0c-0.7,0.1-4.4-1.1-5.1-1.1
					c-1.5,0-2-2-3.5-2.8c-0.9-0.5-0.4,0-1-0.9c-0.4-0.7-0.8-1.8-1.1-2.5c-0.5-1.5-1.3-3.4-1.5-4.9c-0.4-2.3-0.9-4.8-1.7-7.1
					c-0.4-1.1-0.7-2.2-1-3.2c-0.1-0.3,0.2-0.7,0.1-1c-0.1-0.4-0.8-0.6-0.9-1.1c-0.5-1.7-0.4-3.2-0.8-4.8c-0.5-1.7-0.5-3.4-1.1-5.1
					c-0.5-1.5-1.1-3-1.3-4.7c0-0.3,0.6-0.8,0.5-1.1c-0.1-0.3-0.7-0.5-0.8-0.8c-0.3-1-0.4-1.7-0.4-2.7c-0.1-2-0.7-3.6-1.1-5.1
					c0,0.1,0.2-1.4,0.2-1.5c0-1-0.5-2.2-0.8-3.3c-0.3-1.5-0.8-3.2-0.9-4.8c-0.1-0.4,0.5-0.7,0.5-1c0-0.3-0.4-0.6-0.5-0.8
					c-0.1-1.2-0.7-2.6-0.8-3.9c-0.1-0.8,0.3-1.1,0.1-1.8c-0.1-0.4-0.5-0.7-0.6-1.1c-0.1-0.5,0.1-0.8,0.1-1.2c-0.2-1.2,0-3.2-0.2-4.6
					c-0.1-0.9-0.8-1.6-0.8-2.7c0.1-1.1,0.2-1.8,0.2-2.7c-0.1-0.9-0.1-2.4-0.2-3.3c-0.1-0.7-0.6-1.2-0.7-1.8
					c-0.2-1.3,0.4-1.9,0.4-3.1c0.1-0.9-0.5-1.5-0.7-2.4c-0.5-2.1-0.3-4,0-6.1c0.2-1.3-0.3-1.9-0.5-3c-0.1-0.3-0.4-0.6-0.4-0.9
					c-0.1-0.5,0.5-0.8,0.5-1.2c-0.1-1.6-0.2-3.3-0.1-5.1c0.2-2-0.3-4.1-0.4-6c-0.1-2.1-0.5-4.3-0.4-6.4c0.1-1.7,0.4-3.3,0.5-4.8
					c0.1-1.6-0.8-2.7-0.4-4.6c0.7-2.3,0.7-3.7,0.4-6c-0.2-1.8,0.5-3.4,0.5-5.4c0.1-1.5-0.1-2.7,0.1-4.2c0.1-0.3-0.4-0.6-0.3-0.9
					c0.1-0.2,0.5-1,0.5-1.2c0-0.1-0.2-0.8-0.2-0.9c0.1-0.5,0.1-1.5,0.1-2.1c0-0.3,0.6-0.6,0.6-0.8c0.1-0.4-0.7-0.9-0.7-1.3
					c0-0.4,0.6-0.8,0.6-1.2c0-0.4-0.6-0.8-0.6-1.2c0-0.3,0.8-3.5,0.8-3.5c0.8-0.7,1.4,0.2,2.1,0.2c1.4,0.1,3.4,0.1,4.6-0.1
					c1.4-0.3,2.7-0.4,4.3-0.4c0.7,0,1.5-0.1,2.2-0.1c1,0,1.6,0.4,2.5,0.5c1.2,0.2,3.4,0.2,4.6,0.1c1.4-0.1,2.7-1.2,4.4-0.7
					c-0.1,1.2-0.2,2.3-0.3,3.3c-0.2,1.5-0.6,3-0.4,4.7c0.2,1.4,0.4,2.7,0.4,4.1c0.1,1.6-0.5,2.6-0.6,3.9c-0.1,0.6,0.4,1.3,0.4,2.1
					c-0.1,0.4-0.8,0.8-0.8,1.2c-0.1,0.5,0.5,0.9,0.5,1.5c-0.1,0.7-0.2,1.3-0.2,2.1c0,1.1,0.1,1.8-0.1,3c-0.4,2,0.8,3.3,0.6,5.3
					c-0.4,2.4-0.7,4.8-0.8,7.3c-0.1,1.3,0.8,2.4,0.8,3.7c0,0.4-0.6,0.8-0.6,1.2c0,1.1,0.6,1.5,0.6,2.4c0,0.4-0.5,0.8-0.5,1.2
					c0,0.6,0.2,1.8,0.4,2.4c0.1,1.1-0.1,2.1-0.1,3c0,0.9,0.4,1.4,0.5,2.4c0.2,1.4,0.1,3.4,0.1,4.8c0,2.8-0.4,5.6,0.4,8.5
					c0.4,1.3-0.4,2-0.4,3.1c0.1,0.8,0.8,1.4,0.8,2.1c0.1,0.6-0.4,1.2-0.4,1.8c0,1.2,0.4,2,0.5,3.3c0.2,1.7-0.4,3.1-0.1,4.8
					c0.1,0.4,0.7,0.7,0.8,1.1c0.1,0.5-0.3,1.3-0.4,1.8c-0.1,1.6,0.4,3.3,0.4,4.8c-0.1,0.9,0.5,1.9,0.5,2.7c0.1,1.2,0.1,2.7,0.1,3.9
					c0.1,1.5,0.6,2.7,0.7,4.1c0.1,1.2-0.1,2.2,0.1,3.7c0.1,1.1,0.7,2,0.8,3c0.1,0.9-0.4,2.2-0.2,3.1c0.1,1.1,0.6,1.8,0.8,3
					c0.2,0.9-0.2,2.2,0.1,3c0.7,2.5,0.6,5.1,1.4,7.7c0.8,2.9,0.5,5.7,1.1,8.4c0.4,1.8,0.4,3,0.5,4.8c0.2,1.8,1.2,3.5,1.6,5.3
					c0.3,1.5-0.4,2.5,0.3,4.3C826.6,278.3,826.5,279.5,825.7,280.9L825.7,280.9z"/>
			</g>
			<g id="Group_16_" transform="translate(281.57886 327.73184)">
				<path id="Shape_15_" class="st7" d="M710.3,93.7c0.2,0.4,0.4,0.8,0.7,1.2c-0.2,0.8-0.2,1.6-0.2,2.4c-0.1,1.1-0.2,2.1-0.2,3
					c0,2.1,0.1,4.6-0.1,6.7c-0.1,2.2-0.3,3.8-0.7,6c-0.3,1.5,0.1,2.4,0.1,3.7c-0.2,0.4-0.4,0.8-0.7,1.1c0.2,0.4,0.4,0.8,0.6,1.3
					c-0.2,2.7-1.8,5.5-2,8.3c-0.1,1.2,0.1,2,0,3.1c-0.1,1.1-0.5,2.4-0.6,3.6c-0.1,1.2-0.4,2.4-0.7,3.5c-0.4,1.2-0.3,1.9-0.5,3
					c-0.4,2.2-0.7,4.2-1.3,6.5c-0.5,2-1.4,4-1.9,5.8c-0.4,1.1-1,2.7-1.4,4c-0.3,0.9-0.4,2.3-0.6,3c0.4,0.6,0.4,0.9-0.4,1.2
					c-0.7,0.4-0.9,0.8-0.8,1.6c-0.2,0.4-0.4,0.7-0.6,1.1c0.1,0.4,0.1,0.7,0.4,1c-0.2,0.4-1.1,0.8-1.2,1.3c-0.4,0.9,0.5,0.7,0.1,2
					c-0.8,2.2-2.3,4-4.2,4.8c-0.9,0.4-6.4,0.7-7.3,0.6c-0.4-0.1-1.3-0.7-2-0.7c-3.2-0.4-5-2.2-4.8-4.7c0.2-0.7,0.4-1.1,0.5-1.8
					c0.1-0.3-0.5-0.8-0.4-1.1c0-0.1,0.4-0.8,0.4-0.8c0-0.1,0.4-0.7,0.4-0.8c0.1-0.3-0.4-0.7-0.3-1c0.4-1.4,1.2-2,1.6-3.4
					c0.4-1.5,0.1-3.3,0.4-4.8c0.1-0.8,0.4-1.5,0.6-2.4c0.1-0.8,0.4-1.4,0.6-2c0.2-1.1,0.1-2.5,0.4-3.7c0.3-1.6,1.2-3.3,1.3-5
					c0-0.8-0.2-1.3-0.1-2.2c0.1-1,0.5-2,0.6-3c0.1-1.8,1.2-4,1.2-5.7c0-0.5-0.8-0.8-0.8-1.3c0.1-0.8,0.9-1.4,1.1-2.3
					c0.1-0.8-0.4-1.5-0.2-2.5c0.1-1.1,0.7-1.8,0.8-3c0.1-1.8,0.4-3.7,0.4-5.4c-0.1-0.8-0.4-1.6-0.4-2.5c0.1-1.1,0.7-1.8,0.7-3
					c0.1-2,0.3-4,0.1-6.1c-0.1-1,0.4-1.9,0.3-2.7c-0.1-0.9-0.6-1.8-0.6-2.7c0-0.3,0.4-0.6,0.4-0.9c0-0.4-0.2-0.8-0.2-1.2
					c0.1-0.6,0.1-1.2,0.1-1.8c0-1.8,0.2-3.4,0-5.2c-0.2-1.5-0.3-3.1-0.2-4.7c0-0.2,0.5-0.4,0.6-0.6c0.1-0.5-0.4-0.7-0.5-1.1
					c-0.1-1.1-0.1-1.7,0-2.7c0.1-1.1,0.4-2.6,0.2-3.7c-0.1-0.3-0.6-0.7-0.5-0.9c0-0.1,0.3-0.9,0.3-0.9c0-0.1,0.4-0.5,0.4-0.6
					c0.1-0.4-0.5-0.8-0.5-1.2c0-1.4-0.4-2.7-0.4-4c0.2-0.1,2.6,0.1,3,0.2c0.8,0.1,1.3,0.5,2.1,0.6c0.8,0.1,1.8-0.3,2.7-0.4
					c0.5,0,1.1-0.1,1.5-0.1c0.4,0.1,1.1,0.6,1.5,0.6c0.9-0.1,1.7-0.8,2.6-0.8c0.4,0,0.5,0.7,1,0.8c0.4,0.1,0.8-0.6,1.2-0.6
					c1.1,0,2,0.4,3,0.4c1-0.1,2-0.8,3.1-0.4c-0.1,0.5-0.3,1.1-0.4,1.5c0.1,0.4,0.4,0.8,0.5,1.2c0.1,1.2-0.1,2.5,0.1,3.7
					c0.1,1.2,0.8,1.6,0.6,3c-0.1,1.1-0.2,1.7-0.1,2.7c0.4,2.3,0.6,4,0.2,6.4c-0.2,1.5,0.2,2.4,0.4,3.7c0.1,0.4,0.3,0.8,0.4,1.2
					C710.9,92.9,710.6,93.3,710.3,93.7L710.3,93.7z"/>
			</g>
		</g>
		<g id="Group_18_" transform="translate(57.28601 86)">
			<path id="Ellipse" class="st2" d="M798,212.4c0-8.6,7-16.1,16.1-16.1s17,7.7,17,16.3s-7.3,14.2-16.3,14.2S798,221,798,212.4z"/>
			<path id="Ellipse-2" class="st2" d="M846.5,225.4c0-8,7.5-12.8,15.6-12.8c8.1,0,17.7,5.1,17.7,13c0,7.9-7.5,15.8-15.6,15.8
				S846.5,233.3,846.5,225.4z"/>
			<g id="Group-2" transform="translate(16.5 20)">
				<path id="Ellipse_1_" class="st8" d="M789.3,191c0-2.9,2.3-5.2,5.2-5.2s5.2,2.3,5.2,5.2s-2.3,5.2-5.2,5.2S789.3,193.8,789.3,191
					z"/>
				<path id="Ellipse-2_1_" class="st8" d="M846.1,204.7c0-2.9,2.3-5.2,5.2-5.2s5.2,2.3,5.2,5.2s-2.3,5.2-5.2,5.2
					S846.1,207.5,846.1,204.7z"/>
				<path id="New-shape-6" class="st10" d="M791.2,190c0,0,0.8-2.7,4.7-2.1"/>
				<path id="New-shape-7" class="st10" d="M848,203.7c0,0,0.8-2.7,4.7-2.1"/>
			</g>
		</g>
	</g>
	<g id="Group_19_" transform="translate(57.28601 86)">
		<g id="Group-2_2_" transform="translate(16.5 20)">
			<path id="Ellipse_2_" class="st8" d="M791.1,193.8c0-3.3,2.7-6,5.9-6c3.2,0,5.8,2.7,5.8,6c0,3.3-2.7,6-5.9,6
				C793.8,199.8,791.1,197.1,791.1,193.8z"/>
			<path id="Ellipse-2_2_" class="st8" d="M847.4,207.1c0-3.3,2.7-6,5.9-6c3.3-0.1,5.9,2.7,5.9,6c0,3.3-2.7,6-5.9,6
				C850,213.1,847.4,210.4,847.4,207.1z"/>
			<path id="New-shape-7_2_" class="st10" d="M855.9,203.4"/>
			<path id="New-shape-7_1_" class="st10" d="M850.5,205.8"/>
		</g>
	</g>
</g>
<g>
	<g transform="translate(199.0 283.0) rotate(0.0 134.5 134.0) scale(1.7545804987183085 1.7489933499096137)">
		<g>
			<defs>
				<rect id="SVGID_5_" x="-41.9" y="-42.9" width="269" height="268"/>
			</defs>
			<clipPath id="SVGID_6_">
				<use xlink:href="#SVGID_5_"  style="overflow:visible;"/>
			</clipPath>
			<g transform="translate(-0.0 -0.0)" class="st11">
				<g id="Layer_2-i3">
					<g id="pie_chart-i3">
						<path class="st12" d="M96.3,88.7l67.9,29.8c15.1-39.5-4.7-83.8-44.2-99c-7.6-2.9-15.6-4.6-23.7-5V88.7z"/>
						<path class="st1" d="M88.9,82.9V14.5c-19.2,0.9-37.4,9-50.9,22.8L88.9,82.9z"/>
						<path class="st5" d="M91.1,94.4l-0.3-0.2l-0.2-0.1c-0.2-0.1-0.3-0.2-0.5-0.4l0,0l-57.1-51C6.4,75.7,11.4,123.9,44.3,150.6
							s81.1,21.7,107.8-11.2c3.6-4.4,6.6-9.1,9.1-14.2L91.1,94.4z"/>
						<path class="st5" d="M140.2,129.5c-0.3-1.1-1.2-2-2.2-2.5l-37-16.2c-2-0.9-4.4,0-5.3,2.1c-0.3,0.7-0.4,1.6-0.3,2.3l6.4,34.5
							c0.4,1.9,2,3.3,3.9,3.3h0.3c13.7-1.1,26.1-8.5,33.6-20C140.4,131.9,140.6,130.6,140.2,129.5z"/>
					</g>
				</g>
			</g>
		</g>
	</g>
</g>
<g>
	<g transform="translate(525.0 378.0) rotate(0.0 267.0 153.0) scale(0.9605024830967752 0.9614085577929076)">
		<g>
			<defs>
				<rect id="SVGID_7_" x="40.1" y="32.5" width="534" height="306"/>
			</defs>
			<clipPath id="SVGID_8_">
				<use xlink:href="#SVGID_7_"  style="overflow:visible;"/>
			</clipPath>
			<g transform="translate(-0.0 -0.0)" class="st13">
				<g id="Layer_2-i4">
					<g id="Layer_1-2-i4">
						<rect x="107.6" y="36.5" class="st1" width="14.8" height="308.2"/>
						<rect x="29.1" y="36.5" class="st1" width="14.8" height="308.2"/>
						<rect x="29.1" y="33.6" class="st14" width="14.8" height="21.2"/>
						<rect x="107.6" y="33.6" class="st14" width="14.8" height="21.2"/>
						<rect x="29.1" y="26.4" class="st14" width="556" height="10.1"/>
						<rect x="569.9" y="36.5" class="st1" width="14.8" height="308.2"/>
						<rect x="491.4" y="36.5" class="st1" width="14.8" height="308.2"/>
						<rect x="491.4" y="33.6" class="st14" width="14.8" height="21.2"/>
						<rect x="569.9" y="33.6" class="st14" width="14.8" height="21.2"/>
					</g>
				</g>
			</g>
		</g>
	</g>
</g>
<g>
	<g transform="translate(600.0 191.0) rotate(0.0 114.0 94.5) scale(1.1088145896656536 1.1130742049469964)">
		<g>
			<defs>
				<rect id="SVGID_9_" x="14.1" y="14.1" width="228" height="189"/>
			</defs>
			<clipPath id="SVGID_10_">
				<use xlink:href="#SVGID_9_"  style="overflow:visible;"/>
			</clipPath>
			<g transform="translate(-0.0 -0.0)" class="st15">
				<g id="Layer_2-i5">
					<g id="Layer_1-2-i5">
						<path class="st14" d="M220.4,23.7H45.7c-5.8,0-10.4,4.7-10.4,10.4c0,0,0,0,0,0v113.3c0,5.8,4.7,10.4,10.4,10.4c0,0,0,0,0,0
							h174.8c5.7,0,10.4-4.7,10.4-10.4V34.2C230.9,28.4,226.2,23.7,220.4,23.7C220.5,23.7,220.4,23.7,220.4,23.7z"/>
						<path class="st2" d="M210.1,156.8H36.1c-5.4,0-9.8-4.4-9.8-9.8c0,0,0,0,0,0V34.5c0-5.4,4.4-9.8,9.8-9.8c0,0,0,0,0,0h173.9
							c5.4,0,9.8,4.4,9.8,9.8c0,0,0,0,0,0v112.5C219.8,152.4,215.4,156.8,210.1,156.8z"/>
						<path class="st14" d="M210.1,157.9H36.1c-6,0-10.9-4.9-10.9-10.9V34.5c0-6,4.9-10.9,10.9-10.9h173.9c6,0,10.9,4.9,10.9,10.9
							v112.5C220.9,153,216.1,157.9,210.1,157.9z M36.1,25.9c-4.8,0-8.6,3.8-8.7,8.6c0,0,0,0,0,0.1v112.5c0,4.8,3.8,8.6,8.6,8.7
							c0,0,0,0,0.1,0h173.9c4.8-0.1,8.6-3.9,8.7-8.7V34.5c0-4.8-3.8-8.6-8.6-8.7c0,0,0,0-0.1,0H36.1z"/>
						<path class="st14" d="M142.4,89.8c-0.5-0.1-1,0.2-1.3,0.7l-27.1,66c-0.1,0.3-0.1,0.7,0.1,1c0.2,0.3,0.5,0.5,0.9,0.5h27.1
							c0.6,0,1.1-0.5,1.1-1.1v-66C143.3,90.3,142.9,89.9,142.4,89.8z"/>
						<path class="st2" d="M165.9,192.4H89.2c-4.4,0-8-3.6-8-8c0-0.6,0.1-1.3,0.2-1.9l22.5-91.6h38.3l-21.1,85.7
							c-1.1,4.3,1.5,8.6,5.8,9.7c0.7,0.2,1.3,0.2,2,0.2l38-0.1c0.5,0,0,4.4,0,4.9l0,0C166.9,191.9,166.5,192.3,165.9,192.4
							C165.9,192.4,165.9,192.4,165.9,192.4z"/>
						<path class="st14" d="M165.9,193.5H89.2c-2.8,0-5.5-1.3-7.2-3.5c-1.7-2.2-2.3-5.1-1.6-7.8l22.7-92.4h40.6L122.2,177
							c-0.5,2.1-0.1,4.3,1.3,5.9c1.3,1.7,3.3,2.7,5.5,2.6l38-0.1c0.3,0,0.7,0.1,0.9,0.4c0.5,0.5,0.6,1.5,0.3,4.9
							c0,0.2,0,0.5-0.1,0.7C168,192.5,167,193.5,165.9,193.5z M104.8,92l-22.3,90.7c-0.5,2-0.1,4.2,1.3,5.8c1.3,1.7,3.3,2.7,5.4,2.7
							h76.6c0-0.3,0-0.6,0.1-0.9c0.1-0.6,0.1-2,0.1-2.8l-37.1,0.1c-2.8,0.1-5.5-1.2-7.3-3.4c-1.8-2.2-2.4-5.1-1.7-7.8l20.7-84.3
							L104.8,92L104.8,92z"/>
					</g>
				</g>
			</g>
		</g>
	</g>
</g>
<g>
	<g transform="translate(315.0 -49.0) rotate(78.87382500855041 44.5 217.0) scale(0.3228146536089953 0.3234220135628586)">
		<g>
			<defs>
				
					<rect id="SVGID_11_" x="14.7" y="556.7" transform="matrix(0.9812 -0.193 0.193 0.9812 -111.6535 56.0201)" width="434" height="89"/>
			</defs>
			<clipPath id="SVGID_12_">
				<use xlink:href="#SVGID_11_"  style="overflow:visible;"/>
			</clipPath>
			<g transform="translate(-0.0 -0.0)" class="st16">
				
					<rect x="-450.9" y="591.6" transform="matrix(-0.1882 0.9821 -0.9821 -0.1882 865.699 486.6684)" class="st5" width="1365.3" height="19"/>
			</g>
		</g>
	</g>
</g>
<g>
	<g transform="translate(302.0 0.0) rotate(78.78508531534634 41.0 200.0) scale(0.2974247370330069 0.29808480512705865)">
		<g>
			<defs>
				
					<rect id="SVGID_13_" x="39.9" y="554.4" transform="matrix(0.9809 -0.1945 0.1945 0.9809 -111.2191 58.0244)" width="400" height="82"/>
			</defs>
			<clipPath id="SVGID_14_">
				<use xlink:href="#SVGID_13_"  style="overflow:visible;"/>
			</clipPath>
			<g transform="translate(-0.0 -0.0)" class="st17">
				
					<rect x="-443" y="585.8" transform="matrix(-0.1882 0.9821 -0.9821 -0.1882 869.6862 471.7782)" class="st5" width="1365.8" height="19"/>
			</g>
		</g>
	</g>
</g>
<g>
	<g transform="translate(351.0 329.0) rotate(180.0 97.5 -29.5) scale(1.7733237543537372 -1.7622987544430837)">
		<g>
			<defs>
				<rect id="SVGID_15_" x="-58.3" y="1.6" width="195" height="59"/>
			</defs>
			<clipPath id="SVGID_16_">
				<use xlink:href="#SVGID_15_"  style="overflow:visible;"/>
			</clipPath>
			<g transform="translate(-0.0 -0.0)" class="st18">
				<g id="Layer_2-i8">
					<g id="Layer_1-2-i8">
						<path class="st12" d="M93,47.9c-0.2,0-0.5-0.1-0.7-0.2L50.5,16.6h-65.1c-0.6,0-1.1-0.5-1.1-1.1c0-0.6,0.5-1.1,1.1-1.1h65.5
							c0.2,0,0.5,0.1,0.7,0.2l42.2,31.3c0.5,0.3,0.6,1,0.3,1.4c0,0,0,0.1-0.1,0.1C93.8,47.7,93.4,47.9,93,47.9z"/>
					</g>
				</g>
			</g>
		</g>
	</g>
</g>
<g>
	<g transform="translate(304.0 531.0) rotate(0.0 -82.5 42.5) scale(-1.7382326914162909 1.7265894779605933)">
		<g>
			<defs>
				<rect id="SVGID_17_" x="-51.1" y="-3.2" width="165" height="85"/>
			</defs>
			<clipPath id="SVGID_18_">
				<use xlink:href="#SVGID_17_"  style="overflow:visible;"/>
			</clipPath>
			<g transform="translate(-0.0 -0.0)" class="st19">
				<g id="Layer_2-i9">
					<g id="Layer_1-2-i9">
						<path class="st5" d="M77.8,63.9H7.7c-0.4,0-0.8-0.2-1-0.6L-16,16.2c-0.3-0.5-0.1-1.1,0.4-1.4c0,0,0,0,0.1,0
							c0.5-0.3,1.1-0.1,1.4,0.4c0,0,0,0,0,0.1L8.3,61.8h69.4c0.6,0,1.1,0.5,1.1,1.1c0,0.5-0.4,1-0.9,1
							C77.9,63.9,77.8,63.9,77.8,63.9z"/>
						<path class="st5" d="M54.1,46.3H20.2c-0.6,0-1.1-0.5-1.1-1.1c0-0.6,0.5-1.1,1.1-1.1h33.9c0.6,0,1.1,0.5,1.1,1.1
							c0,0.6-0.4,1.1-1,1.1C54.2,46.3,54.1,46.3,54.1,46.3z"/>
					</g>
				</g>
			</g>
		</g>
	</g>
</g>
</svg>
