<?xml version="1.0" encoding="utf-8"?>
<!-- Generator: Adobe Illustrator 25.0.1, SVG Export Plug-In . SVG Version: 6.00 Build 0)  -->
<svg version="1.1" id="Layer_1" xmlns="http://www.w3.org/2000/svg" xmlns:xlink="http://www.w3.org/1999/xlink" x="0px" y="0px"
	 viewBox="0 0 698.5 500.6" style="enable-background:new 0 0 698.5 500.6;" xml:space="preserve">
<style type="text/css">
	.st0{fill:#C4C8D8;}
	.st1{fill:#233943;}
	.st2{fill:#FCD3CF;}
	.st3{fill:#F1626E;}
	.st4{fill:#FAF6F2;}
	.st5{fill:none;stroke:#F1626E;stroke-width:5;}
	.st6{fill:#004E7F;}
	.st7{fill:#F1626E;stroke:#F1626E;}
	.st8{fill:none;stroke:#FFFFFF;stroke-width:2;}
</style>
<g>
	<circle class="st0" cx="123.4" cy="207.4" r="2.6"/>
	<circle class="st0" cx="557.4" cy="293.9" r="2.6"/>
	<circle class="st0" cx="554.8" cy="21.8" r="2.6"/>
	<circle class="st0" cx="255.9" cy="2.6" r="2.6"/>
	<circle class="st0" cx="24.8" cy="17.8" r="2.6"/>
	<circle class="st0" cx="418" cy="357.1" r="2.4"/>
	<ellipse class="st0" cx="33.7" cy="291" rx="2.4" ry="2.4"/>
</g>
<g id="pie_chart-i3">
	<path class="st1" d="M183.5,238l80.1,35c17.8-46.5-5.5-98.5-52.2-116.3c-8.9-3.4-18.4-5.4-27.9-5.8L183.5,238L183.5,238z"/>
	<path class="st2" d="M174.8,231.1v-79.5c-22.7,1.1-44.1,10.6-60,25.9L174.8,231.1z"/>
	<path class="st3" d="M177.4,244.7l-0.3-0.2l-0.2-0.1c-0.2-0.1-0.4-0.3-0.6-0.4l0,0L109,184c-31.4,38.6-25.5,95.3,13.2,126.7
		s95.6,25.4,127.1-13.2c4.2-5.1,7.8-10.7,10.8-16.7L177.4,244.7z"/>
	<path class="st3" d="M235.3,286.7c-0.4-1.3-1.4-2.4-2.6-3l-43.7-19c-2.4-1-5.2,0-6.2,2.4c-0.4,0.9-0.5,1.8-0.3,2.8l7.6,40.5
		c0.4,2.2,2.4,3.8,4.6,3.8h0.4c16.1-1.3,30.8-10,39.6-23.5C235.5,289.5,235.7,288.1,235.3,286.7z"/>
</g>
<g>
	<g>
		<g>
			<path class="st1" d="M495.3,21.9H67.7c-0.5,0-0.9-0.4-0.9-0.9s0.4-0.9,0.9-0.9h427.5c0.5,0,0.9,0.4,0.9,0.9
				C496.2,21.5,495.8,21.9,495.3,21.9z"/>
		</g>
		<g>
			<polygon class="st1" points="70.5,30.4 54.3,21 70.5,11.6 			"/>
		</g>
		<g>
			<polygon class="st1" points="492.6,30.4 508.8,21 492.6,11.6 			"/>
		</g>
	</g>
</g>
<g>
	<path class="st1" d="M54.3,76c-0.5,0-0.9-0.4-0.9-0.9V3.6c0-0.5,0.4-0.9,0.9-0.9s0.9,0.4,0.9,0.9V75C55.2,75.5,54.8,76,54.3,76z"/>
</g>
<g>
	<path class="st1" d="M508.8,76c-0.5,0-0.9-0.4-0.9-0.9V3.6c0-0.5,0.4-0.9,0.9-0.9s0.9,0.4,0.9,0.9V75C509.7,75.5,509.3,76,508.8,76
		z"/>
</g>
<g>
	<g>
		<path class="st1" d="M63.7,59H0.9C0.4,59,0,58.5,0,58s0.4-0.9,0.9-0.9h62.8c0.5,0,0.9,0.4,0.9,0.9C64.7,58.5,64.2,59,63.7,59z"/>
	</g>
	<g>
		<path class="st1" d="M71.3,479.8H0.9c-0.5,0-0.9-0.4-0.9-0.9s0.4-0.9,0.9-0.9h70.3c0.5,0,0.9,0.4,0.9,0.9S71.8,479.8,71.3,479.8z"
			/>
	</g>
	<g>
		<g>
			<g>
				<path class="st1" d="M24.8,466.3c-0.5,0-0.9-0.4-0.9-0.9V71.5c0-0.5,0.4-0.9,0.9-0.9s0.9,0.4,0.9,0.9v393.9
					C25.8,465.9,25.3,466.3,24.8,466.3z"/>
			</g>
			<g>
				<polygon class="st1" points="34.2,462.6 24.8,478.9 15.5,462.6 				"/>
			</g>
			<g>
				<polygon class="st1" points="34.2,74.3 24.8,58 15.5,74.3 				"/>
			</g>
		</g>
	</g>
</g>
<g>
	<g>
		<g>
			<path class="st4" d="M54.3,392.1h28.4c9.4,0,17.1,7.7,17.1,17.1v8.5c0,9.4-7.7,17.1-17.1,17.1H54.3"/>
			<path class="st2" d="M82.6,436.7H54.3v-3.8h28.4c8.3,0,15.2-6.8,15.2-15.2v-8.5c0-8.3-6.8-15.2-15.2-15.2H54.3v-3.8h28.4
				c10.5,0,18.9,8.5,18.9,18.9v8.5C101.5,428.2,93.1,436.7,82.6,436.7z"/>
		</g>
	</g>
	<g>
		<g>
			<path class="st4" d="M173.4,434.7h-56.7c-9.4,0-17.1-7.7-17.1-17.1v-8.5c0-9.4,7.7-17.1,17.1-17.1h56.7c9.4,0,17.1,7.7,17.1,17.1
				v8.5C190.4,427.1,182.8,434.7,173.4,434.7z"/>
			<path class="st2" d="M173.4,436.6h-56.7c-10.5,0-18.9-8.5-18.9-18.9v-8.5c0-10.5,8.5-18.9,18.9-18.9h56.7
				c10.5,0,18.9,8.5,18.9,18.9v8.5C192.3,428.1,183.8,436.6,173.4,436.6z M116.7,394c-8.3,0-15.2,6.8-15.2,15.2v8.5
				c0,8.3,6.8,15.2,15.2,15.2h56.7c8.3,0,15.2-6.8,15.2-15.2v-8.5c0-8.3-6.8-15.2-15.2-15.2H116.7z"/>
		</g>
	</g>
	<g>
		<g>
			<path class="st4" d="M264.1,434.7h-56.7c-9.4,0-17.1-7.7-17.1-17.1v-8.5c0-9.4,7.7-17.1,17.1-17.1h56.7c9.4,0,17.1,7.7,17.1,17.1
				v8.5C281.2,427.1,273.5,434.7,264.1,434.7z"/>
			<path class="st2" d="M264.1,436.6h-56.7c-10.5,0-18.9-8.5-18.9-18.9v-8.5c0-10.5,8.5-18.9,18.9-18.9h56.7
				c10.5,0,18.9,8.5,18.9,18.9v8.5C283.1,428.1,274.6,436.6,264.1,436.6z M207.4,394c-8.3,0-15.2,6.8-15.2,15.2v8.5
				c0,8.3,6.8,15.2,15.2,15.2h56.7c8.3,0,15.2-6.8,15.2-15.2v-8.5c0-8.3-6.8-15.2-15.2-15.2H207.4z"/>
		</g>
	</g>
	<g>
		<g>
			<path class="st4" d="M354.9,434.7h-56.7c-9.4,0-17.1-7.7-17.1-17.1v-8.5c0-9.4,7.7-17.1,17.1-17.1h56.7c9.4,0,17.1,7.7,17.1,17.1
				v8.5C371.9,427.1,364.4,434.7,354.9,434.7z"/>
			<path class="st2" d="M354.9,436.6h-56.7c-10.5,0-18.9-8.5-18.9-18.9v-8.5c0-10.5,8.5-18.9,18.9-18.9h56.7
				c10.5,0,18.9,8.5,18.9,18.9v8.5C373.8,428.1,365.3,436.6,354.9,436.6z M298.2,394c-8.3,0-15.2,6.8-15.2,15.2v8.5
				c0,8.3,6.8,15.2,15.2,15.2h56.7c8.3,0,15.1-6.8,15.2-15.2v-8.5c0-8.3-6.8-15.2-15.2-15.2H298.2z"/>
		</g>
	</g>
	<g>
		<g>
			<path class="st4" d="M445.7,434.7H389c-9.4,0-17.1-7.7-17.1-17.1v-8.5c0-9.4,7.7-17.1,17.1-17.1h56.7c9.4,0,17.1,7.7,17.1,17.1
				v8.5C462.8,427.1,455.1,434.7,445.7,434.7z"/>
			<path class="st2" d="M445.7,436.6H389c-10.5,0-18.9-8.5-18.9-18.9v-8.5c0-10.5,8.5-18.9,18.9-18.9h56.7
				c10.5,0,18.9,8.5,18.9,18.9v8.5C464.6,428.1,456.2,436.6,445.7,436.6z M389,394c-8.3,0-15.2,6.8-15.2,15.2v8.5
				c0,8.3,6.8,15.2,15.2,15.2h56.7c8.3,0,15.2-6.8,15.2-15.2v-8.5c0-8.3-6.8-15.2-15.2-15.2H389z"/>
		</g>
	</g>
	<g>
		<g>
			<path class="st4" d="M508.1,434.7h-28.4c-9.4,0-17.1-7.7-17.1-17.1v-8.5c0-9.4,7.7-17.1,17.1-17.1h29"/>
			<path class="st2" d="M508.1,436.6h-28.4c-10.5,0-18.9-8.5-18.9-18.9v-8.5c0-10.5,8.5-18.9,18.9-18.9h29v3.8h-29
				c-8.3,0-15.2,6.8-15.2,15.2v8.5c0,8.3,6.8,15.2,15.2,15.2h28.4V436.6z"/>
		</g>
	</g>
</g>
<g>
	<g>
		<path class="st4" d="M128,477.3H71.3c-9.4,0-17.1-7.7-17.1-17.1v-8.5c0-9.4,7.7-17.1,17.1-17.1H128c9.4,0,17.1,7.7,17.1,17.1v8.5
			C145,469.7,137.4,477.3,128,477.3z"/>
		<path class="st2" d="M128,479.2H71.3c-10.5,0-18.9-8.5-18.9-18.9v-8.5c0-10.5,8.5-18.9,18.9-18.9H128c10.5,0,18.9,8.5,18.9,18.9
			v8.5C146.9,470.7,138.4,479.2,128,479.2z M71.3,436.5c-8.3,0-15.2,6.8-15.2,15.2v8.5c0,8.3,6.8,15.2,15.2,15.2H128
			c8.3,0,15.1-6.8,15.2-15.2v-8.5c0-8.3-6.8-15.2-15.2-15.2H71.3z"/>
	</g>
	<g>
		<path class="st4" d="M218.8,477.3h-56.7c-9.4,0-17.1-7.7-17.1-17.1v-8.5c0-9.4,7.7-17.1,17.1-17.1h56.7c9.4,0,17.1,7.7,17.1,17.1
			v8.5C235.8,469.7,228.2,477.3,218.8,477.3z"/>
		<path class="st2" d="M218.8,479.2h-56.7c-10.5,0-18.9-8.5-18.9-18.9v-8.5c0-10.5,8.5-18.9,18.9-18.9h56.7
			c10.5,0,18.9,8.5,18.9,18.9v8.5C237.7,470.7,229.1,479.2,218.8,479.2z M162.1,436.5c-8.3,0-15.2,6.8-15.2,15.2v8.5
			c0,8.3,6.8,15.2,15.2,15.2h56.7c8.3,0,15.1-6.8,15.2-15.2v-8.5c0-8.3-6.8-15.2-15.2-15.2H162.1z"/>
	</g>
	<g>
		<path class="st4" d="M309.5,477.3h-56.7c-9.4,0-17.1-7.7-17.1-17.1v-8.5c0-9.4,7.7-17.1,17.1-17.1h56.7c9.4,0,17.1,7.7,17.1,17.1
			v8.5C326.6,469.7,318.9,477.3,309.5,477.3z"/>
		<path class="st2" d="M309.5,479.2h-56.7c-10.5,0-18.9-8.5-18.9-18.9v-8.5c0-10.5,8.5-18.9,18.9-18.9h56.7
			c10.5,0,18.9,8.5,18.9,18.9v8.5C328.5,470.7,320,479.2,309.5,479.2z M252.8,436.5c-8.3,0-15.2,6.8-15.2,15.2v8.5
			c0,8.3,6.8,15.2,15.2,15.2h56.7c8.3,0,15.2-6.8,15.2-15.2v-8.5c0-8.3-6.8-15.2-15.2-15.2H252.8z"/>
	</g>
	<g>
		<path class="st4" d="M400.3,477.3h-56.7c-9.4,0-17.1-7.7-17.1-17.1v-8.5c0-9.4,7.7-17.1,17.1-17.1h56.7c9.4,0,17.1,7.7,17.1,17.1
			v8.5C417.4,469.7,409.7,477.3,400.3,477.3z"/>
		<path class="st2" d="M400.3,479.2h-56.7c-10.5,0-18.9-8.5-18.9-18.9v-8.5c0-10.5,8.5-18.9,18.9-18.9h56.7
			c10.5,0,18.9,8.5,18.9,18.9v8.5C419.2,470.7,410.8,479.2,400.3,479.2z M343.6,436.5c-8.3,0-15.2,6.8-15.2,15.2v8.5
			c0,8.3,6.8,15.2,15.2,15.2h56.7c8.3,0,15.2-6.8,15.2-15.2v-8.5c0-8.3-6.8-15.2-15.2-15.2H343.6z"/>
	</g>
	<g>
		<path class="st4" d="M491.1,477.3h-56.7c-9.4,0-17.1-7.7-17.1-17.1v-8.5c0-9.4,7.7-17.1,17.1-17.1h56.7c9.4,0,17.1,7.7,17.1,17.1
			v8.5C508.1,469.7,500.5,477.3,491.1,477.3z"/>
		<path class="st2" d="M491.1,479.2h-56.7c-10.5,0-18.9-8.5-18.9-18.9v-8.5c0-10.5,8.5-18.9,18.9-18.9h56.7
			c10.5,0,18.9,8.5,18.9,18.9v8.5C510,470.7,501.5,479.2,491.1,479.2z M434.4,436.5c-8.3,0-15.2,6.8-15.2,15.2v8.5
			c0,8.3,6.8,15.2,15.2,15.2h56.7c8.3,0,15.1-6.8,15.2-15.2v-8.5c0-8.3-6.8-15.2-15.2-15.2H434.4z"/>
	</g>
</g>
<g>
	<g>
		<path class="st4" d="M54.3,307h28.4c9.4,0,17.1,7.7,17.1,17.1v8.5c0,9.4-7.7,17.1-17.1,17.1H54.3"/>
		<path class="st2" d="M82.6,351.6H54.3v-3.8h28.4c8.3,0,15.2-6.8,15.2-15.2v-8.5c0-8.3-6.8-15.2-15.2-15.2H54.3v-3.8h28.4
			c10.5,0,18.9,8.5,18.9,18.9v8.5C101.5,343.1,93.1,351.6,82.6,351.6z"/>
	</g>
</g>
<g>
	<g>
		<path class="st4" d="M173.4,349.6h-56.7c-9.4,0-17.1-7.7-17.1-17.1V324c0-9.4,7.7-17.1,17.1-17.1h56.7c9.4,0,17.1,7.7,17.1,17.1
			v8.5C190.4,342,182.8,349.6,173.4,349.6z"/>
		<path class="st2" d="M173.4,351.5h-56.7c-10.5,0-18.9-8.5-18.9-18.9V324c0-10.5,8.5-18.9,18.9-18.9h56.7
			c10.5,0,18.9,8.5,18.9,18.9v8.5C192.3,343,183.8,351.5,173.4,351.5z M116.7,308.8c-8.3,0-15.2,6.8-15.2,15.2v8.5
			c0,8.3,6.8,15.2,15.2,15.2h56.7c8.3,0,15.2-6.8,15.2-15.2V324c0-8.3-6.8-15.2-15.2-15.2H116.7z"/>
	</g>
</g>
<path class="st4" d="M264.1,349.6h-56.7c-9.4,0-17.1-7.7-17.1-17.1V324c0-9.4,7.7-17.1,17.1-17.1h56.7c9.4,0,17.1,7.7,17.1,17.1v8.5
	C281.2,342,273.5,349.6,264.1,349.6z"/>
<path class="st2" d="M264.1,351.5h-56.7c-10.5,0-18.9-8.5-18.9-18.9V324c0-10.5,8.5-18.9,18.9-18.9h56.7c10.5,0,18.9,8.5,18.9,18.9
	v8.5C283.1,343,274.6,351.5,264.1,351.5z M207.4,308.8c-8.3,0-15.2,6.8-15.2,15.2v8.5c0,8.3,6.8,15.2,15.2,15.2h56.7
	c8.3,0,15.2-6.8,15.2-15.2V324c0-8.3-6.8-15.2-15.2-15.2H207.4z"/>
<g>
	<g>
		<path class="st4" d="M354.9,349.6h-56.7c-9.4,0-17.1-7.7-17.1-17.1V324c0-9.4,7.7-17.1,17.1-17.1h56.7c9.4,0,17.1,7.7,17.1,17.1
			v8.5C371.9,342,364.4,349.6,354.9,349.6z"/>
		<path class="st2" d="M354.9,351.5h-56.7c-10.5,0-18.9-8.5-18.9-18.9V324c0-10.5,8.5-18.9,18.9-18.9h56.7
			c10.5,0,18.9,8.5,18.9,18.9v8.5C373.8,343,365.3,351.5,354.9,351.5z M298.2,308.8c-8.3,0-15.2,6.8-15.2,15.2v8.5
			c0,8.3,6.8,15.2,15.2,15.2h56.7c8.3,0,15.1-6.8,15.2-15.2V324c0-8.3-6.8-15.2-15.2-15.2H298.2z"/>
	</g>
</g>
<g>
	<g>
		<path class="st4" d="M445.7,349.6H389c-9.4,0-17.1-7.7-17.1-17.1V324c0-9.4,7.7-17.1,17.1-17.1h56.7c9.4,0,17.1,7.7,17.1,17.1v8.5
			C462.8,342,455.1,349.6,445.7,349.6z"/>
		<path class="st2" d="M445.7,351.5H389c-10.5,0-18.9-8.5-18.9-18.9V324c0-10.5,8.5-18.9,18.9-18.9h56.7c10.5,0,18.9,8.5,18.9,18.9
			v8.5C464.6,343,456.2,351.5,445.7,351.5z M389,308.8c-8.3,0-15.2,6.8-15.2,15.2v8.5c0,8.3,6.8,15.2,15.2,15.2h56.7
			c8.3,0,15.2-6.8,15.2-15.2V324c0-8.3-6.8-15.2-15.2-15.2H389z"/>
	</g>
</g>
<g>
	<g>
		<path class="st4" d="M508.1,349.6h-28.4c-9.4,0-17.1-7.7-17.1-17.1V324c0-9.4,7.7-17.1,17.1-17.1h29"/>
		<path class="st2" d="M508.1,351.5h-28.4c-10.5,0-18.9-8.5-18.9-18.9V324c0-10.5,8.5-18.9,18.9-18.9h29v3.8h-29
			c-8.3,0-15.2,6.8-15.2,15.2v8.5c0,8.3,6.8,15.2,15.2,15.2h28.4V351.5z"/>
	</g>
</g>
<g>
	<g>
		<path class="st4" d="M128,392.1H71.3c-9.4,0-17.1-7.7-17.1-17.1v-8.5c0-9.4,7.7-17.1,17.1-17.1H128c9.4,0,17.1,7.7,17.1,17.1v8.5
			C145,384.5,137.4,392.1,128,392.1z"/>
		<path class="st2" d="M128,394H71.3c-10.5,0-18.9-8.5-18.9-18.9v-8.5c0-10.5,8.5-18.9,18.9-18.9H128c10.5,0,18.9,8.5,18.9,18.9v8.5
			C146.9,385.5,138.4,394,128,394z M71.3,351.4c-8.3,0-15.2,6.8-15.2,15.2v8.5c0,8.3,6.8,15.2,15.2,15.2H128
			c8.3,0,15.1-6.8,15.2-15.1v-8.5c0-8.3-6.8-15.2-15.2-15.2H71.3V351.4z"/>
	</g>
	<g>
		<path class="st4" d="M218.8,392.1h-56.7c-9.4,0-17.1-7.7-17.1-17.1v-8.5c0-9.4,7.7-17.1,17.1-17.1h56.7c9.4,0,17.1,7.7,17.1,17.1
			v8.5C235.8,384.5,228.2,392.1,218.8,392.1z"/>
		<path class="st2" d="M218.8,394h-56.7c-10.5,0-18.9-8.5-18.9-18.9v-8.5c0-10.5,8.5-18.9,18.9-18.9h56.7c10.5,0,18.9,8.5,18.9,18.9
			v8.5C237.7,385.5,229.1,394,218.8,394z M162.1,351.4c-8.3,0-15.2,6.8-15.2,15.2v8.5c0,8.3,6.8,15.2,15.2,15.2h56.7
			c8.3,0,15.1-6.8,15.2-15.1v-8.5c0-8.3-6.8-15.2-15.2-15.2h-56.7V351.4z"/>
	</g>
	<g>
		<path class="st4" d="M309.5,392.1h-56.7c-9.4,0-17.1-7.7-17.1-17.1v-8.5c0-9.4,7.7-17.1,17.1-17.1h56.7c9.4,0,17.1,7.7,17.1,17.1
			v8.5C326.6,384.5,318.9,392.1,309.5,392.1z"/>
		<path class="st2" d="M309.5,394h-56.7c-10.5,0-18.9-8.5-18.9-18.9v-8.5c0-10.5,8.5-18.9,18.9-18.9h56.7c10.5,0,18.9,8.5,18.9,18.9
			v8.5C328.5,385.5,320,394,309.5,394z M252.8,351.4c-8.3,0-15.2,6.8-15.2,15.2v8.5c0,8.3,6.8,15.2,15.2,15.2h56.7
			c8.3,0,15.2-6.8,15.2-15.1v-8.5c0-8.3-6.8-15.2-15.2-15.2h-56.7V351.4z"/>
	</g>
	<g>
		<path class="st4" d="M400.3,392.1h-56.7c-9.4,0-17.1-7.7-17.1-17.1v-8.5c0-9.4,7.7-17.1,17.1-17.1h56.7c9.4,0,17.1,7.7,17.1,17.1
			v8.5C417.4,384.5,409.7,392.1,400.3,392.1z"/>
		<path class="st2" d="M400.3,394h-56.7c-10.5,0-18.9-8.5-18.9-18.9v-8.5c0-10.5,8.5-18.9,18.9-18.9h56.7c10.5,0,18.9,8.5,18.9,18.9
			v8.5C419.2,385.5,410.8,394,400.3,394z M343.6,351.4c-8.3,0-15.2,6.8-15.2,15.2v8.5c0,8.3,6.8,15.2,15.2,15.2h56.7
			c8.3,0,15.2-6.8,15.2-15.1v-8.5c0-8.3-6.8-15.2-15.2-15.2h-56.7V351.4z"/>
	</g>
	<g>
		<path class="st4" d="M491.1,392.1h-56.7c-9.4,0-17.1-7.7-17.1-17.1v-8.5c0-9.4,7.7-17.1,17.1-17.1h56.7c9.4,0,17.1,7.7,17.1,17.1
			v8.5C508.1,384.5,500.5,392.1,491.1,392.1z"/>
		<path class="st2" d="M491.1,394h-56.7c-10.5,0-18.9-8.5-18.9-18.9v-8.5c0-10.5,8.5-18.9,18.9-18.9h56.7c10.5,0,18.9,8.5,18.9,18.9
			v8.5C510,385.5,501.5,394,491.1,394z M434.4,351.4c-8.3,0-15.2,6.8-15.2,15.2v8.5c0,8.3,6.8,15.2,15.2,15.2h56.7
			c8.3,0,15.1-6.8,15.2-15.1v-8.5c0-8.3-6.8-15.2-15.2-15.2h-56.7V351.4z"/>
	</g>
</g>
<g>
	<g>
		<g>
			<path class="st4" d="M354.9,264.5h-56.7c-9.4,0-17.1-7.7-17.1-17.1v-8.5c0-9.4,7.7-17.1,17.1-17.1h56.7c9.4,0,17.1,7.7,17.1,17.1
				v8.5C371.9,256.8,364.4,264.5,354.9,264.5z"/>
			<path class="st2" d="M354.9,266.4h-56.7c-10.5,0-18.9-8.5-18.9-18.9V239c0-10.5,8.5-18.9,18.9-18.9h56.7
				c10.5,0,18.9,8.5,18.9,18.9v8.5C373.8,257.9,365.3,266.4,354.9,266.4z M298.2,223.7c-8.3,0-15.2,6.8-15.2,15.2v8.5
				c0,8.3,6.8,15.2,15.2,15.2h56.7c8.3,0,15.1-6.8,15.2-15.2v-8.5c0-8.3-6.8-15.2-15.2-15.2L298.2,223.7L298.2,223.7z"/>
		</g>
	</g>
	<g>
		<g>
			<path class="st4" d="M445.7,264.5H389c-9.4,0-17.1-7.7-17.1-17.1v-8.5c0-9.4,7.7-17.1,17.1-17.1h56.7c9.4,0,17.1,7.7,17.1,17.1
				v8.5C462.8,256.8,455.1,264.5,445.7,264.5z"/>
			<path class="st2" d="M445.7,266.4H389c-10.5,0-18.9-8.5-18.9-18.9V239c0-10.5,8.5-18.9,18.9-18.9h56.7c10.5,0,18.9,8.5,18.9,18.9
				v8.5C464.6,257.9,456.2,266.4,445.7,266.4z M389,223.7c-8.3,0-15.2,6.8-15.2,15.2v8.5c0,8.3,6.8,15.2,15.2,15.2h56.7
				c8.3,0,15.2-6.8,15.2-15.2v-8.5c0-8.3-6.8-15.2-15.2-15.2L389,223.7L389,223.7z"/>
		</g>
	</g>
	<g>
		<g>
			<path class="st4" d="M508.1,264.5h-28.4c-9.4,0-17.1-7.7-17.1-17.1v-8.5c0-9.4,7.7-17.1,17.1-17.1h29"/>
			<path class="st2" d="M508.1,266.4h-28.4c-10.5,0-18.9-8.5-18.9-18.9V239c0-10.5,8.5-18.9,18.9-18.9h29v3.8h-29
				c-8.3,0-15.2,6.8-15.2,15.2v8.5c0,8.3,6.8,15.2,15.2,15.2h28.4V266.4z"/>
		</g>
	</g>
</g>
<g>
	<g>
		<path class="st4" d="M309.5,307h-56.7c-9.4,0-17.1-7.7-17.1-17.1v-8.5c0-9.4,7.7-17.1,17.1-17.1h56.7c9.4,0,17.1,7.7,17.1,17.1
			v8.5C326.6,299.4,318.9,307,309.5,307z"/>
		<path class="st2" d="M309.5,308.9h-56.7c-10.5,0-18.9-8.5-18.9-18.9v-8.5c0-10.5,8.5-18.9,18.9-18.9h56.7
			c10.5,0,18.9,8.5,18.9,18.9v8.5C328.5,300.4,320,308.9,309.5,308.9z M252.8,266.3c-8.3,0-15.2,6.8-15.2,15.2v8.5
			c0,8.3,6.8,15.2,15.2,15.2h56.7c8.3,0,15.2-6.8,15.2-15.2v-8.5c0-8.3-6.8-15.2-15.2-15.2H252.8z"/>
	</g>
	<g>
		<path class="st4" d="M400.3,307h-56.7c-9.4,0-17.1-7.7-17.1-17.1v-8.5c0-9.4,7.7-17.1,17.1-17.1h56.7c9.4,0,17.1,7.7,17.1,17.1
			v8.5C417.4,299.4,409.7,307,400.3,307z"/>
		<path class="st2" d="M400.3,308.9h-56.7c-10.5,0-18.9-8.5-18.9-18.9v-8.5c0-10.5,8.5-18.9,18.9-18.9h56.7
			c10.5,0,18.9,8.5,18.9,18.9v8.5C419.2,300.4,410.8,308.9,400.3,308.9z M343.6,266.3c-8.3,0-15.2,6.8-15.2,15.2v8.5
			c0,8.3,6.8,15.2,15.2,15.2h56.7c8.3,0,15.2-6.8,15.2-15.2v-8.5c0-8.3-6.8-15.2-15.2-15.2H343.6z"/>
	</g>
	<g>
		<path class="st4" d="M491.1,307h-56.7c-9.4,0-17.1-7.7-17.1-17.1v-8.5c0-9.4,7.7-17.1,17.1-17.1h56.7c9.4,0,17.1,7.7,17.1,17.1
			v8.5C508.1,299.4,500.5,307,491.1,307z"/>
		<path class="st2" d="M491.1,308.9h-56.7c-10.5,0-18.9-8.5-18.9-18.9v-8.5c0-10.5,8.5-18.9,18.9-18.9h56.7
			c10.5,0,18.9,8.5,18.9,18.9v8.5C510,300.4,501.5,308.9,491.1,308.9z M434.4,266.3c-8.3,0-15.2,6.8-15.2,15.2v8.5
			c0,8.3,6.8,15.2,15.2,15.2h56.7c8.3,0,15.1-6.8,15.2-15.2v-8.5c0-8.3-6.8-15.2-15.2-15.2H434.4z"/>
	</g>
</g>
<g transform="translate(-0.0 -0.0)">
	<g id="Layer_2-i4">
		<g id="Layer_1-2-i4">
			<rect x="410.8" y="344.8" class="st1" width="8.9" height="155.9"/>
			<rect x="363.6" y="344.8" class="st1" width="8.9" height="155.9"/>
			<rect x="363.6" y="343.3" class="st1" width="8.9" height="10.7"/>
			<rect x="410.8" y="343.3" class="st1" width="8.9" height="10.7"/>
			<rect x="363.6" y="339.7" class="st1" width="334.9" height="5.1"/>
			<rect x="689.3" y="344.8" class="st1" width="8.9" height="155.9"/>
			<rect x="642.1" y="344.8" class="st1" width="8.9" height="155.9"/>
			<rect x="642.1" y="343.3" class="st1" width="8.9" height="10.7"/>
			<rect x="689.3" y="343.3" class="st1" width="8.9" height="10.7"/>
		</g>
	</g>
</g>
<g>
	<g id="flamenco-119" transform="translate(2.5 2.5)">
		<g id="Group_17_">
			<path id="New-shape-3" class="st5" d="M540.5,303.4l2.1-0.1l4.7,4.4c0,0,1.7,10.7,3.9,20c0.8,3.3,2.6,4.4,4.1,4.9
				c2.6,1,5.3-0.7,5.9-1.4c1-1.1-0.8-6.7-1.2-10.6s-0.1-3.7-0.1-3.7s7.3,4,16.1,4.5s19.1-2.4,19.1-2.4s-0.4,4.7-2.1,10.3
				c-0.6,1.9,0.6,3.3,1.6,3.7c1.2,0.5,3.9,0.6,5.3-0.3c2.2-1.5,6.2-19.1,6.2-19.1l5.3-5.2c0,0-0.8,2.9-1.7,8.5
				c-0.6,3.9-1.8,6.8-2.8,9.6c-0.4,1.3-1.6,4.1-1.3,5.3c0.3,1,3,1.4,3,1.4l2.1,0.1c0.9-0.1,2.8-0.2,3.7-1.2
				c1.1-1.2-0.5,2.2,4.9-11.6c5.3-13.8,4.2-30.3,4.2-30.3s2.4-0.5,8.5-3.4c20.6-9.7,15.8-20.5,17.5-32.3c0.7-4.8,4.1-8.4,9.9-9.9
				c5.8-1.5,13.3-1.5,15.5-2.7c6.2-3.1,6.7-10.8,2.8-14.8c-1.3-1.4-2.4-2.8-9-2.9c-4.1-0.1-8,1.1-9.3,1.6
				c-24.3,10.2-22.5,39.7-22.7,43.1s-1.6,6.6-5.7,9.5c-2.1,1.5-9.3,2.7-9.3,2.7s-0.6-5.2-3.9-8.4c-3.3-3.2-7.4-4.7-11.9-4.8
				c-4.6,0-3.3,0.5-11.7,1.9c-20.8,3.5-16.7-12.6-16.7-12.6l1.9-3.7l4.2-8.5c0,0,5.1-5.3,8.1-10.2s3.9-8.8,3.9-8.8s-3.4-0.6-7.7-0.7
				c-4.3-0.1-9.5,1.3-9.5,1.3s-4.4-5.5-10.2-7.8c-5.8-2.2-13-1.2-13-1.2s-2.3-4.2-5.1-7.1c-2.8-2.9-5.9-4.4-5.9-4.4
				s-2.1,3.2-3.1,8.5s-0.9,7.5-1,12.7"/>
			<path id="New-shape-2" class="st5" d="M545.1,220.7c0,0-13.1,13.7-16.6,36.5c-1.5,9.5-0.9,22.2,0.2,35.6
				c1.1,13.4,5.6,27.5,6.7,31.1c1.2,3.7,3,9,5.8,8.9c2.8,0,6.1,0.3,6.7-2.3c0.6-2.7-2-8.9-3.6-14.7l-2.9-16.4l-1.9-69.2"/>
			<g id="Group" transform="translate(0.84910583 73.246765)">
				<path id="Shape" class="st3" d="M579.7,248.3c-1.4,0.1-2.6,0.2-3.9,0.1c-1.4-0.1-2.9-0.3-4.2-0.3c-0.5,0-1-0.2-1.5-0.3
					c-0.4-0.1-0.4-0.3-0.8-0.3c-0.4-0.1-0.4,0.2-0.9,0.1c-0.5-0.1-1.1-0.6-1.7-0.8c-1-0.4-1.9-0.3-2.9-0.8c-2.1-1.1-3.9-1.5-6-2.6
					c-0.5-0.2-0.8-0.6-1.3-0.8c-0.6-0.2-1.3-0.6-1.8-1c-0.7-0.5-1.3-0.9-1.9-1.4c-0.5-0.3-0.8-0.8-1.3-1c-1.2-0.6-1.8-1.9-3-2.6
					c-0.2-0.1-0.7-0.2-0.9-0.3s0-0.6-0.1-0.8c-0.2-0.1-0.6-0.2-0.9-0.4c-0.3-0.2-0.9-0.8-1.1-1c-0.3-0.3-0.6-0.9-0.9-1.2
					c-0.3-0.3-0.8-0.6-1.1-1c-0.2-0.2-0.4-0.8-0.6-1.1c-0.1-0.1-0.4-0.2-0.5-0.3c-0.5-0.6-0.8-1-1.4-1.5c-0.4-0.3-0.9-1-1.1-1.4
					c-0.2-0.4-0.7-0.7-1-1.1c-0.1-0.2-0.1-0.5-0.3-0.8c-0.1,0-0.1-0.1-0.2-0.1c-0.3,0-0.5-0.2-0.3-0.5c-0.4-0.6-0.7-1.7-1.3-2.3
					c-0.1-0.1-0.5-0.2-0.6-0.3c-0.3-0.5-0.2-0.8-0.4-1.2c-0.1-0.2-0.5-0.1-0.6-0.3c-0.2-0.3-0.1-0.9-0.3-1.2
					c-0.3-0.7-1.1-1.2-1.4-1.9c-0.1-0.2,0-0.4-0.1-0.6c-0.1-0.4-0.3-0.6-0.5-0.9c-1.1-2.5-2.1-4.7-3.2-7.3c-0.4-1.1-0.6-2.4-1-3.5
					c-0.6-1.9-0.9-3.9-1.2-5.8c-0.1-0.8,0-1.6-0.2-2.4c-0.1-0.6-0.3-0.5-0.3-1.2c0-0.3,0.1-0.7,0.1-0.9c-0.1-0.5-0.2-0.9-0.3-1.5
					s0.1-1.2,0.1-1.8c0-1.2,0-2.4,0.1-3.6c0.1-1,0.3-1.9,0.3-2.9c0-0.2-0.3-0.4-0.3-0.6c0-0.7,0.4-1.1,0.6-1.7
					c0.1-0.3,0.2-1,0.2-1.2c0,0.2-0.1-1.2-0.2-1c0,0.1,0.2-0.8,0.2-0.5c0,0.1,0.1-0.9,0.1-0.9c0.1-0.2,0.3-0.3,0.4-0.5
					c0.1-0.6-0.1-0.8-0.1-1.2c0.1-1,0.4-2.1,0.7-3c0.2-0.6,0.5-1.3,0.7-1.9c0.2-0.5,0.3-1,0.4-1.4c0-0.1,0.3-0.6,0.3-0.7
					c0.1-0.2,0.1-0.5,0.2-0.7c0.2-0.5,0.6-0.9,0.8-1.5c0.3-1.1,0.6-2,1-3.1c0.6-1.3,1.2-2.8,2-3.9c0.5-0.6,0.5-1.2,0.9-1.9
					c0.1-0.2,0.5-0.3,0.6-0.5c0.2-0.3,0.1-0.6,0.3-1c0.6-1.2,1.6-2,2.1-3.2c0.2-0.4,0.6-1.3,1-1.6c0.3-0.2,0.9-0.4,1.3-0.6
					c0.3-0.1,0.8-0.3,1.2-0.3c0.4-0.1,0.9,0.1,1.2,0.1c0.3-0.1,0.8-0.3,1.1-0.4c0.5-0.1,0.8-0.1,1.2-0.1c0.6-0.1,1.1-0.6,1.7-0.8
					c0.8-0.2,1.6-0.2,2.2-0.3c0.3-0.1,0.4-0.3,0.7-0.3c0.3-0.1,0.5,0.1,0.8,0.1c0.5-0.1,0.4-0.3,1-0.4c0.3-0.1,0.6,0.1,0.9,0
					c1.6-0.2,3.3-0.5,5.1-0.7c0.8-0.1,1.4-0.1,2.1,0.1c0.5,0.1,1.9,0.4,2.2,0.9c0.2,0.3,0.1,0.9,0.1,1.4c0.1,0.9,0.1,1.4,0,2.2
					c-0.1,0.7,0.2,1.4,0.1,2.2c-0.1,0.4-0.2,0.4-0.2,0.9c0,0.4,0.1,0.8,0.1,1.2c0,0.3-0.3,1.2-0.3,1.5c0.1,0.6,0.7,1.5,1,1.9
					c0.3,0.5,0.8,1.1,1.2,1.7c0.1,0.2,0,0.5,0.1,0.6c0.3,0.5,0.9,0.8,1.3,1.3c0.4,0.5,0.5,1,1,1.5c0.4,0.3,0.9,0.5,1.2,0.9
					c0.4,0.6,0.5,1.2,1.2,1.8c0.3,0.2,0.6,0.3,0.8,0.5c0.3,0.3,0.4,0.5,0.7,0.8c0.9,1,1.9,2.2,3.1,3c0.6,0.5,1.2,0.9,1.7,1.5
					c0.1,0.1,0.4,0.4,0.5,0.5c0.2,0.1,0.6,0.3,0.8,0.4c0.2,0.2,0.3,0.5,0.5,0.8c0.1,0.1,0.4,0.2,0.5,0.3c0.3,0.2,0.3,0.6,0.5,0.8
					c0.1,0.1,0.5,0.1,0.6,0.2c1.1,1.1,0.2,1.9-0.3,3c-0.2,0.5-0.9,1-1,1.5c-0.1,0.2,0.1,0.7,0,1s-0.3,0.5-0.4,0.8
					c-0.4,1.2-0.5,2.8-0.2,4.2c0,0.2,0.3,0.3,0.3,0.5c-0.1,0.1-0.1,0.2-0.1,0.3c-0.2,0.3-0.2,0.4,0.1,0.6c0.1,0.4,0.4,1.3,0.7,1.7
					c0.5,0.6,0.7,1.2,1.2,1.7s1.5,0.9,2.1,1.3c1.1,0.7,2.3,1.2,3.6,1.5c0.5,0.1,0.9,0.3,1.5,0.4c0.2,0.1,0.5-0.2,0.6-0.2
					c0.4,0.1,0.7,0.5,1.2,0.5c0.7,0.1,1.4-0.3,2.1-0.2c0.8,0.1,0.8,0,1.5-0.2c0.3-0.1,0.7-0.1,0.9-0.1c-0.1,0,0.6-0.3,0.6-0.3
					c0.6-0.3,1.4-0.3,2.1-0.5c0.3-0.1,0.5-0.4,0.8-0.5c0.2-0.1,0.8-0.1,0.9-0.2c0.6-0.1,1.5-0.4,2-0.5c0.6-0.1,1.4-0.1,2.1-0.2
					c0.2,0,1.1-0.5,1.2-0.5c0.3,0,0.6,0.3,0.9,0.3c1.4,0.2,2.7-0.3,4,0.1c0.3,0.1,0.4,0.3,0.7,0.4c0.1,0,0.6,0,0.8,0s0.6,0,0.8,0.1
					c0.2-0.1,0.3,0,0.4,0.2c0.1,0.3,0.3,0.3,0.6,0.2c0.1,0.1,0.5,0.1,0.6,0.1c0.3,0.1,0.5,0.4,0.8,0.5c0.2,0.1,0.5-0.1,0.6,0
					c0.2,0.1,0.7,0.6,1,0.8c0.6,0.4,1.3,0.5,2,0.8s0.9,0.8,1.5,1.3c1,1,2,1.7,2.9,2.7c0.5,0.6,0.6,1,0.9,1.7
					c0.3,0.6,0.6,1.1,0.9,1.7c0.5,0.8,0.3,1.4,0.6,2.3c0.2,0.5,0.6,1,0.8,1.6c0.1,0.3-0.1,0.6,0,0.9c0.1,0.3,0.3,0.5,0.3,0.8
					c0.1,0.7-0.3,1.6-0.2,2.4c0.1,0.4,0.3,0.7,0.4,1c0.1,0.3-0.1,0.4-0.2,0.7c0,0.7-0.1,1.4-0.1,2.1c-0.1,0.9-0.1,1.5-0.6,2.3
					c-0.2,0.3-0.4,0.6-0.5,1.1c-0.1,0.2-0.2,0.4,0,0.6c0.2,0.3,0.1,0.5-0.2,0.6c0.1-0.3-0.3,0.6-0.2,0.6c-0.2,0.4-0.2,1-0.4,1.5
					s-0.6,0.9-0.8,1.2c-0.3,0.4-0.3,0.9-0.6,1.4c-0.3,0.6-1,1-1.4,1.6c-0.6,1-1,2.1-2,3c-1.1,1-1.8,1.9-2.8,2.9
					c-0.1,0.1-0.5,0.3-0.6,0.4c-0.1,0.1-0.4,0.4-0.5,0.5c-0.3,0.3-0.7,0.6-1,0.9c-0.1,0.1-0.1,0.5-0.3,0.6c-0.1,0-0.2,0-0.4,0
					c-0.3-0.1-0.5,0-0.5,0.3c0.1-0.1-0.3,0.4-0.4,0.5c-0.6,0.5-1.4,0.9-1.9,1.4c-0.4,0.4-0.7,0.6-1.2,0.9c-0.4,0.3-0.7,0.3-1,0.6
					c-0.2,0.1-0.2,0.4-0.4,0.5c-0.6,0.3-0.9,0.2-1.4,0.6c-0.8,0.6-1.6,0.6-2.4,1.1c-0.5,0.3-0.9,0.8-1.4,1.1
					c-0.7,0.4-1.5,0.5-2.3,0.8c-1.2,0.4-2.2,1.3-3.6,1.5c-1.3,0.2-2.5,0.8-3.7,1.3c-0.6,0.3-1.1,0.3-1.7,0.4
					c-0.7,0.1-1.2,0.2-1.9,0.4c-1,0.3-2,0.2-3.1,0.3c-0.7,0.1-1.5,0.3-2.2,0.4c-0.1,0-0.7,0.1-0.8,0.1c-0.1,0.1-0.2,0.1-0.3,0.2
					C580.1,248.5,579.9,248.4,579.7,248.3L579.7,248.3z"/>
			</g>
			<g id="Group_1_" transform="translate(315.65802 78.13864)">
				<path id="Shape_1_" class="st3" d="M301.1,202.2c0.8,0.1,1.8,0.5,2.6,0.4c0.3,0,0.6-0.2,0.9-0.2c0.4,0,0.8,0.3,1.2,0.3
					c0.5,0,0.9-0.3,1.3-0.3c0.6,0,1,0.2,1.6,0c0.4-0.1,0.6-0.3,1-0.3c0.6-0.1,1.1-0.3,1.7-0.5c0.5-0.2,0.9-0.1,1.3-0.2
					c0.5-0.1,0.6-0.3,1-0.5s0.8-0.2,1.2-0.4c0.4-0.3,0.6-0.5,1.1-0.8c0.7-0.5,1.2-0.9,1.9-1.7c0.8-0.9,1.1-1.6,1.7-2.6
					c0.2-0.3,0.3-0.4,0.5-0.8c0.1-0.3,0.2-0.9,0.3-1.3c0.2-0.7,0.3-1.6,0.4-2.2c0-0.1,0-0.4,0-0.5c0-0.2,0.3-0.3,0.3-0.6
					c0.1-0.5-0.3-1.1-0.2-1.7c0.2-1.2,0.4-2.3,0.4-3.6c0-0.5-0.1-0.8-0.1-1.3c0.1-0.5,0-0.9,0-1.3c0-0.9,0.3-1.9,0.5-2.9
					c0.1-0.8,0-1.6,0.3-2.4c0.1-0.3,0.2-0.7,0.3-1c0.1-0.1-0.2-0.3-0.1-0.5c0.1-0.3,0.4-0.5,0.5-0.8c0.2-0.7,0.3-1.4,0.4-2
					c0.2-1,0.6-1.8,0.9-2.7c0.1-0.4,0.1-0.6,0.3-1c0.2-0.4,0.4-0.8,0.6-1.2c0.3-1,0.7-2,1.2-2.9c0.2-0.3,0.6-0.7,0.7-1
					c0.1-0.2-0.2-0.5-0.1-0.7c0.1-0.1,0.3-0.2,0.4-0.3c0.4-1.1,1.2-1.7,1.7-2.6c0.4-0.6,0.6-1.5,1.1-2.1c0.1-0.1,0.4-0.1,0.5-0.2
					l0.2-0.4c0.3-0.3,0.7-0.7,1-1.1c0.5-0.6,1.2-1.2,1.6-1.7c0.3-0.4,0.3-0.9,0.9-1.3c0.5-0.4,1-0.6,1.5-1c0.3-0.2,1-0.4,1.2-0.6
					c0.2-0.2,0.2-0.6,0.4-0.8c0.3-0.3,1-0.2,1.5-0.5s0.9-0.8,1.5-1c1.8-0.7,3.2-1.5,5.2-2.1c1-0.3,1.9-0.3,3-0.5
					c0.4-0.1,0.6-0.3,1-0.3c0.5-0.1,1,0.1,1.5,0c0.9-0.2,1.4-0.3,2.2-0.2c0.5,0,1.2-0.2,1.7-0.1c0.4,0.1,0.4,0.2,0.9,0.3
					c0.2,0.1,0.8,0,1,0.1s0.5,0.2,0.7,0.3c0.2,0,0.5-0.3,0.7-0.2c0.9,0.2,1.9,1,2.6,1.5s1.2,0.9,1.8,1.6c0.1,0.1,0.3,0.1,0.4,0.3
					s0,0.4,0.1,0.6c0.2,0.5,0.6,1,0.8,1.5c0.9,1.9,0.9,4.7,0.3,6.7c-0.2,0.8-0.8,1.7-1.2,2.6c-0.4,0.8-0.9,1.1-1.6,1.6
					c-0.2,0.1-0.1,0.4-0.3,0.6c-0.1,0.1-0.3,0.1-0.5,0.1c-0.5,0.3-1.2,0.6-1.8,0.8c-0.4,0.1-0.6,0.1-1,0.2c-0.2,0.1-0.6,0.1-0.9,0.2
					c0.1-0.1-0.8,0.5-0.6,0.4c-0.3,0.1-0.5-0.1-0.8-0.1c-0.6,0-0.9,0.3-1.5,0.4c-0.9,0.2-1.8,0.1-2.7,0.1c-0.6,0.1-0.9,0.2-1.5,0.3
					c-0.5,0.1-1.1-0.1-1.5-0.1c-0.2,0.1-0.6,0.4-0.8,0.5c-0.3,0.1-0.9,0.2-1.2,0.2c-0.4,0-0.7-0.2-1.1-0.1c-0.4,0.1-0.8,0.4-1.2,0.5
					c-1.1,0.3-1.9,0.5-2.9,1.1c-0.8,0.5-1.6,0.7-2.3,1.2c-0.3,0.2-0.6,0.4-0.9,0.6c-0.1,0.1-0.2,0.3-0.3,0.4
					c0.1-0.1-0.6,0.5-0.6,0.5c-0.4,0.5-0.8,1.1-1.2,1.7c-0.1,0.2-0.3,0.5-0.4,0.8c-0.3,0.4-0.3,0.7-0.5,1.1
					c-0.8,1.6-0.9,3.8-1.1,5.6c-0.1,0.7,0.2,1.5,0.1,2.2c-0.1,0.4-0.3,0.7-0.3,1c-0.1,0.7,0.2,1.5,0.1,2.1l0.1,0.5
					c0,0.1-0.3,0.2-0.3,0.3c0,0.3,0.2,0.7,0.2,1c0,0.4,0,1.1-0.1,1.5c-0.1,0.3-0.1,0.9-0.2,1.2c-0.1,0.8-0.5,1.5-0.7,2.3
					c-0.2,0.9-0.5,1.7-0.8,2.7c-0.4,1.6-1.2,2.7-2,3.9c-0.1,0.1,0.1,0.4,0,0.5c-0.1,0.2-0.5,0.1-0.7,0.3c-0.3,0.3-0.6,0.8-0.9,1.2
					c-0.4,0.4-0.4,1-0.7,1.3c-0.3,0.4-0.8,0.6-1.1,0.8c-0.1,0.1-0.1,0.4-0.3,0.6c-0.1,0.1-0.4,0-0.5,0.1c-0.5,0.3-0.8,0.8-1.2,1.1
					c-0.8,0.8-1.5,1-2.3,1.6c-0.7,0.4-1.4,0.9-2.1,1.3c-0.4,0.2-0.8,0.5-1.1,0.7c-0.2,0.1-0.4,0-0.6,0.1s-0.2,0.4-0.4,0.5
					c-0.8,0.4-1.7,0.5-2.5,1c-0.9,0.5-1.7,0.4-2.6,0.7c-0.3,0.1-0.6,0.4-0.9,0.5c-0.6,0.2-1.2,0.4-1.9,0.6c-1.3,0.3-2.5,0.5-3.8,0.7
					c-1,0.2-2,0.2-3,0.4c-0.6,0.1-1.1,0-1.7,0.1c-0.2,0-0.4-0.1-0.6-0.1s-0.3,0.3-0.6,0.3c-0.7,0-1.5-0.2-2.1-0.2
					c-1,0-1.9-0.2-2.8-0.2c-0.9-0.1-1.9-0.4-3-0.6c-0.6-0.1-1,0.1-1.5,0.1c-0.7-0.1-1.1-0.6-1.7-0.8c-0.9-0.3-1.9-0.3-2.5-0.4
					c-0.1,0-0.4-0.4-0.5-0.4c-0.1-0.1-0.3,0.1-0.5,0c-0.3-0.2-0.6-0.3-0.9-0.4c0.3-0.1,0.5-0.5,0.8-0.7c0.5-0.3,1.1-0.5,1.7-0.7
					c0.7-0.3,1.5-0.5,2.3-0.8c0.1-0.1,0.7-0.4,0.8-0.5c0.1-0.1,0.6-0.5,0.7-0.6s0.8-0.2,0.9-0.2c0.3-0.1,0.8-0.3,1.1-0.4
					c1.2-0.4,2.1-1.2,3.2-1.6C297.9,203.7,299.6,202.9,301.1,202.2L301.1,202.2z"/>
			</g>
			<g id="Group_2_" transform="translate(35.613464 45.900665)">
				<path id="Shape_2_" class="st3" d="M547.8,194.9c0,0.7-0.1,1.1-0.2,1.8c-0.1,0.6,0,1.1,0,1.7c0,0.3-0.1,1-0.2,1.3
					c-0.1,0.3-0.3,0.5-0.4,0.8c-0.2,0.5,0,1-0.2,1.5c-0.1,0.3-0.3,0.8-0.4,1.1c-0.2,0.4-0.4,0.6-0.6,1c-0.1,0.2,0.1,0.5,0.1,0.7
					c-0.1,0.2-0.4,0.2-0.6,0.4c-0.2,0.4-0.3,0.7-0.4,1.1c-0.3,0.7-0.6,0.9-1,1.5c-0.9,1-1.4,2.2-2.4,3c-0.5,0.4-0.4,0.9-0.8,1.3
					c-0.5,0.6-1.1,0.6-1.7,1.1c-0.2,0.2-0.3,0.6-0.6,0.9c-0.1,0.1-0.9,0.6-1,0.6c-0.3,0.1-0.6,0-0.9,0.2c-0.3,0.2-0.4,0.5-0.6,0.7
					c-0.6,0.6-1.3,0.4-2,0.7c-0.6,0.3-1.2,0.9-1.8,1.2c-1,0.4-2.5,0.6-3.5,0.8c-1.2,0.2-2.3,0.3-3.6,0.4c-0.8,0.1-1.6,0.3-2.4,0.2
					c-0.8-0.1-1.5-0.4-2.2-0.5c-0.6-0.1-1,0.2-1.7-0.1c-0.2-0.1-0.4-0.4-0.7-0.4c-0.3-0.1-0.8,0-1.1,0c-1-0.1-1.9-0.8-2.7-1.3
					c-0.7-0.4-1.3-0.3-2-0.6c-0.2-0.1-0.3-0.3-0.4-0.4c-0.4-0.2-0.8-0.3-1.1-0.5c-0.7-0.4-1-1.1-1.8-1.6c-0.5-0.3-0.9-0.7-1.4-1.1
					c-0.9-0.9-1.7-1.7-2.6-2.7c-1.6-1.8-2.6-3.8-3.4-6.1c-0.3-0.7-0.6-1.1-0.8-1.9c-0.1-0.9-0.3-1.8-0.5-2.6
					c-0.3-1.4-0.6-2.8-0.4-4.4c0.1-1,0-1.8,0.2-2.8c0.1-0.6,0-1.1,0.1-1.7c0.1-0.3,0.3-0.6,0.4-0.8c0.2-0.6-0.1-1.1,0.1-1.5
					c0.1-0.5,0.6-1,0.8-1.6c0.2-0.8,0.3-1,0.7-1.6c0.6-0.9,1.1-1.9,1.6-2.8c0.6-1,1.2-1.8,1.9-2.6c0.5-0.5,0.8-0.8,1.3-1.2
					c0.1-0.1,0.1-0.5,0.3-0.6c0.4-0.3,0.9-0.3,1.2-0.6c0.4-0.3,0.8-0.8,1.2-1.1c0.5-0.3,0.8-0.4,1.3-0.8c0.1-0.1,0.5-0.4,0.5-0.4
					c-0.2,0.1,0.6-0.3,0.5-0.3c0.1,0,0.2,0,0.3,0c0.1-0.2,0.3-0.3,0.4-0.5c0.5-0.3,0.9-0.4,1.4-0.6c2.7-0.8,5.1-2,7.7-2
					c0.4,0,0.7,0.2,1,0.2s0.5-0.3,0.8-0.3c0.7-0.1,0.5,0.1,0.9,0.1c0.2,0,0.6-0.1,0.8,0c1,0.1,2,0.4,3.2,0.6
					c1.3,0.2,2.5,0.6,3.7,1.1c1,0.4,2.3,0.9,3.4,1.5c0.6,0.4,1.3,0.9,2,1.3c0.2,0.1,0.2,0.4,0.3,0.5c0.2,0.1,0.6,0.2,0.9,0.3
					c0.6,0.4,1.2,1.2,1.7,1.7c0.3,0.5,0.8,0.9,1.2,1.3c1,1.1,1.5,1.9,2.2,3.2c0.8,1.4,1.7,2.4,2.1,3.9c0.2,0.7,0.3,1.7,0.5,2.3
					c0,0.1,0.3,0.5,0.3,0.5c0.1,0.1,0.2,0.1,0.3,0.2c-0.1,0.2-0.1,0.4-0.2,0.6C547.3,191.9,547.8,193.4,547.8,194.9L547.8,194.9z"/>
			</g>
			<g id="Group_3_" transform="translate(52.793793 0.37280273)">
				<path id="Shape_3_" class="st3" d="M488.7,235.3c-0.3-1.1-0.8-2.2-0.8-3.3c0-0.5-0.3-0.9-0.4-1.5c-0.2-0.8-0.2-1.3-0.3-2
					c0.1-0.1,0.1-0.2,0.2-0.3c-0.1-0.2-0.3-0.4-0.4-0.6c0-0.3-0.1-0.9-0.1-1.2c0-0.5,0.3-0.6,0.3-1.2c0-0.2-0.4-0.4-0.4-0.6
					c0-0.2,0.2-0.9,0.2-1.2c0-0.4,0-0.8,0-1.2c-0.1-0.6-0.2-0.5-0.1-1.2c0.1-0.4,0.3-0.7,0.3-1.2c0.1-0.8-0.1-1.6,0.1-2.4
					c0.1-0.6,0.3-1.1,0.4-1.8c0.1-0.3-0.1-0.5-0.1-0.8c0.1-0.3,0.3-0.4,0.4-0.7s-0.1-0.5,0-0.8c0.1-0.4,0.4-0.8,0.5-1.3
					c0.3-1.3,0.7-2.8,1.2-4.1c0.7-1.6,1-3.1,2.6-1.8c1,0.8,2.1,1,3,2c0.4,0.5,0.7,0.9,1.3,1.3c0.7,0.4,0.8,0.7,1.2,1.3
					c0.6,1,1.7,1.4,2.4,2.3c0.3,0.4,0.2,0.6,0.6,1c0.1,0.2,0.5,0.4,0.6,0.6c0.4,0.5,0.8,1.1,1.2,1.7c0.6,0.9,0.9,1.8,1.6,2.8
					c0.3,0.5,0.6,1.3,0.6,1.9c0,0.5,0.3,0.1,0.1,0.6c-0.1,0.2-0.6,0.3-0.8,0.5c-0.5,0.4-0.6,0.6-1.1,0.9c-0.6,0.3-0.5,0.8-1,1.2
					c-0.5,0.5-0.8,0.3-1.3,0.7c-0.5,0.3-0.6,0.9-1.2,1.3c-0.5,0.4-1.1,0.5-1.6,0.8c-0.4,0.3-0.6,0.9-1.1,1.3c-0.5,0.3-1,0.3-1.5,0.7
					s-0.7,1.1-1.1,1.4c-0.9,0.8-2,1.4-2.9,2.1c-0.5,0.4-0.9,0.8-1.4,1.1c-0.2,0.1-0.3,0.2-0.5,0.4
					C489.5,234.6,488.9,235.2,488.7,235.3L488.7,235.3z"/>
			</g>
			<g id="Group_4_" transform="translate(199.17899 81.12564)">
				<path id="Shape_4_" class="st3" d="M377.1,168.9c1-0.6,2.6-1.2,3.6-2c0.3-0.3,0.3-0.7,0.8-1c0.1-0.1,0.5-0.1,0.6-0.1
					c0.3-0.2,0.3-0.5,0.6-0.6c0.3-0.2,0.6-0.2,0.9-0.3c0.7-0.5,1.3-1.3,1.9-1.9c0.4-0.4,0.8-0.6,1.2-1c0.6-0.5,0.8-0.8,1.2-1.3
					c0.2-0.2,0.5-0.4,0.7-0.6c0.2-0.2,0.3-0.5,0.6-0.7c0.5-0.5,1-1,1.4-1.6c0.3-0.4,0.6-1.1,0.9-1.5c0.1-0.2,0.5-0.3,0.6-0.5
					s0.1-0.5,0.2-0.7c0.1-0.1,0.2-0.1,0.3-0.1c0.3,0,0.4-0.2,0.3-0.5c0.2-0.3,0.4-0.7,0.6-1c0.4-0.6,0.5-1.5,1-2.1
					c0.3-0.4,0.7-1,0.9-1.5c0.3-0.6,0.4-1.2,0.7-1.9c0.3-0.9,0.9-1.3,0.9-2.1c0-0.9,0.3-0.4-0.4-0.8c-0.5-0.3-1,0-1.5-0.1
					c-0.1,0-0.5-0.1-0.5-0.1c0.3,0-0.9-0.3-0.7-0.3c-0.4-0.1-1.6-0.4-2.1-0.4s-0.6,0.3-1.2,0.2c-0.5-0.1-0.4-0.3-0.9-0.3
					c-1.3,0-2.4,0.1-3.7,0.1c-0.1,0-0.7,0-0.8,0.1c-0.2,0.1-0.5,0.4-0.7,0.4c-0.6,0.1-0.8-0.3-1.2-0.3c-0.2,0-0.9,0.4-1.1,0.5
					c-0.5,0.1-0.8-0.1-1.2,0c-0.7,0.1-0.6,0.4-1.1,0.6c-0.1,0.1-0.4-0.2-0.6-0.1c-0.6,0.1-1.2,0.3-1.7,0.6c-0.6,0.3-1,0.4-1.7,0.5
					c-0.4,0.1-0.8,0.2-1,0.5c-0.7,0.7-0.3,0.1-0.3,0.8c0,0.3,0.1,0.6,0.1,0.9c0,0.2-0.1,0.6-0.1,0.8c0.1,0.5,0.3,1.1,0.4,1.6
					c0.1,1.2,0.2,2.1,0.4,3.3c0.1,0.6,0,1.2,0.1,1.8c0.1,0.7,0.3,1.3,0.3,2.1c0.1,1.2,0.2,2.4,0.3,3.6c0.1,0.6,0.2,1.3,0.2,1.8
					c0.1,0.6,0.2,1.1,0.4,1.8c0.1,0.6-0.2,1.2-0.1,1.8C376.7,167.4,376.9,168.5,377.1,168.9L377.1,168.9z"/>
			</g>
			<g id="Group_12_" transform="translate(59.000336 87.26672)">
				<g id="Group_5_">
					<path id="Shape_5_" class="st4" d="M497.9,147.3c0,0.2-0.3,0.6-0.3,0.8c-0.1,0.3-0.1,0.8-0.3,1.1c-0.2,0.5-0.4,0.6-0.7,0.9
						c-0.3,0.3-0.4,0.9-0.8,1.2c-0.4,0.4-1.1,0.6-1.5,0.9c-0.2,0.1-0.8,0.7-0.9,0.8s-0.4-0.1-0.5-0.1c-0.3,0.1-0.6,0.2-1,0.3
						c-0.5,0.2-1.3,0.5-1.8,0.5c-0.3,0-0.5-0.2-0.9-0.3c-0.5-0.1-0.9-0.1-1.3-0.2c-0.5-0.1-1.7-0.6-2.3-0.9
						c-0.8-0.5-1.2-1.5-1.7-2.1s-0.8-0.8-1.1-1.4c-0.1-0.2-0.6-0.8-0.6-1.1c-0.1-0.4,0.2-1,0.2-1.4c-0.1-1.1-0.3-1.4,0.2-2.4
						c0.3-0.7,0.8-1.2,1.2-1.9c0.5-0.8,0.6-1.1,1.5-1.6c0.3-0.2,0.4-0.3,0.8-0.4c0.4-0.1,0.9-0.1,1.3-0.3c0.5-0.2,0.7-0.6,1.4-0.6
						c0.3,0,0.7,0.1,1.1,0.1c0.3,0.1,0.5,0.1,0.9,0.1c0.5,0.1,0.8,0.5,1.2,0.6c0.5,0.1,0.8,0.1,1.3,0.3c0.1,0.1,0.1,0.4,0.3,0.5
						c0.2,0.1,0.5,0,0.6,0.1c0.7,0.5,1.2,1.1,1.7,1.6c0.3,0.3,0.9,0.6,1.1,1c0.2,0.3,0.2,0.7,0.3,1c0,0.1,0.3,0.2,0.4,0.3
						c0.1,0.2-0.2,0.5-0.2,0.7c0.1,0.1,0.3,0.2,0.4,0.4C497.9,146.4,497.9,146.8,497.9,147.3L497.9,147.3z"/>
				</g>
				<g id="Group_6_" transform="translate(20.01767 23.267166)">
					<path id="Shape_6_" class="st6" d="M470.4,123.2c0,0.2-0.7,0.9-0.8,1c-0.6,0.5-0.9,0.4-1.5,0.2c-0.6-0.1-1.6-0.9-1.3-1.7
						c0.1-0.5,1.3-1.5,1.8-1.5c0.6,0.1,0.6,0.6,1,0.9C469.9,122.6,470.5,122.4,470.4,123.2L470.4,123.2z"/>
				</g>
				<g id="Group_7_" transform="translate(101.08136 34.157196)">
					<path id="Shape_7_" class="st4" d="M420.7,120c0,0.3-0.5,1.3-0.6,1.7c-0.1,0.4-0.5,1.2-0.8,1.6c-0.4,0.6-1,1.3-1.7,1.7
						c-0.4,0.3-0.9,0.4-1.2,0.6c-0.3,0.2-0.2,0.4-0.8,0.6c-0.2-0.1-0.4-0.1-0.7-0.1c-0.1,0.1-0.2,0.3-0.3,0.4
						c-0.2,0-0.8,0.1-1.1,0.1c-0.8-0.1-1.5,0.1-2.4-0.1c-1.4-0.3-2.1-1.2-3.2-2c-1.5-1-3.4-3.3-3.5-5.3c0-0.4,0.2-1.3,0.3-1.8
						c0.2-0.6,0.3-0.5,0.6-1c0.3-0.4,0.1-0.6,0.5-1s0.8-0.6,1.2-0.8c0.3-0.2,0.8-0.9,1.1-1c0.5-0.2,1-0.1,1.5-0.3
						c0.9-0.3,1.6-0.3,2.6-0.3c1.1,0,2,0.3,3.2,0.7c0.9,0.3,1.4,0.5,2,1.2c0.4,0.4,1,0.4,1.4,0.7c0.1,0.2,0.1,0.4,0.2,0.7
						c0.2,0.3,0.4,0.5,0.6,0.6C420.3,117.6,420.7,119,420.7,120L420.7,120z"/>
				</g>
				<g id="Group_8_" transform="translate(138.3201 54.48105)">
					<path id="Shape_8_" class="st6" d="M379.2,98.7c0,0.9-1.7,1.2-2.3,1.1c-0.8-0.2-1.2-0.8-0.9-1.6c0.2-0.4,0.7-0.8,1.2-0.9
						C377.6,97.3,379.2,98.1,379.2,98.7L379.2,98.7z"/>
				</g>
				<g id="Group_9_" transform="translate(48.532196 65.780914)">
					<path id="Shape_9_" class="st6" d="M447,88.8c1.3-0.2,1.5-0.1,3.6,0.1s2.5,0.7,3.1,0.9c1.1,0.4,3.2,2.2,3.6,2.8
						c0.1,0.1,0.5,1.5-0.3,1.7c-0.9,0.2-1.6-0.3-3.1-0.8c-1.6-0.5-2.3-0.8-3.3-0.9c-0.6-0.1-1.3-0.3-1.9-0.5s-1-0.3-1.5-0.4
						c-0.4-0.1-0.9-0.3-1.5-0.5s-0.8-0.6-0.8-1.1C444.9,89.6,445.7,89,447,88.8z"/>
				</g>
				<g id="Group_10_" transform="translate(64.23819 66.87427)">
					<path id="Shape_10_" class="st6" d="M441.7,98.4c-0.5,0.3-1.2,0.8-1.9,1c-0.4,0.1-0.7,0.2-1.1,0.2c-1.1,0-1.5,0.1-2.5-0.6
						c-0.6-0.4-1.1-0.8-1.5-1.2c-0.6-0.6-0.9-1.7-1.3-2.6c-0.3-0.6-0.6-0.7-0.6-1.5c0-0.4,0.2-0.8,0.1-1.3c-0.2-0.9-0.1-0.9,0.1-1.9
						c0.1-0.5-0.1-1.2,0.2-1.6c0.2-0.4,0.3-0.8,0.9-1c-0.1,0,1,0,0.9,0c0.4,0.1,0.4-0.1,0.9,0.3c0.5,0.3,0.3,0.2,0.5,0.8
						c0.3,0.7,0.3,0.8-0.1,1.6s-0.4,1.1-0.5,2c-0.1,1.1,0.3,2.4,0.8,3.6s1.3,1.3,1.4,1.3c0.2,0.1,0.7,0.2,1.4,0.1
						c0.6-0.1,0.8-0.3,1.3-0.5c0.3-0.1,0.8-0.3,1.1,0C442.1,97.2,442.1,98.1,441.7,98.4L441.7,98.4z"/>
				</g>
				<g id="Group_11_" transform="translate(38.68741 76.206055)">
					<path id="Shape_11_" class="st6" d="M456.8,85.6c1-0.8,1.3-3.9,2-4.8c0.4-0.5,1.6,0.8,2.1,1.3c0.8,0.6,0.2,1.9-0.1,2.6
						c-0.5,1.2-1,2-2.1,2.5c-1.2,0.5-2,0.7-3.2,0.6c-0.8-0.1-2-0.8-2.6-1.6c-0.3-0.4-0.6-1.1-0.5-1.5l0,0c0.1-0.4,0.8-0.9,1.4-0.2
						C453.9,84.6,455,86.6,456.8,85.6z"/>
				</g>
			</g>
			<g id="Group_13_" transform="translate(0 214.92828)">
				<path id="Shape_12_" class="st7" d="M548,115.9c-0.3,1-0.9,1.8-2.2,1.9c-0.6,0.1-1,0.3-1.7,0.1c-0.9-0.2-1,0.1-1.9,0.1
					c-0.4,0.1-1-0.2-1.5-0.2c-0.4,0.1-2.4-1.4-2.6-2.2c-0.1-0.4-0.3-0.6-0.6-1.1c-0.4-0.8-0.6-1.6-0.9-2.4c-0.5-1.2-1-2.3-1.3-3.7
					c-0.2-0.8-0.5-1.8-0.9-2.5c-0.1-0.3-0.5-0.5-0.6-0.8s0.2-0.8,0.1-1.3c-0.3-0.9-0.7-1.6-0.9-2.5c-0.1-0.8-0.5-1.6-0.7-2.4
					c-0.1-0.3-0.1-0.7-0.2-1c-0.1-0.3-0.4-0.5-0.5-0.8c-0.2-0.5,0-1-0.1-1.5c-0.1-0.4-0.3-0.7-0.4-1.1c-0.2-0.6-0.1-1.2-0.3-1.8
					c-0.3-1-0.5-1.9-0.7-2.9c-0.1-0.5,0-1.1-0.1-1.5s-0.4-0.6-0.5-1.1c0-0.2,0.1-0.4,0.1-0.6c-0.1-0.2-0.3-0.4-0.4-0.5
					c-0.1-0.6,0-1.3-0.1-1.9c-0.1-0.7-0.1-1.5-0.3-2.2c-0.1-0.5-0.3-0.5-0.4-1.2c0-0.3,0-0.6,0-0.9s-0.1-0.8-0.1-1
					c0.1-0.2,0.1-0.3,0.2-0.5c-0.1-0.2-0.3-0.4-0.4-0.6c-0.1-0.5-0.1-0.7,0-1.2c0-0.3,0.1-0.7,0.1-0.9c0.1-0.5-0.2-0.9-0.3-1.5
					c-0.1-0.3,0-0.6-0.1-0.9c-0.1-0.4-0.2-0.7-0.2-1.2c0-1,0.3-2,0.1-3c-0.2-0.9-0.4-1.5-0.3-2.4c0.1-0.6,0.2-1.5,0.2-2.1
					c-0.1-0.7-0.5-1.3-0.4-2.1c0.1-0.3,0.3-0.6,0.4-0.9c-0.1-0.2-0.2-0.4-0.3-0.6c0.1-0.2,0.2-0.4,0.3-0.6c-0.1-0.5-0.5-0.5-0.5-1.2
					c0-0.2,0.3-0.4,0.3-0.6c0.1-0.9,0-2,0.1-3c0.1-0.8-0.2-1.1-0.2-1.8c-0.1-1,0.3-2,0.4-3c0.1-1.2,0.1-2.4,0.2-3.6
					c0.1-1,0.2-1.9,0.3-3c0.1-0.6,0.3-1.1,0.3-1.7c0-0.3-0.2-0.6-0.1-0.9c0.3-0.5,2.5-0.3,3.3-0.3c1.2,0,2.4,0.1,3.6,0
					c0.5,0,0.9-0.1,1.5-0.1c0.3,0,0.6,0.2,0.9,0.2c0.4,0,0.6-0.2,0.9-0.3c0.4-0.1,1.1,0,1.5,0.1c0.2,0.1,0.7-0.1,0.9,0.1
					s-0.2,1.5-0.2,1.7c-0.1,0.5,0.1,1,0,1.5c0,0.3-0.2,0.5-0.3,0.9c-0.1,0.8,0,1.6,0,2.4c0,0.7,0,1.5-0.1,2.1s-0.3,1.3-0.3,2.1
					c-0.1,1.7,0.3,3.2,0,4.8c-0.1,0.5-0.3,1.2-0.2,1.8c0.1,0.4,0.3,0.5,0.3,0.9s-0.1,0.8-0.1,1.2c0,0.5,0.1,1.2,0.1,1.8
					c0,0.8-0.1,1.6-0.1,2.3c0-0.2,0.3,0.6,0.3,0.5c0,0,0,0.7-0.1,0.8c0,0.2-0.1,0.7-0.1,0.9c0.1,0.2,0.2,0.4,0.3,0.6
					c-0.1,0.2-0.2,0.4-0.3,0.6c0,1.4,0.3,2.7,0.3,4.2c0,1-0.1,1.9,0.1,3c0.1,0.9,0.2,1.5,0.2,2.4c0,0.4,0.2,0.8,0.3,1.2
					c0,0.5,0.1,1,0.1,1.5c0.1,0.6,0.3,1.4,0.4,2.1c0,0.3-0.2,0.6-0.2,0.9c0,0.4,0.2,0.8,0.2,1.2c0.1,0.3,0.1,0.8,0.1,1
					c0,0.3-0.1,0.8-0.1,1.1c0.1,0.6,0.4,0.7,0.5,1.1c0.1,0.6,0,1.2,0,1.8c0.1,1,0.6,1.9,0.7,2.9c0.1,0.3-0.1,0.9-0.1,1.2
					c0,0.6,0.3,1.2,0.4,1.7c0.1,0.9,0.2,1.2,0.5,2c0.2,0.7,0.1,1.6,0.3,2.3c0.1,0.5,0.3,0.1,0.4,0.9c0,0.2-0.1,0.7-0.1,0.8
					c0-0.3,0.4,0.9,0.3,0.6c0.1,0.3,0.1,1,0.1,1.2c-0.1,0.1-0.1,0.2-0.1,0.3c0.2,0.2,0.3,0.3,0.5,0.5c0.1,0.2,0.1,0.6,0.1,0.9
					c0.5,1.8,0.8,3.7,1.2,5.5c0.3,1.2,0.8,2.2,1.2,3.4C548.3,114.7,548.1,115.2,548,115.9L548,115.9z"/>
			</g>
			<g id="Group_14_" transform="translate(335.62903 327.85938)">
				<path id="Shape_13_" class="st3" d="M288.1-33.4c-0.1,0.2-0.2,0.4-0.3,0.6c0.1,0.2,0.1,0.4,0.1,0.6c0,0.5,0.1,0.9,0.1,1.3
					c-0.1,0.1-0.1,0.3-0.2,0.4c0.1,0.2,0.2,0.3,0.3,0.5c0,0.3-0.1,0.7-0.1,1c-0.1,0.5,0.1,1,0.1,1.5c-0.1,0.5-0.4,0.8-0.5,1.2
					c-0.2,0.8-0.1,2-0.1,2.7c0,0.8,0,1.7-0.3,2.4c-0.3,0.8-0.6,1.9-0.6,2.9c0,0.9,0,2.1-0.3,3c-0.1,0.3-0.4,0.6-0.5,0.8
					c-0.1,0.4,0.1,0.8,0,1.2c-0.1,0.1-0.3,0.2-0.4,0.4c-0.2,0.1-0.2,0.3-0.1,0.4c0,0-0.2,0.8-0.3,0.9c-0.2,0.9-0.4,1.5-0.6,2.3
					c-0.3,0.9-0.1,1.6-0.6,2.5c-0.4,0.9-0.7,1.7-1.1,2.6c-0.3,0.6-0.4,1.3-0.7,2c0,0.2-0.2,0.2-0.4,0.6c-0.2,0.5-0.1,0.8-0.2,1.2
					c-0.1,0.2-0.4,0.5-0.5,0.8c-0.2,0.3-0.3,0.8-0.4,1.1c-0.2,0.4-0.6,0.8-0.8,1.1c-0.1,0.3,0,0.6-0.2,0.9c-0.3,0.9-0.5,1.1-0.9,1.6
					C278,5.9,276.1,6,275.2,6c-0.8,0-2.2-0.1-3-0.3c-0.4-0.1-1.7-0.5-2-0.9c-0.6-0.7-0.4-0.5-0.5-1.5c0.1-0.1,0.2-1,0.3-1.1
					c0.2-0.8,0.5-1,0.8-1.6s0.1-1.3,0.3-1.8c0.1-0.2,0.4-0.3,0.5-0.5c0.2-0.5,0.1-1,0.3-1.5c0.2-0.5,0.3-0.8,0.4-1.2
					c0.1-0.2,0.3-0.4,0.3-0.5c0-0.2-0.1-0.5-0.1-0.6c0.4-1.2,0.9-2.3,1-3.6c0-0.2-0.2-0.4-0.1-0.6c0.1-0.2,0.4-0.3,0.5-0.5
					c0.1-0.4,0.2-1.1,0.2-1.5c0-0.3,0-0.8,0-1.1c0.1-0.5,0.6-1.1,0.7-1.5s-0.2-0.8-0.2-1.2c0-0.2,0.3-0.3,0.4-0.5
					c0.1-0.2-0.2-0.4-0.2-0.6s0.4-0.3,0.4-0.5s-0.2-0.4-0.2-0.6c0-0.4,0.1-1,0.2-1.3c0-0.2,0.2-0.4,0.3-0.7c0.1-0.4-0.1-0.8-0.1-1.2
					c0-0.7,0.2-1.1,0.3-1.8c0-0.3,0-0.8,0-1c0-0.1,0.3-0.3,0.3-0.4c0.1-0.7-0.2-1.4-0.1-2.1c0.1-0.8,0.2-1.3,0.2-2.1
					c0-0.5-0.1-1-0.1-1.5s0.3-0.6,0.3-1.2c0.1-0.7-0.2-1.4-0.2-2.1c0-0.6,0.2-1.2,0.2-1.8s-0.2-1.2-0.2-1.8s0-0.9-0.1-1.5
					c-0.1-0.7,0-1.2,0-1.9c0-0.3-0.2-0.8-0.3-1.2c-0.1-0.5,0.1-1,0-1.5s-0.4-1-0.4-1.6c0.1-1.1,0.2-0.8,1-0.7
					c1.8,0.1,3.4-0.1,5.2,0.1c0.9,0.1,1.8,0.1,2.8,0c0.5-0.2,0.8-0.2,1.3-0.2c0.4,0,1-0.2,1.5-0.1c-0.1,0.3-0.1,0.5-0.2,0.8
					c0.2,0.2,0.3,0.4,0.5,0.5c0.2,0.7-0.1,0.9-0.1,1.5c0,0.4,0.1,0.9,0.1,1.2c0.1,0.3,0,0.9,0.1,1.2c0.3,1,0.2,1.9,0.2,3
					C287.8-35.9,288.1-34.7,288.1-33.4L288.1-33.4z"/>
			</g>
			<g id="Group_15_" transform="translate(72.58322 214.67737)">
				<path id="Shape_14_" class="st3" d="M489.2,116.1c-0.6,1.1-1.9,2.1-3.2,2.1c-0.6,0-0.9-0.1-1.5,0c-0.3,0.1-2.1-0.6-2.5-0.6
					c-0.8,0-1-1-1.7-1.4c-0.4-0.2-0.2,0-0.5-0.5c-0.2-0.3-0.4-0.9-0.5-1.2c-0.3-0.8-0.6-1.7-0.8-2.4c-0.2-1.1-0.5-2.3-0.8-3.5
					c-0.2-0.5-0.3-1.1-0.5-1.6c-0.1-0.1,0.1-0.3,0.1-0.5c-0.1-0.2-0.4-0.3-0.4-0.5c-0.2-0.8-0.2-1.6-0.4-2.3
					c-0.2-0.8-0.3-1.7-0.5-2.5s-0.6-1.5-0.6-2.3c0-0.1,0.3-0.4,0.3-0.5c-0.1-0.1-0.3-0.2-0.4-0.4c-0.1-0.5-0.2-0.8-0.2-1.3
					c-0.1-1-0.3-1.8-0.5-2.5l0.1-0.7c0-0.5-0.3-1.1-0.4-1.6c-0.1-0.7-0.4-1.6-0.5-2.3c0-0.2,0.3-0.3,0.2-0.5c0-0.1-0.2-0.3-0.2-0.4
					c-0.1-0.6-0.3-1.3-0.4-1.9c0-0.4,0.1-0.5,0.1-0.9c-0.1-0.2-0.3-0.3-0.3-0.6c-0.1-0.3,0.1-0.4,0.1-0.6c-0.1-0.6,0-1.6-0.1-2.2
					c-0.1-0.4-0.4-0.8-0.4-1.3s0.1-0.9,0.1-1.3c0-0.5-0.1-1.2-0.1-1.6c-0.1-0.3-0.3-0.6-0.3-0.9c-0.1-0.6,0.2-0.9,0.2-1.5
					c0-0.5-0.2-0.8-0.3-1.2c-0.3-1-0.1-2,0-3c0.1-0.6-0.1-0.9-0.2-1.5c0-0.1-0.2-0.3-0.2-0.4c0-0.3,0.2-0.4,0.2-0.6
					c-0.1-0.8-0.1-1.6,0-2.5c0.1-1-0.1-2-0.2-3s-0.2-2.1-0.2-3.1c0.1-0.8,0.2-1.6,0.2-2.4c0-0.8-0.4-1.3-0.2-2.2
					c0.3-1.1,0.3-1.8,0.2-3c-0.1-0.9,0.2-1.7,0.3-2.7c0-0.7,0-1.3,0.1-2.1c0-0.1-0.2-0.3-0.1-0.5c0-0.1,0.3-0.5,0.3-0.6
					s-0.1-0.4-0.1-0.4c0-0.2,0-0.8,0-1c0-0.1,0.3-0.3,0.3-0.4c0-0.2-0.3-0.4-0.3-0.6c0-0.2,0.3-0.4,0.3-0.6c0-0.2-0.3-0.4-0.3-0.6
					c0-0.1,0.4-1.7,0.4-1.7c0.4-0.3,0.7,0.1,1,0.1c0.7,0.1,1.7,0.1,2.3-0.1c0.7-0.1,1.3-0.2,2.1-0.2c0.3,0,0.7-0.1,1.1-0.1
					c0.5,0,0.8,0.2,1.2,0.3c0.6,0.1,1.7,0.1,2.3,0.1c0.7-0.1,1.3-0.6,2.1-0.3c0,0.6-0.1,1.1-0.1,1.6c-0.1,0.8-0.3,1.5-0.2,2.3
					c0.1,0.7,0.2,1.3,0.2,2c0,0.8-0.2,1.3-0.3,1.9c0,0.3,0.2,0.6,0.2,1c0,0.2-0.4,0.4-0.4,0.6c0,0.2,0.3,0.5,0.3,0.8s-0.1,0.6-0.1,1
					c0,0.5,0.1,0.9-0.1,1.5c-0.2,1,0.4,1.6,0.3,2.6c-0.2,1.2-0.3,2.4-0.4,3.6c0,0.6,0.4,1.2,0.4,1.8c0,0.2-0.3,0.4-0.3,0.6
					c0,0.6,0.3,0.7,0.3,1.2c0,0.2-0.3,0.4-0.3,0.6c0,0.3,0.1,0.9,0.2,1.2c0.1,0.5,0,1,0,1.5s0.2,0.7,0.2,1.2c0.1,0.7,0,1.7,0,2.4
					c0,1.4-0.2,2.7,0.2,4.1c0.2,0.6-0.2,1-0.2,1.5c0,0.4,0.4,0.7,0.4,1s-0.2,0.6-0.2,0.9c0,0.6,0.2,1,0.3,1.6c0.1,0.8-0.2,1.5,0,2.4
					c0.1,0.2,0.3,0.3,0.4,0.6c0,0.2-0.1,0.6-0.2,0.9c0,0.8,0.2,1.6,0.2,2.4c0,0.5,0.2,0.9,0.3,1.3c0,0.6,0,1.3,0.1,1.9
					c0,0.8,0.3,1.3,0.3,2c0.1,0.6,0,1.1,0.1,1.8c0.1,0.5,0.3,1,0.4,1.5c0.1,0.4-0.2,1.1-0.1,1.5c0.1,0.6,0.3,0.9,0.4,1.5
					c0.1,0.4-0.1,1.1,0,1.5c0.3,1.2,0.3,2.5,0.7,3.8c0.4,1.4,0.2,2.8,0.6,4.1c0.2,0.9,0.2,1.5,0.3,2.4c0.1,0.9,0.6,1.7,0.8,2.6
					c0.1,0.7-0.2,1.2,0.1,2.1C489.7,114.9,489.6,115.5,489.2,116.1L489.2,116.1z"/>
			</g>
			<g id="Group_16_" transform="translate(281.57886 327.73184)">
				<path id="Shape_15_" class="st3" d="M326.2-33.3c0.1,0.2,0.2,0.4,0.3,0.6c-0.1,0.4-0.1,0.8-0.1,1.2c-0.1,0.6-0.1,1-0.1,1.5
					c0,1,0,2.2-0.1,3.3c-0.1,1.1-0.1,1.9-0.3,3c-0.1,0.7,0.1,1.2,0.1,1.8c-0.1,0.2-0.2,0.4-0.3,0.6c0.1,0.2,0.2,0.4,0.3,0.6
					c-0.1,1.3-0.9,2.7-1,4.1c0,0.6,0.1,1,0,1.5s-0.2,1.2-0.3,1.8c-0.1,0.6-0.2,1.2-0.3,1.7c-0.2,0.6-0.1,0.9-0.2,1.5
					C324-9,323.9-8,323.6-6.9c-0.2,1-0.7,2-0.9,2.8c-0.2,0.6-0.5,1.3-0.7,2c-0.1,0.4-0.2,1.1-0.3,1.5c0.2,0.3,0.2,0.5-0.2,0.6
					c-0.3,0.2-0.5,0.4-0.4,0.8c-0.1,0.2-0.2,0.3-0.3,0.5c0,0.2,0.1,0.3,0.2,0.5c-0.1,0.2-0.5,0.4-0.6,0.6c-0.2,0.5,0.2,0.3,0,1
					c-0.4,1.1-1.1,2-2.1,2.4c-0.4,0.2-3.2,0.3-3.6,0.3c-0.2,0-0.6-0.3-1-0.3c-1.6-0.2-2.5-1.1-2.3-2.3c0.1-0.3,0.2-0.6,0.2-0.9
					c0-0.1-0.2-0.4-0.2-0.5l0.2-0.4c0-0.1,0.2-0.3,0.2-0.4c0-0.1-0.2-0.3-0.1-0.5c0.2-0.7,0.6-1,0.8-1.7c0.2-0.8,0-1.6,0.2-2.4
					c0.1-0.4,0.2-0.8,0.3-1.2c0.1-0.4,0.2-0.7,0.3-1c0.1-0.6,0.1-1.2,0.2-1.8c0.1-0.8,0.6-1.6,0.6-2.5c0-0.4-0.1-0.6-0.1-1.1
					c0.1-0.5,0.2-1,0.3-1.5c0.1-0.9,0.6-1.9,0.6-2.8c0-0.3-0.4-0.4-0.4-0.6c0.1-0.4,0.5-0.7,0.5-1.1c0.1-0.4-0.2-0.8-0.1-1.2
					c0.1-0.5,0.3-0.9,0.4-1.5c0.1-0.9,0.2-1.8,0.2-2.7c0-0.4-0.2-0.8-0.2-1.2c0.1-0.5,0.3-0.9,0.3-1.5c0.1-1,0.1-2,0.1-3
					c-0.1-0.5,0.2-0.9,0.1-1.3s-0.3-0.9-0.3-1.3c0-0.1,0.2-0.3,0.2-0.4c0-0.2-0.1-0.4-0.1-0.6c0-0.3,0.1-0.6,0.1-0.9
					c0-0.9,0.1-1.7,0-2.6c-0.1-0.8-0.1-1.5-0.1-2.3c0-0.1,0.3-0.2,0.3-0.3c0-0.2-0.2-0.3-0.2-0.6c-0.1-0.5-0.1-0.8,0-1.3
					c0.1-0.6,0.2-1.3,0.1-1.8c0-0.1-0.3-0.3-0.3-0.4l0.1-0.5c0-0.1,0.2-0.2,0.2-0.3c0-0.2-0.2-0.4-0.2-0.6c0-0.7-0.2-1.3-0.2-2
					c0.1,0,1.3,0.1,1.5,0.1c0.4,0,0.6,0.3,1,0.3s0.9-0.1,1.3-0.2c0.2,0,0.5-0.1,0.8-0.1c0.2,0,0.6,0.3,0.8,0.3
					c0.4,0,0.8-0.4,1.3-0.4c0.2,0,0.2,0.3,0.5,0.4c0.2,0,0.4-0.3,0.6-0.3c0.6,0,1,0.2,1.5,0.2c0.5-0.1,1-0.4,1.5-0.2
					c-0.1,0.3-0.1,0.5-0.2,0.8c0.1,0.2,0.2,0.4,0.2,0.6c0.1,0.6-0.1,1.2,0,1.8s0.4,0.8,0.3,1.5c-0.1,0.5-0.1,0.8,0,1.3
					c0.2,1.1,0.3,2,0.1,3.1c-0.1,0.8,0.1,1.2,0.2,1.8c0.1,0.2,0.1,0.4,0.2,0.6C326.4-33.7,326.3-33.5,326.2-33.3L326.2-33.3z"/>
			</g>
		</g>
		<g id="Group_18_" transform="translate(57.28601 86)">
			<path id="Ellipse" class="st4" d="M483.4,148.1c0-4.2,3.5-7.9,7.9-7.9s8.4,3.8,8.4,8s-3.6,7-8,7
				C487.2,155.2,483.4,152.3,483.4,148.1z"/>
			<path id="Ellipse-2" class="st4" d="M507.2,154.5c0-3.9,3.7-6.3,7.7-6.3s8.7,2.5,8.7,6.4s-3.7,7.8-7.7,7.8
				S507.2,158.3,507.2,154.5z"/>
			<g id="Group-2" transform="translate(16.5 20)">
				<path id="Ellipse_1_" class="st6" d="M470.7,127.4c0-1.4,1.1-2.6,2.6-2.6c1.4,0,2.6,1.1,2.6,2.6c0,1.4-1.1,2.6-2.6,2.6
					C471.9,129.9,470.7,128.8,470.7,127.4z"/>
				<path id="Ellipse-2_1_" class="st6" d="M498.6,134.1c0-1.4,1.1-2.6,2.6-2.6c1.4,0,2.6,1.1,2.6,2.6c0,1.4-1.1,2.6-2.6,2.6
					C499.7,136.7,498.6,135.5,498.6,134.1z"/>
				<path id="New-shape-6" class="st8" d="M471.7,126.9c0,0,0.4-1.3,2.3-1"/>
				<path id="New-shape-7" class="st8" d="M499.5,133.6c0,0,0.4-1.3,2.3-1"/>
			</g>
		</g>
	</g>
	<g id="Group_19_" transform="translate(57.28601 86)">
		<g id="Group-2_2_" transform="translate(16.5 20)">
			<path id="Ellipse_2_" class="st6" d="M472.9,130c0-1.6,1.3-3,2.9-3s2.8,1.3,2.8,2.9c0,1.6-1.3,3-2.9,3
				C474.2,133,472.9,131.6,472.9,130z"/>
			<path id="Ellipse-2_2_" class="st6" d="M500.5,136.6c0-1.6,1.3-3,2.9-3s2.9,1.3,2.9,2.9s-1.3,3-2.9,3S500.5,138.2,500.5,136.6z"
				/>
			<path id="New-shape-7_2_" class="st8" d="M504.7,134.7"/>
			<path id="New-shape-7_1_" class="st8" d="M502.1,135.9"/>
		</g>
	</g>
</g>
<g>
	<g>
		<path class="st1" d="M491.8,480.3H71.3c-11,0-20-9-20-20V284.8h6v175.5c0,7.7,6.3,14,14,14h420.6c7.7,0,14-6.3,14-14V161.9h6
			v298.4C511.8,471.4,502.8,480.3,491.8,480.3z"/>
	</g>
	<g>
		<path class="st1" d="M508.8,164.9c-1.6,0-3-1.3-3-3v-1.6c0-1.6,1.3-3,3-3s3,1.3,3,3v1.6C511.8,163.5,510.4,164.9,508.8,164.9z
			 M508.8,148.3c-1.6,0-3-1.3-3-3V138c0-1.6,1.3-3,3-3s3,1.3,3,3v7.2C511.8,147,510.4,148.3,508.8,148.3z M508.8,126.1
			c-1.6,0-3-1.3-3-3v-7.2c0-1.6,1.3-3,3-3s3,1.3,3,3v7.2C511.8,124.7,510.4,126.1,508.8,126.1z"/>
	</g>
	<g>
		<path class="st1" d="M54.3,286.4c-0.9,0-1.6-0.7-1.6-1.6v-7.2c0-0.9,0.7-1.6,1.6-1.6c0.9,0,1.6,0.7,1.6,1.6v7.2
			C55.8,285.7,55.1,286.4,54.3,286.4z M54.3,264.2c-0.9,0-1.6-0.7-1.6-1.6v-7.2c0-0.9,0.7-1.6,1.6-1.6c0.9,0,1.6,0.7,1.6,1.6v7.2
			C55.8,263.5,55.1,264.2,54.3,264.2z M54.3,242c-0.9,0-1.6-0.7-1.6-1.6v-7.2c0-0.9,0.7-1.6,1.6-1.6c0.9,0,1.6,0.7,1.6,1.6v7.2
			C55.8,241.4,55.1,242,54.3,242z M54.3,219.9c-0.9,0-1.6-0.7-1.6-1.6v-7.2c0-0.9,0.7-1.6,1.6-1.6c0.9,0,1.6,0.7,1.6,1.6v7.2
			C55.8,219.1,55.1,219.9,54.3,219.9z M54.3,197.7c-0.9,0-1.6-0.7-1.6-1.6v-7.2c0-0.9,0.7-1.6,1.6-1.6c0.9,0,1.6,0.7,1.6,1.6v7.2
			C55.8,197,55.1,197.7,54.3,197.7z M54.3,175.6c-0.9,0-1.6-0.7-1.6-1.6v-7.2c0-0.9,0.7-1.6,1.6-1.6c0.9,0,1.6,0.7,1.6,1.6v7.2
			C55.8,174.8,55.1,175.6,54.3,175.6z M54.3,153.4c-0.9,0-1.6-0.7-1.6-1.6v-7.2c0-0.9,0.7-1.6,1.6-1.6c0.9,0,1.6,0.7,1.6,1.6v7.2
			C55.8,152.7,55.1,153.4,54.3,153.4z M54.3,131.2c-0.9,0-1.6-0.7-1.6-1.6v-7.2c0-0.9,0.7-1.6,1.6-1.6c0.9,0,1.6,0.7,1.6,1.6v7.2
			C55.8,130.5,55.1,131.2,54.3,131.2z"/>
	</g>
	<g>
		<path class="st1" d="M508.8,117.5h-7.2c-0.9,0-1.6-0.7-1.6-1.6s0.7-1.6,1.6-1.6h7.2c0.9,0,1.6,0.7,1.6,1.6
			S509.7,117.5,508.8,117.5z M486.7,117.5h-7.2c-0.9,0-1.6-0.7-1.6-1.6s0.7-1.6,1.6-1.6h7.2c0.9,0,1.6,0.7,1.6,1.6
			S487.5,117.5,486.7,117.5z M464.5,117.5h-7.2c-0.9,0-1.6-0.7-1.6-1.6s0.7-1.6,1.6-1.6h7.2c0.9,0,1.6,0.7,1.6,1.6
			S465.3,117.5,464.5,117.5z M442.3,117.5h-7.2c-0.9,0-1.6-0.7-1.6-1.6s0.7-1.6,1.6-1.6h7.2c0.9,0,1.6,0.7,1.6,1.6
			S443.1,117.5,442.3,117.5z M420.1,117.5h-7.2c-0.9,0-1.6-0.7-1.6-1.6s0.7-1.6,1.6-1.6h7.2c0.9,0,1.6,0.7,1.6,1.6
			S421,117.5,420.1,117.5z M398,117.5h-7.2c-0.9,0-1.6-0.7-1.6-1.6s0.7-1.6,1.6-1.6h7.2c0.9,0,1.6,0.7,1.6,1.6
			S398.8,117.5,398,117.5z M375.8,117.5h-7.2c-0.9,0-1.6-0.7-1.6-1.6s0.7-1.6,1.6-1.6h7.2c0.9,0,1.6,0.7,1.6,1.6
			S376.6,117.5,375.8,117.5z M353.6,117.5h-7.2c-0.9,0-1.6-0.7-1.6-1.6s0.7-1.6,1.6-1.6h7.2c0.9,0,1.6,0.7,1.6,1.6
			S354.4,117.5,353.6,117.5z M331.4,117.5h-7.2c-0.9,0-1.6-0.7-1.6-1.6s0.7-1.6,1.6-1.6h7.2c0.9,0,1.6,0.7,1.6,1.6
			S332.3,117.5,331.4,117.5z M309.3,117.5h-7.2c-0.9,0-1.6-0.7-1.6-1.6s0.7-1.6,1.6-1.6h7.2c0.9,0,1.6,0.7,1.6,1.6
			S310.1,117.5,309.3,117.5z M287.1,117.5h-7.2c-0.9,0-1.6-0.7-1.6-1.6s0.7-1.6,1.6-1.6h7.2c0.9,0,1.6,0.7,1.6,1.6
			S288,117.5,287.1,117.5z M264.9,117.5h-7.2c-0.9,0-1.6-0.7-1.6-1.6s0.7-1.6,1.6-1.6h7.2c0.9,0,1.6,0.7,1.6,1.6
			S265.8,117.5,264.9,117.5z M242.7,117.5h-7.2c-0.9,0-1.6-0.7-1.6-1.6s0.7-1.6,1.6-1.6h7.2c0.9,0,1.6,0.7,1.6,1.6
			S243.6,117.5,242.7,117.5z M220.6,117.5h-7.2c-0.9,0-1.6-0.7-1.6-1.6s0.7-1.6,1.6-1.6h7.2c0.9,0,1.6,0.7,1.6,1.6
			S221.4,117.5,220.6,117.5z M198.4,117.5h-7.2c-0.9,0-1.6-0.7-1.6-1.6s0.7-1.6,1.6-1.6h7.2c0.9,0,1.6,0.7,1.6,1.6
			S199.3,117.5,198.4,117.5z M176.3,117.5H169c-0.9,0-1.6-0.7-1.6-1.6s0.7-1.6,1.6-1.6h7.2c0.9,0,1.6,0.7,1.6,1.6
			S177.1,117.5,176.3,117.5z M154,117.5h-7.2c-0.9,0-1.6-0.7-1.6-1.6s0.7-1.6,1.6-1.6h7.2c0.9,0,1.6,0.7,1.6,1.6
			S154.9,117.5,154,117.5z M131.9,117.5h-7.2c-0.9,0-1.6-0.7-1.6-1.6s0.7-1.6,1.6-1.6h7.2c0.9,0,1.6,0.7,1.6,1.6
			S132.7,117.5,131.9,117.5z M109.7,117.5h-7.2c-0.9,0-1.6-0.7-1.6-1.6s0.7-1.6,1.6-1.6h7.2c0.9,0,1.6,0.7,1.6,1.6
			S110.6,117.5,109.7,117.5z M87.6,117.5h-7.2c-0.9,0-1.6-0.7-1.6-1.6s0.7-1.6,1.6-1.6h7.2c0.9,0,1.6,0.7,1.6,1.6
			S88.4,117.5,87.6,117.5z M65.4,117.5h-7.2c-0.9,0-1.6-0.7-1.6-1.6s0.7-1.6,1.6-1.6h7.2c0.9,0,1.6,0.7,1.6,1.6
			S66.2,117.5,65.4,117.5z M508.8,112.1c-0.9,0-1.6-0.7-1.6-1.6v-7.2c0-0.9,0.7-1.6,1.6-1.6s1.6,0.7,1.6,1.6v7.2
			C510.4,111.4,509.7,112.1,508.8,112.1z M54.3,106.4c-0.9,0-1.6-0.7-1.6-1.6v-7.2c0-0.9,0.7-1.6,1.6-1.6c0.9,0,1.6,0.7,1.6,1.6v7.2
			C55.8,105.7,55.1,106.4,54.3,106.4z M508.8,89.9c-0.9,0-1.6-0.7-1.6-1.6v-7.2c0-0.9,0.7-1.6,1.6-1.6s1.6,0.7,1.6,1.6v7.2
			C510.4,89.2,509.7,89.9,508.8,89.9z M54.3,84.2c-0.9,0-1.6-0.7-1.6-1.6v-7.2c0-0.9,0.7-1.6,1.6-1.6c0.9,0,1.6,0.7,1.6,1.6v7.2
			C55.8,83.5,55.1,84.2,54.3,84.2z M506.5,68.1c-0.6,0-1.1-0.3-1.4-0.8c-1.1-1.9-2.6-3.6-4.3-4.8c-0.7-0.5-0.9-1.5-0.4-2.2
			s1.5-0.9,2.2-0.4c2.1,1.5,3.9,3.5,5.2,5.8c0.4,0.8,0.2,1.7-0.6,2.1C507.1,68,506.9,68.1,506.5,68.1z M60.1,63.8
			c-0.4,0-0.9-0.2-1.2-0.6c-0.6-0.6-0.5-1.6,0.1-2.2c2-1.8,4.3-3,6.8-3.8c0.8-0.3,1.7,0.2,1.9,1.1c0.3,0.8-0.2,1.7-1.1,1.9
			c-2.1,0.6-4,1.7-5.6,3.1C60.8,63.7,60.5,63.8,60.1,63.8z M487.5,59.6h-7.2c-0.9,0-1.6-0.7-1.6-1.6s0.7-1.6,1.6-1.6h7.2
			c0.9,0,1.6,0.7,1.6,1.6S488.4,59.6,487.5,59.6z M465.3,59.6h-7.2c-0.9,0-1.6-0.7-1.6-1.6s0.7-1.6,1.6-1.6h7.2
			c0.9,0,1.6,0.7,1.6,1.6S466.2,59.6,465.3,59.6z M443.1,59.6h-7.2c-0.9,0-1.6-0.7-1.6-1.6s0.7-1.6,1.6-1.6h7.2
			c0.9,0,1.6,0.7,1.6,1.6S444,59.6,443.1,59.6z M421,59.6h-7.2c-0.9,0-1.6-0.7-1.6-1.6s0.7-1.6,1.6-1.6h7.2c0.9,0,1.6,0.7,1.6,1.6
			S421.9,59.6,421,59.6z M398.8,59.6h-7.2c-0.9,0-1.6-0.7-1.6-1.6s0.7-1.6,1.6-1.6h7.2c0.9,0,1.6,0.7,1.6,1.6S399.7,59.6,398.8,59.6
			z M376.6,59.6h-7.2c-0.9,0-1.6-0.7-1.6-1.6s0.7-1.6,1.6-1.6h7.2c0.9,0,1.6,0.7,1.6,1.6S377.5,59.6,376.6,59.6z M354.4,59.6h-7.2
			c-0.9,0-1.6-0.7-1.6-1.6s0.7-1.6,1.6-1.6h7.2c0.9,0,1.6,0.7,1.6,1.6S355.3,59.6,354.4,59.6z M332.3,59.6h-7.2
			c-0.9,0-1.6-0.7-1.6-1.6s0.7-1.6,1.6-1.6h7.2c0.9,0,1.6,0.7,1.6,1.6S333.2,59.6,332.3,59.6z M310.1,59.6h-7.2
			c-0.9,0-1.6-0.7-1.6-1.6s0.7-1.6,1.6-1.6h7.2c0.9,0,1.6,0.7,1.6,1.6S311,59.6,310.1,59.6z M288,59.6h-7.2c-0.9,0-1.6-0.7-1.6-1.6
			s0.7-1.6,1.6-1.6h7.2c0.9,0,1.6,0.7,1.6,1.6S288.8,59.6,288,59.6z M265.8,59.6h-7.2c-0.9,0-1.6-0.7-1.6-1.6s0.7-1.6,1.6-1.6h7.2
			c0.9,0,1.6,0.7,1.6,1.6S266.6,59.6,265.8,59.6z M243.6,59.6h-7.2c-0.9,0-1.6-0.7-1.6-1.6s0.7-1.6,1.6-1.6h7.2
			c0.9,0,1.6,0.7,1.6,1.6S244.5,59.6,243.6,59.6z M221.4,59.6h-7.2c-0.9,0-1.6-0.7-1.6-1.6s0.7-1.6,1.6-1.6h7.2
			c0.9,0,1.6,0.7,1.6,1.6S222.3,59.6,221.4,59.6z M199.3,59.6h-7.2c-0.9,0-1.6-0.7-1.6-1.6s0.7-1.6,1.6-1.6h7.2
			c0.9,0,1.6,0.7,1.6,1.6S200.1,59.6,199.3,59.6z M177.1,59.6h-7.2c-0.9,0-1.6-0.7-1.6-1.6s0.7-1.6,1.6-1.6h7.2
			c0.9,0,1.6,0.7,1.6,1.6S177.9,59.6,177.1,59.6z M154.9,59.6h-7.2c-0.9,0-1.6-0.7-1.6-1.6s0.7-1.6,1.6-1.6h7.2
			c0.9,0,1.6,0.7,1.6,1.6S155.8,59.6,154.9,59.6z M132.8,59.6h-7.2c-0.9,0-1.6-0.7-1.6-1.6s0.7-1.6,1.6-1.6h7.2
			c0.9,0,1.6,0.7,1.6,1.6S133.6,59.6,132.8,59.6z M110.6,59.6h-7.2c-0.9,0-1.6-0.7-1.6-1.6s0.7-1.6,1.6-1.6h7.2
			c0.9,0,1.6,0.7,1.6,1.6S111.5,59.6,110.6,59.6z M88.4,59.6h-7.2c-0.9,0-1.6-0.7-1.6-1.6s0.7-1.6,1.6-1.6h7.2
			c0.9,0,1.6,0.7,1.6,1.6S89.3,59.6,88.4,59.6z"/>
	</g>
	<g>
		<g>
			<path class="st1" d="M85.2,99.5L85.2,99.5c-1-0.1-1.9-0.2-2.9-0.4c-0.8-0.3-1.3-1.1-1.1-1.9c0.3-0.8,1.1-1.3,1.9-1.1
				c0.7,0.2,1.4,0.3,2.1,0.3c0.9,0.1,1.6,0.8,1.5,1.6C86.8,98.8,86.1,99.5,85.2,99.5z M91.3,98c-0.6,0-1.1-0.3-1.4-0.8
				c-0.4-0.8-0.2-1.7,0.6-2.1c0.6-0.4,1.2-0.8,1.7-1.3c0.6-0.6,1.6-0.6,2.2,0.1c0.6,0.6,0.6,1.6-0.1,2.2s-1.4,1.3-2.3,1.7
				C91.8,98,91.5,98,91.3,98z M77.5,95.9c-0.4,0-0.9-0.2-1.2-0.5c-0.6-0.7-1.2-1.5-1.7-2.3c-0.4-0.8-0.1-1.7,0.6-2.1
				c0.8-0.4,1.7-0.1,2.1,0.6c0.4,0.6,0.8,1.2,1.3,1.8c0.6,0.6,0.6,1.6-0.1,2.2C78.3,95.8,77.9,95.9,77.5,95.9z M96.4,91.2
				c-0.1,0-0.3,0-0.4-0.1c-0.8-0.2-1.4-1.1-1.1-1.9c0.2-0.7,0.3-1.4,0.3-2.1c0-0.9,0.8-1.6,1.6-1.6c0.9,0,1.6,0.8,1.6,1.6
				c0,0.9-0.1,1.9-0.4,2.8C97.7,90.7,97.1,91.2,96.4,91.2z M74.6,87.9L74.6,87.9c-0.9-0.1-1.6-0.8-1.6-1.6c0.1-0.9,0.2-1.9,0.5-2.8
				c0.3-0.8,1.1-1.3,1.9-1.1c0.8,0.3,1.3,1.1,1.1,1.9c-0.2,0.7-0.3,1.4-0.4,2.1C76.1,87.2,75.5,87.9,74.6,87.9z M95.1,82.7
				c-0.5,0-1.1-0.3-1.3-0.8c-0.4-0.6-0.8-1.2-1.3-1.7c-0.6-0.6-0.6-1.6,0-2.2s1.6-0.6,2.2,0c0.7,0.7,1.3,1.4,1.8,2.3
				c0.4,0.8,0.3,1.7-0.5,2.1C95.7,82.7,95.4,82.7,95.1,82.7z M78.4,80.2c-0.4,0-0.9-0.2-1.2-0.6c-0.6-0.6-0.5-1.6,0.1-2.2
				c0.7-0.6,1.5-1.2,2.3-1.6s1.7-0.1,2.1,0.6s0.1,1.7-0.6,2.1c-0.6,0.3-1.3,0.8-1.8,1.2C79.2,80,78.8,80.2,78.4,80.2z M88.2,77.7
				c-0.1,0-0.3,0-0.4-0.1c-0.7-0.2-1.4-0.3-2.1-0.3c-0.9,0-1.6-0.7-1.6-1.6s0.7-1.6,1.6-1.6s1.9,0.1,2.8,0.3
				c0.8,0.2,1.4,1.1,1.2,1.9C89.5,77.3,88.9,77.7,88.2,77.7z"/>
		</g>
		<g>
			<path class="st1" d="M122.9,99.5L122.9,99.5c-1-0.1-1.9-0.2-2.9-0.4c-0.8-0.3-1.3-1.1-1.1-1.9c0.3-0.8,1.1-1.3,1.9-1.1
				c0.7,0.2,1.4,0.3,2.1,0.3c0.9,0.1,1.6,0.8,1.5,1.6C124.5,98.8,123.8,99.5,122.9,99.5z M129,98c-0.6,0-1.1-0.3-1.4-0.8
				c-0.4-0.8-0.2-1.7,0.6-2.1c0.6-0.4,1.2-0.8,1.7-1.3c0.6-0.6,1.6-0.6,2.2,0.1s0.6,1.6-0.1,2.2c-0.7,0.6-1.4,1.3-2.3,1.7
				C129.5,98,129.2,98,129,98z M115.2,95.9c-0.4,0-0.9-0.2-1.2-0.5c-0.6-0.7-1.2-1.5-1.7-2.3c-0.4-0.8-0.1-1.7,0.6-2.1
				c0.8-0.4,1.7-0.1,2.1,0.6c0.4,0.6,0.8,1.2,1.3,1.8c0.6,0.6,0.6,1.6-0.1,2.2C116,95.8,115.6,95.9,115.2,95.9z M134.1,91.2
				c-0.1,0-0.3,0-0.4-0.1c-0.8-0.2-1.4-1.1-1.1-1.9c0.2-0.7,0.3-1.4,0.3-2.1c0-0.9,0.8-1.6,1.6-1.6c0.9,0,1.6,0.8,1.6,1.6
				c0,0.9-0.1,1.9-0.4,2.8C135.4,90.7,134.8,91.2,134.1,91.2z M112.3,87.9L112.3,87.9c-0.9-0.1-1.6-0.8-1.6-1.6
				c0.1-0.9,0.2-1.9,0.5-2.8c0.3-0.8,1.1-1.3,1.9-1.1c0.8,0.3,1.3,1.1,1.1,1.9c-0.2,0.7-0.3,1.4-0.4,2.1
				C113.8,87.2,113.2,87.9,112.3,87.9z M132.8,82.7c-0.5,0-1.1-0.3-1.3-0.8c-0.4-0.6-0.8-1.2-1.3-1.7c-0.6-0.6-0.6-1.6,0-2.2
				s1.6-0.6,2.2,0c0.7,0.7,1.3,1.4,1.8,2.3c0.4,0.8,0.3,1.7-0.5,2.1C133.3,82.7,133.1,82.7,132.8,82.7z M116.1,80.2
				c-0.4,0-0.9-0.2-1.2-0.6c-0.6-0.6-0.5-1.6,0.1-2.2c0.7-0.6,1.5-1.2,2.3-1.6s1.7-0.1,2.1,0.6c0.4,0.8,0.1,1.7-0.6,2.1
				c-0.6,0.3-1.3,0.8-1.8,1.2C116.9,80,116.5,80.2,116.1,80.2z M125.9,77.7c-0.1,0-0.3,0-0.4-0.1c-0.7-0.2-1.4-0.3-2.1-0.3
				c-0.9,0-1.6-0.7-1.6-1.6s0.7-1.6,1.6-1.6s1.9,0.1,2.8,0.3c0.8,0.2,1.4,1.1,1.2,1.9C127.2,77.3,126.6,77.7,125.9,77.7z"/>
		</g>
		<g>
			<path class="st1" d="M160.6,99.5L160.6,99.5c-1-0.1-1.9-0.2-2.9-0.4c-0.8-0.3-1.3-1.1-1.1-1.9c0.3-0.8,1.1-1.3,1.9-1.1
				c0.7,0.2,1.4,0.3,2.1,0.3c0.9,0.1,1.6,0.8,1.5,1.6C162.2,98.8,161.5,99.5,160.6,99.5z M166.7,98c-0.6,0-1.1-0.3-1.4-0.8
				c-0.4-0.8-0.2-1.7,0.6-2.1c0.6-0.4,1.2-0.8,1.7-1.3c0.6-0.6,1.6-0.6,2.2,0.1s0.6,1.6-0.1,2.2c-0.7,0.6-1.4,1.3-2.3,1.7
				C167.2,98,166.9,98,166.7,98z M152.9,95.9c-0.4,0-0.9-0.2-1.2-0.5c-0.6-0.7-1.2-1.5-1.7-2.3c-0.4-0.8-0.1-1.7,0.6-2.1
				c0.8-0.4,1.7-0.1,2.1,0.6c0.4,0.6,0.8,1.2,1.3,1.8c0.6,0.6,0.6,1.6-0.1,2.2C153.7,95.8,153.3,95.9,152.9,95.9z M171.8,91.2
				c-0.1,0-0.3,0-0.4-0.1c-0.8-0.2-1.4-1.1-1.1-1.9c0.2-0.7,0.3-1.4,0.3-2.1c0-0.9,0.8-1.6,1.6-1.6c0.9,0,1.6,0.8,1.6,1.6
				c0,0.9-0.1,1.9-0.4,2.8C173.1,90.7,172.5,91.2,171.8,91.2z M150,87.9L150,87.9c-0.9-0.1-1.6-0.8-1.6-1.6c0.1-0.9,0.2-1.9,0.5-2.8
				c0.3-0.8,1.1-1.3,1.9-1.1c0.8,0.3,1.3,1.1,1.1,1.9c-0.2,0.7-0.3,1.4-0.4,2.1C151.5,87.2,150.8,87.9,150,87.9z M170.5,82.7
				c-0.5,0-1.1-0.3-1.3-0.8c-0.4-0.6-0.8-1.2-1.3-1.7c-0.6-0.6-0.6-1.6,0-2.2s1.6-0.6,2.2,0c0.7,0.7,1.3,1.4,1.8,2.3
				c0.4,0.8,0.3,1.7-0.5,2.1C171,82.7,170.8,82.7,170.5,82.7z M153.8,80.2c-0.4,0-0.9-0.2-1.2-0.6c-0.6-0.6-0.5-1.6,0.1-2.2
				c0.7-0.6,1.5-1.2,2.3-1.6s1.7-0.1,2.1,0.6c0.4,0.8,0.1,1.7-0.6,2.1c-0.6,0.3-1.3,0.8-1.8,1.2C154.5,80,154.2,80.2,153.8,80.2z
				 M163.6,77.7c-0.1,0-0.3,0-0.4-0.1c-0.7-0.2-1.4-0.3-2.1-0.3c-0.9,0-1.6-0.7-1.6-1.6s0.7-1.6,1.6-1.6c0.9,0,1.9,0.1,2.8,0.3
				c0.8,0.2,1.4,1.1,1.2,1.9C164.9,77.3,164.3,77.7,163.6,77.7z"/>
		</g>
	</g>
</g>
<g transform="translate(600.0 191.0) scale(1.1088145896656536 1.1130742049469964) rotate(0.0 102.81249999999999 84.9)">
	<g transform="translate(-0.0 -0.0)">
		<g id="Layer_2-i5">
			<g id="Layer_1-2-i5">
				<path class="st1" d="M-61.6,29.8h-109.6c-3.6,0-6.5,2.9-6.5,6.5l0,0v71.1c0,3.6,2.9,6.5,6.5,6.5l0,0h109.7
					c3.6,0,6.5-2.9,6.5-6.5v-71C-55.1,32.7-58,29.8-61.6,29.8L-61.6,29.8z"/>
				<path class="st4" d="M-68.1,113.3h-109.1c-3.4,0-6.1-2.7-6.1-6.1l0,0V36.6c0-3.4,2.7-6.1,6.1-6.1l0,0h109.1
					c3.4,0,6.1,2.7,6.1,6.1l0,0v70.6C-62,110.5-64.7,113.3-68.1,113.3z"/>
				<path class="st1" d="M-68.1,114h-109.1c-3.8,0-6.8-3.1-6.8-6.8V36.6c0-3.8,3.1-6.8,6.8-6.8h109.1c3.8,0,6.8,3.1,6.8,6.8v70.6
					C-61.3,110.9-64.4,113.9-68.1,114z M-177.2,31.2c-3,0-5.4,2.4-5.4,5.4l0,0v70.6c0,3,2.4,5.4,5.4,5.4l0,0h109.1
					c3,0,5.4-2.4,5.4-5.4V36.6c0-3-2.4-5.4-5.4-5.4l0,0L-177.2,31.2z"/>
				<path class="st1" d="M-110.5,71.2c-0.3-0.1-0.7,0.1-0.8,0.4l-17,41.4c-0.1,0.2-0.1,0.5,0,0.6c0.1,0.2,0.3,0.3,0.6,0.3h17
					c0.4,0,0.7-0.3,0.7-0.7V71.9C-110,71.6-110.2,71.3-110.5,71.2z"/>
				<path class="st4" d="M-95.8,135.6h-48.1c-2.8,0-5-2.3-5-5c0-0.4,0-0.8,0.1-1.2l14.1-57.4h24l-13.2,53.8c-0.7,2.7,1,5.4,3.7,6.1
					c0.4,0.1,0.8,0.2,1.3,0.1h23.8c0.3,0,0,2.7,0,3.1l0,0C-95.2,135.3-95.4,135.6-95.8,135.6L-95.8,135.6z"/>
				<path class="st1" d="M-95.8,136.3h-48.1c-1.8,0-3.4-0.8-4.5-2.2s-1.5-3.2-1-4.9l14.3-57.9h25.4l-13.5,54.6
					c-0.3,1.3,0,2.7,0.8,3.7c0.8,1.1,2.1,1.7,3.4,1.6h23.8c0.2,0,0.4,0.1,0.6,0.2c0.3,0.3,0.4,0.9,0.2,3.1c0,0.2,0,0.3,0,0.5
					C-94.5,135.7-95.1,136.3-95.8,136.3z M-134.1,72.6l-14,56.9c-0.3,1.3,0,2.6,0.8,3.7c0.8,1,2.1,1.7,3.4,1.7h48.1
					c0-0.2,0-0.4,0-0.6c0-0.4,0.1-1.3,0.1-1.8H-119c-1.8,0-3.5-0.7-4.5-2.1c-1.1-1.4-1.5-3.2-1.1-4.9l13-52.9L-134.1,72.6
					L-134.1,72.6z"/>
			</g>
		</g>
	</g>
</g>
</svg>
