<?xml version="1.0" encoding="utf-8"?>
<!-- Generator: Adobe Illustrator 25.0.1, SVG Export Plug-In . SVG Version: 6.00 Build 0)  -->
<svg version="1.1" id="Layer_1" xmlns="http://www.w3.org/2000/svg" xmlns:xlink="http://www.w3.org/1999/xlink" x="0px" y="0px"
	 viewBox="0 0 237.3 217.9" style="enable-background:new 0 0 237.3 217.9;" xml:space="preserve">
<style type="text/css">
	.st0{fill:#E86166;stroke:#E86166;stroke-miterlimit:10;}
	.st1{fill:#FFFFFF;}
	.st2{fill:#163847;}
	.st3{opacity:0.4;fill:none;stroke:#FFFFFF;stroke-width:2;}
</style>
<g id="frida">
	<g id="frida1">
		<path class="st0" d="M18.7,94.4c-15.3,57.9,31.9,120.9,93.4,121.8c58.7,3.2,112.1-55.1,100.4-116.9c17.7-29.3,25.3-60.9,23.7-91.8
			c-18.4,0.5-54.5,13.9-69,25.7C143.7,18.4,76.6,26.3,63.6,30C52.3,20.6,27.7,8.9,12.9,6C4.2,2.3,0.7,6,3.1,17.8
			C4.1,52.3,7.5,65.8,18.7,94.4z"/>
	</g>
</g>
<path id="Ellipse" class="st1" d="M38,116.9c-5.1-16.5,4.1-34.2,20.6-39.7c16.7-5.2,36,4.5,41,20.7c5,16.3-5.4,30.9-22.2,36.1
	C60.8,139.6,43,133.2,38,116.9z"/>
<path id="Ellipse-2" class="st1" d="M135.5,113.2c-4.5-15.1,6.6-28.4,21.7-33.1c15.1-4.6,35.8-0.9,40.5,14.1
	c4.6,15-4.7,34.2-19.8,38.9C162.8,137.7,140,128.1,135.5,113.2z"/>
<g id="Group-3">
	<g id="Group-4">
		<path id="Shape" class="st1" d="M99.8,99.6c0,1.3-0.2,2.4-0.4,3.6c-0.1,1.5,0.4,3.2,0.3,4.6c-0.1,2-0.8,2.6-1.5,4.5
			c-0.7,1.8-0.5,3.9-1.5,5.7c-1.1,1.8-3.4,3.6-4.6,5.2c-0.5,0.6-2.1,3.6-2.7,4c-0.6,0.5-1.5-0.1-2,0.2c-1,0.6-2.3,1.5-3.3,2.2
			c-1.8,1.4-4.3,3.6-6.4,4.1c-1.3,0.2-2.4,0.2-3.6,0c-1.9,0-3.6,0.8-5.2,1c-3.2,0.1-6.5-0.1-9.6-0.8c-3.6-0.9-6.1-4.3-8.9-6.1
			c-2.4-1.5-3.8-2-5.7-4.2c-0.8-0.8-3.2-2.4-3.6-3.3c-0.6-1.4-0.4-4.1-1-5.5c-1.7-4.3-2.7-4.9-2-9.6c0.5-3.1,1.7-5.5,2.4-8.8
			c1-3.6,1-5,3.6-7.8c1-1,1-1.5,2.2-2.6c1.3-1,3.2-1.5,4.5-2.4c1.8-1.4,1.8-3.1,4.6-3.9c1.4-0.4,2.8-0.6,4.2-0.9
			c1.3-0.3,2.4-0.4,3.6-0.6c2-0.1,3.6,0.9,5.2,0.8c2,0,3.2-0.9,5.4-0.5c0.6,0.1,1,1.4,1.5,1.5c0.6,0.2,1.7-0.6,2.4-0.4
			c2.9,1.1,5.7,2.4,8.4,4.1c1.6,0.9,4.1,1.1,5.4,2.6c1,1.1,1.7,2.3,2.4,3.6c0.3,0.5,1.5,0.4,1.8,0.8c0.5,0.6-0.3,2.1,0.2,2.8
			c0.5,0.6,1.5,0.5,1.8,1C98.7,96.2,99.5,97.8,99.8,99.6L99.8,99.6z"/>
	</g>
	<g id="Group-5">
		<path id="Shape-2" class="st2" d="M70.8,105.4c0.2,0.6-1.5,4.3-1.9,5c-1.8,2.6-3.1,2.4-5.4,2.7c-2.4,0.2-6.9-1.5-7.1-5
			c-0.2-2,3.2-7.3,5.2-7.7c2.6-0.6,2.9,1.5,4.6,2.4C68.3,103.6,70.2,102.3,70.8,105.4L70.8,105.4z"/>
	</g>
	<g id="Group-6">
		<path id="Shape-3" class="st1" d="M198.2,97.5c0.4,1.4-0.4,5.6-0.4,7.3c-0.1,2.3-0.4,4.6-1,6.9c-1,2.8-2.3,6.4-4.2,8.4
			c-1.4,1.5-2.8,2.7-3.9,4c-1.1,1.4-0.4,1.9-2.4,3.3c-1,0.1-1.7,0.2-2.7,0.3c-0.4,0.6-0.6,1.3-0.6,1.9c-1.4,0.8-2.7,1.4-4.1,1.6
			c-3.2,0.4-5.5,2-9.2,2.2c-5.6,0.4-9.2-2-14.6-3.7c-7-2.3-16.6-8.6-19.4-16.3c-0.6-2.4-0.9-4.7-0.9-7.3c-0.1-2.8,0.9-2.2,1.4-4.5
			c0.5-2-0.5-2.4,0.6-4.6c1-1.7,2.1-3.2,3.6-4.6c1.1-1.3,2-4.2,3.1-5c1.7-1.5,3.7-1.7,5.1-2.8c3.1-2.2,5.6-3.1,9.3-4.3
			c4.3-1.5,7.8-1.4,12.9-1.1c3.9,0.2,5.7,0.2,9.1,2.1c2,1.3,4.3,0.4,5.9,1.1c0.5,0.8,1,1.5,1.4,2.4c0.9,1,1.9,1.5,3.2,1.6
			c3.2,1.8,6.5,6.9,7.4,10.6L198.2,97.5z"/>
	</g>
	<g id="Group-7">
		<path id="Shape-4" class="st2" d="M180.9,98.7c1,3.4-5,6.9-7.4,7c-2.9,0.2-5.5-1.5-5-5c0.3-2,1.6-3.9,3.6-4.6
			C173.4,95.5,180.4,96.7,180.9,98.7L180.9,98.7z"/>
	</g>
	<g id="Group-8">
		<path id="Shape-5" class="st2" d="M99.3,130.3c4.6-2.2,5.6-2.4,13.7-3.8c8-1.4,10.3-0.4,13-0.2c4.6,0.3,14.7,4.5,16.9,6.4
			c0.6,0.2,3.8,5.1,0.8,7.1c-3.1,1.9-6.4,0.6-12.9,0.6c-6.4,0.1-9.7,0-13.5,0.4c-2.6,0.3-5.2,0.4-7.8,0.4c-2.4,0-3.9,0.2-6.3,0.2
			c-1.6,0-3.7,0.1-6.3,0c-2,0.1-3.9-1.4-4.2-3.3C92.2,135.9,94.6,132.5,99.3,130.3z"/>
	</g>
	<g id="Group-9">
		<path id="Shape-6" class="st2" d="M151.3,158.8c-1.6,1.9-3.7,4.6-5.9,5.8c-1.4,0.9-2.6,1.5-4.1,2.1c-4.1,1.4-5.5,1.9-10.1,0.9
			c-2.4-0.6-4.9-1.5-7.1-2.8c-3.1-1.7-5.2-5.6-7.8-8.3c-1.8-1.8-3.1-2-4.2-4.9c-0.6-1.5-0.1-3.4-1.1-5.2c-1.6-3.1-1.5-3.4-1.8-7.3
			c-0.2-2.1-1.7-4.5-1.4-6.4c0.4-1.7,0.3-3.6,2.1-5c1.1-0.3,2.3-0.6,3.4-1c1.5-0.2,1.5-0.8,3.7,0c2.1,0.8,1.4,0.5,2.9,2.3
			c1.8,2.2,1.8,2.8,1.5,6c-0.3,2.7-0.1,5.4,0.5,8.1c0.8,4.3,3.9,9.1,7.3,12.9c3.4,3.7,6.6,3.4,6.9,3.4c1.8-0.1,3.6-0.6,5.2-1.4
			c2.4-1.3,2.6-2,4.3-3.3c1.1-0.9,2.4-1.9,4-1.4C151.6,153.9,152.5,157.2,151.3,158.8L151.3,158.8z"/>
	</g>
	<g id="Group-10">
		<path id="Shape-7" class="st2" d="M107.8,157.9c3.1-4.3,0.4-16.4,1.8-20.6c1-2.4,6.9,1.4,9.5,2.4c3.8,1.5,3.1,7.3,2.8,10.2
			c-0.5,5.4-1.4,8.8-5,12.1c-3.2,3.2-7.1,5.1-11.4,5.9c-3.1,0.6-8.4-0.8-11.5-3.2c-1.5-1.3-3.8-3.4-3.8-5.2l0,0
			c-0.1-1.8,1.8-4.5,5-2.4C95.5,157.6,101.9,163.9,107.8,157.9z"/>
	</g>
</g>
<path id="Ellipse-2-2" class="st2" d="M50.9,112.4c-3.1-10.1,2.5-20.5,12.3-24c10.1-3.1,20.5,2.5,23.6,12.6
	c3.1,10.1-2.5,20.5-12.3,24C64.8,127.9,53.9,122.5,50.9,112.4C51.1,112.4,51.1,112.4,50.9,112.4z"/>
<path id="Ellipse-2-3" class="st2" d="M152.4,111.9c-3.1-10.2,2.6-20.8,12.4-24.3c10.2-3.1,20.8,2.6,23.9,12.8l0,0
	c3.1,10.2-2.6,20.8-12.4,24.3l0,0C166.1,128.2,155.4,122.3,152.4,111.9L152.4,111.9z"/>
<path id="New-shape-6" class="st3" d="M57.1,103.6c0,0,0.2-7.3,13.2-9.1"/>
<path id="New-shape-7" class="st3" d="M159.7,106.2c0,0,0.2-9.9,12.5-12.4"/>
<path class="st0" d="M59.7,97.4"/>
</svg>
