<?xml version="1.0" encoding="utf-8"?>
<!-- Generator: Adobe Illustrator 25.0.1, SVG Export Plug-In . SVG Version: 6.00 Build 0)  -->
<svg version="1.1" id="Layer_1" xmlns="http://www.w3.org/2000/svg" xmlns:xlink="http://www.w3.org/1999/xlink" x="0px" y="0px"
	 viewBox="0 0 417.7 63" style="enable-background:new 0 0 417.7 63;" xml:space="preserve">
<style type="text/css">
	.st0{fill:#007177;}
</style>
<g>
	<path class="st0" d="M32.4,9v10.3H13.7v5.5h13.5v10.3H13.7V51H3V9H32.4z"/>
	<path class="st0" d="M69.4,51H57.8l-6.8-13.1h-4.6V51H36V9h15c10.7,0,15,4.6,15,14.4c0,5.7-1.3,9.4-5,12.1L69.4,51z M46.4,19.4v8.1
		h4.9c2.9,0,4.3-0.4,4.3-4.1s-1.4-4.1-4.3-4H46.4z"/>
	<path class="st0" d="M101.6,9v10.3H83.5v5.5h12.9v10.3H83.5v5.5h18.1V51H72.8V9H101.6z"/>
	<path class="st0" d="M135,9v10.3h-18.1v5.5h12.9v10.3h-12.9v5.5H135V51h-28.8V9H135z"/>
	<path class="st0" d="M167.2,19.3h-12V9h34.3v10.3h-12V51h-10.3V19.3z"/>
	<path class="st0" d="M203.5,9v18.6h9.4V9h10.3v42h-10.3V37.9h-9.4V51h-10.3V9H203.5z"/>
	<path class="st0" d="M257.9,9v10.3h-18.1v5.5h12.9v10.3h-12.9v5.5h18.1V51h-28.8V9H257.9z"/>
	<path class="st0" d="M295.7,9c11.3,0,15,4.6,15,14.4v13.1c0,9.8-3.7,14.5-15,14.5h-15.2V9H295.7z M295.9,40.7
		c2.9,0,4.3-0.5,4.3-4.1c0-0.1,0-13.1,0-13.2c0-3.7-1.4-4.1-4.3-4.1h-5v21.4H295.9z"/>
	<path class="st0" d="M345.2,51h-10.3v-8.8h-8.8V51h-10.3V23.5c0-7.6,1.2-15.6,14.7-15.6c13.5,0,14.7,8,14.7,15.6V51z M334.9,23.5
		c0-2.9-0.4-4.3-4.4-4.3s-4.4,1.4-4.4,4.3v8.3h8.8V23.5z"/>
	<path class="st0" d="M359.3,19.3h-12V9h34.3v10.3h-12V51h-10.3V19.3z"/>
	<path class="st0" d="M415,51h-10.3v-8.8h-8.8V51h-10.3V23.5c0-7.6,1.2-15.6,14.7-15.6c13.5,0,14.7,8,14.7,15.6V51z M404.6,23.5
		c0-2.9-0.4-4.3-4.4-4.3s-4.4,1.4-4.4,4.3v8.3h8.8V23.5z"/>
</g>
</svg>
