<?xml version="1.0" encoding="utf-8"?>
<!-- Generator: Adobe Illustrator 25.0.1, SVG Export Plug-In . SVG Version: 6.00 Build 0)  -->
<svg version="1.1" id="Layer_1" xmlns="http://www.w3.org/2000/svg" xmlns:xlink="http://www.w3.org/1999/xlink" x="0px" y="0px"
	 viewBox="0 0 716.9 208.5" style="enable-background:new 0 0 716.9 208.5;" xml:space="preserve">
<style type="text/css">
	.st0{fill-rule:evenodd;clip-rule:evenodd;fill:#B3B3B4;}
	.st1{fill-rule:evenodd;clip-rule:evenodd;fill:#F0F0F0;}
	.st2{fill-rule:evenodd;clip-rule:evenodd;fill:#464647;}
	.st3{fill:none;stroke:#464647;stroke-width:3.8352;stroke-linecap:round;stroke-linejoin:round;stroke-miterlimit:1.4382;}
	.st4{fill-rule:evenodd;clip-rule:evenodd;fill:#FFFFFF;}
	.st5{fill:none;stroke:#464647;stroke-width:8;stroke-miterlimit:10;}
</style>
<g>
	<g>
		<g>
			<path class="st0" d="M351,54.8c0,0-1.9-0.4-4.4-0.7c-0.9-0.1-2-0.2-2.9-0.2s-2,0.1-2.9,0.3c-2.5,0.3-4.4,0.7-4.4,0.7
				c-0.5,0-0.9,0.4-0.9,0.9c0,0.5,0.4,0.9,0.9,0.9c0,0,1.9,0.4,4.4,0.7c0.9,0.1,2,0.3,2.9,0.3s2-0.1,2.9-0.2
				c2.5-0.3,4.4-0.7,4.4-0.7c0.5,0,0.9-0.4,0.9-0.9C351.9,55.1,351.5,54.8,351,54.8L351,54.8z"/>
			<path class="st1" d="M347,55.3c0,0-0.9-0.2-2-0.3c-0.5-0.1-0.9-0.1-1.3-0.1s-0.9,0.1-1.3,0.1c-1.1,0.1-2,0.3-2,0.3
				c-0.2,0-0.4,0.2-0.4,0.4c0,0.2,0.2,0.4,0.4,0.4c0,0,0.9,0.2,2,0.3c0.5,0.1,0.9,0.1,1.3,0.1c0.5,0,0.9-0.1,1.3-0.1
				c1.1-0.1,2-0.3,2-0.3c0.2,0,0.4-0.2,0.4-0.4C347.4,55.5,347.2,55.3,347,55.3L347,55.3z"/>
			<path class="st2" d="M366.4,51.7c0,0.7,0.3,1.4,0.9,1.9c0.6,0.5,1.3,0.7,2,0.5c1.3-0.3,2.8-0.7,3.5-0.9c1.4-0.7,3.8-1.2,5.5-0.4
				l0,0c0.2,0.1,0.4,0.3,0.6,0.4l4.4,2.8c0.2,0.1,0.3,0.3,0.3,0.5c0,0.2-0.2,0.4-0.4,0.5l-2.1,0.5c-0.4,0.1-2.1,0.7-2.5,0.8
				c-3.5,1.3-7.7,3.3-7.7,3.3c-1.3,0.6-2.6,0.9-4,0.9h-5.7c-0.5,0-1-0.1-1.5-0.1l0,0c-0.5-0.1-0.9-0.2-1.3-0.3l-12-2.9
				c-0.3-0.1-0.4-0.3-0.4-0.5l0,0c0-0.2-0.1-0.4-0.3-0.5c-0.4-0.2-1-0.4-1.4-0.6c-0.2-0.1-0.4-0.3-0.4-0.5c0-0.7,0-1.9,0-2.5
				c0-0.3,0.2-0.5,0.4-0.5c0.4-0.2,1-0.4,1.4-0.6c0.2-0.1,0.4-0.3,0.4-0.5l0,0c0-0.3,0.3-0.6,0.6-0.6c0,0,2.3-0.1,4-0.1
				c0.9,0,1.7-0.7,2-1.6c2.1-10.6,10.2-14.7,13.3-16c0.3-0.1,0.5-0.1,0.7,0.2c0.1,0.1,0.2,0.3,0.2,0.4l0,0l0,0c0,0.1,0,0.1,0,0.1
				L366.4,51.7L366.4,51.7z"/>
			<path class="st0" d="M357.9,61.8l3.9-3.9c0.1-0.1,0.3-0.2,0.5-0.2h11.2c0.4,0,0.7,0.3,0.7,0.7v1.5c-0.5,0.2-1,0.5-1.4,0.7v-1.4
				h-10.2l-3.2,3.2c-0.5-0.1-0.8-0.2-1.2-0.3L357.9,61.8L357.9,61.8z M380.2,54l2.1,1.4c-0.1,0-0.1,0-0.1,0h-5.1
				c-0.4,0-0.7-0.3-0.7-0.7c0-0.4,0.3-0.7,0.7-0.7L380.2,54L380.2,54z M362,36.4l2.4,2.4c0.7-0.5,1.3-0.9,2-1.2v1.6
				c-3.2,2-7.6,5.7-9.4,12.7c0,0.1-0.1,0.1-0.1,0.2l0,0c-0.1,0.1-0.1,0.1-0.1,0.2c-0.1,0.1-0.2,0.2-0.3,0.2l0,0
				c-0.1,0.1-0.3,0.1-0.4,0c-0.1,0-0.1-0.1-0.2-0.1l0,0c-0.1-0.1-0.1-0.1-0.2-0.1l-3.2-3.2c0.2-0.5,0.3-1,0.5-1.5l2.9,2.9
				c0.4-1.2,0.8-2.3,1.3-3.4l-2.8-2.8c0.3-0.5,0.5-0.8,0.7-1.3l2.7,2.7c0.7-1.1,1.3-2,2-2.9l-2.6-2.6c0.3-0.4,0.7-0.7,0.9-1l2.6,2.6
				c0.8-0.9,1.7-1.6,2.5-2.3l-2.5-2.5C361.3,36.9,361.6,36.7,362,36.4z"/>
			<circle class="st0" cx="354.6" cy="58.2" r="1"/>
			<ellipse class="st0" cx="351" cy="58.2" rx="1" ry="1"/>
		</g>
		<g>
			<path class="st2" d="M336.3,51.6c-0.1,0.1-0.3,0.2-0.4,0.2c-0.3-0.1-0.7-0.1-1-0.1c-0.2-0.1-0.3-0.2-0.3-0.4
				c0.1-0.4,0.1-1,0.2-1.5c0-0.1,0.1-0.3,0.2-0.3c0.1-0.1,0.3-0.1,0.4,0c0.4,0.3,1,0.6,1.3,0.7c0.1,0.1,0.2,0.1,0.2,0.3
				c0.1,0.1,0,0.2-0.1,0.3C336.6,51,336.4,51.4,336.3,51.6L336.3,51.6z"/>
			<path class="st2" d="M375.3,65.5c-0.1,0.2-0.2,0.3-0.3,0.3s-0.4,0.1-0.6,0.1c-0.2,0-0.4-0.1-0.4-0.3c-0.1-0.3-0.1-0.6-0.1-0.8
				c0-0.1,0.1-0.3,0.1-0.3c0.1-0.1,0.3-0.1,0.4-0.1c0.3,0.1,0.6,0.2,0.8,0.3c0.1,0.1,0.2,0.1,0.3,0.2c0.1,0.1,0.1,0.2,0.1,0.3
				C375.4,65.2,375.3,65.4,375.3,65.5z"/>
			<path class="st2" d="M330.8,47.6c-0.2,0-0.3-0.1-0.3-0.3c-0.1-0.2-0.2-0.4-0.2-0.5c-0.1-0.2,0-0.4,0.2-0.5
				c0.3-0.1,0.5-0.3,0.7-0.4c0.1-0.1,0.3-0.1,0.4,0.1c0.1,0.1,0.2,0.2,0.2,0.3c0,0.3,0,0.6,0,0.9c0,0.1-0.1,0.2-0.1,0.3
				c-0.1,0.1-0.2,0.1-0.3,0.1C331.2,47.6,331,47.6,330.8,47.6z"/>
			<path class="st2" d="M369.5,69.8c0.1-0.1,0.1-0.1,0.1-0.1c0.1,0,0.1,0,0.2,0.1c0.3,0.3,0.9,0.7,1.3,1.1c0.1,0.1,0.1,0.1,0.1,0.2
				c0,0.1-0.1,0.1-0.2,0.2c-0.6,0.1-1.5,0.4-2.1,0.6c-0.1,0-0.2,0-0.2-0.1c-0.1-0.1-0.1-0.2-0.1-0.2
				C368.9,70.9,369.3,70.2,369.5,69.8L369.5,69.8z"/>
			<path class="st2" d="M354.8,67.5c0,0.1-0.1,0.1-0.1,0.2c-0.1,0.1-0.1,0.1-0.2,0.1c-0.3-0.1-0.7-0.3-1.1-0.3
				c-0.1-0.1-0.1-0.1-0.1-0.2s0-0.2,0.1-0.2c0.3-0.3,0.8-0.6,1.1-0.9c0.1-0.1,0.2-0.1,0.2,0c0.1,0.1,0.1,0.1,0.1,0.2
				C354.8,66.7,354.8,67.2,354.8,67.5z"/>
			<path class="st2" d="M342.6,40.5c-0.1-0.1-0.1-0.1-0.1-0.2c0-0.1,0.1-0.1,0.1-0.2c0.4-0.2,1-0.7,1.4-0.9c0.1-0.1,0.2-0.1,0.2,0
				c0.1,0.1,0.1,0.1,0.1,0.2c-0.1,0.6-0.1,1.6-0.1,2.1c0,0.1-0.1,0.2-0.1,0.2c-0.1,0.1-0.2,0-0.2-0.1
				C343.5,41.3,342.9,40.8,342.6,40.5z"/>
		</g>
	</g>
	<path class="st3" d="M261,81.6v120.8H140c0-66.6,54.1-120.8,120.8-120.8L261,81.6L261,81.6z"/>
	<g>
		<path class="st2" d="M203.3,182.1c-0.7,0-1.4,0.3-1.4,1.5s0.7,3,1.4,3c0.7,0,1.4-1.7,1.4-3C204.7,182.4,204.1,182.1,203.3,182.1z"
			/>
		<path class="st2" d="M199.5,183.6c0.6-0.6,1.2-0.8,2.1,0.1c0.9,0.9,1.7,2.5,1.1,3.1c-0.6,0.6-2.2-0.3-3.1-1.1
			C198.7,184.7,198.9,184.1,199.5,183.6z"/>
		<path class="st2" d="M197.2,196.1c0.6,0.6,1.2,0.8,2.1-0.1c0.9-0.9,1.7-2.5,1.1-3.1c-0.6-0.6-2.2,0.3-3.1,1.1
			C196.4,195,196.6,195.6,197.2,196.1z"/>
		<path class="st2" d="M208.6,187.4c0,0.7-0.3,1.4-1.5,1.4c-1.2,0-3-0.7-3-1.4c0-0.7,1.7-1.4,3-1.4
			C208.4,186,208.6,186.6,208.6,187.4z"/>
		<path class="st2" d="M206.6,195.8c-0.3-0.5-0.6-0.9-0.9-1.3c-0.3-0.3-0.5-0.5-0.7-0.7c-0.7-0.7-1-1.5-1-2.5c0-1.3,0-2.7,0-2.7
			c0-0.4-0.3-0.7-0.7-0.7c-0.5,0-0.7,0.3-0.7,0.7c0,0,0,1.5,0,2.7c0,1.3,0.5,2.5,1.4,3.4c0.3,0.3,0.5,0.5,0.7,0.7
			c0.7,0.7,1,1.5,1,2.5v2.9c0,0.4,0.3,0.7,0.7,0.7c0.4,0,0.7-0.3,0.7-0.7v-2.1l1.9-3.2c0.1-0.2,0.1-0.5-0.1-0.7
			c-0.2-0.2-0.5-0.2-0.7-0.1L206.6,195.8L206.6,195.8z"/>
		<circle class="st2" cx="203.3" cy="187.4" r="1.4"/>
	</g>
	<path class="st2" d="M192.5,201.5v-2.5c0-0.4,0.3-0.7,0.7-0.7c0.5,0,0.7,0.3,0.7,0.7v2.5c0,0.4-0.3,0.7-0.7,0.7
		C192.8,202.2,192.5,201.9,192.5,201.5z"/>
	<path class="st2" d="M158.2,201.5v-2.5c0-0.4,0.3-0.7,0.7-0.7s0.7,0.3,0.7,0.7v2.5c0,0.4-0.3,0.7-0.7,0.7
		C158.6,202.2,158.2,201.9,158.2,201.5z"/>
	<path class="st2" d="M189.7,201.5v-4.9c0-0.4,0.3-0.7,0.7-0.7s0.7,0.3,0.7,0.7v4.9c0,0.4-0.3,0.7-0.7,0.7S189.7,201.9,189.7,201.5z
		"/>
	<g>
		<path class="st2" d="M176.7,174.5c-0.2,0.2-0.5,0.3-0.8,0.1c-0.3-0.1-0.5-0.4-0.5-0.7c0-4.3,0-15.5,0-20.2c0-0.3-0.2-0.6-0.5-0.7
			c-0.3-0.1-0.7,0-0.8,0.3c-0.3,0.4-0.6,0.7-0.8,1.1c-0.2,0.3-0.5,0.3-0.7,0.3c-0.3-0.1-0.5-0.3-0.6-0.5c-0.4-1.3-1-3.1-1.3-4.2
			c-0.1-0.3-0.3-0.5-0.6-0.5c-0.3-0.1-0.6,0.1-0.7,0.3c-0.3,0.6-0.6,1.2-0.6,1.9v9.2c0,0.3-0.2,0.5-0.4,0.7
			c-0.3,0.1-0.5,0.1-0.7-0.1l0,0c-1.1-0.9-2.1-1.6-3-2.2c-0.1-0.1-0.3-0.1-0.4-0.1c-0.4-0.1-1.1-0.1-1.7-0.2
			c-0.3-0.1-0.5,0.1-0.7,0.3c-0.2,0.2-0.2,0.5-0.2,0.7c0.3,0.9,0.6,2.1,0.7,2.5c0.1,0.1,0.1,0.2,0.1,0.3c0.5,0.7,1.1,1.5,1.7,2.2
			c0.6,0.7,1.1,1.4,1.8,2.1c0.9,1,1.8,2,2.5,2.7c0.1,0.1,0.2,0.3,0.2,0.5c0,3.2,0,31.5,0,31.5c0,0.1,6.6,0.1,6.6,0v-17.9
			c0-0.2,0.1-0.4,0.2-0.5c1.2-1.3,3-3.1,4.8-5c0.9-0.9,1.8-2,2.6-2.9c0.9-1,1.7-2,2.3-2.9c0.1-0.1,0.1-0.2,0.2-0.3s0.1-0.4,0.1-0.6
			c0.1-0.3-0.1-0.7-0.3-0.8s-0.6-0.2-0.8,0.1c-0.4,0.3-0.8,0.6-1.2,0.9c-0.2,0.2-0.5,0.2-0.7,0.1c-0.3-0.1-0.4-0.4-0.3-0.6l0,0
			c0-0.3-0.1-0.5-0.4-0.7c-0.3-0.1-0.5-0.1-0.7,0.1c-0.6,0.5-1.1,0.9-1.7,1.4c-1,0.8-2,1.8-2.9,2.6
			C176.8,174.4,176.7,174.4,176.7,174.5L176.7,174.5z"/>
		<path class="st2" d="M175.6,183.1l-2.8,2.9c-0.3,0.3-0.3,0.7,0.1,1c0.3,0.3,0.7,0.3,1-0.1l1.7-1.7v-1.7
			C175.4,183.4,175.5,183.3,175.6,183.1L175.6,183.1z"/>
		<path class="st0" d="M172.2,196.6v-1.5c0-0.4,0.3-0.7,0.7-0.7s0.7,0.3,0.7,0.7v1.5c0,0.4-0.3,0.7-0.7,0.7
			C172.5,197.3,172.2,197,172.2,196.6z"/>
		<path class="st0" d="M172.2,168v-0.5c0-0.4,0.3-0.7,0.7-0.7s0.7,0.3,0.7,0.7v0.5c0,0.4-0.3,0.7-0.7,0.7S172.2,168.4,172.2,168z"/>
		<path class="st0" d="M170.4,191.8v-0.6c0-0.4,0.3-0.7,0.7-0.7c0.5,0,0.7,0.3,0.7,0.7v0.5c0,0.4-0.3,0.7-0.7,0.7
			S170.4,192.1,170.4,191.8z"/>
	</g>
	<g>
		<path class="st2" d="M223.7,194.4c0,0.1,0.1,0.2,0.1,0.3l1.4,4.8h-5.8l0.6-5.1H223.7L223.7,194.4z"/>
		<path class="st2" d="M241.1,159.1l1.4-0.5c0.4-0.1,0.6-0.5,0.5-0.9s-0.5-0.6-0.9-0.5l-1.4,0.5c-0.4,0.1-0.6,0.5-0.5,0.9
			C240.4,159,240.8,159.2,241.1,159.1z"/>
		<path class="st2" d="M249.4,143l1.4-0.5c0.4-0.1,0.6-0.5,0.5-0.9c-0.1-0.4-0.5-0.6-0.9-0.5l-1.4,0.5c-0.4,0.1-0.6,0.5-0.5,0.9
			C248.7,142.9,249,143.1,249.4,143z"/>
		<path class="st2" d="M243.7,160.9l0.7-0.2c0.4-0.1,0.6-0.5,0.5-0.9c-0.1-0.4-0.5-0.6-0.9-0.5l-0.7,0.2c-0.4,0.1-0.6,0.5-0.5,0.9
			C242.9,160.8,243.3,161,243.7,160.9z"/>
		<path class="st2" d="M245.2,155.3l0.7-0.2c0.4-0.1,0.6-0.5,0.5-0.9c-0.1-0.4-0.5-0.6-0.9-0.5l-0.7,0.2c-0.4,0.1-0.6,0.5-0.5,0.9
			C244.4,155.2,244.8,155.4,245.2,155.3z"/>
		<path class="st2" d="M245.2,142l0.7-0.2c0.4-0.1,0.6-0.5,0.5-0.9c-0.1-0.4-0.5-0.6-0.9-0.5l-0.7,0.2c-0.4,0.1-0.6,0.5-0.5,0.9
			C244.4,141.9,244.8,142.1,245.2,142z"/>
		<path class="st2" d="M248.7,163.4l0.8-0.8c0.3-0.3,0.7-0.3,1-0.1c0.3,0.3,0.3,0.7,0.1,1c0,0-7.3,7.8-10.3,11.1
			c-0.7,0.7-0.9,1.8-0.7,2.7c1,4.2,3.4,14.1,3.9,16.2c0.1,0.2,0.1,0.4,0.3,0.6c0.7,1.2,3,5,3,5c0.1,0.2,0.1,0.5,0,0.7
			c-0.1,0.3-0.4,0.4-0.6,0.4h-5.6c-0.3,0-0.6-0.3-0.7-0.6c0,0-4.4-18.5-5.6-24c-0.3-1.1-0.1-2.3,0.6-3.4c1.4-2.3,4.2-6.7,4.2-6.7
			c0.2-0.3,0.7-0.5,0.9-0.3c0.2,0.1,0.3,0.3,0.3,0.4L248.7,163.4L248.7,163.4z"/>
		<path class="st2" d="M231.6,160.3c0.4-0.4,0.6-0.8,0.6-1.3v-6.8c-0.6,0.5-1.4,0.9-2.5,0.8c-3.4-0.3-3.4-3.5-3.4-3.9
			c0-5,3.7-9.6,8.5-10.4c0,0,20-3.7,23.6-4.4c0.4-0.1,0.8-0.1,1.2-0.1h6.6v1.4c-0.5,0-0.9,0.2-1.3,0.6c-0.5,0.4-0.9,1-1.3,1.8
			c-1.3,2.4-2.1,6.4-2.1,10.8c0,4.4,0.8,8.4,2.1,10.8c0.4,0.7,0.8,1.3,1.3,1.8c0.4,0.4,0.8,0.6,1.3,0.6c0.4,0,0.7,0.3,0.7,0.7
			c0,0.4-0.3,0.7-0.7,0.7h-14.4c-0.7,0-1.4,0.1-2.1,0.3c-4.6,1.5-21.6,6.9-21.6,6.9c-0.2,0.1-0.4,0.2-0.5,0.3
			c-0.5,0.3-0.7,0.8-0.8,1.3c-0.7,7.2-1.5,14.4-2.2,21.6c-0.1,0.3,0,0.6,0.1,0.9l1.4,4.8c0.1,0.2,0,0.5-0.1,0.6
			c-0.1,0.2-0.4,0.3-0.6,0.3h-5.8c-0.2,0-0.4-0.1-0.5-0.3s-0.2-0.4-0.2-0.6c0,0,2.9-26.1,3.6-32.3c0.1-1.1,0.7-2,1.7-2.5l4-2.2
			L231.6,160.3z M228.6,163.6l-4,2.2c-0.5,0.3-0.9,0.8-0.9,1.4l-3.5,31.6h4.1l-1.1-4c-0.1-0.5-0.2-0.9-0.1-1.4
			c0.7-7.2,1.5-14.4,2.2-21.6c0.1-0.9,0.6-1.8,1.3-2.3c0.3-0.2,0.6-0.4,0.9-0.5l0,0c0,0,17.1-5.4,21.6-6.9c0.8-0.3,1.7-0.4,2.5-0.4
			h11.8c-0.4-0.5-0.8-1-1.1-1.7c-1.4-2.6-2.3-6.8-2.3-11.5c0-4.7,0.9-8.9,2.3-11.5c0.4-0.7,0.7-1.2,1.1-1.7h-3.9
			c-0.3,0-0.7,0.1-0.9,0.1c-3.5,0.7-23.6,4.4-23.6,4.4c-4.2,0.8-7.4,4.7-7.4,9.1v0.1c0,0-0.2,2.3,2.1,2.5c1.9,0.1,2.3-1.7,2.4-2
			v-3.4c0-0.4,0.3-0.7,0.7-0.7s0.7,0.3,0.7,0.7V159c0,0.1,0,0.1,0,0.2l1.6-0.9c0.3-0.2,0.7-0.1,0.9,0.3c0.2,0.3,0.1,0.7-0.3,0.9
			l-3.4,2c-0.2,0.1-0.3,0.3-0.5,0.4L228.6,163.6L228.6,163.6z"/>
	</g>
	<g>
		<path class="st2" d="M251,203c-1.2-1.6-2-4-2-6.8c0-2.7,0.7-5.1,2-6.8c1.2-1.6,2-4,2-6.8s-0.7-5.1-2-6.8c-1.2-1.6-2-4-2-6.8
			c0-2.7,0.7-5.1,2-6.8c1.2-1.6,2-4,2-6.8s-0.7-5.1-2-6.8c-1.2-1.6-2-4-2-6.8s0.7-5.1,2-6.8c1.2-1.6,2-4,2-6.8c0-2.7-0.7-5.1-2-6.8
			c-1.2-1.6-2-4-2-6.8s0.7-5.1,2-6.8c1.2-1.6,2-4,2-6.8c0-2.7-0.7-5.1-2-6.8c-1.2-1.6-2-4-2-6.8c0-4.8,1.5-6.6,6.6-6.6
			c5.1,0,6.6,1.5,6.6,6.6c0,2.7,0.7,5.1,2,6.8c1.2,1.6,2,4,2,6.8c0,2.7-0.7,5.1-2,6.8c-1.2,1.6-2,4-2,6.8s0.7,5.1,2,6.8
			c1.2,1.6,2,4,2,6.8c0,2.7-0.7,5.1-2,6.8c-1.2,1.6-2,4-2,6.8s0.7,5.1,2,6.8c1.2,1.6,2,4,2,6.8c0,2.7-0.7,5.1-2,6.8
			c-1.2,1.6-2,4-2,6.8s0.7,5.1,2,6.8c1.2,1.6,2,4,2,6.8c0,2.7-0.7,5.1-2,6.8c-1.2,1.6-2,4-2,6.8c0,2.7,0.7,5.1,2,6.8H251L251,203z"
			/>
		<path class="st4" d="M251.3,135.3c-0.1,0.1-0.1,0.2-0.2,0.3c-0.3,0.3-0.5,0.7-0.7,1.1h0.7c1.3,0,2.4,1.1,3.4,2.8
			c1.4,2.6,2.3,6.9,2.3,11.6s-0.9,9-2.3,11.6c-0.9,1.8-2.1,2.8-3.4,2.8h-1.5c-0.1,0.5-0.3,0.9-0.3,1.4h1.8c1.7,0,3.4-1.2,4.6-3.5
			c1.5-2.8,2.5-7.3,2.5-12.3s-1-9.6-2.5-12.3C254.5,136.5,252.8,135.3,251.3,135.3L251.3,135.3z"/>
		<path class="st4" d="M257.2,165.4c1.5-2.5,2.6-6.4,3-10.8c0.1-0.4,0.4-0.7,0.7-0.7c0.4,0.1,0.7,0.4,0.7,0.7
			c-0.4,4.7-1.6,8.7-3.2,11.4c-0.2,0.3-0.7,0.5-0.9,0.3C257.1,166.2,257,165.7,257.2,165.4L257.2,165.4z"/>
		<path class="st4" d="M260.4,151.1c0-1-0.1-2-0.1-2.8c-0.1-0.4,0.3-0.7,0.7-0.7c0.4-0.1,0.7,0.3,0.7,0.7c0.1,0.9,0.1,2,0.1,2.9
			c0,0.4-0.3,0.7-0.7,0.7C260.7,151.9,260.4,151.5,260.4,151.1L260.4,151.1z"/>
		<path class="st4" d="M258.1,138.8c-0.3-0.7-0.6-1.3-0.9-1.9c-0.7-1.1-1.5-2.1-2.3-2.6c-0.3-0.3-0.4-0.7-0.2-1s0.7-0.4,1-0.2
			c1,0.7,1.9,1.7,2.7,3.1c0.4,0.6,0.7,1.3,1,2c0.2,0.4,0,0.7-0.4,0.9C258.7,139.3,258.3,139.1,258.1,138.8L258.1,138.8z"/>
		<path class="st4" d="M254.9,169.7c0,0-1.6,1-3.5,0.6c-0.4-0.1-0.7-0.5-0.6-0.8c0.1-0.4,0.5-0.7,0.8-0.6c1.4,0.3,2.5-0.4,2.5-0.4
			c0.3-0.2,0.7-0.1,0.9,0.3C255.3,169.1,255.2,169.5,254.9,169.7L254.9,169.7z"/>
		<path class="st4" d="M258.9,85.2v-0.5c0-0.4-0.3-0.7-0.7-0.7s-0.7,0.3-0.7,0.7v0.5H257c-0.4,0-0.7,0.3-0.7,0.7
			c0,0.4,0.3,0.7,0.7,0.7h0.5v0.5c0,0.4,0.3,0.7,0.7,0.7s0.7-0.3,0.7-0.7v-0.5h0.5c0.4,0,0.7-0.3,0.7-0.7s-0.3-0.7-0.7-0.7H258.9
			L258.9,85.2z"/>
		<path class="st4" d="M257.7,114.2v-0.5c0-0.4-0.3-0.7-0.7-0.7c-0.4,0-0.7,0.3-0.7,0.7v0.5h-0.5c-0.4,0-0.7,0.3-0.7,0.7
			s0.3,0.7,0.7,0.7h0.5v0.5c0,0.4,0.3,0.7,0.7,0.7c0.4,0,0.7-0.3,0.7-0.7v-0.5h0.5c0.4,0,0.7-0.3,0.7-0.7c0-0.4-0.3-0.7-0.7-0.7
			H257.7L257.7,114.2z"/>
		<path class="st4" d="M262.2,129.5V129c0-0.4-0.3-0.7-0.7-0.7c-0.4,0-0.7,0.3-0.7,0.7v0.5h-0.5c-0.4,0-0.7,0.3-0.7,0.7
			s0.3,0.7,0.7,0.7h0.5v0.5c0,0.4,0.3,0.7,0.7,0.7c0.4,0,0.7-0.3,0.7-0.7v-0.5h0.5c0.4,0,0.7-0.3,0.7-0.7s-0.3-0.7-0.7-0.7H262.2
			L262.2,129.5z"/>
		<path class="st4" d="M261.9,179.3v-0.5c0-0.4-0.3-0.7-0.7-0.7c-0.4,0-0.7,0.3-0.7,0.7v0.5H260c-0.4,0-0.7,0.3-0.7,0.7
			s0.3,0.7,0.7,0.7h0.5v0.5c0,0.4,0.3,0.7,0.7,0.7c0.4,0,0.7-0.3,0.7-0.7v-0.5h0.5c0.4,0,0.7-0.3,0.7-0.7s-0.3-0.7-0.7-0.7H261.9z"
			/>
		<path class="st4" d="M254.1,199.1v-0.5c0-0.4-0.3-0.7-0.7-0.7s-0.7,0.3-0.7,0.7v0.5h-0.5c-0.4,0-0.7,0.3-0.7,0.7s0.3,0.7,0.7,0.7
			h0.5v0.5c0,0.4,0.3,0.7,0.7,0.7s0.7-0.3,0.7-0.7v-0.5h0.5c0.4,0,0.7-0.3,0.7-0.7s-0.3-0.7-0.7-0.7H254.1z"/>
		<path class="st4" d="M256.9,90v-0.1c0-0.4-0.3-0.7-0.7-0.7c-0.4,0-0.7,0.3-0.7,0.7V90h-0.1c-0.4,0-0.7,0.3-0.7,0.7
			s0.3,0.7,0.7,0.7h0.1v0.1c0,0.4,0.3,0.7,0.7,0.7c0.4,0,0.7-0.3,0.7-0.7v-0.1h0.1c0.4,0,0.7-0.3,0.7-0.7c0-0.4-0.3-0.7-0.7-0.7
			H256.9z"/>
		<path class="st4" d="M261.6,106.6v-0.1c0-0.4-0.3-0.7-0.7-0.7c-0.4,0-0.7,0.3-0.7,0.7v0.1h-0.1c-0.4,0-0.7,0.3-0.7,0.7
			s0.3,0.7,0.7,0.7h0.1v0.1c0,0.4,0.3,0.7,0.7,0.7c0.4,0,0.7-0.3,0.7-0.7V108h0.1c0.4,0,0.7-0.3,0.7-0.7c0-0.4-0.3-0.7-0.7-0.7
			H261.6z"/>
		<path class="st4" d="M255.5,121.3v-0.1c0-0.4-0.3-0.7-0.7-0.7c-0.4,0-0.7,0.3-0.7,0.7v0.1H254c-0.4,0-0.7,0.3-0.7,0.7
			c0,0.4,0.3,0.7,0.7,0.7h0.1v0.1c0,0.4,0.3,0.7,0.7,0.7c0.4,0,0.7-0.3,0.7-0.7v-0.2h0.1c0.4,0,0.7-0.3,0.7-0.7
			C256.3,121.5,255.9,121.3,255.5,121.3L255.5,121.3z"/>
		<path class="st4" d="M255.9,174v-0.1c0-0.4-0.3-0.7-0.7-0.7s-0.7,0.3-0.7,0.7v0.1h-0.1c-0.4,0-0.7,0.3-0.7,0.7
			c0,0.4,0.3,0.7,0.7,0.7h0.1v0.1c0,0.4,0.3,0.7,0.7,0.7s0.7-0.3,0.7-0.7v-0.1h0.1c0.4,0,0.7-0.3,0.7-0.7c0-0.4-0.3-0.7-0.7-0.7
			H255.9z"/>
		<path class="st4" d="M258.3,192.6v-0.1c0-0.4-0.3-0.7-0.7-0.7s-0.7,0.3-0.7,0.7v0.1h-0.1c-0.4,0-0.7,0.3-0.7,0.7s0.3,0.7,0.7,0.7
			h0.1v0.1c0,0.4,0.3,0.7,0.7,0.7s0.7-0.3,0.7-0.7V194h0.1c0.4,0,0.7-0.3,0.7-0.7s-0.3-0.7-0.7-0.7H258.3z"/>
		<path class="st4" d="M258.2,101.9v-0.1c0-0.4-0.3-0.7-0.7-0.7c-0.4,0-0.7,0.3-0.7,0.7v0.1h-0.1c-0.4,0-0.7,0.3-0.7,0.7
			s0.3,0.7,0.7,0.7h0.1v0.1c0,0.4,0.3,0.7,0.7,0.7c0.4,0,0.7-0.3,0.7-0.7v-0.1h0.1c0.4,0,0.7-0.3,0.7-0.7c0-0.4-0.3-0.7-0.7-0.7
			H258.2z"/>
	</g>
	<g>
		<path class="st2" d="M304.8,146v1.2c0,1.6-1.3,2.9-2.9,2.9c-0.9,0-1.7,0.7-1.8,1.6v0.3c-0.1,1.7-1.5,3-3.3,3h-1.5
			c-0.7,1.3-1.2,2.1-1.3,2.3c-0.3,0.7-0.7,1.1-1.3,1.4l-2.1,1l-5.9,2.9c-0.2,0.1-0.3,0.2-0.4,0.4l-0.9,2.5l0,0l-0.4,1.1l0,0
			l-1.7,4.7c-0.1,0.1-0.1,0.2-0.1,0.2l-1.6,4.5c-0.1,0.3-0.2,0.6-0.2,0.9c0,0,0.1,4.8,0.1,7.4c0,0.3-0.2,0.5-0.4,0.6
			c-0.3,0.1-0.5,0.1-0.7-0.1c-0.5-0.5-0.9-0.9-0.9-0.9c-0.3-0.3-0.7-0.3-1,0c-0.3,0.3-0.3,0.7,0,1c0,0,2.2,2.2,2.9,2.9
			c0.1,0.1,0.2,0.3,0.2,0.5c0,0.2,0,0.5,0,0.8c0,0.3-0.2,0.5-0.4,0.6c-0.3,0.1-0.5,0.1-0.7-0.2c-0.5-0.5-1-1-1-1
			c-0.3-0.3-0.7-0.3-1,0c-0.3,0.3-0.3,0.7,0,1c0,0,2.3,2.3,2.9,2.9c0.1,0.1,0.2,0.3,0.2,0.5c0,0.2,0,0.5,0,0.5
			c0,0.3,0.1,0.6,0.2,0.8l1.8,5.1c0.1,0.2,0.1,0.5-0.1,0.7c-0.2,0.2-0.4,0.3-0.6,0.3h-5.8c-0.4,0-4.1-2.6-4.1-3c0,0-0.1,0.6-0.1-2.2
			l0,0v-17.3c-0.5-0.3-0.7-0.7-0.7-1.2v-13.3h-3.1c-1.4,0-2.7-1.1-3.8-3c-1.4-2.6-2.3-6.8-2.3-11.5c0-4.7,0.9-8.9,2.3-11.5
			c1.1-2,2.4-3,3.8-3h11.9c1.3,0,2.5-0.5,3.4-1.3c2.1-1.9,5.7-4.9,7.4-6.4c0.6-0.5,1-1,1.3-1.7l2.3-4.7c0.1-0.1,0.1-0.1,0.1-0.2
			l1.2-2.5c-0.4-0.1-0.3-0.1,0.1-0.3c-3.2-0.1-5.6-0.2-5.6-0.2c-0.7,0-1.2-0.3-1.6-0.7l-7.5-8.6c-0.3-0.3-0.5-0.8-0.5-1.2l0.6-11.7
			c0-0.7,0.6-1.2,1.2-1.2c0.7,0,1.2,0.6,1.2,1.2l0.6,11c0,0,5.5,5.4,6.7,6.6c0.2,0.2,0.4,0.3,0.6,0.3l0,0c0.6,0,1-0.4,1.3-0.8
			c0.3-0.5,0.2-1.1-0.2-1.5c-1-1.2-2-2.4-2-2.4c-0.3-0.3-0.5-0.7-0.5-1.1l0.5-6.4c0-0.6,0.5-1,1-1c0.6,0,1,0.5,1,1l0.5,5.7l3.4,3.3
			c1.1-0.1,3.5-0.2,5.9-0.2c2.4,0,4.8,0.1,5.9,0.2l3.4-3.3l0.5-5.7c0-0.6,0.5-1,1-1s1,0.5,1,1l0.5,6.4c0,0.4-0.2,0.7-0.4,1
			c0,0-1,1.2-2,2.3c-0.4,0.5-0.5,1-0.2,1.5c0.3,0.5,0.7,0.9,1.3,0.9l0,0c0.2,0,0.5-0.1,0.6-0.3c1.2-1.2,6.6-6.6,6.6-6.6l0.5-11
			c0-0.7,0.6-1.2,1.2-1.2s1.2,0.6,1.2,1.2l0.6,11.7c0,0.5-0.2,0.9-0.5,1.2l-7.4,8.6c-0.4,0.5-1,0.7-1.6,0.7c0,0-2,0.1-4.8,0.2
			l9.9,6.6c0.5,0.3,0.7,0.7,0.8,1.2v0.1v0.1l0,0c0,0.1,0,0.1,0,0.2l-1.1,4.7c-0.2,0.7-0.8,1.3-1.6,1.3c-2.1,0.2-5.6,0.5-7.3,0.7
			c-0.1,0-0.2,0-0.3,0.1c-0.3,0.1-0.6,0.2-0.8,0.4c-0.1,0.1-0.4,0.5-0.7,1.1v8C307.9,143.6,306.6,145.3,304.8,146L304.8,146z
			 M290,187.3c0.6-2.7,2.5-11.5,3.3-14.9c0.1-0.6-0.1-1.2-0.7-1.5l-7.9-4.6l0.9-2.5l5.9-2.9l6.6,5.3c0.8,0.7,1.2,1.7,0.9,2.8
			c0,0-1.9,7.7-2.7,11.1c-0.1,0.3-0.3,0.5-0.5,0.5c-0.3,0.1-0.5-0.1-0.7-0.3c-0.4-0.7-0.7-1.3-0.7-1.3c-0.2-0.3-0.7-0.5-0.9-0.3
			c-0.3,0.2-0.5,0.7-0.3,0.9c0,0,1.7,2.8,2.1,3.6c0.1,0.2,0.1,0.3,0.1,0.5c-0.1,0.2-0.1,0.5-0.2,0.7c-0.1,0.2-0.3,0.5-0.5,0.5
			c-0.3,0.1-0.5-0.1-0.7-0.3c-0.4-0.7-0.8-1.3-0.8-1.3c-0.2-0.3-0.7-0.5-0.9-0.3c-0.3,0.2-0.5,0.7-0.3,0.9c0,0,1.7,2.9,2.2,3.7
			c0.1,0.2,0.1,0.3,0.1,0.5c0,0.2-0.1,0.4-0.1,0.5c0,0.1,0,0.1,0,0.1c0,0.1,0,0.1,0,0.2v5.5c0,0.3-0.1,0.5-0.3,0.6s-0.5,0.2-0.7,0.1
			l-4.8-1.7c-0.4-0.1-3.2-3.3-3.1-3.6c0,0,0,0,0.9-2.6c0,0,0,0,0.1-0.1l0.9-12.2c-0.1-0.1-0.2-0.1-0.3-0.2l-3.8-4l1.1-2.9l4.8,5
			c0.5,0.6,0.5,1.5-0.1,2c-0.1,0.1-0.3,0.2-0.4,0.3l-0.9,12.5c0.7,0.2,1.5,0.4,1.9,0.4c0.1-0.1,0.1-0.1,0.2-0.1
			C289.9,187.6,289.9,187.4,290,187.3L290,187.3L290,187.3z M273.3,160.2v16.2c0,0.5-0.3,1-0.7,1.2v17.1c0.9-0.1,2.1-0.2,2.1-0.3
			v-34.3c0-0.4-0.3-0.7-0.7-0.7C273.6,159.5,273.3,159.8,273.3,160.2L273.3,160.2z M303.5,146.2c-0.1,0-0.1,0-0.2,0h-2.9
			c-1.6,2.7-3.1,5.3-4.3,7.4h0.7c0.9,0,1.8-0.7,1.9-1.6v-0.4c0.1-1.7,1.5-3,3.2-3c0.8,0,1.5-0.7,1.5-1.5L303.5,146.2L303.5,146.2z
			 M303.5,144.8v-3.7c-0.7,1.2-1.5,2.5-2.2,3.7h2.1C303.3,144.8,303.4,144.8,303.5,144.8L303.5,144.8z M306.5,136
			c-0.5,0.8-1.1,1.8-1.7,2.8v5.7c1-0.6,1.7-1.6,1.7-2.8V136z"/>
		<g>
			<path class="st0" d="M283.4,104H280l0.1-1.4h3.2L283.4,104L283.4,104z M283.2,100.8h-3l0.1-1.4h2.9V100.8L283.2,100.8z"/>
			<path class="st0" d="M323.3,104H320l0.1-1.4h3.2V104z M323.1,100.8h-3l0.1-1.4h2.8L323.1,100.8L323.1,100.8z"/>
			<path class="st0" d="M315.8,127.9c0,0,0.1,0.1,0.4,0.3c0.1,0.1,0.2,0.1,0.3,0.1c0.2,0,0.2-0.1,0.3-0.1c0.3-0.1,0.4-0.3,0.4-0.3
				c0.2,0,0.4-0.2,0.4-0.4s-0.2-0.4-0.4-0.4c0,0-0.1-0.1-0.4-0.3c-0.1-0.1-0.2-0.1-0.3-0.1c-0.2,0-0.2,0.1-0.3,0.1
				c-0.3,0.2-0.4,0.3-0.4,0.3c-0.2,0-0.4,0.2-0.4,0.4C315.4,127.7,315.6,127.9,315.8,127.9z"/>
			<path class="st0" d="M312.8,127.9c0,0,0.1,0.1,0.4,0.3c0.1,0.1,0.2,0.1,0.3,0.1c0.2,0,0.2-0.1,0.3-0.1c0.3-0.1,0.4-0.3,0.4-0.3
				c0.2,0,0.4-0.2,0.4-0.4s-0.2-0.4-0.4-0.4c0,0-0.1-0.1-0.4-0.3c-0.1-0.1-0.2-0.1-0.3-0.1c-0.2,0-0.2,0.1-0.3,0.1
				c-0.3,0.2-0.4,0.3-0.4,0.3c-0.2,0-0.4,0.2-0.4,0.4C312.4,127.7,312.6,127.9,312.8,127.9z"/>
			<path class="st0" d="M309.9,127.9c0,0,0.1,0.1,0.4,0.3c0.1,0.1,0.2,0.1,0.3,0.1s0.2-0.1,0.3-0.1c0.3-0.1,0.4-0.3,0.4-0.3
				c0.2,0,0.4-0.2,0.4-0.4s-0.2-0.4-0.4-0.4c0,0-0.1-0.1-0.4-0.3c-0.1-0.1-0.2-0.1-0.3-0.1s-0.2,0.1-0.3,0.1
				c-0.3,0.2-0.4,0.3-0.4,0.3c-0.2,0-0.4,0.2-0.4,0.4C309.6,127.7,309.7,127.9,309.9,127.9z"/>
			<path class="st0" d="M314.3,126c0,0,0.1,0.1,0.4,0.3c0.1,0.1,0.2,0.1,0.3,0.1c0.2,0,0.2-0.1,0.3-0.1c0.3-0.1,0.4-0.3,0.4-0.3
				c0.2,0,0.4-0.2,0.4-0.4s-0.2-0.4-0.4-0.4c0,0-0.1-0.1-0.4-0.3c-0.1-0.1-0.2-0.1-0.3-0.1c-0.2,0-0.2,0.1-0.3,0.1
				c-0.3,0.2-0.4,0.3-0.4,0.3c-0.2,0-0.4,0.2-0.4,0.4C314,125.9,314.1,126,314.3,126z"/>
			<path class="st0" d="M311.4,126c0,0,0.1,0.1,0.4,0.3c0.1,0.1,0.2,0.1,0.3,0.1s0.2-0.1,0.3-0.1c0.3-0.1,0.4-0.3,0.4-0.3
				c0.2,0,0.4-0.2,0.4-0.4s-0.2-0.4-0.4-0.4c0,0-0.1-0.1-0.4-0.3c-0.1-0.1-0.2-0.1-0.3-0.1s-0.2,0.1-0.3,0.1
				c-0.3,0.2-0.4,0.3-0.4,0.3c-0.2,0-0.4,0.2-0.4,0.4C311,125.9,311.2,126,311.4,126z"/>
			<path class="st0" d="M314.3,129.7c0,0,0.1,0.1,0.4,0.3c0.1,0.1,0.2,0.1,0.3,0.1c0.2,0,0.2-0.1,0.3-0.1c0.3-0.1,0.4-0.3,0.4-0.3
				c0.2,0,0.4-0.2,0.4-0.4c0-0.2-0.2-0.4-0.4-0.4c0,0-0.1-0.1-0.4-0.3c-0.1-0.1-0.2-0.1-0.3-0.1c-0.2,0-0.2,0.1-0.3,0.1
				c-0.3,0.2-0.4,0.3-0.4,0.3c-0.2,0-0.4,0.2-0.4,0.4C314,129.6,314.1,129.7,314.3,129.7z"/>
			<path class="st0" d="M311.4,129.7c0,0,0.1,0.1,0.4,0.3c0.1,0.1,0.2,0.1,0.3,0.1s0.2-0.1,0.3-0.1c0.3-0.1,0.4-0.3,0.4-0.3
				c0.2,0,0.4-0.2,0.4-0.4c0-0.2-0.2-0.4-0.4-0.4c0,0-0.1-0.1-0.4-0.3c-0.1-0.1-0.2-0.1-0.3-0.1s-0.2,0.1-0.3,0.1
				c-0.3,0.2-0.4,0.3-0.4,0.3c-0.2,0-0.4,0.2-0.4,0.4C311,129.6,311.2,129.7,311.4,129.7z"/>
			<circle class="st0" cx="309.9" cy="114.6" r="1"/>
			<circle class="st0" cx="307.4" cy="112.1" r="1"/>
			<circle class="st0" cx="272.4" cy="142" r="1.3"/>
			<circle class="st0" cx="267.5" cy="142" r="1.3"/>
			<path class="st0" d="M283,132.6l9.4,9.4c0.3,0.3,0.3,0.7,0,1l-2.9,2.9c-0.3,0.3-0.7,0.3-1,0l-2.4-2.4l-2.3,2.3
				c-0.1,0.1-0.3,0.2-0.5,0.2h-12.9l9.1,9.1h10.4c0-0.1,0-0.1,0-0.1c0-3.1,2.5-5.6,5.6-5.6c1,0,2,0.3,2.7,0.7
				c-0.3,0.4-0.5,0.8-0.7,1.2c-0.6-0.3-1.3-0.5-2.1-0.5c-2.3,0-4.2,2-4.2,4.2c0,1.5,0.8,2.8,2,3.5c-0.2,0.1-0.3,0.2-0.5,0.3
				l-0.9,0.5c-0.9-0.7-1.5-1.7-1.8-2.8h-10.8c-0.2,0-0.4-0.1-0.5-0.2L268.5,146h-6.9c-0.1,0-0.1,0-0.1,0c0.1-0.5,0.1-0.9,0.1-1.4
				H283l4.9-4.9l-6.1-6.1c0.3-0.2,0.6-0.4,0.8-0.6L283,132.6L283,132.6z M289,140.6l-2,2l2,2l2-2L289,140.6z M297.1,134l1.2-1.2
				c0.3-0.3,0.3-0.7,0-1c-0.3-0.3-0.7-0.3-1,0l-1.2,1.2c-0.3,0.3-0.3,0.7,0,1C296.4,134.3,296.8,134.3,297.1,134z M291.1,134
				l1.2-1.2c0.3-0.3,0.3-0.7,0-1c-0.3-0.3-0.7-0.3-1,0l-1.2,1.2c-0.3,0.3-0.3,0.7,0,1C290.4,134.3,290.8,134.3,291.1,134z
				 M294.1,134l1.2-1.2c0.3-0.3,0.3-0.7,0-1c-0.3-0.3-0.7-0.3-1,0l-1.2,1.2c-0.3,0.3-0.3,0.7,0,1C293.4,134.3,293.8,134.3,294.1,134
				z M311.8,117.2c-0.7,0.1-1.7,0.1-2.7,0.1l2,1.3h-8.3c-0.5,0-0.7,0.4-0.7,0.7v1.1c0,0.5,0.4,0.7,0.7,0.7H315l2.1,1.4h-14.3
				c-0.4,0-0.7-0.1-0.9-0.3l0,0l-6.5,6.5c-0.1,0.1-0.3,0.2-0.5,0.2h-7.6l1.6-1.4h5.7l6.3-6.3l0,0c-0.2-0.3-0.3-0.6-0.3-0.9v-1.1
				c0-1.2,1-2.1,2.1-2.1L311.8,117.2L311.8,117.2z M294.2,117.3h2.1c0.4,0,0.7,0.3,0.7,0.7c0,0.4-0.3,0.7-0.7,0.7h-2.1l0.6-1.1
				c-0.4-0.1-0.3-0.1,0.1-0.3C294.7,117.3,294.5,117.3,294.2,117.3L294.2,117.3z M299.9,109.3l-2,2h3.4l2-2c0.7,0,1.3,0.1,2,0.1
				l-3.1,3.1c-0.1,0.1-0.3,0.2-0.5,0.2h-5.1l-4.6,4.6c-0.8-0.1-1.5-0.1-2-0.1l5.6-5.6c0.1-0.1,0.1-0.1,0.2-0.2l2.1-2.1
				C298.5,109.3,299.2,109.3,299.9,109.3L299.9,109.3z"/>
			<g>
				<g>
					<path class="st0" d="M274.7,165.1v-4.9c0-0.4-0.3-0.7-0.7-0.7c-0.4,0-0.7,0.3-0.7,0.7v4.9c0,0.4,0.3,0.7,0.7,0.7
						C274.4,165.8,274.7,165.5,274.7,165.1z"/>
					<path class="st0" d="M315.8,127.9c0,0,0.1,0.1,0.4,0.3c0.1,0.1,0.2,0.1,0.3,0.1c0.2,0,0.2-0.1,0.3-0.1c0.3-0.1,0.4-0.3,0.4-0.3
						c0.2,0,0.4-0.2,0.4-0.4s-0.2-0.4-0.4-0.4c0,0-0.1-0.1-0.4-0.3c-0.1-0.1-0.2-0.1-0.3-0.1c-0.2,0-0.2,0.1-0.3,0.1
						c-0.3,0.2-0.4,0.3-0.4,0.3c-0.2,0-0.4,0.2-0.4,0.4C315.4,127.7,315.6,127.9,315.8,127.9z"/>
					<path class="st0" d="M312.8,127.9c0,0,0.1,0.1,0.4,0.3c0.1,0.1,0.2,0.1,0.3,0.1c0.2,0,0.2-0.1,0.3-0.1c0.3-0.1,0.4-0.3,0.4-0.3
						c0.2,0,0.4-0.2,0.4-0.4s-0.2-0.4-0.4-0.4c0,0-0.1-0.1-0.4-0.3c-0.1-0.1-0.2-0.1-0.3-0.1c-0.2,0-0.2,0.1-0.3,0.1
						c-0.3,0.2-0.4,0.3-0.4,0.3c-0.2,0-0.4,0.2-0.4,0.4C312.4,127.7,312.6,127.9,312.8,127.9z"/>
					<path class="st0" d="M309.9,127.9c0,0,0.1,0.1,0.4,0.3c0.1,0.1,0.2,0.1,0.3,0.1s0.2-0.1,0.3-0.1c0.3-0.1,0.4-0.3,0.4-0.3
						c0.2,0,0.4-0.2,0.4-0.4s-0.2-0.4-0.4-0.4c0,0-0.1-0.1-0.4-0.3c-0.1-0.1-0.2-0.1-0.3-0.1s-0.2,0.1-0.3,0.1
						c-0.3,0.2-0.4,0.3-0.4,0.3c-0.2,0-0.4,0.2-0.4,0.4C309.6,127.7,309.7,127.9,309.9,127.9z"/>
					<path class="st0" d="M314.3,126c0,0,0.1,0.1,0.4,0.3c0.1,0.1,0.2,0.1,0.3,0.1c0.2,0,0.2-0.1,0.3-0.1c0.3-0.1,0.4-0.3,0.4-0.3
						c0.2,0,0.4-0.2,0.4-0.4s-0.2-0.4-0.4-0.4c0,0-0.1-0.1-0.4-0.3c-0.1-0.1-0.2-0.1-0.3-0.1c-0.2,0-0.2,0.1-0.3,0.1
						c-0.3,0.2-0.4,0.3-0.4,0.3c-0.2,0-0.4,0.2-0.4,0.4C314,125.9,314.1,126,314.3,126z"/>
					<path class="st0" d="M311.4,126c0,0,0.1,0.1,0.4,0.3c0.1,0.1,0.2,0.1,0.3,0.1s0.2-0.1,0.3-0.1c0.3-0.1,0.4-0.3,0.4-0.3
						c0.2,0,0.4-0.2,0.4-0.4s-0.2-0.4-0.4-0.4c0,0-0.1-0.1-0.4-0.3c-0.1-0.1-0.2-0.1-0.3-0.1s-0.2,0.1-0.3,0.1
						c-0.3,0.2-0.4,0.3-0.4,0.3c-0.2,0-0.4,0.2-0.4,0.4C311,125.9,311.2,126,311.4,126z"/>
					<path class="st0" d="M314.3,129.7c0,0,0.1,0.1,0.4,0.3c0.1,0.1,0.2,0.1,0.3,0.1c0.2,0,0.2-0.1,0.3-0.1c0.3-0.1,0.4-0.3,0.4-0.3
						c0.2,0,0.4-0.2,0.4-0.4c0-0.2-0.2-0.4-0.4-0.4c0,0-0.1-0.1-0.4-0.3c-0.1-0.1-0.2-0.1-0.3-0.1c-0.2,0-0.2,0.1-0.3,0.1
						c-0.3,0.2-0.4,0.3-0.4,0.3c-0.2,0-0.4,0.2-0.4,0.4C314,129.6,314.1,129.7,314.3,129.7z"/>
					<path class="st0" d="M311.4,129.7c0,0,0.1,0.1,0.4,0.3c0.1,0.1,0.2,0.1,0.3,0.1s0.2-0.1,0.3-0.1c0.3-0.1,0.4-0.3,0.4-0.3
						c0.2,0,0.4-0.2,0.4-0.4c0-0.2-0.2-0.4-0.4-0.4c0,0-0.1-0.1-0.4-0.3c-0.1-0.1-0.2-0.1-0.3-0.1s-0.2,0.1-0.3,0.1
						c-0.3,0.2-0.4,0.3-0.4,0.3c-0.2,0-0.4,0.2-0.4,0.4C311,129.6,311.2,129.7,311.4,129.7z"/>
					<circle class="st0" cx="309.9" cy="114.6" r="1"/>
					<circle class="st0" cx="307.4" cy="112.1" r="1"/>
				</g>
			</g>
			<circle class="st0" cx="274.7" cy="196.9" r="1.1"/>
			<circle class="st0" cx="289" cy="190.4" r="1.1"/>
		</g>
	</g>
</g>
<line class="st5" x1="0" y1="204.5" x2="716.9" y2="204.5"/>
</svg>
