<?xml version="1.0" encoding="utf-8"?>
<!-- Generator: Adobe Illustrator 25.0.1, SVG Export Plug-In . SVG Version: 6.00 Build 0)  -->
<svg version="1.1" id="Layer_1" xmlns="http://www.w3.org/2000/svg" xmlns:xlink="http://www.w3.org/1999/xlink" x="0px" y="0px"
	 viewBox="0 0 1317.4 408.1" style="enable-background:new 0 0 1317.4 408.1;" xml:space="preserve">
<style type="text/css">
	.st0{fill-rule:evenodd;clip-rule:evenodd;fill:#AEA7B9;}
	.st1{fill-rule:evenodd;clip-rule:evenodd;fill:#EEEEEE;}
	.st2{fill-rule:evenodd;clip-rule:evenodd;fill:#372F42;}
	.st3{fill-rule:evenodd;clip-rule:evenodd;fill:#DAD7E0;}
	.st4{fill-rule:evenodd;clip-rule:evenodd;fill:#FEFEFE;}
	.st5{fill:none;stroke:#AEA7B9;stroke-width:3.8352;stroke-linecap:round;stroke-linejoin:round;stroke-miterlimit:1.4382;}
	.st6{fill:none;stroke:#372F42;stroke-width:3;stroke-miterlimit:10;}
	.st7{fill:none;stroke:#372F42;stroke-width:8;stroke-miterlimit:10;}
</style>
<g>
	<g>
		<g>
			<g>
				<g>
					<g>
						<path class="st0" d="M570.6,176.6c0,0-3.8-0.8-8.7-1.4c-1.8-0.2-3.9-0.4-5.8-0.4s-4,0.2-5.8,0.5c-4.9,0.6-8.7,1.3-8.7,1.3
							c-1,0-1.7,0.8-1.7,1.7c0,1,0.8,1.7,1.7,1.7c0,0,3.8,0.7,8.7,1.3c1.8,0.2,3.9,0.5,5.8,0.5s4-0.2,5.8-0.4
							c4.9-0.6,8.7-1.4,8.7-1.4c1,0,1.7-0.8,1.7-1.7C572.3,177.3,571.5,176.6,570.6,176.6L570.6,176.6z"/>
						<path class="st1" d="M562.7,177.6c0,0-1.7-0.3-3.9-0.6c-0.9-0.1-1.7-0.2-2.6-0.2c-0.9,0-1.8,0.1-2.6,0.2
							c-2.2,0.2-3.9,0.6-3.9,0.6c-0.4,0-0.7,0.3-0.7,0.7s0.3,0.7,0.7,0.7c0,0,1.7,0.3,3.9,0.6c0.9,0.1,1.7,0.2,2.6,0.2
							c0.9,0,1.8-0.1,2.6-0.2c2.2-0.2,3.9-0.6,3.9-0.6c0.4,0,0.7-0.3,0.7-0.7C563.5,178,563.1,177.6,562.7,177.6L562.7,177.6z"/>
						<path class="st2" d="M601.2,170.5c0,1.4,0.6,2.8,1.8,3.7s2.6,1.3,4,1c2.6-0.6,5.6-1.3,7-1.8c2.7-1.3,7.6-2.3,10.9-0.7l0,0
							c0.4,0.2,0.8,0.5,1.1,0.7l8.7,5.6c0.4,0.2,0.6,0.6,0.6,1s-0.3,0.8-0.8,0.9l-4.2,1c-0.8,0.2-4.1,1.3-5,1.5
							c-7,2.5-15.3,6.6-15.3,6.6c-2.5,1.2-5.1,1.8-7.9,1.8h-11.4c-1,0-2-0.1-3-0.2l0,0c-0.9-0.2-1.7-0.4-2.6-0.6l-23.9-5.8
							c-0.5-0.1-0.8-0.6-0.8-1l0,0c0-0.4-0.2-0.8-0.6-1c-0.8-0.3-2-0.8-2.8-1.2c-0.4-0.2-0.7-0.6-0.7-1c0-1.3,0-3.8,0-5
							c0-0.5,0.3-0.9,0.7-1c0.8-0.3,2-0.8,2.7-1.1c0.4-0.2,0.7-0.6,0.7-1l0,0c0-0.6,0.5-1.1,1.1-1.1c0,0,4.6-0.1,8-0.1
							c1.8,0,3.4-1.4,3.9-3.1c4.2-21,20.3-29.2,26.4-31.7c0.5-0.2,1-0.1,1.3,0.3c0.2,0.2,0.3,0.5,0.3,0.7l0,0l0,0c0,0.1,0,0.2,0,0.2
							L601.2,170.5L601.2,170.5z"/>
						<path class="st0" d="M584.3,190.6l7.8-7.8c0.2-0.2,0.6-0.4,1-0.4h22.3c0.8,0,1.4,0.6,1.4,1.4v2.9c-1,0.4-1.9,0.9-2.7,1.3v-2.7
							h-20.3l-6.3,6.3c-0.9-0.2-1.6-0.3-2.4-0.6L584.3,190.6L584.3,190.6z M628.6,175l4.2,2.7c-0.1,0-0.2,0-0.2,0h-10.2
							c-0.8,0-1.4-0.6-1.4-1.4c0-0.8,0.6-1.4,1.4-1.4L628.6,175L628.6,175z M592.5,140.2l4.8,4.8c1.4-1,2.6-1.7,3.9-2.3v3.2
							c-6.4,3.9-15,11.3-18.7,25.2c0,0.1-0.1,0.2-0.2,0.3l0,0c-0.1,0.1-0.2,0.2-0.2,0.3c-0.2,0.2-0.4,0.3-0.6,0.4l0,0
							c-0.2,0.1-0.5,0.1-0.7,0c-0.1,0-0.2-0.1-0.3-0.2l0,0c-0.1-0.1-0.2-0.2-0.3-0.2l-6.3-6.3c0.3-1,0.6-2,1-3l5.7,5.7
							c0.8-2.4,1.6-4.6,2.6-6.7l-5.5-5.5c0.5-0.9,1-1.6,1.4-2.5l5.4,5.4c1.3-2.1,2.6-4,3.9-5.7l-5.2-5.2c0.6-0.7,1.3-1.4,1.8-2
							l5.1,5.1c1.6-1.7,3.3-3.2,4.9-4.5l-4.9-4.9C591,141.2,591.7,140.7,592.5,140.2z"/>
						<circle class="st0" cx="577.7" cy="183.4" r="2"/>
						<ellipse class="st0" cx="570.7" cy="183.4" rx="2" ry="2"/>
					</g>
					<g>
						<path class="st2" d="M541.4,170.3c-0.2,0.2-0.5,0.4-0.7,0.3c-0.6-0.1-1.4-0.2-1.9-0.2c-0.4-0.1-0.6-0.4-0.6-0.8
							c0.1-0.8,0.2-2,0.3-3c0-0.2,0.2-0.5,0.4-0.6s0.5-0.1,0.7,0c0.8,0.5,1.9,1.1,2.6,1.4c0.2,0.1,0.3,0.2,0.3,0.5
							c0.1,0.2,0,0.4-0.1,0.6C542.1,169.1,541.6,169.8,541.4,170.3L541.4,170.3z"/>
						<path class="st2" d="M618.8,197.9c-0.1,0.3-0.3,0.5-0.6,0.5s-0.8,0.1-1.1,0.1c-0.4,0-0.7-0.2-0.8-0.6
							c-0.1-0.5-0.2-1.1-0.2-1.6c0-0.2,0.1-0.5,0.2-0.6c0.2-0.2,0.5-0.2,0.7-0.2c0.6,0.2,1.2,0.3,1.6,0.5c0.2,0.1,0.3,0.2,0.5,0.4
							c0.1,0.2,0.1,0.4,0.1,0.6C619,197.3,618.9,197.6,618.8,197.9z"/>
						<path class="st2" d="M530.6,162.3c-0.3,0-0.6-0.2-0.6-0.5c-0.2-0.3-0.3-0.7-0.4-1c-0.2-0.4,0-0.8,0.4-1c0.5-0.2,1-0.5,1.4-0.7
							c0.2-0.1,0.5-0.1,0.7,0.1c0.2,0.2,0.3,0.4,0.3,0.6c0,0.6,0,1.2,0,1.7c0,0.2-0.1,0.4-0.2,0.6c-0.2,0.2-0.3,0.2-0.6,0.2
							C531.4,162.3,530.9,162.3,530.6,162.3z"/>
						<path class="st2" d="M607.3,206.4c0.1-0.1,0.2-0.2,0.2-0.2c0.1,0,0.2,0,0.3,0.1c0.6,0.5,1.8,1.4,2.6,2.1
							c0.1,0.1,0.2,0.2,0.2,0.4s-0.2,0.2-0.3,0.3c-1.1,0.2-3,0.8-4.1,1.1c-0.2,0-0.3,0-0.4-0.2c-0.1-0.1-0.1-0.3-0.1-0.4
							C606.1,208.6,606.9,207.2,607.3,206.4L607.3,206.4z"/>
						<path class="st2" d="M578.1,201.8c0,0.1-0.1,0.2-0.2,0.3c-0.1,0.1-0.2,0.1-0.3,0.1c-0.6-0.2-1.4-0.5-2.1-0.6
							c-0.2-0.1-0.2-0.2-0.2-0.3s0-0.3,0.2-0.4c0.6-0.5,1.5-1.2,2.2-1.7c0.2-0.1,0.3-0.1,0.4,0c0.2,0.1,0.2,0.2,0.2,0.4
							C578.2,200.2,578.1,201.2,578.1,201.8z"/>
						<path class="st2" d="M553.9,148.2c-0.1-0.1-0.2-0.2-0.1-0.3c0-0.1,0.1-0.2,0.2-0.3c0.7-0.4,2-1.3,2.8-1.8
							c0.2-0.1,0.3-0.1,0.4,0c0.2,0.1,0.2,0.2,0.2,0.3c-0.1,1.1-0.2,3.1-0.2,4.2c0,0.2-0.1,0.3-0.2,0.3c-0.2,0.1-0.3,0-0.4-0.1
							C555.8,149.9,554.6,148.8,553.9,148.2z"/>
					</g>
				</g>
				<g>
					<path class="st3" d="M402.5,162.8C535.3,163.1,643,271.2,643,404H402.5V162.8L402.5,162.8z"/>
					<path class="st4" d="M402.5,367.3c1.2,0.1,2.3,0.2,3.5,0.1c2.5-0.1,4.8-0.5,6.9-1.1c1.8-0.6,3.4-1.3,4.6-2
						c0.3-0.2,0.7-0.5,1.2-0.8l0,0l0,0l0,0c0.4-0.3,0.9-0.6,1.4-1l0,0c1.9-1.3,4.2-2.3,6.9-3.1c2.6-0.8,5.6-1.3,8.7-1.4
						c3.1-0.1,6.1,0.2,8.8,0.9c3.4,0.8,6.3,2.1,8.7,3.8c1.4,1,3.4,1.8,5.6,2.2c2,0.5,4.2,0.6,6.7,0.6c2.3-0.1,4.5-0.5,6.5-1
						c2.1-0.6,3.9-1.4,5.2-2.6l0.5-0.3c2.2-1.6,5.1-3,8.4-4c2.8-0.8,5.8-1.3,9.1-1.4c3.3-0.1,6.4,0.3,9.3,1c3.7,0.9,6.8,2.3,9.3,4.1
						l0.6,0.3c1.3,0.7,2.8,1.3,4.5,1.6c1.8,0.5,4,0.6,6.2,0.6s4.2-0.5,6-1c1.8-0.6,3.4-1.4,4.6-2.2l0.5-0.4c2.4-1.8,5.4-3.3,9.1-4.2
						c2.9-0.9,6.2-1.4,9.5-1.4c4.2-0.2,8.2,0.5,11.7,1.5c3.1,1,5.8,2.2,7.9,3.9l0.5,0.3c1.1,0.6,2.4,1,3.9,1.4
						c1.7,0.4,3.7,0.6,5.7,0.5c1.9-0.1,3.9-0.4,5.5-1c1.5-0.5,2.9-1.2,3.9-1.9c2.2-1.7,4.9-3.2,8.1-4.2c3.6-1.3,7.7-2,12.1-2.1
						c4.4-0.2,8.7,0.6,12.2,1.6c3.3,1,6.2,2.4,8.5,4.1c1,0.7,2.2,1,3.8,1.4c0.4,0.1,0.9,0.2,1.4,0.2c1.3,6.8,2.2,13.8,2.9,20.7
						c-4.1-0.2-8-1-11.5-2.2c-3.3-1.2-6.1-2.6-8.3-4.4c-1-0.8-2.2-1.4-3.6-1.8c-1.6-0.5-3.4-0.9-5.3-0.9c-1.9-0.1-3.8,0.1-5.4,0.5
						c-1.4,0.3-2.6,0.7-3.6,1.3l-0.6,0.4c-2.2,1.5-4.9,3-8,3.9c-3.6,1-7.6,1.7-12,1.5c-3.5-0.1-6.8-0.6-9.8-1.4
						c-3.9-1.2-7.2-2.8-9.8-4.7l-0.5-0.3c-1-0.7-2.3-1.4-3.9-1.8c-1.8-0.6-3.7-0.9-5.8-1c-2.1-0.1-4.1,0.1-5.9,0.5
						c-1.8,0.4-3.4,1-4.6,1.8c-2.1,1.4-4.6,2.8-7.7,3.7c-3.4,1-7.2,1.5-11.4,1.4c-3.4-0.1-6.6-0.6-9.4-1.4c-3.7-1.1-6.8-2.6-9.2-4.5
						l-0.5-0.4c-1.2-0.9-2.6-1.5-4.3-2c-1.8-0.6-4-1-6.3-1c-2.2-0.1-4.4,0.1-6.4,0.6c-1.8,0.4-3.4,1-4.7,1.8l-0.6,0.4
						c-2.4,1.6-5.4,3-9,3.9c-2.7,0.6-5.8,1-9.1,1s-6.3-0.6-8.9-1.4c-3.3-1-6.1-2.3-8.2-4l-0.6-0.4c-1.4-1-3.2-1.8-5.2-2.5
						c-2-0.6-4.2-1-6.7-1.1c-2.5-0.1-4.7,0.2-6.8,0.6c-2.3,0.6-4.3,1.4-5.9,2.4c-2.2,1.5-5,2.8-8.3,3.6c-2.6,0.6-5.5,1-8.6,0.9
						c-1.2,0-2.3-0.2-3.5-0.2L402.5,367.3L402.5,367.3z M402.5,321.5c1.2,0.1,2.3,0.2,3.5,0.1c2.5-0.1,4.8-0.5,6.9-1.1
						c1.8-0.6,3.4-1.3,4.6-2c0.3-0.2,0.7-0.5,1.2-0.8l0,0l0,0l0,0c0.4-0.3,0.9-0.6,1.4-1l0,0c1.9-1.3,4.2-2.3,6.9-3.1
						c2.6-0.8,5.6-1.3,8.7-1.4c3.1-0.1,6.1,0.2,8.8,0.9c3.4,0.8,6.3,2.1,8.7,3.8c1.4,1,3.4,1.8,5.6,2.2c2,0.5,4.2,0.6,6.7,0.6
						c2.3-0.1,4.5-0.5,6.5-1c2.1-0.6,3.9-1.4,5.2-2.6l0.5-0.3c2.2-1.6,5.1-3,8.4-4c2.8-0.8,5.8-1.3,9.1-1.4c3.3-0.1,6.4,0.3,9.3,1
						c3.7,0.9,6.8,2.3,9.3,4.1l0.6,0.3c1.3,0.7,2.8,1.3,4.5,1.6c1.8,0.5,4,0.6,6.2,0.6c2.2-0.1,4.2-0.5,6-1c1.8-0.6,3.4-1.4,4.6-2.2
						l0.5-0.4c2.4-1.8,5.4-3.3,9.1-4.2c2.9-0.9,6.2-1.4,9.5-1.4c4.2-0.2,8.2,0.5,11.7,1.5c3.1,1,5.8,2.2,7.9,3.9l0.5,0.3
						c1.1,0.6,2.4,1,3.9,1.4c1.7,0.4,3.7,0.6,5.7,0.5c1.9-0.1,3.9-0.4,5.5-1c1.5-0.5,2.9-1.2,3.9-1.9c2.2-1.7,4.9-3.2,8.1-4.2
						c3.6-1.3,7.7-2,12.1-2.1c3.5-0.1,6.8,0.3,9.8,1c3.7,8.3,6.8,16.9,9.5,25.6c-0.7-0.2-1.4-0.4-2-0.6c-3.3-1.2-6.1-2.6-8.3-4.4
						c-1-0.8-2.2-1.4-3.6-1.8c-1.6-0.5-3.4-0.9-5.3-0.9c-1.9-0.1-3.8,0.1-5.4,0.5c-1.4,0.3-2.6,0.7-3.6,1.3l-0.6,0.4
						c-2.2,1.5-4.9,3-8,3.9c-3.6,1-7.6,1.7-12,1.5c-3.5-0.1-6.8-0.6-9.8-1.4c-3.9-1.2-7.2-2.8-9.8-4.7l-0.5-0.3
						c-1-0.7-2.3-1.4-3.9-1.8c-1.8-0.6-3.7-0.9-5.8-1c-2.1-0.1-4.1,0.1-5.9,0.5c-1.8,0.4-3.4,1-4.6,1.8c-2.1,1.4-4.6,2.8-7.7,3.7
						c-3.4,1-7.2,1.5-11.4,1.4c-3.4-0.1-6.6-0.6-9.4-1.4c-3.7-1.1-6.8-2.6-9.2-4.5l-0.5-0.4c-1.2-0.9-2.6-1.5-4.3-2
						c-1.8-0.6-4-1-6.3-1c-2.2-0.1-4.4,0.1-6.4,0.6c-1.8,0.4-3.4,1-4.7,1.8l-0.6,0.4c-2.4,1.6-5.4,3-9,3.9c-2.7,0.6-5.8,1-9.1,1
						c-3.2-0.1-6.3-0.6-8.9-1.4c-3.3-1-6.1-2.3-8.2-4l-0.6-0.4c-1.4-1-3.2-1.8-5.2-2.5s-4.2-1-6.7-1.1c-2.5-0.1-4.7,0.2-6.8,0.6
						c-2.3,0.6-4.3,1.4-5.9,2.4c-2.2,1.5-5,2.8-8.3,3.6c-2.6,0.6-5.5,1-8.6,0.9c-1.2,0-2.3-0.2-3.5-0.2L402.5,321.5L402.5,321.5z
						 M402.5,273.8c1.2,0.1,2.3,0.2,3.5,0.1c2.5-0.1,4.8-0.5,6.9-1.1c1.8-0.6,3.4-1.3,4.6-2c0.3-0.2,0.7-0.5,1.2-0.8l0,0l0,0l0,0
						c0.4-0.3,0.9-0.6,1.4-1l0,0c1.9-1.3,4.2-2.3,6.9-3.1c2.6-0.8,5.6-1.3,8.7-1.4c3.1-0.1,6.1,0.2,8.8,0.9c3.4,0.8,6.3,2.1,8.7,3.8
						c1.4,1,3.4,1.8,5.6,2.2c2,0.5,4.2,0.6,6.7,0.6c2.3-0.1,4.5-0.5,6.5-1c2.1-0.6,3.9-1.4,5.2-2.6l0.5-0.3c2.2-1.6,5.1-3,8.4-4
						c2.8-0.8,5.8-1.3,9.1-1.4c3.3-0.1,6.4,0.3,9.3,1c3.7,0.9,6.8,2.3,9.3,4.1l0.6,0.3c1.3,0.7,2.8,1.3,4.5,1.6
						c1.8,0.5,4,0.6,6.2,0.6c2.2-0.1,4.2-0.5,6-1c1.8-0.6,3.4-1.4,4.6-2.2l0.5-0.4c2.4-1.8,5.4-3.3,9.1-4.2c2.9-0.9,6.2-1.4,9.5-1.4
						c4.2-0.2,8.2,0.5,11.7,1.5c3.1,1,5.8,2.2,7.9,3.9l0.5,0.3c1.1,0.6,2.4,1,3.9,1.4c1.7,0.4,3.7,0.6,5.7,0.5
						c1.9-0.1,3.9-0.4,5.5-1c1.5-0.5,2.9-1.2,3.9-1.9c1.3-1,2.7-1.8,4.2-2.7c3.7,5,7,10.2,10.3,15.5c-1.4,0.3-2.5,0.6-3.5,1.2
						l-0.6,0.4c-2.2,1.5-4.9,3-8,3.9c-3.6,1-7.6,1.7-12,1.5c-3.5-0.1-6.8-0.6-9.8-1.4c-3.9-1.2-7.2-2.8-9.8-4.7l-0.5-0.3
						c-1-0.7-2.3-1.4-3.9-1.8c-1.8-0.6-3.7-0.9-5.8-1c-2.1-0.1-4.1,0.1-5.9,0.5c-1.8,0.4-3.4,1-4.6,1.8c-2.1,1.4-4.6,2.8-7.7,3.7
						c-3.4,1-7.2,1.5-11.4,1.4c-3.4-0.1-6.6-0.6-9.4-1.4c-3.7-1.1-6.8-2.6-9.2-4.5l-0.5-0.4c-1.2-0.9-2.6-1.5-4.3-2
						c-1.8-0.6-4-1-6.3-1c-2.2-0.1-4.4,0.1-6.4,0.6c-1.8,0.4-3.4,1-4.7,1.8l-0.7,0.4c-2.4,1.6-5.4,3-9,3.9c-2.7,0.6-5.8,1-9.1,1
						c-3.2-0.1-6.3-0.6-8.9-1.4c-3.3-1-6.1-2.3-8.2-4l-0.6-0.4c-1.4-1-3.2-1.8-5.2-2.5c-2-0.6-4.2-1-6.7-1.1
						c-2.4-0.1-4.7,0.2-6.8,0.6c-2.3,0.6-4.3,1.4-5.9,2.4c-2.2,1.5-5,2.8-8.3,3.6c-2.6,0.6-5.5,1-8.6,0.9c-1.2,0-2.3-0.2-3.5-0.2
						L402.5,273.8L402.5,273.8z M551.3,214.8c9.2,7.2,17.7,15,25.7,23.5c-1.1-0.2-2.2-0.5-3.3-0.8c-3.9-1.2-7.2-2.8-9.8-4.7
						l-0.5-0.3c-1-0.7-2.3-1.4-3.9-1.8c-1.8-0.6-3.7-0.9-5.8-1s-4.1,0.1-5.9,0.5s-3.4,1-4.6,1.8c-2.1,1.4-4.6,2.8-7.7,3.7
						c-3.4,1-7.2,1.5-11.4,1.4c-3.4-0.1-6.6-0.6-9.4-1.4c-3.7-1.1-6.8-2.6-9.2-4.5l-0.5-0.4c-1.2-0.9-2.6-1.5-4.3-2
						c-1.8-0.6-4-1-6.3-1c-2.2-0.1-4.4,0.1-6.4,0.6c-1.8,0.4-3.4,1-4.7,1.8l-0.6,0.4c-2.4,1.6-5.4,3-9,3.9c-2.7,0.6-5.8,1-9.1,1
						c-3.2-0.1-6.3-0.6-8.9-1.4c-3.3-1-6.1-2.3-8.2-4l-0.6-0.4c-1.4-1-3.2-1.8-5.2-2.5c-2-0.6-4.2-1-6.7-1.1
						c-2.4-0.1-4.7,0.2-6.8,0.6c-2.3,0.6-4.3,1.4-5.9,2.4c-2.2,1.5-5,2.8-8.3,3.6c-2.6,0.6-5.5,1-8.6,0.9c-1.2,0-2.3-0.2-3.5-0.2
						v-5.8c1.2,0.1,2.3,0.2,3.5,0.1c2.5-0.1,4.8-0.5,6.9-1.1c1.8-0.6,3.4-1.3,4.6-2c0.3-0.2,0.7-0.5,1.2-0.8l0,0l0,0l0,0
						c0.4-0.3,0.9-0.6,1.4-1l0,0c1.9-1.3,4.2-2.3,6.9-3.1c2.6-0.8,5.6-1.3,8.7-1.4c3.1-0.1,6.1,0.2,8.8,0.9c3.4,0.8,6.3,2.1,8.7,3.8
						c1.4,1,3.4,1.8,5.6,2.2c2,0.5,4.2,0.6,6.7,0.6c2.3-0.1,4.5-0.5,6.5-1c2.1-0.6,3.9-1.4,5.2-2.6l0.5-0.3c2.2-1.6,5.1-3,8.4-4
						c2.8-0.8,5.8-1.3,9.1-1.4c3.3-0.1,6.4,0.3,9.3,1c3.7,0.9,6.8,2.3,9.3,4.1l0.6,0.3c1.3,0.7,2.8,1.3,4.5,1.6
						c1.8,0.5,4,0.6,6.2,0.6c2.2-0.1,4.2-0.5,6-1c1.8-0.6,3.4-1.4,4.6-2.2l0.5-0.4c2.4-1.8,5.4-3.3,9.1-4.2
						C546.6,215.4,548.9,214.9,551.3,214.8L551.3,214.8z"/>
				</g>
				<path class="st5" d="M407.4,164.6v239.7H167.3c0-132.2,107.3-239.7,239.7-239.7L407.4,164.6L407.4,164.6z"/>
				<g>
					<path class="st1" d="M489,171.2l4.1,4.2c0.6,0.6,0.6,1.4-0.1,1.9c-0.6,0.6-1.4,0.6-1.9-0.1L487,173c-0.6-0.6-0.6-1.4,0.1-1.9
						C487.5,170.6,488.4,170.6,489,171.2z"/>
					<path class="st1" d="M557.4,192.6l-4.1,4.2c-0.6,0.6-1.4,0.6-1.9,0.1c-0.6-0.6-0.6-1.4-0.1-1.9l4.1-4.2
						c0.6-0.6,1.4-0.6,1.9-0.1C557.8,191.2,557.8,192,557.4,192.6z"/>
					<path class="st1" d="M479.4,223.5l4.1,4.2c0.6,0.6,0.6,1.4-0.1,1.9c-0.6,0.6-1.4,0.6-1.9-0.1l-4.1-4.2
						c-0.6-0.6-0.6-1.4,0.1-1.9C478,222.9,478.8,222.9,479.4,223.5z"/>
					<path class="st1" d="M471.2,125c0.6,0.6,0.6,1.4-0.1,1.9c-0.6,0.6-1.4,0.6-1.9-0.1l-4.1-4.2"/>
					<path class="st1" d="M485.5,159.5l2,2.1c0.6,0.6,0.6,1.4-0.1,1.9c-0.6,0.6-1.4,0.6-1.9-0.1l-2-2.1c-0.6-0.6-0.6-1.4,0.1-1.9
						S485.1,158.9,485.5,159.5z"/>
					<path class="st1" d="M552,211.6l-2,2.1c-0.6,0.6-1.4,0.6-1.9,0.1c-0.6-0.6-0.6-1.4-0.1-1.9l2-2.1c0.6-0.6,1.4-0.6,1.9-0.1
						C552.5,210.2,552.5,211,552,211.6z"/>
					<path class="st1" d="M534.7,156.5l-2,2.1c-0.6,0.6-1.4,0.6-1.9,0.1c-0.6-0.6-0.6-1.4-0.1-1.9l2-2.1c0.6-0.6,1.4-0.6,1.9-0.1
						C535.3,155.2,535.3,156,534.7,156.5L534.7,156.5z"/>
					<path class="st1" d="M463.6,164.1l2,2.1c0.6,0.6,0.6,1.4-0.1,1.9c-0.6,0.6-1.4,0.6-1.9-0.1l-2-2.1c-0.6-0.6-0.6-1.4,0.1-1.9
						C462.2,163.5,463.1,163.5,463.6,164.1z"/>
				</g>
				<g>
					<path class="st0" d="M591.7,349.6c-0.5-0.9-0.8-1.8-1-2.8C586.6,328.1,570,314,550,314c-19.9,0-36.5,13.9-40.6,32.4
						c-1.1,4.9-5.2,8.7-10.2,9.2c-22.2,2.6-40.7,23.5-40.7,45.7c0,0.4,0,0.8,0,1.1h167c-0.1-19.7-10.6-36.8-26.3-46.4
						c-4.5-2.6-10.1-4.9-16.8-6.3c-0.8-0.2-1.3-0.9-1.1-1.6c0.2-0.8,0.9-1.3,1.6-1.1C586.1,347.8,589,348.6,591.7,349.6L591.7,349.6
						z"/>
					<path class="st1" d="M573.1,341.5l-4.1,4.2c-0.6,0.6-1.4,0.6-1.9,0.1c-0.6-0.6-0.6-1.4-0.1-1.9l4.1-4.2
						c0.6-0.6,1.4-0.6,1.9-0.1C573.5,340.2,573.5,341,573.1,341.5L573.1,341.5z"/>
					<path class="st1" d="M613.2,391.2l-4.1,4.2c-0.6,0.6-1.4,0.6-1.9,0.1c-0.6-0.6-0.6-1.4-0.1-1.9l4.1-4.2
						c0.6-0.6,1.4-0.6,1.9-0.1C613.7,389.7,613.7,390.6,613.2,391.2z"/>
					<path class="st1" d="M517.9,359.9l4.1,4.2c0.6,0.6,0.6,1.4-0.1,1.9c-0.6,0.6-1.4,0.6-1.9-0.1l-4.1-4.2
						c-0.6-0.6-0.6-1.4,0.1-1.9C516.4,359.3,517.3,359.3,517.9,359.9L517.9,359.9z"/>
					<path class="st1" d="M570.7,392.9l-4.1,4.2c-0.6,0.6-1.4,0.6-1.9,0.1c-0.6-0.6-0.6-1.4-0.1-1.9l4.1-4.2
						c0.6-0.6,1.4-0.6,1.9-0.1C571.2,391.6,571.3,392.4,570.7,392.9L570.7,392.9z"/>
					<path class="st1" d="M527.6,341.8l4.1,4.2c0.6,0.6,0.6,1.4-0.1,1.9c-0.6,0.6-1.4,0.6-1.9-0.1l-4.1-4.2
						c-0.6-0.6-0.6-1.4,0.1-1.9C526.2,341.3,527.1,341.3,527.6,341.8L527.6,341.8z"/>
					<path class="st1" d="M569,332l-2,2.1c-0.6,0.6-1.4,0.6-1.9,0.1c-0.6-0.6-0.6-1.4-0.1-1.9l2-2.1c0.6-0.6,1.4-0.6,1.9-0.1
						C569.5,330.5,569.5,331.4,569,332L569,332z"/>
					<path class="st1" d="M609.3,376.2l-2,2.1c-0.6,0.6-1.4,0.6-1.9,0.1c-0.6-0.6-0.6-1.4-0.1-1.9l2-2.1c0.6-0.6,1.4-0.6,1.9-0.1
						C609.8,374.8,609.8,375.6,609.3,376.2z"/>
					<path class="st1" d="M527.2,331.8l2,2.1c0.6,0.6,0.6,1.4-0.1,1.9c-0.6,0.6-1.4,0.6-1.9-0.1l-2-2.1c-0.6-0.6-0.6-1.4,0.1-1.9
						C525.7,331.3,526.6,331.3,527.2,331.8L527.2,331.8z"/>
					<path class="st1" d="M539.4,321.2l2,2.1c0.6,0.6,0.6,1.4-0.1,1.9c-0.6,0.6-1.4,0.6-1.9-0.1l-2-2.1c-0.6-0.6-0.6-1.4,0.1-1.9
						C538,320.7,538.8,320.7,539.4,321.2z"/>
					<path class="st1" d="M602,391.7l-2,2.1c-0.6,0.6-1.4,0.6-1.9,0.1c-0.6-0.6-0.6-1.4-0.1-1.9l2-2.1c0.6-0.6,1.4-0.6,1.9-0.1
						C602.5,390.4,602.5,391.3,602,391.7L602,391.7z"/>
					<path class="st1" d="M528.9,391.7l2,2.1c0.6,0.6,0.6,1.4-0.1,1.9c-0.6,0.6-1.4,0.6-1.9-0.1l-2-2.1c-0.6-0.6-0.6-1.4,0.1-1.9
						C527.5,391.3,528.4,391.3,528.9,391.7z"/>
					<path class="st1" d="M516.4,378.7l2,2.1c0.6,0.6,0.6,1.4-0.1,1.9c-0.6,0.6-1.4,0.6-1.9-0.1l-2-2.1c-0.6-0.6-0.6-1.4,0.1-1.9
						C515,378.1,515.9,378.1,516.4,378.7z"/>
					<path class="st1" d="M490.9,386.7l4.1,4.2c0.6,0.6,0.6,1.4-0.1,1.9c-0.6,0.6-1.4,0.6-1.9-0.1l-4.1-4.2
						c-0.6-0.6-0.6-1.4,0.1-1.9C489.5,386.1,490.3,386.2,490.9,386.7L490.9,386.7z"/>
					<path class="st1" d="M494.7,371.7l2,2.1c0.6,0.6,0.6,1.4-0.1,1.9c-0.6,0.6-1.4,0.6-1.9-0.1l-2-2.1c-0.6-0.6-0.6-1.4,0.1-1.9
						C493.4,371.1,494.3,371.1,494.7,371.7z"/>
				</g>
				<g>
					<path class="st2" d="M549.7,342.6c-2.3,0-4.2,0.8-4.2,4.6s1.9,9.2,4.2,9.2c2.3,0,4.2-5.4,4.2-9.2
						C554,343.4,552.1,342.6,549.7,342.6z"/>
					<path class="st2" d="M549.8,374.9c2.3,0,4.2-0.8,4.2-4.6s-1.9-9.2-4.2-9.2s-4.2,5.4-4.2,9.2S547.4,374.9,549.8,374.9z"/>
					<path class="st1" d="M561.5,347c-1.7-1.7-3.6-2.5-6.3,0.2s-5.1,7.8-3.5,9.5c1.7,1.7,6.8-0.8,9.5-3.5
						C564,350.6,563.2,348.6,561.5,347L561.5,347z"/>
					<path class="st1" d="M537.9,370.4c1.7,1.7,3.6,2.5,6.3-0.2c2.7-2.7,5.1-7.8,3.4-9.5s-6.8,0.8-9.5,3.5
						C535.4,366.9,536.2,368.8,537.9,370.4z"/>
					<path class="st1" d="M537.9,347c1.7-1.7,3.6-2.5,6.3,0.2c2.7,2.7,5.1,7.8,3.4,9.5s-6.8-0.8-9.5-3.5
						C535.4,350.6,536.2,348.6,537.9,347L537.9,347z"/>
					<path class="st1" d="M561.5,370.4c-1.7,1.7-3.6,2.5-6.3-0.2s-5.1-7.8-3.5-9.5c1.7-1.7,6.8,0.8,9.5,3.5
						C564,366.9,563.2,368.8,561.5,370.4z"/>
					<path class="st2" d="M533.3,358.8c0,2.3,0.8,4.2,4.6,4.2c3.8,0,9.2-1.9,9.2-4.2s-5.4-4.2-9.2-4.2
						C534.1,354.5,533.3,356.4,533.3,358.8z"/>
					<path class="st2" d="M566.1,358.8c0,2.3-0.8,4.2-4.6,4.2c-3.8,0-9.2-1.9-9.2-4.2s5.4-4.2,9.2-4.2
						C565.3,354.6,566.1,356.4,566.1,358.8z"/>
					<circle class="st0" cx="549.7" cy="358.7" r="4.3"/>
					<path class="st2" d="M551.1,381.5v-12.6c0-0.8-0.6-1.4-1.4-1.4c-0.9,0-1.4,0.6-1.4,1.4v9.3l-4.2-1.8c-0.5-0.2-1-0.1-1.4,0.4
						c-0.3,0.4-0.2,1,0.1,1.4l5.5,6.2v18.4c0,0.8,0.6,1.4,1.4,1.4s1.4-0.6,1.4-1.4v-12l6.1-10.3c0.2-0.4,0.2-1-0.2-1.4
						c-0.3-0.3-0.9-0.4-1.4-0.2L551.1,381.5z"/>
				</g>
				<g>
					<path class="st2" d="M581.4,390v-21.2c0-0.8-0.6-1.4-1.4-1.4s-1.4,0.6-1.4,1.4v33.7c0,0.8,0.6,1.4,1.4,1.4s1.4-0.6,1.4-1.4
						v-5.2l4.7-6.1c0.2-0.3,0.3-0.9,0.1-1.2c-0.2-0.4-0.6-0.6-1.1-0.6L581.4,390z"/>
					<g>
						<path class="st1" d="M580,364.5c-0.4-0.6-0.9-1-1.4-1.4c-3-3-6.3-3.4-8.2-1.4c-1.8,1.8-1.5,5.2,1.4,8.2c0.5,0.5,1,0.9,1.4,1.4
							c-0.6,0.4-1,0.9-1.4,1.4c-3,3-3.4,6.3-1.4,8.2c1.8,1.8,5.2,1.5,8.2-1.4c0.5-0.5,0.9-1,1.4-1.4c0.4,0.6,0.9,1,1.4,1.4
							c3,3,6.3,3.4,8.2,1.4c1.8-1.8,1.5-5.2-1.4-8.2c-0.5-0.5-1-0.9-1.4-1.4c0.6-0.4,1-0.9,1.4-1.4c3-3,3.4-6.3,1.4-8.2
							c-1.8-1.8-5.2-1.5-8.2,1.4C580.9,363.5,580.4,364,580,364.5z"/>
						<circle class="st2" cx="580" cy="371.1" r="3.8"/>
					</g>
				</g>
				<g>
					<path class="st2" d="M292.9,364c-1.4,0-2.7,0.6-2.7,3s1.3,5.9,2.7,5.9s2.7-3.4,2.7-5.9C295.7,364.5,294.4,364,292.9,364z"/>
					<path class="st2" d="M285.4,366.9c1.1-1.1,2.3-1.5,4.1,0.2s3.3,5,2.2,6.1s-4.3-0.5-6.1-2.2
						C283.8,369.2,284.2,367.9,285.4,366.9z"/>
					<path class="st2" d="M280.7,391.7c1.1,1.1,2.3,1.5,4.1-0.2c1.7-1.7,3.3-5,2.2-6.1s-4.3,0.5-6.1,2.2
						C279.1,389.5,279.6,390.8,280.7,391.7z"/>
					<path class="st2" d="M303.4,374.4c0,1.4-0.6,2.7-3,2.7s-5.9-1.3-5.9-2.7s3.4-2.7,5.9-2.7C302.9,371.7,303.4,372.9,303.4,374.4z
						"/>
					<path class="st2" d="M299.5,391.2c-0.5-1-1.1-1.8-1.8-2.6c-0.5-0.5-1-1-1.4-1.4c-1.4-1.4-2-3-2-4.9c0-2.5,0-5.4,0-5.4
						c0-0.8-0.6-1.4-1.4-1.4c-0.9,0-1.4,0.6-1.4,1.4c0,0,0,2.9,0,5.4c0,2.6,1,5,2.8,6.8c0.5,0.5,1,1,1.4,1.4c1.4,1.4,2,3,2,4.9v5.7
						c0,0.8,0.6,1.4,1.4,1.4s1.4-0.6,1.4-1.4V397l3.8-6.4c0.2-0.4,0.2-1-0.2-1.4c-0.3-0.3-0.9-0.4-1.4-0.2L299.5,391.2L299.5,391.2z
						"/>
					<circle class="st2" cx="292.9" cy="374.4" r="2.8"/>
				</g>
				<path class="st2" d="M271.5,402.5v-4.9c0-0.8,0.6-1.4,1.4-1.4c0.9,0,1.4,0.6,1.4,1.4v4.9c0,0.8-0.6,1.4-1.4,1.4
					C272.1,403.9,271.5,403.3,271.5,402.5z"/>
				<path class="st2" d="M203.4,402.5v-4.9c0-0.8,0.6-1.4,1.4-1.4c0.8,0,1.4,0.6,1.4,1.4v4.9c0,0.8-0.6,1.4-1.4,1.4
					C204.1,403.9,203.4,403.3,203.4,402.5z"/>
				<path class="st2" d="M265.9,402.5v-9.7c0-0.8,0.6-1.4,1.4-1.4c0.8,0,1.4,0.6,1.4,1.4v9.7c0,0.8-0.6,1.4-1.4,1.4
					S265.9,403.3,265.9,402.5z"/>
				<g>
					<path class="st2" d="M240.1,348.8c-0.4,0.4-1,0.5-1.5,0.2c-0.6-0.2-0.9-0.8-0.9-1.4c0-8.5,0-30.7,0-40c0-0.6-0.4-1.2-1-1.4
						c-0.6-0.2-1.3,0-1.6,0.5c-0.6,0.7-1.1,1.4-1.6,2.1c-0.3,0.5-0.9,0.6-1.4,0.6c-0.6-0.1-1-0.5-1.2-1c-0.8-2.5-1.9-6.1-2.6-8.4
						c-0.2-0.6-0.6-1-1.2-1c-0.6-0.1-1.1,0.2-1.4,0.6c-0.6,1.1-1.1,2.3-1.1,3.8v18.3c0,0.6-0.3,1-0.8,1.3c-0.5,0.2-1,0.2-1.4-0.2
						l0,0c-2.2-1.7-4.2-3.2-5.9-4.3c-0.2-0.2-0.5-0.2-0.7-0.2c-0.7-0.1-2.2-0.2-3.4-0.3c-0.5-0.1-1,0.2-1.3,0.6s-0.4,0.9-0.3,1.4
						c0.5,1.8,1.2,4.2,1.4,5c0.1,0.2,0.2,0.3,0.2,0.5c1,1.4,2.1,2.9,3.3,4.4c1.1,1.4,2.2,2.7,3.5,4.1c1.8,2,3.6,3.9,5,5.4
						c0.2,0.2,0.4,0.6,0.4,1c0,6.4,0,62.4,0,62.4c0,0.2,13,0.2,13,0v-35.5c0-0.4,0.2-0.8,0.4-1c2.4-2.5,5.9-6.1,9.5-10
						c1.8-1.8,3.6-3.9,5.2-5.8c1.7-2,3.3-4,4.6-5.7c0.2-0.2,0.2-0.4,0.3-0.6s0.2-0.7,0.2-1.2c0.2-0.6-0.1-1.3-0.6-1.5
						s-1.2-0.3-1.6,0.1c-0.8,0.6-1.5,1.2-2.3,1.7c-0.4,0.3-1,0.3-1.4,0.1c-0.5-0.2-0.7-0.7-0.6-1.2l0,0c0-0.6-0.2-1-0.7-1.3
						c-0.5-0.2-1-0.2-1.4,0.2c-1.1,0.9-2.2,1.8-3.3,2.7c-1.9,1.6-3.9,3.5-5.8,5.2C240.2,348.6,240.1,348.7,240.1,348.8L240.1,348.8z
						"/>
					<path class="st2" d="M237.9,366l-5.6,5.8c-0.6,0.6-0.6,1.4,0.1,1.9c0.6,0.6,1.4,0.6,1.9-0.1l3.4-3.4v-3.4
						C237.5,366.6,237.7,366.3,237.9,366L237.9,366z"/>
					<path class="st0" d="M231.1,392.8v-2.9c0-0.8,0.6-1.4,1.4-1.4c0.8,0,1.4,0.6,1.4,1.4v2.9c0,0.8-0.6,1.4-1.4,1.4
						C231.7,394.2,231.1,393.6,231.1,392.8z"/>
					<path class="st0" d="M231.1,336v-0.9c0-0.8,0.6-1.4,1.4-1.4c0.8,0,1.4,0.6,1.4,1.4v0.9c0,0.8-0.6,1.4-1.4,1.4
						S231.1,336.7,231.1,336z"/>
					<path class="st0" d="M227.6,383.2v-1.1c0-0.8,0.6-1.4,1.4-1.4c0.9,0,1.4,0.6,1.4,1.4v1c0,0.8-0.6,1.4-1.4,1.4
						S227.6,383.8,227.6,383.2z"/>
				</g>
				<g>
					<path class="st2" d="M290.6,390c0,0.2,0.1,0.4,0.2,0.6l2.7,9.6H282l1.2-10.2H290.6L290.6,390z"/>
					<path class="st2" d="M325.1,320l2.8-0.9c0.7-0.2,1.1-1,0.9-1.7s-1-1.1-1.7-0.9l-2.8,0.9c-0.7,0.2-1.1,1-0.9,1.7
						C323.6,319.8,324.4,320.2,325.1,320z"/>
					<path class="st2" d="M341.6,288l2.8-0.9c0.7-0.2,1.1-1,0.9-1.7c-0.2-0.8-1-1.1-1.7-0.9l-2.8,0.9c-0.7,0.2-1.1,1-0.9,1.7
						C340.2,287.8,340.8,288.2,341.6,288z"/>
					<path class="st2" d="M330.1,323.6l1.4-0.4c0.7-0.2,1.1-1,0.9-1.7s-1-1.1-1.7-0.9l-1.4,0.4c-0.7,0.2-1.1,1-0.9,1.7
						C328.6,323.4,329.4,323.8,330.1,323.6z"/>
					<path class="st2" d="M333.1,312.4l1.4-0.4c0.7-0.2,1.1-1,0.9-1.7c-0.2-0.8-1-1.1-1.7-0.9l-1.4,0.4c-0.7,0.2-1.1,1-0.9,1.7
						S332.4,312.6,333.1,312.4z"/>
					<path class="st2" d="M333.1,286l1.4-0.4c0.7-0.2,1.1-1,0.9-1.7s-1-1.1-1.7-0.9l-1.4,0.4c-0.7,0.2-1.1,1-0.9,1.7
						C331.6,285.9,332.4,286.2,333.1,286z"/>
					<path class="st2" d="M340.1,328.5l1.5-1.6c0.6-0.6,1.4-0.6,1.9-0.1c0.6,0.6,0.6,1.4,0.1,1.9c0,0-14.4,15.4-20.4,22
						c-1.4,1.4-1.8,3.5-1.4,5.4c2,8.4,6.8,28,7.8,32.1c0.1,0.4,0.2,0.8,0.5,1.1c1.4,2.4,6,10,6,10c0.2,0.4,0.2,1,0,1.4
						c-0.2,0.5-0.7,0.7-1.2,0.7h-11.1c-0.6,0-1.2-0.5-1.4-1.1c0,0-8.7-36.8-11.2-47.7c-0.6-2.2-0.2-4.6,1.1-6.7
						c2.8-4.5,8.3-13.3,8.3-13.3c0.4-0.6,1.3-0.9,1.8-0.5c0.3,0.2,0.5,0.5,0.6,0.8L340.1,328.5L340.1,328.5z"/>
					<path class="st2" d="M306.2,322.3c0.7-0.7,1.1-1.5,1.1-2.6v-13.5c-1.2,1-2.8,1.8-5,1.6c-6.8-0.5-6.7-7-6.7-7.8
						c0-10,7.3-19,16.8-20.7c0,0,39.7-7.4,46.8-8.8c0.8-0.2,1.6-0.2,2.4-0.2h13v2.7c-0.9,0-1.7,0.4-2.5,1.1c-1,0.8-1.8,2-2.6,3.5
						c-2.6,4.8-4.2,12.6-4.2,21.5c0,8.8,1.6,16.7,4.2,21.5c0.8,1.4,1.6,2.6,2.6,3.5c0.8,0.7,1.6,1.1,2.5,1.1c0.8,0,1.4,0.6,1.4,1.4
						s-0.6,1.4-1.4,1.4H346c-1.4,0-2.8,0.2-4.1,0.6c-9.1,2.9-42.9,13.7-42.9,13.7c-0.4,0.2-0.7,0.3-1,0.6c-0.9,0.6-1.4,1.5-1.5,2.6
						c-1.4,14.3-3,28.6-4.4,42.9c-0.1,0.6,0,1.2,0.2,1.7l2.7,9.6c0.1,0.4,0,0.9-0.2,1.2c-0.2,0.3-0.7,0.6-1.1,0.6h-11.6
						c-0.4,0-0.8-0.2-1-0.5s-0.4-0.7-0.3-1.1c0,0,5.8-51.8,7.1-64.1c0.2-2.1,1.4-3.9,3.3-4.9l7.9-4.4L306.2,322.3z M300.2,329
						l-8,4.4c-1,0.6-1.8,1.6-1.8,2.8l-7,62.6h8.2l-2.2-7.9c-0.2-0.9-0.3-1.8-0.2-2.7c1.4-14.3,3-28.6,4.4-42.9
						c0.2-1.8,1.2-3.5,2.6-4.6c0.6-0.4,1.2-0.7,1.8-0.9l0,0c0,0,33.9-10.8,42.9-13.7c1.6-0.6,3.3-0.8,5-0.8h23.5
						c-0.8-0.9-1.5-1.9-2.2-3.3c-2.7-5.1-4.6-13.5-4.6-22.8s1.8-17.6,4.6-22.8c0.7-1.4,1.4-2.4,2.2-3.3h-7.7c-0.6,0-1.3,0.1-1.8,0.2
						c-7,1.4-46.8,8.8-46.8,8.8c-8.3,1.5-14.7,9.4-14.7,18.1v0.1c0,0-0.4,4.6,4.1,4.9c3.7,0.2,4.6-3.3,4.8-4v-6.8
						c0-0.8,0.6-1.4,1.4-1.4s1.4,0.6,1.4,1.4v25.3c0,0.2,0,0.2,0,0.4l3.2-1.8c0.6-0.4,1.4-0.2,1.8,0.6c0.4,0.6,0.2,1.4-0.6,1.8
						l-6.8,3.9c-0.3,0.2-0.6,0.5-1,0.7L300.2,329L300.2,329z"/>
				</g>
				<g>
					<path class="st2" d="M391.8,402.1c-2.3-3.1-3.9-7.9-3.9-13.4c0-5.4,1.4-10.2,3.9-13.4c2.3-3.1,3.9-7.9,3.9-13.4
						s-1.4-10.2-3.9-13.4c-2.3-3.1-3.9-7.9-3.9-13.4c0-5.4,1.4-10.2,3.9-13.4c2.3-3.1,3.9-7.9,3.9-13.4s-1.4-10.2-3.9-13.4
						c-2.3-3.1-3.9-7.9-3.9-13.4s1.4-10.2,3.9-13.4c2.3-3.1,3.9-7.9,3.9-13.4c0-5.4-1.4-10.2-3.9-13.4c-2.3-3.1-3.9-7.9-3.9-13.4
						s1.4-10.2,3.9-13.4c2.3-3.1,3.9-7.9,3.9-13.4c0-5.4-1.4-10.2-3.9-13.4c-2.3-3.1-3.9-7.9-3.9-13.4c0-9.5,3-13,13-13
						c10.1,0,13,3,13,13c0,5.4,1.4,10.2,3.9,13.4c2.3,3.1,3.9,7.9,3.9,13.4c0,5.4-1.4,10.2-3.9,13.4c-2.3,3.1-3.9,7.9-3.9,13.4
						s1.4,10.2,3.9,13.4c2.3,3.1,3.9,7.9,3.9,13.4c0,5.4-1.4,10.2-3.9,13.4c-2.3,3.1-3.9,7.9-3.9,13.4s1.4,10.2,3.9,13.4
						c2.3,3.1,3.9,7.9,3.9,13.4c0,5.4-1.4,10.2-3.9,13.4c-2.3,3.1-3.9,7.9-3.9,13.4s1.4,10.2,3.9,13.4c2.3,3.1,3.9,7.9,3.9,13.4
						c0,5.4-1.4,10.2-3.9,13.4c-2.3,3.1-3.9,7.9-3.9,13.4c0,5.4,1.4,10.2,3.9,13.4H391.8L391.8,402.1z"/>
					<path class="st0" d="M392.3,267.7c-0.2,0.2-0.2,0.4-0.4,0.6c-0.5,0.6-1,1.4-1.4,2.2h1.4c2.5,0,4.8,2.1,6.7,5.6
						c2.8,5.2,4.6,13.7,4.6,23.1s-1.8,17.9-4.6,23.1c-1.8,3.5-4.2,5.6-6.7,5.6H389c-0.2,0.9-0.5,1.8-0.6,2.7h3.5
						c3.3,0,6.7-2.4,9.1-7c3-5.5,4.9-14.5,4.9-24.5s-1.9-19-4.9-24.5C398.7,270.2,395.4,267.8,392.3,267.7L392.3,267.7z"/>
					<path class="st0" d="M404,327.4c3-5,5.2-12.6,6-21.4c0.1-0.8,0.7-1.4,1.4-1.3c0.8,0.1,1.4,0.7,1.3,1.4
						c-0.8,9.3-3.2,17.2-6.4,22.6c-0.4,0.6-1.3,0.9-1.8,0.5C403.9,329,403.6,328.1,404,327.4L404,327.4z"/>
					<path class="st0" d="M410.4,299.2c0-1.9-0.1-3.9-0.2-5.6c-0.1-0.8,0.6-1.4,1.3-1.4c0.8-0.1,1.4,0.6,1.4,1.3
						c0.2,1.8,0.2,3.9,0.2,5.8c0,0.8-0.6,1.4-1.4,1.4C410.9,300.6,410.4,300,410.4,299.2L410.4,299.2z"/>
					<path class="st0" d="M405.9,274.7c-0.6-1.4-1.2-2.6-1.8-3.7c-1.4-2.2-2.9-4.1-4.6-5.2c-0.6-0.5-0.8-1.4-0.3-1.9
						s1.4-0.8,1.9-0.3c1.9,1.4,3.8,3.4,5.4,6.1c0.7,1.2,1.4,2.6,2,4c0.3,0.7,0,1.4-0.7,1.8C407,275.7,406.2,275.4,405.9,274.7
						L405.9,274.7z"/>
					<path class="st0" d="M399.5,336c0,0-3.1,1.9-6.9,1.1c-0.8-0.2-1.3-0.9-1.1-1.6c0.2-0.8,0.9-1.3,1.6-1.1
						c2.7,0.6,4.9-0.8,4.9-0.8c0.6-0.4,1.4-0.2,1.8,0.5C400.3,334.8,400,335.6,399.5,336L399.5,336z"/>
					<path class="st0" d="M407.5,168.3v-1c0-0.8-0.6-1.4-1.4-1.4s-1.4,0.6-1.4,1.4v1h-1c-0.8,0-1.4,0.6-1.4,1.4
						c0,0.8,0.6,1.4,1.4,1.4h1v1c0,0.8,0.6,1.4,1.4,1.4s1.4-0.6,1.4-1.4v-1h1c0.8,0,1.4-0.6,1.4-1.4c0-0.8-0.6-1.4-1.4-1.4H407.5
						L407.5,168.3z"/>
					<path class="st0" d="M405.1,225.9v-1c0-0.8-0.6-1.4-1.4-1.4s-1.4,0.6-1.4,1.4v1h-1c-0.8,0-1.4,0.6-1.4,1.4
						c0,0.8,0.6,1.4,1.4,1.4h1v1c0,0.8,0.6,1.4,1.4,1.4s1.4-0.6,1.4-1.4v-1h1c0.8,0,1.4-0.6,1.4-1.4s-0.6-1.4-1.4-1.4H405.1
						L405.1,225.9z"/>
					<path class="st0" d="M413.9,256.3v-1c0-0.8-0.6-1.4-1.4-1.4s-1.4,0.6-1.4,1.4v1h-1c-0.8,0-1.4,0.6-1.4,1.4s0.6,1.4,1.4,1.4h1v1
						c0,0.8,0.6,1.4,1.4,1.4s1.4-0.6,1.4-1.4v-1h1c0.8,0,1.4-0.6,1.4-1.4s-0.6-1.4-1.4-1.4H413.9L413.9,256.3z"/>
					<path class="st0" d="M413.3,355v-1c0-0.8-0.6-1.4-1.4-1.4s-1.4,0.6-1.4,1.4v1h-1c-0.8,0-1.4,0.6-1.4,1.4s0.6,1.4,1.4,1.4h1v1
						c0,0.8,0.6,1.4,1.4,1.4s1.4-0.6,1.4-1.4v-1h1c0.8,0,1.4-0.6,1.4-1.4s-0.6-1.4-1.4-1.4H413.3z"/>
					<path class="st0" d="M397.8,394.3v-1c0-0.8-0.6-1.4-1.4-1.4s-1.4,0.6-1.4,1.4v1h-1c-0.8,0-1.4,0.6-1.4,1.4s0.6,1.4,1.4,1.4h1v1
						c0,0.8,0.6,1.4,1.4,1.4s1.4-0.6,1.4-1.4v-1h1c0.8,0,1.4-0.6,1.4-1.4s-0.6-1.4-1.4-1.4H397.8z"/>
					<path class="st0" d="M403.5,177.9v-0.2c0-0.8-0.6-1.4-1.4-1.4s-1.4,0.6-1.4,1.4v0.2h-0.2c-0.8,0-1.4,0.6-1.4,1.4
						c0,0.8,0.6,1.4,1.4,1.4h0.2v0.2c0,0.8,0.6,1.4,1.4,1.4s1.4-0.6,1.4-1.4v-0.2h0.2c0.8,0,1.4-0.6,1.4-1.4c0-0.8-0.6-1.4-1.4-1.4
						H403.5z"/>
					<path class="st0" d="M412.8,210.9v-0.2c0-0.8-0.6-1.4-1.4-1.4s-1.4,0.6-1.4,1.4v0.2h-0.2c-0.8,0-1.4,0.6-1.4,1.4
						c0,0.8,0.6,1.4,1.4,1.4h0.2v0.2c0,0.8,0.6,1.4,1.4,1.4s1.4-0.6,1.4-1.4v-0.2h0.2c0.8,0,1.4-0.6,1.4-1.4c0-0.8-0.6-1.4-1.4-1.4
						H412.8z"/>
					<path class="st0" d="M400.6,240v-0.2c0-0.8-0.6-1.4-1.4-1.4s-1.4,0.6-1.4,1.4v0.2h-0.2c-0.8,0-1.4,0.6-1.4,1.4s0.6,1.4,1.4,1.4
						h0.2v0.2c0,0.8,0.6,1.4,1.4,1.4s1.4-0.6,1.4-1.4v-0.3h0.1c0.8,0,1.4-0.6,1.4-1.4C402.2,240.4,401.5,240,400.6,240L400.6,240z"
						/>
					<path class="st0" d="M401.5,344.5v-0.2c0-0.8-0.6-1.4-1.4-1.4s-1.4,0.6-1.4,1.4v0.2h-0.2c-0.8,0-1.4,0.6-1.4,1.4
						s0.6,1.4,1.4,1.4h0.2v0.2c0,0.8,0.6,1.4,1.4,1.4s1.4-0.6,1.4-1.4v-0.2h0.2c0.8,0,1.4-0.6,1.4-1.4s-0.6-1.4-1.4-1.4H401.5z"/>
					<path class="st0" d="M406.2,381.4v-0.2c0-0.8-0.6-1.4-1.4-1.4s-1.4,0.6-1.4,1.4v0.2h-0.2c-0.8,0-1.4,0.6-1.4,1.4
						s0.6,1.4,1.4,1.4h0.2v0.2c0,0.8,0.6,1.4,1.4,1.4s1.4-0.6,1.4-1.4v-0.2h0.2c0.8,0,1.4-0.6,1.4-1.4s-0.6-1.4-1.4-1.4H406.2z"/>
					<path class="st0" d="M406,201.6v-0.2c0-0.8-0.6-1.4-1.4-1.4s-1.4,0.6-1.4,1.4v0.2H403c-0.8,0-1.4,0.6-1.4,1.4
						c0,0.8,0.6,1.4,1.4,1.4h0.2v0.2c0,0.8,0.6,1.4,1.4,1.4s1.4-0.6,1.4-1.4v-0.2h0.2c0.8,0,1.4-0.6,1.4-1.4c0-0.8-0.6-1.4-1.4-1.4
						H406z"/>
				</g>
				<g>
					<path class="st2" d="M453.1,294v2.4c0,3.2-2.6,5.8-5.8,5.8c-1.8,0-3.4,1.4-3.6,3.2v0.6c-0.2,3.4-3,5.9-6.5,5.9h-3
						c-1.4,2.6-2.4,4.2-2.6,4.6c-0.6,1.3-1.4,2.2-2.6,2.8l-4.1,2l-11.7,5.7c-0.3,0.2-0.6,0.4-0.7,0.8l-1.8,5l0,0l-0.8,2.2l0,0
						l-3.4,9.3c-0.1,0.2-0.1,0.3-0.1,0.4l-3.1,8.9c-0.2,0.6-0.3,1.2-0.3,1.8c0,0,0.2,9.5,0.2,14.7c0,0.6-0.3,1-0.8,1.2
						s-1,0.1-1.4-0.2c-1-1-1.8-1.8-1.8-1.8c-0.6-0.6-1.4-0.6-1.9,0c-0.6,0.6-0.6,1.4,0,1.9c0,0,4.3,4.3,5.7,5.7
						c0.2,0.2,0.4,0.6,0.4,0.9c0,0.4,0,1,0,1.6s-0.3,1-0.8,1.2s-1,0.1-1.4-0.3c-1-1-1.9-1.9-1.9-1.9c-0.6-0.6-1.4-0.6-1.9,0
						c-0.6,0.6-0.6,1.4,0,1.9c0,0,4.5,4.5,5.8,5.8c0.2,0.2,0.4,0.6,0.4,0.9c0,0.4,0,0.9,0,0.9c0,0.6,0.1,1.1,0.3,1.6l3.5,10.2
						c0.2,0.4,0.1,0.9-0.2,1.3c-0.3,0.4-0.7,0.6-1.1,0.6h-11.5c-0.8,0-8.2-5.2-8.2-6c0,0-0.2,1.1-0.2-4.4l0,0v-34.4
						c-0.9-0.5-1.4-1.4-1.4-2.4v-26.3h-6.2c-2.8,0-5.4-2.1-7.5-6c-2.7-5.1-4.6-13.5-4.6-22.8s1.8-17.6,4.6-22.8c2.1-3.9,4.7-6,7.5-6
						h23.6c2.5,0,4.9-0.9,6.8-2.5c4.2-3.7,11.4-9.8,14.7-12.6c1.1-1,1.9-2,2.6-3.4l4.5-9.3c0.1-0.2,0.1-0.2,0.2-0.4l2.3-4.9
						c-0.8-0.1-0.6-0.2,0.2-0.5c-6.4-0.2-11.1-0.3-11.1-0.3c-1.3,0-2.3-0.5-3.2-1.4l-14.9-17.1c-0.6-0.6-1-1.5-1-2.4l1.2-23.3
						c0-1.4,1.1-2.4,2.4-2.4c1.4,0,2.4,1.1,2.4,2.4l1.1,21.8c0,0,10.9,10.7,13.3,13c0.3,0.3,0.7,0.5,1.1,0.5l0,0
						c1.1,0,2-0.7,2.5-1.6c0.5-1,0.3-2.1-0.4-3c-1.9-2.3-4-4.7-4-4.7c-0.6-0.6-0.9-1.4-0.9-2.1l1-12.6c0-1.2,1-2,2-2c1.2,0,2,1,2,2
						l0.9,11.3l6.8,6.5c2.2-0.1,7-0.3,11.8-0.3s9.5,0.2,11.8,0.4l6.8-6.5l0.9-11.3c0-1.2,1-2,2-2s2,1,2,2l1,12.6
						c0,0.8-0.3,1.4-0.8,2c0,0-1.9,2.3-3.9,4.6c-0.7,0.9-0.9,2-0.4,3s1.4,1.7,2.6,1.7l0,0c0.4,0,0.9-0.2,1.1-0.5
						c2.4-2.4,13.1-13,13.1-13l1-21.9c0-1.4,1.1-2.4,2.4-2.4s2.4,1.1,2.4,2.4l1.1,23.3c0,0.9-0.3,1.7-1,2.3l-14.7,17
						c-0.8,0.9-1.9,1.4-3.2,1.4c0,0-4,0.2-9.6,0.3l19.7,13c0.9,0.6,1.4,1.4,1.5,2.4v0.2v0.1l0,0c0,0.1,0,0.2,0,0.3l-2.2,9.4
						c-0.4,1.4-1.6,2.5-3.1,2.6c-4.2,0.4-11.1,1-14.4,1.3c-0.2,0-0.3,0-0.5,0.1c-0.6,0.1-1.2,0.4-1.5,0.8c-0.2,0.2-0.7,1-1.4,2.2
						v15.8C459.2,289.3,456.7,292.7,453.1,294L453.1,294z M423.6,376c1.2-5.3,5-22.8,6.6-29.6c0.2-1.2-0.2-2.3-1.3-2.9l-15.6-9.2
						l1.8-5l11.7-5.7l13,10.6c1.6,1.4,2.3,3.4,1.8,5.5c0,0-3.7,15.3-5.3,22c-0.2,0.5-0.6,0.9-1,1c-0.6,0.1-1-0.2-1.4-0.6
						c-0.8-1.3-1.4-2.5-1.4-2.5c-0.4-0.6-1.3-0.9-1.8-0.5c-0.6,0.4-0.9,1.3-0.5,1.8c0,0,3.3,5.5,4.2,7.1c0.2,0.3,0.2,0.6,0.2,1
						c-0.1,0.4-0.2,1-0.4,1.4s-0.6,0.9-1,1c-0.6,0.1-1-0.2-1.3-0.6c-0.8-1.4-1.5-2.6-1.5-2.6c-0.4-0.6-1.3-0.9-1.8-0.5
						s-0.9,1.3-0.5,1.8c0,0,3.4,5.7,4.3,7.3c0.2,0.3,0.2,0.6,0.2,1s-0.2,0.7-0.2,0.9c0,0.1,0,0.2,0,0.2c0,0.2,0,0.2,0,0.4v10.9
						c0,0.5-0.2,0.9-0.6,1.1s-0.9,0.3-1.3,0.2l-9.6-3.3c-0.7-0.2-6.4-6.6-6.2-7.2c0,0,0,0,1.8-5.2c0,0,0,0,0.1-0.1l1.7-24.3
						c-0.2-0.1-0.3-0.2-0.5-0.4l-7.6-8l2.1-5.8l9.5,10c1,1.1,1,2.9-0.1,3.9c-0.2,0.2-0.5,0.4-0.7,0.5l-1.7,24.7
						c1.4,0.3,3,0.7,3.7,0.7c0.2-0.1,0.2-0.1,0.3-0.2c0.1-0.3,0.2-0.6,0.3-0.9L423.6,376L423.6,376z M390.6,322.1v32.2
						c0,1-0.6,1.9-1.4,2.4v33.9c1.8-0.2,4.1-0.4,4.1-0.6v-68c0-0.8-0.6-1.4-1.4-1.4C391.2,320.8,390.6,321.3,390.6,322.1
						L390.6,322.1z M450.4,294.4c-0.1,0-0.2,0-0.3,0h-5.7c-3.1,5.4-6.2,10.6-8.5,14.7h1.4c1.8,0,3.5-1.4,3.7-3.1v-0.8
						c0.2-3.3,3-5.9,6.3-5.9c1.6,0,3-1.4,3-3L450.4,294.4L450.4,294.4z M450.4,291.7v-7.4c-1.4,2.4-2.9,4.9-4.3,7.4h4.1
						C450.1,291.7,450.3,291.7,450.4,291.7L450.4,291.7z M456.5,274.1c-1,1.6-2.1,3.5-3.3,5.5V291c1.9-1.1,3.3-3.2,3.3-5.5V274.1z"
						/>
					<g>
						<path class="st0" d="M410.5,210.6h-6.6l0.2-2.7h6.3L410.5,210.6L410.5,210.6z M410.2,204.4h-5.9l0.2-2.7h5.7L410.2,204.4
							L410.2,204.4z"/>
						<path class="st0" d="M489.7,210.6h-6.5l0.2-2.7h6.3V210.6z M489.4,204.4h-5.9l0.2-2.7h5.6L489.4,204.4L489.4,204.4z"/>
						<path class="st0" d="M474.8,258.1c0,0,0.2,0.2,0.8,0.6c0.2,0.1,0.3,0.2,0.6,0.2s0.4-0.1,0.6-0.2c0.6-0.2,0.8-0.6,0.8-0.6
							c0.4,0,0.7-0.3,0.7-0.7s-0.3-0.7-0.7-0.7c0,0-0.2-0.2-0.8-0.6c-0.2-0.1-0.3-0.2-0.6-0.2s-0.4,0.1-0.6,0.2
							c-0.6,0.3-0.8,0.6-0.8,0.6c-0.4,0-0.7,0.3-0.7,0.7C474.1,257.8,474.4,258.1,474.8,258.1z"/>
						<path class="st0" d="M469,258.1c0,0,0.2,0.2,0.8,0.6c0.2,0.1,0.3,0.2,0.6,0.2s0.4-0.1,0.6-0.2c0.6-0.2,0.8-0.6,0.8-0.6
							c0.4,0,0.7-0.3,0.7-0.7s-0.3-0.7-0.7-0.7c0,0-0.2-0.2-0.8-0.6c-0.2-0.1-0.3-0.2-0.6-0.2s-0.4,0.1-0.6,0.2
							c-0.6,0.3-0.8,0.6-0.8,0.6c-0.4,0-0.7,0.3-0.7,0.7C468.2,257.8,468.6,258.1,469,258.1z"/>
						<path class="st0" d="M463.1,258.1c0,0,0.2,0.2,0.8,0.6c0.2,0.1,0.3,0.2,0.6,0.2s0.4-0.1,0.6-0.2c0.6-0.2,0.8-0.6,0.8-0.6
							c0.4,0,0.7-0.3,0.7-0.7s-0.3-0.7-0.7-0.7c0,0-0.2-0.2-0.8-0.6c-0.2-0.1-0.3-0.2-0.6-0.2s-0.4,0.1-0.6,0.2
							c-0.6,0.3-0.8,0.6-0.8,0.6c-0.4,0-0.7,0.3-0.7,0.7C462.5,257.8,462.7,258.1,463.1,258.1z"/>
						<path class="st0" d="M471.9,254.4c0,0,0.2,0.2,0.8,0.6c0.2,0.1,0.3,0.2,0.6,0.2s0.4-0.1,0.6-0.2c0.6-0.2,0.8-0.6,0.8-0.6
							c0.4,0,0.7-0.3,0.7-0.7s-0.3-0.7-0.7-0.7c0,0-0.2-0.2-0.8-0.6c-0.2-0.1-0.3-0.2-0.6-0.2s-0.4,0.1-0.6,0.2
							c-0.6,0.3-0.8,0.6-0.8,0.6c-0.4,0-0.7,0.3-0.7,0.7C471.2,254.1,471.5,254.4,471.9,254.4z"/>
						<path class="st0" d="M466.1,254.4c0,0,0.2,0.2,0.8,0.6c0.2,0.1,0.3,0.2,0.6,0.2s0.4-0.1,0.6-0.2c0.6-0.2,0.8-0.6,0.8-0.6
							c0.4,0,0.7-0.3,0.7-0.7s-0.3-0.7-0.7-0.7c0,0-0.2-0.2-0.8-0.6c-0.2-0.1-0.3-0.2-0.6-0.2s-0.4,0.1-0.6,0.2
							c-0.6,0.3-0.8,0.6-0.8,0.6c-0.4,0-0.7,0.3-0.7,0.7C465.4,254.1,465.7,254.4,466.1,254.4z"/>
						<path class="st0" d="M471.9,261.6c0,0,0.2,0.2,0.8,0.6c0.2,0.1,0.3,0.2,0.6,0.2s0.4-0.1,0.6-0.2c0.6-0.2,0.8-0.6,0.8-0.6
							c0.4,0,0.7-0.3,0.7-0.7c0-0.4-0.3-0.7-0.7-0.7c0,0-0.2-0.2-0.8-0.6c-0.2-0.1-0.3-0.2-0.6-0.2s-0.4,0.1-0.6,0.2
							c-0.6,0.3-0.8,0.6-0.8,0.6c-0.4,0-0.7,0.3-0.7,0.7C471.2,261.4,471.5,261.6,471.9,261.6z"/>
						<path class="st0" d="M466.1,261.6c0,0,0.2,0.2,0.8,0.6c0.2,0.1,0.3,0.2,0.6,0.2s0.4-0.1,0.6-0.2c0.6-0.2,0.8-0.6,0.8-0.6
							c0.4,0,0.7-0.3,0.7-0.7c0-0.4-0.3-0.7-0.7-0.7c0,0-0.2-0.2-0.8-0.6c-0.2-0.1-0.3-0.2-0.6-0.2s-0.4,0.1-0.6,0.2
							c-0.6,0.3-0.8,0.6-0.8,0.6c-0.4,0-0.7,0.3-0.7,0.7C465.4,261.4,465.7,261.6,466.1,261.6z"/>
						<circle class="st0" cx="463.2" cy="231.7" r="1.9"/>
						<circle class="st0" cx="458.2" cy="226.7" r="1.9"/>
						<circle class="st0" cx="388.8" cy="286" r="2.6"/>
						<circle class="st0" cx="379" cy="286" r="2.6"/>
						<path class="st0" d="M409.8,267.4l18.6,18.6c0.6,0.6,0.6,1.4,0,1.9l-5.8,5.8c-0.6,0.6-1.4,0.6-1.9,0l-4.8-4.8l-4.5,4.5
							c-0.2,0.2-0.6,0.4-1,0.4h-25.6l18.1,18.1h20.6c0-0.1,0-0.1,0-0.2c0-6.2,5-11.2,11.2-11.2c1.9,0,3.9,0.6,5.4,1.4
							c-0.5,0.8-1,1.6-1.4,2.4c-1.2-0.6-2.6-1-4.1-1c-4.6,0-8.4,3.9-8.4,8.4c0,3,1.5,5.5,3.9,7c-0.3,0.2-0.6,0.4-0.9,0.6l-1.8,0.9
							c-1.7-1.4-3-3.4-3.5-5.6h-21.5c-0.4,0-0.7-0.2-1-0.4L381.1,294h-13.7c-0.1,0-0.1,0-0.2,0c0.1-1,0.2-1.8,0.2-2.7h42.4l9.8-9.8
							l-12.2-12.2c0.6-0.3,1.1-0.7,1.5-1.1L409.8,267.4L409.8,267.4z M421.7,283.2l-3.9,3.9l3.9,3.9l3.9-3.9L421.7,283.2z
							 M437.7,270.2l2.3-2.3c0.6-0.6,0.6-1.4,0-1.9c-0.6-0.6-1.4-0.6-1.9,0l-2.3,2.3c-0.6,0.6-0.6,1.4,0,1.9
							C436.3,270.7,437.2,270.7,437.7,270.2z M425.8,270.2l2.3-2.3c0.6-0.6,0.6-1.4,0-1.9c-0.6-0.6-1.4-0.6-1.9,0l-2.3,2.3
							c-0.6,0.6-0.6,1.4,0,1.9C424.5,270.7,425.3,270.7,425.8,270.2z M431.8,270.2l2.3-2.3c0.6-0.6,0.6-1.4,0-1.9
							c-0.6-0.6-1.4-0.6-1.9,0l-2.3,2.3c-0.6,0.6-0.6,1.4,0,1.9C430.4,270.7,431.2,270.7,431.8,270.2z M466.9,236.8
							c-1.4,0.1-3.4,0.1-5.4,0.2l4,2.6h-16.4c-0.9,0-1.4,0.7-1.4,1.4v2.1c0,0.9,0.7,1.4,1.4,1.4h24.1l4.2,2.7h-28.3
							c-0.7,0-1.4-0.2-1.8-0.5l0,0l-12.9,12.9c-0.2,0.2-0.6,0.4-1,0.4h-15l3.2-2.7h11.3l12.5-12.5l0,0c-0.3-0.6-0.5-1.2-0.5-1.8
							v-2.1c0-2.3,1.9-4.2,4.2-4.2L466.9,236.8L466.9,236.8z M432.1,237h4.2c0.8,0,1.4,0.6,1.4,1.4s-0.6,1.4-1.4,1.4h-4.1l1.1-2.2
							c-0.8-0.1-0.6-0.2,0.2-0.5C433.1,237,432.7,237,432.1,237L432.1,237z M443.3,221.2l-3.9,3.9h6.8l3.9-3.9
							c1.4,0,2.6,0.1,3.9,0.1l-6.1,6.1c-0.2,0.2-0.6,0.4-1,0.4h-10.2l-9.1,9.1c-1.6-0.1-3-0.1-3.9-0.1l11.1-11.1
							c0.1-0.2,0.2-0.2,0.3-0.3l4.1-4.1C440.5,221.2,441.9,221.2,443.3,221.2L443.3,221.2z"/>
						<g>
							<g>
								<path class="st0" d="M393.3,331.9v-9.7c0-0.8-0.6-1.4-1.4-1.4s-1.4,0.6-1.4,1.4v9.7c0,0.8,0.6,1.4,1.4,1.4
									S393.3,332.6,393.3,331.9z"/>
								<path class="st0" d="M474.8,258.1c0,0,0.2,0.2,0.8,0.6c0.2,0.1,0.3,0.2,0.6,0.2s0.4-0.1,0.6-0.2c0.6-0.2,0.8-0.6,0.8-0.6
									c0.4,0,0.7-0.3,0.7-0.7s-0.3-0.7-0.7-0.7c0,0-0.2-0.2-0.8-0.6c-0.2-0.1-0.3-0.2-0.6-0.2s-0.4,0.1-0.6,0.2
									c-0.6,0.3-0.8,0.6-0.8,0.6c-0.4,0-0.7,0.3-0.7,0.7C474.1,257.8,474.4,258.1,474.8,258.1z"/>
								<path class="st0" d="M469,258.1c0,0,0.2,0.2,0.8,0.6c0.2,0.1,0.3,0.2,0.6,0.2s0.4-0.1,0.6-0.2c0.6-0.2,0.8-0.6,0.8-0.6
									c0.4,0,0.7-0.3,0.7-0.7s-0.3-0.7-0.7-0.7c0,0-0.2-0.2-0.8-0.6c-0.2-0.1-0.3-0.2-0.6-0.2s-0.4,0.1-0.6,0.2
									c-0.6,0.3-0.8,0.6-0.8,0.6c-0.4,0-0.7,0.3-0.7,0.7C468.2,257.8,468.6,258.1,469,258.1z"/>
								<path class="st0" d="M463.1,258.1c0,0,0.2,0.2,0.8,0.6c0.2,0.1,0.3,0.2,0.6,0.2s0.4-0.1,0.6-0.2c0.6-0.2,0.8-0.6,0.8-0.6
									c0.4,0,0.7-0.3,0.7-0.7s-0.3-0.7-0.7-0.7c0,0-0.2-0.2-0.8-0.6c-0.2-0.1-0.3-0.2-0.6-0.2s-0.4,0.1-0.6,0.2
									c-0.6,0.3-0.8,0.6-0.8,0.6c-0.4,0-0.7,0.3-0.7,0.7C462.5,257.8,462.7,258.1,463.1,258.1z"/>
								<path class="st0" d="M471.9,254.4c0,0,0.2,0.2,0.8,0.6c0.2,0.1,0.3,0.2,0.6,0.2s0.4-0.1,0.6-0.2c0.6-0.2,0.8-0.6,0.8-0.6
									c0.4,0,0.7-0.3,0.7-0.7s-0.3-0.7-0.7-0.7c0,0-0.2-0.2-0.8-0.6c-0.2-0.1-0.3-0.2-0.6-0.2s-0.4,0.1-0.6,0.2
									c-0.6,0.3-0.8,0.6-0.8,0.6c-0.4,0-0.7,0.3-0.7,0.7C471.2,254.1,471.5,254.4,471.9,254.4z"/>
								<path class="st0" d="M466.1,254.4c0,0,0.2,0.2,0.8,0.6c0.2,0.1,0.3,0.2,0.6,0.2s0.4-0.1,0.6-0.2c0.6-0.2,0.8-0.6,0.8-0.6
									c0.4,0,0.7-0.3,0.7-0.7s-0.3-0.7-0.7-0.7c0,0-0.2-0.2-0.8-0.6c-0.2-0.1-0.3-0.2-0.6-0.2s-0.4,0.1-0.6,0.2
									c-0.6,0.3-0.8,0.6-0.8,0.6c-0.4,0-0.7,0.3-0.7,0.7C465.4,254.1,465.7,254.4,466.1,254.4z"/>
								<path class="st0" d="M471.9,261.6c0,0,0.2,0.2,0.8,0.6c0.2,0.1,0.3,0.2,0.6,0.2s0.4-0.1,0.6-0.2c0.6-0.2,0.8-0.6,0.8-0.6
									c0.4,0,0.7-0.3,0.7-0.7c0-0.4-0.3-0.7-0.7-0.7c0,0-0.2-0.2-0.8-0.6c-0.2-0.1-0.3-0.2-0.6-0.2s-0.4,0.1-0.6,0.2
									c-0.6,0.3-0.8,0.6-0.8,0.6c-0.4,0-0.7,0.3-0.7,0.7C471.2,261.4,471.5,261.6,471.9,261.6z"/>
								<path class="st0" d="M466.1,261.6c0,0,0.2,0.2,0.8,0.6c0.2,0.1,0.3,0.2,0.6,0.2s0.4-0.1,0.6-0.2c0.6-0.2,0.8-0.6,0.8-0.6
									c0.4,0,0.7-0.3,0.7-0.7c0-0.4-0.3-0.7-0.7-0.7c0,0-0.2-0.2-0.8-0.6c-0.2-0.1-0.3-0.2-0.6-0.2s-0.4,0.1-0.6,0.2
									c-0.6,0.3-0.8,0.6-0.8,0.6c-0.4,0-0.7,0.3-0.7,0.7C465.4,261.4,465.7,261.6,466.1,261.6z"/>
								<circle class="st0" cx="463.2" cy="231.7" r="1.9"/>
								<circle class="st0" cx="458.2" cy="226.7" r="1.9"/>
							</g>
						</g>
						<circle class="st0" cx="393.3" cy="394.9" r="2.1"/>
						<circle class="st0" cx="421.7" cy="382.1" r="2.1"/>
					</g>
				</g>
				<line class="st6" x1="644.4" y1="403.3" x2="163.9" y2="403.3"/>
			</g>
			<line class="st7" x1="0" y1="404.1" x2="1317.4" y2="404.1"/>
		</g>
	</g>
</g>
</svg>
