<?xml version="1.0" encoding="utf-8"?>
<!-- Generator: Adobe Illustrator 25.0.1, SVG Export Plug-In . SVG Version: 6.00 Build 0)  -->
<svg version="1.1" id="Layer_1" xmlns="http://www.w3.org/2000/svg" xmlns:xlink="http://www.w3.org/1999/xlink" x="0px" y="0px"
	 viewBox="0 0 1317.4 271.3" style="enable-background:new 0 0 1317.4 271.3;" xml:space="preserve">
<style type="text/css">
	.st0{fill-rule:evenodd;clip-rule:evenodd;fill:#B3B3B4;}
	.st1{fill-rule:evenodd;clip-rule:evenodd;fill:#F0F0F0;}
	.st2{fill-rule:evenodd;clip-rule:evenodd;fill:#464647;}
	.st3{fill:none;stroke:#464647;stroke-width:3.8352;stroke-linecap:round;stroke-linejoin:round;stroke-miterlimit:1.4382;}
	.st4{fill-rule:evenodd;clip-rule:evenodd;fill:#FFFFFF;}
	.st5{fill:none;stroke:#464647;stroke-width:8;stroke-miterlimit:10;}
</style>
<g>
	<g>
		<g>
			<path class="st0" d="M625.6,88.2c0,0-2.3-0.5-5.3-0.9c-1.1-0.1-2.4-0.2-3.5-0.2s-2.4,0.1-3.5,0.3c-3,0.4-5.3,0.8-5.3,0.8
				c-0.6,0-1,0.5-1,1c0,0.6,0.5,1,1,1c0,0,2.3,0.4,5.3,0.8c1.1,0.1,2.4,0.3,3.5,0.3s2.4-0.1,3.5-0.2c3-0.4,5.3-0.9,5.3-0.9
				c0.6,0,1-0.5,1-1C626.7,88.6,626.2,88.2,625.6,88.2L625.6,88.2z"/>
			<path class="st1" d="M620.8,88.8c0,0-1-0.2-2.4-0.4c-0.6-0.1-1-0.1-1.6-0.1c-0.6,0-1.1,0.1-1.6,0.1c-1.3,0.1-2.4,0.4-2.4,0.4
				c-0.2,0-0.4,0.2-0.4,0.4c0,0.2,0.2,0.4,0.4,0.4c0,0,1,0.2,2.4,0.4c0.6,0.1,1,0.1,1.6,0.1s1.1-0.1,1.6-0.1
				c1.3-0.1,2.4-0.4,2.4-0.4c0.2,0,0.4-0.2,0.4-0.4C621.3,89,621,88.8,620.8,88.8L620.8,88.8z"/>
			<path class="st2" d="M644.3,84.5c0,0.9,0.4,1.7,1.1,2.3c0.7,0.6,1.6,0.8,2.4,0.6c1.6-0.4,3.4-0.8,4.3-1.1
				c1.7-0.8,4.6-1.4,6.7-0.4l0,0c0.2,0.1,0.5,0.3,0.7,0.4l5.3,3.4c0.2,0.1,0.4,0.4,0.4,0.6c0,0.2-0.2,0.5-0.5,0.6l-2.6,0.6
				c-0.5,0.1-2.5,0.8-3.1,0.9c-4.3,1.5-9.4,4-9.4,4c-1.5,0.7-3.1,1.1-4.8,1.1h-7c-0.6,0-1.2-0.1-1.8-0.1l0,0c-0.6-0.1-1-0.2-1.6-0.4
				l-14.6-3.5c-0.3-0.1-0.5-0.4-0.5-0.6l0,0c0-0.2-0.1-0.5-0.4-0.6c-0.5-0.2-1.2-0.5-1.7-0.7c-0.2-0.1-0.4-0.4-0.4-0.6
				c0-0.8,0-2.3,0-3.1c0-0.3,0.2-0.6,0.4-0.6c0.5-0.2,1.2-0.5,1.7-0.7c0.2-0.1,0.4-0.4,0.4-0.6l0,0c0-0.4,0.3-0.7,0.7-0.7
				c0,0,2.8-0.1,4.9-0.1c1.1,0,2.1-0.9,2.4-1.9c2.6-12.8,12.4-17.9,16.1-19.4c0.3-0.1,0.6-0.1,0.8,0.2c0.1,0.1,0.2,0.3,0.2,0.4l0,0
				l0,0c0,0.1,0,0.1,0,0.1L644.3,84.5L644.3,84.5z"/>
			<path class="st0" d="M634,96.7l4.8-4.8c0.1-0.1,0.4-0.2,0.6-0.2H653c0.5,0,0.9,0.4,0.9,0.9v1.8c-0.6,0.2-1.2,0.6-1.7,0.8v-1.7
				h-12.4l-3.9,3.9c-0.6-0.1-1-0.2-1.5-0.4L634,96.7L634,96.7z M661.1,87.2l2.6,1.7c-0.1,0-0.1,0-0.1,0h-6.2c-0.5,0-0.9-0.4-0.9-0.9
				c0-0.5,0.4-0.9,0.9-0.9L661.1,87.2L661.1,87.2z M639,65.9l2.9,2.9c0.9-0.6,1.6-1,2.4-1.4v2c-3.9,2.4-9.2,6.9-11.4,15.4
				c0,0.1-0.1,0.1-0.1,0.2l0,0c-0.1,0.1-0.1,0.1-0.1,0.2c-0.1,0.1-0.2,0.2-0.4,0.2l0,0c-0.1,0.1-0.3,0.1-0.4,0
				c-0.1,0-0.1-0.1-0.2-0.1l0,0c-0.1-0.1-0.1-0.1-0.2-0.1l-3.9-3.9c0.2-0.6,0.4-1.2,0.6-1.8l3.5,3.5c0.5-1.5,1-2.8,1.6-4.1l-3.4-3.4
				c0.3-0.6,0.6-1,0.9-1.5l3.3,3.3c0.8-1.3,1.6-2.4,2.4-3.5l-3.2-3.2c0.4-0.4,0.8-0.9,1.1-1.2l3.1,3.1c1-1,2-2,3-2.8l-3-3
				C638.1,66.5,638.5,66.2,639,65.9z"/>
			<circle class="st0" cx="630" cy="92.3" r="1.2"/>
			<ellipse class="st0" cx="625.7" cy="92.3" rx="1.2" ry="1.2"/>
		</g>
		<g>
			<path class="st2" d="M607.8,84.3c-0.1,0.1-0.3,0.2-0.4,0.2c-0.4-0.1-0.9-0.1-1.2-0.1c-0.2-0.1-0.4-0.2-0.4-0.5
				c0.1-0.5,0.1-1.2,0.2-1.8c0-0.1,0.1-0.3,0.2-0.4s0.3-0.1,0.4,0c0.5,0.3,1.2,0.7,1.6,0.9c0.1,0.1,0.2,0.1,0.2,0.3
				c0.1,0.1,0,0.2-0.1,0.4C608.2,83.6,607.9,84,607.8,84.3L607.8,84.3z"/>
			<path class="st2" d="M655.1,101.2c-0.1,0.2-0.2,0.3-0.4,0.3s-0.5,0.1-0.7,0.1c-0.2,0-0.4-0.1-0.5-0.4c-0.1-0.3-0.1-0.7-0.1-1
				c0-0.1,0.1-0.3,0.1-0.4c0.1-0.1,0.3-0.1,0.4-0.1c0.4,0.1,0.7,0.2,1,0.3c0.1,0.1,0.2,0.1,0.3,0.2c0.1,0.1,0.1,0.2,0.1,0.4
				C655.2,100.8,655.2,101,655.1,101.2z"/>
			<path class="st2" d="M601.2,79.4c-0.2,0-0.4-0.1-0.4-0.3c-0.1-0.2-0.2-0.4-0.2-0.6c-0.1-0.2,0-0.5,0.2-0.6
				c0.3-0.1,0.6-0.3,0.9-0.4c0.1-0.1,0.3-0.1,0.4,0.1c0.1,0.1,0.2,0.2,0.2,0.4c0,0.4,0,0.7,0,1c0,0.1-0.1,0.2-0.1,0.4
				c-0.1,0.1-0.2,0.1-0.4,0.1C601.6,79.4,601.3,79.4,601.2,79.4z"/>
			<path class="st2" d="M648.1,106.4c0.1-0.1,0.1-0.1,0.1-0.1c0.1,0,0.1,0,0.2,0.1c0.4,0.3,1.1,0.9,1.6,1.3c0.1,0.1,0.1,0.1,0.1,0.2
				s-0.1,0.1-0.2,0.2c-0.7,0.1-1.8,0.5-2.5,0.7c-0.1,0-0.2,0-0.2-0.1c-0.1-0.1-0.1-0.2-0.1-0.2C647.3,107.8,647.8,106.9,648.1,106.4
				L648.1,106.4z"/>
			<path class="st2" d="M630.2,103.6c0,0.1-0.1,0.1-0.1,0.2c-0.1,0.1-0.1,0.1-0.2,0.1c-0.4-0.1-0.9-0.3-1.3-0.4
				c-0.1-0.1-0.1-0.1-0.1-0.2s0-0.2,0.1-0.2c0.4-0.3,0.9-0.7,1.3-1c0.1-0.1,0.2-0.1,0.2,0c0.1,0.1,0.1,0.1,0.1,0.2
				C630.3,102.6,630.2,103.2,630.2,103.6z"/>
			<path class="st2" d="M615.4,70.8c-0.1-0.1-0.1-0.1-0.1-0.2c0-0.1,0.1-0.1,0.1-0.2c0.4-0.2,1.2-0.8,1.7-1.1c0.1-0.1,0.2-0.1,0.2,0
				c0.1,0.1,0.1,0.1,0.1,0.2c-0.1,0.7-0.1,1.9-0.1,2.6c0,0.1-0.1,0.2-0.1,0.2c-0.1,0.1-0.2,0-0.2-0.1
				C616.6,71.9,615.8,71.2,615.4,70.8z"/>
		</g>
	</g>
	<path class="st3" d="M516.5,120.7v146.6H369.6c0-80.9,65.6-146.6,146.6-146.6L516.5,120.7L516.5,120.7z"/>
	<g>
		<path class="st2" d="M446.4,242.7c-0.9,0-1.7,0.4-1.7,1.8s0.8,3.6,1.7,3.6c0.9,0,1.7-2.1,1.7-3.6
			C448.1,243,447.4,242.7,446.4,242.7z"/>
		<path class="st2" d="M441.8,244.5c0.7-0.7,1.4-0.9,2.5,0.1c1.1,1,2,3.1,1.3,3.7c-0.7,0.7-2.6-0.3-3.7-1.3
			C440.9,245.9,441.1,245.1,441.8,244.5z"/>
		<path class="st2" d="M439,259.6c0.7,0.7,1.4,0.9,2.5-0.1c1-1,2-3.1,1.3-3.7c-0.7-0.7-2.6,0.3-3.7,1.3
			C438,258.3,438.3,259.1,439,259.6z"/>
		<path class="st2" d="M452.9,249c0,0.9-0.4,1.7-1.8,1.7c-1.5,0-3.6-0.8-3.6-1.7c0-0.9,2.1-1.7,3.6-1.7
			C452.5,247.4,452.9,248.1,452.9,249z"/>
		<path class="st2" d="M450.5,259.3c-0.3-0.6-0.7-1.1-1.1-1.6c-0.3-0.3-0.6-0.6-0.9-0.9c-0.9-0.9-1.2-1.8-1.2-3c0-1.5,0-3.3,0-3.3
			c0-0.5-0.4-0.9-0.9-0.9c-0.6,0-0.9,0.4-0.9,0.9c0,0,0,1.8,0,3.3c0,1.6,0.6,3.1,1.7,4.2c0.3,0.3,0.6,0.6,0.9,0.9
			c0.9,0.9,1.2,1.8,1.2,3v3.5c0,0.5,0.4,0.9,0.9,0.9s0.9-0.4,0.9-0.9v-2.5l2.3-3.9c0.1-0.2,0.1-0.6-0.1-0.9
			c-0.2-0.2-0.6-0.2-0.9-0.1L450.5,259.3L450.5,259.3z"/>
		<circle class="st2" cx="446.4" cy="249" r="1.7"/>
	</g>
	<path class="st2" d="M433.3,266.2v-3c0-0.5,0.4-0.9,0.9-0.9c0.6,0,0.9,0.4,0.9,0.9v3c0,0.5-0.4,0.9-0.9,0.9
		C433.7,267.1,433.3,266.7,433.3,266.2z"/>
	<path class="st2" d="M391.7,266.2v-3c0-0.5,0.4-0.9,0.9-0.9c0.5,0,0.9,0.4,0.9,0.9v3c0,0.5-0.4,0.9-0.9,0.9
		C392.1,267.1,391.7,266.7,391.7,266.2z"/>
	<path class="st2" d="M429.9,266.2v-5.9c0-0.5,0.4-0.9,0.9-0.9c0.5,0,0.9,0.4,0.9,0.9v5.9c0,0.5-0.4,0.9-0.9,0.9
		C430.3,267.1,429.9,266.7,429.9,266.2z"/>
	<g>
		<path class="st2" d="M414.1,233.4c-0.2,0.2-0.6,0.3-0.9,0.1c-0.4-0.1-0.6-0.5-0.6-0.9c0-5.2,0-18.8,0-24.5c0-0.4-0.2-0.7-0.6-0.9
			c-0.4-0.1-0.8,0-1,0.3c-0.4,0.4-0.7,0.9-1,1.3c-0.2,0.3-0.6,0.4-0.9,0.4c-0.4-0.1-0.6-0.3-0.7-0.6c-0.5-1.5-1.2-3.7-1.6-5.1
			c-0.1-0.4-0.4-0.6-0.7-0.6c-0.4-0.1-0.7,0.1-0.9,0.4c-0.4,0.7-0.7,1.4-0.7,2.3v11.2c0,0.4-0.2,0.6-0.5,0.8
			c-0.3,0.1-0.6,0.1-0.9-0.1l0,0c-1.3-1-2.6-2-3.6-2.6c-0.1-0.1-0.3-0.1-0.4-0.1c-0.4-0.1-1.3-0.1-2.1-0.2c-0.3-0.1-0.6,0.1-0.8,0.4
			c-0.2,0.2-0.2,0.6-0.2,0.9c0.3,1.1,0.7,2.6,0.9,3.1c0.1,0.1,0.1,0.2,0.1,0.3c0.6,0.9,1.3,1.8,2,2.7c0.7,0.9,1.3,1.7,2.1,2.5
			c1.1,1.2,2.2,2.4,3.1,3.3c0.1,0.1,0.2,0.4,0.2,0.6c0,3.9,0,38.2,0,38.2c0,0.1,8,0.1,8,0v-21.7c0-0.2,0.1-0.5,0.2-0.6
			c1.5-1.5,3.6-3.7,5.8-6.1c1.1-1.1,2.2-2.4,3.2-3.5c1-1.2,2-2.4,2.8-3.5c0.1-0.1,0.1-0.2,0.2-0.4c0.1-0.1,0.1-0.4,0.1-0.7
			c0.1-0.4-0.1-0.8-0.4-0.9c-0.3-0.1-0.7-0.2-1,0.1c-0.5,0.4-0.9,0.7-1.4,1c-0.2,0.2-0.6,0.2-0.9,0.1c-0.3-0.1-0.4-0.4-0.4-0.7l0,0
			c0-0.4-0.1-0.6-0.4-0.8c-0.3-0.1-0.6-0.1-0.9,0.1c-0.7,0.6-1.3,1.1-2,1.7c-1.2,1-2.4,2.1-3.5,3.2
			C414.2,233.3,414.1,233.3,414.1,233.4L414.1,233.4z"/>
		<path class="st2" d="M412.8,243.9l-3.4,3.5c-0.4,0.4-0.4,0.9,0.1,1.2c0.4,0.4,0.9,0.4,1.2-0.1l2.1-2.1v-2.1
			C412.6,244.3,412.7,244.1,412.8,243.9L412.8,243.9z"/>
		<path class="st0" d="M408.6,260.3v-1.8c0-0.5,0.4-0.9,0.9-0.9s0.9,0.4,0.9,0.9v1.8c0,0.5-0.4,0.9-0.9,0.9
			C409,261.2,408.6,260.8,408.6,260.3z"/>
		<path class="st0" d="M408.6,225.6V225c0-0.5,0.4-0.9,0.9-0.9s0.9,0.4,0.9,0.9v0.6c0,0.5-0.4,0.9-0.9,0.9S408.6,226,408.6,225.6z"
			/>
		<path class="st0" d="M406.5,254.4v-0.7c0-0.5,0.4-0.9,0.9-0.9c0.6,0,0.9,0.4,0.9,0.9v0.6c0,0.5-0.4,0.9-0.9,0.9
			C406.9,255.2,406.5,254.8,406.5,254.4z"/>
	</g>
	<g>
		<path class="st2" d="M471.2,257.6c0,0.1,0.1,0.2,0.1,0.4l1.7,5.9h-7l0.7-6.2H471.2L471.2,257.6z"/>
		<path class="st2" d="M492.3,214.7l1.7-0.6c0.4-0.1,0.7-0.6,0.6-1c-0.1-0.4-0.6-0.7-1-0.6l-1.7,0.6c-0.4,0.1-0.7,0.6-0.6,1
			C491.4,214.6,491.9,214.9,492.3,214.7z"/>
		<path class="st2" d="M502.4,195.2l1.7-0.6c0.4-0.1,0.7-0.6,0.6-1c-0.1-0.5-0.6-0.7-1-0.6l-1.7,0.6c-0.4,0.1-0.7,0.6-0.6,1
			C501.5,195.1,501.9,195.3,502.4,195.2z"/>
		<path class="st2" d="M495.4,217l0.9-0.2c0.4-0.1,0.7-0.6,0.6-1c-0.1-0.4-0.6-0.7-1-0.6l-0.9,0.2c-0.4,0.1-0.7,0.6-0.6,1
			C494.5,216.8,494.9,217.1,495.4,217z"/>
		<path class="st2" d="M497.2,210.1l0.9-0.2c0.4-0.1,0.7-0.6,0.6-1c-0.1-0.5-0.6-0.7-1-0.6l-0.9,0.2c-0.4,0.1-0.7,0.6-0.6,1
			C496.3,210,496.8,210.2,497.2,210.1z"/>
		<path class="st2" d="M497.2,194l0.9-0.2c0.4-0.1,0.7-0.6,0.6-1c-0.1-0.4-0.6-0.7-1-0.6l-0.9,0.2c-0.4,0.1-0.7,0.6-0.6,1
			C496.3,193.9,496.8,194.1,497.2,194z"/>
		<path class="st2" d="M501.5,219.9l0.9-1c0.4-0.4,0.9-0.4,1.2-0.1c0.4,0.4,0.4,0.9,0.1,1.2c0,0-8.8,9.4-12.5,13.5
			c-0.9,0.9-1.1,2.1-0.9,3.3c1.2,5.1,4.2,17.1,4.8,19.6c0.1,0.2,0.1,0.5,0.3,0.7c0.9,1.5,3.7,6.1,3.7,6.1c0.1,0.2,0.1,0.6,0,0.9
			c-0.1,0.3-0.4,0.4-0.7,0.4h-6.8c-0.4,0-0.7-0.3-0.9-0.7c0,0-5.3-22.5-6.8-29.2c-0.4-1.3-0.1-2.8,0.7-4.1c1.7-2.8,5.1-8.1,5.1-8.1
			c0.2-0.4,0.8-0.6,1.1-0.3c0.2,0.1,0.3,0.3,0.4,0.5L501.5,219.9L501.5,219.9z"/>
		<path class="st2" d="M480.8,216.2c0.4-0.4,0.7-0.9,0.7-1.6v-8.3c-0.7,0.6-1.7,1.1-3.1,1c-4.2-0.3-4.1-4.3-4.1-4.8
			c0-6.1,4.5-11.6,10.3-12.7c0,0,24.3-4.5,28.6-5.4c0.5-0.1,1-0.1,1.5-0.1h8v1.7c-0.6,0-1,0.2-1.5,0.7c-0.6,0.5-1.1,1.2-1.6,2.1
			c-1.6,2.9-2.6,7.7-2.6,13.1c0,5.4,1,10.2,2.6,13.1c0.5,0.9,1,1.6,1.6,2.1c0.5,0.4,1,0.7,1.5,0.7c0.5,0,0.9,0.4,0.9,0.9
			c0,0.5-0.4,0.9-0.9,0.9h-17.5c-0.9,0-1.7,0.1-2.5,0.4c-5.6,1.8-26.2,8.4-26.2,8.4c-0.2,0.1-0.4,0.2-0.6,0.4
			c-0.6,0.4-0.9,0.9-0.9,1.6c-0.9,8.7-1.8,17.5-2.7,26.2c-0.1,0.4,0,0.7,0.1,1l1.7,5.9c0.1,0.2,0,0.6-0.1,0.7
			c-0.1,0.2-0.4,0.4-0.7,0.4H466c-0.2,0-0.5-0.1-0.6-0.3c-0.1-0.2-0.2-0.4-0.2-0.7c0,0,3.5-31.7,4.3-39.2c0.1-1.3,0.9-2.4,2-3
			l4.8-2.7L480.8,216.2z M477.1,220.3l-4.9,2.7c-0.6,0.4-1.1,1-1.1,1.7l-4.3,38.3h5l-1.3-4.8c-0.1-0.6-0.2-1.1-0.1-1.7
			c0.9-8.7,1.8-17.5,2.7-26.2c0.1-1.1,0.7-2.1,1.6-2.8c0.4-0.2,0.7-0.4,1.1-0.6l0,0c0,0,20.7-6.6,26.2-8.4c1-0.4,2-0.5,3.1-0.5h14.4
			c-0.5-0.6-0.9-1.2-1.3-2c-1.7-3.1-2.8-8.3-2.8-13.9c0-5.7,1.1-10.8,2.8-13.9c0.4-0.9,0.9-1.5,1.3-2h-4.7c-0.4,0-0.8,0.1-1.1,0.1
			c-4.3,0.9-28.6,5.4-28.6,5.4c-5.1,0.9-9,5.7-9,11.1v0.1c0,0-0.2,2.8,2.5,3c2.3,0.1,2.8-2,2.9-2.4v-4.2c0-0.5,0.4-0.9,0.9-0.9
			c0.5,0,0.9,0.4,0.9,0.9v15.5c0,0.1,0,0.1,0,0.2l2-1.1c0.4-0.2,0.9-0.1,1.1,0.4c0.2,0.4,0.1,0.9-0.4,1.1l-4.2,2.4
			c-0.2,0.1-0.4,0.3-0.6,0.4L477.1,220.3L477.1,220.3z"/>
	</g>
	<g>
		<path class="st2" d="M504.3,268c-1.4-1.9-2.4-4.8-2.4-8.2c0-3.3,0.9-6.2,2.4-8.2c1.4-1.9,2.4-4.8,2.4-8.2c0-3.4-0.9-6.2-2.4-8.2
			c-1.4-1.9-2.4-4.8-2.4-8.2c0-3.3,0.9-6.2,2.4-8.2c1.4-1.9,2.4-4.8,2.4-8.2s-0.9-6.2-2.4-8.2c-1.4-1.9-2.4-4.8-2.4-8.2
			s0.9-6.2,2.4-8.2c1.4-1.9,2.4-4.8,2.4-8.2c0-3.3-0.9-6.2-2.4-8.2c-1.4-1.9-2.4-4.8-2.4-8.2c0-3.4,0.9-6.2,2.4-8.2
			c1.4-1.9,2.4-4.8,2.4-8.2c0-3.3-0.9-6.2-2.4-8.2c-1.4-1.9-2.4-4.8-2.4-8.2c0-5.8,1.8-8,8-8c6.2,0,8,1.8,8,8c0,3.3,0.9,6.2,2.4,8.2
			c1.4,1.9,2.4,4.8,2.4,8.2c0,3.3-0.9,6.2-2.4,8.2c-1.4,1.9-2.4,4.8-2.4,8.2c0,3.4,0.9,6.2,2.4,8.2c1.4,1.9,2.4,4.8,2.4,8.2
			c0,3.3-0.9,6.2-2.4,8.2c-1.4,1.9-2.4,4.8-2.4,8.2s0.9,6.2,2.4,8.2c1.4,1.9,2.4,4.8,2.4,8.2c0,3.3-0.9,6.2-2.4,8.2
			c-1.4,1.9-2.4,4.8-2.4,8.2c0,3.4,0.9,6.2,2.4,8.2c1.4,1.9,2.4,4.8,2.4,8.2c0,3.3-0.9,6.2-2.4,8.2c-1.4,1.9-2.4,4.8-2.4,8.2
			c0,3.3,0.9,6.2,2.4,8.2H504.3L504.3,268z"/>
		<path class="st4" d="M504.6,185.8c-0.1,0.1-0.1,0.2-0.2,0.4c-0.3,0.4-0.6,0.9-0.9,1.3h0.9c1.5,0,2.9,1.3,4.1,3.4
			c1.7,3.2,2.8,8.4,2.8,14.1c0,5.7-1.1,10.9-2.8,14.1c-1.1,2.1-2.6,3.4-4.1,3.4h-1.8c-0.1,0.6-0.3,1.1-0.4,1.7h2.1
			c2,0,4.1-1.5,5.6-4.3c1.8-3.4,3-8.9,3-15c0-6.1-1.2-11.6-3-15C508.5,187.4,506.5,185.9,504.6,185.8L504.6,185.8z"/>
		<path class="st4" d="M511.8,222.3c1.8-3.1,3.2-7.7,3.7-13.1c0.1-0.5,0.4-0.9,0.9-0.8c0.5,0.1,0.9,0.4,0.8,0.9
			c-0.5,5.7-2,10.5-3.9,13.8c-0.2,0.4-0.8,0.6-1.1,0.3C511.7,223.3,511.5,222.8,511.8,222.3L511.8,222.3z"/>
		<path class="st4" d="M515.7,205.1c0-1.2-0.1-2.4-0.1-3.4c-0.1-0.5,0.4-0.9,0.8-0.9c0.5-0.1,0.9,0.4,0.9,0.8
			c0.1,1.1,0.1,2.4,0.1,3.5c0,0.5-0.4,0.9-0.9,0.9C516,206,515.7,205.6,515.7,205.1L515.7,205.1z"/>
		<path class="st4" d="M512.9,190.1c-0.4-0.9-0.7-1.6-1.1-2.3c-0.9-1.3-1.8-2.5-2.8-3.2c-0.4-0.3-0.5-0.9-0.2-1.2s0.9-0.5,1.2-0.2
			c1.2,0.9,2.3,2.1,3.3,3.7c0.4,0.7,0.9,1.6,1.2,2.4c0.2,0.4,0,0.9-0.4,1.1C513.6,190.7,513.1,190.5,512.9,190.1L512.9,190.1z"/>
		<path class="st4" d="M509,227.6c0,0-1.9,1.2-4.2,0.7c-0.5-0.1-0.8-0.6-0.7-1c0.1-0.5,0.6-0.8,1-0.7c1.7,0.4,3-0.5,3-0.5
			c0.4-0.2,0.9-0.1,1.1,0.3C509.5,226.9,509.3,227.4,509,227.6L509,227.6z"/>
		<path class="st4" d="M513.9,125v-0.6c0-0.5-0.4-0.9-0.9-0.9s-0.9,0.4-0.9,0.9v0.6h-0.6c-0.5,0-0.9,0.4-0.9,0.9
			c0,0.5,0.4,0.9,0.9,0.9h0.6v0.6c0,0.5,0.4,0.9,0.9,0.9s0.9-0.4,0.9-0.9v-0.6h0.6c0.5,0,0.9-0.4,0.9-0.9c0-0.5-0.4-0.9-0.9-0.9
			H513.9L513.9,125z"/>
		<path class="st4" d="M512.5,160.3v-0.6c0-0.5-0.4-0.9-0.9-0.9c-0.5,0-0.9,0.4-0.9,0.9v0.6h-0.6c-0.5,0-0.9,0.4-0.9,0.9
			s0.4,0.9,0.9,0.9h0.6v0.6c0,0.5,0.4,0.9,0.9,0.9c0.5,0,0.9-0.4,0.9-0.9V162h0.6c0.5,0,0.9-0.4,0.9-0.9c0-0.5-0.4-0.9-0.9-0.9
			H512.5L512.5,160.3z"/>
		<path class="st4" d="M517.8,178.9v-0.6c0-0.5-0.4-0.9-0.9-0.9s-0.9,0.4-0.9,0.9v0.6h-0.6c-0.5,0-0.9,0.4-0.9,0.9
			c0,0.5,0.4,0.9,0.9,0.9h0.6v0.6c0,0.5,0.4,0.9,0.9,0.9s0.9-0.4,0.9-0.9v-0.6h0.6c0.5,0,0.9-0.4,0.9-0.9c0-0.5-0.4-0.9-0.9-0.9
			H517.8L517.8,178.9z"/>
		<path class="st4" d="M517.5,239.2v-0.6c0-0.5-0.4-0.9-0.9-0.9s-0.9,0.4-0.9,0.9v0.6h-0.6c-0.5,0-0.9,0.4-0.9,0.9s0.4,0.9,0.9,0.9
			h0.6v0.6c0,0.5,0.4,0.9,0.9,0.9s0.9-0.4,0.9-0.9v-0.6h0.6c0.5,0,0.9-0.4,0.9-0.9s-0.4-0.9-0.9-0.9H517.5z"/>
		<path class="st4" d="M508,263.3v-0.6c0-0.5-0.4-0.9-0.9-0.9s-0.9,0.4-0.9,0.9v0.6h-0.6c-0.5,0-0.9,0.4-0.9,0.9s0.4,0.9,0.9,0.9
			h0.6v0.6c0,0.5,0.4,0.9,0.9,0.9s0.9-0.4,0.9-0.9V265h0.6c0.5,0,0.9-0.4,0.9-0.9s-0.4-0.9-0.9-0.9H508z"/>
		<path class="st4" d="M511.5,130.9v-0.1c0-0.5-0.4-0.9-0.9-0.9s-0.9,0.4-0.9,0.9v0.1h-0.1c-0.5,0-0.9,0.4-0.9,0.9
			c0,0.5,0.4,0.9,0.9,0.9h0.1v0.1c0,0.5,0.4,0.9,0.9,0.9s0.9-0.4,0.9-0.9v-0.1h0.1c0.5,0,0.9-0.4,0.9-0.9s-0.4-0.9-0.9-0.9H511.5z"
			/>
		<path class="st4" d="M517.2,151.1V151c0-0.5-0.4-0.9-0.9-0.9s-0.9,0.4-0.9,0.9v0.1h-0.1c-0.5,0-0.9,0.4-0.9,0.9s0.4,0.9,0.9,0.9
			h0.1v0.1c0,0.5,0.4,0.9,0.9,0.9s0.9-0.4,0.9-0.9v-0.1h0.1c0.5,0,0.9-0.4,0.9-0.9c0-0.5-0.4-0.9-0.9-0.9H517.2z"/>
		<path class="st4" d="M509.7,168.9v-0.1c0-0.5-0.4-0.9-0.9-0.9s-0.9,0.4-0.9,0.9v0.1h-0.1c-0.5,0-0.9,0.4-0.9,0.9
			c0,0.5,0.4,0.9,0.9,0.9h0.1v0.1c0,0.5,0.4,0.9,0.9,0.9s0.9-0.4,0.9-0.9v-0.2h0.1c0.5,0,0.9-0.4,0.9-0.9
			C510.7,169.1,510.3,168.9,509.7,168.9L509.7,168.9z"/>
		<path class="st4" d="M510.3,232.8v-0.1c0-0.5-0.4-0.9-0.9-0.9c-0.5,0-0.9,0.4-0.9,0.9v0.1h-0.1c-0.5,0-0.9,0.4-0.9,0.9
			c0,0.5,0.4,0.9,0.9,0.9h0.1v0.1c0,0.5,0.4,0.9,0.9,0.9c0.5,0,0.9-0.4,0.9-0.9v-0.1h0.1c0.5,0,0.9-0.4,0.9-0.9
			c0-0.5-0.4-0.9-0.9-0.9H510.3z"/>
		<path class="st4" d="M513.1,255.4v-0.1c0-0.5-0.4-0.9-0.9-0.9s-0.9,0.4-0.9,0.9v0.1h-0.1c-0.5,0-0.9,0.4-0.9,0.9
			c0,0.5,0.4,0.9,0.9,0.9h0.1v0.1c0,0.5,0.4,0.9,0.9,0.9s0.9-0.4,0.9-0.9v-0.1h0.1c0.5,0,0.9-0.4,0.9-0.9c0-0.5-0.4-0.9-0.9-0.9
			H513.1z"/>
		<path class="st4" d="M513,145.4v-0.1c0-0.5-0.4-0.9-0.9-0.9c-0.5,0-0.9,0.4-0.9,0.9v0.1h-0.1c-0.5,0-0.9,0.4-0.9,0.9
			c0,0.5,0.4,0.9,0.9,0.9h0.1v0.1c0,0.5,0.4,0.9,0.9,0.9c0.5,0,0.9-0.4,0.9-0.9v-0.1h0.1c0.5,0,0.9-0.4,0.9-0.9s-0.4-0.9-0.9-0.9
			H513z"/>
	</g>
	<g>
		<path class="st2" d="M569.6,198.8v1.5c0,2-1.6,3.5-3.5,3.5c-1.1,0-2.1,0.9-2.2,2v0.4c-0.1,2.1-1.8,3.6-4,3.6H558
			c-0.9,1.6-1.5,2.6-1.6,2.8c-0.4,0.8-0.9,1.3-1.6,1.7l-2.5,1.2l-7.2,3.5c-0.2,0.1-0.4,0.2-0.4,0.5l-1.1,3.1l0,0l-0.5,1.3l0,0
			l-2.1,5.7c-0.1,0.1-0.1,0.2-0.1,0.2l-1.9,5.4c-0.1,0.4-0.2,0.7-0.2,1.1c0,0,0.1,5.8,0.1,9c0,0.4-0.2,0.6-0.5,0.7
			c-0.3,0.1-0.6,0.1-0.9-0.1c-0.6-0.6-1.1-1.1-1.1-1.1c-0.4-0.4-0.9-0.4-1.2,0c-0.4,0.4-0.4,0.9,0,1.2c0,0,2.6,2.6,3.5,3.5
			c0.1,0.1,0.2,0.4,0.2,0.6c0,0.2,0,0.6,0,1s-0.2,0.6-0.5,0.7c-0.3,0.1-0.6,0.1-0.9-0.2c-0.6-0.6-1.2-1.2-1.2-1.2
			c-0.4-0.4-0.9-0.4-1.2,0c-0.4,0.4-0.4,0.9,0,1.2c0,0,2.8,2.8,3.5,3.5c0.1,0.1,0.2,0.4,0.2,0.6c0,0.2,0,0.6,0,0.6
			c0,0.4,0.1,0.7,0.2,1l2.1,6.2c0.1,0.2,0.1,0.6-0.1,0.8c-0.2,0.2-0.4,0.4-0.7,0.4h-7c-0.5,0-5-3.2-5-3.7c0,0-0.1,0.7-0.1-2.7l0,0
			v-21c-0.6-0.3-0.9-0.9-0.9-1.5v-16.1H524c-1.7,0-3.3-1.3-4.6-3.7c-1.7-3.1-2.8-8.3-2.8-13.9s1.1-10.8,2.8-13.9
			c1.3-2.4,2.9-3.7,4.6-3.7h14.4c1.5,0,3-0.6,4.2-1.5c2.6-2.3,7-6,9-7.7c0.7-0.6,1.2-1.2,1.6-2.1l2.8-5.7c0.1-0.1,0.1-0.1,0.1-0.2
			l1.4-3c-0.5-0.1-0.4-0.1,0.1-0.3c-3.9-0.1-6.8-0.2-6.8-0.2c-0.8,0-1.4-0.3-2-0.9l-9.1-10.5c-0.4-0.4-0.6-0.9-0.6-1.5l0.7-14.3
			c0-0.9,0.7-1.5,1.5-1.5c0.9,0,1.5,0.7,1.5,1.5l0.7,13.3c0,0,6.7,6.5,8.1,8c0.2,0.2,0.4,0.3,0.7,0.3l0,0c0.7,0,1.2-0.4,1.5-1
			c0.3-0.6,0.2-1.3-0.2-1.8c-1.2-1.4-2.4-2.9-2.4-2.9c-0.4-0.4-0.6-0.9-0.6-1.3l0.6-7.7c0-0.7,0.6-1.2,1.2-1.2
			c0.7,0,1.2,0.6,1.2,1.2l0.6,6.9l4.2,4c1.3-0.1,4.3-0.2,7.2-0.2c2.9,0,5.8,0.1,7.2,0.2l4.2-4l0.6-6.9c0-0.7,0.6-1.2,1.2-1.2
			s1.2,0.6,1.2,1.2l0.6,7.7c0,0.5-0.2,0.9-0.5,1.2c0,0-1.2,1.4-2.4,2.8c-0.4,0.6-0.6,1.2-0.2,1.8c0.3,0.6,0.9,1,1.6,1l0,0
			c0.2,0,0.6-0.1,0.7-0.3c1.5-1.5,8-8,8-8l0.6-13.4c0-0.9,0.7-1.5,1.5-1.5c0.8,0,1.5,0.7,1.5,1.5l0.7,14.3c0,0.6-0.2,1-0.6,1.4
			l-9,10.4c-0.5,0.6-1.2,0.9-2,0.9c0,0-2.4,0.1-5.9,0.2l12,8c0.6,0.4,0.9,0.9,0.9,1.5v0.1v0.1l0,0c0,0.1,0,0.1,0,0.2l-1.3,5.7
			c-0.2,0.9-1,1.5-1.9,1.6c-2.6,0.2-6.8,0.6-8.8,0.8c-0.1,0-0.2,0-0.3,0.1c-0.4,0.1-0.7,0.2-0.9,0.5c-0.1,0.1-0.4,0.6-0.9,1.3v9.7
			C573.3,196,571.8,198.1,569.6,198.8L569.6,198.8z M551.6,249c0.7-3.2,3.1-13.9,4-18.1c0.1-0.7-0.1-1.4-0.8-1.8l-9.5-5.6l1.1-3.1
			l7.2-3.5l8,6.5c1,0.9,1.4,2.1,1.1,3.4c0,0-2.3,9.4-3.2,13.5c-0.1,0.3-0.4,0.6-0.6,0.6c-0.4,0.1-0.6-0.1-0.9-0.4
			c-0.5-0.8-0.9-1.5-0.9-1.5c-0.2-0.4-0.8-0.6-1.1-0.3c-0.4,0.2-0.6,0.8-0.3,1.1c0,0,2,3.4,2.6,4.3c0.1,0.2,0.1,0.4,0.1,0.6
			c-0.1,0.2-0.1,0.6-0.2,0.9s-0.4,0.6-0.6,0.6c-0.4,0.1-0.6-0.1-0.8-0.4c-0.5-0.9-0.9-1.6-0.9-1.6c-0.2-0.4-0.8-0.6-1.1-0.3
			s-0.6,0.8-0.3,1.1c0,0,2.1,3.5,2.6,4.5c0.1,0.2,0.1,0.4,0.1,0.6c0,0.2-0.1,0.4-0.1,0.6c0,0.1,0,0.1,0,0.1c0,0.1,0,0.1,0,0.2v6.7
			c0,0.3-0.1,0.6-0.4,0.7c-0.2,0.1-0.6,0.2-0.8,0.1l-5.9-2c-0.4-0.1-3.9-4-3.8-4.4c0,0,0,0,1.1-3.2c0,0,0,0,0.1-0.1l1-14.9
			c-0.1-0.1-0.2-0.1-0.3-0.2l-4.6-4.9l1.3-3.5l5.8,6.1c0.6,0.7,0.6,1.8-0.1,2.4c-0.1,0.1-0.3,0.2-0.4,0.3l-1,15.1
			c0.9,0.2,1.8,0.4,2.3,0.4c0.1-0.1,0.1-0.1,0.2-0.1C551.4,249.3,551.5,249.1,551.6,249L551.6,249L551.6,249z M531.4,216v19.7
			c0,0.6-0.4,1.2-0.9,1.5v20.7c1.1-0.1,2.5-0.2,2.5-0.4V216c0-0.5-0.4-0.9-0.9-0.9C531.7,215.2,531.4,215.5,531.4,216L531.4,216z
			 M567.9,199.1c-0.1,0-0.1,0-0.2,0h-3.5c-1.9,3.3-3.8,6.5-5.2,9h0.9c1.1,0,2.1-0.9,2.3-1.9v-0.5c0.1-2,1.8-3.6,3.9-3.6
			c1,0,1.8-0.9,1.8-1.8L567.9,199.1L567.9,199.1z M567.9,197.4v-4.5c-0.9,1.5-1.8,3-2.6,4.5h2.5
			C567.8,197.4,567.9,197.4,567.9,197.4L567.9,197.4z M571.7,186.7c-0.6,1-1.3,2.1-2,3.4v7c1.2-0.7,2-2,2-3.4V186.7z"/>
		<g>
			<path class="st0" d="M543.5,147.8h-4l0.1-1.7h3.9L543.5,147.8L543.5,147.8z M543.4,144h-3.6l0.1-1.7h3.5L543.4,144L543.4,144z"/>
			<path class="st0" d="M592,147.8h-4l0.1-1.7h3.9V147.8z M591.8,144h-3.6l0.1-1.7h3.4L591.8,144L591.8,144z"/>
			<path class="st0" d="M582.9,176.9c0,0,0.1,0.1,0.5,0.4c0.1,0.1,0.2,0.1,0.4,0.1s0.2-0.1,0.4-0.1c0.4-0.1,0.5-0.4,0.5-0.4
				c0.2,0,0.4-0.2,0.4-0.4c0-0.2-0.2-0.4-0.4-0.4c0,0-0.1-0.1-0.5-0.4c-0.1-0.1-0.2-0.1-0.4-0.1s-0.2,0.1-0.4,0.1
				c-0.4,0.2-0.5,0.4-0.5,0.4c-0.2,0-0.4,0.2-0.4,0.4S582.6,176.9,582.9,176.9z"/>
			<path class="st0" d="M579.3,176.9c0,0,0.1,0.1,0.5,0.4c0.1,0.1,0.2,0.1,0.4,0.1s0.2-0.1,0.4-0.1c0.4-0.1,0.5-0.4,0.5-0.4
				c0.2,0,0.4-0.2,0.4-0.4c0-0.2-0.2-0.4-0.4-0.4c0,0-0.1-0.1-0.5-0.4c-0.1-0.1-0.2-0.1-0.4-0.1s-0.2,0.1-0.4,0.1
				c-0.4,0.2-0.5,0.4-0.5,0.4c-0.2,0-0.4,0.2-0.4,0.4C578.8,176.7,579.1,176.9,579.3,176.9z"/>
			<path class="st0" d="M575.7,176.9c0,0,0.1,0.1,0.5,0.4c0.1,0.1,0.2,0.1,0.4,0.1s0.2-0.1,0.4-0.1c0.4-0.1,0.5-0.4,0.5-0.4
				c0.2,0,0.4-0.2,0.4-0.4c0-0.2-0.2-0.4-0.4-0.4c0,0-0.1-0.1-0.5-0.4c-0.1-0.1-0.2-0.1-0.4-0.1s-0.2,0.1-0.4,0.1
				c-0.4,0.2-0.5,0.4-0.5,0.4c-0.2,0-0.4,0.2-0.4,0.4C575.3,176.7,575.5,176.9,575.7,176.9z"/>
			<path class="st0" d="M581.1,174.6c0,0,0.1,0.1,0.5,0.4c0.1,0.1,0.2,0.1,0.4,0.1s0.2-0.1,0.4-0.1c0.4-0.1,0.5-0.4,0.5-0.4
				c0.2,0,0.4-0.2,0.4-0.4c0-0.2-0.2-0.4-0.4-0.4c0,0-0.1-0.1-0.5-0.4c-0.1-0.1-0.2-0.1-0.4-0.1s-0.2,0.1-0.4,0.1
				c-0.4,0.2-0.5,0.4-0.5,0.4c-0.2,0-0.4,0.2-0.4,0.4S580.8,174.6,581.1,174.6z"/>
			<path class="st0" d="M577.5,174.6c0,0,0.1,0.1,0.5,0.4c0.1,0.1,0.2,0.1,0.4,0.1s0.2-0.1,0.4-0.1c0.4-0.1,0.5-0.4,0.5-0.4
				c0.2,0,0.4-0.2,0.4-0.4c0-0.2-0.2-0.4-0.4-0.4c0,0-0.1-0.1-0.5-0.4c-0.1-0.1-0.2-0.1-0.4-0.1s-0.2,0.1-0.4,0.1
				c-0.4,0.2-0.5,0.4-0.5,0.4c-0.2,0-0.4,0.2-0.4,0.4S577.3,174.6,577.5,174.6z"/>
			<path class="st0" d="M581.1,179c0,0,0.1,0.1,0.5,0.4c0.1,0.1,0.2,0.1,0.4,0.1s0.2-0.1,0.4-0.1c0.4-0.1,0.5-0.4,0.5-0.4
				c0.2,0,0.4-0.2,0.4-0.4c0-0.2-0.2-0.4-0.4-0.4c0,0-0.1-0.1-0.5-0.4c-0.1-0.1-0.2-0.1-0.4-0.1s-0.2,0.1-0.4,0.1
				c-0.4,0.2-0.5,0.4-0.5,0.4c-0.2,0-0.4,0.2-0.4,0.4C580.7,178.9,580.8,179,581.1,179z"/>
			<path class="st0" d="M577.5,179c0,0,0.1,0.1,0.5,0.4c0.1,0.1,0.2,0.1,0.4,0.1s0.2-0.1,0.4-0.1c0.4-0.1,0.5-0.4,0.5-0.4
				c0.2,0,0.4-0.2,0.4-0.4c0-0.2-0.2-0.4-0.4-0.4c0,0-0.1-0.1-0.5-0.4c-0.1-0.1-0.2-0.1-0.4-0.1s-0.2,0.1-0.4,0.1
				c-0.4,0.2-0.5,0.4-0.5,0.4c-0.2,0-0.4,0.2-0.4,0.4C577.1,178.9,577.3,179,577.5,179z"/>
			<circle class="st0" cx="575.8" cy="160.7" r="1.2"/>
			<circle class="st0" cx="572.7" cy="157.7" r="1.2"/>
			<circle class="st0" cx="530.3" cy="194" r="1.6"/>
			<circle class="st0" cx="524.3" cy="194" r="1.6"/>
			<path class="st0" d="M543.1,182.6l11.4,11.4c0.4,0.4,0.4,0.9,0,1.2l-3.5,3.5c-0.4,0.4-0.9,0.4-1.2,0l-2.9-2.9l-2.8,2.8
				c-0.1,0.1-0.4,0.2-0.6,0.2h-15.7l11.1,11.1h12.6c0-0.1,0-0.1,0-0.1c0-3.8,3.1-6.8,6.8-6.8c1.2,0,2.4,0.4,3.3,0.9
				c-0.3,0.5-0.6,1-0.9,1.5c-0.7-0.4-1.6-0.6-2.5-0.6c-2.8,0-5.1,2.4-5.1,5.1c0,1.8,0.9,3.4,2.4,4.3c-0.2,0.1-0.4,0.2-0.6,0.4
				l-1.1,0.6c-1-0.9-1.8-2.1-2.1-3.4h-13.1c-0.2,0-0.4-0.1-0.6-0.2l-12.4-12.4h-8.4c-0.1,0-0.1,0-0.1,0c0.1-0.6,0.1-1.1,0.1-1.7
				h25.9l6-6l-7.5-7.5c0.4-0.2,0.7-0.4,0.9-0.7L543.1,182.6L543.1,182.6z M550.4,192.2l-2.4,2.4l2.4,2.4l2.4-2.4L550.4,192.2z
				 M560.2,184.3l1.4-1.4c0.4-0.4,0.4-0.9,0-1.2c-0.4-0.4-0.9-0.4-1.2,0l-1.4,1.4c-0.4,0.4-0.4,0.9,0,1.2
				C559.3,184.6,559.9,184.6,560.2,184.3z M552.9,184.3l1.4-1.4c0.4-0.4,0.4-0.9,0-1.2c-0.4-0.4-0.9-0.4-1.2,0l-1.4,1.4
				c-0.4,0.4-0.4,0.9,0,1.2C552.1,184.6,552.6,184.6,552.9,184.3z M556.6,184.3l1.4-1.4c0.4-0.4,0.4-0.9,0-1.2
				c-0.4-0.4-0.9-0.4-1.2,0l-1.4,1.4c-0.4,0.4-0.4,0.9,0,1.2C555.7,184.6,556.2,184.6,556.6,184.3z M578,163.9
				c-0.9,0.1-2.1,0.1-3.3,0.1l2.4,1.6h-10c-0.6,0-0.9,0.4-0.9,0.9v1.3c0,0.6,0.4,0.9,0.9,0.9h14.7l2.6,1.7h-17.3
				c-0.4,0-0.9-0.1-1.1-0.3l0,0l-7.9,7.9c-0.1,0.1-0.4,0.2-0.6,0.2h-9.2l2-1.7h6.9l7.6-7.6l0,0c-0.2-0.4-0.3-0.7-0.3-1.1v-1.3
				c0-1.4,1.2-2.6,2.6-2.6L578,163.9L578,163.9z M556.8,164h2.6c0.5,0,0.9,0.4,0.9,0.9c0,0.5-0.4,0.9-0.9,0.9h-2.5l0.7-1.3
				c-0.5-0.1-0.4-0.1,0.1-0.3C557.4,164,557.1,164,556.8,164L556.8,164z M563.6,154.3l-2.4,2.4h4.2l2.4-2.4c0.9,0,1.6,0.1,2.4,0.1
				l-3.7,3.7c-0.1,0.1-0.4,0.2-0.6,0.2h-6.2l-5.6,5.6c-1-0.1-1.8-0.1-2.4-0.1l6.8-6.8c0.1-0.1,0.1-0.1,0.2-0.2l2.5-2.5
				C561.9,154.3,562.7,154.3,563.6,154.3L563.6,154.3z"/>
			<g>
				<g>
					<path class="st0" d="M533,222v-5.9c0-0.5-0.4-0.9-0.9-0.9s-0.9,0.4-0.9,0.9v5.9c0,0.5,0.4,0.9,0.9,0.9S533,222.5,533,222z"/>
					<path class="st0" d="M582.9,176.9c0,0,0.1,0.1,0.5,0.4c0.1,0.1,0.2,0.1,0.4,0.1s0.2-0.1,0.4-0.1c0.4-0.1,0.5-0.4,0.5-0.4
						c0.2,0,0.4-0.2,0.4-0.4c0-0.2-0.2-0.4-0.4-0.4c0,0-0.1-0.1-0.5-0.4c-0.1-0.1-0.2-0.1-0.4-0.1s-0.2,0.1-0.4,0.1
						c-0.4,0.2-0.5,0.4-0.5,0.4c-0.2,0-0.4,0.2-0.4,0.4S582.6,176.9,582.9,176.9z"/>
					<path class="st0" d="M579.3,176.9c0,0,0.1,0.1,0.5,0.4c0.1,0.1,0.2,0.1,0.4,0.1s0.2-0.1,0.4-0.1c0.4-0.1,0.5-0.4,0.5-0.4
						c0.2,0,0.4-0.2,0.4-0.4c0-0.2-0.2-0.4-0.4-0.4c0,0-0.1-0.1-0.5-0.4c-0.1-0.1-0.2-0.1-0.4-0.1s-0.2,0.1-0.4,0.1
						c-0.4,0.2-0.5,0.4-0.5,0.4c-0.2,0-0.4,0.2-0.4,0.4C578.8,176.7,579.1,176.9,579.3,176.9z"/>
					<path class="st0" d="M575.7,176.9c0,0,0.1,0.1,0.5,0.4c0.1,0.1,0.2,0.1,0.4,0.1s0.2-0.1,0.4-0.1c0.4-0.1,0.5-0.4,0.5-0.4
						c0.2,0,0.4-0.2,0.4-0.4c0-0.2-0.2-0.4-0.4-0.4c0,0-0.1-0.1-0.5-0.4c-0.1-0.1-0.2-0.1-0.4-0.1s-0.2,0.1-0.4,0.1
						c-0.4,0.2-0.5,0.4-0.5,0.4c-0.2,0-0.4,0.2-0.4,0.4C575.3,176.7,575.5,176.9,575.7,176.9z"/>
					<path class="st0" d="M581.1,174.6c0,0,0.1,0.1,0.5,0.4c0.1,0.1,0.2,0.1,0.4,0.1s0.2-0.1,0.4-0.1c0.4-0.1,0.5-0.4,0.5-0.4
						c0.2,0,0.4-0.2,0.4-0.4c0-0.2-0.2-0.4-0.4-0.4c0,0-0.1-0.1-0.5-0.4c-0.1-0.1-0.2-0.1-0.4-0.1s-0.2,0.1-0.4,0.1
						c-0.4,0.2-0.5,0.4-0.5,0.4c-0.2,0-0.4,0.2-0.4,0.4S580.8,174.6,581.1,174.6z"/>
					<path class="st0" d="M577.5,174.6c0,0,0.1,0.1,0.5,0.4c0.1,0.1,0.2,0.1,0.4,0.1s0.2-0.1,0.4-0.1c0.4-0.1,0.5-0.4,0.5-0.4
						c0.2,0,0.4-0.2,0.4-0.4c0-0.2-0.2-0.4-0.4-0.4c0,0-0.1-0.1-0.5-0.4c-0.1-0.1-0.2-0.1-0.4-0.1s-0.2,0.1-0.4,0.1
						c-0.4,0.2-0.5,0.4-0.5,0.4c-0.2,0-0.4,0.2-0.4,0.4S577.3,174.6,577.5,174.6z"/>
					<path class="st0" d="M581.1,179c0,0,0.1,0.1,0.5,0.4c0.1,0.1,0.2,0.1,0.4,0.1s0.2-0.1,0.4-0.1c0.4-0.1,0.5-0.4,0.5-0.4
						c0.2,0,0.4-0.2,0.4-0.4c0-0.2-0.2-0.4-0.4-0.4c0,0-0.1-0.1-0.5-0.4c-0.1-0.1-0.2-0.1-0.4-0.1s-0.2,0.1-0.4,0.1
						c-0.4,0.2-0.5,0.4-0.5,0.4c-0.2,0-0.4,0.2-0.4,0.4C580.7,178.9,580.8,179,581.1,179z"/>
					<path class="st0" d="M577.5,179c0,0,0.1,0.1,0.5,0.4c0.1,0.1,0.2,0.1,0.4,0.1s0.2-0.1,0.4-0.1c0.4-0.1,0.5-0.4,0.5-0.4
						c0.2,0,0.4-0.2,0.4-0.4c0-0.2-0.2-0.4-0.4-0.4c0,0-0.1-0.1-0.5-0.4c-0.1-0.1-0.2-0.1-0.4-0.1s-0.2,0.1-0.4,0.1
						c-0.4,0.2-0.5,0.4-0.5,0.4c-0.2,0-0.4,0.2-0.4,0.4C577.1,178.9,577.3,179,577.5,179z"/>
					<circle class="st0" cx="575.8" cy="160.7" r="1.2"/>
					<circle class="st0" cx="572.7" cy="157.7" r="1.2"/>
				</g>
			</g>
			<circle class="st0" cx="533" cy="260.6" r="1.3"/>
			<circle class="st0" cx="550.4" cy="252.7" r="1.3"/>
		</g>
	</g>
</g>
<line class="st5" x1="0" y1="268.3" x2="1317.4" y2="268.3"/>
</svg>
