<?xml version="1.0" encoding="utf-8"?>
<!-- Generator: Adobe Illustrator 25.0.1, SVG Export Plug-In . SVG Version: 6.00 Build 0)  -->
<svg version="1.1" id="Layer_1" xmlns="http://www.w3.org/2000/svg" xmlns:xlink="http://www.w3.org/1999/xlink" x="0px" y="0px"
	 viewBox="0 0 1317.4 408.1" style="enable-background:new 0 0 1317.4 408.1;" xml:space="preserve">
<style type="text/css">
	.st0{fill-rule:evenodd;clip-rule:evenodd;fill:#009092;}
	.st1{fill-rule:evenodd;clip-rule:evenodd;fill:#EEEEEE;}
	.st2{fill-rule:evenodd;clip-rule:evenodd;fill:#003E3F;}
	.st3{fill-rule:evenodd;clip-rule:evenodd;fill:#FEFEFE;}
	.st4{fill:none;stroke:#00B9BC;stroke-width:3.8352;stroke-linecap:round;stroke-linejoin:round;stroke-miterlimit:1.4382;}
	.st5{fill-rule:evenodd;clip-rule:evenodd;fill:#00B9BC;}
	.st6{fill:none;stroke:#003E3F;stroke-width:3;stroke-miterlimit:10;}
	.st7{fill:none;stroke:#003E3F;stroke-width:8;stroke-miterlimit:10;}
</style>
<g>
	
		<image style="overflow:visible;opacity:0.75;" width="1330" height="392" xlink:href="F5541D51.png"  transform="matrix(1 0 0 1 -4 24.1)">
	</image>
	<g>
		<g>
			<g>
				<g>
					<g>
						<path class="st0" d="M544.6,172.9c0,0-3.8-0.8-8.7-1.4c-1.8-0.2-3.9-0.4-5.8-0.4s-4,0.2-5.8,0.5c-4.9,0.6-8.7,1.3-8.7,1.3
							c-1,0-1.7,0.8-1.7,1.7c0,1,0.8,1.7,1.7,1.7c0,0,3.8,0.7,8.7,1.3c1.8,0.2,3.9,0.5,5.8,0.5s4-0.2,5.8-0.4
							c4.9-0.6,8.7-1.4,8.7-1.4c1,0,1.7-0.8,1.7-1.7C546.3,173.6,545.5,172.9,544.6,172.9L544.6,172.9z"/>
						<path class="st1" d="M536.7,173.9c0,0-1.7-0.3-3.9-0.6c-0.9-0.1-1.7-0.2-2.6-0.2c-0.9,0-1.8,0.1-2.6,0.2
							c-2.2,0.2-3.9,0.6-3.9,0.6c-0.4,0-0.7,0.3-0.7,0.7s0.3,0.7,0.7,0.7c0,0,1.7,0.3,3.9,0.6c0.9,0.1,1.7,0.2,2.6,0.2
							c0.9,0,1.8-0.1,2.6-0.2c2.2-0.2,3.9-0.6,3.9-0.6c0.4,0,0.7-0.3,0.7-0.7C537.5,174.3,537.1,173.9,536.7,173.9L536.7,173.9z"/>
						<path class="st2" d="M575.2,166.8c0,1.4,0.6,2.8,1.8,3.7s2.6,1.3,4,1c2.6-0.6,5.6-1.3,7-1.8c2.7-1.3,7.6-2.3,10.9-0.7l0,0
							c0.4,0.2,0.8,0.5,1.1,0.7l8.7,5.6c0.4,0.2,0.6,0.6,0.6,1s-0.3,0.8-0.8,0.9l-4.2,1c-0.8,0.2-4.1,1.3-5,1.5
							c-7,2.5-15.3,6.6-15.3,6.6c-2.5,1.2-5.1,1.8-7.9,1.8h-11.4c-1,0-2-0.1-3-0.2l0,0c-0.9-0.2-1.7-0.4-2.6-0.6l-23.9-5.8
							c-0.5-0.1-0.8-0.6-0.8-1l0,0c0-0.4-0.2-0.8-0.6-1c-0.8-0.3-2-0.8-2.8-1.2c-0.4-0.2-0.7-0.6-0.7-1c0-1.3,0-3.8,0-5
							c0-0.5,0.3-0.9,0.7-1c0.8-0.3,2-0.8,2.7-1.1c0.4-0.2,0.7-0.6,0.7-1l0,0c0-0.6,0.5-1.1,1.1-1.1c0,0,4.6-0.1,8-0.1
							c1.8,0,3.4-1.4,3.9-3.1c4.2-21,20.3-29.2,26.4-31.7c0.5-0.2,1-0.1,1.3,0.3c0.2,0.2,0.3,0.5,0.3,0.7l0,0l0,0c0,0.1,0,0.2,0,0.2
							L575.2,166.8L575.2,166.8z"/>
						<path class="st0" d="M558.3,186.9l7.8-7.8c0.2-0.2,0.6-0.4,1-0.4h22.3c0.8,0,1.4,0.6,1.4,1.4v2.9c-1,0.4-1.9,0.9-2.7,1.3v-2.7
							h-20.3l-6.3,6.3c-0.9-0.2-1.6-0.3-2.4-0.6L558.3,186.9L558.3,186.9z M602.6,171.3l4.2,2.7c-0.1,0-0.2,0-0.2,0h-10.2
							c-0.8,0-1.4-0.6-1.4-1.4c0-0.8,0.6-1.4,1.4-1.4L602.6,171.3L602.6,171.3z M566.5,136.5l4.8,4.8c1.4-1,2.6-1.7,3.9-2.3v3.2
							c-6.4,3.9-15,11.3-18.7,25.2c0,0.1-0.1,0.2-0.2,0.3l0,0c-0.1,0.1-0.2,0.2-0.2,0.3c-0.2,0.2-0.4,0.3-0.6,0.4l0,0
							c-0.2,0.1-0.5,0.1-0.7,0c-0.1,0-0.2-0.1-0.3-0.2l0,0c-0.1-0.1-0.2-0.2-0.3-0.2l-6.3-6.3c0.3-1,0.6-2,1-3l5.7,5.7
							c0.8-2.4,1.6-4.6,2.6-6.7l-5.5-5.5c0.5-0.9,1-1.6,1.4-2.5l5.4,5.4c1.3-2.1,2.6-4,3.9-5.7l-5.2-5.2c0.6-0.7,1.3-1.4,1.8-2
							l5.1,5.1c1.6-1.7,3.3-3.2,4.9-4.5l-4.9-4.9C565,137.5,565.7,137,566.5,136.5z"/>
						<circle class="st0" cx="551.7" cy="179.7" r="2"/>
						<ellipse class="st0" cx="544.7" cy="179.7" rx="2" ry="2"/>
					</g>
					<g>
						<path class="st2" d="M515.4,166.6c-0.2,0.2-0.5,0.4-0.7,0.3c-0.6-0.1-1.4-0.2-1.9-0.2c-0.4-0.1-0.6-0.4-0.6-0.8
							c0.1-0.8,0.2-2,0.3-3c0-0.2,0.2-0.5,0.4-0.6s0.5-0.1,0.7,0c0.8,0.5,1.9,1.1,2.6,1.4c0.2,0.1,0.3,0.2,0.3,0.5
							c0.1,0.2,0,0.4-0.1,0.6C516.1,165.4,515.6,166.1,515.4,166.6L515.4,166.6z"/>
						<path class="st2" d="M592.8,194.2c-0.1,0.3-0.3,0.5-0.6,0.5s-0.8,0.1-1.1,0.1c-0.4,0-0.7-0.2-0.8-0.6
							c-0.1-0.5-0.2-1.1-0.2-1.6c0-0.2,0.1-0.5,0.2-0.6c0.2-0.2,0.5-0.2,0.7-0.2c0.6,0.2,1.2,0.3,1.6,0.5c0.2,0.1,0.3,0.2,0.5,0.4
							c0.1,0.2,0.1,0.4,0.1,0.6C593,193.6,592.9,193.9,592.8,194.2z"/>
						<path class="st2" d="M504.6,158.6c-0.3,0-0.6-0.2-0.6-0.5c-0.2-0.3-0.3-0.7-0.4-1c-0.2-0.4,0-0.8,0.4-1c0.5-0.2,1-0.5,1.4-0.7
							c0.2-0.1,0.5-0.1,0.7,0.1c0.2,0.2,0.3,0.4,0.3,0.6c0,0.6,0,1.2,0,1.7c0,0.2-0.1,0.4-0.2,0.6c-0.2,0.2-0.3,0.2-0.6,0.2
							C505.4,158.6,504.9,158.6,504.6,158.6z"/>
						<path class="st2" d="M581.3,202.7c0.1-0.1,0.2-0.2,0.2-0.2c0.1,0,0.2,0,0.3,0.1c0.6,0.5,1.8,1.4,2.6,2.1
							c0.1,0.1,0.2,0.2,0.2,0.4s-0.2,0.2-0.3,0.3c-1.1,0.2-3,0.8-4.1,1.1c-0.2,0-0.3,0-0.4-0.2c-0.1-0.1-0.1-0.3-0.1-0.4
							C580.1,204.9,580.9,203.5,581.3,202.7L581.3,202.7z"/>
						<path class="st2" d="M552.1,198.1c0,0.1-0.1,0.2-0.2,0.3c-0.1,0.1-0.2,0.1-0.3,0.1c-0.6-0.2-1.4-0.5-2.1-0.6
							c-0.2-0.1-0.2-0.2-0.2-0.3s0-0.3,0.2-0.4c0.6-0.5,1.5-1.2,2.2-1.7c0.2-0.1,0.3-0.1,0.4,0c0.2,0.1,0.2,0.2,0.2,0.4
							C552.2,196.5,552.1,197.5,552.1,198.1z"/>
						<path class="st2" d="M527.9,144.5c-0.1-0.1-0.2-0.2-0.1-0.3c0-0.1,0.1-0.2,0.2-0.3c0.7-0.4,2-1.3,2.8-1.8
							c0.2-0.1,0.3-0.1,0.4,0c0.2,0.1,0.2,0.2,0.2,0.3c-0.1,1.1-0.2,3.1-0.2,4.2c0,0.2-0.1,0.3-0.2,0.3c-0.2,0.1-0.3,0-0.4-0.1
							C529.8,146.2,528.6,145.1,527.9,144.5z"/>
					</g>
				</g>
				<g>
					<path class="st0" d="M404,161.4c132.8,0.3,240.5,108.3,240.5,241.1H404V161.4L404,161.4z"/>
					<path class="st3" d="M404,365.9c1.2,0.1,2.3,0.2,3.5,0.1c2.5-0.1,4.8-0.5,6.9-1.1c1.8-0.6,3.4-1.3,4.6-2
						c0.3-0.2,0.7-0.5,1.2-0.8l0,0l0,0l0,0c0.4-0.3,0.9-0.6,1.4-1l0,0c1.9-1.3,4.2-2.3,6.9-3.1c2.6-0.8,5.6-1.3,8.7-1.4
						s6.1,0.2,8.8,0.9c3.4,0.8,6.3,2.1,8.7,3.8c1.4,1,3.4,1.8,5.6,2.2c2,0.5,4.2,0.6,6.7,0.6c2.3-0.1,4.5-0.5,6.5-1
						c2.1-0.6,3.9-1.4,5.2-2.6l0.5-0.3c2.2-1.6,5.1-3,8.4-4c2.8-0.8,5.8-1.3,9.1-1.4c3.3-0.1,6.4,0.3,9.3,1c3.7,0.9,6.8,2.3,9.3,4.1
						l0.6,0.3c1.3,0.7,2.8,1.3,4.5,1.6c1.8,0.5,4,0.6,6.2,0.6s4.2-0.5,6-1c1.8-0.6,3.4-1.4,4.6-2.2l0.5-0.4c2.4-1.8,5.4-3.3,9.1-4.2
						c2.9-0.9,6.2-1.4,9.5-1.4c4.2-0.2,8.2,0.5,11.7,1.5c3.1,1,5.8,2.2,7.9,3.9l0.5,0.3c1.1,0.6,2.4,1,3.9,1.4
						c1.7,0.4,3.7,0.6,5.7,0.5c1.9-0.1,3.9-0.4,5.5-1c1.5-0.5,2.9-1.2,3.9-1.9c2.2-1.7,4.9-3.2,8.1-4.2c3.6-1.3,7.7-2,12.1-2.1
						c4.4-0.2,8.7,0.6,12.2,1.6c3.3,1,6.2,2.4,8.5,4.1c1,0.7,2.2,1,3.8,1.4c0.4,0.1,0.9,0.2,1.4,0.2c1.3,6.8,2.2,13.8,2.9,20.7
						c-4.1-0.2-8-1-11.5-2.2c-3.3-1.2-6.1-2.6-8.3-4.4c-1-0.8-2.2-1.4-3.6-1.8c-1.6-0.5-3.4-0.9-5.3-0.9c-1.9-0.1-3.8,0.1-5.4,0.5
						c-1.4,0.3-2.6,0.7-3.6,1.3l-0.6,0.4c-2.2,1.5-4.9,3-8,3.9c-3.6,1-7.6,1.7-12,1.5c-3.5-0.1-6.8-0.6-9.8-1.4
						c-3.9-1.2-7.2-2.8-9.8-4.7l-0.5-0.3c-1-0.7-2.3-1.4-3.9-1.8c-1.8-0.6-3.7-0.9-5.8-1s-4.1,0.1-5.9,0.5c-1.8,0.4-3.4,1-4.6,1.8
						c-2.1,1.4-4.6,2.8-7.7,3.7c-3.4,1-7.2,1.5-11.4,1.4c-3.4-0.1-6.6-0.6-9.4-1.4c-3.7-1.1-6.8-2.6-9.2-4.5l-0.5-0.4
						c-1.2-0.9-2.6-1.5-4.3-2c-1.8-0.6-4-1-6.3-1c-2.2-0.1-4.4,0.1-6.4,0.6c-1.8,0.4-3.4,1-4.7,1.8l-0.6,0.4c-2.4,1.6-5.4,3-9,3.9
						c-2.7,0.6-5.8,1-9.1,1s-6.3-0.6-8.9-1.4c-3.3-1-6.1-2.3-8.2-4l-0.6-0.4c-1.4-1-3.2-1.8-5.2-2.5c-2-0.6-4.2-1-6.7-1.1
						s-4.7,0.2-6.8,0.6c-2.3,0.6-4.3,1.4-5.9,2.4c-2.2,1.5-5,2.8-8.3,3.6c-2.6,0.6-5.5,1-8.6,0.9c-1.2,0-2.3-0.2-3.5-0.2L404,365.9
						L404,365.9z M404,320.1c1.2,0.1,2.3,0.2,3.5,0.1c2.5-0.1,4.8-0.5,6.9-1.1c1.8-0.6,3.4-1.3,4.6-2c0.3-0.2,0.7-0.5,1.2-0.8l0,0
						l0,0l0,0c0.4-0.3,0.9-0.6,1.4-1l0,0c1.9-1.3,4.2-2.3,6.9-3.1c2.6-0.8,5.6-1.3,8.7-1.4s6.1,0.2,8.8,0.9c3.4,0.8,6.3,2.1,8.7,3.8
						c1.4,1,3.4,1.8,5.6,2.2c2,0.5,4.2,0.6,6.7,0.6c2.3-0.1,4.5-0.5,6.5-1c2.1-0.6,3.9-1.4,5.2-2.6l0.5-0.3c2.2-1.6,5.1-3,8.4-4
						c2.8-0.8,5.8-1.3,9.1-1.4c3.3-0.1,6.4,0.3,9.3,1c3.7,0.9,6.8,2.3,9.3,4.1l0.6,0.3c1.3,0.7,2.8,1.3,4.5,1.6
						c1.8,0.5,4,0.6,6.2,0.6c2.2-0.1,4.2-0.5,6-1c1.8-0.6,3.4-1.4,4.6-2.2l0.5-0.4c2.4-1.8,5.4-3.3,9.1-4.2c2.9-0.9,6.2-1.4,9.5-1.4
						c4.2-0.2,8.2,0.5,11.7,1.5c3.1,1,5.8,2.2,7.9,3.9l0.5,0.3c1.1,0.6,2.4,1,3.9,1.4c1.7,0.4,3.7,0.6,5.7,0.5
						c1.9-0.1,3.9-0.4,5.5-1c1.5-0.5,2.9-1.2,3.9-1.9c2.2-1.7,4.9-3.2,8.1-4.2c3.6-1.3,7.7-2,12.1-2.1c3.5-0.1,6.8,0.3,9.8,1
						c3.7,8.3,6.8,16.9,9.5,25.6c-0.7-0.2-1.4-0.4-2-0.6c-3.3-1.2-6.1-2.6-8.3-4.4c-1-0.8-2.2-1.4-3.6-1.8c-1.6-0.5-3.4-0.9-5.3-0.9
						c-1.9-0.1-3.8,0.1-5.4,0.5c-1.4,0.3-2.6,0.7-3.6,1.3l-0.6,0.4c-2.2,1.5-4.9,3-8,3.9c-3.6,1-7.6,1.7-12,1.5
						c-3.5-0.1-6.8-0.6-9.8-1.4c-3.9-1.2-7.2-2.8-9.8-4.7l-0.5-0.3c-1-0.7-2.3-1.4-3.9-1.8c-1.8-0.6-3.7-0.9-5.8-1s-4.1,0.1-5.9,0.5
						c-1.8,0.4-3.4,1-4.6,1.8c-2.1,1.4-4.6,2.8-7.7,3.7c-3.4,1-7.2,1.5-11.4,1.4c-3.4-0.1-6.6-0.6-9.4-1.4c-3.7-1.1-6.8-2.6-9.2-4.5
						l-0.5-0.4c-1.2-0.9-2.6-1.5-4.3-2c-1.8-0.6-4-1-6.3-1c-2.2-0.1-4.4,0.1-6.4,0.6c-1.8,0.4-3.4,1-4.7,1.8l-0.6,0.4
						c-2.4,1.6-5.4,3-9,3.9c-2.7,0.6-5.8,1-9.1,1c-3.2-0.1-6.3-0.6-8.9-1.4c-3.3-1-6.1-2.3-8.2-4l-0.6-0.4c-1.4-1-3.2-1.8-5.2-2.5
						s-4.2-1-6.7-1.1s-4.7,0.2-6.8,0.6c-2.3,0.6-4.3,1.4-5.9,2.4c-2.2,1.5-5,2.8-8.3,3.6c-2.6,0.6-5.5,1-8.6,0.9
						c-1.2,0-2.3-0.2-3.5-0.2L404,320.1L404,320.1z M404,272.4c1.2,0.1,2.3,0.2,3.5,0.1c2.5-0.1,4.8-0.5,6.9-1.1
						c1.8-0.6,3.4-1.3,4.6-2c0.3-0.2,0.7-0.5,1.2-0.8l0,0l0,0l0,0c0.4-0.3,0.9-0.6,1.4-1l0,0c1.9-1.3,4.2-2.3,6.9-3.1
						c2.6-0.8,5.6-1.3,8.7-1.4s6.1,0.2,8.8,0.9c3.4,0.8,6.3,2.1,8.7,3.8c1.4,1,3.4,1.8,5.6,2.2c2,0.5,4.2,0.6,6.7,0.6
						c2.3-0.1,4.5-0.5,6.5-1c2.1-0.6,3.9-1.4,5.2-2.6l0.5-0.3c2.2-1.6,5.1-3,8.4-4c2.8-0.8,5.8-1.3,9.1-1.4c3.3-0.1,6.4,0.3,9.3,1
						c3.7,0.9,6.8,2.3,9.3,4.1l0.6,0.3c1.3,0.7,2.8,1.3,4.5,1.6c1.8,0.5,4,0.6,6.2,0.6c2.2-0.1,4.2-0.5,6-1c1.8-0.6,3.4-1.4,4.6-2.2
						l0.5-0.4c2.4-1.8,5.4-3.3,9.1-4.2c2.9-0.9,6.2-1.4,9.5-1.4c4.2-0.2,8.2,0.5,11.7,1.5c3.1,1,5.8,2.2,7.9,3.9l0.5,0.3
						c1.1,0.6,2.4,1,3.9,1.4c1.7,0.4,3.7,0.6,5.7,0.5c1.9-0.1,3.9-0.4,5.5-1c1.5-0.5,2.9-1.2,3.9-1.9c1.3-1,2.7-1.8,4.2-2.7
						c3.7,5,7,10.2,10.3,15.5c-1.4,0.3-2.5,0.6-3.5,1.2l-0.6,0.4c-2.2,1.5-4.9,3-8,3.9c-3.6,1-7.6,1.7-12,1.5
						c-3.5-0.1-6.8-0.6-9.8-1.4c-3.9-1.2-7.2-2.8-9.8-4.7l-0.5-0.3c-1-0.7-2.3-1.4-3.9-1.8c-1.8-0.6-3.7-0.9-5.8-1s-4.1,0.1-5.9,0.5
						s-3.4,1-4.6,1.8c-2.1,1.4-4.6,2.8-7.7,3.7c-3.4,1-7.2,1.5-11.4,1.4c-3.4-0.1-6.6-0.6-9.4-1.4c-3.7-1.1-6.8-2.6-9.2-4.5
						l-0.5-0.4c-1.2-0.9-2.6-1.5-4.3-2c-1.8-0.6-4-1-6.3-1c-2.2-0.1-4.4,0.1-6.4,0.6c-1.8,0.4-3.4,1-4.7,1.8l-0.7,0.4
						c-2.4,1.6-5.4,3-9,3.9c-2.7,0.6-5.8,1-9.1,1c-3.2-0.1-6.3-0.6-8.9-1.4c-3.3-1-6.1-2.3-8.2-4l-0.6-0.4c-1.4-1-3.2-1.8-5.2-2.5
						c-2-0.6-4.2-1-6.7-1.1c-2.4-0.1-4.7,0.2-6.8,0.6c-2.3,0.6-4.3,1.4-5.9,2.4c-2.2,1.5-5,2.8-8.3,3.6c-2.6,0.6-5.5,1-8.6,0.9
						c-1.2,0-2.3-0.2-3.5-0.2L404,272.4L404,272.4z M552.8,213.3c9.2,7.2,17.7,15,25.7,23.5c-1.1-0.2-2.2-0.5-3.3-0.8
						c-3.9-1.2-7.2-2.8-9.8-4.7l-0.5-0.3c-1-0.7-2.3-1.4-3.9-1.8c-1.8-0.6-3.7-0.9-5.8-1s-4.1,0.1-5.9,0.5s-3.4,1-4.6,1.8
						c-2.1,1.4-4.6,2.8-7.7,3.7c-3.4,1-7.2,1.5-11.4,1.4c-3.4-0.1-6.6-0.6-9.4-1.4c-3.7-1.1-6.8-2.6-9.2-4.5l-0.5-0.4
						c-1.2-0.9-2.6-1.5-4.3-2c-1.8-0.6-4-1-6.3-1c-2.2-0.1-4.4,0.1-6.4,0.6c-1.8,0.4-3.4,1-4.7,1.8l-0.6,0.4c-2.4,1.6-5.4,3-9,3.9
						c-2.7,0.6-5.8,1-9.1,1c-3.2-0.1-6.3-0.6-8.9-1.4c-3.3-1-6.1-2.3-8.2-4l-0.6-0.4c-1.4-1-3.2-1.8-5.2-2.5c-2-0.6-4.2-1-6.7-1.1
						c-2.4-0.1-4.7,0.2-6.8,0.6c-2.3,0.6-4.3,1.4-5.9,2.4c-2.2,1.5-5,2.8-8.3,3.6c-2.6,0.6-5.5,1-8.6,0.9c-1.2,0-2.3-0.2-3.5-0.2
						v-5.8c1.2,0.1,2.3,0.2,3.5,0.1c2.5-0.1,4.8-0.5,6.9-1.1c1.8-0.6,3.4-1.3,4.6-2c0.3-0.2,0.7-0.5,1.2-0.8l0,0l0,0l0,0
						c0.4-0.3,0.9-0.6,1.4-1l0,0c1.9-1.3,4.2-2.3,6.9-3.1c2.6-0.8,5.6-1.3,8.7-1.4c3.1-0.1,6.1,0.2,8.8,0.9c3.4,0.8,6.3,2.1,8.7,3.8
						c1.4,1,3.4,1.8,5.6,2.2c2,0.5,4.2,0.6,6.7,0.6c2.3-0.1,4.5-0.5,6.5-1c2.1-0.6,3.9-1.4,5.2-2.6l0.5-0.3c2.2-1.6,5.1-3,8.4-4
						c2.8-0.8,5.8-1.3,9.1-1.4c3.3-0.1,6.4,0.3,9.3,1c3.7,0.9,6.8,2.3,9.3,4.1l0.6,0.3c1.3,0.7,2.8,1.3,4.5,1.6
						c1.8,0.5,4,0.6,6.2,0.6c2.2-0.1,4.2-0.5,6-1c1.8-0.6,3.4-1.4,4.6-2.2l0.5-0.4c2.4-1.8,5.4-3.3,9.1-4.2
						C548.1,214,550.4,213.5,552.8,213.3L552.8,213.3z"/>
				</g>
				<path class="st4" d="M404,162.9v239.7H163.9c0-132.2,107.3-239.7,239.7-239.7L404,162.9L404,162.9z"/>
				<g>
					<path class="st5" d="M244.4,220.2c-8.7-2.9-14.6-11-14.6-20.2V98.4c0-10.3,6.9-19.5,16.9-22.2c1.4-0.4,2.7-0.8,4.1-1.2
						c9.9-2.8,16.9-11.9,16.9-22.2v-1.6c0-6.2,2.4-12,6.8-16.3c4.3-4.3,10.2-6.8,16.3-6.8c6.7,0,13.9,0,20.5,0
						c6.2,0,12,2.4,16.3,6.8c4.3,4.3,6.8,10.2,6.8,16.3v19.5c0,9,5.1,17.1,13.2,20.8c1,0.5,2,1,3,1.4c8.1,3.9,13.2,11.9,13.2,20.8
						v87.6c0,8.2-4.6,15.6-11.9,19.3c-0.6,0.3-1.3,0.6-1.8,1c-4,2-7,5.5-8.2,9.8l0,0c-2.4,8.2-10,13.9-18.6,13.9
						c-13.1,0-32.5,0-45.3,0c-8.3,0-16-4.5-20.1-11.8c-0.9-1.5-1.7-3-2.5-4.4C252.9,224.9,249,221.7,244.4,220.2L244.4,220.2
						L244.4,220.2z"/>
					<path class="st1" d="M319.4,171.2l-4.1,4.2c-0.6,0.6-0.6,1.4,0.1,1.9c0.6,0.6,1.4,0.6,1.9-0.1l4.1-4.2c0.6-0.6,0.6-1.4-0.1-1.9
						C320.9,170.6,320,170.6,319.4,171.2z"/>
					<path class="st1" d="M309.5,101.5l-4.1,4.2c-0.6,0.6-0.6,1.4,0.1,1.9c0.6,0.6,1.4,0.6,1.9-0.1l4.1-4.2c0.6-0.6,0.6-1.4-0.1-1.9
						C310.9,100.9,310,100.9,309.5,101.5z"/>
					<path class="st1" d="M269.6,108.9l4.1,4.2c0.6,0.6,1.4,0.6,1.9,0.1c0.6-0.6,0.6-1.4,0.1-1.9l-4.1-4.2c-0.6-0.6-1.4-0.6-1.9-0.1
						C269,107.5,269,108.3,269.6,108.9z"/>
					<path class="st1" d="M251,192.6l4.1,4.2c0.6,0.6,1.4,0.6,1.9,0.1c0.6-0.6,0.6-1.4,0.1-1.9l-4.1-4.2c-0.6-0.6-1.4-0.6-1.9-0.1
						C250.6,191.2,250.6,192,251,192.6z"/>
					<path class="st1" d="M282.2,48l4.1,4.2c0.6,0.6,1.4,0.6,1.9,0.1c0.6-0.6,0.6-1.4,0.1-1.9l-4.1-4.2c-0.6-0.6-1.4-0.6-1.9-0.1
						C281.7,46.6,281.6,47.5,282.2,48z"/>
					<path class="st1" d="M329,223.5l-4.1,4.2c-0.6,0.6-0.6,1.4,0.1,1.9c0.6,0.6,1.4,0.6,1.9-0.1l4.1-4.2c0.6-0.6,0.6-1.4-0.1-1.9
						C330.4,222.9,329.6,222.9,329,223.5z"/>
					<path class="st1" d="M341.3,120.8l-4.1,4.2c-0.6,0.6-0.6,1.4,0.1,1.9c0.6,0.6,1.4,0.6,1.9-0.1l4.1-4.2c0.6-0.6,0.6-1.4-0.1-1.9
						C342.8,120.3,341.9,120.3,341.3,120.8L341.3,120.8z"/>
					<path class="st1" d="M322.9,159.5l-2,2.1c-0.6,0.6-0.6,1.4,0.1,1.9c0.6,0.6,1.4,0.6,1.9-0.1l2-2.1c0.6-0.6,0.6-1.4-0.1-1.9
						S323.3,158.9,322.9,159.5z"/>
					<path class="st1" d="M311.5,86.7l-2,2.1c-0.6,0.6-0.6,1.4,0.1,1.9c0.6,0.6,1.4,0.6,1.9-0.1l2-2.1c0.6-0.6,0.6-1.4-0.1-1.9
						C312.9,86.2,312,86.2,311.5,86.7z"/>
					<path class="st1" d="M322.1,58.5l-2,2.1c-0.6,0.6-0.6,1.4,0.1,1.9c0.6,0.6,1.4,0.6,1.9-0.1l2-2.1c0.6-0.6,0.6-1.4-0.1-1.9
						C323.6,57.9,322.7,57.9,322.1,58.5z"/>
					<path class="st1" d="M257.6,115.2l2,2.1c0.6,0.6,1.4,0.6,1.9,0.1c0.6-0.6,0.6-1.4,0.1-1.9l-2-2.1c-0.6-0.6-1.4-0.6-1.9-0.1
						C257.1,113.7,257.1,114.6,257.6,115.2z"/>
					<path class="st1" d="M256.4,211.6l2,2.1c0.6,0.6,1.4,0.6,1.9,0.1c0.6-0.6,0.6-1.4,0.1-1.9l-2-2.1c-0.6-0.6-1.4-0.6-1.9-0.1
						C255.9,210.2,255.9,211,256.4,211.6z"/>
					<path class="st1" d="M267.4,81.3l2,2.1c0.6,0.6,1.4,0.6,1.9,0.1c0.6-0.6,0.6-1.4,0.1-1.9l-2-2.1c-0.6-0.6-1.4-0.6-1.9-0.1
						C266.8,79.8,266.8,80.6,267.4,81.3L267.4,81.3z"/>
					<path class="st1" d="M273.7,156.5l2,2.1c0.6,0.6,1.4,0.6,1.9,0.1c0.6-0.6,0.6-1.4,0.1-1.9l-2-2.1c-0.6-0.6-1.4-0.6-1.9-0.1
						C273.1,155.2,273.1,156,273.7,156.5L273.7,156.5z"/>
					<path class="st1" d="M342.4,108l-2,2.1c-0.6,0.6-0.6,1.4,0.1,1.9c0.6,0.6,1.4,0.6,1.9-0.1l2-2.1c0.6-0.6,0.6-1.4-0.1-1.9
						C343.7,107.5,343,107.5,342.4,108z"/>
					<path class="st1" d="M344.8,164.1l-2,2.1c-0.6,0.6-0.6,1.4,0.1,1.9c0.6,0.6,1.4,0.6,1.9-0.1l2-2.1c0.6-0.6,0.6-1.4-0.1-1.9
						C346.2,163.5,345.3,163.5,344.8,164.1z"/>
				</g>
				<g>
					<path class="st2" d="M290.8,194c0.1-5,0.2-9.9,0.4-14.9c1-23.5,2.3-44.1,2.3-44.1c0-1.8,1.4-3.3,3.3-3.3s3.3,1.4,3.3,3.3
						c0,0,1.4,20.6,2.3,44.1c0.2,6.6,0.4,13.2,0.5,19.9c0.1,5.5,0.2,11,0.2,16c2.2-2.1,4.6-4.4,7-6.8c2.5-2.3,5-4.7,7.6-7
						c9.3-8.2,17.6-14.9,17.6-14.9c1.1-1.1,2.8-1.1,3.9,0s1.1,2.8,0,3.9c0,0-6.7,8.4-14.9,17.6c-2.2,2.6-4.6,5.1-7,7.6
						c-5.7,6.1-11.1,11.6-14.3,14.7c0.1,9.2,0.1,15,0.1,15v111c0,3.6-3,6.6-6.6,6.6s-6.6-3-6.6-6.6V245.4c0,0,0-16.2,0.3-36.2
						c-3.1-3.2-9.1-9.2-15.2-15.7c-2.5-2.6-5-5.3-7.4-7.9C259,176,252,167.2,252,167.2c-1.1-1.1-1.1-2.8,0-3.9
						c1.1-1.1,2.8-1.1,3.9,0c0,0,6.4,5.1,14.3,11.9c0.8-0.7,2.1-1.9,3.6-3.2c0.6-0.6,1.4-1.1,2-1.5c2.6-1.7,5-2.7,5-2.7
						c0.9-0.9,2.2-0.9,3.2,0c0.9,0.9,0.9,2.2,0,3.2c0,0-1,2.3-2.7,5c-0.5,0.7-1,1.4-1.5,2c-1.1,1.3-2.1,2.4-2.9,3.2
						c1.8,1.7,3.7,3.4,5.5,5.1C285.5,188.9,288.3,191.6,290.8,194L290.8,194z"/>
					<path class="st5" d="M295.8,310.8v-2.9c0-0.8-0.6-1.4-1.4-1.4s-1.4,0.6-1.4,1.4v2.9c0,0.8,0.6,1.4,1.4,1.4
						C295.1,312.2,295.8,311.5,295.8,310.8z"/>
					<path class="st5" d="M280.6,188.5l-2-2c-0.6-0.6-1.4-0.6-1.9,0c-0.6,0.6-0.6,1.4,0,1.9l2,2c0.6,0.6,1.4,0.6,1.9,0
						C281.1,189.9,281.1,189.1,280.6,188.5z"/>
					<path class="st5" d="M299.6,255.4v-2.9c0-0.8-0.6-1.4-1.4-1.4s-1.4,0.6-1.4,1.4v2.9c0,0.8,0.6,1.4,1.4,1.4
						C298.9,256.8,299.6,256.2,299.6,255.4z"/>
					<path class="st5" d="M298.5,299.2v-1c0-0.8-0.6-1.4-1.4-1.4s-1.4,0.6-1.4,1.4v1c0,0.8,0.6,1.4,1.4,1.4
						C297.9,300.5,298.5,299.9,298.5,299.2z"/>
					<path class="st5" d="M313.9,214.4l0.7-0.7c0.6-0.6,0.6-1.4,0-1.9s-1.4-0.6-1.9,0l-0.7,0.7c-0.6,0.6-0.6,1.4,0,1.9
						S313.4,215,313.9,214.4z"/>
					<path class="st5" d="M303.1,211.2c0,1.4,0,2.6,0.1,3.9c0.2-0.2,0.5-0.5,0.8-0.7l-2.9,3c-0.6,0.6-1.4,0.6-1.9,0.1
						c-0.6-0.6-0.6-1.4-0.1-1.9L303.1,211.2z"/>
				</g>
				<g>
					<path class="st5" d="M216.7,349.6c0.5-0.9,0.8-1.8,1-2.8c4.1-18.7,20.7-32.8,40.7-32.8c19.9,0,36.5,13.9,40.6,32.4
						c1.1,4.9,5.2,8.7,10.2,9.2c22.2,2.6,40.7,23.5,40.7,45.7c0,0.4,0,0.8,0,1.1h-167c0.1-19.7,10.6-36.8,26.3-46.4
						c4.5-2.6,10.1-4.9,16.8-6.3c0.8-0.2,1.3-0.9,1.1-1.6c-0.2-0.8-0.9-1.3-1.6-1.1C222.3,347.8,219.4,348.6,216.7,349.6
						L216.7,349.6z"/>
					<path class="st1" d="M235.3,341.5l4.1,4.2c0.6,0.6,1.4,0.6,1.9,0.1c0.6-0.6,0.6-1.4,0.1-1.9l-4.1-4.2c-0.6-0.6-1.4-0.6-1.9-0.1
						C234.9,340.2,234.9,341,235.3,341.5L235.3,341.5z"/>
					<path class="st1" d="M195.2,391.2l4.1,4.2c0.6,0.6,1.4,0.6,1.9,0.1c0.6-0.6,0.6-1.4,0.1-1.9l-4.1-4.2c-0.6-0.6-1.4-0.6-1.9-0.1
						C194.7,389.7,194.7,390.6,195.2,391.2z"/>
					<path class="st1" d="M290.5,359.9l-4.1,4.2c-0.6,0.6-0.6,1.4,0.1,1.9c0.6,0.6,1.4,0.6,1.9-0.1l4.1-4.2c0.6-0.6,0.6-1.4-0.1-1.9
						C292,359.3,291.1,359.3,290.5,359.9L290.5,359.9z"/>
					<path class="st1" d="M237.7,392.9l4.1,4.2c0.6,0.6,1.4,0.6,1.9,0.1c0.6-0.6,0.6-1.4,0.1-1.9l-4.1-4.2c-0.6-0.6-1.4-0.6-1.9-0.1
						C237.2,391.6,237.1,392.4,237.7,392.9L237.7,392.9z"/>
					<path class="st1" d="M280.8,341.8l-4.1,4.2c-0.6,0.6-0.6,1.4,0.1,1.9c0.6,0.6,1.4,0.6,1.9-0.1l4.1-4.2c0.6-0.6,0.6-1.4-0.1-1.9
						C282.2,341.3,281.3,341.3,280.8,341.8L280.8,341.8z"/>
					<path class="st1" d="M239.4,332l2,2.1c0.6,0.6,1.4,0.6,1.9,0.1c0.6-0.6,0.6-1.4,0.1-1.9l-2-2.1c-0.6-0.6-1.4-0.6-1.9-0.1
						C238.9,330.5,238.9,331.4,239.4,332L239.4,332z"/>
					<path class="st1" d="M199.1,376.2l2,2.1c0.6,0.6,1.4,0.6,1.9,0.1c0.6-0.6,0.6-1.4,0.1-1.9l-2-2.1c-0.6-0.6-1.4-0.6-1.9-0.1
						C198.6,374.8,198.6,375.6,199.1,376.2z"/>
					<path class="st1" d="M281.2,331.8l-2,2.1c-0.6,0.6-0.6,1.4,0.1,1.9c0.6,0.6,1.4,0.6,1.9-0.1l2-2.1c0.6-0.6,0.6-1.4-0.1-1.9
						C282.7,331.3,281.8,331.3,281.2,331.8L281.2,331.8z"/>
					<path class="st1" d="M269,321.2l-2,2.1c-0.6,0.6-0.6,1.4,0.1,1.9c0.6,0.6,1.4,0.6,1.9-0.1l2-2.1c0.6-0.6,0.6-1.4-0.1-1.9
						C270.4,320.7,269.6,320.7,269,321.2z"/>
					<path class="st1" d="M206.4,391.7l2,2.1c0.6,0.6,1.4,0.6,1.9,0.1c0.6-0.6,0.6-1.4,0.1-1.9l-2-2.1c-0.6-0.6-1.4-0.6-1.9-0.1
						C205.9,390.4,205.9,391.3,206.4,391.7L206.4,391.7z"/>
					<path class="st1" d="M279.5,391.7l-2,2.1c-0.6,0.6-0.6,1.4,0.1,1.9c0.6,0.6,1.4,0.6,1.9-0.1l2-2.1c0.6-0.6,0.6-1.4-0.1-1.9
						C280.9,391.3,280,391.3,279.5,391.7z"/>
					<path class="st1" d="M292,378.7l-2,2.1c-0.6,0.6-0.6,1.4,0.1,1.9c0.6,0.6,1.4,0.6,1.9-0.1l2-2.1c0.6-0.6,0.6-1.4-0.1-1.9
						C293.4,378.1,292.5,378.1,292,378.7z"/>
					<path class="st1" d="M317.5,386.7l-4.1,4.2c-0.6,0.6-0.6,1.4,0.1,1.9c0.6,0.6,1.4,0.6,1.9-0.1l4.1-4.2c0.6-0.6,0.6-1.4-0.1-1.9
						C318.9,386.1,318.1,386.2,317.5,386.7L317.5,386.7z"/>
					<path class="st1" d="M313.7,371.7l-2,2.1c-0.6,0.6-0.6,1.4,0.1,1.9c0.6,0.6,1.4,0.6,1.9-0.1l2-2.1c0.6-0.6,0.6-1.4-0.1-1.9
						C315,371.1,314.1,371.1,313.7,371.7z"/>
				</g>
				<g>
					<path class="st2" d="M258.7,342.6c2.3,0,4.2,0.8,4.2,4.6s-1.9,9.2-4.2,9.2s-4.2-5.4-4.2-9.2
						C254.4,343.4,256.3,342.6,258.7,342.6z"/>
					<path class="st2" d="M258.6,374.9c-2.3,0-4.2-0.8-4.2-4.6s1.9-9.2,4.2-9.2s4.2,5.4,4.2,9.2S261,374.9,258.6,374.9z"/>
					<path class="st1" d="M246.9,347c1.7-1.7,3.6-2.5,6.3,0.2s5.1,7.8,3.5,9.5c-1.7,1.7-6.8-0.8-9.5-3.5
						C244.4,350.6,245.2,348.6,246.9,347L246.9,347z"/>
					<path class="st1" d="M270.5,370.4c-1.7,1.7-3.6,2.5-6.3-0.2c-2.7-2.7-5.1-7.8-3.4-9.5s6.8,0.8,9.5,3.5
						C273,366.9,272.2,368.8,270.5,370.4z"/>
					<path class="st1" d="M270.5,347c-1.7-1.7-3.6-2.5-6.3,0.2c-2.7,2.7-5.1,7.8-3.4,9.5s6.8-0.8,9.5-3.5
						C273,350.6,272.2,348.6,270.5,347L270.5,347z"/>
					<path class="st1" d="M246.9,370.4c1.7,1.7,3.6,2.5,6.3-0.2s5.1-7.8,3.5-9.5c-1.7-1.7-6.8,0.8-9.5,3.5
						C244.4,366.9,245.2,368.8,246.9,370.4z"/>
					<path class="st2" d="M275.1,358.8c0,2.3-0.8,4.2-4.6,4.2s-9.2-1.9-9.2-4.2s5.4-4.2,9.2-4.2
						C274.3,354.5,275.1,356.4,275.1,358.8z"/>
					<path class="st2" d="M242.3,358.8c0,2.3,0.8,4.2,4.6,4.2s9.2-1.9,9.2-4.2s-5.4-4.2-9.2-4.2S242.3,356.4,242.3,358.8z"/>
					<circle class="st5" cx="258.7" cy="358.7" r="4.3"/>
					<path class="st2" d="M257.3,381.5v-12.6c0-0.8,0.6-1.4,1.4-1.4c0.9,0,1.4,0.6,1.4,1.4v9.3l4.2-1.8c0.5-0.2,1-0.1,1.4,0.4
						c0.3,0.4,0.2,1-0.1,1.4l-5.5,6.2v18.4c0,0.8-0.6,1.4-1.4,1.4s-1.4-0.6-1.4-1.4v-12l-6.1-10.3c-0.2-0.4-0.2-1,0.2-1.4
						c0.3-0.3,0.9-0.4,1.4-0.2L257.3,381.5z"/>
				</g>
				<g>
					<path class="st2" d="M227,390v-21.2c0-0.8,0.6-1.4,1.4-1.4s1.4,0.6,1.4,1.4v33.7c0,0.8-0.6,1.4-1.4,1.4s-1.4-0.6-1.4-1.4v-5.2
						l-4.7-6.1c-0.2-0.3-0.3-0.9-0.1-1.2c0.2-0.4,0.6-0.6,1.1-0.6L227,390z"/>
					<g>
						<path class="st1" d="M228.4,364.5c0.4-0.6,0.9-1,1.4-1.4c3-3,6.3-3.4,8.2-1.4c1.8,1.8,1.5,5.2-1.4,8.2c-0.5,0.5-1,0.9-1.4,1.4
							c0.6,0.4,1,0.9,1.4,1.4c3,3,3.4,6.3,1.4,8.2c-1.8,1.8-5.2,1.5-8.2-1.4c-0.5-0.5-0.9-1-1.4-1.4c-0.4,0.6-0.9,1-1.4,1.4
							c-3,3-6.3,3.4-8.2,1.4c-1.8-1.8-1.5-5.2,1.4-8.2c0.5-0.5,1-0.9,1.4-1.4c-0.6-0.4-1-0.9-1.4-1.4c-3-3-3.4-6.3-1.4-8.2
							c1.8-1.8,5.2-1.5,8.2,1.4C227.5,363.5,228,364,228.4,364.5z"/>
						<circle class="st2" cx="228.4" cy="371.1" r="3.8"/>
					</g>
				</g>
				<g>
					<path class="st2" d="M515.5,364c1.4,0,2.7,0.6,2.7,3s-1.3,5.9-2.7,5.9s-2.7-3.4-2.7-5.9C512.7,364.5,514,364,515.5,364z"/>
					<path class="st2" d="M523,366.9c-1.1-1.1-2.3-1.5-4.1,0.2s-3.3,5-2.2,6.1s4.3-0.5,6.1-2.2C524.6,369.2,524.2,367.9,523,366.9z"
						/>
					<path class="st2" d="M527.7,391.7c-1.1,1.1-2.3,1.5-4.1-0.2c-1.7-1.7-3.3-5-2.2-6.1s4.3,0.5,6.1,2.2
						C529.3,389.5,528.8,390.8,527.7,391.7z"/>
					<path class="st2" d="M505,374.4c0,1.4,0.6,2.7,3,2.7s5.9-1.3,5.9-2.7s-3.4-2.7-5.9-2.7C505.5,371.7,505,372.9,505,374.4z"/>
					<path class="st2" d="M508.9,391.2c0.5-1,1.1-1.8,1.8-2.6c0.5-0.5,1-1,1.4-1.4c1.4-1.4,2-3,2-4.9c0-2.5,0-5.4,0-5.4
						c0-0.8,0.6-1.4,1.4-1.4c0.9,0,1.4,0.6,1.4,1.4c0,0,0,2.9,0,5.4c0,2.6-1,5-2.8,6.8c-0.5,0.5-1,1-1.4,1.4c-1.4,1.4-2,3-2,4.9v5.7
						c0,0.8-0.6,1.4-1.4,1.4s-1.4-0.6-1.4-1.4V397l-3.8-6.4c-0.2-0.4-0.2-1,0.2-1.4c0.3-0.3,0.9-0.4,1.4-0.2L508.9,391.2
						L508.9,391.2z"/>
					<circle class="st2" cx="515.5" cy="374.4" r="2.8"/>
				</g>
				<path class="st2" d="M536.9,402.5v-4.9c0-0.8-0.6-1.4-1.4-1.4c-0.9,0-1.4,0.6-1.4,1.4v4.9c0,0.8,0.6,1.4,1.4,1.4
					C536.3,403.9,536.9,403.3,536.9,402.5z"/>
				<path class="st2" d="M605,402.5v-4.9c0-0.8-0.6-1.4-1.4-1.4c-0.8,0-1.4,0.6-1.4,1.4v4.9c0,0.8,0.6,1.4,1.4,1.4
					C604.3,403.9,605,403.3,605,402.5z"/>
				<path class="st2" d="M542.5,402.5v-9.7c0-0.8-0.6-1.4-1.4-1.4c-0.8,0-1.4,0.6-1.4,1.4v9.7c0,0.8,0.6,1.4,1.4,1.4
					S542.5,403.3,542.5,402.5z"/>
				<g>
					<path class="st2" d="M568.3,348.8c0.4,0.4,1,0.5,1.5,0.2c0.6-0.2,0.9-0.8,0.9-1.4c0-8.5,0-30.7,0-40c0-0.6,0.4-1.2,1-1.4
						c0.6-0.2,1.3,0,1.6,0.5c0.6,0.7,1.1,1.4,1.6,2.1c0.3,0.5,0.9,0.6,1.4,0.6c0.6-0.1,1-0.5,1.2-1c0.8-2.5,1.9-6.1,2.6-8.4
						c0.2-0.6,0.6-1,1.2-1c0.6-0.1,1.1,0.2,1.4,0.6c0.6,1.1,1.1,2.3,1.1,3.8v18.3c0,0.6,0.3,1,0.8,1.3c0.5,0.2,1,0.2,1.4-0.2l0,0
						c2.2-1.7,4.2-3.2,5.9-4.3c0.2-0.2,0.5-0.2,0.7-0.2c0.7-0.1,2.2-0.2,3.4-0.3c0.5-0.1,1,0.2,1.3,0.6s0.4,0.9,0.3,1.4
						c-0.5,1.8-1.2,4.2-1.4,5c-0.1,0.2-0.2,0.3-0.2,0.5c-1,1.4-2.1,2.9-3.3,4.4c-1.1,1.4-2.2,2.7-3.5,4.1c-1.8,2-3.6,3.9-5,5.4
						c-0.2,0.2-0.4,0.6-0.4,1c0,6.4,0,62.4,0,62.4c0,0.2-13,0.2-13,0v-35.5c0-0.4-0.2-0.8-0.4-1c-2.4-2.5-5.9-6.1-9.5-10
						c-1.8-1.8-3.6-3.9-5.2-5.8c-1.7-2-3.3-4-4.6-5.7c-0.2-0.2-0.2-0.4-0.3-0.6s-0.2-0.7-0.2-1.2c-0.2-0.6,0.1-1.3,0.6-1.5
						s1.2-0.3,1.6,0.1c0.8,0.6,1.5,1.2,2.3,1.7c0.4,0.3,1,0.3,1.4,0.1c0.5-0.2,0.7-0.7,0.6-1.2l0,0c0-0.6,0.2-1,0.7-1.3
						c0.5-0.2,1-0.2,1.4,0.2c1.1,0.9,2.2,1.8,3.3,2.7c1.9,1.6,3.9,3.5,5.8,5.2C568.2,348.6,568.3,348.7,568.3,348.8L568.3,348.8z"/>
					<path class="st2" d="M570.5,366l5.6,5.8c0.6,0.6,0.6,1.4-0.1,1.9c-0.6,0.6-1.4,0.6-1.9-0.1l-3.4-3.4v-3.4
						C570.9,366.6,570.7,366.3,570.5,366L570.5,366z"/>
					<path class="st0" d="M577.3,392.8v-2.9c0-0.8-0.6-1.4-1.4-1.4c-0.8,0-1.4,0.6-1.4,1.4v2.9c0,0.8,0.6,1.4,1.4,1.4
						C576.7,394.2,577.3,393.6,577.3,392.8z"/>
					<path class="st0" d="M577.3,336v-0.9c0-0.8-0.6-1.4-1.4-1.4c-0.8,0-1.4,0.6-1.4,1.4v0.9c0,0.8,0.6,1.4,1.4,1.4
						S577.3,336.7,577.3,336z"/>
					<path class="st0" d="M580.8,383.2v-1.1c0-0.8-0.6-1.4-1.4-1.4c-0.9,0-1.4,0.6-1.4,1.4v1c0,0.8,0.6,1.4,1.4,1.4
						S580.8,383.8,580.8,383.2z"/>
				</g>
				<g>
					<path class="st3" d="M242.9,93.1c1.5-0.7,0.9,0.6,0.5,1.4l0,0c-3,5.6-4.7,12.1-4.7,18.8c0,8.5,2.6,16.3,7.2,22.8
						c3.6-0.2,5.5-1.4,9.3-3c3.7-1.7,11.5-3.1,13.7,2.4c0,0.1,0.1,0.1,0.1,0.2l0,0c0.2,0.6,1,3,0.1,6.7c-7.5,2.3-17.8,7.4-17.8,7.4
						c-2.5,1.2-5.1,1.8-7.9,1.8h-11.6c-2.4,0-4.8-0.5-7-1.4c-3.4-1.4-8.6-3.7-11.6-4.9c-1.5-0.6-3.2-1-4.9-1h-8.7
						c-1.4,0-2.9-0.5-4.1-1.3c-0.9-0.6-1.9-1.4-2.8-1.9c-0.3-0.2-0.4-0.6-0.3-1c0.1-0.3,0.4-0.6,0.8-0.6c5.5,0,17.8,0,17.8,0
						s2.8-0.9,8.4-1.7c-3.4-3.1-5.7-6.8-6.3-10.5c7.3,2.2,8.7,0,8.7,0c-10.4-6.2-8.7-17-8.7-17c3.6,6.2,10.2,7.4,10.2,7.4
						c-5.1-10.9,2.3-19.8,2.3-19.8c-0.5,9.5,3.9,12.5,3.9,12.5c2.2-10.1,8.9-15,12.6-17.2c0.1,0,0.1-0.1,0.2-0.1
						C242.5,93.2,242.6,93.1,242.9,93.1L242.9,93.1z"/>
					<path class="st2" d="M248.7,135.7c0.5,0.7,1.2,1.5,1.8,2.1c0.6,0.5,0.7,1.4,0.2,1.9s-1.4,0.7-1.9,0.2c-1.3-1-2.5-2.8-3.1-3.9
						l0,0C246.9,136.1,247.8,136,248.7,135.7z"/>
					<path class="st2" d="M268.8,135.7l6.9,3c0.4,0.2,0.6,0.6,0.6,1s-0.3,0.8-0.8,0.9l-4.2,1c-0.8,0.2-1.5,0.4-2.4,0.7
						C269.8,138.9,269,136.5,268.8,135.7L268.8,135.7z"/>
					<path class="st2" d="M208.1,142.9h0.2c1.8,0,3.8,0.4,5.4,1.1c3,1.3,8.2,3.4,11.6,4.9c0.7,0.3,1,1.1,0.7,1.8c-0.3,1-1.2,1-1.4,1
						c0,0-4.4,1-10.2,0.6c-3.2-0.2-6.7-0.7-10-1.8c-0.8-0.2-1.3-1-1-1.8c0.2-0.8,1-1.3,1.8-1c2.5,0.6,5,0.7,7.4,0.7
						c1.5,0,3,0,4.4-0.1l-4.3-1.8c-1.4-0.6-2.9-0.9-4.3-0.9c-2.5,0-6.3,0-8.7,0c-1.7,0-3.4-0.6-4.9-1.4c-0.9-0.6-1.9-1.4-2.8-1.9
						c-0.8-0.6-1.2-1.5-0.9-2.5s1.2-1.5,2.1-1.5h17.6c0.6-0.2,2.5-0.7,5.8-1.3c-2.6-2.9-4.2-6.2-4.8-9.5c-0.1-0.5,0.1-1,0.5-1.3
						s0.9-0.4,1.4-0.3c2.4,0.7,4.1,1,5.3,1c-8.7-6.8-7-16.7-7-16.7c0.1-0.6,0.6-1,1.1-1.2c0.6-0.1,1.2,0.2,1.4,0.6
						c1.8,3.3,4.6,5,6.7,5.8C218,105,224.9,97,224.9,97c0.4-0.5,1-0.6,1.5-0.4c0.6,0.2,0.9,0.8,0.9,1.4c-0.2,6.1,2.9,10.7,3.8,12.6
						c0.3,0.7,0,1.4-0.7,1.8c-0.7,0.3-1.4,0-1.8-0.7c-0.2-0.3-0.4-0.7-0.7-1.3c-1.4,1.2-2.8,2.6-3.9,4.1c0.2,0.8,0.6,1.5,1,2.4
						c0.2,0.5,0.2,1-0.2,1.4c-0.3,0.4-0.9,0.6-1.4,0.6c0,0-0.6-0.1-1.6-0.5c-0.7,1.7-1.4,3.5-1.6,5.5c0.8,0.7,1.7,1.4,2.7,1.9
						c0.3,0.2,0.6,0.6,0.6,0.9c0.1,0.3,0,0.8-0.2,1.1c0,0-0.7,1.4-3.4,1.5c0.2,2.4,0.6,5,1.4,7.8c1.2,0.9,3.8,2.6,7.6,4.1
						c0.7,0.2,1.1,1,0.9,1.8c-0.2,0.8-1,1.1-1.8,0.9c-4.6-1.7-7.6-3.9-8.7-4.7c-5,0.8-7.6,1.5-7.6,1.5c-0.2,0-0.2,0.1-0.4,0.1h-2.9
						L208.1,142.9L208.1,142.9z M229.9,109c2.5-9.1,8.7-13.6,12.2-15.5c0.1,0,0.1-0.1,0.2-0.1c0.2-0.1,0.4-0.2,0.6-0.3
						c1.5-0.7,0.9,0.6,0.5,1.4l0,0c-1.8,3.4-3.2,7-4,11.1C236.5,105.9,233.1,107,229.9,109L229.9,109z"/>
					<circle class="st2" cx="262.7" cy="136.1" r="1.6"/>
				</g>
				<g>
					<path class="st2" d="M328.5,390c0,0.2,0.1,0.4,0.2,0.6l2.7,9.6h-11.5l1.2-10.2H328.5L328.5,390z"/>
					<path class="st2" d="M363,320l2.8-0.9c0.7-0.2,1.1-1,0.9-1.7s-1-1.1-1.7-0.9l-2.8,0.9c-0.7,0.2-1.1,1-0.9,1.7
						C361.5,319.8,362.3,320.2,363,320z"/>
					<path class="st2" d="M379.5,288l2.8-0.9c0.7-0.2,1.1-1,0.9-1.7c-0.2-0.8-1-1.1-1.7-0.9l-2.8,0.9c-0.7,0.2-1.1,1-0.9,1.7
						C378.1,287.8,378.7,288.2,379.5,288z"/>
					<path class="st2" d="M368,323.6l1.4-0.4c0.7-0.2,1.1-1,0.9-1.7s-1-1.1-1.7-0.9l-1.4,0.4c-0.7,0.2-1.1,1-0.9,1.7
						C366.5,323.4,367.3,323.8,368,323.6z"/>
					<path class="st2" d="M371,312.4l1.4-0.4c0.7-0.2,1.1-1,0.9-1.7c-0.2-0.8-1-1.1-1.7-0.9l-1.4,0.4c-0.7,0.2-1.1,1-0.9,1.7
						S370.3,312.6,371,312.4z"/>
					<path class="st2" d="M371,286l1.4-0.4c0.7-0.2,1.1-1,0.9-1.7s-1-1.1-1.7-0.9l-1.4,0.4c-0.7,0.2-1.1,1-0.9,1.7
						C369.5,285.9,370.3,286.2,371,286z"/>
					<path class="st2" d="M378,328.5l1.5-1.6c0.6-0.6,1.4-0.6,1.9-0.1c0.6,0.6,0.6,1.4,0.1,1.9c0,0-14.4,15.4-20.4,22
						c-1.4,1.4-1.8,3.5-1.4,5.4c2,8.4,6.8,28,7.8,32.1c0.1,0.4,0.2,0.8,0.5,1.1c1.4,2.4,6,10,6,10c0.2,0.4,0.2,1,0,1.4
						c-0.2,0.5-0.7,0.7-1.2,0.7h-11.1c-0.6,0-1.2-0.5-1.4-1.1c0,0-8.7-36.8-11.2-47.7c-0.6-2.2-0.2-4.6,1.1-6.7
						c2.8-4.5,8.3-13.3,8.3-13.3c0.4-0.6,1.3-0.9,1.8-0.5c0.3,0.2,0.5,0.5,0.6,0.8L378,328.5L378,328.5z"/>
					<path class="st2" d="M344.1,322.3c0.7-0.7,1.1-1.5,1.1-2.6v-13.5c-1.2,1-2.8,1.8-5,1.6c-6.8-0.5-6.7-7-6.7-7.8
						c0-10,7.3-19,16.8-20.7c0,0,39.7-7.4,46.8-8.8c0.8-0.2,1.6-0.2,2.4-0.2h13v2.7c-0.9,0-1.7,0.4-2.5,1.1c-1,0.8-1.8,2-2.6,3.5
						c-2.6,4.8-4.2,12.6-4.2,21.5c0,8.8,1.6,16.7,4.2,21.5c0.8,1.4,1.6,2.6,2.6,3.5c0.8,0.7,1.6,1.1,2.5,1.1c0.8,0,1.4,0.6,1.4,1.4
						s-0.6,1.4-1.4,1.4h-28.6c-1.4,0-2.8,0.2-4.1,0.6c-9.1,2.9-42.9,13.7-42.9,13.7c-0.4,0.2-0.7,0.3-1,0.6
						c-0.9,0.6-1.4,1.5-1.5,2.6c-1.4,14.3-3,28.6-4.4,42.9c-0.1,0.6,0,1.2,0.2,1.7l2.7,9.6c0.1,0.4,0,0.9-0.2,1.2
						c-0.2,0.3-0.7,0.6-1.1,0.6H320c-0.4,0-0.8-0.2-1-0.5s-0.4-0.7-0.3-1.1c0,0,5.8-51.8,7.1-64.1c0.2-2.1,1.4-3.9,3.3-4.9l7.9-4.4
						L344.1,322.3z M338.1,329l-8,4.4c-1,0.6-1.8,1.6-1.8,2.8l-7,62.6h8.2l-2.2-7.9c-0.2-0.9-0.3-1.8-0.2-2.7
						c1.4-14.3,3-28.6,4.4-42.9c0.2-1.8,1.2-3.5,2.6-4.6c0.6-0.4,1.2-0.7,1.8-0.9l0,0c0,0,33.9-10.8,42.9-13.7
						c1.6-0.6,3.3-0.8,5-0.8h23.5c-0.8-0.9-1.5-1.9-2.2-3.3c-2.7-5.1-4.6-13.5-4.6-22.8s1.8-17.6,4.6-22.8c0.7-1.4,1.4-2.4,2.2-3.3
						h-7.7c-0.6,0-1.3,0.1-1.8,0.2c-7,1.4-46.8,8.8-46.8,8.8c-8.3,1.5-14.7,9.4-14.7,18.1v0.1c0,0-0.4,4.6,4.1,4.9
						c3.7,0.2,4.6-3.3,4.8-4v-6.8c0-0.8,0.6-1.4,1.4-1.4s1.4,0.6,1.4,1.4v25.3c0,0.2,0,0.2,0,0.4l3.2-1.8c0.6-0.4,1.4-0.2,1.8,0.6
						c0.4,0.6,0.2,1.4-0.6,1.8l-6.8,3.9c-0.3,0.2-0.6,0.5-1,0.7L338.1,329L338.1,329z"/>
				</g>
				<g>
					<path class="st2" d="M487.8,318.9c-0.2,0.2-0.5,0.4-0.8,0.4c-0.5-0.1-1.3-0.2-1.8-0.2c-0.4-0.1-0.7-0.5-0.7-0.9
						c0.1-0.8,0.2-1.8,0.3-2.8c0-0.2,0.2-0.5,0.4-0.6c0.2-0.2,0.6-0.1,0.8,0c0.8,0.5,1.8,1,2.5,1.4c0.2,0.1,0.3,0.3,0.4,0.5
						s0,0.4-0.1,0.6C488.4,317.9,488,318.5,487.8,318.9L487.8,318.9z"/>
					<path class="st2" d="M433.8,255.8c-0.3-0.2-0.5-0.5-0.4-0.8c0-0.2,0-0.6,0.1-0.8c0-0.4,0.4-0.8,0.8-0.7c0.3,0,0.8,0,1.1,0.1
						c0.2,0,0.5,0.2,0.6,0.4c0.2,0.2,0.2,0.5,0,0.8c-0.2,0.4-0.4,0.7-0.6,1.1c-0.1,0.2-0.2,0.3-0.5,0.4s-0.4,0.1-0.6-0.1
						C434.2,256,434,255.8,433.8,255.8z"/>
					<path class="st2" d="M475.6,391.3c-0.2-0.2-0.4-0.5-0.3-0.8c0.1-0.4,0.2-1,0.3-1.4c0.1-0.4,0.5-0.7,1-0.6
						c0.6,0.2,1.4,0.3,2.2,0.5c0.2,0.1,0.5,0.2,0.6,0.5s0.1,0.6-0.1,0.7c-0.4,0.6-1,1.4-1.4,1.9c-0.2,0.2-0.3,0.3-0.6,0.3
						c-0.2,0-0.4,0-0.6-0.2C476.3,391.9,475.9,391.6,475.6,391.3L475.6,391.3z"/>
					<path class="st2" d="M507,289.8c-0.2-0.2-0.2-0.6-0.2-0.9c0.2-0.2,0.3-0.6,0.4-1c0.2-0.4,0.6-0.6,1-0.4s1,0.4,1.4,0.6
						c0.2,0.1,0.4,0.3,0.5,0.6c0.1,0.2,0,0.6-0.2,0.7c-0.4,0.4-0.8,0.8-1.1,1.1c-0.2,0.2-0.4,0.2-0.6,0.2s-0.4-0.1-0.6-0.2
						C507.5,290.3,507.3,290,507,289.8z"/>
					<path class="st2" d="M491.7,310.1c0.2,0.3,0.7,0.5,1,0.2c0.5-0.2,1-0.6,1.5-0.9c0.2-0.1,0.3-0.3,0.4-0.6c0-0.2,0-0.5-0.2-0.6
						c-0.3-0.4-0.8-0.9-1.1-1.2c-0.2-0.3-0.7-0.3-1-0.1c-0.4,0.3-0.9,0.7-1.2,1c-0.3,0.2-0.4,0.7-0.2,1
						C491.2,309.4,491.4,309.8,491.7,310.1L491.7,310.1z"/>
					<path class="st2" d="M438.7,246.5c-0.3,0.2-0.4,0.7-0.2,1c0.3,0.4,0.7,1,1,1.4c0.2,0.2,0.3,0.3,0.6,0.3c0.2,0,0.5-0.1,0.6-0.2
						c0.4-0.4,0.8-0.8,1.1-1.1c0.3-0.3,0.3-0.8,0-1.1s-0.8-0.8-1.1-1.2c-0.2-0.3-0.7-0.3-1-0.1C439.4,245.9,439,246.2,438.7,246.5
						L438.7,246.5z"/>
					<path class="st2" d="M505.3,280.4c0.1,0.1,0.1,0.2,0.1,0.4c0,0.2-0.2,0.2-0.2,0.2c-0.7,0.3-2.1,0.8-3,1.1
						c-0.2,0.1-0.3,0-0.4-0.1s-0.2-0.2-0.2-0.4c0.3-1,0.8-2.9,1.1-4c0.1-0.2,0.2-0.2,0.3-0.3c0.2,0,0.3,0.1,0.4,0.2
						C504,278.3,504.9,279.7,505.3,280.4L505.3,280.4z"/>
					<path class="st2" d="M433.8,226.6c0-0.2,0.2-0.2,0.2-0.2c0.1-0.1,0.2-0.1,0.4,0c0.7,0.4,2,1.1,2.8,1.4c0.2,0.1,0.2,0.2,0.2,0.4
						s-0.1,0.3-0.2,0.4c-1,0.5-2.7,1.4-3.8,1.8c-0.2,0.1-0.3,0.1-0.5-0.1c-0.2-0.1-0.2-0.2-0.2-0.4
						C433.1,229,433.5,227.4,433.8,226.6L433.8,226.6z"/>
					<path class="st2" d="M495.4,336.9c0.2,0,0.2,0,0.4,0.1c0.1,0.1,0.2,0.2,0.2,0.3c0,0.6,0.1,1.5,0.2,2.2c0,0.2-0.1,0.3-0.2,0.4
						c-0.2,0.1-0.3,0.1-0.5,0c-0.7-0.5-1.7-1.1-2.4-1.5c-0.2-0.1-0.2-0.2-0.2-0.4c0-0.2,0.2-0.3,0.3-0.3
						C493.9,337.4,494.9,337,495.4,336.9z"/>
				</g>
				<g>
					<path class="st2" d="M416.6,402.1c2.3-3.1,3.9-7.9,3.9-13.4c0-5.4-1.4-10.2-3.9-13.4c-2.3-3.1-3.9-7.9-3.9-13.4
						s1.4-10.2,3.9-13.4c2.3-3.1,3.9-7.9,3.9-13.4c0-5.4-1.4-10.2-3.9-13.4c-2.3-3.1-3.9-7.9-3.9-13.4s1.4-10.2,3.9-13.4
						c2.3-3.1,3.9-7.9,3.9-13.4s-1.4-10.2-3.9-13.4c-2.3-3.1-3.9-7.9-3.9-13.4c0-5.4,1.4-10.2,3.9-13.4c2.3-3.1,3.9-7.9,3.9-13.4
						s-1.4-10.2-3.9-13.4c-2.3-3.1-3.9-7.9-3.9-13.4c0-5.4,1.4-10.2,3.9-13.4c2.3-3.1,3.9-7.9,3.9-13.4c0-9.5-3-13-13-13
						c-10.1,0-13,3-13,13c0,5.4-1.4,10.2-3.9,13.4c-2.3,3.1-3.9,7.9-3.9,13.4c0,5.4,1.4,10.2,3.9,13.4c2.3,3.1,3.9,7.9,3.9,13.4
						s-1.4,10.2-3.9,13.4c-2.3,3.1-3.9,7.9-3.9,13.4c0,5.4,1.4,10.2,3.9,13.4c2.3,3.1,3.9,7.9,3.9,13.4s-1.4,10.2-3.9,13.4
						c-2.3,3.1-3.9,7.9-3.9,13.4c0,5.4,1.4,10.2,3.9,13.4c2.3,3.1,3.9,7.9,3.9,13.4s-1.4,10.2-3.9,13.4c-2.3,3.1-3.9,7.9-3.9,13.4
						c0,5.4,1.4,10.2,3.9,13.4c2.3,3.1,3.9,7.9,3.9,13.4c0,5.4-1.4,10.2-3.9,13.4H416.6L416.6,402.1z"/>
					<path class="st0" d="M416.1,267.7c0.2,0.2,0.2,0.4,0.4,0.6c0.5,0.6,1,1.4,1.4,2.2h-1.4c-2.5,0-4.8,2.1-6.7,5.6
						c-2.8,5.2-4.6,13.7-4.6,23.1s1.8,17.9,4.6,23.1c1.8,3.5,4.2,5.6,6.7,5.6h2.9c0.2,0.9,0.5,1.8,0.6,2.7h-3.5
						c-3.3,0-6.7-2.4-9.1-7c-3-5.5-4.9-14.5-4.9-24.5s1.9-19,4.9-24.5C409.7,270.2,413,267.8,416.1,267.7L416.1,267.7z"/>
					<path class="st0" d="M404.4,327.4c-3-5-5.2-12.6-6-21.4c-0.1-0.8-0.7-1.4-1.4-1.3c-0.8,0.1-1.4,0.7-1.3,1.4
						c0.8,9.3,3.2,17.2,6.4,22.6c0.4,0.6,1.3,0.9,1.8,0.5C404.5,329,404.8,328.1,404.4,327.4L404.4,327.4z"/>
					<path class="st0" d="M398,299.2c0-1.9,0.1-3.9,0.2-5.6c0.1-0.8-0.6-1.4-1.3-1.4c-0.8-0.1-1.4,0.6-1.4,1.3
						c-0.2,1.8-0.2,3.9-0.2,5.8c0,0.8,0.6,1.4,1.4,1.4C397.5,300.6,398,300,398,299.2L398,299.2z"/>
					<path class="st0" d="M402.5,274.7c0.6-1.4,1.2-2.6,1.8-3.7c1.4-2.2,2.9-4.1,4.6-5.2c0.6-0.5,0.8-1.4,0.3-1.9s-1.4-0.8-1.9-0.3
						c-1.9,1.4-3.8,3.4-5.4,6.1c-0.7,1.2-1.4,2.6-2,4c-0.3,0.7,0,1.4,0.7,1.8C401.4,275.7,402.2,275.4,402.5,274.7L402.5,274.7z"/>
					<path class="st0" d="M408.9,336c0,0,3.1,1.9,6.9,1.1c0.8-0.2,1.3-0.9,1.1-1.6c-0.2-0.8-0.9-1.3-1.6-1.1
						c-2.7,0.6-4.9-0.8-4.9-0.8c-0.6-0.4-1.4-0.2-1.8,0.5C408.1,334.8,408.4,335.6,408.9,336L408.9,336z"/>
					<path class="st0" d="M400.9,168.3v-1c0-0.8,0.6-1.4,1.4-1.4s1.4,0.6,1.4,1.4v1h1c0.8,0,1.4,0.6,1.4,1.4c0,0.8-0.6,1.4-1.4,1.4
						h-1v1c0,0.8-0.6,1.4-1.4,1.4s-1.4-0.6-1.4-1.4v-1h-1c-0.8,0-1.4-0.6-1.4-1.4c0-0.8,0.6-1.4,1.4-1.4H400.9L400.9,168.3z"/>
					<path class="st0" d="M403.3,225.9v-1c0-0.8,0.6-1.4,1.4-1.4s1.4,0.6,1.4,1.4v1h1c0.8,0,1.4,0.6,1.4,1.4c0,0.8-0.6,1.4-1.4,1.4
						h-1v1c0,0.8-0.6,1.4-1.4,1.4s-1.4-0.6-1.4-1.4v-1h-1c-0.8,0-1.4-0.6-1.4-1.4s0.6-1.4,1.4-1.4H403.3L403.3,225.9z"/>
					<path class="st0" d="M394.5,256.3v-1c0-0.8,0.6-1.4,1.4-1.4s1.4,0.6,1.4,1.4v1h1c0.8,0,1.4,0.6,1.4,1.4s-0.6,1.4-1.4,1.4h-1v1
						c0,0.8-0.6,1.4-1.4,1.4s-1.4-0.6-1.4-1.4v-1h-1c-0.8,0-1.4-0.6-1.4-1.4s0.6-1.4,1.4-1.4H394.5L394.5,256.3z"/>
					<path class="st0" d="M395.1,355v-1c0-0.8,0.6-1.4,1.4-1.4s1.4,0.6,1.4,1.4v1h1c0.8,0,1.4,0.6,1.4,1.4s-0.6,1.4-1.4,1.4h-1v1
						c0,0.8-0.6,1.4-1.4,1.4s-1.4-0.6-1.4-1.4v-1h-1c-0.8,0-1.4-0.6-1.4-1.4s0.6-1.4,1.4-1.4H395.1z"/>
					<path class="st0" d="M410.6,394.3v-1c0-0.8,0.6-1.4,1.4-1.4s1.4,0.6,1.4,1.4v1h1c0.8,0,1.4,0.6,1.4,1.4s-0.6,1.4-1.4,1.4h-1v1
						c0,0.8-0.6,1.4-1.4,1.4s-1.4-0.6-1.4-1.4v-1h-1c-0.8,0-1.4-0.6-1.4-1.4s0.6-1.4,1.4-1.4H410.6z"/>
					<path class="st0" d="M404.9,177.9v-0.2c0-0.8,0.6-1.4,1.4-1.4s1.4,0.6,1.4,1.4v0.2h0.2c0.8,0,1.4,0.6,1.4,1.4
						c0,0.8-0.6,1.4-1.4,1.4h-0.2v0.2c0,0.8-0.6,1.4-1.4,1.4s-1.4-0.6-1.4-1.4v-0.2h-0.2c-0.8,0-1.4-0.6-1.4-1.4
						c0-0.8,0.6-1.4,1.4-1.4H404.9z"/>
					<path class="st0" d="M395.6,210.9v-0.2c0-0.8,0.6-1.4,1.4-1.4s1.4,0.6,1.4,1.4v0.2h0.2c0.8,0,1.4,0.6,1.4,1.4
						c0,0.8-0.6,1.4-1.4,1.4h-0.2v0.2c0,0.8-0.6,1.4-1.4,1.4s-1.4-0.6-1.4-1.4v-0.2h-0.2c-0.8,0-1.4-0.6-1.4-1.4
						c0-0.8,0.6-1.4,1.4-1.4H395.6z"/>
					<path class="st0" d="M407.8,240v-0.2c0-0.8,0.6-1.4,1.4-1.4s1.4,0.6,1.4,1.4v0.2h0.2c0.8,0,1.4,0.6,1.4,1.4s-0.6,1.4-1.4,1.4
						h-0.2v0.2c0,0.8-0.6,1.4-1.4,1.4s-1.4-0.6-1.4-1.4v-0.3h-0.1c-0.8,0-1.4-0.6-1.4-1.4C406.2,240.4,406.9,240,407.8,240
						L407.8,240z"/>
					<path class="st0" d="M406.9,344.5v-0.2c0-0.8,0.6-1.4,1.4-1.4s1.4,0.6,1.4,1.4v0.2h0.2c0.8,0,1.4,0.6,1.4,1.4s-0.6,1.4-1.4,1.4
						h-0.2v0.2c0,0.8-0.6,1.4-1.4,1.4s-1.4-0.6-1.4-1.4v-0.2h-0.2c-0.8,0-1.4-0.6-1.4-1.4s0.6-1.4,1.4-1.4H406.9z"/>
					<path class="st0" d="M402.2,381.4v-0.2c0-0.8,0.6-1.4,1.4-1.4s1.4,0.6,1.4,1.4v0.2h0.2c0.8,0,1.4,0.6,1.4,1.4s-0.6,1.4-1.4,1.4
						H405v0.2c0,0.8-0.6,1.4-1.4,1.4s-1.4-0.6-1.4-1.4v-0.2H402c-0.8,0-1.4-0.6-1.4-1.4s0.6-1.4,1.4-1.4H402.2z"/>
					<path class="st0" d="M402.4,201.6v-0.2c0-0.8,0.6-1.4,1.4-1.4s1.4,0.6,1.4,1.4v0.2h0.2c0.8,0,1.4,0.6,1.4,1.4
						c0,0.8-0.6,1.4-1.4,1.4h-0.2v0.2c0,0.8-0.6,1.4-1.4,1.4s-1.4-0.6-1.4-1.4v-0.2h-0.2c-0.8,0-1.4-0.6-1.4-1.4
						c0-0.8,0.6-1.4,1.4-1.4H402.4z"/>
				</g>
				<g>
					<path class="st2" d="M491,294v2.4c0,3.2-2.6,5.8-5.8,5.8c-1.8,0-3.4,1.4-3.6,3.2v0.6c-0.2,3.4-3,5.9-6.5,5.9h-3
						c-1.4,2.6-2.4,4.2-2.6,4.6c-0.6,1.3-1.4,2.2-2.6,2.8l-4.1,2l-11.7,5.7c-0.3,0.2-0.6,0.4-0.7,0.8l-1.8,5l0,0l-0.8,2.2l0,0
						l-3.4,9.3c-0.1,0.2-0.1,0.3-0.1,0.4l-3.1,8.9c-0.2,0.6-0.3,1.2-0.3,1.8c0,0,0.2,9.5,0.2,14.7c0,0.6-0.3,1-0.8,1.2
						s-1,0.1-1.4-0.2c-1-1-1.8-1.8-1.8-1.8c-0.6-0.6-1.4-0.6-1.9,0c-0.6,0.6-0.6,1.4,0,1.9c0,0,4.3,4.3,5.7,5.7
						c0.2,0.2,0.4,0.6,0.4,0.9c0,0.4,0,1,0,1.6s-0.3,1-0.8,1.2s-1,0.1-1.4-0.3c-1-1-1.9-1.9-1.9-1.9c-0.6-0.6-1.4-0.6-1.9,0
						c-0.6,0.6-0.6,1.4,0,1.9c0,0,4.5,4.5,5.8,5.8c0.2,0.2,0.4,0.6,0.4,0.9c0,0.4,0,0.9,0,0.9c0,0.6,0.1,1.1,0.3,1.6l3.5,10.2
						c0.2,0.4,0.1,0.9-0.2,1.3c-0.3,0.4-0.7,0.6-1.1,0.6h-11.5c-0.8,0-8.2-5.2-8.2-6c0,0-0.2,1.1-0.2-4.4l0,0v-34.4
						c-0.9-0.5-1.4-1.4-1.4-2.4v-26.3h-6.2c-2.8,0-5.4-2.1-7.5-6c-2.7-5.1-4.6-13.5-4.6-22.8s1.8-17.6,4.6-22.8c2.1-3.9,4.7-6,7.5-6
						h23.6c2.5,0,4.9-0.9,6.8-2.5c4.2-3.7,11.4-9.8,14.7-12.6c1.1-1,1.9-2,2.6-3.4l4.5-9.3c0.1-0.2,0.1-0.2,0.2-0.4l2.3-4.9
						c-0.8-0.1-0.6-0.2,0.2-0.5c-6.4-0.2-11.1-0.3-11.1-0.3c-1.3,0-2.3-0.5-3.2-1.4l-14.9-17.1c-0.6-0.6-1-1.5-1-2.4l1.2-23.3
						c0-1.4,1.1-2.4,2.4-2.4c1.4,0,2.4,1.1,2.4,2.4l1.1,21.8c0,0,10.9,10.7,13.3,13c0.3,0.3,0.7,0.5,1.1,0.5l0,0
						c1.1,0,2-0.7,2.5-1.6c0.5-1,0.3-2.1-0.4-3c-1.9-2.3-4-4.7-4-4.7c-0.6-0.6-0.9-1.4-0.9-2.1l1-12.6c0-1.2,1-2,2-2c1.2,0,2,1,2,2
						l0.9,11.3l6.8,6.5c2.2-0.1,7-0.3,11.8-0.3s9.5,0.2,11.8,0.4l6.8-6.5l0.9-11.3c0-1.2,1-2,2-2s2,1,2,2l1,12.6
						c0,0.8-0.3,1.4-0.8,2c0,0-1.9,2.3-3.9,4.6c-0.7,0.9-0.9,2-0.4,3s1.4,1.7,2.6,1.7l0,0c0.4,0,0.9-0.2,1.1-0.5
						c2.4-2.4,13.1-13,13.1-13l1-21.9c0-1.4,1.1-2.4,2.4-2.4s2.4,1.1,2.4,2.4l1.1,23.3c0,0.9-0.3,1.7-1,2.3l-14.7,17
						c-0.8,0.9-1.9,1.4-3.2,1.4c0,0-4,0.2-9.6,0.3l19.7,13c0.9,0.6,1.4,1.4,1.5,2.4v0.2v0.1l0,0c0,0.1,0,0.2,0,0.3L518,262
						c-0.4,1.4-1.6,2.5-3.1,2.6c-4.2,0.4-11.1,1-14.4,1.3c-0.2,0-0.3,0-0.5,0.1c-0.6,0.1-1.2,0.4-1.5,0.8c-0.2,0.2-0.7,1-1.4,2.2
						v15.8C497.1,289.3,494.6,292.7,491,294L491,294z M461.5,376c1.2-5.3,5-22.8,6.6-29.6c0.2-1.2-0.2-2.3-1.3-2.9l-15.6-9.2l1.8-5
						l11.7-5.7l13,10.6c1.6,1.4,2.3,3.4,1.8,5.5c0,0-3.7,15.3-5.3,22c-0.2,0.5-0.6,0.9-1,1c-0.6,0.1-1-0.2-1.4-0.6
						c-0.8-1.3-1.4-2.5-1.4-2.5c-0.4-0.6-1.3-0.9-1.8-0.5c-0.6,0.4-0.9,1.3-0.5,1.8c0,0,3.3,5.5,4.2,7.1c0.2,0.3,0.2,0.6,0.2,1
						c-0.1,0.4-0.2,1-0.4,1.4s-0.6,0.9-1,1c-0.6,0.1-1-0.2-1.3-0.6c-0.8-1.4-1.5-2.6-1.5-2.6c-0.4-0.6-1.3-0.9-1.8-0.5
						s-0.9,1.3-0.5,1.8c0,0,3.4,5.7,4.3,7.3c0.2,0.3,0.2,0.6,0.2,1s-0.2,0.7-0.2,0.9c0,0.1,0,0.2,0,0.2c0,0.2,0,0.2,0,0.4v10.9
						c0,0.5-0.2,0.9-0.6,1.1s-0.9,0.3-1.3,0.2l-9.6-3.3c-0.7-0.2-6.4-6.6-6.2-7.2c0,0,0,0,1.8-5.2c0,0,0,0,0.1-0.1l1.7-24.3
						c-0.2-0.1-0.3-0.2-0.5-0.4l-7.6-8l2.1-5.8l9.5,10c1,1.1,1,2.9-0.1,3.9c-0.2,0.2-0.5,0.4-0.7,0.5l-1.7,24.7
						c1.4,0.3,3,0.7,3.7,0.7c0.2-0.1,0.2-0.1,0.3-0.2c0.1-0.3,0.2-0.6,0.3-0.9L461.5,376L461.5,376z M428.5,322.1v32.2
						c0,1-0.6,1.9-1.4,2.4v33.9c1.8-0.2,4.1-0.4,4.1-0.6v-68c0-0.8-0.6-1.4-1.4-1.4C429.1,320.8,428.5,321.3,428.5,322.1
						L428.5,322.1z M488.3,294.4c-0.1,0-0.2,0-0.3,0h-5.7c-3.1,5.4-6.2,10.6-8.5,14.7h1.4c1.8,0,3.5-1.4,3.7-3.1v-0.8
						c0.2-3.3,3-5.9,6.3-5.9c1.6,0,3-1.4,3-3L488.3,294.4L488.3,294.4z M488.3,291.7v-7.4c-1.4,2.4-2.9,4.9-4.3,7.4h4.1
						C488,291.7,488.2,291.7,488.3,291.7L488.3,291.7z M494.4,274.1c-1,1.6-2.1,3.5-3.3,5.5V291c1.9-1.1,3.3-3.2,3.3-5.5V274.1z"/>
					<g>
						<path class="st0" d="M448.4,210.6h-6.6l0.2-2.7h6.3L448.4,210.6L448.4,210.6z M448.1,204.4h-5.9l0.2-2.7h5.7L448.1,204.4
							L448.1,204.4z"/>
						<path class="st0" d="M527.6,210.6h-6.5l0.2-2.7h6.3V210.6z M527.3,204.4h-5.9l0.2-2.7h5.6L527.3,204.4L527.3,204.4z"/>
						<path class="st0" d="M512.7,258.1c0,0,0.2,0.2,0.8,0.6c0.2,0.1,0.3,0.2,0.6,0.2s0.4-0.1,0.6-0.2c0.6-0.2,0.8-0.6,0.8-0.6
							c0.4,0,0.7-0.3,0.7-0.7s-0.3-0.7-0.7-0.7c0,0-0.2-0.2-0.8-0.6c-0.2-0.1-0.3-0.2-0.6-0.2s-0.4,0.1-0.6,0.2
							c-0.6,0.3-0.8,0.6-0.8,0.6c-0.4,0-0.7,0.3-0.7,0.7C512,257.8,512.3,258.1,512.7,258.1z"/>
						<path class="st0" d="M506.9,258.1c0,0,0.2,0.2,0.8,0.6c0.2,0.1,0.3,0.2,0.6,0.2s0.4-0.1,0.6-0.2c0.6-0.2,0.8-0.6,0.8-0.6
							c0.4,0,0.7-0.3,0.7-0.7s-0.3-0.7-0.7-0.7c0,0-0.2-0.2-0.8-0.6c-0.2-0.1-0.3-0.2-0.6-0.2s-0.4,0.1-0.6,0.2
							c-0.6,0.3-0.8,0.6-0.8,0.6c-0.4,0-0.7,0.3-0.7,0.7C506.1,257.8,506.5,258.1,506.9,258.1z"/>
						<path class="st0" d="M501,258.1c0,0,0.2,0.2,0.8,0.6c0.2,0.1,0.3,0.2,0.6,0.2s0.4-0.1,0.6-0.2c0.6-0.2,0.8-0.6,0.8-0.6
							c0.4,0,0.7-0.3,0.7-0.7s-0.3-0.7-0.7-0.7c0,0-0.2-0.2-0.8-0.6c-0.2-0.1-0.3-0.2-0.6-0.2s-0.4,0.1-0.6,0.2
							c-0.6,0.3-0.8,0.6-0.8,0.6c-0.4,0-0.7,0.3-0.7,0.7C500.4,257.8,500.6,258.1,501,258.1z"/>
						<path class="st0" d="M509.8,254.4c0,0,0.2,0.2,0.8,0.6c0.2,0.1,0.3,0.2,0.6,0.2s0.4-0.1,0.6-0.2c0.6-0.2,0.8-0.6,0.8-0.6
							c0.4,0,0.7-0.3,0.7-0.7s-0.3-0.7-0.7-0.7c0,0-0.2-0.2-0.8-0.6c-0.2-0.1-0.3-0.2-0.6-0.2s-0.4,0.1-0.6,0.2
							c-0.6,0.3-0.8,0.6-0.8,0.6c-0.4,0-0.7,0.3-0.7,0.7C509.1,254.1,509.4,254.4,509.8,254.4z"/>
						<path class="st0" d="M504,254.4c0,0,0.2,0.2,0.8,0.6c0.2,0.1,0.3,0.2,0.6,0.2s0.4-0.1,0.6-0.2c0.6-0.2,0.8-0.6,0.8-0.6
							c0.4,0,0.7-0.3,0.7-0.7s-0.3-0.7-0.7-0.7c0,0-0.2-0.2-0.8-0.6c-0.2-0.1-0.3-0.2-0.6-0.2s-0.4,0.1-0.6,0.2
							c-0.6,0.3-0.8,0.6-0.8,0.6c-0.4,0-0.7,0.3-0.7,0.7C503.3,254.1,503.6,254.4,504,254.4z"/>
						<path class="st0" d="M509.8,261.6c0,0,0.2,0.2,0.8,0.6c0.2,0.1,0.3,0.2,0.6,0.2s0.4-0.1,0.6-0.2c0.6-0.2,0.8-0.6,0.8-0.6
							c0.4,0,0.7-0.3,0.7-0.7c0-0.4-0.3-0.7-0.7-0.7c0,0-0.2-0.2-0.8-0.6c-0.2-0.1-0.3-0.2-0.6-0.2s-0.4,0.1-0.6,0.2
							c-0.6,0.3-0.8,0.6-0.8,0.6c-0.4,0-0.7,0.3-0.7,0.7C509.1,261.4,509.4,261.6,509.8,261.6z"/>
						<path class="st0" d="M504,261.6c0,0,0.2,0.2,0.8,0.6c0.2,0.1,0.3,0.2,0.6,0.2s0.4-0.1,0.6-0.2c0.6-0.2,0.8-0.6,0.8-0.6
							c0.4,0,0.7-0.3,0.7-0.7c0-0.4-0.3-0.7-0.7-0.7c0,0-0.2-0.2-0.8-0.6c-0.2-0.1-0.3-0.2-0.6-0.2s-0.4,0.1-0.6,0.2
							c-0.6,0.3-0.8,0.6-0.8,0.6c-0.4,0-0.7,0.3-0.7,0.7C503.3,261.4,503.6,261.6,504,261.6z"/>
						<circle class="st0" cx="501.1" cy="231.7" r="1.9"/>
						<circle class="st0" cx="496.1" cy="226.7" r="1.9"/>
						<circle class="st0" cx="426.7" cy="286" r="2.6"/>
						<circle class="st0" cx="416.9" cy="286" r="2.6"/>
						<path class="st0" d="M447.7,267.4l18.6,18.6c0.6,0.6,0.6,1.4,0,1.9l-5.8,5.8c-0.6,0.6-1.4,0.6-1.9,0l-4.8-4.8l-4.5,4.5
							c-0.2,0.2-0.6,0.4-1,0.4h-25.6l18.1,18.1h20.6c0-0.1,0-0.1,0-0.2c0-6.2,5-11.2,11.2-11.2c1.9,0,3.9,0.6,5.4,1.4
							c-0.5,0.8-1,1.6-1.4,2.4c-1.2-0.6-2.6-1-4.1-1c-4.6,0-8.4,3.9-8.4,8.4c0,3,1.5,5.5,3.9,7c-0.3,0.2-0.6,0.4-0.9,0.6l-1.8,0.9
							c-1.7-1.4-3-3.4-3.5-5.6h-21.5c-0.4,0-0.7-0.2-1-0.4L419,294h-13.7c-0.1,0-0.1,0-0.2,0c0.1-1,0.2-1.8,0.2-2.7h42.4l9.8-9.8
							l-12.2-12.2c0.6-0.3,1.1-0.7,1.5-1.1L447.7,267.4L447.7,267.4z M459.6,283.2l-3.9,3.9l3.9,3.9l3.9-3.9L459.6,283.2z
							 M475.6,270.2l2.3-2.3c0.6-0.6,0.6-1.4,0-1.9c-0.6-0.6-1.4-0.6-1.9,0l-2.3,2.3c-0.6,0.6-0.6,1.4,0,1.9
							C474.2,270.7,475.1,270.7,475.6,270.2z M463.7,270.2l2.3-2.3c0.6-0.6,0.6-1.4,0-1.9c-0.6-0.6-1.4-0.6-1.9,0l-2.3,2.3
							c-0.6,0.6-0.6,1.4,0,1.9C462.4,270.7,463.2,270.7,463.7,270.2z M469.7,270.2l2.3-2.3c0.6-0.6,0.6-1.4,0-1.9
							c-0.6-0.6-1.4-0.6-1.9,0l-2.3,2.3c-0.6,0.6-0.6,1.4,0,1.9C468.3,270.7,469.1,270.7,469.7,270.2z M504.8,236.8
							c-1.4,0.1-3.4,0.1-5.4,0.2l4,2.6H487c-0.9,0-1.4,0.7-1.4,1.4v2.1c0,0.9,0.7,1.4,1.4,1.4h24.1l4.2,2.7H487
							c-0.7,0-1.4-0.2-1.8-0.5l0,0l-12.9,12.9c-0.2,0.2-0.6,0.4-1,0.4h-15l3.2-2.7h11.3l12.5-12.5l0,0c-0.3-0.6-0.5-1.2-0.5-1.8
							v-2.1c0-2.3,1.9-4.2,4.2-4.2L504.8,236.8L504.8,236.8z M470,237h4.2c0.8,0,1.4,0.6,1.4,1.4s-0.6,1.4-1.4,1.4h-4.1l1.1-2.2
							c-0.8-0.1-0.6-0.2,0.2-0.5C471,237,470.6,237,470,237L470,237z M481.2,221.2l-3.9,3.9h6.8l3.9-3.9c1.4,0,2.6,0.1,3.9,0.1
							l-6.1,6.1c-0.2,0.2-0.6,0.4-1,0.4h-10.2l-9.1,9.1c-1.6-0.1-3-0.1-3.9-0.1l11.1-11.1c0.1-0.2,0.2-0.2,0.3-0.3l4.1-4.1
							C478.4,221.2,479.8,221.2,481.2,221.2L481.2,221.2z"/>
						<g>
							<g>
								<path class="st0" d="M431.2,331.9v-9.7c0-0.8-0.6-1.4-1.4-1.4s-1.4,0.6-1.4,1.4v9.7c0,0.8,0.6,1.4,1.4,1.4
									S431.2,332.6,431.2,331.9z"/>
								<path class="st0" d="M512.7,258.1c0,0,0.2,0.2,0.8,0.6c0.2,0.1,0.3,0.2,0.6,0.2s0.4-0.1,0.6-0.2c0.6-0.2,0.8-0.6,0.8-0.6
									c0.4,0,0.7-0.3,0.7-0.7s-0.3-0.7-0.7-0.7c0,0-0.2-0.2-0.8-0.6c-0.2-0.1-0.3-0.2-0.6-0.2s-0.4,0.1-0.6,0.2
									c-0.6,0.3-0.8,0.6-0.8,0.6c-0.4,0-0.7,0.3-0.7,0.7C512,257.8,512.3,258.1,512.7,258.1z"/>
								<path class="st0" d="M506.9,258.1c0,0,0.2,0.2,0.8,0.6c0.2,0.1,0.3,0.2,0.6,0.2s0.4-0.1,0.6-0.2c0.6-0.2,0.8-0.6,0.8-0.6
									c0.4,0,0.7-0.3,0.7-0.7s-0.3-0.7-0.7-0.7c0,0-0.2-0.2-0.8-0.6c-0.2-0.1-0.3-0.2-0.6-0.2s-0.4,0.1-0.6,0.2
									c-0.6,0.3-0.8,0.6-0.8,0.6c-0.4,0-0.7,0.3-0.7,0.7C506.1,257.8,506.5,258.1,506.9,258.1z"/>
								<path class="st0" d="M501,258.1c0,0,0.2,0.2,0.8,0.6c0.2,0.1,0.3,0.2,0.6,0.2s0.4-0.1,0.6-0.2c0.6-0.2,0.8-0.6,0.8-0.6
									c0.4,0,0.7-0.3,0.7-0.7s-0.3-0.7-0.7-0.7c0,0-0.2-0.2-0.8-0.6c-0.2-0.1-0.3-0.2-0.6-0.2s-0.4,0.1-0.6,0.2
									c-0.6,0.3-0.8,0.6-0.8,0.6c-0.4,0-0.7,0.3-0.7,0.7C500.4,257.8,500.6,258.1,501,258.1z"/>
								<path class="st0" d="M509.8,254.4c0,0,0.2,0.2,0.8,0.6c0.2,0.1,0.3,0.2,0.6,0.2s0.4-0.1,0.6-0.2c0.6-0.2,0.8-0.6,0.8-0.6
									c0.4,0,0.7-0.3,0.7-0.7s-0.3-0.7-0.7-0.7c0,0-0.2-0.2-0.8-0.6c-0.2-0.1-0.3-0.2-0.6-0.2s-0.4,0.1-0.6,0.2
									c-0.6,0.3-0.8,0.6-0.8,0.6c-0.4,0-0.7,0.3-0.7,0.7C509.1,254.1,509.4,254.4,509.8,254.4z"/>
								<path class="st0" d="M504,254.4c0,0,0.2,0.2,0.8,0.6c0.2,0.1,0.3,0.2,0.6,0.2s0.4-0.1,0.6-0.2c0.6-0.2,0.8-0.6,0.8-0.6
									c0.4,0,0.7-0.3,0.7-0.7s-0.3-0.7-0.7-0.7c0,0-0.2-0.2-0.8-0.6c-0.2-0.1-0.3-0.2-0.6-0.2s-0.4,0.1-0.6,0.2
									c-0.6,0.3-0.8,0.6-0.8,0.6c-0.4,0-0.7,0.3-0.7,0.7C503.3,254.1,503.6,254.4,504,254.4z"/>
								<path class="st0" d="M509.8,261.6c0,0,0.2,0.2,0.8,0.6c0.2,0.1,0.3,0.2,0.6,0.2s0.4-0.1,0.6-0.2c0.6-0.2,0.8-0.6,0.8-0.6
									c0.4,0,0.7-0.3,0.7-0.7c0-0.4-0.3-0.7-0.7-0.7c0,0-0.2-0.2-0.8-0.6c-0.2-0.1-0.3-0.2-0.6-0.2s-0.4,0.1-0.6,0.2
									c-0.6,0.3-0.8,0.6-0.8,0.6c-0.4,0-0.7,0.3-0.7,0.7C509.1,261.4,509.4,261.6,509.8,261.6z"/>
								<path class="st0" d="M504,261.6c0,0,0.2,0.2,0.8,0.6c0.2,0.1,0.3,0.2,0.6,0.2s0.4-0.1,0.6-0.2c0.6-0.2,0.8-0.6,0.8-0.6
									c0.4,0,0.7-0.3,0.7-0.7c0-0.4-0.3-0.7-0.7-0.7c0,0-0.2-0.2-0.8-0.6c-0.2-0.1-0.3-0.2-0.6-0.2s-0.4,0.1-0.6,0.2
									c-0.6,0.3-0.8,0.6-0.8,0.6c-0.4,0-0.7,0.3-0.7,0.7C503.3,261.4,503.6,261.6,504,261.6z"/>
								<circle class="st0" cx="501.1" cy="231.7" r="1.9"/>
								<circle class="st0" cx="496.1" cy="226.7" r="1.9"/>
							</g>
						</g>
						<circle class="st0" cx="431.2" cy="394.9" r="2.1"/>
						<circle class="st0" cx="459.6" cy="382.1" r="2.1"/>
					</g>
				</g>
				<line class="st6" x1="164" y1="403.3" x2="644.5" y2="403.3"/>
			</g>
			<line class="st7" x1="0" y1="404.1" x2="1317.4" y2="404.1"/>
		</g>
	</g>
</g>
</svg>
