<?xml version="1.0" encoding="utf-8"?>
<!-- Generator: Adobe Illustrator 25.0.1, SVG Export Plug-In . SVG Version: 6.00 Build 0)  -->
<svg version="1.1" id="Layer_1" xmlns="http://www.w3.org/2000/svg" xmlns:xlink="http://www.w3.org/1999/xlink" x="0px" y="0px"
	 viewBox="0 0 665 555" style="enable-background:new 0 0 665 555;" xml:space="preserve">
<style type="text/css">
	.st0{fill:none;stroke:#E86166;stroke-width:5;}
	.st1{fill:#E86166;}
	.st2{fill:#FFFFFF;}
	.st3{fill:#163847;}
	.st4{fill:#E86166;stroke:#E86166;}
	.st5{fill:none;stroke:#FFFFFF;stroke-width:2;}
</style>
<desc>Created with Lunacy</desc>
<g>
	<g id="flamenco-119" transform="translate(2.5 2.5)">
		<g id="Group_17_">
			<path id="New-shape-3" class="st0" d="M133.9,380.7l7.4-0.5l16.3,15.3c0,0,5.7,37,13.6,68.9c2.9,11.5,8.9,15,14,16.8
				c9,3.3,18.2-2.3,20.4-4.8c3.5-3.8-2.6-23.1-4-36.4s-0.4-12.8-0.4-12.8s25.3,13.8,55.6,15.6c30.3,1.8,65.7-8.4,65.7-8.4
				s-1.4,16.3-7.2,35.6c-2,6.6,2.2,11.3,5.6,12.8c4.2,1.8,13.3,2.2,18.4-1.2c7.7-5,21.4-65.7,21.4-65.7L379,398c0,0-2.7,10-6,29.2
				c-2.2,13.3-6.2,23.3-9.6,33.2c-1.5,4.4-5.6,14.1-4.4,18.4c1,3.4,10.4,4.8,10.4,4.8l7.2,0.5c3-0.4,9.8-0.6,12.8-4.1
				c3.7-4.2-1.6,7.7,16.8-40s14.4-104.5,14.4-104.5s8.4-1.8,29.2-11.6c71.2-33.5,54.4-70.8,60.5-111.3c2.5-16.7,14.1-29,34-34
				c19.9-5,45.7-5.2,53.6-9.2c21.3-10.8,23.2-37.1,9.6-51.2c-4.6-4.9-8.4-9.7-31.2-10c-14-0.2-27.5,3.7-32,5.6
				c-83.7,35.2-77.6,136.9-78.1,148.5s-5.4,22.8-19.6,32.8c-7.1,5-32,9.2-32,9.2s-2.1-17.9-13.6-28.8s-25.4-16.3-41.2-16.4
				s-11.4,1.6-40.4,6.4c-71.6,11.9-57.7-43.6-57.7-43.6l6.4-12.8l14.4-29.2c0,0,17.6-18.3,28-35.2s13.6-30.4,13.6-30.4
				s-11.7-2.2-26.4-2.4c-14.7-0.2-32.8,4.4-32.8,4.4s-15.2-19.1-35.2-26.8s-44.8-4-44.8-4s-8.1-14.5-17.6-24.4s-20.4-15.2-20.4-15.2
				s-7.2,11-10.8,29.2s-3,25.8-3.5,43.7"/>
			<path id="New-shape-2" class="st0" d="M149.7,95.7c0,0-45.2,47.3-57.3,125.7c-5,32.7-3,76.6,0.8,122.9s19.2,94.7,23.2,107.3
				c4,12.6,10.4,30.9,20,30.8s21.2,1.2,23.1-8c2-9.4-7-30.8-12.3-50.8l-10-56.4l-6.4-238.6"/>
			<g id="Group" transform="translate(0.84910583 73.246765)">
				<path id="Shape" class="st1" d="M271.2,370.3c-4.7,0.2-9,0.6-13.3,0.2c-4.7-0.5-9.9-1.1-14.4-1c-1.7,0.1-3.4-0.6-5-1.1
					c-1.5-0.5-1.4-0.9-2.9-1.1c-1.3-0.2-1.3,0.6-3.2,0.2c-1.7-0.4-3.9-2.1-5.7-2.7c-3.5-1.3-6.6-1-9.9-2.7c-7.2-3.8-13.5-5.2-20.8-9
					c-1.6-0.8-2.8-1.9-4.5-2.6c-1.9-0.7-4.6-2.2-6.3-3.4c-2.3-1.6-4.4-3.2-6.7-4.7c-1.6-1-2.9-2.6-4.5-3.5c-4.3-2.2-6.2-6.6-10.5-9
					c-0.8-0.5-2.5-0.6-3.1-1.1c-0.6-0.4,0-2.1-0.5-2.6c-0.6-0.5-2.2-0.8-3-1.4c-1-0.7-3-2.6-3.8-3.4c-1.2-1.2-2-3-3.2-4
					c-1-1-2.8-2.2-3.9-3.4c-0.8-0.8-1.3-2.6-2.1-3.7c-0.4-0.5-1.4-0.6-1.8-1.2c-1.7-1.9-2.9-3.6-4.9-5.3c-1.4-1.2-3.1-3.4-3.9-4.8
					c-0.8-1.3-2.5-2.4-3.5-3.8c-0.5-0.7-0.4-1.8-0.9-2.6c-0.2-0.1-0.4-0.2-0.6-0.2c-1.2,0-1.6-0.6-1.2-1.7c-1.5-2.2-2.5-5.8-4.5-8.1
					c-0.4-0.5-1.8-0.6-2.2-1c-1.1-1.6-0.6-2.6-1.4-4c-0.3-0.6-1.8-0.5-2.2-1c-0.6-1-0.5-3-1-4.2c-1.2-2.5-3.8-4.1-4.8-6.7
					c-0.2-0.6,0-1.5-0.2-2.2c-0.5-1.3-1.1-2.1-1.7-3.2c-3.9-8.6-7.4-16.3-10.9-25c-1.5-3.8-2.1-8.2-3.3-11.9
					c-2.1-6.6-3.1-13.3-4.2-19.9c-0.5-2.8,0-5.4-0.6-8.2c-0.4-1.9-0.9-1.6-1-4c0-0.9,0.3-2.3,0.2-3.1c-0.2-1.8-0.7-3-0.9-5
					c-0.2-2.2,0.3-4.1,0.3-6.2c0-4.3-0.1-8.3,0.3-12.3c0.3-3.4,1-6.7,1.1-10.1c0-0.7-1-1.4-1-2.2c0-2.3,1.5-3.9,2-5.9
					c0.2-0.9,0.6-3.3,0.6-4c0,0.6-0.4-4.1-0.6-3.5c-0.1,0.2,0.6-2.8,0.6-1.6c0,0.2,0.5-3,0.5-3c0.2-0.6,1.1-1.1,1.3-1.8
					c0.3-1.9-0.4-2.6-0.2-4.2c0.3-3.3,1.4-7.4,2.5-10.5c0.7-2.2,1.8-4.6,2.4-6.7c0.6-1.8,1-3.3,1.4-4.9c0.1-0.4,1-1.9,1.1-2.3
					c0.2-0.6,0.5-1.8,0.7-2.5c0.6-1.8,2-3.2,2.6-5c1.2-3.8,1.9-7,3.5-10.6c1.9-4.5,4.1-9.8,7-13.6c1.8-2.2,1.8-4.2,3-6.5
					c0.4-0.8,1.6-1,2-1.8c0.6-1.1,0.2-2.2,1-3.5c2.2-4.1,5.5-6.9,7.2-11.1c0.6-1.5,1.9-4.4,3.4-5.4c1.1-0.8,3-1.4,4.6-2
					c1-0.3,2.9-1,4-1.1c1.5-0.2,3,0.4,4.3,0.2c1.2-0.2,2.6-1,3.9-1.4c1.7-0.4,2.6-0.2,4.2-0.3c2.1-0.3,3.9-2,5.8-2.6
					c2.6-0.8,5.4-0.6,7.7-1c0.9-0.2,1.5-1,2.4-1.2c1-0.2,1.8,0.5,2.6,0.2c1.6-0.4,1.3-1,3.4-1.3c1.1-0.2,2.1,0.2,3.2,0.1
					c5.4-0.8,11.5-1.7,17.5-2.4c2.7-0.3,4.7-0.2,7.3,0.5c1.7,0.4,6.4,1.3,7.6,3.1c0.6,1,0.3,3.2,0.5,4.9c0.3,3,0.2,4.7-0.1,7.5
					c-0.2,2.4,0.6,4.9,0.3,7.6c-0.2,1.4-0.8,1.5-0.8,3c0,1.3,0.3,2.6,0.2,4c-0.1,0.9-1.1,4.2-1,5c0.3,2.1,2.4,5,3.3,6.4
					c1.1,1.8,2.8,3.9,4.1,5.9c0.3,0.6,0.1,1.7,0.5,2.2c1.2,1.6,3.2,2.6,4.4,4.4c1.3,1.8,1.7,3.4,3.5,5.1c1.3,1.1,3.2,1.7,4.2,3
					c1.5,1.9,1.6,4.2,4,6.2c0.9,0.7,1.9,1.1,2.6,1.7c1.1,0.9,1.4,1.6,2.4,2.6c3.2,3.3,6.7,7.5,10.6,10.5c2.1,1.6,4,3.1,5.8,5.1
					c0.4,0.4,1.4,1.5,1.8,1.8c0.7,0.5,2.1,1,2.8,1.5c0.8,0.7,1,1.8,1.8,2.6c0.5,0.4,1.4,0.6,1.8,1c1,0.8,0.9,2,1.7,2.7
					c0.5,0.5,1.7,0.2,2.2,0.6c3.8,3.8,0.8,6.4-1.1,10.3c-0.8,1.6-3,3.5-3.6,5.2c-0.3,0.8,0.2,2.3,0,3.3c-0.2,1.1-1,1.8-1.3,2.9
					c-1.3,4.3-1.6,9.8-0.8,14.4c0.1,0.7,1,1.2,1.2,1.8c-0.2,0.4-0.3,0.8-0.5,1.2c-0.7,0.9-0.6,1.5,0.4,2c0.2,1.5,1.4,4.5,2.5,5.8
					c1.7,2,2.5,4.3,4.2,6c1.8,1.7,5,3,7.1,4.4c3.7,2.5,8,4.2,12.5,5c1.7,0.3,3.2,1,5,1.4c0.6,0.2,1.6-0.7,2.2-0.6
					c1.4,0.3,2.3,1.6,4,1.7c2.3,0.2,4.7-1.1,7.4-0.6s2.8,0,5.1-0.6c0.9-0.2,2.3-0.2,3.1-0.3c-0.5,0.1,2-0.9,1.9-0.9
					c2.2-1,4.9-0.9,7.1-1.7c1-0.3,1.7-1.4,2.7-1.8c0.6-0.2,2.8-0.5,3.1-0.6c2.2-0.5,5-1.4,7-1.8c2.1-0.4,4.7-0.2,7.2-0.6
					c0.6-0.1,3.7-1.6,4.1-1.6c0.9,0,2.1,1,3,1.1c4.7,0.8,9.2-1,13.7,0.2c0.9,0.2,1.5,1.2,2.4,1.4c0.4,0.1,2.2,0,2.6,0s2.2,0,2.6,0.2
					c0.6-0.2,1.1,0,1.4,0.8c0.5,1,1.1,1.2,2,0.6c0.3,0.2,1.6,0.2,2.1,0.4c0.9,0.3,1.8,1.4,2.6,1.8c0.6,0.3,1.6-0.2,2.2,0
					c0.8,0.4,2.5,2.1,3.4,2.6c2.2,1.3,4.6,1.8,6.8,2.7c2.4,1,3.2,2.8,5,4.6c3.4,3.4,7,5.9,10,9.4c1.6,2,2.2,3.5,3.2,5.8
					c1,2.2,1.9,3.7,3.1,5.8c1.7,2.9,1.2,4.9,2.2,7.8c0.6,1.8,2.2,3.4,2.6,5.6c0.2,1.1-0.2,1.9,0.1,3.1c0.2,1,1,1.8,1.1,2.9
					c0.2,2.4-1.1,5.5-0.6,8.2c0.2,1.3,1.1,2.4,1.3,3.5c0.2,1-0.5,1.4-0.6,2.5c-0.1,2.4-0.3,4.8-0.4,7.2c-0.2,3.2-0.5,5.1-1.9,7.9
					c-0.6,1.2-1.5,2.2-1.6,3.8c-0.5,0.6-0.6,1.4-0.1,2.2c0.6,1,0.3,1.6-0.7,1.9c0.2-0.9-0.9,2.2-0.8,1.9c-0.6,1.4-0.6,3.3-1.4,5
					c-0.8,1.6-2.1,3-2.9,4.3c-0.9,1.5-1.2,3-2,4.8c-1,2.2-3.6,3.5-4.8,5.4c-2.1,3.4-3.5,7.3-6.9,10.2c-3.8,3.4-6.1,6.7-9.5,10.1
					c-0.4,0.4-1.7,1.2-2.2,1.5c-0.2,0.2-1.4,1.4-1.8,1.8c-0.9,1-2.5,2-3.5,3c-0.5,0.5-0.4,1.7-0.9,2.1c-0.4,0-0.8,0.1-1.3,0.1
					c-1-0.3-1.7,0.1-1.7,1.2c0.2-0.2-1.2,1.4-1.4,1.6c-1.9,1.8-4.8,3-6.6,4.8c-1.3,1.3-2.5,2.2-4,3.2c-1.4,1-2.4,1.1-3.6,2
					c-0.6,0.4-0.6,1.5-1.3,1.8c-2.1,1-3,0.8-4.7,2.2c-2.6,2.1-5.4,1.9-8.4,3.8c-1.7,1-3.1,2.9-4.9,3.9c-2.5,1.4-5.3,1.6-7.8,2.6
					c-4.1,1.5-7.6,4.4-12.3,5.1c-4.5,0.7-8.5,2.8-12.6,4.6c-2.2,1-3.8,1.1-6,1.4c-2.4,0.2-4,0.6-6.5,1.4c-3.4,1.1-6.9,0.6-10.7,1
					c-2.4,0.2-5.2,1-7.6,1.4c-0.3,0.1-2.5,0.2-2.6,0.2c-0.3,0.2-0.6,0.4-1,0.6C272.6,371,271.9,370.6,271.2,370.3L271.2,370.3z"/>
			</g>
			<g id="Group_1_" transform="translate(315.65802 78.13864)">
				<path id="Shape_1_" class="st1" d="M81,223.2c2.9,0.3,6.2,1.6,9,1.4c1-0.1,2.1-0.8,3.1-0.8c1.4,0,2.7,1.1,4.1,1.2
					c1.7,0,3-1,4.6-1c2.1,0,3.4,0.6,5.6,0.1c1.3-0.3,2.1-0.9,3.4-1.1c2.2-0.4,3.8-0.9,5.8-1.6c1.6-0.6,3-0.3,4.6-0.6
					c1.8-0.4,2.2-1.2,3.6-1.8s2.8-0.6,4.3-1.5c1.4-0.9,2.2-1.8,3.7-2.8c2.5-1.8,4.2-3.2,6.5-5.7c2.7-3,3.8-5.6,5.7-9
					c0.6-1.2,1.2-1.3,1.7-2.6c0.4-1.1,0.8-3.2,1.1-4.5c0.6-2.4,1-5.4,1.4-7.5c0-0.2-0.1-1.4-0.1-1.6c0.1-0.6,0.9-1.2,1-2
					c0.2-1.8-0.9-3.7-0.6-5.7c0.6-4,1.4-8,1.3-12.3c-0.1-1.8-0.4-2.7-0.2-4.6c0.2-1.6,0.1-3.1,0.1-4.6c0-3,1.2-6.7,1.6-10.1
					c0.3-2.6,0-5.5,1-8.2c0.3-0.9,0.6-2.5,1-3.4c0.2-0.5-0.6-1.2-0.4-1.7c0.3-1,1.4-1.6,1.8-2.7c0.7-2.3,0.9-4.7,1.4-7
					c0.7-3.3,2-6.2,3-9.3c0.4-1.3,0.4-2.2,0.9-3.5c0.6-1.4,1.5-2.6,2.1-4.2c1.2-3.4,2.3-6.8,4.1-10c0.6-1,2.1-2.3,2.5-3.4
					c0.2-0.7-0.6-1.8-0.3-2.5c0.2-0.5,1.1-0.6,1.3-1c1.4-3.7,4.1-5.9,6-9c1.4-2.2,2.2-5.2,3.8-7.4c0.2-0.4,1.4-0.2,1.7-0.6
					c0.1-0.1,0.7-1.4,0.8-1.4c1-0.9,2.4-2.4,3.6-3.7c1.8-1.9,4-4.1,5.6-6c1.2-1.5,1-3,3-4.4c1.8-1.3,3.4-2.2,5.1-3.6
					c1-0.8,3.3-1.4,4.1-2.2c0.6-0.6,0.6-2.2,1.3-2.6c1-0.9,3.6-0.8,5-1.7c1.8-1.1,3.1-2.7,5.1-3.5c6.1-2.3,11-5.3,17.8-7.1
					c3.6-1,6.7-1,10.2-1.8c1.4-0.4,2-1,3.4-1.1c1.8-0.2,3.3,0.4,5.2,0c3.1-0.6,4.8-1,7.7-0.8c1.7,0.1,4.2-0.6,5.7-0.4s1.4,0.8,3,1.2
					c0.8,0.2,2.6,0.1,3.6,0.2c0.8,0.2,1.6,0.7,2.4,0.9c0.7,0.1,1.6-1,2.3-0.8c3.1,0.6,6.4,3.4,9,5.2c2.5,1.7,4.2,3.1,6.2,5.4
					c0.3,0.4,1.2,0.4,1.4,0.9c0.4,0.7,0,1.5,0.4,2.2c0.8,1.7,2,3.3,2.8,5c3,6.5,3,16.3,1.2,23.1c-0.7,2.8-2.7,6-4.2,8.9
					c-1.4,2.7-3.2,3.7-5.4,5.5c-0.6,0.5-0.5,1.4-1.1,1.9c-0.4,0.3-1.1,0.2-1.6,0.5c-1.8,1.1-4,2.2-6.1,2.9c-1.4,0.4-2.2,0.4-3.6,0.6
					c-0.8,0.2-2.2,0.2-3,0.6c0.3-0.2-2.8,1.6-2.2,1.5c-1,0.2-1.8-0.5-2.9-0.5c-2,0.1-3.2,1-5,1.4c-3,0.7-6.3,0.2-9.3,0.4
					c-2.1,0.2-3.1,0.6-5,1.1c-1.7,0.4-3.7-0.5-5.2-0.2c-0.7,0.2-2.2,1.3-2.9,1.6c-1,0.4-3,0.6-4.1,0.6c-1.4,0.1-2.5-0.6-3.8-0.2
					c-1.4,0.4-2.8,1.5-4.3,1.8c-3.8,0.9-6.6,1.7-10.1,3.7c-2.6,1.6-5.4,2.3-7.8,4.1c-0.9,0.6-2.2,1.5-3,2.2
					c-0.2,0.2-0.7,1.1-0.9,1.3c0.2-0.2-2.2,1.7-2.1,1.6c-1.4,1.7-2.8,3.8-4,5.9c-0.5,0.8-1,1.8-1.4,2.6c-1,1.5-1,2.3-1.7,3.7
					c-2.6,5.6-3.2,13.2-3.9,19.2c-0.3,2.4,0.7,5,0.4,7.6c-0.2,1.3-0.9,2.3-1.1,3.6c-0.4,2.4,0.6,5.1,0.5,7.1c0,0.1,0.2,1.7,0.2,1.7
					c0,0.2-1,0.6-1,1c0,1,0.6,2.3,0.6,3.4c0.1,1.4-0.1,3.7-0.2,5.1c-0.2,1-0.4,3-0.6,4c-0.5,2.6-1.8,5.3-2.4,7.8
					c-0.8,3.2-1.8,6-2.6,9.2c-1.4,5.6-4,9.4-6.9,13.5c-0.3,0.4,0.3,1.4,0.1,1.8c-0.4,0.6-1.8,0.3-2.3,0.9c-1,1-2.1,2.9-3.1,4
					c-1.3,1.5-1.4,3.3-2.5,4.6c-1,1.3-2.6,2-3.7,2.9c-0.5,0.4-0.5,1.4-1,1.9c-0.4,0.3-1.4,0.1-1.8,0.4c-1.6,1.2-2.7,2.6-4.1,3.9
					c-2.6,2.6-5.2,3.5-8.1,5.4c-2.3,1.5-4.8,3.2-7.4,4.6c-1.5,0.8-2.6,1.6-3.9,2.4c-0.6,0.3-1.5,0-2.1,0.4s-0.8,1.5-1.4,1.8
					c-2.8,1.5-5.8,1.6-8.6,3.3c-3,1.8-5.9,1.3-8.9,2.5c-1,0.4-2.1,1.4-3.2,1.8c-2,0.8-4.3,1.4-6.4,1.9c-4.5,1.2-8.7,1.8-13.2,2.5
					c-3.5,0.6-6.8,0.6-10.2,1.4c-1.9,0.4-3.7,0.1-5.7,0.2c-0.7,0.1-1.4-0.2-2.1-0.2c-0.8,0.1-1.1,1-2.1,1c-2.5,0-5-0.7-7.2-0.8
					c-3.4-0.1-6.6-0.6-9.8-0.8c-3-0.2-6.7-1.3-10.2-1.9c-2-0.4-3.4,0.2-5.3,0.2c-2.3-0.2-3.8-1.9-5.8-2.6c-3-1.2-6.4-0.9-8.7-1.3
					c-0.3-0.1-1.4-1.3-1.7-1.4c-0.4-0.2-1.2,0.2-1.6,0.1c-1.2-0.6-2-1.1-3.2-1.5c0.9-0.4,1.8-1.8,2.8-2.4c1.7-1,3.9-1.6,5.7-2.4
					c2.5-1.1,5.2-1.6,7.8-2.8c0.3-0.2,2.5-1.4,2.6-1.6c0.2-0.2,2.2-1.8,2.5-1.9c0.5-0.2,2.6-0.6,3-0.8c1.1-0.4,2.6-1,3.8-1.4
					c4-1.4,7.4-4.1,11-5.6C70.2,228.4,75.9,225.6,81,223.2L81,223.2z"/>
			</g>
			<g id="Group_2_" transform="translate(35.613464 45.900665)">
				<path id="Shape_2_" class="st1" d="M246.1,119.2c0,2.3-0.3,3.8-0.7,6.1c-0.3,2.1,0.1,3.8,0.1,5.7c0,1-0.4,3.4-0.8,4.6
					c-0.3,1-1.1,1.8-1.5,2.8c-0.6,1.7-0.1,3.5-0.6,5.1c-0.3,1.1-1,2.7-1.4,3.8c-0.6,1.4-1.5,2.2-2.1,3.6c-0.2,0.6,0.5,1.7,0.2,2.3
					s-1.5,0.7-1.9,1.4c-0.7,1.4-1,2.5-1.5,3.8c-1,2.4-1.9,3.2-3.5,5c-3,3.6-4.7,7.6-8.2,10.4c-1.8,1.5-1.5,3-2.7,4.5
					c-1.6,2.2-3.9,2.1-5.7,3.7c-0.7,0.6-1.2,2.2-2.1,3.1c-0.5,0.5-3.2,2.1-3.4,2.2c-1.2,0.5-2,0-3.2,0.7c-1,0.6-1.3,1.7-2.2,2.4
					c-2.2,1.9-4.4,1.4-6.8,2.4c-2.2,1-4,3.2-6.1,4.1c-3.4,1.4-8.6,2.2-12,2.8c-4,0.8-7.9,1-12.3,1.3c-2.7,0.2-5.4,1-8.2,0.8
					c-2.6-0.2-5-1.4-7.5-1.8c-2-0.2-3.5,0.6-5.7-0.2c-0.7-0.3-1.5-1.4-2.3-1.5c-1-0.2-2.6,0.1-3.8,0.1c-3.4-0.2-6.4-2.6-9.3-4.5
					c-2.3-1.4-4.6-1-6.9-2.2c-0.6-0.3-1-1.2-1.5-1.5c-1.3-0.8-2.6-0.9-3.8-1.6c-2.5-1.5-3.6-3.7-6.2-5.4c-1.8-1.2-3.2-2.3-4.8-3.8
					c-3.2-3-5.8-5.9-8.8-9.3c-5.4-6.2-8.8-13.2-11.8-20.9c-0.9-2.4-2.2-3.9-2.6-6.7c-0.4-3-1-6.1-1.6-9c-1.1-4.7-2.1-9.8-1.4-15.2
					c0.4-3.4-0.1-6.3,0.7-9.7c0.5-1.9,0-3.9,0.3-5.7c0.2-1,1.1-1.9,1.4-2.8c0.7-1.9-0.2-3.7,0.2-5.3c0.5-1.8,2.2-3.5,2.8-5.6
					c0.7-2.6,1-3.3,2.5-5.6c2-3.1,3.7-6.6,5.6-9.8c2-3.3,4.1-6.1,6.6-9.1c1.6-1.8,2.9-2.8,4.4-4.2c0.5-0.4,0.4-1.7,0.9-2.1
					c1.4-1.2,3-1.2,4.2-2.2c1.4-1.2,2.6-2.6,4.2-3.7c1.6-1.1,2.7-1.5,4.5-2.6c0.2-0.2,1.7-1.4,1.6-1.4c-0.6,0.2,2.1-1.1,1.8-1
					c0.4,0,0.8,0.1,1.2,0.1c0.5-0.6,0.9-1.2,1.4-1.8c1.6-0.9,3-1.5,4.7-2c9.2-2.6,17.5-6.8,26.7-7c1.4,0,2.5,0.6,3.6,0.6
					c1,0,1.6-1,2.6-1c2.4-0.2,1.6,0.4,3,0.5c0.6,0,2-0.2,2.6-0.1c3.6,0.5,7,1.4,11.1,1.9c4.5,0.6,8.6,2.2,12.7,3.7
					c3.5,1.3,8.1,3,11.8,5.1c2.2,1.3,4.6,3.1,6.8,4.6c0.6,0.4,0.6,1.4,1.2,1.8c0.7,0.5,2.2,0.6,3,1.1c2.1,1.3,4.3,4,5.8,5.8
					c1.2,1.6,2.8,3,4.2,4.5c3.6,3.8,5.2,6.6,7.5,11c2.6,4.9,5.9,8.2,7.4,13.5c0.7,2.5,0.9,5.7,1.8,8.1c0.1,0.2,1,1.8,1,1.8
					c0.4,0.2,0.7,0.4,1,0.8c-0.2,0.7-0.4,1.5-0.6,2.2C244.5,108.6,246.1,114,246.1,119.2L246.1,119.2z"/>
			</g>
			<g id="Group_3_" transform="translate(52.793793 0.37280273)">
				<path id="Shape_3_" class="st1" d="M84.6,146.8c-1.1-3.8-2.7-7.6-2.8-11.4c0-1.7-0.9-3.2-1.3-5c-0.6-2.6-0.8-4.6-1-7
					c0.2-0.4,0.4-0.7,0.6-1.1c-0.4-0.6-0.9-1.3-1.3-1.9c-0.1-1-0.5-3.2-0.5-4c0.1-1.6,1.1-2.2,1.1-4.2c0-0.6-1.4-1.4-1.4-2
					c-0.1-0.8,0.7-3.2,0.7-4.1c0.1-1.4,0-2.6-0.1-4.1c-0.2-2-0.6-1.7-0.3-4.1c0.2-1.4,1-2.5,1.1-4c0.2-2.9-0.3-5.4,0.2-8.2
					c0.4-2.2,1.1-3.8,1.5-6.1c0.2-1-0.5-1.7-0.2-2.7c0.2-0.9,1.1-1.5,1.3-2.4c0.2-1-0.2-1.8,0.1-2.6c0.4-1.4,1.3-2.6,1.8-4.4
					c1.2-4.6,2.3-9.5,4.2-14c2.3-5.4,3.4-10.6,9-6.2c3.5,2.8,7.4,3.6,10.4,7c1.5,1.8,2.5,3.2,4.5,4.5c2.3,1.4,2.9,2.3,4.3,4.6
					c2.2,3.5,6,4.8,8.2,8.1c1,1.4,0.6,2.1,1.9,3.6c0.5,0.6,1.6,1.5,2.1,2.2c1.4,1.8,2.6,3.8,4,5.8c2.2,3.1,3,6.2,5.4,9.7
					c1.2,1.8,1.9,4.6,2.1,6.7c0.1,1.7,1,0.2,0.3,2c-0.2,0.6-2,1.2-2.6,1.6c-1.6,1.3-2.1,2.1-3.9,3.2c-2.2,1.2-1.8,2.6-3.3,4.1
					c-1.6,1.7-2.9,1.2-4.6,2.3c-1.7,1.1-2.2,3.1-4.2,4.5c-1.8,1.3-3.9,1.6-5.5,2.8c-1.5,1.2-1.9,3.2-3.7,4.4
					c-1.8,1.2-3.4,1.1-5.1,2.5c-1.6,1.3-2.5,3.7-3.9,4.9c-3,2.6-7,4.9-9.9,7.1c-1.7,1.3-3,2.6-4.7,3.8c-0.6,0.4-1.1,0.8-1.6,1.3
					C87.2,144.4,85,146.7,84.6,146.8L84.6,146.8z"/>
			</g>
			<g id="Group_4_" transform="translate(199.17899 81.12564)">
				<path id="Shape_4_" class="st1" d="M57.9,115.7c3.6-1.9,9.1-4,12.5-6.9c1.1-1,1.2-2.4,2.6-3.5c0.5-0.4,1.7-0.2,2.2-0.5
					c0.9-0.6,1.2-1.6,2.2-2.2c0.9-0.6,2.1-0.6,3-1.2c2.3-1.6,4.4-4.6,6.6-6.6c1.4-1.3,2.6-2.2,4-3.3c2.1-1.7,2.6-2.8,4.2-4.6
					c0.7-0.8,1.8-1.4,2.3-2.1c0.7-0.7,1.1-1.6,1.9-2.5c1.6-1.8,3.4-3.5,4.7-5.5c1-1.5,1.9-3.8,3.1-5.2c0.5-0.6,1.6-1.1,2-1.7
					c0.5-0.6,0.3-1.8,0.8-2.5c0.3-0.2,0.7-0.3,1-0.5c1-0.1,1.4-0.7,1-1.7c0.6-0.9,1.4-2.4,2.1-3.4c1.4-2.2,1.8-5,3.5-7.2
					c1.1-1.5,2.5-3.5,3.2-5.1c0.9-2,1.5-4.2,2.3-6.6c1-3,3-4.6,3-7.4c0.1-3,0.9-1.4-1.3-2.9c-1.8-1.2-3.6-0.1-5.3-0.3
					c-0.3-0.1-1.6-0.2-1.8-0.2c0.9,0.1-3-1.1-2.3-0.9c-1.4-0.4-5.6-1.4-7.2-1.4c-1.8-0.1-1.9,1-4.2,0.6c-1.6-0.2-1.4-1-3.1-0.9
					c-4.5-0.1-8.4,0.4-12.6,0.2c-0.2,0-2.3,0.1-2.6,0.2c-0.7,0.2-1.7,1.3-2.4,1.4c-2,0.2-2.7-1-4.2-1c-0.6,0.1-3.2,1.5-3.8,1.6
					c-1.8,0.4-2.6-0.3-4.1-0.1c-2.4,0.5-2,1.5-3.7,2C67,34,66,33.2,65.4,33.4c-1.9,0.4-4,1.2-5.8,2.1c-2.2,1-3.3,1.3-5.7,1.8
					c-1.4,0.3-2.6,0.7-3.6,1.7c-2.3,2.3-1,0.2-1.2,2.8c-0.1,1,0.5,2.1,0.5,3c0,0.7-0.5,2-0.4,2.6c0.2,1.8,1.1,3.8,1.3,5.6
					c0.3,4.1,0.6,7.1,1.4,11.3c0.4,2.2-0.1,4.1,0.3,6.2c0.4,2.5,1,4.6,1.2,7.1C53.6,81.8,54,86,54.5,90c0.3,1.9,0.6,4.4,0.8,6.2
					c0.2,2.2,0.8,3.8,1.3,6.1c0.3,2.1-0.7,4.2-0.3,6.3C56.5,110.5,57.3,114.3,57.9,115.7L57.9,115.7z"/>
			</g>
			<g id="Group_12_" transform="translate(59.000336 87.26672)">
				<g id="Group_5_">
					<path id="Shape_5_" class="st2" d="M131.3,56.2c-0.1,0.6-1,2.2-1.2,2.9c-0.4,1.2-0.5,2.8-1,3.9c-0.6,1.6-1.3,1.9-2.3,3.2
						c-1,1.2-1.4,3.1-2.8,4.3c-1.4,1.3-3.8,2-5.3,3.1c-0.6,0.4-2.6,2.3-3.2,2.6c-0.5,0.2-1.3-0.5-1.8-0.3c-1,0.3-2.2,0.6-3.4,1
						c-1.8,0.6-4.6,1.8-6.3,1.8c-1.1-0.1-1.8-0.6-3-0.9c-1.6-0.5-3.2-0.3-4.6-0.6c-1.8-0.4-5.7-1.9-7.8-3.1c-2.7-1.6-4-5.1-5.8-7.4
						c-1.6-1.9-2.6-2.6-3.8-4.9c-0.4-0.8-2-2.9-2.2-3.7c-0.2-1.3,0.7-3.4,0.6-4.9c-0.3-3.9-1-4.7,0.7-8.4c1.1-2.4,2.9-4.1,4.3-6.6
						c1.7-2.7,2.2-3.9,5-5.5c1-0.6,1.3-1,2.6-1.5c1.4-0.5,3-0.4,4.4-0.9c1.8-0.6,2.3-2,4.9-1.9c1.2,0,2.5,0.2,3.7,0.4
						c1.2,0.2,1.8,0.2,3,0.5c1.7,0.4,2.8,1.6,4.2,2c1.6,0.5,2.9,0.2,4.5,1c0.5,0.2,0.5,1.3,0.9,1.6c0.6,0.4,1.6-0.1,2.2,0.3
						c2.3,1.6,4.1,3.7,6,5.6c1.2,1.1,3,1.9,3.8,3.5c0.6,1.2,0.7,2.3,1,3.5c0.1,0.4,1.2,0.6,1.4,1.1c0.2,0.6-0.8,1.7-0.6,2.3
						c0.2,0.5,1.2,0.8,1.3,1.3C131.2,53,131.5,54.4,131.3,56.2L131.3,56.2z"/>
				</g>
				<g id="Group_6_" transform="translate(20.01767 23.267166)">
					<path id="Shape_6_" class="st3" d="M85.7,30.2c-0.1,0.6-2.3,3.2-2.9,3.6c-2.2,1.7-3.2,1.3-5.1,0.8c-2.2-0.5-5.4-3-4.6-6
						c0.4-1.8,4.5-5.1,6.3-5c2.2,0.2,2,2,3.3,3.2C83.9,28.1,85.9,27.5,85.7,30.2L85.7,30.2z"/>
				</g>
				<g id="Group_7_" transform="translate(101.08136 34.157196)">
					<path id="Shape_7_" class="st2" d="M112.6,45.7c0,1.2-1.7,4.6-2.2,5.8c-0.5,1.4-1.7,4.2-2.6,5.4c-1.5,2.1-3.5,4.6-5.7,5.9
						c-1.4,0.9-3,1.4-4.2,2.2c-1.2,0.8-0.8,1.5-2.8,2.1c-0.8-0.2-1.5-0.3-2.3-0.5c-0.5,0.4-0.8,0.9-1,1.4C91,68.1,89,68.5,88,68.3
						c-2.8-0.5-5.2,0.2-8.2-0.5c-4.8-1.2-7.1-4-11.1-6.8c-5.1-3.6-11.6-11.3-11.9-18.3c-0.1-1.4,0.7-4.6,1.1-6.2
						c0.6-2.2,1.2-1.6,2.2-3.4c1-1.4,0.2-2,1.8-3.5c1.4-1.4,2.6-1.9,4.1-2.9c1.2-0.7,2.7-3,3.8-3.4c1.8-0.7,3.5-0.5,5-1
						c3.1-1,5.5-1,8.9-1.1c3.9-0.1,6.9,1,11,2.4c3.2,1.1,4.7,1.7,7,4.1c1.4,1.5,3.5,1.4,4.7,2.5c0.2,0.7,0.4,1.5,0.6,2.3
						c0.6,1,1.3,1.7,2.2,2.2C111.3,37.3,112.7,42.3,112.6,45.7L112.6,45.7z"/>
				</g>
				<g id="Group_8_" transform="translate(138.3201 54.48105)">
					<path id="Shape_8_" class="st3" d="M60.8,22c-0.1,3.1-6,4.3-8.1,3.8c-2.6-0.6-4.2-2.6-3-5.4c0.6-1.4,2.5-2.9,4.2-3
						C55.3,17.3,60.8,20.1,60.8,22L60.8,22z"/>
				</g>
				<g id="Group_9_" transform="translate(48.532196 65.780914)">
					<path id="Shape_9_" class="st3" d="M74.6,15.5c4.6-0.6,5.3-0.5,12.4,0.4s8.7,2.4,10.8,3.2c3.8,1.4,11,7.5,12.4,9.6
						c0.4,0.3,1.8,5.2-1.2,6s-5.4-1.2-10.8-2.8c-5.4-1.6-8.1-2.6-11.3-3.2c-2.2-0.5-4.4-1-6.6-1.7c-2.1-0.6-3.3-0.9-5.3-1.5
						c-1.4-0.5-3.1-0.9-5.2-1.6c-2-0.7-2.6-2-2.6-3.8C67.3,18.3,70.1,16.1,74.6,15.5z"/>
				</g>
				<g id="Group_10_" transform="translate(64.23819 66.87427)">
					<path id="Shape_10_" class="st3" d="M94.9,51.2c-1.8,1.2-4.2,2.9-6.4,3.3c-1.5,0.3-2.3,0.7-3.9,0.7c-3.8,0.1-5.1,0.2-8.6-1.9
						c-2.2-1.3-3.8-2.7-5.2-4.2c-2.1-2.2-3-6-4.4-8.9c-1-2-2.1-2.4-2.2-5.1c-0.1-1.5,0.8-2.8,0.4-4.6c-0.6-3-0.4-3.2,0.3-6.4
						c0.4-1.8-0.3-4,0.6-5.5c0.8-1.4,1.1-2.9,3-3.6c-0.4,0,3.3,0,3,0c1.3,0.2,1.5-0.2,3,1c1.6,1.2,1,0.8,1.8,2.6
						c1,2.3,0.9,2.8-0.2,5.4s-1.3,3.9-1.7,6.8c-0.5,3.7,1,8.4,2.8,12.4s4.6,4.5,4.9,4.6c0.8,0.2,2.5,0.6,4.7,0.2
						c2.2-0.3,2.7-1,4.4-1.6c1.1-0.4,2.6-1,3.7-0.1C96.3,47.3,96.2,50.4,94.9,51.2L94.9,51.2z"/>
				</g>
				<g id="Group_11_" transform="translate(38.68741 76.206055)">
					<path id="Shape_11_" class="st3" d="M84.5,29.9c3.6-2.7,4.5-13.4,6.8-16.4c1.4-1.8,5.4,2.9,7.3,4.4c2.8,2.2,0.6,6.7-0.2,9
						c-1.8,4.3-3.4,7-7.3,8.7c-4,1.8-7,2.3-11,1.9c-2.6-0.3-7-2.8-8.8-5.6c-1-1.4-2.2-3.8-1.8-5.3l0,0c0.4-1.5,2.6-3.2,4.8-0.8
						C74.4,26.5,78,33.4,84.5,29.9z"/>
				</g>
			</g>
			<g id="Group_13_" transform="translate(0 214.92828)">
				<path id="Shape_12_" class="st4" d="M159.8,260.4c-1,3.6-3.1,6.2-7.5,6.5c-2.1,0.2-3.4,0.9-5.8,0.2c-3-0.7-3.6,0.2-6.6,0.5
					c-1.5,0.2-3.6-0.8-5.2-0.6c-1.4,0.2-8.2-4.7-8.8-7.7c-0.2-1.4-1.1-2.2-1.9-3.9c-1.4-2.8-2.2-5.4-3.1-8.2
					c-1.6-4.2-3.3-8.1-4.4-12.7c-0.7-2.8-1.7-6.2-3-8.7c-0.5-0.9-1.6-1.8-1.9-2.6c-0.3-1.1,0.7-2.8,0.3-4.4c-0.9-3.1-2.5-5.4-3-8.7
					c-0.5-2.8-1.7-5.6-2.5-8.4c-0.3-1.1-0.4-2.5-0.7-3.5c-0.4-1.1-1.3-1.7-1.7-2.7c-0.6-1.8-0.1-3.5-0.5-5.2
					c-0.3-1.5-1.1-2.3-1.5-3.8c-0.6-2.1-0.2-4-1-6.1c-1.2-3.4-1.8-6.6-2.3-10c-0.2-1.6,0-3.7-0.3-5.2c-0.3-1.4-1.3-2.2-1.6-3.9
					c0.1-0.7,0.2-1.4,0.3-2.2c-0.4-0.6-0.9-1.3-1.3-1.8c-0.2-2.2,0.1-4.6-0.2-6.7c-0.3-2.5-0.3-5-0.9-7.7c-0.4-1.8-1.1-1.8-1.4-4
					c-0.1-1,0.1-2.1,0-3.1s-0.2-2.6-0.4-3.6c0.2-0.6,0.5-1.1,0.6-1.6c-0.5-0.6-1-1.3-1.5-1.9c-0.4-1.8-0.2-2.5-0.1-4.2
					c0-0.9,0.2-2.5,0.2-3.1c0.2-1.8-0.6-3.2-0.9-5c-0.2-1.2-0.1-2-0.3-3c-0.3-1.4-0.6-2.5-0.6-4.1c0.1-3.3,1-6.8,0.3-10.3
					c-0.6-3-1.5-5.1-1.2-8.2c0.2-2.2,0.7-5.1,0.6-7.2c-0.2-2.5-1.7-4.6-1.4-7.2c0.2-1.1,1.1-2.1,1.3-3.1c-0.4-0.7-0.8-1.4-1.1-2.1
					c0.4-0.7,0.8-1.4,1.1-2.1c-0.2-1.8-1.6-1.8-1.6-4.1c0-0.6,0.9-1.4,1-2.1c0.3-3.2-0.1-6.8,0.2-10.2c0.2-2.6-0.6-3.7-0.7-6.2
					c-0.3-3.3,1.2-7,1.4-10.2c0.2-4.1,0.5-8.2,0.8-12.3c0.3-3.4,0.6-6.6,1-10.2c0.4-2.1,0.9-3.8,1-6c0-1-0.6-2.2-0.2-3.2
					c0.9-1.7,8.7-1,11.5-1c4.1-0.1,8.2,0.2,12.3,0.1c1.8-0.1,3.2-0.5,5.1-0.3c1,0.1,2,0.6,3,0.6c1.3,0,1.9-0.8,3-0.9
					c1.4-0.2,3.7,0.1,5.1,0.4c0.7,0.2,2.5-0.2,3,0.4s-0.6,5.2-0.7,5.9c-0.2,1.7,0.2,3.6,0.1,5.1c-0.1,1.1-0.7,1.8-0.9,3
					c-0.4,2.6,0.1,5.6,0,8.2c-0.1,2.4,0.1,5.2-0.4,7.1s-0.9,4.6-0.9,7.1c-0.2,5.7,0.9,10.9,0,16.4c-0.3,1.8-0.9,4.3-0.6,6.2
					c0.2,1.4,1,1.6,1,3c0,1.4-0.4,2.7-0.3,4.1c0.1,1.8,0.2,4.2,0.2,6.2c0.1,2.8-0.2,5.6-0.3,7.9c0.1-0.6,1,2,1,1.8
					c0,0.1-0.1,2.5-0.2,2.6c-0.1,0.6-0.3,2.4-0.3,3.1c0.3,0.6,0.6,1.4,1,2c-0.3,0.7-0.6,1.4-0.9,2.1c-0.1,4.9,1,9.4,1,14.4
					c0,3.6-0.4,6.6,0.2,10.3c0.5,3,0.6,5.1,0.7,8.2c0.1,1.3,0.8,2.6,0.9,4.1c0.1,1.8,0.3,3.4,0.5,5.1c0.2,2.2,1.2,4.9,1.3,7.1
					c0,1-0.8,2.1-0.8,3.2c0.1,1.4,0.6,2.7,0.8,4.1c0.2,1,0.5,2.6,0.5,3.6c0.1,1.1-0.3,2.6-0.2,3.7c0.2,1.9,1.4,2.4,1.7,3.9
					c0.4,2.2-0.1,4,0,6.2c0.2,3.6,1.9,6.6,2.3,10c0.2,1.1-0.5,3-0.5,4.2c0.1,2.1,1.1,4,1.4,6c0.5,3,0.7,4.3,1.7,7
					c0.8,2.4,0.4,5.4,1.1,7.8c0.5,1.8,1,0.3,1.4,3.2c0.1,0.6-0.2,2.3-0.2,2.9c-0.1-1,1.4,3,1.1,2.2c0.4,1,0.2,3.3,0.5,4.1
					c-0.2,0.4-0.2,0.8-0.4,1.1c0.6,0.6,1.2,1.1,1.8,1.7c0.2,0.8,0.2,2.2,0.5,3c1.6,6.2,2.9,12.9,4.3,19.1c1,4.1,2.8,7.6,4.2,11.6
					C160.8,256.3,160.1,257.9,159.8,260.4L159.8,260.4z"/>
			</g>
			<g id="Group_14_" transform="translate(335.62903 327.85938)">
				<path id="Shape_13_" class="st1" d="M85.3,22.1c-0.4,0.7-0.7,1.4-1.1,2.1c0.2,0.7,0.2,1.4,0.4,2.1c0,1.7,0.2,3.1,0.2,4.6
					c-0.2,0.5-0.5,1-0.7,1.5c0.3,0.6,0.6,1,1,1.6c0,1-0.2,2.4-0.3,3.6c-0.2,1.6,0.4,3.6,0.2,5.1c-0.2,1.6-1.4,2.6-1.7,4
					c-0.6,2.7-0.3,6.8-0.2,9.2c0.1,2.7,0.1,5.7-0.9,8.2c-1,2.8-2.1,6.4-2.1,10c0,3.2,0.1,7.3-1,10.2c-0.3,1-1.5,1.9-1.8,2.7
					c-0.3,1.3,0.5,2.6,0,4.2c-0.4,0.4-0.9,0.8-1.3,1.3c-0.6,0.3-0.6,0.9-0.2,1.5c0,0-0.8,2.7-0.9,3c-0.6,3-1.4,5-2.2,7.8
					c-0.9,3-0.4,5.4-2,8.5c-1.5,3-2.4,5.9-3.7,9c-1,2.2-1.5,4.5-2.3,6.8c-0.5,1.4-1.2,1.4-1.8,2.6c-0.7,1.7-0.2,2.7-0.8,4.1
					c-0.3,0.7-1.4,1.8-1.8,2.6c-0.6,1.1-0.9,2.6-1.4,3.8c-0.6,1.5-2.2,2.6-2.7,3.8c-0.4,0.9-0.1,2.2-0.6,3.2c-1.1,3.2-1.8,3.8-3,5.4
					c-2.1,2.9-8.7,3.1-11.8,3.2c-2.8,0.1-7.7-0.5-10.3-0.9c-1.5-0.2-5.8-1.8-6.8-3c-1.9-2.4-1.5-1.8-1.8-5.3
					c0.2-0.3,0.7-3.3,0.9-3.9c0.6-2.6,1.8-3.5,2.8-5.5c1-2.1,0.3-4.4,0.9-6.2c0.2-0.6,1.4-1,1.6-1.6c0.6-1.6,0.5-3.4,1.1-5
					c0.6-1.6,1-2.9,1.5-4.3c0.2-0.6,0.9-1.4,1-1.8c0.1-0.6-0.3-1.7-0.2-2.2c1.3-4,3.1-7.9,3.6-12.3c0.1-0.6-0.6-1.5-0.4-2.2
					c0.2-0.6,1.4-1,1.7-1.8c0.4-1.4,0.6-3.8,0.6-5.1c0-1-0.1-2.6,0.1-3.7c0.2-1.8,2.1-3.7,2.3-5.3c0.2-1.4-0.6-2.9-0.6-4.2
					c0.1-0.7,1.1-1.2,1.3-1.8c0.2-0.6-0.7-1.5-0.6-2.2s1.4-1.2,1.4-1.8c0.1-0.6-0.8-1.5-0.7-2.2c0.1-1.4,0.3-3.3,0.6-4.6
					c0.1-0.8,0.8-1.5,1-2.5c0.2-1.3-0.2-2.8-0.2-4.2c0-2.4,0.8-3.9,1-6.1c0.1-1.2-0.1-2.6,0-3.6c0.1-0.5,1-1,1-1.4
					c0.2-2.5-0.7-4.7-0.2-7.2c0.5-2.6,0.6-4.5,0.6-7.1c0-1.8-0.5-3.5-0.4-5.1c0-1.7,0.9-2.2,1.2-4.1c0.5-2.3-0.8-4.8-0.7-7.2
					c0.1-2.2,0.6-4,0.6-6.2s-0.6-4.1-0.6-6.2c-0.1-2,0-3.2-0.3-5c-0.4-2.5,0.1-4.3,0-6.7c0-1.1-0.8-2.7-1-4.1
					c-0.2-1.7,0.3-3.4,0-5.2s-1.4-3.5-1.4-5.6c0.2-3.7,0.6-2.6,3.5-2.5c6.1,0.2,11.8-0.2,18.1,0.4c3,0.3,6.3,0.4,9.5-0.1
					c1.7-0.6,2.6-0.7,4.4-0.6c1.5,0.1,3.6-0.6,5.2-0.2c-0.2,0.9-0.4,1.7-0.6,2.6c0.6,0.6,1,1.3,1.6,1.8c0.6,2.3-0.3,3.2-0.3,5.2
					c0,1.3,0.2,3,0.4,4.1c0.2,1,0,3,0.4,4.1c1.2,3.5,0.8,6.4,0.6,10.3C84.3,13.4,85.3,17.5,85.3,22.1L85.3,22.1z"/>
			</g>
			<g id="Group_15_" transform="translate(72.58322 214.67737)">
				<path id="Shape_14_" class="st1" d="M134.6,260.7c-2.1,3.7-6.6,7.3-11.1,7.1c-2.2-0.1-3-0.2-5,0c-1.1,0.2-7.4-1.9-8.7-1.9
					c-2.6,0-3.4-3.4-5.9-4.7c-1.5-0.8-0.6,0-1.7-1.6c-0.7-1.1-1.3-3-1.8-4.3c-0.9-2.6-2.2-5.7-2.6-8.3c-0.6-3.9-1.6-8.1-2.9-12
					c-0.6-1.8-1.2-3.7-1.7-5.4c-0.2-0.5,0.4-1.2,0.2-1.7c-0.2-0.6-1.3-1-1.5-1.8c-0.8-2.8-0.6-5.4-1.4-8.1c-0.8-2.9-0.9-5.8-1.8-8.6
					c-0.8-2.6-1.9-5-2.2-7.9c0-0.5,1-1.3,0.9-1.8c-0.2-0.5-1.1-0.8-1.3-1.4c-0.5-1.7-0.6-2.8-0.7-4.6c-0.2-3.3-1.2-6.1-1.8-8.7
					c0,0.1,0.4-2.3,0.4-2.5c0-1.7-0.9-3.8-1.3-5.5c-0.5-2.5-1.3-5.4-1.6-8.1c-0.1-0.6,0.9-1.1,0.8-1.7c0-0.5-0.7-1-0.8-1.4
					c-0.2-2.1-1.1-4.4-1.3-6.6c-0.1-1.3,0.5-1.8,0.2-3.1c-0.2-0.7-0.9-1.1-1-1.9c-0.2-0.9,0.2-1.4,0.2-2.1c-0.3-2.1,0-5.4-0.3-7.7
					c-0.2-1.5-1.4-2.7-1.4-4.5c0.1-1.8,0.4-3,0.3-4.6s-0.2-4-0.4-5.6c-0.2-1.1-1-2-1.1-3c-0.3-2.2,0.7-3.2,0.7-5.2
					c0.1-1.6-0.8-2.6-1.1-4.1c-0.9-3.5-0.5-6.8,0-10.3c0.3-2.2-0.5-3.2-0.8-5.1c-0.1-0.5-0.6-1-0.6-1.5c-0.1-0.9,0.8-1.4,0.8-2.1
					c-0.2-2.7-0.4-5.5-0.1-8.7c0.3-3.4-0.5-6.9-0.6-10.2c-0.2-3.5-0.8-7.3-0.6-10.8c0.2-2.8,0.7-5.5,0.8-8.2
					c0.1-2.7-1.4-4.6-0.6-7.7c1.1-3.9,1.1-6.3,0.7-10.2c-0.3-3.1,0.8-5.8,0.9-9.2c0.1-2.5-0.1-4.6,0.2-7.1c0.1-0.5-0.6-1-0.5-1.6
					c0.1-0.4,0.9-1.7,0.9-2c0-0.2-0.3-1.4-0.3-1.5c0.1-0.8,0.1-2.6,0.1-3.6c0-0.5,1-1,1-1.4c0.1-0.6-1.2-1.5-1.2-2.2
					c0-0.6,1-1.3,1-2c0-0.6-1-1.4-1-2.1C76,9.4,77.3,4,77.3,4c1.4-1.2,2.4,0.3,3.6,0.4c2.3,0.2,5.8,0.2,7.8-0.2
					C91,3.7,93.3,3.6,96,3.6c1.2,0,2.5-0.2,3.7-0.2c1.7,0,2.7,0.6,4.2,0.9c2.1,0.3,5.7,0.3,7.8,0.2c2.3-0.2,4.6-2.1,7.4-1.1
					c-0.1,2-0.3,3.9-0.5,5.6c-0.3,2.6-1,5-0.6,8c0.3,2.4,0.6,4.6,0.6,7c0.1,2.7-0.8,4.4-1,6.6c-0.1,1,0.7,2.2,0.6,3.5
					c-0.1,0.7-1.3,1.3-1.4,2c-0.1,0.8,0.9,1.6,0.9,2.6c-0.1,1.2-0.4,2.2-0.4,3.5c0,1.8,0.2,3.1-0.2,5c-0.6,3.4,1.4,5.5,1,9
					c-0.6,4-1.2,8.2-1.3,12.3c-0.1,2.2,1.3,4,1.4,6.2c0,0.6-1,1.4-1,2.1c0,1.9,1,2.5,1,4.1c0,0.7-0.9,1.4-0.9,2.1
					c0,1,0.4,3.1,0.6,4.1c0.2,1.8-0.1,3.6-0.1,5.1c0,1.6,0.6,2.3,0.8,4.1c0.3,2.4,0.1,5.8,0.1,8.2c0,4.8-0.6,9.4,0.6,14.3
					c0.6,2.2-0.6,3.4-0.6,5.2c0.1,1.4,1.3,2.3,1.4,3.5c0.1,1-0.6,2-0.6,3.1c0,2,0.6,3.4,0.9,5.6c0.3,2.8-0.6,5.2-0.1,8.2
					c0.2,0.7,1.2,1.2,1.3,1.9c0.1,0.8-0.5,2.2-0.6,3.1c-0.1,2.7,0.7,5.6,0.6,8.2c-0.1,1.6,0.8,3.2,0.9,4.6c0.1,2,0.1,4.5,0.2,6.6
					c0.1,2.6,1,4.6,1.2,7c0.2,2-0.1,3.8,0.2,6.2c0.2,1.8,1.2,3.3,1.4,5c0.2,1.5-0.6,3.7-0.4,5.2c0.2,1.9,1,3.1,1.4,5
					c0.3,1.5-0.3,3.7,0.1,5.1c1.1,4.2,1,8.6,2.3,13.1c1.4,4.9,0.8,9.7,1.9,14.2c0.7,3,0.6,5.1,0.9,8.2c0.3,3.1,2.1,5.9,2.7,8.9
					c0.5,2.5-0.6,4.2,0.5,7.2C136.2,256.3,136,258.4,134.6,260.7L134.6,260.7z"/>
			</g>
			<g id="Group_16_" transform="translate(281.57886 327.73184)">
				<path id="Shape_15_" class="st1" d="M84.1,22.2c0.4,0.7,0.7,1.4,1.1,2.1c-0.3,1.4-0.4,2.7-0.4,4.1c-0.2,1.9-0.3,3.5-0.3,5.1
					c0,3.5,0.1,7.7-0.2,11.3c-0.2,3.7-0.5,6.5-1.2,10.2c-0.5,2.5,0.2,4.1,0.2,6.2c-0.4,0.6-0.7,1.3-1.1,1.9c0.3,0.7,0.6,1.4,1,2.2
					c-0.4,4.6-3.1,9.3-3.4,14c-0.1,2,0.2,3.4,0,5.2c-0.2,1.8-0.8,4.1-1,6.1c-0.2,2.1-0.6,4.1-1.2,6c-0.7,2-0.5,3.2-0.8,5
					c-0.6,3.8-1.2,7.1-2.2,11c-0.8,3.4-2.3,6.8-3.2,9.8c-0.6,1.9-1.7,4.6-2.3,6.8c-0.5,1.5-0.7,3.9-1,5c0.7,1,0.6,1.6-0.6,2
					c-1.1,0.6-1.6,1.4-1.4,2.7c-0.3,0.6-0.7,1.2-1,1.8c0.1,0.6,0.2,1.2,0.6,1.7c-0.4,0.7-1.8,1.4-2.1,2.2c-0.6,1.6,0.8,1.2,0.1,3.3
					c-1.3,3.8-3.9,6.8-7.1,8.2c-1.5,0.6-10.9,1.2-12.3,1c-0.6-0.1-2.2-1.1-3.4-1.2c-5.4-0.6-8.5-3.8-8.1-7.9c0.3-1.2,0.6-1.9,0.8-3
					c0.1-0.5-0.8-1.3-0.6-1.8c0-0.1,0.6-1.4,0.6-1.4c0-0.2,0.6-1.1,0.6-1.4c0.1-0.5-0.6-1.2-0.5-1.7c0.6-2.4,2.1-3.3,2.7-5.7
					c0.6-2.6,0.1-5.6,0.6-8.2c0.2-1.4,0.7-2.6,1-4c0.2-1.4,0.7-2.3,1-3.4c0.4-1.9,0.2-4.2,0.6-6.2c0.5-2.7,2.1-5.5,2.2-8.5
					c0-1.4-0.4-2.2-0.2-3.7c0.2-1.7,0.8-3.4,1-5c0.2-3,2.1-6.7,2-9.6c0-0.9-1.4-1.4-1.4-2.2c0.2-1.3,1.6-2.4,1.8-3.9
					c0.2-1.4-0.6-2.6-0.4-4.2c0.2-1.8,1.2-3,1.3-5c0.2-3,0.6-6.2,0.6-9.2c-0.1-1.4-0.7-2.7-0.6-4.2c0.2-1.8,1.1-3,1.2-5
					c0.2-3.4,0.5-6.8,0.2-10.3c-0.2-1.7,0.6-3.2,0.5-4.6c-0.2-1.5-1-3-1-4.6c0-0.5,0.7-1,0.7-1.5c0-0.6-0.4-1.4-0.4-2.1
					c0.1-1,0.2-2.1,0.2-3.1c0-3,0.3-5.8,0-8.8c-0.3-2.6-0.5-5.3-0.3-8c0-0.4,0.9-0.6,1-1c0.1-0.8-0.7-1.1-0.8-1.9
					C47,3,47,1.9,47.2,0.2c0.2-1.9,0.6-4.4,0.3-6.2c-0.1-0.5-1-1.1-0.9-1.5c0-0.1,0.5-1.6,0.5-1.6c0-0.2,0.7-0.8,0.7-1
					c0.1-0.6-0.8-1.4-0.8-2.1c0-2.4-0.6-4.5-0.6-6.8c0.3-0.1,4.4,0.2,5.1,0.3c1.4,0.1,2.2,0.9,3.5,1s3.1-0.5,4.6-0.6
					c0.8,0,1.8-0.2,2.6-0.2c0.7,0.1,1.9,1,2.6,1c1.5-0.1,2.9-1.4,4.4-1.4c0.7,0,0.8,1.2,1.7,1.3c0.6,0.1,1.4-1,2-1
					c1.9,0,3.4,0.7,5,0.6c1.7-0.2,3.4-1.4,5.2-0.7c-0.2,0.9-0.5,1.8-0.6,2.6c0.2,0.6,0.6,1.4,0.8,2c0.2,2-0.2,4.2,0.1,6.2
					c0.2,2,1.3,2.7,1,5.1c-0.2,1.8-0.3,2.9-0.1,4.6c0.6,3.9,1,6.8,0.4,10.8c-0.3,2.6,0.4,4,0.6,6.2c0.2,0.7,0.5,1.4,0.7,2.1
					C85,20.9,84.6,21.5,84.1,22.2L84.1,22.2z"/>
			</g>
		</g>
		<g id="Group_18_" transform="translate(57.28601 86)">
			<path id="Ellipse" class="st2" d="M77.2,55.8c0-14.6,11.9-27.2,27.2-27.2s28.8,13.1,28.8,27.6s-12.3,24-27.6,24
				S77.2,70.3,77.2,55.8z"/>
			<path id="Ellipse-2" class="st2" d="M159.3,77.8c0-13.5,12.7-21.6,26.4-21.6s30,8.6,30,22S203,105,189.3,105
				S159.3,91.2,159.3,77.8z"/>
			<g id="Group-2" transform="translate(16.5 20)">
				<path id="Ellipse_1_" class="st3" d="M73.9,33.4c0-4.9,3.9-8.8,8.8-8.8s8.8,3.9,8.8,8.8s-3.9,8.8-8.8,8.8S73.9,38.2,73.9,33.4z"
					/>
				<path id="Ellipse-2_1_" class="st3" d="M170,56.6c0-4.9,3.9-8.8,8.8-8.8c4.9,0,8.8,3.9,8.8,8.8s-3.9,8.8-8.8,8.8
					S170,61.4,170,56.6z"/>
				<path id="New-shape-6" class="st5" d="M77.1,31.8c0,0,1.4-4.5,8-3.6"/>
				<path id="New-shape-7" class="st5" d="M173.2,55c0,0,1.4-4.5,8-3.6"/>
			</g>
		</g>
	</g>
	<g id="Group_19_" transform="translate(57.28601 86)">
		<g id="Group-2_2_" transform="translate(16.5 20)">
			<path id="Ellipse_2_" class="st3" d="M75.3,36.4c0-5.6,4.5-10.2,10-10.2c5.4,0,9.8,4.6,9.8,10.1c0,5.6-4.5,10.2-10,10.2
				C79.8,46.6,75.3,42,75.3,36.4z"/>
			<path id="Ellipse-2_2_" class="st3" d="M170.4,59c0-5.6,4.5-10.2,10-10.2c5.5-0.1,9.9,4.5,9.9,10.1s-4.5,10.2-10,10.2
				C174.8,69.1,170.4,64.6,170.4,59z"/>
			<path id="New-shape-7_2_" class="st5" d="M184.9,52.6"/>
			<path id="New-shape-7_1_" class="st5" d="M175.8,56.8"/>
		</g>
	</g>
</g>
</svg>
