<svg version="1.1"
      xmlns="http://www.w3.org/2000/svg"
      xmlns:xlink="http://www.w3.org/1999/xlink"  id="snapshot-76726" width="250" height="250" viewBox="0 0 250 250"><desc>This image was made on Patterninja.com</desc><defs>
<!-- image 79520 -->
<g id="transformed-79520" data-image="79520" transform="translate(-125, -104) rotate(0, 125, 104)"><g><svg version="1.1" width="250px" height="208px" viewBox="0 0 250 208"><g id="original-79520"><svg xmlns="http://www.w3.org/2000/svg" id="Layer_1" viewBox="0 0 665 555" xmlns:xlink="http://www.w3.org/1999/xlink" version="1.1" preserveAspectRatio="xMidYMid meet">
  <g id="flamenco-119" transform="translate(2.5 2.5)">
    <g id="Group_17_">
      <path id="New-shape-3" d="M133.9 380.7l7.4-.5 16.3 15.3s5.7 37 13.6 68.9c2.9 11.5 8.9 15 14 16.8 9 3.3 18.2-2.3 20.4-4.8 3.5-3.8-2.6-23.1-4-36.4-1.4-13.3-.4-12.8-.4-12.8s25.3 13.8 55.6 15.6c30.3 1.8 65.7-8.4 65.7-8.4s-1.4 16.3-7.2 35.6c-2 6.6 2.2 11.3 5.6 12.8 4.2 1.8 13.3 2.2 18.4-1.2 7.7-5 21.4-65.7 21.4-65.7L379 398s-2.7 10-6 29.2c-2.2 13.3-6.2 23.3-9.6 33.2-1.5 4.4-5.6 14.1-4.4 18.4 1 3.4 10.4 4.8 10.4 4.8l7.2.5c3-.4 9.8-.6 12.8-4.1 3.7-4.2-1.6 7.7 16.8-40s14.4-104.5 14.4-104.5 8.4-1.8 29.2-11.6c71.2-33.5 54.4-70.8 60.5-111.3 2.5-16.7 14.1-29 34-34s45.7-5.2 53.6-9.2c21.3-10.8 23.2-37.1 9.6-51.2-4.6-4.9-8.4-9.7-31.2-10-14-.2-27.5 3.7-32 5.6-83.7 35.2-77.6 136.9-78.1 148.5-.5 11.6-5.4 22.8-19.6 32.8-7.1 5-32 9.2-32 9.2s-2.1-17.9-13.6-28.8c-11.5-10.9-25.4-16.3-41.2-16.4s-11.4 1.6-40.4 6.4c-71.6 11.9-57.7-43.6-57.7-43.6l6.4-12.8 14.4-29.2s17.6-18.3 28-35.2 13.6-30.4 13.6-30.4-11.7-2.2-26.4-2.4c-14.7-.2-32.8 4.4-32.8 4.4s-15.2-19.1-35.2-26.8-44.8-4-44.8-4-8.1-14.5-17.6-24.4c-9.5-9.9-20.4-15.2-20.4-15.2s-7.2 11-10.8 29.2-3 25.8-3.5 43.7" fill="rgba(0, 62, 63, 1)" stroke="none"/>
      <path id="New-shape-2" d="M149.7 95.7S104.5 143 92.4 221.4c-5 32.7-3 76.6.8 122.9s19.2 94.7 23.2 107.3c4 12.6 10.4 30.9 20 30.8 9.6-.1 21.2 1.2 23.1-8 2-9.4-7-30.8-12.3-50.8l-10-56.4-6.4-238.6" fill="rgba(0, 62, 63, 1)" stroke="none"/>
      <g id="Group" transform="translate(.85 73.247)">
        <path id="Shape" d="M271.2 370.3c-4.7.2-9 .6-13.3.2-4.7-.5-9.9-1.1-14.4-1-1.7.1-3.4-.6-5-1.1-1.5-.5-1.4-.9-2.9-1.1-1.3-.2-1.3.6-3.2.2-1.7-.4-3.9-2.1-5.7-2.7-3.5-1.3-6.6-1-9.9-2.7-7.2-3.8-13.5-5.2-20.8-9-1.6-.8-2.8-1.9-4.5-2.6-1.9-.7-4.6-2.2-6.3-3.4-2.3-1.6-4.4-3.2-6.7-4.7-1.6-1-2.9-2.6-4.5-3.5-4.3-2.2-6.2-6.6-10.5-9-.8-.5-2.5-.6-3.1-1.1-.6-.4 0-2.1-.5-2.6-.6-.5-2.2-.8-3-1.4-1-.7-3-2.6-3.8-3.4-1.2-1.2-2-3-3.2-4-1-1-2.8-2.2-3.9-3.4-.8-.8-1.3-2.6-2.1-3.7-.4-.5-1.4-.6-1.8-1.2-1.7-1.9-2.9-3.6-4.9-5.3-1.4-1.2-3.1-3.4-3.9-4.8-.8-1.3-2.5-2.4-3.5-3.8-.5-.7-.4-1.8-.9-2.6-.2-.1-.4-.2-.6-.2-1.2 0-1.6-.6-1.2-1.7-1.5-2.2-2.5-5.8-4.5-8.1-.4-.5-1.8-.6-2.2-1-1.1-1.6-.6-2.6-1.4-4-.3-.6-1.8-.5-2.2-1-.6-1-.5-3-1-4.2-1.2-2.5-3.8-4.1-4.8-6.7-.2-.6 0-1.5-.2-2.2-.5-1.3-1.1-2.1-1.7-3.2-3.9-8.6-7.4-16.3-10.9-25-1.5-3.8-2.1-8.2-3.3-11.9-2.1-6.6-3.1-13.3-4.2-19.9-.5-2.8 0-5.4-.6-8.2-.4-1.9-.9-1.6-1-4 0-.9.3-2.3.2-3.1-.2-1.8-.7-3-.9-5-.2-2.2.3-4.1.3-6.2 0-4.3-.1-8.3.3-12.3.3-3.4 1-6.7 1.1-10.1 0-.7-1-1.4-1-2.2 0-2.3 1.5-3.9 2-5.9.2-.9.6-3.3.6-4 0 .6-.4-4.1-.6-3.5-.1.2.6-2.8.6-1.6 0 .2.5-3 .5-3 .2-.6 1.1-1.1 1.3-1.8.3-1.9-.4-2.6-.2-4.2.3-3.3 1.4-7.4 2.5-10.5.7-2.2 1.8-4.6 2.4-6.7.6-1.8 1-3.3 1.4-4.9.1-.4 1-1.9 1.1-2.3.2-.6.5-1.8.7-2.5.6-1.8 2-3.2 2.6-5 1.2-3.8 1.9-7 3.5-10.6 1.9-4.5 4.1-9.8 7-13.6 1.8-2.2 1.8-4.2 3-6.5.4-.8 1.6-1 2-1.8.6-1.1.2-2.2 1-3.5 2.2-4.1 5.5-6.9 7.2-11.1.6-1.5 1.9-4.4 3.4-5.4 1.1-.8 3-1.4 4.6-2 1-.3 2.9-1 4-1.1 1.5-.2 3 .4 4.3.2 1.2-.2 2.6-1 3.9-1.4 1.7-.4 2.6-.2 4.2-.3 2.1-.3 3.9-2 5.8-2.6 2.6-.8 5.4-.6 7.7-1 .9-.2 1.5-1 2.4-1.2 1-.2 1.8.5 2.6.2 1.6-.4 1.3-1 3.4-1.3 1.1-.2 2.1.2 3.2.1 5.4-.8 11.5-1.7 17.5-2.4 2.7-.3 4.7-.2 7.3.5 1.7.4 6.4 1.3 7.6 3.1.6 1 .3 3.2.5 4.9.3 3 .2 4.7-.1 7.5-.2 2.4.6 4.9.3 7.6-.2 1.4-.8 1.5-.8 3 0 1.3.3 2.6.2 4-.1.9-1.1 4.2-1 5 .3 2.1 2.4 5 3.3 6.4 1.1 1.8 2.8 3.9 4.1 5.9.3.6.1 1.7.5 2.2 1.2 1.6 3.2 2.6 4.4 4.4 1.3 1.8 1.7 3.4 3.5 5.1 1.3 1.1 3.2 1.7 4.2 3 1.5 1.9 1.6 4.2 4 6.2.9.7 1.9 1.1 2.6 1.7 1.1.9 1.4 1.6 2.4 2.6 3.2 3.3 6.7 7.5 10.6 10.5 2.1 1.6 4 3.1 5.8 5.1.4.4 1.4 1.5 1.8 1.8.7.5 2.1 1 2.8 1.5.8.7 1 1.8 1.8 2.6.5.4 1.4.6 1.8 1 1 .8.9 2 1.7 2.7.5.5 1.7.2 2.2.6 3.8 3.8.8 6.4-1.1 10.3-.8 1.6-3 3.5-3.6 5.2-.3.8.2 2.3 0 3.3-.2 1.1-1 1.8-1.3 2.9-1.3 4.3-1.6 9.8-.8 14.4.1.7 1 1.2 1.2 1.8-.2.4-.3.8-.5 1.2-.7.9-.6 1.5.4 2 .2 1.5 1.4 4.5 2.5 5.8 1.7 2 2.5 4.3 4.2 6 1.8 1.7 5 3 7.1 4.4 3.7 2.5 8 4.2 12.5 5 1.7.3 3.2 1 5 1.4.6.2 1.6-.7 2.2-.6 1.4.3 2.3 1.6 4 1.7 2.3.2 4.7-1.1 7.4-.6s2.8 0 5.1-.6c.9-.2 2.3-.2 3.1-.3-.5.1 2-.9 1.9-.9 2.2-1 4.9-.9 7.1-1.7 1-.3 1.7-1.4 2.7-1.8.6-.2 2.8-.5 3.1-.6 2.2-.5 5-1.4 7-1.8 2.1-.4 4.7-.2 7.2-.6.6-.1 3.7-1.6 4.1-1.6.9 0 2.1 1 3 1.1 4.7.8 9.2-1 13.7.2.9.2 1.5 1.2 2.4 1.4.4.1 2.2 0 2.6 0s2.2 0 2.6.2c.6-.2 1.1 0 1.4.8.5 1 1.1 1.2 2 .6.3.2 1.6.2 2.1.4.9.3 1.8 1.4 2.6 1.8.6.3 1.6-.2 2.2 0 .8.4 2.5 2.1 3.4 2.6 2.2 1.3 4.6 1.8 6.8 2.7 2.4 1 3.2 2.8 5 4.6 3.4 3.4 7 5.9 10 9.4 1.6 2 2.2 3.5 3.2 5.8 1 2.2 1.9 3.7 3.1 5.8 1.7 2.9 1.2 4.9 2.2 7.8.6 1.8 2.2 3.4 2.6 5.6.2 1.1-.2 1.9.1 3.1.2 1 1 1.8 1.1 2.9.2 2.4-1.1 5.5-.6 8.2.2 1.3 1.1 2.4 1.3 3.5.2 1-.5 1.4-.6 2.5-.1 2.4-.3 4.8-.4 7.2-.2 3.2-.5 5.1-1.9 7.9-.6 1.2-1.5 2.2-1.6 3.8-.5.6-.6 1.4-.1 2.2.6 1 .3 1.6-.7 1.9.2-.9-.9 2.2-.8 1.9-.6 1.4-.6 3.3-1.4 5-.8 1.6-2.1 3-2.9 4.3-.9 1.5-1.2 3-2 4.8-1 2.2-3.6 3.5-4.8 5.4-2.1 3.4-3.5 7.3-6.9 10.2-3.8 3.4-6.1 6.7-9.5 10.1-.4.4-1.7 1.2-2.2 1.5l-1.8 1.8c-.9 1-2.5 2-3.5 3-.5.5-.4 1.7-.9 2.1-.4 0-.8.1-1.3.1-1-.3-1.7.1-1.7 1.2.2-.2-1.2 1.4-1.4 1.6-1.9 1.8-4.8 3-6.6 4.8-1.3 1.3-2.5 2.2-4 3.2-1.4 1-2.4 1.1-3.6 2-.6.4-.6 1.5-1.3 1.8-2.1 1-3 .8-4.7 2.2-2.6 2.1-5.4 1.9-8.4 3.8-1.7 1-3.1 2.9-4.9 3.9-2.5 1.4-5.3 1.6-7.8 2.6-4.1 1.5-7.6 4.4-12.3 5.1-4.5.7-8.5 2.8-12.6 4.6-2.2 1-3.8 1.1-6 1.4-2.4.2-4 .6-6.5 1.4-3.4 1.1-6.9.6-10.7 1-2.4.2-5.2 1-7.6 1.4-.3.1-2.5.2-2.6.2-.3.2-.6.4-1 .6.1-.4-.6-.8-1.3-1.1z" fill="rgba(0, 62, 63, 1)" stroke="none"/>
      </g>
      <g id="Group_1_" transform="translate(315.658 78.139)">
        <path id="Shape_1_" d="M81 223.2c2.9.3 6.2 1.6 9 1.4 1-.1 2.1-.8 3.1-.8 1.4 0 2.7 1.1 4.1 1.2 1.7 0 3-1 4.6-1 2.1 0 3.4.6 5.6.1 1.3-.3 2.1-.9 3.4-1.1 2.2-.4 3.8-.9 5.8-1.6 1.6-.6 3-.3 4.6-.6 1.8-.4 2.2-1.2 3.6-1.8 1.4-.6 2.8-.6 4.3-1.5 1.4-.9 2.2-1.8 3.7-2.8 2.5-1.8 4.2-3.2 6.5-5.7 2.7-3 3.8-5.6 5.7-9 .6-1.2 1.2-1.3 1.7-2.6.4-1.1.8-3.2 1.1-4.5.6-2.4 1-5.4 1.4-7.5 0-.2-.1-1.4-.1-1.6.1-.6.9-1.2 1-2 .2-1.8-.9-3.7-.6-5.7.6-4 1.4-8 1.3-12.3-.1-1.8-.4-2.7-.2-4.6.2-1.6.1-3.1.1-4.6 0-3 1.2-6.7 1.6-10.1.3-2.6 0-5.5 1-8.2.3-.9.6-2.5 1-3.4.2-.5-.6-1.2-.4-1.7.3-1 1.4-1.6 1.8-2.7.7-2.3.9-4.7 1.4-7 .7-3.3 2-6.2 3-9.3.4-1.3.4-2.2.9-3.5.6-1.4 1.5-2.6 2.1-4.2 1.2-3.4 2.3-6.8 4.1-10 .6-1 2.1-2.3 2.5-3.4.2-.7-.6-1.8-.3-2.5.2-.5 1.1-.6 1.3-1 1.4-3.7 4.1-5.9 6-9 1.4-2.2 2.2-5.2 3.8-7.4.2-.4 1.4-.2 1.7-.6.1-.1.7-1.4.8-1.4 1-.9 2.4-2.4 3.6-3.7 1.8-1.9 4-4.1 5.6-6 1.2-1.5 1-3 3-4.4 1.8-1.3 3.4-2.2 5.1-3.6 1-.8 3.3-1.4 4.1-2.2.6-.6.6-2.2 1.3-2.6 1-.9 3.6-.8 5-1.7 1.8-1.1 3.1-2.7 5.1-3.5 6.1-2.3 11-5.3 17.8-7.1 3.6-1 6.7-1 10.2-1.8 1.4-.4 2-1 3.4-1.1 1.8-.2 3.3.4 5.2 0 3.1-.6 4.8-1 7.7-.8 1.7.1 4.2-.6 5.7-.4s1.4.8 3 1.2c.8.2 2.6.1 3.6.2.8.2 1.6.7 2.4.9.7.1 1.6-1 2.3-.8 3.1.6 6.4 3.4 9 5.2 2.5 1.7 4.2 3.1 6.2 5.4.3.4 1.2.4 1.4.9.4.7 0 1.5.4 2.2.8 1.7 2 3.3 2.8 5 3 6.5 3 16.3 1.2 23.1-.7 2.8-2.7 6-4.2 8.9-1.4 2.7-3.2 3.7-5.4 5.5-.6.5-.5 1.4-1.1 1.9-.4.3-1.1.2-1.6.5-1.8 1.1-4 2.2-6.1 2.9-1.4.4-2.2.4-3.6.6-.8.2-2.2.2-3 .6.3-.2-2.8 1.6-2.2 1.5-1 .2-1.8-.5-2.9-.5-2 .1-3.2 1-5 1.4-3 .7-6.3.2-9.3.4-2.1.2-3.1.6-5 1.1-1.7.4-3.7-.5-5.2-.2-.7.2-2.2 1.3-2.9 1.6-1 .4-3 .6-4.1.6-1.4.1-2.5-.6-3.8-.2-1.4.4-2.8 1.5-4.3 1.8-3.8.9-6.6 1.7-10.1 3.7-2.6 1.6-5.4 2.3-7.8 4.1-.9.6-2.2 1.5-3 2.2-.2.2-.7 1.1-.9 1.3.2-.2-2.2 1.7-2.1 1.6-1.4 1.7-2.8 3.8-4 5.9-.5.8-1 1.8-1.4 2.6-1 1.5-1 2.3-1.7 3.7-2.6 5.6-3.2 13.2-3.9 19.2-.3 2.4.7 5 .4 7.6-.2 1.3-.9 2.3-1.1 3.6-.4 2.4.6 5.1.5 7.1 0 .1.2 1.7.2 1.7 0 .2-1 .6-1 1 0 1 .6 2.3.6 3.4.1 1.4-.1 3.7-.2 5.1-.2 1-.4 3-.6 4-.5 2.6-1.8 5.3-2.4 7.8-.8 3.2-1.8 6-2.6 9.2-1.4 5.6-4 9.4-6.9 13.5-.3.4.3 1.4.1 1.8-.4.6-1.8.3-2.3.9-1 1-2.1 2.9-3.1 4-1.3 1.5-1.4 3.3-2.5 4.6-1 1.3-2.6 2-3.7 2.9-.5.4-.5 1.4-1 1.9-.4.3-1.4.1-1.8.4-1.6 1.2-2.7 2.6-4.1 3.9-2.6 2.6-5.2 3.5-8.1 5.4-2.3 1.5-4.8 3.2-7.4 4.6-1.5.8-2.6 1.6-3.9 2.4-.6.3-1.5 0-2.1.4-.6.4-.8 1.5-1.4 1.8-2.8 1.5-5.8 1.6-8.6 3.3-3 1.8-5.9 1.3-8.9 2.5-1 .4-2.1 1.4-3.2 1.8-2 .8-4.3 1.4-6.4 1.9-4.5 1.2-8.7 1.8-13.2 2.5-3.5.6-6.8.6-10.2 1.4-1.9.4-3.7.1-5.7.2-.7.1-1.4-.2-2.1-.2-.8.1-1.1 1-2.1 1-2.5 0-5-.7-7.2-.8-3.4-.1-6.6-.6-9.8-.8-3-.2-6.7-1.3-10.2-1.9-2-.4-3.4.2-5.3.2-2.3-.2-3.8-1.9-5.8-2.6-3-1.2-6.4-.9-8.7-1.3-.3-.1-1.4-1.3-1.7-1.4-.4-.2-1.2.2-1.6.1-1.2-.6-2-1.1-3.2-1.5.9-.4 1.8-1.8 2.8-2.4 1.7-1 3.9-1.6 5.7-2.4 2.5-1.1 5.2-1.6 7.8-2.8.3-.2 2.5-1.4 2.6-1.6.2-.2 2.2-1.8 2.5-1.9.5-.2 2.6-.6 3-.8 1.1-.4 2.6-1 3.8-1.4 4-1.4 7.4-4.1 11-5.6 5.8-2.4 11.5-5.2 16.6-7.6z" fill="rgba(0, 62, 63, 1)" stroke="none"/>
      </g>
      <g id="Group_2_" transform="translate(35.613 45.9)">
        <path id="Shape_2_" d="M246.1 119.2c0 2.3-.3 3.8-.7 6.1-.3 2.1.1 3.8.1 5.7 0 1-.4 3.4-.8 4.6-.3 1-1.1 1.8-1.5 2.8-.6 1.7-.1 3.5-.6 5.1-.3 1.1-1 2.7-1.4 3.8-.6 1.4-1.5 2.2-2.1 3.6-.2.6.5 1.7.2 2.3s-1.5.7-1.9 1.4c-.7 1.4-1 2.5-1.5 3.8-1 2.4-1.9 3.2-3.5 5-3 3.6-4.7 7.6-8.2 10.4-1.8 1.5-1.5 3-2.7 4.5-1.6 2.2-3.9 2.1-5.7 3.7-.7.6-1.2 2.2-2.1 3.1-.5.5-3.2 2.1-3.4 2.2-1.2.5-2 0-3.2.7-1 .6-1.3 1.7-2.2 2.4-2.2 1.9-4.4 1.4-6.8 2.4-2.2 1-4 3.2-6.1 4.1-3.4 1.4-8.6 2.2-12 2.8-4 .8-7.9 1-12.3 1.3-2.7.2-5.4 1-8.2.8-2.6-.2-5-1.4-7.5-1.8-2-.2-3.5.6-5.7-.2-.7-.3-1.5-1.4-2.3-1.5-1-.2-2.6.1-3.8.1-3.4-.2-6.4-2.6-9.3-4.5-2.3-1.4-4.6-1-6.9-2.2-.6-.3-1-1.2-1.5-1.5-1.3-.8-2.6-.9-3.8-1.6-2.5-1.5-3.6-3.7-6.2-5.4-1.8-1.2-3.2-2.3-4.8-3.8-3.2-3-5.8-5.9-8.8-9.3-5.4-6.2-8.8-13.2-11.8-20.9-.9-2.4-2.2-3.9-2.6-6.7-.4-3-1-6.1-1.6-9-1.1-4.7-2.1-9.8-1.4-15.2.4-3.4-.1-6.3.7-9.7.5-1.9 0-3.9.3-5.7.2-1 1.1-1.9 1.4-2.8.7-1.9-.2-3.7.2-5.3.5-1.8 2.2-3.5 2.8-5.6.7-2.6 1-3.3 2.5-5.6 2-3.1 3.7-6.6 5.6-9.8 2-3.3 4.1-6.1 6.6-9.1 1.6-1.8 2.9-2.8 4.4-4.2.5-.4.4-1.7.9-2.1 1.4-1.2 3-1.2 4.2-2.2 1.4-1.2 2.6-2.6 4.2-3.7s2.7-1.5 4.5-2.6c.2-.2 1.7-1.4 1.6-1.4-.6.2 2.1-1.1 1.8-1 .4 0 .8.1 1.2.1.5-.6.9-1.2 1.4-1.8 1.6-.9 3-1.5 4.7-2 9.2-2.6 17.5-6.8 26.7-7 1.4 0 2.5.6 3.6.6 1 0 1.6-1 2.6-1 2.4-.2 1.6.4 3 .5.6 0 2-.2 2.6-.1 3.6.5 7 1.4 11.1 1.9 4.5.6 8.6 2.2 12.7 3.7 3.5 1.3 8.1 3 11.8 5.1 2.2 1.3 4.6 3.1 6.8 4.6.6.4.6 1.4 1.2 1.8.7.5 2.2.6 3 1.1 2.1 1.3 4.3 4 5.8 5.8 1.2 1.6 2.8 3 4.2 4.5 3.6 3.8 5.2 6.6 7.5 11 2.6 4.9 5.9 8.2 7.4 13.5.7 2.5.9 5.7 1.8 8.1.1.2 1 1.8 1 1.8.4.2.7.4 1 .8-.2.7-.4 1.5-.6 2.2.8 5.9 2.4 11.3 2.4 16.5z" fill="rgba(0, 62, 63, 1)" stroke="none"/>
      </g>
      <g id="Group_3_" transform="translate(52.794 .373)">
        <path id="Shape_3_" d="M84.6 146.8c-1.1-3.8-2.7-7.6-2.8-11.4 0-1.7-.9-3.2-1.3-5-.6-2.6-.8-4.6-1-7 .2-.4.4-.7.6-1.1-.4-.6-.9-1.3-1.3-1.9-.1-1-.5-3.2-.5-4 .1-1.6 1.1-2.2 1.1-4.2 0-.6-1.4-1.4-1.4-2-.1-.8.7-3.2.7-4.1.1-1.4 0-2.6-.1-4.1-.2-2-.6-1.7-.3-4.1.2-1.4 1-2.5 1.1-4 .2-2.9-.3-5.4.2-8.2.4-2.2 1.1-3.8 1.5-6.1.2-1-.5-1.7-.2-2.7.2-.9 1.1-1.5 1.3-2.4.2-1-.2-1.8.1-2.6.4-1.4 1.3-2.6 1.8-4.4 1.2-4.6 2.3-9.5 4.2-14 2.3-5.4 3.4-10.6 9-6.2 3.5 2.8 7.4 3.6 10.4 7 1.5 1.8 2.5 3.2 4.5 4.5 2.3 1.4 2.9 2.3 4.3 4.6 2.2 3.5 6 4.8 8.2 8.1 1 1.4.6 2.1 1.9 3.6.5.6 1.6 1.5 2.1 2.2 1.4 1.8 2.6 3.8 4 5.8 2.2 3.1 3 6.2 5.4 9.7 1.2 1.8 1.9 4.6 2.1 6.7.1 1.7 1 .2.3 2-.2.6-2 1.2-2.6 1.6-1.6 1.3-2.1 2.1-3.9 3.2-2.2 1.2-1.8 2.6-3.3 4.1-1.6 1.7-2.9 1.2-4.6 2.3-1.7 1.1-2.2 3.1-4.2 4.5-1.8 1.3-3.9 1.6-5.5 2.8-1.5 1.2-1.9 3.2-3.7 4.4-1.8 1.2-3.4 1.1-5.1 2.5-1.6 1.3-2.5 3.7-3.9 4.9-3 2.6-7 4.9-9.9 7.1-1.7 1.3-3 2.6-4.7 3.8-.6.4-1.1.8-1.6 1.3-.3.4-2.5 2.7-2.9 2.8z" fill="rgba(0, 62, 63, 1)" stroke="none"/>
      </g>
      <g id="Group_4_" transform="translate(199.179 81.126)">
        <path id="Shape_4_" d="M57.9 115.7c3.6-1.9 9.1-4 12.5-6.9 1.1-1 1.2-2.4 2.6-3.5.5-.4 1.7-.2 2.2-.5.9-.6 1.2-1.6 2.2-2.2.9-.6 2.1-.6 3-1.2 2.3-1.6 4.4-4.6 6.6-6.6 1.4-1.3 2.6-2.2 4-3.3 2.1-1.7 2.6-2.8 4.2-4.6.7-.8 1.8-1.4 2.3-2.1.7-.7 1.1-1.6 1.9-2.5 1.6-1.8 3.4-3.5 4.7-5.5 1-1.5 1.9-3.8 3.1-5.2.5-.6 1.6-1.1 2-1.7.5-.6.3-1.8.8-2.5.3-.2.7-.3 1-.5 1-.1 1.4-.7 1-1.7.6-.9 1.4-2.4 2.1-3.4 1.4-2.2 1.8-5 3.5-7.2 1.1-1.5 2.5-3.5 3.2-5.1.9-2 1.5-4.2 2.3-6.6 1-3 3-4.6 3-7.4.1-3 .9-1.4-1.3-2.9-1.8-1.2-3.6-.1-5.3-.3-.3-.1-1.6-.2-1.8-.2.9.1-3-1.1-2.3-.9-1.4-.4-5.6-1.4-7.2-1.4-1.8-.1-1.9 1-4.2.6-1.6-.2-1.4-1-3.1-.9-4.5-.1-8.4.4-12.6.2-.2 0-2.3.1-2.6.2-.7.2-1.7 1.3-2.4 1.4-2 .2-2.7-1-4.2-1-.6.1-3.2 1.5-3.8 1.6-1.8.4-2.6-.3-4.1-.1-2.4.5-2 1.5-3.7 2-.5.2-1.5-.6-2.1-.4-1.9.4-4 1.2-5.8 2.1-2.2 1-3.3 1.3-5.7 1.8-1.4.3-2.6.7-3.6 1.7-2.3 2.3-1 .2-1.2 2.8-.1 1 .5 2.1.5 3 0 .7-.5 2-.4 2.6.2 1.8 1.1 3.8 1.3 5.6.3 4.1.6 7.1 1.4 11.3.4 2.2-.1 4.1.3 6.2.4 2.5 1 4.6 1.2 7.1.2 4.2.6 8.4 1.1 12.4.3 1.9.6 4.4.8 6.2.2 2.2.8 3.8 1.3 6.1.3 2.1-.7 4.2-.3 6.3.2 1.9 1 5.7 1.6 7.1z" fill="rgba(0, 62, 63, 1)" stroke="none"/>
      </g>
      <g id="Group_12_" transform="translate(59 87.267)">
        <g id="Group_5_">
          <path id="Shape_5_" d="M131.3 56.2c-.1.6-1 2.2-1.2 2.9-.4 1.2-.5 2.8-1 3.9-.6 1.6-1.3 1.9-2.3 3.2-1 1.2-1.4 3.1-2.8 4.3-1.4 1.3-3.8 2-5.3 3.1-.6.4-2.6 2.3-3.2 2.6-.5.2-1.3-.5-1.8-.3-1 .3-2.2.6-3.4 1-1.8.6-4.6 1.8-6.3 1.8-1.1-.1-1.8-.6-3-.9-1.6-.5-3.2-.3-4.6-.6-1.8-.4-5.7-1.9-7.8-3.1-2.7-1.6-4-5.1-5.8-7.4-1.6-1.9-2.6-2.6-3.8-4.9-.4-.8-2-2.9-2.2-3.7-.2-1.3.7-3.4.6-4.9-.3-3.9-1-4.7.7-8.4 1.1-2.4 2.9-4.1 4.3-6.6 1.7-2.7 2.2-3.9 5-5.5 1-.6 1.3-1 2.6-1.5 1.4-.5 3-.4 4.4-.9 1.8-.6 2.3-2 4.9-1.9 1.2 0 2.5.2 3.7.4 1.2.2 1.8.2 3 .5 1.7.4 2.8 1.6 4.2 2 1.6.5 2.9.2 4.5 1 .5.2.5 1.3.9 1.6.6.4 1.6-.1 2.2.3 2.3 1.6 4.1 3.7 6 5.6 1.2 1.1 3 1.9 3.8 3.5.6 1.2.7 2.3 1 3.5.1.4 1.2.6 1.4 1.1.2.6-.8 1.7-.6 2.3.2.5 1.2.8 1.3 1.3.5 1.5.8 2.9.6 4.7z" fill="rgba(0, 62, 63, 1)" stroke="none"/>
        </g>
        <g id="Group_6_" transform="translate(20.018 23.267)">
          <path id="Shape_6_" d="M85.7 30.2c-.1.6-2.3 3.2-2.9 3.6-2.2 1.7-3.2 1.3-5.1.8-2.2-.5-5.4-3-4.6-6 .4-1.8 4.5-5.1 6.3-5 2.2.2 2 2 3.3 3.2 1.2 1.3 3.2.7 3 3.4z" fill="rgba(0, 62, 63, 1)" stroke="none"/>
        </g>
        <g id="Group_7_" transform="translate(101.081 34.157)">
          <path id="Shape_7_" d="M112.6 45.7c0 1.2-1.7 4.6-2.2 5.8-.5 1.4-1.7 4.2-2.6 5.4-1.5 2.1-3.5 4.6-5.7 5.9-1.4.9-3 1.4-4.2 2.2-1.2.8-.8 1.5-2.8 2.1-.8-.2-1.5-.3-2.3-.5-.5.4-.8.9-1 1.4-.8.1-2.8.5-3.8.3-2.8-.5-5.2.2-8.2-.5-4.8-1.2-7.1-4-11.1-6.8-5.1-3.6-11.6-11.3-11.9-18.3-.1-1.4.7-4.6 1.1-6.2.6-2.2 1.2-1.6 2.2-3.4 1-1.4.2-2 1.8-3.5 1.4-1.4 2.6-1.9 4.1-2.9 1.2-.7 2.7-3 3.8-3.4 1.8-.7 3.5-.5 5-1 3.1-1 5.5-1 8.9-1.1 3.9-.1 6.9 1 11 2.4 3.2 1.1 4.7 1.7 7 4.1 1.4 1.5 3.5 1.4 4.7 2.5.2.7.4 1.5.6 2.3.6 1 1.3 1.7 2.2 2.2 2.1 2.6 3.5 7.6 3.4 11z" fill="rgba(0, 62, 63, 1)" stroke="none"/>
        </g>
        <g id="Group_8_" transform="translate(138.32 54.481)">
          <path id="Shape_8_" d="M60.8 22c-.1 3.1-6 4.3-8.1 3.8-2.6-.6-4.2-2.6-3-5.4.6-1.4 2.5-2.9 4.2-3 1.4-.1 6.9 2.7 6.9 4.6z" fill="rgba(0, 62, 63, 1)" stroke="none"/>
        </g>
        <g id="Group_9_" transform="translate(48.532 65.78)">
          <path id="Shape_9_" d="M74.6 15.5c4.6-.6 5.3-.5 12.4.4 7.1.9 8.7 2.4 10.8 3.2 3.8 1.4 11 7.5 12.4 9.6.4.3 1.8 5.2-1.2 6-3 .8-5.4-1.2-10.8-2.8-5.4-1.6-8.1-2.6-11.3-3.2-2.2-.5-4.4-1-6.6-1.7-2.1-.6-3.3-.9-5.3-1.5-1.4-.5-3.1-.9-5.2-1.6-2-.7-2.6-2-2.6-3.8.1-1.8 2.9-4 7.4-4.6z" fill="rgba(0, 62, 63, 1)" stroke="none"/>
        </g>
        <g id="Group_10_" transform="translate(64.238 66.874)">
          <path id="Shape_10_" d="M94.9 51.2c-1.8 1.2-4.2 2.9-6.4 3.3-1.5.3-2.3.7-3.9.7-3.8.1-5.1.2-8.6-1.9-2.2-1.3-3.8-2.7-5.2-4.2-2.1-2.2-3-6-4.4-8.9-1-2-2.1-2.4-2.2-5.1-.1-1.5.8-2.8.4-4.6-.6-3-.4-3.2.3-6.4.4-1.8-.3-4 .6-5.5.8-1.4 1.1-2.9 3-3.6h3c1.3.2 1.5-.2 3 1 1.6 1.2 1 .8 1.8 2.6 1 2.3.9 2.8-.2 5.4-1.1 2.6-1.3 3.9-1.7 6.8-.5 3.7 1 8.4 2.8 12.4 1.8 4 4.6 4.5 4.9 4.6.8.2 2.5.6 4.7.2 2.2-.3 2.7-1 4.4-1.6 1.1-.4 2.6-1 3.7-.1 1.4 1 1.3 4.1 0 4.9z" fill="rgba(0, 62, 63, 1)" stroke="none"/>
        </g>
        <g id="Group_11_" transform="translate(38.687 76.206)">
          <path id="Shape_11_" d="M84.5 29.9c3.6-2.7 4.5-13.4 6.8-16.4 1.4-1.8 5.4 2.9 7.3 4.4 2.8 2.2.6 6.7-.2 9-1.8 4.3-3.4 7-7.3 8.7-4 1.8-7 2.3-11 1.9-2.6-.3-7-2.8-8.8-5.6-1-1.4-2.2-3.8-1.8-5.3.4-1.5 2.6-3.2 4.8-.8.1.7 3.7 7.6 10.2 4.1z" fill="rgba(0, 62, 63, 1)" stroke="none"/>
        </g>
      </g>
      <g id="Group_13_" transform="translate(0 214.928)">
        <path id="Shape_12_" d="M159.8 260.4c-1 3.6-3.1 6.2-7.5 6.5-2.1.2-3.4.9-5.8.2-3-.7-3.6.2-6.6.5-1.5.2-3.6-.8-5.2-.6-1.4.2-8.2-4.7-8.8-7.7-.2-1.4-1.1-2.2-1.9-3.9-1.4-2.8-2.2-5.4-3.1-8.2-1.6-4.2-3.3-8.1-4.4-12.7-.7-2.8-1.7-6.2-3-8.7-.5-.9-1.6-1.8-1.9-2.6-.3-1.1.7-2.8.3-4.4-.9-3.1-2.5-5.4-3-8.7-.5-2.8-1.7-5.6-2.5-8.4-.3-1.1-.4-2.5-.7-3.5-.4-1.1-1.3-1.7-1.7-2.7-.6-1.8-.1-3.5-.5-5.2-.3-1.5-1.1-2.3-1.5-3.8-.6-2.1-.2-4-1-6.1-1.2-3.4-1.8-6.6-2.3-10-.2-1.6 0-3.7-.3-5.2-.3-1.4-1.3-2.2-1.6-3.9.1-.7.2-1.4.3-2.2-.4-.6-.9-1.3-1.3-1.8-.2-2.2.1-4.6-.2-6.7-.3-2.5-.3-5-.9-7.7-.4-1.8-1.1-1.8-1.4-4-.1-1 .1-2.1 0-3.1s-.2-2.6-.4-3.6c.2-.6.5-1.1.6-1.6-.5-.6-1-1.3-1.5-1.9-.4-1.8-.2-2.5-.1-4.2 0-.9.2-2.5.2-3.1.2-1.8-.6-3.2-.9-5-.2-1.2-.1-2-.3-3-.3-1.4-.6-2.5-.6-4.1.1-3.3 1-6.8.3-10.3-.6-3-1.5-5.1-1.2-8.2.2-2.2.7-5.1.6-7.2-.2-2.5-1.7-4.6-1.4-7.2.2-1.1 1.1-2.1 1.3-3.1-.4-.7-.8-1.4-1.1-2.1.4-.7.8-1.4 1.1-2.1-.2-1.8-1.6-1.8-1.6-4.1 0-.6.9-1.4 1-2.1.3-3.2-.1-6.8.2-10.2.2-2.6-.6-3.7-.7-6.2-.3-3.3 1.2-7 1.4-10.2.2-4.1.5-8.2.8-12.3.3-3.4.6-6.6 1-10.2.4-2.1.9-3.8 1-6 0-1-.6-2.2-.2-3.2.9-1.7 8.7-1 11.5-1 4.1-.1 8.2.2 12.3.1 1.8-.1 3.2-.5 5.1-.3 1 .1 2 .6 3 .6 1.3 0 1.9-.8 3-.9 1.4-.2 3.7.1 5.1.4.7.2 2.5-.2 3 .4.5.6-.6 5.2-.7 5.9-.2 1.7.2 3.6.1 5.1-.1 1.1-.7 1.8-.9 3-.4 2.6.1 5.6 0 8.2-.1 2.4.1 5.2-.4 7.1s-.9 4.6-.9 7.1c-.2 5.7.9 10.9 0 16.4-.3 1.8-.9 4.3-.6 6.2.2 1.4 1 1.6 1 3s-.4 2.7-.3 4.1c.1 1.8.2 4.2.2 6.2.1 2.8-.2 5.6-.3 7.9.1-.6 1 2 1 1.8 0 .1-.1 2.5-.2 2.6-.1.6-.3 2.4-.3 3.1.3.6.6 1.4 1 2l-.9 2.1c-.1 4.9 1 9.4 1 14.4 0 3.6-.4 6.6.2 10.3.5 3 .6 5.1.7 8.2.1 1.3.8 2.6.9 4.1.1 1.8.3 3.4.5 5.1.2 2.2 1.2 4.9 1.3 7.1 0 1-.8 2.1-.8 3.2.1 1.4.6 2.7.8 4.1.2 1 .5 2.6.5 3.6.1 1.1-.3 2.6-.2 3.7.2 1.9 1.4 2.4 1.7 3.9.4 2.2-.1 4 0 6.2.2 3.6 1.9 6.6 2.3 10 .2 1.1-.5 3-.5 4.2.1 2.1 1.1 4 1.4 6 .5 3 .7 4.3 1.7 7 .8 2.4.4 5.4 1.1 7.8.5 1.8 1 .3 1.4 3.2.1.6-.2 2.3-.2 2.9-.1-1 1.4 3 1.1 2.2.4 1 .2 3.3.5 4.1-.2.4-.2.8-.4 1.1.6.6 1.2 1.1 1.8 1.7.2.8.2 2.2.5 3 1.6 6.2 2.9 12.9 4.3 19.1 1 4.1 2.8 7.6 4.2 11.6 1.4 2.8.7 4.4.4 6.9z" fill="rgba(0, 62, 63, 1)" stroke="none"/>
      </g>
      <g id="Group_14_" transform="translate(335.629 327.86)">
        <path id="Shape_13_" d="M85.3 22.1c-.4.7-.7 1.4-1.1 2.1.2.7.2 1.4.4 2.1 0 1.7.2 3.1.2 4.6-.2.5-.5 1-.7 1.5.3.6.6 1 1 1.6 0 1-.2 2.4-.3 3.6-.2 1.6.4 3.6.2 5.1-.2 1.6-1.4 2.6-1.7 4-.6 2.7-.3 6.8-.2 9.2.1 2.7.1 5.7-.9 8.2-1 2.8-2.1 6.4-2.1 10 0 3.2.1 7.3-1 10.2-.3 1-1.5 1.9-1.8 2.7-.3 1.3.5 2.6 0 4.2-.4.4-.9.8-1.3 1.3-.6.3-.6.9-.2 1.5 0 0-.8 2.7-.9 3-.6 3-1.4 5-2.2 7.8-.9 3-.4 5.4-2 8.5-1.5 3-2.4 5.9-3.7 9-1 2.2-1.5 4.5-2.3 6.8-.5 1.4-1.2 1.4-1.8 2.6-.7 1.7-.2 2.7-.8 4.1-.3.7-1.4 1.8-1.8 2.6-.6 1.1-.9 2.6-1.4 3.8-.6 1.5-2.2 2.6-2.7 3.8-.4.9-.1 2.2-.6 3.2-1.1 3.2-1.8 3.8-3 5.4-2.1 2.9-8.7 3.1-11.8 3.2-2.8.1-7.7-.5-10.3-.9-1.5-.2-5.8-1.8-6.8-3-1.9-2.4-1.5-1.8-1.8-5.3.2-.3.7-3.3.9-3.9.6-2.6 1.8-3.5 2.8-5.5 1-2.1.3-4.4.9-6.2.2-.6 1.4-1 1.6-1.6.6-1.6.5-3.4 1.1-5 .6-1.6 1-2.9 1.5-4.3.2-.6.9-1.4 1-1.8.1-.6-.3-1.7-.2-2.2 1.3-4 3.1-7.9 3.6-12.3.1-.6-.6-1.5-.4-2.2.2-.6 1.4-1 1.7-1.8.4-1.4.6-3.8.6-5.1 0-1-.1-2.6.1-3.7.2-1.8 2.1-3.7 2.3-5.3.2-1.4-.6-2.9-.6-4.2.1-.7 1.1-1.2 1.3-1.8.2-.6-.7-1.5-.6-2.2s1.4-1.2 1.4-1.8c.1-.6-.8-1.5-.7-2.2.1-1.4.3-3.3.6-4.6.1-.8.8-1.5 1-2.5.2-1.3-.2-2.8-.2-4.2 0-2.4.8-3.9 1-6.1.1-1.2-.1-2.6 0-3.6.1-.5 1-1 1-1.4.2-2.5-.7-4.7-.2-7.2.5-2.6.6-4.5.6-7.1 0-1.8-.5-3.5-.4-5.1 0-1.7.9-2.2 1.2-4.1.5-2.3-.8-4.8-.7-7.2.1-2.2.6-4 .6-6.2s-.6-4.1-.6-6.2c-.1-2 0-3.2-.3-5-.4-2.5.1-4.3 0-6.7 0-1.1-.8-2.7-1-4.1-.2-1.7.3-3.4 0-5.2s-1.4-3.5-1.4-5.6c.2-3.7.6-2.6 3.5-2.5 6.1.2 11.8-.2 18.1.4 3 .3 6.3.4 9.5-.1 1.7-.6 2.6-.7 4.4-.6 1.5.1 3.6-.6 5.2-.2-.2.9-.4 1.7-.6 2.6.6.6 1 1.3 1.6 1.8.6 2.3-.3 3.2-.3 5.2 0 1.3.2 3 .4 4.1.2 1 0 3 .4 4.1 1.2 3.5.8 6.4.6 10.3.1 4.9 1.1 9 1.1 13.6z" fill="rgba(0, 62, 63, 1)" stroke="none"/>
      </g>
      <g id="Group_15_" transform="translate(72.583 214.677)">
        <path id="Shape_14_" d="M134.6 260.7c-2.1 3.7-6.6 7.3-11.1 7.1-2.2-.1-3-.2-5 0-1.1.2-7.4-1.9-8.7-1.9-2.6 0-3.4-3.4-5.9-4.7-1.5-.8-.6 0-1.7-1.6-.7-1.1-1.3-3-1.8-4.3-.9-2.6-2.2-5.7-2.6-8.3-.6-3.9-1.6-8.1-2.9-12-.6-1.8-1.2-3.7-1.7-5.4-.2-.5.4-1.2.2-1.7-.2-.6-1.3-1-1.5-1.8-.8-2.8-.6-5.4-1.4-8.1-.8-2.9-.9-5.8-1.8-8.6-.8-2.6-1.9-5-2.2-7.9 0-.5 1-1.3.9-1.8-.2-.5-1.1-.8-1.3-1.4-.5-1.7-.6-2.8-.7-4.6-.2-3.3-1.2-6.1-1.8-8.7 0 .1.4-2.3.4-2.5 0-1.7-.9-3.8-1.3-5.5-.5-2.5-1.3-5.4-1.6-8.1-.1-.6.9-1.1.8-1.7 0-.5-.7-1-.8-1.4-.2-2.1-1.1-4.4-1.3-6.6-.1-1.3.5-1.8.2-3.1-.2-.7-.9-1.1-1-1.9-.2-.9.2-1.4.2-2.1-.3-2.1 0-5.4-.3-7.7-.2-1.5-1.4-2.7-1.4-4.5.1-1.8.4-3 .3-4.6-.1-1.6-.2-4-.4-5.6-.2-1.1-1-2-1.1-3-.3-2.2.7-3.2.7-5.2.1-1.6-.8-2.6-1.1-4.1-.9-3.5-.5-6.8 0-10.3.3-2.2-.5-3.2-.8-5.1-.1-.5-.6-1-.6-1.5-.1-.9.8-1.4.8-2.1-.2-2.7-.4-5.5-.1-8.7.3-3.4-.5-6.9-.6-10.2-.2-3.5-.8-7.3-.6-10.8.2-2.8.7-5.5.8-8.2.1-2.7-1.4-4.6-.6-7.7 1.1-3.9 1.1-6.3.7-10.2-.3-3.1.8-5.8.9-9.2.1-2.5-.1-4.6.2-7.1.1-.5-.6-1-.5-1.6.1-.4.9-1.7.9-2 0-.2-.3-1.4-.3-1.5.1-.8.1-2.6.1-3.6 0-.5 1-1 1-1.4.1-.6-1.2-1.5-1.2-2.2 0-.6 1-1.3 1-2 0-.6-1-1.4-1-2.1 0-.5 1.3-5.9 1.3-5.9 1.4-1.2 2.4.3 3.6.4 2.3.2 5.8.2 7.8-.2 2.3-.5 4.6-.6 7.3-.6 1.2 0 2.5-.2 3.7-.2 1.7 0 2.7.6 4.2.9 2.1.3 5.7.3 7.8.2 2.3-.2 4.6-2.1 7.4-1.1-.1 2-.3 3.9-.5 5.6-.3 2.6-1 5-.6 8 .3 2.4.6 4.6.6 7 .1 2.7-.8 4.4-1 6.6-.1 1 .7 2.2.6 3.5-.1.7-1.3 1.3-1.4 2-.1.8.9 1.6.9 2.6-.1 1.2-.4 2.2-.4 3.5 0 1.8.2 3.1-.2 5-.6 3.4 1.4 5.5 1 9-.6 4-1.2 8.2-1.3 12.3-.1 2.2 1.3 4 1.4 6.2 0 .6-1 1.4-1 2.1 0 1.9 1 2.5 1 4.1 0 .7-.9 1.4-.9 2.1 0 1 .4 3.1.6 4.1.2 1.8-.1 3.6-.1 5.1 0 1.6.6 2.3.8 4.1.3 2.4.1 5.8.1 8.2 0 4.8-.6 9.4.6 14.3.6 2.2-.6 3.4-.6 5.2.1 1.4 1.3 2.3 1.4 3.5.1 1-.6 2-.6 3.1 0 2 .6 3.4.9 5.6.3 2.8-.6 5.2-.1 8.2.2.7 1.2 1.2 1.3 1.9.1.8-.5 2.2-.6 3.1-.1 2.7.7 5.6.6 8.2-.1 1.6.8 3.2.9 4.6.1 2 .1 4.5.2 6.6.1 2.6 1 4.6 1.2 7 .2 2-.1 3.8.2 6.2.2 1.8 1.2 3.3 1.4 5 .2 1.5-.6 3.7-.4 5.2.2 1.9 1 3.1 1.4 5 .3 1.5-.3 3.7.1 5.1 1.1 4.2 1 8.6 2.3 13.1 1.4 4.9.8 9.7 1.9 14.2.7 3 .6 5.1.9 8.2.3 3.1 2.1 5.9 2.7 8.9.5 2.5-.6 4.2.5 7.2 1.3 2.4 1.1 4.5-.3 6.8z" fill="rgba(0, 62, 63, 1)" stroke="none"/>
      </g>
      <g id="Group_16_" transform="translate(281.579 327.732)">
        <path id="Shape_15_" d="M84.1 22.2c.4.7.7 1.4 1.1 2.1-.3 1.4-.4 2.7-.4 4.1-.2 1.9-.3 3.5-.3 5.1 0 3.5.1 7.7-.2 11.3-.2 3.7-.5 6.5-1.2 10.2-.5 2.5.2 4.1.2 6.2-.4.6-.7 1.3-1.1 1.9.3.7.6 1.4 1 2.2-.4 4.6-3.1 9.3-3.4 14-.1 2 .2 3.4 0 5.2-.2 1.8-.8 4.1-1 6.1a29 29 0 0 1-1.2 6c-.7 2-.5 3.2-.8 5-.6 3.8-1.2 7.1-2.2 11-.8 3.4-2.3 6.8-3.2 9.8-.6 1.9-1.7 4.6-2.3 6.8-.5 1.5-.7 3.9-1 5 .7 1 .6 1.6-.6 2-1.1.6-1.6 1.4-1.4 2.7-.3.6-.7 1.2-1 1.8.1.6.2 1.2.6 1.7-.4.7-1.8 1.4-2.1 2.2-.6 1.6.8 1.2.1 3.3-1.3 3.8-3.9 6.8-7.1 8.2-1.5.6-10.9 1.2-12.3 1-.6-.1-2.2-1.1-3.4-1.2-5.4-.6-8.5-3.8-8.1-7.9.3-1.2.6-1.9.8-3 .1-.5-.8-1.3-.6-1.8 0-.1.6-1.4.6-1.4 0-.2.6-1.1.6-1.4.1-.5-.6-1.2-.5-1.7.6-2.4 2.1-3.3 2.7-5.7.6-2.6.1-5.6.6-8.2.2-1.4.7-2.6 1-4 .2-1.4.7-2.3 1-3.4.4-1.9.2-4.2.6-6.2.5-2.7 2.1-5.5 2.2-8.5 0-1.4-.4-2.2-.2-3.7.2-1.7.8-3.4 1-5 .2-3 2.1-6.7 2-9.6 0-.9-1.4-1.4-1.4-2.2.2-1.3 1.6-2.4 1.8-3.9.2-1.4-.6-2.6-.4-4.2.2-1.8 1.2-3 1.3-5 .2-3 .6-6.2.6-9.2-.1-1.4-.7-2.7-.6-4.2.2-1.8 1.1-3 1.2-5 .2-3.4.5-6.8.2-10.3-.2-1.7.6-3.2.5-4.6-.2-1.5-1-3-1-4.6 0-.5.7-1 .7-1.5 0-.6-.4-1.4-.4-2.1.1-1 .2-2.1.2-3.1 0-3 .3-5.8 0-8.8-.3-2.6-.5-5.3-.3-8 0-.4.9-.6 1-1 .1-.8-.7-1.1-.8-1.9C47 3 47 1.9 47.2.2c.2-1.9.6-4.4.3-6.2-.1-.5-1-1.1-.9-1.5 0-.1.5-1.6.5-1.6 0-.2.7-.8.7-1 .1-.6-.8-1.4-.8-2.1 0-2.4-.6-4.5-.6-6.8.3-.1 4.4.2 5.1.3 1.4.1 2.2.9 3.5 1 1.3.1 3.1-.5 4.6-.6.8 0 1.8-.2 2.6-.2.7.1 1.9 1 2.6 1 1.5-.1 2.9-1.4 4.4-1.4.7 0 .8 1.2 1.7 1.3.6.1 1.4-1 2-1 1.9 0 3.4.7 5 .6 1.7-.2 3.4-1.4 5.2-.7-.2.9-.5 1.8-.6 2.6.2.6.6 1.4.8 2 .2 2-.2 4.2.1 6.2.2 2 1.3 2.7 1 5.1-.2 1.8-.3 2.9-.1 4.6.6 3.9 1 6.8.4 10.8-.3 2.6.4 4 .6 6.2.2.7.5 1.4.7 2.1-1 0-1.4.6-1.9 1.3z" fill="rgba(0, 62, 63, 1)" stroke="none"/>
      </g>
    </g>
    <g id="Group_18_" transform="translate(57.286 86)">
      <path id="Ellipse" d="M77.2 55.8c0-14.6 11.9-27.2 27.2-27.2s28.8 13.1 28.8 27.6-12.3 24-27.6 24-28.4-9.9-28.4-24.4z" fill="rgba(0, 62, 63, 1)" stroke="none"/>
      <path id="Ellipse-2" d="M159.3 77.8c0-13.5 12.7-21.6 26.4-21.6s30 8.6 30 22S203 105 189.3 105s-30-13.8-30-27.2z" fill="rgba(0, 62, 63, 1)" stroke="none"/>
      <g id="Group-2" transform="translate(16.5 20)">
        <path id="Ellipse_1_" d="M73.9 33.4c0-4.9 3.9-8.8 8.8-8.8s8.8 3.9 8.8 8.8-3.9 8.8-8.8 8.8-8.8-4-8.8-8.8z" fill="rgba(0, 62, 63, 1)" stroke="none"/>
        <path id="Ellipse-2_1_" d="M170 56.6c0-4.9 3.9-8.8 8.8-8.8s8.8 3.9 8.8 8.8-3.9 8.8-8.8 8.8-8.8-4-8.8-8.8z" fill="rgba(0, 62, 63, 1)" stroke="none"/>
        <path id="New-shape-6" d="M77.1 31.8s1.4-4.5 8-3.6" fill="rgba(0, 62, 63, 1)" stroke="none"/>
        <path id="New-shape-7" d="M173.2 55s1.4-4.5 8-3.6" fill="rgba(0, 62, 63, 1)" stroke="none"/>
      </g>
    </g>
  </g>
  <g id="Group_19_" transform="translate(57.286 86)">
    <g id="Group-2_2_" transform="translate(16.5 20)">
      <path id="Ellipse_2_" d="M75.3 36.4c0-5.6 4.5-10.2 10-10.2 5.4 0 9.8 4.6 9.8 10.1 0 5.6-4.5 10.2-10 10.2-5.3.1-9.8-4.5-9.8-10.1z" fill="rgba(0, 62, 63, 1)" stroke="none"/>
      <path id="Ellipse-2_2_" d="M170.4 59c0-5.6 4.5-10.2 10-10.2 5.5-.1 9.9 4.5 9.9 10.1s-4.5 10.2-10 10.2-9.9-4.5-9.9-10.1z" fill="rgba(0, 62, 63, 1)" stroke="none"/>
    </g>
  </g>
</svg>
</g></svg></g></g>
<!-- /image 79520 -->

<!-- image 05726 -->
<g id="transformed-05726" data-image="05726" transform="translate(20.67964584435211, 27.34146534250094) rotate(315, 81.32035415564789, 67.65853465749906)"><g><svg version="1.1" width="162.64070831129578px" height="135.31706931499812px" viewBox="0 0 162.64070831129578 135.31706931499812"><g id="original-05726"><svg xmlns="http://www.w3.org/2000/svg" id="Layer_1" viewBox="0 0 665 555" xmlns:xlink="http://www.w3.org/1999/xlink" version="1.1" preserveAspectRatio="xMidYMid meet">
  <g id="flamenco-119" transform="translate(2.5 2.5)">
    <g id="Group_17_">
      <path id="New-shape-3" d="M133.9 380.7l7.4-.5 16.3 15.3s5.7 37 13.6 68.9c2.9 11.5 8.9 15 14 16.8 9 3.3 18.2-2.3 20.4-4.8 3.5-3.8-2.6-23.1-4-36.4-1.4-13.3-.4-12.8-.4-12.8s25.3 13.8 55.6 15.6c30.3 1.8 65.7-8.4 65.7-8.4s-1.4 16.3-7.2 35.6c-2 6.6 2.2 11.3 5.6 12.8 4.2 1.8 13.3 2.2 18.4-1.2 7.7-5 21.4-65.7 21.4-65.7L379 398s-2.7 10-6 29.2c-2.2 13.3-6.2 23.3-9.6 33.2-1.5 4.4-5.6 14.1-4.4 18.4 1 3.4 10.4 4.8 10.4 4.8l7.2.5c3-.4 9.8-.6 12.8-4.1 3.7-4.2-1.6 7.7 16.8-40s14.4-104.5 14.4-104.5 8.4-1.8 29.2-11.6c71.2-33.5 54.4-70.8 60.5-111.3 2.5-16.7 14.1-29 34-34s45.7-5.2 53.6-9.2c21.3-10.8 23.2-37.1 9.6-51.2-4.6-4.9-8.4-9.7-31.2-10-14-.2-27.5 3.7-32 5.6-83.7 35.2-77.6 136.9-78.1 148.5-.5 11.6-5.4 22.8-19.6 32.8-7.1 5-32 9.2-32 9.2s-2.1-17.9-13.6-28.8c-11.5-10.9-25.4-16.3-41.2-16.4s-11.4 1.6-40.4 6.4c-71.6 11.9-57.7-43.6-57.7-43.6l6.4-12.8 14.4-29.2s17.6-18.3 28-35.2 13.6-30.4 13.6-30.4-11.7-2.2-26.4-2.4c-14.7-.2-32.8 4.4-32.8 4.4s-15.2-19.1-35.2-26.8-44.8-4-44.8-4-8.1-14.5-17.6-24.4c-9.5-9.9-20.4-15.2-20.4-15.2s-7.2 11-10.8 29.2-3 25.8-3.5 43.7" fill="rgba(230, 98, 105, 1)" stroke="none"/>
      <path id="New-shape-2" d="M149.7 95.7S104.5 143 92.4 221.4c-5 32.7-3 76.6.8 122.9s19.2 94.7 23.2 107.3c4 12.6 10.4 30.9 20 30.8 9.6-.1 21.2 1.2 23.1-8 2-9.4-7-30.8-12.3-50.8l-10-56.4-6.4-238.6" fill="rgba(230, 98, 105, 1)" stroke="none"/>
      <g id="Group" transform="translate(.85 73.247)">
        <path id="Shape" d="M271.2 370.3c-4.7.2-9 .6-13.3.2-4.7-.5-9.9-1.1-14.4-1-1.7.1-3.4-.6-5-1.1-1.5-.5-1.4-.9-2.9-1.1-1.3-.2-1.3.6-3.2.2-1.7-.4-3.9-2.1-5.7-2.7-3.5-1.3-6.6-1-9.9-2.7-7.2-3.8-13.5-5.2-20.8-9-1.6-.8-2.8-1.9-4.5-2.6-1.9-.7-4.6-2.2-6.3-3.4-2.3-1.6-4.4-3.2-6.7-4.7-1.6-1-2.9-2.6-4.5-3.5-4.3-2.2-6.2-6.6-10.5-9-.8-.5-2.5-.6-3.1-1.1-.6-.4 0-2.1-.5-2.6-.6-.5-2.2-.8-3-1.4-1-.7-3-2.6-3.8-3.4-1.2-1.2-2-3-3.2-4-1-1-2.8-2.2-3.9-3.4-.8-.8-1.3-2.6-2.1-3.7-.4-.5-1.4-.6-1.8-1.2-1.7-1.9-2.9-3.6-4.9-5.3-1.4-1.2-3.1-3.4-3.9-4.8-.8-1.3-2.5-2.4-3.5-3.8-.5-.7-.4-1.8-.9-2.6-.2-.1-.4-.2-.6-.2-1.2 0-1.6-.6-1.2-1.7-1.5-2.2-2.5-5.8-4.5-8.1-.4-.5-1.8-.6-2.2-1-1.1-1.6-.6-2.6-1.4-4-.3-.6-1.8-.5-2.2-1-.6-1-.5-3-1-4.2-1.2-2.5-3.8-4.1-4.8-6.7-.2-.6 0-1.5-.2-2.2-.5-1.3-1.1-2.1-1.7-3.2-3.9-8.6-7.4-16.3-10.9-25-1.5-3.8-2.1-8.2-3.3-11.9-2.1-6.6-3.1-13.3-4.2-19.9-.5-2.8 0-5.4-.6-8.2-.4-1.9-.9-1.6-1-4 0-.9.3-2.3.2-3.1-.2-1.8-.7-3-.9-5-.2-2.2.3-4.1.3-6.2 0-4.3-.1-8.3.3-12.3.3-3.4 1-6.7 1.1-10.1 0-.7-1-1.4-1-2.2 0-2.3 1.5-3.9 2-5.9.2-.9.6-3.3.6-4 0 .6-.4-4.1-.6-3.5-.1.2.6-2.8.6-1.6 0 .2.5-3 .5-3 .2-.6 1.1-1.1 1.3-1.8.3-1.9-.4-2.6-.2-4.2.3-3.3 1.4-7.4 2.5-10.5.7-2.2 1.8-4.6 2.4-6.7.6-1.8 1-3.3 1.4-4.9.1-.4 1-1.9 1.1-2.3.2-.6.5-1.8.7-2.5.6-1.8 2-3.2 2.6-5 1.2-3.8 1.9-7 3.5-10.6 1.9-4.5 4.1-9.8 7-13.6 1.8-2.2 1.8-4.2 3-6.5.4-.8 1.6-1 2-1.8.6-1.1.2-2.2 1-3.5 2.2-4.1 5.5-6.9 7.2-11.1.6-1.5 1.9-4.4 3.4-5.4 1.1-.8 3-1.4 4.6-2 1-.3 2.9-1 4-1.1 1.5-.2 3 .4 4.3.2 1.2-.2 2.6-1 3.9-1.4 1.7-.4 2.6-.2 4.2-.3 2.1-.3 3.9-2 5.8-2.6 2.6-.8 5.4-.6 7.7-1 .9-.2 1.5-1 2.4-1.2 1-.2 1.8.5 2.6.2 1.6-.4 1.3-1 3.4-1.3 1.1-.2 2.1.2 3.2.1 5.4-.8 11.5-1.7 17.5-2.4 2.7-.3 4.7-.2 7.3.5 1.7.4 6.4 1.3 7.6 3.1.6 1 .3 3.2.5 4.9.3 3 .2 4.7-.1 7.5-.2 2.4.6 4.9.3 7.6-.2 1.4-.8 1.5-.8 3 0 1.3.3 2.6.2 4-.1.9-1.1 4.2-1 5 .3 2.1 2.4 5 3.3 6.4 1.1 1.8 2.8 3.9 4.1 5.9.3.6.1 1.7.5 2.2 1.2 1.6 3.2 2.6 4.4 4.4 1.3 1.8 1.7 3.4 3.5 5.1 1.3 1.1 3.2 1.7 4.2 3 1.5 1.9 1.6 4.2 4 6.2.9.7 1.9 1.1 2.6 1.7 1.1.9 1.4 1.6 2.4 2.6 3.2 3.3 6.7 7.5 10.6 10.5 2.1 1.6 4 3.1 5.8 5.1.4.4 1.4 1.5 1.8 1.8.7.5 2.1 1 2.8 1.5.8.7 1 1.8 1.8 2.6.5.4 1.4.6 1.8 1 1 .8.9 2 1.7 2.7.5.5 1.7.2 2.2.6 3.8 3.8.8 6.4-1.1 10.3-.8 1.6-3 3.5-3.6 5.2-.3.8.2 2.3 0 3.3-.2 1.1-1 1.8-1.3 2.9-1.3 4.3-1.6 9.8-.8 14.4.1.7 1 1.2 1.2 1.8-.2.4-.3.8-.5 1.2-.7.9-.6 1.5.4 2 .2 1.5 1.4 4.5 2.5 5.8 1.7 2 2.5 4.3 4.2 6 1.8 1.7 5 3 7.1 4.4 3.7 2.5 8 4.2 12.5 5 1.7.3 3.2 1 5 1.4.6.2 1.6-.7 2.2-.6 1.4.3 2.3 1.6 4 1.7 2.3.2 4.7-1.1 7.4-.6s2.8 0 5.1-.6c.9-.2 2.3-.2 3.1-.3-.5.1 2-.9 1.9-.9 2.2-1 4.9-.9 7.1-1.7 1-.3 1.7-1.4 2.7-1.8.6-.2 2.8-.5 3.1-.6 2.2-.5 5-1.4 7-1.8 2.1-.4 4.7-.2 7.2-.6.6-.1 3.7-1.6 4.1-1.6.9 0 2.1 1 3 1.1 4.7.8 9.2-1 13.7.2.9.2 1.5 1.2 2.4 1.4.4.1 2.2 0 2.6 0s2.2 0 2.6.2c.6-.2 1.1 0 1.4.8.5 1 1.1 1.2 2 .6.3.2 1.6.2 2.1.4.9.3 1.8 1.4 2.6 1.8.6.3 1.6-.2 2.2 0 .8.4 2.5 2.1 3.4 2.6 2.2 1.3 4.6 1.8 6.8 2.7 2.4 1 3.2 2.8 5 4.6 3.4 3.4 7 5.9 10 9.4 1.6 2 2.2 3.5 3.2 5.8 1 2.2 1.9 3.7 3.1 5.8 1.7 2.9 1.2 4.9 2.2 7.8.6 1.8 2.2 3.4 2.6 5.6.2 1.1-.2 1.9.1 3.1.2 1 1 1.8 1.1 2.9.2 2.4-1.1 5.5-.6 8.2.2 1.3 1.1 2.4 1.3 3.5.2 1-.5 1.4-.6 2.5-.1 2.4-.3 4.8-.4 7.2-.2 3.2-.5 5.1-1.9 7.9-.6 1.2-1.5 2.2-1.6 3.8-.5.6-.6 1.4-.1 2.2.6 1 .3 1.6-.7 1.9.2-.9-.9 2.2-.8 1.9-.6 1.4-.6 3.3-1.4 5-.8 1.6-2.1 3-2.9 4.3-.9 1.5-1.2 3-2 4.8-1 2.2-3.6 3.5-4.8 5.4-2.1 3.4-3.5 7.3-6.9 10.2-3.8 3.4-6.1 6.7-9.5 10.1-.4.4-1.7 1.2-2.2 1.5l-1.8 1.8c-.9 1-2.5 2-3.5 3-.5.5-.4 1.7-.9 2.1-.4 0-.8.1-1.3.1-1-.3-1.7.1-1.7 1.2.2-.2-1.2 1.4-1.4 1.6-1.9 1.8-4.8 3-6.6 4.8-1.3 1.3-2.5 2.2-4 3.2-1.4 1-2.4 1.1-3.6 2-.6.4-.6 1.5-1.3 1.8-2.1 1-3 .8-4.7 2.2-2.6 2.1-5.4 1.9-8.4 3.8-1.7 1-3.1 2.9-4.9 3.9-2.5 1.4-5.3 1.6-7.8 2.6-4.1 1.5-7.6 4.4-12.3 5.1-4.5.7-8.5 2.8-12.6 4.6-2.2 1-3.8 1.1-6 1.4-2.4.2-4 .6-6.5 1.4-3.4 1.1-6.9.6-10.7 1-2.4.2-5.2 1-7.6 1.4-.3.1-2.5.2-2.6.2-.3.2-.6.4-1 .6.1-.4-.6-.8-1.3-1.1z" fill="rgba(230, 98, 105, 1)" stroke="none"/>
      </g>
      <g id="Group_1_" transform="translate(315.658 78.139)">
        <path id="Shape_1_" d="M81 223.2c2.9.3 6.2 1.6 9 1.4 1-.1 2.1-.8 3.1-.8 1.4 0 2.7 1.1 4.1 1.2 1.7 0 3-1 4.6-1 2.1 0 3.4.6 5.6.1 1.3-.3 2.1-.9 3.4-1.1 2.2-.4 3.8-.9 5.8-1.6 1.6-.6 3-.3 4.6-.6 1.8-.4 2.2-1.2 3.6-1.8 1.4-.6 2.8-.6 4.3-1.5 1.4-.9 2.2-1.8 3.7-2.8 2.5-1.8 4.2-3.2 6.5-5.7 2.7-3 3.8-5.6 5.7-9 .6-1.2 1.2-1.3 1.7-2.6.4-1.1.8-3.2 1.1-4.5.6-2.4 1-5.4 1.4-7.5 0-.2-.1-1.4-.1-1.6.1-.6.9-1.2 1-2 .2-1.8-.9-3.7-.6-5.7.6-4 1.4-8 1.3-12.3-.1-1.8-.4-2.7-.2-4.6.2-1.6.1-3.1.1-4.6 0-3 1.2-6.7 1.6-10.1.3-2.6 0-5.5 1-8.2.3-.9.6-2.5 1-3.4.2-.5-.6-1.2-.4-1.7.3-1 1.4-1.6 1.8-2.7.7-2.3.9-4.7 1.4-7 .7-3.3 2-6.2 3-9.3.4-1.3.4-2.2.9-3.5.6-1.4 1.5-2.6 2.1-4.2 1.2-3.4 2.3-6.8 4.1-10 .6-1 2.1-2.3 2.5-3.4.2-.7-.6-1.8-.3-2.5.2-.5 1.1-.6 1.3-1 1.4-3.7 4.1-5.9 6-9 1.4-2.2 2.2-5.2 3.8-7.4.2-.4 1.4-.2 1.7-.6.1-.1.7-1.4.8-1.4 1-.9 2.4-2.4 3.6-3.7 1.8-1.9 4-4.1 5.6-6 1.2-1.5 1-3 3-4.4 1.8-1.3 3.4-2.2 5.1-3.6 1-.8 3.3-1.4 4.1-2.2.6-.6.6-2.2 1.3-2.6 1-.9 3.6-.8 5-1.7 1.8-1.1 3.1-2.7 5.1-3.5 6.1-2.3 11-5.3 17.8-7.1 3.6-1 6.7-1 10.2-1.8 1.4-.4 2-1 3.4-1.1 1.8-.2 3.3.4 5.2 0 3.1-.6 4.8-1 7.7-.8 1.7.1 4.2-.6 5.7-.4s1.4.8 3 1.2c.8.2 2.6.1 3.6.2.8.2 1.6.7 2.4.9.7.1 1.6-1 2.3-.8 3.1.6 6.4 3.4 9 5.2 2.5 1.7 4.2 3.1 6.2 5.4.3.4 1.2.4 1.4.9.4.7 0 1.5.4 2.2.8 1.7 2 3.3 2.8 5 3 6.5 3 16.3 1.2 23.1-.7 2.8-2.7 6-4.2 8.9-1.4 2.7-3.2 3.7-5.4 5.5-.6.5-.5 1.4-1.1 1.9-.4.3-1.1.2-1.6.5-1.8 1.1-4 2.2-6.1 2.9-1.4.4-2.2.4-3.6.6-.8.2-2.2.2-3 .6.3-.2-2.8 1.6-2.2 1.5-1 .2-1.8-.5-2.9-.5-2 .1-3.2 1-5 1.4-3 .7-6.3.2-9.3.4-2.1.2-3.1.6-5 1.1-1.7.4-3.7-.5-5.2-.2-.7.2-2.2 1.3-2.9 1.6-1 .4-3 .6-4.1.6-1.4.1-2.5-.6-3.8-.2-1.4.4-2.8 1.5-4.3 1.8-3.8.9-6.6 1.7-10.1 3.7-2.6 1.6-5.4 2.3-7.8 4.1-.9.6-2.2 1.5-3 2.2-.2.2-.7 1.1-.9 1.3.2-.2-2.2 1.7-2.1 1.6-1.4 1.7-2.8 3.8-4 5.9-.5.8-1 1.8-1.4 2.6-1 1.5-1 2.3-1.7 3.7-2.6 5.6-3.2 13.2-3.9 19.2-.3 2.4.7 5 .4 7.6-.2 1.3-.9 2.3-1.1 3.6-.4 2.4.6 5.1.5 7.1 0 .1.2 1.7.2 1.7 0 .2-1 .6-1 1 0 1 .6 2.3.6 3.4.1 1.4-.1 3.7-.2 5.1-.2 1-.4 3-.6 4-.5 2.6-1.8 5.3-2.4 7.8-.8 3.2-1.8 6-2.6 9.2-1.4 5.6-4 9.4-6.9 13.5-.3.4.3 1.4.1 1.8-.4.6-1.8.3-2.3.9-1 1-2.1 2.9-3.1 4-1.3 1.5-1.4 3.3-2.5 4.6-1 1.3-2.6 2-3.7 2.9-.5.4-.5 1.4-1 1.9-.4.3-1.4.1-1.8.4-1.6 1.2-2.7 2.6-4.1 3.9-2.6 2.6-5.2 3.5-8.1 5.4-2.3 1.5-4.8 3.2-7.4 4.6-1.5.8-2.6 1.6-3.9 2.4-.6.3-1.5 0-2.1.4-.6.4-.8 1.5-1.4 1.8-2.8 1.5-5.8 1.6-8.6 3.3-3 1.8-5.9 1.3-8.9 2.5-1 .4-2.1 1.4-3.2 1.8-2 .8-4.3 1.4-6.4 1.9-4.5 1.2-8.7 1.8-13.2 2.5-3.5.6-6.8.6-10.2 1.4-1.9.4-3.7.1-5.7.2-.7.1-1.4-.2-2.1-.2-.8.1-1.1 1-2.1 1-2.5 0-5-.7-7.2-.8-3.4-.1-6.6-.6-9.8-.8-3-.2-6.7-1.3-10.2-1.9-2-.4-3.4.2-5.3.2-2.3-.2-3.8-1.9-5.8-2.6-3-1.2-6.4-.9-8.7-1.3-.3-.1-1.4-1.3-1.7-1.4-.4-.2-1.2.2-1.6.1-1.2-.6-2-1.1-3.2-1.5.9-.4 1.8-1.8 2.8-2.4 1.7-1 3.9-1.6 5.7-2.4 2.5-1.1 5.2-1.6 7.8-2.8.3-.2 2.5-1.4 2.6-1.6.2-.2 2.2-1.8 2.5-1.9.5-.2 2.6-.6 3-.8 1.1-.4 2.6-1 3.8-1.4 4-1.4 7.4-4.1 11-5.6 5.8-2.4 11.5-5.2 16.6-7.6z" fill="rgba(230, 98, 105, 1)" stroke="none"/>
      </g>
      <g id="Group_2_" transform="translate(35.613 45.9)">
        <path id="Shape_2_" d="M246.1 119.2c0 2.3-.3 3.8-.7 6.1-.3 2.1.1 3.8.1 5.7 0 1-.4 3.4-.8 4.6-.3 1-1.1 1.8-1.5 2.8-.6 1.7-.1 3.5-.6 5.1-.3 1.1-1 2.7-1.4 3.8-.6 1.4-1.5 2.2-2.1 3.6-.2.6.5 1.7.2 2.3s-1.5.7-1.9 1.4c-.7 1.4-1 2.5-1.5 3.8-1 2.4-1.9 3.2-3.5 5-3 3.6-4.7 7.6-8.2 10.4-1.8 1.5-1.5 3-2.7 4.5-1.6 2.2-3.9 2.1-5.7 3.7-.7.6-1.2 2.2-2.1 3.1-.5.5-3.2 2.1-3.4 2.2-1.2.5-2 0-3.2.7-1 .6-1.3 1.7-2.2 2.4-2.2 1.9-4.4 1.4-6.8 2.4-2.2 1-4 3.2-6.1 4.1-3.4 1.4-8.6 2.2-12 2.8-4 .8-7.9 1-12.3 1.3-2.7.2-5.4 1-8.2.8-2.6-.2-5-1.4-7.5-1.8-2-.2-3.5.6-5.7-.2-.7-.3-1.5-1.4-2.3-1.5-1-.2-2.6.1-3.8.1-3.4-.2-6.4-2.6-9.3-4.5-2.3-1.4-4.6-1-6.9-2.2-.6-.3-1-1.2-1.5-1.5-1.3-.8-2.6-.9-3.8-1.6-2.5-1.5-3.6-3.7-6.2-5.4-1.8-1.2-3.2-2.3-4.8-3.8-3.2-3-5.8-5.9-8.8-9.3-5.4-6.2-8.8-13.2-11.8-20.9-.9-2.4-2.2-3.9-2.6-6.7-.4-3-1-6.1-1.6-9-1.1-4.7-2.1-9.8-1.4-15.2.4-3.4-.1-6.3.7-9.7.5-1.9 0-3.9.3-5.7.2-1 1.1-1.9 1.4-2.8.7-1.9-.2-3.7.2-5.3.5-1.8 2.2-3.5 2.8-5.6.7-2.6 1-3.3 2.5-5.6 2-3.1 3.7-6.6 5.6-9.8 2-3.3 4.1-6.1 6.6-9.1 1.6-1.8 2.9-2.8 4.4-4.2.5-.4.4-1.7.9-2.1 1.4-1.2 3-1.2 4.2-2.2 1.4-1.2 2.6-2.6 4.2-3.7s2.7-1.5 4.5-2.6c.2-.2 1.7-1.4 1.6-1.4-.6.2 2.1-1.1 1.8-1 .4 0 .8.1 1.2.1.5-.6.9-1.2 1.4-1.8 1.6-.9 3-1.5 4.7-2 9.2-2.6 17.5-6.8 26.7-7 1.4 0 2.5.6 3.6.6 1 0 1.6-1 2.6-1 2.4-.2 1.6.4 3 .5.6 0 2-.2 2.6-.1 3.6.5 7 1.4 11.1 1.9 4.5.6 8.6 2.2 12.7 3.7 3.5 1.3 8.1 3 11.8 5.1 2.2 1.3 4.6 3.1 6.8 4.6.6.4.6 1.4 1.2 1.8.7.5 2.2.6 3 1.1 2.1 1.3 4.3 4 5.8 5.8 1.2 1.6 2.8 3 4.2 4.5 3.6 3.8 5.2 6.6 7.5 11 2.6 4.9 5.9 8.2 7.4 13.5.7 2.5.9 5.7 1.8 8.1.1.2 1 1.8 1 1.8.4.2.7.4 1 .8-.2.7-.4 1.5-.6 2.2.8 5.9 2.4 11.3 2.4 16.5z" fill="rgba(230, 98, 105, 1)" stroke="none"/>
      </g>
      <g id="Group_3_" transform="translate(52.794 .373)">
        <path id="Shape_3_" d="M84.6 146.8c-1.1-3.8-2.7-7.6-2.8-11.4 0-1.7-.9-3.2-1.3-5-.6-2.6-.8-4.6-1-7 .2-.4.4-.7.6-1.1-.4-.6-.9-1.3-1.3-1.9-.1-1-.5-3.2-.5-4 .1-1.6 1.1-2.2 1.1-4.2 0-.6-1.4-1.4-1.4-2-.1-.8.7-3.2.7-4.1.1-1.4 0-2.6-.1-4.1-.2-2-.6-1.7-.3-4.1.2-1.4 1-2.5 1.1-4 .2-2.9-.3-5.4.2-8.2.4-2.2 1.1-3.8 1.5-6.1.2-1-.5-1.7-.2-2.7.2-.9 1.1-1.5 1.3-2.4.2-1-.2-1.8.1-2.6.4-1.4 1.3-2.6 1.8-4.4 1.2-4.6 2.3-9.5 4.2-14 2.3-5.4 3.4-10.6 9-6.2 3.5 2.8 7.4 3.6 10.4 7 1.5 1.8 2.5 3.2 4.5 4.5 2.3 1.4 2.9 2.3 4.3 4.6 2.2 3.5 6 4.8 8.2 8.1 1 1.4.6 2.1 1.9 3.6.5.6 1.6 1.5 2.1 2.2 1.4 1.8 2.6 3.8 4 5.8 2.2 3.1 3 6.2 5.4 9.7 1.2 1.8 1.9 4.6 2.1 6.7.1 1.7 1 .2.3 2-.2.6-2 1.2-2.6 1.6-1.6 1.3-2.1 2.1-3.9 3.2-2.2 1.2-1.8 2.6-3.3 4.1-1.6 1.7-2.9 1.2-4.6 2.3-1.7 1.1-2.2 3.1-4.2 4.5-1.8 1.3-3.9 1.6-5.5 2.8-1.5 1.2-1.9 3.2-3.7 4.4-1.8 1.2-3.4 1.1-5.1 2.5-1.6 1.3-2.5 3.7-3.9 4.9-3 2.6-7 4.9-9.9 7.1-1.7 1.3-3 2.6-4.7 3.8-.6.4-1.1.8-1.6 1.3-.3.4-2.5 2.7-2.9 2.8z" fill="rgba(230, 98, 105, 1)" stroke="none"/>
      </g>
      <g id="Group_4_" transform="translate(199.179 81.126)">
        <path id="Shape_4_" d="M57.9 115.7c3.6-1.9 9.1-4 12.5-6.9 1.1-1 1.2-2.4 2.6-3.5.5-.4 1.7-.2 2.2-.5.9-.6 1.2-1.6 2.2-2.2.9-.6 2.1-.6 3-1.2 2.3-1.6 4.4-4.6 6.6-6.6 1.4-1.3 2.6-2.2 4-3.3 2.1-1.7 2.6-2.8 4.2-4.6.7-.8 1.8-1.4 2.3-2.1.7-.7 1.1-1.6 1.9-2.5 1.6-1.8 3.4-3.5 4.7-5.5 1-1.5 1.9-3.8 3.1-5.2.5-.6 1.6-1.1 2-1.7.5-.6.3-1.8.8-2.5.3-.2.7-.3 1-.5 1-.1 1.4-.7 1-1.7.6-.9 1.4-2.4 2.1-3.4 1.4-2.2 1.8-5 3.5-7.2 1.1-1.5 2.5-3.5 3.2-5.1.9-2 1.5-4.2 2.3-6.6 1-3 3-4.6 3-7.4.1-3 .9-1.4-1.3-2.9-1.8-1.2-3.6-.1-5.3-.3-.3-.1-1.6-.2-1.8-.2.9.1-3-1.1-2.3-.9-1.4-.4-5.6-1.4-7.2-1.4-1.8-.1-1.9 1-4.2.6-1.6-.2-1.4-1-3.1-.9-4.5-.1-8.4.4-12.6.2-.2 0-2.3.1-2.6.2-.7.2-1.7 1.3-2.4 1.4-2 .2-2.7-1-4.2-1-.6.1-3.2 1.5-3.8 1.6-1.8.4-2.6-.3-4.1-.1-2.4.5-2 1.5-3.7 2-.5.2-1.5-.6-2.1-.4-1.9.4-4 1.2-5.8 2.1-2.2 1-3.3 1.3-5.7 1.8-1.4.3-2.6.7-3.6 1.7-2.3 2.3-1 .2-1.2 2.8-.1 1 .5 2.1.5 3 0 .7-.5 2-.4 2.6.2 1.8 1.1 3.8 1.3 5.6.3 4.1.6 7.1 1.4 11.3.4 2.2-.1 4.1.3 6.2.4 2.5 1 4.6 1.2 7.1.2 4.2.6 8.4 1.1 12.4.3 1.9.6 4.4.8 6.2.2 2.2.8 3.8 1.3 6.1.3 2.1-.7 4.2-.3 6.3.2 1.9 1 5.7 1.6 7.1z" fill="rgba(230, 98, 105, 1)" stroke="none"/>
      </g>
      <g id="Group_12_" transform="translate(59 87.267)">
        <g id="Group_5_">
          <path id="Shape_5_" d="M131.3 56.2c-.1.6-1 2.2-1.2 2.9-.4 1.2-.5 2.8-1 3.9-.6 1.6-1.3 1.9-2.3 3.2-1 1.2-1.4 3.1-2.8 4.3-1.4 1.3-3.8 2-5.3 3.1-.6.4-2.6 2.3-3.2 2.6-.5.2-1.3-.5-1.8-.3-1 .3-2.2.6-3.4 1-1.8.6-4.6 1.8-6.3 1.8-1.1-.1-1.8-.6-3-.9-1.6-.5-3.2-.3-4.6-.6-1.8-.4-5.7-1.9-7.8-3.1-2.7-1.6-4-5.1-5.8-7.4-1.6-1.9-2.6-2.6-3.8-4.9-.4-.8-2-2.9-2.2-3.7-.2-1.3.7-3.4.6-4.9-.3-3.9-1-4.7.7-8.4 1.1-2.4 2.9-4.1 4.3-6.6 1.7-2.7 2.2-3.9 5-5.5 1-.6 1.3-1 2.6-1.5 1.4-.5 3-.4 4.4-.9 1.8-.6 2.3-2 4.9-1.9 1.2 0 2.5.2 3.7.4 1.2.2 1.8.2 3 .5 1.7.4 2.8 1.6 4.2 2 1.6.5 2.9.2 4.5 1 .5.2.5 1.3.9 1.6.6.4 1.6-.1 2.2.3 2.3 1.6 4.1 3.7 6 5.6 1.2 1.1 3 1.9 3.8 3.5.6 1.2.7 2.3 1 3.5.1.4 1.2.6 1.4 1.1.2.6-.8 1.7-.6 2.3.2.5 1.2.8 1.3 1.3.5 1.5.8 2.9.6 4.7z" fill="rgba(230, 98, 105, 1)" stroke="none"/>
        </g>
        <g id="Group_6_" transform="translate(20.018 23.267)">
          <path id="Shape_6_" d="M85.7 30.2c-.1.6-2.3 3.2-2.9 3.6-2.2 1.7-3.2 1.3-5.1.8-2.2-.5-5.4-3-4.6-6 .4-1.8 4.5-5.1 6.3-5 2.2.2 2 2 3.3 3.2 1.2 1.3 3.2.7 3 3.4z" fill="rgba(230, 98, 105, 1)" stroke="none"/>
        </g>
        <g id="Group_7_" transform="translate(101.081 34.157)">
          <path id="Shape_7_" d="M112.6 45.7c0 1.2-1.7 4.6-2.2 5.8-.5 1.4-1.7 4.2-2.6 5.4-1.5 2.1-3.5 4.6-5.7 5.9-1.4.9-3 1.4-4.2 2.2-1.2.8-.8 1.5-2.8 2.1-.8-.2-1.5-.3-2.3-.5-.5.4-.8.9-1 1.4-.8.1-2.8.5-3.8.3-2.8-.5-5.2.2-8.2-.5-4.8-1.2-7.1-4-11.1-6.8-5.1-3.6-11.6-11.3-11.9-18.3-.1-1.4.7-4.6 1.1-6.2.6-2.2 1.2-1.6 2.2-3.4 1-1.4.2-2 1.8-3.5 1.4-1.4 2.6-1.9 4.1-2.9 1.2-.7 2.7-3 3.8-3.4 1.8-.7 3.5-.5 5-1 3.1-1 5.5-1 8.9-1.1 3.9-.1 6.9 1 11 2.4 3.2 1.1 4.7 1.7 7 4.1 1.4 1.5 3.5 1.4 4.7 2.5.2.7.4 1.5.6 2.3.6 1 1.3 1.7 2.2 2.2 2.1 2.6 3.5 7.6 3.4 11z" fill="rgba(230, 98, 105, 1)" stroke="none"/>
        </g>
        <g id="Group_8_" transform="translate(138.32 54.481)">
          <path id="Shape_8_" d="M60.8 22c-.1 3.1-6 4.3-8.1 3.8-2.6-.6-4.2-2.6-3-5.4.6-1.4 2.5-2.9 4.2-3 1.4-.1 6.9 2.7 6.9 4.6z" fill="rgba(230, 98, 105, 1)" stroke="none"/>
        </g>
        <g id="Group_9_" transform="translate(48.532 65.78)">
          <path id="Shape_9_" d="M74.6 15.5c4.6-.6 5.3-.5 12.4.4 7.1.9 8.7 2.4 10.8 3.2 3.8 1.4 11 7.5 12.4 9.6.4.3 1.8 5.2-1.2 6-3 .8-5.4-1.2-10.8-2.8-5.4-1.6-8.1-2.6-11.3-3.2-2.2-.5-4.4-1-6.6-1.7-2.1-.6-3.3-.9-5.3-1.5-1.4-.5-3.1-.9-5.2-1.6-2-.7-2.6-2-2.6-3.8.1-1.8 2.9-4 7.4-4.6z" fill="rgba(230, 98, 105, 1)" stroke="none"/>
        </g>
        <g id="Group_10_" transform="translate(64.238 66.874)">
          <path id="Shape_10_" d="M94.9 51.2c-1.8 1.2-4.2 2.9-6.4 3.3-1.5.3-2.3.7-3.9.7-3.8.1-5.1.2-8.6-1.9-2.2-1.3-3.8-2.7-5.2-4.2-2.1-2.2-3-6-4.4-8.9-1-2-2.1-2.4-2.2-5.1-.1-1.5.8-2.8.4-4.6-.6-3-.4-3.2.3-6.4.4-1.8-.3-4 .6-5.5.8-1.4 1.1-2.9 3-3.6h3c1.3.2 1.5-.2 3 1 1.6 1.2 1 .8 1.8 2.6 1 2.3.9 2.8-.2 5.4-1.1 2.6-1.3 3.9-1.7 6.8-.5 3.7 1 8.4 2.8 12.4 1.8 4 4.6 4.5 4.9 4.6.8.2 2.5.6 4.7.2 2.2-.3 2.7-1 4.4-1.6 1.1-.4 2.6-1 3.7-.1 1.4 1 1.3 4.1 0 4.9z" fill="rgba(230, 98, 105, 1)" stroke="none"/>
        </g>
        <g id="Group_11_" transform="translate(38.687 76.206)">
          <path id="Shape_11_" d="M84.5 29.9c3.6-2.7 4.5-13.4 6.8-16.4 1.4-1.8 5.4 2.9 7.3 4.4 2.8 2.2.6 6.7-.2 9-1.8 4.3-3.4 7-7.3 8.7-4 1.8-7 2.3-11 1.9-2.6-.3-7-2.8-8.8-5.6-1-1.4-2.2-3.8-1.8-5.3.4-1.5 2.6-3.2 4.8-.8.1.7 3.7 7.6 10.2 4.1z" fill="rgba(230, 98, 105, 1)" stroke="none"/>
        </g>
      </g>
      <g id="Group_13_" transform="translate(0 214.928)">
        <path id="Shape_12_" d="M159.8 260.4c-1 3.6-3.1 6.2-7.5 6.5-2.1.2-3.4.9-5.8.2-3-.7-3.6.2-6.6.5-1.5.2-3.6-.8-5.2-.6-1.4.2-8.2-4.7-8.8-7.7-.2-1.4-1.1-2.2-1.9-3.9-1.4-2.8-2.2-5.4-3.1-8.2-1.6-4.2-3.3-8.1-4.4-12.7-.7-2.8-1.7-6.2-3-8.7-.5-.9-1.6-1.8-1.9-2.6-.3-1.1.7-2.8.3-4.4-.9-3.1-2.5-5.4-3-8.7-.5-2.8-1.7-5.6-2.5-8.4-.3-1.1-.4-2.5-.7-3.5-.4-1.1-1.3-1.7-1.7-2.7-.6-1.8-.1-3.5-.5-5.2-.3-1.5-1.1-2.3-1.5-3.8-.6-2.1-.2-4-1-6.1-1.2-3.4-1.8-6.6-2.3-10-.2-1.6 0-3.7-.3-5.2-.3-1.4-1.3-2.2-1.6-3.9.1-.7.2-1.4.3-2.2-.4-.6-.9-1.3-1.3-1.8-.2-2.2.1-4.6-.2-6.7-.3-2.5-.3-5-.9-7.7-.4-1.8-1.1-1.8-1.4-4-.1-1 .1-2.1 0-3.1s-.2-2.6-.4-3.6c.2-.6.5-1.1.6-1.6-.5-.6-1-1.3-1.5-1.9-.4-1.8-.2-2.5-.1-4.2 0-.9.2-2.5.2-3.1.2-1.8-.6-3.2-.9-5-.2-1.2-.1-2-.3-3-.3-1.4-.6-2.5-.6-4.1.1-3.3 1-6.8.3-10.3-.6-3-1.5-5.1-1.2-8.2.2-2.2.7-5.1.6-7.2-.2-2.5-1.7-4.6-1.4-7.2.2-1.1 1.1-2.1 1.3-3.1-.4-.7-.8-1.4-1.1-2.1.4-.7.8-1.4 1.1-2.1-.2-1.8-1.6-1.8-1.6-4.1 0-.6.9-1.4 1-2.1.3-3.2-.1-6.8.2-10.2.2-2.6-.6-3.7-.7-6.2-.3-3.3 1.2-7 1.4-10.2.2-4.1.5-8.2.8-12.3.3-3.4.6-6.6 1-10.2.4-2.1.9-3.8 1-6 0-1-.6-2.2-.2-3.2.9-1.7 8.7-1 11.5-1 4.1-.1 8.2.2 12.3.1 1.8-.1 3.2-.5 5.1-.3 1 .1 2 .6 3 .6 1.3 0 1.9-.8 3-.9 1.4-.2 3.7.1 5.1.4.7.2 2.5-.2 3 .4.5.6-.6 5.2-.7 5.9-.2 1.7.2 3.6.1 5.1-.1 1.1-.7 1.8-.9 3-.4 2.6.1 5.6 0 8.2-.1 2.4.1 5.2-.4 7.1s-.9 4.6-.9 7.1c-.2 5.7.9 10.9 0 16.4-.3 1.8-.9 4.3-.6 6.2.2 1.4 1 1.6 1 3s-.4 2.7-.3 4.1c.1 1.8.2 4.2.2 6.2.1 2.8-.2 5.6-.3 7.9.1-.6 1 2 1 1.8 0 .1-.1 2.5-.2 2.6-.1.6-.3 2.4-.3 3.1.3.6.6 1.4 1 2l-.9 2.1c-.1 4.9 1 9.4 1 14.4 0 3.6-.4 6.6.2 10.3.5 3 .6 5.1.7 8.2.1 1.3.8 2.6.9 4.1.1 1.8.3 3.4.5 5.1.2 2.2 1.2 4.9 1.3 7.1 0 1-.8 2.1-.8 3.2.1 1.4.6 2.7.8 4.1.2 1 .5 2.6.5 3.6.1 1.1-.3 2.6-.2 3.7.2 1.9 1.4 2.4 1.7 3.9.4 2.2-.1 4 0 6.2.2 3.6 1.9 6.6 2.3 10 .2 1.1-.5 3-.5 4.2.1 2.1 1.1 4 1.4 6 .5 3 .7 4.3 1.7 7 .8 2.4.4 5.4 1.1 7.8.5 1.8 1 .3 1.4 3.2.1.6-.2 2.3-.2 2.9-.1-1 1.4 3 1.1 2.2.4 1 .2 3.3.5 4.1-.2.4-.2.8-.4 1.1.6.6 1.2 1.1 1.8 1.7.2.8.2 2.2.5 3 1.6 6.2 2.9 12.9 4.3 19.1 1 4.1 2.8 7.6 4.2 11.6 1.4 2.8.7 4.4.4 6.9z" fill="rgba(230, 98, 105, 1)" stroke="none"/>
      </g>
      <g id="Group_14_" transform="translate(335.629 327.86)">
        <path id="Shape_13_" d="M85.3 22.1c-.4.7-.7 1.4-1.1 2.1.2.7.2 1.4.4 2.1 0 1.7.2 3.1.2 4.6-.2.5-.5 1-.7 1.5.3.6.6 1 1 1.6 0 1-.2 2.4-.3 3.6-.2 1.6.4 3.6.2 5.1-.2 1.6-1.4 2.6-1.7 4-.6 2.7-.3 6.8-.2 9.2.1 2.7.1 5.7-.9 8.2-1 2.8-2.1 6.4-2.1 10 0 3.2.1 7.3-1 10.2-.3 1-1.5 1.9-1.8 2.7-.3 1.3.5 2.6 0 4.2-.4.4-.9.8-1.3 1.3-.6.3-.6.9-.2 1.5 0 0-.8 2.7-.9 3-.6 3-1.4 5-2.2 7.8-.9 3-.4 5.4-2 8.5-1.5 3-2.4 5.9-3.7 9-1 2.2-1.5 4.5-2.3 6.8-.5 1.4-1.2 1.4-1.8 2.6-.7 1.7-.2 2.7-.8 4.1-.3.7-1.4 1.8-1.8 2.6-.6 1.1-.9 2.6-1.4 3.8-.6 1.5-2.2 2.6-2.7 3.8-.4.9-.1 2.2-.6 3.2-1.1 3.2-1.8 3.8-3 5.4-2.1 2.9-8.7 3.1-11.8 3.2-2.8.1-7.7-.5-10.3-.9-1.5-.2-5.8-1.8-6.8-3-1.9-2.4-1.5-1.8-1.8-5.3.2-.3.7-3.3.9-3.9.6-2.6 1.8-3.5 2.8-5.5 1-2.1.3-4.4.9-6.2.2-.6 1.4-1 1.6-1.6.6-1.6.5-3.4 1.1-5 .6-1.6 1-2.9 1.5-4.3.2-.6.9-1.4 1-1.8.1-.6-.3-1.7-.2-2.2 1.3-4 3.1-7.9 3.6-12.3.1-.6-.6-1.5-.4-2.2.2-.6 1.4-1 1.7-1.8.4-1.4.6-3.8.6-5.1 0-1-.1-2.6.1-3.7.2-1.8 2.1-3.7 2.3-5.3.2-1.4-.6-2.9-.6-4.2.1-.7 1.1-1.2 1.3-1.8.2-.6-.7-1.5-.6-2.2s1.4-1.2 1.4-1.8c.1-.6-.8-1.5-.7-2.2.1-1.4.3-3.3.6-4.6.1-.8.8-1.5 1-2.5.2-1.3-.2-2.8-.2-4.2 0-2.4.8-3.9 1-6.1.1-1.2-.1-2.6 0-3.6.1-.5 1-1 1-1.4.2-2.5-.7-4.7-.2-7.2.5-2.6.6-4.5.6-7.1 0-1.8-.5-3.5-.4-5.1 0-1.7.9-2.2 1.2-4.1.5-2.3-.8-4.8-.7-7.2.1-2.2.6-4 .6-6.2s-.6-4.1-.6-6.2c-.1-2 0-3.2-.3-5-.4-2.5.1-4.3 0-6.7 0-1.1-.8-2.7-1-4.1-.2-1.7.3-3.4 0-5.2s-1.4-3.5-1.4-5.6c.2-3.7.6-2.6 3.5-2.5 6.1.2 11.8-.2 18.1.4 3 .3 6.3.4 9.5-.1 1.7-.6 2.6-.7 4.4-.6 1.5.1 3.6-.6 5.2-.2-.2.9-.4 1.7-.6 2.6.6.6 1 1.3 1.6 1.8.6 2.3-.3 3.2-.3 5.2 0 1.3.2 3 .4 4.1.2 1 0 3 .4 4.1 1.2 3.5.8 6.4.6 10.3.1 4.9 1.1 9 1.1 13.6z" fill="rgba(230, 98, 105, 1)" stroke="none"/>
      </g>
      <g id="Group_15_" transform="translate(72.583 214.677)">
        <path id="Shape_14_" d="M134.6 260.7c-2.1 3.7-6.6 7.3-11.1 7.1-2.2-.1-3-.2-5 0-1.1.2-7.4-1.9-8.7-1.9-2.6 0-3.4-3.4-5.9-4.7-1.5-.8-.6 0-1.7-1.6-.7-1.1-1.3-3-1.8-4.3-.9-2.6-2.2-5.7-2.6-8.3-.6-3.9-1.6-8.1-2.9-12-.6-1.8-1.2-3.7-1.7-5.4-.2-.5.4-1.2.2-1.7-.2-.6-1.3-1-1.5-1.8-.8-2.8-.6-5.4-1.4-8.1-.8-2.9-.9-5.8-1.8-8.6-.8-2.6-1.9-5-2.2-7.9 0-.5 1-1.3.9-1.8-.2-.5-1.1-.8-1.3-1.4-.5-1.7-.6-2.8-.7-4.6-.2-3.3-1.2-6.1-1.8-8.7 0 .1.4-2.3.4-2.5 0-1.7-.9-3.8-1.3-5.5-.5-2.5-1.3-5.4-1.6-8.1-.1-.6.9-1.1.8-1.7 0-.5-.7-1-.8-1.4-.2-2.1-1.1-4.4-1.3-6.6-.1-1.3.5-1.8.2-3.1-.2-.7-.9-1.1-1-1.9-.2-.9.2-1.4.2-2.1-.3-2.1 0-5.4-.3-7.7-.2-1.5-1.4-2.7-1.4-4.5.1-1.8.4-3 .3-4.6-.1-1.6-.2-4-.4-5.6-.2-1.1-1-2-1.1-3-.3-2.2.7-3.2.7-5.2.1-1.6-.8-2.6-1.1-4.1-.9-3.5-.5-6.8 0-10.3.3-2.2-.5-3.2-.8-5.1-.1-.5-.6-1-.6-1.5-.1-.9.8-1.4.8-2.1-.2-2.7-.4-5.5-.1-8.7.3-3.4-.5-6.9-.6-10.2-.2-3.5-.8-7.3-.6-10.8.2-2.8.7-5.5.8-8.2.1-2.7-1.4-4.6-.6-7.7 1.1-3.9 1.1-6.3.7-10.2-.3-3.1.8-5.8.9-9.2.1-2.5-.1-4.6.2-7.1.1-.5-.6-1-.5-1.6.1-.4.9-1.7.9-2 0-.2-.3-1.4-.3-1.5.1-.8.1-2.6.1-3.6 0-.5 1-1 1-1.4.1-.6-1.2-1.5-1.2-2.2 0-.6 1-1.3 1-2 0-.6-1-1.4-1-2.1 0-.5 1.3-5.9 1.3-5.9 1.4-1.2 2.4.3 3.6.4 2.3.2 5.8.2 7.8-.2 2.3-.5 4.6-.6 7.3-.6 1.2 0 2.5-.2 3.7-.2 1.7 0 2.7.6 4.2.9 2.1.3 5.7.3 7.8.2 2.3-.2 4.6-2.1 7.4-1.1-.1 2-.3 3.9-.5 5.6-.3 2.6-1 5-.6 8 .3 2.4.6 4.6.6 7 .1 2.7-.8 4.4-1 6.6-.1 1 .7 2.2.6 3.5-.1.7-1.3 1.3-1.4 2-.1.8.9 1.6.9 2.6-.1 1.2-.4 2.2-.4 3.5 0 1.8.2 3.1-.2 5-.6 3.4 1.4 5.5 1 9-.6 4-1.2 8.2-1.3 12.3-.1 2.2 1.3 4 1.4 6.2 0 .6-1 1.4-1 2.1 0 1.9 1 2.5 1 4.1 0 .7-.9 1.4-.9 2.1 0 1 .4 3.1.6 4.1.2 1.8-.1 3.6-.1 5.1 0 1.6.6 2.3.8 4.1.3 2.4.1 5.8.1 8.2 0 4.8-.6 9.4.6 14.3.6 2.2-.6 3.4-.6 5.2.1 1.4 1.3 2.3 1.4 3.5.1 1-.6 2-.6 3.1 0 2 .6 3.4.9 5.6.3 2.8-.6 5.2-.1 8.2.2.7 1.2 1.2 1.3 1.9.1.8-.5 2.2-.6 3.1-.1 2.7.7 5.6.6 8.2-.1 1.6.8 3.2.9 4.6.1 2 .1 4.5.2 6.6.1 2.6 1 4.6 1.2 7 .2 2-.1 3.8.2 6.2.2 1.8 1.2 3.3 1.4 5 .2 1.5-.6 3.7-.4 5.2.2 1.9 1 3.1 1.4 5 .3 1.5-.3 3.7.1 5.1 1.1 4.2 1 8.6 2.3 13.1 1.4 4.9.8 9.7 1.9 14.2.7 3 .6 5.1.9 8.2.3 3.1 2.1 5.9 2.7 8.9.5 2.5-.6 4.2.5 7.2 1.3 2.4 1.1 4.5-.3 6.8z" fill="rgba(230, 98, 105, 1)" stroke="none"/>
      </g>
      <g id="Group_16_" transform="translate(281.579 327.732)">
        <path id="Shape_15_" d="M84.1 22.2c.4.7.7 1.4 1.1 2.1-.3 1.4-.4 2.7-.4 4.1-.2 1.9-.3 3.5-.3 5.1 0 3.5.1 7.7-.2 11.3-.2 3.7-.5 6.5-1.2 10.2-.5 2.5.2 4.1.2 6.2-.4.6-.7 1.3-1.1 1.9.3.7.6 1.4 1 2.2-.4 4.6-3.1 9.3-3.4 14-.1 2 .2 3.4 0 5.2-.2 1.8-.8 4.1-1 6.1a29 29 0 0 1-1.2 6c-.7 2-.5 3.2-.8 5-.6 3.8-1.2 7.1-2.2 11-.8 3.4-2.3 6.8-3.2 9.8-.6 1.9-1.7 4.6-2.3 6.8-.5 1.5-.7 3.9-1 5 .7 1 .6 1.6-.6 2-1.1.6-1.6 1.4-1.4 2.7-.3.6-.7 1.2-1 1.8.1.6.2 1.2.6 1.7-.4.7-1.8 1.4-2.1 2.2-.6 1.6.8 1.2.1 3.3-1.3 3.8-3.9 6.8-7.1 8.2-1.5.6-10.9 1.2-12.3 1-.6-.1-2.2-1.1-3.4-1.2-5.4-.6-8.5-3.8-8.1-7.9.3-1.2.6-1.9.8-3 .1-.5-.8-1.3-.6-1.8 0-.1.6-1.4.6-1.4 0-.2.6-1.1.6-1.4.1-.5-.6-1.2-.5-1.7.6-2.4 2.1-3.3 2.7-5.7.6-2.6.1-5.6.6-8.2.2-1.4.7-2.6 1-4 .2-1.4.7-2.3 1-3.4.4-1.9.2-4.2.6-6.2.5-2.7 2.1-5.5 2.2-8.5 0-1.4-.4-2.2-.2-3.7.2-1.7.8-3.4 1-5 .2-3 2.1-6.7 2-9.6 0-.9-1.4-1.4-1.4-2.2.2-1.3 1.6-2.4 1.8-3.9.2-1.4-.6-2.6-.4-4.2.2-1.8 1.2-3 1.3-5 .2-3 .6-6.2.6-9.2-.1-1.4-.7-2.7-.6-4.2.2-1.8 1.1-3 1.2-5 .2-3.4.5-6.8.2-10.3-.2-1.7.6-3.2.5-4.6-.2-1.5-1-3-1-4.6 0-.5.7-1 .7-1.5 0-.6-.4-1.4-.4-2.1.1-1 .2-2.1.2-3.1 0-3 .3-5.8 0-8.8-.3-2.6-.5-5.3-.3-8 0-.4.9-.6 1-1 .1-.8-.7-1.1-.8-1.9C47 3 47 1.9 47.2.2c.2-1.9.6-4.4.3-6.2-.1-.5-1-1.1-.9-1.5 0-.1.5-1.6.5-1.6 0-.2.7-.8.7-1 .1-.6-.8-1.4-.8-2.1 0-2.4-.6-4.5-.6-6.8.3-.1 4.4.2 5.1.3 1.4.1 2.2.9 3.5 1 1.3.1 3.1-.5 4.6-.6.8 0 1.8-.2 2.6-.2.7.1 1.9 1 2.6 1 1.5-.1 2.9-1.4 4.4-1.4.7 0 .8 1.2 1.7 1.3.6.1 1.4-1 2-1 1.9 0 3.4.7 5 .6 1.7-.2 3.4-1.4 5.2-.7-.2.9-.5 1.8-.6 2.6.2.6.6 1.4.8 2 .2 2-.2 4.2.1 6.2.2 2 1.3 2.7 1 5.1-.2 1.8-.3 2.9-.1 4.6.6 3.9 1 6.8.4 10.8-.3 2.6.4 4 .6 6.2.2.7.5 1.4.7 2.1-1 0-1.4.6-1.9 1.3z" fill="rgba(230, 98, 105, 1)" stroke="none"/>
      </g>
    </g>
    <g id="Group_18_" transform="translate(57.286 86)">
      <path id="Ellipse" d="M77.2 55.8c0-14.6 11.9-27.2 27.2-27.2s28.8 13.1 28.8 27.6-12.3 24-27.6 24-28.4-9.9-28.4-24.4z" fill="rgba(230, 98, 105, 1)" stroke="none"/>
      <path id="Ellipse-2" d="M159.3 77.8c0-13.5 12.7-21.6 26.4-21.6s30 8.6 30 22S203 105 189.3 105s-30-13.8-30-27.2z" fill="rgba(230, 98, 105, 1)" stroke="none"/>
      <g id="Group-2" transform="translate(16.5 20)">
        <path id="Ellipse_1_" d="M73.9 33.4c0-4.9 3.9-8.8 8.8-8.8s8.8 3.9 8.8 8.8-3.9 8.8-8.8 8.8-8.8-4-8.8-8.8z" fill="rgba(230, 98, 105, 1)" stroke="none"/>
        <path id="Ellipse-2_1_" d="M170 56.6c0-4.9 3.9-8.8 8.8-8.8s8.8 3.9 8.8 8.8-3.9 8.8-8.8 8.8-8.8-4-8.8-8.8z" fill="rgba(230, 98, 105, 1)" stroke="none"/>
        <path id="New-shape-6" d="M77.1 31.8s1.4-4.5 8-3.6" fill="rgba(230, 98, 105, 1)" stroke="none"/>
        <path id="New-shape-7" d="M173.2 55s1.4-4.5 8-3.6" fill="rgba(230, 98, 105, 1)" stroke="none"/>
      </g>
    </g>
  </g>
  <g id="Group_19_" transform="translate(57.286 86)">
    <g id="Group-2_2_" transform="translate(16.5 20)">
      <path id="Ellipse_2_" d="M75.3 36.4c0-5.6 4.5-10.2 10-10.2 5.4 0 9.8 4.6 9.8 10.1 0 5.6-4.5 10.2-10 10.2-5.3.1-9.8-4.5-9.8-10.1z" fill="rgba(230, 98, 105, 1)" stroke="none"/>
      <path id="Ellipse-2_2_" d="M170.4 59c0-5.6 4.5-10.2 10-10.2 5.5-.1 9.9 4.5 9.9 10.1s-4.5 10.2-10 10.2-9.9-4.5-9.9-10.1z" fill="rgba(230, 98, 105, 1)" stroke="none"/>
    </g>
  </g>
</svg>
</g></svg></g></g>
<!-- /image 05726 -->
</defs><rect x="0" y="0" width="250" height="250" fill="rgba(0, 103, 105, 1)"></rect><use xlink:href="#transformed-79520" transform="translate(-250, -250)"></use><use xlink:href="#transformed-79520" transform="translate(0, -250)"></use><use xlink:href="#transformed-79520" transform="translate(250, -250)"></use><use xlink:href="#transformed-79520" transform="translate(-250, 0)"></use><use xlink:href="#transformed-79520" transform="translate(0, 0)"></use><use xlink:href="#transformed-79520" transform="translate(250, 0)"></use><use xlink:href="#transformed-79520" transform="translate(-250, 250)"></use><use xlink:href="#transformed-79520" transform="translate(0, 250)"></use><use xlink:href="#transformed-79520" transform="translate(250, 250)"></use><use xlink:href="#transformed-05726" transform="translate(-250, -250)"></use><use xlink:href="#transformed-05726" transform="translate(0, -250)"></use><use xlink:href="#transformed-05726" transform="translate(250, -250)"></use><use xlink:href="#transformed-05726" transform="translate(-250, 0)"></use><use xlink:href="#transformed-05726" transform="translate(0, 0)"></use><use xlink:href="#transformed-05726" transform="translate(250, 0)"></use><use xlink:href="#transformed-05726" transform="translate(-250, 250)"></use><use xlink:href="#transformed-05726" transform="translate(0, 250)"></use><use xlink:href="#transformed-05726" transform="translate(250, 250)"></use></svg>