<?xml version="1.0" encoding="utf-8"?>
<!-- Generator: Adobe Illustrator 25.0.1, SVG Export Plug-In . SVG Version: 6.00 Build 0)  -->
<svg version="1.1" id="Layer_1" xmlns="http://www.w3.org/2000/svg" xmlns:xlink="http://www.w3.org/1999/xlink" x="0px" y="0px"
	 viewBox="0 0 1600 1201" style="enable-background:new 0 0 1600 1201;" xml:space="preserve">
<style type="text/css">
	.st0{fill:#00292B;}
	.st1{clip-path:url(#SVGID_2_);}
	.st2{fill-rule:evenodd;clip-rule:evenodd;fill:#00989A;}
	.st3{fill-rule:evenodd;clip-rule:evenodd;fill:#004E4F;}
	.st4{fill-rule:evenodd;clip-rule:evenodd;fill:#007274;}
	.st5{fill-rule:evenodd;clip-rule:evenodd;fill:#004849;}
	.st6{fill:#003032;}
</style>
<rect x="0.3" y="-0.3" class="st0" width="1600" height="1201"/>
<g id="Aare_2_">
	<g>
		<g>
			<defs>
				<rect id="SVGID_1_" width="1600" height="1201"/>
			</defs>
			<clipPath id="SVGID_2_">
				<use xlink:href="#SVGID_1_"  style="overflow:visible;"/>
			</clipPath>
			<g id="Patterns_7_" class="st1">
				<g id="Aare_3_" transform="translate(0.000000, -1.000000)">
					<g id="Shape_13_" transform="translate(0.589219, 1.178782)">
						<path class="st2" d="M1550.7,473.1c0-19-15.4-34.4-34.4-34.4s-34.4,15.4-34.4,34.4s15.4,34.4,34.4,34.4
							C1535.3,507.5,1550.7,492.1,1550.7,473.1z M1516.3,397.4c41.8,0,75.7,33.9,75.7,75.7s-33.9,75.7-75.7,75.7
							s-75.7-33.9-75.7-75.7S1474.5,397.4,1516.3,397.4z"/>
						<path class="st3" d="M1514.8,493.4c-11.4,0-20.6-9.2-20.6-20.6s9.2-20.6,20.6-20.6s20.6,9.2,20.6,20.6
							C1535.4,484.2,1526.2,493.4,1514.8,493.4z"/>
						<path class="st4" d="M250.3,1174.8c0-11.4,9.2-20.6,20.6-20.6h123.7c11.4,0,20.6,9.2,20.6,20.6s-9.2,20.6-20.6,20.6H271
							C259.6,1195.4,250.3,1186.2,250.3,1174.8z"/>
						<path class="st5" d="M456.6,659.9c0,41.8-33.9,75.7-75.6,75.7H243.5c-41.8,0-75.6-33.9-75.6-75.7s33.9-75.7,75.6-75.7H381
							C422.7,584.2,456.6,618.1,456.6,659.9z M381,694.4c19,0,34.4-15.4,34.4-34.4S400,625.6,381,625.6H243.5
							c-19,0-34.4,15.4-34.4,34.4s15.4,34.4,34.4,34.4H381z"/>
						<path class="st5" d="M90.1,1086.4c0,11.4,9.2,20.6,20.6,20.6h63.9c21.7,0,41.2-9.1,55-23.7c13.8,14.6,33.3,23.7,55,23.7h63.3
							c41.8,0,75.6-33.9,75.6-75.6c0-11.4-9.2-20.6-20.6-20.6s-20.6,9.2-20.6,20.6c0,19-15.4,34.4-34.4,34.4h-63.3
							c-19,0-34.4-15.4-34.4-34.4V892.5c0-41-33.2-74.3-74.3-74.3v41.3c18.2,0,33,14.8,33,33v138.9c0,19-15.4,34.4-34.4,34.4h-63.9
							C99.3,1065.7,90.1,1075,90.1,1086.4z"/>
						<path class="st6" d="M357.9,920.1c19,0,34.4-15.4,34.4-34.4s-15.4-34.4-34.4-34.4s-34.4,15.4-34.4,34.4
							c0,11.4-9.2,20.7-20.6,20.7s-20.6-9.2-20.6-20.7c0-41.8,33.9-75.7,75.7-75.7s75.7,33.9,75.7,75.7s-33.9,75.7-75.7,75.7
							c-11.4,0-20.6-9.2-20.6-20.7C337.2,929.4,346.5,920.1,357.9,920.1z"/>
						<path class="st6" d="M309.3,639.6c25.4,0,45.8-20.4,45.8-45.4s-20.4-45.4-45.8-45.4c-14,0-26.5,6.2-35,16.1
							c-7.4,8.7-20.5,9.7-29.1,2.3c-8.7-7.4-9.7-20.4-2.3-29.1c16-18.7,39.8-30.5,66.4-30.5c48,0,87.1,38.7,87.1,86.6
							s-39.1,86.6-87.1,86.6c-11.4,0-20.7-9.2-20.7-20.6C288.7,648.9,297.9,639.6,309.3,639.6z"/>
						<path class="st3" d="M637.3,108.8c13.4-13.4,13.4-35.1,0-48.6c-13.4-13.4-35.2-13.4-48.7,0s-13.4,35.1,0,48.6
							c8.1,8,8.1,21.1,0,29.1s-21.1,8-29.2,0c-29.6-29.5-29.6-77.3,0-106.8C589,1.6,637,1.6,666.6,31.1s29.6,77.3,0,106.8
							c-8.1,8-21.1,8-29.2,0C629.3,129.9,629.3,116.8,637.3,108.8z"/>
						<path class="st2" d="M560.4,109.3c8.1-8.1,21.1-8.1,29.2,0s8.1,21.1,0,29.2c-8.1,8.1-21.1,8.1-29.2,0
							C552.4,130.4,552.4,117.4,560.4,109.3z"/>
						<path class="st2" d="M176.1,859.5c-11.4,0-20.6-9.2-20.6-20.6c0-11.4,9.2-20.6,20.6-20.6c11.4,0,20.6,9.2,20.6,20.6
							C196.7,850.2,187.5,859.5,176.1,859.5z"/>
						<path class="st4" d="M117.1,925.8c0-19-15.4-34.4-34.4-34.4s-34.4,15.4-34.4,34.4s15.4,34.4,34.4,34.4
							S117.1,944.8,117.1,925.8z M82.7,850c41.8,0,75.7,33.9,75.7,75.7s-33.9,75.7-75.7,75.7S7,967.6,7,925.8
							C7,883.9,40.9,850,82.7,850z"/>
						<path class="st6" d="M146.1,748.1c-23.5,0-42.5,19.1-42.5,42.7v79.8c0,11.4-9.2,20.7-20.6,20.7s-20.6-9.2-20.6-20.7v-79.8
							c0-46.4,37.5-84,83.7-84V748.1z"/>
						<path class="st2" d="M83,891.3c-11.4,0-20.6-9.2-20.6-20.6S71.6,850,83,850s20.6,9.2,20.6,20.6S94.4,891.3,83,891.3z"/>
						<path class="st2" d="M82.4,946.1c-11.4,0-20.6-9.2-20.6-20.6s9.2-20.6,20.6-20.6s20.6,9.2,20.6,20.6S93.8,946.1,82.4,946.1z"
							/>
						<path class="st4" d="M86.6,534.1c19-0.2,34.3-15.9,34-34.9c-0.2-19-15.9-34.2-34.9-34c-11.4,0.1-20.8-9-20.9-20.4
							s9-20.8,20.4-20.9c41.9-0.5,76.3,32.9,76.8,74.7s-33,76.2-74.8,76.7c-11.4,0.1-20.8-9-20.9-20.4
							C66,543.6,75.2,534.2,86.6,534.1z"/>
						<path class="st4" d="M187,682.1c-19,0-34.4,15.4-34.4,34.4s15.4,34.4,34.4,34.4c75.3,0,136.4,61,136.4,136.2
							c0,11.4-9.3,20.6-20.7,20.6s-20.7-9.2-20.7-20.6c0-52.4-42.6-95-95-95c-41.8,0-75.8-33.9-75.8-75.7s33.9-75.7,75.8-75.7
							c11.4,0,20.7,9.2,20.7,20.6C207.7,672.8,198.5,682.1,187,682.1z"/>
						<path class="st3" d="M492.5,1031.6c0-18.9-15.4-34.3-34.4-34.3s-34.4,15.4-34.4,34.3c0,11.4-9.2,20.6-20.6,20.6
							s-20.6-9.2-20.6-20.6c0-41.7,33.9-75.5,75.7-75.5s75.7,33.8,75.7,75.5c0,11.4-9.2,20.6-20.6,20.6S492.5,1043,492.5,1031.6z"/>
						<path class="st6" d="M456.6,664.4c0,52.4,42.5,94.9,94.9,94.9c11.4,0,20.6,9.2,20.6,20.6c0,11.4-9.2,20.6-20.6,20.6
							c-75.2,0-136.1-61-136.1-136.1c0-11.4,9.2-20.6,20.6-20.6C447.3,643.7,456.6,653,456.6,664.4z"/>
						<path class="st4" d="M876.6,47.4c-76.1,0-137.8,61.7-137.8,137.8c0,11.4-9.3,20.7-20.7,20.7s-20.7-9.3-20.7-20.7
							C697.6,86.2,777.7,6,876.6,6c11.4,0,20.7,9.3,20.7,20.7S888.1,47.4,876.6,47.4z"/>
						<path class="st5" d="M1073.4,174.6c0-69.9-56.7-126.7-126.6-126.7c-11.4,0-20.6-9.2-20.6-20.7s9.2-20.7,20.6-20.7
							c92.7,0,167.9,75.2,167.9,168c0,11.4-9.2,20.7-20.6,20.7S1073.4,186,1073.4,174.6z"/>
						<path class="st4" d="M429.5,566.5c0-54.7-44.3-99-99-99c-11.4,0-20.6-9.2-20.6-20.6s9.2-20.6,20.6-20.6
							c77.4,0,140.2,62.8,140.2,140.3c0,11.4-9.2,20.6-20.6,20.6S429.5,577.9,429.5,566.5z"/>
						<path class="st2" d="M65.9,555c-0.1-11.4,9-20.7,20.4-20.9c11.4-0.1,20.7,9,20.9,20.4c0.1,11.4-9,20.7-20.4,20.9
							C75.4,575.5,66.1,566.4,65.9,555z"/>
						<path class="st2" d="M302.8,907.8c-11.4,0-20.6-9.2-20.6-20.6c0-11.4,9.2-20.6,20.6-20.6s20.6,9.2,20.6,20.6
							S314.2,907.8,302.8,907.8z"/>
						<path class="st2" d="M403,1052.2c-11.4,0-20.6-9.2-20.6-20.6s9.2-20.6,20.6-20.6s20.6,9.2,20.6,20.6
							C423.6,1043,414.3,1052.2,403,1052.2z"/>
						<path class="st2" d="M110.1,1107c-11.4,0-20.6-9.2-20.6-20.6s9.2-20.6,20.6-20.6s20.6,9.2,20.6,20.6S121.5,1107,110.1,1107z"
							/>
						<path class="st3" d="M302.8,962.6c-11.4,0-20.6-9.2-20.6-20.6c0-11.4,9.2-20.6,20.6-20.6s20.6,9.2,20.6,20.6
							C323.4,953.4,314.2,962.6,302.8,962.6z"/>
						<path class="st3" d="M302.8,1018c-11.4,0-20.6-9.2-20.6-20.6s9.2-20.6,20.6-20.6s20.6,9.2,20.6,20.6S314.2,1018,302.8,1018z"
							/>
						<path class="st2" d="M458.3,1059.3c-11.4,0-20.6-9.2-20.6-20.6s9.2-20.6,20.6-20.6s20.6,9.2,20.6,20.6
							C479,1050,469.7,1059.3,458.3,1059.3z"/>
						<path class="st2" d="M458.3,1114.1c-11.4,0-20.6-9.2-20.6-20.6s9.2-20.6,20.6-20.6s20.6,9.2,20.6,20.6
							C479,1104.8,469.7,1114.1,458.3,1114.1z"/>
						<path class="st2" d="M436,685c-11.4,0-20.6-9.2-20.6-20.6c0-11.4,9.2-20.6,20.6-20.6s20.6,9.2,20.6,20.6S447.3,685,436,685z"
							/>
						<path class="st2" d="M188.5,682.1c-11.4,0-20.6-9.2-20.6-20.6c0-11.4,9.2-20.6,20.6-20.6s20.6,9.2,20.6,20.6
							C209.1,672.8,199.9,682.1,188.5,682.1z"/>
						<path class="st4" d="M585,657.6c0-19-15.4-34.4-34.4-34.4s-34.4,15.4-34.4,34.4s15.4,34.4,34.4,34.4S585,676.6,585,657.6z
							 M550.6,581.9c41.8,0,75.7,33.9,75.7,75.7s-33.9,75.7-75.7,75.7s-75.7-33.9-75.7-75.7C474.8,615.8,508.7,581.9,550.6,581.9z"
							/>
						<path class="st5" d="M642.8,244.7c0,11.4,9.2,20.6,20.7,20.6c19,0,34.4,15.4,34.4,34.4v137.5c0,19-15.4,34.4-34.4,34.4
							c-11.4,0-20.7,9.2-20.7,20.6s9.2,20.6,20.7,20.6c21.7,0,41.3-9.1,55.1-23.7c13.8,14.6,33.4,23.7,55.1,23.7H837
							c41.8,0,75.7-33.9,75.7-75.6c0-11.4-9.2-20.6-20.7-20.6s-20.7,9.2-20.7,20.6c0,19-15.4,34.4-34.4,34.4h-63.3
							c-19,0-34.4-15.4-34.4-34.4V299.7c0-41.8-33.9-75.6-75.7-75.6C652,224.1,642.8,233.3,642.8,244.7z"/>
						<path class="st6" d="M684,492.4c0-11.4-9.2-20.6-20.6-20.6c-19,0-34.4-15.4-34.4-34.4V299.8c0-19,15.4-34.4,34.4-34.4
							c11.4,0,20.6-9.2,20.6-20.6s-9.2-20.6-20.6-20.6c-41.8,0-75.7,33.9-75.7,75.7v137.6c0,1.7,0.1,3.4,0.2,5
							c-34.4,10.5-59.4,42.5-59.4,80.3v79.8c0,11.4,9.2,20.6,20.6,20.6s20.6-9.2,20.6-20.6v-79.8c0-19.9,13.6-36.6,32-41.3
							c13.7,19.2,36.2,31.7,61.6,31.7C674.8,513,684,503.8,684,492.4z"/>
						<path class="st3" d="M663.1,512.9c-19,0-34.4,15.4-34.4,34.4s15.4,34.4,34.4,34.4s34.4-15.4,34.4-34.4
							c0-11.4,9.2-20.7,20.6-20.7c11.4,0,20.6,9.2,20.6,20.7c0,41.8-33.9,75.7-75.7,75.7s-75.7-33.9-75.7-75.7s33.9-75.7,75.7-75.7
							c11.4,0,20.6,9.2,20.6,20.7C683.7,503.7,674.5,512.9,663.1,512.9z"/>
						<path class="st6" d="M1160.2,651.7c0-19,15.4-34.4,34.4-34.4s34.4,15.4,34.4,34.4s-15.4,34.4-34.4,34.4
							c-11.4,0-20.6,9.2-20.6,20.7c0,11.4,9.2,20.7,20.6,20.7c41.8,0,75.7-33.9,75.7-75.7s-33.9-75.7-75.7-75.7
							s-75.7,33.9-75.7,75.7c0,11.4,9.2,20.7,20.6,20.7S1160.2,663.1,1160.2,651.7z"/>
						<path class="st2" d="M663.4,512.9c-11.4,0-20.6-9.2-20.6-20.6s9.2-20.6,20.6-20.6c11.4,0,20.6,9.2,20.6,20.6
							S674.8,512.9,663.4,512.9z"/>
						<path class="st2" d="M663.4,265.4c-11.4,0-20.6-9.2-20.6-20.6s9.2-20.6,20.6-20.6c11.4,0,20.6,9.2,20.6,20.6
							C684,256.1,674.8,265.4,663.4,265.4z"/>
						<path class="st2" d="M549.1,623.1c-11.4,0-20.6-9.2-20.6-20.6c0-11.4,9.2-20.6,20.6-20.6s20.6,9.2,20.6,20.6
							C569.7,613.9,560.5,623.1,549.1,623.1z"/>
						<path class="st3" d="M550.3,677.9c-11.4,0-20.6-9.2-20.6-20.6c0-11.4,9.2-20.6,20.6-20.6c11.4,0,20.6,9.2,20.6,20.6
							C570.9,668.7,561.6,677.9,550.3,677.9z"/>
						<path class="st5" d="M1416.2,474.3c0,41.8-33.9,75.7-75.7,75.7h-137.7c-41.8,0-75.7-33.9-75.7-75.7s33.9-75.7,75.7-75.7h44.1
							v-43.3c0-41.8,33.9-75.7,75.7-75.7h137.7c19,0,34.4-15.4,34.4-34.4v-63.3c0-19-15.4-34.4-34.4-34.4
							c-11.4,0-20.7-9.2-20.7-20.6s9.3-20.6,20.7-20.6c41.8,0,75.7,33.9,75.7,75.7v63.3c0,21.7-9.1,41.2-23.8,55
							c14.6,13.8,23.8,33.4,23.8,55v61.9c0,11.4-9.3,20.6-20.7,20.6s-20.7-9.2-20.7-20.6v-61.9c0-19-15.4-34.4-34.4-34.4h-137.7
							c-19,0-34.4,15.4-34.4,34.4v43.3h52.3C1382.3,398.6,1416.2,432.5,1416.2,474.3z M1202.8,439.9c-19,0-34.4,15.4-34.4,34.4
							s15.4,34.4,34.4,34.4h137.7c19,0,34.4-15.4,34.4-34.4s-15.4-34.4-34.4-34.4H1202.8z"/>
						<path class="st4" d="M1107.2,276.1c23.5,9.6,50.1-1.7,59.5-24.8s-1.7-49.7-25.2-59.2c-13-5.3-26.9-4.2-38.4,1.7
							c-10.1,5.2-22.6,1.3-27.8-8.8s-1.3-22.5,8.9-27.8c21.8-11.3,48.4-13.3,73-3.3c44.4,18.1,66,68.6,47.9,113
							s-68.9,65.5-113.4,47.4c-10.6-4.3-15.6-16.3-11.3-26.9C1084.5,276.9,1096.6,271.8,1107.2,276.1z"/>
						<path class="st4" d="M1415.8,478.7c0,52.4,42.5,94.9,94.9,94.9c11.4,0,20.6,9.2,20.6,20.6c0,11.4-9.2,20.6-20.6,20.6
							c-75.2,0-136.1-61-136.1-136.1c0-11.4,9.2-20.6,20.6-20.6C1406.6,458.1,1415.8,467.3,1415.8,478.7z"/>
						<path class="st2" d="M1395.2,498.2c-11.4,0-20.6-9.2-20.6-20.6s9.2-20.6,20.6-20.6s20.6,9.2,20.6,20.6
							C1415.8,488.9,1406.6,498.2,1395.2,498.2z"/>
						<path class="st4" d="M642.7,395.6c0-18.9-15.4-34.3-34.4-34.3s-34.4,15.4-34.4,34.3c0,11.4-9.2,20.6-20.6,20.6
							c-11.4,0-20.6-9.2-20.6-20.6c0-41.7,33.9-75.5,75.7-75.5s75.7,33.8,75.7,75.5c0,11.4-9.2,20.6-20.6,20.6
							C652,416.2,642.7,407,642.7,395.6z"/>
						<path class="st3" d="M981.5,438.7c0-18.9-15.4-34.3-34.4-34.3s-34.4,15.4-34.4,34.3c0,11.4-9.2,20.6-20.6,20.6
							c-11.4,0-20.6-9.2-20.6-20.6c0-41.7,33.9-75.5,75.7-75.5s75.7,33.8,75.7,75.5c0,11.4-9.2,20.6-20.6,20.6
							S981.5,450,981.5,438.7z"/>
						<path class="st6" d="M462.5,1153c52.4,0,94.9-42.5,94.9-94.9c0-11.4,9.2-20.6,20.6-20.6s20.6,9.2,20.6,20.6
							c0,75.2-60.9,136.1-136.1,136.1c-11.4,0-20.6-9.2-20.6-20.6S451.1,1153,462.5,1153z"/>
						<path class="st5" d="M671.7,665.5c60.8,0,110.1-49.3,110.1-110.1c0-11.4,9.2-20.7,20.6-20.7s20.6,9.2,20.6,20.7
							c0,83.6-67.8,151.4-151.4,151.4c-11.4,0-20.6-9.2-20.6-20.7C651,674.7,660.3,665.5,671.7,665.5z"/>
						<path class="st2" d="M663.4,416.2c-11.4,0-20.6-9.2-20.6-20.6S652,375,663.4,375s20.6,9.2,20.6,20.6S674.8,416.2,663.4,416.2z
							"/>
						<path class="st2" d="M807.7,286c-11.4,0-20.6-9.2-20.6-20.6s9.2-20.6,20.6-20.6s20.6,9.2,20.6,20.6
							C828.4,276.7,819.1,286,807.7,286z"/>
						<path class="st2" d="M1121.2,708c0,11.4,9.2,20.6,20.6,20.6s20.6-9.2,20.6-20.6c0-11.4-9.2-20.6-20.6-20.6
							C1130.4,687.4,1121.2,696.6,1121.2,708z"/>
						<path class="st2" d="M1066.4,708c0,11.4,9.2,20.6,20.6,20.6s20.6-9.2,20.6-20.6c0-11.4-9.2-20.6-20.6-20.6
							S1066.4,696.6,1066.4,708z"/>
						<path class="st5" d="M1470.9,1194.2c-41.8,0-75.7-33.9-75.7-75.6V981.1c0-41.8,33.9-75.6,75.7-75.6s75.7,33.9,75.7,75.6v137.5
							C1546.6,1160.4,1512.7,1194.2,1470.9,1194.2z M1505.3,1118.6V981.1c0-19-15.4-34.4-34.4-34.4s-34.4,15.4-34.4,34.4v137.5
							c0,19,15.4,34.4,34.4,34.4S1505.3,1137.6,1505.3,1118.6z"/>
						<path class="st6" d="M1492,926.1c0-41.7,33.9-75.5,75.8-75.5c11.4,0,20.7-9.2,20.7-20.6s-9.3-20.6-20.7-20.6
							c-64.7,0-117.2,52.3-117.2,116.7c0,11.4,9.3,20.6,20.7,20.6S1492,937.5,1492,926.1z"/>
						<path class="st2" d="M1491.8,926.1c0-11.4-9.2-20.6-20.6-20.6s-20.6,9.2-20.6,20.6c0,11.4,9.2,20.6,20.6,20.6
							C1482.6,946.7,1491.8,937.5,1491.8,926.1z"/>
						<path class="st4" d="M1286.5,1084.1c-19,0-34.4,15.4-34.4,34.4s15.4,34.4,34.4,34.4s34.4-15.4,34.4-34.4
							S1305.5,1084.1,1286.5,1084.1z M1210.8,1118.5c0-41.8,33.9-75.7,75.7-75.7s75.7,33.9,75.7,75.7s-33.9,75.7-75.7,75.7
							S1210.8,1160.3,1210.8,1118.5z"/>
						<path class="st6" d="M873.8,985c11.4,0,20.6,9.3,20.6,20.7c0,19,15.4,34.5,34.4,34.5h137.6c19,0,34.4-15.4,34.4-34.5
							c0-11.4,9.2-20.7,20.6-20.7s20.6,9.3,20.6,20.7c0,25.4-12.4,47.9-31.5,61.6c4.8,17.8,21.2,30.8,41.2,30.8h79.8
							c11.4,0,20.6,9.3,20.6,20.7s-9.2,20.7-20.6,20.7h-79.8c-37.3,0-69.4-24-80.1-58.1c-1.7,0.1-3.4,0.2-5.2,0.2H928.8
							c-41.8,0-75.7-34-75.7-75.8C853.1,994.3,862.4,985,873.8,985z"/>
						<path class="st5" d="M704.3,738.6c41.8,0,75.7,33.9,75.7,75.6v137.5c0,41.8-33.9,75.6-75.7,75.6s-75.7-33.9-75.7-75.6V814.3
							C628.6,772.5,662.5,738.6,704.3,738.6z M738.8,814.3c0-19-15.4-34.4-34.4-34.4S670,795.3,670,814.3v137.5
							c0,19,15.4,34.4,34.4,34.4s34.4-15.4,34.4-34.4L738.8,814.3L738.8,814.3z"/>
						<path class="st5" d="M873.7,1026.3c11.4,0,20.6-9.2,20.6-20.7c0-19,15.4-34.4,34.4-34.4l0,0h137.5c19,0,34.4,15.4,34.4,34.4
							c0,11.4,9.2,20.7,20.6,20.7s20.6-9.2,20.6-20.7c0-21.7-9.1-41.3-23.7-55.1c14.6-13.8,23.7-33.4,23.7-55.1V832
							c0-41.8-33.9-75.7-75.6-75.7c-11.4,0-20.6,9.2-20.6,20.7c0,11.4,9.2,20.7,20.6,20.7c19,0,34.4,15.4,34.4,34.4v63.4
							c0,19-15.4,34.4-34.4,34.4H928.7l0,0c-41.8,0-75.6,33.9-75.6,75.7C853.1,1017,862.4,1026.3,873.7,1026.3z"/>
						<path class="st3" d="M1141.9,1005.3c0,19,15.4,34.4,34.4,34.4s34.4-15.4,34.4-34.4s-15.4-34.4-34.4-34.4
							c-11.4,0-20.6-9.2-20.6-20.7c0-11.4,9.2-20.7,20.6-20.7c41.8,0,75.7,33.9,75.7,75.7s-33.9,75.7-75.7,75.7
							s-75.7-33.9-75.7-75.7c0-11.4,9.2-20.7,20.6-20.7C1132.6,984.7,1141.9,993.9,1141.9,1005.3z"/>
						<path class="st3" d="M966.2,836.2c0-19-15.4-34.4-34.4-34.4s-34.4,15.4-34.4,34.4s15.4,34.4,34.4,34.4
							c11.4,0,20.6,9.2,20.6,20.7c0,11.4-9.2,20.7-20.6,20.7c-41.8,0-75.7-33.9-75.7-75.7s33.9-75.7,75.7-75.7s75.7,33.9,75.7,75.7
							c0,11.4-9.2,20.7-20.6,20.7S966.2,847.6,966.2,836.2z"/>
						<path class="st2" d="M684,947.8c0-25.4-20.4-45.8-45.4-45.8s-45.4,20.4-45.4,45.8c0,14,6.2,26.5,16.1,35
							c8.7,7.4,9.7,20.5,2.3,29.2s-20.4,9.7-29.1,2.3c-18.7-16-30.5-39.8-30.5-66.4c0-48.1,38.7-87.2,86.6-87.2s86.6,39.1,86.6,87.2
							c0,11.4-9.2,20.7-20.6,20.7S684,959.2,684,947.8z"/>
						<path class="st2" d="M1141.8,1005c0,11.4-9.2,20.6-20.6,20.6s-20.6-9.2-20.6-20.6c0-11.4,9.2-20.6,20.6-20.6
							C1132.6,984.4,1141.8,993.6,1141.8,1005z"/>
						<path class="st2" d="M894.4,1005.6c0,11.4-9.2,20.6-20.6,20.6s-20.6-9.2-20.6-20.6s9.2-20.6,20.6-20.6
							S894.4,994.2,894.4,1005.6z"/>
						<path class="st2" d="M1252,1118.8c0,11.4-9.2,20.6-20.6,20.6s-20.6-9.2-20.6-20.6s9.2-20.6,20.6-20.6
							C1242.8,1098.2,1252,1107.4,1252,1118.8z"/>
						<path class="st2" d="M1307.4,1118.2c0,11.4-9.2,20.6-20.6,20.6s-20.6-9.2-20.6-20.6s9.2-20.6,20.6-20.6
							C1298.2,1097.6,1307.4,1106.8,1307.4,1118.2z"/>
						<path class="st4" d="M1025.2,1026.3c-18.9,0-34.3,15.4-34.3,34.4s15.4,34.4,34.3,34.4c11.4,0,20.6,9.2,20.6,20.7
							s-9.2,20.7-20.6,20.7c-41.7,0-75.5-33.9-75.5-75.7c0-41.8,33.8-75.7,75.5-75.7c11.4,0,20.6,9.2,20.6,20.7
							S1036.6,1026.3,1025.2,1026.3z"/>
						<path class="st4" d="M1067.6,657.3c-26.2,0-48.2,21.8-48.2,49.5s22,49.5,48.2,49.5c11.4,0,20.7,9.2,20.7,20.6
							c0,11.4-9.2,20.6-20.7,20.6c-49.8,0-89.5-41-89.5-90.8c0-49.7,39.7-90.8,89.5-90.8c11.4,0,20.7,9.2,20.7,20.6
							S1079,657.3,1067.6,657.3z"/>
						<path class="st4" d="M931.5,912c-52.4,0-94.9,42.6-94.9,95.1c0,41.9-33.9,75.8-75.7,75.8s-75.7-33.9-75.7-75.8
							c0-11.4,9.2-20.7,20.6-20.7c11.4,0,20.6,9.3,20.6,20.7c0,19,15.4,34.4,34.4,34.4s34.4-15.4,34.4-34.4
							c0-75.3,61-136.4,136.2-136.4c11.4,0,20.6,9.3,20.6,20.7C952.1,902.7,942.9,912,931.5,912z"/>
						<path class="st6" d="M708.8,738.6c86.6,0,156.7-70.2,156.7-156.8c0-11.4,9.2-20.6,20.6-20.6s20.6,9.2,20.6,20.6
							c0,109.4-88.6,198-198,198c-11.4,0-20.6-9.2-20.6-20.6S697.4,738.6,708.8,738.6z"/>
						<path class="st6" d="M1316.8,46.2c-73.8,0-133.6,59.8-133.6,133.7c0,11.4-9.3,20.7-20.7,20.7s-20.7-9.3-20.7-20.7
							c0-96.7,78.3-175,175-175c11.4,0,20.7,9.3,20.7,20.7S1328.2,46.2,1316.8,46.2z"/>
						<path class="st2" d="M1280.9,990.3c0-52.4-42.5-94.9-94.9-94.9c-11.4,0-20.6-9.2-20.6-20.6s9.2-20.6,20.6-20.6
							c75.2,0,136.1,61,136.1,136.1c0,11.4-9.2,20.6-20.6,20.6S1280.9,1001.7,1280.9,990.3z"/>
						<path class="st5" d="M49.4,1058.1c0,52.4,42.5,94.9,94.9,94.9c11.4,0,20.6,9.2,20.6,20.6s-9.2,20.6-20.6,20.6
							c-75.2,0-136.1-61-136.1-136.1c0-11.4,9.2-20.6,20.6-20.6S49.4,1046.7,49.4,1058.1z"/>
						<path class="st4" d="M593.3,848.8c-34.9,0-63.1,28.3-63.1,63.2c0,11.4-9.2,20.6-20.6,20.6S489,923.4,489,912
							c0-57.6,46.7-104.4,104.3-104.4c11.4,0,20.6,9.2,20.6,20.6C613.9,839.6,604.7,848.8,593.3,848.8z"/>
						<path class="st2" d="M1045.8,1005.6c0,11.4-9.2,20.6-20.6,20.6s-20.6-9.2-20.6-20.6s9.2-20.6,20.6-20.6
							C1036.6,985,1045.8,994.2,1045.8,1005.6z"/>
						<path class="st2" d="M952.7,891.3c0,11.4-9.2,20.6-20.6,20.6s-20.6-9.2-20.6-20.6c0-11.4,9.2-20.6,20.6-20.6
							S952.7,879.9,952.7,891.3z"/>
						<path class="st2" d="M952.1,722.1c0,11.4-9.2,20.6-20.6,20.6s-20.6-9.2-20.6-20.6c0-11.4,9.2-20.6,20.6-20.6
							S952.1,710.7,952.1,722.1z"/>
						<path class="st2" d="M952.1,666.7c0,11.4-9.2,20.6-20.6,20.6s-20.6-9.2-20.6-20.6c0-11.4,9.2-20.6,20.6-20.6
							S952.1,655.3,952.1,666.7z"/>
						<path class="st2" d="M912.6,439.2c0,11.4-9.2,20.6-20.6,20.6s-20.6-9.2-20.6-20.6s9.2-20.6,20.6-20.6S912.6,427.8,912.6,439.2
							z"/>
						<path class="st2" d="M1088.2,776.9c0,11.4-9.2,20.6-20.6,20.6s-20.6-9.2-20.6-20.6c0-11.4,9.2-20.6,20.6-20.6
							C1079,756.3,1088.2,765.6,1088.2,776.9z"/>
						<path class="st4" d="M440.4,119.1c-19,0-34.4-15.4-34.4-34.4s15.4-34.4,34.4-34.4s34.4,15.4,34.4,34.4
							S459.4,119.1,440.4,119.1z M364.7,84.7c0,41.8,33.9,75.7,75.7,75.7s75.7-33.9,75.7-75.7S482.2,9,440.4,9
							S364.7,42.9,364.7,84.7z"/>
						<path class="st5" d="M27.6,176.9c11.4,0,20.6,9.2,20.6,20.7c0,19,15.4,34.4,34.4,34.4h137.5c19,0,34.4-15.4,34.4-34.4
							c0-11.4,9.2-20.7,20.6-20.7s20.6,9.2,20.6,20.7c0,41.8-33.9,75.7-75.6,75.7H85.4l0,0c-19,0-34.4,15.4-34.4,34.4v137.7
							c0,19,15.4,34.4,34.4,34.4c11.4,0,20.6,9.2,20.6,20.7s-9.2,20.7-20.6,20.7c-41.8,0-75.6-33.9-75.6-75.7V307.7
							c0-21,8.6-40.1,22.4-53.8C16.7,240.1,7,220,7,197.6C7,186.2,16.2,176.9,27.6,176.9z"/>
						<path class="st6" d="M225.5,122.3c10.9-33.6,42.6-58,79.9-58h79.8c11.4,0,20.6,9.2,20.6,20.6s-9.2,20.6-20.6,20.6h-79.8
							c-19.5,0-36,13.1-41,30.9c19,13.7,31.3,36,31.3,61.2c0,11.4-9.2,20.6-20.6,20.6s-20.6-9.2-20.6-20.6
							c0-18.9-15.4-34.3-34.4-34.3H82.6c-19,0-34.4,15.4-34.4,34.3c0,11.4-9.2,20.6-20.6,20.6S7,209,7,197.6
							c0-41.7,33.9-75.5,75.6-75.5h137.5C221.9,122.1,223.7,122.2,225.5,122.3L225.5,122.3z"/>
						<path class="st3" d="M295.8,197.9c0-19,15.4-34.4,34.4-34.4s34.4,15.4,34.4,34.4s-15.4,34.4-34.4,34.4
							c-11.4,0-20.6,9.2-20.6,20.7c0,11.4,9.2,20.7,20.6,20.7c41.8,0,75.7-33.9,75.7-75.7s-33.9-75.7-75.7-75.7
							s-75.7,33.9-75.7,75.7c0,11.4,9.2,20.7,20.6,20.7C286.5,218.5,295.8,209.3,295.8,197.9z"/>
						<path class="st2" d="M295.7,198.2c0-11.4-9.2-20.6-20.6-20.6s-20.6,9.2-20.6,20.6s9.2,20.6,20.6,20.6S295.7,209.6,295.7,198.2
							z"/>
						<path class="st3" d="M48.2,197.6c0-11.4-9.2-20.6-20.6-20.6S7,186.2,7,197.6c0,11.4,9.2,20.6,20.6,20.6S48.2,209,48.2,197.6z"
							/>
						<path class="st3" d="M275.1,323.1c0-11.4-9.2-20.6-20.6-20.6s-20.6,9.2-20.6,20.6s9.2,20.6,20.6,20.6
							C265.9,343.7,275.1,334.5,275.1,323.1z"/>
						<path class="st3" d="M275.1,377.9c0-11.4-9.2-20.6-20.6-20.6s-20.6,9.2-20.6,20.6s9.2,20.6,20.6,20.6
							C265.9,398.6,275.1,389.3,275.1,377.9z"/>
						<path class="st3" d="M454.2,401.5c0-11.4-9.2-20.6-20.6-20.6s-20.6,9.2-20.6,20.6s9.2,20.6,20.6,20.6S454.2,412.9,454.2,401.5
							z"/>
						<path class="st3" d="M510.8,398.6c0-11.4-9.2-20.6-20.6-20.6s-20.6,9.2-20.6,20.6s9.2,20.6,20.6,20.6S510.8,409.9,510.8,398.6
							z"/>
						<path class="st3" d="M510.8,456.3c0-11.4-9.2-20.6-20.6-20.6s-20.6,9.2-20.6,20.6s9.2,20.6,20.6,20.6S510.8,467.7,510.8,456.3
							z"/>
						<path class="st3" d="M229.7,1174.8c0-11.4-9.2-20.6-20.6-20.6c-11.4,0-20.6,9.2-20.6,20.6s9.2,20.6,20.6,20.6
							S229.7,1186.2,229.7,1174.8z"/>
						<path class="st2" d="M291.6,1174.8c0-11.4-9.2-20.6-20.6-20.6s-20.6,9.2-20.6,20.6s9.2,20.6,20.6,20.6
							S291.6,1186.2,291.6,1174.8z"/>
						<path class="st3" d="M477.8,1173.6c0-11.4-9.2-20.6-20.6-20.6s-20.6,9.2-20.6,20.6s9.2,20.6,20.6,20.6
							S477.8,1185,477.8,1173.6z"/>
						<path class="st2" d="M405.9,85c0-11.4-9.2-20.6-20.6-20.6s-20.6,9.2-20.6,20.6s9.2,20.6,20.6,20.6S405.9,96.4,405.9,85z"/>
						<path class="st2" d="M461.3,85c0-11.4-9.2-20.6-20.6-20.6S420,73.6,420,85s9.2,20.6,20.6,20.6S461.3,96.4,461.3,85z"/>
						<path class="st4" d="M206.2,176.9c-18.9,0-34.3-15.4-34.3-34.4s15.4-34.4,34.3-34.4c11.4,0,20.6-9.2,20.6-20.7
							s-9.2-20.7-20.6-20.7c-41.7,0-75.5,33.9-75.5,75.7s33.8,75.7,75.5,75.7c11.4,0,20.6-9.2,20.6-20.7S217.6,176.9,206.2,176.9z"
							/>
						<path class="st2" d="M103.6,385c52.4,0,94.9,42.5,94.9,94.9c0,11.4,9.2,20.6,20.6,20.6s20.6-9.2,20.6-20.6
							c0-75.2-60.9-136.1-136.1-136.1c-11.4,0-20.6,9.2-20.6,20.6C83,375.8,92.2,385,103.6,385z"/>
						<path class="st2" d="M107.2,500.5c0-11.4-9.2-20.6-20.6-20.6S66,489.1,66,500.5s9.2,20.6,20.6,20.6S107.2,511.9,107.2,500.5z"
							/>
						<path class="st3" d="M1007.5,891.3c0,11.4-9.2,20.6-20.6,20.6s-20.6-9.2-20.6-20.6c0-11.4,9.2-20.6,20.6-20.6
							S1007.5,879.9,1007.5,891.3z"/>
						<path class="st3" d="M1062.3,891.3c0,11.4-9.2,20.6-20.6,20.6s-20.6-9.2-20.6-20.6c0-11.4,9.2-20.6,20.6-20.6
							C1053.1,870.7,1062.3,879.9,1062.3,891.3z"/>
						<path class="st2" d="M725.3,759.3c0,11.4-9.2,20.6-20.6,20.6s-20.6-9.2-20.6-20.6s9.2-20.6,20.6-20.6S725.3,747.9,725.3,759.3
							z"/>
						<path class="st2" d="M726.4,1006.8c0,11.4-9.2,20.6-20.6,20.6s-20.6-9.2-20.6-20.6c0-11.4,9.2-20.6,20.6-20.6
							S726.4,995.4,726.4,1006.8z"/>
						<path class="st4" d="M956.3,192.3c-23.3,0-42.4,19-42.4,42.8c0,23.7,19.1,42.8,42.4,42.8c84.7,0,153.1,69,153.1,153.8
							c0,11.4-9.2,20.6-20.7,20.6c-11.4,0-20.7-9.2-20.7-20.6c0-62.3-50.2-112.5-111.8-112.5c-46.4,0-83.7-37.7-83.7-84
							s37.4-84,83.7-84c11.4,0,20.7,9.2,20.7,20.6S967.7,192.3,956.3,192.3z"/>
						<path class="st2" d="M1067.6,431.6c0,62.6-50.1,113-111.4,113c-11.4,0-20.6,9.3-20.6,20.7s9.2,20.7,20.6,20.7
							c84.5,0,152.6-69.3,152.6-154.4c0-11.4-9.2-20.7-20.6-20.7C1076.8,410.9,1067.6,420.2,1067.6,431.6z"/>
						<path class="st3" d="M1088.2,452.2c-11.4,0-20.6-9.2-20.6-20.6s9.2-20.6,20.6-20.6s20.6,9.2,20.6,20.6
							C1108.8,443,1099.6,452.2,1088.2,452.2z"/>
						<path class="st5" d="M807.7,306.6c11.4,0,20.6,9.3,20.6,20.7v89.5c0,11.4-9.2,20.7-20.6,20.7s-20.6-9.3-20.6-20.7v-89.5
							C787.1,315.9,796.4,306.6,807.7,306.6z"/>
						<path class="st5" d="M469.5,190.5c0,76.8-62.2,139-139,139c-11.4,0-20.6,9.2-20.6,20.6s9.2,20.6,20.6,20.6
							c99.6,0,180.3-80.7,180.3-180.3c0-11.4-9.2-20.6-20.6-20.6S469.5,179.1,469.5,190.5z"/>
						<path class="st6" d="M1148.9,234.7c0,11.4-9.3,20.6-20.7,20.6H953.3c-11.4,0-20.7-9.2-20.7-20.6s9.3-20.6,20.7-20.6h174.9
							C1139.7,214.1,1148.9,223.3,1148.9,234.7z"/>
						<path class="st2" d="M510.8,190.5c0-11.4-9.2-20.6-20.6-20.6s-20.6,9.2-20.6,20.6c0,11.4,9.2,20.6,20.6,20.6
							S510.8,201.9,510.8,190.5z"/>
						<path class="st3" d="M1107.5,190.4c-8.1,8.1-21.1,8.1-29.2,0s-8.1-21.1,0-29.2c8.1-8.1,21.1-8.1,29.2,0
							C1115.6,169.2,1115.6,182.3,1107.5,190.4z"/>
						<path class="st3" d="M967.3,128.5c-8.1,8.1-21.1,8.1-29.2,0c-8.1-8.1-8.1-21.1,0-29.2s21.1-8.1,29.2,0
							C975.3,107.3,975.3,120.4,967.3,128.5z"/>
						<path class="st3" d="M7,636.7c0-11.4,9.2-20.6,20.6-20.6h66c11.4,0,20.6,9.2,20.6,20.6s-9.2,20.6-20.6,20.6h-66
							C16.2,657.3,7,648.1,7,636.7z"/>
						<path class="st5" d="M663.4,1191.3c-11.4,0-20.6-9.2-20.6-20.6v-59c0-11.4,9.2-20.6,20.6-20.6s20.6,9.2,20.6,20.6v59
							C684,1182.1,674.8,1191.3,663.4,1191.3z"/>
						<path class="st4" d="M762.4,1174.8c0-11.4,9.2-20.6,20.6-20.6h163.8c11.4,0,20.6,9.2,20.6,20.6s-9.2,20.6-20.6,20.6H783
							C771.6,1195.4,762.4,1186.2,762.4,1174.8z"/>
						<path class="st2" d="M7,27.2C7,15.8,16.2,6.6,27.6,6.6h94.9c11.4,0,20.6,9.2,20.6,20.6s-9.2,20.6-20.6,20.6H27.6
							C16.2,47.9,7,38.6,7,27.2z"/>
						<path class="st2" d="M952.1,1195.4c-11.4,0-20.6-9.2-20.6-20.6s9.2-20.6,20.6-20.6s20.6,9.2,20.6,20.6
							C972.7,1186.2,963.5,1195.4,952.1,1195.4z"/>
						<path class="st2" d="M892,137.4c-34.9,0-63.1,28.3-63.1,63.2c0,11.4-9.2,20.6-20.6,20.6c-11.4,0-20.6-9.2-20.6-20.6
							c0-57.6,46.7-104.4,104.3-104.4c11.4,0,20.6,9.2,20.6,20.6S903.4,137.4,892,137.4z"/>
						<path class="st3" d="M793.8,185.9c8.1-8.1,21.1-8.1,29.2,0c8.1,8.1,8.1,21.1,0,29.2c-8.1,8.1-21.1,8.1-29.2,0
							C785.7,207,785.7,194,793.8,185.9z"/>
						<path class="st5" d="M1202.5,789.3c72.9,0,132-59.1,132-132c0-11.4,9.2-20.6,20.6-20.6s20.6,9.2,20.6,20.6
							c0,95.7-77.6,173.3-173.2,173.3c-11.4,0-20.6-9.2-20.6-20.6S1191.1,789.3,1202.5,789.3z"/>
						<path class="st3" d="M1369.7,671.9c-8.1,8.1-21.1,8.1-29.2,0s-8.1-21.1,0-29.2c8.1-8.1,21.1-8.1,29.2,0
							C1377.8,650.8,1377.8,663.8,1369.7,671.9z"/>
						<path class="st3" d="M1428,671.9c-8.1,8.1-21.1,8.1-29.2,0s-8.1-21.1,0-29.2c8-8.1,21.1-8.1,29.2,0S1436.1,663.8,1428,671.9z"
							/>
						<path class="st4" d="M1566,749.3c-98.9,0-179,80.2-179,179.1c0,11.4-9.2,20.7-20.7,20.7s-20.7-9.3-20.7-20.7
							c0-121.7,98.6-220.4,220.3-220.4c11.4,0,20.7,9.3,20.7,20.7S1577.4,749.3,1566,749.3z"/>
						<path class="st2" d="M1148.9,234.6c0.1,11.4-9.1,20.7-20.5,20.7c-11.4,0.1-20.7-9.1-20.7-20.5c-0.1-11.4,9.1-20.7,20.5-20.7
							C1139.6,214,1148.9,223.2,1148.9,234.6z"/>
						<path class="st2" d="M1337.5,25.4c0.1,11.4-9.1,20.7-20.5,20.7c-11.4,0.1-20.7-9.1-20.7-20.5c-0.1-11.4,9.1-20.7,20.5-20.7
							C1328.1,4.8,1337.4,14,1337.5,25.4z"/>
						<path class="st2" d="M1148.9,27.1c0.1,11.4-9.1,20.7-20.5,20.7c-11.4,0.1-20.7-9.1-20.7-20.5c-0.1-11.4,9.1-20.7,20.5-20.7
							C1139.6,6.6,1148.9,15.7,1148.9,27.1z"/>
						<path class="st2" d="M1148.9,81.9c0.1,11.4-9.1,20.7-20.5,20.7c-11.4,0.1-20.7-9.1-20.7-20.5c-0.1-11.4,9.1-20.7,20.5-20.7
							C1139.6,61.4,1148.9,70.6,1148.9,81.9z"/>
						<path class="st6" d="M1555.5,677.9h-81.9c-11.4,0-20.6-9.2-20.6-20.6c0-11.4,9.2-20.6,20.6-20.6h81.9
							c11.4,0,20.6,9.2,20.6,20.6S1566.8,677.9,1555.5,677.9z"/>
						<path class="st2" d="M1586.7,728.6c0,11.4-9.2,20.6-20.6,20.6s-20.6-9.2-20.6-20.6s9.2-20.6,20.6-20.6
							S1586.7,717.2,1586.7,728.6z"/>
						<path class="st3" d="M1351,179.6c0-19-15.4-34.4-34.4-34.4s-34.4,15.4-34.4,34.4s15.4,34.4,34.4,34.4
							c11.4,0,20.6,9.2,20.6,20.7c0,11.4-9.2,20.7-20.6,20.7c-41.8,0-75.7-33.9-75.7-75.7s33.9-75.7,75.7-75.7s75.7,33.9,75.7,75.7
							c0,11.4-9.3,20.7-20.6,20.7C1360.2,200.3,1351,191,1351,179.6z"/>
						<path class="st6" d="M1457.1,37.3c-18.9,0-34.3,15.4-34.3,34.4s15.4,34.4,34.3,34.4c11.4,0,20.6,9.2,20.6,20.7
							c0,11.4-9.2,20.7-20.6,20.7c-41.7,0-75.5-33.9-75.5-75.7S1415.4-4,1457.1-4c11.4,0,20.6,9.2,20.6,20.7
							C1477.7,28.1,1468.5,37.3,1457.1,37.3z"/>
						<path class="st2" d="M1338.6,234.7c0,11.4-9.2,20.6-20.6,20.6s-20.6-9.2-20.6-20.6s9.2-20.6,20.6-20.6
							C1329.4,214.1,1338.6,223.3,1338.6,234.7z"/>
						<path class="st3" d="M1478.9,126.8c0,11.4-9.2,20.6-20.6,20.6s-20.6-9.2-20.6-20.6s9.2-20.6,20.6-20.6
							C1469.6,106.2,1478.9,115.5,1478.9,126.8z"/>
						<path class="st3" d="M1394,234.7c0,11.4-9.2,20.6-20.6,20.6s-20.6-9.2-20.6-20.6s9.2-20.6,20.6-20.6
							C1384.8,214.1,1394,223.3,1394,234.7z"/>
						<path class="st3" d="M1448.8,234.7c0,11.4-9.2,20.6-20.6,20.6s-20.6-9.2-20.6-20.6s9.2-20.6,20.6-20.6
							S1448.8,223.3,1448.8,234.7z"/>
						<path class="st2" d="M1480.6,70.9c0,11.4-9.2,20.6-20.6,20.6s-20.6-9.2-20.6-20.6s9.2-20.6,20.6-20.6
							C1471.4,50.2,1480.6,59.5,1480.6,70.9z"/>
						<path class="st2" d="M1535.4,70.9c0,11.4-9.2,20.6-20.6,20.6s-20.6-9.2-20.6-20.6s9.2-20.6,20.6-20.6
							C1526.2,50.2,1535.4,59.5,1535.4,70.9z"/>
						<path class="st2" d="M1590.8,70.9c0,11.4-9.2,20.6-20.6,20.6s-20.6-9.2-20.6-20.6s9.2-20.6,20.6-20.6
							C1581.6,50.2,1590.8,59.5,1590.8,70.9z"/>
						<path class="st3" d="M1515.4,438.6c-11.4,0-20.6-9.2-20.6-20.6s9.2-20.6,20.6-20.6s20.6,9.2,20.6,20.6
							S1526.8,438.6,1515.4,438.6z"/>
					</g>
				</g>
			</g>
		</g>
	</g>
</g>
</svg>
