<?xml version="1.0" encoding="utf-8"?>
<!-- Generator: Adobe Illustrator 25.0.1, SVG Export Plug-In . SVG Version: 6.00 Build 0)  -->
<svg version="1.1" id="Layer_0_Image" xmlns="http://www.w3.org/2000/svg" xmlns:xlink="http://www.w3.org/1999/xlink" x="0px"
	 y="0px" viewBox="0 0 658.5 187.8" style="enable-background:new 0 0 658.5 187.8;" xml:space="preserve">
<path d="M215.7,93c-5.2,3-11.2,4.2-17,5.5c-25.2,5.8-50.1,3.6-74.9-2.8c-16.6-4.3-32.6-10.1-48.4-16.5c-1.4-0.6-2.9-1.2-4.5-1
	c-1.8,0.2-2.8,0.9-1.1,2.6c0.4,0.4,1.4,0.5,0.6,1.3c-2.8,2.7-0.6,4.6,1.1,6.5c3.2,3.5,7.6,5.4,11.7,7.5c11.4,6,23,11.6,35.3,15.7
	c11.4,3.7,23.2,5.8,35.1,7.5c7.5,1.1,15.2,2.1,22.7,0.5c4.9-1,9.8-0.2,14.6-1.2c9.3-1.8,18.5-3.8,27.2-7.7c7.2-3.2,13-7.9,17.3-14.5
	c1.2-2,3.3-3.3,5.7-3.4c6.6-0.6,13.2-1.3,19.8-2.2c10.7-1.4,21-4.5,31.2-7.9c16.3-5.5,31.8-12.6,45.3-23.3
	c8-6.3,15.4-13.1,18.6-23.2c0.8-2.7,1.1-5.3-0.3-7.9c-0.6-1.1-1.4-1.8-2.8-1.7c-1.6,0.1-1.2,1.1-1.4,2.3c-1.2,8-7.4,12.1-13,16.7
	c-15.5,12.5-33.6,19.7-52.3,25.5c-14.3,4.5-29,7.4-44,8.8c-1.2,0.1-2.5,0.8-2.7-1.4c-0.5-7.9-4.3-14.3-10-19.6
	c-8.7-8.1-18.7-13.2-31-10.7c-6.6,1.3-9.5,5.2-10.4,11.8c-2.2,16.9,9.5,28,23.4,31c1.2,0.3,2.5,0.5,3.7,0.8
	C215.6,92.4,215.7,92.7,215.7,93z M197.6,68.1c-1.7-3.3,0.6-4,2.7-4.7c7.1-2.4,13.1,0.9,18.9,4.2c4.2,2.4,8.2,5.4,10.6,9.9
	c0.9,1.7,1.2,3.3-1.7,3.2c-7.8-0.2-15.4-1.5-22.3-5.3C202.4,73.6,199.5,71.2,197.6,68.1L197.6,68.1z M190.1,104.6
	c9.4-2.3,18.7-4.3,27.7-7.7C209.3,102.2,199.7,103.7,190.1,104.6L190.1,104.6z M240.8,83.1l24.9-3.3
	C257.7,82.4,249.2,83.5,240.8,83.1L240.8,83.1z"/>
<path d="M61.1,99.2c-3.8-7.1-8.8-13.4-13.5-19.9c-0.7-1-2-1.7-1.2-3.3c0.8-1.5,2.3-1.1,3.4-1c6.3,0.7,12.4-0.5,18.6-1
	c3.9-0.3,7.9,0.1,11.9-0.4c6.2-0.7,12.4-0.9,18.6-1.2c3.2-0.1,6.1-1.7,9.5-0.6c3.3,1.1,5.3-0.8,6.1-5.8c0.4-2.6-0.3-5.3-3.5-5.9
	c-2.7-0.5-5.4-0.7-8.1-0.7c-17.8,0.4-35.7,0.9-53.5,1.3c-4,0.1-8-0.1-12-0.2C30,60.2,28,62.3,28,69.6c-0.1,5.7,2,10.2,6,14.1
	c7.8,7.6,15.3,15.4,21.5,24.4c1.2,1.8,2.2,3.8,3.4,5.6c1.4,2.1,2.7,2.2,4-0.1C65.7,108.5,65.6,107.3,61.1,99.2z M60.5,63.7
	c-7.8,1.3-15.7,1.6-23.5,0.3L60.5,63.7z"/>
</svg>
