<?xml version="1.0" encoding="UTF-8"?><svg id="Layer_0_Image" data-name="Layer 0 Image" xmlns="http://www.w3.org/2000/svg" viewBox="0 0 800 600" x="0px" y="0px" width="800px" height="600px" version="1.1" xmlns:xlink="http://www.w3.org/1999/xlink"><title>1</title><path d="M271.22,428.572c2.331-2.364,2.523-5.7,3.745-8.554a257.754,257.754,0,0,1,12.058-24.147,67.618,67.618,0,0,0,4.153-8.812c2.793-7.318.984-13.816-5.384-19.275S272.27,358,265.418,353.229a129.527,129.527,0,0,1-21.241-18.158,119.541,119.541,0,0,1-22.226-33.824c-5.526-12.747-9.781-25.89-9.289-39.981.36-10.3,3.154-19.95,10.935-27.333,5.452-5.175,12.219-8.068,19.439-9.875,6.327-1.584,12.668-2.976,18.191-6.809,11.712-8.129,16.719-19.634,17.38-33.473.478-10.013-.732-19.946-1.351-29.9-1.129-18.173-1.619-36.251,4.191-53.9C286.656,84.15,294.34,69.8,305.815,57.616A57.848,57.848,0,0,1,321.85,45.374c8.8-4.431,17.954-7.027,27.811-3.362,7.243,2.693,12.728,7.564,17.126,13.759A80.087,80.087,0,0,1,378.086,80c1.506,5.129,3.644,10.108,4.887,15.354,1.557,6.569,3.342,13.109,5.328,19.526,5.216,16.849,11.4,33.325,26.293,44.527,6.324,4.758,13.742,6.441,21.422,7.149,10.579.976,21.028-.311,31.484-1.837,11.1-1.62,22.1-3.917,33.335-4.587,9.655-.576,19.269-.894,28.781,1.556,23.384,6.023,40.87,19.586,52.1,40.944,3.246,6.173,4.632,13.016,5.221,20.027a59.831,59.831,0,0,1,.184,12.381,85.4,85.4,0,0,1-6.464,23.089A242.34,242.34,0,0,1,568.5,282.378c-4.239,7.485-8.858,14.756-13.027,22.278-2.885,5.2-6.114,10.2-8.719,15.6-1.347,2.792-2.384,5.985-4.81,8.338-1.57,1.523-1.5,4.033-2.6,5.923-5.128,8.812-8.45,18.349-11.263,28.091a3.914,3.914,0,0,1-.829,1.691,3.687,3.687,0,0,0-.67,4.863,2.837,2.837,0,0,1,.111,1.591c-1.377,10.3.451,20.238,3.358,30.056,2.782,9.394,6.584,18.428,9.773,27.677,4.771,13.841,7.88,27.959,6.086,42.747a72.175,72.175,0,0,1-4.446,18.5c-8.539,20.985-22.969,36.879-42.69,48.086-5.42,3.08-10.991,5.859-16.605,8.474a132.314,132.314,0,0,1-44.356,11.691q-19.73,1.779-39.51,1.741c-26.537-.049-51.639-5.494-74.56-19.521-8.9-5.447-18.471-9.743-27.307-15.346A47.448,47.448,0,0,1,283.253,512.8c-2.628-3.594-5.359-7.116-8.151-10.584-5.477-6.8-9.139-14.256-9.84-23.175a233.629,233.629,0,0,1-.568-33.215c.6-9.423,4.381-18.135,7.639-26.879,3.863-10.366,9.471-19.9,14.906-29.491a11.519,11.519,0,0,1,2.355-2.818c-.172,3.137-1.873,5.63-3.312,8.148a191.1,191.1,0,0,0-13.8,28.846,31.768,31.768,0,0,0-1.224,5,48.939,48.939,0,0,0-3.025,10.938C269.164,435.888,271.615,432.612,271.22,428.572ZM305.262,61.261c-3.877,2.2-5.128,6.326-7.366,9.73a28.265,28.265,0,0,0,3.9-4.781c1.079-1.711,3.184-2.727,3.4-5.012,2.15-1.2,6.5-5.985,6.347-7.407a25.878,25.878,0,0,1-4,4.28C306.575,58.964,305.272,59.663,305.262,61.261Zm93.865,492.752c4.625,0,9.251.04,13.876-.008a192.477,192.477,0,0,0,30.029-2.737c14.376-2.422,27.832-7.415,40.8-14,13.279-6.742,25.093-15.3,34.667-26.777,20.016-24,24.151-50.922,14.417-80.232-2.566-7.724-5.773-15.235-8.65-22.857-5.96-15.786-8.263-31.869-4.125-48.538,2.981-12.008,8.1-23.113,13.912-33.944,8.165-15.216,17.395-29.812,26.1-44.715,7.063-12.094,13.677-24.381,17.6-37.949a57.182,57.182,0,0,0-.351-34.573c-4.214-12.617-12.4-22.573-23.154-30.432a63.435,63.435,0,0,0-41.411-12.447,262.062,262.062,0,0,0-33.957,3.982c-13.967,2.438-27.906,4.833-42.138,3.057-9.181-1.145-17.989-3.549-25.724-8.938-11.941-8.318-19.23-20.089-24.546-33.281a124.362,124.362,0,0,1-4.892-14.892c-1.847-7.029-4.287-13.925-5.126-21.166a17.611,17.611,0,0,0-1.163-3.53c-.753-2.431-1.247-4.95-2.109-7.338-3.094-8.571-6.508-17-11.354-24.781-2.2-3.533-4.636-7.363-7.829-9.43-4.532-2.935-10.046-4.538-15.948-2.7-1.867.58-3.863.548-5.605,1.815a2.874,2.874,0,0,1-3.1.136c-1.084-.7-1.465-.261-2.394.515-1.989,1.662-2.8,4.526-5.609,5.316-2.573.726-4.181,2.856-5.72,4.743-1.431,1.755-3.36,2.828-4.721,4.866-3.141,4.7-6.563,9.21-9.112,14.3-.87,1.735-1.959,3.38-2.933,5.026-1.333,2.256-2.053,4.752-3.4,7.009a42.464,42.464,0,0,0-4.633,11.031c-1.091,4.253-2.8,8.349-3.347,12.751-.395,3.161-1.218,6.282-1.438,9.449a227.22,227.22,0,0,0,.242,29.579c.3,4.964.378,9.943.637,14.911.2,3.812,1.277,7.552.938,11.416-.283,3.232.143,6.664-.449,9.662-.692,3.5-.022,7.729-3.226,10.548-1,8.118-6.414,13.386-12.139,18.3-6.886,5.912-15.245,8.787-23.966,10.752-5.167,1.164-10.193,2.928-14.419,6.083a26.011,26.011,0,0,0-9.722,15.523c-.392,1.721-1.709,2.963-1.922,4.727-.333,2.747.835,5.573-.56,8.286a3.178,3.178,0,0,0,0,2.394c1.135,2.652-.022,5.605,1.555,8.381.713,1.255.46,3.792.878,5.6a102.114,102.114,0,0,0,11.285,29.429c5.058,8.521,9.888,17.211,17.091,24.17,2.767,2.673,5.223,5.622,8.409,7.961,5.286,3.881,10.249,8.232,15.771,11.786,4.855,3.124,8.993,7.115,13.566,10.576,6.528,4.941,9.7,11.393,7.843,19.742-.618,2.779-1.665,5.421-2.208,8.257a24.12,24.12,0,0,1-3.362,9.321c-1.751,2.566-3.118,5.392-4.754,8.042-.72,1.166-1.078,2.764-2.876,2.95-.3.031-.805.507-.526.743,1.659,1.4.045,2.436-.354,3.56-1.179,3.325-2.543,6.588-3.638,9.938-1.74,5.321-2.65,10.878-4.629,16.155a8.323,8.323,0,0,0-.689,3.645c1.033,10.552-.5,21.167.736,31.736.181,1.544.489,3.043.681,4.563a26.21,26.21,0,0,0,3.771,10.8c4.319,6.979,9.671,13.18,14.348,19.881a27.549,27.549,0,0,0,8.262,7.818c9.212,5.633,18.041,11.865,27.5,17.13,8.913,4.965,17.972,9.487,27.813,12.3C371.389,553.254,385.21,554.216,399.127,554.013ZM216.651,250.907c-2.078,4-2.751,13.016-1.407,17.54C215.183,262.29,215.228,256.534,216.651,250.907Zm57.726,217.6h.215V448.661h-.215Z"/></svg>