<?xml version="1.0" encoding="UTF-8"?><svg id="Layer_0_Image" data-name="Layer 0 Image" xmlns="http://www.w3.org/2000/svg" viewBox="0 0 800 600" x="0px" y="0px" width="800px" height="600px" xmlns:xlink="http://www.w3.org/1999/xlink" version="1.1"><title>1</title><path d="M480.035,510.254l1.545.359a118.977,118.977,0,0,1-28.159-.841A136.146,136.146,0,0,1,415.4,497.838a278.678,278.678,0,0,1-33.941-19.581c-15.905-10.555-31.934-20.9-48.906-29.716A119.691,119.691,0,0,0,287.7,435.212c-6.232-.56-12.466-1.015-18.882-1.107.718-1.171,1.728-.235,2.868-.894-1.878,0-3.731-.555-4.68.134a3.686,3.686,0,0,1-3.692.666c-3.931-2.09-7.965-.527-11.915-.631-3.132-.083-6.161,1.405-9.4,1.232-4.115-.221-8.217.519-12.369-.743-1.855-.563-4.218.028-6.38.61-2,.538-4.591.716-6.347-.135-2.955-1.431-5.951-.493-8.9-1.025a183.7,183.7,0,0,1-21.4-4.965,149.063,149.063,0,0,1-28.613-12.508c-15.161-8.421-24.948-21.4-31.506-37.062-6.567-15.69-6.837-31.385.417-47.018,3.819-8.233,7.628-16.469,12.164-24.335a66.662,66.662,0,0,1,10.446-13.867c3.662-3.675,5.894-8.23,8.237-12.71,6.181-11.819,13.473-22.829,23.113-32.14,9.735-9.4,21.172-16.194,33.616-21.307,16.547-6.8,33.964-9.634,51.671-11.354,25.475-2.473,50.987-4.883,75.724-12.023,17.434-5.032,34.277-11.463,49.577-21.454,6.77-4.421,12.274-10.155,17.545-16.217,9.291-10.685,17.933-21.934,27.732-32.175,7.039-7.356,14.3-14.5,22.782-20.223,14.864-10.03,30.728-18.04,48.333-21.88,18.866-4.115,37.775-4.851,56.373,1.727,17.7,6.261,32.095,16.558,40.329,33.98,4.5,9.529,5.929,19.814,5.983,30.251.1,19.165-1.732,38.281-1.567,57.455.112,12.991-.286,26,1.763,38.9,2.5,15.76,9.522,29.4,19.5,41.687,6.7,8.261,13.779,16.2,20.635,24.329,8.222,9.749,15.817,19.932,21.284,31.552,9.607,20.419,7.981,40.373-2.509,59.926a128.133,128.133,0,0,1-23.314,30.658c-3.92,3.867-8.113,7.406-12.242,10.988a75.4,75.4,0,0,1-12.231,8.649c-3.478,1.97-6.521,4.67-10.014,6.73a330.3,330.3,0,0,1-39.247,19.92c-8.115,3.428-16.439,6.255-24.773,9.015-6.666,2.207-13.469,4.024-20.369,5.572-5.692,1.277-11.39,2.716-17.133,3.783-3.08.572-6.319.019-9.5.506a130.452,130.452,0,0,1-19.111,1.808c-.643,0-1.289.057-1.624.755-4.073-.768-8.126-.145-12.182-.035A56.156,56.156,0,0,0,480.035,510.254Zm66.84-408.836-.1-.381c-2.62-.128-5.245-.426-7.859-.351-8.517.247-17.032.2-25.172,3.664-2.134.909-4.881.687-7.158,1.892-3.117,1.651-6.694,1.825-9.932,3.534-4.993,2.634-10.112,5.143-15.317,7.375-3.452,1.48-6.339,3.785-9.491,5.675a79,79,0,0,0-6.943,5.26,95.826,95.826,0,0,0-12.034,10.757c-3.709,3.983-7.272,8.139-10.769,12.333-3.451,4.138-6.733,8.431-10.276,12.489a146.462,146.462,0,0,0-11.62,14.967c-1.746,2.619-4.319,4.293-6.148,6.832a34.291,34.291,0,0,1-5.209,6.24,98.4,98.4,0,0,1-11.778,8.776c-13.906,8.686-28.993,14.677-44.666,19.244-4.829,1.407-9.619,3.171-14.8,3.033a12.06,12.06,0,0,0-4.779.577,29.391,29.391,0,0,1-8.894,2.029c-6.416.513-12.7,1.871-19.106,2.542-10.371,1.088-20.745,2.083-31.153,2.556-6.333.288-12.563,1.461-18.928,1.589-4.071.083-8.122,1.564-12.167,2.483-19.126,4.344-36.543,12.1-50.609,26.137-1.783,1.78-4.314,1.661-5.821,3.708-6.779,9.214-13.683,18.333-20.971,27.161-7.658,9.277-11.784,20.631-17.776,30.893-1.218,2.086-1.128,2.125-3.628,3.229-.253.112-.353.6-.5.92-2.96,6.431-6.474,12.612-8.853,19.3-1.487,4.184-3.329,8.31-3.4,12.849-.239,15.807,6.3,28.472,18.281,38.436,6.755,5.617,14.544,9.585,22.509,13.189a127.024,127.024,0,0,0,51.987,11.448c18.056.133,36.093-1.007,54.17-.245a132.278,132.278,0,0,1,51.014,12.168c19.41,9.054,37.413,20.511,55.329,32.13,12.284,7.965,24.831,15.478,38.382,21.131,19.06,7.95,38.915,10.607,59.462,8.99a271.658,271.658,0,0,0,36.889-5.4c33.31-7.3,64.9-19.145,94.371-36.467,13.44-7.9,25.857-17.037,36.015-29,6.847-8.069,13.073-16.532,17.132-26.405,2.381-5.793,3.9-11.743,2.973-18.067a65.137,65.137,0,0,0-7.415-22.1c-7.687-13.977-18.383-25.665-28.717-37.636-10.135-11.742-20.039-23.581-25.776-38.388a94.8,94.8,0,0,1-6.294-26.319c-1.977-23.159-.44-46.293.958-69.417.646-10.684,2.225-21.324,1.424-32.073-.538-7.207-1.814-14.229-5.1-20.756a55.294,55.294,0,0,0-27.622-25.439,2.866,2.866,0,0,1-.956-.5c-2.933-2.908-6.783-3.212-10.551-3.776-.978-.147-2.269-.095-2.848-.689-2.077-2.13-4.951-.38-7.334-1.775-1.048-.613-3.488.158-5.316-.145ZM305.213,428.4a125.532,125.532,0,0,0-29.716-4.3c-12.044-.374-24.086-.155-36.129.2-6.5.192-13.015.117-19.517.325-1.584.051-3.235-1.168-4.965.165a78.416,78.416,0,0,0,13.689.773c14.3-.19,28.594-.849,42.9-.545A190.284,190.284,0,0,1,305.213,428.4ZM539.78,92.092a119.747,119.747,0,0,1,32.479,7.933A67.292,67.292,0,0,0,539.78,92.092ZM345.888,207.6A129.753,129.753,0,0,0,381.7,193.416C370.025,198.806,358.025,203.373,345.888,207.6ZM204.367,236.533c-10.157,5.447-19.662,11.732-26.6,21.211A148.749,148.749,0,0,1,204.367,236.533ZM470.789,499.71c-12.123.337-23.848-2.344-35.617-4.692A84.857,84.857,0,0,0,470.789,499.71ZM523.783,91.987c.572.7.7.969.795.958a58.983,58.983,0,0,1,12.479-.408.67.67,0,0,0,.818-.528c.094-.622-.395-.789-.842-.766C532.766,91.464,528.5,91.717,523.783,91.987Zm-140.7,114.351a48.027,48.027,0,0,0,12.976-7.009ZM253.593,431.63c4.816.861,7.111.42,7.933-1.84C259.331,433.33,256.369,430.017,253.593,431.63Zm-9.114,2.479.062-.34H233.787v.34Z"/></svg>