<?xml version="1.0" encoding="UTF-8"?><svg id="Layer_0_Image" data-name="Layer 0 Image" xmlns="http://www.w3.org/2000/svg" viewBox="0 0 800 600" x="0px" y="0px" width="800px" height="600px" version="1.1" xmlns:xlink="http://www.w3.org/1999/xlink"><title>1</title><path d="M582.918,221.673a22.083,22.083,0,0,0,1.035,4.277c.886,1.822.845,3.816,1.422,5.684.353,1.142.214,2.479.728,3.512a4.163,4.163,0,0,1,.376,2.027,18.3,18.3,0,0,0,1.036,6.118c.387,1.107.209,2.364.517,3.591a39.94,39.94,0,0,1,.64,6.567,5.14,5.14,0,0,0,.478,2.542c.361.6.07,1.595.07,2.413a7,7,0,0,0,.081,2.69,7.935,7.935,0,0,1,.36,1.838c.422,1.963.436,4.011.661,6.02.115,1.023.385,2.028.525,3.049s-.333,2.156.555,3.045c-.109,2.378.954,4.564,1.123,6.908.11,1.518,1.278,2.825,1.082,4.45,1.775,2.4,2.129,5.508,4.017,7.892a39.081,39.081,0,0,0,5.315,5.985c2.615,2.2,5.635,3.628,8.466,5.379a32.074,32.074,0,0,0,5.042,2.269c1.718.68,3.469,1.3,5.123,2.112a54.35,54.35,0,0,0,5.1,2.153c2.917,1.082,5.825,2.2,8.665,3.447q6.349,2.788,12.519,5.978c2.487,1.285,4.738,3.021,7.195,4.372a80.021,80.021,0,0,1,8.062,5.494,71.347,71.347,0,0,1,7.145,6.494,41.771,41.771,0,0,1,10.167,15.144,38,38,0,0,1,2.2,7.852,73.656,73.656,0,0,1,.391,8.25c.038.75.355,1.631-.475,2.274-.075.058.543.8.436,1.064a9.865,9.865,0,0,0-.457,2.352,18.2,18.2,0,0,1-.466,2.8,4.828,4.828,0,0,1-.954,1.654c.105.842.394,1.493.213,1.962-1.943,5.016-3.726,10.091-6.422,14.8a102.907,102.907,0,0,1-7.452,11.624,133.554,133.554,0,0,1-15.624,16.694c-4.195,3.632-8.288,7.444-13.256,10.086-.228.122-.269.6-.439,1l-.55-.421a22.07,22.07,0,0,1-5.729,4.268c-1.559.855-3.116,1.718-4.625,2.655a32.949,32.949,0,0,1-5.65,2.827c-.687.262-1.165,1.063-1.851,1.34-1.871.758-3.685,1.643-5.517,2.479-1.534.7-2.883,1.805-4.409,2.531a36.662,36.662,0,0,1-3.838,1.263c-.712.247-1.373.649-2.09.874-.6.189-1.148.994-1.89.276-.533.431-.864,1.033-1.754,1.087-.687.041-1.316.718-2.013,1.01-.619.26-1.306.354-1.946.569a8.928,8.928,0,0,1-2.123.76,4.575,4.575,0,0,0-2.7,1.03,5.364,5.364,0,0,1-2.377.795c-2.363.372-4.408,1.961-6.907,1.772-1.466,1.215-3.391,1-5.064,1.592-1.6.567-3.394.586-4.955,1.213-.781.314-1.678.151-2.212.535a3.833,3.833,0,0,1-2,.493c-.753.116-1.48.416-2.233.511-.716.09-1.461-.049-2.176.046a3.414,3.414,0,0,0-1.067.567l-.919-.6c-.185.045-.392.035-.508.134-.53.45-.884,1.042-1.789,1.007a16.28,16.28,0,0,0-2.5.484c-.772.1-1.616-.162-2.226.562-1.529-.3-2.932.437-4.411.537a7.365,7.365,0,0,0-3.07.5c-.807.407-1.964-.36-2.776.548-.085.094-.341.034-.518.046-2.652.182-5.306.334-7.954.559-1.2.1-2.4.35-3.593.532-1.108.17-2.3-.4-3.348.512-.258.225-.88.034-1.334.034a12.991,12.991,0,0,1-3.257-.06c-1.034-.275-1.884,1.4-2.863.125-.81.763-1.817.432-2.747.47a12.768,12.768,0,0,0-3.256.061c-2.914.945-5.877.528-8.787.427-3.6-.124-7.094.793-10.685.646-3.63-.149-7.271-.061-10.906-.023-2.4.025-4.7-.787-7.14-.6a26.874,26.874,0,0,1-7.069-.056,56.162,56.162,0,0,0-6.881-.468c-1.114-.077-2.209-.388-3.322-.515s-2.318.276-3.317-.558c-1.982.422-3.813-.8-5.772-.535a7.383,7.383,0,0,1-2.782-.529,15.9,15.9,0,0,1-2.8-.483c-1.322-.541-2.908-.422-4.371-.65-.575-.089-1.112-.438-1.687-.515a60.315,60.315,0,0,1-7.5-1.639c-3.609-.96-7.291-1.679-10.836-2.828a28.413,28.413,0,0,1-4.122-1.232,35.054,35.054,0,0,0-4.048-1.411c-1.507-.529-3.014-1.06-4.5-1.638-2.662-1.034-5.29-2.158-7.968-3.147-6.173-2.281-11.964-5.372-17.826-8.314-1.285-.645-2.464-1.5-3.743-2.159-3.552-1.832-6.688-4.359-10.281-6.119-2.872-2.974-6.767-4.592-9.747-7.473-2.243-2.167-5.1-3.7-7.327-5.881-2.886-2.814-6.11-5.339-8.35-8.781a8.462,8.462,0,0,0-.952-.972c-2-2.171-4.075-4.274-5.955-6.541-2.029-2.447-4.136-4.828-6.147-7.281-2.538-3.1-5.113-6.136-7.939-8.971-.925-.928-1.581-2.134-2.539-3.018-3.742-3.452-7.349-7.142-11.838-9.6-3.6-1.97-7.212-3.989-11.413-4.739-2.03-.362-4.049-.765-6.092-1.1a27.919,27.919,0,0,0-5.517-.416c-1.2.041-2.39.411-3.594.5-1.266.092-2.644-.278-3.788.105s-2.334.144-3.315.541c-1.051.427-2.113.2-3.063.512-2.115.7-4.341.78-6.483,1.424-1.758.528-3.669.787-5.491,1.259-2.461.639-4.9,1.365-7.38,1.925-3.808.861-7.5,2.115-11.293,3.06-3.616.9-7.166,2.086-10.85,2.74-.934,1.017-2.328.164-3.455.924-.845.569-2.164.423-3.267.627-.838.155-1.661.415-2.5.523-.772.1-1.6-.152-2.24.55-.081.091-.351,0-.531.014a41.773,41.773,0,0,0-6.847.615c-3.124.783-6.233.243-9.335.484-.764.059-1.568-.275-2.287.46-.269.276-1.1.225-1.568.049-2.614-.973-5.317-.292-7.964-.53-1.294-.116-2.579-.341-3.865-.537-1.2-.183-2.364.086-3.641-.419-1.1-.436-2.54-.32-3.823-.64-1.255-.314-2.665-.155-3.835-.628-1.917-.776-3.986-.7-5.927-1.49-1.845-.746-3.915-1.035-5.828-1.732-1.5-.546-3.04-1.013-4.477-1.695-2.966-1.408-5.953-2.8-8.791-4.443a140.257,140.257,0,0,1-14.214-9.182c-1.51-1.136-2.721-2.565-4.2-3.677-2.279-1.713-3.935-4-5.872-6.023a40.158,40.158,0,0,1-4.087-5.645,24,24,0,0,1-3.088-6.9,17.534,17.534,0,0,1-.927-3.99c-.057-1.293-.46-2.575-.479-3.866a30.265,30.265,0,0,1,.486-3.047c.091-.992-.379-2.324.111-2.923.766-.935-.113-2.245,1-2.9.426-3.233,1.876-6.106,3-9.115a60.261,60.261,0,0,1,4.007-7.608,46.063,46.063,0,0,1,4.711-7.075,52.835,52.835,0,0,1,7.307-7.3,131.676,131.676,0,0,1,12.186-8.816c2.638-1.728,5.312-3.4,7.991-5.066,2.6-1.615,5.254-3.138,7.828-4.79a37.766,37.766,0,0,0,5.756-3.919c1.064-1,2.408-1.687,3.524-2.636,1.9-1.616,3.631-3.44,5.595-4.969a57.533,57.533,0,0,0,6.295-5.825,85.3,85.3,0,0,0,8.111-10.269,10.53,10.53,0,0,0,1.052-2.829,25.963,25.963,0,0,0,.642-4.925c.15-1.2.373-2.393.535-3.593s-.364-2.476.517-3.616c.219-.285.006-.886.038-1.338.086-1.232.2-2.461.3-3.692.088-1.148-.241-2.6.339-3.373.843-1.126.174-2.349.881-3.507s.415-2.882.672-4.338c.553-3.125,1.119-6.249,1.794-9.348.4-1.815,1.069-3.561,1.506-5.378.41-1.707,1.212-3.315,1.733-5a54.779,54.779,0,0,1,2.226-5.351c1.4-3.26,2.178-6.73,3.65-9.942,1.893-4.128,3.04-8.618,5.9-12.281.915-3.219,3.584-5.367,5.064-8.26.664-1.3,1.912-2.291,2.835-3.469,3.179-4.058,7.066-7.438,10.6-11.154a65.034,65.034,0,0,1,8.648-7.472c2.952-2.171,5.765-4.6,9.221-6.017,1.416-1.589,3.535-2.043,5.23-3.208a21.692,21.692,0,0,1,4.795-2.211c2.29-.847,4.714-1.365,6.93-2.36,1.231-.554,2.508-.294,3.744-.847,1.293-.578,2.985-.211,4.352-.689,2.292-.8,4.591-.386,6.883-.472a48.516,48.516,0,0,1,6.811.042,42.857,42.857,0,0,1,4.48.952c4.941,1.071,9.395,3.255,13.794,5.568a45.672,45.672,0,0,1,6.676,4.272,97.27,97.27,0,0,1,14.164,13.135c3.611,4.174,7.588,7.955,11.472,11.836a32.416,32.416,0,0,0,9.981,6.8,42.333,42.333,0,0,0,9.525,2.716c5.025.913,10.044.351,15.058.4a16.871,16.871,0,0,0,5.858-.911,11.593,11.593,0,0,1,2.14-.117c.664-.1,1.3-.37,1.959-.523,2.49-.578,5-1.065,7.469-1.727a47.678,47.678,0,0,0,7-2.19c4.073-1.814,8.259-3.331,12.353-5.077a119.078,119.078,0,0,1,13.2-4.962c3.332-.973,6.639-2.285,10.193-2.412.914-.747,2.106-.252,3.02-.611,1.114-.438,2.383-.108,3.277-.615,1.087-.616,2.1-.187,3.114-.414a38.921,38.921,0,0,1,9.912-1.111c.194.007.4-.329.6-.506l.474.439c1.028-.162,1.951-.351,2.883-.445,1.923-.2,3.9.366,5.792-.512.443-.2,1.134.128,2,.257l.7-.4.686.638.665-.619.839.4c.721-.1,1.678-.554,2.135-.251a4.7,4.7,0,0,0,3.36.436c2.884-.293,5.7.371,8.488.718a80.376,80.376,0,0,1,8.594,1.572c1.717.408,3.527.5,5.175,1.311.741.364,1.74.165,2.537.456,1.26.46,2.74.371,3.765,1.439a6.04,6.04,0,0,1,3.79.72c1.237.551,2.566.795,3.807,1.358,1.1.5,2.389.8,3.59,1.2,2.157.717,4.492,1.136,6.411,2.263,2.145,1.26,4.568,1.712,6.7,2.961,2.382,1.392,5.058,2.27,7.52,3.539,1.039.535,2.486.636,2.915,2.075,1.556-.154,2.357,1.277,3.64,1.751a15.9,15.9,0,0,1,3.289,1.924c1.922,1.31,3.723,2.812,5.711,4.007,2.645,1.591,4.6,4.025,7.216,5.628,1.194,2.015,3.658,2.846,4.648,5.116a7.347,7.347,0,0,0,2.074,2.138c2.87,2.523,4.8,5.788,7.038,8.814a41.813,41.813,0,0,1,3.791,6.341,69.711,69.711,0,0,1,4.008,8.972c.5,1.52.973,3.051,1.48,4.569A.8.8,0,0,0,582.918,221.673ZM456.441,163.479c-.551.265-1.322.954-2.066.925a19.854,19.854,0,0,0-4.678.645c-1.447.287-2.941.34-4.342.711-1.885.5-3.794.9-5.669,1.437-2.115.6-4.3,1.035-6.329,1.84-1.8.712-3.6,1.408-5.4,2.117s-3.646,1.346-5.381,2.143c-4.747,2.184-9.684,3.843-14.547,5.7a22.2,22.2,0,0,1-5.522,1.747c-2.26.223-4.308,1.478-6.629,1.177-1.7,1.472-4.041.629-5.867,1.637-3.027,0-5.993.86-9.049.577a4.1,4.1,0,0,0-2.567.377c-.73.406-1.9.062-2.869-.024-.5-.044-.976-.333-1.473-.371a39.035,39.035,0,0,1-6.068-.458c-1.907-.437-3.869-.752-5.8-1.17a61.544,61.544,0,0,1-11.333-3.593,62.176,62.176,0,0,1-18.118-12.17c-3.061-2.891-5.926-6.006-8.8-9.1-4.654-5.016-9.287-10.127-14.752-14.318a34.2,34.2,0,0,0-6.293-3.88,24.394,24.394,0,0,0-11.072-2.213c-1.84.027-3.694-.3-5.523.473-.773.325-1.8-.016-2.7.074a10.254,10.254,0,0,0-2.763.558c-1.151.46-2.5.184-3.493.758-1.57.912-3.35,1.171-4.984,1.81a54.838,54.838,0,0,0-5.814,2.439c-1.862.99-3.762,1.92-5.562,3.081a109.92,109.92,0,0,0-15.321,11.7,3.938,3.938,0,0,1-1.267.88c-.8.283-.778,1.105-1.225,1.577-.459.488-1.364.668-1.63,1.2-.788,1.584-2.231,2.527-3.325,3.8s-2.217,2.524-3.27,3.83c-1.035,1.283-2.011,2.614-2.989,3.941-.8,1.09-2.132,1.856-2.15,4l1.138.407-1.154,1.155.766.964c-2.386,1.783-3.4,4.314-4.333,6.924a22.641,22.641,0,0,1-1.752,3.19l.372.407c-.776,2.238-1.414,4.522-2.359,6.671-.813,1.85-1.468,3.759-2.293,5.595-.836,1.861-1.956,3.608-1.908,5.756-1.608,2.385-1.581,5.35-2.765,7.849-.573,1.21.113,2.91-1.532,3.516,1.154,1.48-.108,2.329-.5,3.387a1.724,1.724,0,0,1,.378,2.15,26.747,26.747,0,0,0-1.011,4.762,18.143,18.143,0,0,0-.551,4.958c.073.72.317,1.766-.046,2.121-1.042,1.017.19,2.582-1.033,3.425V244.4c0,.454.179,1.032-.033,1.341-.726,1.061-.414,2.218-.528,3.34a31.23,31.23,0,0,0-.494,3.32,10.731,10.731,0,0,1-1.285,4.664,46.871,46.871,0,0,1-7.91,11.169c-1.232,1.389-2.791,2.48-4.133,3.741-3.313,3.111-6.645,6.185-10.212,9-1.713,1.351-3.379,2.767-5.153,4.032-2.088,1.488-4.238,2.9-6.422,4.241-1.506.928-3.161,1.614-4.665,2.544-1.733,1.072-3.414,2.2-5.257,3.111-1.815.895-3.41,2.193-5.264,3.093a39.569,39.569,0,0,0-4.758,3.187l-.3-.254c-.371.515-.613,1.2-1.086,1.45-3.491,1.847-6.174,4.641-8.964,7.341a38.029,38.029,0,0,0-7.148,10.141c-2.484,4.807-4.913,9.657-5.56,15.148-.988,1.1.059,2.589-.528,3.587a5.251,5.251,0,0,0-.387,3.885,18.46,18.46,0,0,1,.446,4.167,11.582,11.582,0,0,1,1.07,2.27,14.813,14.813,0,0,0,2.805,5.654c2.141,2.917,3.964,6.111,7.062,8.234.884.607,1.447,1.7,2.35,2.258,4.555,2.807,8.93,5.9,13.717,8.342a63.239,63.239,0,0,0,12.637,5.078,70.927,70.927,0,0,0,8.725,1.859,46.148,46.148,0,0,0,10.394.691,20.048,20.048,0,0,1,3.542,0c3.863.322,7.678-.328,11.493-.655,1.455-.125,3.134.007,4.361-.572,1.248-.589,2.43-.119,3.589-.569a14.576,14.576,0,0,1,3.7-.915,53.294,53.294,0,0,0,6.234-1.435c2.313-.525,4.6-1.151,6.866-1.852,2.988-.923,6.008-1.745,9.024-2.574,2.942-.808,5.9-1.567,8.844-2.353,2.385-.635,4.835-1.085,7.177-1.787,2.872-.861,5.844-1.143,8.713-1.964,1.037-.3,2.2-.311,3.312-.559,1.168-.262,2.471.169,3.58-.6,2.5.229,4.942-.382,7.412-.5a20.914,20.914,0,0,1,7.151.444c1.084.325,2.638-.382,3.457.162,1.1.731,2.263,0,3.272.757.883.664,2.289-.173,3.212.772,4.208.417,7.971,2.3,11.708,3.985a51.037,51.037,0,0,1,11.4,6.788c2.709,2.207,5.644,4.136,8.144,6.616,4.515,4.479,8.9,9.066,12.956,13.981,1.9,2.308,3.819,4.622,5.792,6.867,2.516,2.863,4.874,5.88,7.519,8.608a111.381,111.381,0,0,0,9.694,9.374c2.392,1.935,4.719,3.981,7.146,5.881a62.846,62.846,0,0,0,6.352,4.412c1.961,1.178,3.8,2.54,5.857,3.6,2.093,1.077,4.09,2.41,6.193,3.507,3.729,1.944,7.462,3.875,11.351,5.509,2.794,1.174,5.593,2.307,8.475,3.24,4.327,1.4,8.639,2.849,12.971,4.233a38.039,38.039,0,0,0,6.377,1.645c2.41.321,4.658,1.606,7.168,1.209,3.4,1.289,7.077,1.209,10.564,2.127,1.4.369,2.922.124,4.417.519,1.393.368,2.92.259,4.4.552,1.786.352,3.647.2,5.5.527,2.414.423,4.926.316,7.4.541,5.623.513,11.32-.392,16.946.64,2.241.411,4.375-.567,6.591-.548,2.636.023,5.273.047,7.908-.006a61.677,61.677,0,0,0,7.7-.43c3.234-.469,6.559-.1,9.859-.58,3.425-.494,6.93-.433,10.4-.614.181-.009.437.078.533-.013.91-.859,2.044-.6,3.054-.492,1.2.124,2.211-.46,3.325-.576,2.1-.219,4.211-.375,6.318-.554.18-.015.463.074.529-.014.695-.915,1.676-.383,2.516-.537.927-.168,1.844-.408,2.776-.532,1.647-.219,3.419-.063,4.926-.63,2.11-.795,4.362-.719,6.466-1.491a14.445,14.445,0,0,1,3.03-.545c1.124-.142,2.209-.368,3.316-.586,3.265-.643,6.429-1.682,9.709-2.3,1.779-.335,3.477-1.212,5.322-1.62,1.879-.415,3.58-1.583,5.609-1.567,1.314-1.216,3.128-1.222,4.658-1.921,1.606-.733,3.339-1.081,4.982-1.8,3.305-1.451,6.632-2.858,9.915-4.369,4.295-1.977,8.4-4.309,12.595-6.478,2.573-1.332,5.006-2.872,7.428-4.395,2.689-1.69,5.337-3.489,7.894-5.421,1.75-1.324,3.345-2.828,5.109-4.087,1.7-1.215,3.207-2.643,4.844-3.918a39.917,39.917,0,0,0,3.5-3.439,25.437,25.437,0,0,1,3.51-3.413c1.36-.908,1.9-2.3,2.821-3.462a1.841,1.841,0,0,1,.192-.193c3.238-3,5.594-6.7,8.108-10.274a100.917,100.917,0,0,0,7.7-14.539,66.157,66.157,0,0,0,2.647-7.9c.425-1.468,1.125-3,1.014-4.447-.184-2.419.846-4.737.162-7.211-.455-1.646-.181-3.458-.517-5.227a26.471,26.471,0,0,0-1.794-5.823A28.249,28.249,0,0,0,662.8,341.4a79.849,79.849,0,0,0-16.783-12.166,119.1,119.1,0,0,0-13.72-6.373c-2.762-.988-5.326-2.565-8.119-3.422-3.805-1.168-7.283-3.062-10.962-4.5a102.911,102.911,0,0,1-9.474-4.775,43.733,43.733,0,0,1-9.05-6.408,64.619,64.619,0,0,1-6.373-6.889,24.937,24.937,0,0,1-3.4-5.126c-.862-1.809-1.639-3.69-2.479-5.511a60.859,60.859,0,0,1-2.4-6.636,45.687,45.687,0,0,1-1.655-7.213c-.439-2.831-.82-5.7-1.073-8.544-.242-2.73-1.02-5.439-.637-8.221.037-.267.122-.646-.013-.8-.967-1.1-.342-2.411-.527-3.608s-.427-2.389-.533-3.593c-.224-2.557-.376-5.12-.557-7.681-.007-.091.027-.193,0-.271-1.289-3.119-.888-6.616-2.178-9.733.377-1.2-.679-2.2-.51-3.314.185-1.216-.406-2.228-.632-3.314-.5-2.4-1.228-4.748-1.949-7.092a37.493,37.493,0,0,0-2.263-5.608c-.934-1.886-1.641-3.844-2.757-5.686a60.537,60.537,0,0,0-8.864-11.85,62.95,62.95,0,0,0-7.135-6.5c-2.622-1.9-5.249-3.822-8.017-5.561-4.322-2.713-8.923-4.828-13.387-7.231-1.529.064-2.638-1.09-4.068-1.391a16.481,16.481,0,0,1-3.776-1.393,36.613,36.613,0,0,0-4.036-1.453A28.516,28.516,0,0,0,510.2,167.8c-4.335-.614-8.338-2.682-12.77-2.784-.857-1.2-2.335-.089-3.436-1-.769-.635-2.114.1-3.306-.531-1-.525-2.493-.044-3.759-.131-.752-.052-1.479-.417-2.232-.5-.893-.1-1.808-.005-2.7-.1-.283-.029-.533-.382-.606-.439a7.488,7.488,0,0,1-1.693.5c-2.817.04-5.637-.052-8.452.04-2.746.088-5.487.328-8.228.531-1.387.1-2.788-.28-4.175.471C458.317,164.14,457.377,163.651,456.441,163.479Z"/></svg>