<?xml version="1.0" encoding="utf-8"?>
<!-- Generator: Adobe Illustrator 25.0.1, SVG Export Plug-In . SVG Version: 6.00 Build 0)  -->
<svg version="1.1" id="Layer_0_Image" xmlns="http://www.w3.org/2000/svg" xmlns:xlink="http://www.w3.org/1999/xlink" x="0px"
	 y="0px" viewBox="0 0 800 600" style="enable-background:new 0 0 800 600;" xml:space="preserve">
<style type="text/css">
	.st0{fill:#31364C;}
</style>
<path class="st0" d="M396.3,356.8c-18.2-0.3-30.6-10.5-35.8-26.9c-3-9.4-1.7-18.4,2.6-27c4.3-8.7,10.7-15.6,19.4-20
	c3.6-1.8,7.5-3.2,11.4-4.6c1.5-0.6,3.1-0.4,4.7,0.1c2,0.7,4.1,1,6.2,0.9c4.7-0.2,8.8,1.4,12.7,3.7c2.6,1.6,5.4,2.9,7.8,4.9
	c7.2,6.3,12.3,14,15.1,23.2c1,3.4,0.7,7,0.4,10.5c-0.2,2-1,4-1.3,5.9c-0.2,1.5-1.5,2.6-1.4,3.6c0.1,1.5-0.5,2.5-1.1,3.5
	c-5.7,9.9-14.7,15.5-25.3,19c-3.8,1.2-7.5,2.3-11.5,2.8C398.7,356.8,397.1,356.8,396.3,356.8z M373.8,308.2c0.2-0.1,0.4-0.2,0.4-0.3
	c1.6-4.6,4.8-7.8,8.3-11c1.7-1.6,2.9-3.7,4.4-6C382,292.5,374,303.4,373.8,308.2z M425.8,325.2l-9.5,12.2
	C422.3,332.3,425.3,328.4,425.8,325.2L425.8,325.2z M372.5,292.6c3.4-2.9,7.3-5.2,10.5-8.4C379.1,286.4,375.3,288.9,372.5,292.6z
	 M416.8,323.8c-1.4,1.7-3.4,3.1-3.6,5.6C414.9,327.9,416.3,326.2,416.8,323.8L416.8,323.8z M384.1,308c1.5-2.2,3.3-4.3,4.1-6.9
	C386,302.9,385.2,305.5,384.1,308z M427.9,343.8l0.4,0.3c1.5-1.1,2.8-2.5,3.8-4.1c-0.7,0.6-1.3,1.2-2,1.8
	C429.3,342.5,428.6,343.2,427.9,343.8z M370.7,294.3c-0.8,0.6-1.4,1.2-1.7,1.9c-0.1,0.2-0.2,0.4,0.1,0.6c0.1,0.1,0.3,0.1,0.5,0
	C369.5,295.9,371.1,295.7,370.7,294.3z"/>
</svg>
