<?xml version="1.0" encoding="UTF-8"?><svg version="1.1" id="Layer_1" xmlns="http://www.w3.org/2000/svg" xmlns:xlink="http://www.w3.org/1999/xlink" x="0px" y="0px" width="134.752px" height="137.038px" viewBox="0 0 134.752 137.038" enable-background="new 0 0 134.752 137.038" xml:space="preserve">
<path fill="#1D2445" d="M63.379,1.661l63.232,32.523c6.492,3.339,9.637,10.868,7.45,17.833l-14.602,46.502
	c-0.688,2.19-1.869,4.193-3.453,5.855l-26.7,28.013c-2.831,2.97-6.755,4.651-10.858,4.651H40.514c-4.538,0-8.831-2.054-11.679-5.587
	L3.321,99.794c-2.502-3.104-3.665-7.076-3.233-11.04l4.82-44.183c0.329-3.013,1.563-5.856,3.539-8.155l18.985-22.073
	c1.258-1.463,2.787-2.669,4.502-3.553l17.713-9.126C53.956-0.554,59.07-0.555,63.379,1.661z"/>
</svg>