<?xml version="1.0" encoding="UTF-8"?><svg id="Layer_1" data-name="Layer 1" xmlns="http://www.w3.org/2000/svg" viewBox="0 0 286.7 169.7" x="0px" y="0px" width="287px" height="170px" version="1.1" xmlns:xlink="http://www.w3.org/1999/xlink"><path d="M147,135.6A74.79,74.79,0,0,1,147,34a4.956,4.956,0,0,0,0-6.8,84.8,84.8,0,1,0,0,115.2A4.956,4.956,0,0,0,147,135.6Z" fill="#4053fa"/><path d="M201.9.1a85.008,85.008,0,0,0-62.2,27.2,4.956,4.956,0,0,0,0,6.8,74.79,74.79,0,0,1,0,101.6,4.956,4.956,0,0,0,0,6.8A84.789,84.789,0,1,0,201.9.1Z" fill="#f3f6e6"/><path d="M147,27.3a5.061,5.061,0,0,0-3.7-1.6,5.233,5.233,0,0,0-3.7,1.6,84.7,84.7,0,0,0,0,115.2,5.061,5.061,0,0,0,3.7,1.6h0a5.233,5.233,0,0,0,3.7-1.6,84.7,84.7,0,0,0,0-115.2Z" fill="#f6e049"/></svg>