<?xml version="1.0" encoding="utf-8"?>
<!-- Generator: Adobe Illustrator 25.0.1, SVG Export Plug-In . SVG Version: 6.00 Build 0)  -->
<svg version="1.1" id="Layer_1" xmlns:serif="http://www.serif.com/"
	 xmlns="http://www.w3.org/2000/svg" xmlns:xlink="http://www.w3.org/1999/xlink" x="0px" y="0px" viewBox="0 0 388.4 245.7"
	 style="enable-background:new 0 0 388.4 245.7;" xml:space="preserve">
<style type="text/css">
	.st0{fill-rule:evenodd;clip-rule:evenodd;fill:#059294;}
	.st1{fill-rule:evenodd;clip-rule:evenodd;fill:#1F5E60;}
	.st2{fill-rule:evenodd;clip-rule:evenodd;fill:#FFFFFF;}
	.st3{fill-rule:evenodd;clip-rule:evenodd;fill:#F09A9D;}
	.st4{fill-rule:evenodd;clip-rule:evenodd;fill:#00B9BC;}
	.st5{fill-rule:evenodd;clip-rule:evenodd;fill:#3BC9CB;}
	.st6{fill-rule:evenodd;clip-rule:evenodd;fill:#B3C8C9;}
	.st7{fill-rule:evenodd;clip-rule:evenodd;fill:#5E8C8D;}
	.st8{fill-rule:evenodd;clip-rule:evenodd;fill:#F0989C;}
	.st9{fill:#F0989C;}
	.st10{font-family:'ArialMT';}
	.st11{font-size:22.5396px;}
	.st12{fill-rule:evenodd;clip-rule:evenodd;fill:#7CDADC;}
	.st13{fill:none;stroke:#5E8C8D;stroke-width:0.4466;stroke-linecap:round;stroke-linejoin:round;stroke-miterlimit:10;}
	.st14{fill-rule:evenodd;clip-rule:evenodd;fill:#F19FA2;}
	.st15{fill-rule:evenodd;clip-rule:evenodd;fill:#DE7861;}
	.st16{fill-rule:evenodd;clip-rule:evenodd;fill:#003E3F;}
	.st17{fill-rule:evenodd;clip-rule:evenodd;fill:#4B0000;}
	.st18{fill-rule:evenodd;clip-rule:evenodd;fill:#216062;}
	.st19{fill-rule:evenodd;clip-rule:evenodd;fill:#00484A;}
	.st20{fill-rule:evenodd;clip-rule:evenodd;fill:#3B7274;}
	.st21{fill-rule:evenodd;clip-rule:evenodd;fill:#63D4D6;}
	.st22{fill-rule:evenodd;clip-rule:evenodd;fill:#598889;}
	.st23{fill-rule:evenodd;clip-rule:evenodd;fill:#003E3F;fill-opacity:0.98;}
	.st24{fill-rule:evenodd;clip-rule:evenodd;fill:#AB494A;}
</style>
<g transform="matrix(1,0,0,1,93.1855,-96.6621)">
	<g id="BUFFET" transform="matrix(1,0,0,1,94.6774,115.527)">
		<g transform="matrix(1.01534,0,0,0.958299,-18.9413,65.2451)">
			<rect x="23.8" y="57.6" class="st0" width="122.3" height="81.6"/>
		</g>
		<g>
			<g transform="matrix(1,0,0,1,-0.15956,13.0373)">
				<rect x="12.2" y="113.1" class="st1" width="110.6" height="21.3"/>
			</g>
			<g transform="matrix(1,0,0,1.80008,-0.15956,-695.269)">
				<path class="st1" d="M12.7,492.6h58.6c0.3,0,0.5,0.1,0.5,0.3c0,0.2-0.2,0.3-0.5,0.3H12.2c-0.3,0-0.5-0.1-0.5-0.3v-21.3
					c0-0.2,0.2-0.3,0.5-0.3h56.7c0.3,0,0.5,0.1,0.5,0.3c0,0.2-0.2,0.3-0.5,0.3H12.7V492.6z"/>
			</g>
			<g transform="matrix(1,0,0,1.80008,-0.15956,-695.269)">
				<path class="st1" d="M122.3,471.9H68.9c-0.3,0-0.5-0.1-0.5-0.3c0-0.2,0.2-0.3,0.5-0.3h54c0.3,0,0.5,0.1,0.5,0.3v21.3
					c0,0.2-0.2,0.3-0.5,0.3H71.4c-0.3,0-0.5-0.1-0.5-0.3c0-0.2,0.2-0.3,0.5-0.3h50.9V471.9z"/>
			</g>
			<path class="st1" d="M66.8,153.7v38.3c0,0.3,0.2,0.5,0.5,0.5c0.3,0,0.5-0.2,0.5-0.5v-38.3c0-0.3-0.2-0.5-0.5-0.5
				C67.1,153.1,66.8,153.4,66.8,153.7z"/>
			<g transform="matrix(1.21123,0,0,1.21123,-346.323,-293.268)">
				<circle class="st1" cx="346.2" cy="384.8" r="1.5"/>
			</g>
			<g transform="matrix(1.21123,0,0,1.21123,-408.332,-293.268)">
				<circle class="st1" cx="388.1" cy="384.8" r="1.5"/>
			</g>
		</g>
	</g>
	<g id="TV" transform="matrix(1,0,0,1,87.2563,115.527)">
		<g>
			<g transform="matrix(1,0,0,1,-87.2563,-115.527)">
				<path class="st1" d="M159.8,224.5H83.1c-2.5,0-4.6-2.1-4.6-4.6v-85.7c0-2.5,2.1-4.6,4.6-4.6h157.6c2.5,0,4.6,2.1,4.6,4.6v85.7
					c0,2.5-2.1,4.6-4.6,4.6h-71.5v6H185c0.9,0,1.7,0.4,2.4,1c0.6,0.6,1,1.5,1,2.4v2.1h-47.5v-2.1c0-0.9,0.4-1.7,1-2.4
					c0.6-0.6,1.5-1,2.4-1h15.7V224.5z"/>
			</g>
			<g transform="matrix(1.00085,0,0,0.849866,10.641,110.906)">
				<path class="st2" d="M142.8-103.9c0-2.6-1.8-4.7-4-4.7H-10.8c-2.2,0-4,2.1-4,4.7v87.2c0,2.6,1.8,4.7,4,4.7h149.6
					c2.2,0,4-2.1,4-4.7V-103.9z"/>
			</g>
		</g>
		<g>
			<g transform="matrix(0.774916,0.0753794,-0.08023,0.824781,477.414,-23.1485)">
				<path class="st3" d="M-451.4,128.2l3.7-6c0.1-0.2,0.3-0.2,0.5-0.2c0.2,0,0.3,0.1,0.4,0.3l2.2,7l5.8-4.4c0.2-0.1,0.4-0.1,0.5,0
					c0.2,0.1,0.3,0.3,0.2,0.5l-1.8,7c-0.1,0.2-0.3,0.4-0.6,0.3c-0.3-0.1-0.4-0.3-0.3-0.5l1.5-5.7l-5.3,4c-0.1,0.1-0.3,0.1-0.4,0.1
					c-0.1,0-0.3-0.2-0.3-0.3l-2.1-6.7l-3.5,5.6c-0.1,0.1-0.2,0.2-0.3,0.2c-0.1,0-0.3,0-0.4-0.1l-4.7-4.5l0.6,6
					c0,0.2-0.2,0.5-0.4,0.5c-0.3,0-0.5-0.2-0.5-0.4l-0.7-7.2c0-0.2,0.1-0.4,0.3-0.4c0.2-0.1,0.4,0,0.5,0.1L-451.4,128.2z"/>
			</g>
			<g transform="matrix(0.996116,-0.0880559,0.0880559,0.996116,-72.9819,122.435)">
				<path class="st4" d="M111.8-48.2l2.5-5.7c0.1-0.1,0.2-0.2,0.4-0.2c0.2,0,0.3,0.1,0.3,0.3l0.9,5.4l3-2.7c0.1-0.1,0.3-0.1,0.4-0.1
					c0.1,0.1,0.2,0.2,0.2,0.4l-0.5,4.8c0,0.2-0.2,0.3-0.4,0.3c-0.2,0-0.3-0.2-0.3-0.4l0.4-3.8l-2.8,2.5c-0.1,0.1-0.2,0.1-0.4,0.1
					c-0.1,0-0.2-0.2-0.2-0.3l-0.8-4.8l-2.4,5.5c-0.1,0.1-0.2,0.2-0.4,0.2c-0.2,0-0.3-0.1-0.3-0.3l-1.7-5.3l-1.1,6.6
					c0,0.1-0.1,0.2-0.2,0.3c-0.1,0-0.3,0-0.4,0l-4.6-3.4l2,7.3c0.1,0.2-0.1,0.4-0.3,0.5c-0.2,0.1-0.4-0.1-0.5-0.3l-2.3-8.3
					c0-0.2,0-0.3,0.1-0.4c0.1-0.1,0.3-0.1,0.4,0l5,3.7l1.3-7.5c0-0.2,0.2-0.3,0.3-0.3c0.2,0,0.3,0.1,0.4,0.3L111.8-48.2z"/>
			</g>
			<path class="st5" d="M103,33.9l-3.4-4.3h3.4v-4.1l4.8,4.1l3.1-2.3v5l2.9,3.2h-4.6l-1.4,4.7l-2.6-4.7L99.6,38L103,33.9z"/>
			<g transform="matrix(1,0,0,1,-87.2563,-115.527)">
				<path class="st3" d="M89.4,184.8l1.6-1.2l-2.6-4l-1.8,1.7L89.4,184.8z M90.5,177.5l1.7,3.7l1.8-0.5l-1.4-4.8L90.5,177.5z
					 M96.5,176.5l0.5,3.9l1.4,0.4l0.5-4.3L96.5,176.5z"/>
			</g>
			<g transform="matrix(1,0,0,1,-87.2563,-115.527)">
				<path class="st3" d="M232.7,171.1l-1.6-1.2l2.6-4l1.8,1.7L232.7,171.1z M231.6,163.8l-1.7,3.7l-1.8-0.5l1.4-4.8L231.6,163.8z
					 M225.6,162.7l-0.5,3.9l-1.4,0.4l-0.5-4.3L225.6,162.7z"/>
			</g>
		</g>
		<g transform="matrix(1,0,0,0.967877,0,20.2095)">
			<path class="st6" d="M-4.1,54.9l9.4,1.9v-6.5H22v6h22.1V32.2h26.7v18.1l13.3-11.3v-8c0-4.4,3.5-8,7.8-8h0c4.3,0,7.8,3.6,7.8,8
				v1.2h21.7v6.8h5.8v-3.4h12.1v14.7h14.4v28.8c0,2.4-1.8,4.3-4.1,4.3c-22.2,0-127.3,0-149.5,0c-2.3,0-4.1-1.9-4.1-4.3
				C-4.1,71.1-4.1,54.9-4.1,54.9z"/>
		</g>
		<g transform="matrix(0.998621,0,0,0.9275,1.63686,51.9617)">
			<path class="st2" d="M0.9,52.9v-9.1l8.7-12h21.2V20h25.1l2.6-13h34.9l4.8,22.8l3.1-18.9h23.2l3.4,16.4l24.1-0.1
				c0,0,0.2,14.1,0.3,21.5c0,1.2-0.4,2.3-1.1,3.1c-0.8,0.8-1.8,1.3-2.9,1.3H0.9z"/>
		</g>
		<g transform="matrix(1,0,0,1,-87.2563,-115.527)">
			<path class="st6" d="M192.8,215h-5.1v1.3h5.1V215z M139,213.9h-5.1v1.3h5.1V213.9z M129,213.9h-5.1v1.3h5.1V213.9z M228,210.8
				h-5.1v1.3h5.1V210.8z M183.2,202.2h3.5v1.3h-3.5V202.2z M146.4,202.2h-2.9v1.2h2.9V202.2z M147.9,199.7h-4.3v1.2h4.3V199.7z
				 M181.7,199.5h5.1v1.3h-5.1V199.5z M206.4,199.3h-5.1v1.3h5.1V199.3z M212.3,197.2h-5.1v1.3h5.1V197.2z"/>
		</g>
		<path class="st1" d="M2.9,92.6v8.1c0,0.2-0.2,0.4-0.4,0.4c-0.2,0-0.4-0.2-0.4-0.4v-8.3c0-0.1,0-0.2,0.1-0.2L11,81
			c0.1-0.1,0.2-0.1,0.3-0.1h21.1c0.2,0,0.4,0.2,0.4,0.4v20.3c0,0.2-0.2,0.4-0.4,0.4c-0.2,0-0.4-0.2-0.4-0.4V81.6H11.5L2.9,92.6z"/>
		<g transform="matrix(1,0,0,1.07539,0,-62.4319)">
			<path class="st1" d="M100,132.1v20.4c0,0.2-0.2,0.3-0.4,0.3c-0.2,0-0.4-0.2-0.4-0.3V132c0,0,0,0,0-0.1l3-16.1
				c0-0.2,0.2-0.3,0.4-0.3h23.4c0.2,0,0.3,0.1,0.4,0.3l4.5,16.1c0.1,0.2-0.1,0.4-0.3,0.4c-0.2,0-0.4-0.1-0.4-0.2l-4.4-15.9h-22.8
				L100,132.1z"/>
		</g>
		<path class="st1" d="M130,81.3v20.3c0,0.3,0.2,0.5,0.5,0.5c0.3,0,0.5-0.2,0.5-0.5V81.3c0-0.3-0.2-0.5-0.5-0.5
			C130.3,80.7,130,81,130,81.3z"/>
		<path class="st1" d="M153.7,76l-24.1,0.3l0.4,3.1V94l24,0L153.7,76z"/>
		<g transform="matrix(1,0,0,0.376347,0.0168286,520.17)">
			<rect x="99.8" y="-1170.5" class="st1" width="30.2" height="1.9"/>
		</g>
		<g>
			<path class="st7" d="M112,96.1v1.7h-6.6v-1.7H112z M112,95.2h-6.6v-7.6h6.6V95.2z"/>
			<path class="st7" d="M124.8,96.1v1.7h-6.6v-1.7H124.8z M124.8,95.2h-6.6v-7.6h6.6V95.2z"/>
		</g>
		<g transform="matrix(0.936548,0,0,1,100.546,-8.31103)">
			<g transform="matrix(1,0,0,1,-3.29444,-3.90934)">
				<path class="st6" d="M-35,110.3h9.7c0.2,0,0.4,0.2,0.4,0.4c0,0.2-0.2,0.4-0.4,0.4h-10.1c-0.2,0-0.4-0.2-0.4-0.4v-9.2
					c0-1.4,0.6-2.7,1.6-3.7c1-1,2.5-1.5,3.9-1.5l0,0V97l0,0c-1.3,0-2.5,0.5-3.4,1.3c-0.9,0.8-1.4,2-1.4,3.2V110.3z"/>
			</g>
			<g transform="matrix(1,0,0,1,-3.29444,-3.90934)">
				<path class="st6" d="M-25,110.7v-9.5c0-1.3-0.6-2.6-1.6-3.5c-1-0.9-2.3-1.5-3.8-1.5l0,0V97l0,0c1.2,0,2.4,0.4,3.2,1.2
					c0.8,0.8,1.3,1.9,1.3,3v9.5c0,0.2,0.2,0.4,0.4,0.4C-25.1,111-25,110.9-25,110.7z"/>
			</g>
			<g transform="matrix(1,0,0,0.969589,0.723526,26.9204)">
				<path class="st6" d="M-34.8,67.8v14.5c0,0.2,0.2,0.4,0.4,0.4c0.2,0,0.4-0.2,0.4-0.4V67.8c0-0.2-0.2-0.4-0.4-0.4
					C-34.6,67.4-34.8,67.6-34.8,67.8z"/>
			</g>
			<g transform="matrix(0.000756354,1,-0.695262,0.000525865,2176.4,-653.025)">
				<path class="st6" d="M748.8,3172.4v14.5c0,0.3,0.2,0.6,0.4,0.6c0.2,0,0.4-0.3,0.4-0.6v-14.5c0-0.3-0.2-0.6-0.4-0.6
					C748.9,3171.8,748.8,3172,748.8,3172.4z"/>
			</g>
			<g transform="matrix(-6.93889e-18,0.695263,-0.695262,-0.00039074,2177.57,-152.7)">
				<path class="st6" d="M368.9,3173.2v14.5c0,0.3,0.2,0.6,0.5,0.6s0.5-0.3,0.5-0.6v-14.5c0-0.3-0.2-0.6-0.5-0.6
					C369.2,3172.7,368.9,3172.9,368.9,3173.2z"/>
			</g>
		</g>
		<g transform="matrix(0.936548,0,0,1,198.191,-8.31103)">
			<g transform="matrix(1,0,0,1,-3.29444,-3.90934)">
				<path class="st4" d="M-120.2,110.3h4.6c0.2,0,0.4,0.2,0.4,0.4c0,0.2-0.2,0.4-0.4,0.4h-5c-0.2,0-0.4-0.2-0.4-0.4v-9.3
					c0-1.3,0.6-2.6,1.6-3.6c1-1,2.4-1.5,3.8-1.5l0,0c0.2,0,0.4,0.2,0.4,0.4s-0.2,0.4-0.4,0.4l0,0c-1.2,0-2.4,0.5-3.3,1.3
					c-0.9,0.8-1.4,1.9-1.4,3.1V110.3z"/>
			</g>
			<g transform="matrix(1,0,0,1,-3.29444,-3.90934)">
				<path class="st4" d="M-110.9,110.3v-9c0-2.4-2.1-4.4-4.6-4.4c-0.2,0-0.4-0.2-0.4-0.4s0.2-0.4,0.4-0.4c3,0,5.4,2.3,5.4,5.1v9.3
					c0,0.2-0.2,0.4-0.4,0.4h-5c-0.2,0-0.4-0.2-0.4-0.4c0-0.2,0.2-0.4,0.4-0.4H-110.9z"/>
			</g>
			<g transform="matrix(1,0,0,0.969589,0.723526,26.9204)">
				<path class="st4" d="M-120,67.8v14.5c0,0.2,0.2,0.4,0.4,0.4c0.2,0,0.4-0.2,0.4-0.4V67.8c0-0.2-0.2-0.4-0.4-0.4
					C-119.8,67.4-120,67.6-120,67.8z"/>
			</g>
			<g transform="matrix(0.000756354,1,-0.695262,0.000525865,2176.4,-653.025)">
				<path class="st4" d="M748.7,3294.9v14.5c0,0.3,0.2,0.6,0.4,0.6c0.2,0,0.4-0.3,0.4-0.6v-14.5c0-0.3-0.2-0.6-0.4-0.6
					C748.9,3294.3,748.7,3294.6,748.7,3294.9z"/>
			</g>
			<g transform="matrix(-6.93889e-18,0.695263,-0.695262,-0.00039074,2177.57,-152.7)">
				<path class="st4" d="M369,3295.7v14.5c0,0.3,0.2,0.6,0.5,0.6c0.3,0,0.5-0.3,0.5-0.6v-14.5c0-0.3-0.2-0.6-0.5-0.6
					C369.2,3295.2,369,3295.4,369,3295.7z"/>
			</g>
		</g>
		<g transform="matrix(0.698108,0,0,1,421.497,1.68706)">
			<path class="st4" d="M-549.2,95h3.6c0.3,0,0.5,0.2,0.5,0.4s-0.2,0.4-0.5,0.4h-4.1c-0.3,0-0.5-0.2-0.5-0.4v-9.2
				c0-0.2,0.2-0.4,0.5-0.4h4.1c0.3,0,0.5,0.2,0.5,0.4c0,0.2-0.2,0.4-0.5,0.4h-3.6V95z"/>
		</g>
		<g transform="matrix(0.698108,0,0,1,421.497,1.68706)">
			<path class="st4" d="M-545.1,95.4v-9.2c0-0.2-0.2-0.4-0.5-0.4c-0.3,0-0.5,0.2-0.5,0.4v9.2c0,0.2,0.2,0.4,0.5,0.4
				C-545.4,95.7-545.1,95.6-545.1,95.4z"/>
		</g>
		<g transform="matrix(0.698108,0,0,1,475.977,1.68706)">
			<path class="st6" d="M-613,86.6v8.8c0,0.2-0.2,0.4-0.5,0.4c-0.3,0-0.5-0.2-0.5-0.4v-9.2c0-0.2,0.2-0.4,0.5-0.4h4.1
				c0.3,0,0.5,0.2,0.5,0.4c0,0.2-0.2,0.4-0.5,0.4H-613z"/>
		</g>
		<g transform="matrix(0.698108,0,0,1,475.977,1.68706)">
			<path class="st6" d="M-609.9,95v-8.8c0-0.2,0.2-0.4,0.5-0.4s0.5,0.2,0.5,0.4v9.2c0,0.2-0.2,0.4-0.5,0.4h-4.1
				c-0.3,0-0.5-0.2-0.5-0.4s0.2-0.4,0.5-0.4H-609.9z"/>
		</g>
		<path class="st4" d="M135.5,101v-3.2c0-0.2,0.2-0.4,0.4-0.4h4.1c0.2,0,0.4,0.2,0.4,0.4v3.2h-0.7v-2.8h-3.4v2.8H135.5z"/>
		<path class="st1" d="M144.8,101.2v-3.4c0-0.2,0.2-0.4,0.4-0.4h4.1c0.2,0,0.4,0.2,0.4,0.4v3.4h-0.7v-3h-3.4v3H144.8z"/>
		<g transform="matrix(1,0,0,1,-87.2563,-115.527)">
			<path class="st1" d="M99,211.5h-4.1v5.1H99V211.5z M107.7,211.5h-4.1v5.1h4.1V211.5z M116.4,211.5h-4.1v5.1h4.1V211.5z"/>
		</g>
		<g transform="matrix(1,0,0,1,-87.2563,-115.527)">
			<path class="st1" d="M195,177.9l-1,17.5c0,0.2,0.1,0.4,0.3,0.4c0.2,0,0.4-0.1,0.4-0.3l1-17.5c0-0.2-0.1-0.4-0.3-0.4
				C195.2,177.6,195,177.7,195,177.9z M199.8,177.8l0,17.5c0,0.2,0.2,0.4,0.4,0.4c0.2,0,0.4-0.2,0.4-0.4l0-17.5
				c0-0.2-0.2-0.4-0.4-0.4C199.9,177.5,199.8,177.6,199.8,177.8z M201.5,177.8l0,17.5c0,0.2,0.2,0.4,0.4,0.4c0.2,0,0.4-0.2,0.4-0.4
				l0-17.5c0-0.2-0.2-0.4-0.4-0.4C201.6,177.5,201.5,177.6,201.5,177.8z M209.4,177.9l2.5,17.4c0,0.2,0.2,0.3,0.4,0.3
				c0.2,0,0.3-0.2,0.3-0.4l-2.5-17.4c0-0.2-0.2-0.3-0.4-0.3C209.5,177.5,209.4,177.7,209.4,177.9z M206,177.8l1,17.4
				c0,0.2,0.2,0.4,0.4,0.3c0.2,0,0.4-0.2,0.3-0.4l-1-17.4c0-0.2-0.2-0.4-0.4-0.3C206.1,177.5,206,177.6,206,177.8z"/>
		</g>
		<g transform="matrix(1,0,0,1,-87.2563,-115.527)">
			<path class="st1" d="M168.1,174.1l1.9,22.2c0,0.2,0.2,0.4,0.4,0.3c0.2,0,0.3-0.2,0.3-0.4l-1.9-22.2c0-0.2-0.2-0.4-0.4-0.3
				C168.3,173.8,168.1,173.9,168.1,174.1z M155.3,174.1l-1.3,22.2c0,0.2,0.1,0.4,0.3,0.4c0.2,0,0.4-0.1,0.4-0.3l1.3-22.2
				c0-0.2-0.1-0.4-0.3-0.4C155.4,173.7,155.3,173.9,155.3,174.1z M160.5,174.1l0,22.2c0,0.2,0.2,0.4,0.4,0.4c0.2,0,0.4-0.2,0.4-0.4
				l0-22.2c0-0.2-0.2-0.4-0.4-0.4C160.7,173.8,160.5,173.9,160.5,174.1z M149.4,173.9l-2.3,22.3c0,0.2,0.1,0.4,0.3,0.4
				c0.2,0,0.4-0.1,0.4-0.3l2.3-22.3c0-0.2-0.1-0.4-0.3-0.4C149.6,173.5,149.4,173.6,149.4,173.9z M174.6,174.2l2.4,22.1
				c0,0.2,0.2,0.3,0.4,0.3c0.2,0,0.3-0.2,0.3-0.4l-2.4-22.1c0-0.2-0.2-0.3-0.4-0.3C174.7,173.8,174.6,174,174.6,174.2z M177,174.2
				l2.7,22c0,0.2,0.2,0.3,0.4,0.3c0.2,0,0.3-0.2,0.3-0.4l-2.7-22c0-0.2-0.2-0.3-0.4-0.3C177.1,173.8,177,174,177,174.2z
				 M153.3,174.1L152,196c0,0.2,0.1,0.4,0.3,0.4c0.2,0,0.4-0.1,0.4-0.3l1.4-21.9c0-0.2-0.1-0.4-0.3-0.4
				C153.5,173.7,153.3,173.9,153.3,174.1z"/>
		</g>
		<g transform="matrix(1,0,0,1,-87.2563,-115.527)">
			<path class="st1" d="M104.4,196.7l-4.7,11c-0.1,0.2,0,0.4,0.2,0.5c0.2,0.1,0.4,0,0.5-0.2l4.7-11c0.1-0.2,0-0.4-0.2-0.5
				C104.7,196.4,104.5,196.5,104.4,196.7z M112.7,197.1l-1.1,10.5c0,0.2,0.1,0.4,0.3,0.4c0.2,0,0.4-0.1,0.4-0.3l1.1-10.5
				c0-0.2-0.1-0.4-0.3-0.4C112.9,196.8,112.7,196.9,112.7,197.1z M100.6,196.6l-6.8,10.9c-0.1,0.2-0.1,0.4,0.1,0.5
				c0.2,0.1,0.4,0.1,0.5-0.1l6.8-10.9c0.1-0.2,0.1-0.4-0.1-0.5C101,196.4,100.7,196.4,100.6,196.6z M116.7,197.1v10.5
				c0,0.2,0.2,0.4,0.4,0.4c0.2,0,0.4-0.2,0.4-0.4v-10.5c0-0.2-0.2-0.4-0.4-0.4C116.8,196.8,116.7,196.9,116.7,197.1z M106.5,196.7
				l-3,10.5c-0.1,0.2,0.1,0.4,0.3,0.5c0.2,0.1,0.4-0.1,0.5-0.3l3-10.5c0.1-0.2-0.1-0.4-0.3-0.5C106.8,196.4,106.6,196.5,106.5,196.7
				z"/>
		</g>
		<g transform="matrix(1,0,0,1,-0.0580565,-4.85505)">
			<path class="st1" d="M56.4,86.1h43.3c0.2,0,0.4-0.2,0.4-0.4c0-0.2-0.2-0.4-0.4-0.4H56.4c-0.2,0-0.4,0.2-0.4,0.4
				C56,85.9,56.2,86.1,56.4,86.1z"/>
		</g>
		<path class="st1" d="M32.3,92H2.5c-0.2,0-0.4,0.2-0.4,0.4c0,0.2,0.2,0.4,0.4,0.4h29.8c0.2,0,0.4-0.2,0.4-0.4
			C32.7,92.1,32.5,92,32.3,92z"/>
		<path class="st1" d="M32.4,84.7h23.9v-5.3l1.6-10H32.4V84.7z"/>
		<path class="st1" d="M56.7,81.9v19.5c0,0.2-0.2,0.4-0.4,0.4s-0.4-0.2-0.4-0.4V81.8c0,0,0,0,0-0.1l3.5-23.6c0-0.2,0.2-0.3,0.4-0.3
			h34.9c0.2,0,0.3,0.1,0.4,0.3l5,22.4c0,0,0,0.1,0,0.1v20.8c0,0.2-0.2,0.4-0.4,0.4c-0.2,0-0.4-0.2-0.4-0.4V80.6l-4.9-22H60.2
			L56.7,81.9z"/>
		<g transform="matrix(1,0,0,1,-8.41896,0)">
			<path class="st8" d="M15.3,26v24.6c0,0.3-0.2,0.5-0.5,0.5c-0.3,0-0.5-0.2-0.5-0.5V25.5c0-0.3,0.2-0.5,0.5-0.5h43
				c0.3,0,0.5,0.2,0.5,0.5c0,0.3-0.2,0.5-0.5,0.5H15.3z"/>
		</g>
		<g transform="matrix(1,0,0,1,-8.41896,0)">
			<path class="st8" d="M57.2,50V25.5c0-0.3,0.2-0.5,0.5-0.5c0.3,0,0.5,0.2,0.5,0.5v25.1c0,0.3-0.2,0.5-0.5,0.5h-43
				c-0.3,0-0.5-0.2-0.5-0.5c0-0.3,0.2-0.5,0.5-0.5H57.2z"/>
		</g>
		<g transform="matrix(1,0,0,1,-86.8751,-121.725)">
			<path class="st8" d="M98,170.1l32.7,0.1c0.3,0,0.5-0.2,0.6-0.5c0-0.3-0.2-0.5-0.5-0.6L98,169c-0.3,0-0.5,0.2-0.6,0.5
				C97.4,169.9,97.7,170.1,98,170.1z"/>
		</g>
		<g transform="matrix(0.794473,0,0,1.67523,251.627,-394.816)">
			<text transform="matrix(0.5969 0 0 0.5969 -302.9811 262.9652)" class="st9 st10 st11">NEWS</text>
		</g>
		<g transform="matrix(1,0,0,1,7.42109,4.54747e-13)">
			<path class="st3" d="M73,31.9l2.9-4.5v5.4h5.7l-2.9,4.2v5.6l-3.8-2.3l-6.2,3.4v-4.7l-5.1-2l5.1-1.4l-1.3-6L73,31.9z"/>
		</g>
	</g>
	<g id="GREEN-PRINKLES" transform="matrix(1.02574,-0.00214966,0.00214966,1.02574,41.3702,102.35)" serif:id="GREEN PRINKLES">
		<path class="st12" d="M195.2,15.2l-1.3,6.5l2.7,0.9l2.4-7L195.2,15.2z"/>
		<path class="st12" d="M204.4,17.4l-4.5,6.5l2.2,2.2l5.5-5.8L204.4,17.4z"/>
		<path class="st12" d="M204.3,28.5l5.7-2.7l0.9,3.8l-5.9,2L204.3,28.5z"/>
		<path class="st12" d="M26.1,17.4l3.9-2.2l3.9,6.2l-2.2,2.3L26.1,17.4z"/>
		<path class="st12" d="M35.4,11.5l2.4,7.2l3.1-0.2l-1.1-7.2L35.4,11.5z"/>
		<path class="st12" d="M44.3,18.9l3.1-6.9l3,2.2L47.2,20L44.3,18.9z"/>
	</g>
	<g id="LAPTOP" transform="matrix(1,0,0,1,94.6774,115.527)">
		<path class="st2" d="M58.2,201l55.9,21.4l38.8-4l30-32.7l-59.7-15l-21.1,24.7l-43.9,3.1V201z"/>
		<g>
			<path class="st13" d="M127,173.9l-1.9,2.3"/>
			<g transform="matrix(1,0,0,1,5.07833,2.42068)">
				<path class="st13" d="M122.8,171.9l-1.9,2.3"/>
			</g>
			<g transform="matrix(0.424399,0.905475,-0.905475,0.424399,2321.78,-938.629)">
				<path class="st13" d="M77.5,2458.7l-1.9,2.3"/>
			</g>
			<g transform="matrix(0.419715,0.907656,-0.907656,0.419715,2330.84,-932.074)">
				<path class="st13" d="M81,2464.5l-1.9,2.3"/>
			</g>
		</g>
		<path class="st14" d="M179.9,178.5l3,1.7l6.1-7.4l-4.3-2.1L179.9,178.5z"/>
		<path class="st14" d="M186.8,188.4l-1,2l6.8,3.4l1.7-3.4L186.8,188.4z"/>
		<path class="st14" d="M185.7,182.7l1.2,2.4l7.5-1.9l-1.5-4.3L185.7,182.7z"/>
		<g transform="matrix(1,0,0,1,-77.9325,113.884)">
			<path class="st13" d="M190.7,80.9l-1.9,2.3"/>
			<g transform="matrix(1,0,0,1,5.07833,2.42068)">
				<path class="st13" d="M186.5,78.9l-1.9,2.3"/>
			</g>
			<g transform="matrix(0.329454,0.944172,-0.944172,0.329454,2554.1,-882.922)">
				<path class="st13" d="M133.1,2548.2l-1.9,2.3"/>
			</g>
			<g transform="matrix(0.338816,0.940853,-0.940853,0.338816,2529.3,-884.227)">
				<path class="st13" d="M118.1,2527.2l-1.9,2.3"/>
			</g>
		</g>
		<g transform="matrix(-0.998299,0.0582993,-0.0582993,-0.998299,3961.64,2752.98)">
			<path class="st13" d="M3663.9,2766.1l-1.9,2.3"/>
			<g transform="matrix(1,0,0,1,5.07833,2.42068)">
				<path class="st13" d="M3659.8,2764.1l-1.9,2.3"/>
			</g>
			<g transform="matrix(0.308858,0.951108,-0.951108,0.308858,2600.4,-867.712)">
				<path class="st13" d="M3786.4,110.3l-1.9,2.3"/>
			</g>
			<g transform="matrix(0.304096,0.952641,-0.952641,0.304096,2608.69,-859.5)">
				<path class="st13" d="M3777.2,97.6l-1.9,2.3"/>
			</g>
		</g>
		<g transform="matrix(0.999998,-0.00181567,0.00181567,0.999998,49.7616,168.749)">
			<path class="st13" d="M86.7,35.6l-1.9,2.3"/>
			<g transform="matrix(1,0,0,1,5.07833,2.42068)">
				<path class="st13" d="M82.6,33.6l-1.9,2.3"/>
			</g>
			<g transform="matrix(0.338258,0.941054,-0.941054,0.338258,2533.2,-889.431)">
				<path class="st13" d="M44.6,2614.3l-1.9,2.3"/>
			</g>
			<g transform="matrix(0.344401,0.938823,-0.938823,0.344401,2515.58,-888.564)">
				<path class="st13" d="M33.4,2598.5l-1.9,2.3"/>
			</g>
		</g>
		<g>
			<path class="st7" d="M117.6,212.3l-32.5-10.9l-9.1,1.1l36.5,11.9L117.6,212.3z"/>
			<path class="st7" d="M101.9,194.9l20.9-24.3c0.2-0.2,0.5-0.3,0.8-0.1c0.2,0.2,0.3,0.5,0.1,0.8l-21.1,24.4
				c-0.1,0.1-0.2,0.2-0.4,0.2l-43.4,3.1v1.9l56.3,20.9l37.4-3.7c0.3,0,0.6,0.2,0.6,0.5c0,0.3-0.2,0.6-0.5,0.6l-37.6,3.7
				c-0.1,0-0.2,0-0.2,0L58,201.9c-0.2-0.1-0.4-0.3-0.4-0.5v-2.8c0-0.3,0.2-0.5,0.5-0.5L101.9,194.9z"/>
			<path class="st7" d="M181.9,186l-58.8-14.5c-0.3-0.1-0.5-0.4-0.4-0.7c0.1-0.3,0.4-0.5,0.7-0.4l59.7,14.7c0.2,0,0.3,0.2,0.4,0.4
				c0.1,0.2,0,0.4-0.1,0.5l-30.3,33c-0.2,0.2-0.6,0.2-0.8,0c-0.2-0.2-0.2-0.6,0-0.8L181.9,186z"/>
			<path class="st7" d="M58.2,198.6l56.8,20.2l35.8-3.5l29.5-30.2l2.6,0.6l-30.3,33l-37.6,3.7l-56.8-21.1V198.6z"/>
			<path class="st7" d="M101.9,195.9l50.4,19.9c0.3,0.1,0.6,0,0.7-0.3c0.1-0.3,0-0.6-0.3-0.7l-50.4-19.9c-0.3-0.1-0.6,0-0.7,0.3
				C101.5,195.5,101.7,195.8,101.9,195.9z"/>
			<g transform="matrix(1.25406,0.348972,-0.32539,1.16932,-61.2696,-908.476)">
				<path class="st7" d="M392.6,817.6l-26.8,0.3l-1,1.8l26.6,0.1L392.6,817.6z"/>
			</g>
			<g transform="matrix(0.624303,0.268739,-0.479899,1.11485,1285.78,-566.042)">
				<path class="st7" d="M-1109.9,957.6l-26.5,0.6l-1,1.9l27-0.4L-1109.9,957.6z"/>
			</g>
			<g transform="matrix(0.624303,0.268739,-0.479899,1.11485,1413.11,-515.969)">
				<path class="st7" d="M-1283.9,960.3l-17.6,0.4l-0.8,2.2l18-0.6L-1283.9,960.3z"/>
			</g>
			<g transform="matrix(0.401682,0.172909,-0.479899,1.11485,1877.15,-338.846)">
				<path class="st7" d="M-3128.6,974.3l-16.6,0.2l-0.4,2l15.9-0.1L-3128.6,974.3z"/>
			</g>
			<g>
				<g transform="matrix(1,0,0,1,-8.92637,-0.679368)">
					<path class="st7" d="M128.2,191.5l30.9,11.4c0.2,0.1,0.3,0.3,0.2,0.5c-0.1,0.2-0.3,0.3-0.5,0.2L127.4,192
						c-0.1,0-0.2-0.1-0.2-0.2c0-0.1,0-0.2,0.1-0.3l9-11c0.1-0.2,0.4-0.2,0.5,0c0.2,0.1,0.2,0.4,0,0.5L128.2,191.5z"/>
				</g>
				<g transform="matrix(1,0,0,1,-8.92637,-0.679368)">
					<path class="st7" d="M137.3,180.4l-0.4,0.5c-0.1,0.2-0.4,0.2-0.5,0.1c-0.2-0.1-0.2-0.4-0.1-0.5l0.5-0.7
						c0.1-0.1,0.2-0.2,0.4-0.1l32.6,9.9c0.1,0,0.2,0.1,0.2,0.2c0,0.1,0,0.2-0.1,0.3l-10.8,13.3c-0.1,0.2-0.4,0.2-0.5,0.1
						c-0.2-0.1-0.2-0.4-0.1-0.5l10.4-12.9L137.3,180.4z"/>
				</g>
				<g transform="matrix(0.467817,0.105501,-0.105501,0.467817,1745.49,1211)">
					<g transform="matrix(0.997228,0.0744128,-0.0744128,0.997228,105.209,-42.521)">
						<path class="st15" d="M-3925.8-998c0,0,2-9.4,2.9-13.6c0.3-1.4,1.7-2.4,3.2-2.1c0,0,0,0,0,0c0,0,0.2-2.5,2.2-2.3
							c0,0,1.8,0.1,1.8,2c0,0,0.1-1.7,2.2-1.5c0,0,1.5,0.2,1.6,1.9c0,0,0.5-1.2,2-1.1c0,0,1.7,0,1.5,2.5c0,0,0.8-2.1,2.5-1.7
							c0,0,1.5,0,1.5,3.2c-0.4,4.8-1.1,8.8-1.5,14.9"/>
						<g transform="matrix(1.99436,-0.608826,0.608826,1.99436,-4579.34,-1475)">
							<path class="st16" d="M237,306.8c-0.2-0.1-0.4-0.1-0.5-0.2c-0.1,0-0.2-0.2-0.1-0.3c0-0.1,0.2-0.2,0.3-0.1
								c0.8,0.4,1.9,0.7,2.3,0.7c0.3,0,0.5-0.1,0.6-0.3c0.3-0.5,0-1-0.4-1.5c-0.4-0.4-0.8-0.9-1.2-1.2c0,0-0.1,0-0.1,0l0.2-0.3
								c0,0,0,0,0.1,0c0.4,0.3,0.9,0.7,1.3,1.2c0,0,0,0.1,0.1,0.1c0.1-0.4,0.3-1,0.3-1c0,0.1,0,0.3,0,0.4c0.2-0.3,0.3-0.4,0.5-0.4
								c0,0-0.3,1-0.5,1.4c0,0,0,0,0,0c0.3,0.5,0.4,1,0.1,1.5c-0.2,0.3-0.4,0.5-0.8,0.5l0,0.1c0,0,0,0,0,0c0,0,0,0,0,0
								c-0.1,0.4,0,0.8,0.4,0.9c0.2,0.1,0.3,0.1,0.5,0c0.2-0.1,0.3-0.2,0.4-0.4l1.3-3.3c0,0.1,0,0.2,0,0.3c0.2-0.2,0.3-0.3,0.5-0.3
								l-1.3,3.3c0,0,0,0,0,0c-0.1,0.4,0,0.8,0.4,0.9c0.3,0.1,0.7,0,0.9-0.4l1.2-2.9l-0.1,0.4c0.2-0.2,0.4-0.4,0.6-0.5l-1.2,3.1
								c0,0,0,0,0,0.1c-0.1,0.1,0,0.3,0.1,0.5c0.1,0.2,0.2,0.3,0.3,0.3c0.6,0.2,1-0.2,1-0.2l-0.2,0.5c0,0-0.5,0.2-0.9,0
								c-0.2-0.1-0.5-0.3-0.6-0.6c0,0,0-0.1-0.1-0.1c-0.3,0.2-0.7,0.3-1.1,0.1c-0.3-0.1-0.5-0.4-0.6-0.7c-0.1,0.1-0.2,0.1-0.2,0.1
								c-0.3,0.1-0.5,0.1-0.8,0c0,0-0.1,0-0.1,0c0,0.1,0.1,0.3,0.1,0.4c0,0.1,0.1,0.3,0.1,0.4c0.4,0,0.8,0,1.1,0.2
								c0.1,0,0.2,0.2,0.1,0.3c0,0.1-0.2,0.2-0.3,0.1c-0.2-0.1-0.6-0.2-0.9-0.1c0,0,0,0.1,0,0.1c0,0.3-0.1,0.8-0.3,1
								c-0.2,0.1-0.3,0.2-0.5,0.1c-0.1,0-0.3-0.1-0.3-0.2c-0.1-0.2-0.1-0.4-0.1-0.6c0.1-0.4,0.4-0.6,0.8-0.8l0,0
								c-0.1-0.6-0.3-1.1-0.6-1.6c0,0,0,0,0-0.1c-0.2,0.1-0.5,0.1-0.8,0C237,307.9,236.8,307.4,237,306.8z M239,310.2
								c-0.2,0.1-0.3,0.2-0.4,0.4c0,0.1,0,0.1,0,0.2c0,0,0,0.1,0.1,0.1c0,0,0.1,0,0.1,0c0.1-0.1,0.1-0.2,0.2-0.3
								C239,310.5,239,310.4,239,310.2L239,310.2z M237.4,307c-0.1,0.3,0,0.6,0.3,0.7c0.3,0.1,0.7,0,0.9-0.3l0,0c0,0,0,0,0,0l0,0
								C238.3,307.3,237.9,307.1,237.4,307z"/>
						</g>
					</g>
					<g transform="matrix(0.997228,0.0744128,-0.0744128,0.997228,-46.122,-61.4562)">
						<path class="st17" d="M-3801.3-991.7c0,0,2-9.4,2.9-13.6c0.3-1.4,1.7-2.4,3.2-2.1c0,0,0,0,0,0c0,0,0.2-2.5,2.2-2.3
							c0,0,1.8,0.1,1.8,2c0,0,0.1-1.7,2.2-1.5c0,0,1.5,0.2,1.6,1.9c0,0,0.5-1.2,2-1.1c0,0,1.7,0,1.5,2.5c0,0,0.8-2.1,2.5-1.7
							c0,0,1.5,0,1.5,3.2c-0.4,4.8-1.1,8.8-1.5,14.9"/>
						<g transform="matrix(1.99436,-0.608826,0.608826,1.99436,-4427.02,-1467.38)">
							<path class="st2" d="M224.4,302.3c-0.2-0.1-0.4-0.1-0.5-0.2c-0.1,0-0.2-0.2-0.1-0.3c0-0.1,0.2-0.2,0.3-0.1
								c0.8,0.4,1.9,0.7,2.3,0.7c0.3,0,0.5-0.1,0.6-0.3c0.3-0.5,0-1-0.4-1.5c-0.4-0.4-0.8-0.9-1.2-1.2c0,0-0.1-0.1-0.1-0.1l0.2-0.3
								c0,0,0,0,0.1,0.1c0.4,0.3,0.9,0.7,1.3,1.2c0,0,0,0.1,0.1,0.1c0.2-0.4,0.3-1,0.3-1c0,0.1,0,0.3,0,0.4c0.2-0.3,0.3-0.4,0.5-0.4
								c0,0-0.3,1-0.5,1.4c0,0,0,0,0,0c0.3,0.5,0.4,1,0.1,1.5c-0.2,0.3-0.4,0.5-0.8,0.5l0,0.1c0,0,0,0,0,0c0,0,0,0,0,0
								c-0.1,0.4,0,0.8,0.4,0.9c0.2,0.1,0.3,0.1,0.5,0c0.2-0.1,0.3-0.2,0.4-0.4l1.3-3.3c0,0.1,0,0.2,0,0.3c0.2-0.2,0.3-0.3,0.5-0.3
								l-1.3,3.3c0,0,0,0,0,0c-0.1,0.4,0,0.8,0.4,0.9c0.3,0.1,0.7,0,0.9-0.4l1.2-2.9l-0.1,0.4c0.2-0.2,0.4-0.4,0.6-0.5l-1.2,3.1
								c0,0,0,0,0,0.1c-0.1,0.1,0,0.3,0.1,0.5c0.1,0.2,0.2,0.3,0.3,0.3c0.6,0.2,1-0.2,1-0.2l-0.2,0.5c0,0-0.5,0.2-0.9,0
								c-0.2-0.1-0.5-0.3-0.6-0.6c0,0,0-0.1-0.1-0.1c-0.3,0.2-0.7,0.3-1.1,0.1c-0.3-0.1-0.5-0.4-0.6-0.7c-0.1,0.1-0.2,0.1-0.2,0.1
								c-0.3,0.1-0.5,0.1-0.8,0c0,0-0.1,0-0.1,0c0,0.1,0.1,0.3,0.1,0.4c0,0.1,0.1,0.3,0.1,0.4c0.4,0,0.8,0,1.1,0.2
								c0.1,0,0.2,0.2,0.1,0.3c0,0.1-0.2,0.2-0.3,0.1c-0.2-0.1-0.6-0.2-0.9-0.1c0,0,0,0.1,0,0.1c0,0.3-0.1,0.8-0.3,1
								c-0.2,0.1-0.3,0.2-0.5,0.1c-0.1,0-0.2-0.1-0.3-0.2c-0.1-0.2-0.1-0.4-0.1-0.6c0.1-0.4,0.4-0.6,0.8-0.8l0,0
								c-0.1-0.6-0.3-1.1-0.6-1.6c0,0,0,0,0-0.1c-0.2,0.1-0.5,0.1-0.8,0C224.5,303.3,224.2,302.8,224.4,302.3z M226.4,305.7
								c-0.2,0.1-0.3,0.2-0.4,0.4c0,0.1,0,0.1,0,0.2c0,0,0,0.1,0.1,0.1c0,0,0.1,0,0.1,0c0.1-0.1,0.1-0.2,0.2-0.3
								C226.4,306,226.4,305.8,226.4,305.7L226.4,305.7z M224.8,302.4c-0.1,0.3,0,0.6,0.3,0.7c0.3,0.1,0.7,0,0.9-0.3l0,0
								c0,0,0,0,0,0l0,0C225.7,302.7,225.3,302.6,224.8,302.4z"/>
						</g>
					</g>
				</g>
			</g>
		</g>
		<g transform="matrix(0.88816,-0.164313,0.167587,0.905855,-38.2713,437.225)">
			<path class="st14" d="M214.4-229.8c0,0,0,0-0.1-0.3c-0.1-0.2-0.1-0.4-0.2-0.6c-0.1-0.5-0.1-0.9,0-1.4c0.1-0.3,0.1-0.6,0.3-0.8
				c0.5-0.6,1.5-0.7,1.9,0c0.1,0.2,0.1,0.4,0.2,0.6c0,0,0,0.2,0,0.2c0,0,0.1-0.1,0.1-0.1c0.1-0.1,0.2-0.1,0.4-0.1
				c0.5-0.1,1.2,0.2,1.4,0.7c0.3,0.6-0.2,1.2-0.6,1.5C216.8-229.4,214.4-229.8,214.4-229.8z"/>
		</g>
		<g transform="matrix(0.999456,-0.0329788,0.0329788,0.999456,-52.8679,57.199)">
			<g transform="matrix(0.668839,0,0,0.767736,615.369,341.182)">
				<path class="st7" d="M-669.8-259.3h-1.2c-0.2,0-0.3-0.1-0.3-0.3s0.2-0.3,0.3-0.3h1.9c0.1,0,0.2,0.1,0.3,0.2c0.1,0.1,0,0.2,0,0.3
					l-1.9,2.3c-0.1,0.1-0.3,0.2-0.5,0.1c-0.1-0.1-0.2-0.3-0.1-0.4L-669.8-259.3z"/>
			</g>
			<g transform="matrix(0.793402,0.524075,-0.58005,0.878144,1237.59,-802.94)">
				<path class="st7" d="M-389.6,1309.4c0.1,0,0.2,0.1,0.2,0.2c0.1,0.1,0.2,0.3,0.2,0.5c0,0.2-0.1,0.4-0.2,0.5
					c-0.1,0.1-0.1,0.2-0.2,0.2c-0.1,0-0.2,0.1-0.2,0.2c0,0.1,0.1,0.2,0.2,0.2c0.2,0,0.4-0.1,0.6-0.3c0.2-0.2,0.3-0.5,0.3-0.9
					c0-0.4-0.1-0.7-0.3-0.9c-0.2-0.2-0.3-0.3-0.6-0.3c-0.1,0-0.2,0.1-0.2,0.2C-389.9,1309.3-389.8,1309.4-389.6,1309.4z"/>
			</g>
			<g transform="matrix(0.793402,0.524075,-0.58005,0.878144,1247.32,-798.845)">
				<path class="st7" d="M-398.5,1310.9c0.1,0,0.2,0.1,0.2,0.2c0.1,0.1,0.2,0.3,0.2,0.5c0,0.2-0.1,0.4-0.2,0.5
					c-0.1,0.1-0.1,0.2-0.2,0.2c-0.1,0-0.2,0.1-0.2,0.2s0.1,0.2,0.2,0.2c0.2,0,0.4-0.1,0.6-0.3c0.2-0.2,0.3-0.5,0.3-0.9
					c0-0.4-0.1-0.7-0.3-0.9c-0.2-0.2-0.3-0.3-0.6-0.3c-0.1,0-0.2,0.1-0.2,0.2C-398.8,1310.8-398.7,1310.9-398.5,1310.9z"/>
			</g>
			<g transform="matrix(0.793402,0.524075,-0.58005,0.878144,1257.01,-794.848)">
				<path class="st7" d="M-407.4,1312.4c0.1,0,0.2,0.1,0.2,0.2c0.1,0.1,0.2,0.3,0.2,0.5c0,0.2-0.1,0.4-0.2,0.5
					c-0.1,0.1-0.1,0.2-0.2,0.2c-0.1,0-0.2,0.1-0.2,0.2c0,0.1,0.1,0.2,0.2,0.2c0.2,0,0.4-0.1,0.6-0.3c0.2-0.2,0.3-0.5,0.3-0.9
					c0-0.4-0.1-0.7-0.3-0.9c-0.2-0.2-0.3-0.3-0.6-0.3c-0.1,0-0.2,0.1-0.2,0.2C-407.6,1312.4-407.5,1312.4-407.4,1312.4z"/>
			</g>
			<g transform="matrix(0.793402,0.524075,-0.58005,0.878144,1266.71,-790.851)">
				<path class="st7" d="M-416.2,1314c0.1,0,0.2,0.1,0.2,0.2c0.1,0.1,0.2,0.3,0.2,0.5c0,0.2-0.1,0.4-0.2,0.5
					c-0.1,0.1-0.1,0.2-0.2,0.2c-0.1,0-0.2,0.1-0.2,0.2s0.1,0.2,0.2,0.2c0.2,0,0.4-0.1,0.6-0.3c0.2-0.2,0.3-0.5,0.3-0.9
					c0-0.4-0.1-0.7-0.3-0.9c-0.2-0.2-0.3-0.3-0.6-0.3c-0.1,0-0.2,0.1-0.2,0.2C-416.5,1313.9-416.4,1314-416.2,1314z"/>
			</g>
			<g transform="matrix(0.793402,0.524075,-0.58005,0.878144,1276.41,-786.854)">
				<path class="st7" d="M-425.1,1315.6c0.1,0,0.2,0.1,0.2,0.2c0.1,0.1,0.2,0.3,0.2,0.5c0,0.2-0.1,0.4-0.2,0.5
					c-0.1,0.1-0.1,0.2-0.2,0.2c-0.1,0-0.2,0.1-0.2,0.2c0,0.1,0.1,0.2,0.2,0.2c0.2,0,0.4-0.1,0.6-0.3c0.2-0.2,0.3-0.5,0.3-0.9
					c0-0.4-0.1-0.7-0.3-0.9c-0.2-0.2-0.3-0.3-0.6-0.3c-0.1,0-0.2,0.1-0.2,0.2C-425.3,1315.5-425.2,1315.6-425.1,1315.6z"/>
			</g>
			<g transform="matrix(0.793402,0.524075,-0.58005,0.878144,1286.1,-782.858)">
				<path class="st7" d="M-433.9,1317.1c0.1,0,0.2,0.1,0.2,0.2c0.1,0.1,0.2,0.3,0.2,0.5c0,0.2-0.1,0.4-0.2,0.5
					c-0.1,0.1-0.1,0.2-0.2,0.2c-0.1,0-0.2,0.1-0.2,0.2s0.1,0.2,0.2,0.2c0.2,0,0.4-0.1,0.6-0.3c0.2-0.2,0.3-0.5,0.3-0.9
					c0-0.4-0.1-0.7-0.3-0.9c-0.2-0.2-0.3-0.3-0.6-0.3c-0.1,0-0.2,0.1-0.2,0.2C-434.2,1317-434,1317.1-433.9,1317.1z"/>
			</g>
			<g transform="matrix(0.793402,0.524075,-0.58005,0.878144,1295.8,-778.861)">
				<path class="st7" d="M-442.8,1318.7c0.1,0,0.2,0.1,0.2,0.2c0.1,0.1,0.2,0.3,0.2,0.5c0,0.2-0.1,0.4-0.2,0.5
					c-0.1,0.1-0.1,0.2-0.2,0.2c-0.1,0-0.2,0.1-0.2,0.2c0,0.1,0.1,0.2,0.2,0.2c0.2,0,0.4-0.1,0.6-0.3c0.2-0.2,0.3-0.5,0.3-0.9
					c0-0.4-0.1-0.7-0.3-0.9c-0.2-0.2-0.3-0.3-0.6-0.3c-0.1,0-0.2,0.1-0.2,0.2C-443,1318.6-442.9,1318.7-442.8,1318.7z"/>
			</g>
			<g transform="matrix(0.793402,0.524075,-0.58005,0.878144,1237.59,-802.94)">
				<path class="st7" d="M-389.6,1310.8c-0.1,0-0.2-0.1-0.2-0.2c-0.1-0.1-0.2-0.3-0.2-0.5c0-0.2,0.1-0.4,0.2-0.5
					c0.1-0.1,0.1-0.2,0.2-0.2c0.1,0,0.2-0.1,0.2-0.2c0-0.1-0.1-0.2-0.2-0.2c-0.2,0-0.4,0.1-0.6,0.3c-0.2,0.2-0.3,0.5-0.3,0.9
					c0,0.4,0.1,0.7,0.3,0.9c0.2,0.2,0.3,0.3,0.6,0.3c0.1,0,0.2-0.1,0.2-0.2C-389.4,1310.9-389.5,1310.8-389.6,1310.8z"/>
			</g>
			<g transform="matrix(0.793402,0.524075,-0.58005,0.878144,1247.32,-798.845)">
				<path class="st7" d="M-398.5,1312.3c-0.1,0-0.2-0.1-0.2-0.2c-0.1-0.1-0.2-0.3-0.2-0.5c0-0.2,0.1-0.4,0.2-0.5
					c0.1-0.1,0.1-0.2,0.2-0.2c0.1,0,0.2-0.1,0.2-0.2c0-0.1-0.1-0.2-0.2-0.2c-0.2,0-0.4,0.1-0.6,0.3c-0.2,0.2-0.3,0.5-0.3,0.9
					c0,0.4,0.1,0.7,0.3,0.9c0.2,0.2,0.3,0.3,0.6,0.3c0.1,0,0.2-0.1,0.2-0.2S-398.4,1312.3-398.5,1312.3z"/>
			</g>
			<g transform="matrix(0.793402,0.524075,-0.58005,0.878144,1257.01,-794.848)">
				<path class="st7" d="M-407.4,1313.9c-0.1,0-0.2-0.1-0.2-0.2c-0.1-0.1-0.2-0.3-0.2-0.5c0-0.2,0.1-0.4,0.2-0.5
					c0.1-0.1,0.1-0.2,0.2-0.2c0.1,0,0.2-0.1,0.2-0.2c0-0.1-0.1-0.2-0.2-0.2c-0.2,0-0.4,0.1-0.6,0.3c-0.2,0.2-0.3,0.5-0.3,0.9
					c0,0.4,0.1,0.7,0.3,0.9c0.2,0.2,0.3,0.3,0.6,0.3c0.1,0,0.2-0.1,0.2-0.2C-407.2,1314-407.3,1313.9-407.4,1313.9z"/>
			</g>
			<g transform="matrix(0.793402,0.524075,-0.58005,0.878144,1266.71,-790.851)">
				<path class="st7" d="M-416.2,1315.4c-0.1,0-0.2-0.1-0.2-0.2c-0.1-0.1-0.2-0.3-0.2-0.5c0-0.2,0.1-0.4,0.2-0.5
					c0.1-0.1,0.1-0.2,0.2-0.2c0.1,0,0.2-0.1,0.2-0.2c0-0.1-0.1-0.2-0.2-0.2c-0.2,0-0.4,0.1-0.6,0.3c-0.2,0.2-0.3,0.5-0.3,0.9
					c0,0.4,0.1,0.7,0.3,0.9c0.2,0.2,0.3,0.3,0.6,0.3c0.1,0,0.2-0.1,0.2-0.2S-416.1,1315.4-416.2,1315.4z"/>
			</g>
			<g transform="matrix(0.793402,0.524075,-0.58005,0.878144,1276.41,-786.854)">
				<path class="st7" d="M-425.1,1317c-0.1,0-0.2-0.1-0.2-0.2c-0.1-0.1-0.2-0.3-0.2-0.5c0-0.2,0.1-0.4,0.2-0.5
					c0.1-0.1,0.1-0.2,0.2-0.2c0.1,0,0.2-0.1,0.2-0.2c0-0.1-0.1-0.2-0.2-0.2c-0.2,0-0.4,0.1-0.6,0.3c-0.2,0.2-0.3,0.5-0.3,0.9
					c0,0.4,0.1,0.7,0.3,0.9c0.2,0.2,0.3,0.3,0.6,0.3c0.1,0,0.2-0.1,0.2-0.2C-424.8,1317.1-424.9,1317-425.1,1317z"/>
			</g>
			<g transform="matrix(0.793402,0.524075,-0.58005,0.878144,1286.1,-782.858)">
				<path class="st7" d="M-433.9,1318.6c-0.1,0-0.2-0.1-0.2-0.2c-0.1-0.1-0.2-0.3-0.2-0.5c0-0.2,0.1-0.4,0.2-0.5
					c0.1-0.1,0.1-0.2,0.2-0.2c0.1,0,0.2-0.1,0.2-0.2c0-0.1-0.1-0.2-0.2-0.2c-0.2,0-0.4,0.1-0.6,0.3c-0.2,0.2-0.3,0.5-0.3,0.9
					c0,0.4,0.1,0.7,0.3,0.9c0.2,0.2,0.3,0.3,0.6,0.3c0.1,0,0.2-0.1,0.2-0.2S-433.8,1318.6-433.9,1318.6z"/>
			</g>
			<g transform="matrix(0.793402,0.524075,-0.58005,0.878144,1295.8,-778.861)">
				<path class="st7" d="M-442.8,1320.1c-0.1,0-0.2-0.1-0.2-0.2c-0.1-0.1-0.2-0.3-0.2-0.5c0-0.2,0.1-0.4,0.2-0.5
					c0.1-0.1,0.1-0.2,0.2-0.2c0.1,0,0.2-0.1,0.2-0.2c0-0.1-0.1-0.2-0.2-0.2c-0.2,0-0.4,0.1-0.6,0.3c-0.2,0.2-0.3,0.5-0.3,0.9
					c0,0.4,0.1,0.7,0.3,0.9c0.2,0.2,0.3,0.3,0.6,0.3c0.1,0,0.2-0.1,0.2-0.2C-442.5,1320.2-442.6,1320.1-442.8,1320.1z"/>
			</g>
		</g>
	</g>
	<g id="CHAIR" transform="matrix(1,0,0,1,94.6104,116.93)">
		<path class="st0" d="M-131.1,161.8l42.5,0l4.6,0c0,0,0,0,0,0l33.3,0.2c0.3,0,0.6,0.3,0.6,0.6c0,0.3-0.3,0.6-0.6,0.6
			c0,0-33.3-0.2-33.3-0.2h-47.8l-0.6-0.7c3.2-51.3-1.1-77.5-7.6-90.5c-3.8-7.6-8.2-10.6-12.2-11.4c-6-1.2-10.9,2.3-10.9,2.3l0,0
			c-0.3,0.2-0.7,0.1-0.9-0.1c-0.2-0.3-0.1-0.7,0.1-0.9c0,0,5.4-3.9,11.9-2.6c4.3,0.9,9.1,4,13.1,12
			C-132.4,84.4-128,110.6-131.1,161.8z"/>
		<path class="st0" d="M-101.8,61.3c0,0,14.3,0.7,25.4,1.3c8.1,0.4,14.9,6.2,16.7,14.1c1.7,8.3,3.4,20.6,4.6,39
			c0,0.3,0.3,0.6,0.7,0.6c0.3,0,0.6-0.3,0.6-0.7c-1.2-18.5-2.9-30.9-4.6-39.2c-1.9-8.5-9.2-14.6-17.8-15.1
			c-11.1-0.6-25.4-1.3-25.4-1.3c-0.3,0-0.6,0.2-0.6,0.6C-102.4,61-102.1,61.3-101.8,61.3z"/>
		<path class="st0" d="M1.8,198.2l1.4-16.9c0.4-4.7-1.2-9.3-4.4-12.7c-3.2-3.4-7.7-5.4-12.4-5.4c-14.5,0.1-32.8,0.1-38,0.1
			c-1.1,0-2-0.9-2.1-2c-0.1-18.3-0.7-33.2-1.4-45.5c0-0.3,0.2-0.6,0.6-0.7c0.3,0,0.6,0.2,0.7,0.6c0.8,12.3,1.3,27.2,1.4,45.5
			c0,0.5,0.4,0.8,0.8,0.8c5.2,0,23.5-0.1,38-0.1c5,0,9.8,2.1,13.3,5.8c3.4,3.7,5.1,8.7,4.7,13.7c-0.7,8.9-1.4,17.5-1.4,17.5
			c0,0.3-0.3,0.6-0.6,0.6c0,0-100.9,0.9-141,1.3c-9.7,0.1-18.2-6.6-20.4-16c-1-4.3-2.2-9.3-3.4-14.8c-5.2-22.9-11.8-54.5-15.3-79.2
			c-1.2-8.6,1.6-17.2,7.4-23.6c5.9-6.4,14.3-9.8,22.9-9.4c21.3,1.1,45.7,2.4,45.7,2.4c0.3,0,0.6,0.3,0.6,0.6c0,0.3-0.3,0.6-0.6,0.6
			c0,0-24.4-1.3-45.7-2.4c-8.3-0.4-16.3,2.9-22,9c-5.6,6.1-8.2,14.4-7.1,22.6c3.4,24.6,10.1,56.2,15.3,79.1
			c1.2,5.5,2.4,10.5,3.4,14.8c2.1,8.9,10.1,15.2,19.2,15.1L1.8,198.2z"/>
		<g transform="matrix(1,0,0,1,-94.6104,-116.93)">
			<path class="st0" d="M48.1,280.2c0,0,6.6-0.2,10.4,6.3c2.9,5,3.3,13.8-3.7,29.1c-0.1,0.3,0,0.7,0.3,0.8c0.3,0.1,0.7,0,0.8-0.3
				c7.3-15.9,6.6-25,3.6-30.2c-4.1-7.2-11.5-7-11.5-7c-0.3,0-0.6,0.3-0.6,0.6C47.5,279.9,47.8,280.2,48.1,280.2z"/>
		</g>
		<g transform="matrix(1,0,0,1,-94.6104,-116.93)">
			<path class="st0" d="M-51.9,316l0.8,3.8c0,0,1.6,8.9,2.6,14.3c0.5,2.6,2.7,4.5,5.4,4.5c0,0,0,0,0,0c2.7,0,5-2,5.4-4.6
				c1-6.1,2.7-16.9,2.7-16.9c0.1-0.3-0.2-0.7-0.5-0.7c-0.3-0.1-0.7,0.2-0.7,0.5c0,0-1.8,10.8-2.7,16.9c-0.3,2.1-2.1,3.6-4.2,3.6
				c0,0,0,0,0,0c-2,0-3.8-1.5-4.1-3.5c-1-5.4-2.6-14.3-2.6-14.3c0,0,0,0,0,0l-0.8-3.8c-0.1-0.3-0.4-0.6-0.7-0.5
				C-51.7,315.4-52,315.7-51.9,316z"/>
		</g>
		<g transform="matrix(1,0,0,1,620.595,-114.855)">
			<path class="st0" d="M-636.2,313.9c0,0,2.2,12.1,3.3,18.5c0.5,2.6,2.7,4.5,5.4,4.5h0c2.7,0,5-2,5.4-4.6c1.1-6.5,3-18.3,3-18.3
				c0.1-0.3-0.2-0.7-0.5-0.7c-0.3-0.1-0.7,0.2-0.7,0.5c0,0-1.9,11.9-3,18.3c-0.3,2.1-2.1,3.6-4.2,3.6h0c-2,0-3.8-1.5-4.2-3.5
				c-1.2-6.5-3.3-18.5-3.3-18.5c-0.1-0.3-0.4-0.6-0.7-0.5C-636,313.2-636.3,313.6-636.2,313.9z"/>
		</g>
		<g transform="matrix(1,0,0,1,41.8863,-116.93)">
			<path class="st0" d="M-64.5,280.2c4.8,1.2,9.4,1.5,12.9,8.4c1.3,2.5,1.7,5.4,1.6,9.5c-0.1,4.2-0.7,9.7-1.5,17.3
				c0,0.3,0.2,0.6,0.6,0.7c0.3,0,0.6-0.2,0.7-0.6c0.8-7.6,1.4-13.1,1.5-17.4c0.1-4.4-0.4-7.5-1.8-10.1c-3.8-7.4-8.6-7.8-13.7-9.1
				c-0.3-0.1-0.7,0.1-0.8,0.5C-65.1,279.8-64.9,280.1-64.5,280.2z"/>
		</g>
		<g transform="matrix(1,0,0,1,-16.7214,-116.93)">
			<path class="st0" d="M-17,280.2c4.8,1.2,9.7,1.5,13.2,8.4c1.3,2.5,1.7,5.4,1.6,9.5c-0.1,4.2-0.7,9.7-1.5,17.3
				c0,0.3,0.2,0.6,0.6,0.7c0.3,0,0.6-0.2,0.7-0.6c0.8-7.6,1.4-13.1,1.5-17.4c0.1-4.4-0.4-7.5-1.8-10.1c-3.8-7.4-8.9-7.8-14-9.1
				c-0.3-0.1-0.7,0.1-0.8,0.5C-17.5,279.8-17.3,280.1-17,280.2z"/>
		</g>
	</g>
	<g id="CHARACTER" transform="matrix(1,0,0,1,-141.735,-23.3118)">
		<g transform="matrix(1,0,0,1,94.6774,115.527)">
			<path class="st2" d="M4.2,61.7c0,0-2.9-5.7-6.8-2c0,0-1.4,2.2,1.7,6.7l-6.8,13.3c0,0-7.4,0.8-11.1,1.3c-7,0.8-18.7,1.9-23.8,9.3
				c-3.5,5.1-3.5,9.7-3.5,13.7C-40,125.4-33.9,147-29.5,173c0,0,4.5,16.4,20.4,16.7c14.6,0.3,60.4-3.5,61.9-2.4l-0.1-3.9l3.2,0
				l1.5,0l0.4,1c0,0,12.4,1.9,16.8,8.3l25.4-1.9c0,0-0.7-5.5-3.9-7.4l8.3,0l25.4,66.2l40.3,0c0,0-3.1-3.1-6.3-4.2L135,163.2
				c0,0-7.7-21.4-38.7-20.4l-0.4-6c0,0,20.4-0.8,22.6-14.7c0,0,6.7-17.6-22-31.4l-0.2-19.8c0,0-3.5-14.1-11.6-16.5
				c0,0-11.3-4.3-19.6-1.4c0,0-6.9,4.6-10.3,9.1L38,82.6l-27.1-0.2l0-2.3c0,0,6.2-0.5,7.8-4.1l4.9-9.7C23.5,66.4,16.2,51.3,4.2,61.7
				z"/>
		</g>
		<g transform="matrix(1,0,0,1,-1.24089,-0.674955)">
			<path class="st16" d="M176.8,304.8c0,0,0.9,1.6,1.1,3.6c0,0.3,0.3,0.6,0.7,0.6c0.3,0,0.6-0.3,0.6-0.7c-0.2-2.2-1.3-4.1-1.3-4.1
				c-0.2-0.3-0.5-0.4-0.8-0.2C176.7,304.1,176.6,304.5,176.8,304.8z"/>
		</g>
		<g transform="matrix(1,0,0,1,27.2286,-3.70411)">
			<path class="st16" d="M153.5,307.3c0,0,0.9,1.6,1.1,3.6c0,0.3,0.3,0.6,0.7,0.6c0.3,0,0.6-0.3,0.6-0.7c-0.2-2.2-1.3-4.1-1.3-4.1
				c-0.2-0.3-0.5-0.4-0.8-0.2C153.5,306.6,153.3,307,153.5,307.3z"/>
		</g>
		<g transform="matrix(1,0,0,1,51.9647,-6.91752)">
			<path class="st16" d="M133.3,309.9c0,0,0.9,1.6,1.1,3.6c0,0.3,0.3,0.6,0.7,0.6c0.3,0,0.6-0.3,0.6-0.7c-0.2-2.2-1.3-4.1-1.3-4.1
				c-0.2-0.3-0.5-0.4-0.8-0.2C133.2,309.2,133.1,309.6,133.3,309.9z"/>
		</g>
		<g transform="matrix(1,0,0,1,94.6774,115.527)">
			<path class="st16" d="M21.1,65.3c-2-3.6-3.1-7.8-3.1-12.2c0-14.5,12-26.2,26.7-26.2c14.5,0,26.4,11.4,26.7,25.6
				c-2.2,0.2-5.7,1.2-11,4.5c0,0-1.3,0-19.7,22.1c-7.4-1.1-13.9-5.2-18-11l1.2-2L21.1,65.3z"/>
		</g>
		<g transform="matrix(1,0,0,1,94.6774,115.527)">
			<path class="st18" d="M46,142.1l5.2-0.1l1.6,45.3l-58.3,2.4c0,0,0.1,0,0.4-0.1c5.1-1.2,15.6-4.6,28.7-14
				C32.7,169,35.8,157.5,46,142.1z"/>
			<g transform="matrix(1,0,0,1,-94.6774,-115.527)">
				<path class="st19" d="M109.1,304.4c-0.1-0.4,0.1-0.8,0.5-1.1l4.1-2.7c0.5-0.3,1.2-0.2,1.5,0.3c0.3,0.5,0.2,1.2-0.3,1.5l-2.8,1.8
					L109.1,304.4z M121.2,303.9C121.1,303.9,121.1,303.9,121.2,303.9c-0.1-0.7,0.2-1.3,0.8-1.4l4.9-1c0.6-0.1,1.2,0.3,1.3,0.9
					c0.1,0.5-0.2,1-0.6,1.2L121.2,303.9z M133,303.5L133,303.5c-0.4-0.5-0.3-1.2,0.1-1.6l3.8-3.2c0.5-0.4,1.2-0.3,1.5,0.1
					c0.4,0.5,0.3,1.2-0.1,1.5l-3.6,3L133,303.5z M142.7,303l-0.3-0.1c-0.6-0.2-0.9-0.8-0.6-1.4c0.2-0.6,0.8-0.9,1.4-0.6l4.3,1.6
					l0,0.4L142.7,303z M107,300.9C107,301,107,301,107,300.9c0,0.7-0.4,1.2-1,1.2l-2.1,0.1c0.2-0.1,0.7-0.3,0.9-0.4
					C105.5,301.6,106.2,301.3,107,300.9z M118.7,292.8l3.1,2.9c0.4,0.4,0.5,1.1,0.1,1.6c-0.4,0.4-1.1,0.5-1.6,0.1l-3.2-3.1
					C117.6,293.8,118.2,293.3,118.7,292.8z M131.7,294.4l-4.7-1.6c-0.6-0.2-1.2,0.1-1.4,0.7c-0.2,0.6,0.1,1.2,0.7,1.4l4.7,1.6
					c0.6,0.2,1.2-0.1,1.4-0.7C132.6,295.3,132.3,294.6,131.7,294.4z M139.1,291.3l3.2,3.8c0.4,0.5,1.1,0.5,1.5,0.1
					c0.5-0.4,0.5-1.1,0.1-1.5l-3.2-3.8c-0.4-0.5-1.1-0.5-1.5-0.1C138.7,290.2,138.7,290.9,139.1,291.3z M134.8,289.3l-0.9-4.9
					c-0.1-0.6-0.7-1-1.3-0.9c-0.6,0.1-1,0.7-0.9,1.3l0.9,4.9c0.1,0.6,0.7,1,1.3,0.9C134.5,290.5,134.9,289.9,134.8,289.3z
					 M125.1,285.2l0.7,0.2c0.6,0.2,0.9,0.8,0.7,1.4c-0.2,0.6-0.8,0.9-1.4,0.7l-1.4-0.4C124.3,286.4,124.7,285.9,125.1,285.2z
					 M146.7,286.4c-0.2,0.1-0.5,0.1-0.7,0l-4.6-1.9c-0.6-0.2-0.8-0.9-0.6-1.4c0.2-0.6,0.9-0.8,1.4-0.6l4.4,1.8L146.7,286.4z
					 M129.3,278.1l4.2-1.9c0.6-0.2,1.2,0,1.4,0.6c0.2,0.6,0,1.2-0.6,1.4l-4.6,2c-0.6,0.2-1.1,0.2-1.3-0.4
					C128.5,279.8,129,278.7,129.3,278.1z M139.9,273.7l-1.8,4.6c-0.2,0.6,0.1,1.2,0.6,1.4c0.6,0.2,1.2-0.1,1.4-0.6l1.8-4.6
					c0.2-0.6-0.1-1.2-0.6-1.4C140.7,272.8,140.1,273.1,139.9,273.7z M146.3,271.3c-0.2-0.2-0.3-0.4-0.4-0.6l-1.1-4.9
					c-0.1-0.6,0.2-1.2,0.8-1.3c0.1,0,0.3,0,0.4,0L146.3,271.3z M134.4,269.3c0.2,0.2,0.3,0.5,0.3,0.8c0,0.6-0.5,1.1-1.1,1.1l-0.2,0
					C133.7,270.5,134,269.9,134.4,269.3z M140.9,260.7l-3.2,3.8c-0.4,0.5-0.3,1.2,0.1,1.5c0.5,0.4,1.2,0.3,1.5-0.1l3.2-3.8
					c0.4-0.5,0.3-1.2-0.1-1.5S141.3,260.3,140.9,260.7z"/>
			</g>
		</g>
		<g transform="matrix(1,0,0,1,94.6774,115.527)">
			<path class="st20" d="M-35.5,143.3c0,0,3.1,15.5,5.6,27.9c2.2,11.1,12.2,18.9,23.5,18.5c13.2-0.5,30-6,41.1-27.2l-16.1-16.1
				c-6.5,4-11.4,8.1-20.3,14C-15.7,166.7-28.9,163.3-35.5,143.3z"/>
			<g transform="matrix(1,0,0,1,-94.6774,-115.527)">
				<path class="st6" d="M98.4,303.9l-2.3,0.5l-0.2-0.3c-0.4-0.5-0.3-1.2,0.2-1.5c0.5-0.4,1.2-0.3,1.5,0.2L98.4,303.9z M79,303.7
					l1.3-2.3c0.3-0.5,0.9-0.8,1.5-0.5c0.5,0.3,0.8,0.9,0.5,1.5l-0.8,2.2C80.5,304.3,79.5,303.9,79,303.7z M89.3,300.7l4.9-0.7
					c0.6-0.1,1-0.6,0.9-1.2c-0.1-0.6-0.6-1-1.2-0.9l-4.9,0.7c-0.6,0.1-1,0.6-0.9,1.2C88.1,300.4,88.7,300.8,89.3,300.7z
					 M110.4,299.1l-2.2,0.3c-0.6,0.1-1.1-0.4-1.2-1c-0.1-0.6,0.4-1.1,1-1.2l4.9-0.5c0.4,0,0.6-0.1,0.8,0.3
					C112.6,297.7,111.4,298.6,110.4,299.1z M68.4,295.2c0-0.3,0.1-0.5,0.4-0.7c0.5-0.4,1.2-0.3,1.5,0.2l3.1,3.9
					c0.4,0.5,0.3,1.2-0.2,1.5c-0.1,0.1-0.2,0.1-0.3,0.1C70.8,298.4,69.6,296.9,68.4,295.2z M99.3,292.9l0.7,4.9
					c0.1,0.6,0.6,1,1.2,0.9c0.6-0.1,1-0.6,0.9-1.2l-0.7-4.9c-0.1-0.6-0.6-1-1.2-0.9C99.6,291.8,99.2,292.3,99.3,292.9z M78.3,295.2
					l4.6,1.8c0.6,0.2,1.2-0.1,1.4-0.6c0.2-0.6-0.1-1.2-0.6-1.4l-4.6-1.8c-0.6-0.2-1.2,0.1-1.4,0.6C77.4,294.3,77.7,294.9,78.3,295.2
					z M91.4,291.6l-3.1-3.9c-0.4-0.5-1.1-0.5-1.5-0.2c-0.5,0.4-0.5,1.1-0.2,1.5l3.1,3.9c0.4,0.5,1.1,0.5,1.5,0.2
					C91.7,292.8,91.8,292.1,91.4,291.6z M109.6,291.2l-2.9-4.1c-0.4-0.5-1-0.6-1.5-0.3c-0.5,0.4-0.6,1-0.3,1.5l2.9,4.1
					c0.4,0.5,1,0.6,1.5,0.3C109.8,292.3,109.9,291.7,109.6,291.2z M115,286.4l-0.7,4.9c-0.1,0.6,0.3,1.2,0.9,1.2
					c0.6,0.1,1.2-0.3,1.2-0.9l0.7-4.9c0.1-0.6-0.3-1.2-0.9-1.2C115.7,285.4,115.1,285.8,115,286.4z M96.8,288.9l1.8-4.6
					c0.2-0.6-0.1-1.2-0.6-1.4c-0.6-0.2-1.2,0.1-1.4,0.6l-1.8,4.6c-0.2,0.6,0.1,1.2,0.6,1.4C95.9,289.8,96.6,289.5,96.8,288.9z
					 M73,287.1l-5,0.1c-0.6,0-1.1,0.5-1.1,1.1c0,0.6,0.5,1.1,1.1,1.1l5-0.1c0.6,0,1.1-0.5,1.1-1.1C74.2,287.5,73.7,287.1,73,287.1z
					 M79,283.1l1.2,4.8c0.2,0.6,0.8,0.9,1.3,0.8c0.6-0.2,0.9-0.8,0.8-1.3l-1.2-4.8c-0.2-0.6-0.8-0.9-1.3-0.8
					C79.2,281.9,78.9,282.5,79,283.1z M123.6,287.3l-2.4-3c-0.4-0.5-0.3-1.2,0.2-1.5c0.5-0.4,1.2-0.3,1.5,0.2l2.1,2.4
					C124.6,286,124,286.8,123.6,287.3z M63.5,280.2l3.2,1.8c0.5,0.3,0.7,1,0.4,1.5c-0.3,0.5-1,0.7-1.5,0.4l-1.6-0.9
					C63.9,282,63.6,281,63.5,280.2z M109.5,278.4l-4,3c-0.5,0.4-0.6,1-0.2,1.5c0.4,0.5,1,0.6,1.5,0.2l4-3c0.5-0.4,0.6-1.1,0.2-1.5
					C110.6,278.2,109.9,278.1,109.5,278.4z M73.7,278c0.7,0.3,1.4,0.5,2.2,0.7c0,0.1-0.2,0.2-0.2,0.3l-3,4c-0.4,0.5-1.1,0.6-1.5,0.2
					c-0.5-0.4-0.6-1.1-0.2-1.5L73.7,278z M88.9,277.8l2.4,3c0.4,0.5,0.3,1.2-0.2,1.5c-0.5,0.4-1.2,0.3-1.5-0.2l-3-3.8
					C87.3,278.3,88.1,278.1,88.9,277.8z M118.2,279.9l1.7-4.7c0.2-0.6-0.1-1.2-0.7-1.4c-0.6-0.2-1.2,0.1-1.4,0.7l-1.7,4.7
					c-0.2,0.6,0.1,1.2,0.7,1.4C117.3,280.8,118,280.5,118.2,279.9z M128.2,280.3l-4.1-0.5c-0.6-0.1-1-0.6-1-1.2c0.1-0.6,0.6-1,1.2-1
					l4.9,0.6C129,278.9,128.6,279.6,128.2,280.3z M102.7,277.2l-4.9-0.8c-0.6-0.1-1.2,0.3-1.3,0.9c-0.1,0.6,0.3,1.2,0.9,1.3l4.9,0.8
					c0.6,0.1,1.2-0.3,1.3-0.9C103.7,277.9,103.3,277.3,102.7,277.2z M64.5,270.8c1,1.2,1.9,2.3,2.8,3.1l0.5,1.8
					c0.2,0.6-0.2,1.2-0.8,1.3c-0.6,0.2-1.2-0.2-1.3-0.8l-1.2-4.8C64.3,271.2,64.4,271,64.5,270.8z M103.6,268.9l3,2
					c0.5,0.3,0.6,1,0.3,1.5c-0.3,0.5-1,0.6-1.5,0.3l-3.6-2.5C102.4,269.9,103,269.3,103.6,268.9z M117.3,268.1l-4.8,1.4
					c-0.6,0.2-0.9,0.8-0.7,1.4c0.2,0.6,0.8,0.9,1.4,0.7l4.8-1.4c0.6-0.2,0.9-0.8,0.7-1.4C118.5,268.2,117.8,267.9,117.3,268.1z
					 M115.3,263.9c-0.1,0.1-0.5,0.3-0.6,0.3l-4.9,0.3c2.2-1.5,3.6-2.5,3.6-2.5L115.3,263.9z"/>
			</g>
		</g>
		<g transform="matrix(1,0,0,1,94.6774,115.527)">
			<path class="st21" d="M38,82.6l-10.1,0c0,0-16.6,19.1-43-2.5c0,0-6.3,0.8-13.5,1.6c-5.6,0.7-10.6,3.7-13.8,8.2
				c-3.2,4.6-4.4,10.3-3.1,15.8c2.4,10.9,4.9,21.8,4.9,21.8l32.6-9l1.4,5.9c0,0,16.2-12.3,21.5-13.3L38,82.6z"/>
			<g transform="matrix(1,0,0,1,-94.6774,-115.527)">
				<path class="st2" d="M57.5,234.9c1.3,0,2.3,1,2.3,2.3c0,1.3-1,2.3-2.3,2.3c-1.3,0-2.3-1-2.3-2.3C55.2,236,56.2,234.9,57.5,234.9
					z M72.5,238c-2.6-3-2.6-7-1.4-10c1.1-2.7,3.3-4.6,5.8-4.7c0.6,0,1.1,0.4,1.2,1c0,0.6-0.4,1.1-1,1.2c-1.7,0.1-3.1,1.5-3.9,3.4
					c-1.1,2.6-0.9,6,1.8,8.5L72.5,238z M103.9,223.2c-1.5-1.5-3.9-2-6.3-1.5c-4.3,0.9-8.7,5-7.6,11.3c0.1,0.6,0.7,1,1.3,0.9
					c0.6-0.1,1-0.7,0.9-1.3c-0.8-4.9,2.5-8,5.9-8.7c1.6-0.3,3.3-0.1,4.3,0.9c0.4,0.4,1.1,0.4,1.6,0
					C104.4,224.4,104.4,223.7,103.9,223.2z M98.5,232.1c-0.8-0.4-1.4-1.2-1.4-2.1c0-1.3,1-2.3,2.3-2.3c1.3,0,2.3,1,2.3,2.3
					c0,0,0,0.1,0,0.1C100.6,230.7,99.5,231.4,98.5,232.1z M48.6,217.1c4.3-2.1,8.7-0.5,11.2,2.2c2,2.1,2.8,4.9,2,7.2
					c-0.2,0.6-0.8,0.9-1.4,0.6c-0.6-0.2-0.9-0.8-0.6-1.4c0.6-1.6-0.2-3.5-1.5-4.9c-2.1-2.3-5.9-3.5-9.5-1.2
					C48.7,218.8,48.7,218,48.6,217.1z M112.4,204.5c2,4.4,0.3,8.7-2.4,11.2c-2.2,1.9-5,2.7-7.2,1.8c-0.6-0.2-0.8-0.9-0.6-1.4
					c0.2-0.6,0.9-0.8,1.4-0.6c1.6,0.6,3.5-0.1,5-1.4c2.2-2,3.5-5.4,1.8-8.9C111,205,111.7,204.8,112.4,204.5z M72.3,212.1
					c1.3,0,2.3,1,2.3,2.3c0,1.3-1,2.3-2.3,2.3c-1.3,0-2.3-1-2.3-2.3C70,213.1,71,212.1,72.3,212.1z M85.6,200.4
					c0.7,0.4,1.3,0.8,2,1.1c-0.7,0.7-1.2,1.8-1.5,2.9c-0.8,3.1,0.2,7.1,4.4,8.9c0.6,0.2,0.8,0.9,0.6,1.4c-0.2,0.6-0.9,0.8-1.4,0.6
					c-5.4-2.3-6.7-7.4-5.7-11.5C84.2,202.5,84.8,201.3,85.6,200.4z M98.6,208.1c1.3,0,2.3,1,2.3,2.3c0,1.3-1,2.3-2.3,2.3
					c-1.3,0-2.3-1-2.3-2.3C96.3,209.2,97.3,208.1,98.6,208.1z M120.7,212.2c-2-1.7-3.1-4-2.7-6.2c0.1-0.6,0.7-1,1.3-0.9
					c0.6,0.1,1,0.7,0.9,1.3c-0.3,1.5,0.6,3,1.9,4.1L120.7,212.2z M74.5,202.1c-1.6-1.8-4.5-2.4-7.3-1.6c-4,1.1-7.8,4.8-7.1,10.6
					c0.1,0.6,0.6,1,1.2,1c0.6-0.1,1-0.6,1-1.2c-0.5-4.5,2.4-7.4,5.5-8.2c1.9-0.5,3.9-0.3,5.1,1c0.4,0.5,1.1,0.5,1.5,0.1
					C74.9,203.3,74.9,202.6,74.5,202.1z M128.9,199.6c0.4,0.4,0.7,0.9,0.8,1.5l-2,2.5c-0.1,0-0.2,0-0.2,0c-1.3,0-2.3-1-2.3-2.3
					c0-0.4,0.1-0.8,0.3-1.1L128.9,199.6z"/>
			</g>
		</g>
		<g transform="matrix(1,0,0,1,94.6774,115.527)">
			<path class="st16" d="M27.1,83.5l0.8-0.8l-17.1-0.1c-0.2,0-0.4,0.2-0.4,0.4c0,0.2,0.2,0.4,0.4,0.4L27.1,83.5z"/>
			<path class="st16" d="M10.2,84.4l1.5-4.4c0.1-0.2,0-0.5-0.3-0.5c-0.2-0.1-0.5,0-0.5,0.3l-1.5,4.4c-0.1,0.2,0,0.5,0.3,0.5
				C9.9,84.7,10.1,84.6,10.2,84.4z"/>
			<path class="st16" d="M3.7,75.4c0,0,1.7,1.7,4,3.4c1.9,1.3,4.2,1.7,6.4,1.2c2.2-0.6,4.1-2,5.1-4.1c2.1-4.1,4.7-9.4,4.7-9.4
				c0.1-0.2,0-0.5-0.2-0.6c-0.2-0.1-0.5,0-0.6,0.2c0,0-2.6,5.3-4.7,9.4c-0.9,1.8-2.6,3.1-4.5,3.6c-2,0.5-4,0.1-5.7-1.1
				c-2.2-1.6-3.9-3.3-3.9-3.3c-0.2-0.2-0.4-0.2-0.6,0C3.5,75,3.5,75.3,3.7,75.4z"/>
			<path class="st16" d="M4.4,63.3c0,0-0.2-1.8-1.1-3.4c-0.5-1-1.3-1.8-2.4-2.1c-0.7-0.2-1.6-0.1-2.7,0.4c-2.5,1.2-3.6,4.6,1.1,9
				c0.2,0.2,0.4,0.2,0.6,0c0.2-0.2,0.2-0.4,0-0.6c-4-3.8-3.4-6.7-1.3-7.7c0.8-0.4,1.5-0.5,2.1-0.3c0.9,0.2,1.5,0.9,1.9,1.7
				c0.8,1.4,1,3.1,1,3.1c0,0.2,0.2,0.4,0.5,0.4C4.3,63.7,4.5,63.5,4.4,63.3z"/>
			<path class="st16" d="M-2,65.5l-6.7,14.2c-0.1,0.2,0,0.5,0.2,0.6c0.2,0.1,0.5,0,0.6-0.2l6.7-14.2c0.1-0.2,0-0.5-0.2-0.6
				C-1.6,65.2-1.9,65.3-2,65.5z"/>
			<path class="st16" d="M-14.2,80.9L-8,80c0.2,0,0.4-0.2,0.4-0.5c0-0.2-0.2-0.4-0.5-0.4l-7.1,0.9L-14.2,80.9z"/>
			<g transform="matrix(0.610599,-0.533726,0.648359,0.741743,-199.813,522.509)">
				<path class="st16" d="M561.9-203c0.2,0,0.3,0.1,0.4,0.2c0.2,0.2,0.3,0.5,0.3,0.8c0,0.3-0.1,0.6-0.3,0.8
					c-0.1,0.1-0.3,0.2-0.4,0.2c-0.3,0-0.5,0.2-0.5,0.4c0,0.2,0.2,0.4,0.5,0.4c0.4,0,0.8-0.1,1.1-0.4c0.4-0.3,0.6-0.9,0.6-1.5
					c0-0.6-0.3-1.2-0.6-1.5c-0.3-0.3-0.7-0.4-1.1-0.4c-0.3,0-0.5,0.2-0.5,0.4C561.3-203.1,561.6-203,561.9-203z"/>
			</g>
			<g transform="matrix(0.610599,-0.533726,0.648359,0.741743,-199.813,522.509)">
				<path class="st16" d="M561.9-200.8c-0.2,0-0.3-0.1-0.4-0.2c-0.2-0.2-0.3-0.5-0.3-0.8c0-0.3,0.1-0.6,0.3-0.8
					c0.1-0.1,0.3-0.2,0.4-0.2c0.3,0,0.5-0.2,0.5-0.4c0-0.2-0.2-0.4-0.5-0.4c-0.4,0-0.8,0.1-1.1,0.4c-0.4,0.3-0.6,0.9-0.6,1.5
					c0,0.6,0.3,1.2,0.6,1.5c0.3,0.3,0.7,0.4,1.1,0.4c0.3,0,0.5-0.2,0.5-0.4C562.4-200.6,562.1-200.8,561.9-200.8z"/>
			</g>
			<path class="st16" d="M4,62.1c0,0,5.9,3.2,11-2c0,0,2.6,6.1,9,6.5c0,0,1.6-2.2,0.5-4.4c-0.9-1.8-2.8-4.3-5.1-6.5
				c-4.3-3.8-10.7-3.9-15-0.2c-1,0.9-2,1.9-2.7,3.2C1.5,58.6,3,58,4,62.1z"/>
		</g>
		<g transform="matrix(1,0,0,1,94.6774,115.527)">
			<path class="st16" d="M14.6,111.3c0,0,26.2-31.6,41.3-49.8c6.2-7.4,16.2-10.4,25.4-7.6v0c8.6,2.6,14.4,10.6,14.4,19.6
				c-0.1,13.6-0.2,31.1-0.2,31.1c0,0.3,0.2,0.6,0.5,0.6c0.3,0,0.6-0.2,0.6-0.5c0,0,0.1-17.5,0.2-31.1c0-9.5-6.1-17.8-15.2-20.6v0
				C72,49.9,61.5,53,55,60.8C40,79,13.8,110.6,13.8,110.6c-0.2,0.2-0.2,0.6,0.1,0.8C14.1,111.6,14.4,111.5,14.6,111.3z"/>
			<path class="st16" d="M95.3,136.6v5.5c0,0-0.2,41.6-0.2,41.6c0,0.3,0.2,0.6,0.5,0.6c0.3,0,0.6-0.2,0.6-0.5l0.2-41.6v-5.5
				c0-0.3-0.2-0.5-0.5-0.5C95.6,136.1,95.3,136.3,95.3,136.6z"/>
			<path class="st16" d="M99.4,190.4c-0.4-4.6-4-6.2-4-6.2c-0.3-0.1-0.4-0.4-0.3-0.7c0.1-0.3,0.4-0.4,0.7-0.3c0,0,4.5,1.9,4.7,7.7
				c0,0.3-0.2,0.5-0.5,0.6l-25.4,1.9c-0.2,0-0.3-0.1-0.4-0.2c0,0-7.4-7.8-16.4-8.1c-0.3,0-0.5-0.3-0.5-0.5l-0.2-42.4
				c0-0.3,0.2-0.5,0.5-0.6c0.3,0,0.5,0.2,0.6,0.5l0.2,41.9c8.4,0.5,15.2,7,16.4,8.2L99.4,190.4z"/>
			<path class="st16" d="M58.2,142.1l0-5.6c0-0.3-0.2-0.5-0.6-0.5c-0.3,0-0.5,0.2-0.5,0.6l0,5.6c0,0.3,0.2,0.5,0.6,0.5
				C58,142.6,58.3,142.4,58.2,142.1z"/>
			<path class="st16" d="M58,93.5l0.1-5.6c0-0.3-0.2-0.6-0.5-0.6c-0.3,0-0.6,0.2-0.6,0.5l-0.1,5.6c0,0.3,0.2,0.6,0.5,0.6
				C57.7,94.1,58,93.8,58,93.5z"/>
			<path class="st16" d="M49.9,133.9l-16.1,27.8l0.9,0.9l16.1-28.1c0.2-0.3,0.1-0.6-0.2-0.8C50.4,133.5,50.1,133.6,49.9,133.9z"/>
		</g>
		<g transform="matrix(1,0,0,1,94.6774,115.527)">
			<path class="st16" d="M51.2,143.6l6-0.3c0.3,0,0.5-0.2,0.5-0.5c0-0.3-0.2-0.5-0.5-0.5l-6,0.3V143.6z"/>
			<path class="st16" d="M169,249.1c-2.1-2.2-5.3-3.1-5.3-3.1c-0.2,0-0.3-0.2-0.4-0.3c0,0-17-48.5-27.6-78.8
				c-4.9-14.1-18.2-23.5-33.1-23.5h-6.4c-0.3,0-0.5-0.2-0.5-0.5c0-0.3,0.2-0.5,0.5-0.5h6.4c15.4,0,29,9.7,34.1,24.2l27.5,78.5
				c1,0.3,4.6,1.7,6.4,4.4c0.1,0.2,0.1,0.4,0,0.6c-0.1,0.2-0.3,0.3-0.5,0.3l-40.8-1.8c-0.2,0-0.4-0.1-0.5-0.4l-26.7-70.2
				c-0.1-0.3,0-0.6,0.3-0.7c0.3-0.1,0.6,0,0.7,0.3l26.5,69.9L169,249.1z"/>
			<path class="st16" d="M116.5,155.1l6.4,4.2c0.3,0.2,0.6,0.1,0.8-0.2c0.2-0.3,0.1-0.6-0.2-0.8l-6.4-4.2c-0.3-0.2-0.6-0.1-0.8,0.2
				C116.2,154.6,116.3,154.9,116.5,155.1z"/>
			<path class="st16" d="M104.5,182.9c0,0-3.3,0-8.3,0c-0.3,0-0.5,0.2-0.5,0.5c0,0.3,0.2,0.5,0.6,0.5c5,0,8.3,0,8.3,0
				c0.3,0,0.5-0.2,0.5-0.5C105,183.1,104.8,182.9,104.5,182.9z"/>
			<path class="st16" d="M53,182.9c0.1,0,1.2,0,2.8,0c0.6,0,0.8,0,1.6,0c0.3,0,0.5,0.2,0.5,0.6c0,0.3-0.2,0.5-0.5,0.5
				c-0.8,0-1,0-1.6,0c-1.7,0-3.1,0-3.1,0l0-1.1c0,0,0.2,0,0.2,0C52.9,182.9,52.9,182.9,53,182.9z"/>
		</g>
		<g transform="matrix(1,0,0,1,94.6774,115.527)">
			<path class="st22" d="M46.3,130.7l12.7,4.9c0.8,0.3,1.7,0.1,2.3-0.6c0.2,0.1,0.4,0.2,0.7,0.3l1.1-0.1l-0.9,1.9
				c-0.5,0.9-1.6,1.3-2.6,0.9l-14.7-6.6L46.3,130.7z M74.3,109.8l4.5-8.7c0,0,0,1.9,0,2.7c0,0.3-0.1,0.5-0.2,0.7l-2.8,5.6
				C75.4,109.9,75,109.7,74.3,109.8z"/>
			<path class="st6" d="M49.2,106.6c3.3-5.6,6.3-10.7,7.6-13c0.5-0.8,1.4-1.3,2.4-1.1c6.5,1.2,15,5,18.4,6.5
				c0.4,0.2,0.7,0.4,0.9,0.7c0.4,0.4,0.5,1.1,0.2,1.6l-4.3,8.5c-0.8,0-1.8,0.3-3.2,1.1l-10.4,21.7c0,0-0.6,1.8,0.5,2.5
				c-0.6,0.7-1.6,0.9-2.5,0.6l-12.6-5l1.7-0.8l4.9-22.6L49.2,106.6z"/>
			<g transform="matrix(0.868545,0.432243,-0.463288,0.930927,499.326,-333.163)">
				<path class="st2" d="M-189.9,556.1c0-0.4-0.2-0.8-0.5-1c-0.3-0.3-0.7-0.4-1.1-0.4c-0.1,0-0.1,0-0.2,0
					c-4.1,0.4-12.1,0.9-17.5,1.9c-1,0.2-1.8,1-1.9,2c-0.4,6-1.6,26.4-2,32.6c0,0.4,0.2,0.9,0.5,1.2c0.3,0.3,0.8,0.5,1.3,0.4
					c4.2-0.3,14.3-1.1,18.7-1.5c1.2-0.1,2.1-1,2.1-2.1C-190.4,582.8-190,562-189.9,556.1z"/>
			</g>
			<g transform="matrix(0.940787,0.339,-0.339,0.940787,308.249,-247.407)">
				<path class="st22" d="M-105.3,404.7c0-0.2-0.2-0.4-0.4-0.4h-7.3c-0.2,0-0.4,0.2-0.4,0.4c0,0.2,0.2,0.4,0.4,0.4h7.3
					C-105.5,405.1-105.3,404.9-105.3,404.7z"/>
			</g>
			<path class="st16" d="M66.3,117.3l-0.4,0.8l-10.2-4l8.3-2.1c2.4-1.5,0.1-3.8,0.1-3.8c-1.5,0.4-9-0.4-11.5-0.7l5.2-9.5l15,5.8
				l-3.7,7.7c-1.6,0.4-5.5,1.7-4.7,4.5L66.3,117.3z"/>
			<g transform="matrix(0.911149,0.412078,-0.412078,0.911149,469.546,-287.113)">
				<path class="st8" d="M-205.4,539.1c0.3-0.7,1-0.7,1.4-0.3c0.3,0.3,0.3,1,0,1.7c-0.2,0.5-0.9,1-1.4,1.4c-0.5-0.3-1.1-0.9-1.4-1.4
					c-0.3-0.7-0.3-1.4,0-1.7C-206.5,538.4-205.8,538.4-205.4,539.1z"/>
			</g>
			<g transform="matrix(1.03092,0.395189,-0.450064,1.17407,338.539,-504.992)">
				<path class="st16" d="M-27.2,525.6l-14.4,0l-0.3,1.6l14.5,0L-27.2,525.6z"/>
			</g>
			<path class="st23" d="M61.8,126l-4.1,8.3l-10.9-4.3l2.9-1.3c4.1-2.9,1.5-4,1.5-4c1.6-0.4,2.4-1.4,2.7-2.1L61.8,126z"/>
		</g>
		<path class="st8" d="M175.2,205.5l-3.9,3.9l1.7,1.7l4.2-2.8L175.2,205.5z M167.2,207.3l1.8,1.2l4-5.3l-3.4-1.6L167.2,207.3z
			 M161.2,205.7l2.5,0.5l1.5-5.3l-3.4-0.6L161.2,205.7z"/>
		<g transform="matrix(1,0,0,1,94.6774,115.527)">
			<path class="st16" d="M-11.6,100.1l4.1,24.4c0,0.3,0.3-0.2,0.6-0.2c0.3,0,0.5-0.3,0.5-0.6l-4-23.8c0-0.3-0.3-0.5-0.6-0.5
				C-11.4,99.5-11.6,99.8-11.6,100.1z"/>
			<path class="st16" d="M48.3,106c0.4,0.1,10.7,1.9,15.6,1.7c0.6,0,1.3,0.4,1.6,1.1c0.4,0.7,0.5,1.8-0.4,2.8
				c-0.7,0.9-2.1,1.8-4.7,2.5c-3.2,0.8-6.6,1.9-15.4,0.6c-0.3,0-0.5-0.3-0.5-0.6c0-0.3,0.3-0.5,0.6-0.5c8.5,1.3,11.9,0.2,15-0.6
				c2-0.5,3.2-1.1,3.9-1.8c0.6-0.5,0.7-1.1,0.7-1.6c-0.1-0.3-0.2-0.6-0.4-0.8c-0.1-0.1-0.2-0.1-0.3-0.1c-5,0.2-15.8-1.7-15.8-1.7
				l0,0c-13-3.1-25.7,0.4-36.3,5.8C-4,120.9-15,133.1-15,133.1c-0.2,0.2-0.6,0.2-0.8,0s-0.2-0.6,0-0.8c0,0,11.1-12.3,27.2-20.5
				C22.1,106.4,35,102.9,48.3,106z"/>
			<path class="st16" d="M53.6,115.4c0,0,0.3,0.3,0.6,0.8c0.1,0.3,0.2,0.6,0.1,0.9c-0.1,0.4-0.5,0.8-1.3,1.3
				c-1.3,0.7-3.6,1.3-7.5,1.6c-0.3,0-0.5,0.3-0.5,0.6c0,0.3,0.3,0.5,0.6,0.5c4.1-0.3,6.6-1,8-1.7c1.1-0.6,1.6-1.2,1.8-1.8
				c0.2-0.6,0.1-1.3-0.1-1.8c-0.3-0.7-0.8-1.2-0.8-1.2c-0.2-0.2-0.6-0.2-0.8,0C53.4,114.8,53.4,115.2,53.6,115.4L53.6,115.4z"/>
			<path class="st16" d="M52.9,119.5c0,0,1.1,1.1,0.8,2.3c-0.1,0.6-0.6,1.2-1.6,1.8c-1.2,0.6-3.1,1.2-6.1,1.5
				c-0.3,0-0.5,0.3-0.5,0.6c0,0.3,0.3,0.5,0.6,0.5c2.5-0.3,4.3-0.7,5.6-1.2c2.3-0.9,3-2.1,3.1-3.1c0.2-1.6-1.1-3-1.1-3
				c-0.2-0.2-0.6-0.2-0.8,0C52.7,118.9,52.7,119.3,52.9,119.5z"/>
			<path class="st16" d="M45.3,130.4c3.9-2,5.6-3.3,6.2-4.2c0.1-0.2,0.2-0.4,0.2-0.5c0-0.1-0.1-0.2-0.2-0.2
				c-0.2-0.1-0.4-0.2-0.4-0.2l0,0c-0.3-0.1-0.5-0.4-0.4-0.7c0.1-0.3,0.4-0.5,0.7-0.4c0,0,0.4,0.1,0.7,0.3c0.3,0.2,0.5,0.5,0.7,0.8
				c0.1,0.4,0.1,0.8-0.3,1.5c-0.6,1-2.4,2.4-6.6,4.6c0,0,0,0,0,0c0,0-21.5,9.4-42.4,26.4c0,0,0,0,0,0c0,0-12.5,9.1-24.2,4.7
				c-5-1.9-9.9-6.3-13.6-14.9c0,0,0,0,0,0l-6.2-20l1.1-0.3c0,0,6,19.4,6.1,19.9c3.5,8.3,8.2,12.5,13,14.3c11,4.2,22.8-4.3,23.2-4.6
				C23.4,140,44.6,130.6,45.3,130.4z"/>
		</g>
		<g transform="matrix(1,0,0,1,94.6774,115.527)">
			<path class="st16" d="M96.2,91.2c0,0,7.3,2.9,13.6,8.5c6.2,5.5,11.4,13.7,7.4,24.3c-1.4,3.7-7.6,17.8-50.4,9.8
				c-0.3-0.1-0.6,0.1-0.6,0.4c-0.1,0.3,0.1,0.6,0.4,0.6c43.9,8.2,50.2-6.7,51.7-10.5c4.2-11.1-1.2-19.7-7.7-25.5
				c-6.4-5.7-13.9-8.7-13.9-8.7c-0.3-0.1-0.6,0-0.7,0.3C95.8,90.8,96,91.1,96.2,91.2z"/>
			<path class="st16" d="M78.7,104.6l22.6,0.9c0.3,0,0.6-0.2,0.6-0.5c0-0.3-0.2-0.6-0.5-0.6l-22.6-0.9c-0.3,0-0.6,0.2-0.6,0.5
				C78.2,104.3,78.4,104.6,78.7,104.6z"/>
			<g transform="matrix(-2.63809,-6.87137,-16.2623,6.24351,18297.4,2261.17)">
				<path class="st16" d="M1160.2,932.4c0-0.1-0.1-0.1-0.3-0.1c-0.1,0-0.3,0-0.3,0.1v0.5c0,0,0,0-0.1,0c0,0-0.1,0-0.1,0v-0.5
					c0-0.1,0.2-0.2,0.4-0.2s0.4,0.1,0.4,0.2C1160.3,932.4,1160.3,932.4,1160.2,932.4C1160.2,932.4,1160.2,932.4,1160.2,932.4z"/>
			</g>
			<g transform="matrix(-2.63809,-6.87137,-16.2623,6.24351,18297.4,2261.17)">
				<path class="st16" d="M1159.7,932.9c0,0.1,0.1,0.1,0.3,0.1c0.1,0,0.3,0,0.3-0.1v-0.5c0,0,0,0,0.1,0c0,0,0.1,0,0.1,0v0.5
					c0,0.1-0.2,0.2-0.4,0.2s-0.4-0.1-0.4-0.2C1159.5,932.9,1159.6,932.8,1159.7,932.9C1159.6,932.8,1159.7,932.9,1159.7,932.9z"/>
			</g>
			<g transform="matrix(-2.63809,-6.87137,-16.2623,6.24351,18290.4,2293.76)">
				<path class="st16" d="M1163.3,931.6c0-0.1-0.1-0.1-0.3-0.1c-0.1,0-0.3,0-0.3,0.1v0.5c0,0,0,0-0.1,0s-0.1,0-0.1,0v-0.5
					c0-0.1,0.2-0.2,0.4-0.2s0.4,0.1,0.4,0.2C1163.4,931.6,1163.4,931.6,1163.3,931.6C1163.3,931.6,1163.3,931.6,1163.3,931.6z"/>
			</g>
			<g transform="matrix(-2.63809,-6.87137,-16.2623,6.24351,18290.4,2293.76)">
				<path class="st16" d="M1162.8,932c0,0.1,0.1,0.1,0.3,0.1c0.1,0,0.3,0,0.3-0.1v-0.5c0,0,0,0,0.1,0c0,0,0.1,0,0.1,0v0.5
					c0,0.1-0.2,0.2-0.4,0.2s-0.4-0.1-0.4-0.2C1162.6,932,1162.7,932,1162.8,932C1162.7,932,1162.8,932,1162.8,932z"/>
			</g>
			<g transform="matrix(-2.63809,-6.87137,-16.2623,6.24351,18283.5,2326.34)">
				<path class="st16" d="M1166.1,930.6c-0.1,0-0.3,0-0.3,0.1v0.5c0,0,0,0-0.1,0c0,0-0.1,0-0.1,0v-0.5
					C1165.7,930.6,1165.9,930.5,1166.1,930.6C1166.2,930.5,1166.2,930.6,1166.1,930.6C1166.2,930.6,1166.2,930.6,1166.1,930.6z"/>
			</g>
			<g transform="matrix(-2.63809,-6.87137,-16.2623,6.24351,18283.5,2326.34)">
				<path class="st16" d="M1165.9,931.2c0,0.1,0.1,0.1,0.3,0.1c0.1,0,0.3,0,0.3-0.1v-0.5c0-0.1-0.1-0.1-0.3-0.1c0,0-0.1,0-0.1,0
					s0,0,0.1,0c0.2,0,0.4,0.1,0.4,0.2v0.5c0,0.1-0.2,0.2-0.4,0.2s-0.4-0.1-0.4-0.2C1165.7,931.2,1165.8,931.1,1165.9,931.2
					C1165.8,931.1,1165.9,931.2,1165.9,931.2z"/>
			</g>
			<g transform="matrix(-2.63809,-6.87137,-16.2623,6.24351,18276.5,2358.93)">
				<path class="st16" d="M1169.2,929.7c-0.1,0-0.3,0-0.3,0.1v0.5c0,0,0,0-0.1,0s-0.1,0-0.1,0v-0.5
					C1168.8,929.8,1169,929.7,1169.2,929.7C1169.3,929.7,1169.3,929.7,1169.2,929.7C1169.3,929.7,1169.3,929.7,1169.2,929.7z"/>
			</g>
			<g transform="matrix(-2.63809,-6.87137,-16.2623,6.24351,18276.5,2358.93)">
				<path class="st16" d="M1169,930.3c0,0.1,0.1,0.1,0.3,0.1c0.1,0,0.3,0,0.3-0.1v-0.5c0-0.1-0.1-0.1-0.3-0.1c0,0-0.1,0-0.1,0
					c0,0,0,0,0.1,0c0.2,0,0.4,0.1,0.4,0.2v0.5c0,0.1-0.2,0.2-0.4,0.2s-0.4-0.1-0.4-0.2C1168.8,930.3,1168.9,930.3,1169,930.3
					C1168.9,930.3,1169,930.3,1169,930.3z"/>
			</g>
		</g>
		<g transform="matrix(1,0,0,1,94.6774,115.527)">
			<path class="st16" d="M70.1,62.5l6.6,4.3c0.3,0.2,0.6,0.1,0.8-0.2c0.2-0.3,0.1-0.6-0.2-0.8l-6.6-4.3c-0.3-0.2-0.6-0.1-0.8,0.2
				C69.8,62,69.9,62.3,70.1,62.5z"/>
		</g>
	</g>
	<g id="HAND-BUBBLE" transform="matrix(1,0,0,1,-75.6842,124.129)" serif:id="HAND BUBBLE">
		<g>
			<g transform="matrix(0.965361,0,0,0.938474,-18.5056,27.9927)">
				<path class="st16" d="M38.6-19.1c-0.3,0.2-0.3,0.2-0.7,0.3C35-17.6,31.8-17,28.4-17C15.4-17,4.9-26.1,4.9-37.5
					s10.5-20.5,23.5-20.5c12.9,0,23.5,9.1,23.5,20.5c0,5.6-2.6,10.8-6.9,14.5c-0.3,0.3-0.3,0.3-0.6,0.5c-0.3,0.2-0.3,0.6-0.1,0.8
					c0.2,0.3,0.5,0.3,0.8,0.1c0.4-0.3,0.3-0.3,0.7-0.6C50.2-26,53-31.5,53-37.5c0-11.9-11-21.6-24.6-21.6
					c-13.6,0-24.6,9.7-24.6,21.6s11,21.6,24.6,21.6c3.5,0,6.9-0.7,10-1.9c0.4-0.1,0.4-0.2,0.7-0.3c0.3-0.1,0.4-0.5,0.3-0.8
					C39.2-19.1,38.9-19.2,38.6-19.1z"/>
			</g>
			<path class="st16" d="M26.2,16.8l-2.1-9.2c-0.1-0.3,0.1-0.6,0.4-0.7c0.3-0.1,0.6,0.1,0.7,0.4l2.6,11.1c0.1,0.2-0.1,0.5-0.3,0.6
				c-0.2,0.1-0.5,0.1-0.7-0.1L18.7,11c-0.2-0.2-0.2-0.6,0-0.8c0.2-0.2,0.6-0.2,0.8,0L26.2,16.8z"/>
		</g>
		<g transform="matrix(1.12334,-0.119809,0.119809,1.12334,-163.301,31.5385)">
			<path class="st24" d="M145.4-10.9c0,0,1.1-10.2,1.6-14.4c0.1-0.6,0.4-1.1,0.8-1.5c0.5-0.4,1.1-0.5,1.7-0.4c0.1,0,0.3,0,0.4,0.1
				c0,0,0.2-2.5,2.2-2.3c0,0,1.8,0.1,1.8,2c0,0,0.1-1.7,2.2-1.5c0,0,1.5,0.2,1.6,1.9c0,0,0.5-1.2,2-1.1c0,0,1.7,0,1.5,2.5
				c0,0,0.5-2,2.3-1.6c0,0,1.1,0,1,3.3c-0.4,4.8-0.5,9.4-0.9,14.7C163.7-9.4,150.1-9,145.4-10.9"/>
			<g>
				<path class="st16" d="M150-27.8l-0.1,0.6c0,0,0.1,0,0.2,0.1c0.9,0.3,2,1,3,1.6c1.1,0.7,2,1.6,1.7,2.8c-0.1,0.5-0.4,0.7-1.1,0.9
					c-0.8,0.2-2.1,0.2-4,0c-0.2,0-0.5,0.1-0.5,0.4c0,0.2,0.1,0.5,0.4,0.5c2.1,0.2,3.4,0.2,4.3,0c1.1-0.3,1.5-0.8,1.7-1.6
					c0.4-1.5-0.6-2.8-2.1-3.7c-1.1-0.7-2.4-1.2-3.3-1.5C150.1-27.7,150-27.8,150-27.8z"/>
				<g>
					<path class="st16" d="M156.2-15.8c-0.5-1.1-1.3-2-2.1-2.9c-0.2-0.2-0.2-0.5,0-0.6c0.2-0.2,0.5-0.2,0.6,0c0.8,0.9,1.7,1.9,2.3,3
						c0.8-0.3,1.6-0.5,2.3-0.4c0.2,0,0.4,0.3,0.4,0.5c0,0.2-0.3,0.4-0.5,0.4c-0.6-0.1-1.2,0-1.9,0.3c0,0.1,0.1,0.2,0.1,0.2
						c0.2,0.7,0.4,1.6-0.1,2.3c-0.3,0.4-0.6,0.5-0.9,0.5c-0.3,0-0.6-0.1-0.8-0.3c-0.3-0.3-0.5-0.7-0.5-1.1
						C155.1-14.7,155.6-15.3,156.2-15.8L156.2-15.8z M156.6-15c-0.3,0.3-0.5,0.7-0.5,1.1c0,0.2,0.1,0.3,0.2,0.4
						c0.1,0.1,0.1,0.1,0.2,0.1c0.1,0,0.1-0.1,0.2-0.2c0.1-0.2,0.1-0.4,0.1-0.7C156.7-14.4,156.7-14.7,156.6-15L156.6-15z"/>
					<g transform="matrix(1.07054,0.104438,-0.164729,2.01808,-77.5344,-352.06)">
						<path class="st16" d="M235.7,151.8c0,0.6,0.8,1.1,2,1.1c1.2,0,2.2-0.5,2.2-1.1v-0.3c0-0.1-0.1-0.1-0.4-0.1
							c-0.2,0-0.4,0-0.4,0.1v0.3c0,0.4-0.6,0.7-1.3,0.7c-0.7,0-1.2-0.3-1.2-0.7c0-0.1-0.2-0.2-0.4-0.2
							C235.9,151.6,235.7,151.7,235.7,151.8z"/>
					</g>
					<g transform="matrix(1.07054,0.104438,-0.173177,2.12157,-54.4722,-382.975)">
						<path class="st16" d="M220.6,156.1c-0.3,0.1-0.5,0.3-0.6,0.6c0-0.1-0.1-0.3-0.2-0.4c0,0,0.1,0.9,0.1,1.3
							c0,0.1,0.2,0.2,0.4,0.2c0.2,0,0.4-0.1,0.4-0.2C220.8,157.2,220.6,156.1,220.6,156.1z"/>
					</g>
					<g transform="matrix(1.07054,0.104438,-0.173177,2.12157,-54.4722,-382.975)">
						<path class="st16" d="M219.9,159.6c0,0.1,0,0.2,0,0.4c0,0.6,1,1.1,2.1,1.1c0.6,0,1.1-0.1,1.5-0.3c0.4-0.2,0.7-0.5,0.7-0.8
							c0,0,0-3.7,0-3.7c-0.3,0.1-0.5,0.2-0.7,0.4c0-0.2-0.1-0.2-0.2-0.3l0,3.5c0,0.2-0.2,0.4-0.4,0.5c-0.2,0.1-0.6,0.2-0.9,0.2
							c-0.7,0-1.3-0.3-1.3-0.7c0-0.1,0-0.2,0-0.4c0-0.1-0.2,0-0.4,0C220.1,159.6,219.9,159.5,219.9,159.6z"/>
					</g>
					<g transform="matrix(1.07054,0.104438,-0.16342,2.00204,-37.217,-342.749)">
						<path class="st16" d="M204.4,150.3c0,0.6,1,1.2,2.1,1.2c1.2,0,2.2-0.5,2.2-1.2v-3.6c-0.4,0.1-0.6,0.4-0.8,0.7l-0.1-0.4v3.3
							c0,0.4-0.6,0.7-1.3,0.7c-0.7,0-1.3-0.3-1.3-0.7c0-0.1-0.2-0.2-0.4-0.2C204.6,150.1,204.4,150.2,204.4,150.3z"/>
					</g>
					<g transform="matrix(0.849785,0.082902,-0.150444,1.84308,112.67,-279.009)">
						<path class="st16" d="M80.9,136.8c0,0.3,0.3,0.6,0.9,0.8c0.5,0.2,1.2,0.3,1.8,0.3c1.1,0,1.5-0.5,1.5-0.5l-0.1-0.8
							c0,0-0.6,0.8-1.5,0.8c-0.3,0-0.7-0.1-1-0.2c-0.3-0.1-0.5-0.3-0.5-0.5c0-0.1-0.2-0.2-0.5-0.2C81.1,136.5,80.9,136.6,80.9,136.8
							z"/>
					</g>
				</g>
			</g>
		</g>
	</g>
	<g transform="matrix(-0.663918,0,0,0.663918,2637.91,1056.71)">
		<g id="HASHTAG-BUBBLE" transform="matrix(0.965361,0,0,0.938474,-18.4846,18.9686)" serif:id="HASHTAG BUBBLE">
			<path class="st16" d="M3710-1275.7c-0.4,0.2-0.4,0.2-0.8,0.3c-3.1,1.2-6.5,1.9-10.1,1.9c-13.8,0-24.9-9.9-24.9-21.9
				c0-12.1,11.1-21.9,24.9-21.9c13.8,0,24.9,9.9,24.9,21.9c0,6.1-2.8,11.6-7.4,15.6c-0.3,0.3-0.3,0.3-0.7,0.6
				c-0.4,0.3-0.9,0.2-1.2-0.2c-0.3-0.4-0.2-0.9,0.2-1.2c0.3-0.2,0.3-0.3,0.6-0.5c4.2-3.6,6.8-8.7,6.8-14.2
				c0-11.2-10.4-20.2-23.2-20.2c-12.8,0-23.2,9-23.2,20.2s10.4,20.2,23.2,20.2c3.4,0,6.6-0.6,9.5-1.8c0.3-0.1,0.3-0.2,0.7-0.3
				c0.4-0.2,0.9,0,1.1,0.5C3710.7-1276.4,3710.5-1275.9,3710-1275.7z"/>
		</g>
		<g transform="matrix(-1.82904,0,0,1.91361,4519.22,-1872.75)">
			<path class="st16" d="M523.1,348.6l4,10.2c0.1,0.3,0.5,0.4,0.8,0.3c0.3-0.1,0.5-0.4,0.3-0.7l-4-10.2c-0.1-0.3-0.5-0.4-0.8-0.3
				C523.2,348,523,348.3,523.1,348.6z"/>
		</g>
		<g transform="matrix(-1.82904,0,0,1.91361,4474.41,-1890.33)">
			<path class="st16" d="M503.1,356.1l4,10.2c0.1,0.3,0.5,0.4,0.8,0.3c0.3-0.1,0.5-0.4,0.3-0.7l-4-10.2c-0.1-0.3-0.5-0.4-0.8-0.3
				C503.2,355.5,503,355.8,503.1,356.1z"/>
		</g>
		<g transform="matrix(-0.0908262,-1.91125,-1.82678,0.0950258,2863.75,4426.62)">
			<path class="st16" d="M2916.1-528.1l4,10.2c0.1,0.3,0.5,0.5,0.7,0.3s0.4-0.5,0.3-0.8l-4-10.2c-0.1-0.3-0.5-0.5-0.7-0.3
				C2916.2-528.8,2916-528.4,2916.1-528.1z"/>
		</g>
		<g transform="matrix(0.105007,1.91045,1.82602,-0.109863,-1898.19,-3643.44)">
			<path class="st16" d="M1446.3,2896.5l4,10.2c0.1,0.3,0.5,0.5,0.7,0.3s0.4-0.5,0.3-0.8l-4-10.2c-0.1-0.3-0.5-0.5-0.7-0.3
				C1446.4,2895.9,1446.2,2896.2,1446.3,2896.5z"/>
		</g>
		<g transform="matrix(1,0,0,1,0.0209705,-9.02408)">
			<path class="st16" d="M3569.4-1164.7l-6.1-5.9c-0.3-0.3-0.9-0.3-1.2,0c-0.3,0.3-0.3,0.9,0,1.2l8.1,7.9c0.3,0.3,0.7,0.3,1,0.1
				c0.3-0.2,0.5-0.5,0.4-0.9l-2.6-11.1c-0.1-0.4-0.5-0.7-1-0.6c-0.4,0.1-0.7,0.5-0.6,1L3569.4-1164.7z"/>
		</g>
	</g>
</g>
</svg>
