<?xml version="1.0" encoding="utf-8"?>
<!-- Generator: Adobe Illustrator 25.0.1, SVG Export Plug-In . SVG Version: 6.00 Build 0)  -->
<svg version="1.1" id="Layer_1" xmlns:serif="http://www.serif.com/"
	 xmlns="http://www.w3.org/2000/svg" xmlns:xlink="http://www.w3.org/1999/xlink" x="0px" y="0px" viewBox="0 0 302.2 246"
	 style="enable-background:new 0 0 302.2 246;" xml:space="preserve">
<style type="text/css">
	.st0{fill-rule:evenodd;clip-rule:evenodd;fill:#FFFFFF;}
	.st1{fill:none;stroke:#A8A3B6;stroke-width:0.4466;stroke-linecap:round;stroke-linejoin:round;stroke-miterlimit:10;}
	.st2{fill-rule:evenodd;clip-rule:evenodd;fill:#CECBD6;}
	.st3{fill-rule:evenodd;clip-rule:evenodd;fill:#A8A3B6;}
	.st4{fill-rule:evenodd;clip-rule:evenodd;fill:#B6B2C2;}
	.st5{fill-rule:evenodd;clip-rule:evenodd;fill:#6E6686;}
	.st6{fill-rule:evenodd;clip-rule:evenodd;fill:#60577A;}
	.st7{fill-rule:evenodd;clip-rule:evenodd;fill:#9892A9;}
	.st8{fill-rule:evenodd;clip-rule:evenodd;fill:#867F9A;}
	.st9{fill-rule:evenodd;clip-rule:evenodd;fill:#736B8A;}
	.st10{fill-rule:evenodd;clip-rule:evenodd;fill:#938DA5;}
	.st11{fill-rule:evenodd;clip-rule:evenodd;fill:#D6D3DC;}
	.st12{fill-rule:evenodd;clip-rule:evenodd;fill:#CBC8D3;}
	.st13{fill-rule:evenodd;clip-rule:evenodd;fill:#A49FB3;}
	.st14{fill-rule:evenodd;clip-rule:evenodd;fill:#6E6686;fill-opacity:0.98;}
	.st15{fill-rule:evenodd;clip-rule:evenodd;fill:#9690A7;}
</style>
<g transform="matrix(1,0,0,1,93.1855,-96.6621)">
	<g id="LAPTOP" transform="matrix(1,0,0,1,94.6774,115.527)">
		<path class="st0" d="M-15.5,174.8L31,192.7l32.3-3.3l25-27.2l-49.7-12.5L21,170.2l-36.5,2.6V174.8L-15.5,174.8z"/>
		<g>
			<path class="st1" d="M41.7,152.3l-1.6,1.9"/>
			<g transform="matrix(1,0,0,1,5.07833,2.42068)">
				<path class="st1" d="M37.4,150.2l-1.6,1.9"/>
			</g>
			<g transform="matrix(0.424399,0.905475,-0.905475,0.424399,2321.78,-938.629)">
				<path class="st1" d="M21.5,2526.9l-1.6,1.9"/>
			</g>
			<g transform="matrix(0.419715,0.907656,-0.907656,0.419715,2330.84,-932.074)">
				<path class="st1" d="M25.2,2532.8l-1.6,1.9"/>
			</g>
		</g>
		<path class="st2" d="M85.8,156.1l2.5,1.4l5.1-6.2l-3.6-1.7L85.8,156.1z"/>
		<path class="st2" d="M91.5,164.4l-0.8,1.7l5.7,2.8l1.4-2.8L91.5,164.4z"/>
		<path class="st2" d="M90.6,159.6l1,2l6.2-1.6l-1.2-3.6L90.6,159.6z"/>
		<g transform="matrix(1,0,0,1,-77.9325,113.884)">
			<path class="st1" d="M107.8,55.8l-1.6,1.9"/>
			<g transform="matrix(1,0,0,1,5.07833,2.42068)">
				<path class="st1" d="M103.5,53.7l-1.6,1.9"/>
			</g>
			<g transform="matrix(0.329454,0.944172,-0.944172,0.329454,2554.1,-882.922)">
				<path class="st1" d="M81.8,2618.4l-1.6,1.9"/>
			</g>
			<g transform="matrix(0.338816,0.940853,-0.940853,0.338816,2529.3,-884.227)">
				<path class="st1" d="M66,2596.7l-1.6,1.9"/>
			</g>
		</g>
		<g transform="matrix(-0.998299,0.0582993,-0.0582993,-0.998299,3961.64,2752.98)">
			<path class="st1" d="M3750.1,2798l-1.6,1.9"/>
			<g transform="matrix(1,0,0,1,5.07833,2.42068)">
				<path class="st1" d="M3745.8,2795.9l-1.6,1.9"/>
			</g>
			<g transform="matrix(0.308858,0.951108,-0.951108,0.308858,2600.4,-867.712)">
				<path class="st1" d="M3843.1,38.3l-1.6,1.9"/>
			</g>
			<g transform="matrix(0.304096,0.952641,-0.952641,0.304096,2608.69,-859.5)">
				<path class="st1" d="M3833.5,25.1l-1.6,1.9"/>
			</g>
		</g>
		<g transform="matrix(0.999998,-0.00181567,0.00181567,0.999998,49.7616,168.749)">
			<path class="st1" d="M-0.1,8.8l-1.6,1.9"/>
			<g transform="matrix(1,0,0,1,5.07833,2.42068)">
				<path class="st1" d="M-4.4,6.7L-6,8.6"/>
			</g>
			<g transform="matrix(0.338258,0.941054,-0.941054,0.338258,2533.2,-889.431)">
				<path class="st1" d="M-10.3,2687.1l-1.6,1.9"/>
			</g>
			<g transform="matrix(0.344401,0.938823,-0.938823,0.344401,2515.58,-888.564)">
				<path class="st1" d="M-22.1,2670.8l-1.6,1.9"/>
			</g>
		</g>
		<g>
			<path class="st3" d="M33.9,184.2l-27.1-9.1l-7.6,0.9l30.4,9.9L33.9,184.2z"/>
			<path class="st3" d="M20.8,169.8l17.4-20.2c0.2-0.2,0.4-0.2,0.7-0.1c0.2,0.2,0.2,0.4,0.1,0.7l-17.6,20.3
				c-0.1,0.1-0.2,0.2-0.3,0.2l-36.1,2.6v1.6l46.9,17.4l31.1-3.1c0.2,0,0.5,0.2,0.5,0.4s-0.2,0.5-0.4,0.5l-31.3,3.1
				c-0.1,0-0.2,0-0.2,0l-47.3-17.5c-0.2-0.1-0.3-0.2-0.3-0.4V173c0-0.2,0.2-0.4,0.4-0.4L20.8,169.8z"/>
			<path class="st3" d="M87.4,162.4l-48.9-12.1c-0.2-0.1-0.4-0.3-0.3-0.6c0.1-0.2,0.3-0.4,0.6-0.3l49.7,12.2c0.2,0,0.2,0.2,0.3,0.3
				c0.1,0.2,0,0.3-0.1,0.4l-25.2,27.5c-0.2,0.2-0.5,0.2-0.7,0s-0.2-0.5,0-0.7L87.4,162.4z"/>
			<path class="st3" d="M-15.5,172.8l47.3,16.8l29.8-2.9l24.6-25.1l2.2,0.5L63,189.6l-31.3,3.1l-47.3-17.6
				C-15.5,175.1-15.5,172.8-15.5,172.8z"/>
			<path class="st3" d="M20.8,170.6l41.9,16.6c0.2,0.1,0.5,0,0.6-0.2s0-0.5-0.2-0.6l-41.9-16.6c-0.2-0.1-0.5,0-0.6,0.2
				C20.5,170.3,20.7,170.5,20.8,170.6z"/>
			<g transform="matrix(1.25406,0.348972,-0.32539,1.16932,-61.2696,-908.476)">
				<path class="st3" d="M319.9,819.2l-22.3,0.2l-0.8,1.5l22.1,0.1L319.9,819.2z"/>
			</g>
			<g transform="matrix(0.624303,0.268739,-0.479899,1.11485,1285.78,-566.042)">
				<path class="st3" d="M-1242.1,965.6l-22.1,0.5l-0.8,1.6l22.5-0.3L-1242.1,965.6z"/>
			</g>
			<g transform="matrix(0.624303,0.268739,-0.479899,1.11485,1413.11,-515.969)">
				<path class="st3" d="M-1420.6,968.5l-14.6,0.3l-0.7,1.8l15-0.5L-1420.6,968.5z"/>
			</g>
			<g transform="matrix(0.401682,0.172909,-0.479899,1.11485,1877.15,-338.846)">
				<path class="st3" d="M-3341.3,983l-13.8,0.2l-0.3,1.7l13.2-0.1L-3341.3,983z"/>
			</g>
			<g>
				<g transform="matrix(1,0,0,1,-8.92637,-0.679368)">
					<path class="st3" d="M44.2,167l25.7,9.5c0.2,0.1,0.2,0.2,0.2,0.4c-0.1,0.2-0.2,0.2-0.4,0.2l-26.1-9.7c-0.1,0-0.2-0.1-0.2-0.2
						s0-0.2,0.1-0.2l7.5-9.2c0.1-0.2,0.3-0.2,0.4,0c0.2,0.1,0.2,0.3,0,0.4L44.2,167z"/>
				</g>
				<g transform="matrix(1,0,0,1,-8.92637,-0.679368)">
					<path class="st3" d="M51.8,157.8l-0.3,0.4c-0.1,0.2-0.3,0.2-0.4,0.1c-0.2-0.1-0.2-0.3-0.1-0.4l0.4-0.6c0.1-0.1,0.2-0.2,0.3-0.1
						l27.1,8.2c0.1,0,0.2,0.1,0.2,0.2s0,0.2-0.1,0.2l-9,11.1c-0.1,0.2-0.3,0.2-0.4,0.1c-0.2-0.1-0.2-0.3-0.1-0.4l8.7-10.7
						L51.8,157.8z"/>
				</g>
				<g transform="matrix(0.467817,0.105501,-0.105501,0.467817,1745.49,1211)">
					<g transform="matrix(0.997228,0.0744128,-0.0744128,0.997228,105.209,-42.521)">
						<path class="st4" d="M-4115-995c0,0,1.7-7.8,2.4-11.3c0.2-1.2,1.4-2,2.7-1.7l0,0c0,0,0.2-2.1,1.8-1.9c0,0,1.5,0.1,1.5,1.7
							c0,0,0.1-1.4,1.8-1.2c0,0,1.2,0.2,1.3,1.6c0,0,0.4-1,1.7-0.9c0,0,1.4,0,1.2,2.1c0,0,0.7-1.7,2.1-1.4c0,0,1.2,0,1.2,2.7
							c-0.3,4-0.9,7.3-1.2,12.4"/>
						<g transform="matrix(1.99436,-0.608826,0.608826,1.99436,-4579.34,-1475)">
							<path class="st5" d="M149.2,282.3c-0.2-0.1-0.3-0.1-0.4-0.2c-0.1,0-0.2-0.2-0.1-0.2c0-0.1,0.2-0.2,0.2-0.1
								c0.7,0.3,1.6,0.6,1.9,0.6c0.2,0,0.4-0.1,0.5-0.2c0.2-0.4,0-0.8-0.3-1.2c-0.3-0.3-0.7-0.7-1-1h-0.1l0.2-0.2c0,0,0,0,0.1,0
								c0.3,0.2,0.7,0.6,1.1,1c0,0,0,0.1,0.1,0.1c0.1-0.3,0.2-0.8,0.2-0.8c0,0.1,0,0.2,0,0.3c0.2-0.2,0.2-0.3,0.4-0.3
								c0,0-0.2,0.8-0.4,1.2l0,0c0.2,0.4,0.3,0.8,0.1,1.2c-0.2,0.2-0.3,0.4-0.7,0.4v0.1l0,0l0,0c-0.1,0.3,0,0.7,0.3,0.7
								c0.2,0.1,0.2,0.1,0.4,0s0.2-0.2,0.3-0.3l1.1-2.7c0,0.1,0,0.2,0,0.2c0.2-0.2,0.2-0.2,0.4-0.2l-1.1,2.7l0,0
								c-0.1,0.3,0,0.7,0.3,0.7c0.2,0.1,0.6,0,0.7-0.3l1-2.4l-0.1,0.3c0.2-0.2,0.3-0.3,0.5-0.4l-1,2.6c0,0,0,0,0,0.1
								c-0.1,0.1,0,0.2,0.1,0.4s0.2,0.2,0.2,0.2c0.5,0.2,0.8-0.2,0.8-0.2l-0.2,0.4c0,0-0.4,0.2-0.7,0c-0.2-0.1-0.4-0.2-0.5-0.5
								c0,0,0-0.1-0.1-0.1c-0.2,0.2-0.6,0.2-0.9,0.1c-0.2-0.1-0.4-0.3-0.5-0.6c-0.1,0.1-0.2,0.1-0.2,0.1c-0.2,0.1-0.4,0.1-0.7,0H151
								c0,0.1,0.1,0.2,0.1,0.3c0,0.1,0.1,0.2,0.1,0.3c0.3,0,0.7,0,0.9,0.2c0.1,0,0.2,0.2,0.1,0.2c0,0.1-0.2,0.2-0.2,0.1
								c-0.2-0.1-0.5-0.2-0.7-0.1v0.1c0,0.2-0.1,0.7-0.2,0.8c-0.2,0.1-0.2,0.2-0.4,0.1c-0.1,0-0.2-0.1-0.2-0.2
								c-0.1-0.2-0.1-0.3-0.1-0.5c0.1-0.3,0.3-0.5,0.7-0.7l0,0c-0.1-0.5-0.2-0.9-0.5-1.3c0,0,0,0,0-0.1c-0.2,0.1-0.4,0.1-0.7,0
								C149.2,283.2,149,282.8,149.2,282.3z M150.8,285.1c-0.2,0.1-0.2,0.2-0.3,0.3c0,0.1,0,0.1,0,0.2c0,0,0,0.1,0.1,0.1h0.1
								c0.1-0.1,0.1-0.2,0.2-0.2C150.8,285.4,150.8,285.3,150.8,285.1L150.8,285.1z M149.5,282.4c-0.1,0.2,0,0.5,0.2,0.6
								s0.6,0,0.7-0.2l0,0l0,0l0,0C150.2,282.7,149.9,282.5,149.5,282.4z"/>
						</g>
					</g>
					<g transform="matrix(0.997228,0.0744128,-0.0744128,0.997228,-46.122,-61.4562)">
						<path class="st6" d="M-3985.8-988.5c0,0,1.7-7.8,2.4-11.3c0.2-1.2,1.4-2,2.7-1.7l0,0c0,0,0.2-2.1,1.8-1.9c0,0,1.5,0.1,1.5,1.7
							c0,0,0.1-1.4,1.8-1.2c0,0,1.2,0.2,1.3,1.6c0,0,0.4-1,1.7-0.9c0,0,1.4,0,1.2,2.1c0,0,0.7-1.7,2.1-1.4c0,0,1.2,0,1.2,2.7
							c-0.3,4-0.9,7.3-1.2,12.4"/>
						<g transform="matrix(1.99436,-0.608826,0.608826,1.99436,-4427.02,-1467.38)">
							<path class="st0" d="M138.7,278.5c-0.2-0.1-0.3-0.1-0.4-0.2c-0.1,0-0.2-0.2-0.1-0.2c0-0.1,0.2-0.2,0.2-0.1
								c0.7,0.3,1.6,0.6,1.9,0.6c0.2,0,0.4-0.1,0.5-0.2c0.2-0.4,0-0.8-0.3-1.2c-0.3-0.3-0.7-0.7-1-1l-0.1-0.1l0.2-0.2
								c0,0,0,0,0.1,0.1c0.3,0.2,0.7,0.6,1.1,1c0,0,0,0.1,0.1,0.1c0.2-0.3,0.2-0.8,0.2-0.8c0,0.1,0,0.2,0,0.3
								c0.2-0.2,0.2-0.3,0.4-0.3c0,0-0.2,0.8-0.4,1.2l0,0c0.2,0.4,0.3,0.8,0.1,1.2c-0.2,0.2-0.3,0.4-0.7,0.4v0.1l0,0l0,0
								c-0.1,0.3,0,0.7,0.3,0.7c0.2,0.1,0.2,0.1,0.4,0s0.2-0.2,0.3-0.3l1.1-2.7c0,0.1,0,0.2,0,0.2c0.2-0.2,0.2-0.2,0.4-0.2l-1.1,2.7
								l0,0c-0.1,0.3,0,0.7,0.3,0.7c0.2,0.1,0.6,0,0.7-0.3l1-2.4l-0.1,0.3c0.2-0.2,0.3-0.3,0.5-0.4l-1,2.6c0,0,0,0,0,0.1
								c-0.1,0.1,0,0.2,0.1,0.4s0.2,0.2,0.2,0.2c0.5,0.2,0.8-0.2,0.8-0.2l-0.2,0.4c0,0-0.4,0.2-0.7,0c-0.2-0.1-0.4-0.2-0.5-0.5
								c0,0,0-0.1-0.1-0.1c-0.2,0.2-0.6,0.2-0.9,0.1c-0.2-0.1-0.4-0.3-0.5-0.6c-0.1,0.1-0.2,0.1-0.2,0.1c-0.2,0.1-0.4,0.1-0.7,0
								h-0.1c0,0.1,0.1,0.2,0.1,0.3c0,0.1,0.1,0.2,0.1,0.3c0.3,0,0.7,0,0.9,0.2c0.1,0,0.2,0.2,0.1,0.2c0,0.1-0.2,0.2-0.2,0.1
								c-0.2-0.1-0.5-0.2-0.7-0.1v0.1c0,0.2-0.1,0.7-0.2,0.8c-0.2,0.1-0.2,0.2-0.4,0.1c-0.1,0-0.2-0.1-0.2-0.2
								c-0.1-0.2-0.1-0.3-0.1-0.5c0.1-0.3,0.3-0.5,0.7-0.7l0,0c-0.1-0.5-0.2-0.9-0.5-1.3c0,0,0,0,0-0.1c-0.2,0.1-0.4,0.1-0.7,0
								C138.8,279.4,138.5,278.9,138.7,278.5z M140.3,281.4c-0.2,0.1-0.2,0.2-0.3,0.3c0,0.1,0,0.1,0,0.2c0,0,0,0.1,0.1,0.1h0.1
								c0.1-0.1,0.1-0.2,0.2-0.2C140.3,281.6,140.3,281.4,140.3,281.4L140.3,281.4z M139,278.6c-0.1,0.2,0,0.5,0.2,0.6
								s0.6,0,0.7-0.2l0,0l0,0l0,0C139.8,278.9,139.4,278.8,139,278.6z"/>
						</g>
					</g>
				</g>
			</g>
		</g>
		<g transform="matrix(0.88816,-0.164313,0.167587,0.905855,-38.2713,437.225)">
			<path class="st2" d="M129-272.9c0,0,0,0-0.1-0.2s-0.1-0.3-0.2-0.5c-0.1-0.4-0.1-0.7,0-1.2c0.1-0.2,0.1-0.5,0.2-0.7
				c0.4-0.5,1.2-0.6,1.6,0c0.1,0.2,0.1,0.3,0.2,0.5v0.2l0.1-0.1c0.1-0.1,0.2-0.1,0.3-0.1c0.4-0.1,1,0.2,1.2,0.6
				c0.2,0.5-0.2,1-0.5,1.2C131-272.5,129-272.9,129-272.9z"/>
		</g>
		<g transform="matrix(0.999456,-0.0329788,0.0329788,0.999456,-52.8679,57.199)">
			<g transform="matrix(0.668839,0,0,0.767736,615.369,341.182)">
				<path class="st3" d="M-794.1-295.4h-1c-0.2,0-0.2-0.1-0.2-0.2s0.2-0.2,0.2-0.2h1.6c0.1,0,0.2,0.1,0.2,0.2c0.1,0.1,0,0.2,0,0.2
					l-1.6,1.9c-0.1,0.1-0.2,0.2-0.4,0.1c-0.1-0.1-0.2-0.2-0.1-0.3L-794.1-295.4z"/>
			</g>
			<g transform="matrix(0.793402,0.524075,-0.58005,0.878144,1237.59,-802.94)">
				<path class="st3" d="M-478.9,1331c0.1,0,0.2,0.1,0.2,0.2c0.1,0.1,0.2,0.2,0.2,0.4c0,0.2-0.1,0.3-0.2,0.4s-0.1,0.2-0.2,0.2
					s-0.2,0.1-0.2,0.2s0.1,0.2,0.2,0.2c0.2,0,0.3-0.1,0.5-0.2c0.2-0.2,0.2-0.4,0.2-0.7c0-0.3-0.1-0.6-0.2-0.7
					c-0.2-0.2-0.2-0.2-0.5-0.2c-0.1,0-0.2,0.1-0.2,0.2C-479.1,1330.9-479,1331-478.9,1331z"/>
			</g>
			<g transform="matrix(0.793402,0.524075,-0.58005,0.878144,1247.32,-798.845)">
				<path class="st3" d="M-488.1,1332.6c0.1,0,0.2,0.1,0.2,0.2c0.1,0.1,0.2,0.2,0.2,0.4s-0.1,0.3-0.2,0.4s-0.1,0.2-0.2,0.2
					s-0.2,0.1-0.2,0.2s0.1,0.2,0.2,0.2c0.2,0,0.3-0.1,0.5-0.2c0.2-0.2,0.2-0.4,0.2-0.7c0-0.3-0.1-0.6-0.2-0.7s-0.2-0.2-0.5-0.2
					c-0.1,0-0.2,0.1-0.2,0.2C-488.3,1332.5-488.3,1332.6-488.1,1332.6z"/>
			</g>
			<g transform="matrix(0.793402,0.524075,-0.58005,0.878144,1257.01,-794.848)">
				<path class="st3" d="M-497.3,1334.2c0.1,0,0.2,0.1,0.2,0.2c0.1,0.1,0.2,0.2,0.2,0.4c0,0.2-0.1,0.3-0.2,0.4s-0.1,0.2-0.2,0.2
					s-0.2,0.1-0.2,0.2s0.1,0.2,0.2,0.2c0.2,0,0.3-0.1,0.5-0.2s0.2-0.4,0.2-0.7c0-0.3-0.1-0.6-0.2-0.7c-0.2-0.2-0.2-0.2-0.5-0.2
					c-0.1,0-0.2,0.1-0.2,0.2C-497.5,1334.2-497.4,1334.2-497.3,1334.2z"/>
			</g>
			<g transform="matrix(0.793402,0.524075,-0.58005,0.878144,1266.71,-790.851)">
				<path class="st3" d="M-506.5,1335.8c0.1,0,0.2,0.1,0.2,0.2c0.1,0.1,0.2,0.2,0.2,0.4c0,0.2-0.1,0.3-0.2,0.4s-0.1,0.2-0.2,0.2
					s-0.2,0.1-0.2,0.2s0.1,0.2,0.2,0.2c0.2,0,0.3-0.1,0.5-0.2s0.2-0.4,0.2-0.7c0-0.3-0.1-0.6-0.2-0.7c-0.2-0.2-0.2-0.2-0.5-0.2
					c-0.1,0-0.2,0.1-0.2,0.2C-506.7,1335.7-506.6,1335.8-506.5,1335.8z"/>
			</g>
			<g transform="matrix(0.793402,0.524075,-0.58005,0.878144,1276.41,-786.854)">
				<path class="st3" d="M-515.7,1337.5c0.1,0,0.2,0.1,0.2,0.2c0.1,0.1,0.2,0.2,0.2,0.4c0,0.2-0.1,0.3-0.2,0.4
					c-0.1,0.1-0.1,0.2-0.2,0.2c-0.1,0-0.2,0.1-0.2,0.2s0.1,0.2,0.2,0.2c0.2,0,0.3-0.1,0.5-0.2c0.2-0.2,0.2-0.4,0.2-0.7
					c0-0.3-0.1-0.6-0.2-0.7c-0.2-0.2-0.2-0.2-0.5-0.2c-0.1,0-0.2,0.1-0.2,0.2C-515.8,1337.4-515.8,1337.5-515.7,1337.5z"/>
			</g>
			<g transform="matrix(0.793402,0.524075,-0.58005,0.878144,1286.1,-782.858)">
				<path class="st3" d="M-524.8,1339c0.1,0,0.2,0.1,0.2,0.2c0.1,0.1,0.2,0.2,0.2,0.4c0,0.2-0.1,0.3-0.2,0.4s-0.1,0.2-0.2,0.2
					c-0.1,0-0.2,0.1-0.2,0.2s0.1,0.2,0.2,0.2c0.2,0,0.3-0.1,0.5-0.2c0.2-0.2,0.2-0.4,0.2-0.7c0-0.3-0.1-0.6-0.2-0.7
					c-0.2-0.2-0.2-0.2-0.5-0.2c-0.1,0-0.2,0.1-0.2,0.2C-525.1,1338.9-524.9,1339-524.8,1339z"/>
			</g>
			<g transform="matrix(0.793402,0.524075,-0.58005,0.878144,1295.8,-778.861)">
				<path class="st3" d="M-534,1340.7c0.1,0,0.2,0.1,0.2,0.2c0.1,0.1,0.2,0.2,0.2,0.4s-0.1,0.3-0.2,0.4c-0.1,0.1-0.1,0.2-0.2,0.2
					c-0.1,0-0.2,0.1-0.2,0.2s0.1,0.2,0.2,0.2c0.2,0,0.3-0.1,0.5-0.2c0.2-0.2,0.2-0.4,0.2-0.7c0-0.3-0.1-0.6-0.2-0.7
					c-0.2-0.2-0.2-0.2-0.5-0.2c-0.1,0-0.2,0.1-0.2,0.2C-534.2,1340.6-534.1,1340.7-534,1340.7z"/>
			</g>
			<g transform="matrix(0.793402,0.524075,-0.58005,0.878144,1237.59,-802.94)">
				<path class="st3" d="M-478.9,1332.2c-0.1,0-0.2-0.1-0.2-0.2c-0.1-0.1-0.2-0.2-0.2-0.4c0-0.2,0.1-0.3,0.2-0.4s0.1-0.2,0.2-0.2
					s0.2-0.1,0.2-0.2s-0.1-0.2-0.2-0.2c-0.2,0-0.3,0.1-0.5,0.2c-0.2,0.2-0.2,0.4-0.2,0.7c0,0.3,0.1,0.6,0.2,0.7
					c0.2,0.2,0.2,0.2,0.5,0.2c0.1,0,0.2-0.1,0.2-0.2C-478.7,1332.3-478.8,1332.2-478.9,1332.2z"/>
			</g>
			<g transform="matrix(0.793402,0.524075,-0.58005,0.878144,1247.32,-798.845)">
				<path class="st3" d="M-488.1,1333.7c-0.1,0-0.2-0.1-0.2-0.2c-0.1-0.1-0.2-0.2-0.2-0.4c0-0.2,0.1-0.3,0.2-0.4s0.1-0.2,0.2-0.2
					s0.2-0.1,0.2-0.2s-0.1-0.2-0.2-0.2c-0.2,0-0.3,0.1-0.5,0.2s-0.2,0.4-0.2,0.7c0,0.3,0.1,0.6,0.2,0.7c0.2,0.2,0.2,0.2,0.5,0.2
					c0.1,0,0.2-0.1,0.2-0.2C-487.9,1334-488,1333.7-488.1,1333.7z"/>
			</g>
			<g transform="matrix(0.793402,0.524075,-0.58005,0.878144,1257.01,-794.848)">
				<path class="st3" d="M-497.3,1335.4c-0.1,0-0.2-0.1-0.2-0.2c-0.1-0.1-0.2-0.2-0.2-0.4c0-0.2,0.1-0.3,0.2-0.4s0.1-0.2,0.2-0.2
					s0.2-0.1,0.2-0.2s-0.1-0.2-0.2-0.2c-0.2,0-0.3,0.1-0.5,0.2s-0.2,0.4-0.2,0.7c0,0.3,0.1,0.6,0.2,0.7c0.2,0.2,0.2,0.2,0.5,0.2
					c0.1,0,0.2-0.1,0.2-0.2C-497.1,1335.5-497.2,1335.4-497.3,1335.4z"/>
			</g>
			<g transform="matrix(0.793402,0.524075,-0.58005,0.878144,1266.71,-790.851)">
				<path class="st3" d="M-506.5,1337c-0.1,0-0.2-0.1-0.2-0.2c-0.1-0.1-0.2-0.2-0.2-0.4c0-0.2,0.1-0.3,0.2-0.4s0.1-0.2,0.2-0.2
					s0.2-0.1,0.2-0.2s-0.1-0.2-0.2-0.2c-0.2,0-0.3,0.1-0.5,0.2c-0.2,0.2-0.2,0.4-0.2,0.7c0,0.3,0.1,0.6,0.2,0.7s0.2,0.2,0.5,0.2
					c0.1,0,0.2-0.1,0.2-0.2C-506.3,1337.2-506.4,1337-506.5,1337z"/>
			</g>
			<g transform="matrix(0.793402,0.524075,-0.58005,0.878144,1276.41,-786.854)">
				<path class="st3" d="M-515.7,1338.6c-0.1,0-0.2-0.1-0.2-0.2c-0.1-0.1-0.2-0.2-0.2-0.4c0-0.2,0.1-0.3,0.2-0.4
					c0.1-0.1,0.1-0.2,0.2-0.2c0.1,0,0.2-0.1,0.2-0.2s-0.1-0.2-0.2-0.2c-0.2,0-0.3,0.1-0.5,0.2c-0.2,0.2-0.2,0.4-0.2,0.7
					c0,0.3,0.1,0.6,0.2,0.7c0.2,0.2,0.2,0.2,0.5,0.2c0.1,0,0.2-0.1,0.2-0.2C-515.4,1338.7-515.5,1338.6-515.7,1338.6z"/>
			</g>
			<g transform="matrix(0.793402,0.524075,-0.58005,0.878144,1286.1,-782.858)">
				<path class="st3" d="M-524.8,1340.3c-0.1,0-0.2-0.1-0.2-0.2c-0.1-0.1-0.2-0.2-0.2-0.4c0-0.2,0.1-0.3,0.2-0.4s0.1-0.2,0.2-0.2
					c0.1,0,0.2-0.1,0.2-0.2s-0.1-0.2-0.2-0.2c-0.2,0-0.3,0.1-0.5,0.2c-0.2,0.2-0.2,0.4-0.2,0.7c0,0.3,0.1,0.6,0.2,0.7
					c0.2,0.2,0.2,0.2,0.5,0.2c0.1,0,0.2-0.1,0.2-0.2C-524.6,1340.5-524.7,1340.3-524.8,1340.3z"/>
			</g>
			<g transform="matrix(0.793402,0.524075,-0.58005,0.878144,1295.8,-778.861)">
				<path class="st3" d="M-534,1341.8c-0.1,0-0.2-0.1-0.2-0.2c-0.1-0.1-0.2-0.2-0.2-0.4c0-0.2,0.1-0.3,0.2-0.4
					c0.1-0.1,0.1-0.2,0.2-0.2c0.1,0,0.2-0.1,0.2-0.2s-0.1-0.2-0.2-0.2c-0.2,0-0.3,0.1-0.5,0.2s-0.2,0.4-0.2,0.7
					c0,0.3,0.1,0.6,0.2,0.7c0.2,0.2,0.2,0.2,0.5,0.2c0.1,0,0.2-0.1,0.2-0.2C-533.8,1341.9-533.9,1341.8-534,1341.8z"/>
			</g>
		</g>
	</g>
	<g transform="matrix(-0.663918,0,0,0.663918,2637.91,1056.71)">
		<g id="HASHTAG-BUBBLE" transform="matrix(0.965361,0,0,0.938474,-18.4846,18.9686)" serif:id="HASHTAG BUBBLE">
			<path class="st5" d="M3869.4-1293c-0.3,0.2-0.3,0.2-0.7,0.2c-2.6,1-5.4,1.6-8.4,1.6c-11.5,0-20.7-8.2-20.7-18.2
				c0-10.1,9.2-18.2,20.7-18.2s20.7,8.2,20.7,18.2c0,5.1-2.3,9.7-6.2,13c-0.2,0.2-0.2,0.2-0.6,0.5c-0.3,0.2-0.7,0.2-1-0.2
				c-0.2-0.3-0.2-0.7,0.2-1c0.2-0.2,0.2-0.2,0.5-0.4c3.5-3,5.7-7.2,5.7-11.8c0-9.3-8.7-16.8-19.3-16.8c-10.7,0-19.3,7.5-19.3,16.8
				s8.7,16.8,19.3,16.8c2.8,0,5.5-0.5,7.9-1.5c0.2-0.1,0.2-0.2,0.6-0.2c0.3-0.2,0.7,0,0.9,0.4
				C3869.9-1293.6,3869.8-1293.2,3869.4-1293z"/>
		</g>
		<g transform="matrix(-1.82904,0,0,1.91361,4519.22,-1872.75)">
			<path class="st5" d="M439,342.5l3.3,8.5c0.1,0.2,0.4,0.3,0.7,0.2c0.2-0.1,0.4-0.3,0.2-0.6l-3.3-8.5c-0.1-0.2-0.4-0.3-0.7-0.2
				C439.1,342,438.9,342.3,439,342.5z"/>
		</g>
		<g transform="matrix(-1.82904,0,0,1.91361,4474.41,-1890.33)">
			<path class="st5" d="M418.2,350.3l3.3,8.5c0.1,0.2,0.4,0.3,0.7,0.2c0.2-0.1,0.4-0.3,0.2-0.6l-3.3-8.5c-0.1-0.2-0.4-0.3-0.7-0.2
				C418.3,349.8,418.1,350.1,418.2,350.3z"/>
		</g>
		<g transform="matrix(-0.0908262,-1.91125,-1.82678,0.0950258,2863.75,4426.62)">
			<path class="st5" d="M2918.7-612.3l3.3,8.5c0.1,0.2,0.4,0.4,0.6,0.2c0.2-0.2,0.3-0.4,0.2-0.7l-3.3-8.5c-0.1-0.2-0.4-0.4-0.6-0.2
				C2918.8-612.9,2918.7-612.6,2918.7-612.3z"/>
		</g>
		<g transform="matrix(0.105007,1.91045,1.82602,-0.109863,-1898.19,-3643.44)">
			<path class="st5" d="M1444.6,2982.7l3.3,8.5c0.1,0.2,0.4,0.4,0.6,0.2s0.3-0.4,0.2-0.7l-3.3-8.5c-0.1-0.2-0.4-0.4-0.6-0.2
				C1444.7,2982.2,1444.5,2982.4,1444.6,2982.7z"/>
		</g>
		<g transform="matrix(1,0,0,1,0.0209705,-9.02408)">
			<path class="st5" d="M3722.1-1181.7l-5.1-4.9c-0.2-0.2-0.7-0.2-1,0c-0.2,0.2-0.2,0.7,0,1l6.7,6.6c0.2,0.2,0.6,0.2,0.8,0.1
				c0.2-0.2,0.4-0.4,0.3-0.7l-2.2-9.2c-0.1-0.3-0.4-0.6-0.8-0.5c-0.3,0.1-0.6,0.4-0.5,0.8L3722.1-1181.7z"/>
		</g>
	</g>
	<g id="CHAIR" transform="matrix(1,0,0,1,94.6104,116.93)">
		<path class="st7" d="M-106.5,150.3h35.4h3.8l0,0l27.7,0.2c0.2,0,0.5,0.2,0.5,0.5c0,0.2-0.2,0.5-0.5,0.5l-27.7-0.2h-39.8l-0.5-0.6
			c2.7-42.7-0.9-64.5-6.3-75.3c-3.2-6.3-6.8-8.8-10.2-9.5c-5-1-9.1,1.9-9.1,1.9l0,0c-0.2,0.2-0.6,0.1-0.7-0.1
			c-0.2-0.2-0.1-0.6,0.1-0.7c0,0,4.5-3.2,9.9-2.2c3.6,0.7,7.6,3.3,10.9,10C-107.6,85.9-103.9,107.7-106.5,150.3z"/>
		<path class="st7" d="M-82.1,66.7c0,0,11.9,0.6,21.1,1.1c6.7,0.3,12.4,5.2,13.9,11.7c1.4,6.9,2.8,17.1,3.8,32.5
			c0,0.2,0.2,0.5,0.6,0.5c0.2,0,0.5-0.2,0.5-0.6c-1-15.4-2.4-25.7-3.8-32.6c-1.6-7.1-7.7-12.2-14.8-12.6c-9.2-0.5-21.1-1.1-21.1-1.1
			c-0.2,0-0.5,0.2-0.5,0.5C-82.6,66.4-82.4,66.7-82.1,66.7z"/>
		<path class="st7" d="M4.1,180.6l1.2-14.1c0.3-3.9-1-7.7-3.7-10.6c-2.7-2.8-6.4-4.5-10.3-4.5c-12.1,0.1-27.3,0.1-31.6,0.1
			c-0.9,0-1.7-0.7-1.7-1.7c-0.1-15.2-0.6-27.6-1.2-37.9c0-0.2,0.2-0.5,0.5-0.6c0.2,0,0.5,0.2,0.6,0.5c0.7,10.2,1.1,22.6,1.2,37.9
			c0,0.4,0.3,0.7,0.7,0.7c4.3,0,19.6-0.1,31.6-0.1c4.2,0,8.2,1.7,11.1,4.8c2.8,3.1,4.2,7.2,3.9,11.4c-0.6,7.4-1.2,14.6-1.2,14.6
			c0,0.2-0.2,0.5-0.5,0.5c0,0-84,0.7-117.4,1.1c-8.1,0.1-15.1-5.5-17-13.3c-0.8-3.6-1.8-7.7-2.8-12.3c-4.3-19.1-9.8-45.4-12.7-65.9
			c-1-7.2,1.3-14.3,6.2-19.6c4.9-5.3,11.9-8.2,19.1-7.8c17.7,0.9,38,2,38,2c0.2,0,0.5,0.2,0.5,0.5s-0.2,0.5-0.5,0.5
			c0,0-20.3-1.1-38-2c-6.9-0.3-13.6,2.4-18.3,7.5s-6.8,12-5.9,18.8c2.8,20.5,8.4,46.8,12.7,65.8c1,4.6,2,8.7,2.8,12.3
			c1.7,7.4,8.4,12.7,16,12.6L4.1,180.6z"/>
		<g transform="matrix(1,0,0,1,-94.6104,-116.93)">
			<path class="st7" d="M58.5,268.5c0,0,5.5-0.2,8.7,5.2c2.4,4.2,2.7,11.5-3.1,24.2c-0.1,0.2,0,0.6,0.2,0.7s0.6,0,0.7-0.2
				c6.1-13.2,5.5-20.8,3-25.1c-3.4-6-9.6-5.8-9.6-5.8c-0.2,0-0.5,0.2-0.5,0.5C58,268.2,58.3,268.5,58.5,268.5z"/>
		</g>
		<g transform="matrix(1,0,0,1,-94.6104,-116.93)">
			<path class="st7" d="M-24.7,298.3l0.7,3.2c0,0,1.3,7.4,2.2,11.9c0.4,2.2,2.2,3.7,4.5,3.7l0,0c2.2,0,4.2-1.7,4.5-3.8
				c0.8-5.1,2.2-14.1,2.2-14.1c0.1-0.2-0.2-0.6-0.4-0.6c-0.2-0.1-0.6,0.2-0.6,0.4c0,0-1.5,9-2.2,14.1c-0.2,1.7-1.7,3-3.5,3l0,0
				c-1.7,0-3.2-1.2-3.4-2.9c-0.8-4.5-2.2-11.9-2.2-11.9l0,0l-0.7-3.2c-0.1-0.2-0.3-0.5-0.6-0.4C-24.5,297.8-24.8,298-24.7,298.3z"/>
		</g>
		<g transform="matrix(1,0,0,1,620.595,-114.855)">
			<path class="st7" d="M-631,296.2c0,0,1.8,10.1,2.7,15.4c0.4,2.2,2.2,3.7,4.5,3.7l0,0c2.2,0,4.2-1.7,4.5-3.8
				c0.9-5.4,2.5-15.2,2.5-15.2c0.1-0.2-0.2-0.6-0.4-0.6c-0.2-0.1-0.6,0.2-0.6,0.4c0,0-1.6,9.9-2.5,15.2c-0.2,1.7-1.7,3-3.5,3l0,0
				c-1.7,0-3.2-1.2-3.5-2.9c-1-5.4-2.7-15.4-2.7-15.4c-0.1-0.2-0.3-0.5-0.6-0.4C-630.8,295.6-631,295.9-631,296.2z"/>
		</g>
		<g transform="matrix(1,0,0,1,41.8863,-116.93)">
			<path class="st7" d="M-58.1,268.5c4,1,7.8,1.2,10.7,7c1.1,2.1,1.4,4.5,1.3,7.9c-0.1,3.5-0.6,8.1-1.2,14.4c0,0.2,0.2,0.5,0.5,0.6
				c0.2,0,0.5-0.2,0.6-0.5c0.7-6.3,1.2-10.9,1.2-14.5c0.1-3.7-0.3-6.2-1.5-8.4c-3.2-6.2-7.2-6.5-11.4-7.6c-0.2-0.1-0.6,0.1-0.7,0.4
				C-58.6,268.1-58.4,268.4-58.1,268.5z"/>
		</g>
		<g transform="matrix(1,0,0,1,-16.7214,-116.93)">
			<path class="st7" d="M-8.7,268.5c4,1,8.1,1.2,11,7c1.1,2.1,1.4,4.5,1.3,7.9c-0.1,3.5-0.6,8.1-1.2,14.4c0,0.2,0.2,0.5,0.5,0.6
				c0.2,0,0.5-0.2,0.6-0.5c0.7-6.3,1.2-10.9,1.2-14.5c0.1-3.7-0.3-6.2-1.5-8.4c-3.2-6.2-7.4-6.5-11.7-7.6c-0.2-0.1-0.6,0.1-0.7,0.4
				C-9.1,268.1-9,268.4-8.7,268.5z"/>
		</g>
	</g>
	<g id="CHARACTER" transform="matrix(1,0,0,1,-141.735,-23.3118)">
		<g transform="matrix(1,0,0,1,94.6774,115.527)">
			<path class="st0" d="M29.9,71.1c0,0-2.4-4.7-5.7-1.7c0,0-1.2,1.8,1.4,5.6L20,86.1c0,0-6.2,0.7-9.2,1.1C5,87.9-4.8,88.8-9,94.9
				c-3,4.3-3,8.1-3,11.4c5.1,17.8,10.2,35.8,13.8,57.4c0,0,3.7,13.7,17,13.9c12.2,0.2,50.3-2.9,51.5-2l-0.1-3.2h2.7h1.2l0.3,0.8
				c0,0,10.3,1.6,14,6.9l21.1-1.6c0,0-0.6-4.6-3.2-6.2h6.9l21.1,55.1H168c0,0-2.6-2.6-5.2-3.5l-24-68.4c0,0-6.4-17.8-32.2-17l-0.3-5
				c0,0,17-0.7,18.8-12.2c0,0,5.6-14.6-18.3-26.1l-0.2-16.5c0,0-2.9-11.7-9.7-13.7c0,0-9.4-3.6-16.3-1.2c0,0-5.7,3.8-8.6,7.6
				L58,88.5l-22.6-0.2v-1.9c0,0,5.2-0.4,6.5-3.4l4.1-8C45.9,75,39.9,62.5,29.9,71.1z"/>
		</g>
		<g transform="matrix(1,0,0,1,-1.24089,-0.674955)">
			<path class="st5" d="M189.6,293c0,0,0.7,1.3,0.9,3c0,0.2,0.2,0.5,0.6,0.5c0.2,0,0.5-0.2,0.5-0.6c-0.2-1.8-1.1-3.4-1.1-3.4
				c-0.2-0.2-0.4-0.3-0.7-0.2C189.5,292.4,189.4,292.7,189.6,293z"/>
		</g>
		<g transform="matrix(1,0,0,1,27.2286,-3.70411)">
			<path class="st5" d="M165.4,295.5c0,0,0.7,1.3,0.9,3c0,0.2,0.2,0.5,0.6,0.5c0.2,0,0.5-0.2,0.5-0.6c-0.2-1.8-1.1-3.4-1.1-3.4
				c-0.2-0.2-0.4-0.3-0.7-0.2C165.4,295,165.3,295.3,165.4,295.5z"/>
		</g>
		<g transform="matrix(1,0,0,1,51.9647,-6.91752)">
			<path class="st5" d="M144.5,298.2c0,0,0.7,1.3,0.9,3c0,0.2,0.2,0.5,0.6,0.5c0.2,0,0.5-0.2,0.5-0.6c-0.2-1.8-1.1-3.4-1.1-3.4
				c-0.2-0.2-0.4-0.3-0.7-0.2C144.4,297.7,144.3,298,144.5,298.2z"/>
		</g>
		<g transform="matrix(1,0,0,1,94.6774,115.527)">
			<path class="st5" d="M43.9,74.1c-1.7-3-2.6-6.5-2.6-10.2c0-12.1,10-21.8,22.2-21.8c12.1,0,22,9.5,22.2,21.3
				c-1.8,0.2-4.7,1-9.2,3.7c0,0-1.1,0-16.4,18.4c-6.2-0.9-11.6-4.3-15-9.2l1-1.7L43.9,74.1z"/>
		</g>
		<g transform="matrix(1,0,0,1,94.6774,115.527)">
			<path class="st8" d="M64.7,138H69l1.3,37.7l-48.5,2c0,0,0.1,0,0.3-0.1c4.2-1,13-3.8,23.9-11.7C53.6,160.4,56.2,150.9,64.7,138z"
				/>
			<g transform="matrix(1,0,0,1,-94.6774,-115.527)">
				<path class="st9" d="M133.1,292.5c-0.1-0.3,0.1-0.7,0.4-0.9l3.4-2.2c0.4-0.2,1-0.2,1.2,0.2s0.2,1-0.2,1.2l-2.3,1.5L133.1,292.5z
					 M143.1,292.1C143,292.1,143,292.1,143.1,292.1c-0.1-0.6,0.2-1.1,0.7-1.2l4.1-0.8c0.5-0.1,1,0.2,1.1,0.7c0.1,0.4-0.2,0.8-0.5,1
					L143.1,292.1z M152.9,291.8L152.9,291.8c-0.3-0.4-0.2-1,0.1-1.3l3.2-2.7c0.4-0.3,1-0.2,1.2,0.1c0.3,0.4,0.2,1-0.1,1.2l-3,2.5
					L152.9,291.8z M161,291.3l-0.2-0.1c-0.5-0.2-0.7-0.7-0.5-1.2s0.7-0.7,1.2-0.5l3.6,1.3v0.3L161,291.3z M131.3,289.6
					C131.3,289.7,131.3,289.7,131.3,289.6c0,0.6-0.3,1-0.8,1l-1.7,0.1c0.2-0.1,0.6-0.2,0.7-0.3C130.1,290.2,130.6,289.9,131.3,289.6
					z M141,282.9l2.6,2.4c0.3,0.3,0.4,0.9,0.1,1.3c-0.3,0.3-0.9,0.4-1.3,0.1l-2.7-2.6C140.1,283.7,140.6,283.3,141,282.9z
					 M151.9,284.2l-3.9-1.3c-0.5-0.2-1,0.1-1.2,0.6s0.1,1,0.6,1.2l3.9,1.3c0.5,0.2,1-0.1,1.2-0.6
					C152.6,284.9,152.4,284.3,151.9,284.2z M158,281.6l2.7,3.2c0.3,0.4,0.9,0.4,1.2,0.1c0.4-0.3,0.4-0.9,0.1-1.2l-2.7-3.2
					c-0.3-0.4-0.9-0.4-1.2-0.1C157.7,280.7,157.7,281.3,158,281.6z M154.4,279.9l-0.7-4.1c-0.1-0.5-0.6-0.8-1.1-0.7
					c-0.5,0.1-0.8,0.6-0.7,1.1l0.7,4.1c0.1,0.5,0.6,0.8,1.1,0.7C154.2,280.9,154.5,280.4,154.4,279.9z M146.4,276.5l0.6,0.2
					c0.5,0.2,0.7,0.7,0.6,1.2c-0.2,0.5-0.7,0.7-1.2,0.6l-1.2-0.3C145.7,277.5,146,277.1,146.4,276.5z M164.4,277.5
					c-0.2,0.1-0.4,0.1-0.6,0l-3.8-1.6c-0.5-0.2-0.7-0.7-0.5-1.2s0.7-0.7,1.2-0.5l3.7,1.5L164.4,277.5z M149.9,270.6l3.5-1.6
					c0.5-0.2,1,0,1.2,0.5s0,1-0.5,1.2l-3.8,1.7c-0.5,0.2-0.9,0.2-1.1-0.3C149.2,272,149.6,271.1,149.9,270.6z M158.7,267l-1.5,3.8
					c-0.2,0.5,0.1,1,0.5,1.2c0.5,0.2,1-0.1,1.2-0.5l1.5-3.8c0.2-0.5-0.1-1-0.5-1.2C159.4,266.2,158.9,266.5,158.7,267z M164,265
					c-0.2-0.2-0.2-0.3-0.3-0.5l-0.9-4.1c-0.1-0.5,0.2-1,0.7-1.1c0.1,0,0.2,0,0.3,0L164,265z M154.1,263.3c0.2,0.2,0.2,0.4,0.2,0.7
					c0,0.5-0.4,0.9-0.9,0.9h-0.2C153.5,264.3,153.8,263.8,154.1,263.3z M159.5,256.1l-2.7,3.2c-0.3,0.4-0.2,1,0.1,1.2
					c0.4,0.3,1,0.2,1.2-0.1l2.7-3.2c0.3-0.4,0.2-1-0.1-1.2C160.4,255.8,159.9,255.8,159.5,256.1z"/>
			</g>
		</g>
		<g transform="matrix(1,0,0,1,94.6774,115.527)">
			<path class="st10" d="M-3.2,139c0,0,2.6,12.9,4.7,23.2c1.8,9.2,10.2,15.7,19.6,15.4c11-0.4,25-5,34.2-22.6l-13.4-13.4
				c-5.4,3.3-9.5,6.7-16.9,11.7C13.3,158.5,2.3,155.7-3.2,139z"/>
			<g transform="matrix(1,0,0,1,-94.6774,-115.527)">
				<path class="st11" d="M124.1,292.1l-1.9,0.4l-0.2-0.2c-0.3-0.4-0.2-1,0.2-1.2c0.4-0.3,1-0.2,1.2,0.2L124.1,292.1z M108,291.9
					l1.1-1.9c0.2-0.4,0.7-0.7,1.2-0.4c0.4,0.2,0.7,0.7,0.4,1.2l-0.7,1.8C109.3,292.4,108.4,292.1,108,291.9z M116.6,289.4l4.1-0.6
					c0.5-0.1,0.8-0.5,0.7-1c-0.1-0.5-0.5-0.8-1-0.7l-4.1,0.6c-0.5,0.1-0.8,0.5-0.7,1C115.6,289.2,116.1,289.5,116.6,289.4z
					 M134.1,288.1l-1.8,0.2c-0.5,0.1-0.9-0.3-1-0.8s0.3-0.9,0.8-1l4.1-0.4c0.3,0,0.5-0.1,0.7,0.2C136,286.9,135,287.7,134.1,288.1z
					 M99.2,284.8c0-0.2,0.1-0.4,0.3-0.6c0.4-0.3,1-0.2,1.2,0.2l2.6,3.2c0.3,0.4,0.2,1-0.2,1.2c-0.1,0.1-0.2,0.1-0.2,0.1
					C101.2,287.5,100.2,286.3,99.2,284.8z M124.9,282.9l0.6,4.1c0.1,0.5,0.5,0.8,1,0.7c0.5-0.1,0.8-0.5,0.7-1l-0.6-4.1
					c-0.1-0.5-0.5-0.8-1-0.7C125.1,282,124.8,282.4,124.9,282.9z M107.4,284.8l3.8,1.5c0.5,0.2,1-0.1,1.2-0.5c0.2-0.5-0.1-1-0.5-1.2
					l-3.8-1.5c-0.5-0.2-1,0.1-1.2,0.5C106.7,284.1,106.9,284.6,107.4,284.8z M118.3,281.9l-2.6-3.2c-0.3-0.4-0.9-0.4-1.2-0.2
					c-0.4,0.3-0.4,0.9-0.2,1.2l2.6,3.2c0.3,0.4,0.9,0.4,1.2,0.2C118.6,282.9,118.7,282.3,118.3,281.9z M133.5,281.5l-2.4-3.4
					c-0.3-0.4-0.8-0.5-1.2-0.2s-0.5,0.8-0.2,1.2l2.4,3.4c0.3,0.4,0.8,0.5,1.2,0.2C133.6,282.4,133.7,281.9,133.5,281.5z M138,277.5
					l-0.6,4.1c-0.1,0.5,0.2,1,0.7,1c0.5,0.1,1-0.2,1-0.7l0.6-4.1c0.1-0.5-0.2-1-0.7-1C138.5,276.7,138,277,138,277.5z M122.8,279.6
					l1.5-3.8c0.2-0.5-0.1-1-0.5-1.2c-0.5-0.2-1,0.1-1.2,0.5l-1.5,3.8c-0.2,0.5,0.1,1,0.5,1.2C122.1,280.4,122.7,280.1,122.8,279.6z
					 M103,278.1l-4.2,0.1c-0.5,0-0.9,0.4-0.9,0.9s0.4,0.9,0.9,0.9l4.2-0.1c0.5,0,0.9-0.4,0.9-0.9C104,278.4,103.6,278.1,103,278.1z
					 M108,274.8l1,4c0.2,0.5,0.7,0.7,1.1,0.7c0.5-0.2,0.7-0.7,0.7-1.1l-1-4c-0.2-0.5-0.7-0.7-1.1-0.7
					C108.2,273.8,107.9,274.3,108,274.8z M145.1,278.3l-2-2.5c-0.3-0.4-0.2-1,0.2-1.2c0.4-0.3,1-0.2,1.2,0.2l1.7,2
					C146,277.2,145.5,277.9,145.1,278.3z M95.1,272.4l2.7,1.5c0.4,0.2,0.6,0.8,0.3,1.2s-0.8,0.6-1.2,0.3l-1.3-0.7
					C95.4,273.9,95.2,273,95.1,272.4z M133.4,270.9l-3.3,2.5c-0.4,0.3-0.5,0.8-0.2,1.2c0.3,0.4,0.8,0.5,1.2,0.2l3.3-2.5
					c0.4-0.3,0.5-0.9,0.2-1.2C134.3,270.7,133.7,270.6,133.4,270.9z M103.6,270.5c0.6,0.2,1.2,0.4,1.8,0.6c0,0.1-0.2,0.2-0.2,0.2
					l-2.5,3.3c-0.3,0.4-0.9,0.5-1.2,0.2c-0.4-0.3-0.5-0.9-0.2-1.2L103.6,270.5z M116.2,270.4l2,2.5c0.3,0.4,0.2,1-0.2,1.2
					c-0.4,0.3-1,0.2-1.2-0.2l-2.5-3.2C114.9,270.8,115.6,270.6,116.2,270.4z M140.6,272.1l1.4-3.9c0.2-0.5-0.1-1-0.6-1.2
					s-1,0.1-1.2,0.6l-1.4,3.9c-0.2,0.5,0.1,1,0.6,1.2C139.9,272.9,140.5,272.6,140.6,272.1z M149,272.4l-3.4-0.4
					c-0.5-0.1-0.8-0.5-0.8-1c0.1-0.5,0.5-0.8,1-0.8l4.1,0.5C149.6,271.3,149.3,271.9,149,272.4z M127.7,269.9l-4.1-0.7
					c-0.5-0.1-1,0.2-1.1,0.7s0.2,1,0.7,1.1l4.1,0.7c0.5,0.1,1-0.2,1.1-0.7S128.2,270,127.7,269.9z M95.9,264.5
					c0.8,1,1.6,1.9,2.3,2.6l0.4,1.5c0.2,0.5-0.2,1-0.7,1.1c-0.5,0.2-1-0.2-1.1-0.7l-1-4C95.8,264.9,95.9,264.7,95.9,264.5z
					 M128.5,263l2.5,1.7c0.4,0.2,0.5,0.8,0.2,1.2c-0.2,0.4-0.8,0.5-1.2,0.2l-3-2.1C127.5,263.8,128,263.3,128.5,263z M139.9,262.3
					l-4,1.2c-0.5,0.2-0.7,0.7-0.6,1.2c0.2,0.5,0.7,0.7,1.2,0.6l4-1.2c0.5-0.2,0.7-0.7,0.6-1.2C140.9,262.4,140.3,262.1,139.9,262.3z
					 M138.2,258.8c-0.1,0.1-0.4,0.2-0.5,0.2l-4.1,0.2c1.8-1.2,3-2.1,3-2.1L138.2,258.8z"/>
			</g>
		</g>
		<g transform="matrix(1,0,0,1,94.6774,115.527)">
			<path class="st12" d="M58,88.5h-8.4c0,0-13.8,15.9-35.8-2.1c0,0-5.2,0.7-11.2,1.3c-4.7,0.6-8.8,3.1-11.5,6.8
				c-2.7,3.8-3.7,8.6-2.6,13.2c2,9.1,4.1,18.1,4.1,18.1l27.1-7.5l1.2,4.9c0,0,13.5-10.2,17.9-11.1L58,88.5z"/>
			<g transform="matrix(1,0,0,1,-94.6774,-115.527)">
				<path class="st0" d="M90.1,234.7c1.1,0,1.9,0.8,1.9,1.9c0,1.1-0.8,1.9-1.9,1.9s-1.9-0.8-1.9-1.9C88.2,235.6,89,234.7,90.1,234.7
					z M102.6,237.2c-2.2-2.5-2.2-5.8-1.2-8.3c0.9-2.2,2.7-3.8,4.8-3.9c0.5,0,0.9,0.3,1,0.8c0,0.5-0.3,0.9-0.8,1
					c-1.4,0.1-2.6,1.2-3.2,2.8c-0.9,2.2-0.7,5,1.5,7.1L102.6,237.2z M128.7,224.9c-1.2-1.2-3.2-1.7-5.2-1.2
					c-3.6,0.7-7.2,4.2-6.3,9.4c0.1,0.5,0.6,0.8,1.1,0.7s0.8-0.6,0.7-1.1c-0.7-4.1,2.1-6.7,4.9-7.2c1.3-0.2,2.7-0.1,3.6,0.7
					c0.3,0.3,0.9,0.3,1.3,0C129.1,225.9,129.1,225.3,128.7,224.9z M124.2,232.3c-0.7-0.3-1.2-1-1.2-1.7c0-1.1,0.8-1.9,1.9-1.9
					s1.9,0.8,1.9,1.9v0.1C126,231.2,125.1,231.7,124.2,232.3z M82.7,219.8c3.6-1.7,7.2-0.4,9.3,1.8c1.7,1.7,2.3,4.1,1.7,6
					c-0.2,0.5-0.7,0.7-1.2,0.5s-0.7-0.7-0.5-1.2c0.5-1.3-0.2-2.9-1.2-4.1c-1.7-1.9-4.9-2.9-7.9-1C82.8,221.3,82.8,220.6,82.7,219.8z
					 M135.8,209.4c1.7,3.7,0.2,7.2-2,9.3c-1.8,1.6-4.2,2.2-6,1.5c-0.5-0.2-0.7-0.7-0.5-1.2s0.7-0.7,1.2-0.5c1.3,0.5,2.9-0.1,4.2-1.2
					c1.8-1.7,2.9-4.5,1.5-7.4C134.6,209.8,135.2,209.6,135.8,209.4z M102.4,215.7c1.1,0,1.9,0.8,1.9,1.9c0,1.1-0.8,1.9-1.9,1.9
					s-1.9-0.8-1.9-1.9S101.3,215.7,102.4,215.7z M113.5,205.9c0.6,0.3,1.1,0.7,1.7,0.9c-0.6,0.6-1,1.5-1.2,2.4
					c-0.7,2.6,0.2,5.9,3.7,7.4c0.5,0.2,0.7,0.7,0.5,1.2s-0.7,0.7-1.2,0.5c-4.5-1.9-5.6-6.2-4.7-9.6
					C112.3,207.7,112.8,206.7,113.5,205.9z M124.3,212.4c1.1,0,1.9,0.8,1.9,1.9c0,1.1-0.8,1.9-1.9,1.9s-1.9-0.8-1.9-1.9
					C122.4,213.3,123.2,212.4,124.3,212.4z M142.7,215.8c-1.7-1.4-2.6-3.3-2.2-5.2c0.1-0.5,0.6-0.8,1.1-0.7s0.8,0.6,0.7,1.1
					c-0.2,1.2,0.5,2.5,1.6,3.4L142.7,215.8z M104.3,207.4c-1.3-1.5-3.7-2-6.1-1.3c-3.3,0.9-6.5,4-5.9,8.8c0.1,0.5,0.5,0.8,1,0.8
					c0.5-0.1,0.8-0.5,0.8-1c-0.4-3.7,2-6.2,4.6-6.8c1.6-0.4,3.2-0.2,4.2,0.8c0.3,0.4,0.9,0.4,1.2,0.1
					C104.6,208.4,104.6,207.8,104.3,207.4z M149.5,205.3c0.3,0.3,0.6,0.7,0.7,1.2l-1.7,2.1c-0.1,0-0.2,0-0.2,0
					c-1.1,0-1.9-0.8-1.9-1.9c0-0.3,0.1-0.7,0.2-0.9L149.5,205.3z"/>
			</g>
		</g>
		<g transform="matrix(1,0,0,1,94.6774,115.527)">
			<path class="st5" d="M48.9,89.3l0.7-0.7l-14.2-0.1c-0.2,0-0.3,0.2-0.3,0.3s0.2,0.3,0.3,0.3L48.9,89.3z"/>
			<path class="st5" d="M34.9,90l1.2-3.7c0.1-0.2,0-0.4-0.2-0.4c-0.2-0.1-0.4,0-0.4,0.2l-1.2,3.7c-0.1,0.2,0,0.4,0.2,0.4
				C34.6,90.3,34.8,90.2,34.9,90z"/>
			<path class="st5" d="M29.5,82.5c0,0,1.4,1.4,3.3,2.8c1.6,1.1,3.5,1.4,5.3,1c1.8-0.5,3.4-1.7,4.2-3.4c1.7-3.4,3.9-7.8,3.9-7.8
				c0.1-0.2,0-0.4-0.2-0.5s-0.4,0-0.5,0.2c0,0-2.2,4.4-3.9,7.8c-0.7,1.5-2.2,2.6-3.7,3c-1.7,0.4-3.3,0.1-4.7-0.9
				C31.4,83.4,30,82,30,82c-0.2-0.2-0.3-0.2-0.5,0S29.3,82.5,29.5,82.5z"/>
			<path class="st5" d="M30,72.5c0,0-0.2-1.5-0.9-2.8c-0.4-0.8-1.1-1.5-2-1.7c-0.6-0.2-1.3-0.1-2.2,0.3c-2.1,1-3,3.8,0.9,7.5
				c0.2,0.2,0.3,0.2,0.5,0s0.2-0.3,0-0.5c-3.3-3.2-2.8-5.6-1.1-6.4c0.7-0.3,1.2-0.4,1.7-0.2c0.7,0.2,1.2,0.7,1.6,1.4
				c0.7,1.2,0.8,2.6,0.8,2.6c0,0.2,0.2,0.3,0.4,0.3C30,72.8,30.1,72.6,30,72.5z"/>
			<path class="st5" d="M24.7,74.3l-5.6,11.8c-0.1,0.2,0,0.4,0.2,0.5s0.4,0,0.5-0.2l5.6-11.8c0.1-0.2,0-0.4-0.2-0.5
				S24.8,74.1,24.7,74.3z"/>
			<path class="st5" d="M14.6,87.1l5.2-0.7c0.2,0,0.3-0.2,0.3-0.4c0-0.2-0.2-0.3-0.4-0.3l-5.9,0.7L14.6,87.1z"/>
			<g transform="matrix(0.610599,-0.533726,0.648359,0.741743,-199.813,522.509)">
				<path class="st5" d="M578.3-180.8c0.2,0,0.2,0.1,0.3,0.2c0.2,0.2,0.2,0.4,0.2,0.7c0,0.2-0.1,0.5-0.2,0.7
					c-0.1,0.1-0.2,0.2-0.3,0.2c-0.2,0-0.4,0.2-0.4,0.3s0.2,0.3,0.4,0.3c0.3,0,0.7-0.1,0.9-0.3c0.3-0.2,0.5-0.7,0.5-1.2
					s-0.2-1-0.5-1.2s-0.6-0.3-0.9-0.3c-0.2,0-0.4,0.2-0.4,0.3C577.8-180.9,578.1-180.8,578.3-180.8z"/>
			</g>
			<g transform="matrix(0.610599,-0.533726,0.648359,0.741743,-199.813,522.509)">
				<path class="st5" d="M578.3-179c-0.2,0-0.2-0.1-0.3-0.2c-0.2-0.2-0.2-0.4-0.2-0.7s0.1-0.5,0.2-0.7c0.1-0.1,0.2-0.2,0.3-0.2
					c0.2,0,0.4-0.2,0.4-0.3c0-0.2-0.2-0.3-0.4-0.3c-0.3,0-0.7,0.1-0.9,0.3c-0.3,0.2-0.5,0.7-0.5,1.2s0.2,1,0.5,1.2
					c0.2,0.2,0.6,0.3,0.9,0.3c0.2,0,0.4-0.2,0.4-0.3S578.5-179,578.3-179z"/>
			</g>
			<path class="st5" d="M29.7,71.5c0,0,4.9,2.7,9.2-1.7c0,0,2.2,5.1,7.5,5.4c0,0,1.3-1.8,0.4-3.7C46,70,44.4,68,42.5,66.1
				C38.9,63,33.6,62.9,30,66c-0.8,0.7-1.7,1.6-2.2,2.7C27.6,68.6,28.9,68.1,29.7,71.5z"/>
		</g>
		<g transform="matrix(1,0,0,1,94.6774,115.527)">
			<path class="st5" d="M38.5,112.4c0,0,21.8-26.3,34.4-41.4c5.2-6.2,13.5-8.7,21.1-6.3l0,0c7.2,2.2,12,8.8,12,16.3
				c-0.1,11.3-0.2,25.9-0.2,25.9c0,0.2,0.2,0.5,0.4,0.5s0.5-0.2,0.5-0.4c0,0,0.1-14.6,0.2-25.9c0-7.9-5.1-14.8-12.7-17.1l0,0
				c-8-2.6-16.7,0-22.1,6.5c-12.5,15.1-34.3,41.4-34.3,41.4c-0.2,0.2-0.2,0.5,0.1,0.7C38.1,112.7,38.4,112.6,38.5,112.4z"/>
			<path class="st5" d="M105.7,133.5v4.6l-0.2,34.6c0,0.2,0.2,0.5,0.4,0.5c0.2,0,0.5-0.2,0.5-0.4l0.2-34.6v-4.6
				c0-0.2-0.2-0.4-0.4-0.4C105.9,133.1,105.7,133.2,105.7,133.5z"/>
			<path class="st5" d="M109.1,178.3c-0.3-3.8-3.3-5.2-3.3-5.2c-0.2-0.1-0.3-0.3-0.2-0.6c0.1-0.2,0.3-0.3,0.6-0.2
				c0,0,3.7,1.6,3.9,6.4c0,0.2-0.2,0.4-0.4,0.5l-21.1,1.6c-0.2,0-0.2-0.1-0.3-0.2c0,0-6.2-6.5-13.7-6.7c-0.2,0-0.4-0.2-0.4-0.4
				L74,138.2c0-0.2,0.2-0.4,0.4-0.5c0.2,0,0.4,0.2,0.5,0.4l0.2,34.9c7,0.4,12.7,5.8,13.7,6.8L109.1,178.3z"/>
			<path class="st5" d="M74.8,138v-4.7c0-0.2-0.2-0.4-0.5-0.4c-0.2,0-0.4,0.2-0.4,0.5v4.7c0,0.2,0.2,0.4,0.5,0.4
				C74.6,138.5,74.9,138.3,74.8,138z"/>
			<path class="st5" d="M74.6,97.6l0.1-4.7c0-0.2-0.2-0.5-0.4-0.5s-0.5,0.2-0.5,0.4l-0.1,4.7c0,0.2,0.2,0.5,0.4,0.5
				C74.4,98.1,74.6,97.8,74.6,97.6z"/>
			<path class="st5" d="M67.9,131.2l-13.4,23.1l0.7,0.7l13.4-23.4c0.2-0.2,0.1-0.5-0.2-0.7C68.3,130.9,68.1,131,67.9,131.2z"/>
		</g>
		<g transform="matrix(1,0,0,1,94.6774,115.527)">
			<path class="st5" d="M69,139.3l5-0.2c0.2,0,0.4-0.2,0.4-0.4s-0.2-0.4-0.4-0.4l-5,0.2V139.3z"/>
			<path class="st5" d="M167,227.1c-1.7-1.8-4.4-2.6-4.4-2.6c-0.2,0-0.2-0.2-0.3-0.2c0,0-14.1-40.4-23-65.6
				c-4.1-11.7-15.1-19.6-27.5-19.6h-5.3c-0.2,0-0.4-0.2-0.4-0.4s0.2-0.4,0.4-0.4h5.3c12.8,0,24.1,8.1,28.4,20.1l22.9,65.3
				c0.8,0.2,3.8,1.4,5.3,3.7c0.1,0.2,0.1,0.3,0,0.5s-0.2,0.2-0.4,0.2l-34-1.5c-0.2,0-0.3-0.1-0.4-0.3l-22.2-58.4
				c-0.1-0.2,0-0.5,0.2-0.6s0.5,0,0.6,0.2l22.1,58.2L167,227.1z"/>
			<path class="st5" d="M123.3,148.9l5.3,3.5c0.2,0.2,0.5,0.1,0.7-0.2c0.2-0.2,0.1-0.5-0.2-0.7l-5.3-3.5c-0.2-0.2-0.5-0.1-0.7,0.2
				C123.1,148.5,123.2,148.7,123.3,148.9z"/>
			<path class="st5" d="M113.4,172c0,0-2.7,0-6.9,0c-0.2,0-0.4,0.2-0.4,0.4s0.2,0.4,0.5,0.4c4.2,0,6.9,0,6.9,0
				c0.2,0,0.4-0.2,0.4-0.4C113.8,172.2,113.6,172,113.4,172z"/>
			<path class="st5" d="M70.5,172c0.1,0,1,0,2.3,0c0.5,0,0.7,0,1.3,0c0.2,0,0.4,0.2,0.4,0.5c0,0.2-0.2,0.4-0.4,0.4
				c-0.7,0-0.8,0-1.3,0c-1.4,0-2.6,0-2.6,0V172H70.5C70.4,172,70.4,172,70.5,172z"/>
		</g>
		<g transform="matrix(1,0,0,1,94.6774,115.527)">
			<path class="st13" d="M64.9,128.6l10.6,4.1c0.7,0.2,1.4,0.1,1.9-0.5c0.2,0.1,0.3,0.2,0.6,0.2l0.9-0.1l-0.7,1.6
				c-0.4,0.7-1.3,1.1-2.2,0.7l-12.2-5.5L64.9,128.6z M88.2,111.2l3.7-7.2c0,0,0,1.6,0,2.2c0,0.2-0.1,0.4-0.2,0.6l-2.3,4.7
				C89.1,111.2,88.8,111.1,88.2,111.2z"/>
			<path class="st11" d="M67.3,108.5c2.7-4.7,5.2-8.9,6.3-10.8c0.4-0.7,1.2-1.1,2-0.9c5.4,1,12.5,4.2,15.3,5.4
				c0.3,0.2,0.6,0.3,0.7,0.6c0.3,0.3,0.4,0.9,0.2,1.3l-3.6,7.1c-0.7,0-1.5,0.2-2.7,0.9l-8.5,18c0,0-0.5,1.5,0.4,2.1
				c-0.5,0.6-1.3,0.7-2.1,0.5l-10.5-4.2l1.4-0.7l4.1-18.8L67.3,108.5z"/>
			<g transform="matrix(0.868545,0.432243,-0.463288,0.930927,499.326,-333.163)">
				<path class="st0" d="M-176.2,552.6c0-0.3-0.2-0.7-0.4-0.8c-0.2-0.2-0.6-0.3-0.9-0.3c-0.1,0-0.1,0-0.2,0
					c-3.4,0.3-10.1,0.7-14.6,1.6c-0.8,0.2-1.5,0.8-1.6,1.7c-0.3,5-1.3,22-1.7,27.1c0,0.3,0.2,0.7,0.4,1c0.2,0.2,0.7,0.4,1.1,0.3
					c3.5-0.2,11.9-0.9,15.6-1.2c1-0.1,1.7-0.8,1.7-1.7C-176.7,574.8-176.3,557.5-176.2,552.6z"/>
			</g>
			<g transform="matrix(0.940787,0.339,-0.339,0.940787,308.249,-247.407)">
				<path class="st13" d="M-90.7,403.1c0-0.2-0.2-0.3-0.3-0.3h-6.1c-0.2,0-0.3,0.2-0.3,0.3c0,0.2,0.2,0.3,0.3,0.3h6.1
					C-90.9,403.4-90.7,403.2-90.7,403.1z"/>
			</g>
			<path class="st5" d="M81.6,117.4l-0.3,0.7l-8.5-3.3l6.9-1.7c2-1.2,0.1-3.2,0.1-3.2c-1.2,0.3-7.5-0.3-9.6-0.6l4.3-7.9l12.5,4.8
				l-3.1,6.4c-1.3,0.3-4.6,1.4-3.9,3.7L81.6,117.4z"/>
			<g transform="matrix(0.911149,0.412078,-0.412078,0.911149,469.546,-287.113)">
				<path class="st12" d="M-190.7,532.2c0.2-0.6,0.8-0.6,1.2-0.2c0.2,0.2,0.2,0.8,0,1.4c-0.2,0.4-0.7,0.8-1.2,1.2
					c-0.4-0.2-0.9-0.7-1.2-1.2c-0.2-0.6-0.2-1.2,0-1.4C-191.6,531.6-191,531.6-190.7,532.2z"/>
			</g>
			<g transform="matrix(1.03092,0.395189,-0.450064,1.17407,338.539,-504.992)">
				<path class="st5" d="M-14.5,523.7h-12l-0.2,1.3h12.1L-14.5,523.7z"/>
			</g>
			<path class="st14" d="M77.8,124.6l-3.4,6.9l-9.1-3.6l2.4-1.1c3.4-2.4,1.2-3.3,1.2-3.3c1.3-0.3,2-1.2,2.2-1.7L77.8,124.6z"/>
		</g>
		<path class="st12" d="M188.1,210.2l-3.2,3.2l1.4,1.4l3.5-2.3L188.1,210.2z M181.4,211.7l1.5,1l3.3-4.4l-2.8-1.3L181.4,211.7z
			 M176.4,210.4l2.1,0.4l1.2-4.4l-2.8-0.5L176.4,210.4z"/>
		<g transform="matrix(1,0,0,1,94.6774,115.527)">
			<path class="st5" d="M16.7,103.1l3.4,20.3c0,0.2,0.2-0.2,0.5-0.2s0.4-0.2,0.4-0.5l-3.3-19.8c0-0.2-0.2-0.4-0.5-0.4
				C16.9,102.6,16.7,102.8,16.7,103.1z"/>
			<path class="st5" d="M66.6,108c0.3,0.1,8.9,1.6,13,1.4c0.5,0,1.1,0.3,1.3,0.9c0.3,0.6,0.4,1.5-0.3,2.3c-0.6,0.7-1.7,1.5-3.9,2.1
				c-2.7,0.7-5.5,1.6-12.8,0.5c-0.2,0-0.4-0.2-0.4-0.5s0.2-0.4,0.5-0.4c7.1,1.1,9.9,0.2,12.5-0.5c1.7-0.4,2.7-0.9,3.2-1.5
				c0.5-0.4,0.6-0.9,0.6-1.3c-0.1-0.2-0.2-0.5-0.3-0.7c-0.1-0.1-0.2-0.1-0.2-0.1c-4.2,0.2-13.2-1.4-13.2-1.4l0,0
				c-10.8-2.6-21.4,0.3-30.2,4.8C23.2,120.3,14,130.5,14,130.5c-0.2,0.2-0.5,0.2-0.7,0s-0.2-0.5,0-0.7c0,0,9.2-10.2,22.6-17.1
				C44.8,108.3,55.5,105.4,66.6,108z"/>
			<path class="st5" d="M71,115.8c0,0,0.2,0.2,0.5,0.7c0.1,0.2,0.2,0.5,0.1,0.7c-0.1,0.3-0.4,0.7-1.1,1.1c-1.1,0.6-3,1.1-6.2,1.3
				c-0.2,0-0.4,0.2-0.4,0.5s0.2,0.4,0.5,0.4c3.4-0.2,5.5-0.8,6.7-1.4c0.9-0.5,1.3-1,1.5-1.5s0.1-1.1-0.1-1.5c-0.2-0.6-0.7-1-0.7-1
				c-0.2-0.2-0.5-0.2-0.7,0C70.8,115.3,70.8,115.7,71,115.8L71,115.8z"/>
			<path class="st5" d="M70.4,119.2c0,0,0.9,0.9,0.7,1.9c-0.1,0.5-0.5,1-1.3,1.5c-1,0.5-2.6,1-5.1,1.2c-0.2,0-0.4,0.2-0.4,0.5
				c0,0.2,0.2,0.4,0.5,0.4c2.1-0.2,3.6-0.6,4.7-1c1.9-0.7,2.5-1.7,2.6-2.6c0.2-1.3-0.9-2.5-0.9-2.5c-0.2-0.2-0.5-0.2-0.7,0
				C70.2,118.7,70.2,119.1,70.4,119.2z"/>
			<path class="st5" d="M64.1,128.3c3.2-1.7,4.7-2.7,5.2-3.5c0.1-0.2,0.2-0.3,0.2-0.4s-0.1-0.2-0.2-0.2c-0.2-0.1-0.3-0.2-0.3-0.2
				l0,0c-0.2-0.1-0.4-0.3-0.3-0.6c0.1-0.2,0.3-0.4,0.6-0.3c0,0,0.3,0.1,0.6,0.2c0.2,0.2,0.4,0.4,0.6,0.7c0.1,0.3,0.1,0.7-0.2,1.2
				c-0.5,0.8-2,2-5.5,3.8l0,0c0,0-17.9,7.8-35.3,22l0,0c0,0-10.4,7.6-20.1,3.9c-4.2-1.6-8.2-5.2-11.3-12.4l0,0L-7.3,126l0.9-0.2
				c0,0,5,16.1,5.1,16.6c2.9,6.9,6.8,10.4,10.8,11.9c9.2,3.5,19-3.6,19.3-3.8C45.9,136.3,63.5,128.5,64.1,128.3z"/>
		</g>
		<g transform="matrix(1,0,0,1,94.6774,115.527)">
			<path class="st5" d="M106.4,95.7c0,0,6.1,2.4,11.3,7.1c5.2,4.6,9.5,11.4,6.2,20.2c-1.2,3.1-6.3,14.8-41.9,8.2
				c-0.2-0.1-0.5,0.1-0.5,0.3c-0.1,0.2,0.1,0.5,0.3,0.5c36.5,6.8,41.8-5.6,43-8.7c3.5-9.2-1-16.4-6.4-21.2
				c-5.3-4.7-11.6-7.2-11.6-7.2c-0.2-0.1-0.5,0-0.6,0.2C106.1,95.4,106.3,95.6,106.4,95.7z"/>
			<path class="st5" d="M91.9,106.8l18.8,0.7c0.2,0,0.5-0.2,0.5-0.4c0-0.2-0.2-0.5-0.4-0.5L92,105.9c-0.2,0-0.5,0.2-0.5,0.4
				C91.5,106.6,91.6,106.8,91.9,106.8z"/>
			<g transform="matrix(-2.63809,-6.87137,-16.2623,6.24351,18297.4,2261.17)">
				<path class="st5" d="M1159.4,931.7c0-0.1-0.1-0.1-0.2-0.1s-0.2,0-0.2,0.1v0.4c0,0,0,0-0.1,0h-0.1v-0.4c0-0.1,0.2-0.2,0.3-0.2
					C1159.2,931.5,1159.4,931.6,1159.4,931.7L1159.4,931.7L1159.4,931.7z"/>
			</g>
			<g transform="matrix(-2.63809,-6.87137,-16.2623,6.24351,18297.4,2261.17)">
				<path class="st5" d="M1158.9,932.1c0,0.1,0.1,0.1,0.2,0.1s0.2,0,0.2-0.1v-0.4c0,0,0,0,0.1,0h0.1v0.4c0,0.1-0.2,0.2-0.3,0.2
					S1158.9,932.2,1158.9,932.1C1158.8,932.1,1158.9,932,1158.9,932.1C1158.9,932,1158.9,932.1,1158.9,932.1z"/>
			</g>
			<g transform="matrix(-2.63809,-6.87137,-16.2623,6.24351,18290.4,2293.76)">
				<path class="st5" d="M1162.6,930.8c0-0.1-0.1-0.1-0.2-0.1s-0.2,0-0.2,0.1v0.4c0,0,0,0-0.1,0s-0.1,0-0.1,0v-0.4
					c0-0.1,0.2-0.2,0.3-0.2S1162.6,930.8,1162.6,930.8C1162.7,930.8,1162.7,930.8,1162.6,930.8L1162.6,930.8z"/>
			</g>
			<g transform="matrix(-2.63809,-6.87137,-16.2623,6.24351,18290.4,2293.76)">
				<path class="st5" d="M1162.2,931.2c0,0.1,0.1,0.1,0.2,0.1s0.2,0,0.2-0.1v-0.4c0,0,0,0,0.1,0h0.1v0.4c0,0.1-0.2,0.2-0.3,0.2
					C1162.3,931.3,1162.2,931.2,1162.2,931.2C1162,931.2,1162.1,931.2,1162.2,931.2C1162.1,931.2,1162.2,931.2,1162.2,931.2z"/>
			</g>
			<g transform="matrix(-2.63809,-6.87137,-16.2623,6.24351,18283.5,2326.34)">
				<path class="st5" d="M1165.5,929.8c-0.1,0-0.2,0-0.2,0.1v0.4c0,0,0,0-0.1,0h-0.1v-0.4C1165.2,929.8,1165.4,929.7,1165.5,929.8
					C1165.6,929.7,1165.6,929.8,1165.5,929.8C1165.6,929.8,1165.6,929.8,1165.5,929.8z"/>
			</g>
			<g transform="matrix(-2.63809,-6.87137,-16.2623,6.24351,18283.5,2326.34)">
				<path class="st5" d="M1165.4,930.3c0,0.1,0.1,0.1,0.2,0.1s0.2,0,0.2-0.1v-0.4c0-0.1-0.1-0.1-0.2-0.1h-0.1c0,0,0,0,0.1,0
					c0.2,0,0.3,0.1,0.3,0.2v0.4c0,0.1-0.2,0.2-0.3,0.2C1165.5,930.6,1165.3,930.5,1165.4,930.3
					C1165.2,930.3,1165.3,930.2,1165.4,930.3C1165.3,930.2,1165.4,930.3,1165.4,930.3z"/>
			</g>
			<g transform="matrix(-2.63809,-6.87137,-16.2623,6.24351,18276.5,2358.93)">
				<path class="st5" d="M1168.8,928.9c-0.1,0-0.2,0-0.2,0.1v0.4c0,0,0,0-0.1,0s-0.1,0-0.1,0V929
					C1168.4,929,1168.6,928.9,1168.8,928.9L1168.8,928.9L1168.8,928.9z"/>
			</g>
			<g transform="matrix(-2.63809,-6.87137,-16.2623,6.24351,18276.5,2358.93)">
				<path class="st5" d="M1168.6,929.4c0,0.1,0.1,0.1,0.2,0.1s0.2,0,0.2-0.1V929c0-0.1-0.1-0.1-0.2-0.1h-0.1c0,0,0,0,0.1,0
					c0.2,0,0.3,0.1,0.3,0.2v0.4c0,0.1-0.2,0.2-0.3,0.2S1168.5,929.6,1168.6,929.4C1168.4,929.4,1168.5,929.4,1168.6,929.4
					C1168.5,929.4,1168.6,929.4,1168.6,929.4z"/>
			</g>
		</g>
		<g transform="matrix(1,0,0,1,94.6774,115.527)">
			<path class="st5" d="M84.7,71.8l5.5,3.6c0.2,0.2,0.5,0.1,0.7-0.2c0.2-0.2,0.1-0.5-0.2-0.7L85.2,71c-0.2-0.2-0.5-0.1-0.7,0.2
				C84.5,71.4,84.6,71.6,84.7,71.8z"/>
		</g>
	</g>
	<g id="HAND-BUBBLE" transform="matrix(1,0,0,1,-75.6842,124.129)" serif:id="HAND BUBBLE">
		<g>
			<g transform="matrix(0.965361,0,0,0.938474,-18.5056,27.9927)">
				<path class="st5" d="M67.6-5.5c-0.2,0.2-0.2,0.2-0.6,0.2c-2.4,1-5.1,1.5-7.9,1.5c-10.8,0-19.6-7.6-19.6-17.1S48.2-38,59.1-38
					c10.7,0,19.6,7.6,19.6,17.1c0,4.7-2.2,9-5.7,12.1c-0.2,0.2-0.2,0.2-0.5,0.4s-0.2,0.5-0.1,0.7c0.2,0.2,0.4,0.2,0.7,0.1
					c0.3-0.2,0.2-0.2,0.6-0.5c3.7-3.2,6-7.7,6-12.7c0-9.9-9.2-18-20.5-18s-20.5,8.1-20.5,18s9.2,18,20.5,18c2.9,0,5.7-0.6,8.3-1.6
					c0.3-0.1,0.3-0.2,0.6-0.2c0.2-0.1,0.3-0.4,0.2-0.7C68.1-5.5,67.9-5.6,67.6-5.5z"/>
			</g>
			<path class="st5" d="M53,28.4l-1.7-7.7c-0.1-0.2,0.1-0.5,0.3-0.6s0.5,0.1,0.6,0.3l2.2,9.2c0.1,0.2-0.1,0.4-0.2,0.5
				c-0.2,0.1-0.4,0.1-0.6-0.1l-6.7-6.6c-0.2-0.2-0.2-0.5,0-0.7s0.5-0.2,0.7,0L53,28.4z"/>
		</g>
		<g transform="matrix(1.12334,-0.119809,0.119809,1.12334,-163.301,31.5385)">
			<path class="st15" d="M171.7,4.5c0,0,0.9-8.5,1.3-12c0.1-0.5,0.3-0.9,0.7-1.2s0.9-0.4,1.4-0.3c0.1,0,0.2,0,0.3,0.1
				c0,0,0.2-2.1,1.8-1.9c0,0,1.5,0.1,1.5,1.7c0,0,0.1-1.4,1.8-1.2c0,0,1.2,0.2,1.3,1.6c0,0,0.4-1,1.7-0.9c0,0,1.4,0,1.2,2.1
				c0,0,0.4-1.7,1.9-1.3c0,0,0.9,0,0.8,2.7c-0.3,4-0.4,7.8-0.7,12.2C186.9,5.7,175.6,6,171.7,4.5"/>
			<g>
				<path class="st5" d="M175.5-9.6l-0.1,0.5c0,0,0.1,0,0.2,0.1c0.7,0.2,1.7,0.8,2.5,1.3c0.9,0.6,1.7,1.3,1.4,2.3
					c-0.1,0.4-0.3,0.6-0.9,0.7c-0.7,0.2-1.7,0.2-3.3,0c-0.2,0-0.4,0.1-0.4,0.3c0,0.2,0.1,0.4,0.3,0.4c1.7,0.2,2.8,0.2,3.6,0
					c0.9-0.2,1.2-0.7,1.4-1.3c0.3-1.2-0.5-2.3-1.7-3.1c-0.9-0.6-2-1-2.7-1.2C175.6-9.5,175.5-9.6,175.5-9.6z"/>
				<g>
					<path class="st5" d="M180.7,0.4c-0.4-0.9-1.1-1.7-1.7-2.4c-0.2-0.2-0.2-0.4,0-0.5c0.2-0.2,0.4-0.2,0.5,0
						c0.7,0.7,1.4,1.6,1.9,2.5c0.7-0.2,1.3-0.4,1.9-0.3c0.2,0,0.3,0.2,0.3,0.4s-0.2,0.3-0.4,0.3c-0.5-0.1-1,0-1.6,0.2
						c0,0.1,0.1,0.2,0.1,0.2c0.2,0.6,0.3,1.3-0.1,1.9c-0.2,0.3-0.5,0.4-0.7,0.4s-0.5-0.1-0.7-0.2c-0.2-0.2-0.4-0.6-0.4-0.9
						C179.8,1.3,180.2,0.8,180.7,0.4L180.7,0.4z M181,1.1c-0.2,0.2-0.4,0.6-0.4,0.9c0,0.2,0.1,0.2,0.2,0.3c0.1,0.1,0.1,0.1,0.2,0.1
						c0.1,0,0.1-0.1,0.2-0.2c0.1-0.2,0.1-0.3,0.1-0.6C181.1,1.6,181.1,1.3,181,1.1L181,1.1z"/>
					<g transform="matrix(1.07054,0.104438,-0.164729,2.01808,-77.5344,-352.06)">
						<path class="st5" d="M260.7,159c0,0.5,0.7,0.9,1.7,0.9s1.8-0.4,1.8-0.9v-0.2c0-0.1-0.1-0.1-0.3-0.1c-0.2,0-0.3,0-0.3,0.1v0.2
							c0,0.3-0.5,0.6-1.1,0.6s-1-0.2-1-0.6c0-0.1-0.2-0.2-0.3-0.2C260.9,158.8,260.7,158.9,260.7,159z"/>
					</g>
					<g transform="matrix(1.07054,0.104438,-0.173177,2.12157,-54.4722,-382.975)">
						<path class="st5" d="M244.9,163.6c-0.2,0.1-0.4,0.2-0.5,0.5c0-0.1-0.1-0.2-0.2-0.3c0,0,0.1,0.7,0.1,1.1c0,0.1,0.2,0.2,0.3,0.2
							c0.2,0,0.3-0.1,0.3-0.2C245.1,164.5,244.9,163.6,244.9,163.6z"/>
					</g>
					<g transform="matrix(1.07054,0.104438,-0.173177,2.12157,-54.4722,-382.975)">
						<path class="st5" d="M244.3,166.5c0,0.1,0,0.2,0,0.3c0,0.5,0.8,0.9,1.7,0.9c0.5,0,0.9-0.1,1.2-0.2c0.3-0.2,0.6-0.4,0.6-0.7
							v-3.1c-0.2,0.1-0.4,0.2-0.6,0.3c0-0.2-0.1-0.2-0.2-0.2v2.9c0,0.2-0.2,0.3-0.3,0.4s-0.5,0.2-0.7,0.2c-0.6,0-1.1-0.2-1.1-0.6
							c0-0.1,0-0.2,0-0.3s-0.2,0-0.3,0C244.5,166.5,244.3,166.4,244.3,166.5z"/>
					</g>
					<g transform="matrix(1.07054,0.104438,-0.16342,2.00204,-37.217,-342.749)">
						<path class="st5" d="M228.3,157.5c0,0.5,0.8,1,1.7,1c1,0,1.8-0.4,1.8-1v-3c-0.3,0.1-0.5,0.3-0.7,0.6l-0.1-0.3v2.7
							c0,0.3-0.5,0.6-1.1,0.6s-1.1-0.2-1.1-0.6c0-0.1-0.2-0.2-0.3-0.2C228.4,157.4,228.3,157.5,228.3,157.5z"/>
					</g>
					<g transform="matrix(0.849785,0.082902,-0.150444,1.84308,112.67,-279.009)">
						<path class="st5" d="M110.2,144.7c0,0.2,0.2,0.5,0.7,0.7c0.4,0.2,1,0.2,1.5,0.2c0.9,0,1.2-0.4,1.2-0.4l-0.1-0.7
							c0,0-0.5,0.7-1.2,0.7c-0.2,0-0.6-0.1-0.8-0.2c-0.2-0.1-0.4-0.2-0.4-0.4c0-0.1-0.2-0.2-0.4-0.2
							C110.4,144.4,110.2,144.5,110.2,144.7z"/>
					</g>
				</g>
			</g>
		</g>
	</g>
</g>
</svg>
