<?xml version="1.0" encoding="utf-8"?>
<!-- Generator: Adobe Illustrator 25.0.1, SVG Export Plug-In . SVG Version: 6.00 Build 0)  -->
<svg version="1.1" id="Layer_1" xmlns:serif="http://www.serif.com/"
	 xmlns="http://www.w3.org/2000/svg" xmlns:xlink="http://www.w3.org/1999/xlink" x="0px" y="0px" viewBox="0 0 165.3 189.1"
	 style="enable-background:new 0 0 165.3 189.1;" xml:space="preserve">
<style type="text/css">
	.st0{fill:none;stroke:#FFD375;stroke-width:3.5706;stroke-linecap:round;stroke-linejoin:round;stroke-miterlimit:10;}
	.st1{fill-rule:evenodd;clip-rule:evenodd;fill:#FFFFFF;}
	.st2{fill-rule:evenodd;clip-rule:evenodd;fill:#00B9BC;}
	.st3{fill:none;stroke:#00B9BC;stroke-width:1.4641;stroke-linecap:round;stroke-linejoin:round;stroke-miterlimit:10;}
	.st4{fill-rule:evenodd;clip-rule:evenodd;fill:#E86166;}
	.st5{fill-rule:evenodd;clip-rule:evenodd;}
	.st6{fill-rule:evenodd;clip-rule:evenodd;fill:#003E3F;}
</style>
<path id="FLAG-HANDLE" serif:id="FLAG HANDLE" class="st0" d="M156.8,63.9l-6.7,32.6"/>
<g id="Bird">
	<path class="st1" d="M73.6,0.9c2.9,4.4,7.9,12.5,7.3,24.4c-0.3,7-3.5,15.6-8.1,25.3c0,0-9.5,13.2-2.6,34.9l-34.4-8.2
		c0,0-8.7,24.6-0.3,37l37.5,2.2c0,0-4.4,13.4,4.9,27.4c0,0,15.5,26.5,0.9,44.2c0,0,49.8-21.9,48.3-73.3c0,0,19.7-11.9,21.2-26.6
		l7-3.8c0,0-5.8-1.5-6.9-1.7c-1.2-0.3-3.8-12-25.6-5.8c0,0,1.3-34.4-12.2-54C110.7,23.2,98.4,0.8,73.6,0.9z"/>
	<g>
		<g id="BIRD">
			<path class="st2" d="M91.4,178.3c0.4-0.1,0.6-0.4,0.6-0.8s-0.3-0.6-0.6-0.6l-7.6-0.3c-0.3,0,1.2,0.8,1,1.2
				c-0.1,0.3-1.7,0.1-1.3,0.3c1.5,0.6,3.5,0.9,5.2,0.8C90.1,178.7,91.4,178.3,91.4,178.3z M95.4,168.2c0.4,0,0.6-0.4,0.6-0.8
				c0-0.4-0.3-0.6-0.6-0.6l-10.2-0.3c-0.4,0-0.6,0.3-0.6,0.6c-0.1,0.4,0.1,0.6,0.5,0.8c1.5,0.5,4.2,0.6,6.5,0.6
				C93.5,168.4,95.4,168.2,95.4,168.2z M96.9,163.8c0.4-0.1,0.6-0.4,0.5-0.8s-0.4-0.6-0.6-0.6l-11,0.3c-0.4,0-0.6,0.3-0.6,0.6
				c-0.1,0.3,0.1,0.6,0.5,0.8c2.3,0.8,5.1,0.6,7.4,0.5C95.1,164.3,96.9,163.8,96.9,163.8z M95.1,160c0.4-0.1,0.6-0.4,0.6-0.8
				s-0.4-0.6-0.8-0.6l-10.2,0.3c-0.4,0-0.6,0.3-0.6,0.6c-0.1,0.3,0.1,0.6,0.5,0.8c1.2,0.4,3.8,0.4,6.3,0.3
				C93.1,160.3,95.1,160,95.1,160z M89.3,145.8c0.4-0.1,0.6-0.4,0.6-0.8s-0.4-0.6-0.8-0.6l-9.3,0.6c-0.4,0-0.6,0.3-0.6,0.6
				c0,0.4,0.3,0.6,0.6,0.8c1.2,0.3,3.6,0.1,5.8-0.3C87.5,146,89.3,145.8,89.3,145.8z M85.5,132.1c0.4-0.1,0.6-0.4,0.6-0.8
				c0-0.4-0.4-0.6-0.8-0.6l-12.7,0.9c-0.3,0-0.6,0.3-0.6,0.6c-0.1,0.3,0.1,0.6,0.4,0.8c0.3,0.1,0.9,0.3,1.7,0.3
				c1.4,0,3.6-0.3,5.8-0.4C82.8,132.5,85.5,132.1,85.5,132.1z M45.5,109.4c0.4,0,0.6-0.3,0.8-0.6c0-0.4-0.3-0.6-0.6-0.8l-12.5-1
				c-0.4,0,0.1,0.5,0,0.9s-0.6,0.5-0.3,0.6c1.7,0.4,4.9,0.6,7.7,0.9C43.2,109.3,45.5,109.4,45.5,109.4z M47.1,105.7
				c0.4,0,0.6-0.3,0.8-0.6c0-0.4-0.3-0.8-0.6-0.8l-14.6-1.8c-0.4,0-0.3,0.3-0.4,0.6c-0.1,0.4-0.3,0.6,0,0.8c1.4,0.5,5.1,0.9,8.4,1.3
				C44.1,105.6,47.1,105.7,47.1,105.7z M50.8,98.7c0.4,0.1,0.8-0.3,0.8-0.6c0.1-0.4-0.3-0.8-0.6-0.8l-18.2-2.8
				c-0.4-0.1-0.1,0.1-0.3,0.5c-0.1,0.4-0.6,0.8-0.3,0.9c0.6,0.3,5.2,1,9.7,1.7C46.6,98.2,50.8,98.7,50.8,98.7z M82.9,74
				c0.4,0,0.6-0.3,0.8-0.6c0-0.4-0.3-0.8-0.6-0.8L67.3,70c-0.4-0.1-0.3,0.3-0.3,0.6c-0.1,0.4-0.4,0.6-0.1,0.8c2,0.6,6,1.4,9.5,1.8
				C80,73.6,82.9,74,82.9,74z M73.2,50.9c-0.3-0.1-0.3-0.1-0.3-0.1c-0.3-0.3-0.4-0.6-0.3-0.9s0.5-0.5,0.8-0.4l13.8,2.7
				c0.4,0.1,0.6,0.5,0.6,0.9c0,0.4-0.5,0.6-0.9,0.6c0,0-3.6-0.6-7.2-1.3c-2.9-0.5-5.1-1-6.1-1.3C73.6,51.1,73.3,51.1,73.2,50.9
				L73.2,50.9L73.2,50.9z M89.7,15.5c0.4,0,0.6-0.3,0.8-0.6c0-0.4-0.3-0.6-0.6-0.8c0,0-2.2-0.3-4.6-0.5c-2.6-0.3-4.6-0.5-5.2-0.4
				c-0.3,0.1-0.6,0.4-0.5,0.8c0,0.4,0.3,0.6,0.6,0.6L89.7,15.5z M89.9,12.8c0.4,0,0.6-0.3,0.8-0.6c0-0.4-0.3-0.8-0.6-0.8
				c0,0-2-0.3-4.4-0.4c-2.3-0.1-5.2-0.4-6.7-0.4c-0.4,0-0.1,0.1-0.1,0.5s0.3,0.6,0.6,0.8L89.9,12.8z"/>
			<g transform="matrix(1,0,0,1,-0.710965,-0.709128)">
				<path class="st2" d="M122.3,77.8c0,0-0.3,3.7-0.6,5.4c-0.1,0.4,0.3,0.8,0.6,0.9c0.4,0.1,0.8-0.3,0.9-0.6
					c0.4-1.8,0.6-5.6,0.6-5.6c0-0.4-0.3-0.8-0.6-0.8C122.6,77,122.3,77.4,122.3,77.8z"/>
			</g>
			<path class="st2" d="M65.5,85c0,0,3.8,7.9,5.9,8.1l-1.3-7.7L65.5,85z"/>
			<g transform="matrix(1,0,0,1,1.42361,-0.561334)">
				<path class="st3" d="M71.8,117.1l11.4,0.8"/>
			</g>
			<path class="st2" d="M80.3,186.5c10.4-4.4,47.2-23.6,46.1-71.5c0-0.3,0.1-0.5,0.4-0.6c0,0,18.6-9.6,20.9-26
				c0-0.3,0.3-0.5,0.5-0.6c0,0,4-1.7,6.7-2.7l0,0l0,0c-2.9-0.6-7.6-1.4-7.6-1.4c-0.3-0.1-0.5-0.3-0.6-0.6c0,0-0.6-2.9-3.7-5
				c-3.3-2.2-9.5-3.5-20.5,0.1c-0.3,0.1-0.5,0-0.6-0.1c-0.3-0.3-0.3-0.4-0.3-0.6c0,0,1.3-17.9-3.8-36.4
				c-5.4-18.4-17.2-37.4-43.5-39.6c-0.4,0-0.6-0.4-0.6-0.8S73.9,0,74.3,0c27,2.3,39.2,21.8,44.5,40.6c4.6,16.1,4.2,31.7,4,35.8
				c11.1-3.3,17.3-1.9,20.7,0.4c2.9,1.9,3.8,4.4,4.2,5.4l7,1.4c0.6,0.1,1.2,0.6,1.2,1.3c0.1,0.6-0.3,1.3-0.9,1.5l-6.3,2.6
				c-2.4,15.4-18.3,25-21.1,26.5c1,56.4-49.8,73.6-49.8,73.6c-0.3,0.1-0.6,0-0.8-0.3c-0.3-0.3-0.1-0.6,0.1-0.9
				c6.1-6.5,7.6-14.6,6.9-22c-0.9-10.8-6-20.1-6.3-20.9c-9-12.3-6.5-24.4-5.6-27.6l-36.9-2c-0.3,0-0.5-0.3-0.6-0.4
				c-2.8-5.1-3.5-12.2-3.1-18.9c0.5-9.9,2.9-18.7,2.9-18.7c0.1-0.4,0.5-0.6,0.9-0.5l34.2,8.4c0.4,0.1,0.6,0.5,0.5,0.9
				s-0.5,0.6-0.9,0.5l-33.5-8.2c-0.6,2.2-2.4,9.7-2.8,17.7c-0.3,6.1,0.3,12.8,2.7,17.7l37.4,2c0.3,0,0.4,0.1,0.6,0.3
				c0.1,0.3,0.3,0.4,0.1,0.6c0,0-5,13.6,5.1,27.3c0,0,0,0,0,0.1c0,0,5.6,9.9,6.5,21.4C86.2,172.7,85.2,180.1,80.3,186.5z"/>
			<path class="st2" d="M75,1.3c0.3,0.6,1,2.6,1.2,2.6c1.2,2,2,4,2.9,6.1c2.7,6.3,3.6,13.2,2.2,19.8c-1.3,6.1-3.8,12-6.4,17.8
				s-5,11.4-6.1,17.7c-1.7,9.7,1.5,17.8,3.5,27c0.1,0.4-0.3,0.8-0.6,0.9c-0.4,0.1-0.8-0.3-0.9-0.6c-2-9.3-5.2-17.7-3.5-27.5
				c1.2-6.3,3.6-12.2,6.1-17.9c2.6-5.8,5.1-11.4,6.3-17.5c1.3-6.4,0.4-13.1-2-19.1c-0.9-2-1.9-4-2.9-6c-0.1-0.1-1.2-2.4-1.3-3.2
				c-0.1-0.6,0.3-0.9,0.4-1c0.3-0.1,0.4-0.1,0.6,0C75,0.5,75,0.9,75,1.3z M74.1,1.8L74.1,1.8L74.1,1.8L74.1,1.8z M73.9,1.8L73.9,1.8
				L73.9,1.8L73.9,1.8z"/>
			<path class="st2" d="M127.3,114.3c-4.5,1.9-15.1,5.8-25.2,5c-0.3,0-0.4,0.1-0.5,0.3c-0.1,0.3,0,0.4,0.1,0.5
				c5.8,2.6,24.4,8.7,25,7L127.3,114.3z"/>
		</g>
		<g transform="matrix(1.12403,0,0,1.12403,-200.161,-121.44)">
			<circle class="st4" cx="294.9" cy="192.1" r="1.8"/>
		</g>
		<g transform="matrix(-0.862938,0.0224103,-0.025961,-0.999663,3022.72,1839.84)">
			<path class="st5" d="M3286,1828.2c0-1.3,0.5-2.6,1.4-3.2c0.5-0.4,1.2-0.6,1.8-0.6s1.3,0.3,1.8,0.6c0.9,0.6,1.4,1.9,1.4,3.2
				c0,0.4,0.4,0.6,0.8,0.6s0.8-0.3,0.8-0.6c0-2.9-2.2-5.2-4.9-5.2c-2.6,0-4.9,2.3-4.9,5.2c0,0.4,0.4,0.6,0.8,0.6
				C3285.8,1829,3286,1828.6,3286,1828.2z"/>
		</g>
	</g>
</g>
<g id="FLAG">
	<path class="st6" d="M152.1,68.5C141.4,62.7,96,42.5,1.2,51.7c-0.6,0.1-1.2-0.3-1.5-0.6c-0.3-0.5-0.4-1.2-0.3-1.7
		c0,0,4.9-11.8,20.4-18.6c-3.8-2-10.8-5.2-17.2-5.2c-0.8,0-1.4-0.5-1.7-1.3c-0.3-0.6,0.3-1.5,0.9-1.8c0,0,70.7-33,161.7,11.3
		c0.6,0.3,1,1.2,0.9,1.8l-7.9,36.4c-0.9-0.9-1.8-1.7-2.9-2.4l0,0c-0.3-0.1-0.5-0.3-0.6-0.4C152.9,68.9,152.5,68.6,152.1,68.5
		L152.1,68.5z"/>
	<g>
		<path class="st4" d="M35.5,24.2l-0.1-2.9c0-0.3,0.1-0.4,0.3-0.5c0.1-0.1,0.3-0.3,0.5-0.3c1.8,0.1,6.5,0.3,10.8,0.3
			c4.2,0.1,7.6,3.5,7.6,7.7l0,0c0.1,4.2-3.2,7.8-7.4,8.1c-4.1,0.3-8.6,0.5-10.2,0.6c-0.3,0-0.4-0.1-0.5-0.3
			c-0.1-0.1-0.3-0.3-0.3-0.5l-0.1-2.7l5.4-0.3c0.3,0,0.5-0.3,0.5-0.5s-0.3-0.5-0.5-0.5l-5.4,0.3l-0.1-1.5h0.1l6.1-0.3
			c0.3,0,0.5-0.3,0.5-0.5s-0.3-0.5-0.5-0.5l-6.1,0.6h-0.1l-0.1-2.6l5.6-0.3c0.3,0,0.5-0.3,0.5-0.5c0-0.3-0.3-0.5-0.5-0.5l-5.6,0.3
			l-0.1-1.7l5.1-0.3c0.3,0,0.5-0.3,0.5-0.5s-0.3-0.5-0.5-0.5L35.5,24.2z"/>
		<path class="st1" d="M84.4,27.5c-3.8-1.2-10.6-4-12.9-11c0,0,2.2-0.5,4.9,0.3c3.2,1.2,10.6,4.4,11,10.9c7.4,0.6,15.4,1.9,23.6,3.7
			c-3.8-1.5-10.1-5-11.6-12.2c0,0,2.3-0.3,4.7,0.8c3.1,1.4,10.2,5.4,9.9,12c6.8,1.7,13.6,3.8,20,6.5c-3.5-2-9-6.7-9.3-14
			c0,0,2.3,0.1,4.5,1.7c2.8,1.9,9.1,7,7.6,13.6l0,0c1.7,0.8,3.5,1.7,5,2.6c1.3,0.6,2.6,1.4,3.8,2.2c0.3,0.3,0.6,0.4,1,0.6
			c0.1,0,0.1,0.1,0.3,0.1s0.1,0.1,0.3,0.1c0.1,0.1,0.1,0.1,0.3,0.3c0.1,0.1,0.3,0.3,0.3,0.4s0.1,0.3,0.1,0.4s0,0.3-0.1,0.4
			c0,0.1-0.1,0.3-0.1,0.3c-0.1,0.1-0.3,0.3-0.3,0.3c-0.3,0.3-0.5,0.3-0.8,0.3c-0.3,0-0.3,0-0.5-0.1s-0.3-0.3-0.4-0.3
			c-0.1-0.1-0.3-0.3-0.4-0.3c-0.5-0.3-0.9-0.6-1.4-0.9c-1.5-0.9-2.9-1.7-4.6-2.6c-4.6-2.4-9.3-4.4-14.5-6h-0.1l0,0
			c0.1,0.3,0.1,0.4-0.1,0.6c-5.2,8.6-17.2,7.9-17.2,7.9c1.4-6.7,9.5-8.7,12.8-9.1c0.8-0.1,1.7-0.1,2.3,0c-7-2.2-14.2-3.8-21.1-5
			c0,0.1,0,0.1-0.1,0.3c-4.5,9-16.4,9.3-16.4,9.3c0.8-6.8,8.7-9.3,12-10.2h0.1c-6.1-0.9-12-1.4-17.3-1.8c0,0.1,0,0.3-0.1,0.4
			c-4.5,9-16.4,9.3-16.4,9.3c0.6-6.3,7.6-9,11.3-10c-11.4-0.5-18.9,0-18.9,0h-0.1c0.4,4.2-4.7,6.7-4.7,6.7c-1.2-1.7-0.5-3.6,0.6-5.1
			c1-1.3,2.6-2.4,3.5-2.8c-1.2-0.5-6.1-2.6-5.2-7.2c0.9,0.1,2.7,1,4.1,2.3c1,1,1.8,2.2,1.8,3.5C56,26.9,68.3,26.1,84.4,27.5z"/>
	</g>
</g>
</svg>
