<?xml version="1.0" encoding="utf-8"?>
<!-- Generator: Adobe Illustrator 25.0.1, SVG Export Plug-In . SVG Version: 6.00 Build 0)  -->
<svg version="1.1" id="Layer_1" xmlns:serif="http://www.serif.com/"
	 xmlns="http://www.w3.org/2000/svg" xmlns:xlink="http://www.w3.org/1999/xlink" x="0px" y="0px" viewBox="0 0 165.3 189.1"
	 style="enable-background:new 0 0 165.3 189.1;" xml:space="preserve">
<style type="text/css">
	.st0{fill:none;stroke:#FFD375;stroke-width:3.5706;stroke-linecap:round;stroke-linejoin:round;stroke-miterlimit:10;}
	.st1{fill-rule:evenodd;clip-rule:evenodd;fill:#FFFFFF;}
	.st2{fill-rule:evenodd;clip-rule:evenodd;fill:#00B9BC;}
	.st3{fill:none;stroke:#00B9BC;stroke-width:1.4641;stroke-linecap:round;stroke-linejoin:round;stroke-miterlimit:10;}
	.st4{fill-rule:evenodd;clip-rule:evenodd;fill:#E86166;}
	.st5{fill-rule:evenodd;clip-rule:evenodd;}
	.st6{fill-rule:evenodd;clip-rule:evenodd;fill:#003E3F;}
</style>
<path id="FLAG-HANDLE" serif:id="FLAG HANDLE" class="st0" d="M157.2,63.9l-6.7,32.7"/>
<g id="Bird">
	<path class="st1" d="M74,1c3,4.3,7.9,12.6,7.3,24.4C81,32.5,77.9,41,73.2,50.7c0,0-9.5,13.2-2.6,35l-34.4-8.2c0,0-8.7,24.6-0.2,37
		l37.5,2.2c0,0-4.3,13.5,4.8,27.4c0,0,15.5,26.5,0.9,44.2c0,0,49.8-21.9,48.3-73.4c0,0,19.7-11.9,21.3-26.6l7.1-3.8
		c0,0-5.8-1.5-6.9-1.7c-1.1-0.3-3.9-12-25.6-5.7c0,0,1.3-34.4-12.2-54C111.2,23.2,98.9,0.8,74,1z"/>
	<g>
		<g id="BIRD">
			<path class="st2" d="M91.8,178.4c0.4-0.1,0.6-0.4,0.6-0.8c0-0.4-0.3-0.7-0.7-0.7l-7.5-0.3c-0.3,0,1.1,0.8,1,1.1
				c-0.1,0.3-1.6,0.1-1.3,0.2c1.5,0.7,3.5,0.9,5.2,0.8C90.6,178.7,91.8,178.4,91.8,178.4z M95.9,168.3c0.4,0,0.7-0.4,0.7-0.8
				c0-0.4-0.3-0.7-0.7-0.7l-10.3-0.3c-0.4,0-0.7,0.2-0.7,0.6c-0.1,0.4,0.1,0.7,0.5,0.8c1.5,0.5,4.2,0.6,6.5,0.6
				C94,168.5,95.9,168.3,95.9,168.3z M97.3,163.9c0.4-0.1,0.6-0.4,0.5-0.8c-0.1-0.4-0.4-0.6-0.7-0.6l-11,0.3c-0.4,0-0.6,0.3-0.7,0.6
				c-0.1,0.3,0.1,0.7,0.5,0.8c2.3,0.8,5.1,0.7,7.4,0.5C95.6,164.4,97.3,163.9,97.3,163.9z M95.6,160c0.4-0.1,0.7-0.4,0.6-0.8
				c0-0.4-0.4-0.7-0.8-0.7l-10.3,0.3c-0.4,0-0.6,0.3-0.7,0.6c-0.1,0.3,0.1,0.7,0.5,0.8c1.2,0.4,3.9,0.4,6.3,0.2
				C93.6,160.3,95.6,160,95.6,160z M89.8,145.8c0.4-0.1,0.7-0.4,0.6-0.8c0-0.4-0.4-0.7-0.8-0.7l-9.3,0.6c-0.4,0-0.7,0.3-0.7,0.7
				c0,0.4,0.2,0.7,0.6,0.8c1.2,0.2,3.6,0.1,5.7-0.2C88,146.1,89.8,145.8,89.8,145.8z M86,132.1c0.4-0.1,0.7-0.4,0.6-0.8
				c0-0.4-0.4-0.7-0.8-0.6l-12.6,1c-0.3,0-0.6,0.3-0.7,0.6c-0.1,0.3,0.1,0.7,0.4,0.8c0.3,0.1,0.9,0.2,1.6,0.2c1.4,0,3.6-0.2,5.7-0.4
				C83.3,132.5,86,132.1,86,132.1z M46,109.5c0.4,0,0.7-0.3,0.8-0.7c0-0.4-0.3-0.7-0.7-0.8L33.5,107c-0.4,0,0.1,0.5,0,0.9
				c-0.1,0.4-0.6,0.5-0.3,0.6c1.7,0.4,4.9,0.7,7.7,0.9C43.7,109.4,46,109.5,46,109.5z M47.6,105.8c0.4,0,0.7-0.3,0.8-0.7
				c0-0.4-0.2-0.8-0.6-0.8l-14.6-1.8c-0.4,0-0.3,0.3-0.4,0.7c-0.1,0.4-0.3,0.6,0,0.8c1.4,0.5,5.1,0.9,8.5,1.3
				C44.6,105.6,47.6,105.8,47.6,105.8z M51.2,98.8c0.4,0.1,0.8-0.2,0.8-0.6c0.1-0.4-0.2-0.8-0.6-0.8l-18.2-2.8
				c-0.4-0.1-0.1,0.1-0.2,0.5c-0.1,0.4-0.6,0.8-0.2,0.9c0.6,0.3,5.3,1,9.7,1.7C47,98.2,51.2,98.8,51.2,98.8z M83.4,74
				c0.4,0,0.7-0.2,0.8-0.6c0-0.4-0.2-0.8-0.6-0.8l-15.7-2.5c-0.4-0.1-0.2,0.2-0.3,0.6c-0.1,0.4-0.4,0.7-0.1,0.8c2,0.7,6,1.4,9.5,1.8
				C80.5,73.7,83.4,74,83.4,74z M73.7,51c-0.2-0.1-0.3-0.1-0.3-0.1c-0.3-0.2-0.4-0.6-0.2-0.9c0.1-0.3,0.5-0.5,0.8-0.4l13.8,2.7
				c0.4,0.1,0.7,0.5,0.6,0.9c-0.1,0.4-0.5,0.7-0.9,0.6c0,0-3.6-0.6-7.2-1.3c-2.9-0.5-5.1-1-6.2-1.3C74,51.1,73.8,51.1,73.7,51
				L73.7,51L73.7,51z M90.2,15.5c0.4,0,0.7-0.3,0.8-0.7c0-0.4-0.3-0.7-0.6-0.8c0,0-2.2-0.3-4.6-0.5c-2.5-0.2-4.6-0.5-5.3-0.4
				c-0.3,0.1-0.6,0.4-0.5,0.8c0,0.4,0.3,0.6,0.7,0.7L90.2,15.5z M90.4,12.8c0.4,0,0.7-0.3,0.8-0.7c0-0.4-0.3-0.8-0.7-0.8
				c0,0-2-0.2-4.4-0.4c-2.4-0.2-5.2-0.4-6.7-0.4c-0.4,0-0.1,0.1-0.1,0.5c0,0.4,0.3,0.7,0.7,0.8L90.4,12.8z"/>
			<g transform="matrix(1,0,0,1,-0.710965,-0.709128)">
				<path class="st2" d="M122.7,77.8c0,0-0.2,3.7-0.6,5.4c-0.1,0.4,0.2,0.8,0.6,0.9c0.4,0.1,0.8-0.2,0.9-0.6
					c0.4-1.8,0.6-5.6,0.6-5.6c0-0.4-0.3-0.8-0.7-0.8C123.1,77.1,122.7,77.4,122.7,77.8z"/>
			</g>
			<path class="st2" d="M66,85.1c0,0,3.9,7.9,5.9,8.1l-1.3-7.7L66,85.1z"/>
			<g transform="matrix(1,0,0,1,1.42361,-0.561334)">
				<path class="st3" d="M72.3,117.2l11.4,0.8"/>
			</g>
			<path class="st2" d="M80.8,186.6c10.4-4.4,47.2-23.6,46.1-71.6c0-0.3,0.1-0.5,0.4-0.7c0,0,18.5-9.6,20.8-26
				c0-0.3,0.2-0.5,0.5-0.6c0,0,4-1.6,6.7-2.7c0,0,0,0,0,0c0,0,0,0,0,0c-3-0.6-7.6-1.4-7.6-1.4c-0.3-0.1-0.5-0.3-0.6-0.6
				c0,0-0.6-2.9-3.7-5c-3.3-2.2-9.5-3.4-20.5,0.1c-0.2,0.1-0.5,0-0.7-0.1c-0.2-0.2-0.3-0.4-0.3-0.6c0,0,1.3-17.9-3.9-36.4
				c-5.2-18.4-17-37.3-43.3-39.5c-0.4,0-0.7-0.4-0.7-0.8c0-0.4,0.4-0.7,0.8-0.7c27,2.3,39.2,21.7,44.5,40.6
				c4.6,16.1,4.2,31.7,4,35.9c11.1-3.3,17.3-1.9,20.7,0.4c2.9,1.9,3.9,4.4,4.2,5.4l7.1,1.4c0.6,0.1,1.1,0.7,1.2,1.3
				c0.1,0.7-0.3,1.3-0.9,1.5l-6.3,2.6c-2.4,15.3-18.3,24.9-21.1,26.5c1,56.5-49.8,73.6-49.8,73.6c-0.3,0.1-0.7,0-0.8-0.3
				c-0.2-0.3-0.1-0.7,0.1-0.9c6.2-6.5,7.5-14.6,6.9-22c-0.9-10.8-6-20.1-6.3-20.8c-9-12.3-6.5-24.4-5.6-27.7l-36.9-2.1
				c-0.3,0-0.5-0.2-0.6-0.4c-2.8-5.1-3.4-12.2-3.1-18.9c0.5-9.9,3-18.7,3-18.7c0.1-0.4,0.5-0.6,0.9-0.5l34.2,8.4
				c0.4,0.1,0.6,0.5,0.5,0.9c-0.1,0.4-0.5,0.6-0.9,0.5l-33.5-8.2c-0.6,2.2-2.4,9.7-2.8,17.7c-0.3,6.2,0.2,12.8,2.7,17.7l37.4,2.1
				c0.2,0,0.4,0.1,0.6,0.3c0.1,0.2,0.2,0.4,0.1,0.7c0,0-5,13.6,5.1,27.3c0,0,0,0,0,0.1c0,0,5.6,9.9,6.5,21.4
				C86.7,172.7,85.7,180.2,80.8,186.6z"/>
			<path class="st2" d="M75.4,1.4c0.2,0.6,1,2.5,1.1,2.6c1.1,2,2.1,4,3,6.1c2.7,6.3,3.6,13.2,2.2,19.9c-1.3,6.2-3.9,12-6.4,17.8
				c-2.5,5.7-5,11.4-6.1,17.6c-1.7,9.7,1.5,17.8,3.5,27c0.1,0.4-0.2,0.8-0.6,0.9c-0.4,0.1-0.8-0.2-0.9-0.6c-2-9.3-5.2-17.7-3.5-27.5
				c1.1-6.3,3.6-12.1,6.2-17.9c2.5-5.7,5.1-11.4,6.3-17.5c1.3-6.4,0.4-13-2.1-19.1c-0.9-2.1-1.9-4-2.9-6c-0.1-0.1-1.1-2.4-1.3-3.2
				c-0.1-0.6,0.2-0.9,0.4-1c0.2-0.1,0.4-0.1,0.7,0C75.4,0.6,75.5,1,75.4,1.4z M74.5,1.8L74.5,1.8L74.5,1.8L74.5,1.8z M74.4,1.8
				L74.4,1.8L74.4,1.8L74.4,1.8z"/>
			<path class="st2" d="M127.8,114.3c-4.5,1.9-15.1,5.7-25.2,5c-0.2,0-0.4,0.1-0.5,0.3c-0.1,0.2,0,0.4,0.1,0.5
				c5.8,2.6,24.5,8.7,24.9,7L127.8,114.3z"/>
		</g>
		<g transform="matrix(1.12403,0,0,1.12403,-200.161,-121.44)">
			<circle class="st4" cx="295.3" cy="192.1" r="1.8"/>
		</g>
		<g transform="matrix(-0.862938,0.0224103,-0.025961,-0.999663,3022.72,1839.84)">
			<path class="st5" d="M3285.5,1828.2c0-1.3,0.5-2.5,1.4-3.2c0.5-0.4,1.1-0.7,1.8-0.7s1.3,0.3,1.8,0.7c0.9,0.7,1.4,1.9,1.4,3.2
				c0,0.4,0.4,0.7,0.8,0.7s0.8-0.3,0.8-0.7c0-3-2.2-5.3-4.8-5.3c-2.6,0-4.8,2.3-4.8,5.3c0,0.4,0.4,0.7,0.8,0.7
				C3285.2,1829,3285.5,1828.6,3285.5,1828.2z"/>
		</g>
	</g>
</g>
<g id="FLAG">
	<path class="st6" d="M152.7,68.6c-10.8-5.8-56.2-26-150.9-16.8c-0.6,0.1-1.1-0.2-1.5-0.7C0,50.6-0.1,50,0.1,49.5
		c0,0,4.9-11.8,20.4-18.5c-3.8-2.1-10.7-5.3-17.1-5.3c-0.8,0-1.4-0.5-1.6-1.3c-0.2-0.7,0.2-1.5,0.9-1.8c0,0,70.7-33,161.7,11.3
		c0.7,0.3,1,1.1,0.9,1.8l-7.9,36.3c-0.9-0.9-1.8-1.6-3-2.4l0,0c-0.2-0.1-0.5-0.3-0.7-0.4C153.4,68.9,153,68.7,152.7,68.6L152.7,68.6
		z"/>
	<g>
		<path class="st4" d="M36,24.3l-0.1-2.9c0-0.2,0.1-0.4,0.2-0.5c0.1-0.1,0.3-0.2,0.5-0.2c1.8,0.1,6.5,0.2,10.7,0.3
			c4.2,0.1,7.5,3.5,7.6,7.7c0,0,0,0,0,0c0.1,4.2-3.2,7.8-7.4,8.1c-4.1,0.3-8.6,0.5-10.3,0.6c-0.2,0-0.4-0.1-0.5-0.2
			c-0.1-0.1-0.2-0.3-0.2-0.5L36.4,34l5.4-0.3c0.3,0,0.5-0.2,0.5-0.5c0-0.3-0.2-0.5-0.5-0.5l-5.4,0.3l-0.1-1.5c0,0,0.1,0,0.1,0
			l6.2-0.3c0.3,0,0.5-0.2,0.5-0.5c0-0.3-0.2-0.5-0.5-0.5l-6.2,0.3c0,0-0.1,0-0.1,0l-0.1-2.6l5.6-0.3c0.3,0,0.5-0.2,0.5-0.5
			c0-0.3-0.2-0.5-0.5-0.5l-5.6,0.3l-0.1-1.6l5.1-0.2c0.3,0,0.5-0.2,0.5-0.5c0-0.3-0.2-0.5-0.5-0.5L36,24.3z"/>
		<path class="st1" d="M84.9,27.6c-3.9-1.1-10.6-4-12.9-11c0,0,2.2-0.5,4.8,0.3c3.2,1.1,10.6,4.3,11,10.9c7.4,0.7,15.4,1.9,23.6,3.7
			c-3.8-1.5-10.1-5-11.6-12.1c0,0,2.3-0.3,4.7,0.8c3.1,1.4,10.2,5.4,9.9,12c6.8,1.6,13.6,3.8,20,6.5c-3.5-2.1-9-6.7-9.4-13.9
			c0,0,2.3,0.1,4.5,1.6c2.8,1.9,9.1,7,7.6,13.6l0,0c1.7,0.8,3.4,1.6,5,2.5c1.3,0.7,2.5,1.4,3.8,2.2c0.3,0.2,0.7,0.4,1,0.6
			c0.1,0,0.1,0.1,0.2,0.1c0.1,0,0.1,0.1,0.2,0.1c0.1,0.1,0.1,0.1,0.2,0.2c0.1,0.1,0.2,0.3,0.2,0.4c0,0.1,0.1,0.3,0.1,0.4
			c0,0.1,0,0.3-0.1,0.4c0,0.1-0.1,0.2-0.1,0.3c-0.1,0.1-0.2,0.2-0.3,0.3c-0.2,0.2-0.5,0.3-0.8,0.3c-0.2,0-0.3,0-0.5-0.1
			c-0.2-0.1-0.3-0.2-0.4-0.2c-0.1-0.1-0.3-0.2-0.4-0.3c-0.5-0.3-0.9-0.6-1.4-0.9c-1.5-0.9-3-1.7-4.6-2.5c-4.6-2.4-9.4-4.3-14.4-6
			l-0.1,0c0,0,0,0,0,0c0.1,0.2,0.1,0.4-0.1,0.6c-5.3,8.6-17.2,7.9-17.2,7.9c1.4-6.7,9.5-8.7,12.8-9.1c0.8-0.1,1.6-0.1,2.3,0
			c-7-2.2-14.2-3.8-21.1-5c0,0.1,0,0.1-0.1,0.2c-4.5,9-16.4,9.3-16.4,9.3c0.8-6.8,8.7-9.4,12-10.2c0,0,0.1,0,0.1,0
			c-6.1-0.9-12-1.4-17.3-1.8c0,0.1,0,0.3-0.1,0.4c-4.5,9-16.4,9.3-16.4,9.3c0.7-6.3,7.6-9,11.2-10c-11.4-0.5-19,0-19,0
			c0,0-0.1,0-0.1,0c0.4,4.2-4.7,6.7-4.7,6.7c-1.2-1.7-0.5-3.6,0.6-5.1c1-1.3,2.5-2.4,3.4-2.8c-1.2-0.5-6.1-2.6-5.3-7.2
			c0.9,0.1,2.7,1,4.1,2.3c1,1,1.8,2.2,1.8,3.5C56.5,26.9,68.8,26.2,84.9,27.6z"/>
	</g>
</g>
</svg>
