<?xml version="1.0" encoding="utf-8"?>
<!-- Generator: Adobe Illustrator 25.0.1, SVG Export Plug-In . SVG Version: 6.00 Build 0)  -->
<svg version="1.1" id="Layer_1" xmlns:serif="http://www.serif.com/"
	 xmlns="http://www.w3.org/2000/svg" xmlns:xlink="http://www.w3.org/1999/xlink" x="0px" y="0px" viewBox="0 0 297.4 174.3"
	 style="enable-background:new 0 0 297.4 174.3;" xml:space="preserve">
<style type="text/css">
	.st0{fill-rule:evenodd;clip-rule:evenodd;fill:#009092;}
	.st1{fill-rule:evenodd;clip-rule:evenodd;fill:#7CDADC;}
	.st2{fill-rule:evenodd;clip-rule:evenodd;fill:#FFFFFF;}
	.st3{fill-rule:evenodd;clip-rule:evenodd;fill:#DE7861;}
	.st4{fill-rule:evenodd;clip-rule:evenodd;fill:#8F3536;}
	.st5{fill-rule:evenodd;clip-rule:evenodd;fill:#AB494A;}
	.st6{fill-rule:evenodd;clip-rule:evenodd;fill:#4B0000;}
	.st7{fill-rule:evenodd;clip-rule:evenodd;fill:#E86166;}
</style>
<g id="LAPTOP" transform="matrix(1,0,0,1,176.966,-102.722)">
	<path class="st0" d="M-171.2,127.9l-5.8,5.4l19,138.7l121,5l157.4-5v-17.7L-37,258.1l-111.8-3.8L-171.2,127.9z"/>
	<path class="st1" d="M-171.2,127.9L5.4,140.7l27.9,105l87.2,8.6L-37,259.2l-111.8-4.9L-171.2,127.9z"/>
	<path class="st2" d="M33.4,245.8l-156.4,8.4l86,3.8l157.4-3.7v2.7l-156.3,3.6v16.4l-1.1,0l-1.1,0v-16.4l-110.8-4.8
		c-0.6,0-1.2-0.5-1.3-1.1l-21.1-126.7l2.6,0.2l20.9,125l1.4,0.1l178.9-9.5c0.3,1,0.5,2.1,0.6,2.1C33.3,245.7,33.3,245.7,33.4,245.8z
		"/>
	<path class="st2" d="M-161.5,136.9l20.5,108.8l165.5-6.6l-25.1-93.5L-161.5,136.9z"/>
	<g transform="matrix(1,6.93889e-18,-6.93889e-18,1,-11.9994,2.17959)">
		<path class="st1" d="M-120.1,267.5c0-0.1,0-0.2,0-0.3l0.3-9.2c0-0.1,0-0.2,0-0.2l2.2,0.1c0,0.1,0,0.1,0,0.2l-0.3,9.2
			c0,0.1,0,0.2-0.1,0.4L-120.1,267.5z M-124.1,267.3c0-0.1,0-0.2,0-0.2l0.3-9.2c0-0.1,0-0.2,0-0.3l2.1,0.1c0,0.1,0,0.2,0,0.2
			l-0.3,9.2c0,0.1,0,0.2,0,0.3L-124.1,267.3z M-128.1,267.1c0,0,0-0.1,0-0.2l0.3-9.2c0-0.1,0-0.2,0.1-0.3l2.1,0.1c0,0.1,0,0.2,0,0.3
			l-0.3,9.2c0,0.1,0,0.1,0,0.2L-128.1,267.1z M-132.1,266.9C-132.1,266.8-132.1,266.8-132.1,266.9l0.3-9.3c0-0.1,0-0.2,0.1-0.3
			l2.1,0.1c0,0.1,0,0.2,0,0.3l-0.3,9.2c0,0,0,0.1,0,0.1L-132.1,266.9z M-136.1,266.7l0.3-9.2c0-0.1,0-0.3,0.1-0.4l2.1,0.1
			c0,0.1,0,0.2,0,0.3l-0.3,9.2c0,0,0,0,0,0L-136.1,266.7z"/>
	</g>
	<g>
		<g>
			<g transform="matrix(1,0,0,1,186.624,-82.4787)">
				<path class="st3" d="M-237.8,293.6c0,0-2.4-22-3.5-32c-0.3-2.8,1.4-5.3,4.1-6.1c2.1-0.6,4-1.1,4-1.1s-1-9.5,6.3-9.1
					c1.3,0.1,2.5,0.6,3.4,1.6c0.5,0.5,0.9,1.1,1.2,2c0,0,1.5-5.8,7.8-3.6c0,0,2.2,0.4,2.5,3.2c0,0,1.1-4.3,6.3-2.3
					c0,0,2.1,0.7,2.6,4.3c0,0,0-3.3,3.9-3.3c1.3,0,3.1,0.5,3.7,8.6l2.8,36.5L-237.8,293.6z"/>
				<g>
					<path class="st4" d="M-213.1,265.1c0.1-1.2,0.1-3,0-5c-0.2-4.8-0.7-10.9-0.9-14.2c0-0.3-0.1-0.7-0.1-0.7
						c1.1,0.4,1.8,1.3,2.1,2.6c0,0,0,0.3,0,0.5c0.3,3.4,0.6,8,0.7,11.7c0.1,2,0.1,3.8,0,5.1c0.3,1.2,0.8,2,1.4,2.5
						c0.9,0.8,2.1,0.8,3,0.8c2.3-0.1,2.9-2.1,3-2.6l-1.2-18.3l-0.1-1.2c1,0.7,1.7,2.2,2.1,3.6l0,0.7l1,15.2c0,0.1,0,0.1,0,0.2
						c0.4,0.3,1.2,0.8,2,1.1c0.6,0.2,1.4,0.4,2,0.1c0.6-0.2,1-0.7,1.6-1.4c1.4-1.8,1.6-3.9,1.6-3.9l0.2,4.4c0,0-1,1.8-2.2,2.4
						c-1,0.5-2,0.6-3,0.4c-1.2-0.2-2.3-0.8-3-1.3c-0.6,1.1-1.9,2.4-4.1,2.5c-1.3,0.1-2.9-0.1-4.2-1.2c-0.3-0.3-0.7-0.6-1-1
						c-1.2,2.1-3.9,3.2-6.2,2.3c-1-0.4-2-1.2-2.6-2.5c-0.1,0.3-0.2,0.6-0.3,0.8c0.1,0.1,0.3,0.2,0.3,0.2c0.6,0.5,1.1,0.9,1.6,1.4
						c2.1,1.8,4.2,3.6,5.8,5.8c0.4,0.5,0.7,1,1.1,1.5c0.5-0.4,0.9-0.8,1.5-1.1c1.7-1.2,3.5-2,5.5-2.6c0.5-0.1,1,0.2,1.1,0.6
						c0.1,0.5-0.2,1-0.6,1.1c-1.8,0.5-3.4,1.2-5,2.3c-0.6,0.4-1.1,0.8-1.6,1.3c0.1,0.2,0.2,0.4,0.3,0.6c0.5,1,0.9,2,1.1,3.1
						c0.2,0.8,0.3,1.6,0.2,2.4c-0.1,1-0.5,2-1.3,2.7c-1.6,1.3-4.1,0.6-5.1-1.1c-0.8-1.3-0.5-3.1,0.1-4.4c0.5-1.1,1.1-2.1,1.9-3
						c0.2-0.2,0.4-0.5,0.6-0.7c-0.4-0.6-0.7-1.2-1.2-1.7c-1.6-2-3.6-3.8-5.6-5.5c-0.5-0.5-1.1-0.9-1.6-1.3c0,0-0.1-0.1-0.2-0.1
						c-0.9,0.9-2.2,1.1-3,1.1c-4.2,0.2-5-3.5-5-3.5c-0.1-0.5,0.2-1,0.7-1.1c0.5-0.1,1,0.2,1.1,0.7c0,0,0.6,2.2,3.1,2.1
						c0.5,0,1.3-0.2,1.9-0.7c0.6-0.6,1-1.8,0.6-3.8c-0.1-0.5,0.3-1,0.8-1c0.1,0,0.1,0,0.2,0c0.1-0.3,0.4-0.5,0.8-0.5
						c0.5,0,0.9,0.3,1,0.8c0.2,2.6,1.2,4,2.4,4.5c1.7,0.7,3.8-0.5,4.3-2.4c0.1-0.2,0.1-0.6,0.1-1
						C-213.1,265.3-213.1,265.2-213.1,265.1z M-212.6,280.6l-0.1,0.1c-0.6,0.8-1.2,1.6-1.6,2.5c-0.4,0.8-0.7,1.9-0.2,2.7
						c0.5,0.8,1.6,1.3,2.4,0.6c0.4-0.4,0.6-1,0.6-1.5c0.1-0.6,0-1.2-0.2-1.8C-211.9,282.4-212.2,281.5-212.6,280.6z M-222.5,248.2
						c-0.5-1-1.1-1.7-1.9-2.1l0,0.6l0.5,7.9c0,0.5,0.5,0.9,1,0.9c0.5,0,0.9-0.5,0.9-1L-222.5,248.2z"/>
					<path class="st4" d="M-217.4,259.3c0.1,0.5,1,6.8-15.6,10.3c-0.5,0.1-1-0.2-1.1-0.7c-0.1-0.5,0.2-1,0.7-1.1
						c5.2-1.2,10.6-3.4,12.3-4.9c2.1-1.8,1.9-3.3,1.9-3.3l0-0.1c-0.1-1.2-0.8-2.1-1.7-2.7c-1.1-0.8-2.5-1.2-4-1.6
						c-2.6-0.6-5.5-0.6-7.5-0.6c-0.2,0-0.7,0-0.7,0l-0.1-1.8c0,0,0.4,0,0.6,0c2.2-0.1,5.3,0,8.1,0.6
						C-220.9,254.2-217.8,256-217.4,259.3z"/>
				</g>
			</g>
			<g transform="matrix(1,0,0,1,-243.199,-71.5408)">
				<path class="st5" d="M113.4,284.7c0,0-2.4-22-3.5-32c-0.3-2.8,1.4-5.3,4.1-6.1c2.1-0.6,4-1.1,4-1.1s-1-9.5,6.3-9.1
					c1.3,0.1,2.5,0.6,3.4,1.6c0.5,0.5,0.9,1.1,1.2,2c0,0,1.5-5.8,7.8-3.6c0,0,2.2,0.4,2.5,3.2c0,0,1.1-4.3,6.3-2.3
					c0,0,2.1,0.7,2.6,4.3c0,0,0-3.3,3.9-3.3c1.3,0,3.1,0.5,3.7,8.6l2.8,36.5L113.4,284.7z"/>
				<g>
					<path class="st6" d="M138.1,256.2c0.1-1.2,0.1-3,0-5c-0.2-4.8-0.7-10.9-0.9-14.2c0-0.3-0.1-0.7-0.1-0.7
						c1.1,0.4,1.8,1.3,2.1,2.6c0,0,0,0.3,0,0.5c0.3,3.4,0.6,8,0.7,11.7c0.1,2,0.1,3.8,0,5.1c0.3,1.2,0.8,2,1.4,2.5
						c0.9,0.8,2.1,0.8,3,0.8c2.3-0.1,2.9-2.1,3-2.6l-1.2-18.3l-0.1-1.2c1,0.7,1.7,2.2,2.1,3.6l0,0.7l1,15.2c0,0.1,0,0.1,0,0.2
						c0.4,0.3,1.2,0.8,2,1.1c0.6,0.2,1.4,0.4,2,0.1c0.6-0.2,1-0.7,1.6-1.4c1.4-1.8,1.6-3.9,1.6-3.9l0.2,4.4c0,0-1,1.8-2.2,2.4
						c-1,0.5-2,0.6-3,0.4c-1.2-0.2-2.3-0.8-3-1.3c-0.6,1.1-1.9,2.4-4.1,2.5c-1.3,0.1-2.9-0.1-4.2-1.2c-0.3-0.3-0.7-0.6-1-1
						c-1.2,2.1-3.9,3.2-6.2,2.3c-1-0.4-2-1.2-2.6-2.5c-0.1,0.3-0.2,0.6-0.3,0.8c0.1,0.1,0.3,0.2,0.3,0.2c0.6,0.5,1.1,0.9,1.6,1.4
						c2.1,1.8,4.2,3.6,5.8,5.8c0.4,0.5,0.7,1,1.1,1.5c0.5-0.4,0.9-0.8,1.5-1.1c1.7-1.2,3.5-2,5.5-2.6c0.5-0.1,1,0.2,1.1,0.6
						c0.1,0.5-0.2,1-0.6,1.1c-1.8,0.5-3.4,1.2-5,2.3c-0.6,0.4-1.1,0.8-1.6,1.3c0.1,0.2,0.2,0.4,0.3,0.6c0.5,1,0.9,2,1.1,3.1
						c0.2,0.8,0.3,1.6,0.2,2.4c-0.1,1-0.5,2-1.3,2.7c-1.6,1.3-4.1,0.6-5.1-1.1c-0.8-1.3-0.5-3.1,0.1-4.4c0.5-1.1,1.1-2.1,1.9-3
						c0.2-0.2,0.4-0.5,0.6-0.7c-0.4-0.6-0.7-1.2-1.2-1.7c-1.6-2-3.6-3.8-5.6-5.5c-0.5-0.5-1.1-0.9-1.6-1.3c0,0-0.1-0.1-0.2-0.1
						c-0.9,0.9-2.2,1.1-3,1.1c-4.2,0.2-5-3.5-5-3.5c-0.1-0.5,0.2-1,0.7-1.1c0.5-0.1,1,0.2,1.1,0.7c0,0,0.6,2.2,3.1,2.1
						c0.5,0,1.3-0.2,1.9-0.7c0.6-0.6,1-1.8,0.6-3.8c-0.1-0.5,0.3-1,0.8-1c0.1,0,0.1,0,0.2,0c0.1-0.3,0.4-0.5,0.8-0.5
						c0.5,0,0.9,0.3,1,0.8c0.2,2.6,1.2,4,2.4,4.5c1.7,0.7,3.8-0.5,4.3-2.4c0.1-0.2,0.1-0.6,0.1-1
						C138.1,256.4,138.1,256.3,138.1,256.2z M138.5,271.7l-0.1,0.1c-0.6,0.8-1.2,1.6-1.6,2.5c-0.4,0.8-0.7,1.9-0.2,2.7
						c0.5,0.8,1.6,1.3,2.4,0.6c0.4-0.4,0.6-1,0.6-1.5c0.1-0.6,0-1.2-0.2-1.8C139.3,273.4,138.9,272.5,138.5,271.7z M128.7,239.3
						c-0.5-1-1.1-1.7-1.9-2.1l0,0.6l0.5,7.9c0,0.5,0.5,0.9,1,0.9c0.5,0,0.9-0.5,0.9-1L128.7,239.3z"/>
					<path class="st6" d="M133.7,250.3c0.1,0.5,1,6.8-15.6,10.3c-0.5,0.1-1-0.2-1.1-0.7c-0.1-0.5,0.2-1,0.7-1.1
						c5.2-1.2,10.6-3.4,12.3-4.9c2.1-1.8,1.9-3.3,1.9-3.3l0-0.1c-0.1-1.2-0.8-2.1-1.7-2.7c-1.1-0.8-2.5-1.2-4-1.6
						c-2.6-0.6-5.5-0.6-7.5-0.6c-0.2,0-0.7,0-0.7,0l-0.1-1.8c0,0,0.4,0,0.6,0c2.2-0.1,5.3,0,8.1,0.6
						C130.3,245.3,133.4,247.1,133.7,250.3z"/>
				</g>
			</g>
			<g transform="matrix(1,0,0,1,-0.539057,1.70894)">
				<path class="st6" d="M-84.9,224.8c0,0-2.4-22-3.5-32c-0.3-2.8,1.4-5.3,4.1-6.1c2.1-0.6,4-1.1,4-1.1s-1-9.5,6.3-9.1
					c1.3,0.1,2.5,0.6,3.4,1.6c0.5,0.5,0.9,1.1,1.2,2c0,0,1.5-5.8,7.8-3.6c0,0,2.2,0.4,2.5,3.2c0,0,1.1-4.3,6.3-2.3
					c0,0,2.1,0.7,2.6,4.3c0,0,0-3.3,3.9-3.3c1.3,0,3.5,0.9,4.5,8.4l3.3,36.5L-84.9,224.8z"/>
				<g>
					<path class="st5" d="M-60.2,196.4c0.1-1.2,0.1-3,0-5c-0.2-4.8-0.7-10.9-0.9-14.2c0-0.3-0.1-0.7-0.1-0.7
						c1.1,0.4,1.8,1.3,2.1,2.6c0,0,0,0.3,0,0.5c0.3,3.4,0.6,8,0.7,11.7c0.1,2,0.1,3.8,0,5.1c0.3,1.2,0.8,2,1.4,2.5
						c0.9,0.8,2.1,0.8,3,0.8c2.3-0.1,2.9-2.1,3-2.6l-1.2-18.3l-0.1-1.2c1,0.7,1.7,2.2,2.1,3.6l0,0.7l1,15.2c0,0.1,0,0.1,0,0.2
						c0.4,0.3,1.2,0.8,2,1.1c0.6,0.2,1.4,0.4,2,0.1c0.6-0.2,1.3-0.7,1.8-1.4c1.4-1.6,2.2-3.7,2.2-3.7l0.3,3.3c0,0-0.9,2.6-3.1,3.3
						c-1,0.3-2,0.6-3,0.4c-1.2-0.2-2.3-0.8-3-1.3c-0.6,1.1-1.9,2.4-4.1,2.5c-1.3,0.1-2.9-0.1-4.2-1.2c-0.3-0.3-0.7-0.6-1-1
						c-1.2,2.1-3.9,3.2-6.2,2.3c-1-0.4-2-1.2-2.6-2.5c-0.1,0.3-0.2,0.6-0.3,0.8c0.1,0.1,0.3,0.2,0.3,0.2c0.6,0.5,1.1,0.9,1.6,1.4
						c2.1,1.8,4.2,3.6,5.8,5.8c0.4,0.5,0.7,1,1.1,1.5c0.5-0.4,0.9-0.8,1.5-1.1c1.7-1.2,3.5-2,5.5-2.6c0.5-0.1,1,0.2,1.1,0.6
						c0.1,0.5-0.2,1-0.6,1.1c-1.8,0.5-3.4,1.2-5,2.3c-0.6,0.4-1.1,0.8-1.6,1.3c0.1,0.2,0.2,0.4,0.3,0.6c0.5,1,0.9,2,1.1,3.1
						c0.2,0.8,0.3,1.6,0.2,2.4c-0.1,1-0.5,2-1.3,2.7c-1.6,1.3-4.1,0.6-5.1-1.1c-0.8-1.3-0.5-3.1,0.1-4.4c0.5-1.1,1.1-2.1,1.9-3
						c0.2-0.2,0.4-0.5,0.6-0.7c-0.4-0.6-0.7-1.2-1.2-1.7c-1.6-2-3.6-3.8-5.6-5.5c-0.5-0.5-1.1-0.9-1.6-1.3c0,0-0.1-0.1-0.2-0.1
						c-0.9,0.9-2.2,1.1-3,1.1c-4.2,0.2-5-3.5-5-3.5c-0.1-0.5,0.2-1,0.7-1.1c0.5-0.1,1,0.2,1.1,0.7c0,0,0.6,2.2,3.1,2.1
						c0.5,0,1.3-0.2,1.9-0.7c0.6-0.6,1-1.8,0.6-3.8c-0.1-0.5,0.3-1,0.8-1c0.1,0,0.1,0,0.2,0c0.1-0.3,0.4-0.5,0.8-0.5
						c0.5,0,0.9,0.3,1,0.8c0.2,2.6,1.2,4,2.4,4.5c1.7,0.7,3.8-0.5,4.3-2.4c0.1-0.2,0.1-0.6,0.1-1C-60.2,196.5-60.2,196.4-60.2,196.4
						z M-59.7,211.8l-0.1,0.1c-0.6,0.8-1.2,1.6-1.6,2.5c-0.4,0.8-0.7,1.9-0.2,2.7c0.5,0.8,1.6,1.3,2.4,0.6c0.4-0.4,0.6-1,0.6-1.5
						c0.1-0.6,0-1.2-0.2-1.8C-59,213.6-59.3,212.7-59.7,211.8z M-69.5,179.4c-0.5-1-1.1-1.7-1.9-2.1l0,0.6l0.5,7.9
						c0,0.5,0.5,0.9,1,0.9c0.5,0,0.9-0.5,0.9-1L-69.5,179.4z"/>
					<path class="st5" d="M-64.5,190.5c0.1,0.5,1,6.8-15.6,10.3c-0.5,0.1-1-0.2-1.1-0.7c-0.1-0.5,0.2-1,0.7-1.1
						c5.2-1.2,10.6-3.4,12.3-4.9c2.1-1.8,1.9-3.3,1.9-3.3l0-0.1c-0.1-1.2-0.8-2.1-1.7-2.7c-1.1-0.8-2.5-1.2-4-1.6
						c-2.6-0.6-5.5-0.6-7.5-0.6c-0.2,0-0.7,0-0.7,0l-0.1-1.8c0,0,0.4,0,0.6,0c2.2-0.1,5.3,0,8.1,0.6
						C-68,185.4-64.9,187.2-64.5,190.5z"/>
				</g>
			</g>
		</g>
		<path class="st7" d="M-55.7,157.9l-4.2,8.6c-0.3,0.5,0,1.2,0.5,1.5c0.5,0.3,1.2,0,1.5-0.5l4.2-8.6c0.3-0.5,0-1.2-0.5-1.5
			C-54.8,157.1-55.5,157.4-55.7,157.9z M-82.3,158.6l4.3,8.8c0.3,0.5,0.9,0.8,1.5,0.5c0.5-0.3,0.8-0.9,0.5-1.5l-4.3-8.8
			c-0.3-0.5-0.9-0.8-1.5-0.5C-82.4,157.4-82.6,158-82.3,158.6z M-68,155.2l-0.2,9.9c0,0.6,0.5,1.1,1.1,1.1c0.6,0,1.1-0.5,1.1-1.1
			l0.2-9.9c0-0.6-0.5-1.1-1.1-1.1C-67.5,154.1-68,154.6-68,155.2z"/>
		<path class="st7" d="M-112.6,224l-0.9,8.9c-0.1,0.6,0.4,1.1,1,1.2c0.6,0.1,1.1-0.4,1.2-1l0.9-8.9c0.1-0.6-0.4-1.1-1-1.2
			C-112,223-112.6,223.4-112.6,224z M-101.5,224.8l0.6,7c0.1,0.6,0.6,1.1,1.2,1c0.6-0.1,1.1-0.6,1-1.2l-0.6-7
			c-0.1-0.6-0.6-1.1-1.2-1C-101.1,223.7-101.6,224.2-101.5,224.8z M-124.2,222.4l-5.3,7.2c-0.4,0.5-0.2,1.2,0.2,1.5
			c0.5,0.4,1.2,0.2,1.5-0.2l5.3-7.2c0.4-0.5,0.2-1.2-0.2-1.5C-123.2,221.8-123.8,221.9-124.2,222.4z"/>
		<path class="st7" d="M-25,222.3l0.6,7.5c0,0.6,0.6,1.1,1.2,1c0.6,0,1.1-0.6,1-1.2l-0.6-7.5c0-0.6-0.6-1.1-1.2-1
			C-24.6,221.1-25,221.7-25,222.3z M-14.3,222.3l3.1,7.4c0.2,0.6,0.9,0.8,1.4,0.6c0.6-0.2,0.8-0.9,0.6-1.4l-3.1-7.4
			c-0.2-0.6-0.9-0.8-1.4-0.6C-14.2,221.1-14.5,221.7-14.3,222.3z M-5.7,219.5l7,6.2c0.5,0.4,1.1,0.4,1.6-0.1
			c0.4-0.5,0.4-1.1-0.1-1.6l-7-6.2c-0.5-0.4-1.1-0.4-1.6,0.1C-6.2,218.4-6.2,219.1-5.7,219.5z"/>
	</g>
</g>
<g transform="matrix(-1,0,0,1,2154.12,-130.343)">
	<path class="st7" d="M2042.3,135.5l3.8,13.6l4.9-0.1l-1.2-15.1L2042.3,135.5z M2079.5,135.5L2075,147l4.4,2.2l5.8-11.2
		L2079.5,135.5z M2060.4,130.3l0,15.4h5.1l1.9-14.4L2060.4,130.3z"/>
</g>
</svg>
