<?xml version="1.0" encoding="utf-8"?>
<!-- Generator: Adobe Illustrator 25.0.1, SVG Export Plug-In . SVG Version: 6.00 Build 0)  -->
<svg version="1.1" id="Layer_1" xmlns:serif="http://www.serif.com/"
	 xmlns="http://www.w3.org/2000/svg" xmlns:xlink="http://www.w3.org/1999/xlink" x="0px" y="0px" viewBox="0 0 297.4 174.3"
	 style="enable-background:new 0 0 297.4 174.3;" xml:space="preserve">
<style type="text/css">
	.st0{fill-rule:evenodd;clip-rule:evenodd;fill:#9690A7;}
	.st1{fill-rule:evenodd;clip-rule:evenodd;fill:#D2D0DA;}
	.st2{fill-rule:evenodd;clip-rule:evenodd;fill:#FFFFFF;}
	.st3{fill-rule:evenodd;clip-rule:evenodd;fill:#B6B2C2;}
	.st4{fill-rule:evenodd;clip-rule:evenodd;fill:#88819B;}
	.st5{fill-rule:evenodd;clip-rule:evenodd;fill:#60577A;}
	.st6{fill-rule:evenodd;clip-rule:evenodd;fill:#AFABBD;}
</style>
<g id="LAPTOP" transform="matrix(1,0,0,1,176.966,-102.722)">
	<path class="st0" d="M-120.5,140.1l-4.2,3.9l13.7,99.8l87.1,3.6l113.3-3.6v-12.7L-24,233.8l-80.4-2.7L-120.5,140.1z"/>
	<path class="st1" d="M-120.5,140.1l127.1,9.2l20.1,75.6l62.7,6.2L-24,234.6l-80.4-3.5L-120.5,140.1z"/>
	<path class="st2" d="M26.7,225l-112.5,6l61.9,2.7L89.4,231v1.9l-112.5,2.6v11.8H-24h-0.8v-11.8l-79.7-3.5c-0.4,0-0.9-0.4-0.9-0.8
		l-15.2-91.2l1.9,0.1l15,89.9l1,0.1L26,223.5c0.2,0.7,0.4,1.5,0.4,1.5C26.6,224.9,26.6,224.9,26.7,225z"/>
	<path class="st2" d="M-113.6,146.6l14.8,78.3l119.1-4.7L2.2,152.9L-113.6,146.6z"/>
	<g transform="matrix(1,6.93889e-18,-6.93889e-18,1,-11.9994,2.17959)">
		<path class="st1" d="M-80.4,240c0-0.1,0-0.1,0-0.2l0.2-6.6c0-0.1,0-0.1,0-0.1l1.6,0.1c0,0.1,0,0.1,0,0.1l-0.2,6.6
			c0,0.1,0,0.1-0.1,0.3L-80.4,240z M-83.3,239.8c0-0.1,0-0.1,0-0.1l0.2-6.6c0-0.1,0-0.1,0-0.2l1.5,0.1c0,0.1,0,0.1,0,0.1l-0.2,6.6
			c0,0.1,0,0.1,0,0.2L-83.3,239.8z M-86.2,239.7v-0.1l0.2-6.6c0-0.1,0-0.1,0.1-0.2l1.5,0.1c0,0.1,0,0.1,0,0.2l-0.2,6.6
			c0,0.1,0,0.1,0,0.1L-86.2,239.7z M-89,239.5L-89,239.5l0.2-6.7c0-0.1,0-0.1,0.1-0.2l1.5,0.1c0,0.1,0,0.1,0,0.2l-0.2,6.6v0.1
			L-89,239.5z M-91.9,239.4l0.2-6.6c0-0.1,0-0.2,0.1-0.3l1.5,0.1c0,0.1,0,0.1,0,0.2l-0.2,6.6l0,0H-91.9z"/>
	</g>
	<g>
		<g>
			<g transform="matrix(1,0,0,1,186.624,-82.4787)">
				<path class="st3" d="M-220.8,282.5c0,0-1.7-15.8-2.5-23c-0.2-2,1-3.8,3-4.4c1.5-0.4,2.9-0.8,2.9-0.8s-0.7-6.8,4.5-6.5
					c0.9,0.1,1.8,0.4,2.4,1.2c0.4,0.4,0.6,0.8,0.9,1.4c0,0,1.1-4.2,5.6-2.6c0,0,1.6,0.3,1.8,2.3c0,0,0.8-3.1,4.5-1.7
					c0,0,1.5,0.5,1.9,3.1c0,0,0-2.4,2.8-2.4c0.9,0,2.2,0.4,2.7,6.2l2,26.3L-220.8,282.5z"/>
				<g>
					<path class="st4" d="M-203,262c0.1-0.9,0.1-2.2,0-3.6c-0.1-3.5-0.5-7.8-0.6-10.2c0-0.2-0.1-0.5-0.1-0.5
						c0.8,0.3,1.3,0.9,1.5,1.9c0,0,0,0.2,0,0.4c0.2,2.4,0.4,5.8,0.5,8.4c0.1,1.4,0.1,2.7,0,3.7c0.2,0.9,0.6,1.4,1,1.8
						c0.6,0.6,1.5,0.6,2.2,0.6c1.7-0.1,2.1-1.5,2.2-1.9l-0.9-13.2l-0.1-0.9c0.7,0.5,1.2,1.6,1.5,2.6v0.5l0.7,10.9c0,0.1,0,0.1,0,0.1
						c0.3,0.2,0.9,0.6,1.4,0.8c0.4,0.1,1,0.3,1.4,0.1c0.4-0.1,0.7-0.5,1.2-1c1-1.3,1.2-2.8,1.2-2.8l0.1,3.2c0,0-0.7,1.3-1.6,1.7
						c-0.7,0.4-1.4,0.4-2.2,0.3c-0.9-0.1-1.7-0.6-2.2-0.9c-0.4,0.8-1.4,1.7-3,1.8c-0.9,0.1-2.1-0.1-3-0.9c-0.2-0.2-0.5-0.4-0.7-0.7
						c-0.9,1.5-2.8,2.3-4.5,1.7c-0.7-0.3-1.4-0.9-1.9-1.8c-0.1,0.2-0.1,0.4-0.2,0.6c0.1,0.1,0.2,0.1,0.2,0.1c0.4,0.4,0.8,0.6,1.2,1
						c1.5,1.3,3,2.6,4.2,4.2c0.3,0.4,0.5,0.7,0.8,1.1c0.4-0.3,0.6-0.6,1.1-0.8c1.2-0.9,2.5-1.4,4-1.9c0.4-0.1,0.7,0.1,0.8,0.4
						c0.1,0.4-0.1,0.7-0.4,0.8c-1.3,0.4-2.4,0.9-3.6,1.7c-0.4,0.3-0.8,0.6-1.2,0.9c0.1,0.1,0.1,0.3,0.2,0.4c0.4,0.7,0.6,1.4,0.8,2.2
						c0.1,0.6,0.2,1.2,0.1,1.7c-0.1,0.7-0.4,1.4-0.9,1.9c-1.2,0.9-3,0.4-3.7-0.8c-0.6-0.9-0.4-2.2,0.1-3.2c0.4-0.8,0.8-1.5,1.4-2.2
						c0.1-0.1,0.3-0.4,0.4-0.5c-0.3-0.4-0.5-0.9-0.9-1.2c-1.2-1.4-2.6-2.7-4-4c-0.4-0.4-0.8-0.6-1.2-0.9l-0.1-0.1
						c-0.6,0.6-1.6,0.8-2.2,0.8c-3,0.1-3.6-2.5-3.6-2.5c-0.1-0.4,0.1-0.7,0.5-0.8c0.4-0.1,0.7,0.1,0.8,0.5c0,0,0.4,1.6,2.2,1.5
						c0.4,0,0.9-0.1,1.4-0.5c0.4-0.4,0.7-1.3,0.4-2.7c-0.1-0.4,0.2-0.7,0.6-0.7c0.1,0,0.1,0,0.1,0c0.1-0.2,0.3-0.4,0.6-0.4
						c0.4,0,0.6,0.2,0.7,0.6c0.1,1.9,0.9,2.9,1.7,3.2c1.2,0.5,2.7-0.4,3.1-1.7c0.1-0.1,0.1-0.4,0.1-0.7
						C-203,262.1-203,262.1-203,262z M-202.7,273.1L-202.7,273.1c-0.5,0.6-0.9,1.2-1.2,1.9c-0.3,0.6-0.5,1.4-0.1,1.9
						c0.4,0.6,1.2,0.9,1.7,0.4c0.3-0.3,0.4-0.7,0.4-1.1c0.1-0.4,0-0.9-0.1-1.3C-202.2,274.4-202.4,273.8-202.7,273.1z M-209.8,249.8
						c-0.4-0.7-0.8-1.2-1.4-1.5v0.4l0.4,5.7c0,0.4,0.4,0.6,0.7,0.6c0.4,0,0.6-0.4,0.6-0.7L-209.8,249.8z"/>
					<path class="st4" d="M-206.1,257.8c0.1,0.4,0.7,4.9-11.2,7.4c-0.4,0.1-0.7-0.1-0.8-0.5s0.1-0.7,0.5-0.8
						c3.7-0.9,7.6-2.4,8.9-3.5c1.5-1.3,1.4-2.4,1.4-2.4l0,0c-0.1-0.9-0.6-1.5-1.2-1.9c-0.8-0.6-1.8-0.9-2.9-1.2
						c-1.9-0.4-4-0.4-5.4-0.4c-0.1,0-0.5,0-0.5,0l-0.1-1.3c0,0,0.3,0,0.4,0c1.6-0.1,3.8,0,5.8,0.4
						C-208.6,254.1-206.4,255.4-206.1,257.8z"/>
				</g>
			</g>
			<g transform="matrix(1,0,0,1,-243.199,-71.5408)">
				<path class="st0" d="M152.5,273c0,0-1.7-15.8-2.5-23c-0.2-2,1-3.8,3-4.4c1.5-0.4,2.9-0.8,2.9-0.8s-0.7-6.8,4.5-6.5
					c0.9,0.1,1.8,0.4,2.4,1.2c0.4,0.4,0.6,0.8,0.9,1.4c0,0,1.1-4.2,5.6-2.6c0,0,1.6,0.3,1.8,2.3c0,0,0.8-3.1,4.5-1.7
					c0,0,1.5,0.5,1.9,3.1c0,0,0-2.4,2.8-2.4c0.9,0,2.2,0.4,2.7,6.2l2,26.3L152.5,273z"/>
				<g>
					<path class="st5" d="M170.2,252.5c0.1-0.9,0.1-2.2,0-3.6c-0.1-3.5-0.5-7.8-0.6-10.2c0-0.2-0.1-0.5-0.1-0.5
						c0.8,0.3,1.3,0.9,1.5,1.9c0,0,0,0.2,0,0.4c0.2,2.4,0.4,5.8,0.5,8.4c0.1,1.4,0.1,2.7,0,3.7c0.2,0.9,0.6,1.4,1,1.8
						c0.6,0.6,1.5,0.6,2.2,0.6c1.7-0.1,2.1-1.5,2.2-1.9l-0.9-13.2l-0.1-0.9c0.7,0.5,1.2,1.6,1.5,2.6v0.5l0.7,10.9c0,0.1,0,0.1,0,0.1
						c0.3,0.2,0.9,0.6,1.4,0.8c0.4,0.1,1,0.3,1.4,0.1c0.4-0.1,0.7-0.5,1.2-1c1-1.3,1.2-2.8,1.2-2.8l0.1,3.2c0,0-0.7,1.3-1.6,1.7
						c-0.7,0.4-1.4,0.4-2.2,0.3c-0.9-0.1-1.7-0.6-2.2-0.9c-0.4,0.8-1.4,1.7-3,1.8c-0.9,0.1-2.1-0.1-3-0.9c-0.2-0.2-0.5-0.4-0.7-0.7
						c-0.9,1.5-2.8,2.3-4.5,1.7c-0.7-0.3-1.4-0.9-1.9-1.8c-0.1,0.2-0.1,0.4-0.2,0.6c0.1,0.1,0.2,0.1,0.2,0.1c0.4,0.4,0.8,0.6,1.2,1
						c1.5,1.3,3,2.6,4.2,4.2c0.3,0.4,0.5,0.7,0.8,1.1c0.4-0.3,0.6-0.6,1.1-0.8c1.2-0.9,2.5-1.4,4-1.9c0.4-0.1,0.7,0.1,0.8,0.4
						c0.1,0.4-0.1,0.7-0.4,0.8c-1.3,0.4-2.4,0.9-3.6,1.7c-0.4,0.3-0.8,0.6-1.2,0.9c0.1,0.1,0.1,0.3,0.2,0.4c0.4,0.7,0.6,1.4,0.8,2.2
						c0.1,0.6,0.2,1.2,0.1,1.7c-0.1,0.7-0.4,1.4-0.9,1.9c-1.2,0.9-3,0.4-3.7-0.8c-0.6-0.9-0.4-2.2,0.1-3.2c0.4-0.8,0.8-1.5,1.4-2.2
						c0.1-0.1,0.3-0.4,0.4-0.5c-0.3-0.4-0.5-0.9-0.9-1.2c-1.2-1.4-2.6-2.7-4-4c-0.4-0.4-0.8-0.6-1.2-0.9l-0.1-0.1
						c-0.6,0.6-1.6,0.8-2.2,0.8c-3,0.1-3.6-2.5-3.6-2.5c-0.1-0.4,0.1-0.7,0.5-0.8s0.7,0.1,0.8,0.5c0,0,0.4,1.6,2.2,1.5
						c0.4,0,0.9-0.1,1.4-0.5c0.4-0.4,0.7-1.3,0.4-2.7c-0.1-0.4,0.2-0.7,0.6-0.7c0.1,0,0.1,0,0.1,0c0.1-0.2,0.3-0.4,0.6-0.4
						c0.4,0,0.6,0.2,0.7,0.6c0.1,1.9,0.9,2.9,1.7,3.2c1.2,0.5,2.7-0.4,3.1-1.7c0.1-0.1,0.1-0.4,0.1-0.7
						C170.2,252.7,170.2,252.6,170.2,252.5z M170.5,263.7L170.5,263.7c-0.5,0.6-0.9,1.2-1.2,1.9c-0.3,0.6-0.5,1.4-0.1,1.9
						c0.4,0.6,1.2,0.9,1.7,0.4c0.3-0.3,0.4-0.7,0.4-1.1c0.1-0.4,0-0.9-0.1-1.3C171.1,264.9,170.8,264.2,170.5,263.7z M163.5,240.4
						c-0.4-0.7-0.8-1.2-1.4-1.5v0.4l0.4,5.7c0,0.4,0.4,0.6,0.7,0.6c0.4,0,0.6-0.4,0.6-0.7L163.5,240.4z"/>
					<path class="st5" d="M167.1,248.3c0.1,0.4,0.7,4.9-11.2,7.4c-0.4,0.1-0.7-0.1-0.8-0.5s0.1-0.7,0.5-0.8c3.7-0.9,7.6-2.4,8.9-3.5
						c1.5-1.3,1.4-2.4,1.4-2.4v-0.1c-0.1-0.9-0.6-1.5-1.2-1.9c-0.8-0.6-1.8-0.9-2.9-1.2c-1.9-0.4-4-0.4-5.4-0.4c-0.1,0-0.5,0-0.5,0
						l-0.1-1.3c0,0,0.3,0,0.4,0c1.6-0.1,3.8,0,5.8,0.4C164.6,244.7,166.8,246,167.1,248.3z"/>
				</g>
			</g>
			<g transform="matrix(1,0,0,1,-0.539057,1.70894)">
				<path class="st5" d="M-58.3,209.4c0,0-1.7-15.8-2.5-23c-0.2-2,1-3.8,3-4.4c1.5-0.4,2.9-0.8,2.9-0.8s-0.7-6.8,4.5-6.5
					c0.9,0.1,1.8,0.4,2.4,1.2c0.4,0.4,0.6,0.8,0.9,1.4c0,0,1.1-4.2,5.6-2.6c0,0,1.6,0.3,1.8,2.3c0,0,0.8-3.1,4.5-1.7
					c0,0,1.5,0.5,1.9,3.1c0,0,0-2.4,2.8-2.4c0.9,0,2.5,0.6,3.2,6l2.4,26.3L-58.3,209.4z"/>
				<g>
					<path class="st0" d="M-40.5,188.9c0.1-0.9,0.1-2.2,0-3.6c-0.1-3.5-0.5-7.8-0.6-10.2c0-0.2-0.1-0.5-0.1-0.5
						c0.8,0.3,1.3,0.9,1.5,1.9c0,0,0,0.2,0,0.4c0.2,2.4,0.4,5.8,0.5,8.4c0.1,1.4,0.1,2.7,0,3.7c0.2,0.9,0.6,1.4,1,1.8
						c0.6,0.6,1.5,0.6,2.2,0.6c1.7-0.1,2.1-1.5,2.2-1.9l-0.9-13.2l-0.1-0.9c0.7,0.5,1.2,1.6,1.5,2.6v0.5l0.7,10.9c0,0.1,0,0.1,0,0.1
						c0.3,0.2,0.9,0.6,1.4,0.8c0.4,0.1,1,0.3,1.4,0.1c0.4-0.1,0.9-0.5,1.3-1c1-1.2,1.6-2.7,1.6-2.7l0.2,2.4c0,0-0.6,1.9-2.2,2.4
						c-0.7,0.2-1.4,0.4-2.2,0.3c-0.9-0.1-1.7-0.6-2.2-0.9c-0.4,0.8-1.4,1.7-3,1.8c-0.9,0.1-2.1-0.1-3-0.9c-0.2-0.2-0.5-0.4-0.7-0.7
						c-0.9,1.5-2.8,2.3-4.5,1.7c-0.7-0.3-1.4-0.9-1.9-1.8c-0.1,0.2-0.1,0.4-0.2,0.6c0.1,0.1,0.2,0.1,0.2,0.1c0.4,0.4,0.8,0.6,1.2,1
						c1.5,1.3,3,2.6,4.2,4.2c0.3,0.4,0.5,0.7,0.8,1.1c0.4-0.3,0.6-0.6,1.1-0.8c1.2-0.9,2.5-1.4,4-1.9c0.4-0.1,0.7,0.1,0.8,0.4
						c0.1,0.4-0.1,0.7-0.4,0.8c-1.3,0.4-2.4,0.9-3.6,1.7c-0.4,0.3-0.8,0.6-1.2,0.9c0.1,0.1,0.1,0.3,0.2,0.4c0.4,0.7,0.6,1.4,0.8,2.2
						c0.1,0.6,0.2,1.2,0.1,1.7c-0.1,0.7-0.4,1.4-0.9,1.9c-1.2,0.9-3,0.4-3.7-0.8c-0.6-0.9-0.4-2.2,0.1-3.2c0.4-0.8,0.8-1.5,1.4-2.2
						c0.1-0.1,0.3-0.4,0.4-0.5c-0.3-0.4-0.5-0.9-0.9-1.2c-1.2-1.4-2.6-2.7-4-4c-0.4-0.4-0.8-0.6-1.2-0.9l-0.1-0.1
						c-0.6,0.6-1.6,0.8-2.2,0.8c-3,0.1-3.6-2.5-3.6-2.5c-0.1-0.4,0.1-0.7,0.5-0.8s0.7,0.1,0.8,0.5c0,0,0.4,1.6,2.2,1.5
						c0.4,0,0.9-0.1,1.4-0.5c0.4-0.4,0.7-1.3,0.4-2.7c-0.1-0.4,0.2-0.7,0.6-0.7c0.1,0,0.1,0,0.1,0c0.1-0.2,0.3-0.4,0.6-0.4
						c0.4,0,0.6,0.2,0.7,0.6c0.1,1.9,0.9,2.9,1.7,3.2c1.2,0.5,2.7-0.4,3.1-1.7c0.1-0.1,0.1-0.4,0.1-0.7
						C-40.5,189-40.5,188.9-40.5,188.9z M-40.1,200L-40.1,200c-0.5,0.6-0.9,1.2-1.2,1.9c-0.3,0.6-0.5,1.4-0.1,1.9s1.2,0.9,1.7,0.4
						c0.3-0.3,0.4-0.7,0.4-1.1c0.1-0.4,0-0.9-0.1-1.3C-39.6,201.3-39.9,200.7-40.1,200z M-47.2,176.7c-0.4-0.7-0.8-1.2-1.4-1.5v0.4
						l0.4,5.7c0,0.4,0.4,0.6,0.7,0.6s0.6-0.4,0.6-0.7L-47.2,176.7z"/>
					<path class="st0" d="M-43.6,184.7c0.1,0.4,0.7,4.9-11.2,7.4c-0.4,0.1-0.7-0.1-0.8-0.5s0.1-0.7,0.5-0.8c3.7-0.9,7.6-2.4,8.9-3.5
						c1.5-1.3,1.4-2.4,1.4-2.4v-0.1c-0.1-0.9-0.6-1.5-1.2-1.9c-0.8-0.6-1.8-0.9-2.9-1.2c-1.9-0.4-4-0.4-5.4-0.4c-0.1,0-0.5,0-0.5,0
						L-55,180c0,0,0.3,0,0.4,0c1.6-0.1,3.8,0,5.8,0.4C-46.1,181-43.9,182.3-43.6,184.7z"/>
				</g>
			</g>
		</g>
		<path class="st6" d="M-37.4,161.7l-3,6.2c-0.2,0.4,0,0.9,0.4,1.1c0.4,0.2,0.9,0,1.1-0.4l3-6.2c0.2-0.4,0-0.9-0.4-1.1
			C-36.8,161.1-37.3,161.4-37.4,161.7z M-56.6,162.2l3.1,6.3c0.2,0.4,0.6,0.6,1.1,0.4c0.4-0.2,0.6-0.6,0.4-1.1l-3.1-6.3
			c-0.2-0.4-0.6-0.6-1.1-0.4C-56.6,161.4-56.8,161.8-56.6,162.2z M-46.3,159.8l-0.1,7.1c0,0.4,0.4,0.8,0.8,0.8
			c0.4,0,0.8-0.4,0.8-0.8l0.1-7.1c0-0.4-0.4-0.8-0.8-0.8C-45.9,159-46.3,159.3-46.3,159.8z"/>
		<path class="st6" d="M-78.4,209.3l-0.6,6.4c-0.1,0.4,0.3,0.8,0.7,0.9c0.4,0.1,0.8-0.3,0.9-0.7l0.6-6.4c0.1-0.4-0.3-0.8-0.7-0.9
			C-77.9,208.6-78.4,208.9-78.4,209.3z M-70.4,209.9l0.4,5c0.1,0.4,0.4,0.8,0.9,0.7s0.8-0.4,0.7-0.9l-0.4-5
			c-0.1-0.4-0.4-0.8-0.9-0.7C-70.1,209.1-70.5,209.4-70.4,209.9z M-86.7,208.1l-3.8,5.2c-0.3,0.4-0.1,0.9,0.1,1.1
			c0.4,0.3,0.9,0.1,1.1-0.1l3.8-5.2c0.3-0.4,0.1-0.9-0.1-1.1C-86,207.7-86.4,207.8-86.7,208.1z"/>
		<path class="st6" d="M-15.3,208.1l0.4,5.4c0,0.4,0.4,0.8,0.9,0.7c0.4,0,0.8-0.4,0.7-0.9l-0.4-5.4c0-0.4-0.4-0.8-0.9-0.7
			C-15,207.2-15.3,207.6-15.3,208.1z M-7.6,208.1l2.2,5.3c0.1,0.4,0.6,0.6,1,0.4c0.4-0.1,0.6-0.6,0.4-1l-2.2-5.3
			c-0.1-0.4-0.6-0.6-1-0.4C-7.6,207.2-7.8,207.6-7.6,208.1z M-1.4,206l5,4.5c0.4,0.3,0.8,0.3,1.2-0.1c0.3-0.4,0.3-0.8-0.1-1.2
			l-5-4.5c-0.4-0.3-0.8-0.3-1.2,0.1C-1.8,205.3-1.8,205.8-1.4,206z"/>
	</g>
</g>
<g transform="matrix(-1,0,0,1,2154.12,-130.343)">
	<path class="st6" d="M2021.4,153.3l2.7,9.8l3.5-0.1l-0.9-10.9L2021.4,153.3z M2048.1,153.3l-3.2,8.3l3.2,1.6l4.2-8.1L2048.1,153.3z
		 M2034.4,149.6v11.1h3.7l1.4-10.4L2034.4,149.6z"/>
</g>
</svg>
