<?xml version="1.0" encoding="utf-8"?>
<!-- Generator: Adobe Illustrator 25.0.1, SVG Export Plug-In . SVG Version: 6.00 Build 0)  -->
<svg version="1.1" id="Layer_1" xmlns="http://www.w3.org/2000/svg" xmlns:xlink="http://www.w3.org/1999/xlink" x="0px" y="0px"
	 viewBox="0 0 1280 720" style="enable-background:new 0 0 1280 720;" xml:space="preserve">
<style type="text/css">
	.st0{fill:#7CDADC;}
	.st1{fill:#FFFFFF;}
	.st2{fill:none;}
	.st3{fill:#55D0D2;}
	.st4{fill:#383A48;}
	.st5{fill:#E86166;}
	.st6{fill:#009092;}
</style>
<g transform="translate(42.0 174.0) rotate(90.0 263.0 185.0) scale(0.46746123226691144 0.46805819101834284)">
	<g transform="translate(-0.0 -0.0)">
		<path class="st0" d="M1120.5,0H5C2.3,0,0,2.2,0,4.9C0,4.9,0,5,0,5v780.5c0,2.7,2.2,5,4.9,5c0,0,0.1,0,0.1,0h1115.2
			c2.7,0,5-2.2,5-4.9c0,0,0-0.1,0-0.1V5c0.3-2.5-1.6-4.7-4.1-5C1120.9,0,1120.7,0,1120.5,0z M1115.5,223.1H1014V121.5h101.5V223.1z
			 M1115.5,334.6H1014V233.1h101.5V334.6z M1115.5,446.2H1014V344.6h101.5V446.2z M1115.5,557.7H1014V456.2h101.5V557.7z M10,456.2
			h101.5v101.5H10V456.2z M10,344.6h101.5v101.5H10V344.6z M10,233.1h101.5v101.5H10V233.1z M121.6,344.6h101.5v101.5H121.6V344.6z
			 M233.1,344.6h101.5v101.5H233.1V344.6z M344.7,344.6h101.5v101.5H344.7V344.6z M456.2,344.6h101.5v101.5H456.2V344.6z
			 M567.8,344.6h101.5v101.5H567.8V344.6z M679.3,344.6h101.5v101.5H679.3V344.6z M790.9,344.6h101.5v101.5H790.9L790.9,344.6z
			 M902.4,344.6h101.5v101.5H902.4L902.4,344.6z M1004,334.6H902.5V233.1H1004L1004,334.6z M892.4,334.6H790.9V233.1h101.5
			L892.4,334.6z M780.9,334.6H679.4V233.1h101.5L780.9,334.6z M669.3,334.6H567.8V233.1h101.5V334.6z M557.8,334.6H456.2V233.1
			h101.5L557.8,334.6z M446.2,334.6H344.7V233.1h101.5L446.2,334.6z M334.7,334.6H233.1V233.1h101.5L334.7,334.6L334.7,334.6z
			 M223.1,334.6H121.6V233.1h101.5L223.1,334.6z M121.6,456.2h101.5v101.5H121.6V456.2z M233.1,456.2h101.5v101.5H233.1V456.2z
			 M344.7,456.2h101.5v101.5H344.7V456.2z M456.2,456.2h101.5v101.5H456.2V456.2z M567.8,456.2h101.5v101.5H567.8V456.2z
			 M679.3,456.2h101.5v101.5H679.3V456.2z M790.9,456.2h101.5v101.5H790.9L790.9,456.2z M902.4,456.2h101.5v101.5H902.4L902.4,456.2
			z M1004,223.1H902.5V121.5H1004V223.1z M892.4,223.1H790.9V121.5h101.5V223.1z M780.9,223.1H679.4V121.5h101.5V223.1z
			 M669.3,223.1H567.8V121.5h101.5L669.3,223.1z M557.8,223.1H456.2V121.5h101.5L557.8,223.1L557.8,223.1z M446.2,223.1H344.7V121.5
			h101.5L446.2,223.1z M334.7,223.1H233.1V121.5h101.5L334.7,223.1L334.7,223.1z M223.1,223.1H121.6V121.5h101.5L223.1,223.1z
			 M111.6,223.1H10V121.5h101.5v101.6H111.6z M10,567.7h101.5v101.5H10V567.7z M121.6,567.7h101.5v101.5H121.6V567.7z M233.1,567.7
			h101.5v101.5H233.1V567.7z M344.7,567.7h101.5v101.5H344.7V567.7z M456.2,567.7h101.5v101.5H456.2V567.7z M567.8,567.7h101.5
			v101.5H567.8V567.7z M679.3,567.7h101.5v101.5H679.3V567.7z M790.9,567.7h101.5v101.5H790.9L790.9,567.7z M902.4,567.7h101.5
			v101.5H902.4L902.4,567.7z M1014,567.7h101.5v101.5H1014L1014,567.7z M1115.5,111.5H1014V10h101.5V111.5z M1004,111.5H902.5V10
			H1004V111.5z M892.4,111.5H790.9V10h101.5V111.5z M780.9,111.5H679.4V10h101.5V111.5z M669.3,111.5H567.8V10h101.5L669.3,111.5z
			 M557.8,111.5H456.2V10h101.5L557.8,111.5L557.8,111.5z M446.2,111.5H344.7V10h101.5L446.2,111.5z M334.7,111.5H233.1V10h101.5
			L334.7,111.5L334.7,111.5z M223.1,111.5H121.6V10h101.5L223.1,111.5z M10,10h101.5v101.5H10V10z M10,679.3h101.5v101.5H10V679.3z
			 M121.6,679.3h101.5v101.5H121.6V679.3z M233.1,679.3h101.5v101.5H233.1V679.3z M344.7,679.3h101.5v101.5H344.7V679.3z
			 M456.2,679.3h101.5v101.5H456.2V679.3z M567.8,679.3h101.5v101.5H567.8V679.3z M679.3,679.3h101.5v101.5H679.3V679.3z
			 M790.9,679.3h101.5v101.5H790.9L790.9,679.3z M902.4,679.3h101.5v101.5H902.4L902.4,679.3z M1115.5,780.8H1014V679.3h101.5V780.8
			z"/>
	</g>
</g>
<g transform="translate(660.0 333.0) rotate(0.0 248.5 145.5) scale(0.4899930986887509 0.48932234740205144)">
	<g transform="translate(-0.0 -0.0)">
		<g>
			<path class="st1" d="M1009.3,23.5v566.2H5c205-47,172.5-282,454.2-280.5C674.7,310.3,898.4,109.8,976.3,12
				C987.3-1.7,1009.3,6,1009.3,23.5z"/>
			<path class="st1" d="M1009.3,594.7H5c-2.5,0-4.7-1.9-5-4.4s1.4-4.9,3.9-5.4c87.5-20.1,130.2-74.1,175.4-131.4
				c57.9-73.4,117.8-149.2,277.3-149.2c0.9,0,1.8,0,2.7,0c49.7,0.3,103.2-10.5,158.9-31.9c48.3-18.6,98.2-45.1,148.4-78.8
				C859.7,131,934,57.1,972.4,8.9C978.8,1,989.1-2,998.6,1.4c9.5,3.3,15.7,12,15.7,22.2v566.2
				C1014.3,592.5,1012.1,594.7,1009.3,594.7z M39.2,584.7h965.1V23.5c0-7-4.6-11.2-9-12.7s-10.6-1.2-15.1,4.3
				c-38.9,48.8-113.9,123.5-208.1,186.7c-50.8,34.1-101.4,61-150.4,79.8c-56.9,21.9-111.6,32.8-162.6,32.6
				c-70.3-0.4-126.9,14.3-173.1,44.9c-41.2,27.3-70.6,64.5-99,100.5C148.5,508.5,108.9,558.8,39.2,584.7z"/>
		</g>
	</g>
</g>
<rect x="119" y="95" class="st2" width="312" height="360"/>
<g transform="translate(-0.0 -0.0)">
	<g>
		<path class="st1" d="M124.9,100.9h300.2c0,0-132.1,102.2-142.7,208.4c-10.6,106.2-157.6,139.8-157.6,139.8V100.9z"/>
		<path class="st1" d="M124.9,455c-1.3,0-2.6-0.5-3.6-1.3c-1.4-1.1-2.2-2.8-2.2-4.6V100.9c0-3.3,2.6-5.9,5.9-5.9h300.2
			c2.5,0,4.7,1.6,5.5,4c0.8,2.3,0,5.1-2,6.6c-0.4,0.2-33,25.7-66.7,63.8c-30.7,34.8-68.4,87.3-73.7,140.6
			c-4.5,45.4-34.1,84.9-85.7,114.2c-38.3,21.9-74.9,30.3-76.4,30.7C125.7,455,125.4,455,124.9,455z M130.8,106.7v334.7
			c12.5-3.5,39.2-12.2,66.3-27.7c48.6-27.7,75.4-63.1,79.6-105c4.5-45.4,30.3-94.9,76.8-147.3c21.6-24.4,42.6-43.6,55.4-54.6
			C408.9,106.7,130.8,106.7,130.8,106.7z"/>
	</g>
</g>
<g transform="translate(847.0 93.0) rotate(0.0 146.5 129.5) scale(0.9167709637046307 0.9161655465157411)">
	<g transform="translate(-0.0 -0.0)">
		<ellipse class="st1" cx="159.8" cy="159.8" rx="99.2" ry="99.1"/>
		<ellipse class="st3" cx="159.8" cy="159.8" rx="54.6" ry="54.6"/>
		<path class="st4" d="M159.8,224.3c-35.7,0-64.6-28.9-64.6-64.6c0-35.7,28.9-64.6,64.6-64.6c35.7,0,64.6,28.9,64.6,64.6v0
			C224.3,195.4,195.5,224.2,159.8,224.3z M159.8,105.2c-30.2,0-54.6,24.4-54.6,54.6s24.4,54.6,54.6,54.6s54.6-24.4,54.6-54.6l0,0
			C214.4,129.7,189.9,105.2,159.8,105.2z"/>
		<path class="st5" d="M159.8,277.7L159.8,277.7c-14,0-25.3-11.3-25.3-25.2c0,0,0,0,0-0.1v-40.7h50.6v40.7
			C185.1,266.4,173.8,277.7,159.8,277.7z"/>
		<path class="st4" d="M159.8,282.7c-16.7,0-30.3-13.6-30.3-30.3v-45.7h60.6v45.7C190.1,269.1,176.5,282.7,159.8,282.7z
			 M139.5,216.8v35.7c0,11.2,9.1,20.3,20.3,20.3s20.3-9.1,20.3-20.3l0,0v-35.7L139.5,216.8z"/>
		<rect x="134.5" y="228.8" class="st4" width="50.6" height="10"/>
		<rect x="134.5" y="250.8" class="st4" width="50.6" height="10"/>
		<path class="st4" d="M159.8,34c-2.7,0-5-2.2-5-4.9c0,0,0-0.1,0-0.1V5c0-2.8,2.2-5,5-5s5,2.2,5,5v24C164.8,31.7,162.5,34,159.8,34z
			"/>
		<line class="st2" x1="269.2" y1="50.3" x2="252.3" y2="67.3"/>
		<path class="st4" d="M252.3,72.3c-1.3,0-2.6-0.5-3.5-1.5c-2-1.9-2-5-0.1-7c0,0,0.1-0.1,0.1-0.1l17-17c2-2,5.1-2,7.1,0
			c2,2,2,5.1,0,7.1l-17,17C254.9,71.7,253.6,72.3,252.3,72.3z"/>
		<path class="st4" d="M314.6,164.8h-24c-2.8,0-5-2.2-5-5s2.2-5,5-5h24c2.7,0,5,2.2,5,4.9c0,0,0,0.1,0,0.1
			C319.6,162.6,317.4,164.8,314.6,164.8z"/>
		<line class="st2" x1="50.3" y1="50.3" x2="67.3" y2="67.3"/>
		<path class="st4" d="M67.3,72.3c-1.3,0-2.6-0.5-3.5-1.5l-17-17c-2-2-2-5.1,0-7.1c2-2,5.1-2,7.1,0l17,17c2,1.9,2,5,0.1,7
			c0,0-0.1,0.1-0.1,0.1C69.9,71.8,68.7,72.3,67.3,72.3z"/>
		<path class="st4" d="M29,164.8H5c-2.8,0-5-2.2-5-5s2.2-5,5-5h24c2.8,0,5,2.2,5,5S31.8,164.8,29,164.8z"/>
	</g>
</g>
<g transform="translate(190.0 162.0) rotate(0.0 92.5 92.5) scale(0.4518808011724475 0.4518808011724475)">
	<g transform="translate(-0.0 -0.0)">
		<g id="Layer_1_1_-i5">
			<g>
				<g>
					<circle class="st6" cx="204.7" cy="204.7" r="199.7"/>
					<path class="st4" d="M204.7,409.4C91.8,409.4,0,317.6,0,204.7S91.8,0,204.7,0s204.7,91.8,204.7,204.7S317.6,409.4,204.7,409.4z
						 M204.7,10C97.3,10,10,97.3,10,204.7s87.3,194.7,194.7,194.7s194.7-87.3,194.7-194.7S312.1,10,204.7,10z"/>
				</g>
				<g>
					<path class="st1" d="M404.4,204.7c0,0-89.4,96.7-199.7,96.7S5,204.7,5,204.7S94.4,108,204.7,108S404.4,204.7,404.4,204.7z"/>
					<path class="st4" d="M204.7,306.4c-58.2,0-110.4-26.8-144-49.2C24.5,233,2.3,209.1,1.3,208.1c-1.8-1.9-1.8-4.9,0-6.8
						c0.9-1,23.2-24.9,59.4-49.1c33.5-22.4,85.8-49.2,144-49.2s110.4,26.8,144,49.2c36.2,24.2,58.4,48.1,59.4,49.1
						c1.8,1.9,1.8,4.9,0,6.8c-0.9,1-23.2,24.9-59.4,49.1C315.1,279.6,262.9,306.4,204.7,306.4z M12,204.7c7.4,7.4,27,26,54.5,44.3
						c32.3,21.6,82.6,47.4,138.2,47.4s105.9-25.8,138.2-47.4c27.5-18.3,47-36.9,54.5-44.3c-7.4-7.4-27-26-54.5-44.3
						c-32.3-21.6-82.6-47.4-138.2-47.4S98.8,138.8,66.5,160.4C39,178.7,19.4,197.3,12,204.7z"/>
				</g>
				<g>
					<circle class="st4" cx="204.7" cy="204.7" r="65.1"/>
					<path class="st4" d="M204.7,274.8c-38.7,0-70.1-31.4-70.1-70.1s31.4-70.1,70.1-70.1s70.1,31.4,70.1,70.1
						S243.4,274.8,204.7,274.8z M204.7,144.6c-33.1,0-60.1,27-60.1,60.1s27,60.1,60.1,60.1s60.1-27,60.1-60.1
						C264.8,171.6,237.8,144.6,204.7,144.6z"/>
				</g>
			</g>
		</g>
		<g id="Isolation_Mode-i5">
		</g>
	</g>
</g>
<g transform="translate(653.0 569.0) rotate(0.0 50.5 50.5) scale(0.37911205200966924 0.37911205200966924)">
	<g transform="translate(-0.0 -0.0)">
		<g id="Layer_2-i6">
			<g id="circle_2-i6">
				<circle class="st5" cx="133.2" cy="133.2" r="128.2"/>
				<path class="st5" d="M133.2,266.4C59.8,266.4,0,206.7,0,133.2S59.8,0,133.2,0s133.2,59.8,133.2,133.2S206.7,266.4,133.2,266.4z
					 M133.2,10C65.2,10,10,65.2,10,133.2s55.2,123.2,123.2,123.2s123.2-55.2,123.2-123.2l0,0C256.3,65.2,201.2,10.1,133.2,10z"/>
			</g>
		</g>
	</g>
</g>
<g transform="translate(151.0 391.0) rotate(0.0 11.0 11.0) scale(0.7236842105263158 0.7236842105263158)">
	<g transform="translate(-0.0 -0.0)">
		<g id="Layer_1_1_-i7">
			<g>
				<g>
					
						<rect x="-1.3" y="10.2" transform="matrix(0.7071 -0.7072 0.7072 0.7071 -6.2841 15.2024)" class="st4" width="33" height="10"/>
				</g>
				<g>
					<rect x="10.2" y="-1.3" transform="matrix(0.7071 -0.7071 0.7071 0.7071 -6.2849 15.2)" class="st4" width="10" height="33"/>
				</g>
			</g>
		</g>
		<g id="Isolation_Mode-i7">
		</g>
	</g>
</g>
<g transform="translate(1108.0 572.0) rotate(0.0 10.5 10.5) scale(0.6907894736842105 0.6907894736842105)">
	<g transform="translate(-0.0 -0.0)">
		<g id="Layer_1_1_-i8">
			<g>
				<g>
					
						<rect x="-1.3" y="10.2" transform="matrix(0.7071 -0.7072 0.7072 0.7071 -6.2841 15.2024)" class="st4" width="33" height="10"/>
				</g>
				<g>
					<rect x="10.2" y="-1.3" transform="matrix(0.7071 -0.7071 0.7071 0.7071 -6.2849 15.2)" class="st4" width="10" height="33"/>
				</g>
			</g>
		</g>
		<g id="Isolation_Mode-i8">
		</g>
	</g>
</g>
<g transform="translate(327.0 95.0) rotate(0.0 237.5 243.5) scale(0.9092649310872895 0.907059042652263)">
	<g transform="translate(-0.0 -0.0)">
		<polygon class="st1" points="438.7,474.7 343,474.7 336.2,376.9 370.2,371.5 		"/>
		<path class="st4" d="M438.7,479.7H343c-2.6,0-4.8-2.1-5-4.7l-6.8-97.8c-0.2-2.6,1.6-4.9,4.2-5.3l34-5.3c1.9-0.3,3.9,0.5,4.9,2.2
			L442.8,472c1,1.5,1.1,3.5,0.2,5.1C442.2,478.7,440.5,479.8,438.7,479.7z M347.7,469.7h81.7L367.8,377l-26.3,4.1L347.7,469.7z"/>
		<path class="st1" d="M517.3,34.1v362.1c0,43.4-35.2,78.6-78.6,78.6s-78.6-35.2-78.6-78.6l0,0V390c0-4.7-3.9-8.6-8.6-8.6
			s-8.6,3.9-8.6,8.6v142h-308v-53.9l238-88.2c0-43.4,35.2-78.6,78.6-78.6c43.4,0,78.5,35.2,78.6,78.6v6.2c0,4.7,3.9,8.6,8.6,8.6
			s8.6-3.9,8.6-8.6v-362H517.3z"/>
		<path class="st4" d="M343,536.9H35c-2.7,0-5-2.2-5-4.9c0,0,0-0.1,0-0.1V478c0-2.1,1.3-4,3.3-4.7l234.8-87c1.9-46.1,40.9-82,87-80
			c44.8,1.9,80.1,38.7,80.1,83.5v6.2c0,2,1.6,3.6,3.6,3.6s3.6-1.6,3.6-3.6V34c0-2.7,2.2-5,4.9-5c0,0,0.1,0,0.1,0h70
			c2.7,0,5,2.2,5,4.9c0,0,0,0.1,0,0.1v362c0,46.2-37.4,83.6-83.5,83.7c-46.2,0-83.6-37.4-83.7-83.6v-6.2c0-2-1.6-3.6-3.6-3.6
			s-3.6,1.6-3.6,3.6V532C348,534.7,345.8,536.9,343,536.9C343,536.9,343,536.9,343,536.9z M40,526.9h298v-137
			c0-7.5,6.1-13.6,13.6-13.6s13.6,6.1,13.6,13.6v6.2c0,40.6,33,73.6,73.6,73.6s73.6-33,73.6-73.6v-357h-60v357
			c0,7.5-6.1,13.6-13.6,13.6s-13.6-6.1-13.6-13.6l0,0v-6.2c0-40.6-33-73.6-73.6-73.6s-73.6,33-73.6,73.6c0,2.1-1.3,4-3.3,4.7
			L40,481.6V526.9z"/>
		<polyline class="st4" points="351.6,372.3 308.8,372.3 302.4,375.2 321.4,328.2 393.4,328.2 438.7,439.7 373.4,439.7 		"/>
		<path class="st4" d="M438.7,444.7h-65.4c-2.8,0-5-2.2-5-5s2.2-5,5-5h57.9l-41.3-101.5h-65.2l-13.8,34.1h40.6c2.8,0,5,2.2,5,5
			s-2.2,5-5,5h-41.7l-5.5,2.5c-2.6,1.1-5.5-0.1-6.6-2.6c-0.5-1.2-0.5-2.6-0.1-3.9l19-47c0.8-1.9,2.6-3.1,4.6-3.1h72
			c2,0,3.9,1.2,4.6,3.1l45.4,111.5c0.6,1.6,0.4,3.3-0.5,4.7C441.8,443.9,440.3,444.7,438.7,444.7z"/>
		<path class="st1" d="M179.3,346.5V5h303v391.1c0,24.1-19.5,43.6-43.5,43.6c0,0,0,0-0.1,0l0,0c-24.1,0-43.6-19.5-43.6-43.5
			c0,0,0,0,0-0.1v-6.2c0-24.1-19.5-43.6-43.5-43.6c0,0,0,0-0.1,0l0,0c-24.1,0-43.6,19.5-43.6,43.5c0,0,0,0,0,0.1v113H4.9v-113
			c0-24.1,19.5-43.6,43.5-43.6c0,0,0,0,0.1,0l0,0L179.3,346.5z"/>
		<path class="st4" d="M308,507.9H5c-2.7,0-5-2.2-5-4.9c0,0,0-0.1,0-0.1v-113c0-26.8,21.8-48.6,48.6-48.6l125.7,0.2V5
			c0-2.7,2.2-5,4.9-5c0,0,0.1,0,0.1,0h303c2.7,0,5,2.2,5,4.9c0,0,0,0.1,0,0.1v391.1c0,26.8-21.8,48.6-48.6,48.6
			s-48.6-21.8-48.6-48.6v-6.2c0-21.3-17.3-38.6-38.6-38.6s-38.6,17.3-38.6,38.6v113c0.1,2.7-2,4.9-4.7,5
			C308.1,507.9,308.1,507.9,308,507.9z M10,497.9h293v-108c0-26.8,21.8-48.6,48.6-48.6s48.6,21.8,48.6,48.6v6.2
			c0,21.3,17.3,38.6,38.6,38.6s38.6-17.3,38.6-38.6l0,0V10h-293v336.5c0,1.3-0.5,2.6-1.5,3.5c-0.9,0.9-2.2,1.5-3.5,1.5l0,0
			l-130.7-0.2c-21.3,0-38.6,17.3-38.6,38.6L10,497.9L10,497.9z"/>
		<path class="st4" d="M351.6,351.5H179.3c-2.8,0-5-2.2-5-5s2.2-5,5-5h172.3c2.7,0,5,2.2,5,4.9c0,0,0,0.1,0,0.1
			C356.6,349.3,354.4,351.5,351.6,351.5z"/>
		<rect x="233.3" y="102.2" class="st6" width="190.9" height="95.2"/>
		<path class="st4" d="M424.2,202.4H233.3c-2.7,0-5-2.2-5-4.9c0,0,0-0.1,0-0.1v-95.2c0-2.7,2.2-5,4.9-5c0,0,0.1,0,0.1,0h190.9
			c2.7,0,5,2.2,5,4.9c0,0,0,0.1,0,0.1v95.2C429.2,200.1,427,202.4,424.2,202.4C424.3,202.4,424.2,202.4,424.2,202.4z M238.3,192.4
			h180.9v-85.2H238.3L238.3,192.4z"/>
		<path class="st4" d="M424.2,250.7H233.3c-2.8,0-5-2.2-5-5s2.2-5,5-5h190.9c2.8,0,5,2.2,5,5S427,250.7,424.2,250.7z"/>
		<path class="st4" d="M424.2,294.2H233.3c-2.8,0-5-2.2-5-5s2.2-5,5-5h190.9c2.8,0,5,2.2,5,5S427,294.2,424.2,294.2z"/>
		<path class="st4" d="M250.9,386.5H60c-2.8,0-5-2.2-5-5s2.2-5,5-5h190.9c2.8,0,5,2.2,5,5S253.7,386.5,250.9,386.5z"/>
		<path class="st4" d="M250.9,430H60c-2.8,0-5-2.2-5-5s2.2-5,5-5h190.9c2.8,0,5,2.2,5,5S253.7,430,250.9,430z"/>
	</g>
</g>
<g transform="translate(937.0 540.0) rotate(180.0 -137.5 42.5) scale(-0.5094479436828455 0.5114320096269556)">
	<g transform="translate(-0.0 -0.0)">
		<g>
			<g>
				<path class="st3" d="M440.7,161.2H69.4V6.2h371.3l84.1,58.4c13.3,9.3,13.3,29,0,38.2L440.7,161.2z"/>
				<path class="st4" d="M440.7,166.2H69.4c-2.8,0-5-2.2-5-5V6.2c0-2.8,2.2-5,5-5h371.3c1,0,2,0.3,2.9,0.9l84.1,58.4
					c7.6,5.3,12.1,14,12.1,23.3c0,9.2-4.6,17.9-12.1,23.1l-84.1,58.4C442.7,165.9,441.7,166.2,440.7,166.2z M74.4,156.2h364.7
					l82.8-57.5c5-3.4,7.8-8.9,7.8-14.9c0-6.1-2.8-11.6-7.8-15.1l-82.8-57.5H74.4V156.2z"/>
			</g>
			<g>
				<ellipse class="st3" cx="83.1" cy="83.1" rx="39.8" ry="39.9"/>
				<path class="st4" d="M83.1,166.2C37.3,166.2,0,128.9,0,83.1S37.3,0,83.1,0s83.1,37.3,83.1,83.1S128.9,166.2,83.1,166.2z
					 M83.1,10C42.8,10,10,42.8,10,83.1s32.8,73.1,73.1,73.1s73.1-32.8,73.1-73.1S123.4,10,83.1,10z"/>
			</g>
			<g>
				<ellipse class="st4" cx="83.1" cy="83.1" rx="19.1" ry="19.2"/>
				<path class="st4" d="M83.1,125.6c-23.4,0-42.5-19.1-42.5-42.5s19.1-42.5,42.5-42.5s42.5,19.1,42.5,42.5S106.5,125.6,83.1,125.6z
					 M83.1,50.6c-17.9,0-32.5,14.6-32.5,32.5s14.6,32.5,32.5,32.5s32.5-14.6,32.5-32.5S101,50.6,83.1,50.6z"/>
			</g>
			<g>
				<path class="st4" d="M438.8,165c-23.9,0-43.3-19.5-43.3-43.4c0-12.1,5.2-23.7,14.8-32.7c2.4-2.3,3.6-4.3,3.6-5.9
					c0-1.9-1.8-4-3.4-5.4c-9.7-9.1-15-20.7-15-32.9c0-23.9,19.4-43.4,43.3-43.4c2.8,0,5,2.2,5,5s-2.2,5-5,5
					c-18.4,0-33.3,15-33.3,33.4c0,9.3,4.2,18.4,11.8,25.6c4.3,4,6.5,8.2,6.6,12.7c0,4.5-2.2,8.9-6.8,13.2
					c-7.5,7.1-11.6,16.2-11.6,25.5c0,18.4,14.9,33.4,33.3,33.4c2.8,0,5,2.2,5,5S441.6,165,438.8,165z"/>
			</g>
			<g>
				<path class="st4" d="M502.6,49.2v69.1l20.7-13.7c15.3-10.1,15.1-32.6-0.4-42.4L502.6,49.2z"/>
				<path class="st4" d="M502.6,123.3c-0.8,0-1.6-0.2-2.4-0.6c-1.6-0.9-2.6-2.6-2.6-4.4V49.2c0-1.8,1-3.5,2.6-4.4s3.6-0.8,5.1,0.2
					l20.3,13c8.7,5.5,14,14.9,14.1,25.2s-5,19.9-13.6,25.5l-20.7,13.7C504.5,123,503.6,123.3,502.6,123.3z M507.6,58.3V109l12.9-8.6
					c5.8-3.8,9.2-10.2,9.1-17.1c-0.1-6.9-3.6-13.2-9.4-16.9L507.6,58.3z"/>
			</g>
			<g>
				<path class="st4" d="M400.5,49.7H151.1c-2.8,0-5-2.2-5-5s2.2-5,5-5h249.4c2.8,0,5,2.2,5,5S403.3,49.7,400.5,49.7z"/>
			</g>
			<g>
				<path class="st4" d="M400.5,126.6H151.1c-2.8,0-5-2.2-5-5s2.2-5,5-5h249.4c2.8,0,5,2.2,5,5S403.3,126.6,400.5,126.6z"/>
			</g>
		</g>
	</g>
</g>
</svg>
