<?xml version="1.0" encoding="utf-8"?>
<!-- Generator: Adobe Illustrator 25.0.1, SVG Export Plug-In . SVG Version: 6.00 Build 0)  -->
<svg version="1.1" id="Layer_1" xmlns="http://www.w3.org/2000/svg" xmlns:xlink="http://www.w3.org/1999/xlink" x="0px" y="0px"
	 viewBox="0 0 813 633.4" style="enable-background:new 0 0 813 633.4;" xml:space="preserve">
<style type="text/css">
	.st0{fill:#366E70;}
	.st1{fill:#00484A;}
	.st2{fill:#669192;}
	.st3{fill:none;}
	.st4{fill:#FFFFFF;}
	.st5{fill:#FAFBFB;}
	.st6{fill:#91B0B1;}
</style>
<g transform="translate(847.0 93.0) rotate(0.0 146.5 129.5) scale(0.9167709637046307 0.9161655465157411)">
	<g transform="translate(-0.0 -0.0)">
		<ellipse class="st0" cx="-599.6" cy="178.9" rx="34.7" ry="34.7"/>
		<path class="st1" d="M-599.6,219.9c22.7,0,41.1-18.4,41.1-41.1s-18.4-41.1-41.1-41.1s-41.1,18.4-41.1,41.1l0,0
			C-640.7,201.5-622.3,219.8-599.6,219.9z M-599.6,144.1c19.2,0,34.7,15.5,34.7,34.7s-15.5,34.7-34.7,34.7
			c-19.2,0-34.7-15.5-34.7-34.7l0,0C-634.4,159.7-618.8,144.1-599.6,144.1z"/>
		<path class="st2" d="M-599.6,253.8L-599.6,253.8c8.9,0,16.1-7.2,16.1-16c0,0,0,0,0-0.1v-25.9h-32.2v25.9
			C-615.7,246.6-608.5,253.8-599.6,253.8z"/>
		<path class="st1" d="M-599.6,257.1c10.6,0,19.2-8.7,19.2-19.2v-29.1H-619v29.1C-619,248.4-610.3,257.1-599.6,257.1z M-586.7,215.1
			v22.7c0,7.1-5.8,12.9-12.9,12.9c-7.1,0-12.9-5.8-12.9-12.9l0,0v-22.7H-586.7z"/>
		<rect x="-615.7" y="222.8" class="st1" width="32.2" height="6.4"/>
		<rect x="-615.7" y="236.7" class="st1" width="32.2" height="6.4"/>
		<path class="st1" d="M-599.6,98.8c1.7,0,3.2-1.4,3.2-3.1v-0.1V80.4c0-1.8-1.4-3.2-3.2-3.2c-1.8,0-3.2,1.4-3.2,3.2v15.3
			C-602.8,97.3-601.3,98.8-599.6,98.8z"/>
		<line class="st3" x1="-669.3" y1="109.2" x2="-658.5" y2="120"/>
		<path class="st1" d="M-658.5,123.2c0.8,0,1.7-0.3,2.2-1c1.2-1.2,1.2-3.2,0.1-4.5l-0.1-0.1l-10.8-10.8c-1.2-1.2-3.2-1.2-4.6,0
			c-1.2,1.2-1.2,3.2,0,4.6l10.8,10.8C-660.2,122.8-659.4,123.2-658.5,123.2z"/>
		<path class="st1" d="M-698.1,182h15.3c1.8,0,3.2-1.4,3.2-3.2s-1.4-3.2-3.2-3.2h-15.3c-1.7,0-3.2,1.4-3.2,3.1v0.1
			C-701.3,180.6-699.9,182-698.1,182z"/>
		<line class="st3" x1="-529.9" y1="109.2" x2="-540.8" y2="120"/>
		<path class="st1" d="M-540.8,123.2c0.8,0,1.7-0.3,2.2-1l10.8-10.8c1.2-1.2,1.2-3.2,0-4.6c-1.2-1.2-3.2-1.2-4.6,0l-10.8,10.8
			c-1.2,1.2-1.2,3.2-0.1,4.5l0.1,0.1C-542.4,122.9-541.7,123.2-540.8,123.2z"/>
		<path class="st1" d="M-516.4,182h15.3c1.8,0,3.2-1.4,3.2-3.2s-1.4-3.2-3.2-3.2h-15.3c-1.8,0-3.2,1.4-3.2,3.2S-518.2,182-516.4,182
			z"/>
	</g>
</g>
<g transform="translate(653.0 569.0) rotate(0.0 50.5 50.5) scale(0.37911205200966924 0.37911205200966924)">
	<g transform="translate(-0.0 -0.0)">
		<g id="Layer_2-i6">
			<g id="circle_2-i6">
				<circle class="st2" cx="-451.6" cy="-185.4" r="81.6"/>
				<path class="st2" d="M-451.6-100.7c46.7,0,84.8-38,84.8-84.8s-38-84.8-84.8-84.8s-84.8,38-84.8,84.8S-498.4-100.7-451.6-100.7z
					 M-451.6-263.8c43.3,0,78.4,35.1,78.4,78.4s-35.1,78.4-78.4,78.4c-43.3,0-78.4-35.1-78.4-78.4l0,0
					C-530-228.7-494.9-263.8-451.6-263.8z"/>
			</g>
		</g>
	</g>
</g>
<g transform="translate(151.0 391.0) rotate(0.0 11.0 11.0) scale(0.7236842105263158 0.7236842105263158)">
	<g transform="translate(-0.0 -0.0)">
		<g id="Layer_1_1_-i7">
			<g>
				<g>
					
						<rect x="747.3" y="-104.8" transform="matrix(0.7072 -0.7071 0.7071 0.7072 286.4825 503.0516)" class="st1" width="6.4" height="21"/>
				</g>
				<g>
					
						<rect x="740" y="-97.6" transform="matrix(0.7071 -0.7071 0.7071 0.7071 286.5546 503.0348)" class="st1" width="21" height="6.4"/>
				</g>
			</g>
		</g>
		<g id="Isolation_Mode-i7">
		</g>
	</g>
</g>
<g transform="translate(1108.0 572.0) rotate(0.0 10.5 10.5) scale(0.6907894736842105 0.6907894736842105)">
	<g transform="translate(-0.0 -0.0)">
		<g id="Layer_1_1_-i8">
			<g>
				<g>
					
						<rect x="-1032.2" y="-643.8" transform="matrix(0.7072 -0.7071 0.7071 0.7072 146.4445 -912.9844)" class="st1" width="6.4" height="21"/>
				</g>
				<g>
					
						<rect x="-1039.5" y="-636.5" transform="matrix(0.7071 -0.7071 0.7071 0.7071 146.4427 -913.1295)" class="st1" width="21" height="6.4"/>
				</g>
			</g>
		</g>
		<g id="Isolation_Mode-i8">
		</g>
	</g>
</g>
<g transform="translate(327.0 95.0) rotate(0.0 237.5 243.5) scale(0.9092649310872895 0.907059042652263)">
	<g transform="translate(-0.0 -0.0)">
		<polygon class="st4" points="154.5,379.2 215.4,379.2 219.8,317 198.1,313.5 		"/>
		<path class="st1" d="M154.5,382.3h60.9c1.7,0,3.1-1.3,3.2-3l4.3-62.2c0.1-1.7-1-3.1-2.6-3.4l-21.7-3.4c-1.2-0.2-2.5,0.3-3.1,1.4
			L152,377.4c-0.7,1-0.7,2.2-0.1,3.2C152.3,381.8,153.4,382.4,154.5,382.3z M212.4,376h-52l39.2-59l16.7,2.6L212.4,376z"/>
		<path class="st5" d="M104.5,98.8v230.4c0,27.6,22.4,50,50,50s50-22.4,50-50l0,0v-4c0-3,2.5-5.5,5.5-5.5s5.5,2.5,5.5,5.5v90.3h196
			v-34.3l-151.4-56.1c0-27.6-22.4-50-50-50s-49.9,22.4-50,50v4c0,3-2.5,5.5-5.5,5.5c-3,0-5.5-2.5-5.5-5.5V98.8H104.5L104.5,98.8z"/>
		<path class="st1" d="M215.4,418.8h196c1.7,0,3.2-1.4,3.2-3.1v-0.1v-34.3c0-1.3-0.8-2.6-2.1-3l-149.3-55.4
			c-1.2-29.3-26-52.1-55.4-50.9c-28.5,1.2-51,24.6-51,53.1v4c0,1.2-1,2.3-2.3,2.3s-2.3-1-2.3-2.3V98.8c0-1.7-1.4-3.2-3.1-3.2H149
			h-44.5c-1.7,0-3.2,1.4-3.2,3.1v0.1v230.3c0,29.4,23.8,53.2,53.1,53.2c29.4,0,53.2-23.8,53.2-53.2v-4c0-1.2,1-2.3,2.3-2.3
			s2.3,1,2.3,2.3v90.4C212.3,417.4,213.7,418.8,215.4,418.8L215.4,418.8z M408.2,412.4H218.6v-87.2c0-4.8-3.9-8.7-8.7-8.7
			c-4.8,0-8.7,3.9-8.7,8.7v4c0,25.9-21,46.9-46.9,46.9s-46.9-21-46.9-46.9V102h38.2v227.2c0,4.8,3.9,8.7,8.7,8.7
			c4.8,0,8.7-3.9,8.7-8.7l0,0v-4c0-25.9,21-46.9,46.9-46.9s46.9,21,46.9,46.9c0,1.3,0.8,2.6,2.1,3l149.3,55.4V412.4L408.2,412.4z"/>
		<polyline class="st1" points="210,314 237.2,314 241.3,315.9 229.2,286 183.3,286 154.5,356.9 196.1,356.9 		"/>
		<path class="st1" d="M154.5,360.1h41.6c1.8,0,3.2-1.4,3.2-3.2c0-1.8-1.4-3.2-3.2-3.2h-36.9l26.3-64.6h41.5l8.8,21.7h-25.9
			c-1.8,0-3.2,1.4-3.2,3.2c0,1.8,1.4,3.2,3.2,3.2h26.5l3.5,1.6c1.7,0.7,3.5-0.1,4.2-1.7c0.3-0.7,0.3-1.7,0.1-2.5l-12.1-29.9
			c-0.5-1.2-1.7-2-2.9-2h-45.8c-1.2,0-2.5,0.7-2.9,2l-28.9,71c-0.4,1-0.2,2.1,0.3,3C152.6,359.6,153.5,360.1,154.5,360.1z"/>
		<path class="st5" d="M319.6,297.6V80.3H126.8v248.8c0,15.4,12.4,27.8,27.7,27.8c0,0,0,0,0.1,0l0,0c15.4,0,27.8-12.4,27.8-27.7
			c0,0,0,0,0-0.1v-4c0-15.4,12.4-27.8,27.7-27.8c0,0,0,0,0.1,0l0,0c15.4,0,27.8,12.4,27.8,27.7c0,0,0,0,0,0.1v71.9h192.8v-71.9
			c0-15.4-12.4-27.8-27.7-27.8c0,0,0,0-0.1,0l0,0L319.6,297.6z"/>
		<path class="st1" d="M237.7,400.3h192.8c1.7,0,3.2-1.4,3.2-3.1v-0.1v-71.9c0-17-13.9-30.9-30.9-30.9l-80,0.1V80.3
			c0-1.7-1.4-3.2-3.1-3.2h-0.1H126.8c-1.7,0-3.2,1.4-3.2,3.1v0.1v248.8c0,17,13.9,30.9,30.9,30.9s30.9-13.9,30.9-30.9v-4
			c0-13.6,11-24.5,24.5-24.5c13.5,0,24.5,11,24.5,24.5v71.9c-0.1,1.7,1.2,3.1,3,3.2C237.6,400.3,237.6,400.3,237.7,400.3z
			 M427.3,393.9H240.9v-68.7c0-17-13.9-30.9-30.9-30.9s-30.9,13.9-30.9,30.9v4c0,13.6-11,24.5-24.5,24.5c-13.5,0-24.5-11-24.5-24.5
			l0,0V83.5h186.4v214.1c0,0.8,0.3,1.7,1,2.2c0.6,0.6,1.4,1,2.2,1l0,0l83.1-0.1c13.6,0,24.5,11,24.5,24.5L427.3,393.9L427.3,393.9z"
			/>
		<path class="st1" d="M210,300.8h109.7c1.8,0,3.2-1.4,3.2-3.2c0-1.8-1.4-3.2-3.2-3.2H210c-1.7,0-3.2,1.4-3.2,3.1v0.1
			C206.8,299.4,208.2,300.8,210,300.8z"/>
		<rect x="163.7" y="142.2" class="st0" width="121.5" height="60.6"/>
		<path class="st1" d="M163.8,205.9h121.4c1.7,0,3.2-1.4,3.2-3.1v-0.1v-60.6c0-1.7-1.4-3.2-3.1-3.2h-0.1H163.8
			c-1.7,0-3.2,1.4-3.2,3.1v0.1v60.6C160.6,204.5,162,205.9,163.8,205.9C163.7,205.9,163.8,205.9,163.8,205.9z M282,199.5H167v-54.2
			H282V199.5z"/>
		<path class="st1" d="M163.8,236.6h121.4c1.8,0,3.2-1.4,3.2-3.2s-1.4-3.2-3.2-3.2H163.8c-1.8,0-3.2,1.4-3.2,3.2
			S162,236.6,163.8,236.6z"/>
		<path class="st1" d="M163.8,264.3h121.4c1.8,0,3.2-1.4,3.2-3.2s-1.4-3.2-3.2-3.2H163.8c-1.8,0-3.2,1.4-3.2,3.2
			S162,264.3,163.8,264.3z"/>
		<path class="st1" d="M274,323.1h121.5c1.8,0,3.2-1.4,3.2-3.2c0-1.8-1.4-3.2-3.2-3.2H274c-1.8,0-3.2,1.4-3.2,3.2
			C270.9,321.7,272.3,323.1,274,323.1z"/>
		<path class="st1" d="M274,350.8h121.5c1.8,0,3.2-1.4,3.2-3.2c0-1.8-1.4-3.2-3.2-3.2H274c-1.8,0-3.2,1.4-3.2,3.2
			C270.9,349.4,272.3,350.8,274,350.8z"/>
	</g>
</g>
<g transform="translate(937.0 540.0) rotate(180.0 -137.5 42.5) scale(-0.5094479436828455 0.5114320096269556)">
	<g transform="translate(-0.0 -0.0)">
		<g>
			<g>
				<path class="st6" d="M-582.4,342.7h236.3v-98.6h-236.3l-53.5,37.2c-8.4,5.9-8.4,18.4,0,24.3L-582.4,342.7z"/>
				<path class="st1" d="M-582.4,345.9h236.3c1.8,0,3.2-1.4,3.2-3.2v-98.6c0-1.8-1.4-3.2-3.2-3.2h-236.3c-0.7,0-1.2,0.2-1.8,0.6
					l-53.5,37.2c-4.8,3.4-7.7,8.9-7.7,14.8c0,5.9,2.9,11.4,7.7,14.7l53.5,37.2C-583.6,345.7-583,345.9-582.4,345.9z M-349.2,339.5
					h-232l-52.7-36.6c-3.2-2.1-5-5.7-5-9.5c0-3.9,1.8-7.3,5-9.6l52.7-36.6h232V339.5z"/>
			</g>
			<g>
				<path class="st6" d="M-354.8,293c-14,0-25.3,0-25.3,0S-368.9,293-354.8,293c14,0,25.3,0,25.3,0S-340.8,293-354.8,293z"/>
				<path class="st1" d="M-354.8,345.9c29.2,0,52.9-23.7,52.9-52.9s-23.7-52.9-52.9-52.9s-52.9,23.7-52.9,52.9
					S-384,345.9-354.8,345.9z M-354.8,246.5c25.6,0,46.5,20.9,46.5,46.5c0,25.6-20.9,46.5-46.5,46.5s-46.5-20.9-46.5-46.5
					C-401.3,267.4-380.5,246.5-354.8,246.5z"/>
			</g>
			<g>
				<path class="st1" d="M-354.8,293c-6.7,0-12.1,0-12.1,0S-361.5,293-354.8,293s12.1,0,12.1,0S-348.1,293-354.8,293z"/>
				<path class="st1" d="M-354.8,320c14.9,0,27-12.1,27-27c0-14.9-12.1-27-27-27s-27,12.1-27,27C-381.9,307.9-369.7,320-354.8,320z
					 M-354.8,272.3c11.4,0,20.7,9.3,20.7,20.7c0,11.5-9.3,20.7-20.7,20.7c-11.4,0-20.7-9.3-20.7-20.7
					C-375.5,281.5-366.2,272.3-354.8,272.3z"/>
			</g>
			<g>
				<path class="st1" d="M-581.1,345.1c15.2,0,27.5-12.4,27.5-27.6c0-7.7-3.3-15.1-9.4-20.8c-1.5-1.5-2.3-2.7-2.3-3.7
					c0-1.2,1.2-2.6,2.1-3.5c6.2-5.8,9.5-13.1,9.5-20.9c0-15.2-12.3-27.6-27.5-27.6c-1.8,0-3.2,1.4-3.2,3.2c0,1.8,1.4,3.2,3.2,3.2
					c11.7,0,21.2,9.5,21.2,21.2c0,5.9-2.6,11.7-7.5,16.3c-2.7,2.6-4.1,5.2-4.2,8.1c0,2.9,1.4,5.7,4.3,8.4c4.8,4.6,7.3,10.3,7.3,16.2
					c0,11.7-9.5,21.2-21.2,21.2c-1.8,0-3.2,1.4-3.2,3.2C-584.3,343.7-582.9,345.1-581.1,345.1z"/>
			</g>
			<g>
				<path class="st1" d="M-621.7,271.4v44l-13.1-8.7c-9.8-6.4-9.6-20.7,0.2-27L-621.7,271.4z"/>
				<path class="st1" d="M-621.7,318.6c0.5,0,1-0.1,1.5-0.4c1-0.6,1.7-1.7,1.7-2.8v-44c0-1.2-0.7-2.2-1.7-2.8s-2.3-0.5-3.2,0.1
					l-12.9,8.3c-5.5,3.5-8.9,9.5-9,16s3.2,12.6,8.7,16.2l13.1,8.7C-622.9,318.4-622.4,318.6-621.7,318.6z M-624.9,277.2v32.2
					l-8.2-5.5c-3.7-2.4-5.9-6.5-5.8-10.9s2.3-8.4,5.9-10.7L-624.9,277.2z"/>
			</g>
			<g>
				<path class="st1" d="M-556.7,271.8H-398c1.8,0,3.2-1.4,3.2-3.2s-1.4-3.2-3.2-3.2h-158.7c-1.8,0-3.2,1.4-3.2,3.2
					S-558.6,271.8-556.7,271.8z"/>
			</g>
			<g>
				<path class="st1" d="M-556.7,320.7H-398c1.8,0,3.2-1.4,3.2-3.2s-1.4-3.2-3.2-3.2h-158.7c-1.8,0-3.2,1.4-3.2,3.2
					S-558.6,320.7-556.7,320.7z"/>
			</g>
		</g>
	</g>
</g>
</svg>
