<?xml version="1.0" encoding="utf-8"?>
<!-- Generator: Adobe Illustrator 25.0.1, SVG Export Plug-In . SVG Version: 6.00 Build 0)  -->
<svg version="1.1" id="Layer_1" xmlns="http://www.w3.org/2000/svg" xmlns:xlink="http://www.w3.org/1999/xlink" x="0px" y="0px"
	 viewBox="0 0 813 633.4" style="enable-background:new 0 0 813 633.4;" xml:space="preserve">
<style type="text/css">
	.st0{fill:#55D0D2;}
	.st1{fill:#383A48;}
	.st2{fill:#E86166;}
	.st3{fill:none;}
	.st4{fill:#FFFFFF;}
	.st5{fill:#009092;}
</style>
<g transform="translate(847.0 93.0) rotate(0.0 146.5 129.5) scale(0.9167709637046307 0.9161655465157411)">
	<g transform="translate(-0.0 -0.0)">
		<ellipse class="st0" cx="-223.2" cy="139.1" rx="47.3" ry="47.3"/>
		<path class="st1" d="M-223.2,195c-30.9,0-56-25-56-56s25-56,56-56s56,25,56,56l0,0C-167.3,169.9-192.3,194.9-223.2,195z
			 M-223.2,91.8c-26.2,0-47.3,21.1-47.3,47.3s21.1,47.3,47.3,47.3s47.3-21.1,47.3-47.3l0,0C-175.9,113-197.1,91.8-223.2,91.8z"/>
		<path class="st2" d="M-223.2,241.2L-223.2,241.2c-12.1,0-21.9-9.8-21.9-21.8c0,0,0,0,0-0.1V184h43.8v35.3
			C-201.3,231.4-211.1,241.2-223.2,241.2z"/>
		<path class="st1" d="M-223.2,245.6c-14.5,0-26.2-11.8-26.2-26.2v-39.6h52.5v39.6C-196.9,233.8-208.7,245.6-223.2,245.6z
			 M-240.8,188.5v30.9c0,9.7,7.9,17.6,17.6,17.6c9.7,0,17.6-7.9,17.6-17.6l0,0v-30.9L-240.8,188.5z"/>
		<rect x="-245.1" y="198.9" class="st1" width="43.8" height="8.7"/>
		<rect x="-245.1" y="217.9" class="st1" width="43.8" height="8.7"/>
		<path class="st1" d="M-223.2,30.1c-2.3,0-4.3-1.9-4.3-4.2v-0.1V5c0-2.4,1.9-4.3,4.3-4.3c2.4,0,4.3,1.9,4.3,4.3v20.8
			C-218.9,28.1-220.9,30.1-223.2,30.1z"/>
		<line class="st3" x1="-128.4" y1="44.2" x2="-143.1" y2="59"/>
		<path class="st1" d="M-143.1,63.3c-1.1,0-2.3-0.4-3-1.3c-1.7-1.6-1.7-4.3-0.1-6.1l0.1-0.1l14.7-14.7c1.7-1.7,4.4-1.7,6.2,0
			c1.7,1.7,1.7,4.4,0,6.2L-139.9,62C-140.8,62.8-141.9,63.3-143.1,63.3z"/>
		<path class="st1" d="M-89.1,143.4h-20.8c-2.4,0-4.3-1.9-4.3-4.3s1.9-4.3,4.3-4.3h20.8c2.3,0,4.3,1.9,4.3,4.2v0.1
			C-84.8,141.5-86.7,143.4-89.1,143.4z"/>
		<line class="st3" x1="-318.1" y1="44.2" x2="-303.3" y2="59"/>
		<path class="st1" d="M-303.3,63.3c-1.1,0-2.3-0.4-3-1.3l-14.7-14.7c-1.7-1.7-1.7-4.4,0-6.2c1.7-1.7,4.4-1.7,6.2,0l14.7,14.7
			c1.7,1.6,1.7,4.3,0.1,6.1l-0.1,0.1C-301.1,62.9-302.1,63.3-303.3,63.3z"/>
		<path class="st1" d="M-336.5,143.4h-20.8c-2.4,0-4.3-1.9-4.3-4.3s1.9-4.3,4.3-4.3h20.8c2.4,0,4.3,1.9,4.3,4.3
			S-334.1,143.4-336.5,143.4z"/>
	</g>
</g>
<g transform="translate(653.0 569.0) rotate(0.0 50.5 50.5) scale(0.37911205200966924 0.37911205200966924)">
	<g transform="translate(-0.0 -0.0)">
		<g id="Layer_2-i6">
			<g id="circle_2-i6">
				<circle class="st2" cx="-690.7" cy="-50.9" r="111.1"/>
				<path class="st2" d="M-690.7,64.5c-63.6,0-115.4-51.7-115.4-115.4s51.8-115.4,115.4-115.4s115.4,51.8,115.4,115.4
					S-627,64.5-690.7,64.5z M-690.7-157.6c-58.9,0-106.7,47.8-106.7,106.7s47.8,106.7,106.7,106.7C-631.8,55.8-584,8-584-50.9l0,0
					C-584-109.8-631.8-157.6-690.7-157.6z"/>
			</g>
		</g>
	</g>
</g>
<g transform="translate(151.0 391.0) rotate(0.0 11.0 11.0) scale(0.7236842105263158 0.7236842105263158)">
	<g transform="translate(-0.0 -0.0)">
		<g id="Layer_1_1_-i7">
			<g>
				<g>
					
						<rect x="-82" y="-116.1" transform="matrix(0.7071 -0.7072 0.7072 0.7071 59.2141 -80.6018)" class="st1" width="28.6" height="8.7"/>
				</g>
				<g>
					
						<rect x="-72" y="-126.1" transform="matrix(0.7071 -0.7071 0.7071 0.7071 59.2118 -80.5945)" class="st1" width="8.7" height="28.6"/>
				</g>
			</g>
		</g>
		<g id="Isolation_Mode-i7">
		</g>
	</g>
</g>
<g transform="translate(1108.0 572.0) rotate(0.0 10.5 10.5) scale(0.6907894736842105 0.6907894736842105)">
	<g transform="translate(-0.0 -0.0)">
		<g id="Layer_1_1_-i8">
			<g>
				<g>
					
						<rect x="-885.2" y="-754.4" transform="matrix(0.7071 -0.7072 0.7072 0.7071 275.2913 -835.6161)" class="st1" width="28.6" height="8.7"/>
				</g>
				<g>
					
						<rect x="-875.3" y="-764.4" transform="matrix(0.7071 -0.7071 0.7071 0.7071 275.2973 -835.5367)" class="st1" width="8.7" height="28.6"/>
				</g>
			</g>
		</g>
		<g id="Isolation_Mode-i8">
		</g>
	</g>
</g>
<g transform="translate(327.0 95.0) rotate(0.0 237.5 243.5) scale(0.9092649310872895 0.907059042652263)">
	<g transform="translate(-0.0 -0.0)">
		<polygon class="st4" points="91.9,411.6 9,411.6 3.1,326.9 32.6,322.2 		"/>
		<path class="st1" d="M91.9,415.9H9c-2.3,0-4.2-1.8-4.3-4.1l-5.9-84.7c-0.2-2.3,1.4-4.2,3.6-4.6l29.5-4.6c1.6-0.3,3.4,0.4,4.2,1.9
			l59.3,89.4c0.9,1.3,1,3,0.2,4.4C94.9,415.1,93.5,416,91.9,415.9z M13.1,407.3h70.8L30.5,327l-22.8,3.6L13.1,407.3z"/>
		<path class="st4" d="M160,29.9v313.7c0,37.6-30.5,68.1-68.1,68.1s-68.1-30.5-68.1-68.1l0,0v-5.4c0-4.1-3.4-7.5-7.5-7.5
			s-7.5,3.4-7.5,7.5v123h-266.8v-46.7l206.2-76.4c0-37.6,30.5-68.1,68.1-68.1s68,30.5,68.1,68.1v5.4c0,4.1,3.4,7.5,7.5,7.5
			s7.5-3.4,7.5-7.5V29.9L160,29.9L160,29.9z"/>
		<path class="st1" d="M9,465.5h-266.8c-2.3,0-4.3-1.9-4.3-4.2v-0.1v-46.7c0-1.8,1.1-3.5,2.9-4.1L-55.9,335
			c1.6-39.9,35.4-71,75.4-69.3c38.8,1.6,69.4,33.5,69.4,72.3v5.4c0,1.7,1.4,3.1,3.1,3.1c1.7,0,3.1-1.4,3.1-3.1V29.8
			c0-2.3,1.9-4.3,4.2-4.3h0.1h60.6c2.3,0,4.3,1.9,4.3,4.2v0.1v313.6c0,40-32.4,72.4-72.3,72.5c-40,0-72.4-32.4-72.5-72.4v-5.4
			c0-1.7-1.4-3.1-3.1-3.1s-3.1,1.4-3.1,3.1v123.1C13.3,463.6,11.4,465.5,9,465.5L9,465.5z M-253.5,456.8H4.7V338.1
			c0-6.5,5.3-11.8,11.8-11.8s11.8,5.3,11.8,11.8v5.4c0,35.2,28.6,63.8,63.8,63.8s63.8-28.6,63.8-63.8V34.2h-52v309.3
			c0,6.5-5.3,11.8-11.8,11.8c-6.5,0-11.8-5.3-11.8-11.8l0,0v-5.4c0-35.2-28.6-63.8-63.8-63.8s-63.8,28.6-63.8,63.8
			c0,1.8-1.1,3.5-2.9,4.1l-203.3,75.4V456.8z"/>
		<polyline class="st1" points="16.4,322.9 -20.6,322.9 -26.2,325.4 -9.7,284.7 52.7,284.7 91.9,381.3 35.3,381.3 		"/>
		<path class="st1" d="M91.9,385.6H35.2c-2.4,0-4.3-1.9-4.3-4.3s1.9-4.3,4.3-4.3h50.2L49.6,289H-6.9l-12,29.5h35.2
			c2.4,0,4.3,1.9,4.3,4.3c0,2.4-1.9,4.3-4.3,4.3h-36.1l-4.8,2.2c-2.3,1-4.8-0.1-5.7-2.3c-0.4-1-0.4-2.3-0.1-3.4l16.5-40.7
			c0.7-1.6,2.3-2.7,4-2.7h62.4c1.7,0,3.4,1,4,2.7l39.3,96.6c0.5,1.4,0.3,2.9-0.4,4.1C94.6,384.9,93.3,385.6,91.9,385.6z"/>
		<path class="st4" d="M-132.8,300.5V4.7h262.5v338.8c0,20.9-16.9,37.8-37.7,37.8c0,0,0,0-0.1,0l0,0c-20.9,0-37.8-16.9-37.8-37.7
			c0,0,0,0,0-0.1v-5.4c0-20.9-16.9-37.8-37.7-37.8c0,0,0,0-0.1,0l0,0c-20.9,0-37.8,16.9-37.8,37.7c0,0,0,0,0,0.1V436h-262.5v-97.9
			c0-20.9,16.9-37.8,37.7-37.8c0,0,0,0,0.1,0l0,0L-132.8,300.5z"/>
		<path class="st1" d="M-21.3,440.4h-262.5c-2.3,0-4.3-1.9-4.3-4.2V436v-97.9c0-23.2,18.9-42.1,42.1-42.1l108.9,0.2V4.7
			c0-2.3,1.9-4.3,4.2-4.3h0.1h262.5c2.3,0,4.3,1.9,4.3,4.2v0.1v338.8c0,23.2-18.9,42.1-42.1,42.1s-42.1-18.9-42.1-42.1v-5.4
			c0-18.5-15-33.4-33.4-33.4s-33.4,15-33.4,33.4V436c0.1,2.3-1.7,4.2-4.1,4.3C-21.2,440.4-21.2,440.4-21.3,440.4z M-279.5,431.7
			h253.8v-93.6c0-23.2,18.9-42.1,42.1-42.1s42.1,18.9,42.1,42.1v5.4c0,18.5,15,33.4,33.4,33.4s33.4-15,33.4-33.4l0,0V9h-253.8v291.5
			c0,1.1-0.4,2.3-1.3,3c-0.8,0.8-1.9,1.3-3,1.3l0,0l-113.2-0.2c-18.5,0-33.4,15-33.4,33.4L-279.5,431.7L-279.5,431.7z"/>
		<path class="st1" d="M16.4,304.9h-149.3c-2.4,0-4.3-1.9-4.3-4.3c0-2.4,1.9-4.3,4.3-4.3H16.4c2.3,0,4.3,1.9,4.3,4.2v0.1
			C20.8,303,18.9,304.9,16.4,304.9z"/>
		<rect x="-86" y="88.9" class="st5" width="165.4" height="82.5"/>
		<path class="st1" d="M79.3,175.7H-86c-2.3,0-4.3-1.9-4.3-4.2v-0.1V88.9c0-2.3,1.9-4.3,4.2-4.3h0.1H79.3c2.3,0,4.3,1.9,4.3,4.2v0.1
			v82.5C83.7,173.7,81.8,175.7,79.3,175.7C79.4,175.7,79.3,175.7,79.3,175.7z M-81.7,167H75V93.2H-81.7V167z"/>
		<path class="st1" d="M79.3,217.5H-86c-2.4,0-4.3-1.9-4.3-4.3s1.9-4.3,4.3-4.3H79.3c2.4,0,4.3,1.9,4.3,4.3S81.8,217.5,79.3,217.5z"
			/>
		<path class="st1" d="M79.3,255.2H-86c-2.4,0-4.3-1.9-4.3-4.3s1.9-4.3,4.3-4.3H79.3c2.4,0,4.3,1.9,4.3,4.3S81.8,255.2,79.3,255.2z"
			/>
		<path class="st1" d="M-70.8,335.2h-165.4c-2.4,0-4.3-1.9-4.3-4.3s1.9-4.3,4.3-4.3h165.4c2.4,0,4.3,1.9,4.3,4.3
			S-68.4,335.2-70.8,335.2z"/>
		<path class="st1" d="M-70.8,372.9h-165.4c-2.4,0-4.3-1.9-4.3-4.3c0-2.4,1.9-4.3,4.3-4.3h165.4c2.4,0,4.3,1.9,4.3,4.3
			C-66.5,371-68.4,372.9-70.8,372.9z"/>
	</g>
</g>
<g transform="translate(937.0 540.0) rotate(180.0 -137.5 42.5) scale(-0.5094479436828455 0.5114320096269556)">
	<g transform="translate(-0.0 -0.0)">
		<g>
			<g>
				<path class="st0" d="M-220.4,277.6h-321.7V143.3h321.7l72.9,50.6c11.5,8.1,11.5,25.1,0,33.1L-220.4,277.6z"/>
				<path class="st1" d="M-220.4,281.9h-321.7c-2.4,0-4.3-1.9-4.3-4.3V143.3c0-2.4,1.9-4.3,4.3-4.3h321.7c0.9,0,1.7,0.3,2.5,0.8
					l72.9,50.6c6.6,4.6,10.5,12.1,10.5,20.2c0,8-4,15.5-10.5,20l-72.9,50.6C-218.7,281.6-219.6,281.9-220.4,281.9z M-537.8,273.2
					h315.9l71.7-49.8c4.3-2.9,6.8-7.7,6.8-12.9c0-5.3-2.4-10-6.8-13.1l-71.7-49.8h-315.9V273.2z"/>
			</g>
			<g>
				<ellipse class="st0" cx="-530.2" cy="209.9" rx="34.5" ry="-34.6"/>
				<path class="st1" d="M-530.2,281.9c-39.7,0-72-32.3-72-72s32.3-72,72-72s72,32.3,72,72S-490.5,281.9-530.2,281.9z M-530.2,146.6
					c-34.9,0-63.3,28.4-63.3,63.3s28.4,63.3,63.3,63.3s63.3-28.4,63.3-63.3S-495.3,146.6-530.2,146.6z"/>
			</g>
			<g>
				<ellipse class="st1" cx="-530.2" cy="209.9" rx="16.5" ry="-16.6"/>
				<path class="st1" d="M-530.2,246.7c-20.3,0-36.8-16.5-36.8-36.8s16.5-36.8,36.8-36.8s36.8,16.5,36.8,36.8
					S-510,246.7-530.2,246.7z M-530.2,181.7c-15.5,0-28.2,12.6-28.2,28.2s12.6,28.2,28.2,28.2c15.5,0,28.2-12.6,28.2-28.2
					S-514.7,181.7-530.2,181.7z"/>
			</g>
			<g>
				<path class="st1" d="M-222.1,280.9c-20.7,0-37.5-16.9-37.5-37.6c0-10.5,4.5-20.5,12.8-28.3c2.1-2,3.1-3.7,3.1-5.1
					c0-1.6-1.6-3.5-2.9-4.7c-8.4-7.9-13-17.9-13-28.5c0-20.7,16.8-37.6,37.5-37.6c2.4,0,4.3,1.9,4.3,4.3s-1.9,4.3-4.3,4.3
					c-15.9,0-28.8,13-28.8,28.9c0,8.1,3.6,15.9,10.2,22.2c3.7,3.5,5.6,7.1,5.7,11c0,3.9-1.9,7.7-5.9,11.4c-6.5,6.2-10,14-10,22.1
					c0,15.9,12.9,28.9,28.8,28.9c2.4,0,4.3,1.9,4.3,4.3S-219.7,280.9-222.1,280.9z"/>
			</g>
			<g>
				<path class="st1" d="M-166.8,180.5v59.9l17.9-11.9c13.3-8.7,13.1-28.2-0.3-36.7L-166.8,180.5z"/>
				<path class="st1" d="M-166.8,244.7c-0.7,0-1.4-0.2-2.1-0.5c-1.4-0.8-2.3-2.3-2.3-3.8v-59.9c0-1.6,0.9-3,2.3-3.8
					c1.4-0.8,3.1-0.7,4.4,0.2l17.6,11.3c7.5,4.8,12.1,12.9,12.2,21.8s-4.3,17.2-11.8,22.1l-17.9,11.9
					C-165.2,244.5-165.9,244.7-166.8,244.7z M-162.5,188.4v43.9l11.2-7.5c5-3.3,8-8.8,7.9-14.8c-0.1-6-3.1-11.4-8.1-14.6
					L-162.5,188.4z"/>
			</g>
			<g>
				<path class="st1" d="M-255.3,181h-216.1c-2.4,0-4.3-1.9-4.3-4.3s1.9-4.3,4.3-4.3h216.1c2.4,0,4.3,1.9,4.3,4.3
					S-252.8,181-255.3,181z"/>
			</g>
			<g>
				<path class="st1" d="M-255.3,247.6h-216.1c-2.4,0-4.3-1.9-4.3-4.3s1.9-4.3,4.3-4.3h216.1c2.4,0,4.3,1.9,4.3,4.3
					S-252.8,247.6-255.3,247.6z"/>
			</g>
		</g>
	</g>
</g>
</svg>
