<?xml version="1.0" encoding="utf-8"?>
<!-- Generator: Adobe Illustrator 25.0.1, SVG Export Plug-In . SVG Version: 6.00 Build 0)  -->
<svg version="1.1" id="Layer_1" xmlns="http://www.w3.org/2000/svg" xmlns:xlink="http://www.w3.org/1999/xlink" x="0px" y="0px"
	 viewBox="0 0 813 633.4" style="enable-background:new 0 0 813 633.4;" xml:space="preserve">
<style type="text/css">
	.st0{fill:#FFFFFF;}
	.st1{fill:#E86166;}
	.st2{fill:#FFFCFC;}
	.st3{fill:#ED8286;}
</style>
<g transform="translate(327.0 95.0) rotate(0.0 237.5 243.5) scale(0.9092649310872895 0.907059042652263)">
	<g transform="translate(-0.0 -0.0)">
		<polygon class="st0" points="7.1,401.2 68,401.2 72.4,339 50.7,335.5 		"/>
		<path class="st1" d="M7.1,404.3H68c1.7,0,3.1-1.3,3.2-3l4.3-62.2c0.1-1.7-1-3.1-2.6-3.4l-21.7-3.4c-1.2-0.2-2.5,0.3-3.1,1.4
			L4.6,399.4c-0.7,1-0.7,2.2-0.1,3.2C4.9,403.8,6,404.4,7.1,404.3z M65,398H13l39.2-59l16.7,2.6L65,398z"/>
		<path class="st2" d="M-42.9,120.8v230.4c0,27.6,22.4,50,50,50s50-22.4,50-50l0,0v-4c0-3,2.5-5.5,5.5-5.5s5.5,2.5,5.5,5.5v90.3h196
			v-34.3l-151.4-56.1c0-27.6-22.4-50-50-50s-49.9,22.4-50,50v4c0,3-2.5,5.5-5.5,5.5s-5.5-2.5-5.5-5.5V120.8H-42.9L-42.9,120.8z"/>
		<path class="st1" d="M68,440.8h196c1.7,0,3.2-1.4,3.2-3.1v-0.1v-34.3c0-1.3-0.8-2.6-2.1-3l-149.3-55.4
			c-1.2-29.3-26-52.1-55.4-50.9c-28.5,1.2-51,24.6-51,53.1v4c0,1.2-1,2.3-2.3,2.3s-2.3-1-2.3-2.3V120.8c0-1.7-1.4-3.2-3.1-3.2H1.6
			h-44.5c-1.7,0-3.2,1.4-3.2,3.1v0.1v230.3c0,29.4,23.8,53.2,53.1,53.2c29.4,0,53.2-23.8,53.2-53.2v-4c0-1.2,1-2.3,2.3-2.3
			s2.3,1,2.3,2.3v90.4C64.9,439.4,66.3,440.8,68,440.8L68,440.8z M260.8,434.4H71.2v-87.2c0-4.8-3.9-8.7-8.7-8.7s-8.7,3.9-8.7,8.7v4
			c0,25.9-21,46.9-46.9,46.9s-46.9-21-46.9-46.9V124h38.2v227.2c0,4.8,3.9,8.7,8.7,8.7s8.7-3.9,8.7-8.7l0,0v-4
			c0-25.9,21-46.9,46.9-46.9s46.9,21,46.9,46.9c0,1.3,0.8,2.6,2.1,3l149.3,55.4V434.4L260.8,434.4z"/>
		<polyline class="st1" points="62.6,336 89.8,336 93.9,337.9 81.8,308 35.9,308 7.1,378.9 48.7,378.9 		"/>
		<path class="st1" d="M7.1,382.1h41.6c1.8,0,3.2-1.4,3.2-3.2c0-1.8-1.4-3.2-3.2-3.2H11.8l26.3-64.6h41.5l8.8,21.7H62.5
			c-1.8,0-3.2,1.4-3.2,3.2c0,1.8,1.4,3.2,3.2,3.2H89l3.5,1.6c1.7,0.7,3.5-0.1,4.2-1.7c0.3-0.7,0.3-1.7,0.1-2.5l-12.1-29.9
			c-0.5-1.2-1.7-2-2.9-2H36c-1.2,0-2.5,0.7-2.9,2l-28.9,71c-0.4,1-0.2,2.1,0.3,3C5.2,381.6,6.1,382.1,7.1,382.1z"/>
		<path class="st2" d="M172.2,319.6V102.3H-20.6v248.8c0,15.4,12.4,27.8,27.7,27.8c0,0,0,0,0.1,0l0,0c15.4,0,27.8-12.4,27.8-27.7
			c0,0,0,0,0-0.1v-4c0-15.4,12.4-27.8,27.7-27.8c0,0,0,0,0.1,0l0,0c15.4,0,27.8,12.4,27.8,27.7c0,0,0,0,0,0.1V419h192.8v-71.9
			c0-15.4-12.4-27.8-27.7-27.8c0,0,0,0-0.1,0l0,0L172.2,319.6z"/>
		<path class="st1" d="M90.3,422.3h192.8c1.7,0,3.2-1.4,3.2-3.1v-0.1v-71.9c0-17-13.9-30.9-30.9-30.9l-80,0.1V102.3
			c0-1.7-1.4-3.2-3.1-3.2h-0.1H-20.6c-1.7,0-3.2,1.4-3.2,3.1v0.1v248.8c0,17,13.9,30.9,30.9,30.9S38,368.1,38,351.1v-4
			c0-13.6,11-24.5,24.5-24.5s24.5,11,24.5,24.5V419c-0.1,1.7,1.2,3.1,3,3.2C90.2,422.3,90.2,422.3,90.3,422.3z M279.9,415.9H93.5
			v-68.7c0-17-13.9-30.9-30.9-30.9s-30.9,13.9-30.9,30.9v4c0,13.6-11,24.5-24.5,24.5s-24.5-11-24.5-24.5l0,0V105.5h186.4v214.1
			c0,0.8,0.3,1.7,1,2.2c0.6,0.6,1.4,1,2.2,1l0,0l83.1-0.1c13.6,0,24.5,11,24.5,24.5L279.9,415.9L279.9,415.9z"/>
		<path class="st1" d="M62.6,322.8h109.7c1.8,0,3.2-1.4,3.2-3.2c0-1.8-1.4-3.2-3.2-3.2H62.6c-1.7,0-3.2,1.4-3.2,3.1v0.1
			C59.4,321.4,60.8,322.8,62.6,322.8z"/>
		<rect x="16.3" y="164.2" class="st3" width="121.5" height="60.6"/>
		<path class="st1" d="M16.4,227.9h121.4c1.7,0,3.2-1.4,3.2-3.1v-0.1v-60.6c0-1.7-1.4-3.2-3.1-3.2h-0.1H16.4c-1.7,0-3.2,1.4-3.2,3.1
			v0.1v60.6C13.2,226.5,14.6,227.9,16.4,227.9C16.3,227.9,16.4,227.9,16.4,227.9z M134.6,221.5h-115v-54.2h115V221.5z"/>
		<path class="st1" d="M16.4,258.6h121.4c1.8,0,3.2-1.4,3.2-3.2c0-1.8-1.4-3.2-3.2-3.2H16.4c-1.8,0-3.2,1.4-3.2,3.2
			C13.2,257.2,14.6,258.6,16.4,258.6z"/>
		<path class="st1" d="M16.4,286.3h121.4c1.8,0,3.2-1.4,3.2-3.2s-1.4-3.2-3.2-3.2H16.4c-1.8,0-3.2,1.4-3.2,3.2
			S14.6,286.3,16.4,286.3z"/>
		<path class="st1" d="M126.6,345.1h121.5c1.8,0,3.2-1.4,3.2-3.2c0-1.8-1.4-3.2-3.2-3.2H126.6c-1.8,0-3.2,1.4-3.2,3.2
			C123.5,343.7,124.9,345.1,126.6,345.1z"/>
		<path class="st1" d="M126.6,372.8h121.5c1.8,0,3.2-1.4,3.2-3.2c0-1.8-1.4-3.2-3.2-3.2H126.6c-1.8,0-3.2,1.4-3.2,3.2
			C123.5,371.4,124.9,372.8,126.6,372.8z"/>
	</g>
</g>
</svg>
