<?xml version="1.0" encoding="utf-8"?>
<!-- Generator: Adobe Illustrator 25.0.1, SVG Export Plug-In . SVG Version: 6.00 Build 0)  -->
<svg version="1.1" id="Calque_1" xmlns:serif="http://www.serif.com/"
	 xmlns="http://www.w3.org/2000/svg" xmlns:xlink="http://www.w3.org/1999/xlink" x="0px" y="0px" viewBox="0 0 470 334.8"
	 style="enable-background:new 0 0 470 334.8;" xml:space="preserve">
<style type="text/css">
	.st0{fill:#004A4C;}
	.st1{fill:#00B9BC;}
	.st2{fill:#009092;}
	.st3{fill:#FFFFFF;}
</style>
<g>
	<g>
		<path class="st0" d="M155,214.5c0.1,0,0.1,0,0.2,0l0,0l0,0c0.5,0,1.1,0.2,1.6,0.5c1.1,0.6,1.7,1.7,1.7,2.9c0,0,0,19.4,0,27.4
			c0,2.3-0.6,4.5-1.7,6.5c-3.3,5.7-10.5,18.2-13.8,23.9c-1.1,2-2.8,3.6-4.8,4.8c-9.3,5.4-36.9,21.3-36.9,21.3
			c-0.2,0.1-0.5,0.3-0.7,0.3v0.1h-0.9c-0.1,0-0.2,0-0.3,0h-6.6v-9.5h3.4V250c0-1.2,0.7-2.3,1.7-2.9l50.4-29.1v-3.4L155,214.5
			L155,214.5L155,214.5z"/>
		<path class="st1" d="M136.3,275.7c-1.1,2-2.8,3.6-4.8,4.8c-9.3,5.4-36.9,21.3-36.9,21.3c-1.1,0.6-2.3,0.6-3.4,0
			c-1.1-0.6-1.7-1.7-1.7-2.9c0-11.2,0-41.9,0-48.9c0-1.2,0.7-2.3,1.7-2.9c8-4.6,42.4-24.5,55.5-32c1.1-0.6,2.3-0.6,3.4,0
			c1.1,0.6,1.7,1.7,1.7,2.9c0,0,0,19.4,0,27.4c0,2.3-0.6,4.5-1.7,6.5C146.8,257.6,139.6,270,136.3,275.7L136.3,275.7z"/>
		<path class="st0" d="M135.5,271.6c2.8-4.8,8.8-15.3,11.6-20.1c1.1-1.9,1.7-4,1.7-6.2c0-6.8,0-19.5,0-19.5c0-1.5-0.8-3-2.2-3.7
			c-1.3-0.8-3-0.8-4.3,0c-11,6.4-40,23.1-46.8,27c-1.3,0.8-2.2,2.2-2.2,3.7c0,5.9,0,28.2,0,37.6c0,1.5,0.8,3,2.2,3.7
			c1.3,0.8,3,0.8,4.3,0c0,0,23.3-13.5,31.1-18C132.9,275.1,134.4,273.6,135.5,271.6L135.5,271.6z M133,270.2
			c-0.9,1.5-2.1,2.7-3.4,3.4c-7.8,4.5-31.1,18-31.1,18c-0.4,0.3-0.9,0.3-1.4,0c-0.4-0.3-0.7-0.7-0.7-1.2c0-9.4,0-31.7,0-37.6
			c0-0.5,0.3-0.9,0.7-1.2c6.8-3.9,35.7-20.6,46.8-27c0.4-0.3,0.9-0.3,1.4,0c0.4,0.3,0.7,0.7,0.7,1.2c0,0,0,12.7,0,19.5
			c0,1.7-0.5,3.3-1.3,4.7C141.8,254.9,135.8,265.3,133,270.2L133,270.2z"/>
		<path class="st0" d="M117.8,245.3c3.6-3.6,9.5-3.6,13.1,0c3.6,3.6,3.6,9.5,0,13.1L114,275.2c-2.6,2.6-6.8,2.6-9.3,0
			c-2.6-2.6-2.6-6.8,0-9.3l16.8-16.8c1.6-1.6,4.1-1.6,5.7,0c1.6,1.6,1.6,4.1,0,5.7l-16.1,16.2c-0.6,0.6-1.5,0.6-2.1,0
			c-0.6-0.6-0.6-1.5,0-2.1l16.1-16.1c0.4-0.4,0.4-1.1,0-1.6c-0.4-0.4-1.1-0.4-1.6,0L106.8,268c-1.5,1.5-1.5,3.8,0,5.2
			c1.5,1.5,3.8,1.5,5.2,0l16.8-16.8c2.5-2.5,2.5-6.5,0-9c-2.5-2.5-6.5-2.5-9,0L108,259c-0.6,0.6-1.5,0.6-2.1,0
			c-0.6-0.6-0.6-1.5,0-2.1L117.8,245.3z M122.5,250.2h1.1H122.5z M122.5,250.2v-1.1V250.2z"/>
	</g>
	<g>
		<path class="st2" d="M129.1,187c0,2.3-1.2,4.3-3.1,5.4c-8.2,4.7-30.4,17.6-43.2,24.9c-1.9,1.1-4.3,1.1-6.2,0
			c-1.9-1.1-3.1-3.2-3.1-5.4v-45.2c0-2.3,1.2-4.3,3.1-5.4c8.2-4.7,30.4-17.6,43.2-24.9c1.9-1.1,4.3-1.1,6.2,0s3.1,3.2,3.1,5.4V187
			L129.1,187z"/>
		<path class="st0" d="M125.4,187c0,2.3-1.2,4.3-3.1,5.4c-8.2,4.7-30.4,17.6-43.2,24.9c-1.9,1.1-4.3,1.1-6.2,0
			c-1.9-1.1-3.1-3.2-3.1-5.4v-45.2c0-2.3,1.2-4.3,3.1-5.4c8.2-4.7,30.4-17.6,43.2-24.9c1.9-1.1,4.3-1.1,6.2,0
			c1.9,1.1,3.1,3.2,3.1,5.4V187z"/>
		<path class="st2" d="M98.3,179.6c0.8-1.6,2-4,3.4-6.9c1.3-2.7,2.9-5.8,4.6-9c6.4-12.5,14-26.9,14-26.9c0.4-0.8,1.4-1.1,2.2-0.7
			s1.1,1.4,0.7,2.2c0,0-7,14.7-13.1,27.4c-1.6,3.2-3.1,6.4-4.4,9.1c-2.7,5.3-4.6,9-4.6,9c-0.3,0.5-0.8,0.9-1.4,1.1
			c-0.6,0.1-1.2,0.1-1.7-0.3l-26-18c-0.7-0.5-0.9-1.5-0.5-2.3c0.5-0.7,1.5-0.9,2.3-0.5L98.3,179.6L98.3,179.6z"/>
	</g>
	<g>
		<path class="st0" d="M310.1,88.2c0.2,0,0.4,0,0.6,0l0,0l0,0c0.8,0.1,1.6,0.3,2.3,0.7c1.6,0.9,2.7,2.7,2.7,4.5
			c0,17.3,0,54.3,0,65.1c0,1.9-1,3.6-2.7,4.5c-12.4,7.2-65.6,37.9-85.9,49.6c-0.9,0.5-1.8,0.7-2.7,0.7l0,0H218l2-2.8
			c-0.4-0.7-0.6-1.5-0.6-2.4c0-17.3,0-54.3,0-65.1c0-1.9,1-3.6,2.7-4.5l79.1-45.7l3.2-4.6L310.1,88.2L310.1,88.2z"/>
		<path class="st2" d="M309.1,158.6c0,1.9-1,3.6-2.7,4.5c-12.4,7.2-65.6,37.9-85.9,49.6c-1.6,0.9-3.6,0.9-5.2,0
			c-1.6-0.9-2.7-2.7-2.7-4.5c0-17.3,0-54.3,0-65.1c0-1.9,1-3.6,2.7-4.5c12.4-7.2,65.6-37.9,85.9-49.6c1.6-0.9,3.6-0.9,5.2,0
			s2.7,2.7,2.7,4.5C309.1,110.8,309.1,147.8,309.1,158.6z"/>
		<path class="st3" d="M293.1,101.6c6.2-3.4,11.3-1.1,11.3,5.2c0,6.2-5.1,14.1-11.3,17.5c-6.2,3.4-11.3,1.1-11.3-5.2
			C281.8,112.8,286.9,105,293.1,101.6L293.1,101.6z"/>
		<path class="st1" d="M293.1,106.9c3.3-1.8,6-0.6,6,2.7c0,3.3-2.7,7.5-6,9.3c-3.3,1.8-6,0.6-6-2.7
			C287.1,112.9,289.8,108.7,293.1,106.9L293.1,106.9z"/>
		<path class="st0" d="M224.6,180.4l12.7-7.4c1.1-0.6,1.4-1.9,0.8-3c-0.6-1.1-1.9-1.4-3-0.8l-12.7,7.4c-1.1,0.6-1.4,1.9-0.8,3
			C222.1,180.6,223.5,181,224.6,180.4z"/>
		<path class="st0" d="M242.9,169.8l5.8-3.3c1.1-0.6,1.4-1.9,0.8-3c-0.6-1.1-1.9-1.4-3-0.8l-5.8,3.3c-1.1,0.6-1.4,1.9-0.8,3
			C240.5,170,241.8,170.4,242.9,169.8z"/>
		<path class="st0" d="M224.6,189.5l24.5-14.1c1.1-0.6,1.4-1.9,0.8-3c-0.6-1.1-1.9-1.4-3-0.8l-24.5,14.1c-1.1,0.6-1.4,1.9-0.8,3
			C222.1,189.7,223.5,190.1,224.6,189.5z"/>
		<path class="st0" d="M224.6,198.2l16.8-9.7c1.1-0.6,1.4-1.9,0.8-3c-0.6-1.1-1.9-1.4-3-0.8l-16.8,9.7c-1.1,0.6-1.4,1.9-0.8,3
			C222.1,198.4,223.5,198.8,224.6,198.2z"/>
		<path class="st0" d="M269.4,122c1.1-2.7,2.7-4.4,4.4-5.3c1.8-1,3.8-1.2,6-0.7c2.8,0.5,5.3-0.9,6.3-3.5c0.3-0.7,1.1-1.1,1.9-0.9
			c0.7,0.3,1.1,1.1,0.9,1.9c-1.5,4-5.4,6.2-9.6,5.4c-1.4-0.3-2.8-0.2-4,0.5c-1.3,0.7-2.3,1.9-3.1,3.8c-0.3,0.7-1.2,1.1-1.9,0.8
			C269.4,123.6,269.1,122.7,269.4,122L269.4,122z"/>
		<path class="st0" d="M269.4,129.8c1.1-2.7,2.7-4.4,4.4-5.3c1.8-1,3.8-1.2,6-0.7c2.8,0.5,5.3-0.9,6.3-3.5c0.3-0.7,1.1-1.1,1.9-0.9
			c0.7,0.3,1.1,1.1,0.9,1.9c-1.5,4-5.4,6.2-9.6,5.4c-1.4-0.3-2.8-0.2-4,0.5c-1.3,0.7-2.3,1.9-3.1,3.8c-0.3,0.7-1.2,1.1-1.9,0.8
			C269.4,131.3,269.1,130.5,269.4,129.8L269.4,129.8z"/>
		<path class="st0" d="M269.4,137.4c1.1-2.7,2.7-4.4,4.4-5.3c1.8-1,3.8-1.2,6-0.7c2.8,0.5,5.3-0.9,6.3-3.5c0.3-0.7,1.1-1.1,1.9-0.9
			c0.7,0.3,1.1,1.1,0.9,1.9c-1.5,4-5.4,6.2-9.6,5.4c-1.4-0.3-2.8-0.2-4,0.5c-1.3,0.7-2.3,1.9-3.1,3.8c-0.3,0.7-1.2,1.1-1.9,0.8
			C269.4,139.1,269.1,138.2,269.4,137.4L269.4,137.4z"/>
	</g>
	<g>
		<path class="st1" d="M441.5,65.9c0.4,0,0.8,0,1.2,0l0,0l0,0c1.5,0.1,3,0.5,4.3,1.3c3,1.7,4.8,5,4.8,8.4c0,32.2,0,101,0,121.1
			c0,3.5-1.9,6.7-4.8,8.4c-23.1,13.4-122,70.4-159.6,92.2c-1.6,0.9-3.3,1.3-5.1,1.3l0,0h-12.1l3.6-5.3c-0.7-1.3-1.1-2.8-1.1-4.4
			c0-32.2,0-101,0-121.1c0-3.5,1.9-6.7,4.8-8.4l147.1-84.9l5.9-8.5L441.5,65.9L441.5,65.9z"/>
		<path class="st0" d="M439.8,196.7c0,3.5-1.9,6.7-4.8,8.4c-23.1,13.4-122,70.4-159.6,92.2c-3,1.7-6.7,1.7-9.7,0
			c-3-1.7-4.8-5-4.8-8.4c0-32.2,0-101,0-121.1c0-3.5,1.9-6.7,4.8-8.4c23.1-13.3,122-70.4,159.6-92.2c3-1.7,6.7-1.7,9.7,0
			c3,1.7,4.8,5,4.8,8.4C439.8,107.8,439.8,176.6,439.8,196.7L439.8,196.7z"/>
		<path class="st1" d="M313.4,198.2l-41.7-30.4c-1-0.7-1.2-2.1-0.5-3c0.7-1,2.1-1.2,3-0.5l75,53c2.4-4.5,7.4-14,13.8-26
			c4.6-8.6,9.9-18.5,15.4-28.8c21.5-40.1,46.7-86.1,46.7-86.1c0.5-1.1,1.9-1.5,2.9-0.9c1.1,0.5,1.5,1.9,0.9,2.9c0,0-21,40.2-41,78.1
			c3,2.3,9,6.9,15.9,12.2c2.5,1.9,5,3.9,7.6,6c4.3,3.5,8.5,7.2,12.3,10.3c7,6,12.1,10.5,12.1,10.5c0.9,0.7,1.1,2.1,0.3,3
			s-2.1,1.1-3,0.3c0,0-5.5-4.1-12.7-9.7c-3.8-3-8.3-6.4-12.6-9.9c-2.5-2.1-5-4.2-7.4-6.2c-6.1-5.2-11.5-9.9-14.5-12.5
			c-0.8,1.5-1.6,3-2.4,4.5c-5.6,10.3-10.8,20.3-15.4,28.9c-9,16.9-15.4,28.8-15.4,28.8c-0.4,0.7-1.1,1.3-1.9,1.5
			c-0.8,0.2-1.7,0-2.3-0.5l-31.5-22.9c-2.5,5.1-8.4,17.2-15.2,30.9c-2.3,4.6-4.7,9.5-7.2,14.3c-4.2,8.2-8.6,16.4-12.5,23.6
			c-7.2,13.5-12.7,23.5-12.7,23.5c-0.5,1.1-1.9,1.5-2.9,0.9c-1.1-0.5-1.5-1.9-0.9-2.9c0,0,5-10.2,11.7-24c3.6-7.3,7.8-15.6,12-23.9
			c2.5-4.8,5-9.6,7.4-14.2C304.4,215,311,202.8,313.4,198.2L313.4,198.2z"/>
	</g>
	<g>
		<path class="st0" d="M466.9,242.4c0.1,0,0.3,0,0.3,0l0,0l0,0c0.5,0,0.9,0.1,1.3,0.4c0.9,0.5,1.5,1.5,1.5,2.6c0,9.9,0,31.1,0,37.3
			c0,1.1-0.6,2.1-1.5,2.6c-7.1,4.1-37.6,21.7-49.2,28.4c-0.5,0.3-1.1,0.4-1.6,0.4l0,0H414l1.1-1.7c-0.2-0.4-0.3-0.9-0.3-1.4
			c0-9.9,0-31.1,0-37.3c0-1.1,0.6-2.1,1.5-2.6l45.3-26l1.8-2.7H466.9L466.9,242.4z"/>
		<path class="st1" d="M466.3,282.7c0,1.1-0.6,2.1-1.5,2.6c-7.1,4.1-37.6,21.7-49.2,28.4c-0.9,0.5-2.1,0.5-3,0
			c-0.9-0.5-1.5-1.5-1.5-2.6c0-9.9,0-31.1,0-37.3c0-1.1,0.6-2.1,1.5-2.6c7.1-4.1,37.6-21.7,49.2-28.4c0.9-0.5,2.1-0.5,3,0
			c0.9,0.5,1.5,1.5,1.5,2.6C466.3,255.3,466.3,276.5,466.3,282.7z"/>
		<g>
			<path class="st3" d="M459.9,250c-0.5-0.8-0.2-1.9,0.7-2.3l0,0c0.8-0.5,1.9-0.2,2.4,0.7c0.2,0.4,0.3,0.8,0.2,1.2
				c0.8,0.1,1.4,0.9,1.4,1.7l0,0c0,0.9-0.8,1.7-1.7,1.7c0.9,0,1.7,0.8,1.7,1.7l0,0c0,0.6-0.3,1.1-0.7,1.4c0.5,0.3,0.7,0.9,0.7,1.4
				l0,0c0,0.9-0.8,1.7-1.7,1.7c-0.4,0-0.8-0.1-1.1-0.4c0.3,0.8,0,1.7-0.7,2.1l0,0c-0.8,0.5-1.9,0.2-2.3-0.7c0.5,0.8,0.2,1.9-0.7,2.3
				l0,0c-0.8,0.5-1.9,0.2-2.3-0.6c0.5,0.8,0.2,1.9-0.7,2.3l0,0c-0.7,0.4-1.6,0.3-2.1-0.3c-0.1,0.5-0.3,1-0.8,1.3
				c-0.8,0.5-1.9,0.3-2.4-0.6l0,0c-0.5-0.8-0.3-1.9,0.6-2.4c0.2-0.1,0.5-0.2,0.7-0.3c-0.9-0.1-1.6-0.8-1.6-1.7l0,0
				c0-0.9,0.8-1.7,1.7-1.7c-0.9,0-1.7-0.8-1.7-1.7l0,0c0-0.9,0.8-1.7,1.7-1.7h0.1l-0.1-0.1c-0.5-0.8-0.2-1.9,0.7-2.3l0,0
				c0.8-0.5,1.9-0.2,2.3,0.6c-0.5-0.8-0.2-1.9,0.7-2.3l0,0c0.8-0.5,1.9-0.2,2.3,0.6c-0.5-0.8-0.2-1.9,0.7-2.3l0,0
				C458.4,248.9,459.4,249.2,459.9,250L459.9,250z"/>
			<path class="st2" d="M461.8,257c0,0.2-0.1,0.3-0.3,0.4c-1.2,0.7-6.6,3.9-8.5,5c-0.1,0.1-0.3,0.1-0.5,0c-0.1-0.1-0.3-0.3-0.3-0.4
				v-5.9c0-0.2,0.1-0.3,0.3-0.4c1.2-0.7,6.6-3.9,8.5-5c0.1-0.1,0.3-0.1,0.5,0c0.1,0.1,0.3,0.3,0.3,0.4V257z"/>
		</g>
		<path class="st0" d="M418,295.4l3.5-2.1c0.7-0.4,0.9-1.3,0.5-2c-0.4-0.7-1.3-0.9-2-0.5l-3.5,2.1c-0.7,0.4-0.9,1.3-0.5,2
			C416.4,295.6,417.2,295.8,418,295.4z"/>
		<path class="st0" d="M424.6,291.5l7-4c0.7-0.4,0.9-1.3,0.5-2c-0.4-0.7-1.3-0.9-2-0.5l-7,4c-0.7,0.4-0.9,1.3-0.5,2
			C423.1,291.7,424,291.9,424.6,291.5L424.6,291.5z"/>
		<path class="st0" d="M418,300.5l10.3-6c0.7-0.4,0.9-1.3,0.5-2c-0.4-0.7-1.3-0.9-2-0.5l-10.3,6c-0.7,0.4-0.9,1.3-0.5,2
			C416.4,300.7,417.2,300.9,418,300.5z"/>
		<path class="st0" d="M431.2,292.9l0.5-0.3c0.7-0.4,0.9-1.3,0.5-2c-0.4-0.7-1.3-0.9-2-0.5l-0.5,0.3c-0.7,0.4-0.9,1.3-0.5,2
			C429.6,293,430.5,293.3,431.2,292.9z"/>
		<path class="st0" d="M418,305.6l9.7-5.6c0.7-0.4,0.9-1.3,0.5-2c-0.4-0.7-1.3-0.9-2-0.5l-9.7,5.6c-0.7,0.4-0.9,1.3-0.5,2
			C416.4,305.7,417.2,306,418,305.6z"/>
		<path class="st0" d="M445.7,262.6c0.4-0.9,0.9-1.6,1.5-1.9c0.6-0.3,1.2-0.3,1.9-0.2c2.7,0.5,5.2-0.9,6.2-3.4
			c0.3-0.7-0.1-1.6-0.9-1.9c-0.7-0.3-1.6,0.1-1.9,0.9c-0.5,1.3-1.6,1.9-2.9,1.7c-1.3-0.3-2.7-0.1-3.8,0.5c-1.1,0.6-2.1,1.7-2.8,3.3
			c-0.3,0.7,0.1,1.6,0.8,1.9C444.5,263.8,445.3,263.4,445.7,262.6z"/>
		<path class="st0" d="M445.7,267.1c0.4-0.9,0.9-1.6,1.5-1.9c0.6-0.3,1.2-0.3,1.9-0.2c2.7,0.5,5.2-0.9,6.2-3.4
			c0.3-0.7-0.1-1.6-0.9-1.9c-0.7-0.3-1.6,0.1-1.9,0.9c-0.5,1.3-1.6,1.9-2.9,1.7c-1.3-0.3-2.7-0.1-3.8,0.5c-1.1,0.6-2.1,1.7-2.8,3.3
			c-0.3,0.7,0.1,1.6,0.8,1.9C444.5,268.2,445.3,267.8,445.7,267.1L445.7,267.1z"/>
		<path class="st0" d="M445.7,271.5c0.4-0.9,0.9-1.6,1.5-1.9c0.6-0.3,1.2-0.3,1.9-0.2c2.7,0.5,5.2-0.9,6.2-3.4
			c0.3-0.7-0.1-1.6-0.9-1.9c-0.7-0.3-1.6,0.1-1.9,0.9c-0.5,1.3-1.6,1.9-2.9,1.7c-1.3-0.3-2.7-0.1-3.8,0.5c-1.1,0.6-2.1,1.7-2.8,3.3
			c-0.3,0.7,0.1,1.6,0.8,1.9C444.5,272.7,445.3,272.2,445.7,271.5z"/>
	</g>
	<path class="st2" d="M72.9,262.7c0,0.2-0.1,0.4-0.3,0.5c-1.3,0.7-6.7,3.9-8.8,5.1c-0.2,0.1-0.4,0.1-0.5,0c-0.2-0.1-0.3-0.3-0.3-0.5
		v-6.7c0-0.2,0.1-0.4,0.3-0.5c1.3-0.7,6.7-3.9,8.8-5.1c0.2-0.1,0.4-0.1,0.5,0c0.2,0.1,0.3,0.3,0.3,0.5V262.7L72.9,262.7z"/>
	<path class="st0" d="M59.8,303.9c0,0.3-0.1,0.5-0.4,0.7c-1.8,1-9.3,5.4-12.3,7.1c-0.2,0.1-0.5,0.1-0.7,0c-0.2-0.1-0.4-0.4-0.4-0.7
		v-9.3c0-0.3,0.1-0.5,0.4-0.7c1.8-1,9.3-5.4,12.3-7.1c0.2-0.1,0.5-0.1,0.7,0c0.2,0.1,0.4,0.4,0.4,0.7V303.9z"/>
	<path class="st0" d="M310.2,302.7c0,0.2-0.1,0.4-0.3,0.5c-1.3,0.7-6.7,3.9-8.8,5.1c-0.2,0.1-0.4,0.1-0.5,0
		c-0.2-0.1-0.3-0.3-0.3-0.5v-6.7c0-0.2,0.1-0.4,0.3-0.5c1.3-0.7,6.7-3.9,8.8-5.1c0.2-0.1,0.4-0.1,0.5,0c0.2,0.1,0.3,0.3,0.3,0.5
		V302.7L310.2,302.7z"/>
	<path class="st0" d="M158.7,144.4c0-0.3,0.1-0.5,0.4-0.7c1.8-1.1,9.5-5.5,12.5-7.2c0.3-0.1,0.5-0.1,0.8,0c0.3,0.1,0.4,0.4,0.4,0.7
		v9.5c0,0.3-0.1,0.5-0.4,0.7c-1.8,1.1-9.5,5.5-12.5,7.2c-0.3,0.1-0.5,0.1-0.8,0c-0.3-0.1-0.4-0.4-0.4-0.7V144.4L158.7,144.4z"/>
	<path class="st1" d="M281.6,324.9c0,0.2-0.1,0.4-0.3,0.5c-1.3,0.7-6.8,3.9-8.8,5.1c-0.2,0.1-0.4,0.1-0.5,0
		c-0.2-0.1-0.3-0.3-0.3-0.5v-6.7c0-0.2,0.1-0.4,0.3-0.5c1.3-0.7,6.7-3.9,8.8-5.1c0.2-0.1,0.4-0.1,0.5,0c0.2,0.1,0.3,0.3,0.3,0.5
		V324.9L281.6,324.9z"/>
	<path class="st1" d="M168.4,276.5c0,0.2-0.1,0.4-0.3,0.5c-1.3,0.7-6.7,3.9-8.8,5.1c-0.2,0.1-0.4,0.1-0.5,0
		c-0.2-0.1-0.3-0.3-0.3-0.5V275c0-0.2,0.1-0.4,0.3-0.5c1.3-0.7,6.7-3.9,8.8-5.1c0.2-0.1,0.4-0.1,0.5,0c0.2,0.1,0.3,0.3,0.3,0.5
		V276.5L168.4,276.5z"/>
	<path class="st0" d="M180.1,237.2c0,0.3-0.1,0.5-0.3,0.6c-1.7,0.9-8.6,5-11.3,6.5c-0.2,0.1-0.5,0.1-0.7,0c-0.2-0.1-0.3-0.3-0.3-0.6
		v-8.5c0-0.3,0.1-0.5,0.3-0.6c1.7-0.9,8.6-5,11.3-6.5c0.2-0.1,0.5-0.1,0.7,0c0.2,0.1,0.3,0.3,0.3,0.6V237.2z"/>
	<path class="st2" d="M187.9,153.1c0,0.4-0.2,0.7-0.5,0.9c-2.5,1.4-13.1,7.6-17,9.9c-0.3,0.2-0.7,0.2-1.1,0
		c-0.3-0.2-0.5-0.5-0.5-0.9v-16.3c0-0.4,0.2-0.7,0.5-0.9c2.5-1.4,13.1-7.6,17-9.9c0.3-0.2,0.7-0.2,1.1,0c0.3,0.2,0.5,0.5,0.5,0.9
		V153.1z"/>
	<path class="st1" d="M73,116.7c0,0.3-0.1,0.6-0.4,0.7c-2,1.2-10.7,6.2-13.9,8c-0.3,0.1-0.6,0.1-0.9,0c-0.3-0.1-0.4-0.5-0.4-0.7
		v-13.3c0-0.3,0.1-0.6,0.4-0.7c2-1.2,10.7-6.2,13.9-8c0.3-0.1,0.6-0.1,0.9,0c0.3,0.1,0.4,0.5,0.4,0.7V116.7z"/>
	<path class="st1" d="M397.9,273c0,0.3-0.2,0.7-0.5,0.8c-2.2,1.3-11.5,6.6-15,8.7c-0.3,0.1-0.7,0.1-0.9,0c-0.3-0.1-0.5-0.5-0.5-0.8
		v-11.4c0-0.3,0.2-0.7,0.5-0.8c2.2-1.3,11.5-6.6,15-8.7c0.3-0.1,0.7-0.1,0.9,0c0.3,0.1,0.5,0.5,0.5,0.8V273z"/>
	<path class="st1" d="M448.5,233c0,0.1-0.1,0.3-0.2,0.3c-0.9,0.5-4.4,2.5-5.7,3.3c-0.1,0.1-0.3,0.1-0.3,0c-0.1-0.1-0.2-0.2-0.2-0.3
		v-4.4c0-0.1,0.1-0.3,0.2-0.3c0.9-0.5,4.4-2.5,5.7-3.3c0.1-0.1,0.3-0.1,0.3,0c0.1,0.1,0.2,0.2,0.2,0.3V233L448.5,233z"/>
	<path class="st2" d="M41.3,186.6c0,0.1-0.1,0.3-0.2,0.3c-0.9,0.5-4.4,2.5-5.7,3.3c-0.1,0.1-0.3,0.1-0.3,0c-0.1-0.1-0.2-0.2-0.2-0.3
		v-4.4c0-0.1,0.1-0.3,0.2-0.3c0.9-0.5,4.4-2.5,5.7-3.3c0.1-0.1,0.3-0.1,0.3,0c0.1,0.1,0.2,0.2,0.2,0.3V186.6z"/>
	<path class="st0" d="M219.7,103.8c0,0.1-0.1,0.3-0.2,0.3c-0.9,0.5-4.4,2.5-5.7,3.3c-0.1,0.1-0.3,0.1-0.3,0
		c-0.1-0.1-0.2-0.2-0.2-0.3v-4.4c0-0.1,0.1-0.3,0.2-0.3c0.9-0.5,4.4-2.5,5.7-3.3c0.1-0.1,0.3-0.1,0.3,0c0.1,0.1,0.2,0.2,0.2,0.3
		V103.8z"/>
	<path class="st0" d="M57.3,103c0,0.1-0.1,0.3-0.2,0.3c-0.9,0.5-4.4,2.5-5.7,3.3c-0.1,0.1-0.3,0.1-0.3,0c-0.1-0.1-0.2-0.2-0.2-0.3
		V102c0-0.1,0.1-0.3,0.2-0.3c0.9-0.5,4.4-2.5,5.7-3.3c0.1-0.1,0.3-0.1,0.3,0c0.1,0.1,0.2,0.2,0.2,0.3V103z"/>
	<path class="st2" d="M292.2,331.1c0,0.1-0.1,0.3-0.2,0.3c-0.9,0.5-4.4,2.5-5.7,3.3c-0.1,0.1-0.3,0.1-0.3,0
		c-0.1-0.1-0.2-0.2-0.2-0.3V330c0-0.1,0.1-0.3,0.2-0.3c0.9-0.5,4.4-2.5,5.7-3.3c0.1-0.1,0.3-0.1,0.3,0c0.1,0.1,0.2,0.2,0.2,0.3
		V331.1z"/>
	<path class="st2" d="M346.4,98.9c0,0.1-0.1,0.3-0.2,0.3c-0.9,0.5-4.4,2.5-5.7,3.3c-0.1,0.1-0.3,0.1-0.3,0c-0.1-0.1-0.2-0.2-0.2-0.3
		v-4.4c0-0.1,0.1-0.3,0.2-0.3c0.9-0.5,4.4-2.5,5.7-3.3c0.1-0.1,0.3-0.1,0.3,0c0.1,0.1,0.2,0.2,0.2,0.3V98.9z"/>
	<path class="st2" d="M136.8,58.3c0,0.1-0.1,0.3-0.2,0.3c-0.9,0.5-4.4,2.5-5.7,3.3c-0.1,0.1-0.3,0.1-0.3,0c-0.1-0.1-0.2-0.2-0.2-0.3
		v-4.4c0-0.1,0.1-0.3,0.2-0.3c0.9-0.5,4.4-2.5,5.7-3.3c0.1-0.1,0.3-0.1,0.3,0c0.1,0.1,0.2,0.2,0.2,0.3V58.3z"/>
	<path class="st0" d="M419.9,45.1c0,0.1-0.1,0.3-0.2,0.3c-0.9,0.5-4.4,2.5-5.7,3.3c-0.1,0.1-0.3,0.1-0.3,0c-0.1-0.1-0.2-0.2-0.2-0.3
		V44c0-0.1,0.1-0.3,0.2-0.3c0.9-0.5,4.4-2.5,5.7-3.3c0.1-0.1,0.3-0.1,0.3,0c0.1,0.1,0.2,0.2,0.2,0.3V45.1z"/>
	<path class="st0" d="M464.5,23.5c0,0.1-0.1,0.3-0.2,0.3c-0.9,0.5-4.4,2.5-5.7,3.3c-0.1,0.1-0.3,0.1-0.3,0c-0.1-0.1-0.2-0.2-0.2-0.3
		v-4.4c0-0.1,0.1-0.3,0.2-0.3c0.9-0.5,4.4-2.5,5.7-3.3c0.1-0.1,0.3-0.1,0.3,0c0.1,0.1,0.2,0.2,0.2,0.3V23.5z"/>
	<path class="st0" d="M428.1,227.5c0-0.2,0.1-0.3,0.3-0.5c1.3-0.7,6.6-3.8,8.5-4.9c0.1-0.1,0.3-0.1,0.5,0c0.1,0.1,0.3,0.3,0.3,0.5
		v6.5c0,0.2-0.1,0.3-0.3,0.5c-1.3,0.7-6.6,3.8-8.5,4.9c-0.1,0.1-0.3,0.1-0.5,0c-0.1-0.1-0.3-0.3-0.3-0.5V227.5z"/>
	<path class="st1" d="M57.8,256.5c0,0.3-0.1,0.5-0.3,0.6c-1.6,0.9-8.5,4.9-11.1,6.4c-0.2,0.1-0.5,0.1-0.7,0s-0.3-0.3-0.3-0.6v-8.4
		c0-0.3,0.1-0.5,0.3-0.6c1.6-0.9,8.5-4.9,11.1-6.4c0.2-0.1,0.5-0.1,0.7,0c0.2,0.1,0.3,0.3,0.3,0.6V256.5L57.8,256.5z"/>
	<path class="st1" d="M337.6,64.7c0,0.2-0.1,0.4-0.3,0.5c-1.5,0.9-7.8,4.5-10.2,5.9c-0.2,0.1-0.5,0.1-0.6,0
		c-0.2-0.1-0.3-0.3-0.3-0.5v-7.8c0-0.2,0.1-0.4,0.3-0.5c1.5-0.9,7.8-4.5,10.2-5.9c0.2-0.1,0.5-0.1,0.6,0c0.2,0.1,0.3,0.3,0.3,0.5
		V64.7L337.6,64.7z"/>
	<path class="st0" d="M89.7,20c0,0.3-0.1,0.5-0.4,0.7c-1.9,1.1-9.7,5.6-12.7,7.3c-0.3,0.1-0.5,0.1-0.8,0c-0.3-0.1-0.4-0.4-0.4-0.7
		v-9.5c0-0.3,0.1-0.5,0.4-0.7c1.9-1.1,9.7-5.6,12.7-7.3c0.3-0.1,0.5-0.1,0.8,0c0.3,0.1,0.4,0.4,0.4,0.7V20L89.7,20z"/>
	<g>
		<path class="st0" d="M167.5,66.8c0.1,0,0.3,0,0.5,0l0,0l0,0c0.6,0.1,1.2,0.2,1.8,0.5c1.3,0.7,2.1,2.1,2.1,3.5
			c0,13.4,0,41.9,0,50.3c0,1.5-0.8,2.8-2.1,3.5c-9.6,5.6-50.6,29.2-66.3,38.2c-0.7,0.4-1.4,0.5-2.1,0.5l0,0h-5l1.5-2.2
			c-0.3-0.5-0.5-1.2-0.5-1.9c0-13.4,0-41.9,0-50.3c0-1.5,0.8-2.8,2.1-3.5l61-35.3l2.5-3.6L167.5,66.8L167.5,66.8z"/>
		<path class="st3" d="M166.7,121.1c0,1.5-0.8,2.8-2.1,3.5c-9.6,5.6-50.6,29.2-66.3,38.2c-1.3,0.7-2.8,0.7-4,0
			c-1.3-0.7-2.1-2.1-2.1-3.5c0-13.4,0-41.9,0-50.3c0-1.5,0.8-2.8,2.1-3.5c9.6-5.6,50.6-29.2,66.3-38.2c1.3-0.7,2.8-0.7,4,0
			c1.3,0.7,2.1,2.1,2.1,3.5C166.7,84.2,166.7,112.8,166.7,121.1L166.7,121.1z"/>
		<path class="st0" d="M93.5,146.5l0.3-37.4c0-0.5,0.1-0.9,0.3-1.3c0.2-0.4,0.5-0.7,0.9-0.9c3.4-2,10.7-6.2,19.4-11.2
			c9.1-5.3,19.6-11.5,28.9-17c0.5-0.3,0.7-0.9,0.4-1.5c-0.3-0.5-0.9-0.7-1.5-0.4c-9.4,5.3-20.1,11.3-29.2,16.5
			c-8.7,5-16,9.2-19.4,11.1c-0.9,0.5-1.5,1.2-2,2s-0.7,1.8-0.7,2.7l0.3,37.4c0,0.6,0.5,1.1,1.1,1.1C93,147.6,93.5,147.1,93.5,146.5
			L93.5,146.5z"/>
		<path class="st0" d="M102.6,115.8l-6.2-6.3c-0.7-0.6-0.7-1.7,0-2.3c0.6-0.7,1.7-0.7,2.3,0l12.7,12c2.8-1.7,9.9-6,17.1-10.1
			c7.9-4.6,15.8-9.1,18-10.3l13.6-27.9c0.4-0.8,1.3-1.2,2.2-0.8c0.9,0.4,1.2,1.3,0.8,2.2L155.5,89c0.4,1.3,1.2,4,2.1,7.3
			c0.7,2.5,1.5,5.4,2.2,8.2c0.4,1.7,0.7,3.4,1.1,5c1.3,6.4,2.3,11.7,2.3,11.7c0.2,0.9-0.3,1.7-1.2,1.9c-0.9,0.2-1.7-0.3-1.9-1.2
			c0,0-1.5-5.2-3.2-11.5c-0.4-1.6-0.9-3.2-1.3-5c-0.7-2.9-1.3-5.8-1.8-8.3c-0.2-1.1-0.4-2-0.6-2.9l-3.1,6.9
			c-0.2,0.4-0.5,0.7-0.9,0.9c0,0-9.1,5.4-18.4,10.7s-18.6,10.5-18.6,10.5c-0.7,0.5-1.7,0.3-2.3-0.3l-4.2-4.2
			c-0.2,1.9-0.5,4.4-0.9,7.3c-0.5,3.3-0.9,7-1.5,10.7c-0.3,2.2-0.7,4.3-1.1,6.4c-1.5,8.2-2.9,14.9-2.9,14.9c-0.1,0.9-1,1.5-1.9,1.3
			c-0.9-0.1-1.5-1-1.3-1.9c0,0,0.8-6.8,1.9-15c0.3-2.1,0.6-4.2,0.9-6.4c0.6-3.7,1.3-7.4,1.9-10.7
			C101.5,121.1,102.2,117.5,102.6,115.8L102.6,115.8z"/>
	</g>
	<g>
		<path class="st0" d="M400,3.9c0.1,0,0.2,0,0.3,0l0,0l0,0c0.4,0,0.8,0.1,1.2,0.3c0.9,0.5,1.4,1.4,1.4,2.4c0,9,0,36.1,0,41.7
			c0,1-0.5,1.9-1.4,2.4c-6.5,3.7-34.2,19.7-44.7,25.8c-0.5,0.3-0.9,0.4-1.5,0.3l0,0h-3.4l1-1.5c-0.2-0.4-0.3-0.8-0.3-1.3
			c0-9,0-36.1,0-41.7c0-1,0.5-1.9,1.4-2.4l41.2-23.8l1.7-2.4L400,3.9L400,3.9z"/>
		<path class="st1" d="M399.5,48.3c0,1-0.5,1.9-1.4,2.4c-6.5,3.7-34.2,19.7-44.7,25.8c-0.9,0.5-1.9,0.5-2.7,0s-1.4-1.4-1.4-2.4
			c0-9,0-36.1,0-41.7c0-1,0.5-1.9,1.4-2.4c6.5-3.7,34.2-19.7,44.7-25.8c0.9-0.5,1.9-0.5,2.7,0c0.9,0.5,1.4,1.4,1.4,2.4
			C399.5,15.6,399.5,42.7,399.5,48.3L399.5,48.3z"/>
		<path class="st0" d="M356.8,41l-5.4-8.1c-0.5-0.7-0.3-1.7,0.4-2.3s1.7-0.3,2.3,0.4l8.3,11.5c2.2-1.3,6.5-3.9,10.9-6.4
			c5-2.9,10.1-5.8,11.9-6.8l9.3-22.8c0.3-0.9,1.3-1.3,2.1-0.9c0.9,0.3,1.3,1.3,0.9,2.1l-5.6,15.4c0.3,1.1,0.9,3,1.6,5.3
			c0.5,1.9,1.1,4,1.7,6.2c0.3,1.3,0.5,2.6,0.8,3.8c0.9,4.8,1.6,8.9,1.6,8.9c0.2,0.9-0.3,1.7-1.2,1.9c-0.9,0.2-1.7-0.3-1.9-1.2
			c0,0-1.2-3.9-2.5-8.7c-0.3-1.2-0.7-2.5-1-3.8c-0.5-2.1-0.9-4.2-1.3-6.2l-0.7,2.1c-0.2,0.5-0.5,0.9-0.9,1.1c0,0-6.2,3.6-12.5,7.2
			c-6.2,3.6-12.6,7-12.6,7c-0.9,0.5-2,0.3-2.6-0.6l-0.7-1.1c-0.1,1.1-0.3,2.3-0.5,3.5c-0.3,2.5-0.8,5.2-1.3,8
			c-0.3,1.6-0.7,3.2-1,4.8c-1.3,6.1-2.5,11.1-2.5,11.1c-0.1,0.9-1,1.5-1.9,1.3c-0.9-0.1-1.5-1-1.3-1.9c0,0,0.7-5.1,1.6-11.3
			c0.3-1.6,0.5-3.2,0.8-4.8c0.5-2.8,1.1-5.5,1.7-8C355.9,44.8,356.5,42.2,356.8,41L356.8,41z"/>
	</g>
	<g>
		<path class="st1" d="M274.8,0.1c3.3,0,6,2.7,6,6c0,11.7,0,37.4,0,46.8c0,2.1-1.1,4.1-3,5.2c-9.6,5.6-39.6,22.8-48.3,27.8
			c-1.6,0.9-3.3,1.4-5.2,1.4c-11.4,0-55,0-71,0c-3.3,0-6-2.7-6-6V34.5c0-2.1,1.1-4.1,3-5.2c10.1-5.8,42.3-24.5,49.3-28.5
			c0.9-0.5,1.9-0.8,2.9-0.8L274.8,0.1L274.8,0.1L274.8,0.1z"/>
		<path class="st0" d="M198.8,55.3l0.5-49.2c0-0.9,0.7-1.6,1.6-1.6c0.9,0,1.6,0.7,1.6,1.6l0.5,47.4c4.4,0,14.9,0,26.5,0.1
			c19.9,0.1,43,0.5,43,0.5c0.9,0,1.6,0.7,1.6,1.6c0,0.9-0.7,1.6-1.6,1.6c0,0-23.1,0.3-43,0.5c-14.2,0.1-27,0.1-28.5,0.1
			c-1.9,1.2-6,3.7-10.9,6.8c-3.7,2.3-8,4.8-12.2,7.4c-2.5,1.5-5,2.8-7.4,4.2c-9.5,5.3-17.5,9.7-17.5,9.7c-0.8,0.5-1.8,0.2-2.2-0.6
			c-0.5-0.8-0.2-1.8,0.6-2.2c0,0,7.7-4.8,17-10.5c2.4-1.5,4.8-2.9,7.4-4.4c4.3-2.5,8.6-4.9,12.4-7C192.8,58.6,196.6,56.5,198.8,55.3
			L198.8,55.3z"/>
		<path class="st3" d="M275.8,9.8c0-1.3-1.1-2.4-2.4-2.4c-4.9,0-16,0-20.9,0c-1.3,0-2.4,1.1-2.4,2.4c0,3.7,0,10.8,0,14.5
			c0,1.3,1.1,2.4,2.4,2.4c4.9,0,16,0,20.9,0c1.3,0,2.4-1.1,2.4-2.4C275.8,20.5,275.8,13.5,275.8,9.8z"/>
		<path class="st0" d="M254.7,18.7h17c0.8,0,1.5-0.7,1.5-1.5s-0.7-1.5-1.5-1.5h-17c-0.8,0-1.5,0.7-1.5,1.5S253.9,18.7,254.7,18.7z"
			/>
		<path class="st0" d="M254.7,13.6h17c0.8,0,1.5-0.7,1.5-1.5c0-0.8-0.7-1.5-1.5-1.5h-17c-0.8,0-1.5,0.7-1.5,1.5
			C253.2,12.9,253.9,13.6,254.7,13.6z"/>
		<path class="st0" d="M254.7,23.8h12.1c0.8,0,1.5-0.7,1.5-1.5s-0.7-1.5-1.5-1.5h-12.1c-0.8,0-1.5,0.7-1.5,1.5
			S253.9,23.8,254.7,23.8z"/>
		<path class="st0" d="M163.6,87.3l59.6-34.8V0.1h10.9v55.6c0,1.9-1.1,3.7-2.7,4.7l-46.1,27H163.6L163.6,87.3z"/>
	</g>
	<path class="st0" d="M325.7,11c0,0.2-0.1,0.4-0.3,0.5c-1.4,0.8-14,8-16.2,9.3c-0.2,0.1-0.4,0.1-0.6,0c-0.2-0.1-0.3-0.3-0.3-0.5
		v-7.1c0-0.2,0.1-0.4,0.3-0.5c1.4-0.8,14-8,16.2-9.3c0.2-0.1,0.4-0.1,0.6,0c0.2,0.1,0.3,0.3,0.3,0.5V11z"/>
	<path class="st2" d="M410.2,257.5c0,0.2-0.1,0.4-0.3,0.5c-1.4,0.8-14.1,8.1-16.3,9.3c-0.2,0.1-0.4,0.1-0.6,0
		c-0.2-0.1-0.3-0.3-0.3-0.5v-7.2c0-0.2,0.1-0.4,0.3-0.5c1.4-0.8,14.1-8.1,16.3-9.3c0.2-0.1,0.4-0.1,0.6,0c0.2,0.1,0.3,0.3,0.3,0.5
		V257.5L410.2,257.5z"/>
	<path class="st2" d="M456.5,38.7c0,0.1-0.1,0.3-0.2,0.3c-0.8,0.5-8.3,4.7-9.6,5.5c-0.1,0.1-0.3,0.1-0.3,0c-0.1-0.1-0.2-0.2-0.2-0.3
		V40c0-0.1,0.1-0.3,0.2-0.3c0.8-0.5,8.3-4.7,9.6-5.5c0.1-0.1,0.3-0.1,0.3,0c0.1,0.1,0.2,0.2,0.2,0.3V38.7z"/>
	<path class="st1" d="M184.6,310.1c0,0.1-0.1,0.3-0.2,0.3c-0.8,0.5-8.3,4.7-9.6,5.5c-0.1,0.1-0.3,0.1-0.3,0
		c-0.1-0.1-0.2-0.2-0.2-0.3v-4.2c0-0.1,0.1-0.3,0.2-0.3c0.8-0.5,8.3-4.7,9.6-5.5c0.1-0.1,0.3-0.1,0.3,0c0.1,0.1,0.2,0.2,0.2,0.3
		V310.1L184.6,310.1z"/>
	<path class="st0" d="M52.9,171.1c0,0.1-0.1,0.3-0.2,0.3c-0.8,0.5-8.3,4.7-9.6,5.5c-0.1,0.1-0.3,0.1-0.3,0c-0.1-0.1-0.2-0.2-0.2-0.3
		v-4.2c0-0.1,0.1-0.3,0.2-0.3c0.8-0.5,8.3-4.7,9.6-5.5c0.1-0.1,0.3-0.1,0.3,0c0.1,0.1,0.2,0.2,0.2,0.3V171.1L52.9,171.1z"/>
	<path class="st2" d="M258.6,97.4c0,0.1-0.1,0.3-0.2,0.3c-0.8,0.5-8.3,4.7-9.6,5.5c-0.1,0.1-0.3,0.1-0.3,0c-0.1-0.1-0.2-0.2-0.2-0.3
		v-4.2c0-0.1,0.1-0.3,0.2-0.3c0.8-0.5,8.3-4.7,9.6-5.5c0.1-0.1,0.3-0.1,0.3,0c0.1,0.1,0.2,0.2,0.2,0.3V97.4z"/>
	<path class="st2" d="M72.1,144.4c0,0.1-0.1,0.3-0.2,0.3c-0.8,0.5-8.3,4.7-9.6,5.5c-0.1,0.1-0.3,0.1-0.3,0c-0.1-0.1-0.2-0.2-0.2-0.3
		v-4.2c0-0.1,0.1-0.3,0.2-0.3c0.8-0.5,8.3-4.7,9.6-5.5c0.1-0.1,0.3-0.1,0.3,0c0.1,0.1,0.2,0.2,0.2,0.3V144.4z"/>
	<path class="st2" d="M46,288.6c0,0.2-0.1,0.4-0.3,0.5c-1.4,0.8-14.1,8.1-16.3,9.3c-0.2,0.1-0.4,0.1-0.6,0c-0.2-0.1-0.3-0.3-0.3-0.5
		v-7.2c0-0.2,0.1-0.4,0.3-0.5c1.4-0.8,14.1-8.1,16.3-9.3c0.2-0.1,0.4-0.1,0.6,0c0.2,0.1,0.3,0.3,0.3,0.5V288.6L46,288.6z"/>
	<path class="st2" d="M145.5,296.6c0-0.1,0.1-0.3,0.2-0.3c1-0.6,10.2-5.8,11.9-6.8c0.1-0.1,0.3-0.1,0.4,0c0.1,0.1,0.2,0.2,0.2,0.3
		v5.2c0,0.1-0.1,0.3-0.2,0.3c-1,0.6-10.2,5.8-11.9,6.8c-0.1,0.1-0.3,0.1-0.4,0c-0.1-0.1-0.2-0.2-0.2-0.3L145.5,296.6L145.5,296.6z"
		/>
	<path class="st1" d="M187.7,182.9c0-0.1,0.1-0.3,0.2-0.3c1-0.6,10.2-5.8,11.9-6.8c0.1-0.1,0.3-0.1,0.4,0c0.1,0.1,0.2,0.2,0.2,0.3
		v5.2c0,0.1-0.1,0.3-0.2,0.3c-1,0.6-10.2,5.8-11.9,6.8c-0.1,0.1-0.3,0.1-0.4,0c-0.1-0.1-0.2-0.2-0.2-0.3V182.9L187.7,182.9z"/>
	<path class="st2" d="M325.7,19.3c0-0.1,0.1-0.3,0.2-0.3c1-0.6,10.2-5.8,11.9-6.8c0.1-0.1,0.3-0.1,0.4,0c0.1,0.1,0.2,0.2,0.2,0.3
		v5.2c0,0.1-0.1,0.3-0.2,0.3c-1,0.6-10.2,5.8-11.9,6.8c-0.1,0.1-0.3,0.1-0.4,0c-0.1-0.1-0.2-0.2-0.2-0.3V19.3L325.7,19.3z"/>
	<path class="st2" d="M110.6,21.7c0,0.2-0.1,0.4-0.3,0.5c-1.4,0.8-14.1,8.1-16.3,9.3c-0.2,0.1-0.4,0.1-0.6,0
		c-0.2-0.1-0.3-0.3-0.3-0.5v-7.2c0-0.2,0.1-0.4,0.3-0.5c1.4-0.8,14.1-8.1,16.3-9.3c0.2-0.1,0.4-0.1,0.6,0c0.2,0.1,0.3,0.3,0.3,0.5
		V21.7z"/>
	<g>
		<path class="st2" d="M197.1,255.3l23.1-13.3c1.4-0.8,1.9-2.6,1.1-4c-0.8-1.4-2.6-1.9-4-1.1l-23.1,13.3c-1.4,0.8-1.9,2.6-1.1,4
			C193.9,255.6,195.7,256.1,197.1,255.3z"/>
		<path class="st2" d="M227.8,237.6l45.5-26.3c1.4-0.8,1.9-2.6,1.1-4c-0.8-1.4-2.6-1.9-4-1.1l-45.5,26.3c-1.4,0.8-1.9,2.6-1.1,4
			C224.5,237.9,226.3,238.4,227.8,237.6L227.8,237.6z"/>
		<path class="st2" d="M197.1,266.9l35.9-20.7c1.4-0.8,1.9-2.6,1.1-4c-0.8-1.4-2.6-1.9-4-1.1l-35.9,20.7c-1.4,0.8-1.9,2.6-1.1,4
			C193.9,267.2,195.7,267.7,197.1,266.9z"/>
		<path class="st2" d="M241.4,241.3l0.8-0.5c1.4-0.8,1.9-2.6,1.1-4s-2.6-1.9-4-1.1l-0.8,0.5c-1.4,0.8-1.9,2.6-1.1,4
			C238.2,241.6,240,242.1,241.4,241.3z"/>
		<path class="st2" d="M250.2,236.2l23.1-13.4c1.4-0.8,1.9-2.6,1.1-4c-0.8-1.4-2.6-1.9-4-1.1l-23.1,13.3c-1.4,0.8-1.9,2.6-1.1,4
			C247,236.6,248.8,237,250.2,236.2L250.2,236.2z"/>
		<path class="st2" d="M197.1,278.5l16.8-9.7c1.4-0.8,1.9-2.6,1.1-4s-2.6-1.9-4-1.1l-16.8,9.7c-1.4,0.8-1.9,2.6-1.1,4
			C193.9,278.8,195.7,279.3,197.1,278.5z"/>
		<path class="st2" d="M221.6,264.3l51.7-29.8c1.4-0.8,1.9-2.6,1.1-4c-0.8-1.4-2.6-1.9-4-1.1l-51.7,29.8c-1.4,0.8-1.9,2.6-1.1,4
			C218.4,264.6,220.2,265.1,221.6,264.3z"/>
		<path class="st2" d="M197.1,290.7l50.3-29c1.4-0.8,1.9-2.6,1.1-4c-0.8-1.4-2.6-1.9-4-1.1l-50.3,29c-1.4,0.8-1.9,2.6-1.1,4
			C193.9,291.1,195.7,291.5,197.1,290.7z"/>
	</g>
	<g>
		<path class="st1" d="M65.9,74.2L81.8,65c0.7-0.4,0.9-1.3,0.5-2c-0.4-0.7-1.3-0.9-2-0.5l-15.9,9.1c-0.7,0.4-0.9,1.3-0.5,2
			C64.3,74.3,65.1,74.6,65.9,74.2z"/>
		<path class="st1" d="M86.9,62l31.3-18.1c0.7-0.4,0.9-1.3,0.5-2c-0.4-0.7-1.3-0.9-2-0.5L85.4,59.4c-0.7,0.4-0.9,1.3-0.5,2
			C85.3,62.2,86.2,62.4,86.9,62z"/>
		<path class="st1" d="M116.8,32.9L95.6,45.2c-0.7,0.4-0.9,1.3-0.5,2c0.4,0.7,1.3,0.9,2,0.5l21.2-12.3c0.7-0.4,0.9-1.3,0.5-2
			C118.3,32.7,117.5,32.5,116.8,32.9z"/>
		<path class="st1" d="M90.3,48.2l-12.1,7c-0.7,0.4-0.9,1.3-0.5,2c0.4,0.7,1.3,0.9,2,0.5l12.1-7c0.7-0.4,0.9-1.3,0.5-2
			C91.9,48,91,47.8,90.3,48.2z"/>
		<path class="st1" d="M72.4,58.6l-8,4.6c-0.7,0.4-0.9,1.3-0.5,2c0.4,0.7,1.3,0.9,2,0.5l8-4.6c0.7-0.4,0.9-1.3,0.5-2
			C73.9,58.4,73,58.2,72.4,58.6z"/>
		<path class="st1" d="M65.9,82.5l28-16.2c0.7-0.4,0.9-1.3,0.5-2c-0.4-0.7-1.3-0.9-2-0.5L64.4,80c-0.7,0.4-0.9,1.3-0.5,2
			C64.3,82.7,65.1,82.9,65.9,82.5L65.9,82.5z"/>
		<path class="st1" d="M99.2,63.3l19-11c0.7-0.4,0.9-1.3,0.5-2c-0.4-0.7-1.3-0.9-2-0.5l-19,11c-0.7,0.4-0.9,1.3-0.5,2
			C97.6,63.4,98.5,63.7,99.2,63.3z"/>
		<path class="st1" d="M65.9,91l37.6-21.7c0.7-0.4,0.9-1.3,0.5-2c-0.4-0.7-1.3-0.9-2-0.5L64.4,88.5c-0.7,0.4-0.9,1.3-0.5,2
			C64.3,91.1,65.1,91.4,65.9,91z"/>
	</g>
	<g>
		<path class="st0" d="M3.3,236.4l15.4-8.9c1.1-0.6,1.4-1.9,0.8-3c-0.6-1.1-1.9-1.4-3-0.8l-15.4,8.9c-1.1,0.6-1.4,1.9-0.8,3
			C0.8,236.6,2.2,237,3.3,236.4L3.3,236.4z"/>
		<path class="st0" d="M24.9,223.9l21.7-12.5c1.1-0.6,1.4-1.9,0.8-3c-0.6-1.1-1.9-1.4-3-0.8l-21.7,12.5c-1.1,0.6-1.4,1.9-0.8,3
			C22.6,224.1,24,224.5,24.9,223.9z"/>
		<path class="st0" d="M3.3,257.4l4.4-2.5c1.1-0.6,1.4-1.9,0.8-3c-0.6-1.1-1.9-1.4-3-0.8l-4.4,2.5c-1.1,0.6-1.4,1.9-0.8,3
			C0.8,257.7,2.2,258,3.3,257.4z"/>
		<path class="st0" d="M13.4,251.5l22.4-12.9c1.1-0.6,1.4-1.9,0.8-3c-0.6-1.1-1.9-1.4-3-0.8l-22.4,12.9c-1.1,0.6-1.4,1.9-0.8,3
			C11,251.8,12.4,252.1,13.4,251.5z"/>
		<path class="st0" d="M3.3,246.9l43.4-25c1.1-0.6,1.4-1.9,0.8-3c-0.6-1.1-1.9-1.4-3-0.8l-43.4,25c-1.1,0.6-1.4,1.9-0.8,3
			C0.8,247.1,2.2,247.5,3.3,246.9L3.3,246.9z"/>
	</g>
</g>
</svg>
