<?xml version="1.0" encoding="utf-8"?>
<!-- Generator: Adobe Illustrator 25.0.1, SVG Export Plug-In . SVG Version: 6.00 Build 0)  -->
<svg version="1.1" id="Layer_1" xmlns:serif="http://www.serif.com/"
	 xmlns="http://www.w3.org/2000/svg" xmlns:xlink="http://www.w3.org/1999/xlink" x="0px" y="0px" viewBox="0 0 662.6 483.2"
	 style="enable-background:new 0 0 662.6 483.2;" xml:space="preserve">
<style type="text/css">
	.st0{fill-rule:evenodd;clip-rule:evenodd;fill:#FF2E93;}
	.st1{fill-rule:evenodd;clip-rule:evenodd;fill:#FFFFFF;}
	.st2{fill-rule:evenodd;clip-rule:evenodd;fill:#142664;}
	.st3{fill:none;stroke:#00E6B3;stroke-width:3.8352;stroke-linecap:round;stroke-linejoin:round;stroke-miterlimit:1.4382;}
	.st4{fill-rule:evenodd;clip-rule:evenodd;fill:#00E6B3;}
	.st5{fill:none;}
</style>
<g>
	<g>
		<path class="st0" d="M512.8,186.1c0,0-4.8-1-11.1-1.7c-2.3-0.3-4.9-0.5-7.4-0.5s-5.1,0.3-7.4,0.6c-6.3,0.7-11.1,1.6-11.1,1.6
			c-1.2,0-2.2,1-2.2,2.2s1,2.2,2.2,2.2c0,0,4.8,0.9,11.1,1.6c2.3,0.3,4.9,0.6,7.4,0.6s5.1-0.2,7.4-0.5c6.3-0.7,11.1-1.7,11.1-1.7
			c1.2,0,2.2-1,2.2-2.2C515,187,514,186.1,512.8,186.1L512.8,186.1z"/>
		<path class="st1" d="M502.7,187.4c0,0-2.2-0.4-5-0.7c-1.1-0.1-2.2-0.2-3.3-0.2s-2.3,0.1-3.3,0.2c-2.8,0.3-5,0.7-5,0.7
			c-0.5,0-0.9,0.4-0.9,0.9s0.4,0.9,0.9,0.9c0,0,2.2,0.4,5,0.7c1.1,0.1,2.2,0.2,3.3,0.2s2.3-0.1,3.3-0.2c2.9-0.3,5-0.7,5-0.7
			c0.5,0,0.9-0.4,0.9-0.9C503.6,187.8,503.2,187.4,502.7,187.4L502.7,187.4z"/>
		<path class="st2" d="M552.1,178.2c0,1.8,0.8,3.6,2.3,4.7s3.3,1.6,5.1,1.2c3.4-0.7,7.2-1.6,9-2.4c3.5-1.6,9.8-3,14-0.9l0,0
			c0.5,0.3,1,0.6,1.4,0.9l11.1,7.2c0.5,0.2,0.8,0.7,0.8,1.3c0,0.5-0.4,1-1,1.1l-5.4,1.3c-1,0.2-5.3,1.6-6.4,2
			c-9.1,3.2-19.7,8.4-19.7,8.4c-3.2,1.5-6.6,2.3-10.2,2.3h-14.6c-1.3,0-2.6-0.1-3.8-0.3l0,0c-1.1-0.2-2.2-0.5-3.3-0.8l-30.8-7.5
			c-0.6-0.1-1-0.7-1-1.3l0,0c0-0.5-0.3-1-0.8-1.2c-1-0.4-2.6-1-3.6-1.5c-0.5-0.2-0.9-0.8-0.9-1.3c0-1.6,0-4.8,0-6.4
			c0-0.6,0.4-1.1,0.9-1.3c1-0.4,2.6-1,3.5-1.4c0.5-0.2,0.9-0.7,0.9-1.3l0,0c0-0.8,0.6-1.4,1.4-1.4c0,0,6-0.1,10.3-0.1
			c2.4,0,4.4-1.7,4.9-4c5.5-27,26-37.6,34-40.8c0.6-0.2,1.2-0.1,1.6,0.4c0.3,0.3,0.4,0.6,0.4,0.9l0,0l0,0c0,0.1,0,0.2,0,0.3
			L552.1,178.2L552.1,178.2z"/>
		<path class="st0" d="M530.5,204.1l10-10c0.3-0.3,0.8-0.5,1.3-0.5h28.7c1,0,1.8,0.8,1.8,1.8v3.7c-1.3,0.5-2.5,1.1-3.5,1.6v-3.5
			h-26.2l-8,8c-1.1-0.2-2.1-0.4-3.1-0.8L530.5,204.1L530.5,204.1z M587.3,184l5.4,3.5c-0.1,0-0.2,0-0.3,0h-13.2
			c-1,0-1.8-0.8-1.8-1.8s0.8-1.8,1.8-1.8L587.3,184L587.3,184z M541,139.3l6.2,6.2c1.7-1.2,3.4-2.2,4.9-3v4.1
			c-8.2,4.9-19.4,14.5-24,32.4c0,0.1-0.1,0.3-0.2,0.4l0,0c-0.1,0.1-0.2,0.3-0.3,0.4c-0.2,0.2-0.5,0.4-0.8,0.5l0,0
			c-0.3,0.1-0.6,0.1-0.9,0c-0.1,0-0.3-0.1-0.4-0.2l0,0c-0.1-0.1-0.3-0.2-0.4-0.3l-8.1-8.1c0.4-1.3,0.8-2.6,1.2-3.8l7.3,7.3
			c1-3.1,2.1-5.9,3.4-8.5l-7.1-7.1c0.6-1.1,1.2-2.1,1.9-3.2l7,7c1.6-2.7,3.3-5.1,5-7.3l-6.7-6.7c0.8-0.9,1.6-1.7,2.4-2.6l6.6,6.6
			c2.1-2.2,4.2-4.1,6.3-5.8l-6.3-6.3C539,140.6,540,139.9,541,139.3z"/>
		<circle class="st0" cx="521.9" cy="194.8" r="2.6"/>
		<circle class="st0" cx="513" cy="194.8" r="2.6"/>
	</g>
	<g>
		<path class="st2" d="M475.2,177.9c-0.2,0.3-0.6,0.5-0.9,0.4c-0.7-0.1-1.7-0.2-2.5-0.3c-0.5-0.1-0.8-0.5-0.8-1
			c0.1-1,0.3-2.6,0.4-3.8c0-0.3,0.2-0.6,0.5-0.7s0.6-0.1,0.9,0c1,0.6,2.5,1.4,3.4,1.9c0.2,0.1,0.4,0.3,0.4,0.6
			c0.1,0.2,0,0.5-0.1,0.7C476.1,176.4,475.5,177.3,475.2,177.9L475.2,177.9z"/>
		<path class="st2" d="M574.8,213.5c-0.1,0.4-0.4,0.6-0.8,0.6c-0.4,0-1,0.1-1.4,0.1c-0.5,0-0.9-0.3-1-0.8c-0.1-0.6-0.2-1.4-0.3-2.1
			c0-0.3,0.1-0.6,0.3-0.8c0.2-0.2,0.6-0.3,0.9-0.2c0.7,0.2,1.5,0.4,2.1,0.6c0.2,0.1,0.4,0.2,0.6,0.5c0.1,0.2,0.1,0.5,0.1,0.7
			C575.1,212.6,574.9,213.1,574.8,213.5z"/>
		<path class="st2" d="M461.4,167.6c-0.4,0-0.7-0.2-0.8-0.6c-0.2-0.4-0.4-0.9-0.5-1.3c-0.2-0.5,0-1,0.5-1.2c0.6-0.2,1.3-0.6,1.9-0.9
			c0.3-0.1,0.6-0.1,0.9,0.1c0.3,0.2,0.4,0.5,0.4,0.8c0,0.7,0,1.5,0,2.2c0,0.2-0.1,0.5-0.3,0.7s-0.4,0.3-0.7,0.3
			C462.4,167.6,461.8,167.6,461.4,167.6z"/>
		<path class="st2" d="M559.9,224.4c0.1-0.1,0.2-0.2,0.3-0.3c0.1,0,0.3,0,0.4,0.1c0.8,0.6,2.4,1.9,3.3,2.7c0.1,0.1,0.2,0.3,0.2,0.5
			s-0.2,0.3-0.4,0.4c-1.4,0.3-3.9,1-5.3,1.4c-0.2,0-0.4,0-0.5-0.2c-0.1-0.1-0.1-0.4-0.1-0.5C558.5,227.3,559.4,225.4,559.9,224.4
			L559.9,224.4z"/>
		<path class="st2" d="M522.5,218.5c0,0.1-0.1,0.3-0.2,0.4c-0.1,0.1-0.3,0.1-0.4,0.1c-0.7-0.2-1.9-0.6-2.7-0.8
			c-0.2-0.1-0.3-0.2-0.3-0.4s0-0.4,0.2-0.5c0.8-0.6,2-1.5,2.9-2.2c0.2-0.1,0.4-0.1,0.5,0c0.2,0.1,0.3,0.3,0.3,0.5
			C522.6,216.4,522.5,217.7,522.5,218.5z"/>
		<path class="st2" d="M491.4,149.6c-0.1-0.1-0.2-0.3-0.1-0.4c0-0.1,0.1-0.3,0.2-0.4c0.9-0.5,2.6-1.6,3.6-2.3c0.2-0.1,0.4-0.1,0.5,0
			c0.2,0.1,0.3,0.3,0.2,0.4c-0.1,1.4-0.2,4-0.3,5.5c0,0.2-0.1,0.4-0.3,0.4c-0.2,0.1-0.4,0-0.5-0.1
			C493.7,151.8,492.2,150.3,491.4,149.6z"/>
	</g>
</g>
<g>
	<path class="st0" d="M332.1,171.3c170.7,0.4,309.2,139.2,309.2,310H332.1V171.3L332.1,171.3z"/>
	<path class="st1" d="M332.1,434.2c1.5,0.1,3,0.2,4.5,0.1c3.2-0.1,6.2-0.6,8.9-1.4c2.3-0.7,4.3-1.6,6-2.6c0.4-0.2,0.9-0.6,1.5-1l0,0
		l0,0l0,0c0.5-0.4,1.1-0.8,1.7-1.2l0,0c2.5-1.6,5.5-3,8.9-4c3.4-1,7.2-1.6,11.1-1.7c4-0.1,7.8,0.3,11.3,1.1c4.4,1,8.1,2.7,11.1,4.8
		c1.9,1.3,4.4,2.3,7.2,2.9c2.6,0.6,5.4,0.8,8.5,0.7c3-0.1,5.8-0.6,8.3-1.3c2.7-0.8,4.9-1.9,6.7-3.3l0.6-0.4
		c2.9-2.1,6.6-3.9,10.8-5.1c3.6-1,7.5-1.6,11.7-1.8c4.2-0.1,8.2,0.4,11.9,1.2c4.7,1.1,8.7,3,11.9,5.2l0.7,0.4
		c1.6,0.9,3.6,1.6,5.8,2.1c2.4,0.6,5.1,0.8,7.9,0.7c2.8-0.1,5.4-0.6,7.7-1.2c2.3-0.7,4.3-1.7,5.9-2.9l0.6-0.5
		c3.1-2.3,7-4.2,11.6-5.5c3.7-1.1,7.9-1.7,12.3-1.8c5.4-0.2,10.6,0.6,15,2c4,1.2,7.4,2.9,10.2,4.9l0.6,0.4c1.4,0.8,3.1,1.3,5,1.8
		c2.2,0.5,4.7,0.7,7.3,0.6c2.5-0.1,4.9-0.5,7.1-1.2c2-0.6,3.7-1.5,5-2.5c2.8-2.2,6.3-4.1,10.4-5.5c4.6-1.6,9.9-2.6,15.5-2.7
		c5.7-0.2,11.1,0.7,15.8,2.1c4.2,1.3,7.9,3.1,10.9,5.2c1.2,0.9,2.9,1.3,4.8,1.8c0.5,0.1,1.1,0.2,1.7,0.3c1.6,8.8,2.9,17.7,3.7,26.7
		c-5.3-0.3-10.3-1.2-14.7-2.8c-4.2-1.5-7.8-3.4-10.7-5.7c-1.2-1-2.8-1.8-4.6-2.3c-2.1-0.6-4.4-1.1-6.8-1.1c-2.5-0.1-4.8,0.1-7,0.6
		c-1.7,0.4-3.3,0.9-4.6,1.6l-0.8,0.5c-2.9,2-6.3,3.8-10.3,4.9c-4.6,1.3-9.8,2.2-15.4,2c-4.5-0.1-8.8-0.8-12.6-1.9
		c-5-1.5-9.3-3.6-12.6-6.1l-0.6-0.4c-1.3-0.9-3-1.7-4.9-2.3c-2.3-0.7-4.7-1.1-7.4-1.2c-2.7-0.1-5.2,0.1-7.6,0.6
		c-2.3,0.5-4.4,1.2-6,2.3c-2.7,1.9-6,3.6-9.9,4.7c-4.3,1.3-9.3,2-14.6,1.9c-4.3-0.1-8.4-0.7-12-1.8c-4.7-1.4-8.7-3.3-11.8-5.8
		l-0.6-0.5c-1.5-1.1-3.4-2-5.6-2.6c-2.4-0.7-5.1-1.2-8-1.3s-5.7,0.1-8.2,0.7c-2.3,0.5-4.4,1.3-6.1,2.3l-0.7,0.5
		c-3.1,2.1-7,3.9-11.5,5c-3.5,0.8-7.5,1.3-11.6,1.2c-4.1-0.1-8-0.7-11.4-1.7c-4.2-1.2-7.8-3-10.6-5.1l-0.7-0.5
		c-1.8-1.3-4.1-2.4-6.7-3.2c-2.6-0.8-5.5-1.3-8.6-1.4c-3.1-0.1-6.1,0.2-8.8,0.8c-3,0.7-5.6,1.7-7.6,3.1c-2.8,2-6.5,3.6-10.7,4.6
		c-3.4,0.8-7.1,1.2-11,1.1c-1.5,0-3-0.2-4.5-0.3L332.1,434.2L332.1,434.2z M332.1,375.4c1.5,0.1,3,0.2,4.5,0.1
		c3.2-0.1,6.2-0.6,8.9-1.4c2.3-0.7,4.3-1.6,6-2.6c0.4-0.2,0.9-0.6,1.5-1l0,0l0,0l0,0c0.5-0.4,1.1-0.8,1.7-1.2l0,0
		c2.5-1.6,5.5-3,8.9-4c3.4-1,7.2-1.6,11.1-1.7c4-0.1,7.8,0.3,11.3,1.1c4.4,1,8.1,2.7,11.1,4.8c1.9,1.3,4.4,2.3,7.2,2.9
		c2.6,0.6,5.4,0.8,8.5,0.7c3-0.1,5.8-0.6,8.3-1.3c2.7-0.8,4.9-1.9,6.7-3.3l0.6-0.4c2.9-2.1,6.6-3.9,10.8-5.1c3.6-1,7.5-1.6,11.7-1.8
		c4.2-0.1,8.2,0.4,11.9,1.2c4.7,1.1,8.7,3,11.9,5.2l0.7,0.4c1.6,0.9,3.6,1.6,5.8,2.1c2.4,0.6,5.1,0.8,7.9,0.7
		c2.8-0.1,5.4-0.6,7.7-1.2c2.3-0.7,4.3-1.7,5.9-2.9l0.6-0.5c3.1-2.3,7-4.2,11.6-5.5c3.7-1.1,7.9-1.7,12.3-1.8c5.4-0.2,10.6,0.6,15,2
		c4,1.2,7.4,2.9,10.2,4.9l0.6,0.4c1.4,0.8,3.1,1.3,5,1.8c2.2,0.5,4.7,0.7,7.3,0.6c2.5-0.1,4.9-0.5,7.1-1.2c2-0.6,3.7-1.5,5-2.5
		c2.8-2.2,6.3-4.1,10.4-5.5c4.6-1.6,9.9-2.6,15.5-2.7c4.5-0.1,8.8,0.4,12.6,1.3c4.7,10.7,8.7,21.7,12.2,32.9
		c-0.9-0.3-1.8-0.5-2.6-0.8c-4.2-1.5-7.8-3.4-10.7-5.7c-1.2-1-2.8-1.8-4.6-2.3c-2.1-0.6-4.4-1.1-6.8-1.1c-2.5-0.1-4.8,0.1-7,0.6
		c-1.7,0.4-3.3,0.9-4.6,1.6l-0.8,0.5c-2.9,2-6.3,3.8-10.3,4.9c-4.6,1.3-9.8,2.2-15.4,2c-4.5-0.1-8.8-0.8-12.6-1.9
		c-5-1.5-9.3-3.6-12.6-6.1l-0.6-0.4c-1.3-0.9-3-1.7-4.9-2.3c-2.3-0.7-4.7-1.1-7.4-1.2s-5.2,0.1-7.6,0.6c-2.3,0.5-4.4,1.2-6,2.3
		c-2.7,1.9-6,3.6-9.9,4.7c-4.3,1.3-9.3,2-14.6,1.9c-4.3-0.1-8.4-0.7-12-1.8c-4.7-1.4-8.7-3.3-11.8-5.8l-0.6-0.5
		c-1.5-1.1-3.4-2-5.6-2.6c-2.4-0.7-5.1-1.2-8-1.3c-2.9-0.1-5.7,0.1-8.2,0.7c-2.3,0.5-4.4,1.3-6.1,2.3l-0.7,0.5
		c-3.1,2.1-7,3.9-11.5,5c-3.5,0.8-7.5,1.3-11.6,1.2c-4.1-0.1-8-0.7-11.4-1.7c-4.2-1.2-7.8-3-10.6-5.1l-0.7-0.5
		c-1.8-1.3-4.1-2.4-6.7-3.2c-2.6-0.8-5.5-1.3-8.6-1.4c-3.1-0.1-6.1,0.2-8.8,0.8c-3,0.7-5.6,1.7-7.6,3.1c-2.8,2-6.5,3.6-10.7,4.6
		c-3.4,0.8-7.1,1.2-11,1.1c-1.5,0-3-0.2-4.5-0.3L332.1,375.4L332.1,375.4z M332.1,314c1.5,0.1,3,0.2,4.5,0.1
		c3.2-0.1,6.2-0.6,8.9-1.4c2.3-0.7,4.3-1.6,6-2.6c0.4-0.2,0.9-0.6,1.5-1l0,0l0,0l0,0c0.5-0.4,1.1-0.8,1.7-1.2l0,0
		c2.5-1.6,5.5-3,8.9-4c3.4-1,7.2-1.6,11.1-1.7c4-0.1,7.8,0.3,11.3,1.1c4.4,1,8.1,2.7,11.1,4.8c1.9,1.3,4.4,2.3,7.2,2.9
		c2.6,0.6,5.4,0.8,8.5,0.7c3-0.1,5.8-0.6,8.3-1.3c2.7-0.8,4.9-1.9,6.7-3.3l0.6-0.4c2.9-2.1,6.6-3.9,10.8-5.1c3.6-1,7.5-1.6,11.7-1.8
		c4.2-0.1,8.2,0.4,11.9,1.2c4.7,1.1,8.7,3,11.9,5.2l0.7,0.4c1.6,0.9,3.6,1.6,5.8,2.1c2.4,0.6,5.1,0.8,7.9,0.7
		c2.8-0.1,5.4-0.6,7.7-1.2c2.3-0.7,4.3-1.7,5.9-2.9l0.6-0.5c3.1-2.3,7-4.2,11.6-5.5c3.7-1.1,7.9-1.7,12.3-1.8c5.4-0.2,10.6,0.6,15,2
		c4,1.2,7.4,2.9,10.2,4.9l0.6,0.4c1.4,0.8,3.1,1.3,5,1.8c2.2,0.5,4.7,0.7,7.3,0.6c2.5-0.1,4.9-0.5,7.1-1.2c2-0.6,3.7-1.5,5-2.5
		c1.6-1.3,3.5-2.4,5.5-3.5c4.7,6.5,9.1,13.1,13.3,20c-1.7,0.4-3.2,0.8-4.5,1.5l-0.8,0.5c-2.9,2-6.3,3.8-10.3,4.9
		c-4.6,1.3-9.8,2.2-15.4,2c-4.5-0.1-8.8-0.8-12.6-1.9c-5-1.5-9.3-3.6-12.6-6.1l-0.6-0.4c-1.3-0.9-3-1.7-4.9-2.3
		c-2.3-0.7-4.7-1.1-7.4-1.2s-5.2,0.1-7.6,0.6c-2.3,0.5-4.4,1.2-6,2.3c-2.7,1.9-6,3.6-9.9,4.7c-4.3,1.3-9.3,2-14.6,1.9
		c-4.3-0.1-8.4-0.7-12-1.8c-4.7-1.4-8.7-3.3-11.8-5.8l-0.6-0.5c-1.5-1.1-3.4-2-5.6-2.6c-2.4-0.7-5.1-1.2-8-1.3
		c-2.9-0.1-5.7,0.1-8.2,0.7c-2.3,0.5-4.4,1.3-6.1,2.3l-0.9,0.5c-3.1,2.1-7,3.9-11.5,5c-3.5,0.8-7.5,1.3-11.6,1.2
		c-4.1-0.1-8-0.7-11.4-1.7c-4.2-1.2-7.8-3-10.6-5.1l-0.7-0.5c-1.8-1.3-4.1-2.4-6.7-3.2c-2.6-0.8-5.5-1.3-8.6-1.4
		c-3.1-0.1-6.1,0.2-8.8,0.8c-3,0.7-5.6,1.7-7.6,3.1c-2.8,2-6.5,3.6-10.7,4.6c-3.4,0.8-7.1,1.2-11,1.1c-1.5,0-3-0.2-4.5-0.3V314
		L332.1,314z M523.4,238.1c11.8,9.3,22.8,19.4,33.1,30.3c-1.4-0.3-2.8-0.6-4.2-1c-5-1.5-9.3-3.6-12.6-6.1l-0.6-0.4
		c-1.3-0.9-3-1.7-4.9-2.3c-2.3-0.7-4.7-1.1-7.4-1.2s-5.2,0.1-7.6,0.6c-2.3,0.5-4.4,1.2-6,2.3c-2.7,1.9-6,3.6-9.9,4.7
		c-4.3,1.3-9.3,2-14.6,1.9c-4.3-0.1-8.4-0.7-12-1.8c-4.7-1.4-8.7-3.3-11.8-5.8l-0.6-0.5c-1.5-1.1-3.4-2-5.6-2.6
		c-2.4-0.7-5.1-1.2-8-1.3c-2.9-0.1-5.7,0.1-8.2,0.7c-2.3,0.5-4.4,1.3-6.1,2.3l-0.7,0.5c-3.1,2.1-7,3.9-11.5,5
		c-3.5,0.8-7.5,1.3-11.6,1.2c-4.1-0.1-8-0.7-11.4-1.7c-4.2-1.2-7.8-3-10.6-5.1l-0.7-0.5c-1.8-1.3-4.1-2.4-6.7-3.2
		c-2.6-0.8-5.5-1.3-8.6-1.4c-3.1-0.1-6.1,0.2-8.8,0.8c-3,0.7-5.6,1.7-7.6,3.1c-2.8,2-6.5,3.6-10.7,4.6c-3.4,0.8-7.1,1.2-11,1.1
		c-1.5,0-3-0.2-4.5-0.3v-7.4c1.5,0.1,3,0.2,4.5,0.1c3.2-0.1,6.2-0.6,8.9-1.4c2.3-0.7,4.3-1.6,6-2.6c0.4-0.2,0.9-0.6,1.5-1l0,0l0,0
		l0,0c0.5-0.4,1.1-0.8,1.7-1.2l0,0c2.5-1.6,5.5-3,8.9-4c3.4-1,7.2-1.6,11.1-1.7c4-0.1,7.8,0.3,11.3,1.1c4.4,1,8.1,2.7,11.1,4.8
		c1.9,1.3,4.4,2.3,7.2,2.9c2.6,0.6,5.4,0.8,8.5,0.7c3-0.1,5.8-0.6,8.3-1.3c2.7-0.8,4.9-1.9,6.7-3.3l0.6-0.4
		c2.9-2.1,6.6-3.9,10.8-5.1c3.6-1,7.5-1.6,11.7-1.8c4.2-0.1,8.2,0.4,11.9,1.2c4.7,1.1,8.7,3,11.9,5.2l0.7,0.4
		c1.6,0.9,3.6,1.6,5.8,2.1c2.4,0.6,5.1,0.8,7.9,0.7c2.8-0.1,5.4-0.6,7.7-1.2c2.3-0.7,4.3-1.7,5.9-2.9l0.6-0.5
		c3.1-2.3,7-4.2,11.6-5.5C517.3,238.9,520.3,238.3,523.4,238.1L523.4,238.1z"/>
</g>
<path class="st1" d="M331.1,173.4C161.2,173.9,23.4,311.6,23.4,481.3h307.7L331.1,173.4L331.1,173.4z"/>
<path class="st3" d="M332.1,173.2v308.1H23.3c0-170,138-308.1,308.1-308.1L332.1,173.2L332.1,173.2z"/>
<g>
	<path class="st4" d="M126.8,246.9c-11.1-3.7-18.7-14.1-18.7-25.9V90.3c0-13.3,8.9-25,21.7-28.5c1.7-0.5,3.5-1,5.2-1.5
		c12.8-3.6,21.7-15.2,21.7-28.5v-2.1c0-7.9,3.1-15.4,8.7-21c5.6-5.6,13.1-8.7,21-8.7c8.5,0,17.9,0,26.4,0c7.9,0,15.4,3.1,21,8.7
		c5.6,5.6,8.7,13.1,8.7,21v25.1c0,11.5,6.6,21.9,17,26.8c1.3,0.6,2.6,1.2,3.9,1.8c10.4,4.9,17,15.3,17,26.8v112.6
		c0,10.5-5.9,20.1-15.3,24.8c-0.8,0.4-1.6,0.8-2.4,1.2c-5.1,2.6-9,7.1-10.6,12.6l0,0c-3.1,10.6-12.9,17.8-23.9,17.8
		c-16.9,0-41.8,0-58.3,0c-10.7,0-20.6-5.8-25.8-15.1c-1.1-2-2.2-3.9-3.2-5.7C137.7,253,132.8,248.9,126.8,246.9L126.8,246.9
		L126.8,246.9z"/>
	<path class="st1" d="M223.3,183.9l-5.2,5.4c-0.7,0.7-0.7,1.8,0.1,2.5c0.7,0.7,1.8,0.7,2.5-0.1l5.2-5.4c0.7-0.7,0.7-1.8-0.1-2.5
		C225.1,183.2,224,183.2,223.3,183.9z"/>
	<path class="st1" d="M210.5,94.2l-5.2,5.4c-0.7,0.7-0.7,1.8,0.1,2.5c0.7,0.7,1.8,0.7,2.5-0.1l5.2-5.4c0.7-0.7,0.7-1.8-0.1-2.5
		C212.3,93.5,211.2,93.5,210.5,94.2z"/>
	<path class="st1" d="M159.2,103.8l5.2,5.4c0.7,0.7,1.8,0.7,2.5,0.1c0.7-0.7,0.7-1.8,0.1-2.5l-5.2-5.4c-0.7-0.7-1.8-0.7-2.5-0.1
		C158.5,102,158.5,103.1,159.2,103.8z"/>
	<path class="st1" d="M135.3,211.4l5.2,5.4c0.7,0.7,1.8,0.7,2.5,0.1c0.7-0.7,0.7-1.8,0.1-2.5l-5.2-5.4c-0.7-0.7-1.8-0.7-2.5-0.1
		C134.7,209.6,134.7,210.7,135.3,211.4z"/>
	<path class="st1" d="M175.4,25.5l5.2,5.4c0.7,0.7,1.8,0.7,2.5,0.1c0.7-0.7,0.7-1.8,0.1-2.5l-5.2-5.4c-0.7-0.7-1.8-0.7-2.5-0.1
		C174.8,23.7,174.7,24.8,175.4,25.5z"/>
	<path class="st1" d="M235.6,251.1l-5.2,5.4c-0.7,0.7-0.7,1.8,0.1,2.5c0.7,0.7,1.8,0.7,2.5-0.1l5.2-5.4c0.7-0.7,0.7-1.8-0.1-2.5
		C237.4,250.4,236.3,250.4,235.6,251.1z"/>
	<path class="st1" d="M251.5,119.1l-5.2,5.4c-0.7,0.7-0.7,1.8,0.1,2.5c0.7,0.7,1.8,0.7,2.5-0.1l5.2-5.4c0.7-0.7,0.7-1.8-0.1-2.5
		C253.3,118.4,252.2,118.4,251.5,119.1L251.5,119.1z"/>
	<path class="st1" d="M227.7,168.9l-2.6,2.7c-0.7,0.7-0.7,1.8,0.1,2.5c0.7,0.7,1.8,0.7,2.5-0.1l2.6-2.7c0.7-0.7,0.7-1.8-0.1-2.5
		C229.4,168.2,228.3,168.2,227.7,168.9z"/>
	<path class="st1" d="M213.1,75.3l-2.6,2.7c-0.7,0.7-0.7,1.8,0.1,2.5c0.7,0.7,1.8,0.7,2.5-0.1l2.6-2.7c0.7-0.7,0.7-1.8-0.1-2.5
		C214.9,74.6,213.8,74.6,213.1,75.3z"/>
	<path class="st1" d="M226.8,38.9l-2.6,2.7c-0.7,0.7-0.7,1.8,0.1,2.5c0.7,0.7,1.8,0.7,2.5-0.1l2.6-2.7c0.7-0.7,0.7-1.8-0.1-2.5
		C228.6,38.2,227.5,38.2,226.8,38.9z"/>
	<path class="st1" d="M143.8,111.8l2.6,2.7c0.7,0.7,1.8,0.7,2.5,0.1c0.7-0.7,0.7-1.8,0.1-2.5l-2.6-2.7c-0.7-0.7-1.8-0.7-2.5-0.1
		C143.2,110,143.2,111.1,143.8,111.8z"/>
	<path class="st1" d="M142.2,235.8l2.6,2.7c0.7,0.7,1.8,0.7,2.5,0.1c0.7-0.7,0.7-1.8,0.1-2.5l-2.6-2.7c-0.7-0.7-1.8-0.7-2.5-0.1
		C141.6,234,141.6,235.1,142.2,235.8z"/>
	<path class="st1" d="M156.3,68.3l2.6,2.7c0.7,0.7,1.8,0.7,2.5,0.1c0.7-0.7,0.7-1.8,0.1-2.5l-2.6-2.7c-0.7-0.7-1.8-0.7-2.5-0.1
		C155.6,66.4,155.6,67.5,156.3,68.3L156.3,68.3z"/>
	<path class="st1" d="M164.5,165.1l2.6,2.7c0.7,0.7,1.8,0.7,2.5,0.1c0.7-0.7,0.7-1.8,0.1-2.5l-2.6-2.7c-0.7-0.7-1.8-0.7-2.5-0.1
		C163.8,163.3,163.8,164.4,164.5,165.1L164.5,165.1z"/>
	<path class="st1" d="M252.8,102.7l-2.6,2.7c-0.7,0.7-0.7,1.8,0.1,2.5c0.7,0.7,1.8,0.7,2.5-0.1l2.6-2.7c0.7-0.7,0.7-1.8-0.1-2.5
		C254.6,102,253.5,102,252.8,102.7z"/>
	<path class="st1" d="M255.9,174.7l-2.6,2.7c-0.7,0.7-0.7,1.8,0.1,2.5c0.7,0.7,1.8,0.7,2.5-0.1l2.6-2.7c0.7-0.7,0.7-1.8-0.1-2.5
		C257.7,174,256.5,174,255.9,174.7z"/>
</g>
<g>
	<path class="st2" d="M186.5,213.3c0.1-6.4,0.3-12.8,0.5-19.1c1.2-30.2,3-56.7,3-56.7c0-2.3,1.9-4.2,4.2-4.2c2.3,0,4.2,1.9,4.2,4.2
		c0,0,1.9,26.5,3,56.7c0.3,8.4,0.5,17,0.6,25.5c0.1,7.1,0.2,14.1,0.3,20.6c2.8-2.7,5.9-5.7,9.1-8.7s6.5-6.1,9.8-9
		c11.9-10.5,22.7-19.1,22.7-19.1c1.4-1.4,3.6-1.4,5,0s1.4,3.6,0,5c0,0-8.6,10.8-19.1,22.7c-2.9,3.3-6,6.6-9,9.8
		c-7.3,7.8-14.3,14.9-18.3,18.9c0.1,11.8,0.1,19.4,0.1,19.4V422c0,4.6-3.8,8.4-8.4,8.4s-8.4-3.8-8.4-8.4V279.2c0,0,0-20.8,0.4-46.5
		c-4-4.1-11.6-11.8-19.6-20.2c-3.2-3.3-6.4-6.8-9.5-10.2c-11-12.4-20.1-23.7-20.1-23.7c-1.4-1.4-1.4-3.6,0-5s3.6-1.4,5,0
		c0,0,8.2,6.6,18.3,15.3c1-0.9,2.7-2.5,4.6-4.1c0.8-0.7,1.7-1.4,2.6-2c3.4-2.2,6.5-3.5,6.5-3.5c1.1-1.1,2.9-1.1,4.1,0
		c1.1,1.1,1.1,2.9,0,4.1c0,0-1.3,3-3.5,6.5c-0.6,0.9-1.3,1.7-2,2.6c-1.4,1.6-2.7,3.1-3.7,4.1c2.4,2.2,4.7,4.4,7.1,6.6
		C179.7,206.7,183.3,210.2,186.5,213.3L186.5,213.3z"/>
	<path class="st4" d="M192.9,363.4v-3.7c0-1-0.8-1.8-1.8-1.8s-1.8,0.8-1.8,1.8v3.7c0,1,0.8,1.8,1.8,1.8S192.9,364.3,192.9,363.4z"/>
	<path class="st4" d="M173.3,206.2l-2.6-2.6c-0.7-0.7-1.8-0.7-2.5,0s-0.7,1.8,0,2.5l2.6,2.6c0.7,0.7,1.8,0.7,2.5,0
		S174,206.9,173.3,206.2z"/>
	<path class="st4" d="M197.7,292.2v-3.7c0-1-0.8-1.8-1.8-1.8s-1.8,0.8-1.8,1.8v3.7c0,1,0.8,1.8,1.8,1.8S197.7,293.2,197.7,292.2z"/>
	<path class="st4" d="M196.4,348.4v-1.3c0-1-0.8-1.8-1.8-1.8s-1.8,0.8-1.8,1.8v1.3c0,1,0.8,1.8,1.8,1.8
		C195.7,350.2,196.4,349.4,196.4,348.4z"/>
	<path class="st4" d="M216.2,239.5l0.9-0.9c0.7-0.7,0.7-1.8,0-2.5s-1.8-0.7-2.5,0l-0.9,0.9c-0.7,0.7-0.7,1.8,0,2.5
		S215.5,240.2,216.2,239.5z"/>
	<path class="st4" d="M202.3,235.3c0,1.7,0,3.3,0.1,5c0.3-0.3,0.6-0.6,1-0.9l-3.7,3.8c-0.7,0.7-1.8,0.7-2.5,0.1
		c-0.7-0.7-0.7-1.8-0.1-2.5L202.3,235.3z"/>
</g>
<g>
	<path class="st4" d="M91.2,413.3c0.6-1.1,1-2.3,1.3-3.6c5.2-24.1,26.7-42.2,52.3-42.2c25.5,0,46.9,17.9,52.2,41.7
		c1.4,6.3,6.7,11.1,13.1,11.8c28.5,3.4,52.3,30.2,52.3,58.8c0,0.5,0,1,0,1.4H47.7c0.1-25.3,13.7-47.4,33.9-59.7
		c5.8-3.3,13-6.3,21.6-8.1c1-0.2,1.6-1.1,1.4-2.1c-0.2-1-1.1-1.6-2.1-1.4C98.4,410.9,94.7,412,91.2,413.3L91.2,413.3z"/>
	<path class="st1" d="M115.2,402.9l5.2,5.4c0.7,0.7,1.8,0.7,2.5,0.1c0.7-0.7,0.7-1.8,0.1-2.5l-5.2-5.4c-0.7-0.7-1.8-0.7-2.5-0.1
		C114.6,401.1,114.6,402.2,115.2,402.9L115.2,402.9z"/>
	<path class="st1" d="M63.6,466.7l5.2,5.4c0.7,0.7,1.8,0.7,2.5,0.1c0.7-0.7,0.7-1.8,0.1-2.5l-5.2-5.4c-0.7-0.7-1.8-0.7-2.5-0.1
		C63,464.9,62.9,466,63.6,466.7z"/>
	<path class="st1" d="M186.1,426.5l-5.2,5.4c-0.7,0.7-0.7,1.8,0.1,2.5c0.7,0.7,1.8,0.7,2.5-0.1l5.2-5.4c0.7-0.7,0.7-1.8-0.1-2.5
		C187.9,425.8,186.8,425.8,186.1,426.5L186.1,426.5z"/>
	<path class="st1" d="M118.1,469l5.2,5.4c0.7,0.7,1.8,0.7,2.5,0.1c0.7-0.7,0.7-1.8,0.1-2.5l-5.2-5.4c-0.7-0.7-1.8-0.7-2.5-0.1
		C117.5,467.2,117.4,468.3,118.1,469L118.1,469z"/>
	<path class="st1" d="M173.6,403.3l-5.2,5.4c-0.7,0.7-0.7,1.8,0.1,2.5c0.7,0.7,1.8,0.7,2.5-0.1l5.2-5.4c0.7-0.7,0.7-1.8-0.1-2.5
		C175.4,402.6,174.3,402.6,173.6,403.3L173.6,403.3z"/>
	<path class="st1" d="M120.4,390.6l2.6,2.7c0.7,0.7,1.8,0.7,2.5,0.1c0.7-0.7,0.7-1.8,0.1-2.5l-2.6-2.7c-0.7-0.7-1.8-0.7-2.5-0.1
		C119.8,388.8,119.7,389.9,120.4,390.6L120.4,390.6z"/>
	<path class="st1" d="M68.6,447.5l2.6,2.7c0.7,0.7,1.8,0.7,2.5,0.1c0.7-0.7,0.7-1.8,0.1-2.5l-2.6-2.7c-0.7-0.7-1.8-0.7-2.5-0.1
		C67.9,445.6,67.9,446.8,68.6,447.5z"/>
	<path class="st1" d="M174.2,390.4l-2.6,2.7c-0.7,0.7-0.7,1.8,0.1,2.5c0.7,0.7,1.8,0.7,2.5-0.1l2.6-2.7c0.7-0.7,0.7-1.8-0.1-2.5
		C176,389.7,174.9,389.7,174.2,390.4L174.2,390.4z"/>
	<path class="st1" d="M158.5,376.8l-2.6,2.7c-0.7,0.7-0.7,1.8,0.1,2.5c0.7,0.7,1.8,0.7,2.5-0.1l2.6-2.7c0.7-0.7,0.7-1.8-0.1-2.5
		C160.3,376.1,159.2,376.1,158.5,376.8z"/>
	<path class="st1" d="M78,467.5l2.6,2.7c0.7,0.7,1.8,0.7,2.5,0.1c0.7-0.7,0.7-1.8,0.1-2.5l-2.6-2.7c-0.7-0.7-1.8-0.7-2.5-0.1
		C77.3,465.7,77.3,466.8,78,467.5L78,467.5z"/>
	<path class="st1" d="M171.9,467.5l-2.6,2.7c-0.7,0.7-0.7,1.8,0.1,2.5c0.7,0.7,1.8,0.7,2.5-0.1l2.6-2.7c0.7-0.7,0.7-1.8-0.1-2.5
		C173.7,466.8,172.6,466.8,171.9,467.5z"/>
	<path class="st1" d="M188,450.7l-2.6,2.7c-0.7,0.7-0.7,1.8,0.1,2.5c0.7,0.7,1.8,0.7,2.5-0.1l2.6-2.7c0.7-0.7,0.7-1.8-0.1-2.5
		C189.8,450,188.7,450,188,450.7z"/>
	<path class="st1" d="M220.8,461l-5.2,5.4c-0.7,0.7-0.7,1.8,0.1,2.5c0.7,0.7,1.8,0.7,2.5-0.1l5.2-5.4c0.7-0.7,0.7-1.8-0.1-2.5
		C222.6,460.2,221.5,460.3,220.8,461L220.8,461z"/>
	<path class="st1" d="M215.8,441.7l-2.6,2.7c-0.7,0.7-0.7,1.8,0.1,2.5c0.7,0.7,1.8,0.7,2.5-0.1l2.6-2.7c0.7-0.7,0.7-1.8-0.1-2.5
		C217.6,441,216.5,441,215.8,441.7z"/>
</g>
<g>
	<path class="st2" d="M145.2,404.2c3,0,5.5,1,5.5,5.9s-2.5,11.8-5.5,11.8s-5.5-6.9-5.5-11.8C139.7,405.3,142.1,404.2,145.2,404.2z"
		/>
	<path class="st2" d="M145.1,445.8c-3,0-5.5-1-5.5-5.9s2.5-11.8,5.5-11.8s5.5,6.9,5.5,11.8C150.6,444.8,148.2,445.8,145.1,445.8z"/>
	<path class="st1" d="M130,409.9c2.2-2.2,4.6-3.2,8.1,0.3s6.6,10.1,4.5,12.2c-2.2,2.2-8.8-1-12.2-4.5
		C126.8,414.5,127.8,412.1,130,409.9L130,409.9z"/>
	<path class="st1" d="M160.4,440.1c-2.2,2.2-4.6,3.2-8.1-0.3s-6.6-10.1-4.4-12.2c2.2-2.2,8.8,1,12.2,4.5
		C163.5,435.5,162.5,438,160.4,440.1z"/>
	<path class="st1" d="M160.4,409.9c-2.2-2.2-4.6-3.2-8.1,0.3s-6.6,10.1-4.4,12.2c2.2,2.2,8.8-1,12.2-4.5
		C163.5,414.5,162.5,412.1,160.4,409.9L160.4,409.9z"/>
	<path class="st1" d="M130,440.1c2.2,2.2,4.6,3.2,8.1-0.3s6.6-10.1,4.5-12.2c-2.2-2.2-8.8,1-12.2,4.5
		C126.8,435.5,127.8,438,130,440.1z"/>
	<path class="st2" d="M166.2,425.1c0,3-1,5.5-5.9,5.5s-11.8-2.5-11.8-5.5s6.9-5.5,11.8-5.5C165.2,419.6,166.2,422,166.2,425.1z"/>
	<path class="st2" d="M124.1,425.1c0,3,1,5.5,5.9,5.5s11.8-2.5,11.8-5.5s-6.9-5.5-11.8-5.5C125.2,419.6,124.1,422,124.1,425.1z"/>
	<circle class="st4" cx="145.2" cy="425" r="5.6"/>
	<path class="st2" d="M143.4,454.3V438c0-1,0.8-1.8,1.8-1.8s1.8,0.8,1.8,1.8v11.9l5.5-2.4c0.6-0.3,1.3-0.1,1.7,0.5
		c0.4,0.5,0.3,1.2-0.1,1.7l-7.1,7.9v23.7c0,1-0.8,1.8-1.8,1.8s-1.8-0.8-1.8-1.8v-15.4l-7.8-13.3c-0.3-0.5-0.2-1.2,0.2-1.7
		c0.4-0.4,1.1-0.5,1.7-0.2L143.4,454.3z"/>
</g>
<g>
	<path class="st2" d="M104.4,465.3V438c0-1,0.8-1.8,1.8-1.8s1.8,0.8,1.8,1.8v43.3c0,1-0.8,1.8-1.8,1.8s-1.8-0.8-1.8-1.8v-6.7
		l-6.1-7.8c-0.3-0.4-0.4-1.1-0.1-1.5c0.3-0.5,0.8-0.8,1.4-0.7L104.4,465.3z"/>
	<g>
		<path class="st1" d="M106.2,432.5c0.5-0.7,1.1-1.3,1.7-1.9c3.8-3.8,8.1-4.3,10.5-1.9c2.4,2.4,2,6.7-1.9,10.5
			c-0.6,0.6-1.2,1.1-1.9,1.7c0.7,0.5,1.3,1.1,1.9,1.7c3.8,3.8,4.3,8.1,1.9,10.5c-2.4,2.4-6.7,2-10.5-1.9c-0.6-0.6-1.1-1.2-1.7-1.9
			c-0.5,0.7-1.1,1.3-1.7,1.9c-3.8,3.8-8.1,4.3-10.5,1.9c-2.4-2.4-2-6.7,1.9-10.5c0.6-0.6,1.2-1.1,1.9-1.7c-0.7-0.5-1.3-1.1-1.9-1.7
			c-3.8-3.8-4.3-8.1-1.9-10.5c2.4-2.4,6.7-2,10.5,1.9C105.1,431.2,105.7,431.8,106.2,432.5z"/>
		<circle class="st2" cx="106.2" cy="440.9" r="4.8"/>
	</g>
</g>
<g>
	<path class="st2" d="M475.4,431.8c1.9,0,3.5,0.7,3.5,3.8s-1.6,7.6-3.5,7.6s-3.5-4.4-3.5-7.6C471.8,432.5,473.4,431.8,475.4,431.8z"
		/>
	<path class="st2" d="M485.1,435.5c-1.4-1.4-3-2-5.2,0.2s-4.2,6.5-2.8,7.8c1.4,1.4,5.6-0.6,7.8-2.8S486.5,436.9,485.1,435.5z"/>
	<path class="st2" d="M491.1,467.5c-1.4,1.4-3,2-5.2-0.2s-4.2-6.5-2.8-7.8c1.4-1.4,5.6,0.6,7.8,2.8
		C493.1,464.6,492.5,466.2,491.1,467.5z"/>
	<path class="st2" d="M461.9,445.2c0,1.9,0.7,3.5,3.8,3.5s7.6-1.6,7.6-3.5s-4.4-3.5-7.6-3.5S461.9,443.3,461.9,445.2z"/>
	<path class="st2" d="M467,466.7c0.6-1.2,1.4-2.3,2.4-3.3c0.6-0.6,1.3-1.3,1.9-1.9c1.7-1.7,2.6-3.9,2.6-6.3c0-3.2,0-6.9,0-6.9
		c0-1,0.8-1.8,1.8-1.8s1.8,0.8,1.8,1.8c0,0,0,3.7,0,6.9c0,3.3-1.3,6.4-3.6,8.8c-0.6,0.6-1.3,1.3-1.9,1.9c-1.7,1.7-2.6,3.9-2.6,6.3
		v7.3c0,1-0.8,1.8-1.8,1.8s-1.8-0.8-1.8-1.8v-5.2l-4.8-8.2c-0.3-0.5-0.2-1.2,0.2-1.7c0.4-0.4,1.1-0.5,1.7-0.2L467,466.7L467,466.7z"
		/>
	<circle class="st2" cx="475.4" cy="445.2" r="3.6"/>
</g>
<path class="st2" d="M502.9,481.3V475c0-1-0.8-1.8-1.8-1.8s-1.8,0.8-1.8,1.8v6.3c0,1,0.8,1.8,1.8,1.8S502.9,482.3,502.9,481.3z"/>
<path class="st2" d="M590.4,481.3V475c0-1-0.8-1.8-1.8-1.8s-1.8,0.8-1.8,1.8v6.3c0,1,0.8,1.8,1.8,1.8S590.4,482.3,590.4,481.3z"/>
<path class="st2" d="M510.1,481.3v-12.5c0-1-0.8-1.8-1.8-1.8s-1.8,0.8-1.8,1.8v12.5c0,1,0.8,1.8,1.8,1.8S510.1,482.3,510.1,481.3z"
	/>
<g>
	<path class="st2" d="M543.3,412.3c0.5,0.5,1.3,0.6,2,0.3s1.1-1,1.1-1.7c0-10.9,0-39.4,0-51.4c0-0.8,0.5-1.5,1.3-1.8s1.6,0,2.1,0.6
		c0.7,0.9,1.4,1.8,2.1,2.7c0.4,0.6,1.1,0.8,1.8,0.7c0.7-0.1,1.3-0.6,1.5-1.3c1-3.2,2.5-7.8,3.4-10.8c0.2-0.7,0.8-1.2,1.5-1.3
		s1.4,0.2,1.8,0.8c0.8,1.4,1.4,3,1.4,4.8v23.5c0,0.7,0.4,1.3,1,1.6c0.6,0.3,1.3,0.2,1.9-0.2l0,0c2.8-2.2,5.5-4.1,7.6-5.6
		c0.3-0.2,0.6-0.3,0.9-0.3c0.9-0.1,2.8-0.3,4.4-0.4c0.6-0.1,1.2,0.2,1.6,0.7c0.4,0.5,0.5,1.1,0.4,1.7c-0.6,2.3-1.5,5.4-1.8,6.4
		c-0.1,0.2-0.2,0.4-0.3,0.6c-1.2,1.7-2.7,3.7-4.2,5.7c-1.4,1.8-2.9,3.5-4.5,5.2c-2.3,2.6-4.6,5-6.5,7c-0.3,0.3-0.5,0.8-0.5,1.3
		c0,8.2,0,80.2,0,80.2c0,0.3-16.8,0.3-16.8,0v-45.5c0-0.5-0.2-1-0.5-1.3c-3.1-3.2-7.6-7.8-12.3-12.9c-2.3-2.4-4.6-4.9-6.7-7.5
		c-2.2-2.6-4.2-5.1-6-7.3c-0.2-0.2-0.3-0.5-0.4-0.7c-0.1-0.3-0.2-0.9-0.3-1.5c-0.2-0.8,0.1-1.6,0.8-2s1.5-0.4,2.1,0.1
		c1,0.7,2,1.5,3,2.2c0.5,0.4,1.2,0.4,1.7,0.1c0.6-0.3,0.9-0.9,0.8-1.5l0,0c0-0.7,0.3-1.3,0.9-1.6c0.6-0.3,1.3-0.2,1.8,0.2
		c1.4,1.1,2.8,2.3,4.2,3.5c2.5,2.1,5,4.5,7.5,6.7C543.1,412.1,543.2,412.2,543.3,412.3L543.3,412.3z"/>
	<path class="st2" d="M546.1,434.4l7.2,7.5c0.7,0.7,0.7,1.8-0.1,2.5s-1.8,0.7-2.5-0.1l-4.3-4.4v-4.4
		C546.5,435.1,546.3,434.7,546.1,434.4L546.1,434.4z"/>
	<path class="st0" d="M554.9,468.8v-3.7c0-1-0.8-1.8-1.8-1.8s-1.8,0.8-1.8,1.8v3.7c0,1,0.8,1.8,1.8,1.8S554.9,469.8,554.9,468.8z"/>
	<path class="st0" d="M554.9,395.8v-1.1c0-1-0.8-1.8-1.8-1.8s-1.8,0.8-1.8,1.8v1.1c0,1,0.8,1.8,1.8,1.8
		C554.1,397.5,554.9,396.7,554.9,395.8z"/>
	<path class="st0" d="M559.3,456.4V455c0-1-0.8-1.8-1.8-1.8s-1.8,0.8-1.8,1.8v1.3c0,1,0.8,1.8,1.8,1.8S559.3,457.3,559.3,456.4z"/>
</g>
<g>
	<path class="st1" d="M124.8,83.4c2-0.9,1.1,0.8,0.6,1.9l0,0c-3.9,7.2-6.1,15.5-6.1,24.2c0,10.9,3.4,21,9.3,29.3
		c4.6-0.3,7.1-1.7,11.9-3.9c4.7-2.2,14.8-4,17.6,3.1c0,0.1,0.1,0.1,0.1,0.2l0,0c0.3,0.8,1.2,3.9,0.1,8.5c-9.7,3-23,9.5-23,9.5
		c-3.2,1.5-6.6,2.3-10.2,2.3h-14.6c-3.1,0-6.2-0.6-9.1-1.8c-4.4-1.9-11-4.7-14.9-6.3c-2-0.8-4.1-1.3-6.3-1.3H69.1
		c-1.9,0-3.7-0.6-5.3-1.6c-1.1-0.8-2.5-1.7-3.6-2.5c-0.4-0.3-0.5-0.7-0.4-1.2c0.1-0.4,0.5-0.7,1-0.7c7.1,0,23,0,23,0
		s3.6-1.1,10.8-2.2c-4.3-4-7.3-8.7-8.1-13.5c9.4,2.8,11.2,0,11.2,0c-13.4-7.9-11.2-21.8-11.2-21.8c4.6,7.9,13.1,9.5,13.1,9.5
		c-6.6-14,3-25.4,3-25.4c-0.6,12.1,4.9,16.1,4.9,16.1c2.8-13,11.4-19.4,16.2-22.1c0.1,0,0.1-0.1,0.2-0.1
		C124.3,83.6,124.5,83.5,124.8,83.4L124.8,83.4z"/>
	<path class="st2" d="M132.4,138.3c0.6,0.9,1.5,2,2.3,2.7c0.8,0.6,0.9,1.7,0.3,2.5c-0.6,0.8-1.7,0.9-2.5,0.3c-1.6-1.3-3.2-3.6-4-4.9
		l0,0C130,138.8,131.2,138.6,132.4,138.3z"/>
	<path class="st2" d="M158.2,138.3l8.9,3.9c0.5,0.2,0.8,0.7,0.8,1.3c0,0.5-0.4,1-1,1.1l-5.4,1.3c-1,0.2-2,0.5-3.1,0.9
		C159.4,142.3,158.5,139.2,158.2,138.3L158.2,138.3z"/>
	<path class="st2" d="M80.1,147.5h0.2c2.4,0,4.8,0.5,7,1.4c3.8,1.6,10.5,4.4,14.9,6.3c0.9,0.4,1.3,1.4,0.9,2.3
		c-0.4,1.2-1.5,1.3-1.8,1.3c0,0-5.7,1.2-13.1,0.8c-4.1-0.2-8.6-0.9-12.9-2.3c-1-0.3-1.6-1.3-1.3-2.3s1.3-1.6,2.3-1.3
		c3.2,0.7,6.5,0.9,9.6,0.9c2,0,3.9,0,5.7-0.1l-5.6-2.4c-1.8-0.7-3.7-1.1-5.6-1.1c-3.2,0-8,0-11.1,0c-2.2,0-4.4-0.7-6.3-1.9
		c-1.1-0.8-2.5-1.7-3.6-2.5c-1-0.7-1.5-2-1.1-3.2s1.5-2,2.7-2h22.7c0.8-0.2,3.2-0.9,7.4-1.6c-3.3-3.7-5.5-7.9-6.2-12.1
		c-0.1-0.6,0.1-1.2,0.6-1.6c0.5-0.4,1.1-0.5,1.7-0.4c3.1,0.9,5.3,1.2,6.8,1.2c-11.2-8.7-9.1-21.5-9.1-21.5c0.1-0.7,0.7-1.3,1.4-1.5
		c0.7-0.1,1.5,0.2,1.9,0.8c2.4,4.2,6,6.4,8.6,7.5c-4.1-13.4,4.7-23.7,4.7-23.7c0.5-0.6,1.3-0.8,2-0.5s1.1,1,1.1,1.7
		c-0.2,7.8,3.7,13.8,4.8,16.2c0.4,0.9,0,1.9-0.9,2.4c-0.9,0.4-1.9,0-2.4-0.9c-0.2-0.4-0.5-0.9-0.9-1.6c-1.8,1.5-3.6,3.3-5,5.3
		c0.3,1,0.7,2,1.2,3.1c0.3,0.6,0.2,1.3-0.2,1.8s-1.1,0.8-1.7,0.7c0,0-0.8-0.1-2.1-0.6c-0.9,2.2-1.7,4.5-2.1,7.1
		c1,0.9,2.2,1.7,3.5,2.5c0.4,0.2,0.7,0.7,0.8,1.1s0,1-0.2,1.4c0,0-0.9,1.7-4.4,2c0.2,3.1,0.8,6.4,1.9,10c1.5,1.1,4.8,3.3,9.8,5.2
		c0.9,0.3,1.4,1.3,1.1,2.3s-1.3,1.4-2.3,1.1c-6-2.2-9.8-4.9-11.2-6.1c-6.5,1-9.8,2-9.8,2c-0.2,0-0.3,0.1-0.5,0.1h-3.7L80.1,147.5
		L80.1,147.5z M108.2,103.9c3.2-11.6,11.2-17.5,15.7-20c0.1,0,0.1-0.1,0.2-0.1c0.3-0.1,0.5-0.3,0.7-0.4c2-0.9,1.1,0.8,0.6,1.9l0,0
		c-2.4,4.4-4.1,9.1-5.1,14.2C116.6,99.9,112.3,101.3,108.2,103.9L108.2,103.9z"/>
	<circle class="st2" cx="150.4" cy="138.7" r="2.1"/>
</g>
<g>
	<path class="st1" d="M343.2,313.2c-7.6,0-13.8,15.8-13.8,35.3s6.2,35.3,13.8,35.3h-37.1c-2,0-4,0.3-5.9,0.9
		c-11.7,3.7-55.2,17.6-55.2,17.6c-0.6,0.2-1.3,0.5-1.8,0.9c-1.5,1.1-2.5,2.8-2.7,4.7c-1.9,18.4-3.8,36.8-5.7,55.2
		c-0.1,1,0,1.9,0.2,2.9l3.5,12.4h-14.8c0,0,7.4-66.6,9.2-82.5c0.2-2.1,1.5-4,3.3-5c4.7-2.6,13.8-7.7,18.7-10.4
		c2-1.1,3.3-3.2,3.3-5.5c0-7.5,0-23.7,0-23.7s-1.4,7.1-8.1,6.7c-7.5-0.5-6.9-8.2-6.9-8.2c0-12.1,8.7-22.9,20.2-25
		c0,0,51.1-9.6,60.2-11.3c0.9-0.2,1.8-0.3,2.8-0.3L343.2,313.2L343.2,313.2z"/>
	<path class="st2" d="M234.9,465.2c0,0.2,0.1,0.5,0.2,0.7l3.5,12.4h-14.8l1.5-13.2L234.9,465.2L234.9,465.2z"/>
	<path class="st2" d="M279.4,375.2l3.6-1.1c0.9-0.3,1.4-1.3,1.1-2.2c-0.3-0.9-1.3-1.4-2.2-1.1l-3.6,1.1c-0.9,0.3-1.4,1.3-1.1,2.2
		C277.4,375,278.4,375.5,279.4,375.2z"/>
	<path class="st2" d="M300.6,334l3.6-1.1c0.9-0.3,1.4-1.3,1.1-2.2c-0.3-0.9-1.3-1.4-2.2-1.1l-3.6,1.1c-0.9,0.3-1.4,1.3-1.1,2.2
		C298.7,333.8,299.6,334.3,300.6,334z"/>
	<path class="st2" d="M285.8,379.8l1.7-0.5c0.9-0.3,1.4-1.3,1.1-2.2c-0.3-0.9-1.3-1.4-2.2-1.1l-1.7,0.5c-0.9,0.3-1.4,1.3-1.1,2.2
		C283.8,379.6,284.8,380.1,285.8,379.8z"/>
	<path class="st2" d="M289.6,365.4l1.7-0.5c0.9-0.3,1.4-1.3,1.1-2.2c-0.3-0.9-1.3-1.4-2.2-1.1l-1.7,0.5c-0.9,0.3-1.4,1.3-1.1,2.2
		C287.7,365.2,288.7,365.7,289.6,365.4z"/>
	<path class="st2" d="M289.6,331.5l1.7-0.5c0.9-0.3,1.4-1.3,1.1-2.2c-0.3-0.9-1.3-1.4-2.2-1.1l-1.7,0.5c-0.9,0.3-1.4,1.3-1.1,2.2
		C287.7,331.3,288.7,331.8,289.6,331.5z"/>
	<path class="st2" d="M298.6,386.1l2-2.1c0.7-0.7,1.8-0.8,2.5-0.1c0.7,0.7,0.8,1.8,0.1,2.5c0,0-18.5,19.9-26.3,28.3
		c-1.7,1.9-2.4,4.5-1.8,7c2.6,10.8,8.7,36,10,41.3c0.1,0.5,0.3,1,0.6,1.4c1.8,3.1,7.7,12.9,7.7,12.9c0.3,0.5,0.3,1.2,0,1.8
		s-0.9,0.9-1.5,0.9h-14.3c-0.8,0-1.5-0.6-1.7-1.4c0,0-11.1-47.4-14.4-61.4c-0.7-2.9-0.2-6,1.4-8.5c3.6-5.8,10.7-17.1,10.7-17.1
		c0.5-0.8,1.6-1.1,2.4-0.6c0.4,0.2,0.6,0.6,0.8,1L298.6,386.1L298.6,386.1z"/>
	<path class="st2" d="M255,378.2c0.9-0.9,1.4-2,1.4-3.3v-17.3c-1.5,1.3-3.6,2.3-6.4,2.1c-8.7-0.6-8.6-9-8.5-10
		c0-12.9,9.4-24.4,21.6-26.7c0,0,51.1-9.6,60.2-11.3c1-0.2,2.1-0.3,3.1-0.3h16.8v3.5c-1.1,0-2.2,0.5-3.2,1.4c-1.2,1-2.3,2.6-3.4,4.5
		c-3.3,6.2-5.4,16.3-5.4,27.6s2.1,21.4,5.4,27.6c1,1.9,2.1,3.4,3.4,4.5c1,0.9,2.1,1.4,3.2,1.4c1,0,1.8,0.8,1.8,1.8s-0.8,1.8-1.8,1.8
		h-37.1c-1.8,0-3.6,0.3-5.3,0.8c-11.7,3.7-55.2,17.6-55.2,17.6c-0.5,0.2-0.9,0.4-1.3,0.7c-1.1,0.8-1.8,2-2,3.4
		c-1.9,18.4-3.8,36.8-5.7,55.2c-0.1,0.8,0,1.5,0.2,2.2l3.5,12.4c0.1,0.5,0,1.1-0.3,1.5s-0.9,0.7-1.4,0.7h-14.8c-0.5,0-1-0.2-1.3-0.6
		c-0.3-0.4-0.5-0.9-0.4-1.4c0,0,7.4-66.6,9.2-82.5c0.3-2.7,1.9-5,4.2-6.3l10.2-5.7L255,378.2z M247.4,386.7l-10.3,5.7
		c-1.3,0.8-2.3,2.1-2.4,3.6l-9,80.5h10.5l-2.9-10.2c-0.3-1.1-0.4-2.3-0.3-3.5c1.9-18.4,3.8-36.8,5.7-55.2c0.2-2.4,1.5-4.5,3.4-5.9
		c0.7-0.5,1.5-0.9,2.3-1.1l0,0c0,0,43.5-13.9,55.2-17.6c2.1-0.7,4.2-1,6.4-1h30.2c-1-1.1-2-2.5-2.9-4.2c-3.5-6.6-5.9-17.3-5.9-29.3
		s2.3-22.7,5.9-29.3c0.9-1.7,1.9-3.1,2.9-4.2h-9.9c-0.8,0-1.6,0.1-2.4,0.2c-9.1,1.7-60.2,11.3-60.2,11.3c-10.7,2-18.8,12-18.8,23.3
		v0.1c0,0-0.5,5.9,5.2,6.3c4.7,0.3,6-4.2,6.2-5.1v-8.7c0-1,0.8-1.8,1.8-1.8s1.8,0.8,1.8,1.8v32.5c0,0.2,0,0.3,0,0.5l4.1-2.4
		c0.8-0.5,1.9-0.2,2.4,0.7c0.5,0.8,0.2,1.9-0.7,2.4l-8.7,5c-0.4,0.3-0.8,0.6-1.3,0.9L247.4,386.7L247.4,386.7z"/>
</g>
<path class="st2" d="M1.8,483.1h659c1,0,1.8-0.8,1.8-1.8s-0.8-1.8-1.8-1.8H1.8c-1,0-1.8,0.8-1.8,1.8S0.9,483.1,1.8,483.1z"/>
<g>
	<path class="st2" d="M439.8,373.9c-0.2,0.3-0.6,0.5-1,0.5c-0.6-0.1-1.6-0.2-2.4-0.3c-0.5-0.1-0.9-0.6-0.9-1.1
		c0.1-1,0.3-2.4,0.4-3.6c0-0.3,0.2-0.6,0.5-0.8c0.3-0.2,0.7-0.1,1,0c1,0.6,2.4,1.3,3.2,1.8c0.2,0.1,0.4,0.4,0.5,0.6
		c0.1,0.3,0,0.5-0.1,0.8C440.6,372.5,440.1,373.4,439.8,373.9L439.8,373.9z"/>
	<path class="st2" d="M370.3,292.6c-0.4-0.2-0.6-0.6-0.5-1c0-0.3,0-0.7,0.1-1c0-0.5,0.5-1,1-0.9c0.4,0,1,0,1.4,0.1
		c0.3,0,0.6,0.2,0.8,0.5c0.2,0.3,0.2,0.6,0,1c-0.2,0.5-0.5,0.9-0.7,1.4c-0.1,0.2-0.3,0.4-0.6,0.5s-0.5,0.1-0.8-0.1
		C370.9,292.9,370.6,292.7,370.3,292.6z"/>
	<path class="st2" d="M424,466.9c-0.3-0.2-0.5-0.6-0.4-1c0.1-0.5,0.3-1.3,0.4-1.9c0.1-0.5,0.6-0.9,1.2-0.8c0.8,0.2,1.9,0.4,2.8,0.6
		c0.3,0.1,0.6,0.3,0.7,0.6c0.1,0.3,0.1,0.7-0.1,0.9c-0.5,0.8-1.2,1.8-1.7,2.5c-0.2,0.2-0.4,0.4-0.7,0.4s-0.5,0-0.8-0.2
		C425,467.7,424.4,467.2,424,466.9L424,466.9z"/>
	<path class="st2" d="M464.5,336.4c-0.3-0.3-0.3-0.7-0.2-1.1c0.2-0.3,0.4-0.8,0.5-1.2c0.2-0.5,0.8-0.7,1.3-0.5s1.2,0.5,1.8,0.7
		c0.3,0.1,0.5,0.4,0.6,0.7c0.1,0.3,0,0.7-0.3,0.9c-0.5,0.5-1,1-1.4,1.4c-0.2,0.2-0.5,0.3-0.7,0.3c-0.3,0-0.5-0.1-0.7-0.3
		C465.1,337,464.8,336.6,464.5,336.4z"/>
	<path class="st2" d="M444.7,362.5c0.3,0.4,0.9,0.6,1.3,0.3c0.6-0.3,1.3-0.8,2-1.1c0.3-0.1,0.4-0.4,0.5-0.7c0-0.3,0-0.6-0.2-0.8
		c-0.4-0.5-1-1.1-1.4-1.5c-0.3-0.4-0.9-0.4-1.3-0.1c-0.5,0.4-1.1,0.9-1.5,1.3c-0.4,0.3-0.5,0.9-0.2,1.3
		C444.1,361.6,444.4,362.1,444.7,362.5L444.7,362.5z"/>
	<path class="st2" d="M376.7,280.7c-0.4,0.3-0.5,0.9-0.2,1.3c0.4,0.5,0.9,1.3,1.2,1.9c0.2,0.2,0.4,0.4,0.7,0.4
		c0.3,0,0.6-0.1,0.8-0.3c0.5-0.5,1-1,1.4-1.4c0.4-0.4,0.4-1,0-1.4c-0.4-0.4-1-1-1.4-1.5c-0.3-0.4-0.9-0.4-1.3-0.1
		C377.6,280,377.1,280.4,376.7,280.7L376.7,280.7z"/>
	<path class="st2" d="M462.3,324.2c0.1,0.1,0.1,0.3,0.1,0.5s-0.2,0.3-0.3,0.3c-0.9,0.4-2.7,1-3.9,1.4c-0.2,0.1-0.4,0-0.5-0.1
		s-0.2-0.3-0.2-0.5c0.4-1.3,1-3.7,1.4-5.1c0.1-0.2,0.2-0.3,0.4-0.4c0.2,0,0.4,0.1,0.5,0.2C460.6,321.6,461.7,323.4,462.3,324.2
		L462.3,324.2z"/>
	<path class="st2" d="M370.3,255.2c0-0.2,0.2-0.3,0.3-0.3c0.1-0.1,0.3-0.1,0.5,0c0.9,0.5,2.6,1.4,3.6,1.9c0.2,0.1,0.3,0.3,0.3,0.5
		s-0.1,0.4-0.3,0.5c-1.3,0.6-3.5,1.7-4.8,2.3c-0.2,0.1-0.4,0.1-0.6-0.1c-0.2-0.1-0.2-0.3-0.2-0.5C369.5,258.2,370,256.2,370.3,255.2
		L370.3,255.2z"/>
	<path class="st2" d="M449.6,396.9c0.2,0,0.3,0,0.5,0.1c0.1,0.1,0.2,0.2,0.2,0.4c0,0.7,0.1,2,0.2,2.8c0,0.2-0.1,0.4-0.3,0.5
		s-0.4,0.1-0.6,0c-0.9-0.6-2.2-1.4-3.1-2c-0.2-0.1-0.3-0.3-0.2-0.5c0-0.2,0.2-0.4,0.4-0.4C447.6,397.5,448.8,397.1,449.6,396.9z"/>
</g>
<g>
	<path class="st2" d="M348.1,480.8c3-4,4.9-10.2,4.9-17.2s-1.9-13.2-4.9-17.2s-4.9-10.2-4.9-17.2s1.9-13.2,4.9-17.2
		s4.9-10.2,4.9-17.2s-1.9-13.2-4.9-17.2s-4.9-10.2-4.9-17.2s1.9-13.2,4.9-17.2S353,333,353,326s-1.9-13.2-4.9-17.2
		s-4.9-10.2-4.9-17.2s1.9-13.2,4.9-17.2s4.9-10.2,4.9-17.2s-1.9-13.2-4.9-17.2s-4.9-10.2-4.9-17.2s1.9-13.2,4.9-17.2
		s4.9-10.2,4.9-17.2c0-12.1-3.8-16.8-16.8-16.8s-16.8,3.8-16.8,16.8c0,7-1.9,13.2-4.9,17.2s-4.9,10.2-4.9,17.2s1.9,13.2,4.9,17.2
		s4.9,10.2,4.9,17.2s-1.9,13.2-4.9,17.2s-4.9,10.2-4.9,17.2s1.9,13.2,4.9,17.2s4.9,10.2,4.9,17.2s-1.9,13.2-4.9,17.2
		s-4.9,10.2-4.9,17.2s1.9,13.2,4.9,17.2s4.9,10.2,4.9,17.2s-1.9,13.2-4.9,17.2s-4.9,10.2-4.9,17.2s1.9,13.2,4.9,17.2
		s4.9,10.2,4.9,17.2s-1.9,13.2-4.9,17.2H348.1L348.1,480.8z"/>
	<path class="st0" d="M347.6,308c0.2,0.2,0.3,0.5,0.5,0.7c0.6,0.8,1.2,1.8,1.7,2.8H348c-3.2,0-6.2,2.7-8.6,7.2
		c-3.6,6.7-5.9,17.6-5.9,29.8c0,12.2,2.3,23.1,5.9,29.8c2.4,4.5,5.4,7.2,8.6,7.2h3.7c0.3,1.1,0.6,2.3,0.7,3.5h-4.5
		c-4.2,0-8.5-3.1-11.7-9.1c-3.8-7.1-6.3-18.6-6.3-31.5s2.5-24.4,6.3-31.5C339.4,311.2,343.6,308.2,347.6,308L347.6,308z"/>
	<path class="st0" d="M332.5,384.8c-3.9-6.5-6.7-16.3-7.7-27.5c-0.1-1-0.9-1.7-1.9-1.6s-1.7,0.9-1.6,1.9c1,11.9,4.1,22.1,8.2,29
		c0.5,0.8,1.6,1.1,2.4,0.6C332.7,386.7,333,385.6,332.5,384.8L332.5,384.8z"/>
	<path class="st0" d="M324.4,348.5c0-2.5,0.1-4.9,0.3-7.2c0.1-1-0.7-1.8-1.6-1.9c-1-0.1-1.8,0.7-1.9,1.6c-0.2,2.4-0.3,4.9-0.3,7.5
		c0,1,0.8,1.8,1.8,1.8C323.6,350.3,324.4,349.5,324.4,348.5L324.4,348.5z"/>
	<path class="st0" d="M330.1,317c0.7-1.7,1.5-3.3,2.4-4.7c1.7-2.9,3.7-5.2,5.9-6.7c0.8-0.6,1-1.7,0.4-2.5c-0.6-0.8-1.7-1-2.5-0.4
		c-2.5,1.8-4.8,4.4-6.9,7.8c-0.9,1.5-1.8,3.3-2.6,5.1c-0.4,0.9,0,1.9,0.9,2.3C328.7,318.3,329.7,317.9,330.1,317L330.1,317z"/>
	<path class="st0" d="M338.4,395.8c0,0,4,2.5,8.9,1.4c1-0.2,1.6-1.1,1.4-2.1s-1.1-1.6-2.1-1.4c-3.5,0.7-6.3-1-6.3-1
		c-0.8-0.5-1.9-0.2-2.4,0.6C337.3,394.2,337.6,395.3,338.4,395.8L338.4,395.8z"/>
	<path class="st0" d="M328.1,180.2v-1.3c0-1,0.8-1.8,1.8-1.8s1.8,0.8,1.8,1.8v1.3h1.3c1,0,1.8,0.8,1.8,1.8s-0.8,1.8-1.8,1.8h-1.3
		v1.3c0,1-0.8,1.8-1.8,1.8s-1.8-0.8-1.8-1.8v-1.3h-1.3c-1,0-1.8-0.8-1.8-1.8s0.8-1.8,1.8-1.8H328.1z"/>
	<path class="st0" d="M331.2,254.2v-1.3c0-1,0.8-1.8,1.8-1.8s1.8,0.8,1.8,1.8v1.3h1.3c1,0,1.8,0.8,1.8,1.8s-0.8,1.8-1.8,1.8h-1.3
		v1.3c0,1-0.8,1.8-1.8,1.8s-1.8-0.8-1.8-1.8v-1.3h-1.3c-1,0-1.8-0.8-1.8-1.8s0.8-1.8,1.8-1.8H331.2z"/>
	<path class="st0" d="M319.8,293.4v-1.3c0-1,0.8-1.8,1.8-1.8s1.8,0.8,1.8,1.8v1.3h1.3c1,0,1.8,0.8,1.8,1.8s-0.8,1.8-1.8,1.8h-1.3
		v1.3c0,1-0.8,1.8-1.8,1.8s-1.8-0.8-1.8-1.8V297h-1.3c-1,0-1.8-0.8-1.8-1.8s0.8-1.8,1.8-1.8L319.8,293.4L319.8,293.4z"/>
	<path class="st0" d="M320.6,420.2v-1.3c0-1,0.8-1.8,1.8-1.8s1.8,0.8,1.8,1.8v1.3h1.3c1,0,1.8,0.8,1.8,1.8s-0.8,1.8-1.8,1.8h-1.3
		v1.3c0,1-0.8,1.8-1.8,1.8s-1.8-0.8-1.8-1.8v-1.3h-1.3c-1,0-1.8-0.8-1.8-1.8s0.8-1.8,1.8-1.8H320.6z"/>
	<path class="st0" d="M340.5,470.8v-1.3c0-1,0.8-1.8,1.8-1.8s1.8,0.8,1.8,1.8v1.3h1.3c1,0,1.8,0.8,1.8,1.8s-0.8,1.8-1.8,1.8h-1.3
		v1.3c0,1-0.8,1.8-1.8,1.8s-1.8-0.8-1.8-1.8v-1.3h-1.3c-1,0-1.8-0.8-1.8-1.8s0.8-1.8,1.8-1.8H340.5z"/>
	<path class="st0" d="M333.2,192.6v-0.2c0-1,0.8-1.8,1.8-1.8s1.8,0.8,1.8,1.8v0.2h0.2c1,0,1.8,0.8,1.8,1.8s-0.8,1.8-1.8,1.8h-0.2
		v0.2c0,1-0.8,1.8-1.8,1.8s-1.8-0.8-1.8-1.8v-0.2H333c-1,0-1.8-0.8-1.8-1.8s0.8-1.8,1.8-1.8H333.2z"/>
	<path class="st0" d="M321.2,235v-0.2c0-1,0.8-1.8,1.8-1.8s1.8,0.8,1.8,1.8v0.2h0.2c1,0,1.8,0.8,1.8,1.8s-0.8,1.8-1.8,1.8h-0.2v0.2
		c0,1-0.8,1.8-1.8,1.8s-1.8-0.8-1.8-1.8v-0.2H321c-1,0-1.8-0.8-1.8-1.8s0.8-1.8,1.8-1.8H321.2z"/>
	<path class="st0" d="M336.9,272.3v-0.2c0-1,0.8-1.8,1.8-1.8s1.8,0.8,1.8,1.8v0.2h0.2c1,0,1.8,0.8,1.8,1.8s-0.8,1.8-1.8,1.8h-0.2
		v0.2c0,1-0.8,1.8-1.8,1.8s-1.8-0.8-1.8-1.8v-0.2h-0.1c-1,0-1.8-0.8-1.8-1.8s0.8-1.8,1.8-1.8H336.9z"/>
	<path class="st0" d="M335.7,406.7v-0.2c0-1,0.8-1.8,1.8-1.8s1.8,0.8,1.8,1.8v0.2h0.2c1,0,1.8,0.8,1.8,1.8s-0.8,1.8-1.8,1.8h-0.2
		v0.2c0,1-0.8,1.8-1.8,1.8s-1.8-0.8-1.8-1.8v-0.2h-0.2c-1,0-1.8-0.8-1.8-1.8s0.8-1.8,1.8-1.8H335.7z"/>
	<path class="st0" d="M329.7,454.2V454c0-1,0.8-1.8,1.8-1.8s1.8,0.8,1.8,1.8v0.2h0.2c1,0,1.8,0.8,1.8,1.8s-0.8,1.8-1.8,1.8h-0.2v0.2
		c0,1-0.8,1.8-1.8,1.8s-1.8-0.8-1.8-1.8v-0.2h-0.2c-1,0-1.8-0.8-1.8-1.8s0.8-1.8,1.8-1.8H329.7z"/>
	<path class="st0" d="M329.9,223v-0.2c0-1,0.8-1.8,1.8-1.8s1.8,0.8,1.8,1.8v0.2h0.2c1,0,1.8,0.8,1.8,1.8s-0.8,1.8-1.8,1.8h-0.2v0.2
		c0,1-0.8,1.8-1.8,1.8s-1.8-0.8-1.8-1.8v-0.2h-0.2c-1,0-1.8-0.8-1.8-1.8s0.8-1.8,1.8-1.8H329.9z"/>
</g>
<g>
	<path class="st2" d="M443.9,341.7v3.1c0,4.1-3.3,7.4-7.4,7.4c-2.4,0-4.3,1.8-4.6,4.1v0.8c-0.2,4.3-3.9,7.6-8.3,7.6h-3.8
		c-1.9,3.3-3.1,5.5-3.3,6c-0.7,1.6-1.9,2.9-3.4,3.6l-5.3,2.6l-15,7.3c-0.4,0.2-0.7,0.5-0.9,1l-2.4,6.5l0,0l-1,2.9l0,0l-4.3,11.9
		c-0.1,0.2-0.1,0.4-0.1,0.5l-4,11.4c-0.3,0.7-0.4,1.5-0.4,2.3c0,0,0.2,12.3,0.3,18.9c0,0.7-0.4,1.3-1,1.5c-0.6,0.3-1.3,0.1-1.8-0.3
		c-1.2-1.2-2.4-2.4-2.4-2.4c-0.7-0.7-1.8-0.7-2.5,0s-0.7,1.8,0,2.5c0,0,5.6,5.6,7.3,7.3c0.3,0.3,0.5,0.7,0.5,1.1c0,0.5,0,1.3,0,2.1
		c0,0.7-0.4,1.3-1,1.5c-0.6,0.3-1.3,0.1-1.8-0.4c-1.3-1.3-2.5-2.5-2.5-2.5c-0.7-0.7-1.8-0.7-2.5,0s-0.7,1.8,0,2.5
		c0,0,5.8,5.8,7.5,7.5c0.3,0.3,0.5,0.7,0.5,1.1c0,0.5,0,1.1,0,1.1c0,0.7,0.1,1.4,0.4,2.1l4.5,13.2c0.2,0.5,0.1,1.1-0.2,1.6
		s-0.9,0.7-1.4,0.7h-14.8c-1,0-10.5-6.7-10.5-7.7c0,0-0.2,1.4-0.2-5.7l0,0v-44.3c-1.1-0.6-1.8-1.8-1.8-3.1v-33.9h-7.9
		c-3.6,0-7-2.7-9.7-7.7c-3.5-6.6-5.9-17.3-5.9-29.3s2.3-22.7,5.9-29.3c2.7-5,6.1-7.7,9.7-7.7h30.4c3.2,0,6.3-1.1,8.7-3.2
		c5.4-4.7,14.6-12.6,18.9-16.3c1.4-1.2,2.5-2.6,3.3-4.3l5.8-11.9c0.1-0.2,0.1-0.3,0.2-0.5l3-6.3c-1-0.1-0.7-0.3,0.3-0.6
		c-8.2-0.2-14.2-0.4-14.2-0.4c-1.6,0-3-0.6-4.1-1.8l-19.1-21.9c-0.8-0.8-1.2-2-1.2-3.1l1.5-30c0-1.7,1.4-3.1,3.1-3.1
		s3.1,1.4,3.1,3.1l1.4,28c0,0,14,13.8,17.1,16.8c0.4,0.4,0.9,0.6,1.4,0.6l0,0c1.4,0,2.6-0.9,3.2-2.1c0.6-1.3,0.4-2.7-0.5-3.8
		c-2.5-3-5.1-6.1-5.1-6.1c-0.7-0.7-1.1-1.7-1.1-2.7l1.2-16.3c0-1.5,1.2-2.6,2.6-2.6c1.5,0,2.6,1.2,2.6,2.6l1.1,14.5l8.8,8.3
		c2.9-0.1,9-0.4,15.1-0.4c6.1,0,12.2,0.3,15.1,0.5l8.8-8.3l1.1-14.5c0-1.5,1.2-2.6,2.6-2.6s2.6,1.2,2.6,2.6l1.2,16.3
		c0,1-0.4,1.9-1,2.6c0,0-2.5,3-5,6c-0.9,1.1-1.1,2.6-0.5,3.9s1.9,2.2,3.3,2.2l0,0c0.5,0,1.1-0.2,1.4-0.6
		c3.1-3.1,16.9-16.8,16.9-16.8l1.3-28.1c0-1.7,1.4-3.1,3.1-3.1c1.7,0,3.1,1.4,3.1,3.1l1.4,30c0,1.1-0.4,2.2-1.2,3l-18.9,21.8
		c-1,1.1-2.5,1.8-4.1,1.8c0,0-5.1,0.2-12.4,0.4l25.3,16.7c1.1,0.7,1.8,1.8,2,3.1v0.3v0.1l0,0c0,0.1,0,0.3,0,0.4l-3,12.4
		c-0.5,1.8-2.1,3.2-4,3.4c-5.5,0.5-14.3,1.2-18.5,1.6c-0.2,0-0.4,0-0.6,0.1c-0.8,0.1-1.5,0.5-2,1c-0.2,0.2-0.9,1.2-1.9,2.9v20.3
		C451.7,335.8,448.5,340.1,443.9,341.7L443.9,341.7z M405.9,447.3c1.5-6.8,6.5-29.3,8.4-38.1c0.3-1.5-0.3-3-1.6-3.7l-20.1-11.8
		l2.3-6.4l15-7.3l16.7,13.6c2.1,1.7,3,4.4,2.4,7.1c0,0-4.7,19.7-6.8,28.3c-0.2,0.6-0.7,1.1-1.3,1.2c-0.7,0.1-1.3-0.2-1.7-0.8
		c-1-1.6-1.9-3.2-1.9-3.2c-0.5-0.8-1.6-1.1-2.4-0.6s-1.1,1.6-0.6,2.4c0,0,4.2,7.1,5.5,9.2c0.2,0.4,0.3,0.8,0.2,1.2
		c-0.1,0.5-0.3,1.2-0.5,1.9c-0.2,0.6-0.7,1.1-1.3,1.2c-0.7,0.1-1.3-0.2-1.6-0.8c-1-1.7-2-3.4-2-3.4c-0.5-0.8-1.6-1.1-2.4-0.6
		s-1.1,1.6-0.6,2.4c0,0,4.3,7.3,5.6,9.4c0.2,0.4,0.3,0.8,0.2,1.2s-0.2,0.9-0.3,1.1c0,0.1,0,0.2,0,0.2c0,0.2,0,0.3,0,0.5v14
		c0,0.6-0.3,1.1-0.7,1.4c-0.5,0.3-1.1,0.4-1.6,0.2l-12.4-4.2c-0.9-0.3-8.2-8.4-7.9-9.3c0,0,0,0,2.3-6.7c0,0,0,0,0.1-0.1l2.2-31.3
		c-0.2-0.1-0.4-0.3-0.6-0.5l-9.8-10.3l2.7-7.4l12.3,12.9c1.3,1.4,1.3,3.7-0.1,5c-0.3,0.3-0.6,0.5-0.9,0.6l-2.2,31.7
		c1.9,0.4,3.9,0.9,4.7,0.9c0.2-0.1,0.3-0.1,0.4-0.3c0.1-0.4,0.3-0.8,0.4-1.1L405.9,447.3L405.9,447.3z M363.5,378v41.4
		c0,1.3-0.7,2.5-1.8,3.1v43.7c2.4-0.3,5.3-0.5,5.3-0.8V378c0-1-0.8-1.8-1.8-1.8C364.3,376.2,363.5,377,363.5,378L363.5,378z
		 M440.4,342.4c-0.1,0-0.3,0-0.4,0h-7.3c-4,6.9-7.9,13.7-10.9,18.9h1.8c2.4,0,4.5-1.7,4.7-4v-1c0.3-4.2,3.8-7.6,8.1-7.6
		c2.1,0,3.9-1.7,3.9-3.9L440.4,342.4L440.4,342.4z M440.4,338.9v-9.6c-1.8,3.1-3.7,6.3-5.6,9.6h5.2
		C440.1,338.9,440.3,338.9,440.4,338.9L440.4,338.9z M448.2,316.2c-1.3,2.1-2.7,4.5-4.2,7.1v14.6c2.5-1.4,4.2-4.1,4.2-7.1V316.2z"/>
	<g>
		<path class="st0" d="M389.1,234.6h-8.4l0.2-3.5h8.1L389.1,234.6L389.1,234.6z M388.7,226.5h-7.6l0.2-3.5h7.3L388.7,226.5
			L388.7,226.5z"/>
		<path class="st0" d="M490.9,234.6h-8.3l0.2-3.5h8L490.9,234.6z M490.5,226.5h-7.6l0.2-3.5h7.2L490.5,226.5L490.5,226.5z"/>
		<path class="st0" d="M471.8,295.6c0,0,0.3,0.3,1,0.7c0.2,0.1,0.4,0.2,0.7,0.2s0.5-0.1,0.7-0.2c0.7-0.3,1-0.7,1-0.7
			c0.5,0,0.9-0.4,0.9-0.9s-0.4-0.9-0.9-0.9c0,0-0.3-0.3-1-0.7c-0.2-0.1-0.4-0.2-0.7-0.2s-0.5,0.1-0.7,0.2c-0.8,0.4-1,0.7-1,0.7
			c-0.5,0-0.9,0.4-0.9,0.9S471.3,295.6,471.8,295.6z"/>
		<path class="st0" d="M464.3,295.6c0,0,0.3,0.3,1,0.7c0.2,0.1,0.4,0.2,0.7,0.2s0.5-0.1,0.7-0.2c0.7-0.3,1-0.7,1-0.7
			c0.5,0,0.9-0.4,0.9-0.9s-0.4-0.9-0.9-0.9c0,0-0.3-0.3-1-0.7c-0.2-0.1-0.4-0.2-0.7-0.2s-0.5,0.1-0.7,0.2c-0.8,0.4-1,0.7-1,0.7
			c-0.5,0-0.9,0.4-0.9,0.9S463.8,295.6,464.3,295.6z"/>
		<path class="st0" d="M456.8,295.6c0,0,0.3,0.3,1,0.7c0.2,0.1,0.4,0.2,0.7,0.2s0.5-0.1,0.7-0.2c0.7-0.3,1-0.7,1-0.7
			c0.5,0,0.9-0.4,0.9-0.9s-0.4-0.9-0.9-0.9c0,0-0.3-0.3-1-0.7c-0.2-0.1-0.4-0.2-0.7-0.2s-0.5,0.1-0.7,0.2c-0.8,0.4-1,0.7-1,0.7
			c-0.5,0-0.9,0.4-0.9,0.9S456.3,295.6,456.8,295.6z"/>
		<path class="st0" d="M468.1,290.9c0,0,0.3,0.3,1,0.7c0.2,0.1,0.4,0.2,0.7,0.2s0.5-0.1,0.7-0.2c0.7-0.3,1-0.7,1-0.7
			c0.5,0,0.9-0.4,0.9-0.9s-0.4-0.9-0.9-0.9c0,0-0.3-0.3-1-0.7c-0.2-0.1-0.4-0.2-0.7-0.2s-0.5,0.1-0.7,0.2c-0.8,0.4-1,0.7-1,0.7
			c-0.5,0-0.9,0.4-0.9,0.9C467.2,290.5,467.6,290.9,468.1,290.9z"/>
		<path class="st0" d="M460.6,290.9c0,0,0.3,0.3,1,0.7c0.2,0.1,0.4,0.2,0.7,0.2s0.5-0.1,0.7-0.2c0.7-0.3,1-0.7,1-0.7
			c0.5,0,0.9-0.4,0.9-0.9s-0.4-0.9-0.9-0.9c0,0-0.3-0.3-1-0.7c-0.2-0.1-0.4-0.2-0.7-0.2s-0.5,0.1-0.7,0.2c-0.8,0.4-1,0.7-1,0.7
			c-0.5,0-0.9,0.4-0.9,0.9C459.7,290.5,460.1,290.9,460.6,290.9z"/>
		<path class="st0" d="M468.1,300.2c0,0,0.3,0.3,1,0.7c0.2,0.1,0.4,0.2,0.7,0.2s0.5-0.1,0.7-0.2c0.7-0.3,1-0.7,1-0.7
			c0.5,0,0.9-0.4,0.9-0.9s-0.4-0.9-0.9-0.9c0,0-0.3-0.3-1-0.7c-0.2-0.1-0.4-0.2-0.7-0.2s-0.5,0.1-0.7,0.2c-0.8,0.4-1,0.7-1,0.7
			c-0.5,0-0.9,0.4-0.9,0.9C467.2,299.8,467.6,300.2,468.1,300.2z"/>
		<path class="st0" d="M460.6,300.2c0,0,0.3,0.3,1,0.7c0.2,0.1,0.4,0.2,0.7,0.2s0.5-0.1,0.7-0.2c0.7-0.3,1-0.7,1-0.7
			c0.5,0,0.9-0.4,0.9-0.9s-0.4-0.9-0.9-0.9c0,0-0.3-0.3-1-0.7c-0.2-0.1-0.4-0.2-0.7-0.2s-0.5,0.1-0.7,0.2c-0.8,0.4-1,0.7-1,0.7
			c-0.5,0-0.9,0.4-0.9,0.9C459.7,299.8,460.1,300.2,460.6,300.2z"/>
		<circle class="st0" cx="456.9" cy="261.7" r="2.5"/>
		<circle class="st0" cx="450.5" cy="255.3" r="2.5"/>
		<circle class="st0" cx="361.2" cy="331.5" r="3.4"/>
		<circle class="st0" cx="348.6" cy="331.5" r="3.4"/>
		<path class="st0" d="M388.2,307.6l23.9,23.9c0.7,0.7,0.7,1.8,0,2.5l-7.4,7.4c-0.7,0.7-1.8,0.7-2.5,0l-6.2-6.2l-5.8,5.8
			c-0.3,0.3-0.8,0.5-1.3,0.5H356l23.3,23.3h26.5c0-0.1,0-0.1,0-0.2c0-7.9,6.4-14.4,14.4-14.4c2.5,0,4.9,0.7,7,1.8
			c-0.6,1-1.2,2.1-1.8,3.1c-1.5-0.8-3.3-1.3-5.2-1.3c-6,0-10.8,4.9-10.8,10.8c0,3.8,2,7.1,4.9,9.1c-0.4,0.3-0.7,0.5-1.1,0.7
			l-2.3,1.1c-2.2-1.9-3.8-4.4-4.5-7.2h-27.7c-0.5,0-0.9-0.2-1.3-0.5l-26.3-26.3h-17.6c-0.1,0-0.1,0-0.2,0c0.1-1.2,0.2-2.4,0.3-3.5
			h54.6l12.7-12.7l-15.6-15.6c0.7-0.4,1.4-0.9,2-1.4L388.2,307.6L388.2,307.6z M403.5,327.8l-4.9,4.9l4.9,4.9l4.9-4.9L403.5,327.8z
			 M424.1,311.2l3-3c0.7-0.7,0.7-1.8,0-2.5s-1.8-0.7-2.5,0l-3,3c-0.7,0.7-0.7,1.8,0,2.5C422.3,311.9,423.4,311.9,424.1,311.2z
			 M408.8,311.2l3-3c0.7-0.7,0.7-1.8,0-2.5s-1.8-0.7-2.5,0l-3,3c-0.7,0.7-0.7,1.8,0,2.5C407,311.9,408.2,311.9,408.8,311.2z
			 M416.5,311.2l3-3c0.7-0.7,0.7-1.8,0-2.5s-1.8-0.7-2.5,0l-3,3c-0.7,0.7-0.7,1.8,0,2.5C414.7,311.9,415.8,311.9,416.5,311.2z
			 M461.6,268.2c-1.9,0.1-4.3,0.1-7,0.2l5.1,3.3h-21.1c-1.1,0-1.9,0.9-1.9,1.9v2.7c0,1.1,0.9,1.9,1.9,1.9h31l5.4,3.5h-36.4
			c-0.9,0-1.7-0.2-2.4-0.6l0,0l-16.6,16.6c-0.3,0.3-0.8,0.5-1.3,0.5H399l4.1-3.5h14.5l16.1-16.1l0,0c-0.4-0.7-0.6-1.5-0.6-2.4v-2.7
			c0-3,2.5-5.5,5.5-5.5L461.6,268.2L461.6,268.2z M416.9,268.4h5.5c1,0,1.8,0.8,1.8,1.8s-0.8,1.8-1.8,1.8h-5.2l1.4-2.9
			c-1-0.1-0.7-0.3,0.3-0.6C418.2,268.5,417.6,268.4,416.9,268.4L416.9,268.4z M431.3,248.2l-4.9,4.9h8.8l4.9-4.9
			c1.7,0,3.4,0.1,4.9,0.1l-7.8,7.8c-0.3,0.3-0.8,0.5-1.3,0.5h-13.1l-11.7,11.7c-2.1-0.1-3.8-0.1-4.9-0.1l14.3-14.3
			c0.1-0.2,0.3-0.3,0.4-0.4l5.2-5.2C427.7,248.2,429.5,248.2,431.3,248.2L431.3,248.2z"/>
		<g>
			<path class="st5" d="M388.2,307.6l23.9,23.9c0.7,0.7,0.7,1.8,0,2.5l-7.4,7.4c-0.7,0.7-1.8,0.7-2.5,0l-6.2-6.2l-5.8,5.8
				c-0.3,0.3-0.8,0.5-1.3,0.5H356l23.3,23.3h26.5c0-0.1,0-0.1,0-0.2c0-7.9,6.4-14.4,14.4-14.4c2.5,0,4.9,0.7,7,1.8
				c-0.6,1-1.2,2.1-1.8,3.1c-1.5-0.8-3.3-1.3-5.2-1.3c-6,0-10.8,4.9-10.8,10.8c0,3.8,2,7.1,4.9,9.1c-0.4,0.3-0.7,0.5-1.1,0.7
				l-2.3,1.1c-2.2-1.9-3.8-4.4-4.5-7.2h-27.7c-0.5,0-0.9-0.2-1.3-0.5l-26.3-26.3h-17.6c-0.1,0-0.1,0-0.2,0c0.1-1.2,0.2-2.4,0.3-3.5
				h54.6l12.7-12.7l-15.6-15.6c0.7-0.4,1.4-0.9,2-1.4L388.2,307.6L388.2,307.6z M403.5,327.8l-4.9,4.9l4.9,4.9l4.9-4.9L403.5,327.8z
				 M424.1,311.2l3-3c0.7-0.7,0.7-1.8,0-2.5s-1.8-0.7-2.5,0l-3,3c-0.7,0.7-0.7,1.8,0,2.5C422.3,311.9,423.4,311.9,424.1,311.2z
				 M408.8,311.2l3-3c0.7-0.7,0.7-1.8,0-2.5s-1.8-0.7-2.5,0l-3,3c-0.7,0.7-0.7,1.8,0,2.5C407,311.9,408.2,311.9,408.8,311.2z
				 M416.5,311.2l3-3c0.7-0.7,0.7-1.8,0-2.5s-1.8-0.7-2.5,0l-3,3c-0.7,0.7-0.7,1.8,0,2.5C414.7,311.9,415.8,311.9,416.5,311.2z
				 M461.6,268.2c-1.9,0.1-4.3,0.1-7,0.2l5.1,3.3h-21.1c-1.1,0-1.9,0.9-1.9,1.9v2.7c0,1.1,0.9,1.9,1.9,1.9h31l5.4,3.5h-36.4
				c-0.9,0-1.7-0.2-2.4-0.6l0,0l-16.6,16.6c-0.3,0.3-0.8,0.5-1.3,0.5H399l4.1-3.5h14.5l16.1-16.1l0,0c-0.4-0.7-0.6-1.5-0.6-2.4v-2.7
				c0-3,2.5-5.5,5.5-5.5L461.6,268.2L461.6,268.2z M416.9,268.4h5.5c1,0,1.8,0.8,1.8,1.8s-0.8,1.8-1.8,1.8h-5.2l1.4-2.9
				c-1-0.1-0.7-0.3,0.3-0.6C418.2,268.5,417.6,268.4,416.9,268.4L416.9,268.4z M431.3,248.2l-4.9,4.9h8.8l4.9-4.9
				c1.7,0,3.4,0.1,4.9,0.1l-7.8,7.8c-0.3,0.3-0.8,0.5-1.3,0.5h-13.1l-11.7,11.7c-2.1-0.1-3.8-0.1-4.9-0.1l14.3-14.3
				c0.1-0.2,0.3-0.3,0.4-0.4l5.2-5.2C427.7,248.2,429.5,248.2,431.3,248.2L431.3,248.2z"/>
			<g>
				<path class="st0" d="M367,390.5V378c0-1-0.8-1.8-1.8-1.8s-1.8,0.8-1.8,1.8v12.5c0,1,0.8,1.8,1.8,1.8S367,391.5,367,390.5z"/>
				<path class="st0" d="M471.8,295.6c0,0,0.3,0.3,1,0.7c0.2,0.1,0.4,0.2,0.7,0.2s0.5-0.1,0.7-0.2c0.7-0.3,1-0.7,1-0.7
					c0.5,0,0.9-0.4,0.9-0.9s-0.4-0.9-0.9-0.9c0,0-0.3-0.3-1-0.7c-0.2-0.1-0.4-0.2-0.7-0.2s-0.5,0.1-0.7,0.2c-0.8,0.4-1,0.7-1,0.7
					c-0.5,0-0.9,0.4-0.9,0.9S471.3,295.6,471.8,295.6z"/>
				<path class="st0" d="M464.3,295.6c0,0,0.3,0.3,1,0.7c0.2,0.1,0.4,0.2,0.7,0.2s0.5-0.1,0.7-0.2c0.7-0.3,1-0.7,1-0.7
					c0.5,0,0.9-0.4,0.9-0.9s-0.4-0.9-0.9-0.9c0,0-0.3-0.3-1-0.7c-0.2-0.1-0.4-0.2-0.7-0.2s-0.5,0.1-0.7,0.2c-0.8,0.4-1,0.7-1,0.7
					c-0.5,0-0.9,0.4-0.9,0.9S463.8,295.6,464.3,295.6z"/>
				<path class="st0" d="M456.8,295.6c0,0,0.3,0.3,1,0.7c0.2,0.1,0.4,0.2,0.7,0.2s0.5-0.1,0.7-0.2c0.7-0.3,1-0.7,1-0.7
					c0.5,0,0.9-0.4,0.9-0.9s-0.4-0.9-0.9-0.9c0,0-0.3-0.3-1-0.7c-0.2-0.1-0.4-0.2-0.7-0.2s-0.5,0.1-0.7,0.2c-0.8,0.4-1,0.7-1,0.7
					c-0.5,0-0.9,0.4-0.9,0.9S456.3,295.6,456.8,295.6z"/>
				<path class="st0" d="M468.1,290.9c0,0,0.3,0.3,1,0.7c0.2,0.1,0.4,0.2,0.7,0.2s0.5-0.1,0.7-0.2c0.7-0.3,1-0.7,1-0.7
					c0.5,0,0.9-0.4,0.9-0.9s-0.4-0.9-0.9-0.9c0,0-0.3-0.3-1-0.7c-0.2-0.1-0.4-0.2-0.7-0.2s-0.5,0.1-0.7,0.2c-0.8,0.4-1,0.7-1,0.7
					c-0.5,0-0.9,0.4-0.9,0.9C467.2,290.5,467.6,290.9,468.1,290.9z"/>
				<path class="st0" d="M460.6,290.9c0,0,0.3,0.3,1,0.7c0.2,0.1,0.4,0.2,0.7,0.2s0.5-0.1,0.7-0.2c0.7-0.3,1-0.7,1-0.7
					c0.5,0,0.9-0.4,0.9-0.9s-0.4-0.9-0.9-0.9c0,0-0.3-0.3-1-0.7c-0.2-0.1-0.4-0.2-0.7-0.2s-0.5,0.1-0.7,0.2c-0.8,0.4-1,0.7-1,0.7
					c-0.5,0-0.9,0.4-0.9,0.9C459.7,290.5,460.1,290.9,460.6,290.9z"/>
				<path class="st0" d="M468.1,300.2c0,0,0.3,0.3,1,0.7c0.2,0.1,0.4,0.2,0.7,0.2s0.5-0.1,0.7-0.2c0.7-0.3,1-0.7,1-0.7
					c0.5,0,0.9-0.4,0.9-0.9s-0.4-0.9-0.9-0.9c0,0-0.3-0.3-1-0.7c-0.2-0.1-0.4-0.2-0.7-0.2s-0.5,0.1-0.7,0.2c-0.8,0.4-1,0.7-1,0.7
					c-0.5,0-0.9,0.4-0.9,0.9C467.2,299.8,467.6,300.2,468.1,300.2z"/>
				<path class="st0" d="M460.6,300.2c0,0,0.3,0.3,1,0.7c0.2,0.1,0.4,0.2,0.7,0.2s0.5-0.1,0.7-0.2c0.7-0.3,1-0.7,1-0.7
					c0.5,0,0.9-0.4,0.9-0.9s-0.4-0.9-0.9-0.9c0,0-0.3-0.3-1-0.7c-0.2-0.1-0.4-0.2-0.7-0.2s-0.5,0.1-0.7,0.2c-0.8,0.4-1,0.7-1,0.7
					c-0.5,0-0.9,0.4-0.9,0.9C459.7,299.8,460.1,300.2,460.6,300.2z"/>
				<circle class="st0" cx="456.9" cy="261.7" r="2.5"/>
				<circle class="st0" cx="450.5" cy="255.3" r="2.5"/>
			</g>
		</g>
		<circle class="st0" cx="367" cy="471.6" r="2.7"/>
		<circle class="st0" cx="403.5" cy="455.1" r="2.7"/>
	</g>
</g>
</svg>
