<?xml version="1.0" encoding="utf-8"?>
<!-- Generator: Adobe Illustrator 25.0.1, SVG Export Plug-In . SVG Version: 6.00 Build 0)  -->
<svg version="1.1" id="Layer_1" xmlns="http://www.w3.org/2000/svg" xmlns:xlink="http://www.w3.org/1999/xlink" x="0px" y="0px"
	 viewBox="0 0 500 500" style="enable-background:new 0 0 500 500;" xml:space="preserve">
<style type="text/css">
	.st0{fill:#EEEEEE;}
	.st1{fill:#009092;}
	.st2{fill:#003E3F;}
	.st3{fill:#00B9BC;}
</style>
<g id="Слой_1">
</g>
<g>
	<rect class="st0" width="500" height="500"/>
</g>
<g id="Слой_2">
	<g>
		<g>
			<path class="st1" d="M175.1,412.1l19.3,0.6c16.9,0.4,31-13,31.5-29.9l3.1-117.1l-58.8-1.5l-3.7,139.2
				C166.5,408,170.4,411.9,175.1,412.1z"/>
		</g>
		<path class="st2" d="M380.9,99.1c-3.9,0.6-7.6,2.1-11,4.5l0,0l-126.7,78l-6,0.9l-117.9,18.1c-8.7,1.3-15.3,10.1-18.3,22.5
			c-1.7-0.2-3.5-0.2-5.4,0.1C83,225.1,74.8,239,77.2,254.1c2.3,15.1,14.3,25.9,26.9,24c1.8-0.3,3.6-0.8,5.2-1.5
			c6.6,10.9,15.5,17.3,24.2,16l117.6-18.1l6-0.9L400.5,310l0,0c4.2,1.5,8.7,1.9,12.9,1.3c28.4-4.4,44-55.2,35-113.8
			C439.3,138.7,409.1,94.8,380.9,99.1z"/>
		<g>
			<path class="st1" d="M441.4,198.3c8.3,54.2-5.7,101.4-31.4,105.3c-18.5,2.8-41.4-36-49.7-90.5c-8.4-54.5,1.5-103.3,19.6-106.1
				C405.5,103.3,433.1,144.1,441.4,198.3z"/>
		</g>
		<g>
			<path class="st1" d="M260.7,275.5c-1.6,0.2-3.2-0.7-3.8-2c-5.9-14.3-9.8-28.5-12.4-45.9c-2.6-16.7-3.2-34.6-1.3-46.6
				c0.2-1.9,2.1-3.1,4-3s3.1,2.1,3,4c-1.5,11.5-1,28.5,1.5,44.7c2.6,16.9,6.3,30.4,12,44.3c0.7,1.8-0.1,3.8-1.9,4.5
				C261.4,275.4,261.1,275.4,260.7,275.5z"/>
		</g>
		<g>
			
				<ellipse transform="matrix(0.9884 -0.1518 0.1518 0.9884 -27.21 59.7623)" class="st3" cx="377.8" cy="208.1" rx="10.4" ry="28.5"/>
		</g>
		<g>
			<g>
				<path class="st1" d="M207.3,264.7c-14.4,2.2-28.1-7.9-30.4-22.3c-2.2-14.4,7.9-28.1,22.3-30.4c14.4-2.2,28.1,7.9,30.4,22.3
					C231.8,248.8,221.7,262.5,207.3,264.7z M200.4,220.1c-10.1,1.5-17,11.1-15.5,21.1s11.1,17,21.1,15.5c10.1-1.5,17-11.1,15.5-21.1
					C220,225.5,210.5,218.5,200.4,220.1z"/>
			</g>
		</g>
		<g>
			<circle class="st1" cx="203.2" cy="238.4" r="6.9"/>
		</g>
		<g>
			<circle class="st1" cx="133.9" cy="249" r="6.9"/>
		</g>
		<g>
			<g>
				<path class="st1" d="M247.1,235.9l-21.1,3.2c-2.1,0.3-3.7-1.3-4-3.4c-0.4-2.3,1-4.1,2.8-4.4l21.1-3.2c2.1-0.3,3.7,1.3,4,3.4
					C250.3,233.5,249.2,235.6,247.1,235.9z"/>
			</g>
		</g>
		<g>
			<g>
				<path class="st1" d="M166.1,272.7l-55.4,8.5c-2.3,0.4-4.2-1.2-4.5-3.3c-0.3-2.1,1.2-4.2,3.3-4.5l53.8-8.3l18-15.4
					c1.4-1.8,3.9-2.2,5.5-0.8c1.8,1.4,2.2,3.9,0.8,5.5l-19,16.7C168.1,271.9,167.2,272.5,166.1,272.7z"/>
			</g>
		</g>
		<g>
			<path class="st1" d="M342.6,142.3c-1.8,0.3-3.6-0.6-4.5-2.1c-1.3-2.1-0.8-5,1.6-6.3l3.2-2.1c2.1-1.3,5-0.8,6.3,1.6
				c1.3,2.1,0.8,5-1.6,6.3l-3.2,2.1C343.7,142.1,343.3,142.2,342.6,142.3z"/>
		</g>
		<g>
			<path class="st1" d="M269.5,187.9c-1.8,0.3-3.6-0.6-4.5-2.1c-1.3-2.1-0.8-5,1.6-6.3l53.9-33.6c2.1-1.3,5-0.8,6.3,1.6
				c1.3,2.1,0.8,5-1.6,6.3l-53.9,33.3C270.6,187.5,270.2,187.8,269.5,187.9z"/>
		</g>
		<g>
			<path class="st1" d="M110.2,281c-1.4,0.2-2.6-0.3-3.5-1.6c-5-7.9-8.3-17.7-10-28.2c-1.6-10.5-1.3-20.6,1.1-29.7
				c0.4-1.9,2.4-2.9,4.3-2.5s2.9,2.4,2.5,4.3c-2,8-2.5,17.5-1,26.9c1.5,9.6,4.7,18.5,9.1,25.5c1,1.7,0.6,3.7-1.1,4.9
				C111.1,280.7,110.7,281,110.2,281z"/>
		</g>
		<g>
			<path class="st2" d="M224.1,263.3l2.1,13.5c0.2,1.1-0.1,2.6-0.8,3.6l-41.6,56.8c-0.8,1.1-1.8,1.7-3.2,1.9L168,341l0.4-9.9
				l8.7-1.3l16.3-22.2L175,294.3l-6,0.9l0.4-9.9l6.2-0.9c1.1-0.2,2.6,0.1,3.6,0.8l19.6,14.8l17.4-23.8l-2-13.3L224.1,263.3z"/>
		</g>
		<g>
			<path class="st2" d="M213.6,316.9l21.5-3.3c2.5-0.4,4.5-2.8,4.1-5.5c-0.4-2.5-2.8-4.5-5.5-4.1l-21.5,3.3
				c-2.5,0.4-4.5,2.8-4.1,5.5C208.5,315.6,210.9,317.3,213.6,316.9z"/>
		</g>
		<g>
			<path class="st2" d="M216.6,336.1l21.5-3.3c2.5-0.4,4.5-2.8,4.1-5.5c-0.4-2.5-2.8-4.5-5.5-4.1l-21.5,3.3
				c-2.5,0.4-4.5,2.8-4.1,5.5C211.4,334.6,213.8,336.6,216.6,336.1z"/>
		</g>
	</g>
</g>
</svg>
