<?xml version="1.0" encoding="utf-8"?>
<!-- Generator: Adobe Illustrator 25.0.1, SVG Export Plug-In . SVG Version: 6.00 Build 0)  -->
<svg version="1.1" id="Layer_1" xmlns="http://www.w3.org/2000/svg" xmlns:xlink="http://www.w3.org/1999/xlink" x="0px" y="0px"
	 viewBox="0 0 500 500" style="enable-background:new 0 0 500 500;" xml:space="preserve">
<style type="text/css">
	.st0{fill:#FFFFFF;}
	.st1{fill:#003E3F;}
	.st2{fill:#009092;}
	.st3{fill:#00B9BC;}
</style>
<g>
	<rect class="st0" width="500" height="500"/>
</g>
<g>
	<path class="st0" d="M490.4,420.1c0-8.4-6.8-15-15-15c-71.9,0-380.2,0-452.2,0c-8.4,0-15,6.8-15,15c0,16.5,0,40.7,0,40.7h482.3
		V420.1L490.4,420.1z"/>
	<path class="st1" d="M492.7,450v-29.9c0-9.6-7.8-17.4-17.4-17.4c-71.9,0-380.2,0-452.2,0c-9.6,0-17.4,7.8-17.4,17.4
		c0,13.1,0,29.9,0,29.9c0,1.4,1,2.4,2.4,2.4s2.4-1,2.4-2.4c0,0,0-16.9,0-29.9c0-7,5.6-12.6,12.6-12.6c71.9,0,380.2,0,452.2,0
		c7,0,12.6,5.6,12.6,12.6V450c0,1.4,1,2.4,2.4,2.4C491.7,452.4,492.7,451.4,492.7,450z"/>
	<path class="st1" d="M105.8,282.2c0,2.5,2,4.5,4.5,4.5c4.1,0,10,0,14.1,0c2.5,0,4.5-2,4.5-4.5v-4.1c0-1.9-1.6-3.4-3.4-3.4l0,0
		c-1.9,0-3.4-1.6-3.4-3.4c0-3.5,0-9.1,0-13c0-2.5-2-4.5-4.5-4.5c-2.3,0-5,0-7.2,0c-2.5,0-4.5,2-4.5,4.5
		C105.8,264.6,105.8,276,105.8,282.2L105.8,282.2z"/>
	<path class="st1" d="M217.9,363.4c0-2.5-2-4.5-4.5-4.5c-2.7,0-6.1,0-8.8,0c-2.5,0-4.5,2-4.5,4.5v5.2c0,0.7,0.2,1.2,0.7,1.7
		c0.5,0.5,1.1,0.7,1.7,0.7l0,0c0.7,0,1.2,0.2,1.7,0.7c0.5,0.5,0.7,1.1,0.7,1.7c0,1.4,0,2.9,0,4.5c0,2.5,2,4.5,4.5,4.5
		c1.2,0,2.6,0,3.8,0c2.5,0,4.5-2,4.5-4.5C217.9,373.9,217.9,367.7,217.9,363.4L217.9,363.4z"/>
	<path class="st1" d="M338.3,318.6c0-2.5-2-4.5-4.5-4.5c-6.1,0-16.7,0-22.8,0c-2.5,0-4.5,2-4.5,4.5c0,3.7,0,9,0,12.8
		c0,2.5,2,4.5,4.5,4.5c1.1,0,2.3,0,3.4,0c2.5,0,4.5,2,4.5,4.5c0,8.9,0,28.8,0,37.7c0,1.2,0.5,2.4,1.4,3.2c0.9,0.9,2,1.4,3.2,1.4
		c3.2,0,7.2,0,10.4,0c1.2,0,2.4-0.5,3.2-1.4c0.9-0.9,1.4-2,1.4-3.2C338.3,365.7,338.3,331,338.3,318.6L338.3,318.6z"/>
	<path class="st2" d="M477.8,216.7c0,1.2-0.5,2.4-1.4,3.3c-0.9,0.9-2,1.4-3.3,1.4c-6.3,0-17.6,0-23.9,0c-1.2,0-2.4-0.5-3.3-1.4
		c-0.9-0.9-1.4-2-1.4-3.3c0-1.6,0-3.4,0-5c0-1.2-0.5-2.4-1.4-3.3c-0.9-0.9-2-1.4-3.3-1.4h-5.1c-2.6,0-4.6-2-4.6-4.6
		c0-0.7,0-1.5,0-2.1c0-2.6-2-4.6-4.6-4.6c-9.4,0-30.7,0-40.2,0c-2.5,0-4.6,2-4.6,4.6c0,9,0,29.2,0,38.3c0,2.6-2,4.6-4.6,4.6
		c-1.5,0-3.2,0-4.7,0c-2.6,0-4.6-2-4.6-4.6c0-1.8,0-4,0-5.8c0-2.5-2-4.6-4.6-4.6c-5.8,0-15.5,0-21.1,0c-1.2,0-2.4-0.5-3.3-1.4
		s-1.4-2-1.4-3.3s0-2.5,0-3.7s-0.5-2.4-1.4-3.3c-0.9-0.9-2-1.4-3.3-1.4c-5.5,0-14.9,0-20.4,0c-2.5,0-4.6,2-4.6,4.6
		c0,6.7,0,19,0,25.6c0,1.2-0.5,2.4-1.4,3.3c-0.9,0.9-2,1.4-3.3,1.4h-16.4c-1.2,0-2.4-0.5-3.3-1.4s-1.4-2-1.4-3.3c0-8.8,0-28,0-36.8
		c0-2.5-2-4.6-4.6-4.6c-3.2,0-7.3,0-10.5,0c-2.6,0-4.6,2-4.6,4.6c0,3.3,0,7.6,0,10.7c0,2.5-2,4.6-4.6,4.6c-3.5,0-8.1,0-11.6,0
		c-2.6,0-4.6-2-4.6-4.6c0-6.9,0-19.8,0-26.5c0-1.2-0.5-2.4-1.4-3.3c-0.9-0.9-2-1.4-3.3-1.4c-5.3,0-14,0-19.3,0
		c-1.2,0-2.4,0.5-3.3,1.4c-0.9,0.9-1.4,2-1.4,3.3c0,11.9,0,43.3,0,55.1c0,1.2-0.5,2.4-1.4,3.3c-0.9,0.9-2,1.4-3.3,1.4
		c-8.9,0-28.3,0-37.2,0c-2.5,0-4.6-2-4.6-4.6c0-2.4,0-5.3,0-7.6c0-2.6-2-4.6-4.6-4.6c-7.3,0-21.8,0-29.2,0c-1.2,0-2.4-0.5-3.3-1.4
		c-0.9-0.9-1.4-2-1.4-3.3c0-0.9,0-1.9,0-2.8c0-1.2-0.5-2.4-1.4-3.3c-0.9-0.9-2-1.4-3.3-1.4c-5.5,0-14.6,0-20.1,0
		c-1.2,0-2.4-0.5-3.3-1.4c-0.9-0.9-1.4-2-1.4-3.3c0-3.2,0-7.3,0-10.5c0-1.2-0.5-2.4-1.4-3.3c-0.9-0.9-2-1.4-3.3-1.4
		c-2.8,0-6.5,0-9.5,0c-2.5,0-4.6,2-4.6,4.6c0,7.6,0,22.6,0,30.1c0,2.5-2,4.6-4.6,4.6c-2,0-4.5,0-6.7,0c-2.5,0-4.6,2-4.6,4.6
		c0,8.7,0,27.4,0,36.1c0,2.6-2,4.6-4.6,4.6c-5.5,0-14.8,0-20.3,0c-1.2,0-2.4-0.5-3.3-1.4c-0.9-0.9-1.4-2-1.4-3.3c0-3.8,0-9.3,0-13.1
		c0-2.5-2-4.6-4.6-4.6c-1.4,0-2.9,0-4.3,0c-1.2,0-2.4-0.5-3.3-1.4c-0.9-0.9-1.4-2-1.4-3.3c0-24.6,0-140.1,0-140.1h456.8L477.8,216.7
		L477.8,216.7z"/>
	<path class="st1" d="M318.9,215.4c9.5-30.2,37.7-52.3,71.1-52.3c35.6,0,65.2,24.9,72.7,58.2h-13.4c-1.2,0-2.4-0.5-3.3-1.4
		c-0.9-0.9-1.4-2-1.4-3.3c0-1.6,0-3.4,0-5c0-1.2-0.5-2.4-1.4-3.3c-0.9-0.9-2-1.4-3.3-1.4h-5.1c-2.6,0-4.6-2-4.6-4.6
		c0-0.7,0-1.5,0-2.1c0-2.6-2-4.6-4.6-4.6c-9.4,0-30.7,0-40.2,0c-2.5,0-4.6,2-4.6,4.6c0,9,0,29.2,0,38.3c0,2.6-2,4.6-4.6,4.6
		c-1.5,0-3.2,0-4.7,0c-2.6,0-4.6-2-4.6-4.6c0-1.8,0-4,0-5.8c0-2.5-2-4.6-4.6-4.6c-5.8,0-15.5,0-21.1,0c-1.2,0-2.4-0.5-3.3-1.4
		s-1.4-2-1.4-3.3s0-2.5,0-3.7s-0.5-2.4-1.4-3.3c-0.9-0.9-2-1.4-3.3-1.4L318.9,215.4L318.9,215.4z"/>
	<path class="st3" d="M337.9,226.5l64.6-76.9c1.8-2,4.5-2.9,7.2-2.3c2.6,0.7,4.6,2.8,5.1,5.5l7.6,42.8h-36.6c-2.5,0-4.6,2-4.6,4.6
		c0,9,0,29.2,0,38.3c0,2.6-2,4.6-4.6,4.6c-1.5,0-3.2,0-4.7,0c-2.6,0-4.6-2-4.6-4.6c0-1.8,0-4,0-5.8c0-2.5-2-4.6-4.6-4.6
		c-5.8,0-15.5,0-21.1,0c-1.2,0-2.4-0.5-3.3-1.4C338,226.7,338,226.6,337.9,226.5L337.9,226.5z"/>
	<path class="st1" d="M477.8,75.7c0-3-1.2-6-3.4-8.1c-2.1-2.1-5.1-3.4-8.1-3.4c-63.3,0-370.5,0-433.9,0c-3,0-6,1.2-8.1,3.4
		c-2.1,2.1-3.4,5.1-3.4,8.1c0,16.8,0,46.3,0,46.3h456.8V75.7H477.8z"/>
	<path class="st0" d="M128.3,87.6c1.5-1.5,1.9-3.7,1.1-5.6c-0.8-1.9-2.7-3.2-4.7-3.2c-17.5,0-48,0-56.3,0c-1.4,0-2.7,0.6-3.6,1.5
		C61.4,83.6,52.9,92,46.3,98.6c-1.5,1.5-1.9,3.7-1.1,5.6c0.8,1.9,2.7,3.2,4.7,3.2c17.5,0,48,0,56.3,0c1.4,0,2.7-0.6,3.6-1.5
		C113.3,102.6,121.7,94.1,128.3,87.6L128.3,87.6z"/>
	<path class="st2" d="M239.6,74.5v36.6c0,1.4,1,2.4,2.4,2.4s2.4-1,2.4-2.4V74.5c0-1.4-1-2.4-2.4-2.4C240.7,72,239.6,73.1,239.6,74.5
		L239.6,74.5z"/>
	<path class="st2" d="M296.4,74.5v36.6c0,1.4,1,2.4,2.4,2.4c1.4,0,2.4-1,2.4-2.4V74.5c0-1.4-1-2.4-2.4-2.4
		C297.5,72.1,296.4,73.1,296.4,74.5L296.4,74.5z"/>
	<path class="st2" d="M231,90.3c0-0.7-0.2-1.2-0.7-1.7c-0.5-0.5-1.1-0.7-1.8-0.7c-6.4,0-23.5,0-29.9,0c-0.7,0-1.2,0.2-1.7,0.7
		c-0.5,0.5-0.7,1.1-0.7,1.7c0,1.7,0,3.8,0,5.5c0,0.7,0.2,1.2,0.7,1.7c0.5,0.5,1.1,0.7,1.7,0.7c6.4,0,23.5,0,29.9,0
		c0.7,0,1.2-0.2,1.8-0.7c0.5-0.5,0.7-1.1,0.7-1.7C231,94.1,231,92,231,90.3z"/>
	<path class="st2" d="M287.9,90.3c0-0.7-0.2-1.2-0.7-1.7s-1.1-0.7-1.7-0.7c-6.4,0-23.5,0-29.9,0c-0.7,0-1.2,0.2-1.7,0.7
		c-0.5,0.5-0.7,1.1-0.7,1.7c0,1.7,0,3.8,0,5.5c0,0.7,0.2,1.2,0.7,1.7c0.5,0.5,1.1,0.7,1.7,0.7c6.4,0,23.5,0,29.9,0
		c0.7,0,1.2-0.2,1.7-0.7s0.7-1.1,0.7-1.7C287.9,94.1,287.9,92,287.9,90.3z"/>
	<path class="st2" d="M344.8,90.3c0-0.7-0.2-1.2-0.7-1.7s-1.1-0.7-1.7-0.7c-6.4,0-23.5,0-29.9,0c-0.7,0-1.2,0.2-1.7,0.7
		c-0.5,0.5-0.7,1.1-0.7,1.7c0,1.7,0,3.8,0,5.5c0,0.7,0.2,1.2,0.7,1.7s1.1,0.7,1.7,0.7c6.4,0,23.5,0,29.9,0c0.7,0,1.2-0.2,1.7-0.7
		s0.7-1.1,0.7-1.7C344.8,94.1,344.8,92,344.8,90.3z"/>
	<circle class="st3" cx="395.5" cy="92.8" r="18.3"/>
	<circle class="st3" cx="29.4" cy="47.5" r="8.4"/>
	<circle class="st1" cx="56.4" cy="47.5" r="8.4"/>
	<circle class="st2" cx="83.5" cy="47.5" r="8.4"/>
	<circle class="st3" cx="443.3" cy="92.8" r="18.3"/>
	<path class="st0" d="M87.3,149.2c0-1.2-0.5-2.5-1.4-3.3c-0.9-0.9-2-1.4-3.3-1.4c-4.1,0-9.8,0-13.9,0c-1.2,0-2.5,0.5-3.3,1.4
		c-0.9,0.9-1.4,2-1.4,3.3c0,2.9,0,6.8,0,9.7c0,1.2,0.5,2.5,1.4,3.3c0.9,0.8,2,1.4,3.3,1.4c4.1,0,9.8,0,13.9,0c1.2,0,2.5-0.5,3.3-1.4
		c0.8-0.9,1.4-2,1.4-3.3C87.3,156,87.3,152.1,87.3,149.2z"/>
	<path class="st0" d="M256.7,149.2c0-2.6-2.1-4.7-4.7-4.7c-22.9,0-122.6,0-145.4,0c-2.6,0-4.7,2.1-4.7,4.7c0,2.9,0,6.8,0,9.7
		c0,2.6,2.1,4.7,4.7,4.7c22.9,0,122.6,0,145.4,0c2.6,0,4.7-2.1,4.7-4.7C256.7,156,256.7,152.1,256.7,149.2z"/>
	<path class="st0" d="M324,149.2c0-2.6-2.1-4.7-4.7-4.7h-43.1c-2.6,0-4.7,2.1-4.7,4.7v9.7c0,2.6,2.1,4.7,4.7,4.7h43.1
		c2.6,0,4.7-2.1,4.7-4.7V149.2z"/>
	<path class="st0" d="M440.5,85.2l0.8-3.3h4.3l0.8,3.3c0.1,0,0.2,0.1,0.3,0.1l2.8-1.8l3,3l-1.8,2.8c0,0.1,0.1,0.2,0.1,0.3l3.3,0.8
		v4.3l-3.3,0.8c0,0.1-0.1,0.2-0.1,0.3l1.8,2.8l-3,3l-2.8-1.8c-0.1,0-0.2,0.1-0.3,0.1l-0.8,3.3h-4.3l-0.8-3.3c-0.1,0-0.2-0.1-0.3-0.1
		l-2.8,1.8l-3-3l1.8-2.8c0-0.1-0.1-0.2-0.1-0.3l-3.3-0.8v-4.3l3.3-0.8c0-0.1,0.1-0.2,0.1-0.3l-1.8-2.8l3-3l2.8,1.8
		C440.2,85.3,440.4,85.3,440.5,85.2z M443.3,89.1c2,0,3.6,1.7,3.6,3.6c0,2-1.7,3.6-3.6,3.6c-2,0-3.6-1.7-3.6-3.6
		C439.7,90.7,441.3,89.1,443.3,89.1z"/>
	<path class="st1" d="M85.4,191.6c0.8,0,1.7,0.3,2.3,0.9c0.6,0.6,0.9,1.4,0.9,2.3c0,0.6,0,1.2,0,1.8c0,0.8-0.3,1.7-0.9,2.3
		c-0.6,0.6-1.4,0.9-2.3,0.9c-4.7,0-13.5,0-18.2,0c-0.8,0-1.7-0.3-2.3-0.9c-0.6-0.6-0.9-1.4-0.9-2.3c0-0.6,0-1.2,0-1.8
		c0-0.8,0.3-1.7,0.9-2.3c0.6-0.6,1.4-0.9,2.3-0.9C72,191.6,80.7,191.6,85.4,191.6z M155.1,196.7c0,0.8-0.3,1.7-0.9,2.3
		c-0.6,0.6-1.4,0.9-2.3,0.9c-10.3,0-42.7,0-52.9,0c-0.8,0-1.7-0.3-2.3-0.9c-0.6-0.6-0.9-1.4-0.9-2.3c0-0.6,0-1.2,0-1.8
		c0-0.8,0.3-1.7,0.9-2.3c0.6-0.6,1.4-0.9,2.3-0.9c10.3,0,42.7,0,52.9,0c0.8,0,1.7,0.3,2.3,0.9c0.6,0.6,0.9,1.4,0.9,2.3
		C155.1,195.5,155.1,196.1,155.1,196.7z M212.5,199.9h-47.1c-0.8,0-1.7-0.3-2.3-0.9s-0.9-1.4-0.9-2.3c0-0.6,0-1.2,0-1.8
		c0-0.8,0.3-1.7,0.9-2.3c0.6-0.6,1.4-0.9,2.3-0.9c11.1,0,47.1,0,47.1,0V199.9z M263.8,196.7c0,0.8-0.3,1.7-0.9,2.3
		c-0.6,0.6-1.4,0.9-2.3,0.9c-3.3,0-8.5,0-11.7,0c-0.8,0-1.7-0.3-2.3-0.9c-0.6-0.6-0.9-1.4-0.9-2.3c0-0.6,0-1.2,0-1.8
		c0-0.8,0.3-1.7,0.9-2.3c0.6-0.6,1.4-0.9,2.3-0.9c3.3,0,8.5,0,11.7,0c0.8,0,1.7,0.3,2.3,0.9c0.6,0.6,0.9,1.4,0.9,2.3
		C263.8,195.5,263.8,196.1,263.8,196.7z M271.1,194.8c0-0.8,0.3-1.7,0.9-2.3c0.6-0.6,1.4-0.9,2.3-0.9c4.6,0,13.2,0,17.8,0
		c0.8,0,1.7,0.3,2.3,0.9c0.6,0.6,0.9,1.4,0.9,2.3c0,0.6,0,1.2,0,1.8c0,0.8-0.3,1.7-0.9,2.3c-0.6,0.6-1.4,0.9-2.3,0.9
		c-4.6,0-13.2,0-17.8,0c-0.8,0-1.7-0.3-2.3-0.9s-0.9-1.4-0.9-2.3C271.1,196.1,271.1,195.5,271.1,194.8L271.1,194.8z"/>
	<path class="st1" d="M116.2,176.2c1.8,0,3.2,1.5,3.2,3.2c0,0.6,0,1.2,0,1.8c0,1.8-1.5,3.2-3.2,3.2c-9.8,0-39.3,0-49,0
		c-1.8,0-3.2-1.5-3.2-3.2c0-0.6,0-1.2,0-1.8c0-1.8,1.5-3.2,3.2-3.2C77,176.2,106.5,176.2,116.2,176.2z M141.5,181.3
		c0,0.8-0.3,1.7-0.9,2.3c-0.6,0.6-1.4,0.9-2.3,0.9c-2.5,0-6,0-8.5,0c-0.8,0-1.7-0.3-2.3-0.9c-0.6-0.6-0.9-1.4-0.9-2.3
		c0-0.6,0-1.2,0-1.8c0-0.8,0.3-1.7,0.9-2.3c0.6-0.6,1.4-0.9,2.3-0.9c2.5,0,6,0,8.5,0c0.8,0,1.7,0.3,2.3,0.9c0.6,0.6,0.9,1.4,0.9,2.3
		C141.5,180,141.5,180.6,141.5,181.3z M233.7,181.3c0,0.8-0.3,1.7-0.9,2.3c-0.6,0.6-1.4,0.9-2.3,0.9c-13.4,0-65.2,0-78.7,0
		c-0.8,0-1.7-0.3-2.3-0.9c-0.6-0.6-0.9-1.4-0.9-2.3c0-0.6,0-1.2,0-1.8c0-0.8,0.3-1.7,0.9-2.3c0.6-0.6,1.4-0.9,2.3-0.9
		c13.4,0,65.2,0,78.7,0c0.8,0,1.7,0.3,2.3,0.9c0.6,0.6,0.9,1.4,0.9,2.3C233.7,180,233.7,180.6,233.7,181.3z M240.8,179.3
		c0-0.8,0.3-1.7,0.9-2.3c0.6-0.6,1.4-0.9,2.3-0.9c9.6,0,38.4,0,48,0c0.8,0,1.7,0.3,2.3,0.9c0.6,0.6,0.9,1.4,0.9,2.3
		c0,0.6,0,1.2,0,1.8c0,0.8-0.3,1.7-0.9,2.3c-0.6,0.6-1.4,0.9-2.3,0.9c-9.6,0-38.4,0-48,0c-0.8,0-1.7-0.3-2.3-0.9
		c-0.6-0.6-0.9-1.4-0.9-2.3C240.8,180.6,240.8,180,240.8,179.3L240.8,179.3z"/>
	<path class="st1" d="M79.9,207.1v8.2H67.2c-0.8,0-1.7-0.3-2.3-0.9c-0.6-0.6-0.9-1.4-0.9-2.3c0-0.6,0-1.2,0-1.8
		c0-0.8,0.3-1.7,0.9-2.3c0.6-0.6,1.4-0.9,2.3-0.9C71.8,207.1,79.9,207.1,79.9,207.1z M159.3,212.2c0,1.8-1.5,3.2-3.2,3.2
		c-6.1,0-19.3,0-25.4,0c-1.8,0-3.2-1.5-3.2-3.2c0-0.6,0-1.2,0-1.8c0-1.8,1.5-3.2,3.2-3.2c6.1,0,19.3,0,25.4,0c1.8,0,3.2,1.5,3.2,3.2
		C159.3,210.9,159.3,211.5,159.3,212.2L159.3,212.2z M178.1,212.2c0,1.8-1.5,3.2-3.2,3.2c-1.6,0-3.6,0-5.2,0c-1.8,0-3.2-1.5-3.2-3.2
		c0-0.6,0-1.2,0-1.8c0-1.8,1.5-3.2,3.2-3.2c1.6,0,3.6,0,5.2,0c1.8,0,3.2,1.5,3.2,3.2C178.1,210.9,178.1,211.5,178.1,212.2z
		 M212.5,207.1v8.2h-24c-0.8,0-1.7-0.3-2.3-0.9c-0.6-0.6-0.9-1.4-0.9-2.3c0-0.6,0-1.2,0-1.8c0-0.8,0.3-1.7,0.9-2.3
		c0.6-0.6,1.4-0.9,2.3-0.9C195.7,207.1,212.5,207.1,212.5,207.1z M241,207.1h10.7c1.8,0,3.2,1.5,3.2,3.2c0,0.6,0,1.2,0,1.8
		c0,1.8-1.5,3.2-3.2,3.2c-4.1,0-10.7,0-10.7,0V207.1L241,207.1z M104.5,210.3c0-0.8,0.3-1.7,0.9-2.3c0.6-0.6,1.4-0.9,2.3-0.9
		c2.8,0,6.8,0,9.5,0c0.8,0,1.7,0.3,2.3,0.9c0.6,0.6,0.9,1.4,0.9,2.3c0,0.6,0,1.2,0,1.8c0,0.8-0.3,1.7-0.9,2.3
		c-0.6,0.6-1.4,0.9-2.3,0.9c-2.8,0-6.8,0-9.5,0c-0.8,0-1.7-0.3-2.3-0.9c-0.6-0.6-0.9-1.4-0.9-2.3
		C104.5,211.5,104.5,210.9,104.5,210.3z"/>
	<path class="st3" d="M148.1,94.6c1.5-1.5,1.9-3.7,1.1-5.6c-0.8-1.9-2.7-3.2-4.7-3.2c-14.1,0-36,0-42.9,0c-1.4,0-2.7,0.6-3.6,1.5
		c-1.1,1.1-2.7,2.7-4.5,4.5c-1.5,1.5-1.9,3.7-1.1,5.6c0.8,1.9,2.7,3.2,4.7,3.2c14.1,0,36,0,42.9,0c1.4,0,2.7-0.6,3.6-1.5
		C144.8,97.9,146.5,96.3,148.1,94.6z"/>
	<path class="st3" d="M85.6,94.6c1.5-1.5,1.9-3.7,1.1-5.6C86,87,84,85.8,82,85.8c-4.5,0-9.1,0-11.9,0c-1.4,0-2.7,0.6-3.6,1.5
		c-1.1,1.1-2.7,2.7-4.5,4.5c-1.5,1.5-1.9,3.7-1.1,5.6c0.8,1.9,2.7,3.2,4.7,3.2c4.5,0,9.1,0,11.9,0c1.4,0,2.7-0.6,3.6-1.5
		C82.3,97.9,83.9,96.3,85.6,94.6z"/>
	<path class="st2" d="M72.2,373.6c-1.8,0-3.2-1.5-3.2-3.2c0-6.9,0-22.9,0-30.7c0-1.2,0.5-2.4,1.4-3.2c0.9-0.9,2-1.4,3.2-1.4
		c2.5,0,5.5,0,8,0s4.5,2,4.5,4.5v2c0,1.2,0.5,2.4,1.4,3.2c0.9,0.9,2,1.4,3.2,1.4c0.8,0,1.6,0,2.4,0c1.2,0,2.4,0.5,3.2,1.4
		c0.9,0.9,1.4,2,1.4,3.2c0,6.3,0,17.6,0,23.8c0,1.2-0.5,2.4-1.4,3.2c-0.9,0.9-2,1.4-3.2,1.4c-1.4,0-2.7,0-4.1,0
		c-2.5,0-4.5,2-4.5,4.5c0,0.1,0,0.2,0,0.3c0,2.5-2,4.5-4.5,4.5l0,0c-2.5,0-4.5-2-4.5-4.5c0-2.4,0-5.2,0-7.2
		C75.5,374.9,74,373.6,72.2,373.6L72.2,373.6L72.2,373.6z"/>
	<path class="st3" d="M316.7,297.1c-1.2,0-2.1-1-2.1-2.1c0-5.3,0-19,0-24.8c0-1.5,1.2-2.7,2.7-2.7c1.1,0,2.5,0,3.7,0
		c0.8,0,1.6,0.3,2.1,0.9c0.6,0.6,0.9,1.4,0.9,2.1l0,0c0,0.8,0.3,1.6,0.9,2.1c0.6,0.6,1.4,0.9,2.1,0.9c0,0,0,0,0.1,0
		c0.8,0,1.7,0.3,2.3,0.9s0.9,1.4,0.9,2.3c0,2.9,0,7.3,0,10.6c0,1.2-0.5,2.4-1.4,3.2c-0.9,0.9-2,1.4-3.2,1.4c-0.2,0-0.5,0-0.6,0
		c-0.6,0-1.1,0.2-1.6,0.7c-0.5,0.5-0.7,1-0.7,1.6c0,0.3,0,0.6,0,0.9c0,0.6-0.2,1.1-0.7,1.6c-0.5,0.5-1,0.7-1.6,0.7
		C319.6,297.1,318,297.1,316.7,297.1L316.7,297.1z"/>
	<path class="st3" d="M56,315.6c0-1.2-0.5-2.4-1.4-3.2c-0.9-0.9-2-1.4-3.2-1.4h-5.9c-1.2,0-2.4,0.5-3.2,1.4c-0.8,0.9-1.4,2-1.4,3.2
		v5.9c0,1.2,0.5,2.4,1.4,3.2c0.9,0.9,2,1.4,3.2,1.4h5.9c1.2,0,2.4-0.5,3.2-1.4c0.9-0.9,1.4-2,1.4-3.2V315.6z"/>
	<path class="st0" d="M385,102.5L385,102.5c0-4.9,0.9-8.8,7.2-9.8c-1.7-1.1-2.8-3-2.8-5.2c0-3.4,2.8-6.2,6.2-6.2s6.2,2.8,6.2,6.2
		c0,2.1-1.1,4.2-2.8,5.2c6.3,1,7.1,5,7.2,9.8c0,0.1,0,0.3-0.1,0.3c-0.1,0.1-0.2,0.1-0.3,0.1c-2.9,0-17,0-20.1,0
		c-0.1,0-0.2-0.1-0.3-0.1C385,102.8,385,102.7,385,102.5L385,102.5L385,102.5z"/>
	<path class="st2" d="M117.4,271.8c0-1.2-0.5-2.4-1.4-3.2c-0.9-0.9-2-1.4-3.2-1.4c-4.5,0-11.3,0-15.8,0c-1.2,0-2.4,0.5-3.2,1.4
		c-0.9,0.9-1.4,2-1.4,3.2c0,6.1,0,16.7,0,22.8c0,1.2,0.5,2.4,1.4,3.2c0.9,0.9,2,1.4,3.2,1.4c4.5,0,11.3,0,15.8,0
		c1.2,0,2.4-0.5,3.2-1.4c0.9-0.9,1.4-2,1.4-3.2C117.4,288.5,117.4,277.8,117.4,271.8z"/>
	<path class="st3" d="M350.3,340c0-2.5-2-4.5-4.5-4.5h-10c-2.5,0-4.5,2-4.5,4.5v29.6c0,2.5,2,4.5,4.5,4.5h10c2.5,0,4.5-2,4.5-4.5
		V340z"/>
	<path class="st3" d="M433.1,248.6c0-1-0.8-1.8-1.8-1.8c-0.9,0-2,0-2.9,0c-1,0-1.8,0.8-1.8,1.8c0,5.3,0,20.4,0,25.7
		c0,1,0.8,1.8,1.8,1.8c0.9,0,2,0,2.9,0c1,0,1.8-0.8,1.8-1.8C433.1,269.1,433.1,254,433.1,248.6z"/>
	<path class="st2" d="M289.3,328.1c0-1-0.8-1.8-1.8-1.8c-2.4,0-6.5,0-9,0c-1,0-1.8,0.8-1.8,1.8c0,4,0,13.3,0,17.4
		c0,1,0.8,1.8,1.8,1.8c2.4,0,6.5,0,9,0c1,0,1.8-0.8,1.8-1.8C289.3,341.5,289.3,332.2,289.3,328.1z"/>
	<path class="st3" d="M234.7,245.8c-2.5,0-4.5,2-4.5,4.5c0,7.6,0,22.6,0,30c0,2.5,2,4.5,4.5,4.5c2,0,4.5,0,6.5,0
		c2.5,0,4.5-2,4.5-4.5c0-2.4,0-5.2,0-7.2c0-0.7-0.2-1.4-0.8-1.8c-0.5-0.5-1.1-0.8-1.8-0.8l0,0c-0.7,0-1.4-0.2-1.8-0.8
		c-0.5-0.5-0.8-1.1-0.8-1.8c0-4.2,0-12.5,0-17.6c0-2.5-2-4.5-4.5-4.5C235.6,245.8,235.2,245.8,234.7,245.8z"/>
	<path class="st1" d="M415,247.4c2.5,0,4.5-2,4.5-4.5c0-6.7,0-19.1,0-25.7c0-1.2-0.5-2.4-1.4-3.2c-0.9-0.9-2-1.4-3.2-1.4h-8.6
		c-1.2,0-2.4,0.5-3.2,1.4c-0.9,0.9-1.4,2-1.4,3.2c0,2.8,0,6.2,0,8.7c0,1.7,1.4,2.9,2.9,2.9l0,0c0.8,0,1.6,0.3,2.1,0.9
		c0.6,0.6,0.9,1.4,0.9,2.1c0,2.9,0,7.7,0,11.1c0,2.5,2,4.5,4.5,4.5C413.2,247.4,414.1,247.4,415,247.4L415,247.4z"/>
	<path class="st2" d="M390.2,286c-2.5,0-4.5,2-4.5,4.5c0,8.4,0,26,0,34.2c0,2.5,2,4.5,4.5,4.5c3.7,0,9.1,0,12.9,0
		c2.5,0,4.5-2,4.5-4.5c0-5.9,0-16.1,0-21.6c0-2-1.7-3.7-3.7-3.7l0,0c-2,0-3.7-1.7-3.7-3.7v-5.3c0-1.2-0.5-2.4-1.4-3.2
		c-0.9-0.9-2-1.4-3.2-1.4C394.1,286,392,286,390.2,286z"/>
	<path class="st1" d="M53.9,384.9c-2.5,0-4.5,2-4.5,4.5c0,9.8,0,32.4,0,32.4h20v-22.5c0-1.2-0.5-2.4-1.4-3.2c-0.9-0.9-2-1.4-3.2-1.4
		l0,0c-2.5,0-4.5-2-4.5-4.5c0-0.2,0-0.6,0-0.8c0-2.5-2-4.5-4.5-4.5C55.1,384.9,54.5,384.9,53.9,384.9L53.9,384.9z"/>
	<path class="st2" d="M186.5,297.9c0-1.2-0.5-2.4-1.4-3.2c-0.9-0.9-2-1.4-3.2-1.4c-3.8,0-9.3,0-13.1,0c-2.5,0-4.5,2-4.5,4.5
		c0,9.9,0,33.7,0,43.7c0,2.5,2,4.5,4.5,4.5c2.8,0,6.3,0,9,0c2.5,0,4.5-2,4.5-4.5c0-1.4,0-2.8,0-4c0-0.8-0.3-1.5-0.9-2
		c-0.6-0.6-1.2-0.9-2-0.9l0,0c-0.8,0-1.5-0.3-2-0.9c-0.6-0.6-0.9-1.2-0.9-2c0-4.4,0-12.8,0-17.9c0-1.2,0.5-2.4,1.4-3.2
		c0.9-0.9,2-1.4,3.2-1.4c0.2,0,0.6,0,0.8,0c1.2,0,2.4-0.5,3.2-1.4c0.9-0.9,1.4-2,1.4-3.2C186.5,302.6,186.5,300,186.5,297.9
		L186.5,297.9z"/>
	<path class="st1" d="M477.8,416.6c0-2.8-2.3-5.2-5.2-5.2H26.1c-2.8,0-5.2,2.3-5.2,5.2l0,0c0,2.8,2.3,5.2,5.2,5.2h446.5
		C475.5,421.7,477.8,419.4,477.8,416.6L477.8,416.6z"/>
	<path class="st2" d="M414.8,421.7v-28.8c0-2.4,1.9-4.4,4.4-4.4l0,0c2.4,0,4.4-1.9,4.4-4.4c0-3.3,0-7.8,0-11.2
		c0-1.2,0.5-2.4,1.4-3.2c0.9-0.9,2-1.4,3.2-1.4h2.8c1.2,0,2.4,0.5,3.2,1.4c0.9,0.9,1.4,2,1.4,3.2c0,1.1,0,2.4,0,3.5
		c0,1.2,0.5,2.4,1.4,3.2c0.9,0.8,2,1.4,3.2,1.4c0.8,0,1.6,0,2.4,0c1.2,0,2.4,0.5,3.2,1.4c0.9,0.9,1.4,2,1.4,3.2
		c0,10.6,0,36.1,0,36.1L414.8,421.7L414.8,421.7z"/>
	<path class="st3" d="M169.7,329.9c0-2.5-2-4.5-4.5-4.5c-1.6,0-3.3,0-4.9,0c-2.5,0-4.5,2-4.5,4.5c0,7,0,20.3,0,27.5
		c0,1.4,0.6,2.6,1.5,3.5c0.9,0.9,2.1,1.5,3.5,1.5s2.7,0,4.1,0c1.4,0,2.6-0.6,3.5-1.5c0.9-0.9,1.5-2.1,1.5-3.5
		C169.7,350.2,169.7,336.9,169.7,329.9L169.7,329.9z"/>
	<path class="st3" d="M470.8,327.1c0-2.5-2-4.5-4.5-4.5h-8.7c-2.5,0-4.5,2-4.5,4.5v8.7c0,2.5,2,4.5,4.5,4.5h8.7c2.5,0,4.5-2,4.5-4.5
		V327.1z"/>
	<path class="st1" d="M445.8,294.9c0-0.8-0.7-1.5-1.5-1.5H440c-0.8,0-1.5,0.7-1.5,1.5v4.3c0,0.8,0.7,1.5,1.5,1.5h4.3
		c0.8,0,1.5-0.7,1.5-1.5V294.9z"/>
	<path class="st1" d="M290.2,275.6c0-0.8-0.7-1.5-1.5-1.5h-4.3c-0.8,0-1.5,0.7-1.5,1.5v4.3c0,0.8,0.7,1.5,1.5,1.5h4.3
		c0.8,0,1.5-0.7,1.5-1.5V275.6z"/>
	<path class="st1" d="M193,380.8c0-0.8-0.7-1.5-1.5-1.5c-0.6,0-1.2,0-1.9,0c-0.8,0-1.5,0.7-1.5,1.5c0,0.6,0,1.2,0,1.9
		c0,0.8,0.7,1.5,1.5,1.5c0.6,0,1.2,0,1.9,0c0.8,0,1.5-0.7,1.5-1.5V380.8z"/>
	<path class="st1" d="M453.1,365.6c0-0.8-0.7-1.5-1.5-1.5c-0.6,0-1.2,0-1.9,0c-0.8,0-1.5,0.7-1.5,1.5c0,0.6,0,1.2,0,1.9
		c0,0.8,0.7,1.5,1.5,1.5c0.6,0,1.2,0,1.9,0c0.8,0,1.5-0.7,1.5-1.5V365.6z"/>
	<path class="st1" d="M355.5,390.2c0-0.8-0.7-1.5-1.5-1.5c-0.6,0-1.2,0-1.9,0c-0.8,0-1.5,0.7-1.5,1.5c0,0.6,0,1.2,0,1.9
		c0,0.8,0.7,1.5,1.5,1.5c0.6,0,1.2,0,1.9,0c0.8,0,1.5-0.7,1.5-1.5V390.2z"/>
	<path class="st2" d="M362.4,351.1c0-0.8-0.7-1.5-1.5-1.5c-0.6,0-1.2,0-1.9,0c-0.8,0-1.5,0.7-1.5,1.5c0,0.6,0,1.2,0,1.9
		c0,0.8,0.7,1.5,1.5,1.5c0.6,0,1.2,0,1.9,0c0.8,0,1.5-0.7,1.5-1.5V351.1z"/>
	<path class="st1" d="M406.6,257.9c0-0.8-0.7-1.5-1.5-1.5c-0.6,0-1.2,0-1.9,0c-0.8,0-1.5,0.7-1.5,1.5c0,0.6,0,1.2,0,1.9
		c0,0.8,0.7,1.5,1.5,1.5c0.6,0,1.2,0,1.9,0c0.8,0,1.5-0.7,1.5-1.5V257.9z"/>
	<path class="st1" d="M152.8,276.5c0-0.8-0.7-1.5-1.5-1.5c-0.6,0-1.2,0-1.9,0c-0.8,0-1.5,0.7-1.5,1.5c0,0.6,0,1.2,0,1.9
		c0,0.8,0.7,1.5,1.5,1.5c0.6,0,1.2,0,1.9,0c0.8,0,1.5-0.7,1.5-1.5V276.5z"/>
	<path class="st3" d="M98.1,319.3c0-0.8-0.7-1.5-1.5-1.5c-0.6,0-1.2,0-1.9,0c-0.8,0-1.5,0.7-1.5,1.5c0,0.6,0,1.2,0,1.9
		c0,0.8,0.7,1.5,1.5,1.5c0.6,0,1.2,0,1.9,0c0.8,0,1.5-0.7,1.5-1.5V319.3z"/>
	<path class="st3" d="M125.9,358.9c0-0.8-0.7-1.5-1.5-1.5c-0.6,0-1.2,0-1.9,0c-0.8,0-1.5,0.7-1.5,1.5c0,0.6,0,1.2,0,1.9
		c0,0.8,0.7,1.5,1.5,1.5c0.6,0,1.2,0,1.9,0c0.8,0,1.5-0.7,1.5-1.5V358.9z"/>
	<path class="st3" d="M202.5,393c0-0.8-0.7-1.5-1.5-1.5c-0.6,0-1.2,0-1.9,0c-0.8,0-1.5,0.7-1.5,1.5c0,0.6,0,1.2,0,1.9
		c0,0.8,0.7,1.5,1.5,1.5c0.6,0,1.2,0,1.9,0c0.8,0,1.5-0.7,1.5-1.5V393z"/>
	<path class="st3" d="M444.1,229.1c0-0.8-0.7-1.5-1.5-1.5c-0.6,0-1.2,0-1.9,0c-0.8,0-1.5,0.7-1.5,1.5c0,0.6,0,1.2,0,1.9
		c0,0.8,0.7,1.5,1.5,1.5c0.6,0,1.2,0,1.9,0c0.8,0,1.5-0.7,1.5-1.5V229.1z"/>
	<path class="st3" d="M274.2,319.2c0-0.8-0.7-1.5-1.5-1.5c-0.6,0-1.2,0-1.9,0c-0.8,0-1.5,0.7-1.5,1.5c0,0.6,0,1.2,0,1.9
		c0,0.8,0.7,1.5,1.5,1.5c0.6,0,1.2,0,1.9,0c0.8,0,1.5-0.7,1.5-1.5V319.2z"/>
	<path class="st3" d="M235.4,214.7c0-0.8-0.7-1.5-1.5-1.5c-0.6,0-1.2,0-1.9,0c-0.8,0-1.5,0.7-1.5,1.5c0,0.6,0,1.2,0,1.9
		c0,0.8,0.7,1.5,1.5,1.5c0.6,0,1.2,0,1.9,0c0.8,0,1.5-0.7,1.5-1.5V214.7z"/>
	<path class="st3" d="M118,245.9c0-0.8-0.7-1.5-1.5-1.5c-0.6,0-1.2,0-1.9,0c-0.8,0-1.5,0.7-1.5,1.5c0,0.6,0,1.2,0,1.9
		c0,0.8,0.7,1.5,1.5,1.5c0.6,0,1.2,0,1.9,0c0.8,0,1.5-0.7,1.5-1.5V245.9z"/>
	<path class="st2" d="M63,366.1c0-0.8-0.7-1.5-1.5-1.5c-0.6,0-1.2,0-1.9,0c-0.8,0-1.5,0.7-1.5,1.5c0,0.6,0,1.2,0,1.9
		c0,0.8,0.7,1.5,1.5,1.5c0.6,0,1.2,0,1.9,0c0.8,0,1.5-0.7,1.5-1.5V366.1z"/>
	<path class="st2" d="M261.8,384.4c0-0.8-0.7-1.5-1.5-1.5c-0.6,0-1.2,0-1.9,0c-0.8,0-1.5,0.7-1.5,1.5c0,0.6,0,1.2,0,1.9
		c0,0.8,0.7,1.5,1.5,1.5c0.6,0,1.2,0,1.9,0c0.8,0,1.5-0.7,1.5-1.5V384.4z"/>
	<path class="st2" d="M297.4,287.5c0-0.8-0.7-1.5-1.5-1.5c-0.6,0-1.2,0-1.9,0c-0.8,0-1.5,0.7-1.5,1.5c0,0.6,0,1.2,0,1.9
		c0,0.8,0.7,1.5,1.5,1.5c0.6,0,1.2,0,1.9,0c0.8,0,1.5-0.7,1.5-1.5V287.5z"/>
	<path class="st3" d="M346.9,257.9c0-0.8-0.7-1.5-1.5-1.5h-4.3c-0.8,0-1.5,0.7-1.5,1.5v4.3c0,0.8,0.7,1.5,1.5,1.5h4.3
		c0.8,0,1.5-0.7,1.5-1.5V257.9z"/>
	<path class="st3" d="M253,358.8c0-0.8-0.7-1.5-1.5-1.5h-4.3c-0.8,0-1.5,0.7-1.5,1.5v4.3c0,0.8,0.7,1.5,1.5,1.5h4.3
		c0.8,0,1.5-0.7,1.5-1.5V358.8z"/>
	<path class="st3" d="M418,349.3c0-0.8-0.7-1.5-1.5-1.5h-4.3c-0.8,0-1.5,0.7-1.5,1.5v4.3c0,0.8,0.7,1.5,1.5,1.5h4.3
		c0.8,0,1.5-0.7,1.5-1.5V349.3z"/>
	<path class="st1" d="M88.9,306.1c0-0.8-0.7-1.5-1.5-1.5h-4.3c-0.8,0-1.5,0.7-1.5,1.5v4.3c0,0.8,0.7,1.5,1.5,1.5h4.3
		c0.8,0,1.5-0.7,1.5-1.5V306.1z"/>
	<path class="st1" d="M268.9,233.1c0-0.8-0.7-1.5-1.5-1.5h-4.3c-0.8,0-1.5,0.7-1.5,1.5v4.3c0,0.8,0.7,1.5,1.5,1.5h4.3
		c0.8,0,1.5-0.7,1.5-1.5V233.1z"/>
	<path class="st2" d="M160,262c0-0.8-0.7-1.5-1.5-1.5h-4.3c-0.8,0-1.5,0.7-1.5,1.5v4.3c0,0.8,0.7,1.5,1.5,1.5h4.3
		c0.8,0,1.5-0.7,1.5-1.5V262z"/>
	<path class="st2" d="M369.4,360.8c0-0.8-0.7-1.5-1.5-1.5h-4.3c-0.8,0-1.5,0.7-1.5,1.5v4.3c0,0.8,0.7,1.5,1.5,1.5h4.3
		c0.8,0,1.5-0.7,1.5-1.5V360.8z"/>
	<path class="st1" d="M230.2,292.1c0-0.8-0.7-1.5-1.5-1.5c-1.2,0-3,0-4.3,0c-0.8,0-1.5,0.7-1.5,1.5c0,2.5,0,7.3,0,9.8
		c0,0.8,0.7,1.5,1.5,1.5c1.2,0,3,0,4.3,0c0.8,0,1.5-0.7,1.5-1.5C230.2,299.4,230.2,294.6,230.2,292.1z"/>
	<path class="st2" d="M334.7,237.4c0-0.8-0.7-1.5-1.5-1.5c-1.2,0-3,0-4.3,0c-0.8,0-1.5,0.7-1.5,1.5c0,2.5,0,7.3,0,9.8
		c0,0.8,0.7,1.5,1.5,1.5c1.2,0,3,0,4.3,0c0.8,0,1.5-0.7,1.5-1.5C334.7,244.7,334.7,239.8,334.7,237.4z"/>
	<path class="st1" d="M229.7,223.7c0-0.8-0.7-1.5-1.5-1.5c-1.2,0-3,0-4.3,0c-0.8,0-1.5,0.7-1.5,1.5c0,2.5,0,7.3,0,9.8
		c0,0.8,0.7,1.5,1.5,1.5c1.2,0,3,0,4.3,0c0.8,0,1.5-0.7,1.5-1.5C229.7,231,229.7,226.2,229.7,223.7z"/>
	<path class="st1" d="M33.9,346.3c0,0.8,0.7,1.5,1.5,1.5c1.2,0,3,0,4.3,0c0.8,0,1.5-0.7,1.5-1.5c0-2.5,0-7.3,0-9.8
		c0-0.8-0.7-1.5-1.5-1.5c-1.2,0-3,0-4.3,0c-0.8,0-1.5,0.7-1.5,1.5C33.9,338.9,33.9,343.9,33.9,346.3z"/>
	<path class="st3" d="M103.8,244.4v-9.7c0-0.8-0.7-1.5-1.5-1.5c-1.2,0-3,0-4.3,0c-0.8,0-1.5,0.7-1.5,1.5c0,0,0,1.6,0,2.8
		c0,0.7-0.6,1.4-1.4,1.4c-1.2,0-2.8,0-2.8,0c-0.8,0-1.5,0.7-1.5,1.5c0,1.2,0,3,0,4.3c0,0.8,0.7,1.5,1.5,1.5h9.8l0,0l0,0l0,0l0,0l0,0
		l0,0l0,0l0,0l0,0l0,0l0,0l0,0l0,0l0,0l0,0l0,0l0,0l0,0l0,0l0,0l0,0l0,0l0,0l0,0l0,0l0,0l0,0l0,0l0,0l0,0l0,0l0,0l0,0l0,0l0,0l0,0
		l0,0l0,0l0,0l0,0l0,0l0,0l0,0l0,0l0,0l0,0l0,0l0,0l0,0l0,0l0,0l0,0l0,0l0,0l0,0l0,0l0,0l0,0l0,0l0,0L103.8,244.4L103.8,244.4
		L103.8,244.4L103.8,244.4L103.8,244.4z"/>
	<path class="st2" d="M311.2,367.6v-9.8c0-0.8-0.7-1.5-1.5-1.5c-1.2,0-3,0-4.3,0c-0.8,0-1.5,0.7-1.5,1.5c0,0,0,1.6,0,2.8
		c0,0.7-0.6,1.4-1.4,1.4c-1.2,0-2.8,0-2.8,0c-0.8,0-1.5,0.7-1.5,1.5c0,1.2,0,3,0,4.3c0,0.8,0.7,1.5,1.5,1.5h9.8l0,0l0,0l0,0l0,0l0,0
		l0,0l0,0l0,0l0,0l0,0l0,0l0,0l0,0l0,0l0,0l0,0l0,0l0,0l0,0l0,0l0,0l0,0l0,0l0,0l0,0l0,0l0,0l0,0l0,0l0,0l0,0l0,0l0,0l0,0l0,0l0,0
		l0,0l0,0l0,0l0,0l0,0l0,0l0,0l0,0l0,0l0,0l0,0l0,0l0,0l0,0l0,0l0,0l0,0l0,0l0,0l0,0l0,0l0,0l0,0l0,0L311.2,367.6L311.2,367.6
		L311.2,367.6L311.2,367.6L311.2,367.6z"/>
	<path class="st1" d="M125,344.2h9.8c0.8,0,1.5-0.7,1.5-1.5c0-1.2,0-3,0-4.3c0-0.8-0.7-1.5-1.5-1.5c0,0-1.6,0-2.8,0
		c-0.7,0-1.4-0.6-1.4-1.4c0-1.2,0-2.8,0-2.8c0-0.8-0.7-1.5-1.5-1.5c-1.2,0-3,0-4.3,0c-0.8,0-1.5,0.7-1.5,1.5v9.8l0,0l0,0l0,0l0,0
		l0,0l0,0l0,0l0,0l0,0l0,0l0,0l0,0l0,0l0,0l0,0l0,0l0,0l0,0l0,0l0,0l0,0l0,0l0,0l0,0l0,0l0,0l0,0l0,0l0,0l0,0l0,0l0,0l0,0l0,0l0,0
		l0,0l0,0l0,0l0,0l0,0l0,0l0,0l0,0l0,0l0,0l0,0l0,0l0,0l0,0l0,0l0,0l0,0l0,0l0,0l0,0l0,0l0,0l0,0l0,0l0,0L125,344.2L125,344.2
		L125,344.2L125,344.2L125,344.2z"/>
	<path class="st3" d="M393.7,400.2c0-1.2-0.5-2.4-1.4-3.2c-0.9-0.9-2-1.4-3.2-1.4c-1.4,0-2.9,0-4.4,0c-1.2,0-2.4,0.5-3.2,1.4
		c-0.9,0.9-1.4,2-1.4,3.2c0,7.4,0,21.4,0,21.4h13.4V400.2L393.7,400.2z"/>
	<path class="st1" d="M138.3,439.8c0.6,0.8,0.6,1.8,0.1,2.6c-0.5,0.8-1.2,1.4-2.3,1.4h-12.6c-0.9,0-1.8-0.6-2.3-1.4
		c-0.5-0.8-0.3-1.8,0.1-2.6c1.9-2.8,4.5-6.5,6.3-9.1c0.5-0.7,1.2-1.1,2-1.1c0.8,0,1.6,0.5,2,1.1C133.7,433.3,136.4,437,138.3,439.8z
		"/>
	<path class="st1" d="M256,439.8c0.6,0.8,0.6,1.8,0.1,2.6c-0.5,0.8-1.2,1.4-2.3,1.4h-12.8c-0.9,0-1.8-0.6-2.3-1.4
		c-0.5-0.8-0.3-1.8,0.1-2.6c1.9-2.8,4.5-6.5,6.3-9.1c0.5-0.7,1.2-1.1,2-1.1c0.8,0,1.6,0.5,2,1.1C251.5,433.3,254.1,437,256,439.8z"
		/>
	<path class="st1" d="M376.9,439.8c0.6,0.8,0.6,1.8,0.1,2.6c-0.5,0.8-1.2,1.4-2.3,1.4H362c-0.9,0-1.8-0.6-2.3-1.4s-0.3-1.8,0.1-2.6
		c1.9-2.8,4.5-6.5,6.3-9.1c0.5-0.7,1.2-1.1,2-1.1c0.8,0,1.6,0.5,2,1.1C372.4,433.3,375,437,376.9,439.8z"/>
	<path class="st2" d="M238.3,382.6c-2.5,0-4.5,2-4.5,4.5v34.6h18.8v-21.9c0-1.8-1.5-3.2-3.2-3.2l0,0c-1.8,0-3.2-1.5-3.2-3.2
		c0-1.9,0-4.3,0-6.3c0-2.5-2-4.5-4.5-4.5C240.7,382.6,239.5,382.6,238.3,382.6L238.3,382.6z"/>
	<path class="st2" d="M139.9,342.1c0-0.8-0.7-1.5-1.5-1.5h-4.3c-0.8,0-1.5,0.7-1.5,1.5v4.3c0,0.8,0.7,1.5,1.5,1.5h4.3
		c0.8,0,1.5-0.7,1.5-1.5V342.1z"/>
</g>
</svg>
