<?xml version="1.0" encoding="utf-8"?>
<!-- Generator: Adobe Illustrator 25.0.1, SVG Export Plug-In . SVG Version: 6.00 Build 0)  -->
<svg version="1.1" id="Layer_1" xmlns="http://www.w3.org/2000/svg" xmlns:xlink="http://www.w3.org/1999/xlink" x="0px" y="0px"
	 viewBox="0 0 1920 1080" style="enable-background:new 0 0 1920 1080;" xml:space="preserve">
<style type="text/css">
	.st0{fill:#00B9BC;}
	.st1{fill:#EAEAEA;}
	.st2{fill:#00484A;}
	.st3{fill:none;}
	.st4{fill:#BEBFC3;}
	.st5{fill:none;stroke:#00484A;stroke-width:10;stroke-linecap:round;stroke-miterlimit:10;}
</style>
<g>
	<rect x="118.5" y="613" class="st0" width="501.8" height="372.5"/>
	<rect x="1291" y="69" class="st0" width="415.5" height="471"/>
	<g>
		<g>
			<g>
				<rect x="918" y="519.5" class="st1" width="466" height="466"/>
				<path class="st2" d="M1389,990.5H913v-476h476V990.5z M923,980.5h456v-456H923V980.5z"/>
			</g>
			<rect x="918" y="519.5" class="st2" width="466" height="119"/>
			<path class="st2" d="M1327.9,519.5c-12.7,20.6-23.7,45.6-31.7,77.4C1229,862.8,1054.3,706.7,918,797.6V519.5H1327.9z"/>
		</g>
		<g>
			<g>
				<rect x="970.9" y="494" class="st1" width="466" height="466"/>
				<path class="st2" d="M1441.9,965h-476V489h476V965z M975.9,955h456V499h-456V955z"/>
			</g>
			<rect x="970.9" y="494" class="st2" width="466" height="119"/>
			<path class="st2" d="M1334.1,494c-15.4,22.3-28.6,50.1-37.9,86.9c-58.8,232.4-199.6,142.3-325.2,176.8V494H1334.1z"/>
		</g>
		<g>
			<g>
				<rect x="1023.8" y="468.5" class="st1" width="466" height="466"/>
				<path class="st2" d="M1494.8,939.5h-476v-476h476V939.5z M1028.8,929.5h456v-456h-456V929.5z"/>
			</g>
			<rect x="1023.8" y="468.5" class="st2" width="466" height="119"/>
			<path class="st2" d="M1347.4,468.5c-21,25-39.3,57.3-51.2,104.4C1245.6,773.1,1134,734,1023.8,741.3V468.5H1347.4z"/>
		</g>
		<g>
			<g>
				<rect x="1076.8" y="443" class="st1" width="466" height="466"/>
				<path class="st2" d="M1547.8,914h-476V438h476V914z M1081.8,904h456V448h-456V904z"/>
			</g>
			<rect x="1076.8" y="443" class="st2" width="466" height="119"/>
			<path class="st2" d="M1358,443c-25.4,26.6-48,61.3-61.9,116.3c-42.5,168-127.9,167.5-219.4,167.3V443H1358z"/>
		</g>
		<g>
			<g>
				<rect x="1129.7" y="417.5" class="st1" width="466" height="466"/>
				<path class="st2" d="M1600.7,888.5h-476v-476h476V888.5z M1134.7,878.5h456v-456h-456V878.5z"/>
			</g>
			<rect x="1129.7" y="417.5" class="st2" width="466" height="119"/>
			<path class="st2" d="M1366.5,417.5c-28.8,27.7-54.9,63.8-70.3,124.8c-34.1,135-96,161.2-166.5,166.2v-291H1366.5z"/>
		</g>
		<g>
			<g>
				<rect x="1182.6" y="392" class="st1" width="466" height="466"/>
				<path class="st2" d="M1653.6,863h-476V387h476V863z M1187.6,853h456V397h-456V853z"/>
			</g>
			<rect x="1182.6" y="392" class="st2" width="466" height="119"/>
			<path class="st2" d="M1381.4,392c-34.5,29.7-67.2,66.9-85.2,138.3c-25.3,99.9-65.7,140.2-113.6,156.5V392H1381.4z"/>
		</g>
		<g>
			<g>
				<rect x="1235.5" y="366.5" class="st1" width="466" height="466"/>
				<path class="st2" d="M1404.8,366.5c-39.5,32-63.4,70.5-83.8,151.5c-17.2,67.8-44,109-85.5,130.7V366.5H1404.8z"/>
				<path class="st2" d="M1706.5,837.5h-476v-476h476V837.5z M1240.5,827.5h456v-456h-456V827.5z"/>
			</g>
			<rect x="1235.5" y="366.5" class="st2" width="466" height="119"/>
		</g>
	</g>
	<g>
		<path class="st3" d="M1249.3,358.9h-41.9h-41.9h-41.9h-41.9h-41.9h-41.9H956h-41.9h-41.9h-21.4c0,0,0,0,0,0.1h21.4h41.9H956h41.9
			h41.9h41.9h41.9h41.9h41.9L1249.3,358.9l41.9,0.1h29.3c0,0,0,0,0-0.1h-29.3H1249.3z"/>
		<path class="st3" d="M1207.3,442.5h-41.9h-41.9h-41.9h-41.9h-41.9h-41.9H914h-41.9h-41.9H814c0,0,0,0,0,0.1h15.9h41.9h41.9h41.9
			h41.9h41.9h41.9h41.9h41.9L1207.3,442.5l41.9,0.1h34.7c0,0,0,0,0-0.1h-34.8H1207.3z"/>
		<path class="st3" d="M1417,191.8h-41.9h-41.9h-41.9h-41.9h-41.9h-41.9h-41.9h-41.9h-41.9h-33.8c0,0,0,0,0,0.1h33.8h41.9h41.9h41.9
			h41.9h41.9h41.9h41.9h41.9L1417,191.8l41.9,0.1h16.9c0,0,0,0,0-0.1h-16.9H1417z"/>
		<path class="st3" d="M1333.1,275.4h-41.9h-41.9h-41.9h-41.9h-41.9h-41.9h-41.9h-41.9H956h-19.1c0,0-0.1,0-0.1,0.1h19.1h41.9h41.9
			h41.9h41.9h41.9h41.9h41.9h41.9L1333.1,275.4l41.9,0.1h31.5c0,0,0.1,0,0.1-0.1H1375H1333.1z"/>
		<path class="st3" d="M1207.3,526h-41.9h-41.9h-41.9h-41.9h-41.9h-41.9H914h-41.9h-41.9H788h-4.6c0,0,0,0,0,0.1h4.7H830h41.9h41.9
			h41.9h41.9h41.9h41.9h41.9h41.9L1207.3,526l41.9,0.1h4.1c0,0,0,0,0-0.1h-4.1H1207.3z"/>
		<path class="st3" d="M746.1,776.7h-41.9h-41.9h-41.9h-41.9h-41.9h-41.9h-41.9h-41.9H369h-13.6c0,0,0,0,0,0.1H369h41.9h41.9h41.9
			h41.9h41.9h41.9h41.9h41.9L746.1,776.7l41.9,0.1h37.1c0,0,0,0,0-0.1H788H746.1z"/>
		<path class="st3" d="M746.1,860.2h-41.9h-41.9h-41.9h-41.9h-41.9h-41.9h-41.9h-41.9H369h-11.4c0,0,0,0,0,0.1H369h41.9h41.9h41.9
			h41.9h41.9h41.9h41.9h41.9L746.1,860.2l41.9,0.1h39.2c0,0,0,0,0-0.1H788H746.1z"/>
		<path class="st3" d="M1417,108.3h-41.9h-41.9h-41.9h-41.9h-41.9h-41.9h-41.9h-41.9h-41.9h-14.1c0,0,0,0,0,0.1h14.1h41.9h41.9h41.9
			h41.9h41.9h41.9h41.9h41.9L1417,108.3l41.9,0.1h36.5c0,0,0,0,0-0.1h-36.5H1417z"/>
		<path class="st3" d="M1081.5,609.6h-41.9h-41.9h-41.9h-41.9H872h-41.9H788h-41.9h-41.9h-41.9h-3c-0.2,0-0.4,0-0.6,0.1h3.6h41.9
			h41.9H788h41.9h41.9h41.9h41.9h41.9h41.9L1081.5,609.6l41.9,0.1h5.2c0.2,0,0.4,0,0.6-0.1h-5.8H1081.5z"/>
		<path class="st3" d="M788,693.1h-41.9h-41.9h-41.9h-41.9h-41.9h-41.9h-41.9h-41.9h-41.9h-26.7c0,0,0,0,0,0.1h26.7h41.9h41.9h41.9
			h41.9h41.9h41.9h41.9h41.9L788,693.1l41.9,0.1h24c0,0,0,0,0-0.1h-24H788z"/>
		<path class="st3" d="M746.1,943.8h-41.9h-41.9h-41.9h-41.9h-41.9h-41.9h-41.9h-41.9H369h-16.2c0,0,0,0,0,0.1H369h41.9h41.9h41.9
			h41.9h41.9h41.9h41.9h41.9L746.1,943.8l41.9,0.1h34.5c0,0,0,0,0-0.1H788H746.1z"/>
		<path class="st1" d="M352.5,943.9c-2.9,13.7-7.2,27.6-13.5,41.6h29.7v-41.6H352.5z"/>
		<rect x="368.7" y="943.9" class="st4" width="41.9" height="41.6"/>
		<rect x="410.6" y="943.9" class="st1" width="41.9" height="41.6"/>
		<rect x="452.6" y="943.9" class="st4" width="41.9" height="41.6"/>
		<rect x="494.5" y="943.9" class="st1" width="41.9" height="41.6"/>
		<rect x="536.4" y="943.9" class="st4" width="41.9" height="41.6"/>
		<rect x="578.3" y="943.9" class="st1" width="41.9" height="41.6"/>
		<rect x="620.3" y="943.9" class="st4" width="41.9" height="41.6"/>
		<rect x="662.2" y="943.9" class="st1" width="41.9" height="41.6"/>
		<rect x="704.1" y="943.9" class="st4" width="41.9" height="41.6"/>
		<rect x="746.1" y="943.9" class="st1" width="41.9" height="41.6"/>
		<path class="st4" d="M788,985.5h21c6.3-14.1,10.6-27.9,13.5-41.6H788V985.5z"/>
		<path class="st1" d="M368.7,860.3h-11.4c0.6,13.7,1,27.6,0.3,41.7h11.1V860.3z"/>
		<rect x="368.7" y="860.3" class="st4" width="41.9" height="41.7"/>
		<rect x="410.6" y="860.3" class="st1" width="41.9" height="41.7"/>
		<rect x="452.6" y="860.3" class="st4" width="41.9" height="41.7"/>
		<rect x="494.5" y="860.3" class="st1" width="41.9" height="41.7"/>
		<rect x="536.4" y="860.3" class="st4" width="41.9" height="41.7"/>
		<rect x="578.3" y="860.3" class="st1" width="41.9" height="41.7"/>
		<rect x="620.3" y="860.3" class="st4" width="41.9" height="41.7"/>
		<rect x="662.2" y="860.3" class="st1" width="41.9" height="41.7"/>
		<rect x="704.1" y="860.3" class="st4" width="41.9" height="41.7"/>
		<rect x="746.1" y="860.3" class="st1" width="41.9" height="41.7"/>
		<path class="st4" d="M788,902.1h39.6c0.6-14.1,0.3-28-0.3-41.7H788V902.1z"/>
		<path class="st4" d="M368.7,902.1h-11.1c-0.6,13.7-2.1,27.6-5.1,41.7h16.2V902.1z"/>
		<rect x="368.7" y="902.1" class="st1" width="41.9" height="41.7"/>
		<rect x="410.6" y="902.1" class="st4" width="41.9" height="41.7"/>
		<rect x="452.6" y="902.1" class="st1" width="41.9" height="41.7"/>
		<rect x="494.5" y="902.1" class="st4" width="41.9" height="41.7"/>
		<rect x="536.4" y="902.1" class="st1" width="41.9" height="41.7"/>
		<rect x="578.3" y="902.1" class="st4" width="41.9" height="41.7"/>
		<rect x="620.3" y="902.1" class="st1" width="41.9" height="41.7"/>
		<rect x="662.2" y="902.1" class="st4" width="41.9" height="41.7"/>
		<rect x="704.1" y="902.1" class="st1" width="41.9" height="41.7"/>
		<rect x="746.1" y="902.1" class="st4" width="41.9" height="41.7"/>
		<path class="st1" d="M788,943.8h34.5c3-14.1,4.5-28,5.1-41.7H788V943.8z"/>
		<path class="st1" d="M368.7,776.8h-13.6c-0.9,13.7-0.7,27.6-0.1,41.7h13.7V776.8z"/>
		<rect x="368.7" y="776.8" class="st4" width="41.9" height="41.7"/>
		<rect x="410.6" y="776.8" class="st1" width="41.9" height="41.7"/>
		<rect x="452.6" y="776.8" class="st4" width="41.9" height="41.7"/>
		<rect x="494.5" y="776.8" class="st1" width="41.9" height="41.7"/>
		<rect x="536.4" y="776.8" class="st4" width="41.9" height="41.7"/>
		<rect x="578.3" y="776.8" class="st1" width="41.9" height="41.7"/>
		<rect x="620.3" y="776.8" class="st4" width="41.9" height="41.7"/>
		<rect x="662.2" y="776.8" class="st1" width="41.9" height="41.7"/>
		<rect x="704.1" y="776.8" class="st4" width="41.9" height="41.7"/>
		<rect x="746.1" y="776.8" class="st1" width="41.9" height="41.7"/>
		<path class="st4" d="M788,818.5h37c-0.6-14.1-0.9-28.1,0.1-41.7H788V818.5z"/>
		<path class="st4" d="M368.7,818.5H355c0.6,13.7,1.6,27.6,2.3,41.7h11.4L368.7,818.5L368.7,818.5z"/>
		<rect x="368.7" y="818.5" class="st1" width="41.9" height="41.7"/>
		<rect x="410.6" y="818.5" class="st4" width="41.9" height="41.7"/>
		<rect x="452.6" y="818.5" class="st1" width="41.9" height="41.7"/>
		<rect x="494.5" y="818.5" class="st4" width="41.9" height="41.7"/>
		<rect x="536.4" y="818.5" class="st1" width="41.9" height="41.7"/>
		<rect x="578.3" y="818.5" class="st4" width="41.9" height="41.7"/>
		<rect x="620.3" y="818.5" class="st1" width="41.9" height="41.7"/>
		<rect x="662.2" y="818.5" class="st4" width="41.9" height="41.7"/>
		<rect x="704.1" y="818.5" class="st1" width="41.9" height="41.7"/>
		<rect x="746.1" y="818.5" class="st4" width="41.9" height="41.7"/>
		<path class="st1" d="M788,860.2h39.2c-0.7-14.1-1.6-28-2.3-41.7h-37L788,860.2L788,860.2z"/>
		<path class="st1" d="M368.7,719.2c-2.4,5.2-4.4,10.5-6,15.8h6V719.2z"/>
		<path class="st4" d="M410.6,734.9v-41.7h-26.7c-6.3,8.6-11.2,17.2-15.2,26V735L410.6,734.9L410.6,734.9z"/>
		<rect x="410.6" y="693.2" class="st1" width="41.9" height="41.7"/>
		<rect x="452.6" y="693.2" class="st4" width="41.9" height="41.7"/>
		<rect x="494.5" y="693.2" class="st1" width="41.9" height="41.7"/>
		<rect x="536.4" y="693.2" class="st4" width="41.9" height="41.7"/>
		<rect x="578.3" y="693.2" class="st1" width="41.9" height="41.7"/>
		<rect x="620.3" y="693.2" class="st4" width="41.9" height="41.7"/>
		<rect x="662.2" y="693.2" class="st1" width="41.9" height="41.7"/>
		<rect x="704.1" y="693.2" class="st4" width="41.9" height="41.7"/>
		<rect x="746.1" y="693.2" class="st1" width="41.9" height="41.7"/>
		<rect x="788" y="693.2" class="st4" width="41.9" height="41.7"/>
		<path class="st1" d="M829.9,734.9h2.7c4.5-14.2,11.3-28.1,21.2-41.7h-24L829.9,734.9L829.9,734.9z"/>
		<path class="st4" d="M368.7,734.9h-6c-4.3,13.7-6.6,27.6-7.6,41.7h13.6V734.9z"/>
		<rect x="368.7" y="734.9" class="st1" width="41.9" height="41.7"/>
		<rect x="410.6" y="734.9" class="st4" width="41.9" height="41.7"/>
		<rect x="452.6" y="734.9" class="st1" width="41.9" height="41.7"/>
		<rect x="494.5" y="734.9" class="st4" width="41.9" height="41.7"/>
		<rect x="536.4" y="734.9" class="st1" width="41.9" height="41.7"/>
		<rect x="578.3" y="734.9" class="st4" width="41.9" height="41.7"/>
		<rect x="620.3" y="734.9" class="st1" width="41.9" height="41.7"/>
		<rect x="662.2" y="734.9" class="st4" width="41.9" height="41.7"/>
		<rect x="704.1" y="734.9" class="st1" width="41.9" height="41.7"/>
		<rect x="746.1" y="734.9" class="st4" width="41.9" height="41.7"/>
		<path class="st1" d="M788,734.9v41.7h37.1c0.8-10.9,2.2-21.6,4.9-32.1v-9.6L788,734.9L788,734.9z"/>
		<path class="st4" d="M829.9,744.5c0.8-3.2,1.7-6.4,2.7-9.6h-2.7V744.5z"/>
		<path class="st1" d="M452.6,635.1c-7.4,3.8-14.8,8.3-22.1,13.4c-1.3,1-2.7,1.9-4,2.9h26v-16.3L452.6,635.1L452.6,635.1z"/>
		<path class="st4" d="M494.5,651.4v-31.7c-14.2,3.4-28.2,8.3-41.9,15.4v16.3H494.5z"/>
		<path class="st1" d="M536.4,651.4v-38.1c-14.1,1.1-28.1,3-41.9,6.4v31.7L536.4,651.4L536.4,651.4z"/>
		<path class="st4" d="M578.3,651.4v-39.6c-13.9,0.1-27.9,0.4-41.9,1.5v38.1H578.3z"/>
		<path class="st1" d="M620.3,651.4v-39.7c-13.8,0.2-27.8,0-41.9,0.1v39.6L620.3,651.4L620.3,651.4z"/>
		<path class="st4" d="M662.2,651.4v-41.7h-3.6c-12.5,1.4-25.3,1.9-38.4,2.1v39.7L662.2,651.4L662.2,651.4z"/>
		<rect x="662.2" y="609.6" class="st1" width="41.9" height="41.7"/>
		<rect x="704.1" y="609.6" class="st4" width="41.9" height="41.7"/>
		<rect x="746.1" y="609.6" class="st1" width="41.9" height="41.7"/>
		<rect x="788" y="609.6" class="st4" width="41.9" height="41.7"/>
		<rect x="829.9" y="609.6" class="st1" width="41.9" height="41.7"/>
		<path class="st4" d="M871.9,609.6v41.7h24.7c1.3-1,2.6-1.9,4-2.9c4.4-3.1,8.8-6,13.3-8.6v-30.2H871.9z"/>
		<path class="st1" d="M913.8,609.6v30.2c13.7-8,27.7-13.8,41.9-17.9v-12.3H913.8z"/>
		<path class="st4" d="M955.7,609.6V622c13.8-4,27.8-6.4,41.9-7.9v-4.4L955.7,609.6L955.7,609.6z"/>
		<path class="st1" d="M997.7,609.6v4.4c14-1.5,28-2,41.9-2.2v-2.2H997.7z"/>
		<path class="st4" d="M1039.6,609.6v2.2c14.1-0.2,28.1,0,41.9-0.1v-2.2L1039.6,609.6L1039.6,609.6z"/>
		<path class="st1" d="M1081.5,609.6v2.2c14.2-0.1,28.3-0.4,41.9-1.6v-0.5h-41.9V609.6z"/>
		<path class="st4" d="M1123.5,610.2c1.7-0.2,3.4-0.3,5.2-0.5h-5.2V610.2z"/>
		<path class="st1" d="M410.6,664.3c-10.8,9.5-19.5,19.1-26.7,28.9h26.7V664.3z"/>
		<path class="st4" d="M452.6,693.1v-41.7h-26c-5.7,4.3-11,8.5-15.9,12.9v28.9h41.9V693.1z"/>
		<rect x="452.6" y="651.4" class="st1" width="41.9" height="41.7"/>
		<rect x="494.5" y="651.4" class="st4" width="41.9" height="41.7"/>
		<rect x="536.4" y="651.4" class="st1" width="41.9" height="41.7"/>
		<rect x="578.3" y="651.4" class="st4" width="41.9" height="41.7"/>
		<rect x="620.3" y="651.4" class="st1" width="41.9" height="41.7"/>
		<rect x="662.2" y="651.4" class="st4" width="41.9" height="41.7"/>
		<rect x="704.1" y="651.4" class="st1" width="41.9" height="41.7"/>
		<rect x="746.1" y="651.4" class="st4" width="41.9" height="41.7"/>
		<rect x="788" y="651.4" class="st1" width="41.9" height="41.7"/>
		<path class="st4" d="M829.9,651.4v41.7h24c5.1-7,11-13.9,17.9-20.7v-21H829.9z"/>
		<path class="st1" d="M871.9,672.4c7.1-7.1,15.3-14.1,24.7-21h-24.7V672.4z"/>
		<path class="st1" d="M788,526.1h-4.7c-9.2,17.1-19.4,30.8-30.2,41.7H788V526.1z"/>
		<rect x="788" y="526.1" class="st4" width="41.9" height="41.7"/>
		<rect x="829.9" y="526.1" class="st1" width="41.9" height="41.7"/>
		<rect x="871.9" y="526.1" class="st4" width="41.9" height="41.7"/>
		<rect x="913.8" y="526.1" class="st1" width="41.9" height="41.7"/>
		<rect x="955.7" y="526.1" class="st4" width="41.9" height="41.7"/>
		<rect x="997.7" y="526.1" class="st1" width="41.9" height="41.7"/>
		<rect x="1039.6" y="526.1" class="st4" width="41.9" height="41.7"/>
		<rect x="1081.5" y="526.1" class="st1" width="41.9" height="41.7"/>
		<rect x="1123.5" y="526.1" class="st4" width="41.9" height="41.7"/>
		<rect x="1165.4" y="526.1" class="st1" width="41.9" height="41.7"/>
		<path class="st4" d="M1207.3,526.1v41.7h15.8c9.3-9.4,18-20.7,26.2-34.5v-7.2H1207.3z"/>
		<path class="st1" d="M1249.3,533.3c1.4-2.3,2.7-4.7,4.1-7.2h-4.1V533.3z"/>
		<path class="st1" d="M662.2,609.2c-1,0.1-2,0.2-3,0.3h3V609.2z"/>
		<path class="st4" d="M704.1,609.6v-10.1c-13.4,5-27.5,8-41.9,9.8v0.3H704.1z"/>
		<path class="st1" d="M746.1,609.6v-35.1C733,586,719,594,704.2,599.5v10.1H746.1z"/>
		<path class="st4" d="M788,609.6v-41.7h-34.9c-2.3,2.3-4.7,4.5-7,6.6v35.1L788,609.6L788,609.6z"/>
		<rect x="788" y="567.8" class="st1" width="41.9" height="41.7"/>
		<rect x="829.9" y="567.8" class="st4" width="41.9" height="41.7"/>
		<rect x="871.9" y="567.8" class="st1" width="41.9" height="41.7"/>
		<rect x="913.8" y="567.8" class="st4" width="41.9" height="41.7"/>
		<rect x="955.7" y="567.8" class="st1" width="41.9" height="41.7"/>
		<rect x="997.7" y="567.8" class="st4" width="41.9" height="41.7"/>
		<rect x="1039.6" y="567.8" class="st1" width="41.9" height="41.7"/>
		<rect x="1081.5" y="567.8" class="st4" width="41.9" height="41.7"/>
		<path class="st1" d="M1123.5,567.8v41.7h5.8c12.4-1.4,24.5-3.6,36.2-7.2v-34.6L1123.5,567.8L1123.5,567.8z"/>
		<path class="st4" d="M1165.4,567.8v34.6c14.7-4.5,28.8-11.1,41.9-20.9v-13.7L1165.4,567.8L1165.4,567.8z"/>
		<path class="st1" d="M1207.3,581.5c5.4-4,10.7-8.6,15.8-13.7h-15.8V581.5z"/>
		<path class="st4" d="M829.9,442.5H814c-0.2,0.7-0.3,1.3-0.5,2c-3.7,14.5-7.6,27.7-11.9,39.8H830L829.9,442.5L829.9,442.5z"/>
		<rect x="829.9" y="442.5" class="st1" width="41.9" height="41.7"/>
		<rect x="871.9" y="442.5" class="st4" width="41.9" height="41.7"/>
		<rect x="913.8" y="442.5" class="st1" width="41.9" height="41.7"/>
		<rect x="955.7" y="442.5" class="st4" width="41.9" height="41.7"/>
		<rect x="997.7" y="442.5" class="st1" width="41.9" height="41.7"/>
		<rect x="1039.6" y="442.5" class="st4" width="41.9" height="41.7"/>
		<rect x="1081.5" y="442.5" class="st1" width="41.9" height="41.7"/>
		<rect x="1123.5" y="442.5" class="st4" width="41.9" height="41.7"/>
		<rect x="1165.4" y="442.5" class="st1" width="41.9" height="41.7"/>
		<rect x="1207.3" y="442.5" class="st4" width="41.9" height="41.7"/>
		<path class="st1" d="M1249.3,484.3h22.3c4.3-12.1,8.3-25.3,11.9-39.8c0.2-0.7,0.3-1.3,0.5-2h-34.7L1249.3,484.3L1249.3,484.3z"/>
		<path class="st4" d="M788,517c-1.5,3.1-3.1,6.1-4.6,9h4.6V517z"/>
		<path class="st1" d="M829.9,526v-41.7h-28.4c-4.2,12-8.8,22.9-13.6,32.7v9H829.9z"/>
		<rect x="829.9" y="484.3" class="st4" width="41.9" height="41.7"/>
		<rect x="871.9" y="484.3" class="st1" width="41.9" height="41.7"/>
		<rect x="913.8" y="484.3" class="st4" width="41.9" height="41.7"/>
		<rect x="955.7" y="484.3" class="st1" width="41.9" height="41.7"/>
		<rect x="997.7" y="484.3" class="st4" width="41.9" height="41.7"/>
		<rect x="1039.6" y="484.3" class="st1" width="41.9" height="41.7"/>
		<rect x="1081.5" y="484.3" class="st4" width="41.9" height="41.7"/>
		<rect x="1123.5" y="484.3" class="st1" width="41.9" height="41.7"/>
		<rect x="1165.4" y="484.3" class="st4" width="41.9" height="41.7"/>
		<rect x="1207.3" y="484.3" class="st1" width="41.9" height="41.7"/>
		<path class="st4" d="M1249.3,526h4.1c6.5-12.1,12.6-26,18.2-41.7h-22.3L1249.3,526L1249.3,526z"/>
		<path class="st4" d="M829.9,396.2c-0.7,1.5-1.3,3-2,4.6h2V396.2z"/>
		<path class="st1" d="M871.9,400.7V359h-21.4c-7.4,10.9-14.3,23.2-20.5,37.2v4.6h41.9V400.7z"/>
		<rect x="871.9" y="359" class="st4" width="41.9" height="41.7"/>
		<rect x="913.8" y="359" class="st1" width="41.9" height="41.7"/>
		<rect x="955.7" y="359" class="st4" width="41.9" height="41.7"/>
		<rect x="997.7" y="359" class="st1" width="41.9" height="41.7"/>
		<rect x="1039.6" y="359" class="st4" width="41.9" height="41.7"/>
		<rect x="1081.5" y="359" class="st1" width="41.9" height="41.7"/>
		<rect x="1123.5" y="359" class="st4" width="41.9" height="41.7"/>
		<rect x="1165.4" y="359" class="st1" width="41.9" height="41.7"/>
		<rect x="1207.3" y="359" class="st4" width="41.9" height="41.7"/>
		<rect x="1249.3" y="359" class="st1" width="41.9" height="41.7"/>
		<path class="st4" d="M1291.2,400.7h6.8c6.7-15.9,14.3-29.6,22.5-41.7h-29.3V400.7z"/>
		<path class="st1" d="M829.9,400.7h-2c-5.3,12.5-9.9,26.3-13.9,41.7h15.9V400.7z"/>
		<rect x="829.9" y="400.7" class="st4" width="41.9" height="41.7"/>
		<rect x="871.9" y="400.7" class="st1" width="41.9" height="41.7"/>
		<rect x="913.8" y="400.7" class="st4" width="41.9" height="41.7"/>
		<rect x="955.7" y="400.7" class="st1" width="41.9" height="41.7"/>
		<rect x="997.7" y="400.7" class="st4" width="41.9" height="41.7"/>
		<rect x="1039.6" y="400.7" class="st1" width="41.9" height="41.7"/>
		<rect x="1081.5" y="400.7" class="st4" width="41.9" height="41.7"/>
		<rect x="1123.5" y="400.7" class="st1" width="41.9" height="41.7"/>
		<rect x="1165.4" y="400.7" class="st4" width="41.9" height="41.7"/>
		<rect x="1207.3" y="400.7" class="st1" width="41.9" height="41.7"/>
		<path class="st4" d="M1249.3,400.7v41.7h34.8c2.2-8.5,4.6-16.4,7.2-24v-17.8L1249.3,400.7L1249.3,400.7z"/>
		<path class="st1" d="M1291.2,418.5c2.1-6.2,4.4-12.1,6.8-17.8h-6.8V418.5z"/>
		<path class="st4" d="M913.8,293.7c-9.2,7.4-18.3,15.1-27.3,23.5h27.3V293.7z"/>
		<path class="st1" d="M955.7,317.2v-41.7h-19.1c-7.5,6.1-15.1,12.1-22.8,18.3v23.5L955.7,317.2L955.7,317.2z"/>
		<rect x="955.7" y="275.4" class="st4" width="41.9" height="41.7"/>
		<rect x="997.7" y="275.4" class="st1" width="41.9" height="41.7"/>
		<rect x="1039.6" y="275.4" class="st4" width="41.9" height="41.7"/>
		<rect x="1081.5" y="275.4" class="st1" width="41.9" height="41.7"/>
		<rect x="1123.5" y="275.4" class="st4" width="41.9" height="41.7"/>
		<rect x="1165.4" y="275.4" class="st1" width="41.9" height="41.7"/>
		<rect x="1207.3" y="275.4" class="st4" width="41.9" height="41.7"/>
		<rect x="1249.3" y="275.4" class="st1" width="41.9" height="41.7"/>
		<rect x="1291.2" y="275.4" class="st4" width="41.9" height="41.7"/>
		<path class="st1" d="M1333.1,275.4v41.7h23.4c6.1-5.7,12.3-11.1,18.5-16.3v-25.4L1333.1,275.4L1333.1,275.4z"/>
		<path class="st4" d="M1375.1,300.9c10.5-8.8,21.2-17,31.5-25.4h-31.5V300.9z"/>
		<path class="st4" d="M871.9,332c-7.4,8.1-14.6,17-21.4,26.9h21.4V332z"/>
		<path class="st1" d="M913.8,358.9v-41.7h-27.3c-5,4.7-9.9,9.6-14.7,14.8v26.9L913.8,358.9L913.8,358.9z"/>
		<rect x="913.8" y="317.2" class="st4" width="41.9" height="41.7"/>
		<rect x="955.7" y="317.2" class="st1" width="41.9" height="41.7"/>
		<rect x="997.7" y="317.2" class="st4" width="41.9" height="41.7"/>
		<rect x="1039.6" y="317.2" class="st1" width="41.9" height="41.7"/>
		<rect x="1081.5" y="317.2" class="st4" width="41.9" height="41.7"/>
		<rect x="1123.5" y="317.2" class="st1" width="41.9" height="41.7"/>
		<rect x="1165.4" y="317.2" class="st4" width="41.9" height="41.7"/>
		<rect x="1207.3" y="317.2" class="st1" width="41.9" height="41.7"/>
		<rect x="1249.3" y="317.2" class="st4" width="41.9" height="41.7"/>
		<path class="st1" d="M1291.2,317.2v41.7h29.3c4.1-6,8.3-11.6,12.6-16.9v-24.9L1291.2,317.2L1291.2,317.2z"/>
		<path class="st4" d="M1333.1,342.1c7.5-9.1,15.4-17.3,23.4-24.9h-23.4V342.1z"/>
		<path class="st4" d="M997.7,208c-5.3,9.4-11.2,17.8-17.5,25.6h17.5V208z"/>
		<path class="st1" d="M1039.6,233.6v-41.7h-33.8c-2.5,5.7-5.2,11.1-8.1,16.2v25.6h41.9V233.6z"/>
		<rect x="1039.6" y="191.9" class="st4" width="41.9" height="41.7"/>
		<rect x="1081.5" y="191.9" class="st1" width="41.9" height="41.7"/>
		<rect x="1123.5" y="191.9" class="st4" width="41.9" height="41.7"/>
		<rect x="1165.4" y="191.9" class="st1" width="41.9" height="41.7"/>
		<rect x="1207.3" y="191.9" class="st4" width="41.9" height="41.7"/>
		<rect x="1249.3" y="191.9" class="st1" width="41.9" height="41.7"/>
		<rect x="1291.2" y="191.9" class="st4" width="41.9" height="41.7"/>
		<rect x="1333.1" y="191.9" class="st1" width="41.9" height="41.7"/>
		<rect x="1375.1" y="191.9" class="st4" width="41.9" height="41.7"/>
		<path class="st1" d="M1417,191.9v41.7h33.2c3-3.7,6-7.6,8.8-11.7v-30.1h-42V191.9z"/>
		<path class="st4" d="M1458.9,222c6.2-9,11.9-18.9,16.9-30.1h-16.9V222z"/>
		<path class="st4" d="M955.7,259.1c-6.2,5.6-12.6,11-19.1,16.3h19.1V259.1z"/>
		<path class="st1" d="M997.7,275.4v-41.7h-17.5c-7.6,9.3-15.8,17.6-24.4,25.5v16.3h41.9V275.4z"/>
		<rect x="997.7" y="233.6" class="st4" width="41.9" height="41.7"/>
		<rect x="1039.6" y="233.6" class="st1" width="41.9" height="41.7"/>
		<rect x="1081.5" y="233.6" class="st4" width="41.9" height="41.7"/>
		<rect x="1123.5" y="233.6" class="st1" width="41.9" height="41.7"/>
		<rect x="1165.4" y="233.6" class="st4" width="41.9" height="41.7"/>
		<rect x="1207.3" y="233.6" class="st1" width="41.9" height="41.7"/>
		<rect x="1249.3" y="233.6" class="st4" width="41.9" height="41.7"/>
		<rect x="1291.2" y="233.6" class="st1" width="41.9" height="41.7"/>
		<rect x="1333.1" y="233.6" class="st4" width="41.9" height="41.7"/>
		<path class="st1" d="M1375.1,233.6v41.7h31.6c3.5-2.8,6.9-5.7,10.3-8.6v-33.2L1375.1,233.6L1375.1,233.6z"/>
		<path class="st4" d="M1417,266.8c11.8-10.1,23-20.7,33.2-33.2H1417V266.8z"/>
		<path class="st1" d="M1039.6,108.3h-14.1c-1.3,15.3-3.4,29.2-6.2,41.7h20.3V108.3z"/>
		<rect x="1039.6" y="108.3" class="st4" width="41.9" height="41.7"/>
		<rect x="1081.5" y="108.3" class="st1" width="41.9" height="41.7"/>
		<rect x="1123.5" y="108.3" class="st4" width="41.9" height="41.7"/>
		<rect x="1165.4" y="108.3" class="st1" width="41.9" height="41.7"/>
		<rect x="1207.3" y="108.3" class="st4" width="41.9" height="41.7"/>
		<rect x="1249.3" y="108.3" class="st1" width="41.9" height="41.7"/>
		<rect x="1291.2" y="108.3" class="st4" width="41.9" height="41.7"/>
		<rect x="1333.1" y="108.3" class="st1" width="41.9" height="41.7"/>
		<rect x="1375.1" y="108.3" class="st4" width="41.9" height="41.7"/>
		<rect x="1417" y="108.3" class="st1" width="41.9" height="41.7"/>
		<path class="st4" d="M1458.9,150.1h30.4c2.8-12.6,4.9-26.4,6.2-41.7H1459L1458.9,150.1L1458.9,150.1z"/>
		<path class="st4" d="M1039.6,150.1h-20.3c-3.5,15.7-8,29.5-13.5,41.7h33.8V150.1z"/>
		<rect x="1039.6" y="150.1" class="st1" width="41.9" height="41.7"/>
		<rect x="1081.5" y="150.1" class="st4" width="41.9" height="41.7"/>
		<rect x="1123.5" y="150.1" class="st1" width="41.9" height="41.7"/>
		<rect x="1165.4" y="150.1" class="st4" width="41.9" height="41.7"/>
		<rect x="1207.3" y="150.1" class="st1" width="41.9" height="41.7"/>
		<rect x="1249.3" y="150.1" class="st4" width="41.9" height="41.7"/>
		<rect x="1291.2" y="150.1" class="st1" width="41.9" height="41.7"/>
		<rect x="1333.1" y="150.1" class="st4" width="41.9" height="41.7"/>
		<rect x="1375.1" y="150.1" class="st1" width="41.9" height="41.7"/>
		<rect x="1417" y="150.1" class="st4" width="41.9" height="41.7"/>
		<path class="st1" d="M1458.9,191.8h16.9c5.4-12.2,10-26,13.5-41.7h-30.4V191.8z"/>
		<path class="st4" d="M1039.6,69H1027c0,14.1-0.5,27.1-1.5,39.3h14.1V69z"/>
		<rect x="1039.6" y="69" class="st1" width="41.9" height="39.3"/>
		<rect x="1081.5" y="69" class="st4" width="41.9" height="39.3"/>
		<rect x="1123.5" y="69" class="st1" width="41.9" height="39.3"/>
		<rect x="1165.4" y="69" class="st4" width="41.9" height="39.3"/>
		<rect x="1207.3" y="69" class="st1" width="41.9" height="39.3"/>
		<rect x="1249.3" y="69" class="st4" width="41.9" height="39.3"/>
		<rect x="1291.2" y="69" class="st1" width="41.9" height="39.3"/>
		<rect x="1333.1" y="69" class="st4" width="41.9" height="39.3"/>
		<rect x="1375.1" y="69" class="st1" width="41.9" height="39.3"/>
		<rect x="1417" y="69" class="st4" width="41.9" height="39.3"/>
		<path class="st1" d="M1458.9,108.3h36.5c1-12.1,1.6-25.2,1.5-39.3h-38.1L1458.9,108.3L1458.9,108.3z"/>
	</g>
	<g>
		<path class="st2" d="M340.8,176.3c16.4-16.4,36-29.5,57.4-38.4c21.4-8.9,44.6-13.5,67.7-13.5c23.2,0,46.3,4.6,67.7,13.5
			c21.4,8.8,41,22,57.4,38.4s29.5,36,38.4,57.4s13.5,44.6,13.5,67.7c0,23.2-4.6,46.3-13.5,67.7c-8.8,21.4-22,41-38.4,57.4l-7.1-7.1
			c15.5-15.5,27.9-34,36.2-54.2c8.4-20.2,12.7-42,12.7-63.9s-4.3-43.7-12.7-63.9c-8.3-20.2-20.7-38.7-36.2-54.2s-34-27.9-54.2-36.2
			c-20.2-8.4-42-12.7-63.9-12.7s-43.7,4.3-63.9,12.7c-20.2,8.3-38.7,20.7-54.2,36.2L340.8,176.3z"/>
		<path class="st2" d="M591.1,426.7c-69.1,69.1-181.2,69.1-250.3,0s-69.1-181.2,0-250.3"/>
	</g>
	<polygon class="st2" points="1672.5,158.9 1643.1,129.5 1605.5,167.2 1567.9,129.5 1538.5,158.9 1576.2,196.5 1538.5,234.1 
		1567.9,263.5 1605.5,225.8 1643.1,263.5 1672.5,234.1 1634.8,196.5 	"/>
	<path id="XMLID_2_" class="st2" d="M1507,69l-0.2,11.8l-0.1,5.9c0,2-0.2,3.9-0.3,5.9l-0.6,11.8l-1.1,11.8
		c-1.7,15.7-4.2,31.4-8.3,46.9c-4.2,15.5-9.8,30.7-17.4,45.1c-7.5,14.4-17.1,27.7-27.9,39.7c-5.3,6.1-11.1,11.6-16.9,17.1
		c-2.9,2.6-5.9,5.3-8.9,7.9c-3,2.5-6,5.1-9,7.6c-12,9.9-24.2,19.3-35.8,29c-23.2,19.4-44,40.5-58.5,66.4l-8.6-5.2l6-9.9l0.7-1.2
		l0.8-1.2l1.7-2.4l3.3-4.7c2.3-3.1,4.7-6.1,7.1-9.1c2.5-2.9,5-5.9,7.5-8.7c10.3-11.4,21.7-21.8,33.5-31.7c11.8-9.9,24-19.3,35.9-29
		c3-2.4,5.9-4.9,8.8-7.4s5.8-5.1,8.6-7.7c5.6-5.3,11.1-10.6,16.2-16.4c10.3-11.4,19.4-24,26.5-37.7c7.2-13.6,12.6-28.1,16.6-43
		s6.4-30.1,8-45.4l1.1-11.5l0.6-11.5c0.1-1.9,0.2-3.8,0.3-5.8l0.1-5.8L1497,69H1507z"/>
	<g>
		<circle class="st2" cx="1404.8" cy="607" r="5"/>
		<circle class="st2" cx="1449.8" cy="607" r="5"/>
		<circle class="st2" cx="1494.8" cy="607" r="5"/>
		<circle class="st2" cx="1539.8" cy="607" r="5"/>
	</g>
	<g>
		<circle class="st2" cx="1404.8" cy="650.5" r="5"/>
		<circle class="st2" cx="1449.8" cy="650.5" r="5"/>
		<circle class="st2" cx="1494.8" cy="650.5" r="5"/>
		<circle class="st2" cx="1539.8" cy="650.5" r="5"/>
	</g>
	<g>
		<circle class="st2" cx="1404.8" cy="694" r="5"/>
		<circle class="st2" cx="1449.8" cy="694" r="5"/>
		<circle class="st2" cx="1494.8" cy="694" r="5"/>
		<circle class="st2" cx="1539.8" cy="694" r="5"/>
	</g>
	<g>
		<circle class="st2" cx="1404.8" cy="737.5" r="5"/>
		<circle class="st2" cx="1449.8" cy="737.5" r="5"/>
		<circle class="st2" cx="1494.8" cy="737.5" r="5"/>
		<circle class="st2" cx="1539.8" cy="737.5" r="5"/>
	</g>
	<g>
		<path class="st2" d="M297.2,890.2L283.4,956h-17.1l13.8-65.8h-128l3.7-17.1l163.5-177.2h19.3l-38.1,178h26.8l-3.5,16.4h-26.6
			L297.2,890.2L297.2,890.2z M174.4,874.2h109l32.7-154.7L174.4,874.2z"/>
		<path class="st2" d="M527.3,914.1L476.6,956h-81.1l-33.1-41.8l37.4-176.5l50.6-41.8h81.1l33.3,41.8L527.3,914.1z M380.2,910.2
			l23.2,29.8h66.8l41.8-34.6l29.8-139.9L380.2,910.2z M415,746.6l-29.8,139.7l161.4-144.7l-23.2-29.8h-66.6L415,746.6z"/>
		<path class="st2" d="M713.2,890.2L699.5,956h-17.1l13.8-65.8h-128l3.7-17.1l163.5-177.2h19.3l-38.1,178h26.8l-3.5,16.4h-26.7
			V890.2z M590.5,874.2h109l32.7-154.7L590.5,874.2z"/>
	</g>
	<line class="st5" x1="812.8" y1="124.5" x2="1095.1" y2="406.8"/>
	<polygon class="st1" points="217.5,379.5 118.5,379.5 118.5,478.5 	"/>
</g>
</svg>
