<?xml version="1.0" encoding="utf-8"?>
<!-- Generator: Adobe Illustrator 25.0.1, SVG Export Plug-In . SVG Version: 6.00 Build 0)  -->
<svg version="1.1" id="Layer_1" xmlns="http://www.w3.org/2000/svg" xmlns:xlink="http://www.w3.org/1999/xlink" x="0px" y="0px"
	 viewBox="0 0 1554.4 921.5" style="enable-background:new 0 0 1554.4 921.5;" xml:space="preserve">
<style type="text/css">
	.st0{fill:#009092;}
	.st1{fill:#EAEAEA;}
	.st2{fill:#00484A;}
	.st3{fill:none;}
	.st4{fill:#BEBFC3;}
</style>
<g>
	<rect x="1138.9" y="0" class="st0" width="415.5" height="471"/>
	<g>
		<g>
			<g>
				<rect x="765.9" y="450.5" class="st1" width="466" height="466"/>
				<path class="st2" d="M1236.9,921.5h-476v-476h476V921.5z M770.9,911.5h456v-456h-456V911.5z"/>
			</g>
			<rect x="765.9" y="450.5" class="st2" width="466" height="119"/>
			<path class="st2" d="M1175.8,450.5c-12.7,20.6-23.7,45.6-31.7,77.4c-67.2,265.9-241.9,109.8-378.2,200.7V450.5H1175.8z"/>
		</g>
		<g>
			<g>
				<rect x="818.8" y="425" class="st1" width="466" height="466"/>
				<path class="st2" d="M1289.8,896h-476V420h476V896z M823.8,886h456V430h-456V886z"/>
			</g>
			<rect x="818.8" y="425" class="st2" width="466" height="119"/>
			<path class="st2" d="M1182,425c-15.4,22.3-28.6,50.1-37.9,86.9c-58.8,232.4-199.6,142.3-325.2,176.8V425H1182z"/>
		</g>
		<g>
			<g>
				<rect x="871.7" y="399.5" class="st1" width="466" height="466"/>
				<path class="st2" d="M1342.7,870.5h-476v-476h476V870.5z M876.7,860.5h456v-456h-456L876.7,860.5L876.7,860.5z"/>
			</g>
			<rect x="871.7" y="399.5" class="st2" width="466" height="119"/>
			<path class="st2" d="M1195.3,399.5c-21,25-39.3,57.3-51.2,104.4C1093.5,704.1,981.9,665,871.7,672.3V399.5H1195.3z"/>
		</g>
		<g>
			<g>
				<rect x="924.7" y="374" class="st1" width="466" height="466"/>
				<path class="st2" d="M1395.7,845h-476V369h476V845z M929.7,835h456V379h-456L929.7,835L929.7,835z"/>
			</g>
			<rect x="924.7" y="374" class="st2" width="466" height="119"/>
			<path class="st2" d="M1205.9,374c-25.4,26.6-48,61.3-61.9,116.3c-42.5,168-127.9,167.5-219.4,167.3V374H1205.9z"/>
		</g>
		<g>
			<g>
				<rect x="977.6" y="348.5" class="st1" width="466" height="466"/>
				<path class="st2" d="M1448.6,819.5h-476v-476h476V819.5z M982.6,809.5h456v-456h-456L982.6,809.5L982.6,809.5z"/>
			</g>
			<rect x="977.6" y="348.5" class="st2" width="466" height="119"/>
			<path class="st2" d="M1214.4,348.5c-28.8,27.7-54.9,63.8-70.3,124.8c-34.1,135-96,161.2-166.5,166.2v-291H1214.4z"/>
		</g>
		<g>
			<g>
				<rect x="1030.5" y="323" class="st1" width="466" height="466"/>
				<path class="st2" d="M1501.5,794h-476V318h476V794z M1035.5,784h456V328h-456V784z"/>
			</g>
			<rect x="1030.5" y="323" class="st2" width="466" height="119"/>
			<path class="st2" d="M1229.3,323c-34.5,29.7-67.2,66.9-85.2,138.3c-25.3,99.9-65.7,140.2-113.6,156.5V323H1229.3z"/>
		</g>
		<g>
			<g>
				<rect x="1083.4" y="297.5" class="st1" width="466" height="466"/>
				<path class="st2" d="M1252.7,297.5c-39.5,32-63.4,70.5-83.8,151.5c-17.2,67.8-44,109-85.5,130.7V297.5H1252.7z"/>
				<path class="st2" d="M1554.4,768.5h-476v-476h476V768.5z M1088.4,758.5h456v-456h-456V758.5z"/>
			</g>
			<rect x="1083.4" y="297.5" class="st2" width="466" height="119"/>
		</g>
	</g>
	<g>
		<path class="st3" d="M1097.2,289.9h-41.9h-41.9h-41.9h-41.9h-41.9h-41.9h-41.9H762h-41.9h-21.4c0,0,0,0,0,0.1h21.4H762h41.9h41.9
			h41.9h41.9h41.9h41.9h41.9L1097.2,289.9l41.9,0.1h29.3c0,0,0,0,0-0.1h-29.3H1097.2z"/>
		<path class="st3" d="M1055.2,373.5h-41.9h-41.9h-41.9h-41.9h-41.9h-41.9h-41.9H720h-41.9h-16.2c0,0,0,0,0,0.1h15.9h41.9h41.9h41.9
			h41.9h41.9h41.9h41.9h41.9L1055.2,373.5l41.9,0.1h34.7c0,0,0,0,0-0.1H1097H1055.2z"/>
		<path class="st3" d="M1264.9,122.8H1223h-41.9h-41.9h-41.9h-41.9h-41.9h-41.9h-41.9h-41.9H854c0,0,0,0,0,0.1h33.8h41.9h41.9h41.9
			h41.9h41.9h41.9h41.9h41.9L1264.9,122.8l41.9,0.1h16.9c0,0,0,0,0-0.1h-16.9H1264.9z"/>
		<path class="st3" d="M1181,206.4h-41.9h-41.9h-41.9h-41.9h-41.9h-41.9h-41.9h-41.9h-41.9h-19.1c0,0-0.1,0-0.1,0.1h19.1h41.9h41.9
			h41.9h41.9h41.9h41.9h41.9h41.9L1181,206.4l41.9,0.1h31.5c0,0,0.1,0,0.1-0.1h-31.6H1181z"/>
		<path class="st3" d="M1055.2,457h-41.9h-41.9h-41.9h-41.9h-41.9h-41.9h-41.9H720h-41.9h-42.2h-4.6c0,0,0,0,0,0.1h4.7h41.9h41.9
			h41.9h41.9h41.9h41.9h41.9h41.9h41.9L1055.2,457l41.9,0.1h4.1c0,0,0,0,0-0.1h-4.1H1055.2z"/>
		<path class="st3" d="M594,707.7h-41.9h-41.9h-41.9h-41.9h-41.9h-41.9h-41.9h-41.9h-41.9h-13.6c0,0,0,0,0,0.1h13.6h41.9h41.9h41.9
			h41.9h41.9h41.9h41.9h41.9L594,707.7l41.9,0.1H673c0,0,0,0,0-0.1h-37.1H594z"/>
		<path class="st3" d="M594,791.2h-41.9h-41.9h-41.9h-41.9h-41.9h-41.9h-41.9h-41.9h-41.9h-11.4c0,0,0,0,0,0.1h11.4h41.9h41.9h41.9
			h41.9h41.9h41.9h41.9h41.9L594,791.2l41.9,0.1h39.2c0,0,0,0,0-0.1h-39.2H594z"/>
		<path class="st3" d="M1264.9,39.3H1223h-41.9h-41.9h-41.9h-41.9h-41.9h-41.9h-41.9h-41.9h-14.1c0,0,0,0,0,0.1h14.1h41.9h41.9h41.9
			h41.9h41.9h41.9h41.9h41.9L1264.9,39.3l41.9,0.1h36.5c0,0,0,0,0-0.1h-36.5H1264.9z"/>
		<path class="st3" d="M929.4,540.6h-41.9h-41.9h-41.9h-41.9h-41.9H678h-42.1H594h-41.9h-41.9h-3c-0.2,0-0.4,0-0.6,0.1h3.6h41.9H594
			h41.9h41.9h41.9h41.9h41.9h41.9h41.9L929.4,540.6l41.9,0.1h5.2c0.2,0,0.4,0,0.6-0.1h-5.8H929.4z"/>
		<path class="st3" d="M635.9,624.1H594h-41.9h-41.9h-41.9h-41.9h-41.9h-41.9h-41.9h-41.9h-26.7c0,0,0,0,0,0.1h26.7h41.9h41.9h41.9
			h41.9h41.9h41.9h41.9H594L635.9,624.1l41.9,0.1h24c0,0,0,0,0-0.1h-24H635.9z"/>
		<path class="st3" d="M594,874.8h-41.9h-41.9h-41.9h-41.9h-41.9h-41.9h-41.9h-41.9h-41.9h-16.2c0,0,0,0,0,0.1h16.2h41.9h41.9h41.9
			h41.9h41.9h41.9h41.9h41.9L594,874.8l41.9,0.1h34.5c0,0,0,0,0-0.1h-34.5H594z"/>
		<path class="st1" d="M200.4,874.9c-2.9,13.7-7.2,27.6-13.5,41.6h29.7v-41.6H200.4z"/>
		<rect x="216.6" y="874.9" class="st4" width="41.9" height="41.6"/>
		<rect x="258.5" y="874.9" class="st1" width="41.9" height="41.6"/>
		<rect x="300.5" y="874.9" class="st4" width="41.9" height="41.6"/>
		<rect x="342.4" y="874.9" class="st1" width="41.9" height="41.6"/>
		<rect x="384.3" y="874.9" class="st4" width="41.9" height="41.6"/>
		<rect x="426.2" y="874.9" class="st1" width="41.9" height="41.6"/>
		<rect x="468.2" y="874.9" class="st4" width="41.9" height="41.6"/>
		<rect x="510.1" y="874.9" class="st1" width="41.9" height="41.6"/>
		<rect x="552" y="874.9" class="st4" width="41.9" height="41.6"/>
		<rect x="594" y="874.9" class="st1" width="41.9" height="41.6"/>
		<path class="st4" d="M635.9,916.5h21c6.3-14.1,10.6-27.9,13.5-41.6h-34.5V916.5z"/>
		<path class="st1" d="M216.6,791.3h-11.4c0.6,13.7,1,27.6,0.3,41.7h11.1L216.6,791.3L216.6,791.3z"/>
		<rect x="216.6" y="791.3" class="st4" width="41.9" height="41.7"/>
		<rect x="258.5" y="791.3" class="st1" width="41.9" height="41.7"/>
		<rect x="300.5" y="791.3" class="st4" width="41.9" height="41.7"/>
		<rect x="342.4" y="791.3" class="st1" width="41.9" height="41.7"/>
		<rect x="384.3" y="791.3" class="st4" width="41.9" height="41.7"/>
		<rect x="426.2" y="791.3" class="st1" width="41.9" height="41.7"/>
		<rect x="468.2" y="791.3" class="st4" width="41.9" height="41.7"/>
		<rect x="510.1" y="791.3" class="st1" width="41.9" height="41.7"/>
		<rect x="552" y="791.3" class="st4" width="41.9" height="41.7"/>
		<rect x="594" y="791.3" class="st1" width="41.9" height="41.7"/>
		<path class="st4" d="M635.9,833.1h39.6c0.6-14.1,0.3-28-0.3-41.7h-39.3V833.1z"/>
		<path class="st4" d="M216.6,833.1h-11.1c-0.6,13.7-2.1,27.6-5.1,41.7h16.2L216.6,833.1L216.6,833.1z"/>
		<rect x="216.6" y="833.1" class="st1" width="41.9" height="41.7"/>
		<rect x="258.5" y="833.1" class="st4" width="41.9" height="41.7"/>
		<rect x="300.5" y="833.1" class="st1" width="41.9" height="41.7"/>
		<rect x="342.4" y="833.1" class="st4" width="41.9" height="41.7"/>
		<rect x="384.3" y="833.1" class="st1" width="41.9" height="41.7"/>
		<rect x="426.2" y="833.1" class="st4" width="41.9" height="41.7"/>
		<rect x="468.2" y="833.1" class="st1" width="41.9" height="41.7"/>
		<rect x="510.1" y="833.1" class="st4" width="41.9" height="41.7"/>
		<rect x="552" y="833.1" class="st1" width="41.9" height="41.7"/>
		<rect x="594" y="833.1" class="st4" width="41.9" height="41.7"/>
		<path class="st1" d="M635.9,874.8h34.5c3-14.1,4.5-28,5.1-41.7h-39.6V874.8z"/>
		<path class="st1" d="M216.6,707.8H203c-0.9,13.7-0.7,27.6-0.1,41.7h13.7L216.6,707.8L216.6,707.8z"/>
		<rect x="216.6" y="707.8" class="st4" width="41.9" height="41.7"/>
		<rect x="258.5" y="707.8" class="st1" width="41.9" height="41.7"/>
		<rect x="300.5" y="707.8" class="st4" width="41.9" height="41.7"/>
		<rect x="342.4" y="707.8" class="st1" width="41.9" height="41.7"/>
		<rect x="384.3" y="707.8" class="st4" width="41.9" height="41.7"/>
		<rect x="426.2" y="707.8" class="st1" width="41.9" height="41.7"/>
		<rect x="468.2" y="707.8" class="st4" width="41.9" height="41.7"/>
		<rect x="510.1" y="707.8" class="st1" width="41.9" height="41.7"/>
		<rect x="552" y="707.8" class="st4" width="41.9" height="41.7"/>
		<rect x="594" y="707.8" class="st1" width="41.9" height="41.7"/>
		<path class="st4" d="M635.9,749.5h37c-0.6-14.1-0.9-28.1,0.1-41.7h-37.1V749.5z"/>
		<path class="st4" d="M216.6,749.5h-13.7c0.6,13.7,1.6,27.6,2.3,41.7h11.4V749.5L216.6,749.5z"/>
		<rect x="216.6" y="749.5" class="st1" width="41.9" height="41.7"/>
		<rect x="258.5" y="749.5" class="st4" width="41.9" height="41.7"/>
		<rect x="300.5" y="749.5" class="st1" width="41.9" height="41.7"/>
		<rect x="342.4" y="749.5" class="st4" width="41.9" height="41.7"/>
		<rect x="384.3" y="749.5" class="st1" width="41.9" height="41.7"/>
		<rect x="426.2" y="749.5" class="st4" width="41.9" height="41.7"/>
		<rect x="468.2" y="749.5" class="st1" width="41.9" height="41.7"/>
		<rect x="510.1" y="749.5" class="st4" width="41.9" height="41.7"/>
		<rect x="552" y="749.5" class="st1" width="41.9" height="41.7"/>
		<rect x="594" y="749.5" class="st4" width="41.9" height="41.7"/>
		<path class="st1" d="M635.9,791.2h39.2c-0.7-14.1-1.6-28-2.3-41.7h-37L635.9,791.2L635.9,791.2z"/>
		<path class="st1" d="M216.6,650.2c-2.4,5.2-4.4,10.5-6,15.8h6V650.2z"/>
		<path class="st4" d="M258.5,665.9v-41.7h-26.7c-6.3,8.6-11.2,17.2-15.2,26V666L258.5,665.9L258.5,665.9z"/>
		<rect x="258.5" y="624.2" class="st1" width="41.9" height="41.7"/>
		<rect x="300.5" y="624.2" class="st4" width="41.9" height="41.7"/>
		<rect x="342.4" y="624.2" class="st1" width="41.9" height="41.7"/>
		<rect x="384.3" y="624.2" class="st4" width="41.9" height="41.7"/>
		<rect x="426.2" y="624.2" class="st1" width="41.9" height="41.7"/>
		<rect x="468.2" y="624.2" class="st4" width="41.9" height="41.7"/>
		<rect x="510.1" y="624.2" class="st1" width="41.9" height="41.7"/>
		<rect x="552" y="624.2" class="st4" width="41.9" height="41.7"/>
		<rect x="594" y="624.2" class="st1" width="41.9" height="41.7"/>
		<rect x="635.9" y="624.2" class="st4" width="41.9" height="41.7"/>
		<path class="st1" d="M677.8,665.9h2.7c4.5-14.2,11.3-28.1,21.2-41.7h-24L677.8,665.9L677.8,665.9z"/>
		<path class="st4" d="M216.6,665.9h-6c-4.3,13.7-6.6,27.6-7.6,41.7h13.6V665.9z"/>
		<rect x="216.6" y="665.9" class="st1" width="41.9" height="41.7"/>
		<rect x="258.5" y="665.9" class="st4" width="41.9" height="41.7"/>
		<rect x="300.5" y="665.9" class="st1" width="41.9" height="41.7"/>
		<rect x="342.4" y="665.9" class="st4" width="41.9" height="41.7"/>
		<rect x="384.3" y="665.9" class="st1" width="41.9" height="41.7"/>
		<rect x="426.2" y="665.9" class="st4" width="41.9" height="41.7"/>
		<rect x="468.2" y="665.9" class="st1" width="41.9" height="41.7"/>
		<rect x="510.1" y="665.9" class="st4" width="41.9" height="41.7"/>
		<rect x="552" y="665.9" class="st1" width="41.9" height="41.7"/>
		<rect x="594" y="665.9" class="st4" width="41.9" height="41.7"/>
		<path class="st1" d="M635.9,665.9v41.7H673c0.8-10.9,2.2-21.6,4.9-32.1v-9.6L635.9,665.9L635.9,665.9z"/>
		<path class="st4" d="M677.8,675.5c0.8-3.2,1.7-6.4,2.7-9.6h-2.7V675.5z"/>
		<path class="st1" d="M300.5,566.1c-7.4,3.8-14.8,8.3-22.1,13.4c-1.3,1-2.7,1.9-4,2.9h26L300.5,566.1L300.5,566.1L300.5,566.1z"/>
		<path class="st4" d="M342.4,582.4v-31.7c-14.2,3.4-28.2,8.3-41.9,15.4v16.3H342.4z"/>
		<path class="st1" d="M384.3,582.4v-38.1c-14.1,1.1-28.1,3-41.9,6.4v31.7L384.3,582.4L384.3,582.4z"/>
		<path class="st4" d="M426.2,582.4v-39.6c-13.9,0.1-27.9,0.4-41.9,1.5v38.1H426.2z"/>
		<path class="st1" d="M468.2,582.4v-39.7c-13.8,0.2-27.8,0-41.9,0.1v39.6L468.2,582.4L468.2,582.4z"/>
		<path class="st4" d="M510.1,582.4v-41.7h-3.6c-12.5,1.4-25.3,1.9-38.4,2.1v39.7L510.1,582.4L510.1,582.4z"/>
		<rect x="510.1" y="540.6" class="st1" width="41.9" height="41.7"/>
		<rect x="552" y="540.6" class="st4" width="41.9" height="41.7"/>
		<rect x="594" y="540.6" class="st1" width="41.9" height="41.7"/>
		<rect x="635.9" y="540.6" class="st4" width="41.9" height="41.7"/>
		<rect x="677.8" y="540.6" class="st1" width="41.9" height="41.7"/>
		<path class="st4" d="M719.8,540.6v41.7h24.7c1.3-1,2.6-1.9,4-2.9c4.4-3.1,8.8-6,13.3-8.6v-30.2H719.8z"/>
		<path class="st1" d="M761.7,540.6v30.2c13.7-8,27.7-13.8,41.9-17.9v-12.3H761.7z"/>
		<path class="st4" d="M803.6,540.6V553c13.8-4,27.8-6.4,41.9-7.9v-4.4L803.6,540.6L803.6,540.6z"/>
		<path class="st1" d="M845.6,540.6v4.4c14-1.5,28-2,41.9-2.2v-2.2H845.6z"/>
		<path class="st4" d="M887.5,540.6v2.2c14.1-0.2,28.1,0,41.9-0.1v-2.2L887.5,540.6L887.5,540.6z"/>
		<path class="st1" d="M929.4,540.6v2.2c14.2-0.1,28.3-0.4,41.9-1.6v-0.5h-41.9V540.6z"/>
		<path class="st4" d="M971.4,541.2c1.7-0.2,3.4-0.3,5.2-0.5h-5.2V541.2z"/>
		<path class="st1" d="M258.5,595.3c-10.8,9.5-19.5,19.1-26.7,28.9h26.7V595.3z"/>
		<path class="st4" d="M300.5,624.1v-41.7h-26c-5.7,4.3-11,8.5-15.9,12.9v28.9h41.9V624.1z"/>
		<rect x="300.5" y="582.4" class="st1" width="41.9" height="41.7"/>
		<rect x="342.4" y="582.4" class="st4" width="41.9" height="41.7"/>
		<rect x="384.3" y="582.4" class="st1" width="41.9" height="41.7"/>
		<rect x="426.2" y="582.4" class="st4" width="41.9" height="41.7"/>
		<rect x="468.2" y="582.4" class="st1" width="41.9" height="41.7"/>
		<rect x="510.1" y="582.4" class="st4" width="41.9" height="41.7"/>
		<rect x="552" y="582.4" class="st1" width="41.9" height="41.7"/>
		<rect x="594" y="582.4" class="st4" width="41.9" height="41.7"/>
		<rect x="635.9" y="582.4" class="st1" width="41.9" height="41.7"/>
		<path class="st4" d="M677.8,582.4v41.7h24c5.1-7,11-13.9,17.9-20.7v-21H677.8z"/>
		<path class="st1" d="M719.8,603.4c7.1-7.1,15.3-14.1,24.7-21h-24.7V603.4z"/>
		<path class="st1" d="M635.9,457.1h-4.7c-9.2,17.1-19.4,30.8-30.2,41.7h34.9V457.1z"/>
		<rect x="635.9" y="457.1" class="st4" width="41.9" height="41.7"/>
		<rect x="677.8" y="457.1" class="st1" width="41.9" height="41.7"/>
		<rect x="719.8" y="457.1" class="st4" width="41.9" height="41.7"/>
		<rect x="761.7" y="457.1" class="st1" width="41.9" height="41.7"/>
		<rect x="803.6" y="457.1" class="st4" width="41.9" height="41.7"/>
		<rect x="845.6" y="457.1" class="st1" width="41.9" height="41.7"/>
		<rect x="887.5" y="457.1" class="st4" width="41.9" height="41.7"/>
		<rect x="929.4" y="457.1" class="st1" width="41.9" height="41.7"/>
		<rect x="971.4" y="457.1" class="st4" width="41.9" height="41.7"/>
		<rect x="1013.3" y="457.1" class="st1" width="41.9" height="41.7"/>
		<path class="st4" d="M1055.2,457.1v41.7h15.8c9.3-9.4,18-20.7,26.2-34.5v-7.2H1055.2z"/>
		<path class="st1" d="M1097.2,464.3c1.4-2.3,2.7-4.7,4.1-7.2h-4.1V464.3z"/>
		<path class="st1" d="M510.1,540.2c-1,0.1-2,0.2-3,0.3h3V540.2z"/>
		<path class="st4" d="M552,540.6v-10.1c-13.4,5-27.5,8-41.9,9.8v0.3H552z"/>
		<path class="st1" d="M594,540.6v-35.1c-13.1,11.5-27.1,19.5-41.9,25v10.1H594z"/>
		<path class="st4" d="M635.9,540.6v-41.7H601c-2.3,2.3-4.7,4.5-7,6.6v35.1H635.9L635.9,540.6z"/>
		<rect x="635.9" y="498.8" class="st1" width="41.9" height="41.7"/>
		<rect x="677.8" y="498.8" class="st4" width="41.9" height="41.7"/>
		<rect x="719.8" y="498.8" class="st1" width="41.9" height="41.7"/>
		<rect x="761.7" y="498.8" class="st4" width="41.9" height="41.7"/>
		<rect x="803.6" y="498.8" class="st1" width="41.9" height="41.7"/>
		<rect x="845.6" y="498.8" class="st4" width="41.9" height="41.7"/>
		<rect x="887.5" y="498.8" class="st1" width="41.9" height="41.7"/>
		<rect x="929.4" y="498.8" class="st4" width="41.9" height="41.7"/>
		<path class="st1" d="M971.4,498.8v41.7h5.8c12.4-1.4,24.5-3.6,36.2-7.2v-34.6L971.4,498.8L971.4,498.8z"/>
		<path class="st4" d="M1013.3,498.8v34.6c14.7-4.5,28.8-11.1,41.9-20.9v-13.7L1013.3,498.8L1013.3,498.8z"/>
		<path class="st1" d="M1055.2,512.5c5.4-4,10.7-8.6,15.8-13.7h-15.8V512.5z"/>
		<path class="st4" d="M677.8,373.5h-15.9c-0.2,0.7-0.3,1.3-0.5,2c-3.7,14.5-7.6,27.7-11.9,39.8h28.4L677.8,373.5L677.8,373.5z"/>
		<rect x="677.8" y="373.5" class="st1" width="41.9" height="41.7"/>
		<rect x="719.8" y="373.5" class="st4" width="41.9" height="41.7"/>
		<rect x="761.7" y="373.5" class="st1" width="41.9" height="41.7"/>
		<rect x="803.6" y="373.5" class="st4" width="41.9" height="41.7"/>
		<rect x="845.6" y="373.5" class="st1" width="41.9" height="41.7"/>
		<rect x="887.5" y="373.5" class="st4" width="41.9" height="41.7"/>
		<rect x="929.4" y="373.5" class="st1" width="41.9" height="41.7"/>
		<rect x="971.4" y="373.5" class="st4" width="41.9" height="41.7"/>
		<rect x="1013.3" y="373.5" class="st1" width="41.9" height="41.7"/>
		<rect x="1055.2" y="373.5" class="st4" width="41.9" height="41.7"/>
		<path class="st1" d="M1097.2,415.3h22.3c4.3-12.1,8.3-25.3,11.9-39.8c0.2-0.7,0.3-1.3,0.5-2h-34.7L1097.2,415.3L1097.2,415.3z"/>
		<path class="st4" d="M635.9,448c-1.5,3.1-3.1,6.1-4.6,9h4.6V448z"/>
		<path class="st1" d="M677.8,457v-41.7h-28.4c-4.2,12-8.8,22.9-13.6,32.7v9H677.8z"/>
		<rect x="677.8" y="415.3" class="st4" width="41.9" height="41.7"/>
		<rect x="719.8" y="415.3" class="st1" width="41.9" height="41.7"/>
		<rect x="761.7" y="415.3" class="st4" width="41.9" height="41.7"/>
		<rect x="803.6" y="415.3" class="st1" width="41.9" height="41.7"/>
		<rect x="845.6" y="415.3" class="st4" width="41.9" height="41.7"/>
		<rect x="887.5" y="415.3" class="st1" width="41.9" height="41.7"/>
		<rect x="929.4" y="415.3" class="st4" width="41.9" height="41.7"/>
		<rect x="971.4" y="415.3" class="st1" width="41.9" height="41.7"/>
		<rect x="1013.3" y="415.3" class="st4" width="41.9" height="41.7"/>
		<rect x="1055.2" y="415.3" class="st1" width="41.9" height="41.7"/>
		<path class="st4" d="M1097.2,457h4.1c6.5-12.1,12.6-26,18.2-41.7h-22.3L1097.2,457L1097.2,457z"/>
		<path class="st4" d="M677.8,327.2c-0.7,1.5-1.3,3-2,4.6h2V327.2z"/>
		<path class="st1" d="M719.8,331.7V290h-21.4c-7.4,10.9-14.3,23.2-20.5,37.2v4.6h41.9V331.7z"/>
		<rect x="719.8" y="290" class="st4" width="41.9" height="41.7"/>
		<rect x="761.7" y="290" class="st1" width="41.9" height="41.7"/>
		<rect x="803.6" y="290" class="st4" width="41.9" height="41.7"/>
		<rect x="845.6" y="290" class="st1" width="41.9" height="41.7"/>
		<rect x="887.5" y="290" class="st4" width="41.9" height="41.7"/>
		<rect x="929.4" y="290" class="st1" width="41.9" height="41.7"/>
		<rect x="971.4" y="290" class="st4" width="41.9" height="41.7"/>
		<rect x="1013.3" y="290" class="st1" width="41.9" height="41.7"/>
		<rect x="1055.2" y="290" class="st4" width="41.9" height="41.7"/>
		<rect x="1097.2" y="290" class="st1" width="41.9" height="41.7"/>
		<path class="st4" d="M1139.1,331.7h6.8c6.7-15.9,14.3-29.6,22.5-41.7h-29.3V331.7z"/>
		<path class="st1" d="M677.8,331.7h-2c-5.3,12.5-9.9,26.3-13.9,41.7h15.9V331.7z"/>
		<rect x="677.8" y="331.7" class="st4" width="41.9" height="41.7"/>
		<rect x="719.8" y="331.7" class="st1" width="41.9" height="41.7"/>
		<rect x="761.7" y="331.7" class="st4" width="41.9" height="41.7"/>
		<rect x="803.6" y="331.7" class="st1" width="41.9" height="41.7"/>
		<rect x="845.6" y="331.7" class="st4" width="41.9" height="41.7"/>
		<rect x="887.5" y="331.7" class="st1" width="41.9" height="41.7"/>
		<rect x="929.4" y="331.7" class="st4" width="41.9" height="41.7"/>
		<rect x="971.4" y="331.7" class="st1" width="41.9" height="41.7"/>
		<rect x="1013.3" y="331.7" class="st4" width="41.9" height="41.7"/>
		<rect x="1055.2" y="331.7" class="st1" width="41.9" height="41.7"/>
		<path class="st4" d="M1097.2,331.7v41.7h34.8c2.2-8.5,4.6-16.4,7.2-24v-17.8L1097.2,331.7L1097.2,331.7z"/>
		<path class="st1" d="M1139.1,349.5c2.1-6.2,4.4-12.1,6.8-17.8h-6.8V349.5z"/>
		<path class="st4" d="M761.7,224.7c-9.2,7.4-18.3,15.1-27.3,23.5h27.3V224.7z"/>
		<path class="st1" d="M803.6,248.2v-41.7h-19.1c-7.5,6.1-15.1,12.1-22.8,18.3v23.5L803.6,248.2L803.6,248.2z"/>
		<rect x="803.6" y="206.4" class="st4" width="41.9" height="41.7"/>
		<rect x="845.6" y="206.4" class="st1" width="41.9" height="41.7"/>
		<rect x="887.5" y="206.4" class="st4" width="41.9" height="41.7"/>
		<rect x="929.4" y="206.4" class="st1" width="41.9" height="41.7"/>
		<rect x="971.4" y="206.4" class="st4" width="41.9" height="41.7"/>
		<rect x="1013.3" y="206.4" class="st1" width="41.9" height="41.7"/>
		<rect x="1055.2" y="206.4" class="st4" width="41.9" height="41.7"/>
		<rect x="1097.2" y="206.4" class="st1" width="41.9" height="41.7"/>
		<rect x="1139.1" y="206.4" class="st4" width="41.9" height="41.7"/>
		<path class="st1" d="M1181,206.4v41.7h23.4c6.1-5.7,12.3-11.1,18.5-16.3v-25.4H1181L1181,206.4z"/>
		<path class="st4" d="M1223,231.9c10.5-8.8,21.2-17,31.5-25.4H1223V231.9z"/>
		<path class="st4" d="M719.8,263c-7.4,8.1-14.6,17-21.4,26.9h21.4V263z"/>
		<path class="st1" d="M761.7,289.9v-41.7h-27.3c-5,4.7-9.9,9.6-14.7,14.8v26.9H761.7L761.7,289.9z"/>
		<rect x="761.7" y="248.2" class="st4" width="41.9" height="41.7"/>
		<rect x="803.6" y="248.2" class="st1" width="41.9" height="41.7"/>
		<rect x="845.6" y="248.2" class="st4" width="41.9" height="41.7"/>
		<rect x="887.5" y="248.2" class="st1" width="41.9" height="41.7"/>
		<rect x="929.4" y="248.2" class="st4" width="41.9" height="41.7"/>
		<rect x="971.4" y="248.2" class="st1" width="41.9" height="41.7"/>
		<rect x="1013.3" y="248.2" class="st4" width="41.9" height="41.7"/>
		<rect x="1055.2" y="248.2" class="st1" width="41.9" height="41.7"/>
		<rect x="1097.2" y="248.2" class="st4" width="41.9" height="41.7"/>
		<path class="st1" d="M1139.1,248.2v41.7h29.3c4.1-6,8.3-11.6,12.6-16.9v-24.9L1139.1,248.2L1139.1,248.2z"/>
		<path class="st4" d="M1181,273.1c7.5-9.1,15.4-17.3,23.4-24.9H1181V273.1z"/>
		<path class="st4" d="M845.6,139c-5.3,9.4-11.2,17.8-17.5,25.6h17.5V139z"/>
		<path class="st1" d="M887.5,164.6v-41.7h-33.8c-2.5,5.7-5.2,11.1-8.1,16.2v25.6h41.9L887.5,164.6L887.5,164.6z"/>
		<rect x="887.5" y="122.9" class="st4" width="41.9" height="41.7"/>
		<rect x="929.4" y="122.9" class="st1" width="41.9" height="41.7"/>
		<rect x="971.4" y="122.9" class="st4" width="41.9" height="41.7"/>
		<rect x="1013.3" y="122.9" class="st1" width="41.9" height="41.7"/>
		<rect x="1055.2" y="122.9" class="st4" width="41.9" height="41.7"/>
		<rect x="1097.2" y="122.9" class="st1" width="41.9" height="41.7"/>
		<rect x="1139.1" y="122.9" class="st4" width="41.9" height="41.7"/>
		<rect x="1181" y="122.9" class="st1" width="41.9" height="41.7"/>
		<rect x="1223" y="122.9" class="st4" width="41.9" height="41.7"/>
		<path class="st1" d="M1264.9,122.9v41.7h33.2c3-3.7,6-7.6,8.8-11.7v-30.1L1264.9,122.9L1264.9,122.9z"/>
		<path class="st4" d="M1306.8,153c6.2-9,11.9-18.9,16.9-30.1h-16.9V153z"/>
		<path class="st4" d="M803.6,190.1c-6.2,5.6-12.6,11-19.1,16.3h19.1V190.1z"/>
		<path class="st1" d="M845.6,206.4v-41.7h-17.5c-7.6,9.3-15.8,17.6-24.4,25.5v16.3h41.9V206.4z"/>
		<rect x="845.6" y="164.6" class="st4" width="41.9" height="41.7"/>
		<rect x="887.5" y="164.6" class="st1" width="41.9" height="41.7"/>
		<rect x="929.4" y="164.6" class="st4" width="41.9" height="41.7"/>
		<rect x="971.4" y="164.6" class="st1" width="41.9" height="41.7"/>
		<rect x="1013.3" y="164.6" class="st4" width="41.9" height="41.7"/>
		<rect x="1055.2" y="164.6" class="st1" width="41.9" height="41.7"/>
		<rect x="1097.2" y="164.6" class="st4" width="41.9" height="41.7"/>
		<rect x="1139.1" y="164.6" class="st1" width="41.9" height="41.7"/>
		<rect x="1181" y="164.6" class="st4" width="41.9" height="41.7"/>
		<path class="st1" d="M1223,164.6v41.7h31.6c3.5-2.8,6.9-5.7,10.3-8.6v-33.2L1223,164.6L1223,164.6z"/>
		<path class="st4" d="M1264.9,197.8c11.8-10.1,23-20.7,33.2-33.2h-33.2V197.8z"/>
		<path class="st1" d="M887.5,39.3h-14.1c-1.3,15.3-3.4,29.2-6.2,41.7h20.3V39.3z"/>
		<rect x="887.5" y="39.3" class="st4" width="41.9" height="41.7"/>
		<rect x="929.4" y="39.3" class="st1" width="41.9" height="41.7"/>
		<rect x="971.4" y="39.3" class="st4" width="41.9" height="41.7"/>
		<rect x="1013.3" y="39.3" class="st1" width="41.9" height="41.7"/>
		<rect x="1055.2" y="39.3" class="st4" width="41.9" height="41.7"/>
		<rect x="1097.2" y="39.3" class="st1" width="41.9" height="41.7"/>
		<rect x="1139.1" y="39.3" class="st4" width="41.9" height="41.7"/>
		<rect x="1181" y="39.3" class="st1" width="41.9" height="41.7"/>
		<rect x="1223" y="39.3" class="st4" width="41.9" height="41.7"/>
		<rect x="1264.9" y="39.3" class="st1" width="41.9" height="41.7"/>
		<path class="st4" d="M1306.8,81.1h30.4c2.8-12.6,4.9-26.4,6.2-41.7h-36.5L1306.8,81.1L1306.8,81.1z"/>
		<path class="st4" d="M887.5,81.1h-20.3c-3.5,15.7-8,29.5-13.5,41.7h33.8V81.1z"/>
		<rect x="887.5" y="81.1" class="st1" width="41.9" height="41.7"/>
		<rect x="929.4" y="81.1" class="st4" width="41.9" height="41.7"/>
		<rect x="971.4" y="81.1" class="st1" width="41.9" height="41.7"/>
		<rect x="1013.3" y="81.1" class="st4" width="41.9" height="41.7"/>
		<rect x="1055.2" y="81.1" class="st1" width="41.9" height="41.7"/>
		<rect x="1097.2" y="81.1" class="st4" width="41.9" height="41.7"/>
		<rect x="1139.1" y="81.1" class="st1" width="41.9" height="41.7"/>
		<rect x="1181" y="81.1" class="st4" width="41.9" height="41.7"/>
		<rect x="1223" y="81.1" class="st1" width="41.9" height="41.7"/>
		<rect x="1264.9" y="81.1" class="st4" width="41.9" height="41.7"/>
		<path class="st1" d="M1306.8,122.8h16.9c5.4-12.2,10-26,13.5-41.7h-30.4V122.8z"/>
		<path class="st4" d="M887.5,0h-12.6c0,14.1-0.5,27.1-1.5,39.3h14.1V0z"/>
		<rect x="887.5" y="0" class="st1" width="41.9" height="39.3"/>
		<rect x="929.4" y="0" class="st4" width="41.9" height="39.3"/>
		<rect x="971.4" y="0" class="st1" width="41.9" height="39.3"/>
		<rect x="1013.3" y="0" class="st4" width="41.9" height="39.3"/>
		<rect x="1055.2" y="0" class="st1" width="41.9" height="39.3"/>
		<rect x="1097.2" y="0" class="st4" width="41.9" height="39.3"/>
		<rect x="1139.1" y="0" class="st1" width="41.9" height="39.3"/>
		<rect x="1181" y="0" class="st4" width="41.9" height="39.3"/>
		<rect x="1223" y="0" class="st1" width="41.9" height="39.3"/>
		<rect x="1264.9" y="0" class="st4" width="41.9" height="39.3"/>
		<path class="st1" d="M1306.8,39.3h36.5c1-12.1,1.6-25.2,1.5-39.3h-38.1L1306.8,39.3L1306.8,39.3z"/>
	</g>
	<polygon class="st2" points="1520.4,89.9 1491,60.5 1453.4,98.2 1415.8,60.5 1386.4,89.9 1424.1,127.5 1386.4,165.1 1415.8,194.5 
		1453.4,156.8 1491,194.5 1520.4,165.1 1482.7,127.5 	"/>
	<path id="XMLID_2_" class="st2" d="M1354.9,0l-0.2,11.8l-0.1,5.9c0,2-0.2,3.9-0.3,5.9l-0.6,11.8l-1.1,11.8
		c-1.7,15.7-4.2,31.4-8.3,46.9c-4.2,15.5-9.8,30.7-17.4,45.1c-7.5,14.4-17.1,27.7-27.9,39.7c-5.3,6.1-11.1,11.6-16.9,17.1
		c-2.9,2.6-5.9,5.3-8.9,7.9c-3,2.5-6,5.1-9,7.6c-12,9.9-24.2,19.3-35.8,29c-23.2,19.4-44,40.5-58.5,66.4l-8.6-5.2l6-9.9l0.7-1.2
		l0.8-1.2l1.7-2.4l3.3-4.7c2.3-3.1,4.7-6.1,7.1-9.1c2.5-2.9,5-5.9,7.5-8.7c10.3-11.4,21.7-21.8,33.5-31.7s24-19.3,35.9-29
		c3-2.4,5.9-4.9,8.8-7.4s5.8-5.1,8.6-7.7c5.6-5.3,11.1-10.6,16.2-16.4c10.3-11.4,19.4-24,26.5-37.7c7.2-13.6,12.6-28.1,16.6-43
		s6.4-30.1,8-45.4l1.1-11.5l0.6-11.5c0.1-1.9,0.2-3.8,0.3-5.8l0.1-5.8l0.3-11.6L1354.9,0L1354.9,0z"/>
	<g>
		<circle class="st2" cx="1252.7" cy="538" r="5"/>
		<circle class="st2" cx="1297.7" cy="538" r="5"/>
		<circle class="st2" cx="1342.7" cy="538" r="5"/>
		<circle class="st2" cx="1387.7" cy="538" r="5"/>
	</g>
	<g>
		<circle class="st2" cx="1252.7" cy="581.5" r="5"/>
		<circle class="st2" cx="1297.7" cy="581.5" r="5"/>
		<circle class="st2" cx="1342.7" cy="581.5" r="5"/>
		<circle class="st2" cx="1387.7" cy="581.5" r="5"/>
	</g>
	<g>
		<circle class="st2" cx="1252.7" cy="625" r="5"/>
		<circle class="st2" cx="1297.7" cy="625" r="5"/>
		<circle class="st2" cx="1342.7" cy="625" r="5"/>
		<circle class="st2" cx="1387.7" cy="625" r="5"/>
	</g>
	<g>
		<circle class="st2" cx="1252.7" cy="668.5" r="5"/>
		<circle class="st2" cx="1297.7" cy="668.5" r="5"/>
		<circle class="st2" cx="1342.7" cy="668.5" r="5"/>
		<circle class="st2" cx="1387.7" cy="668.5" r="5"/>
	</g>
	<g>
		<path class="st2" d="M145.1,821.2L131.3,887h-17.1l13.8-65.8H0l3.7-17.1l163.5-177.2h19.3l-38.1,178h26.8l-3.5,16.4h-26.6V821.2
			L145.1,821.2z M22.3,805.2h109L164,650.5L22.3,805.2z"/>
		<path class="st2" d="M375.2,845.1L324.5,887h-81.1l-33.1-41.8l37.4-176.5l50.6-41.8h81.1l33.3,41.8L375.2,845.1z M228.1,841.2
			l23.2,29.8h66.8l41.8-34.6l29.8-139.9L228.1,841.2z M262.9,677.6l-29.8,139.7l161.4-144.7l-23.2-29.8h-66.6L262.9,677.6z"/>
		<path class="st2" d="M561.1,821.2L547.4,887h-17.1l13.8-65.8h-128l3.7-17.1l163.5-177.2h19.3l-38.1,178h26.8l-3.5,16.4h-26.7
			V821.2z M438.4,805.2h109l32.7-154.7L438.4,805.2z"/>
	</g>
</g>
</svg>
