<?xml version="1.0" encoding="utf-8"?>
<!-- Generator: Adobe Illustrator 25.0.1, SVG Export Plug-In . SVG Version: 6.00 Build 0)  -->
<svg version="1.1" id="Layer_1" xmlns="http://www.w3.org/2000/svg" xmlns:xlink="http://www.w3.org/1999/xlink" x="0px" y="0px"
	 viewBox="0 0 1588 921.5" style="enable-background:new 0 0 1588 921.5;" xml:space="preserve">
<style type="text/css">
	.st0{fill:#00B9BC;}
	.st1{fill:#EAEAEA;}
	.st2{fill:#00484A;}
	.st3{fill:none;}
	.st4{fill:#BEBFC3;}
	.st5{fill:none;stroke:#00484A;stroke-width:10;stroke-linecap:round;stroke-miterlimit:10;}
</style>
<g>
	<rect y="544" class="st0" width="501.8" height="372.5"/>
	<rect x="1172.5" class="st0" width="415.5" height="471"/>
	<g>
		<g>
			<g>
				<rect x="799.5" y="450.5" class="st1" width="466" height="466"/>
				<path class="st2" d="M1270.5,921.5h-476v-476h476V921.5z M804.5,911.5h456v-456h-456V911.5z"/>
			</g>
			<rect x="799.5" y="450.5" class="st2" width="466" height="119"/>
			<path class="st2" d="M1209.4,450.5c-12.7,20.6-23.7,45.6-31.7,77.4c-67.2,265.9-241.9,109.8-378.2,200.7V450.5H1209.4z"/>
		</g>
		<g>
			<g>
				<rect x="852.4" y="425" class="st1" width="466" height="466"/>
				<path class="st2" d="M1323.4,896h-476V420h476V896z M857.4,886h456V430h-456V886z"/>
			</g>
			<rect x="852.4" y="425" class="st2" width="466" height="119"/>
			<path class="st2" d="M1215.6,425c-15.4,22.3-28.6,50.1-37.9,86.9c-58.8,232.4-199.6,142.3-325.2,176.8V425H1215.6z"/>
		</g>
		<g>
			<g>
				<rect x="905.3" y="399.5" class="st1" width="466" height="466"/>
				<path class="st2" d="M1376.3,870.5h-476v-476h476V870.5z M910.3,860.5h456v-456h-456V860.5z"/>
			</g>
			<rect x="905.3" y="399.5" class="st2" width="466" height="119"/>
			<path class="st2" d="M1228.9,399.5c-21,25-39.3,57.3-51.2,104.4c-50.6,200.2-162.2,161.1-272.4,168.4V399.5H1228.9z"/>
		</g>
		<g>
			<g>
				<rect x="958.3" y="374" class="st1" width="466" height="466"/>
				<path class="st2" d="M1429.3,845h-476V369h476V845z M963.3,835h456V379h-456V835z"/>
			</g>
			<rect x="958.3" y="374" class="st2" width="466" height="119"/>
			<path class="st2" d="M1239.5,374c-25.4,26.6-48,61.3-61.9,116.3c-42.5,168-127.9,167.5-219.4,167.3V374H1239.5z"/>
		</g>
		<g>
			<g>
				<rect x="1011.2" y="348.5" class="st1" width="466" height="466"/>
				<path class="st2" d="M1482.2,819.5h-476v-476h476V819.5z M1016.2,809.5h456v-456h-456V809.5z"/>
			</g>
			<rect x="1011.2" y="348.5" class="st2" width="466" height="119"/>
			<path class="st2" d="M1248,348.5c-28.8,27.7-54.9,63.8-70.3,124.8c-34.1,135-96,161.2-166.5,166.2v-291H1248z"/>
		</g>
		<g>
			<g>
				<rect x="1064.1" y="323" class="st1" width="466" height="466"/>
				<path class="st2" d="M1535.1,794h-476V318h476V794z M1069.1,784h456V328h-456V784z"/>
			</g>
			<rect x="1064.1" y="323" class="st2" width="466" height="119"/>
			<path class="st2" d="M1262.9,323c-34.5,29.7-67.2,66.9-85.2,138.3c-25.3,99.9-65.7,140.2-113.6,156.5V323H1262.9z"/>
		</g>
		<g>
			<g>
				<rect x="1117" y="297.5" class="st1" width="466" height="466"/>
				<path class="st2" d="M1286.3,297.5c-39.5,32-63.4,70.5-83.8,151.5c-17.2,67.8-44,109-85.5,130.7V297.5H1286.3z"/>
				<path class="st2" d="M1588,768.5h-476v-476h476V768.5z M1122,758.5h456v-456h-456V758.5z"/>
			</g>
			<rect x="1117" y="297.5" class="st2" width="466" height="119"/>
		</g>
	</g>
	<g>
		<path class="st3" d="M1130.8,289.9h-41.9H1047h-41.9h-41.9h-41.9h-41.9h-41.9h-41.9h-41.9h-21.4c0,0,0,0,0,0.1h21.4h41.9h41.9
			h41.9h41.9h41.9h41.9h41.9h41.9L1130.8,289.9l41.9,0.1h29.3c0,0,0,0,0-0.1h-29.3H1130.8z"/>
		<path class="st3" d="M1088.8,373.5h-41.9H1005h-41.9h-41.9h-41.9h-41.9h-41.9h-41.9h-41.9h-16.2c0,0,0,0,0,0.1h15.9h41.9h41.9
			h41.9H879h41.9h41.9h41.9h41.9L1088.8,373.5l41.9,0.1h34.7c0,0,0,0,0-0.1h-34.8H1088.8z"/>
		<path class="st3" d="M1298.5,122.8h-41.9h-41.9h-41.9h-41.9H1089h-41.9h-41.9h-41.9h-41.9h-33.8c0,0,0,0,0,0.1h33.8h41.9h41.9
			h41.9h41.9h41.9h41.9h41.9h41.9L1298.5,122.8l41.9,0.1h16.9c0,0,0,0,0-0.1h-16.9H1298.5z"/>
		<path class="st3" d="M1214.6,206.4h-41.9h-41.9h-41.9H1047h-41.9h-41.9h-41.9h-41.9h-41.9h-19.1c0,0-0.1,0-0.1,0.1h19.1h41.9h41.9
			h41.9h41.9h41.9h41.9h41.9h41.9L1214.6,206.4l41.9,0.1h31.5c0,0,0.1,0,0.1-0.1h-31.6H1214.6z"/>
		<path class="st3" d="M1088.8,457h-41.9H1005h-41.9h-41.9h-41.9h-41.9h-41.9h-41.9h-41.9h-42.2h-4.6c0,0,0,0,0,0.1h4.7h41.9h41.9
			h41.9h41.9h41.9H921h41.9h41.9h41.9L1088.8,457l41.9,0.1h4.1c0,0,0,0,0-0.1h-4.1H1088.8z"/>
		<path class="st3" d="M627.6,707.7h-41.9h-41.9h-41.9H460h-41.9h-41.9h-41.9h-41.9h-41.9h-13.6c0,0,0,0,0,0.1h13.6h41.9h41.9h41.9
			h41.9H460h41.9h41.9h41.9L627.6,707.7l41.9,0.1h37.1c0,0,0,0,0-0.1h-37.1H627.6z"/>
		<path class="st3" d="M627.6,791.2h-41.9h-41.9h-41.9H460h-41.9h-41.9h-41.9h-41.9h-41.9h-11.4c0,0,0,0,0,0.1h11.4h41.9h41.9h41.9
			h41.9H460h41.9h41.9h41.9L627.6,791.2l41.9,0.1h39.2c0,0,0,0,0-0.1h-39.2H627.6z"/>
		<path class="st3" d="M1298.5,39.3h-41.9h-41.9h-41.9h-41.9H1089h-41.9h-41.9h-41.9h-41.9h-14.1c0,0,0,0,0,0.1h14.1h41.9h41.9h41.9
			h41.9h41.9h41.9h41.9h41.9L1298.5,39.3l41.9,0.1h36.5c0,0,0,0,0-0.1h-36.5H1298.5z"/>
		<path class="st3" d="M963,540.6h-41.9h-41.9h-41.9h-41.9h-41.9h-41.9h-42.1h-41.9h-41.9h-41.9h-3c-0.2,0-0.4,0-0.6,0.1h3.6h41.9
			h41.9h41.9h41.9h41.9h41.9h41.9H879h41.9L963,540.6l41.9,0.1h5.2c0.2,0,0.4,0,0.6-0.1h-5.8H963z"/>
		<path class="st3" d="M669.5,624.1h-41.9h-41.9h-41.9h-41.9H460h-41.9h-41.9h-41.9h-41.9h-26.7c0,0,0,0,0,0.1h26.7h41.9h41.9h41.9
			H460h41.9h41.9h41.9h41.9L669.5,624.1l41.9,0.1h24c0,0,0,0,0-0.1h-24H669.5z"/>
		<path class="st3" d="M627.6,874.8h-41.9h-41.9h-41.9H460h-41.9h-41.9h-41.9h-41.9h-41.9h-16.2c0,0,0,0,0,0.1h16.2h41.9h41.9h41.9
			h41.9H460h41.9h41.9h41.9L627.6,874.8l41.9,0.1H704c0,0,0,0,0-0.1h-34.5H627.6z"/>
		<path class="st1" d="M234,874.9c-2.9,13.7-7.2,27.6-13.5,41.6h29.7v-41.6H234z"/>
		<rect x="250.2" y="874.9" class="st4" width="41.9" height="41.6"/>
		<rect x="292.1" y="874.9" class="st1" width="41.9" height="41.6"/>
		<rect x="334.1" y="874.9" class="st4" width="41.9" height="41.6"/>
		<rect x="376" y="874.9" class="st1" width="41.9" height="41.6"/>
		<rect x="417.9" y="874.9" class="st4" width="41.9" height="41.6"/>
		<rect x="459.8" y="874.9" class="st1" width="41.9" height="41.6"/>
		<rect x="501.8" y="874.9" class="st4" width="41.9" height="41.6"/>
		<rect x="543.7" y="874.9" class="st1" width="41.9" height="41.6"/>
		<rect x="585.6" y="874.9" class="st4" width="41.9" height="41.6"/>
		<rect x="627.6" y="874.9" class="st1" width="41.9" height="41.6"/>
		<path class="st4" d="M669.5,916.5h21c6.3-14.1,10.6-27.9,13.5-41.6h-34.5V916.5z"/>
		<path class="st1" d="M250.2,791.3h-11.4c0.6,13.7,1,27.6,0.3,41.7h11.1V791.3z"/>
		<rect x="250.2" y="791.3" class="st4" width="41.9" height="41.7"/>
		<rect x="292.1" y="791.3" class="st1" width="41.9" height="41.7"/>
		<rect x="334.1" y="791.3" class="st4" width="41.9" height="41.7"/>
		<rect x="376" y="791.3" class="st1" width="41.9" height="41.7"/>
		<rect x="417.9" y="791.3" class="st4" width="41.9" height="41.7"/>
		<rect x="459.8" y="791.3" class="st1" width="41.9" height="41.7"/>
		<rect x="501.8" y="791.3" class="st4" width="41.9" height="41.7"/>
		<rect x="543.7" y="791.3" class="st1" width="41.9" height="41.7"/>
		<rect x="585.6" y="791.3" class="st4" width="41.9" height="41.7"/>
		<rect x="627.6" y="791.3" class="st1" width="41.9" height="41.7"/>
		<path class="st4" d="M669.5,833.1h39.6c0.6-14.1,0.3-28-0.3-41.7h-39.3V833.1z"/>
		<path class="st4" d="M250.2,833.1h-11.1c-0.6,13.7-2.1,27.6-5.1,41.7h16.2V833.1z"/>
		<rect x="250.2" y="833.1" class="st1" width="41.9" height="41.7"/>
		<rect x="292.1" y="833.1" class="st4" width="41.9" height="41.7"/>
		<rect x="334.1" y="833.1" class="st1" width="41.9" height="41.7"/>
		<rect x="376" y="833.1" class="st4" width="41.9" height="41.7"/>
		<rect x="417.9" y="833.1" class="st1" width="41.9" height="41.7"/>
		<rect x="459.8" y="833.1" class="st4" width="41.9" height="41.7"/>
		<rect x="501.8" y="833.1" class="st1" width="41.9" height="41.7"/>
		<rect x="543.7" y="833.1" class="st4" width="41.9" height="41.7"/>
		<rect x="585.6" y="833.1" class="st1" width="41.9" height="41.7"/>
		<rect x="627.6" y="833.1" class="st4" width="41.9" height="41.7"/>
		<path class="st1" d="M669.5,874.8H704c3-14.1,4.5-28,5.1-41.7h-39.6V874.8z"/>
		<path class="st1" d="M250.2,707.8h-13.6c-0.9,13.7-0.7,27.6-0.1,41.7h13.7V707.8z"/>
		<rect x="250.2" y="707.8" class="st4" width="41.9" height="41.7"/>
		<rect x="292.1" y="707.8" class="st1" width="41.9" height="41.7"/>
		<rect x="334.1" y="707.8" class="st4" width="41.9" height="41.7"/>
		<rect x="376" y="707.8" class="st1" width="41.9" height="41.7"/>
		<rect x="417.9" y="707.8" class="st4" width="41.9" height="41.7"/>
		<rect x="459.8" y="707.8" class="st1" width="41.9" height="41.7"/>
		<rect x="501.8" y="707.8" class="st4" width="41.9" height="41.7"/>
		<rect x="543.7" y="707.8" class="st1" width="41.9" height="41.7"/>
		<rect x="585.6" y="707.8" class="st4" width="41.9" height="41.7"/>
		<rect x="627.6" y="707.8" class="st1" width="41.9" height="41.7"/>
		<path class="st4" d="M669.5,749.5h37c-0.6-14.1-0.9-28.1,0.1-41.7h-37.1V749.5z"/>
		<path class="st4" d="M250.2,749.5h-13.7c0.6,13.7,1.6,27.6,2.3,41.7h11.4L250.2,749.5L250.2,749.5z"/>
		<rect x="250.2" y="749.5" class="st1" width="41.9" height="41.7"/>
		<rect x="292.1" y="749.5" class="st4" width="41.9" height="41.7"/>
		<rect x="334.1" y="749.5" class="st1" width="41.9" height="41.7"/>
		<rect x="376" y="749.5" class="st4" width="41.9" height="41.7"/>
		<rect x="417.9" y="749.5" class="st1" width="41.9" height="41.7"/>
		<rect x="459.8" y="749.5" class="st4" width="41.9" height="41.7"/>
		<rect x="501.8" y="749.5" class="st1" width="41.9" height="41.7"/>
		<rect x="543.7" y="749.5" class="st4" width="41.9" height="41.7"/>
		<rect x="585.6" y="749.5" class="st1" width="41.9" height="41.7"/>
		<rect x="627.6" y="749.5" class="st4" width="41.9" height="41.7"/>
		<path class="st1" d="M669.5,791.2h39.2c-0.7-14.1-1.6-28-2.3-41.7h-37L669.5,791.2L669.5,791.2z"/>
		<path class="st1" d="M250.2,650.2c-2.4,5.2-4.4,10.5-6,15.8h6V650.2z"/>
		<path class="st4" d="M292.1,665.9v-41.7h-26.7c-6.3,8.6-11.2,17.2-15.2,26V666L292.1,665.9L292.1,665.9z"/>
		<rect x="292.1" y="624.2" class="st1" width="41.9" height="41.7"/>
		<rect x="334.1" y="624.2" class="st4" width="41.9" height="41.7"/>
		<rect x="376" y="624.2" class="st1" width="41.9" height="41.7"/>
		<rect x="417.9" y="624.2" class="st4" width="41.9" height="41.7"/>
		<rect x="459.8" y="624.2" class="st1" width="41.9" height="41.7"/>
		<rect x="501.8" y="624.2" class="st4" width="41.9" height="41.7"/>
		<rect x="543.7" y="624.2" class="st1" width="41.9" height="41.7"/>
		<rect x="585.6" y="624.2" class="st4" width="41.9" height="41.7"/>
		<rect x="627.6" y="624.2" class="st1" width="41.9" height="41.7"/>
		<rect x="669.5" y="624.2" class="st4" width="41.9" height="41.7"/>
		<path class="st1" d="M711.4,665.9h2.7c4.5-14.2,11.3-28.1,21.2-41.7h-24L711.4,665.9L711.4,665.9z"/>
		<path class="st4" d="M250.2,665.9h-6c-4.3,13.7-6.6,27.6-7.6,41.7h13.6V665.9z"/>
		<rect x="250.2" y="665.9" class="st1" width="41.9" height="41.7"/>
		<rect x="292.1" y="665.9" class="st4" width="41.9" height="41.7"/>
		<rect x="334.1" y="665.9" class="st1" width="41.9" height="41.7"/>
		<rect x="376" y="665.9" class="st4" width="41.9" height="41.7"/>
		<rect x="417.9" y="665.9" class="st1" width="41.9" height="41.7"/>
		<rect x="459.8" y="665.9" class="st4" width="41.9" height="41.7"/>
		<rect x="501.8" y="665.9" class="st1" width="41.9" height="41.7"/>
		<rect x="543.7" y="665.9" class="st4" width="41.9" height="41.7"/>
		<rect x="585.6" y="665.9" class="st1" width="41.9" height="41.7"/>
		<rect x="627.6" y="665.9" class="st4" width="41.9" height="41.7"/>
		<path class="st1" d="M669.5,665.9v41.7h37.1c0.8-10.9,2.2-21.6,4.9-32.1v-9.6L669.5,665.9L669.5,665.9z"/>
		<path class="st4" d="M711.4,675.5c0.8-3.2,1.7-6.4,2.7-9.6h-2.7V675.5z"/>
		<path class="st1" d="M334.1,566.1c-7.4,3.8-14.8,8.3-22.1,13.4c-1.3,1-2.7,1.9-4,2.9h26v-16.3L334.1,566.1L334.1,566.1z"/>
		<path class="st4" d="M376,582.4v-31.7c-14.2,3.4-28.2,8.3-41.9,15.4v16.3H376z"/>
		<path class="st1" d="M417.9,582.4v-38.1c-14.1,1.1-28.1,3-41.9,6.4v31.7L417.9,582.4L417.9,582.4z"/>
		<path class="st4" d="M459.8,582.4v-39.6c-13.9,0.1-27.9,0.4-41.9,1.5v38.1H459.8z"/>
		<path class="st1" d="M501.8,582.4v-39.7c-13.8,0.2-27.8,0-41.9,0.1v39.6L501.8,582.4L501.8,582.4z"/>
		<path class="st4" d="M543.7,582.4v-41.7h-3.6c-12.5,1.4-25.3,1.9-38.4,2.1v39.7L543.7,582.4L543.7,582.4z"/>
		<rect x="543.7" y="540.6" class="st1" width="41.9" height="41.7"/>
		<rect x="585.6" y="540.6" class="st4" width="41.9" height="41.7"/>
		<rect x="627.6" y="540.6" class="st1" width="41.9" height="41.7"/>
		<rect x="669.5" y="540.6" class="st4" width="41.9" height="41.7"/>
		<rect x="711.4" y="540.6" class="st1" width="41.9" height="41.7"/>
		<path class="st4" d="M753.4,540.6v41.7h24.7c1.3-1,2.6-1.9,4-2.9c4.4-3.1,8.8-6,13.3-8.6v-30.2H753.4z"/>
		<path class="st1" d="M795.3,540.6v30.2c13.7-8,27.7-13.8,41.9-17.9v-12.3H795.3z"/>
		<path class="st4" d="M837.2,540.6V553c13.8-4,27.8-6.4,41.9-7.9v-4.4L837.2,540.6L837.2,540.6z"/>
		<path class="st1" d="M879.2,540.6v4.4c14-1.5,28-2,41.9-2.2v-2.2H879.2z"/>
		<path class="st4" d="M921.1,540.6v2.2c14.1-0.2,28.1,0,41.9-0.1v-2.2L921.1,540.6L921.1,540.6z"/>
		<path class="st1" d="M963,540.6v2.2c14.2-0.1,28.3-0.4,41.9-1.6v-0.5H963V540.6z"/>
		<path class="st4" d="M1005,541.2c1.7-0.2,3.4-0.3,5.2-0.5h-5.2V541.2z"/>
		<path class="st1" d="M292.1,595.3c-10.8,9.5-19.5,19.1-26.7,28.9h26.7V595.3z"/>
		<path class="st4" d="M334.1,624.1v-41.7h-26c-5.7,4.3-11,8.5-15.9,12.9v28.9h41.9V624.1z"/>
		<rect x="334.1" y="582.4" class="st1" width="41.9" height="41.7"/>
		<rect x="376" y="582.4" class="st4" width="41.9" height="41.7"/>
		<rect x="417.9" y="582.4" class="st1" width="41.9" height="41.7"/>
		<rect x="459.8" y="582.4" class="st4" width="41.9" height="41.7"/>
		<rect x="501.8" y="582.4" class="st1" width="41.9" height="41.7"/>
		<rect x="543.7" y="582.4" class="st4" width="41.9" height="41.7"/>
		<rect x="585.6" y="582.4" class="st1" width="41.9" height="41.7"/>
		<rect x="627.6" y="582.4" class="st4" width="41.9" height="41.7"/>
		<rect x="669.5" y="582.4" class="st1" width="41.9" height="41.7"/>
		<path class="st4" d="M711.4,582.4v41.7h24c5.1-7,11-13.9,17.9-20.7v-21H711.4z"/>
		<path class="st1" d="M753.4,603.4c7.1-7.1,15.3-14.1,24.7-21h-24.7V603.4z"/>
		<path class="st1" d="M669.5,457.1h-4.7c-9.2,17.1-19.4,30.8-30.2,41.7h34.9V457.1z"/>
		<rect x="669.5" y="457.1" class="st4" width="41.9" height="41.7"/>
		<rect x="711.4" y="457.1" class="st1" width="41.9" height="41.7"/>
		<rect x="753.4" y="457.1" class="st4" width="41.9" height="41.7"/>
		<rect x="795.3" y="457.1" class="st1" width="41.9" height="41.7"/>
		<rect x="837.2" y="457.1" class="st4" width="41.9" height="41.7"/>
		<rect x="879.2" y="457.1" class="st1" width="41.9" height="41.7"/>
		<rect x="921.1" y="457.1" class="st4" width="41.9" height="41.7"/>
		<rect x="963" y="457.1" class="st1" width="41.9" height="41.7"/>
		<rect x="1005" y="457.1" class="st4" width="41.9" height="41.7"/>
		<rect x="1046.9" y="457.1" class="st1" width="41.9" height="41.7"/>
		<path class="st4" d="M1088.8,457.1v41.7h15.8c9.3-9.4,18-20.7,26.2-34.5v-7.2H1088.8z"/>
		<path class="st1" d="M1130.8,464.3c1.4-2.3,2.7-4.7,4.1-7.2h-4.1V464.3z"/>
		<path class="st1" d="M543.7,540.2c-1,0.1-2,0.2-3,0.3h3V540.2z"/>
		<path class="st4" d="M585.6,540.6v-10.1c-13.4,5-27.5,8-41.9,9.8v0.3H585.6z"/>
		<path class="st1" d="M627.6,540.6v-35.1c-13.1,11.5-27.1,19.5-41.9,25v10.1H627.6z"/>
		<path class="st4" d="M669.5,540.6v-41.7h-34.9c-2.3,2.3-4.7,4.5-7,6.6v35.1L669.5,540.6L669.5,540.6z"/>
		<rect x="669.5" y="498.8" class="st1" width="41.9" height="41.7"/>
		<rect x="711.4" y="498.8" class="st4" width="41.9" height="41.7"/>
		<rect x="753.4" y="498.8" class="st1" width="41.9" height="41.7"/>
		<rect x="795.3" y="498.8" class="st4" width="41.9" height="41.7"/>
		<rect x="837.2" y="498.8" class="st1" width="41.9" height="41.7"/>
		<rect x="879.2" y="498.8" class="st4" width="41.9" height="41.7"/>
		<rect x="921.1" y="498.8" class="st1" width="41.9" height="41.7"/>
		<rect x="963" y="498.8" class="st4" width="41.9" height="41.7"/>
		<path class="st1" d="M1005,498.8v41.7h5.8c12.4-1.4,24.5-3.6,36.2-7.2v-34.6L1005,498.8L1005,498.8z"/>
		<path class="st4" d="M1046.9,498.8v34.6c14.7-4.5,28.8-11.1,41.9-20.9v-13.7L1046.9,498.8L1046.9,498.8z"/>
		<path class="st1" d="M1088.8,512.5c5.4-4,10.7-8.6,15.8-13.7h-15.8V512.5z"/>
		<path class="st4" d="M711.4,373.5h-15.9c-0.2,0.7-0.3,1.3-0.5,2c-3.7,14.5-7.6,27.7-11.9,39.8h28.4L711.4,373.5L711.4,373.5z"/>
		<rect x="711.4" y="373.5" class="st1" width="41.9" height="41.7"/>
		<rect x="753.4" y="373.5" class="st4" width="41.9" height="41.7"/>
		<rect x="795.3" y="373.5" class="st1" width="41.9" height="41.7"/>
		<rect x="837.2" y="373.5" class="st4" width="41.9" height="41.7"/>
		<rect x="879.2" y="373.5" class="st1" width="41.9" height="41.7"/>
		<rect x="921.1" y="373.5" class="st4" width="41.9" height="41.7"/>
		<rect x="963" y="373.5" class="st1" width="41.9" height="41.7"/>
		<rect x="1005" y="373.5" class="st4" width="41.9" height="41.7"/>
		<rect x="1046.9" y="373.5" class="st1" width="41.9" height="41.7"/>
		<rect x="1088.8" y="373.5" class="st4" width="41.9" height="41.7"/>
		<path class="st1" d="M1130.8,415.3h22.3c4.3-12.1,8.3-25.3,11.9-39.8c0.2-0.7,0.3-1.3,0.5-2h-34.7L1130.8,415.3L1130.8,415.3z"/>
		<path class="st4" d="M669.5,448c-1.5,3.1-3.1,6.1-4.6,9h4.6V448z"/>
		<path class="st1" d="M711.4,457v-41.7H683c-4.2,12-8.8,22.9-13.6,32.7v9H711.4z"/>
		<rect x="711.4" y="415.3" class="st4" width="41.9" height="41.7"/>
		<rect x="753.4" y="415.3" class="st1" width="41.9" height="41.7"/>
		<rect x="795.3" y="415.3" class="st4" width="41.9" height="41.7"/>
		<rect x="837.2" y="415.3" class="st1" width="41.9" height="41.7"/>
		<rect x="879.2" y="415.3" class="st4" width="41.9" height="41.7"/>
		<rect x="921.1" y="415.3" class="st1" width="41.9" height="41.7"/>
		<rect x="963" y="415.3" class="st4" width="41.9" height="41.7"/>
		<rect x="1005" y="415.3" class="st1" width="41.9" height="41.7"/>
		<rect x="1046.9" y="415.3" class="st4" width="41.9" height="41.7"/>
		<rect x="1088.8" y="415.3" class="st1" width="41.9" height="41.7"/>
		<path class="st4" d="M1130.8,457h4.1c6.5-12.1,12.6-26,18.2-41.7h-22.3L1130.8,457L1130.8,457z"/>
		<path class="st4" d="M711.4,327.2c-0.7,1.5-1.3,3-2,4.6h2V327.2z"/>
		<path class="st1" d="M753.4,331.7V290H732c-7.4,10.9-14.3,23.2-20.5,37.2v4.6h41.9V331.7z"/>
		<rect x="753.4" y="290" class="st4" width="41.9" height="41.7"/>
		<rect x="795.3" y="290" class="st1" width="41.9" height="41.7"/>
		<rect x="837.2" y="290" class="st4" width="41.9" height="41.7"/>
		<rect x="879.2" y="290" class="st1" width="41.9" height="41.7"/>
		<rect x="921.1" y="290" class="st4" width="41.9" height="41.7"/>
		<rect x="963" y="290" class="st1" width="41.9" height="41.7"/>
		<rect x="1005" y="290" class="st4" width="41.9" height="41.7"/>
		<rect x="1046.9" y="290" class="st1" width="41.9" height="41.7"/>
		<rect x="1088.8" y="290" class="st4" width="41.9" height="41.7"/>
		<rect x="1130.8" y="290" class="st1" width="41.9" height="41.7"/>
		<path class="st4" d="M1172.7,331.7h6.8c6.7-15.9,14.3-29.6,22.5-41.7h-29.3V331.7z"/>
		<path class="st1" d="M711.4,331.7h-2c-5.3,12.5-9.9,26.3-13.9,41.7h15.9V331.7z"/>
		<rect x="711.4" y="331.7" class="st4" width="41.9" height="41.7"/>
		<rect x="753.4" y="331.7" class="st1" width="41.9" height="41.7"/>
		<rect x="795.3" y="331.7" class="st4" width="41.9" height="41.7"/>
		<rect x="837.2" y="331.7" class="st1" width="41.9" height="41.7"/>
		<rect x="879.2" y="331.7" class="st4" width="41.9" height="41.7"/>
		<rect x="921.1" y="331.7" class="st1" width="41.9" height="41.7"/>
		<rect x="963" y="331.7" class="st4" width="41.9" height="41.7"/>
		<rect x="1005" y="331.7" class="st1" width="41.9" height="41.7"/>
		<rect x="1046.9" y="331.7" class="st4" width="41.9" height="41.7"/>
		<rect x="1088.8" y="331.7" class="st1" width="41.9" height="41.7"/>
		<path class="st4" d="M1130.8,331.7v41.7h34.8c2.2-8.5,4.6-16.4,7.2-24v-17.8L1130.8,331.7L1130.8,331.7z"/>
		<path class="st1" d="M1172.7,349.5c2.1-6.2,4.4-12.1,6.8-17.8h-6.8V349.5z"/>
		<path class="st4" d="M795.3,224.7c-9.2,7.4-18.3,15.1-27.3,23.5h27.3V224.7z"/>
		<path class="st1" d="M837.2,248.2v-41.7h-19.1c-7.5,6.1-15.1,12.1-22.8,18.3v23.5L837.2,248.2L837.2,248.2z"/>
		<rect x="837.2" y="206.4" class="st4" width="41.9" height="41.7"/>
		<rect x="879.2" y="206.4" class="st1" width="41.9" height="41.7"/>
		<rect x="921.1" y="206.4" class="st4" width="41.9" height="41.7"/>
		<rect x="963" y="206.4" class="st1" width="41.9" height="41.7"/>
		<rect x="1005" y="206.4" class="st4" width="41.9" height="41.7"/>
		<rect x="1046.9" y="206.4" class="st1" width="41.9" height="41.7"/>
		<rect x="1088.8" y="206.4" class="st4" width="41.9" height="41.7"/>
		<rect x="1130.8" y="206.4" class="st1" width="41.9" height="41.7"/>
		<rect x="1172.7" y="206.4" class="st4" width="41.9" height="41.7"/>
		<path class="st1" d="M1214.6,206.4v41.7h23.4c6.1-5.7,12.3-11.1,18.5-16.3v-25.4L1214.6,206.4L1214.6,206.4z"/>
		<path class="st4" d="M1256.6,231.9c10.5-8.8,21.2-17,31.5-25.4h-31.5V231.9z"/>
		<path class="st4" d="M753.4,263c-7.4,8.1-14.6,17-21.4,26.9h21.4V263z"/>
		<path class="st1" d="M795.3,289.9v-41.7H768c-5,4.7-9.9,9.6-14.7,14.8v26.9L795.3,289.9L795.3,289.9z"/>
		<rect x="795.3" y="248.2" class="st4" width="41.9" height="41.7"/>
		<rect x="837.2" y="248.2" class="st1" width="41.9" height="41.7"/>
		<rect x="879.2" y="248.2" class="st4" width="41.9" height="41.7"/>
		<rect x="921.1" y="248.2" class="st1" width="41.9" height="41.7"/>
		<rect x="963" y="248.2" class="st4" width="41.9" height="41.7"/>
		<rect x="1005" y="248.2" class="st1" width="41.9" height="41.7"/>
		<rect x="1046.9" y="248.2" class="st4" width="41.9" height="41.7"/>
		<rect x="1088.8" y="248.2" class="st1" width="41.9" height="41.7"/>
		<rect x="1130.8" y="248.2" class="st4" width="41.9" height="41.7"/>
		<path class="st1" d="M1172.7,248.2v41.7h29.3c4.1-6,8.3-11.6,12.6-16.9v-24.9L1172.7,248.2L1172.7,248.2z"/>
		<path class="st4" d="M1214.6,273.1c7.5-9.1,15.4-17.3,23.4-24.9h-23.4V273.1z"/>
		<path class="st4" d="M879.2,139c-5.3,9.4-11.2,17.8-17.5,25.6h17.5V139z"/>
		<path class="st1" d="M921.1,164.6v-41.7h-33.8c-2.5,5.7-5.2,11.1-8.1,16.2v25.6h41.9V164.6z"/>
		<rect x="921.1" y="122.9" class="st4" width="41.9" height="41.7"/>
		<rect x="963" y="122.9" class="st1" width="41.9" height="41.7"/>
		<rect x="1005" y="122.9" class="st4" width="41.9" height="41.7"/>
		<rect x="1046.9" y="122.9" class="st1" width="41.9" height="41.7"/>
		<rect x="1088.8" y="122.9" class="st4" width="41.9" height="41.7"/>
		<rect x="1130.8" y="122.9" class="st1" width="41.9" height="41.7"/>
		<rect x="1172.7" y="122.9" class="st4" width="41.9" height="41.7"/>
		<rect x="1214.6" y="122.9" class="st1" width="41.9" height="41.7"/>
		<rect x="1256.6" y="122.9" class="st4" width="41.9" height="41.7"/>
		<path class="st1" d="M1298.5,122.9v41.7h33.2c3-3.7,6-7.6,8.8-11.7v-30.1h-42V122.9z"/>
		<path class="st4" d="M1340.4,153c6.2-9,11.9-18.9,16.9-30.1h-16.9V153z"/>
		<path class="st4" d="M837.2,190.1c-6.2,5.6-12.6,11-19.1,16.3h19.1V190.1z"/>
		<path class="st1" d="M879.2,206.4v-41.7h-17.5c-7.6,9.3-15.8,17.6-24.4,25.5v16.3h41.9V206.4z"/>
		<rect x="879.2" y="164.6" class="st4" width="41.9" height="41.7"/>
		<rect x="921.1" y="164.6" class="st1" width="41.9" height="41.7"/>
		<rect x="963" y="164.6" class="st4" width="41.9" height="41.7"/>
		<rect x="1005" y="164.6" class="st1" width="41.9" height="41.7"/>
		<rect x="1046.9" y="164.6" class="st4" width="41.9" height="41.7"/>
		<rect x="1088.8" y="164.6" class="st1" width="41.9" height="41.7"/>
		<rect x="1130.8" y="164.6" class="st4" width="41.9" height="41.7"/>
		<rect x="1172.7" y="164.6" class="st1" width="41.9" height="41.7"/>
		<rect x="1214.6" y="164.6" class="st4" width="41.9" height="41.7"/>
		<path class="st1" d="M1256.6,164.6v41.7h31.6c3.5-2.8,6.9-5.7,10.3-8.6v-33.2L1256.6,164.6L1256.6,164.6z"/>
		<path class="st4" d="M1298.5,197.8c11.8-10.1,23-20.7,33.2-33.2h-33.2V197.8z"/>
		<path class="st1" d="M921.1,39.3H907c-1.3,15.3-3.4,29.2-6.2,41.7h20.3V39.3z"/>
		<rect x="921.1" y="39.3" class="st4" width="41.9" height="41.7"/>
		<rect x="963" y="39.3" class="st1" width="41.9" height="41.7"/>
		<rect x="1005" y="39.3" class="st4" width="41.9" height="41.7"/>
		<rect x="1046.9" y="39.3" class="st1" width="41.9" height="41.7"/>
		<rect x="1088.8" y="39.3" class="st4" width="41.9" height="41.7"/>
		<rect x="1130.8" y="39.3" class="st1" width="41.9" height="41.7"/>
		<rect x="1172.7" y="39.3" class="st4" width="41.9" height="41.7"/>
		<rect x="1214.6" y="39.3" class="st1" width="41.9" height="41.7"/>
		<rect x="1256.6" y="39.3" class="st4" width="41.9" height="41.7"/>
		<rect x="1298.5" y="39.3" class="st1" width="41.9" height="41.7"/>
		<path class="st4" d="M1340.4,81.1h30.4c2.8-12.6,4.9-26.4,6.2-41.7h-36.5L1340.4,81.1L1340.4,81.1z"/>
		<path class="st4" d="M921.1,81.1h-20.3c-3.5,15.7-8,29.5-13.5,41.7h33.8V81.1z"/>
		<rect x="921.1" y="81.1" class="st1" width="41.9" height="41.7"/>
		<rect x="963" y="81.1" class="st4" width="41.9" height="41.7"/>
		<rect x="1005" y="81.1" class="st1" width="41.9" height="41.7"/>
		<rect x="1046.9" y="81.1" class="st4" width="41.9" height="41.7"/>
		<rect x="1088.8" y="81.1" class="st1" width="41.9" height="41.7"/>
		<rect x="1130.8" y="81.1" class="st4" width="41.9" height="41.7"/>
		<rect x="1172.7" y="81.1" class="st1" width="41.9" height="41.7"/>
		<rect x="1214.6" y="81.1" class="st4" width="41.9" height="41.7"/>
		<rect x="1256.6" y="81.1" class="st1" width="41.9" height="41.7"/>
		<rect x="1298.5" y="81.1" class="st4" width="41.9" height="41.7"/>
		<path class="st1" d="M1340.4,122.8h16.9c5.4-12.2,10-26,13.5-41.7h-30.4V122.8z"/>
		<path class="st4" d="M921.1,0h-12.6c0,14.1-0.5,27.1-1.5,39.3h14.1V0z"/>
		<rect x="921.1" class="st1" width="41.9" height="39.3"/>
		<rect x="963" class="st4" width="41.9" height="39.3"/>
		<rect x="1005" class="st1" width="41.9" height="39.3"/>
		<rect x="1046.9" class="st4" width="41.9" height="39.3"/>
		<rect x="1088.8" class="st1" width="41.9" height="39.3"/>
		<rect x="1130.8" class="st4" width="41.9" height="39.3"/>
		<rect x="1172.7" class="st1" width="41.9" height="39.3"/>
		<rect x="1214.6" class="st4" width="41.9" height="39.3"/>
		<rect x="1256.6" class="st1" width="41.9" height="39.3"/>
		<rect x="1298.5" class="st4" width="41.9" height="39.3"/>
		<path class="st1" d="M1340.4,39.3h36.5c1-12.1,1.6-25.2,1.5-39.3h-38.1L1340.4,39.3L1340.4,39.3z"/>
	</g>
	<g>
		<path class="st2" d="M222.3,107.3c16.4-16.4,36-29.5,57.4-38.4c21.4-8.9,44.6-13.5,67.7-13.5c23.2,0,46.3,4.6,67.7,13.5
			c21.4,8.8,41,22,57.4,38.4s29.5,36,38.4,57.4s13.5,44.6,13.5,67.7c0,23.2-4.6,46.3-13.5,67.7c-8.8,21.4-22,41-38.4,57.4l-7.1-7.1
			c15.5-15.5,27.9-34,36.2-54.2c8.4-20.2,12.7-42,12.7-63.9s-4.3-43.7-12.7-63.9c-8.3-20.2-20.7-38.7-36.2-54.2s-34-27.9-54.2-36.2
			c-20.2-8.4-42-12.7-63.9-12.7s-43.7,4.3-63.9,12.7c-20.2,8.3-38.7,20.7-54.2,36.2L222.3,107.3z"/>
		<path class="st2" d="M472.6,357.7c-69.1,69.1-181.2,69.1-250.3,0s-69.1-181.2,0-250.3"/>
	</g>
	<polygon class="st2" points="1554,89.9 1524.6,60.5 1487,98.2 1449.4,60.5 1420,89.9 1457.7,127.5 1420,165.1 1449.4,194.5 
		1487,156.8 1524.6,194.5 1554,165.1 1516.3,127.5 	"/>
	<path id="XMLID_2_" class="st2" d="M1388.5,0l-0.2,11.8l-0.1,5.9c0,2-0.2,3.9-0.3,5.9l-0.6,11.8l-1.1,11.8
		c-1.7,15.7-4.2,31.4-8.3,46.9c-4.2,15.5-9.8,30.7-17.4,45.1c-7.5,14.4-17.1,27.7-27.9,39.7c-5.3,6.1-11.1,11.6-16.9,17.1
		c-2.9,2.6-5.9,5.3-8.9,7.9c-3,2.5-6,5.1-9,7.6c-12,9.9-24.2,19.3-35.8,29c-23.2,19.4-44,40.5-58.5,66.4l-8.6-5.2l6-9.9l0.7-1.2
		l0.8-1.2l1.7-2.4l3.3-4.7c2.3-3.1,4.7-6.1,7.1-9.1c2.5-2.9,5-5.9,7.5-8.7c10.3-11.4,21.7-21.8,33.5-31.7c11.8-9.9,24-19.3,35.9-29
		c3-2.4,5.9-4.9,8.8-7.4s5.8-5.1,8.6-7.7c5.6-5.3,11.1-10.6,16.2-16.4c10.3-11.4,19.4-24,26.5-37.7c7.2-13.6,12.6-28.1,16.6-43
		s6.4-30.1,8-45.4l1.1-11.5l0.6-11.5c0.1-1.9,0.2-3.8,0.3-5.8l0.1-5.8l0.3-11.6H1388.5z"/>
	<g>
		<circle class="st2" cx="1286.3" cy="538" r="5"/>
		<circle class="st2" cx="1331.3" cy="538" r="5"/>
		<circle class="st2" cx="1376.3" cy="538" r="5"/>
		<circle class="st2" cx="1421.3" cy="538" r="5"/>
	</g>
	<g>
		<circle class="st2" cx="1286.3" cy="581.5" r="5"/>
		<circle class="st2" cx="1331.3" cy="581.5" r="5"/>
		<circle class="st2" cx="1376.3" cy="581.5" r="5"/>
		<circle class="st2" cx="1421.3" cy="581.5" r="5"/>
	</g>
	<g>
		<circle class="st2" cx="1286.3" cy="625" r="5"/>
		<circle class="st2" cx="1331.3" cy="625" r="5"/>
		<circle class="st2" cx="1376.3" cy="625" r="5"/>
		<circle class="st2" cx="1421.3" cy="625" r="5"/>
	</g>
	<g>
		<circle class="st2" cx="1286.3" cy="668.5" r="5"/>
		<circle class="st2" cx="1331.3" cy="668.5" r="5"/>
		<circle class="st2" cx="1376.3" cy="668.5" r="5"/>
		<circle class="st2" cx="1421.3" cy="668.5" r="5"/>
	</g>
	<g>
		<path class="st2" d="M178.7,821.2L164.9,887h-17.1l13.8-65.8h-128l3.7-17.1l163.5-177.2h19.3l-38.1,178h26.8l-3.5,16.4h-26.6
			L178.7,821.2L178.7,821.2z M55.9,805.2h109l32.7-154.7L55.9,805.2z"/>
		<path class="st2" d="M408.8,845.1L358.1,887H277l-33.1-41.8l37.4-176.5l50.6-41.8H413l33.3,41.8L408.8,845.1z M261.7,841.2
			l23.2,29.8h66.8l41.8-34.6l29.8-139.9L261.7,841.2z M296.5,677.6l-29.8,139.7l161.4-144.7l-23.2-29.8h-66.6L296.5,677.6z"/>
		<path class="st2" d="M594.7,821.2L581,887h-17.1l13.8-65.8h-128l3.7-17.1l163.5-177.2h19.3l-38.1,178h26.8l-3.5,16.4h-26.7V821.2z
			 M472,805.2h109l32.7-154.7L472,805.2z"/>
	</g>
	<line class="st5" x1="694.3" y1="55.5" x2="976.6" y2="337.8"/>
	<polygon class="st1" points="99,310.5 0,310.5 0,409.5 	"/>
</g>
</svg>
