<?xml version="1.0" encoding="utf-8"?>
<!-- Generator: Adobe Illustrator 25.0.1, SVG Export Plug-In . SVG Version: 6.00 Build 0)  -->
<svg version="1.1" id="Layer_1" xmlns="http://www.w3.org/2000/svg" xmlns:xlink="http://www.w3.org/1999/xlink" x="0px" y="0px"
	 viewBox="0 0 1554.4 921.5" style="enable-background:new 0 0 1554.4 921.5;" xml:space="preserve">
<style type="text/css">
	.st0{fill:#407677;}
	.st1{fill:#FAFBFB;}
	.st2{fill:#00484A;}
	.st3{fill:none;}
	.st4{fill:#B0C6C7;}
</style>
<g>
	<rect x="1007.8" y="136.6" class="st0" width="312" height="353.6"/>
	<g>
		<g>
			<g>
				<rect x="727.7" y="474.8" class="st1" width="349.9" height="349.9"/>
				<path class="st2" d="M1081.4,828.5H724V471.1h357.4V828.5z M731.5,821h342.4V478.6H731.5V821z"/>
			</g>
			<rect x="727.7" y="474.8" class="st2" width="349.9" height="89.3"/>
			<path class="st2" d="M1035.5,474.8c-9.5,15.5-17.8,34.2-23.8,58.1c-50.5,199.6-181.6,82.4-284,150.7V474.8H1035.5z"/>
		</g>
		<g>
			<g>
				<rect x="767.4" y="455.7" class="st1" width="349.9" height="349.9"/>
				<path class="st2" d="M1121.1,809.3H763.7V451.9h357.4V809.3z M771.2,801.8h342.4V459.4H771.2L771.2,801.8L771.2,801.8z"/>
			</g>
			<rect x="767.4" y="455.7" class="st2" width="349.9" height="89.3"/>
			<path class="st2" d="M1040.1,455.7c-11.6,16.7-21.5,37.6-28.5,65.2c-44.1,174.5-149.9,106.8-244.2,132.7v-198H1040.1z"/>
		</g>
		<g>
			<g>
				<rect x="807.2" y="436.5" class="st1" width="349.9" height="349.9"/>
				<path class="st2" d="M1160.8,790.2H803.4V432.8h357.4V790.2z M810.9,782.7h342.4V440.3H810.9L810.9,782.7L810.9,782.7z"/>
			</g>
			<rect x="807.2" y="436.5" class="st2" width="349.9" height="89.3"/>
			<path class="st2" d="M1050.1,436.5c-15.8,18.8-29.5,43-38.4,78.4c-38,150.3-121.8,121-204.5,126.4V436.5H1050.1z"/>
		</g>
		<g>
			<g>
				<rect x="846.9" y="417.4" class="st1" width="349.9" height="349.9"/>
				<path class="st2" d="M1200.6,771H843.2V413.6h357.4V771z M850.7,763.5h342.4V421.1H850.7V763.5L850.7,763.5z"/>
			</g>
			<rect x="846.9" y="417.4" class="st2" width="349.9" height="89.3"/>
			<path class="st2" d="M1058.1,417.4c-19.1,20-36,46-46.5,87.3c-31.9,126.1-96,125.8-164.7,125.6V417.4H1058.1z"/>
		</g>
		<g>
			<g>
				<rect x="886.7" y="398.2" class="st1" width="349.9" height="349.9"/>
				<path class="st2" d="M1240.3,751.9H882.9V394.5h357.4V751.9z M890.4,744.4h342.4V402H890.4V744.4L890.4,744.4z"/>
			</g>
			<rect x="886.7" y="398.2" class="st2" width="349.9" height="89.3"/>
			<path class="st2" d="M1064.5,398.2c-21.6,20.8-41.2,47.9-52.8,93.7c-25.6,101.4-72.1,121-125,124.8V398.2H1064.5z"/>
		</g>
		<g>
			<g>
				<rect x="926.4" y="379.1" class="st1" width="349.9" height="349.9"/>
				<path class="st2" d="M1280,732.7H922.6V375.3H1280V732.7z M930.1,725.2h342.4V382.9H930.1V725.2z"/>
			</g>
			<rect x="926.4" y="379.1" class="st2" width="349.9" height="89.3"/>
			<path class="st2" d="M1075.6,379.1c-25.9,22.3-50.5,50.2-64,103.8c-19,75-49.3,105.3-85.3,117.5V379.1H1075.6z"/>
		</g>
		<g>
			<g>
				<rect x="966.1" y="360" class="st1" width="349.9" height="349.9"/>
				<path class="st2" d="M1093.2,360c-29.7,24-47.6,52.9-62.9,113.7c-12.9,50.9-33,81.8-64.2,98.1V360H1093.2z"/>
				<path class="st2" d="M1319.7,713.6H962.3V356.2h357.4V713.6z M969.9,706.1h342.4V363.7H969.9V706.1z"/>
			</g>
			<rect x="966.1" y="360" class="st2" width="349.9" height="89.3"/>
		</g>
	</g>
	<g>
		<path class="st3" d="M976.5,354.2H945h-31.5h-31.5h-31.5h-31.5h-31.5h-31.5h-31.5h-31.5h-16.1c0,0,0,0,0,0.1h16.1h31.5h31.5h31.5
			h31.5h31.5h31.5h31.5H945L976.5,354.2l31.5,0.1h22c0,0,0,0,0-0.1h-22H976.5z"/>
		<path class="st3" d="M944.9,417h-31.5H882h-31.5h-31.5h-31.5h-31.5h-31.5h-31.5h-31.5h-12.2c0,0,0,0,0,0.1h11.9H693h31.5h31.5
			h31.5h31.5h31.5h31.5h31.5L944.9,417l31.5,0.1h26.1c0,0,0,0,0-0.1h-26.1H944.9z"/>
		<path class="st3" d="M1102.4,228.8h-31.5h-31.5H1008h-31.5h-31.5h-31.5h-31.5h-31.5h-31.5h-25.4c0,0,0,0,0,0.1h25.4h31.5h31.5
			h31.5h31.5h31.5h31.5h31.5h31.5L1102.4,228.8l31.5,0.1h12.7c0,0,0,0,0-0.1h-12.7H1102.4z"/>
		<path class="st3" d="M1039.4,291.6h-31.5h-31.5H945h-31.5h-31.5h-31.5h-31.5h-31.5h-31.5h-14.3c0,0-0.1,0-0.1,0.1h14.3h31.5h31.5
			h31.5H882h31.5h31.5h31.5h31.5L1039.4,291.6l31.5,0.1h23.7c0,0,0.1,0,0.1-0.1h-23.7H1039.4z"/>
		<path class="st3" d="M944.9,479.7h-31.5H882h-31.5h-31.5h-31.5h-31.5h-31.5h-31.5h-31.5h-31.7h-3.5c0,0,0,0,0,0.1h3.5h31.5h31.5
			h31.5H756h31.5h31.5h31.5h31.5h31.5L944.9,479.7l31.5,0.1h3.1c0,0,0,0,0-0.1h-3.1H944.9z"/>
		<path class="st3" d="M598.6,667.9h-31.5h-31.5h-31.5h-31.5h-31.5h-31.5h-31.5H347h-31.5h-10.2c0,0,0,0,0,0.1h10.2H347h31.5h31.5
			h31.5h31.5h31.5h31.5h31.5L598.6,667.9l31.5,0.1H658c0,0,0,0,0-0.1h-27.9H598.6z"/>
		<path class="st3" d="M598.6,730.6h-31.5h-31.5h-31.5h-31.5h-31.5h-31.5h-31.5H347h-31.5H307c0,0,0,0,0,0.1h8.6H347h31.5h31.5h31.5
			h31.5h31.5h31.5h31.5L598.6,730.6l31.5,0.1h29.4c0,0,0,0,0-0.1h-29.4H598.6z"/>
		<path class="st3" d="M1102.4,166.1h-31.5h-31.5H1008h-31.5h-31.5h-31.5h-31.5h-31.5h-31.5h-10.6c0,0,0,0,0,0.1h10.6h31.5h31.5
			h31.5h31.5h31.5h31.5h31.5h31.5L1102.4,166.1l31.5,0.1h27.4c0,0,0,0,0-0.1h-27.4H1102.4z"/>
		<path class="st3" d="M850.5,542.5H819h-31.5h-31.5h-31.5h-31.5h-31.5h-31.6h-31.5h-31.5h-31.5h-2.3c-0.2,0-0.3,0-0.5,0.1h2.7h31.5
			h31.5h31.5h31.5H693h31.5h31.5h31.5h31.5L850.5,542.5l31.5,0.1h3.9c0.2,0,0.3,0,0.5-0.1h-4.4H850.5z"/>
		<path class="st3" d="M630.1,605.2h-31.5h-31.5h-31.5h-31.5h-31.5h-31.5h-31.5h-31.5H347h-20c0,0,0,0,0,0.1h20h31.5h31.5h31.5h31.5
			h31.5h31.5h31.5h31.5L630.1,605.2l31.5,0.1h18c0,0,0,0,0-0.1h-18H630.1z"/>
		<path class="st3" d="M598.6,793.4h-31.5h-31.5h-31.5h-31.5h-31.5h-31.5h-31.5H347h-31.5h-12.2c0,0,0,0,0,0.1h12.2H347h31.5h31.5
			h31.5h31.5h31.5h31.5h31.5L598.6,793.4l31.5,0.1H656c0,0,0,0,0-0.1h-25.9H598.6z"/>
		<path class="st1" d="M303.1,793.5c-2.2,10.3-5.4,20.7-10.1,31.2h22.3v-31.2H303.1z"/>
		<rect x="315.3" y="793.5" class="st4" width="31.5" height="31.2"/>
		<rect x="346.7" y="793.5" class="st1" width="31.5" height="31.2"/>
		<rect x="378.3" y="793.5" class="st4" width="31.5" height="31.2"/>
		<rect x="409.7" y="793.5" class="st1" width="31.5" height="31.2"/>
		<rect x="441.2" y="793.5" class="st4" width="31.5" height="31.2"/>
		<rect x="472.7" y="793.5" class="st1" width="31.5" height="31.2"/>
		<rect x="504.2" y="793.5" class="st4" width="31.5" height="31.2"/>
		<rect x="535.7" y="793.5" class="st1" width="31.5" height="31.2"/>
		<rect x="567.1" y="793.5" class="st4" width="31.5" height="31.2"/>
		<rect x="598.6" y="793.5" class="st1" width="31.5" height="31.2"/>
		<path class="st4" d="M630.1,824.7h15.8c4.7-10.6,8-20.9,10.1-31.2h-25.9V824.7z"/>
		<path class="st1" d="M315.3,730.7h-8.6c0.5,10.3,0.8,20.7,0.2,31.3h8.3L315.3,730.7L315.3,730.7z"/>
		<rect x="315.3" y="730.7" class="st4" width="31.5" height="31.3"/>
		<rect x="346.7" y="730.7" class="st1" width="31.5" height="31.3"/>
		<rect x="378.3" y="730.7" class="st4" width="31.5" height="31.3"/>
		<rect x="409.7" y="730.7" class="st1" width="31.5" height="31.3"/>
		<rect x="441.2" y="730.7" class="st4" width="31.5" height="31.3"/>
		<rect x="472.7" y="730.7" class="st1" width="31.5" height="31.3"/>
		<rect x="504.2" y="730.7" class="st4" width="31.5" height="31.3"/>
		<rect x="535.7" y="730.7" class="st1" width="31.5" height="31.3"/>
		<rect x="567.1" y="730.7" class="st4" width="31.5" height="31.3"/>
		<rect x="598.6" y="730.7" class="st1" width="31.5" height="31.3"/>
		<path class="st4" d="M630.1,762.1h29.7c0.5-10.6,0.2-21-0.2-31.3h-29.5V762.1z"/>
		<path class="st4" d="M315.3,762.1H307c-0.5,10.3-1.6,20.7-3.8,31.3h12.2V762.1L315.3,762.1z"/>
		<rect x="315.3" y="762.1" class="st1" width="31.5" height="31.3"/>
		<rect x="346.7" y="762.1" class="st4" width="31.5" height="31.3"/>
		<rect x="378.3" y="762.1" class="st1" width="31.5" height="31.3"/>
		<rect x="409.7" y="762.1" class="st4" width="31.5" height="31.3"/>
		<rect x="441.2" y="762.1" class="st1" width="31.5" height="31.3"/>
		<rect x="472.7" y="762.1" class="st4" width="31.5" height="31.3"/>
		<rect x="504.2" y="762.1" class="st1" width="31.5" height="31.3"/>
		<rect x="535.7" y="762.1" class="st4" width="31.5" height="31.3"/>
		<rect x="567.1" y="762.1" class="st1" width="31.5" height="31.3"/>
		<rect x="598.6" y="762.1" class="st4" width="31.5" height="31.3"/>
		<path class="st1" d="M630.1,793.4H656c2.3-10.6,3.4-21,3.8-31.3h-29.7V793.4z"/>
		<path class="st1" d="M315.3,668h-10.2c-0.7,10.3-0.5,20.7-0.1,31.3h10.3V668L315.3,668z"/>
		<rect x="315.3" y="668" class="st4" width="31.5" height="31.3"/>
		<rect x="346.7" y="668" class="st1" width="31.5" height="31.3"/>
		<rect x="378.3" y="668" class="st4" width="31.5" height="31.3"/>
		<rect x="409.7" y="668" class="st1" width="31.5" height="31.3"/>
		<rect x="441.2" y="668" class="st4" width="31.5" height="31.3"/>
		<rect x="472.7" y="668" class="st1" width="31.5" height="31.3"/>
		<rect x="504.2" y="668" class="st4" width="31.5" height="31.3"/>
		<rect x="535.7" y="668" class="st1" width="31.5" height="31.3"/>
		<rect x="567.1" y="668" class="st4" width="31.5" height="31.3"/>
		<rect x="598.6" y="668" class="st1" width="31.5" height="31.3"/>
		<path class="st4" d="M630.1,699.3h27.8c-0.5-10.6-0.7-21.1,0.1-31.3h-27.9V699.3z"/>
		<path class="st4" d="M315.3,699.3H305c0.5,10.3,1.2,20.7,1.7,31.3h8.6V699.3L315.3,699.3z"/>
		<rect x="315.3" y="699.3" class="st1" width="31.5" height="31.3"/>
		<rect x="346.7" y="699.3" class="st4" width="31.5" height="31.3"/>
		<rect x="378.3" y="699.3" class="st1" width="31.5" height="31.3"/>
		<rect x="409.7" y="699.3" class="st4" width="31.5" height="31.3"/>
		<rect x="441.2" y="699.3" class="st1" width="31.5" height="31.3"/>
		<rect x="472.7" y="699.3" class="st4" width="31.5" height="31.3"/>
		<rect x="504.2" y="699.3" class="st1" width="31.5" height="31.3"/>
		<rect x="535.7" y="699.3" class="st4" width="31.5" height="31.3"/>
		<rect x="567.1" y="699.3" class="st1" width="31.5" height="31.3"/>
		<rect x="598.6" y="699.3" class="st4" width="31.5" height="31.3"/>
		<path class="st1" d="M630.1,730.6h29.4c-0.5-10.6-1.2-21-1.7-31.3H630L630.1,730.6L630.1,730.6z"/>
		<path class="st1" d="M315.3,624.8c-1.8,3.9-3.3,7.9-4.5,11.9h4.5V624.8z"/>
		<path class="st4" d="M346.7,636.6v-31.3h-20c-4.7,6.5-8.4,12.9-11.4,19.5v11.9L346.7,636.6L346.7,636.6z"/>
		<rect x="346.7" y="605.2" class="st1" width="31.5" height="31.3"/>
		<rect x="378.3" y="605.2" class="st4" width="31.5" height="31.3"/>
		<rect x="409.7" y="605.2" class="st1" width="31.5" height="31.3"/>
		<rect x="441.2" y="605.2" class="st4" width="31.5" height="31.3"/>
		<rect x="472.7" y="605.2" class="st1" width="31.5" height="31.3"/>
		<rect x="504.2" y="605.2" class="st4" width="31.5" height="31.3"/>
		<rect x="535.7" y="605.2" class="st1" width="31.5" height="31.3"/>
		<rect x="567.1" y="605.2" class="st4" width="31.5" height="31.3"/>
		<rect x="598.6" y="605.2" class="st1" width="31.5" height="31.3"/>
		<rect x="630.1" y="605.2" class="st4" width="31.5" height="31.3"/>
		<path class="st1" d="M661.6,636.6h2c3.4-10.7,8.5-21.1,15.9-31.3h-18L661.6,636.6L661.6,636.6z"/>
		<path class="st4" d="M315.3,636.6h-4.5c-3.2,10.3-5,20.7-5.7,31.3h10.2V636.6z"/>
		<rect x="315.3" y="636.6" class="st1" width="31.5" height="31.3"/>
		<rect x="346.7" y="636.6" class="st4" width="31.5" height="31.3"/>
		<rect x="378.3" y="636.6" class="st1" width="31.5" height="31.3"/>
		<rect x="409.7" y="636.6" class="st4" width="31.5" height="31.3"/>
		<rect x="441.2" y="636.6" class="st1" width="31.5" height="31.3"/>
		<rect x="472.7" y="636.6" class="st4" width="31.5" height="31.3"/>
		<rect x="504.2" y="636.6" class="st1" width="31.5" height="31.3"/>
		<rect x="535.7" y="636.6" class="st4" width="31.5" height="31.3"/>
		<rect x="567.1" y="636.6" class="st1" width="31.5" height="31.3"/>
		<rect x="598.6" y="636.6" class="st4" width="31.5" height="31.3"/>
		<path class="st1" d="M630.1,636.6v31.3H658c0.6-8.2,1.7-16.2,3.7-24.1v-7.2H630.1L630.1,636.6z"/>
		<path class="st4" d="M661.6,643.8c0.6-2.4,1.3-4.8,2-7.2h-2V643.8z"/>
		<path class="st1" d="M378.3,561.6c-5.6,2.9-11.1,6.2-16.6,10.1c-1,0.8-2,1.4-3,2.2h19.5L378.3,561.6L378.3,561.6L378.3,561.6z"/>
		<path class="st4" d="M409.7,573.9v-23.8c-10.7,2.6-21.2,6.2-31.5,11.6v12.2H409.7z"/>
		<path class="st1" d="M441.2,573.9v-28.6c-10.6,0.8-21.1,2.3-31.5,4.8v23.8L441.2,573.9L441.2,573.9z"/>
		<path class="st4" d="M472.7,573.9v-29.7c-10.4,0.1-20.9,0.3-31.5,1.1v28.6H472.7z"/>
		<path class="st1" d="M504.2,573.9v-29.8c-10.4,0.2-20.9,0-31.5,0.1v29.7H504.2L504.2,573.9z"/>
		<path class="st4" d="M535.7,573.9v-31.3H533c-9.4,1.1-19,1.4-28.8,1.6v29.8L535.7,573.9L535.7,573.9z"/>
		<rect x="535.7" y="542.5" class="st1" width="31.5" height="31.3"/>
		<rect x="567.1" y="542.5" class="st4" width="31.5" height="31.3"/>
		<rect x="598.6" y="542.5" class="st1" width="31.5" height="31.3"/>
		<rect x="630.1" y="542.5" class="st4" width="31.5" height="31.3"/>
		<rect x="661.6" y="542.5" class="st1" width="31.5" height="31.3"/>
		<path class="st4" d="M693.1,542.5v31.3h18.5c1-0.8,2-1.4,3-2.2c3.3-2.3,6.6-4.5,10-6.5v-22.7H693.1z"/>
		<path class="st1" d="M724.6,542.5v22.7c10.3-6,20.8-10.4,31.5-13.4v-9.2H724.6z"/>
		<path class="st4" d="M756,542.5v9.3c10.4-3,20.9-4.8,31.5-5.9v-3.3L756,542.5L756,542.5z"/>
		<path class="st1" d="M787.6,542.5v3.3c10.5-1.1,21-1.5,31.5-1.7v-1.7H787.6z"/>
		<path class="st4" d="M819,542.5v1.7c10.6-0.2,21.1,0,31.5-0.1v-1.7L819,542.5L819,542.5z"/>
		<path class="st1" d="M850.5,542.5v1.7c10.7-0.1,21.2-0.3,31.5-1.2v-0.4L850.5,542.5L850.5,542.5z"/>
		<path class="st4" d="M882,542.9c1.3-0.2,2.6-0.2,3.9-0.4H882V542.9z"/>
		<path class="st1" d="M346.7,583.5c-8.1,7.1-14.6,14.3-20,21.7h20V583.5z"/>
		<path class="st4" d="M378.3,605.2v-31.3h-19.5c-4.3,3.2-8.3,6.4-11.9,9.7v21.7L378.3,605.2L378.3,605.2z"/>
		<rect x="378.3" y="573.9" class="st1" width="31.5" height="31.3"/>
		<rect x="409.7" y="573.9" class="st4" width="31.5" height="31.3"/>
		<rect x="441.2" y="573.9" class="st1" width="31.5" height="31.3"/>
		<rect x="472.7" y="573.9" class="st4" width="31.5" height="31.3"/>
		<rect x="504.2" y="573.9" class="st1" width="31.5" height="31.3"/>
		<rect x="535.7" y="573.9" class="st4" width="31.5" height="31.3"/>
		<rect x="567.1" y="573.9" class="st1" width="31.5" height="31.3"/>
		<rect x="598.6" y="573.9" class="st4" width="31.5" height="31.3"/>
		<rect x="630.1" y="573.9" class="st1" width="31.5" height="31.3"/>
		<path class="st4" d="M661.6,573.9v31.3h18c3.8-5.3,8.3-10.4,13.4-15.5v-15.8H661.6z"/>
		<path class="st1" d="M693.1,589.6c5.3-5.3,11.5-10.6,18.5-15.8h-18.5V589.6z"/>
		<path class="st1" d="M630.1,479.8h-3.5c-6.9,12.8-14.6,23.1-22.7,31.3h26.2V479.8z"/>
		<rect x="630.1" y="479.8" class="st4" width="31.5" height="31.3"/>
		<rect x="661.6" y="479.8" class="st1" width="31.5" height="31.3"/>
		<rect x="693.1" y="479.8" class="st4" width="31.5" height="31.3"/>
		<rect x="724.6" y="479.8" class="st1" width="31.5" height="31.3"/>
		<rect x="756" y="479.8" class="st4" width="31.5" height="31.3"/>
		<rect x="787.6" y="479.8" class="st1" width="31.5" height="31.3"/>
		<rect x="819" y="479.8" class="st4" width="31.5" height="31.3"/>
		<rect x="850.5" y="479.8" class="st1" width="31.5" height="31.3"/>
		<rect x="882" y="479.8" class="st4" width="31.5" height="31.3"/>
		<rect x="913.5" y="479.8" class="st1" width="31.5" height="31.3"/>
		<path class="st4" d="M944.9,479.8v31.3h11.9c7-7.1,13.5-15.5,19.7-25.9v-5.4H944.9z"/>
		<path class="st1" d="M976.5,485.2c1.1-1.7,2-3.5,3.1-5.4h-3.1V485.2z"/>
		<path class="st1" d="M535.7,542.2c-0.8,0.1-1.5,0.2-2.3,0.2h2.3V542.2z"/>
		<path class="st4" d="M567.1,542.5v-7.6c-10.1,3.8-20.6,6-31.5,7.4v0.2H567.1z"/>
		<path class="st1" d="M598.6,542.5v-26.4c-9.8,8.6-20.3,14.6-31.5,18.8v7.6H598.6z"/>
		<path class="st4" d="M630.1,542.5v-31.3h-26.2c-1.7,1.7-3.5,3.4-5.3,5v26.4H630.1L630.1,542.5z"/>
		<rect x="630.1" y="511.1" class="st1" width="31.5" height="31.3"/>
		<rect x="661.6" y="511.1" class="st4" width="31.5" height="31.3"/>
		<rect x="693.1" y="511.1" class="st1" width="31.5" height="31.3"/>
		<rect x="724.6" y="511.1" class="st4" width="31.5" height="31.3"/>
		<rect x="756" y="511.1" class="st1" width="31.5" height="31.3"/>
		<rect x="787.6" y="511.1" class="st4" width="31.5" height="31.3"/>
		<rect x="819" y="511.1" class="st1" width="31.5" height="31.3"/>
		<rect x="850.5" y="511.1" class="st4" width="31.5" height="31.3"/>
		<path class="st1" d="M882,511.1v31.3h4.4c9.3-1.1,18.4-2.7,27.2-5.4v-26L882,511.1L882,511.1z"/>
		<path class="st4" d="M913.5,511.1v26c11-3.4,21.6-8.3,31.5-15.7v-10.3L913.5,511.1L913.5,511.1z"/>
		<path class="st1" d="M944.9,521.4c4.1-3,8-6.5,11.9-10.3h-11.9V521.4z"/>
		<path class="st4" d="M661.6,417h-11.9c-0.2,0.5-0.2,1-0.4,1.5c-2.8,10.9-5.7,20.8-8.9,29.9h21.3L661.6,417L661.6,417z"/>
		<rect x="661.6" y="417" class="st1" width="31.5" height="31.3"/>
		<rect x="693.1" y="417" class="st4" width="31.5" height="31.3"/>
		<rect x="724.6" y="417" class="st1" width="31.5" height="31.3"/>
		<rect x="756" y="417" class="st4" width="31.5" height="31.3"/>
		<rect x="787.6" y="417" class="st1" width="31.5" height="31.3"/>
		<rect x="819" y="417" class="st4" width="31.5" height="31.3"/>
		<rect x="850.5" y="417" class="st1" width="31.5" height="31.3"/>
		<rect x="882" y="417" class="st4" width="31.5" height="31.3"/>
		<rect x="913.5" y="417" class="st1" width="31.5" height="31.3"/>
		<rect x="944.9" y="417" class="st4" width="31.5" height="31.3"/>
		<path class="st1" d="M976.5,448.4h16.7c3.2-9.1,6.2-19,8.9-29.9c0.2-0.5,0.2-1,0.4-1.5h-26.1L976.5,448.4L976.5,448.4z"/>
		<path class="st4" d="M630.1,473c-1.1,2.3-2.3,4.6-3.5,6.8h3.5V473z"/>
		<path class="st1" d="M661.6,479.7v-31.3h-21.3c-3.2,9-6.6,17.2-10.2,24.6v6.8H661.6z"/>
		<rect x="661.6" y="448.4" class="st4" width="31.5" height="31.3"/>
		<rect x="693.1" y="448.4" class="st1" width="31.5" height="31.3"/>
		<rect x="724.6" y="448.4" class="st4" width="31.5" height="31.3"/>
		<rect x="756" y="448.4" class="st1" width="31.5" height="31.3"/>
		<rect x="787.6" y="448.4" class="st4" width="31.5" height="31.3"/>
		<rect x="819" y="448.4" class="st1" width="31.5" height="31.3"/>
		<rect x="850.5" y="448.4" class="st4" width="31.5" height="31.3"/>
		<rect x="882" y="448.4" class="st1" width="31.5" height="31.3"/>
		<rect x="913.5" y="448.4" class="st4" width="31.5" height="31.3"/>
		<rect x="944.9" y="448.4" class="st1" width="31.5" height="31.3"/>
		<path class="st4" d="M976.5,479.7h3.1c4.9-9.1,9.5-19.5,13.7-31.3h-16.7L976.5,479.7L976.5,479.7z"/>
		<path class="st4" d="M661.6,382.3c-0.5,1.1-1,2.3-1.5,3.5h1.5V382.3z"/>
		<path class="st1" d="M693.1,385.6v-31.3H677c-5.6,8.2-10.7,17.4-15.4,27.9v3.5L693.1,385.6L693.1,385.6z"/>
		<rect x="693.1" y="354.3" class="st4" width="31.5" height="31.3"/>
		<rect x="724.6" y="354.3" class="st1" width="31.5" height="31.3"/>
		<rect x="756" y="354.3" class="st4" width="31.5" height="31.3"/>
		<rect x="787.6" y="354.3" class="st1" width="31.5" height="31.3"/>
		<rect x="819" y="354.3" class="st4" width="31.5" height="31.3"/>
		<rect x="850.5" y="354.3" class="st1" width="31.5" height="31.3"/>
		<rect x="882" y="354.3" class="st4" width="31.5" height="31.3"/>
		<rect x="913.5" y="354.3" class="st1" width="31.5" height="31.3"/>
		<rect x="944.9" y="354.3" class="st4" width="31.5" height="31.3"/>
		<rect x="976.5" y="354.3" class="st1" width="31.5" height="31.3"/>
		<path class="st4" d="M1007.9,385.6h5.1c5-11.9,10.7-22.2,16.9-31.3h-22V385.6z"/>
		<path class="st1" d="M661.6,385.6h-1.5c-4,9.4-7.4,19.7-10.4,31.3h11.9V385.6z"/>
		<rect x="661.6" y="385.6" class="st4" width="31.5" height="31.3"/>
		<rect x="693.1" y="385.6" class="st1" width="31.5" height="31.3"/>
		<rect x="724.6" y="385.6" class="st4" width="31.5" height="31.3"/>
		<rect x="756" y="385.6" class="st1" width="31.5" height="31.3"/>
		<rect x="787.6" y="385.6" class="st4" width="31.5" height="31.3"/>
		<rect x="819" y="385.6" class="st1" width="31.5" height="31.3"/>
		<rect x="850.5" y="385.6" class="st4" width="31.5" height="31.3"/>
		<rect x="882" y="385.6" class="st1" width="31.5" height="31.3"/>
		<rect x="913.5" y="385.6" class="st4" width="31.5" height="31.3"/>
		<rect x="944.9" y="385.6" class="st1" width="31.5" height="31.3"/>
		<path class="st4" d="M976.5,385.6v31.3h26.1c1.7-6.4,3.5-12.3,5.4-18v-13.4L976.5,385.6L976.5,385.6z"/>
		<path class="st1" d="M1007.9,399c1.6-4.7,3.3-9.1,5.1-13.4h-5.1V399z"/>
		<path class="st4" d="M724.6,305.3c-6.9,5.6-13.7,11.3-20.5,17.6h20.5V305.3z"/>
		<path class="st1" d="M756,322.9v-31.3h-14.3c-5.6,4.6-11.3,9.1-17.1,13.7V323L756,322.9L756,322.9z"/>
		<rect x="756" y="291.6" class="st4" width="31.5" height="31.3"/>
		<rect x="787.6" y="291.6" class="st1" width="31.5" height="31.3"/>
		<rect x="819" y="291.6" class="st4" width="31.5" height="31.3"/>
		<rect x="850.5" y="291.6" class="st1" width="31.5" height="31.3"/>
		<rect x="882" y="291.6" class="st4" width="31.5" height="31.3"/>
		<rect x="913.5" y="291.6" class="st1" width="31.5" height="31.3"/>
		<rect x="944.9" y="291.6" class="st4" width="31.5" height="31.3"/>
		<rect x="976.5" y="291.6" class="st1" width="31.5" height="31.3"/>
		<rect x="1007.9" y="291.6" class="st4" width="31.5" height="31.3"/>
		<path class="st1" d="M1039.4,291.6v31.3h17.6c4.6-4.3,9.2-8.3,13.9-12.2v-19.1H1039.4L1039.4,291.6z"/>
		<path class="st4" d="M1070.9,310.7c7.9-6.6,15.9-12.8,23.7-19.1h-23.7V310.7z"/>
		<path class="st4" d="M693.1,334c-5.6,6.1-11,12.8-16.1,20.2h16.1V334z"/>
		<path class="st1" d="M724.6,354.2v-31.3h-20.5c-3.8,3.5-7.4,7.2-11,11.1v20.2H724.6L724.6,354.2z"/>
		<rect x="724.6" y="322.9" class="st4" width="31.5" height="31.3"/>
		<rect x="756" y="322.9" class="st1" width="31.5" height="31.3"/>
		<rect x="787.6" y="322.9" class="st4" width="31.5" height="31.3"/>
		<rect x="819" y="322.9" class="st1" width="31.5" height="31.3"/>
		<rect x="850.5" y="322.9" class="st4" width="31.5" height="31.3"/>
		<rect x="882" y="322.9" class="st1" width="31.5" height="31.3"/>
		<rect x="913.5" y="322.9" class="st4" width="31.5" height="31.3"/>
		<rect x="944.9" y="322.9" class="st1" width="31.5" height="31.3"/>
		<rect x="976.5" y="322.9" class="st4" width="31.5" height="31.3"/>
		<path class="st1" d="M1007.9,322.9v31.3h22c3.1-4.5,6.2-8.7,9.5-12.7v-18.7L1007.9,322.9L1007.9,322.9z"/>
		<path class="st4" d="M1039.4,341.6c5.6-6.8,11.6-13,17.6-18.7h-17.6V341.6z"/>
		<path class="st4" d="M787.6,240.9c-4,7.1-8.4,13.4-13.1,19.2h13.1V240.9z"/>
		<path class="st1" d="M819,260.2v-31.3h-25.4c-1.9,4.3-3.9,8.3-6.1,12.2v19.2L819,260.2L819,260.2L819,260.2z"/>
		<rect x="819" y="228.9" class="st4" width="31.5" height="31.3"/>
		<rect x="850.5" y="228.9" class="st1" width="31.5" height="31.3"/>
		<rect x="882" y="228.9" class="st4" width="31.5" height="31.3"/>
		<rect x="913.5" y="228.9" class="st1" width="31.5" height="31.3"/>
		<rect x="944.9" y="228.9" class="st4" width="31.5" height="31.3"/>
		<rect x="976.5" y="228.9" class="st1" width="31.5" height="31.3"/>
		<rect x="1007.9" y="228.9" class="st4" width="31.5" height="31.3"/>
		<rect x="1039.4" y="228.9" class="st1" width="31.5" height="31.3"/>
		<rect x="1070.9" y="228.9" class="st4" width="31.5" height="31.3"/>
		<path class="st1" d="M1102.4,228.9v31.3h24.9c2.3-2.8,4.5-5.7,6.6-8.8v-22.6L1102.4,228.9L1102.4,228.9z"/>
		<path class="st4" d="M1133.8,251.5c4.7-6.8,8.9-14.2,12.7-22.6h-12.7V251.5z"/>
		<path class="st4" d="M756,279.3c-4.7,4.2-9.5,8.3-14.3,12.2H756V279.3z"/>
		<path class="st1" d="M787.6,291.6v-31.3h-13.1c-5.7,7-11.9,13.2-18.3,19.1v12.2L787.6,291.6L787.6,291.6z"/>
		<rect x="787.6" y="260.2" class="st4" width="31.5" height="31.3"/>
		<rect x="819" y="260.2" class="st1" width="31.5" height="31.3"/>
		<rect x="850.5" y="260.2" class="st4" width="31.5" height="31.3"/>
		<rect x="882" y="260.2" class="st1" width="31.5" height="31.3"/>
		<rect x="913.5" y="260.2" class="st4" width="31.5" height="31.3"/>
		<rect x="944.9" y="260.2" class="st1" width="31.5" height="31.3"/>
		<rect x="976.5" y="260.2" class="st4" width="31.5" height="31.3"/>
		<rect x="1007.9" y="260.2" class="st1" width="31.5" height="31.3"/>
		<rect x="1039.4" y="260.2" class="st4" width="31.5" height="31.3"/>
		<path class="st1" d="M1070.9,260.2v31.3h23.7c2.6-2.1,5.2-4.3,7.7-6.5v-24.9L1070.9,260.2L1070.9,260.2z"/>
		<path class="st4" d="M1102.4,285.1c8.9-7.6,17.3-15.5,24.9-24.9h-24.9V285.1z"/>
		<path class="st1" d="M819,166.1h-10.6c-1,11.5-2.6,21.9-4.7,31.3H819V166.1z"/>
		<rect x="819" y="166.1" class="st4" width="31.5" height="31.3"/>
		<rect x="850.5" y="166.1" class="st1" width="31.5" height="31.3"/>
		<rect x="882" y="166.1" class="st4" width="31.5" height="31.3"/>
		<rect x="913.5" y="166.1" class="st1" width="31.5" height="31.3"/>
		<rect x="944.9" y="166.1" class="st4" width="31.5" height="31.3"/>
		<rect x="976.5" y="166.1" class="st1" width="31.5" height="31.3"/>
		<rect x="1007.9" y="166.1" class="st4" width="31.5" height="31.3"/>
		<rect x="1039.4" y="166.1" class="st1" width="31.5" height="31.3"/>
		<rect x="1070.9" y="166.1" class="st4" width="31.5" height="31.3"/>
		<rect x="1102.4" y="166.1" class="st1" width="31.5" height="31.3"/>
		<path class="st4" d="M1133.8,197.5h22.8c2.1-9.5,3.7-19.8,4.7-31.3h-27.4L1133.8,197.5L1133.8,197.5z"/>
		<path class="st4" d="M819,197.5h-15.2c-2.6,11.8-6,22.1-10.1,31.3H819V197.5z"/>
		<rect x="819" y="197.5" class="st1" width="31.5" height="31.3"/>
		<rect x="850.5" y="197.5" class="st4" width="31.5" height="31.3"/>
		<rect x="882" y="197.5" class="st1" width="31.5" height="31.3"/>
		<rect x="913.5" y="197.5" class="st4" width="31.5" height="31.3"/>
		<rect x="944.9" y="197.5" class="st1" width="31.5" height="31.3"/>
		<rect x="976.5" y="197.5" class="st4" width="31.5" height="31.3"/>
		<rect x="1007.9" y="197.5" class="st1" width="31.5" height="31.3"/>
		<rect x="1039.4" y="197.5" class="st4" width="31.5" height="31.3"/>
		<rect x="1070.9" y="197.5" class="st1" width="31.5" height="31.3"/>
		<rect x="1102.4" y="197.5" class="st4" width="31.5" height="31.3"/>
		<path class="st1" d="M1133.8,228.8h12.7c4.1-9.2,7.5-19.5,10.1-31.3h-22.8V228.8z"/>
		<path class="st4" d="M819,136.6h-9.5c0,10.6-0.4,20.3-1.1,29.5H819V136.6z"/>
		<rect x="819" y="136.6" class="st1" width="31.5" height="29.5"/>
		<rect x="850.5" y="136.6" class="st4" width="31.5" height="29.5"/>
		<rect x="882" y="136.6" class="st1" width="31.5" height="29.5"/>
		<rect x="913.5" y="136.6" class="st4" width="31.5" height="29.5"/>
		<rect x="944.9" y="136.6" class="st1" width="31.5" height="29.5"/>
		<rect x="976.5" y="136.6" class="st4" width="31.5" height="29.5"/>
		<rect x="1007.9" y="136.6" class="st1" width="31.5" height="29.5"/>
		<rect x="1039.4" y="136.6" class="st4" width="31.5" height="29.5"/>
		<rect x="1070.9" y="136.6" class="st1" width="31.5" height="29.5"/>
		<rect x="1102.4" y="136.6" class="st4" width="31.5" height="29.5"/>
		<path class="st1" d="M1133.8,166.1h27.4c0.8-9.1,1.2-18.9,1.1-29.5h-28.6L1133.8,166.1L1133.8,166.1z"/>
	</g>
	<polygon class="st2" points="1294.2,204.1 1272.1,182 1243.9,210.3 1215.7,182 1193.6,204.1 1221.9,232.3 1193.6,260.5 
		1215.7,282.6 1243.9,254.3 1272.1,282.6 1294.2,260.5 1265.9,232.3 	"/>
	<path id="XMLID_2_" class="st2" d="M1169.9,136.6l-0.2,8.9l-0.1,4.4c0,1.5-0.2,2.9-0.2,4.4l-0.5,8.9l-0.8,8.9
		c-1.3,11.8-3.2,23.6-6.2,35.2c-3.2,11.6-7.4,23.1-13.1,33.9c-5.6,10.8-12.8,20.8-20.9,29.8c-4,4.6-8.3,8.7-12.7,12.8
		c-2.2,2-4.4,4-6.7,5.9c-2.3,1.9-4.5,3.8-6.8,5.7c-9,7.4-18.2,14.5-26.9,21.8c-17.4,14.6-33,30.4-43.9,49.9l-6.5-3.9l4.5-7.4
		l0.5-0.9l0.6-0.9l1.3-1.8l2.5-3.5c1.7-2.3,3.5-4.6,5.3-6.8c1.9-2.2,3.8-4.4,5.6-6.5c7.7-8.6,16.3-16.4,25.2-23.8s18-14.5,27-21.8
		c2.3-1.8,4.4-3.7,6.6-5.6c2.2-1.9,4.4-3.8,6.5-5.8c4.2-4,8.3-8,12.2-12.3c7.7-8.6,14.6-18,19.9-28.3c5.4-10.2,9.5-21.1,12.5-32.3
		c3-11.2,4.8-22.6,6-34.1l0.8-8.6l0.5-8.6c0.1-1.4,0.2-2.9,0.2-4.4l0.1-4.4l0.2-8.7H1169.9L1169.9,136.6z"/>
	<g>
		<circle class="st2" cx="1093.2" cy="540.5" r="3.8"/>
		<circle class="st2" cx="1127" cy="540.5" r="3.8"/>
		<circle class="st2" cx="1160.8" cy="540.5" r="3.8"/>
		<circle class="st2" cx="1194.6" cy="540.5" r="3.8"/>
	</g>
	<g>
		<circle class="st2" cx="1093.2" cy="573.2" r="3.8"/>
		<circle class="st2" cx="1127" cy="573.2" r="3.8"/>
		<circle class="st2" cx="1160.8" cy="573.2" r="3.8"/>
		<circle class="st2" cx="1194.6" cy="573.2" r="3.8"/>
	</g>
	<g>
		<circle class="st2" cx="1093.2" cy="605.8" r="3.8"/>
		<circle class="st2" cx="1127" cy="605.8" r="3.8"/>
		<circle class="st2" cx="1160.8" cy="605.8" r="3.8"/>
		<circle class="st2" cx="1194.6" cy="605.8" r="3.8"/>
	</g>
	<g>
		<circle class="st2" cx="1093.2" cy="638.5" r="3.8"/>
		<circle class="st2" cx="1127" cy="638.5" r="3.8"/>
		<circle class="st2" cx="1160.8" cy="638.5" r="3.8"/>
		<circle class="st2" cx="1194.6" cy="638.5" r="3.8"/>
	</g>
	<g>
		<path class="st2" d="M261.6,753.2l-10.4,49.4h-12.8l10.4-49.4h-96.1l2.8-12.8l122.8-133h14.5l-28.6,133.6h20.1l-2.6,12.3
			L261.6,753.2L261.6,753.2L261.6,753.2z M169.4,741.1h81.8L275.8,625L169.4,741.1z"/>
		<path class="st2" d="M434.4,771.1l-38.1,31.5h-60.9l-24.9-31.4l28.1-132.5l38-31.4h60.9l25,31.4L434.4,771.1z M323.9,768.2
			l17.4,22.4h50.2l31.4-26l22.4-105L323.9,768.2z M350.1,645.3l-22.4,104.9l121.2-108.6l-17.4-22.4h-50L350.1,645.3z"/>
		<path class="st2" d="M573.9,753.2l-10.3,49.4h-12.8l10.4-49.4h-96.1l2.8-12.8l122.8-133h14.5l-28.6,133.6h20.1l-2.6,12.3
			L573.9,753.2L573.9,753.2L573.9,753.2z M481.8,741.1h81.8L588.2,625L481.8,741.1z"/>
	</g>
</g>
</svg>
