<?xml version="1.0" encoding="utf-8"?>
<!-- Generator: Adobe Illustrator 25.0.1, SVG Export Plug-In . SVG Version: 6.00 Build 0)  -->
<svg version="1.1" id="Layer_1" xmlns="http://www.w3.org/2000/svg" xmlns:xlink="http://www.w3.org/1999/xlink" x="0px" y="0px"
	 viewBox="0 0 758.5 480.3" style="enable-background:new 0 0 758.5 480.3;" xml:space="preserve">
<style type="text/css">
	.st0{fill:#EE6A6A;}
	.st1{font-family:'Roboto-Black';}
	.st2{font-size:122.3239px;}
	.st3{fill:#E6E5E6;}
	.st4{fill:#A8A2A8;}
	.st5{fill:#FFFFFF;}
	.st6{fill:none;}
	.st7{fill:#D3D3D3;}
	.st8{fill:none;stroke:#EE6A6A;stroke-width:5;}
	.st9{fill:#255A76;}
	.st10{fill:#EE6A6A;stroke:#EE6A6A;}
	.st11{fill:none;stroke:#FFFFFF;stroke-width:2;}
	.st12{fill:none;stroke:#FFFFFF;stroke-miterlimit:10;}
</style>
<g>
	<text transform="matrix(1 0 0 1 388.8661 305.1298)" class="st0 st1 st2">DATA</text>
	<g>
		<g>
			<g>
				<path class="st3" d="M694,411.5H386.3c-8,0-14.6-6.5-14.6-14.4V270.8h4.4v126.3c0,5.5,4.6,10.1,10.2,10.1H694
					c5.6,0,10.2-4.5,10.2-10.1V182.3h4.4v214.8C708.6,405.1,702,411.5,694,411.5z"/>
			</g>
			<g>
				<path class="st3" d="M706.4,184.5c-1.2,0-2.2-0.9-2.2-2.2v-1.2c0-1.2,1-2.2,2.2-2.2s2.2,0.9,2.2,2.2v1.2
					C708.6,183.5,707.6,184.5,706.4,184.5z M706.4,172.5c-1.2,0-2.2-0.9-2.2-2.2v-5.3c0-1.2,1-2.2,2.2-2.2s2.2,0.9,2.2,2.2v5.2
					C708.6,171.6,707.6,172.5,706.4,172.5z M706.4,156.5c-1.2,0-2.2-0.9-2.2-2.2v-5.2c0-1.2,1-2.2,2.2-2.2s2.2,0.9,2.2,2.2v5.2
					C708.6,155.5,707.6,156.5,706.4,156.5z"/>
			</g>
			<g>
				<path class="st4" d="M373.9,271.9c-0.7,0-1.2-0.5-1.2-1.2v-5.2c0-0.6,0.5-1.2,1.2-1.2c0.7,0,1.2,0.5,1.2,1.2v5.2
					C375,271.4,374.5,271.9,373.9,271.9z M373.9,255.9c-0.7,0-1.2-0.5-1.2-1.2v-5.2c0-0.6,0.5-1.2,1.2-1.2c0.7,0,1.2,0.5,1.2,1.2
					v5.2C375,255.4,374.5,255.9,373.9,255.9z M373.9,240c-0.7,0-1.2-0.5-1.2-1.2v-5.2c0-0.6,0.5-1.2,1.2-1.2c0.7,0,1.2,0.5,1.2,1.2
					v5.2C375,239.5,374.5,240,373.9,240z M373.9,224.1c-0.7,0-1.2-0.5-1.2-1.2v-5.2c0-0.6,0.5-1.2,1.2-1.2c0.7,0,1.2,0.5,1.2,1.2
					v5.2C375,223.5,374.5,224.1,373.9,224.1z M373.9,208.1c-0.7,0-1.2-0.5-1.2-1.2v-5.2c0-0.6,0.5-1.2,1.2-1.2
					c0.7,0,1.2,0.5,1.2,1.2v5.2C375,207.6,374.5,208.1,373.9,208.1z M373.9,192.2c-0.7,0-1.2-0.5-1.2-1.2v-5.2
					c0-0.6,0.5-1.2,1.2-1.2c0.7,0,1.2,0.5,1.2,1.2v5.2C375,191.6,374.5,192.2,373.9,192.2z M373.9,176.2c-0.7,0-1.2-0.5-1.2-1.2
					v-5.2c0-0.6,0.5-1.2,1.2-1.2c0.7,0,1.2,0.5,1.2,1.2v5.2C375,175.7,374.5,176.2,373.9,176.2z M373.9,160.2
					c-0.7,0-1.2-0.5-1.2-1.2v-5.2c0-0.6,0.5-1.2,1.2-1.2c0.7,0,1.2,0.5,1.2,1.2v5.2C375,159.7,374.5,160.2,373.9,160.2z"/>
			</g>
			<g>
				<path class="st4" d="M706.4,150.4h-5.3c-0.7,0-1.2-0.5-1.2-1.2s0.5-1.2,1.2-1.2h5.3c0.7,0,1.2,0.5,1.2,1.2
					S707.1,150.4,706.4,150.4z M690.2,150.4H685c-0.7,0-1.2-0.5-1.2-1.2s0.5-1.2,1.2-1.2h5.3c0.7,0,1.2,0.5,1.2,1.2
					S690.8,150.4,690.2,150.4z M674,150.4h-5.3c-0.7,0-1.2-0.5-1.2-1.2s0.5-1.2,1.2-1.2h5.3c0.7,0,1.2,0.5,1.2,1.2
					S674.6,150.4,674,150.4z M657.7,150.4h-5.3c-0.7,0-1.2-0.5-1.2-1.2s0.5-1.2,1.2-1.2h5.3c0.7,0,1.2,0.5,1.2,1.2
					S658.3,150.4,657.7,150.4z M641.5,150.4h-5.3c-0.7,0-1.2-0.5-1.2-1.2s0.5-1.2,1.2-1.2h5.3c0.7,0,1.2,0.5,1.2,1.2
					S642.2,150.4,641.5,150.4z M625.3,150.4h-5.3c-0.7,0-1.2-0.5-1.2-1.2s0.5-1.2,1.2-1.2h5.3c0.7,0,1.2,0.5,1.2,1.2
					S625.9,150.4,625.3,150.4z M609.1,150.4h-5.3c-0.7,0-1.2-0.5-1.2-1.2s0.5-1.2,1.2-1.2h5.3c0.7,0,1.2,0.5,1.2,1.2
					S609.7,150.4,609.1,150.4z M592.9,150.4h-5.3c-0.7,0-1.2-0.5-1.2-1.2s0.5-1.2,1.2-1.2h5.3c0.7,0,1.2,0.5,1.2,1.2
					S593.4,150.4,592.9,150.4z M576.6,150.4h-5.3c-0.7,0-1.2-0.5-1.2-1.2s0.5-1.2,1.2-1.2h5.3c0.7,0,1.2,0.5,1.2,1.2
					S577.3,150.4,576.6,150.4z M560.4,150.4h-5.3c-0.7,0-1.2-0.5-1.2-1.2s0.5-1.2,1.2-1.2h5.3c0.7,0,1.2,0.5,1.2,1.2
					S561,150.4,560.4,150.4z M544.2,150.4h-5.3c-0.7,0-1.2-0.5-1.2-1.2s0.5-1.2,1.2-1.2h5.3c0.7,0,1.2,0.5,1.2,1.2
					S544.9,150.4,544.2,150.4z M528,150.4h-5.3c-0.7,0-1.2-0.5-1.2-1.2s0.5-1.2,1.2-1.2h5.3c0.7,0,1.2,0.5,1.2,1.2
					S528.6,150.4,528,150.4z M511.7,150.4h-5.3c-0.7,0-1.2-0.5-1.2-1.2s0.5-1.2,1.2-1.2h5.3c0.7,0,1.2,0.5,1.2,1.2
					S512.4,150.4,511.7,150.4z M495.6,150.4h-5.3c-0.7,0-1.2-0.5-1.2-1.2s0.5-1.2,1.2-1.2h5.3c0.7,0,1.2,0.5,1.2,1.2
					S496.1,150.4,495.6,150.4z M479.3,150.4H474c-0.7,0-1.2-0.5-1.2-1.2s0.5-1.2,1.2-1.2h5.3c0.7,0,1.2,0.5,1.2,1.2
					S480,150.4,479.3,150.4z M463.1,150.4h-5.3c-0.7,0-1.2-0.5-1.2-1.2s0.5-1.2,1.2-1.2h5.3c0.7,0,1.2,0.5,1.2,1.2
					S463.7,150.4,463.1,150.4z M446.8,150.4h-5.3c-0.7,0-1.2-0.5-1.2-1.2s0.5-1.2,1.2-1.2h5.3c0.7,0,1.2,0.5,1.2,1.2
					S447.5,150.4,446.8,150.4z M430.7,150.4h-5.3c-0.7,0-1.2-0.5-1.2-1.2s0.5-1.2,1.2-1.2h5.3c0.7,0,1.2,0.5,1.2,1.2
					S431.2,150.4,430.7,150.4z M414.4,150.4h-5.3c-0.7,0-1.2-0.5-1.2-1.2s0.5-1.2,1.2-1.2h5.3c0.7,0,1.2,0.5,1.2,1.2
					S415.1,150.4,414.4,150.4z M398.3,150.4H393c-0.7,0-1.2-0.5-1.2-1.2s0.5-1.2,1.2-1.2h5.3c0.7,0,1.2,0.5,1.2,1.2
					S398.8,150.4,398.3,150.4z M382,150.4h-5.3c-0.7,0-1.2-0.5-1.2-1.2s0.5-1.2,1.2-1.2h5.3c0.7,0,1.2,0.5,1.2,1.2
					S382.6,150.4,382,150.4z M706.4,146.5c-0.7,0-1.2-0.5-1.2-1.2v-5.2c0-0.6,0.5-1.2,1.2-1.2c0.7,0,1.2,0.5,1.2,1.2v5.2
					C707.6,146,707.1,146.5,706.4,146.5z M373.9,142.4c-0.7,0-1.2-0.5-1.2-1.2V136c0-0.6,0.5-1.2,1.2-1.2c0.7,0,1.2,0.5,1.2,1.2v5.2
					C375,141.9,374.5,142.4,373.9,142.4z M706.4,130.5c-0.7,0-1.2-0.5-1.2-1.2v-5.2c0-0.6,0.5-1.2,1.2-1.2c0.7,0,1.2,0.5,1.2,1.2
					v5.2C707.6,130,707.1,130.5,706.4,130.5z M373.9,126.4c-0.7,0-1.2-0.5-1.2-1.2v-5.2c0-0.6,0.5-1.2,1.2-1.2
					c0.7,0,1.2,0.5,1.2,1.2v5.2C375,125.9,374.5,126.4,373.9,126.4z M704.7,114.8c-0.4,0-0.8-0.2-1-0.6c-0.8-1.4-1.9-2.6-3.1-3.5
					c-0.5-0.4-0.7-1.1-0.3-1.6c0.4-0.5,1.1-0.6,1.6-0.3c1.5,1.1,2.9,2.5,3.8,4.2c0.3,0.6,0.1,1.2-0.4,1.5
					C705.2,114.7,705,114.8,704.7,114.8z M378.1,111.7c-0.3,0-0.7-0.1-0.9-0.4c-0.4-0.4-0.4-1.2,0.1-1.6c1.5-1.3,3.1-2.2,5-2.7
					c0.6-0.2,1.2,0.1,1.4,0.8c0.2,0.6-0.1,1.2-0.8,1.4c-1.5,0.4-2.9,1.2-4.1,2.2C378.6,111.6,378.4,111.7,378.1,111.7z M690.8,108.7
					h-5.3c-0.7,0-1.2-0.5-1.2-1.2s0.5-1.2,1.2-1.2h5.3c0.7,0,1.2,0.5,1.2,1.2S691.5,108.7,690.8,108.7z M674.6,108.7h-5.3
					c-0.7,0-1.2-0.5-1.2-1.2s0.5-1.2,1.2-1.2h5.3c0.7,0,1.2,0.5,1.2,1.2S675.2,108.7,674.6,108.7z M658.3,108.7h-5.3
					c-0.7,0-1.2-0.5-1.2-1.2s0.5-1.2,1.2-1.2h5.3c0.7,0,1.2,0.5,1.2,1.2S659,108.7,658.3,108.7z M642.2,108.7h-5.3
					c-0.7,0-1.2-0.5-1.2-1.2s0.5-1.2,1.2-1.2h5.3c0.7,0,1.2,0.5,1.2,1.2S642.8,108.7,642.2,108.7z M625.9,108.7h-5.3
					c-0.7,0-1.2-0.5-1.2-1.2s0.5-1.2,1.2-1.2h5.3c0.7,0,1.2,0.5,1.2,1.2S626.6,108.7,625.9,108.7z M609.7,108.7h-5.3
					c-0.7,0-1.2-0.5-1.2-1.2s0.5-1.2,1.2-1.2h5.3c0.7,0,1.2,0.5,1.2,1.2S610.3,108.7,609.7,108.7z M593.4,108.7h-5.3
					c-0.7,0-1.2-0.5-1.2-1.2s0.5-1.2,1.2-1.2h5.3c0.7,0,1.2,0.5,1.2,1.2S594.1,108.7,593.4,108.7z M577.3,108.7H572
					c-0.7,0-1.2-0.5-1.2-1.2s0.5-1.2,1.2-1.2h5.3c0.7,0,1.2,0.5,1.2,1.2S577.9,108.7,577.3,108.7z M561,108.7h-5.3
					c-0.7,0-1.2-0.5-1.2-1.2s0.5-1.2,1.2-1.2h5.3c0.7,0,1.2,0.5,1.2,1.2S561.7,108.7,561,108.7z M544.9,108.7h-5.3
					c-0.7,0-1.2-0.5-1.2-1.2s0.5-1.2,1.2-1.2h5.3c0.7,0,1.2,0.5,1.2,1.2S545.4,108.7,544.9,108.7z M528.6,108.7h-5.3
					c-0.7,0-1.2-0.5-1.2-1.2s0.5-1.2,1.2-1.2h5.3c0.7,0,1.2,0.5,1.2,1.2S529.2,108.7,528.6,108.7z M512.4,108.7h-5.3
					c-0.7,0-1.2-0.5-1.2-1.2s0.5-1.2,1.2-1.2h5.3c0.7,0,1.2,0.5,1.2,1.2S513,108.7,512.4,108.7z M496.1,108.7h-5.3
					c-0.7,0-1.2-0.5-1.2-1.2s0.5-1.2,1.2-1.2h5.3c0.7,0,1.2,0.5,1.2,1.2S496.8,108.7,496.1,108.7z M480,108.7h-5.3
					c-0.7,0-1.2-0.5-1.2-1.2s0.5-1.2,1.2-1.2h5.3c0.7,0,1.2,0.5,1.2,1.2S480.6,108.7,480,108.7z M463.7,108.7h-5.3
					c-0.7,0-1.2-0.5-1.2-1.2s0.5-1.2,1.2-1.2h5.3c0.7,0,1.2,0.5,1.2,1.2S464.3,108.7,463.7,108.7z M447.5,108.7h-5.3
					c-0.7,0-1.2-0.5-1.2-1.2s0.5-1.2,1.2-1.2h5.3c0.7,0,1.2,0.5,1.2,1.2S448.1,108.7,447.5,108.7z M431.3,108.7h-5.3
					c-0.7,0-1.2-0.5-1.2-1.2s0.5-1.2,1.2-1.2h5.3c0.7,0,1.2,0.5,1.2,1.2S431.9,108.7,431.3,108.7z M415.1,108.7h-5.3
					c-0.7,0-1.2-0.5-1.2-1.2s0.5-1.2,1.2-1.2h5.3c0.7,0,1.2,0.5,1.2,1.2S415.7,108.7,415.1,108.7z M398.8,108.7h-5.3
					c-0.7,0-1.2-0.5-1.2-1.2s0.5-1.2,1.2-1.2h5.3c0.7,0,1.2,0.5,1.2,1.2S399.5,108.7,398.8,108.7z"/>
			</g>
			<g>
				<g>
					<path class="st4" d="M396.5,137.4L396.5,137.4c-0.7-0.1-1.4-0.1-2.1-0.3c-0.6-0.2-1-0.8-0.8-1.4c0.2-0.6,0.8-0.9,1.4-0.8
						c0.5,0.1,1,0.2,1.5,0.2c0.7,0.1,1.2,0.6,1.1,1.2C397.7,136.9,397.2,137.4,396.5,137.4z M401,136.3c-0.4,0-0.8-0.2-1-0.6
						c-0.3-0.6-0.1-1.2,0.4-1.5c0.4-0.3,0.9-0.6,1.2-0.9c0.4-0.4,1.2-0.4,1.6,0.1c0.4,0.4,0.4,1.2-0.1,1.6c-0.5,0.4-1,0.9-1.7,1.2
						C401.3,136.3,401.1,136.3,401,136.3z M390.9,134.8c-0.3,0-0.7-0.1-0.9-0.4c-0.4-0.5-0.9-1.1-1.2-1.7c-0.3-0.6-0.1-1.2,0.4-1.5
						c0.6-0.3,1.2-0.1,1.5,0.4c0.3,0.4,0.6,0.9,1,1.3c0.4,0.4,0.4,1.2-0.1,1.6C391.4,134.7,391.2,134.8,390.9,134.8z M404.7,131.4
						c-0.1,0-0.2,0-0.3-0.1c-0.6-0.1-1-0.8-0.8-1.4c0.1-0.5,0.2-1,0.2-1.5c0-0.6,0.6-1.2,1.2-1.2c0.7,0,1.2,0.6,1.2,1.2
						c0,0.6-0.1,1.4-0.3,2C405.6,131.1,405.2,131.4,404.7,131.4z M388.7,129L388.7,129c-0.7-0.1-1.2-0.6-1.2-1.2
						c0.1-0.6,0.1-1.4,0.4-2c0.2-0.6,0.8-0.9,1.4-0.8c0.6,0.2,1,0.8,0.8,1.4c-0.1,0.5-0.2,1-0.3,1.5
						C389.8,128.5,389.4,129,388.7,129z M403.7,125.3c-0.4,0-0.8-0.2-1-0.6c-0.3-0.4-0.6-0.9-1-1.2c-0.4-0.4-0.4-1.2,0-1.6
						c0.4-0.4,1.2-0.4,1.6,0c0.5,0.5,1,1,1.3,1.7c0.3,0.6,0.2,1.2-0.4,1.5C404.2,125.3,404,125.3,403.7,125.3z M391.5,123.5
						c-0.3,0-0.7-0.1-0.9-0.4c-0.4-0.4-0.4-1.2,0.1-1.6c0.5-0.4,1.1-0.9,1.7-1.2c0.6-0.3,1.2-0.1,1.5,0.4s0.1,1.2-0.4,1.5
						c-0.4,0.2-1,0.6-1.3,0.9C392.1,123.4,391.8,123.5,391.5,123.5z M398.7,121.7c-0.1,0-0.2,0-0.3-0.1c-0.5-0.1-1-0.2-1.5-0.2
						c-0.7,0-1.2-0.5-1.2-1.2c0-0.6,0.5-1.2,1.2-1.2c0.7,0,1.4,0.1,2,0.2c0.6,0.1,1,0.8,0.9,1.4
						C399.6,121.4,399.2,121.7,398.7,121.7z"/>
				</g>
				<g>
					<path class="st4" d="M424.1,137.4L424.1,137.4c-0.7-0.1-1.4-0.1-2.1-0.3c-0.6-0.2-1-0.8-0.8-1.4c0.2-0.6,0.8-0.9,1.4-0.8
						c0.5,0.1,1,0.2,1.5,0.2c0.7,0.1,1.2,0.6,1.1,1.2C425.2,136.9,424.7,137.4,424.1,137.4z M428.5,136.3c-0.4,0-0.8-0.2-1-0.6
						c-0.3-0.6-0.1-1.2,0.4-1.5c0.4-0.3,0.9-0.6,1.2-0.9c0.4-0.4,1.2-0.4,1.6,0.1c0.4,0.5,0.4,1.2-0.1,1.6c-0.5,0.4-1,0.9-1.7,1.2
						C428.9,136.3,428.7,136.3,428.5,136.3z M418.4,134.8c-0.3,0-0.7-0.1-0.9-0.4c-0.4-0.5-0.9-1.1-1.2-1.7
						c-0.3-0.6-0.1-1.2,0.4-1.5c0.6-0.3,1.2-0.1,1.5,0.4c0.3,0.4,0.6,0.9,1,1.3c0.4,0.4,0.4,1.2-0.1,1.6
						C419,134.7,418.7,134.8,418.4,134.8z M432.3,131.4c-0.1,0-0.2,0-0.3-0.1c-0.6-0.1-1-0.8-0.8-1.4c0.1-0.5,0.2-1,0.2-1.5
						c0-0.6,0.6-1.2,1.2-1.2c0.7,0,1.2,0.6,1.2,1.2c0,0.6-0.1,1.4-0.3,2C433.2,131.1,432.8,131.4,432.3,131.4z M416.3,129L416.3,129
						c-0.7-0.1-1.2-0.6-1.2-1.2c0.1-0.6,0.1-1.4,0.4-2c0.2-0.6,0.8-0.9,1.4-0.8c0.6,0.2,1,0.8,0.8,1.4c-0.1,0.5-0.2,1-0.3,1.5
						C417.4,128.5,417,129,416.3,129z M431.3,125.3c-0.4,0-0.8-0.2-1-0.6c-0.3-0.4-0.6-0.9-1-1.2c-0.4-0.4-0.4-1.2,0-1.6
						c0.4-0.4,1.2-0.4,1.6,0c0.5,0.5,1,1,1.3,1.7c0.3,0.6,0.2,1.2-0.4,1.5C431.7,125.3,431.5,125.3,431.3,125.3z M419.1,123.5
						c-0.3,0-0.7-0.1-0.9-0.4c-0.4-0.4-0.4-1.2,0.1-1.6c0.5-0.4,1.1-0.9,1.7-1.2c0.6-0.3,1.2-0.1,1.5,0.4c0.3,0.6,0.1,1.2-0.4,1.5
						c-0.4,0.2-1,0.6-1.3,0.9C419.7,123.4,419.4,123.5,419.1,123.5z M426.3,121.7c-0.1,0-0.2,0-0.3-0.1c-0.5-0.1-1-0.2-1.5-0.2
						c-0.7,0-1.2-0.5-1.2-1.2c0-0.6,0.5-1.2,1.2-1.2c0.7,0,1.4,0.1,2,0.2c0.6,0.1,1,0.8,0.9,1.4
						C427.2,121.4,426.8,121.7,426.3,121.7z"/>
				</g>
				<g>
					<path class="st4" d="M451.7,137.4L451.7,137.4c-0.7-0.1-1.4-0.1-2.1-0.3c-0.6-0.2-1-0.8-0.8-1.4c0.2-0.6,0.8-0.9,1.4-0.8
						c0.5,0.1,1,0.2,1.5,0.2c0.7,0.1,1.2,0.6,1.1,1.2C452.8,136.9,452.3,137.4,451.7,137.4z M456.1,136.3c-0.4,0-0.8-0.2-1-0.6
						c-0.3-0.6-0.1-1.2,0.4-1.5c0.4-0.3,0.9-0.6,1.2-0.9c0.4-0.4,1.2-0.4,1.6,0.1c0.4,0.5,0.4,1.2-0.1,1.6c-0.5,0.4-1,0.9-1.7,1.2
						C456.5,136.3,456.3,136.3,456.1,136.3z M446,134.8c-0.3,0-0.7-0.1-0.9-0.4c-0.4-0.5-0.9-1.1-1.2-1.7c-0.3-0.6-0.1-1.2,0.4-1.5
						c0.6-0.3,1.2-0.1,1.5,0.4c0.3,0.4,0.6,0.9,1,1.3c0.4,0.4,0.4,1.2-0.1,1.6C446.6,134.7,446.3,134.8,446,134.8z M459.9,131.4
						c-0.1,0-0.2,0-0.3-0.1c-0.6-0.1-1-0.8-0.8-1.4c0.1-0.5,0.2-1,0.2-1.5c0-0.6,0.6-1.2,1.2-1.2c0.7,0,1.2,0.6,1.2,1.2
						c0,0.6-0.1,1.4-0.3,2C460.8,131.1,460.4,131.4,459.9,131.4z M443.9,129L443.9,129c-0.7-0.1-1.2-0.6-1.2-1.2
						c0.1-0.6,0.1-1.4,0.4-2c0.2-0.6,0.8-0.9,1.4-0.8c0.6,0.2,1,0.8,0.8,1.4c-0.1,0.5-0.2,1-0.3,1.5C445,128.5,444.5,129,443.9,129z
						 M458.9,125.3c-0.4,0-0.8-0.2-1-0.6c-0.3-0.4-0.6-0.9-1-1.2c-0.4-0.4-0.4-1.2,0-1.6c0.4-0.4,1.2-0.4,1.6,0c0.5,0.5,1,1,1.3,1.7
						c0.3,0.6,0.2,1.2-0.4,1.5C459.3,125.3,459.1,125.3,458.9,125.3z M446.7,123.5c-0.3,0-0.7-0.1-0.9-0.4c-0.4-0.4-0.4-1.2,0.1-1.6
						c0.5-0.4,1.1-0.9,1.7-1.2c0.6-0.3,1.2-0.1,1.5,0.4c0.3,0.6,0.1,1.2-0.4,1.5c-0.4,0.2-1,0.6-1.3,0.9
						C447.2,123.4,447,123.5,446.7,123.5z M453.9,121.7c-0.1,0-0.2,0-0.3-0.1c-0.5-0.1-1-0.2-1.5-0.2c-0.7,0-1.2-0.5-1.2-1.2
						c0-0.6,0.5-1.2,1.2-1.2c0.7,0,1.4,0.1,2,0.2c0.6,0.1,1,0.8,0.9,1.4C454.8,121.4,454.4,121.7,453.9,121.7z"/>
				</g>
			</g>
		</g>
		<g>
			<g>
				<g>
					<path class="st5" d="M373.9,356.9h20.8c6.9,0,12.5,4.8,12.5,10.6v5.3c0,5.8-5.6,10.6-12.5,10.6h-20.8"/>
					<path class="st3" d="M394.6,384.5h-20.7v-2.3h20.8c6.1,0,11.1-4.2,11.1-9.4v-5.3c0-5.1-5-9.4-11.1-9.4h-20.8v-2.3h20.8
						c7.7,0,13.8,5.3,13.8,11.7v5.3C408.4,379.2,402.3,384.5,394.6,384.5z"/>
				</g>
			</g>
			<g>
				<g>
					<path class="st5" d="M461,383.3h-41.5c-6.9,0-12.5-4.8-12.5-10.6v-5.3c0-5.8,5.6-10.6,12.5-10.6H461c6.9,0,12.5,4.8,12.5,10.6
						v5.3C473.5,378.6,467.9,383.3,461,383.3z"/>
					<path class="st3" d="M461,384.4h-41.5c-7.7,0-13.8-5.3-13.8-11.7v-5.3c0-6.5,6.2-11.7,13.8-11.7H461c7.7,0,13.8,5.3,13.8,11.7
						v5.3C474.8,379.2,468.6,384.4,461,384.4z M419.5,358.1c-6.1,0-11.1,4.2-11.1,9.4v5.3c0,5.1,5,9.4,11.1,9.4H461
						c6.1,0,11.1-4.2,11.1-9.4v-5.3c0-5.1-5-9.4-11.1-9.4H419.5z"/>
				</g>
			</g>
			<g>
				<g>
					<path class="st5" d="M527.4,383.3h-41.5c-6.9,0-12.5-4.8-12.5-10.6v-5.3c0-5.8,5.6-10.6,12.5-10.6h41.5
						c6.9,0,12.5,4.8,12.5,10.6v5.3C539.9,378.6,534.3,383.3,527.4,383.3z"/>
					<path class="st3" d="M527.4,384.4h-41.5c-7.7,0-13.8-5.3-13.8-11.7v-5.3c0-6.5,6.2-11.7,13.8-11.7h41.5
						c7.7,0,13.8,5.3,13.8,11.7v5.3C541.3,379.2,535.1,384.4,527.4,384.4z M485.9,358.1c-6.1,0-11.1,4.2-11.1,9.4v5.3
						c0,5.1,5,9.4,11.1,9.4h41.5c6.1,0,11.1-4.2,11.1-9.4v-5.3c0-5.1-5-9.4-11.1-9.4H485.9z"/>
				</g>
			</g>
			<g>
				<g>
					<path class="st5" d="M593.8,383.3h-41.5c-6.9,0-12.5-4.8-12.5-10.6v-5.3c0-5.8,5.6-10.6,12.5-10.6h41.5
						c6.9,0,12.5,4.8,12.5,10.6v5.3C606.2,378.6,600.8,383.3,593.8,383.3z"/>
					<path class="st3" d="M593.8,384.4h-41.5c-7.7,0-13.8-5.3-13.8-11.7v-5.3c0-6.5,6.2-11.7,13.8-11.7h41.5
						c7.7,0,13.8,5.3,13.8,11.7v5.3C607.6,379.2,601.4,384.4,593.8,384.4z M552.3,358.1c-6.1,0-11.1,4.2-11.1,9.4v5.3
						c0,5.1,5,9.4,11.1,9.4h41.5c6.1,0,11-4.2,11.1-9.4v-5.3c0-5.1-5-9.4-11.1-9.4H552.3z"/>
				</g>
			</g>
			<g>
				<g>
					<path class="st5" d="M660.2,383.3h-41.5c-6.9,0-12.5-4.8-12.5-10.6v-5.3c0-5.8,5.6-10.6,12.5-10.6h41.5
						c6.9,0,12.5,4.8,12.5,10.6v5.3C672.7,378.6,667.1,383.3,660.2,383.3z"/>
					<path class="st3" d="M660.2,384.4h-41.5c-7.7,0-13.8-5.3-13.8-11.7v-5.3c0-6.5,6.2-11.7,13.8-11.7h41.5
						c7.7,0,13.8,5.3,13.8,11.7v5.3C674.1,379.2,667.9,384.4,660.2,384.4z M618.8,358.1c-6.1,0-11.1,4.2-11.1,9.4v5.3
						c0,5.1,5,9.4,11.1,9.4h41.5c6.1,0,11.1-4.2,11.1-9.4v-5.3c0-5.1-5-9.4-11.1-9.4H618.8z"/>
				</g>
			</g>
			<g>
				<g>
					<path class="st5" d="M705.9,383.3h-20.8c-6.9,0-12.5-4.8-12.5-10.6v-5.3c0-5.8,5.6-10.6,12.5-10.6h21.2"/>
					<path class="st3" d="M705.9,384.4h-20.8c-7.7,0-13.8-5.3-13.8-11.7v-5.3c0-6.5,6.2-11.7,13.8-11.7h21.2v2.3h-21.2
						c-6.1,0-11.1,4.2-11.1,9.4v5.3c0,5.1,5,9.4,11.1,9.4h20.8V384.4z"/>
				</g>
			</g>
		</g>
		<g>
			<g>
				<path class="st5" d="M427.8,409.6h-41.5c-6.9,0-12.5-4.8-12.5-10.6v-5.3c0-5.8,5.6-10.6,12.5-10.6h41.5
					c6.9,0,12.5,4.8,12.5,10.6v5.3C440.2,404.9,434.7,409.6,427.8,409.6z"/>
				<path class="st3" d="M427.8,410.7h-41.5c-7.7,0-13.8-5.3-13.8-11.7v-5.3c0-6.5,6.2-11.7,13.8-11.7h41.5
					c7.7,0,13.8,5.3,13.8,11.7v5.3C441.6,405.5,435.4,410.7,427.8,410.7z M386.3,384.4c-6.1,0-11.1,4.2-11.1,9.4v5.3
					c0,5.1,5,9.4,11.1,9.4h41.5c6.1,0,11-4.2,11.1-9.4v-5.3c0-5.1-5-9.4-11.1-9.4H386.3z"/>
			</g>
			<g>
				<path class="st5" d="M494.2,409.6h-41.5c-6.9,0-12.5-4.8-12.5-10.6v-5.3c0-5.8,5.6-10.6,12.5-10.6h41.5
					c6.9,0,12.5,4.8,12.5,10.6v5.3C506.7,404.9,501.1,409.6,494.2,409.6z"/>
				<path class="st3" d="M494.2,410.7h-41.5c-7.7,0-13.8-5.3-13.8-11.7v-5.3c0-6.5,6.2-11.7,13.8-11.7h41.5
					c7.7,0,13.8,5.3,13.8,11.7v5.3C508.1,405.5,501.8,410.7,494.2,410.7z M452.8,384.4c-6.1,0-11.1,4.2-11.1,9.4v5.3
					c0,5.1,5,9.4,11.1,9.4h41.5c6.1,0,11-4.2,11.1-9.4v-5.3c0-5.1-5-9.4-11.1-9.4H452.8z"/>
			</g>
			<g>
				<path class="st5" d="M560.6,409.6h-41.5c-6.9,0-12.5-4.8-12.5-10.6v-5.3c0-5.8,5.6-10.6,12.5-10.6h41.5
					c6.9,0,12.5,4.8,12.5,10.6v5.3C573.1,404.9,567.5,409.6,560.6,409.6z"/>
				<path class="st3" d="M560.6,410.7h-41.5c-7.7,0-13.8-5.3-13.8-11.7v-5.3c0-6.5,6.2-11.7,13.8-11.7h41.5
					c7.7,0,13.8,5.3,13.8,11.7v5.3C574.5,405.5,568.3,410.7,560.6,410.7z M519.1,384.4c-6.1,0-11.1,4.2-11.1,9.4v5.3
					c0,5.1,5,9.4,11.1,9.4h41.5c6.1,0,11.1-4.2,11.1-9.4v-5.3c0-5.1-5-9.4-11.1-9.4H519.1z"/>
			</g>
			<g>
				<path class="st5" d="M627,409.6h-41.5c-6.9,0-12.5-4.8-12.5-10.6v-5.3c0-5.8,5.6-10.6,12.5-10.6H627c6.9,0,12.5,4.8,12.5,10.6
					v5.3C639.5,404.9,633.9,409.6,627,409.6z"/>
				<path class="st3" d="M627,410.7h-41.5c-7.7,0-13.8-5.3-13.8-11.7v-5.3c0-6.5,6.2-11.7,13.8-11.7H627c7.7,0,13.8,5.3,13.8,11.7
					v5.3C640.8,405.5,634.7,410.7,627,410.7z M585.5,384.4c-6.1,0-11.1,4.2-11.1,9.4v5.3c0,5.1,5,9.4,11.1,9.4H627
					c6.1,0,11.1-4.2,11.1-9.4v-5.3c0-5.1-5-9.4-11.1-9.4H585.5z"/>
			</g>
			<g>
				<path class="st5" d="M693.4,409.6H652c-6.9,0-12.5-4.8-12.5-10.6v-5.3c0-5.8,5.6-10.6,12.5-10.6h41.5c6.9,0,12.5,4.8,12.5,10.6
					v5.3C705.9,404.9,700.3,409.6,693.4,409.6z"/>
				<path class="st3" d="M693.4,410.7H652c-7.7,0-13.8-5.3-13.8-11.7v-5.3c0-6.5,6.2-11.7,13.8-11.7h41.5c7.7,0,13.8,5.3,13.8,11.7
					v5.3C707.3,405.5,701.1,410.7,693.4,410.7z M652,384.4c-6.1,0-11.1,4.2-11.1,9.4v5.3c0,5.1,5,9.4,11.1,9.4h41.5
					c6.1,0,11-4.2,11.1-9.4v-5.3c0-5.1-5-9.4-11.1-9.4H652z"/>
			</g>
		</g>
		<g>
			<g>
				<g>
					<path class="st5" d="M373.9,304.4h20.8c6.9,0,12.5,4.8,12.5,10.6v5.3c0,5.8-5.6,10.6-12.5,10.6h-20.8"/>
					<path class="st3" d="M394.6,331.9h-20.7v-2.3h20.8c6.1,0,11.1-4.2,11.1-9.4v-5.3c0-5.1-5-9.4-11.1-9.4h-20.8v-2.3h20.8
						c7.7,0,13.8,5.3,13.8,11.7v5.3C408.4,326.7,402.3,331.9,394.6,331.9z"/>
				</g>
			</g>
			<g>
				<g>
					<path class="st5" d="M461,330.7h-41.5c-6.9,0-12.5-4.8-12.5-10.6v-5.3c0-5.8,5.6-10.6,12.5-10.6H461c6.9,0,12.5,4.8,12.5,10.6
						v5.3C473.5,326,467.9,330.7,461,330.7z"/>
					<path class="st3" d="M461,331.9h-41.5c-7.7,0-13.8-5.3-13.8-11.7v-5.3c0-6.5,6.2-11.7,13.8-11.7H461c7.7,0,13.8,5.3,13.8,11.7
						v5.3C474.8,326.6,468.6,331.9,461,331.9z M419.5,305.5c-6.1,0-11.1,4.2-11.1,9.4v5.3c0,5.1,5,9.4,11.1,9.4H461
						c6.1,0,11.1-4.2,11.1-9.4v-5.3c0-5.1-5-9.4-11.1-9.4H419.5z"/>
				</g>
			</g>
			<g>
				<g>
					<path class="st5" d="M527.4,330.7h-41.5c-6.9,0-12.5-4.8-12.5-10.6v-5.3c0-5.8,5.6-10.6,12.5-10.6h41.5
						c6.9,0,12.5,4.8,12.5,10.6v5.3C539.9,326,534.3,330.7,527.4,330.7z"/>
					<path class="st3" d="M527.4,331.9h-41.5c-7.7,0-13.8-5.3-13.8-11.7v-5.3c0-6.5,6.2-11.7,13.8-11.7h41.5
						c7.7,0,13.8,5.3,13.8,11.7v5.3C541.3,326.6,535.1,331.9,527.4,331.9z M485.9,305.5c-6.1,0-11.1,4.2-11.1,9.4v5.3
						c0,5.1,5,9.4,11.1,9.4h41.5c6.1,0,11.1-4.2,11.1-9.4v-5.3c0-5.1-5-9.4-11.1-9.4H485.9z"/>
				</g>
			</g>
			<g>
				<g>
					<path class="st5" d="M593.8,330.7h-41.5c-6.9,0-12.5-4.8-12.5-10.6v-5.3c0-5.8,5.6-10.6,12.5-10.6h41.5
						c6.9,0,12.5,4.8,12.5,10.6v5.3C606.2,326,600.8,330.7,593.8,330.7z"/>
					<path class="st3" d="M593.8,331.9h-41.5c-7.7,0-13.8-5.3-13.8-11.7v-5.3c0-6.5,6.2-11.7,13.8-11.7h41.5
						c7.7,0,13.8,5.3,13.8,11.7v5.3C607.6,326.6,601.4,331.9,593.8,331.9z M552.3,305.5c-6.1,0-11.1,4.2-11.1,9.4v5.3
						c0,5.1,5,9.4,11.1,9.4h41.5c6.1,0,11-4.2,11.1-9.4v-5.3c0-5.1-5-9.4-11.1-9.4H552.3z"/>
				</g>
			</g>
			<g>
				<g>
					<path class="st5" d="M660.2,330.7h-41.5c-6.9,0-12.5-4.8-12.5-10.6v-5.3c0-5.8,5.6-10.6,12.5-10.6h41.5
						c6.9,0,12.5,4.8,12.5,10.6v5.3C672.7,326,667.1,330.7,660.2,330.7z"/>
					<path class="st3" d="M660.2,331.9h-41.5c-7.7,0-13.8-5.3-13.8-11.7v-5.3c0-6.5,6.2-11.7,13.8-11.7h41.5
						c7.7,0,13.8,5.3,13.8,11.7v5.3C674.1,326.6,667.9,331.9,660.2,331.9z M618.8,305.5c-6.1,0-11.1,4.2-11.1,9.4v5.3
						c0,5.1,5,9.4,11.1,9.4h41.5c6.1,0,11.1-4.2,11.1-9.4v-5.3c0-5.1-5-9.4-11.1-9.4H618.8z"/>
				</g>
			</g>
			<g>
				<g>
					<path class="st5" d="M705.9,330.7h-20.8c-6.9,0-12.5-4.8-12.5-10.6v-5.3c0-5.8,5.6-10.6,12.5-10.6h21.2"/>
					<path class="st3" d="M705.9,331.9h-20.8c-7.7,0-13.8-5.3-13.8-11.7v-5.3c0-6.5,6.2-11.7,13.8-11.7h21.2v2.3h-21.2
						c-6.1,0-11.1,4.2-11.1,9.4v5.3c0,5.1,5,9.4,11.1,9.4h20.8V331.9z"/>
				</g>
			</g>
		</g>
		<g>
			<g>
				<path class="st5" d="M427.8,356.9h-41.5c-6.9,0-12.5-4.8-12.5-10.6v-5.3c0-5.8,5.6-10.6,12.5-10.6h41.5
					c6.9,0,12.5,4.8,12.5,10.6v5.3C440.2,352.2,434.7,356.9,427.8,356.9z"/>
				<path class="st3" d="M427.8,358.1h-41.5c-7.7,0-13.8-5.3-13.8-11.7v-5.3c0-6.5,6.2-11.7,13.8-11.7h41.5
					c7.7,0,13.8,5.3,13.8,11.7v5.3C441.6,352.9,435.4,358.1,427.8,358.1z M386.3,331.8c-6.1,0-11.1,4.2-11.1,9.4v5.3
					c0,5.1,5,9.4,11.1,9.4h41.5c6.1,0,11-4.2,11.1-9.3v-5.3c0-5.1-5-9.4-11.1-9.4L386.3,331.8L386.3,331.8z"/>
			</g>
			<g>
				<path class="st5" d="M494.2,356.9h-41.5c-6.9,0-12.5-4.8-12.5-10.6v-5.3c0-5.8,5.6-10.6,12.5-10.6h41.5
					c6.9,0,12.5,4.8,12.5,10.6v5.3C506.7,352.2,501.1,356.9,494.2,356.9z"/>
				<path class="st3" d="M494.2,358.1h-41.5c-7.7,0-13.8-5.3-13.8-11.7v-5.3c0-6.5,6.2-11.7,13.8-11.7h41.5
					c7.7,0,13.8,5.3,13.8,11.7v5.3C508.1,352.9,501.8,358.1,494.2,358.1z M452.8,331.8c-6.1,0-11.1,4.2-11.1,9.4v5.3
					c0,5.1,5,9.4,11.1,9.4h41.5c6.1,0,11-4.2,11.1-9.3v-5.3c0-5.1-5-9.4-11.1-9.4L452.8,331.8L452.8,331.8z"/>
			</g>
			<g>
				<path class="st5" d="M560.6,356.9h-41.5c-6.9,0-12.5-4.8-12.5-10.6v-5.3c0-5.8,5.6-10.6,12.5-10.6h41.5
					c6.9,0,12.5,4.8,12.5,10.6v5.3C573.1,352.2,567.5,356.9,560.6,356.9z"/>
				<path class="st3" d="M560.6,358.1h-41.5c-7.7,0-13.8-5.3-13.8-11.7v-5.3c0-6.5,6.2-11.7,13.8-11.7h41.5
					c7.7,0,13.8,5.3,13.8,11.7v5.3C574.5,352.9,568.3,358.1,560.6,358.1z M519.1,331.8c-6.1,0-11.1,4.2-11.1,9.4v5.3
					c0,5.1,5,9.4,11.1,9.4h41.5c6.1,0,11.1-4.2,11.1-9.3v-5.3c0-5.1-5-9.4-11.1-9.4L519.1,331.8L519.1,331.8z"/>
			</g>
			<g>
				<path class="st5" d="M627,356.9h-41.5c-6.9,0-12.5-4.8-12.5-10.6v-5.3c0-5.8,5.6-10.6,12.5-10.6H627c6.9,0,12.5,4.8,12.5,10.6
					v5.3C639.5,352.2,633.9,356.9,627,356.9z"/>
				<path class="st3" d="M627,358.1h-41.5c-7.7,0-13.8-5.3-13.8-11.7v-5.3c0-6.5,6.2-11.7,13.8-11.7H627c7.7,0,13.8,5.3,13.8,11.7
					v5.3C640.8,352.9,634.7,358.1,627,358.1z M585.5,331.8c-6.1,0-11.1,4.2-11.1,9.4v5.3c0,5.1,5,9.4,11.1,9.4H627
					c6.1,0,11.1-4.2,11.1-9.3v-5.3c0-5.1-5-9.4-11.1-9.4L585.5,331.8L585.5,331.8z"/>
			</g>
			<g>
				<path class="st5" d="M693.4,356.9H652c-6.9,0-12.5-4.8-12.5-10.6v-5.3c0-5.8,5.6-10.6,12.5-10.6h41.5c6.9,0,12.5,4.8,12.5,10.6
					v5.3C705.9,352.2,700.3,356.9,693.4,356.9z"/>
				<path class="st3" d="M693.4,358.1H652c-7.7,0-13.8-5.3-13.8-11.7v-5.3c0-6.5,6.2-11.7,13.8-11.7h41.5c7.7,0,13.8,5.3,13.8,11.7
					v5.3C707.3,352.9,701.1,358.1,693.4,358.1z M652,331.8c-6.1,0-11.1,4.2-11.1,9.4v5.3c0,5.1,5,9.4,11.1,9.4h41.5
					c6.1,0,11-4.2,11.1-9.3v-5.3c0-5.1-5-9.4-11.1-9.4L652,331.8L652,331.8z"/>
			</g>
		</g>
		<g>
			<g>
				<path class="st5" d="M560.6,304.4h-41.5c-6.9,0-12.5-4.8-12.5-10.6v-5.3c0-5.8,5.6-10.6,12.5-10.6h41.5
					c6.9,0,12.5,4.8,12.5,10.6v5.3C573.1,299.7,567.5,304.4,560.6,304.4z"/>
				<path class="st3" d="M560.6,305.5h-41.5c-7.7,0-13.8-5.3-13.8-11.7v-5.3c0-6.5,6.2-11.7,13.8-11.7h41.5
					c7.7,0,13.8,5.3,13.8,11.7v5.3C574.5,300.3,568.3,305.5,560.6,305.5z M519.1,279.2c-6.1,0-11.1,4.2-11.1,9.4v5.3
					c0,5.1,5,9.4,11.1,9.4h41.5c6.1,0,11.1-4.2,11.1-9.4v-5.3c0-5.1-5-9.4-11.1-9.4H519.1z"/>
			</g>
			<g>
				<path class="st5" d="M627,304.4h-41.5c-6.9,0-12.5-4.8-12.5-10.6v-5.3c0-5.8,5.6-10.6,12.5-10.6H627c6.9,0,12.5,4.8,12.5,10.6
					v5.3C639.5,299.7,633.9,304.4,627,304.4z"/>
				<path class="st3" d="M627,305.5h-41.5c-7.7,0-13.8-5.3-13.8-11.7v-5.3c0-6.5,6.2-11.7,13.8-11.7H627c7.7,0,13.8,5.3,13.8,11.7
					v5.3C640.8,300.3,634.7,305.5,627,305.5z M585.5,279.2c-6.1,0-11.1,4.2-11.1,9.4v5.3c0,5.1,5,9.4,11.1,9.4H627
					c6.1,0,11.1-4.2,11.1-9.4v-5.3c0-5.1-5-9.4-11.1-9.4H585.5z"/>
			</g>
			<g>
				<path class="st5" d="M693.4,304.4H652c-6.9,0-12.5-4.8-12.5-10.6v-5.3c0-5.8,5.6-10.6,12.5-10.6h41.5c6.9,0,12.5,4.8,12.5,10.6
					v5.3C705.9,299.7,700.3,304.4,693.4,304.4z"/>
				<path class="st3" d="M693.4,305.5H652c-7.7,0-13.8-5.3-13.8-11.7v-5.3c0-6.5,6.2-11.7,13.8-11.7h41.5c7.7,0,13.8,5.3,13.8,11.7
					v5.3C707.3,300.3,701.1,305.5,693.4,305.5z M652,279.2c-6.1,0-11.1,4.2-11.1,9.4v5.3c0,5.1,5,9.4,11.1,9.4h41.5
					c6.1,0,11-4.2,11.1-9.4v-5.3c0-5.1-5-9.4-11.1-9.4H652z"/>
			</g>
		</g>
	</g>
	<rect x="63.7" y="108.9" class="st6" width="316.6" height="103.3"/>
	<text transform="matrix(1 0 0 1 63.709 200.5946)" class="st7 st1 st2">FREE   </text>
	<text transform="matrix(1 -4.831244e-03 4.831244e-03 1 119.6889 307.3017)" class="st7 st1 st2">THE</text>
	<g id="flamenco-119" transform="translate(2.5 2.5)">
		<g id="Group_17_">
			<path id="New-shape-3" class="st8" d="M89.5,283l1.4-0.1l3.1,3c0,0,1.1,7.3,2.6,13.5c0.6,2.3,1.7,2.9,2.7,3.3
				c1.7,0.6,3.5-0.5,3.9-0.9c0.7-0.7-0.5-4.5-0.8-7.2c-0.3-2.6-0.1-2.5-0.1-2.5s4.9,2.7,10.7,3.1c5.8,0.4,12.6-1.7,12.6-1.7
				s-0.3,3.2-1.4,7c-0.4,1.3,0.4,2.2,1.1,2.5c0.8,0.4,2.6,0.4,3.5-0.2c1.5-1,4.1-12.9,4.1-12.9l3.5-3.5c0,0-0.5,2-1.2,5.7
				c-0.4,2.6-1.2,4.6-1.8,6.5c-0.3,0.9-1.1,2.8-0.8,3.6c0.2,0.7,2,0.9,2,0.9l1.4,0.1c0.6-0.1,1.9-0.1,2.5-0.8
				c0.7-0.8-0.3,1.5,3.2-7.9c3.5-9.4,2.8-20.5,2.8-20.5s1.6-0.4,5.6-2.3c13.7-6.6,10.5-13.9,11.6-21.9c0.5-3.3,2.7-5.7,6.5-6.7
				c3.8-1,8.8-1,10.3-1.8c4.1-2.1,4.5-7.3,1.8-10.1c-0.9-1-1.6-1.9-6-2c-2.7,0-5.3,0.7-6.2,1.1c-16.1,6.9-14.9,26.9-15,29.2
				c-0.1,2.3-1,4.5-3.8,6.4c-1.4,1-6.2,1.8-6.2,1.8s-0.4-3.5-2.6-5.7s-4.9-3.2-7.9-3.2c-3,0-2.2,0.3-7.8,1.3
				c-13.8,2.3-11.1-8.6-11.1-8.6l1.2-2.5l2.8-5.7c0,0,3.4-3.6,5.4-6.9s2.6-6,2.6-6s-2.3-0.4-5.1-0.5c-2.8,0-6.3,0.9-6.3,0.9
				s-2.9-3.8-6.8-5.3c-3.8-1.5-8.6-0.8-8.6-0.8s-1.6-2.9-3.4-4.8s-3.9-3-3.9-3s-1.4,2.2-2.1,5.7c-0.7,3.6-0.6,5.1-0.7,8.6"/>
			<path id="New-shape-2" class="st8" d="M92.5,227c0,0-8.7,9.3-11,24.7c-1,6.4-0.6,15.1,0.2,24.2c0.7,9.1,3.7,18.6,4.5,21.1
				c0.8,2.5,2,6.1,3.8,6.1c1.8,0,4.1,0.2,4.4-1.6c0.4-1.8-1.3-6.1-2.4-10l-1.9-11.1l-1.2-46.9"/>
			<g id="Group" transform="translate(0.84910583 73.246765)">
				<path id="Shape" class="st0" d="M115.9,222.1c-0.9,0-1.7,0.1-2.5,0c-0.9-0.1-1.9-0.2-2.7-0.2c-0.3,0-0.6-0.1-0.9-0.2
					c-0.3-0.1-0.3-0.2-0.5-0.2c-0.2,0-0.2,0.1-0.6,0c-0.3-0.1-0.7-0.4-1.1-0.5c-0.7-0.3-1.2-0.2-1.9-0.5c-1.4-0.7-2.5-1-3.9-1.8
					c-0.3-0.2-0.5-0.4-0.8-0.5c-0.4-0.1-0.9-0.4-1.2-0.7c-0.4-0.3-0.8-0.6-1.3-0.9c-0.3-0.2-0.5-0.5-0.8-0.7c-0.8-0.4-1.2-1.3-2-1.8
					c-0.2-0.1-0.5-0.1-0.6-0.2c-0.1-0.1,0-0.4-0.1-0.5c-0.1-0.1-0.4-0.2-0.6-0.3c-0.2-0.1-0.6-0.5-0.7-0.7c-0.2-0.2-0.4-0.6-0.6-0.8
					c-0.2-0.2-0.5-0.4-0.7-0.7c-0.2-0.2-0.2-0.5-0.4-0.7c-0.1-0.1-0.3-0.1-0.3-0.2c-0.3-0.4-0.5-0.7-0.9-1c-0.3-0.2-0.6-0.7-0.7-0.9
					c-0.2-0.3-0.5-0.5-0.7-0.7c-0.1-0.1-0.1-0.4-0.2-0.5c0,0-0.1,0-0.1,0c-0.2,0-0.3-0.1-0.2-0.3c-0.3-0.4-0.5-1.1-0.8-1.6
					c-0.1-0.1-0.3-0.1-0.4-0.2c-0.2-0.3-0.1-0.5-0.3-0.8c-0.1-0.1-0.3-0.1-0.4-0.2c-0.1-0.2-0.1-0.6-0.2-0.8
					c-0.2-0.5-0.7-0.8-0.9-1.3c0-0.1,0-0.3,0-0.4c-0.1-0.3-0.2-0.4-0.3-0.6c-0.7-1.7-1.4-3.2-2.1-4.9c-0.3-0.7-0.4-1.6-0.6-2.3
					c-0.4-1.3-0.6-2.6-0.8-3.9c-0.1-0.6,0-1.1-0.1-1.6c-0.1-0.4-0.2-0.3-0.2-0.8c0-0.2,0.1-0.5,0-0.6c0-0.4-0.1-0.6-0.2-1
					c0-0.4,0.1-0.8,0.1-1.2c0-0.8,0-1.6,0.1-2.4c0.1-0.7,0.2-1.3,0.2-2c0-0.1-0.2-0.3-0.2-0.4c0-0.5,0.3-0.8,0.4-1.2
					c0-0.2,0.1-0.6,0.1-0.8c0,0.1-0.1-0.8-0.1-0.7c0,0,0.1-0.6,0.1-0.3c0,0,0.1-0.6,0.1-0.6c0-0.1,0.2-0.2,0.2-0.4
					c0.1-0.4-0.1-0.5,0-0.8c0.1-0.6,0.3-1.5,0.5-2.1c0.1-0.4,0.3-0.9,0.5-1.3c0.1-0.4,0.2-0.6,0.3-1c0-0.1,0.2-0.4,0.2-0.5
					c0-0.1,0.1-0.4,0.1-0.5c0.1-0.4,0.4-0.6,0.5-1c0.2-0.7,0.4-1.4,0.7-2.1c0.4-0.9,0.8-1.9,1.3-2.7c0.3-0.4,0.3-0.8,0.6-1.3
					c0.1-0.2,0.3-0.2,0.4-0.4c0.1-0.2,0-0.4,0.2-0.7c0.4-0.8,1-1.4,1.4-2.2c0.1-0.3,0.4-0.9,0.6-1.1c0.2-0.2,0.6-0.3,0.9-0.4
					c0.2-0.1,0.5-0.2,0.8-0.2c0.3,0,0.6,0.1,0.8,0c0.2,0,0.5-0.2,0.7-0.3c0.3-0.1,0.5,0,0.8-0.1c0.4-0.1,0.7-0.4,1.1-0.5
					c0.5-0.2,1-0.1,1.4-0.2c0.2,0,0.3-0.2,0.5-0.2c0.2,0,0.3,0.1,0.5,0c0.3-0.1,0.2-0.2,0.6-0.3c0.2,0,0.4,0,0.6,0
					c1-0.2,2.2-0.3,3.3-0.5c0.5-0.1,0.9,0,1.4,0.1c0.3,0.1,1.2,0.3,1.4,0.6c0.1,0.2,0.1,0.6,0.1,1c0.1,0.6,0,0.9,0,1.5
					c0,0.5,0.1,1,0.1,1.5c0,0.3-0.2,0.3-0.2,0.6c0,0.3,0.1,0.5,0,0.8c0,0.2-0.2,0.8-0.2,1c0.1,0.4,0.5,1,0.6,1.3
					c0.2,0.4,0.5,0.8,0.8,1.2c0.1,0.1,0,0.3,0.1,0.4c0.2,0.3,0.6,0.5,0.8,0.9c0.2,0.4,0.3,0.7,0.7,1c0.2,0.2,0.6,0.3,0.8,0.6
					c0.3,0.4,0.3,0.8,0.8,1.2c0.2,0.1,0.4,0.2,0.5,0.3c0.2,0.2,0.3,0.3,0.5,0.5c0.6,0.6,1.3,1.5,2,2.1c0.4,0.3,0.8,0.6,1.1,1
					c0.1,0.1,0.3,0.3,0.3,0.4c0.1,0.1,0.4,0.2,0.5,0.3c0.2,0.1,0.2,0.4,0.3,0.5c0.1,0.1,0.3,0.1,0.3,0.2c0.2,0.2,0.2,0.4,0.3,0.5
					c0.1,0.1,0.3,0,0.4,0.1c0.7,0.7,0.2,1.3-0.2,2c-0.2,0.3-0.6,0.7-0.7,1c-0.1,0.2,0,0.5,0,0.6c0,0.2-0.2,0.4-0.2,0.6
					c-0.2,0.8-0.3,1.9-0.2,2.8c0,0.1,0.2,0.2,0.2,0.4c0,0.1-0.1,0.2-0.1,0.2c-0.1,0.2-0.1,0.3,0.1,0.4c0,0.3,0.3,0.9,0.5,1.1
					c0.3,0.4,0.5,0.8,0.8,1.2c0.3,0.3,0.9,0.6,1.3,0.9c0.7,0.5,1.5,0.8,2.4,1c0.3,0.1,0.6,0.2,0.9,0.3c0.1,0,0.3-0.1,0.4-0.1
					c0.3,0.1,0.4,0.3,0.8,0.3c0.4,0,0.9-0.2,1.4-0.1c0.5,0.1,0.5,0,1-0.1c0.2,0,0.4,0,0.6-0.1c-0.1,0,0.4-0.2,0.4-0.2
					c0.4-0.2,0.9-0.2,1.3-0.3c0.2-0.1,0.3-0.3,0.5-0.4c0.1,0,0.5-0.1,0.6-0.1c0.4-0.1,0.9-0.3,1.3-0.4c0.4-0.1,0.9,0,1.4-0.1
					c0.1,0,0.7-0.3,0.8-0.3c0.2,0,0.4,0.2,0.6,0.2c0.9,0.2,1.7-0.2,2.6,0c0.2,0,0.3,0.2,0.5,0.3c0.1,0,0.4,0,0.5,0
					c0.1,0,0.4,0,0.5,0c0.1,0,0.2,0,0.3,0.2c0.1,0.2,0.2,0.2,0.4,0.1c0.1,0,0.3,0,0.4,0.1c0.2,0.1,0.3,0.3,0.5,0.4
					c0.1,0.1,0.3,0,0.4,0c0.2,0.1,0.5,0.4,0.6,0.5c0.4,0.3,0.9,0.4,1.3,0.5c0.5,0.2,0.6,0.6,0.9,0.9c0.6,0.7,1.3,1.2,1.9,1.8
					c0.3,0.4,0.4,0.7,0.6,1.1c0.2,0.4,0.4,0.7,0.6,1.1c0.3,0.6,0.2,1,0.4,1.5c0.1,0.4,0.4,0.7,0.5,1.1c0,0.2,0,0.4,0,0.6
					c0,0.2,0.2,0.4,0.2,0.6c0,0.5-0.2,1.1-0.1,1.6c0,0.3,0.2,0.5,0.2,0.7c0,0.2-0.1,0.3-0.1,0.5c0,0.5-0.1,0.9-0.1,1.4
					c0,0.6-0.1,1-0.4,1.6c-0.1,0.2-0.3,0.4-0.3,0.7c-0.1,0.1-0.1,0.3,0,0.4c0.1,0.2,0.1,0.3-0.1,0.4c0-0.2-0.2,0.4-0.2,0.4
					c-0.1,0.3-0.1,0.6-0.3,1c-0.2,0.3-0.4,0.6-0.5,0.8c-0.2,0.3-0.2,0.6-0.4,0.9c-0.2,0.4-0.7,0.7-0.9,1.1c-0.4,0.7-0.7,1.4-1.3,2
					c-0.7,0.7-1.1,1.3-1.8,2c-0.1,0.1-0.3,0.2-0.4,0.3c0,0-0.3,0.3-0.3,0.4c-0.2,0.2-0.5,0.4-0.7,0.6c-0.1,0.1-0.1,0.3-0.2,0.4
					c-0.1,0-0.2,0-0.2,0c-0.2-0.1-0.3,0-0.3,0.2c0,0-0.2,0.3-0.3,0.3c-0.4,0.4-0.9,0.6-1.2,0.9c-0.2,0.3-0.5,0.4-0.8,0.6
					c-0.3,0.2-0.5,0.2-0.7,0.4c-0.1,0.1-0.1,0.3-0.2,0.4c-0.4,0.2-0.6,0.2-0.9,0.4c-0.5,0.4-1,0.4-1.6,0.7c-0.3,0.2-0.6,0.6-0.9,0.8
					c-0.5,0.3-1,0.3-1.5,0.5c-0.8,0.3-1.4,0.9-2.3,1c-0.8,0.1-1.6,0.6-2.4,0.9c-0.4,0.2-0.7,0.2-1.1,0.3c-0.5,0-0.8,0.1-1.2,0.3
					c-0.6,0.2-1.3,0.1-2,0.2c-0.5,0-1,0.2-1.4,0.3c-0.1,0-0.5,0-0.5,0c-0.1,0-0.1,0.1-0.2,0.1C116.1,222.2,116,222.2,115.9,222.1
					L115.9,222.1z"/>
			</g>
			<g id="Group_1_" transform="translate(315.65802 78.13864)">
				<path id="Shape_1_" class="st0" d="M-175.6,189.3c0.6,0.1,1.2,0.3,1.7,0.3c0.2,0,0.4-0.2,0.6-0.2c0.3,0,0.5,0.2,0.8,0.2
					c0.3,0,0.6-0.2,0.9-0.2c0.4,0,0.7,0.1,1.1,0c0.3-0.1,0.4-0.2,0.7-0.2c0.4-0.1,0.7-0.2,1.1-0.3c0.3-0.1,0.6-0.1,0.9-0.1
					c0.3-0.1,0.4-0.2,0.7-0.4c0.3-0.1,0.5-0.1,0.8-0.3c0.3-0.2,0.4-0.4,0.7-0.6c0.5-0.4,0.8-0.6,1.3-1.1c0.5-0.6,0.7-1.1,1.1-1.8
					c0.1-0.2,0.2-0.3,0.3-0.5c0.1-0.2,0.2-0.6,0.2-0.9c0.1-0.5,0.2-1.1,0.3-1.5c0,0,0-0.3,0-0.3c0-0.1,0.2-0.2,0.2-0.4
					c0-0.4-0.2-0.7-0.1-1.1c0.1-0.8,0.3-1.6,0.3-2.4c0-0.4-0.1-0.5,0-0.9c0-0.3,0-0.6,0-0.9c0-0.6,0.2-1.3,0.3-2
					c0.1-0.5,0-1.1,0.2-1.6c0.1-0.2,0.1-0.5,0.2-0.7c0-0.1-0.1-0.2-0.1-0.3c0.1-0.2,0.3-0.3,0.3-0.5c0.1-0.5,0.2-0.9,0.3-1.4
					c0.1-0.6,0.4-1.2,0.6-1.8c0.1-0.3,0.1-0.4,0.2-0.7c0.1-0.3,0.3-0.5,0.4-0.8c0.2-0.7,0.4-1.3,0.8-2c0.1-0.2,0.4-0.5,0.5-0.7
					c0-0.1-0.1-0.4-0.1-0.5c0-0.1,0.2-0.1,0.3-0.2c0.3-0.7,0.8-1.2,1.2-1.8c0.3-0.4,0.4-1,0.7-1.5c0-0.1,0.3,0,0.3-0.1
					c0,0,0.1-0.3,0.2-0.3c0.2-0.2,0.5-0.5,0.7-0.7c0.3-0.4,0.8-0.8,1.1-1.2c0.2-0.3,0.2-0.6,0.6-0.9c0.3-0.3,0.7-0.4,1-0.7
					c0.2-0.2,0.6-0.3,0.8-0.4c0.1-0.1,0.1-0.4,0.3-0.5c0.2-0.2,0.7-0.2,1-0.3c0.3-0.2,0.6-0.5,1-0.7c1.2-0.5,2.1-1,3.4-1.4
					c0.7-0.2,1.3-0.2,2-0.4c0.3-0.1,0.4-0.2,0.7-0.2c0.3,0,0.6,0.1,1,0c0.6-0.1,0.9-0.2,1.5-0.2c0.3,0,0.8-0.1,1.1-0.1
					s0.3,0.2,0.6,0.2c0.2,0,0.5,0,0.7,0c0.2,0,0.3,0.1,0.5,0.2c0.1,0,0.3-0.2,0.4-0.2c0.6,0.1,1.2,0.7,1.7,1
					c0.5,0.3,0.8,0.6,1.2,1.1c0.1,0.1,0.2,0.1,0.3,0.2c0.1,0.1,0,0.3,0.1,0.4c0.2,0.3,0.4,0.6,0.5,1c0.6,1.3,0.6,3.2,0.2,4.5
					c-0.1,0.6-0.5,1.2-0.8,1.7c-0.3,0.5-0.6,0.7-1,1.1c-0.1,0.1-0.1,0.3-0.2,0.4c-0.1,0.1-0.2,0-0.3,0.1c-0.3,0.2-0.8,0.4-1.2,0.6
					c-0.3,0.1-0.4,0.1-0.7,0.1c-0.2,0-0.4,0-0.6,0.1c0.1,0-0.5,0.3-0.4,0.3c-0.2,0-0.3-0.1-0.6-0.1c-0.4,0-0.6,0.2-1,0.3
					c-0.6,0.1-1.2,0-1.8,0.1c-0.4,0-0.6,0.1-1,0.2c-0.3,0.1-0.7-0.1-1,0c-0.1,0-0.4,0.3-0.6,0.3c-0.2,0.1-0.6,0.1-0.8,0.1
					c-0.3,0-0.5-0.1-0.7,0c-0.3,0.1-0.5,0.3-0.8,0.4c-0.7,0.2-1.3,0.3-1.9,0.7c-0.5,0.3-1,0.5-1.5,0.8c-0.2,0.1-0.4,0.3-0.6,0.4
					c0,0-0.1,0.2-0.2,0.3c0,0-0.4,0.3-0.4,0.3c-0.3,0.3-0.5,0.7-0.8,1.2c-0.1,0.2-0.2,0.4-0.3,0.5c-0.2,0.3-0.2,0.5-0.3,0.7
					c-0.5,1.1-0.6,2.6-0.8,3.8c-0.1,0.5,0.1,1,0.1,1.5c0,0.3-0.2,0.5-0.2,0.7c-0.1,0.5,0.1,1,0.1,1.4c0,0,0,0.3,0,0.3
					c0,0-0.2,0.1-0.2,0.2c0,0.2,0.1,0.5,0.1,0.7c0,0.3,0,0.7,0,1c0,0.2-0.1,0.6-0.1,0.8c-0.1,0.5-0.3,1-0.5,1.5
					c-0.2,0.6-0.3,1.2-0.5,1.8c-0.3,1.1-0.8,1.8-1.3,2.7c-0.1,0.1,0.1,0.3,0,0.4c-0.1,0.1-0.3,0.1-0.4,0.2c-0.2,0.2-0.4,0.6-0.6,0.8
					c-0.3,0.3-0.3,0.6-0.5,0.9c-0.2,0.3-0.5,0.4-0.7,0.6c-0.1,0.1-0.1,0.3-0.2,0.4c-0.1,0.1-0.3,0-0.3,0.1c-0.3,0.2-0.5,0.5-0.8,0.8
					c-0.5,0.5-1,0.7-1.6,1.1c-0.4,0.3-0.9,0.6-1.4,0.9c-0.3,0.2-0.5,0.3-0.8,0.5c-0.1,0.1-0.3,0-0.4,0.1c-0.1,0.1-0.2,0.3-0.3,0.4
					c-0.5,0.3-1.1,0.3-1.7,0.6c-0.6,0.4-1.1,0.3-1.7,0.5c-0.2,0.1-0.4,0.3-0.6,0.4c-0.4,0.2-0.8,0.3-1.2,0.4
					c-0.9,0.2-1.7,0.4-2.5,0.5c-0.7,0.1-1.3,0.1-2,0.3c-0.4,0.1-0.7,0-1.1,0c-0.1,0-0.3,0-0.4,0c-0.2,0-0.2,0.2-0.4,0.2
					c-0.5,0-1-0.1-1.4-0.2c-0.7,0-1.3-0.1-1.9-0.2c-0.6,0-1.3-0.3-2-0.4c-0.4-0.1-0.7,0-1,0c-0.4,0-0.7-0.4-1.1-0.5
					c-0.6-0.2-1.2-0.2-1.7-0.3c-0.1,0-0.3-0.3-0.3-0.3c-0.1,0-0.2,0-0.3,0c-0.2-0.1-0.4-0.2-0.6-0.3c0.2-0.1,0.3-0.4,0.5-0.5
					c0.3-0.2,0.8-0.3,1.1-0.5c0.5-0.2,1-0.3,1.5-0.6c0.1,0,0.5-0.3,0.5-0.3c0,0,0.4-0.4,0.5-0.4c0.1,0,0.5-0.1,0.6-0.2
					c0.2-0.1,0.5-0.2,0.7-0.3c0.8-0.3,1.4-0.8,2.1-1.1C-177.7,190.3-176.6,189.7-175.6,189.3L-175.6,189.3z"/>
			</g>
			<g id="Group_2_" transform="translate(35.613464 45.900665)">
				<path id="Shape_2_" class="st0" d="M82.3,194.7c0,0.5-0.1,0.7-0.1,1.2c-0.1,0.4,0,0.7,0,1.1c0,0.2-0.1,0.7-0.2,0.9
					c-0.1,0.2-0.2,0.4-0.3,0.6c-0.1,0.3,0,0.7-0.1,1c-0.1,0.2-0.2,0.5-0.3,0.7c-0.1,0.3-0.3,0.4-0.4,0.7c0,0.1,0.1,0.3,0,0.5
					c-0.1,0.1-0.3,0.1-0.4,0.3c-0.1,0.3-0.2,0.5-0.3,0.7c-0.2,0.5-0.4,0.6-0.7,1c-0.6,0.7-0.9,1.5-1.6,2c-0.3,0.3-0.3,0.6-0.5,0.9
					c-0.3,0.4-0.8,0.4-1.1,0.7c-0.1,0.1-0.2,0.4-0.4,0.6c-0.1,0.1-0.6,0.4-0.7,0.4c-0.2,0.1-0.4,0-0.6,0.1c-0.2,0.1-0.3,0.3-0.4,0.5
					c-0.4,0.4-0.8,0.3-1.3,0.5c-0.4,0.2-0.8,0.6-1.2,0.8c-0.7,0.3-1.7,0.4-2.3,0.6c-0.8,0.2-1.5,0.2-2.4,0.3c-0.5,0-1,0.2-1.6,0.2
					c-0.5,0-1-0.3-1.4-0.4c-0.4,0-0.7,0.1-1.1,0c-0.1-0.1-0.3-0.3-0.4-0.3c-0.2,0-0.5,0-0.7,0c-0.7,0-1.2-0.5-1.8-0.9
					c-0.4-0.3-0.9-0.2-1.3-0.4c-0.1-0.1-0.2-0.2-0.3-0.3c-0.3-0.2-0.5-0.2-0.7-0.3c-0.5-0.3-0.7-0.7-1.2-1.1
					c-0.3-0.2-0.6-0.5-0.9-0.7c-0.6-0.6-1.1-1.2-1.7-1.8c-1-1.2-1.7-2.6-2.3-4.1c-0.2-0.5-0.4-0.8-0.5-1.3c-0.1-0.6-0.2-1.2-0.3-1.8
					c-0.2-0.9-0.4-1.9-0.3-3c0.1-0.7,0-1.2,0.1-1.9c0.1-0.4,0-0.8,0.1-1.1c0-0.2,0.2-0.4,0.3-0.6c0.1-0.4,0-0.7,0-1
					c0.1-0.4,0.4-0.7,0.5-1.1c0.1-0.5,0.2-0.6,0.5-1.1c0.4-0.6,0.7-1.3,1.1-1.9c0.4-0.6,0.8-1.2,1.3-1.8c0.3-0.4,0.6-0.6,0.8-0.8
					c0.1-0.1,0.1-0.3,0.2-0.4c0.3-0.2,0.6-0.2,0.8-0.4c0.3-0.2,0.5-0.5,0.8-0.7c0.3-0.2,0.5-0.3,0.9-0.5c0,0,0.3-0.3,0.3-0.3
					c-0.1,0,0.4-0.2,0.3-0.2c0.1,0,0.2,0,0.2,0c0.1-0.1,0.2-0.2,0.3-0.4c0.3-0.2,0.6-0.3,0.9-0.4c1.8-0.5,3.4-1.3,5.1-1.4
					c0.3,0,0.5,0.1,0.7,0.1c0.2,0,0.3-0.2,0.5-0.2c0.5,0,0.3,0.1,0.6,0.1c0.1,0,0.4,0,0.5,0c0.7,0.1,1.3,0.3,2.1,0.4
					c0.9,0.1,1.7,0.4,2.4,0.7c0.7,0.3,1.6,0.6,2.3,1c0.4,0.3,0.9,0.6,1.3,0.9c0.1,0.1,0.1,0.3,0.2,0.4c0.1,0.1,0.4,0.1,0.6,0.2
					c0.4,0.3,0.8,0.8,1.1,1.1c0.2,0.3,0.5,0.6,0.8,0.9c0.7,0.7,1,1.3,1.4,2.2c0.5,1,1.1,1.6,1.4,2.7c0.1,0.5,0.2,1.1,0.3,1.6
					c0,0,0.2,0.4,0.2,0.4c0.1,0,0.1,0.1,0.2,0.2c0,0.1-0.1,0.3-0.1,0.4C82,192.6,82.3,193.7,82.3,194.7L82.3,194.7z"/>
			</g>
			<g id="Group_3_" transform="translate(52.793793 0.37280273)">
				<path id="Shape_3_" class="st0" d="M37.4,236.7c-0.2-0.7-0.5-1.5-0.5-2.2c0-0.3-0.2-0.6-0.3-1c-0.1-0.5-0.2-0.9-0.2-1.4
					c0-0.1,0.1-0.1,0.1-0.2c-0.1-0.1-0.2-0.3-0.3-0.4c0-0.2-0.1-0.6-0.1-0.8c0-0.3,0.2-0.4,0.2-0.8c0-0.1-0.3-0.3-0.3-0.4
					c0-0.2,0.1-0.6,0.1-0.8c0-0.3,0-0.5,0-0.8c0-0.4-0.1-0.3-0.1-0.8c0-0.3,0.2-0.5,0.2-0.8c0-0.6-0.1-1.1,0-1.6
					c0.1-0.4,0.2-0.7,0.3-1.2c0-0.2-0.1-0.3,0-0.5c0-0.2,0.2-0.3,0.3-0.5c0-0.2,0-0.4,0-0.5c0.1-0.3,0.3-0.5,0.3-0.9
					c0.2-0.9,0.4-1.9,0.8-2.8c0.4-1.1,0.7-2.1,1.7-1.2c0.7,0.6,1.4,0.7,2,1.4c0.3,0.4,0.5,0.6,0.9,0.9c0.4,0.3,0.6,0.5,0.8,0.9
					c0.4,0.7,1.2,0.9,1.6,1.6c0.2,0.3,0.1,0.4,0.4,0.7c0.1,0.1,0.3,0.3,0.4,0.4c0.3,0.4,0.5,0.7,0.8,1.1c0.4,0.6,0.6,1.2,1,1.9
					c0.2,0.4,0.4,0.9,0.4,1.3c0,0.3,0.2,0,0.1,0.4c0,0.1-0.4,0.2-0.5,0.3c-0.3,0.3-0.4,0.4-0.8,0.6c-0.4,0.2-0.3,0.5-0.6,0.8
					c-0.3,0.3-0.6,0.2-0.9,0.5c-0.3,0.2-0.4,0.6-0.8,0.9c-0.3,0.3-0.8,0.3-1.1,0.6c-0.3,0.2-0.4,0.6-0.7,0.9c-0.3,0.2-0.7,0.2-1,0.5
					c-0.3,0.3-0.5,0.7-0.8,1c-0.6,0.5-1.3,1-1.9,1.4c-0.3,0.3-0.6,0.5-0.9,0.7c-0.1,0.1-0.2,0.2-0.3,0.3
					C37.9,236.2,37.4,236.7,37.4,236.7L37.4,236.7z"/>
			</g>
			<g id="Group_4_" transform="translate(199.17899 81.12564)">
				<path id="Shape_4_" class="st0" d="M-86,165.7c0.7-0.4,1.8-0.8,2.4-1.4c0.2-0.2,0.2-0.5,0.5-0.7c0.1-0.1,0.3,0,0.4-0.1
					c0.2-0.1,0.2-0.3,0.4-0.4c0.2-0.1,0.4-0.1,0.6-0.2c0.4-0.3,0.8-0.9,1.3-1.3c0.3-0.3,0.5-0.4,0.8-0.6c0.4-0.3,0.5-0.6,0.8-0.9
					c0.1-0.2,0.3-0.3,0.4-0.4c0.1-0.1,0.2-0.3,0.4-0.5c0.3-0.4,0.7-0.7,0.9-1.1c0.2-0.3,0.4-0.7,0.6-1c0.1-0.1,0.3-0.2,0.4-0.3
					c0.1-0.1,0.1-0.4,0.2-0.5c0.1,0,0.1-0.1,0.2-0.1c0.2,0,0.3-0.1,0.2-0.3c0.1-0.2,0.3-0.5,0.4-0.7c0.3-0.4,0.3-1,0.7-1.4
					c0.2-0.3,0.5-0.7,0.6-1c0.2-0.4,0.3-0.8,0.4-1.3c0.2-0.6,0.6-0.9,0.6-1.5c0-0.6,0.2-0.3-0.3-0.6c-0.3-0.2-0.7,0-1-0.1
					c-0.1,0-0.3,0-0.3,0c0.2,0-0.6-0.2-0.4-0.2c-0.3-0.1-1.1-0.3-1.4-0.3c-0.3,0-0.4,0.2-0.8,0.1c-0.3,0-0.3-0.2-0.6-0.2
					c-0.9,0-1.6,0.1-2.4,0c0,0-0.4,0-0.5,0c-0.1,0-0.3,0.3-0.5,0.3c-0.4,0-0.5-0.2-0.8-0.2c-0.1,0-0.6,0.3-0.7,0.3
					c-0.3,0.1-0.5-0.1-0.8,0c-0.5,0.1-0.4,0.3-0.7,0.4c-0.1,0-0.3-0.1-0.4-0.1c-0.4,0.1-0.8,0.2-1.1,0.4c-0.4,0.2-0.6,0.3-1.1,0.4
					c-0.3,0.1-0.5,0.1-0.7,0.3c-0.4,0.5-0.2,0-0.2,0.6c0,0.2,0.1,0.4,0.1,0.6c0,0.1-0.1,0.4-0.1,0.5c0,0.4,0.2,0.7,0.3,1.1
					c0.1,0.8,0.1,1.4,0.3,2.2c0.1,0.4,0,0.8,0.1,1.2c0.1,0.5,0.2,0.9,0.2,1.4c0,0.8,0.1,1.7,0.2,2.4c0.1,0.4,0.1,0.9,0.2,1.2
					c0,0.4,0.2,0.7,0.3,1.2c0.1,0.4-0.1,0.8-0.1,1.2C-86.3,164.7-86.1,165.5-86,165.7L-86,165.7z"/>
			</g>
			<g id="Group_12_" transform="translate(59.000336 87.26672)">
				<g id="Group_5_">
					<path id="Shape_5_" class="st5" d="M41.3,149.1c0,0.1-0.2,0.4-0.2,0.6c-0.1,0.2-0.1,0.6-0.2,0.8c-0.1,0.3-0.3,0.4-0.4,0.6
						c-0.2,0.2-0.3,0.6-0.5,0.8c-0.3,0.3-0.7,0.4-1,0.6c-0.1,0.1-0.5,0.5-0.6,0.5c-0.1,0-0.3-0.1-0.3-0.1c-0.2,0.1-0.4,0.1-0.7,0.2
						c-0.3,0.1-0.9,0.4-1.2,0.4c-0.2,0-0.3-0.1-0.6-0.2c-0.3-0.1-0.6-0.1-0.9-0.1c-0.3-0.1-1.1-0.4-1.5-0.6c-0.5-0.3-0.8-1-1.1-1.5
						c-0.3-0.4-0.5-0.5-0.7-1c-0.1-0.2-0.4-0.6-0.4-0.7c0-0.3,0.1-0.7,0.1-1c-0.1-0.8-0.2-0.9,0.1-1.7c0.2-0.5,0.6-0.8,0.8-1.3
						c0.3-0.5,0.4-0.8,1-1.1c0.2-0.1,0.3-0.2,0.5-0.3c0.3-0.1,0.6-0.1,0.8-0.2c0.3-0.1,0.4-0.4,0.9-0.4c0.2,0,0.5,0,0.7,0.1
						c0.2,0,0.3,0,0.6,0.1c0.3,0.1,0.5,0.3,0.8,0.4c0.3,0.1,0.6,0,0.9,0.2c0.1,0,0.1,0.3,0.2,0.3c0.1,0.1,0.3,0,0.4,0.1
						c0.4,0.3,0.8,0.7,1.2,1.1c0.2,0.2,0.6,0.4,0.7,0.7c0.1,0.2,0.1,0.5,0.2,0.7c0,0.1,0.2,0.1,0.3,0.2c0,0.1-0.2,0.3-0.1,0.5
						c0,0.1,0.2,0.2,0.3,0.3C41.3,148.5,41.4,148.7,41.3,149.1L41.3,149.1z"/>
				</g>
				<g id="Group_6_" transform="translate(20.01767 23.267166)">
					<path id="Shape_6_" class="st9" d="M16.4,125.3c0,0.1-0.4,0.6-0.6,0.7c-0.4,0.3-0.6,0.3-1,0.2c-0.4-0.1-1-0.6-0.9-1.2
						c0.1-0.4,0.9-1,1.2-1c0.4,0,0.4,0.4,0.6,0.6C16.1,124.9,16.4,124.8,16.4,125.3L16.4,125.3z"/>
				</g>
				<g id="Group_7_" transform="translate(101.08136 34.157196)">
					<path id="Shape_7_" class="st5" d="M-43.9,119.6c0,0.2-0.3,0.9-0.4,1.1c-0.1,0.3-0.3,0.8-0.5,1.1c-0.3,0.4-0.7,0.9-1.1,1.2
						c-0.3,0.2-0.6,0.3-0.8,0.4c-0.2,0.2-0.2,0.3-0.5,0.4c-0.2,0-0.3-0.1-0.4-0.1c-0.1,0.1-0.2,0.2-0.2,0.3c-0.2,0-0.5,0.1-0.7,0.1
						c-0.5-0.1-1,0-1.6-0.1c-0.9-0.2-1.4-0.8-2.1-1.3c-1-0.7-2.2-2.2-2.3-3.6c0-0.3,0.1-0.9,0.2-1.2c0.1-0.4,0.2-0.3,0.4-0.7
						c0.2-0.3,0-0.4,0.3-0.7c0.3-0.3,0.5-0.4,0.8-0.6c0.2-0.1,0.5-0.6,0.7-0.7c0.3-0.1,0.7-0.1,1-0.2c0.6-0.2,1.1-0.2,1.7-0.2
						c0.8,0,1.3,0.2,2.1,0.5c0.6,0.2,0.9,0.3,1.3,0.8c0.3,0.3,0.7,0.3,0.9,0.5c0,0.1,0.1,0.3,0.1,0.5c0.1,0.2,0.3,0.3,0.4,0.4
						C-44.1,117.9-43.9,118.9-43.9,119.6L-43.9,119.6z"/>
				</g>
				<g id="Group_8_" transform="translate(138.3201 54.48105)">
					<path id="Shape_8_" class="st9" d="M-83.9,98.6c0,0.6-1.2,0.8-1.6,0.7c-0.5-0.1-0.8-0.5-0.6-1.1c0.1-0.3,0.5-0.6,0.8-0.6
						C-85,97.7-83.9,98.2-83.9,98.6L-83.9,98.6z"/>
				</g>
				<g id="Group_9_" transform="translate(48.532196 65.780914)">
					<path id="Shape_9_" class="st9" d="M-8.8,88.2c0.9-0.1,1-0.1,2.4,0.1s1.7,0.5,2.1,0.6c0.7,0.3,2.1,1.5,2.4,1.9
						c0.1,0.1,0.3,1-0.2,1.2s-1-0.2-2.1-0.6c-1-0.3-1.6-0.5-2.2-0.6c-0.4-0.1-0.8-0.2-1.3-0.3c-0.4-0.1-0.6-0.2-1-0.3
						c-0.3-0.1-0.6-0.2-1-0.3c-0.4-0.1-0.5-0.4-0.5-0.7C-10.2,88.8-9.6,88.4-8.8,88.2z"/>
				</g>
				<g id="Group_10_" transform="translate(64.23819 66.87427)">
					<path id="Shape_10_" class="st9" d="M-17.5,94.4c-0.3,0.2-0.8,0.6-1.2,0.6c-0.3,0.1-0.4,0.1-0.8,0.1c-0.7,0-1,0-1.7-0.4
						c-0.4-0.3-0.7-0.5-1-0.8c-0.4-0.4-0.6-1.2-0.8-1.7c-0.2-0.4-0.4-0.5-0.4-1c0-0.3,0.2-0.6,0.1-0.9c-0.1-0.6-0.1-0.6,0.1-1.3
						c0.1-0.4-0.1-0.8,0.1-1.1c0.2-0.3,0.2-0.6,0.6-0.7c-0.1,0,0.6,0,0.6,0c0.3,0,0.3,0,0.6,0.2c0.3,0.2,0.2,0.2,0.3,0.5
						c0.2,0.5,0.2,0.6,0,1.1s-0.3,0.8-0.3,1.3c-0.1,0.7,0.2,1.7,0.5,2.4s0.9,0.9,0.9,0.9c0.2,0,0.5,0.1,0.9,0
						c0.4-0.1,0.5-0.2,0.8-0.3c0.2-0.1,0.5-0.2,0.7,0C-17.3,93.6-17.3,94.2-17.5,94.4L-17.5,94.4z"/>
				</g>
				<g id="Group_11_" transform="translate(38.68741 76.206055)">
					<path id="Shape_11_" class="st9" d="M1.1,82.7c0.7-0.5,0.9-2.6,1.3-3.2c0.3-0.4,1,0.6,1.4,0.9c0.5,0.4,0.1,1.3,0,1.8
						c-0.3,0.8-0.7,1.4-1.4,1.7c-0.8,0.4-1.3,0.5-2.1,0.4c-0.5-0.1-1.3-0.6-1.7-1.1c-0.2-0.3-0.4-0.7-0.3-1l0,0
						c0.1-0.3,0.5-0.6,0.9-0.2C-0.8,82-0.2,83.4,1.1,82.7z"/>
				</g>
			</g>
			<g id="Group_13_" transform="translate(0 214.92828)">
				<path id="Shape_12_" class="st10" d="M94.5,86.7c-0.2,0.7-0.6,1.2-1.4,1.3c-0.4,0-0.7,0.2-1.1,0c-0.6-0.1-0.7,0-1.3,0.1
					c-0.3,0-0.7-0.2-1-0.1c-0.3,0-1.6-0.9-1.7-1.5c0-0.3-0.2-0.4-0.4-0.8c-0.3-0.6-0.4-1.1-0.6-1.6c-0.3-0.8-0.6-1.6-0.8-2.5
					c-0.1-0.6-0.3-1.2-0.6-1.7c-0.1-0.2-0.3-0.4-0.4-0.5c-0.1-0.2,0.1-0.6,0.1-0.9c-0.2-0.6-0.5-1.1-0.6-1.7
					c-0.1-0.6-0.3-1.1-0.5-1.7c-0.1-0.2-0.1-0.5-0.1-0.7c-0.1-0.2-0.3-0.3-0.3-0.5c-0.1-0.4,0-0.7-0.1-1c-0.1-0.3-0.2-0.5-0.3-0.7
					c-0.1-0.4,0-0.8-0.2-1.2c-0.2-0.7-0.3-1.3-0.4-2c0-0.3,0-0.7-0.1-1c-0.1-0.3-0.3-0.4-0.3-0.8c0-0.1,0-0.3,0.1-0.4
					c-0.1-0.1-0.2-0.3-0.3-0.4c0-0.4,0-0.9,0-1.3c-0.1-0.5-0.1-1-0.2-1.5c-0.1-0.4-0.2-0.4-0.3-0.8c0-0.2,0-0.4,0-0.6
					c0-0.2,0-0.5-0.1-0.7c0-0.1,0.1-0.2,0.1-0.3c-0.1-0.1-0.2-0.3-0.3-0.4c-0.1-0.4,0-0.5,0-0.8c0-0.2,0-0.5,0-0.6
					c0-0.4-0.1-0.6-0.2-1c0-0.2,0-0.4-0.1-0.6c-0.1-0.3-0.1-0.5-0.1-0.8c0-0.6,0.2-1.3,0.1-2c-0.1-0.6-0.3-1-0.2-1.6
					c0-0.4,0.1-1,0.1-1.4c0-0.5-0.3-0.9-0.3-1.4c0-0.2,0.2-0.4,0.3-0.6c-0.1-0.1-0.2-0.3-0.2-0.4c0.1-0.1,0.2-0.3,0.2-0.4
					c0-0.4-0.3-0.4-0.3-0.8c0-0.1,0.2-0.3,0.2-0.4c0.1-0.6,0-1.3,0-2c0-0.5-0.1-0.7-0.1-1.2c-0.1-0.6,0.2-1.4,0.3-2
					c0-0.8,0.1-1.6,0.2-2.4c0.1-0.7,0.1-1.3,0.2-2c0.1-0.4,0.2-0.7,0.2-1.2c0-0.2-0.1-0.4,0-0.6c0.2-0.3,1.7-0.2,2.2-0.2
					c0.8,0,1.6,0,2.4,0c0.3,0,0.6-0.1,1-0.1c0.2,0,0.4,0.1,0.6,0.1c0.3,0,0.4-0.2,0.6-0.2c0.3,0,0.7,0,1,0.1c0.1,0,0.5,0,0.6,0.1
					s-0.1,1-0.1,1.2c0,0.3,0,0.7,0,1c0,0.2-0.1,0.4-0.2,0.6c-0.1,0.5,0,1.1,0,1.6c0,0.5,0,1-0.1,1.4c-0.1,0.4-0.2,0.9-0.2,1.4
					c0,1.1,0.2,2.1,0,3.2c-0.1,0.4-0.2,0.8-0.1,1.2c0,0.3,0.2,0.3,0.2,0.6c0,0.3-0.1,0.5-0.1,0.8c0,0.4,0,0.8,0,1.2
					c0,0.6,0,1.1-0.1,1.6c0-0.1,0.2,0.4,0.2,0.4c0,0,0,0.5,0,0.5c0,0.1-0.1,0.5-0.1,0.6c0.1,0.1,0.1,0.3,0.2,0.4
					c-0.1,0.1-0.1,0.3-0.2,0.4c0,1,0.2,1.8,0.2,2.8c0,0.7-0.1,1.3,0,2c0.1,0.6,0.1,1,0.1,1.6c0,0.3,0.2,0.5,0.2,0.8
					c0,0.4,0.1,0.7,0.1,1c0,0.4,0.2,1,0.3,1.4c0,0.2-0.2,0.4-0.2,0.6c0,0.3,0.1,0.5,0.2,0.8c0,0.2,0.1,0.5,0.1,0.7
					c0,0.2-0.1,0.5,0,0.7c0,0.4,0.3,0.5,0.3,0.8c0.1,0.4,0,0.8,0,1.2c0,0.7,0.4,1.3,0.4,2c0,0.2-0.1,0.6-0.1,0.8
					c0,0.4,0.2,0.8,0.3,1.2c0.1,0.6,0.1,0.8,0.3,1.4c0.2,0.5,0.1,1.1,0.2,1.5c0.1,0.4,0.2,0.1,0.3,0.6c0,0.1,0,0.5,0,0.6
					c0-0.2,0.3,0.6,0.2,0.4c0.1,0.2,0,0.6,0.1,0.8c0,0.1,0,0.2-0.1,0.2c0.1,0.1,0.2,0.2,0.3,0.3c0,0.2,0,0.4,0.1,0.6
					c0.3,1.2,0.6,2.5,0.8,3.8c0.2,0.8,0.5,1.5,0.8,2.3C94.7,85.9,94.5,86.2,94.5,86.7z"/>
			</g>
			<g id="Group_14_" transform="translate(335.62903 327.85938)">
				<path id="Shape_13_" class="st0" d="M-189.9-50.9c-0.1,0.1-0.1,0.3-0.2,0.4c0,0.1,0,0.3,0.1,0.4c0,0.3,0,0.6,0,0.9
					c0,0.1-0.1,0.2-0.1,0.3c0.1,0.1,0.1,0.2,0.2,0.3c0,0.2,0,0.5-0.1,0.7c0,0.3,0.1,0.7,0,1c0,0.3-0.3,0.5-0.3,0.8
					c-0.1,0.5-0.1,1.3,0,1.8c0,0.5,0,1.1-0.2,1.6c-0.2,0.6-0.4,1.3-0.4,2c0,0.6,0,1.4-0.2,2c-0.1,0.2-0.3,0.4-0.3,0.5
					c-0.1,0.3,0.1,0.5,0,0.8c-0.1,0.1-0.2,0.2-0.3,0.3c-0.1,0.1-0.1,0.2,0,0.3c0,0-0.2,0.5-0.2,0.6c-0.1,0.6-0.3,1-0.4,1.5
					c-0.2,0.6-0.1,1.1-0.4,1.7c-0.3,0.6-0.5,1.2-0.7,1.8c-0.2,0.4-0.3,0.9-0.4,1.3c-0.1,0.3-0.2,0.3-0.3,0.5c-0.1,0.3,0,0.5-0.2,0.8
					c-0.1,0.1-0.3,0.4-0.3,0.5c-0.1,0.2-0.2,0.5-0.3,0.7c-0.1,0.3-0.4,0.5-0.5,0.7c-0.1,0.2,0,0.4-0.1,0.6c-0.2,0.6-0.3,0.7-0.6,1.1
					c-0.4,0.6-1.7,0.6-2.3,0.6c-0.5,0-1.5-0.1-2-0.2c-0.3,0-1.1-0.4-1.3-0.6c-0.4-0.5-0.3-0.4-0.3-1c0-0.1,0.1-0.6,0.2-0.8
					c0.1-0.5,0.3-0.7,0.5-1.1c0.2-0.4,0.1-0.9,0.2-1.2c0-0.1,0.3-0.2,0.3-0.3c0.1-0.3,0.1-0.7,0.2-1c0.1-0.3,0.2-0.6,0.3-0.8
					c0-0.1,0.2-0.3,0.2-0.4c0-0.1-0.1-0.3,0-0.4c0.3-0.8,0.6-1.6,0.7-2.4c0-0.1-0.1-0.3-0.1-0.4c0-0.1,0.3-0.2,0.3-0.4
					c0.1-0.3,0.1-0.7,0.1-1c0-0.2,0-0.5,0-0.7c0-0.4,0.4-0.7,0.4-1c0-0.3-0.1-0.6-0.1-0.8c0-0.1,0.2-0.2,0.3-0.4
					c0-0.1-0.1-0.3-0.1-0.4c0-0.1,0.3-0.2,0.3-0.4c0-0.1-0.2-0.3-0.1-0.4c0-0.3,0.1-0.6,0.1-0.9c0-0.2,0.2-0.3,0.2-0.5
					c0-0.3,0-0.6,0-0.8c0-0.5,0.2-0.8,0.2-1.2c0-0.2,0-0.5,0-0.7c0-0.1,0.2-0.2,0.2-0.3c0-0.5-0.1-0.9,0-1.4
					c0.1-0.5,0.1-0.9,0.1-1.4c0-0.4-0.1-0.7-0.1-1c0-0.3,0.2-0.4,0.2-0.8c0.1-0.5-0.2-0.9-0.1-1.4c0-0.4,0.1-0.8,0.1-1.2
					s-0.1-0.8-0.1-1.2c0-0.4,0-0.6-0.1-1c-0.1-0.5,0-0.8,0-1.3c0-0.2-0.2-0.5-0.2-0.8c0-0.3,0.1-0.7,0-1c-0.1-0.4-0.3-0.7-0.3-1.1
					c0-0.7,0.1-0.5,0.7-0.5c1.2,0,2.3,0,3.5,0.1c0.6,0.1,1.2,0.1,1.8,0c0.3-0.1,0.5-0.1,0.8-0.1c0.3,0,0.7-0.1,1,0
					c0,0.2-0.1,0.3-0.1,0.5c0.1,0.1,0.2,0.3,0.3,0.4c0.1,0.5-0.1,0.6-0.1,1c0,0.3,0,0.6,0.1,0.8c0,0.2,0,0.6,0.1,0.8
					c0.2,0.7,0.2,1.3,0.1,2C-190.1-52.6-189.9-51.8-189.9-50.9L-189.9-50.9z"/>
			</g>
			<g id="Group_15_" transform="translate(72.58322 214.67737)">
				<path id="Shape_14_" class="st0" d="M31,86.9c-0.4,0.7-1.3,1.4-2.1,1.4c-0.4,0-0.6,0-1,0c-0.2,0-1.4-0.4-1.7-0.4
					c-0.5,0-0.7-0.7-1.1-0.9c-0.3-0.2-0.1,0-0.3-0.3c-0.1-0.2-0.3-0.6-0.3-0.8c-0.2-0.5-0.4-1.1-0.5-1.6c-0.1-0.8-0.3-1.6-0.6-2.4
					c-0.1-0.4-0.2-0.7-0.3-1.1c0-0.1,0.1-0.2,0-0.3c0-0.1-0.3-0.2-0.3-0.4c-0.2-0.6-0.1-1.1-0.3-1.6c-0.2-0.6-0.2-1.1-0.3-1.7
					c-0.2-0.5-0.4-1-0.4-1.6c0-0.1,0.2-0.3,0.2-0.4c0-0.1-0.2-0.2-0.3-0.3c-0.1-0.3-0.1-0.6-0.1-0.9c0-0.6-0.2-1.2-0.3-1.7
					c0,0,0.1-0.5,0.1-0.5c0-0.3-0.2-0.7-0.3-1.1c-0.1-0.5-0.3-1.1-0.3-1.6c0-0.1,0.2-0.2,0.2-0.3c0-0.1-0.1-0.2-0.2-0.3
					c0-0.4-0.2-0.9-0.3-1.3c0-0.3,0.1-0.4,0-0.6c0-0.1-0.2-0.2-0.2-0.4c0-0.2,0-0.3,0-0.4c-0.1-0.4,0-1.1-0.1-1.5
					c0-0.3-0.3-0.5-0.3-0.9c0-0.4,0.1-0.6,0.1-0.9c0-0.3,0-0.8-0.1-1.1c0-0.2-0.2-0.4-0.2-0.6c-0.1-0.4,0.1-0.6,0.1-1
					c0-0.3-0.2-0.5-0.2-0.8c-0.2-0.7-0.1-1.3,0-2c0.1-0.4-0.1-0.6-0.2-1c0-0.1-0.1-0.2-0.1-0.3c0-0.2,0.2-0.3,0.2-0.4
					c0-0.5-0.1-1.1,0-1.7c0.1-0.7-0.1-1.4-0.1-2c0-0.7-0.2-1.4-0.1-2.1c0-0.6,0.1-1.1,0.2-1.6c0-0.5-0.3-0.9-0.1-1.5
					c0.2-0.8,0.2-1.2,0.1-2c-0.1-0.6,0.2-1.1,0.2-1.8c0-0.5,0-0.9,0-1.4c0-0.1-0.1-0.2-0.1-0.3c0-0.1,0.2-0.3,0.2-0.4
					c0,0-0.1-0.3-0.1-0.3c0-0.2,0-0.5,0-0.7c0-0.1,0.2-0.2,0.2-0.3c0-0.1-0.2-0.3-0.2-0.4c0-0.1,0.2-0.3,0.2-0.4
					c0-0.1-0.2-0.3-0.2-0.4c0-0.1,0.3-1.2,0.3-1.2c0.3-0.2,0.5,0.1,0.7,0.1c0.4,0,1.1,0,1.5,0c0.4-0.1,0.9-0.1,1.4-0.1
					c0.2,0,0.5,0,0.7,0c0.3,0,0.5,0.1,0.8,0.2c0.4,0.1,1.1,0.1,1.5,0c0.4,0,0.9-0.4,1.4-0.2c0,0.4-0.1,0.8-0.1,1.1
					c-0.1,0.5-0.2,1-0.1,1.6c0.1,0.5,0.1,0.9,0.1,1.4c0,0.5-0.2,0.9-0.2,1.3c0,0.2,0.1,0.4,0.1,0.7c0,0.1-0.3,0.3-0.3,0.4
					c0,0.2,0.2,0.3,0.2,0.5c0,0.2-0.1,0.4-0.1,0.7c0,0.4,0,0.6,0,1c-0.1,0.7,0.3,1.1,0.2,1.8c-0.1,0.8-0.2,1.6-0.3,2.4
					c0,0.4,0.3,0.8,0.3,1.2c0,0.1-0.2,0.3-0.2,0.4c0,0.4,0.2,0.5,0.2,0.8c0,0.1-0.2,0.3-0.2,0.4c0,0.2,0.1,0.6,0.1,0.8
					c0,0.4,0,0.7,0,1c0,0.3,0.1,0.5,0.2,0.8c0.1,0.5,0,1.1,0,1.6c0,0.9-0.1,1.8,0.1,2.8c0.1,0.4-0.1,0.7-0.1,1
					c0,0.3,0.3,0.5,0.3,0.7c0,0.2-0.1,0.4-0.1,0.6c0,0.4,0.1,0.7,0.2,1.1c0.1,0.6-0.1,1,0,1.6c0,0.1,0.2,0.2,0.3,0.4
					c0,0.2-0.1,0.4-0.1,0.6c0,0.5,0.1,1.1,0.1,1.6c0,0.3,0.2,0.6,0.2,0.9c0,0.4,0,0.9,0,1.3c0,0.5,0.2,0.9,0.2,1.4
					c0,0.4,0,0.7,0,1.2c0,0.4,0.2,0.6,0.3,1c0,0.3-0.1,0.7-0.1,1c0,0.4,0.2,0.6,0.3,1c0.1,0.3-0.1,0.7,0,1c0.2,0.8,0.2,1.7,0.4,2.6
					c0.3,1,0.2,1.9,0.4,2.8c0.1,0.6,0.1,1,0.2,1.6c0.1,0.6,0.4,1.2,0.5,1.7c0.1,0.5-0.1,0.8,0.1,1.4C31.3,86.1,31.3,86.5,31,86.9
					L31,86.9z"/>
			</g>
			<g id="Group_16_" transform="translate(281.57886 327.73184)">
				<path id="Shape_15_" class="st0" d="M-148.4-50.8c0.1,0.1,0.1,0.3,0.2,0.4c-0.1,0.3-0.1,0.5-0.1,0.8c0,0.4-0.1,0.7-0.1,1
					c0,0.7,0,1.5,0,2.2c0,0.7-0.1,1.3-0.2,2c-0.1,0.5,0,0.8,0,1.2c-0.1,0.1-0.1,0.3-0.2,0.4c0.1,0.1,0.1,0.3,0.2,0.4
					c-0.1,0.9-0.6,1.8-0.7,2.8c0,0.4,0,0.7,0,1c0,0.4-0.2,0.8-0.2,1.2c0,0.4-0.1,0.8-0.2,1.2c-0.1,0.4-0.1,0.6-0.2,1
					c-0.1,0.7-0.2,1.4-0.4,2.2c-0.2,0.7-0.4,1.3-0.6,1.9c-0.1,0.4-0.3,0.9-0.4,1.3c-0.1,0.3-0.1,0.8-0.2,1c0.1,0.2,0.1,0.3-0.1,0.4
					c-0.2,0.1-0.3,0.3-0.3,0.5c-0.1,0.1-0.1,0.2-0.2,0.4c0,0.1,0,0.2,0.1,0.3c-0.1,0.1-0.3,0.3-0.4,0.4c-0.1,0.3,0.2,0.2,0,0.6
					c-0.3,0.7-0.8,1.3-1.4,1.6c-0.3,0.1-2.1,0.2-2.4,0.2c-0.1,0-0.4-0.2-0.7-0.2c-1-0.1-1.6-0.7-1.6-1.6c0.1-0.2,0.1-0.4,0.2-0.6
					c0-0.1-0.2-0.3-0.1-0.4c0,0,0.1-0.3,0.1-0.3c0,0,0.1-0.2,0.1-0.3c0-0.1-0.1-0.2-0.1-0.3c0.1-0.5,0.4-0.6,0.5-1.1
					c0.1-0.5,0-1.1,0.1-1.6c0-0.3,0.1-0.5,0.2-0.8c0-0.3,0.1-0.5,0.2-0.7c0.1-0.4,0-0.8,0.1-1.2c0.1-0.5,0.4-1.1,0.4-1.7
					c0-0.3-0.1-0.4,0-0.7c0-0.3,0.2-0.7,0.2-1c0-0.6,0.4-1.3,0.4-1.9c0-0.2-0.3-0.3-0.3-0.4c0-0.3,0.3-0.5,0.3-0.8
					c0-0.3-0.1-0.5-0.1-0.8c0-0.4,0.2-0.6,0.3-1c0-0.6,0.1-1.2,0.1-1.8c0-0.3-0.1-0.5-0.1-0.8c0-0.4,0.2-0.6,0.2-1
					c0-0.7,0.1-1.3,0-2c0-0.3,0.1-0.6,0.1-0.9c0-0.3-0.2-0.6-0.2-0.9c0-0.1,0.1-0.2,0.1-0.3c0-0.1-0.1-0.3-0.1-0.4
					c0-0.2,0-0.4,0-0.6c0-0.6,0.1-1.1,0-1.7c-0.1-0.5-0.1-1-0.1-1.6c0-0.1,0.2-0.1,0.2-0.2c0-0.2-0.1-0.2-0.2-0.4c0-0.4,0-0.6,0-0.9
					c0-0.4,0.1-0.9,0.1-1.2c0-0.1-0.2-0.2-0.2-0.3c0,0,0.1-0.3,0.1-0.3c0,0,0.1-0.2,0.1-0.2c0-0.1-0.2-0.3-0.2-0.4
					c0-0.5-0.1-0.9-0.1-1.3c0.1,0,0.8,0,1,0.1c0.3,0,0.4,0.2,0.7,0.2c0.3,0,0.6-0.1,0.9-0.1c0.2,0,0.3,0,0.5,0
					c0.1,0,0.4,0.2,0.5,0.2c0.3,0,0.6-0.3,0.8-0.3c0.1,0,0.2,0.2,0.3,0.3c0.1,0,0.3-0.2,0.4-0.2c0.4,0,0.7,0.1,1,0.1
					c0.3,0,0.7-0.3,1-0.1c0,0.2-0.1,0.4-0.1,0.5c0,0.1,0.1,0.3,0.2,0.4c0,0.4,0,0.8,0,1.2c0,0.4,0.3,0.5,0.2,1c0,0.4-0.1,0.6,0,0.9
					c0.1,0.8,0.2,1.3,0.1,2.1c-0.1,0.5,0.1,0.8,0.1,1.2c0,0.1,0.1,0.3,0.1,0.4C-148.3-51-148.3-50.9-148.4-50.8L-148.4-50.8z"/>
			</g>
		</g>
		<g id="Group_18_" transform="translate(57.28601 86)">
			<path id="Ellipse" class="st5" d="M31.4,150c0-2.9,2.3-5.3,5.3-5.3s5.7,2.6,5.7,5.4s-2.4,4.7-5.4,4.7S31.4,152.9,31.4,150z"/>
			<path id="Ellipse-2" class="st5" d="M47.6,154.4c0-2.7,2.5-4.2,5.2-4.2c2.7,0,5.9,1.7,5.9,4.3s-2.5,5.3-5.2,5.3
				C50.8,159.7,47.6,157,47.6,154.4z"/>
			<g id="Group-2" transform="translate(16.5 20)">
				<path id="Ellipse_1_" class="st9" d="M17.5,129.6c0-1,0.8-1.7,1.7-1.7c1,0,1.7,0.8,1.7,1.7s-0.8,1.7-1.7,1.7
					C18.3,131.3,17.5,130.5,17.5,129.6z"/>
				<path id="Ellipse-2_1_" class="st9" d="M36.4,134.1c0-1,0.8-1.7,1.7-1.7s1.7,0.8,1.7,1.7s-0.8,1.7-1.7,1.7
					S36.4,135.1,36.4,134.1z"/>
				<path id="New-shape-6" class="st11" d="M18.1,129.2c0,0,0.3-0.9,1.6-0.7"/>
				<path id="New-shape-7" class="st11" d="M37,133.8c0,0,0.3-0.9,1.6-0.7"/>
			</g>
		</g>
	</g>
	<path class="st12" d="M157.2,313.1c1.4-1.1,4.8-4.2,6.1-9.5c0.6-2.6,0.5-4.9,0.2-6.5"/>
	<path class="st12" d="M128.4,309.3c-1.3-2.1-3-5.5-3.5-10c-0.2-1.6-0.1-3,0-4.2"/>
</g>
</svg>
