<?xml version="1.0" encoding="utf-8"?>
<!-- Generator: Adobe Illustrator 25.0.1, SVG Export Plug-In . SVG Version: 6.00 Build 0)  -->
<svg version="1.1" id="Layer_1" xmlns="http://www.w3.org/2000/svg" xmlns:xlink="http://www.w3.org/1999/xlink" x="0px" y="0px"
	 viewBox="0 0 1175.6 612.8" style="enable-background:new 0 0 1175.6 612.8;" xml:space="preserve">
<style type="text/css">
	.st0{fill:#A7E6E7;}
	.st1{fill:#00484A;}
	.st2{fill:#00B9BC;}
	.st3{fill:#009092;}
	.st4{fill:#E86166;}
</style>
<g>
	<g>
		<path class="st0" d="M704.1,487.7c-1,0-2-0.3-2.9-0.9L536.3,371.1L413,370.9v-10l124.9,0.1c1,0,2,0.3,2.9,0.9l161.4,113.3
			l114.4-228c0.2-0.5,0.6-0.9,0.9-1.3l115.1-115l-1-114.6l10-0.1l1,116.7c0,1.3-0.5,2.6-1.5,3.6l-116,115.9L708.6,484.9
			c-0.7,1.3-1.8,2.2-3.2,2.6C704.9,487.6,704.5,487.7,704.1,487.7z"/>
	</g>
	<g>
		<path class="st1" d="M471.3,553.3c-1.2,0-2.3-0.4-3.2-1.2l-135.6-116c-2.1-1.8-2.3-5-0.5-7c1.8-2.1,5-2.3,7-0.5l131.6,112.5
			l229.9-294.7c0.9-1.1,2.2-1.8,3.6-1.9c1.4-0.1,2.8,0.4,3.8,1.5l113,113l113-113L1049,131V16.3c0-2.8,2.2-5,5-5h116.6
			c2.8,0,5,2.2,5,5s-2.2,5-5,5H1059v111.8c0,1.3-0.5,2.6-1.5,3.5L940.9,253L824.3,369.6c-2,2-5.1,2-7.1,0L705,257L475.3,551.4
			c-0.8,1.1-2.1,1.8-3.4,1.9C471.7,553.3,471.5,553.3,471.3,553.3z"/>
	</g>
	<g>
		<g>
			<g>
				<g>
					<circle class="st1" cx="467.1" cy="268.7" r="5"/>
				</g>
			</g>
			<g>
				<g>
					<circle class="st1" cx="467.1" cy="293.3" r="5"/>
				</g>
			</g>
			<g>
				<g>
					<circle class="st1" cx="467.1" cy="318" r="5"/>
				</g>
			</g>
			<g>
				<g>
					<circle class="st1" cx="467.1" cy="342.7" r="5"/>
				</g>
			</g>
			<g>
				<g>
					<circle class="st1" cx="467.1" cy="367.3" r="5"/>
				</g>
			</g>
			<g>
				<g>
					<circle class="st1" cx="442.5" cy="219.3" r="5"/>
				</g>
			</g>
			<g>
				<g>
					<circle class="st1" cx="442.5" cy="244" r="5"/>
				</g>
			</g>
			<g>
				<g>
					<circle class="st1" cx="442.5" cy="268.7" r="5"/>
				</g>
			</g>
			<g>
				<g>
					<circle class="st1" cx="442.5" cy="293.3" r="5"/>
				</g>
			</g>
			<g>
				<g>
					<circle class="st1" cx="442.5" cy="318" r="5"/>
				</g>
			</g>
			<g>
				<g>
					<circle class="st1" cx="442.5" cy="342.7" r="5"/>
				</g>
			</g>
			<g>
				<g>
					<circle class="st1" cx="442.5" cy="367.3" r="5"/>
				</g>
			</g>
			<g>
				<g>
					<circle class="st1" cx="442.5" cy="392" r="5"/>
				</g>
			</g>
			<g>
				<g>
					<circle class="st1" cx="442.5" cy="416.7" r="5"/>
				</g>
			</g>
			<g>
				<g>
					<circle class="st1" cx="417.8" cy="194.7" r="5"/>
				</g>
			</g>
			<g>
				<g>
					<circle class="st1" cx="417.8" cy="219.3" r="5"/>
				</g>
			</g>
			<g>
				<g>
					<circle class="st1" cx="417.8" cy="244" r="5"/>
				</g>
			</g>
			<g>
				<g>
					<circle class="st1" cx="417.8" cy="268.7" r="5"/>
				</g>
			</g>
			<g>
				<g>
					<circle class="st1" cx="417.8" cy="293.3" r="5"/>
				</g>
			</g>
			<g>
				<g>
					<circle class="st1" cx="417.8" cy="318" r="5"/>
				</g>
			</g>
			<g>
				<g>
					<circle class="st1" cx="417.8" cy="342.7" r="5"/>
				</g>
			</g>
			<g>
				<g>
					<circle class="st1" cx="417.8" cy="367.3" r="5"/>
				</g>
			</g>
			<g>
				<g>
					<circle class="st1" cx="417.8" cy="392" r="5"/>
				</g>
			</g>
			<g>
				<g>
					<circle class="st1" cx="417.8" cy="416.7" r="5"/>
				</g>
			</g>
			<g>
				<g>
					<circle class="st1" cx="417.8" cy="441.3" r="5"/>
				</g>
			</g>
			<g>
				<g>
					<circle class="st1" cx="393.1" cy="170" r="5"/>
				</g>
			</g>
			<g>
				<g>
					<circle class="st1" cx="393.1" cy="194.7" r="5"/>
				</g>
			</g>
			<g>
				<g>
					<circle class="st1" cx="393.1" cy="219.3" r="5"/>
				</g>
			</g>
			<g>
				<g>
					<circle class="st1" cx="393.1" cy="244" r="5"/>
				</g>
			</g>
			<g>
				<g>
					<circle class="st1" cx="393.1" cy="268.7" r="5"/>
				</g>
			</g>
			<g>
				<g>
					<circle class="st1" cx="393.1" cy="293.3" r="5"/>
				</g>
			</g>
			<g>
				<g>
					<circle class="st1" cx="393.1" cy="318" r="5"/>
				</g>
			</g>
			<g>
				<g>
					<circle class="st1" cx="393.1" cy="342.7" r="5"/>
				</g>
			</g>
			<g>
				<g>
					<circle class="st1" cx="393.1" cy="367.3" r="5"/>
				</g>
			</g>
			<g>
				<g>
					<circle class="st1" cx="393.1" cy="392" r="5"/>
				</g>
			</g>
			<g>
				<g>
					<circle class="st1" cx="393.1" cy="416.7" r="5"/>
				</g>
			</g>
			<g>
				<g>
					<circle class="st1" cx="393.1" cy="441.3" r="5"/>
				</g>
			</g>
			<g>
				<g>
					<circle class="st1" cx="393.1" cy="466" r="5"/>
				</g>
			</g>
			<g>
				<g>
					<circle class="st1" cx="393.1" cy="490.7" r="5"/>
				</g>
			</g>
			<g>
				<g>
					<circle class="st1" cx="368.5" cy="145.3" r="5"/>
				</g>
			</g>
			<g>
				<g>
					<circle class="st1" cx="368.5" cy="170" r="5"/>
				</g>
			</g>
			<g>
				<g>
					<circle class="st1" cx="368.5" cy="194.7" r="5"/>
				</g>
			</g>
			<g>
				<g>
					<circle class="st1" cx="368.5" cy="219.3" r="5"/>
				</g>
			</g>
			<g>
				<g>
					<circle class="st1" cx="368.5" cy="244" r="5"/>
				</g>
			</g>
			<g>
				<g>
					<circle class="st1" cx="368.5" cy="268.7" r="5"/>
				</g>
			</g>
			<g>
				<g>
					<circle class="st1" cx="368.5" cy="293.3" r="5"/>
				</g>
			</g>
			<g>
				<g>
					<circle class="st1" cx="368.5" cy="318" r="5"/>
				</g>
			</g>
			<g>
				<g>
					<circle class="st1" cx="368.5" cy="342.7" r="5"/>
				</g>
			</g>
			<g>
				<g>
					<circle class="st1" cx="368.5" cy="367.3" r="5"/>
				</g>
			</g>
			<g>
				<g>
					<circle class="st1" cx="368.5" cy="392" r="5"/>
				</g>
			</g>
			<g>
				<g>
					<circle class="st1" cx="368.5" cy="416.7" r="5"/>
				</g>
			</g>
			<g>
				<g>
					<circle class="st1" cx="368.5" cy="441.3" r="5"/>
				</g>
			</g>
			<g>
				<g>
					<circle class="st1" cx="368.5" cy="466" r="5"/>
				</g>
			</g>
			<g>
				<g>
					<circle class="st1" cx="368.5" cy="490.7" r="5"/>
				</g>
			</g>
			<g>
				<g>
					<circle class="st1" cx="343.8" cy="120.7" r="5"/>
				</g>
			</g>
			<g>
				<g>
					<circle class="st1" cx="343.8" cy="145.3" r="5"/>
				</g>
			</g>
			<g>
				<g>
					<circle class="st1" cx="343.8" cy="170" r="5"/>
				</g>
			</g>
			<g>
				<g>
					<circle class="st1" cx="343.8" cy="194.7" r="5"/>
				</g>
			</g>
			<g>
				<g>
					<circle class="st1" cx="343.8" cy="219.3" r="5"/>
				</g>
			</g>
			<g>
				<g>
					<circle class="st1" cx="343.8" cy="244" r="5"/>
				</g>
			</g>
			<g>
				<g>
					<circle class="st1" cx="343.8" cy="268.7" r="5"/>
				</g>
			</g>
			<g>
				<g>
					<circle class="st1" cx="343.8" cy="293.3" r="5"/>
				</g>
			</g>
			<g>
				<g>
					<circle class="st1" cx="343.8" cy="318" r="5"/>
				</g>
			</g>
			<g>
				<g>
					<circle class="st1" cx="343.8" cy="342.7" r="5"/>
				</g>
			</g>
			<g>
				<g>
					<circle class="st1" cx="343.8" cy="367.3" r="5"/>
				</g>
			</g>
			<g>
				<g>
					<circle class="st1" cx="343.8" cy="392" r="5"/>
				</g>
			</g>
			<g>
				<g>
					<circle class="st1" cx="343.8" cy="416.7" r="5"/>
				</g>
			</g>
			<g>
				<g>
					<circle class="st1" cx="343.8" cy="441.3" r="5"/>
				</g>
			</g>
			<g>
				<g>
					<circle class="st1" cx="343.8" cy="466" r="5"/>
				</g>
			</g>
			<g>
				<g>
					<circle class="st1" cx="343.8" cy="490.7" r="5"/>
				</g>
			</g>
			<g>
				<g>
					<circle class="st1" cx="343.8" cy="515.3" r="5"/>
				</g>
			</g>
			<g>
				<g>
					<circle class="st1" cx="319.1" cy="120.7" r="5"/>
				</g>
			</g>
			<g>
				<g>
					<circle class="st1" cx="319.1" cy="145.3" r="5"/>
				</g>
			</g>
			<g>
				<g>
					<circle class="st1" cx="319.1" cy="170" r="5"/>
				</g>
			</g>
			<g>
				<g>
					<circle class="st1" cx="319.1" cy="194.7" r="5"/>
				</g>
			</g>
			<g>
				<g>
					<circle class="st1" cx="319.1" cy="219.3" r="5"/>
				</g>
			</g>
			<g>
				<g>
					<circle class="st1" cx="319.1" cy="244" r="5"/>
				</g>
			</g>
			<g>
				<g>
					<circle class="st1" cx="319.1" cy="268.7" r="5"/>
				</g>
			</g>
			<g>
				<g>
					<circle class="st1" cx="319.1" cy="293.3" r="5"/>
				</g>
			</g>
			<g>
				<g>
					<circle class="st1" cx="319.1" cy="318" r="5"/>
				</g>
			</g>
			<g>
				<g>
					<circle class="st1" cx="319.1" cy="342.7" r="5"/>
				</g>
			</g>
			<g>
				<g>
					<circle class="st1" cx="319.1" cy="367.3" r="5"/>
				</g>
			</g>
			<g>
				<g>
					<circle class="st1" cx="319.1" cy="392" r="5"/>
				</g>
			</g>
			<g>
				<g>
					<circle class="st1" cx="319.1" cy="416.7" r="5"/>
				</g>
			</g>
			<g>
				<g>
					<circle class="st1" cx="319.1" cy="441.3" r="5"/>
				</g>
			</g>
			<g>
				<g>
					<circle class="st1" cx="319.1" cy="466" r="5"/>
				</g>
			</g>
			<g>
				<g>
					<circle class="st1" cx="319.1" cy="490.7" r="5"/>
				</g>
			</g>
			<g>
				<g>
					<circle class="st1" cx="319.1" cy="515.3" r="5"/>
				</g>
			</g>
			<g>
				<g>
					<circle class="st1" cx="294.5" cy="96" r="5"/>
				</g>
			</g>
			<g>
				<g>
					<circle class="st1" cx="294.5" cy="120.7" r="5"/>
				</g>
			</g>
			<g>
				<g>
					<circle class="st1" cx="294.5" cy="145.3" r="5"/>
				</g>
			</g>
			<g>
				<g>
					<circle class="st1" cx="294.5" cy="170" r="5"/>
				</g>
			</g>
			<g>
				<g>
					<circle class="st1" cx="294.5" cy="194.7" r="5"/>
				</g>
			</g>
			<g>
				<g>
					<circle class="st1" cx="294.5" cy="219.3" r="5"/>
				</g>
			</g>
			<g>
				<g>
					<circle class="st1" cx="294.5" cy="244" r="5"/>
				</g>
			</g>
			<g>
				<g>
					<circle class="st1" cx="294.5" cy="268.7" r="5"/>
				</g>
			</g>
			<g>
				<g>
					<circle class="st1" cx="294.5" cy="293.3" r="5"/>
				</g>
			</g>
			<g>
				<g>
					<circle class="st1" cx="294.5" cy="318" r="5"/>
				</g>
			</g>
			<g>
				<g>
					<circle class="st1" cx="294.5" cy="342.7" r="5"/>
				</g>
			</g>
			<g>
				<g>
					<circle class="st1" cx="294.5" cy="367.3" r="5"/>
				</g>
			</g>
			<g>
				<g>
					<circle class="st1" cx="294.5" cy="392" r="5"/>
				</g>
			</g>
			<g>
				<g>
					<circle class="st1" cx="294.5" cy="416.7" r="5"/>
				</g>
			</g>
			<g>
				<g>
					<circle class="st1" cx="294.5" cy="441.3" r="5"/>
				</g>
			</g>
			<g>
				<g>
					<circle class="st1" cx="294.5" cy="466" r="5"/>
				</g>
			</g>
			<g>
				<g>
					<circle class="st1" cx="294.5" cy="490.7" r="5"/>
				</g>
			</g>
			<g>
				<g>
					<circle class="st1" cx="294.5" cy="515.3" r="5"/>
				</g>
			</g>
			<g>
				<g>
					<circle class="st1" cx="294.5" cy="540" r="5"/>
				</g>
			</g>
			<g>
				<g>
					<circle class="st1" cx="269.8" cy="96" r="5"/>
				</g>
			</g>
			<g>
				<g>
					<circle class="st1" cx="269.8" cy="120.7" r="5"/>
				</g>
			</g>
			<g>
				<g>
					<circle class="st1" cx="269.8" cy="145.3" r="5"/>
				</g>
			</g>
			<g>
				<g>
					<circle class="st1" cx="269.8" cy="170" r="5"/>
				</g>
			</g>
			<g>
				<g>
					<circle class="st1" cx="269.8" cy="194.7" r="5"/>
				</g>
			</g>
			<g>
				<g>
					<circle class="st1" cx="269.8" cy="219.3" r="5"/>
				</g>
			</g>
			<g>
				<g>
					<circle class="st1" cx="269.8" cy="244" r="5"/>
				</g>
			</g>
			<g>
				<g>
					<circle class="st1" cx="269.8" cy="268.7" r="5"/>
				</g>
			</g>
			<g>
				<g>
					<circle class="st1" cx="269.8" cy="293.3" r="5"/>
				</g>
			</g>
			<g>
				<g>
					<circle class="st1" cx="269.8" cy="318" r="5"/>
				</g>
			</g>
			<g>
				<g>
					<circle class="st1" cx="269.8" cy="342.7" r="5"/>
				</g>
			</g>
			<g>
				<g>
					<circle class="st1" cx="269.8" cy="367.3" r="5"/>
				</g>
			</g>
			<g>
				<g>
					<circle class="st1" cx="269.8" cy="392" r="5"/>
				</g>
			</g>
			<g>
				<g>
					<circle class="st1" cx="269.8" cy="416.7" r="5"/>
				</g>
			</g>
			<g>
				<g>
					<circle class="st1" cx="269.8" cy="441.3" r="5"/>
				</g>
			</g>
			<g>
				<g>
					<circle class="st1" cx="269.8" cy="466" r="5"/>
				</g>
			</g>
			<g>
				<g>
					<circle class="st1" cx="269.8" cy="490.7" r="5"/>
				</g>
			</g>
			<g>
				<g>
					<circle class="st1" cx="269.8" cy="515.3" r="5"/>
				</g>
			</g>
			<g>
				<g>
					<circle class="st1" cx="269.8" cy="540" r="5"/>
				</g>
			</g>
			<g>
				<g>
					<circle class="st1" cx="245.1" cy="96" r="5"/>
				</g>
			</g>
			<g>
				<g>
					<circle class="st1" cx="245.1" cy="120.7" r="5"/>
				</g>
			</g>
			<g>
				<g>
					<circle class="st1" cx="245.1" cy="145.3" r="5"/>
				</g>
			</g>
			<g>
				<g>
					<circle class="st1" cx="245.1" cy="170" r="5"/>
				</g>
			</g>
			<g>
				<g>
					<circle class="st1" cx="245.1" cy="194.7" r="5"/>
				</g>
			</g>
			<g>
				<g>
					<circle class="st1" cx="245.1" cy="219.3" r="5"/>
				</g>
			</g>
			<g>
				<g>
					<circle class="st1" cx="245.1" cy="244" r="5"/>
				</g>
			</g>
			<g>
				<g>
					<circle class="st1" cx="245.1" cy="268.7" r="5"/>
				</g>
			</g>
			<g>
				<g>
					<circle class="st1" cx="245.1" cy="293.3" r="5"/>
				</g>
			</g>
			<g>
				<g>
					<circle class="st1" cx="245.1" cy="318" r="5"/>
				</g>
			</g>
			<g>
				<g>
					<circle class="st1" cx="245.1" cy="342.7" r="5"/>
				</g>
			</g>
			<g>
				<g>
					<circle class="st1" cx="245.1" cy="367.3" r="5"/>
				</g>
			</g>
			<g>
				<g>
					<circle class="st1" cx="245.1" cy="392" r="5"/>
				</g>
			</g>
			<g>
				<g>
					<circle class="st1" cx="245.1" cy="416.7" r="5"/>
				</g>
			</g>
			<g>
				<g>
					<circle class="st1" cx="245.1" cy="441.3" r="5"/>
				</g>
			</g>
			<g>
				<g>
					<circle class="st1" cx="245.1" cy="466" r="5"/>
				</g>
			</g>
			<g>
				<g>
					<circle class="st1" cx="245.1" cy="490.7" r="5"/>
				</g>
			</g>
			<g>
				<g>
					<circle class="st1" cx="245.1" cy="515.3" r="5"/>
				</g>
			</g>
			<g>
				<g>
					<circle class="st1" cx="245.1" cy="540" r="5"/>
				</g>
			</g>
			<g>
				<g>
					<circle class="st1" cx="220.5" cy="96" r="5"/>
				</g>
			</g>
			<g>
				<g>
					<circle class="st1" cx="220.5" cy="120.7" r="5"/>
				</g>
			</g>
			<g>
				<g>
					<circle class="st1" cx="220.5" cy="145.3" r="5"/>
				</g>
			</g>
			<g>
				<g>
					<circle class="st1" cx="220.5" cy="170" r="5"/>
				</g>
			</g>
			<g>
				<g>
					<circle class="st1" cx="220.5" cy="194.7" r="5"/>
				</g>
			</g>
			<g>
				<g>
					<circle class="st1" cx="220.5" cy="219.3" r="5"/>
				</g>
			</g>
			<g>
				<g>
					<circle class="st1" cx="220.5" cy="244" r="5"/>
				</g>
			</g>
			<g>
				<g>
					<circle class="st1" cx="220.5" cy="268.7" r="5"/>
				</g>
			</g>
			<g>
				<g>
					<circle class="st1" cx="220.5" cy="293.3" r="5"/>
				</g>
			</g>
			<g>
				<g>
					<circle class="st1" cx="220.5" cy="318" r="5"/>
				</g>
			</g>
			<g>
				<g>
					<circle class="st1" cx="220.5" cy="342.7" r="5"/>
				</g>
			</g>
			<g>
				<g>
					<circle class="st1" cx="220.5" cy="367.3" r="5"/>
				</g>
			</g>
			<g>
				<g>
					<circle class="st1" cx="220.5" cy="392" r="5"/>
				</g>
			</g>
			<g>
				<g>
					<circle class="st1" cx="220.5" cy="416.7" r="5"/>
				</g>
			</g>
			<g>
				<g>
					<circle class="st1" cx="220.5" cy="441.3" r="5"/>
				</g>
			</g>
			<g>
				<g>
					<circle class="st1" cx="220.5" cy="466" r="5"/>
				</g>
			</g>
			<g>
				<g>
					<circle class="st1" cx="220.5" cy="490.7" r="5"/>
				</g>
			</g>
			<g>
				<g>
					<circle class="st1" cx="220.5" cy="515.3" r="5"/>
				</g>
			</g>
			<g>
				<g>
					<circle class="st1" cx="220.5" cy="540" r="5"/>
				</g>
			</g>
			<g>
				<g>
					<circle class="st1" cx="195.8" cy="96" r="5"/>
				</g>
			</g>
			<g>
				<g>
					<circle class="st1" cx="195.8" cy="120.7" r="5"/>
				</g>
			</g>
			<g>
				<g>
					<circle class="st1" cx="195.8" cy="145.3" r="5"/>
				</g>
			</g>
			<g>
				<g>
					<circle class="st1" cx="195.8" cy="170" r="5"/>
				</g>
			</g>
			<g>
				<g>
					<circle class="st1" cx="195.8" cy="194.7" r="5"/>
				</g>
			</g>
			<g>
				<g>
					<circle class="st1" cx="195.8" cy="219.3" r="5"/>
				</g>
			</g>
			<g>
				<g>
					<circle class="st1" cx="195.8" cy="244" r="5"/>
				</g>
			</g>
			<g>
				<g>
					<circle class="st1" cx="195.8" cy="268.7" r="5"/>
				</g>
			</g>
			<g>
				<g>
					<circle class="st1" cx="195.8" cy="293.3" r="5"/>
				</g>
			</g>
			<g>
				<g>
					<circle class="st1" cx="195.8" cy="318" r="5"/>
				</g>
			</g>
			<g>
				<g>
					<circle class="st1" cx="195.8" cy="342.7" r="5"/>
				</g>
			</g>
			<g>
				<g>
					<circle class="st1" cx="195.8" cy="367.3" r="5"/>
				</g>
			</g>
			<g>
				<g>
					<circle class="st1" cx="195.8" cy="392" r="5"/>
				</g>
			</g>
			<g>
				<g>
					<circle class="st1" cx="195.8" cy="416.7" r="5"/>
				</g>
			</g>
			<g>
				<g>
					<circle class="st1" cx="195.8" cy="441.3" r="5"/>
				</g>
			</g>
			<g>
				<g>
					<circle class="st1" cx="195.8" cy="466" r="5"/>
				</g>
			</g>
			<g>
				<g>
					<circle class="st1" cx="195.8" cy="490.7" r="5"/>
				</g>
			</g>
			<g>
				<g>
					<circle class="st1" cx="195.8" cy="515.3" r="5"/>
				</g>
			</g>
			<g>
				<g>
					<circle class="st1" cx="195.8" cy="540" r="5"/>
				</g>
			</g>
			<g>
				<g>
					<circle class="st1" cx="171.1" cy="120.7" r="5"/>
				</g>
			</g>
			<g>
				<g>
					<circle class="st1" cx="171.1" cy="145.3" r="5"/>
				</g>
			</g>
			<g>
				<g>
					<circle class="st1" cx="171.1" cy="170" r="5"/>
				</g>
			</g>
			<g>
				<g>
					<circle class="st1" cx="171.1" cy="194.7" r="5"/>
				</g>
			</g>
			<g>
				<g>
					<circle class="st1" cx="171.1" cy="219.3" r="5"/>
				</g>
			</g>
			<g>
				<g>
					<circle class="st1" cx="171.1" cy="244" r="5"/>
				</g>
			</g>
			<g>
				<g>
					<circle class="st1" cx="171.1" cy="268.7" r="5"/>
				</g>
			</g>
			<g>
				<g>
					<circle class="st1" cx="171.1" cy="293.3" r="5"/>
				</g>
			</g>
			<g>
				<g>
					<circle class="st1" cx="171.1" cy="318" r="5"/>
				</g>
			</g>
			<g>
				<g>
					<circle class="st1" cx="171.1" cy="342.7" r="5"/>
				</g>
			</g>
			<g>
				<g>
					<circle class="st1" cx="171.1" cy="367.3" r="5"/>
				</g>
			</g>
			<g>
				<g>
					<circle class="st1" cx="171.1" cy="392" r="5"/>
				</g>
			</g>
			<g>
				<g>
					<circle class="st1" cx="171.1" cy="416.7" r="5"/>
				</g>
			</g>
			<g>
				<g>
					<circle class="st1" cx="171.1" cy="441.3" r="5"/>
				</g>
			</g>
			<g>
				<g>
					<circle class="st1" cx="171.1" cy="466" r="5"/>
				</g>
			</g>
			<g>
				<g>
					<circle class="st1" cx="171.1" cy="490.7" r="5"/>
				</g>
			</g>
			<g>
				<g>
					<circle class="st1" cx="171.1" cy="515.3" r="5"/>
				</g>
			</g>
			<g>
				<g>
					<circle class="st1" cx="171.1" cy="540" r="5"/>
				</g>
			</g>
			<g>
				<g>
					<circle class="st1" cx="146.5" cy="120.7" r="5"/>
				</g>
			</g>
			<g>
				<g>
					<circle class="st1" cx="146.5" cy="145.3" r="5"/>
				</g>
			</g>
			<g>
				<g>
					<circle class="st1" cx="146.5" cy="170" r="5"/>
				</g>
			</g>
			<g>
				<g>
					<circle class="st1" cx="146.5" cy="194.7" r="5"/>
				</g>
			</g>
			<g>
				<g>
					<circle class="st1" cx="146.5" cy="219.3" r="5"/>
				</g>
			</g>
			<g>
				<g>
					<circle class="st1" cx="146.5" cy="244" r="5"/>
				</g>
			</g>
			<g>
				<g>
					<circle class="st1" cx="146.5" cy="268.7" r="5"/>
				</g>
			</g>
			<g>
				<g>
					<circle class="st1" cx="146.5" cy="293.3" r="5"/>
				</g>
			</g>
			<g>
				<g>
					<circle class="st1" cx="146.5" cy="318" r="5"/>
				</g>
			</g>
			<g>
				<g>
					<circle class="st1" cx="146.5" cy="342.7" r="5"/>
				</g>
			</g>
			<g>
				<g>
					<circle class="st1" cx="146.5" cy="367.3" r="5"/>
				</g>
			</g>
			<g>
				<g>
					<circle class="st1" cx="146.5" cy="392" r="5"/>
				</g>
			</g>
			<g>
				<g>
					<circle class="st1" cx="146.5" cy="416.7" r="5"/>
				</g>
			</g>
			<g>
				<g>
					<circle class="st1" cx="146.5" cy="441.3" r="5"/>
				</g>
			</g>
			<g>
				<g>
					<circle class="st1" cx="146.5" cy="466" r="5"/>
				</g>
			</g>
			<g>
				<g>
					<circle class="st1" cx="146.5" cy="490.7" r="5"/>
				</g>
			</g>
			<g>
				<g>
					<circle class="st1" cx="146.5" cy="515.3" r="5"/>
				</g>
			</g>
			<g>
				<g>
					<circle class="st1" cx="121.8" cy="120.7" r="5"/>
				</g>
			</g>
			<g>
				<g>
					<circle class="st1" cx="121.8" cy="145.3" r="5"/>
				</g>
			</g>
			<g>
				<g>
					<circle class="st1" cx="121.8" cy="170" r="5"/>
				</g>
			</g>
			<g>
				<g>
					<circle class="st1" cx="121.8" cy="194.7" r="5"/>
				</g>
			</g>
			<g>
				<g>
					<circle class="st1" cx="121.8" cy="219.3" r="5"/>
				</g>
			</g>
			<g>
				<g>
					<circle class="st1" cx="121.8" cy="244" r="5"/>
				</g>
			</g>
			<g>
				<g>
					<circle class="st1" cx="121.8" cy="268.7" r="5"/>
				</g>
			</g>
			<g>
				<g>
					<circle class="st1" cx="121.8" cy="293.3" r="5"/>
				</g>
			</g>
			<g>
				<g>
					<circle class="st1" cx="121.8" cy="318" r="5"/>
				</g>
			</g>
			<g>
				<g>
					<circle class="st1" cx="121.8" cy="342.7" r="5"/>
				</g>
			</g>
			<g>
				<g>
					<circle class="st1" cx="121.8" cy="367.3" r="5"/>
				</g>
			</g>
			<g>
				<g>
					<circle class="st1" cx="121.8" cy="392" r="5"/>
				</g>
			</g>
			<g>
				<g>
					<circle class="st1" cx="121.8" cy="416.7" r="5"/>
				</g>
			</g>
			<g>
				<g>
					<circle class="st1" cx="121.8" cy="441.3" r="5"/>
				</g>
			</g>
			<g>
				<g>
					<circle class="st1" cx="121.8" cy="466" r="5"/>
				</g>
			</g>
			<g>
				<g>
					<circle class="st1" cx="121.8" cy="490.7" r="5"/>
				</g>
			</g>
			<g>
				<g>
					<circle class="st1" cx="121.8" cy="515.3" r="5"/>
				</g>
			</g>
			<g>
				<g>
					<circle class="st1" cx="97.1" cy="145.3" r="5"/>
				</g>
			</g>
			<g>
				<g>
					<circle class="st1" cx="97.1" cy="170" r="5"/>
				</g>
			</g>
			<g>
				<g>
					<circle class="st1" cx="97.1" cy="194.7" r="5"/>
				</g>
			</g>
			<g>
				<g>
					<circle class="st1" cx="97.1" cy="219.3" r="5"/>
				</g>
			</g>
			<g>
				<g>
					<circle class="st1" cx="97.1" cy="244" r="5"/>
				</g>
			</g>
			<g>
				<g>
					<circle class="st1" cx="97.1" cy="268.7" r="5"/>
				</g>
			</g>
			<g>
				<g>
					<circle class="st1" cx="97.1" cy="293.3" r="5"/>
				</g>
			</g>
			<g>
				<g>
					<circle class="st1" cx="97.1" cy="318" r="5"/>
				</g>
			</g>
			<g>
				<g>
					<circle class="st1" cx="97.1" cy="342.7" r="5"/>
				</g>
			</g>
			<g>
				<g>
					<circle class="st1" cx="97.1" cy="367.3" r="5"/>
				</g>
			</g>
			<g>
				<g>
					<circle class="st1" cx="97.1" cy="392" r="5"/>
				</g>
			</g>
			<g>
				<g>
					<circle class="st1" cx="97.1" cy="416.7" r="5"/>
				</g>
			</g>
			<g>
				<g>
					<circle class="st1" cx="97.1" cy="441.3" r="5"/>
				</g>
			</g>
			<g>
				<g>
					<circle class="st1" cx="97.1" cy="466" r="5"/>
				</g>
			</g>
			<g>
				<g>
					<circle class="st1" cx="97.1" cy="490.7" r="5"/>
				</g>
			</g>
			<g>
				<g>
					<circle class="st1" cx="72.5" cy="170" r="5"/>
				</g>
			</g>
			<g>
				<g>
					<circle class="st1" cx="72.5" cy="194.7" r="5"/>
				</g>
			</g>
			<g>
				<g>
					<circle class="st1" cx="72.5" cy="219.3" r="5"/>
				</g>
			</g>
			<g>
				<g>
					<circle class="st1" cx="72.5" cy="244" r="5"/>
				</g>
			</g>
			<g>
				<g>
					<circle class="st1" cx="72.5" cy="268.7" r="5"/>
				</g>
			</g>
			<g>
				<g>
					<circle class="st1" cx="72.5" cy="293.3" r="5"/>
				</g>
			</g>
			<g>
				<g>
					<circle class="st1" cx="72.5" cy="318" r="5"/>
				</g>
			</g>
			<g>
				<g>
					<circle class="st1" cx="72.5" cy="342.7" r="5"/>
				</g>
			</g>
			<g>
				<g>
					<circle class="st1" cx="72.5" cy="367.3" r="5"/>
				</g>
			</g>
			<g>
				<g>
					<circle class="st1" cx="72.5" cy="392" r="5"/>
				</g>
			</g>
			<g>
				<g>
					<circle class="st1" cx="72.5" cy="416.7" r="5"/>
				</g>
			</g>
			<g>
				<g>
					<circle class="st1" cx="72.5" cy="441.3" r="5"/>
				</g>
			</g>
			<g>
				<g>
					<circle class="st1" cx="72.5" cy="466" r="5"/>
				</g>
			</g>
			<g>
				<g>
					<circle class="st1" cx="47.8" cy="194.7" r="5"/>
				</g>
			</g>
			<g>
				<g>
					<circle class="st1" cx="47.8" cy="219.3" r="5"/>
				</g>
			</g>
			<g>
				<g>
					<circle class="st1" cx="47.8" cy="244" r="5"/>
				</g>
			</g>
			<g>
				<g>
					<circle class="st1" cx="47.8" cy="268.7" r="5"/>
				</g>
			</g>
			<g>
				<g>
					<circle class="st1" cx="47.8" cy="293.3" r="5"/>
				</g>
			</g>
			<g>
				<g>
					<circle class="st1" cx="47.8" cy="318" r="5"/>
				</g>
			</g>
			<g>
				<g>
					<circle class="st1" cx="47.8" cy="342.7" r="5"/>
				</g>
			</g>
			<g>
				<g>
					<circle class="st1" cx="47.8" cy="367.3" r="5"/>
				</g>
			</g>
			<g>
				<g>
					<circle class="st1" cx="47.8" cy="392" r="5"/>
				</g>
			</g>
			<g>
				<g>
					<circle class="st1" cx="47.8" cy="416.7" r="5"/>
				</g>
			</g>
			<g>
				<g>
					<circle class="st1" cx="47.8" cy="441.3" r="5"/>
				</g>
			</g>
			<g>
				<g>
					<circle class="st1" cx="23.1" cy="244" r="5"/>
				</g>
			</g>
			<g>
				<g>
					<circle class="st1" cx="23.1" cy="268.7" r="5"/>
				</g>
			</g>
			<g>
				<g>
					<circle class="st1" cx="23.1" cy="293.3" r="5"/>
				</g>
			</g>
			<g>
				<g>
					<circle class="st1" cx="23.1" cy="318" r="5"/>
				</g>
			</g>
			<g>
				<g>
					<circle class="st1" cx="23.1" cy="342.7" r="5"/>
				</g>
			</g>
			<g>
				<g>
					<circle class="st1" cx="23.1" cy="367.3" r="5"/>
				</g>
			</g>
			<g>
				<g>
					<circle class="st1" cx="23.1" cy="392" r="5"/>
				</g>
			</g>
		</g>
	</g>
	<g>
		<g>
			<path class="st2" d="M471.3,249.5c0,128.6-104.2,232.9-232.7,233.2l-0.4-233.2V16.3C367,16.3,471.3,120.7,471.3,249.5z"/>
			<path class="st1" d="M238.6,487.7c-2.8,0-5-2.2-5-5l-0.4-233.2V16.3c0-2.8,2.2-5,5-5c63.6,0,123.4,24.8,168.4,69.8
				s69.8,104.8,69.8,168.4c0,63.5-24.7,123.3-69.6,168.3C361.8,462.7,302.1,487.5,238.6,487.7L238.6,487.7z M243.2,21.4v228.1
				l0.4,228.1c59-1.4,114.2-25,156.1-66.9c43-43.1,66.7-100.3,66.7-161.2s-23.7-118.2-66.8-161.3C357.6,46.3,302.3,22.7,243.2,21.4z
				"/>
		</g>
		<g>
			<path class="st3" d="M238.6,482.7h-0.4c-13,0-25.8-1.1-38.3-3.1c-0.8-0.1-1.5-0.3-2.3-0.4c-1.7-0.3-3.4-0.6-5-1
				c-34-6.7-65.3-20.8-92.2-40.6c-0.7-0.5-1.4-1.1-2.1-1.6s-1.4-1.1-2.1-1.6s-1.4-1.1-2.1-1.6c-7.7-6.1-15-12.6-21.8-19.6
				C30.6,371.1,5,313.3,5,249.5c0-28.5,5.1-55.9,14.5-81.1c11.8-31.8,30.3-60.2,53.8-83.7l0,0c42.2-42.2,100.5-68.3,164.9-68.3
				v233.1L238.6,482.7z"/>
			<path class="st1" d="M238.6,487.7h-0.4c-13.1,0-26.3-1.1-39.1-3.2c-0.8-0.1-1.6-0.3-2.4-0.4c-1.7-0.3-3.4-0.6-5.1-1
				c-34.3-6.8-66-20.8-94.2-41.5l-2.2-1.6c-0.5-0.4-1-0.8-1.5-1.1l-0.6-0.5c-0.7-0.6-1.4-1.1-2.2-1.7c-7.8-6.1-15.3-12.9-22.3-20
				C24.4,371.8,0,312.5,0,249.5c0-28.5,5-56.4,14.8-82.9c11.8-31.8,30.8-61.4,54.9-85.5c0.1-0.1,0.1-0.1,0.2-0.2
				c45-44.9,104.7-69.6,168.2-69.6c2.8,0,5,2.2,5,5v233.1l0.4,233.2c0,1.3-0.5,2.6-1.5,3.5S239.9,487.7,238.6,487.7z M76.7,88.4
				c-23,23.1-41.2,51.3-52.4,81.7c-9.4,25.4-14.2,52.1-14.2,79.4c0,60.3,23.3,117.2,65.7,160.2c6.7,6.8,13.9,13.3,21.4,19.1
				c0.7,0.5,1.4,1.1,2.1,1.6l0.6,0.5c0.5,0.4,0.9,0.7,1.4,1.1l2.1,1.6c27,19.8,57.4,33.2,90.2,39.7c1.6,0.3,3.3,0.6,4.9,0.9
				c0.7,0.1,1.5,0.3,2.2,0.4c10.8,1.8,21.9,2.8,32.9,3l-0.4-228.1V21.4c-59.1,1.3-114.4,24.9-156.3,66.8
				C76.8,88.2,76.7,88.3,76.7,88.4z"/>
		</g>
		<g>
			<path class="st1" d="M238.2,16.3v233.1L19.5,168.3c11.8-31.8,30.3-60.2,53.8-83.7l0,0C115.5,42.4,173.8,16.3,238.2,16.3z"/>
			<path class="st1" d="M238.2,254.5c-0.6,0-1.2-0.1-1.7-0.3L17.9,173.1c-1.2-0.5-2.3-1.4-2.8-2.6s-0.6-2.6-0.1-3.8
				c11.8-31.8,30.8-61.4,54.9-85.5c0.1-0.1,0.1-0.1,0.2-0.2c45-44.9,104.7-69.6,168.2-69.6c2.8,0,5,2.2,5,5v233.1
				c0,1.6-0.8,3.2-2.1,4.1C240.2,254.2,239.2,254.5,238.2,254.5z M26,165.4l207.2,76.9V21.4c-59.1,1.3-114.4,24.9-156.3,66.8
				c-0.1,0.1-0.1,0.1-0.2,0.2C54.8,110.2,37.4,136.8,26,165.4z"/>
		</g>
		<g>
			<path class="st0" d="M238.6,482.7L238.6,482.7c-13.1,0.1-26-1-38.7-3.1c-0.8-0.1-1.5-0.3-2.3-0.4c-19.5-3.5-38.4-9.4-56.2-17.5
				l0,0c-14.4-6.6-28.2-14.6-41.1-24c-0.7-0.5-1.4-1.1-2.1-1.6s-1.4-1.1-2.1-1.6s-1.4-1.1-2.1-1.6c-7.7-6-15-12.5-21.9-19.5l0,0
				l166.1-163.7L238.6,482.7z"/>
			<path class="st1" d="M238.3,487.7c-13.1,0-26.3-1.1-39.2-3.3c-0.8-0.1-1.6-0.3-2.4-0.4c-19.8-3.5-39.1-9.5-57.4-17.9
				c-0.1,0-0.2-0.1-0.3-0.1c-14.6-6.7-28.7-14.9-41.7-24.4l-2.2-1.6c-0.5-0.4-1-0.8-1.5-1.1l-0.6-0.5c-0.7-0.6-1.4-1.1-2.2-1.7
				c-7.8-6.2-15.3-12.9-22.3-20c-0.9-1-1.5-2.2-1.4-3.6c0-1.3,0.6-2.6,1.5-3.5l166-163.7c1.4-1.4,3.6-1.8,5.4-1.1
				c1.9,0.8,3.1,2.6,3.1,4.6l0.4,233.2l0,0v0.1c0,2.8-2.2,5-5,5C238.5,487.7,238.4,487.7,238.3,487.7z M143.7,457.2
				c17.5,8,35.9,13.7,54.8,17c0.7,0.1,1.5,0.3,2.2,0.4c10.9,1.8,21.9,2.9,32.9,3.1l-0.4-216.2l-154,151.8
				c5.7,5.5,11.7,10.7,17.8,15.6c0.7,0.5,1.4,1.1,2.1,1.6l0.6,0.5c0.5,0.4,0.9,0.7,1.4,1.1l2.1,1.6c12.5,9.1,26,17,40.1,23.5
				C143.5,457.1,143.6,457.1,143.7,457.2z"/>
		</g>
		<g>
			
				<rect x="344.2" y="168.6" transform="matrix(0.3057 -0.9521 0.9521 0.3057 -29.0945 530.5393)" class="st1" width="10" height="233.2"/>
		</g>
	</g>
	<g>
		<circle class="st1" cx="471.3" cy="548.3" r="11.3"/>
		<path class="st1" d="M471.3,564.6c-9,0-16.3-7.3-16.3-16.3s7.3-16.3,16.3-16.3s16.3,7.3,16.3,16.3S480.3,564.6,471.3,564.6z
			 M471.3,542c-3.5,0-6.3,2.8-6.3,6.3s2.8,6.3,6.3,6.3s6.3-2.8,6.3-6.3S474.8,542,471.3,542z"/>
	</g>
	<g>
		<circle class="st1" cx="704.6" cy="249.5" r="11.3"/>
		<path class="st1" d="M704.6,265.8c-9,0-16.3-7.3-16.3-16.3s7.3-16.3,16.3-16.3s16.3,7.3,16.3,16.3
			C720.9,258.5,713.5,265.8,704.6,265.8z M704.6,243.2c-3.5,0-6.3,2.8-6.3,6.3s2.8,6.3,6.3,6.3s6.3-2.8,6.3-6.3
			S708,243.2,704.6,243.2z"/>
	</g>
	<g>
		<circle class="st1" cx="821.1" cy="365.9" r="11.3"/>
		<path class="st1" d="M821.1,382.2c-9,0-16.3-7.3-16.3-16.3s7.3-16.3,16.3-16.3s16.3,7.3,16.3,16.3S830.1,382.2,821.1,382.2z
			 M821.1,359.6c-3.5,0-6.3,2.8-6.3,6.3s2.8,6.3,6.3,6.3s6.3-2.8,6.3-6.3S824.5,359.6,821.1,359.6z"/>
	</g>
	<g>
		<circle class="st1" cx="937.8" cy="249.5" r="11.3"/>
		<path class="st1" d="M937.8,265.8c-9,0-16.3-7.3-16.3-16.3s7.3-16.3,16.3-16.3s16.3,7.3,16.3,16.3
			C954.1,258.5,946.8,265.8,937.8,265.8z M937.8,243.2c-3.5,0-6.3,2.8-6.3,6.3s2.8,6.3,6.3,6.3s6.3-2.8,6.3-6.3
			S941.3,243.2,937.8,243.2z"/>
	</g>
	<g>
		<circle class="st1" cx="1054.2" cy="132.9" r="11.3"/>
		<path class="st1" d="M1054.2,149.2c-9,0-16.3-7.3-16.3-16.3s7.3-16.3,16.3-16.3s16.3,7.3,16.3,16.3S1063.2,149.2,1054.2,149.2z
			 M1054.2,126.6c-3.5,0-6.3,2.8-6.3,6.3s2.8,6.3,6.3,6.3s6.3-2.8,6.3-6.3S1057.7,126.6,1054.2,126.6z"/>
	</g>
	<g>
		<circle class="st1" cx="1054.2" cy="16.3" r="11.3"/>
		<path class="st1" d="M1054.2,32.6c-9,0-16.3-7.3-16.3-16.3S1045.2,0,1054.2,0s16.3,7.3,16.3,16.3S1063.2,32.6,1054.2,32.6z
			 M1054.2,10.1c-3.5,0-6.3,2.8-6.3,6.3s2.8,6.3,6.3,6.3s6.3-2.8,6.3-6.3S1057.7,10.1,1054.2,10.1z"/>
	</g>
	<g>
		<circle class="st0" cx="937.8" cy="132.9" r="11.3"/>
		<path class="st0" d="M937.8,149.2c-9,0-16.3-7.3-16.3-16.3s7.3-16.3,16.3-16.3s16.3,7.3,16.3,16.3S946.8,149.2,937.8,149.2z
			 M937.8,126.6c-3.5,0-6.3,2.8-6.3,6.3s2.8,6.3,6.3,6.3s6.3-2.8,6.3-6.3S941.3,126.6,937.8,126.6z"/>
	</g>
	<g>
		<circle class="st0" cx="704.6" cy="482.4" r="11.3"/>
		<path class="st0" d="M704.6,498.7c-9,0-16.3-7.3-16.3-16.3s7.3-16.3,16.3-16.3s16.3,7.3,16.3,16.3S713.5,498.7,704.6,498.7z
			 M704.6,476.1c-3.5,0-6.3,2.8-6.3,6.3s2.8,6.3,6.3,6.3s6.3-2.8,6.3-6.3S708,476.1,704.6,476.1z"/>
	</g>
	<g>
		<circle class="st0" cx="821.1" cy="249.5" r="11.3"/>
		<path class="st0" d="M821.1,265.8c-9,0-16.3-7.3-16.3-16.3s7.3-16.3,16.3-16.3s16.3,7.3,16.3,16.3
			C837.4,258.5,830.1,265.8,821.1,265.8z M821.1,243.2c-3.5,0-6.3,2.8-6.3,6.3s2.8,6.3,6.3,6.3s6.3-2.8,6.3-6.3
			S824.5,243.2,821.1,243.2z"/>
	</g>
	<g>
		<circle class="st0" cx="537.9" cy="365.9" r="11.3"/>
		<path class="st0" d="M537.9,382.2c-9,0-16.3-7.3-16.3-16.3s7.3-16.3,16.3-16.3s16.3,7.3,16.3,16.3S546.9,382.2,537.9,382.2z
			 M537.9,359.6c-3.5,0-6.3,2.8-6.3,6.3s2.8,6.3,6.3,6.3s6.3-2.8,6.3-6.3S541.4,359.6,537.9,359.6z"/>
	</g>
	<g>
		<g>
			<rect x="916.5" y="482.2" class="st4" width="10" height="33"/>
		</g>
		<g>
			<rect x="905" y="493.7" class="st4" width="33" height="10"/>
		</g>
	</g>
	<g>
		<g>
			<rect x="108.1" y="579.8" class="st4" width="10" height="33"/>
		</g>
		<g>
			<rect x="96.6" y="591.2" class="st4" width="33" height="10"/>
		</g>
	</g>
	<g>
		<g>
			<rect x="636.2" y="92.6" class="st4" width="10" height="33"/>
		</g>
		<g>
			<rect x="624.7" y="104.1" class="st4" width="33" height="10"/>
		</g>
	</g>
</g>
</svg>
