<?xml version="1.0" encoding="utf-8"?>
<!-- Generator: Adobe Illustrator 25.0.1, SVG Export Plug-In . SVG Version: 6.00 Build 0)  -->
<svg version="1.1" id="Layer_1" xmlns="http://www.w3.org/2000/svg" xmlns:xlink="http://www.w3.org/1999/xlink" x="0px" y="0px"
	 viewBox="0 0 1064.3 760.8" style="enable-background:new 0 0 1064.3 760.8;" xml:space="preserve">
<style type="text/css">
	.st0{fill:#FFFFFF;}
	.st1{fill:#00484A;}
	.st2{fill:#407677;}
	.st3{fill:#FAFBFB;}
	.st4{fill:#6E9798;}
	.st5{fill:#ADC4C5;}
	.st6{fill:#638F91;}
	.st7{fill:none;}
</style>
<g>
	<g>
		<g>
			<rect x="319.7" y="222.8" class="st0" width="415.5" height="311.8"/>
			<path class="st1" d="M735.2,537.4H319.7c-1.5,0-2.7-1.2-2.7-2.7V222.9c0-1.5,1.2-2.7,2.7-2.7h415.5c1.5,0,2.7,1.2,2.7,2.7v311.8
				C737.9,536.2,736.7,537.4,735.2,537.4z M322.4,532h410.1V225.6H322.4V532z"/>
		</g>
		<g>
			<rect x="319.7" y="222.8" class="st2" width="415.5" height="97.4"/>
			<path class="st1" d="M735.2,323H319.7c-1.5,0-2.7-1.2-2.7-2.7v-97.4c0-1.5,1.2-2.7,2.7-2.7h415.5c1.5,0,2.7,1.2,2.7,2.7v97.4
				C737.9,321.7,736.7,323,735.2,323z M322.4,317.5h410.1v-91.9H322.4V317.5z"/>
		</g>
	</g>
	<g>
		<g>
			<rect x="353.2" y="252.8" class="st3" width="415.5" height="311.8"/>
			<path class="st1" d="M768.6,567.3H353.2c-1.5,0-2.7-1.2-2.7-2.7V252.8c0-1.5,1.2-2.7,2.7-2.7h415.5c1.5,0,2.7,1.2,2.7,2.7v311.8
				C771.4,566.1,770.2,567.3,768.6,567.3z M355.9,561.9H766V255.5H355.9V561.9z"/>
		</g>
		<g>
			<rect x="353.2" y="252.8" class="st4" width="415.5" height="97.4"/>
			<path class="st1" d="M768.6,352.9H353.2c-1.5,0-2.7-1.2-2.7-2.7v-97.4c0-1.5,1.2-2.7,2.7-2.7h415.5c1.5,0,2.7,1.2,2.7,2.7v97.4
				C771.4,351.7,770.2,352.9,768.6,352.9z M355.9,347.5H766v-91.9H355.9V347.5z"/>
		</g>
	</g>
	<g>
		<g>
			<rect x="381.6" y="281.4" class="st3" width="415.5" height="311.8"/>
			<path class="st1" d="M797,595.9H381.6c-1.5,0-2.7-1.2-2.7-2.7V281.4c0-1.5,1.2-2.7,2.7-2.7H797c1.5,0,2.7,1.2,2.7,2.7v311.8
				C799.7,594.7,798.5,595.9,797,595.9z M384.3,590.4h410.1V284.1H384.3V590.4z"/>
		</g>
		<g>
			<path class="st5" d="M797,378.7H381.6v-97.4h318.1C699.6,335.1,743.2,378.7,797,378.7z"/>
			<path class="st1" d="M797,381.4H378.8V278.6h323.5v2.7c0,52.2,42.5,94.7,94.7,94.7V381.4L797,381.4z M384.3,376h380.1
				c-38.4-13.3-66.3-49.3-67.4-91.9H384.3V376z"/>
		</g>
		<g>
			<g>
				<path class="st1" d="M423.7,341c-6.1,0-11-4.9-11-11c0-6.1,4.9-11,11-11c6.1,0,11,4.9,11,11C434.7,336.1,429.7,341,423.7,341z
					 M423.7,324.5c-3.1,0-5.6,2.5-5.6,5.6c0,3.1,2.5,5.6,5.6,5.6c3.1,0,5.6-2.5,5.6-5.6C429.2,327,426.7,324.5,423.7,324.5z"/>
			</g>
			<g>
				<path class="st1" d="M451.1,341c-6.1,0-11-4.9-11-11c0-6.1,4.9-11,11-11c6.1,0,11,4.9,11,11C462.2,336.1,457.2,341,451.1,341z
					 M451.1,324.5c-3.1,0-5.6,2.5-5.6,5.6c0,3.1,2.5,5.6,5.6,5.6s5.6-2.5,5.6-5.6C456.7,327,454.2,324.5,451.1,324.5z"/>
			</g>
			<g>
				<path class="st1" d="M478.6,341c-6.1,0-11-4.9-11-11c0-6.1,4.9-11,11-11c6.1,0,11,4.9,11,11C489.6,336.1,484.7,341,478.6,341z
					 M478.6,324.5c-3.1,0-5.6,2.5-5.6,5.6c0,3.1,2.5,5.6,5.6,5.6c3.1,0,5.6-2.5,5.6-5.6C484.2,327,481.7,324.5,478.6,324.5z"/>
			</g>
		</g>
		<g>
			<g>
				<rect x="615.3" y="427.7" class="st4" width="55" height="117.6"/>
				<path class="st1" d="M670.3,547.9h-55c-1.5,0-2.7-1.2-2.7-2.7V427.7c0-1.5,1.2-2.7,2.7-2.7h55c1.5,0,2.7,1.2,2.7,2.7v117.6
					C673,546.7,671.8,547.9,670.3,547.9z M618,542.5h49.5V430.4H618V542.5z"/>
			</g>
			<g>
				<g>
					<rect x="547.9" y="467.6" class="st6" width="47.9" height="77.6"/>
				</g>
				<g>
					<path class="st1" d="M595.9,547.9h-47.9c-1.5,0-2.7-1.2-2.7-2.7v-77.6c0-1.5,1.2-2.7,2.7-2.7h47.9c1.5,0,2.7,1.2,2.7,2.7v77.6
						C598.6,546.7,597.4,547.9,595.9,547.9z M550.7,542.5h42.5v-72.1h-42.5V542.5L550.7,542.5z"/>
				</g>
			</g>
			<g>
				<rect x="493.5" y="451.3" class="st0" width="33.9" height="93.9"/>
				<path class="st1" d="M527.4,547.9h-33.9c-1.5,0-2.7-1.2-2.7-2.7v-93.9c0-1.5,1.2-2.7,2.7-2.7h33.9c1.5,0,2.7,1.2,2.7,2.7v93.9
					C530.2,546.7,529,547.9,527.4,547.9z M496.3,542.5h28.5v-88.4h-28.5V542.5z"/>
			</g>
			<g>
				<rect x="471.6" y="542.5" class="st1" width="230.7" height="5.4"/>
			</g>
		</g>
	</g>
	<g>
		<path class="st0" d="M797,281.4v97.4c-53.8,0-97.4-43.6-97.4-97.4H797L797,281.4z"/>
		<path class="st1" d="M797,381.4c-55.2,0-100.1-44.9-100.1-100.1c0-1.5,1.2-2.7,2.7-2.7H797c1.5,0,2.7,1.2,2.7,2.7v97.4
			C799.7,380.3,798.5,381.4,797,381.4z M702.4,284.1c1.4,50,41.9,90.5,91.9,91.9v-91.9H702.4z"/>
	</g>
	<path class="st1" d="M735.2,220.1h-44.4c-0.9,0-1.7,0.3-2.2,1.1c-13.1,17.4-20.1,38.3-20.1,60.1c0,1.5,1.2,2.7,2.7,2.7h64
		c1.5,0,2.7-1.2,2.7-2.7v-58.5C737.9,221.3,736.7,220.1,735.2,220.1z"/>
	<g>
		<path class="st4" d="M894.4,281.4c0,53.8-43.6,97.4-97.4,97.4v-97.4h-97.4c0-53.8,43.6-97.4,97.4-97.4
			C850.8,183.9,894.4,227.5,894.4,281.4z"/>
		<path class="st1" d="M797,381.4c-1.5,0-2.7-1.2-2.7-2.7v-94.7h-94.7c-1.5,0-2.7-1.2-2.7-2.7c0-55.2,44.9-100.1,100.1-100.1
			c55.2,0,100.1,44.9,100.1,100.1S852.2,381.4,797,381.4z M702.4,278.6H797c1.5,0,2.7,1.2,2.7,2.7V376c51-1.5,91.9-43.3,91.9-94.7
			c0-52.2-42.5-94.7-94.7-94.7C745.7,186.6,703.8,227.6,702.4,278.6z"/>
	</g>
	<path class="st1" d="M463.8,511.7c-0.2-0.3-0.6-0.3-0.9-0.3l-53,17.7c-0.3,0.1-0.5,0.3-0.6,0.7c-0.1,0.3,0.1,0.6,0.3,0.8l12.6,8.4
		l-16.8,14.4c-0.3,0.3-0.3,0.8-0.1,1.2l7.2,8.4c0.1,0.1,0.3,0.3,0.6,0.3h0.1c0.2,0,0.4-0.1,0.6-0.2l16.8-14.5l5.6,13.1
		c0.1,0.3,0.4,0.5,0.7,0.5c0.3,0,0.6-0.1,0.8-0.4l26.2-49.4C464.1,512.3,464,511.9,463.8,511.7z"/>
	<g>
		<path class="st6" d="M812.4,481.7c-14.1,0-22.3-15.1-31.1-31.2c-10.5-19.3-21.3-39.1-42.8-39.1c-1.5,0-2.7-1.2-2.7-2.7
			s1.2-2.7,2.7-2.7c24.8,0,36.9,22.3,47.6,42c8.3,15.2,15.5,28.3,26.3,28.3c12.3,0,19.6-9.3,27.3-19.3c8.6-11.1,17.4-22.5,33.8-22.5
			c1.5,0,2.7,1.2,2.7,2.7s-1.2,2.7-2.7,2.7c-13.8,0-21.4,9.8-29.6,20.4C835.9,470.9,827.4,481.7,812.4,481.7z"/>
	</g>
	<g>
		<polygon class="st5" points="797,593.1 894.4,593.1 894.4,534.8 		"/>
		<path class="st1" d="M894.4,595.9H797c-1.2,0-2.3-0.8-2.7-2c-0.3-1.2,0.1-2.4,1.2-3.1l97.4-58.4c0.8-0.5,1.9-0.5,2.7-0.1
			c0.9,0.5,1.4,1.4,1.4,2.4v58.4C897.1,594.7,895.9,595.9,894.4,595.9z M806.9,590.4h84.8v-50.8L806.9,590.4z"/>
	</g>
	<g>
		<g>
			<line class="st7" x1="834.6" y1="514.5" x2="852.5" y2="514.5"/>
			<rect x="834.6" y="511.8" class="st1" width="18" height="5.4"/>
		</g>
		<g>
			<line class="st7" x1="843.5" y1="523.5" x2="843.5" y2="505.5"/>
			<rect x="840.8" y="505.5" class="st1" width="5.4" height="18"/>
		</g>
	</g>
</g>
</svg>
