<svg xmlns="http://www.w3.org/2000/svg" viewBox="0 0 1476 720.9"><defs><style>.cls-1{fill:#009092;}.cls-2{fill:#e86166;}.cls-3{fill:#a7e6e7;}.cls-4{fill:#00484a;}.cls-5{fill:#00b9bc;}.cls-6{fill:#faffff;}.cls-7{fill:#fff;}</style></defs><g id="Layer_2" data-name="Layer 2"><g id="Layer_1-2" data-name="Layer 1"><path class="cls-1" d="M1471,11.3h-97.9a5.05,5.05,0,0,0-4.6,3,4.92,4.92,0,0,0,.9,5.4L1467.3,128a4.85,4.85,0,0,0,3.7,1.6,5.66,5.66,0,0,0,1.8-.3,5,5,0,0,0,3.2-4.7V16.3A5.08,5.08,0,0,0,1471,11.3Z"/><path class="cls-2" d="M1170.8,11.3H238.2a5,5,0,0,0-5,5V715.9a5,5,0,0,0,5,5H1171a5,5,0,0,0,5-5V16.3A5.33,5.33,0,0,0,1170.8,11.3Zm-5,233.2H1059.2V137.9h106.6Zm0,116.6H1059.2V254.5h106.6Zm0,116.6H1059.2V371.1h106.6ZM243.2,371.1H349.8V477.7H243.2Zm0-116.6H349.8V361.1H243.2Zm806,106.6H942.6V254.5h106.6Zm-116.5,0H826.1V254.5H932.7Zm-116.6,0H709.5V254.5H816.1Zm-116.6,0H592.9V254.5H699.5Zm-116.6,0H476.3V254.5H582.9V361.1Zm-116.6,0H359.8V254.5H466.4l-.1,106.6Zm-106.5,10H466.4V477.7H359.8Zm116.5,0H582.9V477.7H476.3Zm116.6,0H699.5V477.7H592.9Zm116.6,0H816.1V477.7H709.5Zm116.6,0H932.7V477.7H826.1Zm116.6,0h106.6V477.7H942.7Zm106.5-126.6H942.6V137.9h106.6Zm-116.5,0H826.1V137.9H932.7Zm-116.6,0H709.5V137.9H816.1Zm-116.6,0H592.9V137.9H699.5Zm-116.6,0H476.3V137.9H582.9V244.5Zm-116.6,0H359.8V137.9H466.4l-.1,106.6Zm-116.5,0H243.2V137.9H349.8ZM243.2,487.7H349.8V594.3H243.2Zm116.6,0H466.4V594.3H359.8Zm116.5,0H582.9V594.3H476.3Zm116.6,0H699.5V594.3H592.9Zm116.6,0H816.1V594.3H709.5Zm116.6,0H932.7V594.3H826.1Zm116.6,0h106.6V594.3H942.7Zm116.5,0h106.6V594.3H1059.2Zm106.6-359.8H1059.2V21.3h106.6Zm-116.6,0H942.6V21.3h106.6Zm-116.5,0H826.1V21.3H932.7Zm-116.6,0H709.5V21.3H816.1Zm-116.6,0H592.9V21.3H699.5Zm-116.6,0H476.3V21.3H582.9V127.9Zm-116.6,0H359.8V21.3H466.4l-.1,106.6ZM243.2,21.3H349.8V127.9H243.2Zm0,582.9H349.8V710.8H243.2Zm116.6,0H466.4V710.8H359.8Zm116.5,0H582.9V710.8H476.3Zm116.6,0H699.5V710.8H592.9Zm116.6,0H816.1V710.8H709.5Zm116.6,0H932.7V710.8H826.1Zm116.6,0h106.6V710.8H942.7Zm223.1,106.6H1059.2V604.2h106.6Z"/><path class="cls-3" d="M587.9,710.8c-59.3,0-108.3-23.1-149.9-70.7-36.6-41.9-62.6-97.1-85.6-145.8-33.7-71.5-62.8-133.2-114.2-133.2a5,5,0,0,0-5,5V715.8a5,5,0,0,0,5,5H587.9a5,5,0,0,0,0-10Z"/><path class="cls-3" d="M704.1,487.7a5.21,5.21,0,0,1-2.9-.9L536.3,371.1,413,370.9v-10l124.9.1a5.21,5.21,0,0,1,2.9.9L702.2,475.2l114.4-228a6,6,0,0,1,.9-1.3l115.1-115-1-114.6,10-.1,1,116.7a5.08,5.08,0,0,1-1.5,3.6l-116,115.9L708.6,484.9a5.18,5.18,0,0,1-3.2,2.6A6.88,6.88,0,0,1,704.1,487.7Z"/><path class="cls-4" d="M471.3,553.3a4.72,4.72,0,0,1-3.2-1.2l-135.6-116a5,5,0,0,1,6.5-7.5L470.6,541.1,700.5,246.4a5.15,5.15,0,0,1,3.6-1.9,4.64,4.64,0,0,1,3.8,1.5l113,113,113-113L1049,131V16.3a5,5,0,0,1,5-5h116.6a5,5,0,0,1,0,10H1059V133.1a4.69,4.69,0,0,1-1.5,3.5L940.9,253,824.3,369.6a5,5,0,0,1-7.1,0L705,257,475.3,551.4a4.74,4.74,0,0,1-3.4,1.9Z"/><circle class="cls-4" cx="467.1" cy="268.7" r="5"/><circle class="cls-4" cx="467.1" cy="293.3" r="5"/><circle class="cls-4" cx="467.1" cy="318" r="5"/><circle class="cls-4" cx="467.1" cy="342.7" r="5"/><circle class="cls-4" cx="467.1" cy="367.3" r="5"/><circle class="cls-4" cx="442.5" cy="219.3" r="5"/><circle class="cls-4" cx="442.5" cy="244" r="5"/><circle class="cls-4" cx="442.5" cy="268.7" r="5"/><circle class="cls-4" cx="442.5" cy="293.3" r="5"/><circle class="cls-4" cx="442.5" cy="318" r="5"/><circle class="cls-4" cx="442.5" cy="342.7" r="5"/><circle class="cls-4" cx="442.5" cy="367.3" r="5"/><circle class="cls-4" cx="442.5" cy="392" r="5"/><circle class="cls-4" cx="442.5" cy="416.7" r="5"/><circle class="cls-4" cx="417.8" cy="194.7" r="5"/><circle class="cls-4" cx="417.8" cy="219.3" r="5"/><circle class="cls-4" cx="417.8" cy="244" r="5"/><circle class="cls-4" cx="417.8" cy="268.7" r="5"/><circle class="cls-4" cx="417.8" cy="293.3" r="5"/><circle class="cls-4" cx="417.8" cy="318" r="5"/><circle class="cls-4" cx="417.8" cy="342.7" r="5"/><circle class="cls-4" cx="417.8" cy="367.3" r="5"/><circle class="cls-4" cx="417.8" cy="392" r="5"/><circle class="cls-4" cx="417.8" cy="416.7" r="5"/><circle class="cls-4" cx="417.8" cy="441.3" r="5"/><circle class="cls-4" cx="393.1" cy="170" r="5"/><circle class="cls-4" cx="393.1" cy="194.7" r="5"/><circle class="cls-4" cx="393.1" cy="219.3" r="5"/><circle class="cls-4" cx="393.1" cy="244" r="5"/><circle class="cls-4" cx="393.1" cy="268.7" r="5"/><circle class="cls-4" cx="393.1" cy="293.3" r="5"/><circle class="cls-4" cx="393.1" cy="318" r="5"/><circle class="cls-4" cx="393.1" cy="342.7" r="5"/><circle class="cls-4" cx="393.1" cy="367.3" r="5"/><circle class="cls-4" cx="393.1" cy="392" r="5"/><circle class="cls-4" cx="393.1" cy="416.7" r="5"/><circle class="cls-4" cx="393.1" cy="441.3" r="5"/><circle class="cls-4" cx="393.1" cy="466" r="5"/><circle class="cls-4" cx="393.1" cy="490.7" r="5"/><circle class="cls-4" cx="368.5" cy="145.3" r="5"/><circle class="cls-4" cx="368.5" cy="170" r="5"/><circle class="cls-4" cx="368.5" cy="194.7" r="5"/><circle class="cls-4" cx="368.5" cy="219.3" r="5"/><circle class="cls-4" cx="368.5" cy="244" r="5"/><circle class="cls-4" cx="368.5" cy="268.7" r="5"/><circle class="cls-4" cx="368.5" cy="293.3" r="5"/><circle class="cls-4" cx="368.5" cy="318" r="5"/><circle class="cls-4" cx="368.5" cy="342.7" r="5"/><circle class="cls-4" cx="368.5" cy="367.3" r="5"/><circle class="cls-4" cx="368.5" cy="392" r="5"/><circle class="cls-4" cx="368.5" cy="416.7" r="5"/><circle class="cls-4" cx="368.5" cy="441.3" r="5"/><circle class="cls-4" cx="368.5" cy="466" r="5"/><circle class="cls-4" cx="368.5" cy="490.7" r="5"/><circle class="cls-4" cx="343.8" cy="120.7" r="5"/><circle class="cls-4" cx="343.8" cy="145.3" r="5"/><circle class="cls-4" cx="343.8" cy="170" r="5"/><circle class="cls-4" cx="343.8" cy="194.7" r="5"/><circle class="cls-4" cx="343.8" cy="219.3" r="5"/><circle class="cls-4" cx="343.8" cy="244" r="5"/><circle class="cls-4" cx="343.8" cy="268.7" r="5"/><circle class="cls-4" cx="343.8" cy="293.3" r="5"/><circle class="cls-4" cx="343.8" cy="318" r="5"/><circle class="cls-4" cx="343.8" cy="342.7" r="5"/><circle class="cls-4" cx="343.8" cy="367.3" r="5"/><circle class="cls-4" cx="343.8" cy="392" r="5"/><circle class="cls-4" cx="343.8" cy="416.7" r="5"/><circle class="cls-4" cx="343.8" cy="441.3" r="5"/><circle class="cls-4" cx="343.8" cy="466" r="5"/><circle class="cls-4" cx="343.8" cy="490.7" r="5"/><circle class="cls-4" cx="343.8" cy="515.3" r="5"/><circle class="cls-4" cx="319.1" cy="120.7" r="5"/><circle class="cls-4" cx="319.1" cy="145.3" r="5"/><circle class="cls-4" cx="319.1" cy="170" r="5"/><circle class="cls-4" cx="319.1" cy="194.7" r="5"/><circle class="cls-4" cx="319.1" cy="219.3" r="5"/><circle class="cls-4" cx="319.1" cy="244" r="5"/><circle class="cls-4" cx="319.1" cy="268.7" r="5"/><circle class="cls-4" cx="319.1" cy="293.3" r="5"/><circle class="cls-4" cx="319.1" cy="318" r="5"/><circle class="cls-4" cx="319.1" cy="342.7" r="5"/><circle class="cls-4" cx="319.1" cy="367.3" r="5"/><circle class="cls-4" cx="319.1" cy="392" r="5"/><circle class="cls-4" cx="319.1" cy="416.7" r="5"/><circle class="cls-4" cx="319.1" cy="441.3" r="5"/><circle class="cls-4" cx="319.1" cy="466" r="5"/><circle class="cls-4" cx="319.1" cy="490.7" r="5"/><circle class="cls-4" cx="319.1" cy="515.3" r="5"/><circle class="cls-4" cx="294.5" cy="96" r="5"/><circle class="cls-4" cx="294.5" cy="120.7" r="5"/><circle class="cls-4" cx="294.5" cy="145.3" r="5"/><circle class="cls-4" cx="294.5" cy="170" r="5"/><circle class="cls-4" cx="294.5" cy="194.7" r="5"/><circle class="cls-4" cx="294.5" cy="219.3" r="5"/><circle class="cls-4" cx="294.5" cy="244" r="5"/><circle class="cls-4" cx="294.5" cy="268.7" r="5"/><circle class="cls-4" cx="294.5" cy="293.3" r="5"/><circle class="cls-4" cx="294.5" cy="318" r="5"/><circle class="cls-4" cx="294.5" cy="342.7" r="5"/><circle class="cls-4" cx="294.5" cy="367.3" r="5"/><circle class="cls-4" cx="294.5" cy="392" r="5"/><circle class="cls-4" cx="294.5" cy="416.7" r="5"/><circle class="cls-4" cx="294.5" cy="441.3" r="5"/><circle class="cls-4" cx="294.5" cy="466" r="5"/><circle class="cls-4" cx="294.5" cy="490.7" r="5"/><circle class="cls-4" cx="294.5" cy="515.3" r="5"/><circle class="cls-4" cx="294.5" cy="540" r="5"/><circle class="cls-4" cx="269.8" cy="96" r="5"/><circle class="cls-4" cx="269.8" cy="120.7" r="5"/><circle class="cls-4" cx="269.8" cy="145.3" r="5"/><circle class="cls-4" cx="269.8" cy="170" r="5"/><circle class="cls-4" cx="269.8" cy="194.7" r="5"/><circle class="cls-4" cx="269.8" cy="219.3" r="5"/><circle class="cls-4" cx="269.8" cy="244" r="5"/><circle class="cls-4" cx="269.8" cy="268.7" r="5"/><circle class="cls-4" cx="269.8" cy="293.3" r="5"/><circle class="cls-4" cx="269.8" cy="318" r="5"/><circle class="cls-4" cx="269.8" cy="342.7" r="5"/><circle class="cls-4" cx="269.8" cy="367.3" r="5"/><circle class="cls-4" cx="269.8" cy="392" r="5"/><circle class="cls-4" cx="269.8" cy="416.7" r="5"/><circle class="cls-4" cx="269.8" cy="441.3" r="5"/><circle class="cls-4" cx="269.8" cy="466" r="5"/><circle class="cls-4" cx="269.8" cy="490.7" r="5"/><circle class="cls-4" cx="269.8" cy="515.3" r="5"/><circle class="cls-4" cx="269.8" cy="540" r="5"/><circle class="cls-4" cx="245.1" cy="96" r="5"/><circle class="cls-4" cx="245.1" cy="120.7" r="5"/><circle class="cls-4" cx="245.1" cy="145.3" r="5"/><circle class="cls-4" cx="245.1" cy="170" r="5"/><circle class="cls-4" cx="245.1" cy="194.7" r="5"/><circle class="cls-4" cx="245.1" cy="219.3" r="5"/><circle class="cls-4" cx="245.1" cy="244" r="5"/><circle class="cls-4" cx="245.1" cy="268.7" r="5"/><circle class="cls-4" cx="245.1" cy="293.3" r="5"/><circle class="cls-4" cx="245.1" cy="318" r="5"/><circle class="cls-4" cx="245.1" cy="342.7" r="5"/><circle class="cls-4" cx="245.1" cy="367.3" r="5"/><circle class="cls-4" cx="245.1" cy="392" r="5"/><circle class="cls-4" cx="245.1" cy="416.7" r="5"/><circle class="cls-4" cx="245.1" cy="441.3" r="5"/><circle class="cls-4" cx="245.1" cy="466" r="5"/><circle class="cls-4" cx="245.1" cy="490.7" r="5"/><circle class="cls-4" cx="245.1" cy="515.3" r="5"/><circle class="cls-4" cx="245.1" cy="540" r="5"/><circle class="cls-4" cx="220.5" cy="96" r="5"/><circle class="cls-4" cx="220.5" cy="120.7" r="5"/><circle class="cls-4" cx="220.5" cy="145.3" r="5"/><circle class="cls-4" cx="220.5" cy="170" r="5"/><circle class="cls-4" cx="220.5" cy="194.7" r="5"/><circle class="cls-4" cx="220.5" cy="219.3" r="5"/><circle class="cls-4" cx="220.5" cy="244" r="5"/><circle class="cls-4" cx="220.5" cy="268.7" r="5"/><circle class="cls-4" cx="220.5" cy="293.3" r="5"/><circle class="cls-4" cx="220.5" cy="318" r="5"/><circle class="cls-4" cx="220.5" cy="342.7" r="5"/><circle class="cls-4" cx="220.5" cy="367.3" r="5"/><circle class="cls-4" cx="220.5" cy="392" r="5"/><circle class="cls-4" cx="220.5" cy="416.7" r="5"/><circle class="cls-4" cx="220.5" cy="441.3" r="5"/><circle class="cls-4" cx="220.5" cy="466" r="5"/><circle class="cls-4" cx="220.5" cy="490.7" r="5"/><circle class="cls-4" cx="220.5" cy="515.3" r="5"/><circle class="cls-4" cx="220.5" cy="540" r="5"/><circle class="cls-4" cx="195.8" cy="96" r="5"/><circle class="cls-4" cx="195.8" cy="120.7" r="5"/><circle class="cls-4" cx="195.8" cy="145.3" r="5"/><circle class="cls-4" cx="195.8" cy="170" r="5"/><circle class="cls-4" cx="195.8" cy="194.7" r="5"/><circle class="cls-4" cx="195.8" cy="219.3" r="5"/><circle class="cls-4" cx="195.8" cy="244" r="5"/><circle class="cls-4" cx="195.8" cy="268.7" r="5"/><circle class="cls-4" cx="195.8" cy="293.3" r="5"/><circle class="cls-4" cx="195.8" cy="318" r="5"/><circle class="cls-4" cx="195.8" cy="342.7" r="5"/><circle class="cls-4" cx="195.8" cy="367.3" r="5"/><circle class="cls-4" cx="195.8" cy="392" r="5"/><circle class="cls-4" cx="195.8" cy="416.7" r="5"/><circle class="cls-4" cx="195.8" cy="441.3" r="5"/><circle class="cls-4" cx="195.8" cy="466" r="5"/><circle class="cls-4" cx="195.8" cy="490.7" r="5"/><circle class="cls-4" cx="195.8" cy="515.3" r="5"/><circle class="cls-4" cx="195.8" cy="540" r="5"/><circle class="cls-4" cx="171.1" cy="120.7" r="5"/><circle class="cls-4" cx="171.1" cy="145.3" r="5"/><circle class="cls-4" cx="171.1" cy="170" r="5"/><circle class="cls-4" cx="171.1" cy="194.7" r="5"/><circle class="cls-4" cx="171.1" cy="219.3" r="5"/><circle class="cls-4" cx="171.1" cy="244" r="5"/><circle class="cls-4" cx="171.1" cy="268.7" r="5"/><circle class="cls-4" cx="171.1" cy="293.3" r="5"/><circle class="cls-4" cx="171.1" cy="318" r="5"/><circle class="cls-4" cx="171.1" cy="342.7" r="5"/><circle class="cls-4" cx="171.1" cy="367.3" r="5"/><circle class="cls-4" cx="171.1" cy="392" r="5"/><circle class="cls-4" cx="171.1" cy="416.7" r="5"/><circle class="cls-4" cx="171.1" cy="441.3" r="5"/><circle class="cls-4" cx="171.1" cy="466" r="5"/><circle class="cls-4" cx="171.1" cy="490.7" r="5"/><circle class="cls-4" cx="171.1" cy="515.3" r="5"/><circle class="cls-4" cx="171.1" cy="540" r="5"/><circle class="cls-4" cx="146.5" cy="120.7" r="5"/><circle class="cls-4" cx="146.5" cy="145.3" r="5"/><circle class="cls-4" cx="146.5" cy="170" r="5"/><circle class="cls-4" cx="146.5" cy="194.7" r="5"/><circle class="cls-4" cx="146.5" cy="219.3" r="5"/><circle class="cls-4" cx="146.5" cy="244" r="5"/><circle class="cls-4" cx="146.5" cy="268.7" r="5"/><circle class="cls-4" cx="146.5" cy="293.3" r="5"/><circle class="cls-4" cx="146.5" cy="318" r="5"/><circle class="cls-4" cx="146.5" cy="342.7" r="5"/><circle class="cls-4" cx="146.5" cy="367.3" r="5"/><circle class="cls-4" cx="146.5" cy="392" r="5"/><circle class="cls-4" cx="146.5" cy="416.7" r="5"/><circle class="cls-4" cx="146.5" cy="441.3" r="5"/><circle class="cls-4" cx="146.5" cy="466" r="5"/><circle class="cls-4" cx="146.5" cy="490.7" r="5"/><circle class="cls-4" cx="146.5" cy="515.3" r="5"/><circle class="cls-4" cx="121.8" cy="120.7" r="5"/><circle class="cls-4" cx="121.8" cy="145.3" r="5"/><circle class="cls-4" cx="121.8" cy="170" r="5"/><circle class="cls-4" cx="121.8" cy="194.7" r="5"/><circle class="cls-4" cx="121.8" cy="219.3" r="5"/><circle class="cls-4" cx="121.8" cy="244" r="5"/><circle class="cls-4" cx="121.8" cy="268.7" r="5"/><circle class="cls-4" cx="121.8" cy="293.3" r="5"/><circle class="cls-4" cx="121.8" cy="318" r="5"/><circle class="cls-4" cx="121.8" cy="342.7" r="5"/><circle class="cls-4" cx="121.8" cy="367.3" r="5"/><circle class="cls-4" cx="121.8" cy="392" r="5"/><circle class="cls-4" cx="121.8" cy="416.7" r="5"/><circle class="cls-4" cx="121.8" cy="441.3" r="5"/><circle class="cls-4" cx="121.8" cy="466" r="5"/><circle class="cls-4" cx="121.8" cy="490.7" r="5"/><circle class="cls-4" cx="121.8" cy="515.3" r="5"/><circle class="cls-4" cx="97.1" cy="145.3" r="5"/><circle class="cls-4" cx="97.1" cy="170" r="5"/><circle class="cls-4" cx="97.1" cy="194.7" r="5"/><circle class="cls-4" cx="97.1" cy="219.3" r="5"/><circle class="cls-4" cx="97.1" cy="244" r="5"/><circle class="cls-4" cx="97.1" cy="268.7" r="5"/><circle class="cls-4" cx="97.1" cy="293.3" r="5"/><circle class="cls-4" cx="97.1" cy="318" r="5"/><circle class="cls-4" cx="97.1" cy="342.7" r="5"/><circle class="cls-4" cx="97.1" cy="367.3" r="5"/><circle class="cls-4" cx="97.1" cy="392" r="5"/><circle class="cls-4" cx="97.1" cy="416.7" r="5"/><circle class="cls-4" cx="97.1" cy="441.3" r="5"/><circle class="cls-4" cx="97.1" cy="466" r="5"/><circle class="cls-4" cx="97.1" cy="490.7" r="5"/><circle class="cls-4" cx="72.5" cy="170" r="5"/><circle class="cls-4" cx="72.5" cy="194.7" r="5"/><circle class="cls-4" cx="72.5" cy="219.3" r="5"/><circle class="cls-4" cx="72.5" cy="244" r="5"/><circle class="cls-4" cx="72.5" cy="268.7" r="5"/><circle class="cls-4" cx="72.5" cy="293.3" r="5"/><circle class="cls-4" cx="72.5" cy="318" r="5"/><circle class="cls-4" cx="72.5" cy="342.7" r="5"/><circle class="cls-4" cx="72.5" cy="367.3" r="5"/><circle class="cls-4" cx="72.5" cy="392" r="5"/><circle class="cls-4" cx="72.5" cy="416.7" r="5"/><circle class="cls-4" cx="72.5" cy="441.3" r="5"/><circle class="cls-4" cx="72.5" cy="466" r="5"/><circle class="cls-4" cx="47.8" cy="194.7" r="5"/><circle class="cls-4" cx="47.8" cy="219.3" r="5"/><circle class="cls-4" cx="47.8" cy="244" r="5"/><circle class="cls-4" cx="47.8" cy="268.7" r="5"/><circle class="cls-4" cx="47.8" cy="293.3" r="5"/><circle class="cls-4" cx="47.8" cy="318" r="5"/><circle class="cls-4" cx="47.8" cy="342.7" r="5"/><circle class="cls-4" cx="47.8" cy="367.3" r="5"/><circle class="cls-4" cx="47.8" cy="392" r="5"/><circle class="cls-4" cx="47.8" cy="416.7" r="5"/><circle class="cls-4" cx="47.8" cy="441.3" r="5"/><circle class="cls-4" cx="23.1" cy="244" r="5"/><circle class="cls-4" cx="23.1" cy="268.7" r="5"/><circle class="cls-4" cx="23.1" cy="293.3" r="5"/><circle class="cls-4" cx="23.1" cy="318" r="5"/><circle class="cls-4" cx="23.1" cy="342.7" r="5"/><circle class="cls-4" cx="23.1" cy="367.3" r="5"/><circle class="cls-4" cx="23.1" cy="392" r="5"/><path class="cls-3" d="M1473.6,128.7a5.13,5.13,0,0,0-4.8-.3c-113.6,54-171,148.9-221.6,232.6l-1.5,2.5c-26.6,43.9-54.1,89.4-88,121.5-36.7,34.8-77.5,51-128.2,51a498.48,498.48,0,0,0-67.7,4.3c-75.8,10.3-127.5,49.3-177.5,87.1-56.8,42.9-110.4,83.4-196.3,83.4a5,5,0,0,0,0,10h883a5,5,0,0,0,5-5V132.9A4.91,4.91,0,0,0,1473.6,128.7Z"/><circle class="cls-4" cx="1379.8" cy="370.3" r="5"/><circle class="cls-4" cx="1379.8" cy="395" r="5"/><circle class="cls-4" cx="1379.8" cy="419.7" r="5"/><circle class="cls-4" cx="1379.8" cy="444.3" r="5"/><circle class="cls-4" cx="1379.8" cy="469" r="5"/><circle class="cls-4" cx="1379.8" cy="493.7" r="5"/><circle class="cls-4" cx="1379.8" cy="518.3" r="5"/><circle class="cls-4" cx="1379.8" cy="543" r="5"/><circle class="cls-4" cx="1379.8" cy="567.7" r="5"/><circle class="cls-4" cx="1379.8" cy="592.3" r="5"/><circle class="cls-4" cx="1379.8" cy="617" r="5"/><circle class="cls-4" cx="1379.8" cy="641.7" r="5"/><circle class="cls-4" cx="1379.8" cy="666.3" r="5"/><circle class="cls-4" cx="1379.8" cy="691" r="5"/><circle class="cls-4" cx="1379.8" cy="715.7" r="5"/><circle class="cls-4" cx="1355.1" cy="370.3" r="5"/><circle class="cls-4" cx="1355.1" cy="395" r="5"/><circle class="cls-4" cx="1355.1" cy="419.7" r="5"/><circle class="cls-4" cx="1355.1" cy="444.3" r="5"/><circle class="cls-4" cx="1355.1" cy="469" r="5"/><circle class="cls-4" cx="1355.1" cy="493.7" r="5"/><circle class="cls-4" cx="1355.1" cy="518.3" r="5"/><circle class="cls-4" cx="1355.1" cy="543" r="5"/><circle class="cls-4" cx="1355.1" cy="567.7" r="5"/><circle class="cls-4" cx="1355.1" cy="592.3" r="5"/><circle class="cls-4" cx="1355.1" cy="617" r="5"/><circle class="cls-4" cx="1355.1" cy="641.7" r="5"/><circle class="cls-4" cx="1355.1" cy="666.3" r="5"/><circle class="cls-4" cx="1355.1" cy="691" r="5"/><circle class="cls-4" cx="1355.1" cy="715.7" r="5"/><circle class="cls-4" cx="1330.5" cy="370.3" r="5"/><circle class="cls-4" cx="1330.5" cy="395" r="5"/><circle class="cls-4" cx="1330.5" cy="419.7" r="5"/><circle class="cls-4" cx="1330.5" cy="444.3" r="5"/><circle class="cls-4" cx="1330.5" cy="469" r="5"/><circle class="cls-4" cx="1330.5" cy="493.7" r="5"/><circle class="cls-4" cx="1330.5" cy="518.3" r="5"/><circle class="cls-4" cx="1330.5" cy="543" r="5"/><circle class="cls-4" cx="1330.5" cy="567.7" r="5"/><circle class="cls-4" cx="1330.5" cy="592.3" r="5"/><circle class="cls-4" cx="1330.5" cy="617" r="5"/><circle class="cls-4" cx="1330.5" cy="641.7" r="5"/><circle class="cls-4" cx="1330.5" cy="666.3" r="5"/><circle class="cls-4" cx="1330.5" cy="691" r="5"/><circle class="cls-4" cx="1330.5" cy="715.7" r="5"/><circle class="cls-4" cx="1305.8" cy="370.3" r="5"/><circle class="cls-4" cx="1305.8" cy="395" r="5"/><circle class="cls-4" cx="1305.8" cy="419.7" r="5"/><circle class="cls-4" cx="1305.8" cy="444.3" r="5"/><circle class="cls-4" cx="1305.8" cy="469" r="5"/><circle class="cls-4" cx="1305.8" cy="493.7" r="5"/><circle class="cls-4" cx="1305.8" cy="518.3" r="5"/><circle class="cls-4" cx="1305.8" cy="543" r="5"/><circle class="cls-4" cx="1305.8" cy="567.7" r="5"/><circle class="cls-4" cx="1305.8" cy="592.3" r="5"/><circle class="cls-4" cx="1305.8" cy="617" r="5"/><circle class="cls-4" cx="1305.8" cy="641.7" r="5"/><circle class="cls-4" cx="1305.8" cy="666.3" r="5"/><circle class="cls-4" cx="1305.8" cy="691" r="5"/><circle class="cls-4" cx="1305.8" cy="715.7" r="5"/><circle class="cls-4" cx="1281.1" cy="370.3" r="5"/><circle class="cls-4" cx="1281.1" cy="395" r="5"/><circle class="cls-4" cx="1281.1" cy="419.7" r="5"/><circle class="cls-4" cx="1281.1" cy="444.3" r="5"/><circle class="cls-4" cx="1281.1" cy="469" r="5"/><circle class="cls-4" cx="1281.1" cy="493.7" r="5"/><circle class="cls-4" cx="1281.1" cy="518.3" r="5"/><circle class="cls-4" cx="1281.1" cy="543" r="5"/><circle class="cls-4" cx="1281.1" cy="567.7" r="5"/><circle class="cls-4" cx="1281.1" cy="592.3" r="5"/><circle class="cls-4" cx="1281.1" cy="617" r="5"/><circle class="cls-4" cx="1281.1" cy="641.7" r="5"/><circle class="cls-4" cx="1281.1" cy="666.3" r="5"/><circle class="cls-4" cx="1281.1" cy="691" r="5"/><circle class="cls-4" cx="1281.1" cy="715.7" r="5"/><circle class="cls-4" cx="1256.5" cy="370.3" r="5"/><circle class="cls-4" cx="1256.5" cy="395" r="5"/><circle class="cls-4" cx="1256.5" cy="419.7" r="5"/><circle class="cls-4" cx="1256.5" cy="444.3" r="5"/><circle class="cls-4" cx="1256.5" cy="469" r="5"/><circle class="cls-4" cx="1256.5" cy="493.7" r="5"/><circle class="cls-4" cx="1256.5" cy="518.3" r="5"/><circle class="cls-4" cx="1256.5" cy="543" r="5"/><circle class="cls-4" cx="1256.5" cy="567.7" r="5"/><circle class="cls-4" cx="1256.5" cy="592.3" r="5"/><circle class="cls-4" cx="1256.5" cy="617" r="5"/><circle class="cls-4" cx="1256.5" cy="641.7" r="5"/><circle class="cls-4" cx="1256.5" cy="666.3" r="5"/><circle class="cls-4" cx="1256.5" cy="691" r="5"/><circle class="cls-4" cx="1256.5" cy="715.7" r="5"/><circle class="cls-4" cx="1231.8" cy="419.7" r="5"/><circle class="cls-4" cx="1231.8" cy="444.3" r="5"/><circle class="cls-4" cx="1231.8" cy="469" r="5"/><circle class="cls-4" cx="1231.8" cy="493.7" r="5"/><circle class="cls-4" cx="1231.8" cy="518.3" r="5"/><circle class="cls-4" cx="1231.8" cy="543" r="5"/><circle class="cls-4" cx="1231.8" cy="567.7" r="5"/><circle class="cls-4" cx="1231.8" cy="592.3" r="5"/><circle class="cls-4" cx="1231.8" cy="617" r="5"/><circle class="cls-4" cx="1231.8" cy="641.7" r="5"/><circle class="cls-4" cx="1231.8" cy="666.3" r="5"/><circle class="cls-4" cx="1231.8" cy="691" r="5"/><circle class="cls-4" cx="1231.8" cy="715.7" r="5"/><circle class="cls-4" cx="1207.1" cy="444.3" r="5"/><circle class="cls-4" cx="1207.1" cy="469" r="5"/><circle class="cls-4" cx="1207.1" cy="493.7" r="5"/><circle class="cls-4" cx="1207.1" cy="518.3" r="5"/><circle class="cls-4" cx="1207.1" cy="543" r="5"/><circle class="cls-4" cx="1207.1" cy="567.7" r="5"/><circle class="cls-4" cx="1207.1" cy="592.3" r="5"/><circle class="cls-4" cx="1207.1" cy="617" r="5"/><circle class="cls-4" cx="1207.1" cy="641.7" r="5"/><circle class="cls-4" cx="1207.1" cy="666.3" r="5"/><circle class="cls-4" cx="1207.1" cy="691" r="5"/><circle class="cls-4" cx="1207.1" cy="715.7" r="5"/><circle class="cls-4" cx="1182.5" cy="493.7" r="5"/><circle class="cls-4" cx="1182.5" cy="518.3" r="5"/><circle class="cls-4" cx="1182.5" cy="543" r="5"/><circle class="cls-4" cx="1182.5" cy="567.7" r="5"/><circle class="cls-4" cx="1182.5" cy="592.3" r="5"/><circle class="cls-4" cx="1182.5" cy="617" r="5"/><circle class="cls-4" cx="1182.5" cy="641.7" r="5"/><circle class="cls-4" cx="1182.5" cy="666.3" r="5"/><circle class="cls-4" cx="1182.5" cy="691" r="5"/><circle class="cls-4" cx="1182.5" cy="715.7" r="5"/><circle class="cls-4" cx="1157.8" cy="518.3" r="5"/><circle class="cls-4" cx="1157.8" cy="543" r="5"/><circle class="cls-4" cx="1157.8" cy="567.7" r="5"/><circle class="cls-4" cx="1157.8" cy="592.3" r="5"/><circle class="cls-4" cx="1157.8" cy="617" r="5"/><circle class="cls-4" cx="1157.8" cy="641.7" r="5"/><circle class="cls-4" cx="1157.8" cy="666.3" r="5"/><circle class="cls-4" cx="1157.8" cy="691" r="5"/><circle class="cls-4" cx="1157.8" cy="715.7" r="5"/><circle class="cls-4" cx="1133.1" cy="518.3" r="5"/><circle class="cls-4" cx="1133.1" cy="543" r="5"/><circle class="cls-4" cx="1133.1" cy="567.7" r="5"/><circle class="cls-4" cx="1133.1" cy="592.3" r="5"/><circle class="cls-4" cx="1133.1" cy="617" r="5"/><circle class="cls-4" cx="1133.1" cy="641.7" r="5"/><circle class="cls-4" cx="1133.1" cy="666.3" r="5"/><circle class="cls-4" cx="1133.1" cy="691" r="5"/><circle class="cls-4" cx="1133.1" cy="715.7" r="5"/><circle class="cls-4" cx="1108.5" cy="543" r="5"/><circle class="cls-4" cx="1108.5" cy="567.7" r="5"/><circle class="cls-4" cx="1108.5" cy="592.3" r="5"/><circle class="cls-4" cx="1108.5" cy="617" r="5"/><circle class="cls-4" cx="1108.5" cy="641.7" r="5"/><circle class="cls-4" cx="1108.5" cy="666.3" r="5"/><circle class="cls-4" cx="1108.5" cy="691" r="5"/><circle class="cls-4" cx="1108.5" cy="715.7" r="5"/><circle class="cls-4" cx="1083.8" cy="543" r="5"/><circle class="cls-4" cx="1083.8" cy="567.7" r="5"/><circle class="cls-4" cx="1083.8" cy="592.3" r="5"/><circle class="cls-4" cx="1083.8" cy="617" r="5"/><circle class="cls-4" cx="1083.8" cy="641.7" r="5"/><circle class="cls-4" cx="1083.8" cy="666.3" r="5"/><circle class="cls-4" cx="1083.8" cy="691" r="5"/><circle class="cls-4" cx="1083.8" cy="715.7" r="5"/><circle class="cls-4" cx="1059.1" cy="543" r="5"/><circle class="cls-4" cx="1059.1" cy="567.7" r="5"/><circle class="cls-4" cx="1059.1" cy="592.3" r="5"/><circle class="cls-4" cx="1059.1" cy="617" r="5"/><circle class="cls-4" cx="1059.1" cy="641.7" r="5"/><circle class="cls-4" cx="1059.1" cy="666.3" r="5"/><circle class="cls-4" cx="1059.1" cy="691" r="5"/><circle class="cls-4" cx="1059.1" cy="715.7" r="5"/><circle class="cls-4" cx="1034.5" cy="543" r="5"/><circle class="cls-4" cx="1034.5" cy="567.7" r="5"/><circle class="cls-4" cx="1034.5" cy="592.3" r="5"/><circle class="cls-4" cx="1034.5" cy="617" r="5"/><circle class="cls-4" cx="1034.5" cy="641.7" r="5"/><circle class="cls-4" cx="1034.5" cy="666.3" r="5"/><circle class="cls-4" cx="1034.5" cy="691" r="5"/><circle class="cls-4" cx="1034.5" cy="715.7" r="5"/><circle class="cls-4" cx="1009.8" cy="543" r="5"/><circle class="cls-4" cx="1009.8" cy="567.7" r="5"/><circle class="cls-4" cx="1009.8" cy="592.3" r="5"/><circle class="cls-4" cx="1009.8" cy="617" r="5"/><circle class="cls-4" cx="1009.8" cy="641.7" r="5"/><circle class="cls-4" cx="1009.8" cy="666.3" r="5"/><circle class="cls-4" cx="1009.8" cy="691" r="5"/><circle class="cls-4" cx="1009.8" cy="715.7" r="5"/><circle class="cls-4" cx="985.1" cy="543" r="5"/><circle class="cls-4" cx="985.1" cy="567.7" r="5"/><circle class="cls-4" cx="985.1" cy="592.3" r="5"/><circle class="cls-4" cx="985.1" cy="617" r="5"/><circle class="cls-4" cx="985.1" cy="641.7" r="5"/><circle class="cls-4" cx="985.1" cy="666.3" r="5"/><circle class="cls-4" cx="985.1" cy="691" r="5"/><circle class="cls-4" cx="985.1" cy="715.7" r="5"/><circle class="cls-5" cx="1170.7" cy="249.5" r="116.4"/><path class="cls-4" d="M1170.7,370.9a121.4,121.4,0,1,1,121.4-121.4C1292.1,316.4,1237.6,370.9,1170.7,370.9Zm0-232.8a111.4,111.4,0,1,0,111.4,111.4A111.56,111.56,0,0,0,1170.7,138.1Z"/><path class="cls-6" d="M1287.1,249.5s-52.1,56.4-116.4,56.4-116.4-56.4-116.4-56.4,52.1-56.4,116.4-56.4S1287.1,249.5,1287.1,249.5Z"/><path class="cls-4" d="M1170.7,310.9c-65.7,0-117.9-55.6-120.1-58a5,5,0,0,1,0-6.8c2.2-2.4,54.4-58,120.1-58s117.9,55.6,120.1,58a5,5,0,0,1,0,6.8C1288.6,255.3,1236.4,310.9,1170.7,310.9Zm-109.4-61.4c12.4,12,57.1,51.4,109.4,51.4s97-39.4,109.4-51.4c-12.4-12-57.1-51.4-109.4-51.4S1073.6,237.5,1061.3,249.5Z"/><path class="cls-4" d="M1170.7,206.5a43,43,0,1,0,43,43A43.06,43.06,0,0,0,1170.7,206.5Z"/><path class="cls-5" d="M471.3,249.5c0,128.6-104.2,232.9-232.7,233.2l-.4-233.2V16.3C367,16.3,471.3,120.7,471.3,249.5Z"/><path class="cls-4" d="M238.6,487.7a5,5,0,0,1-5-5l-.4-233.2V16.3a5,5,0,0,1,5-5,238.2,238.2,0,0,1,.4,476.4Zm4.6-466.3V249.5l.4,228.1a228.16,228.16,0,0,0-.4-456.2Z"/><path class="cls-1" d="M238.6,482.7h-.4a242.36,242.36,0,0,1-38.3-3.1c-.8-.1-1.5-.3-2.3-.4-1.7-.3-3.4-.6-5-1a230.58,230.58,0,0,1-92.2-40.6c-.7-.5-1.4-1.1-2.1-1.6s-1.4-1.1-2.1-1.6-1.4-1.1-2.1-1.6a225.62,225.62,0,0,1-21.8-19.6,232.68,232.68,0,0,1,1-328.5h0A232.47,232.47,0,0,1,238.2,16.4V249.5Z"/><path class="cls-4" d="M238.6,487.7h-.4a242.67,242.67,0,0,1-39.1-3.2c-.8-.1-1.6-.3-2.4-.4-1.7-.3-3.4-.6-5.1-1a235.52,235.52,0,0,1-94.2-41.5L95.2,440a14.31,14.31,0,0,0-1.5-1.1l-.6-.5c-.7-.6-1.4-1.1-2.2-1.7a234.17,234.17,0,0,1-22.3-20A238.52,238.52,0,0,1,14.8,166.6,239.89,239.89,0,0,1,69.7,81.1l.2-.2A236.55,236.55,0,0,1,238.1,11.3a5,5,0,0,1,5,5V249.4l.4,233.2a4.69,4.69,0,0,1-1.5,3.5A5.17,5.17,0,0,1,238.6,487.7ZM76.7,88.4a228.15,228.15,0,0,0-.9,321.3,214.71,214.71,0,0,0,21.4,19.1c.7.5,1.4,1.1,2.1,1.6l.6.5,1.4,1.1,2.1,1.6a225.84,225.84,0,0,0,90.2,39.7l4.9.9c.7.1,1.5.3,2.2.4a226,226,0,0,0,32.9,3l-.4-228.1V21.4A226.68,226.68,0,0,0,76.9,88.2.22.22,0,0,0,76.7,88.4Z"/><path class="cls-4" d="M238.2,16.3V249.4L19.5,168.3A233,233,0,0,1,73.3,84.6h0A232.47,232.47,0,0,1,238.2,16.3Z"/><path class="cls-4" d="M238.2,254.5a4.67,4.67,0,0,1-1.7-.3L17.9,173.1a5.1,5.1,0,0,1-2.8-2.6,5,5,0,0,1-.1-3.8A239.89,239.89,0,0,1,69.9,81.2l.2-.2A236.55,236.55,0,0,1,238.3,11.4a5,5,0,0,1,5,5V249.5a5.07,5.07,0,0,1-2.1,4.1A5.79,5.79,0,0,1,238.2,254.5ZM26,165.4l207.2,76.9V21.4A226.68,226.68,0,0,0,76.9,88.2l-.2.2A228.83,228.83,0,0,0,26,165.4Z"/><path class="cls-3" d="M238.6,482.7h0a226.23,226.23,0,0,1-38.7-3.1c-.8-.1-1.5-.3-2.3-.4a236.73,236.73,0,0,1-56.2-17.5h0a238.46,238.46,0,0,1-41.1-24c-.7-.5-1.4-1.1-2.1-1.6s-1.4-1.1-2.1-1.6-1.4-1.1-2.1-1.6a224.36,224.36,0,0,1-21.9-19.5h0L238.2,249.7Z"/><path class="cls-4" d="M238.3,487.7a233.93,233.93,0,0,1-39.2-3.3c-.8-.1-1.6-.3-2.4-.4a236.12,236.12,0,0,1-57.4-17.9c-.1,0-.2-.1-.3-.1a241.89,241.89,0,0,1-41.7-24.4L95.1,440a14.31,14.31,0,0,0-1.5-1.1l-.6-.5c-.7-.6-1.4-1.1-2.2-1.7a248.61,248.61,0,0,1-22.3-20,4.82,4.82,0,0,1-1.4-3.6,5.09,5.09,0,0,1,1.5-3.5l166-163.7a5.14,5.14,0,0,1,5.4-1.1,5,5,0,0,1,3.1,4.6l.4,233.2h0v.1a5,5,0,0,1-5,5Zm-94.6-30.5a224.7,224.7,0,0,0,54.8,17c.7.1,1.5.3,2.2.4a227.47,227.47,0,0,0,32.9,3.1l-.4-216.2L79.2,413.3c5.7,5.5,11.7,10.7,17.8,15.6.7.5,1.4,1.1,2.1,1.6l.6.5,1.4,1.1,2.1,1.6a236.5,236.5,0,0,0,40.1,23.5C143.5,457.1,143.6,457.1,143.7,457.2Z"/><rect class="cls-4" x="344.23" y="168.58" width="10" height="233.19" transform="translate(-29.06 530.51) rotate(-72.2)"/><circle class="cls-4" cx="471.3" cy="548.3" r="11.3"/><path class="cls-4" d="M471.3,564.6a16.3,16.3,0,1,1,16.3-16.3A16.3,16.3,0,0,1,471.3,564.6Zm0-22.6a6.3,6.3,0,1,0,6.3,6.3A6.27,6.27,0,0,0,471.3,542Z"/><circle class="cls-4" cx="704.6" cy="249.5" r="11.3"/><path class="cls-4" d="M704.6,265.8a16.3,16.3,0,1,1,16.3-16.3A16.3,16.3,0,0,1,704.6,265.8Zm0-22.6a6.3,6.3,0,1,0,6.3,6.3A6.34,6.34,0,0,0,704.6,243.2Z"/><circle class="cls-4" cx="821.1" cy="365.9" r="11.3"/><path class="cls-4" d="M821.1,382.2a16.3,16.3,0,1,1,16.3-16.3A16.3,16.3,0,0,1,821.1,382.2Zm0-22.6a6.3,6.3,0,1,0,6.3,6.3A6.34,6.34,0,0,0,821.1,359.6Z"/><circle class="cls-4" cx="937.8" cy="249.5" r="11.3"/><path class="cls-4" d="M937.8,265.8a16.3,16.3,0,1,1,16.3-16.3A16.3,16.3,0,0,1,937.8,265.8Zm0-22.6a6.3,6.3,0,1,0,6.3,6.3A6.27,6.27,0,0,0,937.8,243.2Z"/><circle class="cls-4" cx="1054.2" cy="132.9" r="11.3"/><path class="cls-4" d="M1054.2,149.2a16.3,16.3,0,1,1,16.3-16.3A16.3,16.3,0,0,1,1054.2,149.2Zm0-22.6a6.3,6.3,0,1,0,6.3,6.3A6.27,6.27,0,0,0,1054.2,126.6Z"/><circle class="cls-4" cx="1054.2" cy="16.3" r="11.3"/><path class="cls-4" d="M1054.2,32.6a16.3,16.3,0,1,1,16.3-16.3A16.3,16.3,0,0,1,1054.2,32.6Zm0-22.5a6.3,6.3,0,1,0,6.3,6.3A6.27,6.27,0,0,0,1054.2,10.1Z"/><circle class="cls-3" cx="937.8" cy="132.9" r="11.3"/><path class="cls-3" d="M937.8,149.2a16.3,16.3,0,1,1,16.3-16.3A16.3,16.3,0,0,1,937.8,149.2Zm0-22.6a6.3,6.3,0,1,0,6.3,6.3A6.27,6.27,0,0,0,937.8,126.6Z"/><circle class="cls-3" cx="704.6" cy="482.4" r="11.3"/><path class="cls-3" d="M704.6,498.7a16.3,16.3,0,1,1,16.3-16.3A16.3,16.3,0,0,1,704.6,498.7Zm0-22.6a6.3,6.3,0,1,0,6.3,6.3A6.34,6.34,0,0,0,704.6,476.1Z"/><circle class="cls-3" cx="821.1" cy="249.5" r="11.3"/><path class="cls-3" d="M821.1,265.8a16.3,16.3,0,1,1,16.3-16.3A16.3,16.3,0,0,1,821.1,265.8Zm0-22.6a6.3,6.3,0,1,0,6.3,6.3A6.34,6.34,0,0,0,821.1,243.2Z"/><circle class="cls-3" cx="537.9" cy="365.9" r="11.3"/><path class="cls-3" d="M537.9,382.2a16.3,16.3,0,1,1,16.3-16.3A16.3,16.3,0,0,1,537.9,382.2Zm0-22.6a6.3,6.3,0,1,0,6.3,6.3A6.27,6.27,0,0,0,537.9,359.6Z"/><path class="cls-4" d="M646.2,132.9h0a58.3,58.3,0,0,1-58.3-58.3h0a58.3,58.3,0,0,1,58.3-58.3h0a58.3,58.3,0,0,1,58.3,58.3h0A58.3,58.3,0,0,1,646.2,132.9Z"/><path class="cls-4" d="M646.2,137.9a63.3,63.3,0,1,1,63.3-63.3A63.38,63.38,0,0,1,646.2,137.9Zm0-116.6a53.3,53.3,0,1,0,53.3,53.3A53.35,53.35,0,0,0,646.2,21.3Z"/><rect class="cls-7" x="1054.2" y="366.1" width="416.7" height="349.7"/><path class="cls-4" d="M1471,720.8H1054.3a5,5,0,0,1-5-5V366.1a5,5,0,0,1,5-5H1471a5,5,0,0,1,5,5V715.8A5,5,0,0,1,1471,720.8Zm-411.8-10H1466V371.1H1059.3V710.8Z"/><polygon class="cls-4" points="1471 484.7 1054.2 482.7 1054.2 366.1 1471 368.1 1471 484.7"/><path class="cls-4" d="M1471,489.7h0l-416.8-2a5,5,0,0,1-5-5V366.1a4.69,4.69,0,0,1,1.5-3.5,5.09,5.09,0,0,1,3.5-1.5h0l416.7,2a5,5,0,0,1,5,5V484.7a5.13,5.13,0,0,1-4.9,5Zm-411.8-12,406.7,2V373l-406.7-2Z"/><path class="cls-4" d="M1112.8,445.5a20.2,20.2,0,1,1,20.2-20.2A20.21,20.21,0,0,1,1112.8,445.5Zm0-30.3a10.2,10.2,0,1,0,10.2,10.2A10.24,10.24,0,0,0,1112.8,415.2Z"/><path class="cls-4" d="M1163.2,445.5a20.2,20.2,0,1,1,20.2-20.2A20.21,20.21,0,0,1,1163.2,445.5Zm0-30.3a10.2,10.2,0,1,0,10.2,10.2A10.24,10.24,0,0,0,1163.2,415.2Z"/><path class="cls-4" d="M1213.6,445.5a20.2,20.2,0,1,1,20.2-20.2A20.21,20.21,0,0,1,1213.6,445.5Zm0-30.3a10.2,10.2,0,1,0,10.2,10.2A10.24,10.24,0,0,0,1213.6,415.2Z"/><path class="cls-4" d="M1200.2,543.2l15.2-12.5H1250l10,12.5-10,46.4-15.2,12.5h-34.6l-10.1-12.5Zm130-11.4-110.8,145h-24.5l110.9-145Zm-100,49.5,6.5-30.7-2.1-2.8h-10l-4.6,3.8-6.4,30.7,2,2.7h10Zm44.9,37.8,15.2-12.5h34.6l10.1,12.5-10.1,46.3-15.2,12.5h-34.6L1265,665.4Zm30.1,37.9,6.4-30.7-2-2.6h-10.1l-4.6,3.8-6.4,30.7,2,2.6h10.1Z"/><path class="cls-4" d="M727.1,531.3l3.8-17.3h15.7l10.9-27h20.4L767,514.1h14.1l10.8-27h20.5l-10.9,27h13.2l-3.8,17.3H794.4l-8,20.4h13l-3.8,17.3H779.3l-10.7,27.2H748.2L759,569.1H745l-10.8,27.2H713.7l10.9-27.2H710.8l3.8-17.3h17.1l8-20.4-12.6-.1Zm32.5-.4-8.3,21.4h15.1l8.1-21.4Z"/><path class="cls-4" d="M238.2,599.8a5,5,0,0,0-5,5v111a5,5,0,0,0,5,5h111a5,5,0,0,0,5-5A116.08,116.08,0,0,0,238.2,599.8Z"/><rect class="cls-3" x="1325.2" y="87.6" width="10" height="33"/><rect class="cls-3" x="1313.7" y="99.1" width="33" height="10"/><rect class="cls-3" x="108.1" y="579.8" width="10" height="33"/><rect class="cls-3" x="96.6" y="591.2" width="33" height="10"/><rect class="cls-3" x="641.2" y="176.6" width="10" height="33"/><rect class="cls-3" x="629.7" y="188.1" width="33" height="10"/></g></g></svg>