<?xml version="1.0" encoding="utf-8"?>
<!-- Generator: Adobe Illustrator 25.0.1, SVG Export Plug-In . SVG Version: 6.00 Build 0)  -->
<svg version="1.1" id="Layer_1" xmlns="http://www.w3.org/2000/svg" xmlns:xlink="http://www.w3.org/1999/xlink" x="0px" y="0px"
	 viewBox="0 0 1064.3 760.8" style="enable-background:new 0 0 1064.3 760.8;" xml:space="preserve">
<style type="text/css">
	.st0{fill:#FFFFFF;}
	.st1{fill:#00484A;}
	.st2{fill:#009092;}
	.st3{fill:#E86166;}
	.st4{fill:#7CDADC;}
	.st5{fill:#00B9BC;}
	.st6{fill:none;}
</style>
<g>
	<g>
		<g>
			<rect x="113.7" y="138.4" class="st0" width="595.7" height="447"/>
			<path class="st1" d="M709.3,589.4H113.7c-2.2,0-3.9-1.7-3.9-3.9v-447c0-2.2,1.7-3.9,3.9-3.9h595.7c2.2,0,3.9,1.7,3.9,3.9v447
				C713.2,587.6,711.5,589.4,709.3,589.4z M117.6,581.6h587.9V142.3H117.6V581.6z"/>
		</g>
		<g>
			<rect x="113.7" y="138.4" class="st2" width="595.7" height="139.6"/>
			<path class="st1" d="M709.3,282H113.7c-2.2,0-3.9-1.7-3.9-3.9V138.4c0-2.2,1.7-3.9,3.9-3.9h595.7c2.2,0,3.9,1.7,3.9,3.9v139.6
				C713.2,280.2,711.5,282,709.3,282z M117.6,274.1h587.9V142.3H117.6V274.1z"/>
		</g>
	</g>
	<g>
		<g>
			<rect x="161.7" y="181.4" class="st0" width="595.7" height="447"/>
			<path class="st1" d="M757.3,632.3H161.7c-2.2,0-3.9-1.7-3.9-3.9v-447c0-2.2,1.7-3.9,3.9-3.9h595.7c2.2,0,3.9,1.7,3.9,3.9v447
				C761.2,630.5,759.5,632.3,757.3,632.3z M165.6,624.5h587.9V185.3H165.6V624.5z"/>
		</g>
		<g>
			<rect x="161.7" y="181.4" class="st3" width="595.7" height="139.6"/>
			<path class="st1" d="M757.3,324.9H161.7c-2.2,0-3.9-1.7-3.9-3.9V181.4c0-2.2,1.7-3.9,3.9-3.9h595.7c2.2,0,3.9,1.7,3.9,3.9V321
				C761.2,323.1,759.5,324.9,757.3,324.9z M165.6,317.1h587.9V185.3H165.6V317.1z"/>
		</g>
	</g>
	<g>
		<g>
			<rect x="202.4" y="222.3" class="st0" width="595.7" height="447"/>
			<path class="st1" d="M797.9,673.2H202.4c-2.2,0-3.9-1.7-3.9-3.9v-447c0-2.2,1.7-3.9,3.9-3.9H798c2.2,0,3.9,1.7,3.9,3.9v447
				C801.8,671.5,800.1,673.2,797.9,673.2z M206.3,665.4h587.9V226.2H206.3V665.4z"/>
		</g>
		<g>
			<path class="st4" d="M797.9,361.9H202.4V222.3h456C658.3,299.4,720.8,361.9,797.9,361.9z"/>
			<path class="st1" d="M797.9,365.8H198.4V218.4h463.8v3.9c0,74.9,60.9,135.7,135.7,135.7L797.9,365.8L797.9,365.8z M206.3,358h545
				c-55.1-19.1-95.1-70.7-96.7-131.8H206.3V358z"/>
		</g>
		<g>
			<g>
				<path class="st1" d="M262.8,307.8c-8.7,0-15.8-7-15.8-15.8s7-15.8,15.8-15.8s15.8,7,15.8,15.8S271.4,307.8,262.8,307.8z
					 M262.8,284.1c-4.4,0-8,3.6-8,8c0,4.4,3.6,8,8,8c4.4,0,8-3.6,8-8C270.7,287.7,267.1,284.1,262.8,284.1z"/>
			</g>
			<g>
				<path class="st1" d="M302.1,307.8c-8.7,0-15.8-7-15.8-15.8s7-15.8,15.8-15.8s15.8,7,15.8,15.8S310.8,307.8,302.1,307.8z
					 M302.1,284.1c-4.4,0-8,3.6-8,8c0,4.4,3.6,8,8,8c4.4,0,8-3.6,8-8C310.1,287.7,306.5,284.1,302.1,284.1z"/>
			</g>
			<g>
				<path class="st1" d="M341.5,307.8c-8.7,0-15.8-7-15.8-15.8s7-15.8,15.8-15.8s15.8,7,15.8,15.8S350.2,307.8,341.5,307.8z
					 M341.5,284.1c-4.4,0-8,3.6-8,8c0,4.4,3.6,8,8,8c4.4,0,8-3.6,8-8C349.5,287.7,345.9,284.1,341.5,284.1z"/>
			</g>
		</g>
		<g>
			<g>
				<rect x="537.4" y="432.1" class="st3" width="78.8" height="168.6"/>
				<path class="st1" d="M616.3,604.5h-78.8c-2.2,0-3.9-1.7-3.9-3.9V432.1c0-2.2,1.7-3.9,3.9-3.9h78.8c2.2,0,3.9,1.7,3.9,3.9v168.6
					C620.2,602.7,618.5,604.5,616.3,604.5z M541.3,596.7h71V436h-71V596.7z"/>
			</g>
			<g>
				<g>
					<rect x="440.9" y="489.3" class="st5" width="68.7" height="111.2"/>
				</g>
				<g>
					<path class="st1" d="M509.6,604.5h-68.7c-2.2,0-3.9-1.7-3.9-3.9V489.3c0-2.2,1.7-3.9,3.9-3.9h68.7c2.2,0,3.9,1.7,3.9,3.9v111.2
						C513.5,602.7,511.8,604.5,509.6,604.5z M444.8,596.7h60.9V493.3h-60.9V596.7z"/>
				</g>
			</g>
			<g>
				<rect x="362.9" y="466" class="st0" width="48.6" height="134.6"/>
				<path class="st1" d="M411.5,604.5h-48.6c-2.2,0-3.9-1.7-3.9-3.9V466c0-2.2,1.7-3.9,3.9-3.9h48.6c2.2,0,3.9,1.7,3.9,3.9v134.6
					C415.4,602.7,413.7,604.5,411.5,604.5z M366.8,596.7h40.8V469.9h-40.8V596.7z"/>
			</g>
			<g>
				<rect x="331.4" y="596.7" class="st1" width="330.7" height="7.8"/>
			</g>
		</g>
	</g>
	<g>
		<path class="st0" d="M797.9,222.3v139.6c-77.1,0-139.6-62.5-139.6-139.6L797.9,222.3L797.9,222.3z"/>
		<path class="st1" d="M797.9,365.8c-79.2,0-143.5-64.4-143.5-143.5c0-2.2,1.7-3.9,3.9-3.9h139.6c2.2,0,3.9,1.7,3.9,3.9v139.6
			C801.8,364.1,800.1,365.8,797.9,365.8z M662.3,226.2c2,71.7,60,129.7,131.7,131.7V226.2H662.3z"/>
	</g>
	<path class="st1" d="M709.3,134.5h-63.7c-1.3,0-2.4,0.5-3.1,1.6c-18.8,25-28.8,54.9-28.8,86.2c0,2.2,1.7,3.9,3.9,3.9h91.7
		c2.2,0,3.9-1.7,3.9-3.9v-83.8C713.2,136.2,711.5,134.5,709.3,134.5z"/>
	<g>
		<path class="st3" d="M937.6,222.3c0,77.1-62.5,139.6-139.6,139.6V222.3H658.3c0-77.1,62.5-139.6,139.6-139.6
			C875.1,82.6,937.6,145.1,937.6,222.3z"/>
		<path class="st1" d="M797.9,365.8c-2.2,0-3.9-1.7-3.9-3.9V226.2H658.3c-2.2,0-3.9-1.7-3.9-3.9c0-79.2,64.4-143.5,143.5-143.5
			c79.2,0,143.5,64.4,143.5,143.5S877.1,365.8,797.9,365.8z M662.3,218.4h135.7c2.2,0,3.9,1.7,3.9,3.9v135.7
			c73.1-2.1,131.8-62.1,131.8-135.7c0-74.9-60.9-135.7-135.7-135.7C724.4,86.5,664.4,145.3,662.3,218.4z"/>
	</g>
	<path class="st1" d="M320.3,552.5c-0.3-0.4-0.8-0.5-1.3-0.4l-76,25.4c-0.4,0.1-0.7,0.5-0.8,1c-0.1,0.4,0.1,0.9,0.5,1.1l18.1,12.1
		l-24.1,20.7c-0.5,0.4-0.5,1.2-0.1,1.7l10.3,12.1c0.2,0.2,0.5,0.4,0.8,0.4c0,0,0.1,0,0.1,0c0.3,0,0.6-0.1,0.8-0.3l24.1-20.8l8,18.8
		c0.2,0.4,0.6,0.7,1,0.7c0.4,0,0.9-0.2,1.1-0.6l37.5-70.8C320.7,553.4,320.6,552.8,320.3,552.5z"/>
	<g>
		<path class="st5" d="M820.1,509.6c-20.2,0-32-21.7-44.6-44.7c-15.1-27.6-30.6-56.1-61.4-56.1c-2.2,0-3.9-1.7-3.9-3.9
			c0-2.2,1.7-3.9,3.9-3.9c35.5,0,52.9,32,68.3,60.2c11.9,21.8,22.2,40.6,37.7,40.6c17.7,0,28.1-13.4,39.1-27.7
			c12.3-15.9,25-32.2,48.5-32.2c2.2,0,3.9,1.7,3.9,3.9s-1.7,3.9-3.9,3.9c-19.8,0-30.7,14.1-42.4,29.2
			C853.7,494,841.6,509.6,820.1,509.6z"/>
	</g>
	<g>
		<polygon class="st4" points="797.9,669.3 937.6,669.3 937.6,585.6 		"/>
		<path class="st1" d="M937.6,673.2H797.9c-1.7,0-3.3-1.2-3.8-2.9c-0.5-1.7,0.2-3.5,1.7-4.4l139.6-83.7c1.2-0.7,2.7-0.7,3.9-0.1
			c1.3,0.7,2,2,2,3.4v83.7C941.5,671.5,939.8,673.2,937.6,673.2z M812.1,665.4h121.6v-72.9L812.1,665.4z"/>
	</g>
	<g>
		<g>
			<line class="st6" x1="851.8" y1="556.6" x2="877.5" y2="556.6"/>
			<rect x="851.8" y="552.7" class="st1" width="25.8" height="7.8"/>
		</g>
		<g>
			<line class="st6" x1="864.6" y1="569.5" x2="864.6" y2="543.7"/>
			<rect x="860.7" y="543.7" class="st1" width="7.8" height="25.8"/>
		</g>
	</g>
</g>
</svg>
