<?xml version="1.0" encoding="utf-8"?>
<!-- Generator: Adobe Illustrator 25.0.1, SVG Export Plug-In . SVG Version: 6.00 Build 0)  -->
<svg version="1.1" id="Layer_1" xmlns="http://www.w3.org/2000/svg" xmlns:xlink="http://www.w3.org/1999/xlink" x="0px" y="0px"
	 viewBox="0 0 1064.3 760.8" style="enable-background:new 0 0 1064.3 760.8;" xml:space="preserve">
<style type="text/css">
	.st0{fill:#FFFFFF;}
	.st1{fill:#00484A;}
	.st2{fill:#009092;}
	.st3{fill:#FAFBFB;}
	.st4{fill:#E86166;}
	.st5{fill:#7CDADC;}
	.st6{fill:#00B9BC;}
	.st7{fill:none;}
</style>
<g>
	<g>
		<g>
			<rect x="148.2" y="142.8" class="st0" width="595.7" height="447"/>
			<path class="st1" d="M743.8,593.8H148.2c-2.2,0-3.9-1.7-3.9-3.9v-447c0-2.2,1.7-3.9,3.9-3.9h595.7c2.2,0,3.9,1.7,3.9,3.9v447
				C747.7,592,746,593.8,743.8,593.8z M152.1,586H740V146.7H152.1V586z"/>
		</g>
		<g>
			<rect x="148.2" y="142.8" class="st2" width="595.7" height="139.6"/>
			<path class="st1" d="M743.8,286.4H148.2c-2.2,0-3.9-1.7-3.9-3.9V142.8c0-2.2,1.7-3.9,3.9-3.9h595.7c2.2,0,3.9,1.7,3.9,3.9v139.6
				C747.7,284.6,746,286.4,743.8,286.4z M152.1,278.5H740V146.7H152.1V278.5z"/>
		</g>
	</g>
	<g>
		<g>
			<rect x="196.2" y="185.8" class="st3" width="595.7" height="447"/>
			<path class="st1" d="M791.8,636.7H196.2c-2.2,0-3.9-1.7-3.9-3.9v-447c0-2.2,1.7-3.9,3.9-3.9h595.7c2.2,0,3.9,1.7,3.9,3.9v447
				C795.7,634.9,794,636.7,791.8,636.7z M200.1,628.9H788V189.7H200.1V628.9z"/>
		</g>
		<g>
			<rect x="196.2" y="185.8" class="st4" width="595.7" height="139.6"/>
			<path class="st1" d="M791.8,329.3H196.2c-2.2,0-3.9-1.7-3.9-3.9V185.8c0-2.2,1.7-3.9,3.9-3.9h595.7c2.2,0,3.9,1.7,3.9,3.9v139.6
				C795.7,327.5,794,329.3,791.8,329.3z M200.1,321.5H788V189.7H200.1V321.5z"/>
		</g>
	</g>
	<g>
		<g>
			<rect x="236.9" y="226.7" class="st3" width="595.7" height="447"/>
			<path class="st1" d="M832.4,677.6H236.9c-2.2,0-3.9-1.7-3.9-3.9v-447c0-2.2,1.7-3.9,3.9-3.9h595.6c2.2,0,3.9,1.7,3.9,3.9v447
				C836.3,675.9,834.6,677.6,832.4,677.6z M240.8,669.8h587.9V230.6H240.8V669.8z"/>
		</g>
		<g>
			<path class="st5" d="M832.4,366.3H236.9V226.7h456C692.8,303.8,755.3,366.3,832.4,366.3z"/>
			<path class="st1" d="M832.4,370.2H232.9V222.8h463.8v3.9c0,74.9,60.9,135.7,135.7,135.7L832.4,370.2L832.4,370.2z M240.8,362.4
				h545c-55.1-19.1-95.1-70.7-96.7-131.8H240.8V362.4z"/>
		</g>
		<g>
			<g>
				<path class="st1" d="M297.3,312.2c-8.7,0-15.8-7-15.8-15.8s7-15.8,15.8-15.8s15.8,7,15.8,15.8S305.9,312.2,297.3,312.2z
					 M297.3,288.5c-4.4,0-8,3.6-8,8s3.6,8,8,8s8-3.6,8-8C305.2,292.1,301.6,288.5,297.3,288.5z"/>
			</g>
			<g>
				<path class="st1" d="M336.6,312.2c-8.7,0-15.8-7-15.8-15.8s7-15.8,15.8-15.8s15.8,7,15.8,15.8S345.3,312.2,336.6,312.2z
					 M336.6,288.5c-4.4,0-8,3.6-8,8s3.6,8,8,8s8-3.6,8-8S341,288.5,336.6,288.5z"/>
			</g>
			<g>
				<path class="st1" d="M376,312.2c-8.7,0-15.8-7-15.8-15.8s7-15.8,15.8-15.8s15.8,7,15.8,15.8S384.7,312.2,376,312.2z M376,288.5
					c-4.4,0-8,3.6-8,8s3.6,8,8,8s8-3.6,8-8S380.4,288.5,376,288.5z"/>
			</g>
		</g>
		<g>
			<g>
				<rect x="571.9" y="436.5" class="st4" width="78.8" height="168.6"/>
				<path class="st1" d="M650.8,608.9H572c-2.2,0-3.9-1.7-3.9-3.9V436.5c0-2.2,1.7-3.9,3.9-3.9h78.8c2.2,0,3.9,1.7,3.9,3.9v168.6
					C654.7,607.1,653,608.9,650.8,608.9z M575.8,601.1h71V440.4h-71V601.1z"/>
			</g>
			<g>
				<g>
					<rect x="475.4" y="493.7" class="st6" width="68.7" height="111.2"/>
				</g>
				<g>
					<path class="st1" d="M544.1,608.9h-68.7c-2.2,0-3.9-1.7-3.9-3.9V493.7c0-2.2,1.7-3.9,3.9-3.9h68.7c2.2,0,3.9,1.7,3.9,3.9v111.2
						C548,607.1,546.3,608.9,544.1,608.9z M479.3,601.1h60.9V497.7h-60.9V601.1z"/>
				</g>
			</g>
			<g>
				<rect x="397.4" y="470.4" class="st0" width="48.6" height="134.6"/>
				<path class="st1" d="M446,608.9h-48.6c-2.2,0-3.9-1.7-3.9-3.9V470.4c0-2.2,1.7-3.9,3.9-3.9H446c2.2,0,3.9,1.7,3.9,3.9V605
					C449.9,607.1,448.2,608.9,446,608.9z M401.3,601.1h40.8V474.3h-40.8V601.1z"/>
			</g>
			<g>
				<rect x="365.9" y="601.1" class="st1" width="330.7" height="7.8"/>
			</g>
		</g>
	</g>
	<g>
		<path class="st0" d="M832.4,226.7v139.6c-77.1,0-139.6-62.5-139.6-139.6L832.4,226.7L832.4,226.7z"/>
		<path class="st1" d="M832.4,370.2c-79.2,0-143.5-64.4-143.5-143.5c0-2.2,1.7-3.9,3.9-3.9h139.6c2.2,0,3.9,1.7,3.9,3.9v139.6
			C836.3,368.5,834.6,370.2,832.4,370.2z M696.8,230.6c2,71.7,60,129.7,131.7,131.7V230.6H696.8z"/>
	</g>
	<path class="st1" d="M743.8,138.9h-63.7c-1.3,0-2.4,0.5-3.1,1.6c-18.8,25-28.8,54.9-28.8,86.2c0,2.2,1.7,3.9,3.9,3.9h91.7
		c2.2,0,3.9-1.7,3.9-3.9v-83.8C747.7,140.6,746,138.9,743.8,138.9z"/>
	<g>
		<path class="st4" d="M972.1,226.7c0,77.1-62.5,139.6-139.6,139.6V226.7H692.8c0-77.1,62.5-139.6,139.6-139.6
			C909.6,87,972.1,149.5,972.1,226.7z"/>
		<path class="st1" d="M832.4,370.2c-2.2,0-3.9-1.7-3.9-3.9V230.6H692.8c-2.2,0-3.9-1.7-3.9-3.9c0-79.2,64.4-143.5,143.5-143.5
			c79.2,0,143.5,64.4,143.5,143.5S911.6,370.2,832.4,370.2z M696.8,222.8h135.7c2.2,0,3.9,1.7,3.9,3.9v135.7
			c73.1-2.1,131.8-62.1,131.8-135.7c0-74.9-60.9-135.7-135.7-135.7C758.9,90.9,698.9,149.7,696.8,222.8z"/>
	</g>
	<path class="st1" d="M354.8,556.9c-0.3-0.4-0.8-0.5-1.3-0.4l-76,25.4c-0.4,0.1-0.7,0.5-0.8,1c-0.1,0.4,0.1,0.9,0.5,1.1l18.1,12.1
		l-24.1,20.7c-0.5,0.4-0.5,1.2-0.1,1.7l10.3,12.1c0.2,0.2,0.5,0.4,0.8,0.4h0.1c0.3,0,0.6-0.1,0.8-0.3l24.1-20.8l8,18.8
		c0.2,0.4,0.6,0.7,1,0.7s0.9-0.2,1.1-0.6l37.5-70.8C355.2,557.8,355.1,557.2,354.8,556.9z"/>
	<g>
		<path class="st6" d="M854.6,514c-20.2,0-32-21.7-44.6-44.7c-15.1-27.6-30.6-56.1-61.4-56.1c-2.2,0-3.9-1.7-3.9-3.9
			c0-2.2,1.7-3.9,3.9-3.9c35.5,0,52.9,32,68.3,60.2c11.9,21.8,22.2,40.6,37.7,40.6c17.7,0,28.1-13.4,39.1-27.7
			c12.3-15.9,25-32.2,48.5-32.2c2.2,0,3.9,1.7,3.9,3.9s-1.7,3.9-3.9,3.9c-19.8,0-30.7,14.1-42.4,29.2
			C888.2,498.4,876.1,514,854.6,514z"/>
	</g>
	<g>
		<polygon class="st5" points="832.4,673.7 972.1,673.7 972.1,590 		"/>
		<path class="st1" d="M972.1,677.6H832.4c-1.7,0-3.3-1.2-3.8-2.9s0.2-3.5,1.7-4.4l139.6-83.7c1.2-0.7,2.7-0.7,3.9-0.1
			c1.3,0.7,2,2,2,3.4v83.7C976,675.9,974.3,677.6,972.1,677.6z M846.6,669.8h121.6v-72.9L846.6,669.8z"/>
	</g>
	<g>
		<g>
			<line class="st7" x1="886.3" y1="561" x2="912" y2="561"/>
			<rect x="886.3" y="557.1" class="st1" width="25.8" height="7.8"/>
		</g>
		<g>
			<line class="st7" x1="899.1" y1="573.9" x2="899.1" y2="548.1"/>
			<rect x="895.2" y="548.1" class="st1" width="7.8" height="25.8"/>
		</g>
	</g>
</g>
</svg>
