<svg xmlns="http://www.w3.org/2000/svg" viewBox="0 0 307.07 341.64"><defs><style>.cls-1,.cls-4{fill:#00b9bc;}.cls-1,.cls-2,.cls-3,.cls-5{fill-rule:evenodd;}.cls-2{fill:#005c5d;}.cls-3{fill:#007c7d;}.cls-5{fill:#003e3f;}</style></defs><g id="Layer_2" data-name="Layer 2"><g id="Layer_1-2" data-name="Layer 1"><path class="cls-1" d="M48,316.82a20.69,20.69,0,1,0-.54-41.37,12.42,12.42,0,1,1-.33-24.83,45.51,45.51,0,1,1,1.19,91A12.41,12.41,0,1,1,48,316.82Z"/><path class="cls-2" d="M186.25,185.52a12.44,12.44,0,1,1-12.43-12.44A12.43,12.43,0,0,1,186.25,185.52Z"/><path class="cls-1" d="M261.4,66.45a20.77,20.77,0,1,1,20.76-20.77A20.76,20.76,0,0,1,261.4,66.45ZM215.73,45.68A45.67,45.67,0,1,0,261.4,0,45.68,45.68,0,0,0,215.73,45.68Z"/><path class="cls-3" d="M12.44,102.22a12.43,12.43,0,0,1,12.44,12.41,20.71,20.71,0,0,0,20.73,20.69h82.93a20.71,20.71,0,0,0,20.73-20.69,12.44,12.44,0,0,1,24.88,0,45.56,45.56,0,0,1-45.61,45.51H47.27a20.71,20.71,0,0,0-20.73,20.68v82.73a20.71,20.71,0,0,0,20.73,20.69,12.41,12.41,0,1,1,0,24.82A45.56,45.56,0,0,1,1.66,263.55V180.82a45.29,45.29,0,0,1,13.5-32.31A45.32,45.32,0,0,1,0,114.63,12.43,12.43,0,0,1,12.44,102.22Z"/><path class="cls-4" d="M131.81,69.4A50.62,50.62,0,0,1,180,34.58h48.15a12.37,12.37,0,1,1,0,24.73H180a25.72,25.72,0,0,0-24.76,18.56,45.22,45.22,0,0,1,18.9,36.77,12.44,12.44,0,0,1-24.88,0A20.67,20.67,0,0,0,128.54,94H45.61a20.67,20.67,0,0,0-20.73,20.61,12.44,12.44,0,0,1-24.88,0A45.48,45.48,0,0,1,45.61,69.29h82.93c1.1,0,2.19,0,3.27.11Z"/><path class="cls-5" d="M174.18,114.8a20.76,20.76,0,1,1,20.76,20.68,12.42,12.42,0,1,0,0,24.83,45.51,45.51,0,1,0-45.67-45.51,12.46,12.46,0,0,0,24.91,0Z"/><path class="cls-2" d="M174.15,114.12a12.44,12.44,0,1,0-12.44,12.44A12.45,12.45,0,0,0,174.15,114.12Z"/><path class="cls-5" d="M24.88,114.62A12.44,12.44,0,1,0,12.44,127,12.42,12.42,0,0,0,24.88,114.62Z"/><path class="cls-5" d="M121.87,186a12.44,12.44,0,1,0-12.44,12.44A12.44,12.44,0,0,0,121.87,186Z"/><path class="cls-5" d="M152.87,185.83a12.44,12.44,0,1,0-12.44,12.44A12.44,12.44,0,0,0,152.87,185.83Z"/><path class="cls-2" d="M240.61,45.86A12.44,12.44,0,1,0,228.17,58.3,12.44,12.44,0,0,0,240.61,45.86Z"/><path class="cls-2" d="M274,45.86A12.44,12.44,0,1,0,261.58,58.3,12.44,12.44,0,0,0,274,45.86Z"/><path class="cls-2" d="M58.29,227.24a57.12,57.12,0,0,1,57.22,57,12.44,12.44,0,0,0,24.87,0,82,82,0,0,0-82.09-81.82,12.4,12.4,0,1,0,0,24.79Z"/><path class="cls-2" d="M60.42,296.66A12.44,12.44,0,1,0,48,309.06,12.42,12.42,0,0,0,60.42,296.66Z"/></g></g></svg>