<?xml version="1.0" encoding="utf-8"?>
<!-- Generator: Adobe Illustrator 25.0.1, SVG Export Plug-In . SVG Version: 6.00 Build 0)  -->
<svg version="1.1" id="Layer_1" xmlns="http://www.w3.org/2000/svg" xmlns:xlink="http://www.w3.org/1999/xlink" x="0px" y="0px"
	 viewBox="0 0 402 402.5" style="enable-background:new 0 0 402 402.5;" xml:space="preserve">
<style type="text/css">
	.st0{fill:#00ADAD;}
	.st1{fill:#002F31;}
	.st2{fill:#09D3C4;}
	.st3{fill:#1FC9C0;}
</style>
<path class="st0" d="M-1487,22.6c-96.7,0-175.2,78.4-175.2,175.2S-1583.7,373-1487,373s175.2-78.4,175.2-175.2
	S-1390.3,22.6-1487,22.6z M-1486.4,357.7c-88.1,0-159.5-71.4-159.5-159.5s71.4-159.5,159.5-159.5s159.5,71.4,159.5,159.5
	S-1398.3,357.7-1486.4,357.7z"/>
<image style="overflow:visible;enable-background:new    ;" width="503" height="502" xlink:href="../team/original_imgs/ania.png"  transform="matrix(0.564 0 0 0.564 -1629.4261 85.8723)">
</image>
<path class="st1" d="M-1490.2,24.8c-96.7,0-175.2,78.4-175.2,175.2s78.4,175.2,175.2,175.2S-1315,296.8-1315,200
	S-1393.4,24.8-1490.2,24.8z M-1489.6,359.8c-88.1,0-159.5-71.4-159.5-159.5s71.4-159.5,159.5-159.5s159.5,71.4,159.5,159.5
	S-1401.5,359.8-1489.6,359.8z"/>
<path class="st2" d="M-1058.2,29.6c-96.7,0-175.2,78.4-175.2,175.2S-1155,380-1058.2,380S-883,301.6-883,204.8
	S-961.5,29.6-1058.2,29.6z M-1057.7,364.6c-88.1,0-159.5-71.4-159.5-159.5s71.4-159.5,159.5-159.5s159.5,71.4,159.5,159.5
	S-969.6,364.6-1057.7,364.6z"/>
<image style="overflow:visible;enable-background:new    ;" width="3500" height="3500" xlink:href="../team/original_imgs/sarah.png"  transform="matrix(7.911494e-02 0 0 7.911494e-02 -1195.5586 86.7371)">
</image>
<path class="st1" d="M-1063.4,25.7c-96.7,0-175.2,78.4-175.2,175.2s78.4,175.2,175.2,175.2s175.2-78.4,175.2-175.2
	S-966.7,25.7-1063.4,25.7z M-1062.8,360.8c-88.1,0-159.5-71.4-159.5-159.5s71.4-159.5,159.5-159.5s159.5,71.4,159.5,159.5
	S-974.7,360.8-1062.8,360.8z"/>
<path class="st3" d="M-647.9,28.8c-96.7,0-175.1,78.4-175.1,175.1S-744.6,379-647.9,379s175.1-78.4,175.1-175.1
	S-551.2,28.8-647.9,28.8z M-647.3,363.7c-88,0-159.4-71.4-159.4-159.4s71.4-159.4,159.4-159.4s159.4,71.4,159.4,159.4
	S-559.2,363.7-647.3,363.7z"/>
<path class="st0" d="M-638.2,23.6c-96.7,0-175.2,78.4-175.2,175.2S-735,374-638.2,374c96.7,0,175.2-78.4,175.2-175.2
	S-541.5,23.6-638.2,23.6z M-637.7,358.6c-88.1,0-159.5-71.4-159.5-159.5s71.4-159.5,159.5-159.5s159.5,71.4,159.5,159.5
	S-549.6,358.6-637.7,358.6z"/>
<path class="st1" d="M-641.4,25.7c-96.7,0-175.2,78.4-175.2,175.2S-738.2,376-641.4,376c96.7,0,175.2-78.4,175.2-175.2
	S-544.7,25.7-641.4,25.7z M-640.8,360.8c-88.1,0-159.5-71.4-159.5-159.5s71.4-159.5,159.5-159.5s159.5,71.4,159.5,159.5
	S-552.7,360.8-640.8,360.8z"/>
<path class="st3" d="M-225.9,28.8c-96.7,0-175.1,78.4-175.1,175.1S-322.6,379-225.9,379s175.1-78.4,175.1-175.1
	S-129.2,28.8-225.9,28.8z M-225.3,363.7c-88,0-159.4-71.4-159.4-159.4s71.4-159.4,159.4-159.4s159.4,71.4,159.4,159.4
	S-137.2,363.7-225.3,363.7z"/>
<path class="st0" d="M-216.2,23.6c-96.7,0-175.2,78.4-175.2,175.2S-313,374-216.2,374S-41,295.6-41,198.8S-119.5,23.6-216.2,23.6z
	 M-215.7,358.6c-88.1,0-159.5-71.4-159.5-159.5s71.4-159.5,159.5-159.5S-56.2,111-56.2,199.1S-127.6,358.6-215.7,358.6z"/>
<image style="overflow:visible;enable-background:new    ;" width="176" height="443" xlink:href="../team/original_imgs/leni.png"  transform="matrix(0.6145 0 0 0.6145 -267.9128 94.3427)">
</image>
<path class="st1" d="M-219.4,25.7c-96.7,0-175.2,78.4-175.2,175.2S-316.2,376-219.4,376s175.2-78.4,175.2-175.2
	S-122.7,25.7-219.4,25.7z M-218.8,360.8c-88.1,0-159.5-71.4-159.5-159.5s71.4-159.5,159.5-159.5s159.5,71.4,159.5,159.5
	S-130.7,360.8-218.8,360.8z"/>
<path class="st3" d="M196.1,28.8C99.4,28.8,21,107.2,21,203.9S99.4,379,196.1,379s175.1-78.4,175.1-175.1S292.8,28.8,196.1,28.8z
	 M196.7,363.7c-88,0-159.4-71.4-159.4-159.4S108.7,44.9,196.7,44.9s159.4,71.4,159.4,159.4S284.8,363.7,196.7,363.7z"/>
<path class="st0" d="M205.8,23.6C109,23.6,30.6,102,30.6,198.7S109,373.9,205.8,373.9S381,295.5,381,198.7S302.5,23.6,205.8,23.6z
	 M206.3,358.6c-88.1,0-159.5-71.4-159.5-159.5S118.3,39.7,206.3,39.7s159.5,71.4,159.5,159.5S294.4,358.6,206.3,358.6z"/>
<path class="st1" d="M202.6,25.7c-96.7,0-175.2,78.4-175.2,175.2S105.8,376,202.6,376s175.2-78.4,175.2-175.2S299.3,25.7,202.6,25.7
	z M203.2,360.8c-88.1,0-159.5-71.4-159.5-159.5S115.1,41.8,203.2,41.8s159.5,71.4,159.5,159.5S291.3,360.8,203.2,360.8z"/>
<image style="overflow:visible;enable-background:new    ;" width="3500" height="3500" xlink:href="../team/original_imgs/jasmina.png"  transform="matrix(8.048248e-02 0 0 8.048248e-02 -747.9304 94.3427)">
</image>
<image style="overflow:visible;enable-background:new    ;" width="1065" height="889" xlink:href="../team/original_imgs/frida.png"  transform="matrix(0.128 0 0 0.128 162.2933 238.187)">
</image>
</svg>
