<svg fill="#000000" xmlns="http://www.w3.org/2000/svg"  viewBox="0 0 100 100" width="30px" height="30px"><path d="M 46.142578 13 C 38.097822 13 32.733808 15.742069 29.460938 19.394531 C 26.188066 23.046994 25 27.519231 25 31 C 25 38.494569 28.863396 43.541534 30.507812 45.367188 C 29.004981 46.396544 26.87545 48.083813 24.763672 50.896484 C 22.22774 54.274085 20 58.989678 20 64.972656 C 20 71.023502 22.345538 76.295272 26.917969 80.566406 C 31.511936 84.859541 37.551735 87 44.835938 87 C 52.29111 87 58.688347 84.507561 64.115234 79.685547 L 69.371094 85.15625 A 1.0001 1.0001 0 0 0 69.373047 85.158203 C 70.410465 86.231357 71.64808 87 73.066406 87 C 74.81463 87 76.448047 86.360237 77.822266 85.171875 A 1.0001 1.0001 0 0 0 77.824219 85.169922 C 79.217482 83.962814 80 82.411032 80 80.810547 C 80 79.784434 79.665214 78.780646 78.955078 78.023438 C 77.125194 76.071561 72.283301 71.186489 71.601562 70.498047 C 74.88537 64.69668 77 59.021061 77 52.703125 C 77 50.618283 76.64601 48.957873 75.724609 47.765625 A 1.0001 1.0001 0 0 0 75.722656 47.765625 C 74.737164 46.493157 73.033429 46 70.900391 46 C 68.389557 46 66.874458 46.409958 65.871094 47.222656 A 1.0001 1.0001 0 0 0 65.869141 47.222656 C 64.938584 47.977911 64 49.286255 64 51 C 64 56.849126 63.12104 59.689338 62.585938 61.115234 C 61.625113 60.107102 57.699786 55.98859 52.736328 50.775391 C 49.967701 47.867457 47.176884 44.935797 45.035156 42.681641 C 42.893429 40.427484 41.310533 38.749999 41.246094 38.677734 C 39.793428 37.048872 38 34.535676 38 31.5 C 38 30.467429 38.332746 28.803783 39.453125 27.466797 C 40.573504 26.129811 42.473556 25 46 25 C 48.723222 25 50.831595 26.11959 52.416016 27.369141 C 53.208226 27.993916 53.859503 28.649158 54.373047 29.201172 C 54.886591 29.753186 55.188889 30.156253 55.591797 30.496094 C 56.614097 31.358838 57.782363 31.857422 58.996094 31.857422 C 60.731436 31.857422 62.355329 31.103656 63.705078 29.753906 C 65.047496 28.411488 65.808594 26.827815 65.808594 25.142578 C 65.808594 22.137544 63.729249 19.37843 60.041016 16.841797 C 56.292901 14.266813 51.628463 13 46.142578 13 z M 46.142578 15 C 51.322694 15 55.544318 16.179219 58.908203 18.490234 C 62.32997 20.843601 63.808594 23.071613 63.808594 25.142578 C 63.808594 26.251341 63.360598 27.270262 62.291016 28.339844 C 61.226765 29.404094 60.180751 29.857422 58.996094 29.857422 C 58.308676 29.857422 57.634047 29.602935 56.880859 28.966797 C 56.839769 28.932137 56.389347 28.430658 55.837891 27.837891 C 55.286434 27.245124 54.560086 26.513178 53.654297 25.798828 C 51.842718 24.370129 49.276778 23 46 23 C 42.026444 23 39.426496 24.386126 37.921875 26.181641 C 36.417254 27.977155 36 30.062571 36 31.5 C 36 35.308324 38.172572 38.234676 39.753906 40.007812 C 40.039467 40.328049 41.44329 41.803469 43.585938 44.058594 C 45.728584 46.313719 48.520191 49.248059 51.289062 52.15625 C 56.826808 57.972633 62.275391 63.689453 62.275391 63.689453 A 1.0001 1.0001 0 0 0 63.894531 63.447266 C 63.894531 63.447266 66 59.166667 66 51 C 66 50.041745 66.575463 49.228089 67.130859 48.777344 C 67.611873 48.388307 68.612772 48 70.900391 48 C 72.723352 48 73.706117 48.426702 74.142578 48.990234 C 74.643178 49.637987 75 50.859967 75 52.703125 C 75 58.813819 72.926925 64.298023 69.513672 70.173828 A 1.0001 1.0001 0 0 0 69.667969 71.378906 C 69.667969 71.378906 75.613767 77.38281 77.496094 79.390625 C 77.841958 79.759416 78 80.18266 78 80.810547 C 78 81.776062 77.560361 82.753311 76.513672 83.660156 C 75.448584 84.580457 74.347292 85 73.066406 85 C 72.377362 85 71.63215 84.616707 70.8125 83.769531 L 70.810547 83.767578 L 64.931641 77.648438 A 1.0001 1.0001 0 0 0 63.523438 77.615234 C 58.271694 82.583973 52.193157 85 44.835938 85 C 37.938139 85 32.485236 83.030381 28.283203 79.103516 C 24.053634 75.15265 22 70.51781 22 64.972656 C 22 59.483634 24.02226 55.213055 26.361328 52.097656 C 28.700397 48.982257 31.381367 47.036805 32.513672 46.357422 A 1.0001 1.0001 0 0 0 32.675781 44.763672 C 32.675781 44.763672 27 39.555556 27 31 C 27 27.980769 28.061591 23.953006 30.949219 20.730469 C 33.836847 17.507931 38.545335 15 46.142578 15 z M 39.339844 51.953125 A 1.0001 1.0001 0 0 0 38.744141 52.154297 C 37.059717 53.415706 33 57.180296 33 63.826172 C 33 67.281682 34.274999 70.274452 36.742188 72.560547 C 39.238703 74.874445 42.668582 76 46.837891 76 C 51.350998 76 54.971733 74.530046 57.71875 71.695312 A 1.0001 1.0001 0 0 0 57.714844 70.300781 L 40.058594 52.253906 A 1.0001 1.0001 0 0 0 39.339844 51.953125 z M 39.289062 54.328125 L 55.537109 70.935547 C 53.27565 72.942922 50.53327 74 46.837891 74 C 43.021199 74 40.171046 73.011852 38.101562 71.09375 C 36.005474 69.151975 35 66.810147 35 63.826172 C 35 58.691281 37.673778 55.710951 39.289062 54.328125 z M 28.810547 55.994141 A 0.50005 0.50005 0 0 0 28.365234 56.320312 C 27.544815 58.450328 27 60.948294 27 63.826172 C 27 68.971558 28.967037 73.537074 32.666016 76.962891 C 36.277781 80.309327 41.073896 82 46.837891 82 C 47.774867 82 48.675925 81.93624 49.554688 81.839844 A 0.50006985 0.50006985 0 1 0 49.445312 80.845703 C 48.592074 80.939303 47.728915 81 46.837891 81 C 41.267885 81 36.757938 79.392033 33.345703 76.230469 C 29.840682 72.984286 28 68.718785 28 63.826172 C 28 61.074049 28.517295 58.703673 29.296875 56.679688 A 0.50005 0.50005 0 0 0 28.810547 55.994141 z M 59.505859 76.923828 A 0.50005 0.50005 0 0 0 59.195312 77.033203 C 58.886775 77.27054 58.558324 77.492004 58.220703 77.71875 A 0.50026412 0.50026412 0 1 0 58.779297 78.548828 C 59.117676 78.321574 59.463226 78.088835 59.804688 77.826172 A 0.50005 0.50005 0 0 0 59.505859 76.923828 z M 56.5 78.810547 A 0.50005 0.50005 0 0 0 56.273438 78.869141 C 54.764615 79.635712 53.139404 80.192234 51.400391 80.544922 A 0.50005 0.50005 0 1 0 51.599609 81.523438 C 53.420596 81.154124 55.133386 80.569194 56.726562 79.759766 A 0.50005 0.50005 0 0 0 56.5 78.810547 z"/></svg>