<svg fill="#000000" xmlns="http://www.w3.org/2000/svg"  viewBox="0 0 100 100" width="50px" height="50px"><path d="M 16 21 C 12.145666 21 9 24.145666 9 28 L 9 78 A 1.0001 1.0001 0 0 0 9.0253906 78.228516 C 8.8779777 80.737314 10.886503 83 13.507812 83 L 77.283203 83 C 79.334152 83 81.134724 81.601765 81.642578 79.615234 L 91.96875 39.248047 A 1.0001 1.0001 0 0 0 91 38 L 82 38 L 82 34 C 82 32.35503 80.64497 31 79 31 L 51 31 C 50.43497 31 50 30.56503 50 30 L 50 28 C 50 24.145666 46.854334 21 43 21 L 16 21 z M 16 23 L 43 23 C 45.773666 23 48 25.226334 48 28 L 48 30 C 48 31.64497 49.35503 33 51 33 L 79 33 C 79.56503 33 80 33.43497 80 34 L 80 38 L 20 38 A 1.0001 1.0001 0 0 0 19.03125 38.751953 L 11 70.146484 L 11 28 C 11 25.226334 13.226334 23 16 23 z M 14.5 28 A 0.50005 0.50005 0 1 0 14.5 29 L 31.5 29 A 0.50005 0.50005 0 1 0 31.5 28 L 14.5 28 z M 20.777344 40 L 80.832031 40 A 1.0001 1.0001 0 0 0 81.158203 40 L 89.712891 40 L 79.705078 79.119141 C 79.420932 80.23061 78.430254 81 77.283203 81 L 13.507812 81 C 11.851259 81 10.67568 79.484923 11.085938 77.880859 L 20.777344 40 z M 34.5 48 A 0.50005 0.50005 0 0 0 34 48.5 L 34 65.001953 A 0.50005 0.50005 0 0 0 34 65.025391 L 34 72.5 A 0.50005 0.50005 0 0 0 34.5 73 L 40.292969 73 L 65.5 73 A 0.50005 0.50005 0 0 0 66 72.5 L 66 71.486328 A 0.50005 0.50005 0 0 0 66 71.474609 L 66 59.945312 L 66 48.5 A 0.50005 0.50005 0 0 0 65.5 48 L 34.5 48 z M 35 49 L 65 49 L 65 58.417969 L 62.210938 54.613281 A 0.50005 0.50005 0 0 0 62.208984 54.611328 C 61.941693 54.248448 61.524568 54.02299 61.072266 54.001953 C 60.621606 53.980992 60.183771 54.162927 59.882812 54.5 L 56.667969 58.095703 L 54.224609 54.634766 C 53.943501 54.237028 53.486026 54 53 54 L 52.990234 54 A 0.50005 0.50005 0 0 0 52.986328 54 C 52.492993 54.0045 52.033071 54.252795 51.757812 54.658203 L 45.369141 64.103516 L 41.710938 59.113281 A 0.50005 0.50005 0 0 0 41.708984 59.111328 C 41.444572 58.752803 41.033855 58.526547 40.585938 58.501953 C 40.136747 58.475403 39.702965 58.655537 39.400391 58.980469 A 0.50005 0.50005 0 0 0 39.398438 58.982422 L 35 63.746094 L 35 49 z M 44 51 C 43.041667 51 42.260256 51.377378 41.751953 51.949219 C 41.24365 52.52106 41 53.263889 41 54 C 41 54.736111 41.24365 55.47894 41.751953 56.050781 C 42.260256 56.622622 43.041667 57 44 57 C 44.958333 57 45.739744 56.622622 46.248047 56.050781 C 46.75635 55.47894 47 54.736111 47 54 C 47 53.263889 46.75635 52.52106 46.248047 51.949219 C 45.739744 51.377378 44.958333 51 44 51 z M 44 52 C 44.708333 52 45.176923 52.247622 45.501953 52.613281 C 45.826983 52.97894 46 53.486111 46 54 C 46 54.513889 45.826983 55.02106 45.501953 55.386719 C 45.176923 55.752378 44.708333 56 44 56 C 43.291667 56 42.823077 55.752378 42.498047 55.386719 C 42.173017 55.02106 42 54.513889 42 54 C 42 53.486111 42.173017 52.97894 42.498047 52.613281 C 42.823077 52.247622 43.291667 52 44 52 z M 52.994141 55 L 53 55 C 53.163974 55 53.313311 55.07668 53.408203 55.210938 L 56.201172 59.166016 A 0.50005 0.50005 0 0 0 56.212891 59.183594 L 65 71.630859 L 65 72 L 41.234375 72 L 45.800781 65.251953 A 0.50005 0.50005 0 0 0 45.808594 65.238281 L 52.585938 55.220703 C 52.678679 55.084112 52.829476 55.001502 52.994141 55 z M 61.025391 55 C 61.175088 55.007 61.313638 55.08201 61.404297 55.205078 L 65 60.109375 L 65 69.898438 L 57.259766 58.931641 L 60.628906 55.166016 C 60.727948 55.055089 60.87405 54.992961 61.025391 55 z M 40.527344 59.501953 A 0.50005 0.50005 0 0 0 40.529297 59.501953 C 40.676679 59.509853 40.815064 59.584083 40.904297 59.705078 L 44.775391 64.982422 L 42.683594 68.074219 L 40.027344 72 L 35 72 L 35 65.220703 L 40.132812 59.662109 C 40.23581 59.551502 40.381215 59.493127 40.527344 59.501953 z"/></svg>