<svg fill="#000000" xmlns="http://www.w3.org/2000/svg"  viewBox="0 0 100 100" width="30px" height="30px"><path d="M 49.480469 12 C 47.123273 12 45.175267 12.523415 43.765625 13.699219 C 42.355983 14.875022 41.595739 16.65579 41.447266 18.796875 A 1.0001 1.0001 0 0 0 41.445312 18.886719 L 41.96875 43.554688 L 20.287109 35.5625 A 1.0001 1.0001 0 0 0 20.191406 35.53125 C 19.955432 35.470584 19.499475 35.341262 19.017578 35.226562 C 18.535681 35.111863 18.046381 35 17.533203 35 C 15.422663 35 13.538316 35.883739 12.125 37.507812 C 10.736808 39.104122 10 40.985265 10 43.001953 C 10 44.794016 10.392871 46.351143 11.25 47.585938 C 12.107129 48.820731 13.411741 49.678098 15.011719 50.138672 A 1.0001 1.0001 0 0 0 15.029297 50.144531 L 38.318359 56.363281 L 23.673828 76.064453 C 22.592417 77.323194 22.046875 78.927656 22.046875 80.714844 C 22.046875 82.788354 23.104436 84.631235 24.958984 85.982422 C 26.751238 87.289296 28.600061 88 30.455078 88 C 32.705918 88 34.57609 87.038902 35.541016 85.244141 L 35.492188 85.324219 L 49.501953 64.242188 L 64.123047 85.125 C 64.123047 85.125 64.125 85.126953 64.125 85.126953 C 65.37442 86.987958 67.342663 88 69.648438 88 C 71.77741 88 73.745321 87.25628 75.404297 85.833984 C 77.084726 84.393938 78 82.468538 78 80.310547 C 78 78.792152 77.602347 77.409196 76.791016 76.279297 A 1.0001 1.0001 0 0 0 76.775391 76.259766 L 61.701172 56.359375 L 84.970703 50.144531 A 1.0001 1.0001 0 0 0 84.988281 50.138672 C 86.573877 49.682238 87.866021 48.878819 88.730469 47.716797 C 89.594914 46.554816 90 45.080731 90 43.412109 C 90 41.386821 89.242815 39.457021 87.833984 37.736328 A 1.0001 1.0001 0 0 0 87.832031 37.734375 C 86.40629 35.998393 84.626253 35 82.669922 35 C 81.461554 35 80.192043 35.381298 79.683594 35.550781 A 1.0001 1.0001 0 0 0 79.666016 35.556641 L 57.041016 43.570312 L 57.738281 18.894531 A 1.0001 1.0001 0 0 0 57.736328 18.796875 C 57.585838 16.64973 56.796182 14.860729 55.347656 13.689453 C 53.899131 12.518177 51.906409 12 49.480469 12 z M 49.480469 14 C 51.620528 14 53.119369 14.459416 54.089844 15.244141 C 55.056467 16.025751 55.609932 17.168929 55.736328 18.917969 L 55 44.972656 A 1.0001 1.0001 0 0 0 56.333984 45.943359 L 80.318359 37.449219 C 80.627326 37.346394 81.97085 37 82.669922 37 C 83.979591 37 85.120898 37.583936 86.287109 39.003906 C 87.462278 40.439213 88 41.871398 88 43.412109 C 88 44.765487 87.689803 45.764209 87.125 46.523438 C 86.5616 47.28078 85.711517 47.846237 84.443359 48.212891 L 59.746094 54.8125 A 1.0001 1.0001 0 0 0 59.207031 56.382812 L 75.166016 77.447266 C 75.714007 78.21108 76 79.129684 76 80.310547 C 76 81.940555 75.415087 83.1905 74.103516 84.314453 C 72.762491 85.464158 71.329464 86 69.648438 86 C 67.871211 86 66.709819 85.391173 65.783203 84.009766 A 1.0001 1.0001 0 0 0 65.771484 83.994141 L 50.298828 61.894531 A 1.0001 1.0001 0 0 0 48.646484 61.914062 L 33.826172 84.216797 A 1.0001 1.0001 0 0 0 33.779297 84.296875 C 33.144218 85.478111 32.212238 86 30.455078 86 C 29.106095 86 27.682465 85.494313 26.136719 84.367188 C 24.653267 83.286373 24.046875 82.157334 24.046875 80.714844 C 24.046875 79.288076 24.43655 78.218275 25.226562 77.322266 A 1.0001 1.0001 0 0 0 25.279297 77.257812 L 40.802734 56.375 A 1.0001 1.0001 0 0 0 40.257812 54.8125 L 15.564453 48.216797 L 15.558594 48.214844 C 14.3033 47.852324 13.463692 47.268069 12.892578 46.445312 C 12.320457 45.621106 12 44.504891 12 43.001953 C 12 41.452642 12.513005 40.108003 13.632812 38.820312 C 14.727498 37.562386 15.943744 37 17.533203 37 C 17.677025 37 18.129084 37.07057 18.554688 37.171875 C 18.9635 37.269175 19.357533 37.381375 19.648438 37.457031 L 42.654297 45.9375 A 1.0001 1.0001 0 0 0 44 44.978516 L 43.447266 18.919922 C 43.572352 17.163586 44.114826 16.013764 45.046875 15.236328 C 45.982233 14.456132 47.418664 14 49.480469 14 z M 49.492188 17.992188 A 0.50005 0.50005 0 0 0 49 18.5 L 49 19.5 A 0.50005 0.50005 0 1 0 50 19.5 L 50 18.5 A 0.50005 0.50005 0 0 0 49.492188 17.992188 z M 49.492188 20.992188 A 0.50005 0.50005 0 0 0 49 21.5 L 49 25.5 A 0.50005 0.50005 0 1 0 50 25.5 L 50 21.5 A 0.50005 0.50005 0 0 0 49.492188 20.992188 z M 49.492188 28.992188 A 0.50005 0.50005 0 0 0 49 29.5 L 49 45.5 A 0.50005 0.50005 0 1 0 50 45.5 L 50 29.5 A 0.50005 0.50005 0 0 0 49.492188 28.992188 z M 45.464844 57.710938 A 0.50005 0.50005 0 0 0 45.050781 57.927734 L 37.783203 68.210938 A 0.50018649 0.50018649 0 0 0 38.599609 68.789062 L 45.869141 58.503906 A 0.50005 0.50005 0 0 0 45.464844 57.710938 z M 34.664062 72.994141 A 0.50005 0.50005 0 0 0 34.25 73.210938 L 31.199219 77.527344 A 0.50018678 0.50018678 0 0 0 32.015625 78.105469 L 35.066406 73.789062 A 0.50005 0.50005 0 0 0 34.664062 72.994141 z M 30.457031 78.943359 A 0.50005 0.50005 0 0 0 30.044922 79.160156 L 29.46875 79.978516 A 0.50005 0.50005 0 1 0 30.285156 80.554688 L 30.863281 79.738281 A 0.50005 0.50005 0 0 0 30.457031 78.943359 z"/></svg>