<?xml version="1.0"?><svg fill="#000000" xmlns="http://www.w3.org/2000/svg"  viewBox="0 0 100 100" width="30px" height="30px">    <path d="M 50 16 C 27.393 16 9 30.355 9 48 C 9 56.573 13.257 64.593812 21 70.632812 C 20.999 77.093812 20.922969 82.662969 17.292969 86.292969 C 17.006969 86.578969 16.921172 87.008812 17.076172 87.382812 C 17.231172 87.756813 17.596 88 18 88 C 23.156 88 32.584609 86.781047 38.599609 78.748047 C 42.288609 79.579047 46.121 80 50 80 C 72.607 80 91 65.645 91 48 C 91 30.355 72.607 16 50 16 z M 50 18 C 71.505 18 89 31.458 89 48 C 89 64.542 71.505 78 50 78 C 46.048 78 42.149109 77.546344 38.412109 76.652344 C 38.013109 76.558344 37.597328 76.715781 37.361328 77.050781 C 32.628328 83.789781 25.244734 85.567828 20.177734 85.923828 C 23.000734 81.736828 23 76.11975 23 70.21875 L 23 70.140625 C 23 69.827625 22.854469 69.533703 22.605469 69.345703 C 15.122469 63.658703 11 56.078 11 48 C 11 31.458 28.495 18 50 18 z M 50 21 C 30.149 21 14 33.112 14 48 C 14 53.295 16.048828 58.423078 19.923828 62.830078 C 20.021828 62.942078 20.159828 63 20.298828 63 C 20.416828 63 20.533906 62.959953 20.628906 62.876953 C 20.835906 62.693953 20.855828 62.376922 20.673828 62.169922 C 16.961828 57.946922 15 53.048 15 48 C 15 33.663 30.701 22 50 22 C 59.17 22 67.846688 24.630297 74.429688 29.404297 C 74.650687 29.566297 74.964953 29.517922 75.126953 29.294922 C 75.288953 29.071922 75.239625 28.757703 75.015625 28.595703 C 68.263625 23.696703 59.38 21 50 21 z M 76.455078 29.886719 C 76.327578 29.897969 76.205187 29.957953 76.117188 30.064453 C 75.939188 30.275453 75.967687 30.591531 76.179688 30.769531 C 76.417687 30.967531 76.649906 31.169047 76.878906 31.373047 C 76.973906 31.458047 77.093891 31.5 77.212891 31.5 C 77.349891 31.5 77.486937 31.442984 77.585938 31.333984 C 77.769937 31.127984 77.750922 30.812906 77.544922 30.628906 C 77.307922 30.416906 77.066312 30.207953 76.820312 30.001953 C 76.714313 29.913453 76.582578 29.875469 76.455078 29.886719 z M 78.785156 32 C 78.657031 31.998125 78.528687 32.046078 78.429688 32.142578 C 78.231687 32.334578 78.226922 32.651609 78.419922 32.849609 C 78.731922 33.170609 79.034172 33.497078 79.326172 33.830078 C 79.424172 33.942078 79.562172 34 79.701172 34 C 79.818172 34 79.937203 33.958953 80.033203 33.876953 C 80.240203 33.693953 80.260125 33.378875 80.078125 33.171875 C 79.775125 32.826875 79.460719 32.485344 79.136719 32.152344 C 79.041219 32.053344 78.913281 32.001875 78.785156 32 z M 80.996094 34.505859 C 80.869469 34.488359 80.737453 34.518062 80.626953 34.601562 C 80.405953 34.768563 80.362297 35.082734 80.529297 35.302734 C 83.454297 39.164734 85 43.555 85 48 C 85 62.337 69.299 74 50 74 C 48.84 74 47.674156 73.957047 46.535156 73.873047 C 46.257156 73.843047 46.021953 74.060937 46.001953 74.335938 C 45.981953 74.610938 46.187891 74.850094 46.462891 74.871094 C 47.625891 74.956094 48.816 75 50 75 C 69.851 75 86 62.888 86 48 C 86 43.335 84.384172 38.735219 81.326172 34.699219 C 81.243172 34.588719 81.122719 34.523359 80.996094 34.505859 z M 28.5 35 A 0.50005 0.50005 0 1 0 28.5 36 L 52.5 36 A 0.50005 0.50005 0 1 0 52.5 35 L 28.5 35 z M 57.5 35 A 0.50005 0.50005 0 1 0 57.5 36 L 68.5 36 A 0.50005 0.50005 0 1 0 68.5 35 L 57.5 35 z M 22.5 43 A 0.50005 0.50005 0 1 0 22.5 44 L 38.5 44 A 0.50005 0.50005 0 1 0 38.5 43 L 22.5 43 z M 43.5 43 A 0.50005 0.50005 0 1 0 43.5 44 L 77.5 44 A 0.50005 0.50005 0 1 0 77.5 43 L 43.5 43 z M 22.5 51 A 0.50005 0.50005 0 1 0 22.5 52 L 77.5 52 A 0.50005 0.50005 0 1 0 77.5 51 L 22.5 51 z M 28.5 59 A 0.50005 0.50005 0 1 0 28.5 60 L 48.5 60 A 0.50005 0.50005 0 1 0 48.5 59 L 28.5 59 z M 53.5 59 A 0.50005 0.50005 0 1 0 53.5 60 L 68.5 60 A 0.50005 0.50005 0 1 0 68.5 59 L 53.5 59 z"/></svg>