<svg fill="#ffffff" xmlns="http://www.w3.org/2000/svg"  viewBox="0 0 100 100" width="30px" height="30px"><path d="M 27 16 A 1.0001 1.0001 0 0 0 26 17 L 26 22 C 24.083334 22 22.518559 22.754756 21.501953 23.898438 C 20.485347 25.042119 20 26.527778 20 28 C 20 29.472222 20.485347 30.957882 21.501953 32.101562 C 22.518559 33.245244 24.083334 34 26 34 L 26 36 C 20.044626 36 15 39.90643 15 45 L 15 58.5 C 15 60.421188 16.578812 62 18.5 62 L 19 62 L 19 80 C 19 82.197334 20.802666 84 23 84 C 24.210938 84 25.264444 83.423754 26 82.564453 C 26.735556 83.423754 27.789062 84 29 84 C 31.197334 84 33 82.197334 33 80 L 33 61 L 84 61 A 1.0001 1.0001 0 0 0 85 60 L 85 54 A 1.0001 1.0001 0 0 0 84 53 L 83 53 L 83 17 A 1.0001 1.0001 0 0 0 82 16 L 27 16 z M 28 18 L 81 18 L 81 54 L 79 54 L 79 41.5 A 0.50005 0.50005 0 0 0 78.492188 40.992188 A 0.50005 0.50005 0 0 0 78 41.5 L 78 54 L 44.5 54 A 0.50005 0.50005 0 1 0 44.5 55 L 78.419922 55 A 0.50005 0.50005 0 0 0 78.582031 55 L 82 55 L 82.5 55 L 83 55 L 83 59 L 33 59 L 33 46.816406 C 33.55336 47.166791 33.722422 47.274684 34.449219 47.734375 C 35.197372 48.207574 35.947917 48.681199 36.515625 49.039062 C 36.799479 49.217995 37.036614 49.367887 37.207031 49.474609 C 37.292241 49.527969 37.360047 49.57057 37.410156 49.601562 C 37.435216 49.617063 37.456149 49.629465 37.474609 49.640625 C 37.483809 49.646225 37.491686 49.651093 37.503906 49.658203 C 37.516126 49.665303 37.620109 49.716377 37.621094 49.716797 C 38.055834 49.90272 38.525307 50 39 50 L 45.5 50 C 47.421188 50 49 48.421188 49 46.5 C 49 45.978424 48.874007 45.487381 48.666016 45.041016 L 61.853516 31.853516 A 0.50005 0.50005 0 0 0 61.490234 30.996094 A 0.50005 0.50005 0 0 0 61.146484 31.146484 L 48.103516 44.189453 C 47.460582 43.466534 46.534841 43 45.5 43 L 39.972656 43 L 36.275391 40.033203 C 33.443483 37.761101 30.950304 36.517137 28 36.138672 L 28 33.648438 C 30.323565 32.819821 32 30.600135 32 28 C 32 25.399865 30.323565 23.180179 28 22.351562 L 28 18 z M 33.5 20 A 0.50005 0.50005 0 1 0 33.5 21 L 76.5 21 C 77.335015 21 78 21.664985 78 22.5 L 78 25.5 A 0.50005 0.50005 0 1 0 79 25.5 L 79 22.5 C 79 21.125015 77.874985 20 76.5 20 L 33.5 20 z M 26 24 C 26.24004 24 26.471192 24.028486 26.699219 24.068359 A 1.0001 1.0001 0 0 0 26.90625 24.109375 C 28.683696 24.517834 30 26.092516 30 28 C 30 29.906625 28.684429 31.479341 26.908203 31.888672 A 1.0001 1.0001 0 0 0 26.701172 31.929688 C 26.472493 31.969798 26.24077 32 26 32 C 24.583334 32 23.648107 31.504756 22.998047 30.773438 C 22.347987 30.042119 22 29.027778 22 28 C 22 26.972222 22.347987 25.957882 22.998047 25.226562 C 23.648107 24.495244 24.583334 24 26 24 z M 78.492188 29.992188 A 0.50005 0.50005 0 0 0 78 30.5 L 78 32.5 A 0.50005 0.50005 0 1 0 79 32.5 L 79 30.5 A 0.50005 0.50005 0 0 0 78.492188 29.992188 z M 78.492188 33.992188 A 0.50005 0.50005 0 0 0 78 34.5 L 78 39.5 A 0.50005 0.50005 0 1 0 79 39.5 L 79 34.5 A 0.50005 0.50005 0 0 0 78.492188 33.992188 z M 26 38 C 26.27207 38 26.524876 38.017123 26.783203 38.029297 A 1.0001 1.0001 0 0 0 27.138672 38.042969 C 30.008795 38.246343 32.126735 39.269662 35.023438 41.59375 L 38.996094 44.779297 A 1.0001 1.0001 0 0 0 39.621094 45 L 45.5 45 C 46.340812 45 47 45.659188 47 46.5 C 47 47.340812 46.340812 48 45.5 48 L 39 48 C 38.806749 48 38.616784 47.95724 38.4375 47.884766 C 38.39426 47.857946 38.34218 47.824796 38.269531 47.779297 C 38.10239 47.674625 37.865037 47.526053 37.582031 47.347656 C 37.01602 46.990863 36.2653 46.515895 35.517578 46.042969 C 34.022135 45.097117 32.535156 44.154297 32.535156 44.154297 A 1.0001 1.0001 0 0 0 31 45 L 31 59.832031 A 1.0001 1.0001 0 0 0 31 60.158203 L 31 80 C 31 81.116666 30.116666 82 29 82 C 27.883334 82 27 81.116666 27 80 L 27 62 A 1.0001 1.0001 0 1 0 25 62 L 25 80 C 25 81.116666 24.116666 82 23 82 C 21.883334 82 21 81.116666 21 80 L 21 61.535156 A 0.50005 0.50005 0 0 0 21 61.5 L 21 61 L 21 45.5 A 0.50005 0.50005 0 0 0 20.492188 44.992188 A 0.50005 0.50005 0 0 0 20 45.5 L 20 60 L 18.5 60 C 17.659188 60 17 59.340812 17 58.5 L 17 45 C 17 41.25757 20.909374 38 26 38 z M 34.5 54 A 0.50005 0.50005 0 1 0 34.5 55 L 35.5 55 A 0.50005 0.50005 0 1 0 35.5 54 L 34.5 54 z M 37.5 54 A 0.50005 0.50005 0 1 0 37.5 55 L 40.5 55 A 0.50005 0.50005 0 1 0 40.5 54 L 37.5 54 z M 43.5 63 C 41.708334 63 40.301922 63.689878 39.376953 64.730469 C 38.451984 65.77106 38 67.138889 38 68.5 C 38 69.861111 38.451984 71.22894 39.376953 72.269531 C 39.567251 72.483617 39.783455 72.677932 40.013672 72.859375 C 37.017163 74.526989 35 78.239583 35 82.5 A 0.50005 0.50005 0 1 0 36 82.5 C 36 78.301568 38.140659 74.767887 41.015625 73.476562 C 41.729464 73.807139 42.560358 74 43.5 74 C 44.361966 74 45.175237 73.794748 45.902344 73.439453 C 48.818791 74.699632 51 78.261529 51 82.5 A 0.50005 0.50005 0 0 0 51.457031 83.005859 A 0.50005 0.50005 0 0 0 51.507812 83.007812 A 0.50005 0.50005 0 0 0 52 82.5 C 52 78.301568 54.140659 74.767887 57.015625 73.476562 C 57.729464 73.807139 58.560358 74 59.5 74 C 60.361966 74 61.175237 73.794748 61.902344 73.439453 C 64.818791 74.699632 67 78.261529 67 82.5 A 0.50005 0.50005 0 0 0 67.457031 83.005859 A 0.50005 0.50005 0 0 0 67.507812 83.007812 A 0.50005 0.50005 0 0 0 68 82.5 C 68 78.301568 70.140659 74.767887 73.015625 73.476562 C 73.729464 73.807139 74.560358 74 75.5 74 C 76.361966 74 77.175237 73.794748 77.902344 73.439453 C 80.818791 74.699632 83 78.261529 83 82.5 A 0.50005 0.50005 0 1 0 84 82.5 C 84 78.199744 81.94534 74.456847 78.902344 72.8125 C 80.177481 71.804165 81 70.247281 81 68.5 C 81 65.468357 78.531645 63 75.5 63 C 73.708334 63 72.301922 63.689878 71.376953 64.730469 C 70.451984 65.77106 70 67.138889 70 68.5 C 70 69.861111 70.451984 71.22894 71.376953 72.269531 C 71.567251 72.483617 71.783455 72.677932 72.013672 72.859375 C 69.897248 74.037205 68.272546 76.235162 67.5 78.927734 C 66.717226 76.199514 65.059881 73.978371 62.902344 72.8125 C 64.177481 71.804165 65 70.247281 65 68.5 C 65 65.468357 62.531645 63 59.5 63 C 57.708334 63 56.301922 63.689878 55.376953 64.730469 C 54.451984 65.77106 54 67.138889 54 68.5 C 54 69.861111 54.451984 71.22894 55.376953 72.269531 C 55.567251 72.483617 55.783455 72.677932 56.013672 72.859375 C 53.897248 74.037205 52.272546 76.235162 51.5 78.927734 C 50.717226 76.199514 49.059881 73.978371 46.902344 72.8125 C 48.177481 71.804165 49 70.247281 49 68.5 C 49 65.468357 46.531645 63 43.5 63 z M 43.5 64 C 45.991206 64 48 66.008796 48 68.5 C 48 70.991204 45.991206 73 43.5 73 C 42.738595 73 42.087604 72.861865 41.533203 72.623047 A 0.50005 0.50005 0 0 0 41.097656 72.386719 A 0.50005 0.50005 0 0 0 41.072266 72.388672 C 40.707438 72.172178 40.391278 71.907229 40.123047 71.605469 C 39.38135 70.77106 39 69.638889 39 68.5 C 39 67.361111 39.38135 66.22894 40.123047 65.394531 C 40.864743 64.560122 41.958334 64 43.5 64 z M 59.5 64 C 61.991206 64 64 66.008796 64 68.5 C 64 70.991204 61.991206 73 59.5 73 C 58.738595 73 58.087604 72.861865 57.533203 72.623047 A 0.50005 0.50005 0 0 0 57.097656 72.386719 A 0.50005 0.50005 0 0 0 57.072266 72.388672 C 56.707438 72.172178 56.391278 71.907229 56.123047 71.605469 C 55.38135 70.77106 55 69.638889 55 68.5 C 55 67.361111 55.38135 66.22894 56.123047 65.394531 C 56.864743 64.560122 57.958334 64 59.5 64 z M 75.5 64 C 77.991206 64 80 66.008796 80 68.5 C 80 70.991204 77.991206 73 75.5 73 C 74.738595 73 74.087604 72.861865 73.533203 72.623047 A 0.50005 0.50005 0 0 0 73.097656 72.386719 A 0.50005 0.50005 0 0 0 73.072266 72.388672 C 72.707438 72.172178 72.391278 71.907229 72.123047 71.605469 C 71.38135 70.77106 71 69.638889 71 68.5 C 71 67.361111 71.38135 66.22894 72.123047 65.394531 C 72.864743 64.560122 73.958334 64 75.5 64 z"/></svg>