<svg fill="#000000" xmlns="http://www.w3.org/2000/svg"  viewBox="0 0 100 100" width="30px" height="30px"><path d="M 58 16 C 55.250421 16 53 18.250421 53 21 C 53 21.87616 53.248088 22.690075 53.648438 23.408203 L 44.773438 31.761719 C 43.854559 30.693288 42.510872 30 41 30 C 39.154212 30 37.551669 31.024954 36.685547 32.523438 L 27.726562 26.550781 C 27.889347 26.059196 28 25.544289 28 25 C 28 22.250421 25.749579 20 23 20 C 20.250421 20 18 22.250421 18 25 C 18 25.479015 18.089454 25.933591 18.216797 26.373047 L 12.236328 30.074219 A 0.50081172 0.50081172 0 1 0 12.763672 30.925781 L 18.597656 27.314453 C 19.438355 28.901024 21.088706 30 23 30 C 24.845788 30 26.448331 28.975046 27.314453 27.476562 L 36.273438 33.449219 C 36.110653 33.940804 36 34.455711 36 35 C 36 37.749579 38.250421 40 41 40 C 43.749579 40 46 37.749579 46 35 C 46 34.12384 45.751912 33.309925 45.351562 32.591797 L 54.226562 24.238281 C 55.145441 25.306712 56.489128 26 58 26 C 59.894516 26 61.531199 24.919381 62.378906 23.355469 L 72.232422 29.580078 C 72.09608 30.033556 72 30.503698 72 31 C 72 33.749579 74.250421 36 77 36 C 79.749579 36 82 33.749579 82 31 C 82 30.392149 81.874873 29.815531 81.673828 29.275391 L 87.791016 24.90625 A 0.50005 0.50005 0 0 0 87.472656 23.996094 A 0.50005 0.50005 0 0 0 87.208984 24.09375 L 81.226562 28.365234 C 80.340485 26.952126 78.781501 26 77 26 C 75.105484 26 73.468801 27.080619 72.621094 28.644531 L 62.767578 22.419922 C 62.90392 21.966444 63 21.496302 63 21 C 63 18.250421 60.749579 16 58 16 z M 58 18 C 59.668699 18 61 19.331301 61 21 C 61 22.668699 59.668699 24 58 24 C 56.331301 24 55 22.668699 55 21 C 55 19.331301 56.331301 18 58 18 z M 23 22 C 24.668699 22 26 23.331301 26 25 C 26 26.668699 24.668699 28 23 28 C 21.331301 28 20 26.668699 20 25 C 20 23.331301 21.331301 22 23 22 z M 77 28 C 78.668699 28 80 29.331301 80 31 C 80 32.668699 78.668699 34 77 34 C 75.331301 34 74 32.668699 74 31 C 74 29.331301 75.331301 28 77 28 z M 41 32 C 42.668699 32 44 33.331301 44 35 C 44 36.668699 42.668699 38 41 38 C 39.331301 38 38 36.668699 38 35 C 38 33.331301 39.331301 32 41 32 z M 53 42 A 1.0001 1.0001 0 0 0 52 43 L 52 82 L 48 82 L 48 65 A 1.0001 1.0001 0 0 0 47 64 L 35 64 A 1.0001 1.0001 0 0 0 34 65 L 34 82 L 30 82 L 30 50 A 1.0001 1.0001 0 0 0 29 49 L 17 49 A 1.0001 1.0001 0 0 0 16 50 L 16 82 L 13 82 A 1.0001 1.0001 0 1 0 13 84 L 87 84 A 1.0001 1.0001 0 1 0 87 82 L 84 82 L 84 59 A 1.0001 1.0001 0 0 0 83 58 L 71 58 A 1.0001 1.0001 0 0 0 70 59 L 70 82 L 66 82 L 66 43 A 1.0001 1.0001 0 0 0 65 42 L 53 42 z M 54 44 L 64 44 L 64 82 L 54 82 L 54 44 z M 56.492188 45.992188 A 0.50005 0.50005 0 0 0 56 46.5 L 56 48.5 A 0.50005 0.50005 0 1 0 57 48.5 L 57 46.5 A 0.50005 0.50005 0 0 0 56.492188 45.992188 z M 56.492188 50.992188 A 0.50005 0.50005 0 0 0 56 51.5 L 56 55.5 A 0.50005 0.50005 0 1 0 57 55.5 L 57 51.5 A 0.50005 0.50005 0 0 0 56.492188 50.992188 z M 18 51 L 28 51 L 28 82 L 18 82 L 18 51 z M 20.492188 52.992188 A 0.50005 0.50005 0 0 0 20 53.5 L 20 55.5 A 0.50005 0.50005 0 1 0 21 55.5 L 21 53.5 A 0.50005 0.50005 0 0 0 20.492188 52.992188 z M 20.492188 57.992188 A 0.50005 0.50005 0 0 0 20 58.5 L 20 62.5 A 0.50005 0.50005 0 1 0 21 62.5 L 21 58.5 A 0.50005 0.50005 0 0 0 20.492188 57.992188 z M 56.492188 57.992188 A 0.50005 0.50005 0 0 0 56 58.5 L 56 79.5 A 0.50005 0.50005 0 1 0 57 79.5 L 57 58.5 A 0.50005 0.50005 0 0 0 56.492188 57.992188 z M 72 60 L 82 60 L 82 82 L 72 82 L 72 60 z M 74.492188 62.992188 A 0.50005 0.50005 0 0 0 74 63.5 L 74 65.5 A 0.50005 0.50005 0 1 0 75 65.5 L 75 63.5 A 0.50005 0.50005 0 0 0 74.492188 62.992188 z M 20.492188 64.992188 A 0.50005 0.50005 0 0 0 20 65.5 L 20 79.5 A 0.50005 0.50005 0 1 0 21 79.5 L 21 65.5 A 0.50005 0.50005 0 0 0 20.492188 64.992188 z M 36 66 L 46 66 L 46 82 L 36 82 L 36 66 z M 38.492188 67.992188 A 0.50005 0.50005 0 0 0 38 68.5 L 38 70.5 A 0.50005 0.50005 0 1 0 39 70.5 L 39 68.5 A 0.50005 0.50005 0 0 0 38.492188 67.992188 z M 74.492188 67.992188 A 0.50005 0.50005 0 0 0 74 68.5 L 74 79.5 A 0.50005 0.50005 0 1 0 75 79.5 L 75 68.5 A 0.50005 0.50005 0 0 0 74.492188 67.992188 z M 38.492188 72.992188 A 0.50005 0.50005 0 0 0 38 73.5 L 38 79.5 A 0.50005 0.50005 0 1 0 39 79.5 L 39 73.5 A 0.50005 0.50005 0 0 0 38.492188 72.992188 z"/></svg>