<svg fill="#000000" xmlns="http://www.w3.org/2000/svg"  viewBox="0 0 16 16" width="32px" height="32px"><path d="M 4.5 2 C 3.6774686 2 3 2.6774686 3 3.5 L 3 8 L 4 8 L 4 3.5 C 4 3.2185314 4.2185314 3 4.5 3 L 9 3 L 9 6 L 12 6 L 12 8 L 13 8 L 13 5.2929688 L 9.7070312 2 L 4.5 2 z M 10 3.7070312 L 11.292969 5 L 10 5 L 10 3.7070312 z M 4.5 9 C 3.6774686 9 3 9.6774686 3 10.5 L 3 11.5 L 3 12.5 C 3 13.322531 3.6774686 14 4.5 14 C 5.3225314 14 6 13.322531 6 12.5 L 5 12.5 C 5 12.781469 4.7814686 13 4.5 13 C 4.2185314 13 4 12.781469 4 12.5 L 4 11.5 L 4 10.5 C 4 10.218531 4.2185314 10 4.5 10 C 4.7814686 10 5 10.218531 5 10.5 L 6 10.5 C 6 9.6774686 5.3225314 9 4.5 9 z M 8.5 9 C 7.91 9 7.5649062 9.2384531 7.3789062 9.4394531 C 6.9679063 9.8824531 6.9989531 10.472 7.0019531 10.5 C 7.0019531 11.308 7.7364375 11.672453 8.2734375 11.939453 C 8.6994375 12.150453 9 12.313812 9 12.507812 C 9 12.509813 8.990375 12.751766 8.859375 12.884766 C 8.830375 12.913766 8.747 13 8.5 13 L 7.0917969 13 C 7.1517969 13.191 7.2476875 13.402891 7.4296875 13.587891 C 7.6146875 13.775891 7.951 14 8.5 14 C 9.049 14 9.3862656 13.774937 9.5722656 13.585938 C 9.9982656 13.152938 9.9990469 12.558 9.9980469 12.5 C 9.9980469 11.68 9.2577969 11.311969 8.7167969 11.042969 C 8.2977969 10.834969 8.0029531 10.67375 8.0019531 10.46875 C 8.0019531 10.46675 7.9932812 10.242187 8.1132812 10.117188 C 8.1872812 10.040188 8.318 10 8.5 10 L 9.9140625 10 C 9.7460625 9.497 9.316 9 8.5 9 z M 11 9 L 12 14 L 13 14 L 14 9 L 13 9 L 12.5 11.875 L 12 9 L 11 9 z"/></svg>