<?xml version="1.0"?><svg fill="#000000" xmlns="http://www.w3.org/2000/svg"  viewBox="0 0 100 100" width="50px" height="50px">    <path d="M 45.916016 24.033203 C 40.726016 24.015953 36.348609 24.014375 34.537109 24.046875 C 31.553109 24.101875 29.561844 26.137375 29.464844 29.234375 C 29.431844 30.327375 29.438312 31.421625 29.445312 32.515625 C 29.452313 33.367625 29.458359 34.221266 29.443359 35.072266 C 29.427359 36.012266 29.440172 36.794891 29.451172 37.462891 C 29.502172 40.698891 29.503375 40.759922 25.609375 43.794922 C 23.826375 45.183922 22.929312 47.118969 22.945312 49.542969 C 22.983313 55.326969 22.978656 61.109531 22.972656 66.894531 L 22.970703 73.996094 C 22.971703 78.133094 24.938828 79.929641 29.048828 79.931641 L 29.275391 79.931641 C 32.104391 79.931641 38.444344 79.934156 45.402344 79.910156 C 55.084344 79.877156 66.043875 79.947891 69.921875 79.962891 C 71.988875 79.933891 73.425391 79.500297 74.400391 78.529297 C 75.381391 77.551297 75.858375 76.071 75.859375 74 L 75.859375 70.140625 C 75.861375 59.159625 75.866656 35.675422 75.847656 29.482422 C 75.837656 26.254422 73.858734 24.162344 70.802734 24.152344 C 68.928734 24.146344 65.820734 24.130328 62.177734 24.111328 C 57.110234 24.083828 51.106016 24.050453 45.916016 24.033203 z M 34.568359 25.888672 C 35.566359 25.869672 68.942359 25.964703 70.818359 25.970703 C 73.464359 25.979703 74.003812 28.270672 74.007812 29.513672 C 74.015812 32.224672 74.006812 38.340687 74.007812 45.179688 L 42.443359 45.0625 C 42.167359 45.0625 41.943359 45.2865 41.943359 45.5625 C 41.943359 45.8385 42.209328 45.929687 42.486328 45.929688 L 73.986328 45.951172 C 73.988328 54.491172 74.027344 73.992188 74.027344 73.992188 C 74.027344 75.504188 73.573281 76.528328 72.988281 77.111328 C 72.414281 77.683328 71.465859 78.117188 70.005859 78.117188 L 69.966797 78.117188 C 66.090797 78.106188 55.067859 77.984578 45.380859 78.017578 C 38.233859 78.041578 31.682047 78.0485 28.998047 78.0625 C 26.026047 78.0615 24.842797 77.057687 24.841797 74.054688 C 24.841797 74.054688 24.836828 55.362219 24.798828 49.574219 C 24.786828 47.754219 25.535891 46.385141 26.837891 45.369141 C 31.344891 41.858141 31.510219 41.236688 31.449219 37.429688 C 31.439219 36.780687 31.452313 33.368 31.445312 32.5 C 31.438312 31.432 31.430844 30.363875 31.464844 29.296875 C 31.528844 27.265875 32.655359 25.923672 34.568359 25.888672 z M 37.005859 28.0625 C 35.869859 28.0625 34.943359 28.978516 34.943359 30.103516 L 34.943359 37.908203 C 34.944359 39.034203 35.870859 39.949219 37.005859 39.949219 L 38.884766 39.949219 C 40.020766 39.949219 40.945312 39.033203 40.945312 37.908203 L 40.945312 30.103516 C 40.945312 28.977516 40.020766 28.0625 38.884766 28.0625 L 37.005859 28.0625 z M 47.005859 28.0625 C 45.869859 28.0625 44.943359 28.978516 44.943359 30.103516 L 44.943359 37.908203 C 44.944359 39.034203 45.870859 39.949219 47.005859 39.949219 L 48.884766 39.949219 C 50.020766 39.949219 50.945312 39.033203 50.945312 37.908203 L 50.945312 30.103516 C 50.945312 28.977516 50.020766 28.0625 48.884766 28.0625 L 47.005859 28.0625 z M 57.005859 28.0625 C 55.869859 28.0625 54.943359 28.978516 54.943359 30.103516 L 54.943359 37.908203 C 54.944359 39.034203 55.870859 39.949219 57.005859 39.949219 L 58.884766 39.949219 C 60.020766 39.949219 60.945312 39.033203 60.945312 37.908203 L 60.945312 30.103516 C 60.945312 28.977516 60.020766 28.0625 58.884766 28.0625 L 57.005859 28.0625 z M 66.005859 28.0625 C 64.869859 28.0625 63.943359 28.978516 63.943359 30.103516 L 63.943359 37.908203 C 63.944359 39.034203 64.870859 39.949219 66.005859 39.949219 L 67.884766 39.949219 C 69.020766 39.949219 69.945312 39.033203 69.945312 37.908203 L 69.945312 30.103516 C 69.945312 28.977516 69.020766 28.0625 67.884766 28.0625 L 66.005859 28.0625 z M 37.005859 29.052734 L 38.884766 29.052734 C 39.469766 29.052734 39.945313 29.523516 39.945312 30.103516 L 39.945312 37.908203 C 39.945312 38.487203 39.469766 38.960938 38.884766 38.960938 L 37.005859 38.960938 C 36.420859 38.960938 35.945312 38.488203 35.945312 37.908203 L 35.945312 30.103516 C 35.945312 29.524516 36.420859 29.052734 37.005859 29.052734 z M 47.005859 29.052734 L 48.884766 29.052734 C 49.469766 29.052734 49.945313 29.523516 49.945312 30.103516 L 49.945312 37.908203 C 49.945312 38.487203 49.469766 38.960938 48.884766 38.960938 L 47.005859 38.960938 C 46.420859 38.960938 45.945312 38.488203 45.945312 37.908203 L 45.945312 30.103516 C 45.945312 29.524516 46.420859 29.052734 47.005859 29.052734 z M 57.005859 29.052734 L 58.884766 29.052734 C 59.469766 29.052734 59.945313 29.523516 59.945312 30.103516 L 59.945312 37.908203 C 59.945312 38.487203 59.469766 38.960938 58.884766 38.960938 L 57.005859 38.960938 C 56.420859 38.960938 55.945312 38.488203 55.945312 37.908203 L 55.945312 30.103516 C 55.945312 29.524516 56.420859 29.052734 57.005859 29.052734 z M 66.005859 29.052734 L 67.884766 29.052734 C 68.469766 29.052734 68.945313 29.523516 68.945312 30.103516 L 68.945312 37.908203 C 68.945312 38.487203 68.469766 38.960938 67.884766 38.960938 L 66.005859 38.960938 C 65.420859 38.960938 64.945313 38.488203 64.945312 37.908203 L 64.945312 30.103516 C 64.945312 29.524516 65.420859 29.052734 66.005859 29.052734 z M 34.445312 45.0625 C 34.169312 45.0625 33.945312 45.256094 33.945312 45.496094 C 33.945312 45.736094 34.169312 45.929688 34.445312 45.929688 L 36.445312 45.929688 C 36.721313 45.929688 36.945312 45.736094 36.945312 45.496094 C 36.945312 45.256094 36.721313 45.0625 36.445312 45.0625 L 34.445312 45.0625 z M 39.445312 45.0625 C 39.169312 45.0625 38.945312 45.256094 38.945312 45.496094 C 38.945312 45.736094 39.169312 45.929688 39.445312 45.929688 L 40.445312 45.929688 C 40.721313 45.929688 40.945312 45.736094 40.945312 45.496094 C 40.945312 45.256094 40.721313 45.0625 40.445312 45.0625 L 39.445312 45.0625 z M 32.496094 50.0625 C 30.538094 50.0625 28.945312 51.655281 28.945312 53.613281 L 28.945312 69.511719 C 28.945312 71.469719 30.508797 72.908203 32.466797 72.908203 L 55.486328 72.929688 C 55.762328 72.929688 55.945313 72.8385 55.945312 72.5625 C 55.945312 72.2865 55.721313 72.0625 55.445312 72.0625 L 32.496094 72.0625 C 31.090094 72.0625 29.945312 70.918719 29.945312 69.511719 L 29.945312 53.613281 C 29.945312 52.206281 31.079328 50.908203 32.486328 50.908203 L 65.361328 50.867188 C 66.767328 50.867188 67.945312 52.206281 67.945312 53.613281 L 67.945312 69.511719 C 67.945312 70.918719 66.800531 72.0625 65.394531 72.0625 L 63.445312 72.0625 C 63.169312 72.0625 62.945313 72.2865 62.945312 72.5625 C 62.945312 72.8385 63.177125 72.949219 63.453125 72.949219 L 65.402344 72.949219 C 67.360344 72.949219 68.945312 71.469719 68.945312 69.511719 L 68.945312 53.613281 C 68.945312 51.655281 67.352531 50.0625 65.394531 50.0625 L 32.496094 50.0625 z M 59.445312 72.0625 C 59.169312 72.0625 58.945312 72.260859 58.945312 72.505859 C 58.945312 72.750859 59.169312 72.949219 59.445312 72.949219 L 61.445312 72.949219 C 61.721313 72.949219 61.945313 72.750859 61.945312 72.505859 C 61.945312 72.260859 61.721312 72.0625 61.445312 72.0625 L 59.445312 72.0625 z"/></svg>