<svg fill="#000000" xmlns="http://www.w3.org/2000/svg"  viewBox="0 0 100 100" width="50px" height="50px"><path d="M 36.5 12 C 33.994003 12 31.712239 12.585951 29.982422 13.603516 C 28.252604 14.62108 27 16.160005 27 18 L 27 28 L 27 70 A 1.0001 1.0001 0 0 0 27 70.007812 A 1.0001 1.0001 0 0 0 27.005859 70.099609 A 1.0001 1.0001 0 0 0 27.015625 70.177734 A 1.0001 1.0001 0 0 0 27.021484 70.210938 A 1.0001 1.0001 0 0 0 27.037109 70.267578 A 1.0001 1.0001 0 0 0 27.050781 70.3125 A 1.0001 1.0001 0 0 0 27.060547 70.341797 A 1.0001 1.0001 0 0 0 27.085938 70.404297 L 34.585938 87.404297 A 1.0001 1.0001 0 0 0 35.5 88 L 37.5 88 A 1.0001 1.0001 0 0 0 38.414062 87.404297 L 45.914062 70.404297 A 1.0001 1.0001 0 0 0 45.925781 70.373047 A 1.0001 1.0001 0 0 0 45.931641 70.361328 A 1.0001 1.0001 0 0 0 45.935547 70.351562 A 1.0001 1.0001 0 0 0 45.960938 70.275391 A 1.0001 1.0001 0 0 0 45.962891 70.267578 A 1.0001 1.0001 0 0 0 45.976562 70.212891 A 1.0001 1.0001 0 0 0 45.978516 70.203125 A 1.0001 1.0001 0 0 0 45.990234 70.136719 A 1.0001 1.0001 0 0 0 45.996094 70.091797 A 1.0001 1.0001 0 0 0 46 70.029297 A 1.0001 1.0001 0 0 0 46 70.015625 A 1.0001 1.0001 0 0 0 46 70 L 46 28 L 46 18 C 46 16.160005 44.747396 14.62108 43.017578 13.603516 C 41.287761 12.585951 39.005997 12 36.5 12 z M 36.5 14 C 38.688003 14 40.657224 14.533986 42.003906 15.326172 C 43.350589 16.118357 44 17.078995 44 18 L 44 21 L 43.5 21 A 0.50005 0.50005 0 1 0 43.5 22 L 44 22 L 44 24 L 29 24 L 29 22 L 41.5 22 A 0.50005 0.50005 0 1 0 41.5 21 L 29 21 L 29 18 C 29 17.078995 29.649411 16.118357 30.996094 15.326172 C 32.342776 14.533986 34.311997 14 36.5 14 z M 53 14 A 1.0001 1.0001 0 0 0 52 15 L 52 67 A 1.0001 1.0001 0 1 0 54 67 L 54 16 L 71 16 L 71 30 L 68.5 30 A 0.50005 0.50005 0 1 0 68.5 31 L 71 31 L 71 40 L 68.5 40 A 0.50005 0.50005 0 1 0 68.5 41 L 71 41 L 71 50 L 68.5 50 A 0.50005 0.50005 0 1 0 68.5 51 L 71 51 L 71 60 L 68.5 60 A 0.50005 0.50005 0 1 0 68.5 61 L 71 61 L 71 70 L 68.5 70 A 0.50005 0.50005 0 1 0 68.5 71 L 71 71 L 71 84 L 54 84 L 54 77 A 1.0001 1.0001 0 1 0 52 77 L 52 85 A 1.0001 1.0001 0 0 0 53 86 L 72 86 A 1.0001 1.0001 0 0 0 73 85 L 73 15 A 1.0001 1.0001 0 0 0 72 14 L 53 14 z M 29 25 L 44 25 L 44 27 L 29 27 L 29 25 z M 29 29 L 31 29 L 31 69 L 29 69 L 29 29 z M 32 29 L 34 29 L 34 69 L 32 69 L 32 29 z M 35 29 L 38 29 L 38 32.5 A 0.50005 0.50005 0 1 0 39 32.5 L 39 29 L 41 29 L 41 62.5 A 0.50005 0.50005 0 1 0 42 62.5 L 42 29 L 44 29 L 44 69 L 39 69 L 39 34.5 A 0.50005 0.50005 0 0 0 38.492188 33.992188 A 0.50005 0.50005 0 0 0 38 34.5 L 38 69 L 35 69 L 35 29 z M 41.492188 63.992188 A 0.50005 0.50005 0 0 0 41 64.5 L 41 66.5 A 0.50005 0.50005 0 1 0 42 66.5 L 42 64.5 A 0.50005 0.50005 0 0 0 41.492188 63.992188 z M 52.984375 69.986328 A 1.0001 1.0001 0 0 0 52 71 L 52 72 A 1.0001 1.0001 0 1 0 54 72 L 54 71 A 1.0001 1.0001 0 0 0 52.984375 69.986328 z M 29.533203 71 L 43.466797 71 L 39.496094 80 L 33.503906 80 L 29.533203 71 z M 62.5 76 C 61.708334 76 61.051923 76.314878 60.626953 76.792969 C 60.201984 77.27106 60 77.888889 60 78.5 C 60 79.111111 60.201984 79.72894 60.626953 80.207031 C 61.051923 80.685122 61.708334 81 62.5 81 C 63.291666 81 63.948077 80.685122 64.373047 80.207031 C 64.798016 79.72894 65 79.111111 65 78.5 C 65 77.888889 64.798016 77.27106 64.373047 76.792969 C 63.948077 76.314878 63.291666 76 62.5 76 z M 62.5 77 C 63.041666 77 63.385256 77.185122 63.626953 77.457031 C 63.86865 77.72894 64 78.111111 64 78.5 C 64 78.888889 63.86865 79.27106 63.626953 79.542969 C 63.385256 79.814878 63.041666 80 62.5 80 C 61.958334 80 61.614744 79.814878 61.373047 79.542969 C 61.13135 79.27106 61 78.888889 61 78.5 C 61 78.111111 61.13135 77.72894 61.373047 77.457031 C 61.614744 77.185122 61.958334 77 62.5 77 z M 33.945312 81 L 39.054688 81 L 36.847656 86 L 36.152344 86 L 33.945312 81 z"/></svg>