<svg fill="#000000" xmlns="http://www.w3.org/2000/svg"  viewBox="0 0 100 100" width="50px" height="50px"><path d="M 50 11 C 44.56953 11 39.691557 12.714753 36.357422 15.507812 A 1.0001 1.0001 0 0 0 36.056641 16.609375 L 41.308594 31.404297 C 29.552569 35.107972 21 46.033281 21 59 L 21 77.107422 C 21 77.107647 21.016138 77.095503 20.986328 77.101562 A 1.0001 1.0001 0 0 0 20.984375 77.103516 C 18.554724 77.60521 16.775835 79.884023 17.023438 82.486328 C 17.274443 85.109429 19.593288 87 22.169922 87 L 77.830078 87 C 80.406712 87 82.726787 85.110927 82.976562 82.488281 C 83.224104 79.886624 81.444348 77.60597 79.015625 77.103516 L 79.013672 77.103516 C 78.996002 77.101217 79 77.10762 79 77.107422 L 79 59.582031 C 79 46.988519 71.085512 36.029414 59.859375 31.861328 L 68.486328 30.955078 A 0.50005 0.50005 0 0 0 68.496094 30.955078 C 69.341583 30.849675 70.17264 30.484756 70.828125 29.828125 C 72.386379 28.27101 72.38617 25.72992 70.828125 24.171875 C 70.049069 23.392853 69.024766 23.001953 68 23.001953 C 66.975234 23.001953 65.950897 23.392853 65.171875 24.171875 C 65.180075 24.163675 63.382386 25.948473 61.634766 27.683594 C 60.33277 28.976277 59.613922 29.689161 59.037109 30.261719 L 63.941406 16.613281 A 1.0001 1.0001 0 0 0 63.642578 15.507812 C 60.308443 12.714753 55.43047 11 50 11 z M 50 13 C 54.720008 13 58.89895 14.460504 61.798828 16.662109 L 56.408203 31.662109 A 1.0001 1.0001 0 0 0 56.351562 32 L 54.5 32 A 0.50005 0.50005 0 1 0 54.5 33 L 57.197266 33 C 57.288637 33.025835 57.375829 33.061097 57.466797 33.087891 C 57.685364 33.524674 58.601572 35.43949 59.640625 39.376953 C 60.817634 43.837196 62 50.543981 62 59.5 A 0.50005 0.50005 0 1 0 63 59.5 C 63 50.456019 61.807366 43.662804 60.609375 39.123047 C 60.023621 36.903348 59.438954 35.251134 58.988281 34.105469 C 60.68849 35.257961 64.031834 37.911454 65.955078 44.636719 A 0.50005 0.50005 0 1 0 66.916016 44.363281 C 65.523688 39.494544 63.044649 36.337881 61.042969 34.423828 C 70.489357 38.777823 77 48.528492 77 59.582031 L 77 77.107422 C 77 78.065197 77.703107 78.874662 78.609375 79.0625 C 80.063724 79.362806 81.138725 80.697133 80.986328 82.298828 C 80.840104 83.834183 79.431444 85 77.830078 85 L 22.169922 85 C 20.568556 85 19.160711 83.833768 19.013672 82.296875 C 18.861372 80.6962 19.93378 79.363929 21.386719 79.0625 L 21.388672 79.060547 C 22.295493 78.873635 23 78.064239 23 77.107422 L 23 59 C 23 46.594635 31.360412 36.172752 42.742188 33.001953 C 42.743387 33.001622 42.744894 33.002284 42.746094 33.001953 A 1.0001 1.0001 0 0 0 42.755859 33 L 51.5 33 A 0.50005 0.50005 0 1 0 51.5 32 L 43.59375 32 A 1.0001 1.0001 0 0 0 43.464844 31.501953 L 38.199219 16.664062 C 41.099157 14.461548 45.278845 13 50 13 z M 68 23.996094 C 68.766734 23.996094 69.533116 24.290929 70.121094 24.878906 C 71.297049 26.054862 71.296839 27.946208 70.121094 29.121094 C 69.632579 29.610463 69.019558 29.88034 68.373047 29.960938 L 59.861328 30.853516 C 60.473596 30.245645 61.097991 29.625548 62.339844 28.392578 C 64.087473 26.657449 65.801707 24.956106 65.878906 24.878906 C 66.466884 24.290929 67.233266 23.996094 68 23.996094 z M 66.912109 45.992188 A 0.50005 0.50005 0 0 0 66.431641 46.599609 C 66.618999 47.525613 66.763915 48.506817 66.861328 49.546875 A 0.50024802 0.50024802 0 1 0 67.857422 49.453125 C 67.756835 48.379183 67.604798 47.362387 67.410156 46.400391 A 0.50005 0.50005 0 0 0 66.912109 45.992188 z M 50.478516 46 C 50.227516 46 50.016656 46.074609 49.847656 46.224609 C 49.676656 46.372609 49.591797 46.535797 49.591797 46.716797 L 49.591797 47.738281 C 48.770797 47.806281 48.006781 47.959266 47.300781 48.197266 C 46.593781 48.435266 45.926781 48.780375 45.300781 49.234375 C 44.673781 49.688375 44.178453 50.308797 43.814453 51.091797 C 43.449453 51.875797 43.267578 52.779641 43.267578 53.806641 C 43.267578 54.649641 43.404734 55.409031 43.677734 56.082031 C 43.951734 56.754031 44.251031 57.290453 44.582031 57.689453 C 44.912031 58.089453 45.415891 58.481141 46.087891 58.869141 C 46.759891 59.258141 47.311141 59.532406 47.744141 59.691406 L 49.591797 60.375 L 49.591797 69.476562 C 48.694797 69.430562 47.888781 69.265469 47.175781 68.980469 C 46.461781 68.695469 45.940281 68.387641 45.613281 68.056641 C 45.286281 67.725641 44.965391 67.423391 44.650391 67.150391 C 44.334391 66.876391 44.08625 66.738281 43.90625 66.738281 C 43.58825 66.738281 43.300063 66.909953 43.039062 67.251953 C 42.778062 67.594953 42.650391 67.9475 42.650391 68.3125 C 42.650391 69.1085 43.315391 69.927578 44.650391 70.767578 C 45.983391 71.608578 47.631797 72.039547 49.591797 72.060547 L 49.591797 73.246094 C 49.591797 73.438094 49.676656 73.612578 49.847656 73.767578 C 50.018656 73.922578 50.227516 74 50.478516 74 C 50.705516 74 50.91175 73.922578 51.09375 73.767578 C 51.27575 73.611578 51.365234 73.439047 51.365234 73.248047 L 51.365234 71.958984 C 53.200234 71.711984 54.658375 71.017047 55.734375 69.873047 C 56.810375 68.730047 57.349609 67.171266 57.349609 65.197266 C 57.349609 64.080266 57.184469 63.104484 56.855469 62.271484 C 56.527469 61.439484 56.040531 60.75475 55.394531 60.21875 C 54.747531 59.68375 54.136594 59.262125 53.558594 58.953125 C 52.980594 58.646125 52.251188 58.331719 51.367188 58.011719 L 51.367188 50.21875 C 52.347187 50.26475 53.257656 50.485813 54.097656 50.882812 C 54.937656 51.279812 55.413344 51.476562 55.527344 51.476562 C 55.895344 51.476563 56.193828 51.296594 56.423828 50.933594 C 56.653828 50.571594 56.769531 50.230109 56.769531 49.912109 C 56.769531 49.278109 56.21075 48.762234 55.09375 48.365234 C 53.97675 47.968234 52.735188 47.736969 51.367188 47.667969 L 51.367188 46.714844 C 51.367187 46.533844 51.27575 46.370656 51.09375 46.222656 C 50.91175 46.074656 50.706516 46 50.478516 46 z M 49.726562 50.265625 L 49.726562 57.431641 C 48.461562 56.974641 47.519438 56.479359 46.898438 55.943359 C 46.277437 55.408359 45.966797 54.60325 45.966797 53.53125 C 45.966797 51.60325 47.218562 50.514625 49.726562 50.265625 z M 67.457031 50.994141 A 0.50005 0.50005 0 0 0 66.980469 51.515625 C 66.990469 51.845625 67 52.169804 67 52.5 A 0.50005 0.50005 0 1 0 68 52.5 C 68 52.150196 67.990499 51.814375 67.980469 51.484375 A 0.50005 0.50005 0 0 0 67.457031 50.994141 z M 51.230469 61.023438 C 52.324469 61.479438 53.166766 62.039172 53.759766 62.701172 C 54.352766 63.363172 54.648438 64.285656 54.648438 65.472656 C 54.648438 67.730656 53.509469 69.04225 51.230469 69.40625 L 51.230469 61.023438 z"/></svg>