<svg fill="#000000" xmlns="http://www.w3.org/2000/svg"  viewBox="0 0 100 100" width="50px" height="50px"><path d="M 29 9 C 22.936593 9 18 13.936593 18 20 L 18 80 C 18 86.063407 22.936593 91 29 91 L 71 91 C 77.063407 91 82 86.063407 82 80 L 82 20 C 82 13.936593 77.063407 9 71 9 L 29 9 z M 29 11 L 71 11 C 75.982593 11 80 15.017407 80 20 L 80 80 C 80 84.982593 75.982593 89 71 89 L 29 89 C 24.017407 89 20 84.982593 20 80 L 20 20 C 20 15.017407 24.017407 11 29 11 z M 32.5 16 C 28.363781 16 25 19.363781 25 23.5 L 25 76.5 C 25 80.636219 28.363781 84 32.5 84 L 67.5 84 C 71.636219 84 75 80.636219 75 76.5 L 75 59.5 A 0.50005 0.50005 0 1 0 74 59.5 L 74 76.5 C 74 80.095781 71.095781 83 67.5 83 L 32.5 83 C 28.904219 83 26 80.095781 26 76.5 L 26 23.5 C 26 19.904219 28.904219 17 32.5 17 A 0.50005 0.50005 0 1 0 32.5 16 z M 40.5 23 C 36.916071 23 34 25.916071 34 29.5 C 34 31.719568 35.12135 33.680286 36.824219 34.853516 C 32.788739 36.783666 30 41.740488 30 47.5 A 0.50005 0.50005 0 1 0 31 47.5 C 31 41.728272 33.997502 36.926508 37.933594 35.46875 C 38.721703 35.809002 39.588509 36 40.5 36 C 41.411491 36 42.278297 35.809002 43.066406 35.46875 C 47.002498 36.926508 50 41.728272 50 47.5 A 0.50005 0.50005 0 1 0 51 47.5 C 51 41.740488 48.211261 36.783668 44.175781 34.853516 C 45.87865 33.680286 47 31.719568 47 29.5 C 47 25.916071 44.083929 23 40.5 23 z M 40.5 24 C 43.543488 24 46 26.456512 46 29.5 C 46 31.690301 44.722727 33.571582 42.875 34.457031 A 0.50005 0.50005 0 0 0 42.785156 34.5 L 42.783203 34.5 C 42.087294 34.817507 41.316501 35 40.5 35 C 39.676031 35 38.898091 34.815193 38.197266 34.492188 A 0.50005 0.50005 0 0 0 38.191406 34.490234 A 0.50005 0.50005 0 0 0 38.128906 34.458984 C 36.278193 33.574649 35 31.692481 35 29.5 C 35 26.456512 37.456512 24 40.5 24 z M 54.5 25 A 0.50005 0.50005 0 1 0 54.5 26 L 69.5 26 A 0.50005 0.50005 0 1 0 69.5 25 L 54.5 25 z M 54.5 32 A 0.50005 0.50005 0 1 0 54.5 33 L 69.5 33 A 0.50005 0.50005 0 1 0 69.5 32 L 54.5 32 z M 54.5 39 A 0.50005 0.50005 0 1 0 54.5 40 L 69.5 40 A 0.50005 0.50005 0 1 0 69.5 39 L 54.5 39 z M 74.492188 45.992188 A 0.50005 0.50005 0 0 0 74 46.5 L 74 49.5 A 0.50005 0.50005 0 1 0 75 49.5 L 75 46.5 A 0.50005 0.50005 0 0 0 74.492188 45.992188 z M 54.5 46 A 0.50005 0.50005 0 1 0 54.5 47 L 69.5 47 A 0.50005 0.50005 0 1 0 69.5 46 L 54.5 46 z M 74.492188 50.992188 A 0.50005 0.50005 0 0 0 74 51.5 L 74 57.5 A 0.50005 0.50005 0 1 0 75 57.5 L 75 51.5 A 0.50005 0.50005 0 0 0 74.492188 50.992188 z M 30.5 53 A 0.50005 0.50005 0 1 0 30.5 54 L 69.5 54 A 0.50005 0.50005 0 1 0 69.5 53 L 30.5 53 z M 30.5 60 A 0.50005 0.50005 0 1 0 30.5 61 L 43.5 61 A 0.50005 0.50005 0 1 0 43.5 60 L 30.5 60 z M 46.5 60 A 0.50005 0.50005 0 1 0 46.5 61 L 69.5 61 A 0.50005 0.50005 0 1 0 69.5 60 L 46.5 60 z M 30.5 67 A 0.50005 0.50005 0 1 0 30.5 68 L 46.5 68 A 0.50005 0.50005 0 1 0 46.5 67 L 30.5 67 z M 49.5 67 A 0.50005 0.50005 0 1 0 49.5 68 L 59.5 68 A 0.50005 0.50005 0 1 0 59.5 67 L 49.5 67 z M 62.5 67 A 0.50005 0.50005 0 1 0 62.5 68 L 69.5 68 A 0.50005 0.50005 0 1 0 69.5 67 L 62.5 67 z M 30.5 74 A 0.50005 0.50005 0 1 0 30.5 75 L 53.5 75 A 0.50005 0.50005 0 1 0 53.5 74 L 30.5 74 z M 56.5 74 A 0.50005 0.50005 0 1 0 56.5 75 L 69.5 75 A 0.50005 0.50005 0 1 0 69.5 74 L 56.5 74 z"/></svg>