<svg fill="#000000" xmlns="http://www.w3.org/2000/svg"  viewBox="0 0 100 100" width="50px" height="50px"><path d="M 50 12 C 48.597386 12 47.372155 12.98477 47.070312 14.353516 L 43.136719 32.203125 C 42.803982 33.714253 43.081529 35.288033 43.90625 36.603516 L 43.90625 36.605469 L 45.712891 39.482422 C 44.284205 40.596034 43.296732 42.24717 43.060547 44.128906 L 39.681641 44.003906 L 39.679688 44.003906 C 38.12963 43.947696 36.629666 44.492397 35.486328 45.53125 L 21.996094 57.800781 C 20.961567 58.742619 20.719566 60.294413 21.421875 61.505859 C 22.124302 62.717509 23.588539 63.282056 24.923828 62.861328 L 42.347656 57.369141 C 43.821852 56.904553 45.047208 55.883364 45.775391 54.515625 L 45.775391 54.513672 L 47.384766 51.486328 C 48.19412 51.814704 49.075493 52 50 52 C 50.923861 52 51.804389 51.814268 52.613281 51.486328 L 54.224609 54.517578 C 54.952212 55.88408 56.178857 56.905529 57.652344 57.371094 L 75.076172 62.861328 C 76.410114 63.28061 77.87454 62.718877 78.578125 61.507812 C 79.282128 60.29603 79.038129 58.742759 78.001953 57.800781 L 64.511719 45.53125 C 63.369117 44.491975 61.869203 43.947708 60.318359 44.003906 L 60.316406 44.003906 L 56.939453 44.128906 C 56.703268 42.24717 55.715795 40.596034 54.287109 39.482422 L 56.095703 36.603516 C 56.920278 35.288264 57.195887 33.712906 56.863281 32.201172 L 52.929688 14.353516 C 52.626528 12.985565 51.402614 12 50 12 z M 50 14 C 50.474809 14 50.873128 14.322017 50.976562 14.785156 L 54.910156 32.632812 C 55.131551 33.639078 54.953816 34.658267 54.400391 35.541016 L 52.548828 38.490234 C 51.757353 38.178411 50.899667 38 50 38 C 49.100333 38 48.242647 38.178411 47.451172 38.490234 L 45.599609 35.541016 C 45.04633 34.658498 44.86858 33.637685 45.089844 32.632812 L 49.023438 14.785156 C 49.125596 14.321902 49.524614 14 50 14 z M 41.910156 14.052734 A 0.50005 0.50005 0 0 0 41.777344 14.072266 C 28.559367 17.577417 18.701364 29.325087 18.037109 43.476562 A 0.50054913 0.50054913 0 1 0 19.037109 43.523438 C 19.680854 29.808912 29.231179 18.433912 42.033203 15.039062 A 0.50005 0.50005 0 0 0 41.910156 14.052734 z M 58.074219 14.052734 A 0.50005 0.50005 0 0 0 57.966797 15.039062 C 58.430039 15.161485 58.89017 15.298117 59.349609 15.443359 A 0.50066051 0.50066051 0 0 0 59.650391 14.488281 C 59.17983 14.339523 58.705414 14.199844 58.222656 14.072266 A 0.50005 0.50005 0 0 0 58.074219 14.052734 z M 61.488281 15.173828 A 0.50005 0.50005 0 0 0 61.316406 16.140625 C 62.628654 16.655483 63.898412 17.254834 65.115234 17.935547 A 0.50005 0.50005 0 1 0 65.603516 17.064453 C 64.346338 16.361166 63.037346 15.742079 61.683594 15.210938 A 0.50005 0.50005 0 0 0 61.488281 15.173828 z M 40.667969 19.695312 A 0.50005 0.50005 0 0 0 40.486328 19.728516 C 30.268893 23.577253 23 33.442389 23 45 C 23 46.509584 23.128962 47.987181 23.367188 49.427734 A 0.50005 0.50005 0 1 0 24.353516 49.265625 C 24.123741 47.876178 24 46.452416 24 45 C 24 33.861611 31.003279 24.36933 40.839844 20.664062 A 0.50005 0.50005 0 0 0 40.667969 19.695312 z M 59.318359 19.695312 A 0.50005 0.50005 0 0 0 59.160156 20.664062 C 68.996721 24.36933 76 33.861611 76 45 C 76 46.452416 75.876259 47.876178 75.646484 49.265625 A 0.50005 0.50005 0 1 0 76.632812 49.427734 C 76.871038 47.987181 77 46.509584 77 45 C 77 33.442389 69.731107 23.577249 59.513672 19.728516 A 0.50005 0.50005 0 0 0 59.318359 19.695312 z M 73.892578 23.994141 A 0.50005 0.50005 0 0 0 73.529297 24.826172 C 78.184727 30.248321 81 37.290781 81 45 C 81 47.803056 80.621682 50.514908 79.923828 53.097656 A 0.50079768 0.50079768 0 1 0 80.890625 53.359375 C 81.610771 50.694123 82 47.892944 82 45 C 82 37.047219 79.093632 29.769679 74.289062 24.173828 A 0.50005 0.50005 0 0 0 73.892578 23.994141 z M 50 40 C 50.206868 40 50.409787 40.01456 50.609375 40.039062 C 50.652858 40.044289 50.695159 40.054223 50.738281 40.060547 C 50.870558 40.080361 51.000334 40.106674 51.128906 40.136719 C 51.386369 40.195726 51.636659 40.270389 51.876953 40.367188 C 51.878276 40.36772 51.879537 40.368607 51.880859 40.369141 C 51.975971 40.40806 52.06593 40.457464 52.158203 40.501953 C 53.823264 41.29833 54.977729 42.974449 54.998047 44.947266 L 54.992188 45.138672 C 54.986125 45.361429 54.965692 45.580788 54.931641 45.794922 C 54.908932 45.937726 54.870425 46.074553 54.835938 46.212891 C 54.793379 46.38443 54.741286 46.550954 54.681641 46.714844 C 54.63187 46.850831 54.580505 46.985187 54.519531 47.115234 C 54.435648 47.295083 54.342144 47.469453 54.238281 47.636719 C 54.163848 47.755948 54.082022 47.870239 53.998047 47.982422 C 53.918732 48.088815 53.833473 48.1895 53.746094 48.289062 C 53.599681 48.455315 53.442575 48.610226 53.275391 48.755859 C 53.177672 48.841041 53.080808 48.926461 52.976562 49.003906 C 52.858195 49.091939 52.735511 49.174315 52.609375 49.251953 C 51.849067 49.717639 50.961935 50 50 50 C 49.043711 50 48.161726 49.720408 47.404297 49.259766 C 47.268742 49.177151 47.138339 49.08679 47.011719 48.992188 C 46.925883 48.927976 46.845073 48.858559 46.763672 48.789062 C 46.583335 48.635456 46.414529 48.470298 46.257812 48.292969 C 46.16575 48.188303 46.075314 48.082927 45.992188 47.970703 C 45.911625 47.862488 45.835376 47.751477 45.763672 47.636719 C 45.659615 47.469211 45.564484 47.295365 45.480469 47.115234 C 45.419499 46.98521 45.368125 46.850818 45.318359 46.714844 C 45.258714 46.550954 45.206621 46.38443 45.164062 46.212891 C 45.129579 46.074557 45.091065 45.937725 45.068359 45.794922 C 45.034312 45.580789 45.013875 45.361428 45.007812 45.138672 L 45.001953 44.947266 C 45.022271 42.974449 46.176736 41.29833 47.841797 40.501953 C 47.93407 40.45746 48.024029 40.408063 48.119141 40.369141 C 48.120491 40.368588 48.121696 40.367739 48.123047 40.367188 C 48.363341 40.270389 48.613631 40.195726 48.871094 40.136719 C 48.999666 40.106673 49.129442 40.080361 49.261719 40.060547 C 49.304841 40.054223 49.347142 40.044289 49.390625 40.039062 C 49.590213 40.01456 49.793132 40 50 40 z M 50 42 C 49.041667 42 48.260256 42.377378 47.751953 42.949219 C 47.24365 43.52106 47 44.263889 47 45 C 47 45.736111 47.24365 46.47894 47.751953 47.050781 C 48.260256 47.622622 49.041667 48 50 48 C 50.958333 48 51.739744 47.622622 52.248047 47.050781 C 52.75635 46.47894 53 45.736111 53 45 C 53 44.263889 52.75635 43.52106 52.248047 42.949219 C 51.739744 42.377378 50.958333 42 50 42 z M 50 43 C 50.708333 43 51.176923 43.247622 51.501953 43.613281 C 51.826983 43.97894 52 44.486111 52 45 C 52 45.513889 51.826983 46.02106 51.501953 46.386719 C 51.176923 46.752378 50.708333 47 50 47 C 49.291667 47 48.823077 46.752378 48.498047 46.386719 C 48.173017 46.02106 48 45.513889 48 45 C 48 44.486111 48.173017 43.97894 48.498047 43.613281 C 48.823077 43.247622 49.291667 43 50 43 z M 18.501953 44.992188 A 0.50005 0.50005 0 0 0 18.017578 45.507812 C 18.045018 47.239297 18.214316 48.935575 18.507812 50.587891 A 0.50005 0.50005 0 1 0 19.492188 50.412109 C 19.207684 48.810425 19.044143 47.168703 19.017578 45.492188 A 0.50005 0.50005 0 0 0 18.501953 44.992188 z M 39.607422 46.001953 L 43.101562 46.132812 C 43.389051 47.881431 44.323854 49.414308 45.65625 50.474609 L 44.009766 53.576172 C 43.521886 54.491713 42.727403 55.151681 41.746094 55.460938 L 24.322266 60.953125 C 23.867555 61.096397 23.387917 60.910255 23.152344 60.503906 C 22.916653 60.097353 22.994277 59.599412 23.34375 59.28125 L 36.832031 47.009766 L 36.832031 47.011719 C 37.592693 46.320571 38.565478 45.964167 39.607422 46.001953 z M 60.390625 46.001953 C 61.433781 45.964153 62.406617 46.320994 63.166016 47.011719 L 76.658203 59.28125 C 77.008027 59.599272 77.083653 60.09769 76.847656 60.503906 C 76.611241 60.910842 76.131792 61.095843 75.677734 60.953125 L 75.677734 60.955078 L 58.255859 55.462891 L 58.253906 55.462891 C 57.272169 55.152231 56.476354 54.491101 55.990234 53.578125 L 54.34375 50.476562 C 55.67663 49.416236 56.610883 47.881831 56.898438 46.132812 L 60.390625 46.001953 z M 19.392578 51.994141 A 0.50005 0.50005 0 0 0 18.935547 52.619141 C 18.990787 52.845706 19.039936 53.095775 19.111328 53.359375 A 0.50005 0.50005 0 1 0 20.076172 53.097656 C 20.017562 52.881257 19.969013 52.638294 19.90625 52.380859 A 0.50005 0.50005 0 0 0 19.392578 51.994141 z M 44.958984 58.986328 A 1.0001 1.0001 0 0 0 44.001953 59.925781 L 42.070312 86 L 38 86 A 1.0001 1.0001 0 1 0 38 88 L 43 88 L 57 88 L 67 88 A 1.0001 1.0001 0 1 0 67 86 L 57.929688 86 L 55.998047 59.925781 A 1.0008028 1.0008028 0 1 0 54.001953 60.074219 L 55.921875 86 L 44.078125 86 L 45.998047 60.074219 A 1.0001 1.0001 0 0 0 44.958984 58.986328 z M 33.197266 64.990234 A 0.50005 0.50005 0 0 0 32.884766 65.880859 C 34.377275 67.10488 36.011878 68.149667 37.738281 69.033203 A 0.50005 0.50005 0 1 0 38.193359 68.144531 C 36.523763 67.290068 34.951022 66.281401 33.519531 65.107422 A 0.50005 0.50005 0 0 0 33.197266 64.990234 z M 66.787109 64.990234 A 0.50005 0.50005 0 0 0 66.480469 65.107422 C 65.048873 66.281487 63.475947 67.289246 61.806641 68.142578 A 0.50007721 0.50007721 0 1 0 62.261719 69.033203 C 63.988412 68.150535 65.62283 67.104794 67.115234 65.880859 A 0.50005 0.50005 0 0 0 66.787109 64.990234 z M 72.302734 66.726562 A 0.50005 0.50005 0 0 0 71.958984 66.878906 C 69.23303 69.614702 65.99647 71.838459 62.408203 73.408203 A 0.50005 0.50005 0 1 0 62.808594 74.324219 C 66.512327 72.703963 69.853923 70.408189 72.667969 67.583984 A 0.50005 0.50005 0 0 0 72.302734 66.726562 z M 27.683594 66.728516 A 0.50005 0.50005 0 0 0 27.332031 67.585938 C 30.146077 70.410141 33.487673 72.705916 37.191406 74.326172 A 0.50005 0.50005 0 1 0 37.591797 73.410156 C 34.00353 71.840366 30.76697 69.616655 28.041016 66.880859 A 0.50005 0.50005 0 0 0 27.683594 66.728516 z M 33 86 A 1.0001 1.0001 0 1 0 33 88 L 34 88 A 1.0001 1.0001 0 1 0 34 86 L 33 86 z"/></svg>