<svg fill="#000000" xmlns="http://www.w3.org/2000/svg"  viewBox="0 0 100 100" width="30px" height="30px"><path d="M 48 12 C 44.698375 12 42 14.698375 42 18 L 42 61 C 42 64.301625 44.698375 67 48 67 C 51.301625 67 54 64.301625 54 61 L 54 18 C 54 14.698375 51.301625 12 48 12 z M 48 14 C 50.220375 14 52 15.779625 52 18 L 52 61 C 52 63.220375 50.220375 65 48 65 C 45.779625 65 44 63.220375 44 61 L 44 18 C 44 15.779625 45.779625 14 48 14 z M 49.492188 18.992188 A 0.50005 0.50005 0 0 0 49 19.5 L 49 20.5 A 0.50005 0.50005 0 1 0 50 20.5 L 50 19.5 A 0.50005 0.50005 0 0 0 49.492188 18.992188 z M 49.492188 21.992188 A 0.50005 0.50005 0 0 0 49 22.5 L 49 27.5 A 0.50005 0.50005 0 1 0 50 27.5 L 50 22.5 A 0.50005 0.50005 0 0 0 49.492188 21.992188 z M 49.492188 30.992188 A 0.50005 0.50005 0 0 0 49 31.5 L 49 59.5 A 0.50005 0.50005 0 1 0 50 59.5 L 50 31.5 A 0.50005 0.50005 0 0 0 49.492188 30.992188 z M 48 74 C 44.145849 74 41 77.145852 41 81 C 41 84.854148 44.145849 88 48 88 C 51.854151 88 55 84.854148 55 81 C 55 77.145852 51.854151 74 48 74 z M 48 76 C 50.773271 76 53 78.226731 53 81 C 53 83.773269 50.773271 86 48 86 C 45.226729 86 43 83.773269 43 81 C 43 78.226731 45.226729 76 48 76 z M 48 78 C 47.795862 78 47.595336 78.020837 47.400391 78.060547 A 0.50005 0.50005 0 1 0 47.599609 79.039062 C 47.728664 79.012771 47.862138 79 48 79 C 49.110906 79 50 79.889094 50 81 C 50 82.110906 49.110906 83 48 83 C 47.550044 83 47.141173 82.846559 46.800781 82.589844 A 0.50005 0.50005 0 1 0 46.199219 83.388672 C 46.696827 83.763957 47.319956 84 48 84 C 49.651094 84 51 82.651094 51 81 C 51 79.348906 49.651094 78 48 78 z M 45.982422 78.994141 A 0.50005 0.50005 0 0 0 45.613281 79.199219 C 45.348866 79.548968 45.161404 79.956309 45.068359 80.396484 A 0.50008894 0.50008894 0 0 0 46.046875 80.603516 C 46.109835 80.305691 46.234572 80.033032 46.410156 79.800781 A 0.50005 0.50005 0 0 0 46.033203 78.994141 A 0.50005 0.50005 0 0 0 45.982422 78.994141 z"/></svg>