<?xml version="1.0" encoding="UTF-8"?>
<svg xmlns="http://www.w3.org/2000/svg" xmlns:xlink="http://www.w3.org/1999/xlink" viewBox="0 0 50 50" width="50px" height="50px">
<g id="surface47600180">
<path style=" stroke:none;fill-rule:nonzero;fill:rgb(58.431375%,64.705884%,65.098041%);fill-opacity:1;" d="M 25 7 C 15.074219 7 7 15.074219 7 25 C 7 34.925781 15.074219 43 25 43 C 34.925781 43 43 34.925781 43 25 C 43 15.074219 34.925781 7 25 7 Z M 25 8 C 34.375 8 42 15.625 42 25 C 42 34.375 34.375 42 25 42 C 15.625 42 8 34.375 8 25 C 8 15.625 15.625 8 25 8 Z M 25 9.5 C 16.453125 9.5 9.5 16.453125 9.5 25 C 9.5 33.546875 16.453125 40.5 25 40.5 C 33.546875 40.5 40.5 33.546875 40.5 25 C 40.5 20.640625 38.648438 16.457031 35.417969 13.523438 C 35.316406 13.429688 35.15625 13.4375 35.066406 13.539062 C 34.972656 13.640625 34.980469 13.800781 35.082031 13.894531 C 38.207031 16.730469 40 20.78125 40 25 C 40 33.269531 33.269531 40 25 40 C 16.730469 40 10 33.269531 10 25 C 10 16.730469 16.730469 10 25 10 C 26.773438 10 28.511719 10.304688 30.164062 10.910156 C 30.292969 10.960938 30.4375 10.894531 30.484375 10.761719 C 30.53125 10.632812 30.464844 10.492188 30.335938 10.441406 C 28.628906 9.816406 26.832031 9.5 25 9.5 Z M 31.765625 11.070312 C 31.667969 11.066406 31.570312 11.117188 31.527344 11.210938 C 31.464844 11.335938 31.515625 11.484375 31.640625 11.546875 C 31.96875 11.710938 32.300781 11.886719 32.621094 12.078125 C 32.660156 12.101562 32.707031 12.113281 32.75 12.113281 C 32.835938 12.113281 32.917969 12.070312 32.964844 11.988281 C 33.035156 11.871094 32.996094 11.71875 32.878906 11.648438 C 32.546875 11.453125 32.203125 11.265625 31.859375 11.097656 C 31.828125 11.082031 31.796875 11.074219 31.765625 11.070312 Z M 33.707031 12.261719 C 33.644531 12.273438 33.585938 12.308594 33.546875 12.363281 C 33.464844 12.476562 33.492188 12.632812 33.605469 12.714844 C 33.773438 12.828125 33.9375 12.949219 34.097656 13.074219 C 34.144531 13.109375 34.195312 13.125 34.25 13.125 C 34.324219 13.125 34.398438 13.089844 34.449219 13.027344 C 34.53125 12.917969 34.511719 12.761719 34.402344 12.675781 C 34.234375 12.546875 34.066406 12.425781 33.894531 12.304688 C 33.835938 12.265625 33.769531 12.25 33.707031 12.261719 Z M 25 16 C 24.171875 16 23.5 16.671875 23.5 17.5 L 23.5 23.5 L 18 23.5 C 17.171875 23.5 16.5 24.171875 16.5 25 C 16.5 25.828125 17.171875 26.5 18 26.5 L 23.5 26.5 L 23.5 32.5 C 23.5 33.328125 24.171875 34 25 34 C 25.828125 34 26.5 33.328125 26.5 32.5 L 26.5 26.5 L 32 26.5 C 32.828125 26.5 33.5 25.828125 33.5 25 C 33.5 24.171875 32.828125 23.5 32 23.5 L 26.5 23.5 L 26.5 17.5 C 26.5 16.671875 25.828125 16 25 16 Z M 25 16.5 C 25.550781 16.5 26 16.949219 26 17.5 L 26 23.75 C 26 23.886719 26.113281 24 26.25 24 L 32 24 C 32.550781 24 33 24.449219 33 25 C 33 25.550781 32.550781 26 32 26 L 26.25 26 C 26.113281 26 26 26.113281 26 26.25 L 26 32.5 C 26 33.050781 25.550781 33.5 25 33.5 C 24.449219 33.5 24 33.050781 24 32.5 L 24 26.25 C 24 26.113281 23.886719 26 23.75 26 L 18 26 C 17.449219 26 17 25.550781 17 25 C 17 24.449219 17.449219 24 18 24 L 23.75 24 C 23.886719 24 24 23.886719 24 23.75 L 24 17.5 C 24 16.949219 24.449219 16.5 25 16.5 Z M 25 16.5 "/>
</g>
</svg>
