<svg fill="#000000" xmlns="http://www.w3.org/2000/svg"  viewBox="0 0 100 100" width="40px" height="40px"><path d="M 46 10 A 1.0001 1.0001 0 1 0 46 12 L 49 12 L 49 17.025391 C 45.243088 17.137713 41.643905 17.875693 38.302734 19.144531 L 37.148438 16.357422 L 38.994141 15.591797 A 1.0001 1.0001 0 0 0 38.587891 13.664062 A 1.0001 1.0001 0 0 0 38.228516 13.744141 L 35.609375 14.830078 A 1.0001 1.0001 0 0 0 35.3125 14.953125 L 32.685547 16.041016 A 1.0001 1.0001 0 1 0 33.451172 17.888672 L 35.300781 17.123047 L 36.455078 19.914062 C 33.098387 21.429249 30.041741 23.487888 27.394531 25.980469 L 23.835938 22.421875 L 25.958984 20.300781 A 1.0001 1.0001 0 0 0 25.230469 18.583984 A 1.0001 1.0001 0 0 0 24.542969 18.886719 L 18.886719 24.542969 A 1.0005836 1.0005836 0 1 0 20.300781 25.958984 L 22.421875 23.835938 L 25.980469 27.394531 C 23.487888 30.041741 21.429249 33.098387 19.914062 36.455078 L 17.123047 35.300781 L 17.888672 33.451172 A 1.0001 1.0001 0 0 0 16.947266 32.056641 A 1.0001 1.0001 0 0 0 16.041016 32.685547 L 14.955078 35.304688 A 1.0001 1.0001 0 0 0 14.832031 35.603516 L 13.744141 38.228516 A 1.0001 1.0001 0 1 0 15.591797 38.994141 L 16.357422 37.148438 L 19.144531 38.302734 C 17.875693 41.643905 17.137713 45.243088 17.025391 49 L 12 49 L 12 46 A 1.0001 1.0001 0 0 0 10.984375 44.986328 A 1.0001 1.0001 0 0 0 10 46 L 10 54 A 1.0001 1.0001 0 1 0 12 54 L 12 51 L 17.025391 51 C 17.137713 54.756912 17.875693 58.356095 19.144531 61.697266 L 16.357422 62.851562 L 15.591797 61.005859 A 1.0001 1.0001 0 0 0 14.654297 60.375 A 1.0001 1.0001 0 0 0 13.744141 61.771484 L 14.830078 64.390625 A 1.0001 1.0001 0 0 0 14.953125 64.6875 L 16.041016 67.314453 A 1.0001 1.0001 0 1 0 17.888672 66.548828 L 17.123047 64.699219 L 19.914062 63.544922 C 21.429249 66.901613 23.487888 69.958259 25.980469 72.605469 L 22.421875 76.164062 L 20.300781 74.041016 A 1.0001 1.0001 0 0 0 19.583984 73.738281 A 1.0001 1.0001 0 0 0 18.886719 75.457031 L 24.542969 81.113281 A 1.0005836 1.0005836 0 1 0 25.958984 79.699219 L 23.835938 77.578125 L 27.394531 74.019531 C 30.041741 76.512112 33.098387 78.570751 36.455078 80.085938 L 35.300781 82.876953 L 33.451172 82.111328 A 1.0001 1.0001 0 1 0 32.685547 83.958984 L 35.304688 85.044922 A 1.0001 1.0001 0 0 0 35.603516 85.167969 L 38.228516 86.255859 A 1.0001 1.0001 0 1 0 38.994141 84.408203 L 37.148438 83.642578 L 38.302734 80.855469 C 41.643905 82.124307 45.243088 82.862287 49 82.974609 L 49 88 L 46 88 A 1.0001 1.0001 0 1 0 46 90 L 54 90 A 1.0001 1.0001 0 1 0 54 88 L 51 88 L 51 82.974609 C 54.756912 82.862287 58.356095 82.124307 61.697266 80.855469 L 62.851562 83.642578 L 61.005859 84.408203 A 1.0001 1.0001 0 1 0 61.771484 86.255859 L 64.390625 85.169922 A 1.0001 1.0001 0 0 0 64.6875 85.046875 L 67.314453 83.958984 A 1.0001 1.0001 0 1 0 66.548828 82.111328 L 64.699219 82.876953 L 63.544922 80.085938 C 66.901613 78.570751 69.958259 76.512112 72.605469 74.019531 L 76.164062 77.578125 L 74.041016 79.699219 A 1.0005836 1.0005836 0 1 0 75.457031 81.113281 L 81.113281 75.457031 A 1.0001 1.0001 0 0 0 80.386719 73.740234 A 1.0001 1.0001 0 0 0 79.699219 74.041016 L 77.578125 76.164062 L 74.019531 72.605469 C 76.512112 69.958259 78.570751 66.901613 80.085938 63.544922 L 82.876953 64.699219 L 82.111328 66.548828 A 1.0001 1.0001 0 1 0 83.958984 67.314453 L 85.044922 64.695312 A 1.0001 1.0001 0 0 0 85.167969 64.396484 L 86.255859 61.771484 A 1.0001 1.0001 0 0 0 85.314453 60.375 A 1.0001 1.0001 0 0 0 84.408203 61.005859 L 83.642578 62.851562 L 80.855469 61.697266 C 82.124307 58.356095 82.862287 54.756912 82.974609 51 L 88 51 L 88 54 A 1.0001 1.0001 0 1 0 90 54 L 90 46 A 1.0001 1.0001 0 0 0 88.984375 44.986328 A 1.0001 1.0001 0 0 0 88 46 L 88 49 L 82.974609 49 C 82.862287 45.243088 82.124307 41.643905 80.855469 38.302734 L 83.642578 37.148438 L 84.408203 38.994141 A 1.0001 1.0001 0 1 0 86.255859 38.228516 L 85.169922 35.609375 A 1.0001 1.0001 0 0 0 85.046875 35.3125 L 83.958984 32.685547 A 1.0001 1.0001 0 0 0 83.021484 32.056641 A 1.0001 1.0001 0 0 0 82.111328 33.451172 L 82.876953 35.300781 L 80.085938 36.455078 C 78.570751 33.098387 76.512112 30.041741 74.019531 27.394531 L 77.578125 23.835938 L 79.699219 25.958984 A 1.0005836 1.0005836 0 1 0 81.113281 24.542969 L 75.457031 18.886719 A 1.0001 1.0001 0 0 0 74.738281 18.583984 A 1.0001 1.0001 0 0 0 74.041016 20.300781 L 76.164062 22.421875 L 72.605469 25.980469 C 69.958259 23.487888 66.901613 21.429249 63.544922 19.914062 L 64.699219 17.123047 L 66.548828 17.888672 A 1.0001 1.0001 0 1 0 67.314453 16.041016 L 64.695312 14.955078 A 1.0001 1.0001 0 0 0 64.396484 14.832031 L 61.771484 13.744141 A 1.0001 1.0001 0 0 0 61.382812 13.662109 A 1.0001 1.0001 0 0 0 61.005859 15.591797 L 62.851562 16.357422 L 61.697266 19.144531 C 58.356095 17.875693 54.756912 17.137713 51 17.025391 L 51 12 L 54 12 A 1.0001 1.0001 0 1 0 54 10 L 46 10 z M 50 19 C 54.137646 19 58.082035 19.814883 61.689453 21.283203 A 1.0001 1.0001 0 0 0 62.074219 21.435547 C 69.491783 24.571351 75.431204 30.509853 78.566406 37.927734 A 1.0001 1.0001 0 0 0 78.714844 38.306641 C 80.184201 41.915148 81 45.860815 81 50 C 81 54.137646 80.185117 58.082035 78.716797 61.689453 A 1.0001 1.0001 0 0 0 78.564453 62.074219 C 75.428649 69.491783 69.490147 75.431204 62.072266 78.566406 A 1.0001 1.0001 0 0 0 61.693359 78.714844 C 58.084852 80.184201 54.139185 81 50 81 C 45.863893 81 41.920782 80.186034 38.314453 78.71875 A 1.0001 1.0001 0 0 0 37.923828 78.564453 C 30.507029 75.428467 24.568565 69.4896 21.433594 62.072266 A 1.0001 1.0001 0 0 0 21.285156 61.693359 C 19.815799 58.084852 19 54.139185 19 50 C 19 45.862354 19.814883 41.917965 21.283203 38.310547 A 1.0001 1.0001 0 0 0 21.433594 37.927734 C 24.569133 30.509058 30.509058 24.569133 37.927734 21.433594 A 1.0001 1.0001 0 0 0 38.306641 21.285156 C 41.915148 19.815799 45.860815 19 50 19 z M 50 23 C 35.093799 23 23 35.093799 23 50 C 23 54.604684 24.155822 58.942119 26.189453 62.736328 A 0.50069015 0.50069015 0 1 0 27.072266 62.263672 C 25.113897 58.609881 24 54.437316 24 50 C 24 35.634201 35.634201 24 50 24 C 52.20124 24 54.336172 24.275915 56.376953 24.791016 A 0.50070663 0.50070663 0 1 0 56.623047 23.820312 C 54.503828 23.285414 52.28476 23 50 23 z M 64.490234 27.318359 A 0.50005 0.50005 0 0 0 64.226562 28.242188 C 64.558695 28.459689 64.884775 28.685119 65.207031 28.917969 A 0.50007744 0.50007744 0 1 0 65.792969 28.107422 C 65.459225 27.866272 65.119304 27.630794 64.773438 27.404297 A 0.50005 0.50005 0 0 0 64.490234 27.318359 z M 50 28 C 48.708334 28 47.676923 28.502378 47.001953 29.261719 C 46.326984 30.02106 46 31.013889 46 32 C 46 32.986111 46.326984 33.97894 47.001953 34.738281 C 47.676923 35.497622 48.708334 36 50 36 C 51.291666 36 52.323077 35.497622 52.998047 34.738281 C 53.673016 33.97894 54 32.986111 54 32 C 54 31.013889 53.673016 30.02106 52.998047 29.261719 C 52.323077 28.502378 51.291666 28 50 28 z M 50 29 C 51.041666 29 51.760256 29.372622 52.251953 29.925781 C 52.74365 30.47894 53 31.236111 53 32 C 53 32.763889 52.74365 33.52106 52.251953 34.074219 C 51.760256 34.627378 51.041666 35 50 35 C 48.958334 35 48.239744 34.627378 47.748047 34.074219 C 47.25635 33.52106 47 32.763889 47 32 C 47 31.236111 47.25635 30.47894 47.748047 29.925781 C 48.239744 29.372622 48.958334 29 50 29 z M 67.462891 29.605469 A 0.50005 0.50005 0 0 0 67.169922 30.484375 C 68.32173 31.497849 69.381086 32.612323 70.337891 33.8125 A 0.50024408 0.50024408 0 0 0 71.119141 33.1875 C 70.125946 31.941677 69.02627 30.786901 67.830078 29.734375 A 0.50005 0.50005 0 0 0 67.462891 29.605469 z M 37.271484 33.271484 C 35.979818 33.271484 34.948407 33.773862 34.273438 34.533203 C 33.598467 35.292544 33.271484 36.285373 33.271484 37.271484 C 33.271484 38.257595 33.598468 39.250425 34.273438 40.009766 C 34.948406 40.769107 35.979818 41.271484 37.271484 41.271484 C 38.563151 41.271484 39.596515 40.769107 40.271484 40.009766 C 40.946454 39.250425 41.271484 38.257595 41.271484 37.271484 C 41.271484 36.285373 40.946454 35.292544 40.271484 34.533203 C 39.596515 33.773862 38.563151 33.271484 37.271484 33.271484 z M 62.728516 33.271484 C 61.436849 33.271484 60.403485 33.773862 59.728516 34.533203 C 59.053546 35.292544 58.728516 36.285373 58.728516 37.271484 C 58.728516 38.257595 59.053546 39.250425 59.728516 40.009766 C 60.403485 40.769107 61.436849 41.271484 62.728516 41.271484 C 64.020182 41.271484 65.051593 40.769107 65.726562 40.009766 C 66.401533 39.250425 66.728516 38.257595 66.728516 37.271484 C 66.728516 36.285373 66.401532 35.292544 65.726562 34.533203 C 65.051593 33.773862 64.020182 33.271484 62.728516 33.271484 z M 37.271484 34.271484 C 38.31315 34.271484 39.031741 34.644107 39.523438 35.197266 C 40.015133 35.750425 40.271484 36.507595 40.271484 37.271484 C 40.271484 38.035373 40.015134 38.792544 39.523438 39.345703 C 39.03174 39.898862 38.31315 40.271484 37.271484 40.271484 C 36.229818 40.271484 35.513181 39.898862 35.021484 39.345703 C 34.529788 38.792544 34.271484 38.035373 34.271484 37.271484 C 34.271484 36.507595 34.529788 35.750425 35.021484 35.197266 C 35.513181 34.644107 36.229818 34.271484 37.271484 34.271484 z M 62.728516 34.271484 C 63.770182 34.271484 64.486819 34.644107 64.978516 35.197266 C 65.470212 35.750425 65.728516 36.507595 65.728516 37.271484 C 65.728516 38.035373 65.470212 38.792544 64.978516 39.345703 C 64.486819 39.898862 63.770182 40.271484 62.728516 40.271484 C 61.68685 40.271484 60.968259 39.898862 60.476562 39.345703 C 59.984867 38.792544 59.728516 38.035373 59.728516 37.271484 C 59.728516 36.507595 59.984866 35.750425 60.476562 35.197266 C 60.96826 34.644107 61.68685 34.271484 62.728516 34.271484 z M 73.361328 36.994141 A 0.50005 0.50005 0 0 0 72.927734 37.736328 C 74.886103 41.390119 76 45.562684 76 50 C 76 64.365799 64.365799 76 50 76 C 47.79876 76 45.663828 75.724085 43.623047 75.208984 A 0.50070663 0.50070663 0 1 0 43.376953 76.179688 C 45.496172 76.714586 47.71524 77 50 77 C 64.906201 77 77 64.906201 77 50 C 77 45.395316 75.844178 41.057881 73.810547 37.263672 A 0.50005 0.50005 0 0 0 73.361328 36.994141 z M 32 46 C 30.708334 46 29.676923 46.502378 29.001953 47.261719 C 28.326984 48.02106 28 49.013889 28 50 C 28 50.986111 28.326984 51.97894 29.001953 52.738281 C 29.676923 53.497622 30.708334 54 32 54 C 33.291666 54 34.323077 53.497622 34.998047 52.738281 C 35.673016 51.97894 36 50.986111 36 50 C 36 49.013889 35.673016 48.02106 34.998047 47.261719 C 34.323077 46.502378 33.291666 46 32 46 z M 50 46 C 48.708334 46 47.676923 46.502378 47.001953 47.261719 C 46.326984 48.02106 46 49.013889 46 50 C 46 50.986111 46.326984 51.97894 47.001953 52.738281 C 47.676923 53.497622 48.708334 54 50 54 C 51.291666 54 52.323077 53.497622 52.998047 52.738281 C 53.673016 51.97894 54 50.986111 54 50 C 54 49.013889 53.673016 48.02106 52.998047 47.261719 C 52.323077 46.502378 51.291666 46 50 46 z M 68 46 C 66.708334 46 65.676923 46.502378 65.001953 47.261719 C 64.326984 48.02106 64 49.013889 64 50 C 64 50.986111 64.326984 51.97894 65.001953 52.738281 C 65.676923 53.497622 66.708334 54 68 54 C 69.291666 54 70.323077 53.497622 70.998047 52.738281 C 71.673016 51.97894 72 50.986111 72 50 C 72 49.013889 71.673016 48.02106 70.998047 47.261719 C 70.323077 46.502378 69.291666 46 68 46 z M 32 47 C 33.041666 47 33.760256 47.372622 34.251953 47.925781 C 34.74365 48.47894 35 49.236111 35 50 C 35 50.763889 34.74365 51.52106 34.251953 52.074219 C 33.760256 52.627378 33.041666 53 32 53 C 30.958334 53 30.239744 52.627378 29.748047 52.074219 C 29.25635 51.52106 29 50.763889 29 50 C 29 49.236111 29.25635 48.47894 29.748047 47.925781 C 30.239744 47.372622 30.958334 47 32 47 z M 50 47 C 51.041666 47 51.760256 47.372622 52.251953 47.925781 C 52.74365 48.47894 53 49.236111 53 50 C 53 50.763889 52.74365 51.52106 52.251953 52.074219 C 51.760256 52.627378 51.041666 53 50 53 C 48.958334 53 48.239744 52.627378 47.748047 52.074219 C 47.25635 51.52106 47 50.763889 47 50 C 47 49.236111 47.25635 48.47894 47.748047 47.925781 C 48.239744 47.372622 48.958334 47 50 47 z M 68 47 C 69.041666 47 69.760256 47.372622 70.251953 47.925781 C 70.74365 48.47894 71 49.236111 71 50 C 71 50.763889 70.74365 51.52106 70.251953 52.074219 C 69.760256 52.627378 69.041666 53 68 53 C 66.958334 53 66.239744 52.627378 65.748047 52.074219 C 65.25635 51.52106 65 50.763889 65 50 C 65 49.236111 65.25635 48.47894 65.748047 47.925781 C 66.239744 47.372622 66.958334 47 68 47 z M 37.271484 58.728516 C 35.979818 58.728516 34.948407 59.230893 34.273438 59.990234 C 33.598467 60.749575 33.271484 61.742405 33.271484 62.728516 C 33.271484 63.714627 33.598468 64.707456 34.273438 65.466797 C 34.948406 66.226138 35.979818 66.728516 37.271484 66.728516 C 38.563151 66.728516 39.596515 66.226138 40.271484 65.466797 C 40.946454 64.707456 41.271484 63.714627 41.271484 62.728516 C 41.271484 61.742405 40.946454 60.749575 40.271484 59.990234 C 39.596515 59.230893 38.563151 58.728516 37.271484 58.728516 z M 62.728516 58.728516 C 61.436849 58.728516 60.403485 59.230893 59.728516 59.990234 C 59.053546 60.749575 58.728516 61.742405 58.728516 62.728516 C 58.728516 63.714627 59.053546 64.707456 59.728516 65.466797 C 60.403485 66.226138 61.436849 66.728516 62.728516 66.728516 C 64.020182 66.728516 65.051593 66.226138 65.726562 65.466797 C 66.401533 64.707456 66.728516 63.714627 66.728516 62.728516 C 66.728516 61.742405 66.401532 60.749575 65.726562 59.990234 C 65.051593 59.230893 64.020182 58.728516 62.728516 58.728516 z M 37.271484 59.728516 C 38.31315 59.728516 39.031741 60.101138 39.523438 60.654297 C 40.015133 61.207456 40.271484 61.964627 40.271484 62.728516 C 40.271484 63.492405 40.015134 64.249575 39.523438 64.802734 C 39.03174 65.355893 38.31315 65.728516 37.271484 65.728516 C 36.229818 65.728516 35.513181 65.355893 35.021484 64.802734 C 34.529788 64.249575 34.271484 63.492405 34.271484 62.728516 C 34.271484 61.964627 34.529788 61.207456 35.021484 60.654297 C 35.513181 60.101138 36.229818 59.728516 37.271484 59.728516 z M 62.728516 59.728516 C 63.770182 59.728516 64.486819 60.101138 64.978516 60.654297 C 65.470212 61.207456 65.728516 61.964627 65.728516 62.728516 C 65.728516 63.492405 65.470212 64.249575 64.978516 64.802734 C 64.486819 65.355893 63.770182 65.728516 62.728516 65.728516 C 61.68685 65.728516 60.968259 65.355893 60.476562 64.802734 C 59.984867 64.249575 59.728516 63.492405 59.728516 62.728516 C 59.728516 61.964627 59.984866 61.207456 60.476562 60.654297 C 60.96826 60.101138 61.68685 59.728516 62.728516 59.728516 z M 50 64 C 48.708334 64 47.676923 64.502378 47.001953 65.261719 C 46.326984 66.02106 46 67.013889 46 68 C 46 68.986111 46.326984 69.97894 47.001953 70.738281 C 47.676923 71.497622 48.708334 72 50 72 C 51.291666 72 52.323077 71.497622 52.998047 70.738281 C 53.673016 69.97894 54 68.986111 54 68 C 54 67.013889 53.673016 66.02106 52.998047 65.261719 C 52.323077 64.502378 51.291666 64 50 64 z M 50 65 C 51.041666 65 51.760256 65.372622 52.251953 65.925781 C 52.74365 66.47894 53 67.236111 53 68 C 53 68.763889 52.74365 69.52106 52.251953 70.074219 C 51.760256 70.627378 51.041666 71 50 71 C 48.958334 71 48.239744 70.627378 47.748047 70.074219 C 47.25635 69.52106 47 68.763889 47 68 C 47 67.236111 47.25635 66.47894 47.748047 65.925781 C 48.239744 65.372622 48.958334 65 50 65 z M 29.273438 65.994141 A 0.50005 0.50005 0 0 0 28.880859 66.8125 C 29.874054 68.058323 30.97373 69.213099 32.169922 70.265625 A 0.50005 0.50005 0 1 0 32.830078 69.515625 C 31.67827 68.502151 30.618914 67.387677 29.662109 66.1875 A 0.50005 0.50005 0 0 0 29.273438 65.994141 z M 34.464844 70.984375 A 0.50005 0.50005 0 0 0 34.207031 71.892578 C 34.540775 72.133728 34.880696 72.369206 35.226562 72.595703 A 0.50028359 0.50028359 0 0 0 35.773438 71.757812 C 35.441305 71.540311 35.115225 71.314881 34.792969 71.082031 A 0.50005 0.50005 0 0 0 34.464844 70.984375 z"/></svg>