<svg fill="#000000" xmlns="http://www.w3.org/2000/svg"  viewBox="0 0 100 100" width="30px" height="30px"><path d="M 49.978516 14.021484 C 30.108109 14.021484 13.978516 30.151078 13.978516 50.021484 C 13.978516 69.891891 30.108109 86.021484 49.978516 86.021484 C 69.848922 86.021484 85.978516 69.891891 85.978516 50.021484 C 85.978516 30.151078 69.848922 14.021484 49.978516 14.021484 z M 49.978516 16.021484 C 68.768042 16.021484 83.978516 31.231958 83.978516 50.021484 C 83.978516 68.81101 68.768042 84.021484 49.978516 84.021484 C 31.18899 84.021484 15.978516 68.81101 15.978516 50.021484 C 15.978516 31.231958 31.18899 16.021484 49.978516 16.021484 z M 50 20 C 33.437765 20 20 33.437765 20 50 C 20 66.562235 33.437765 80 50 80 C 66.562235 80 80 66.562235 80 50 C 80 41.038621 76.062117 32.994931 69.830078 27.498047 A 0.50005 0.50005 0 1 0 69.169922 28.248047 C 75.195883 33.563163 79 41.331379 79 50 C 79 66.021765 66.021765 79 50 79 C 33.978235 79 21 66.021765 21 50 C 21 33.978235 33.978235 21 50 21 C 53.26906 21 56.407907 21.547945 59.339844 22.544922 A 0.50005 0.50005 0 1 0 59.660156 21.597656 C 56.628093 20.566633 53.38094 20 50 20 z M 62.46875 22.777344 A 0.50005 0.50005 0 0 0 62.289062 23.732422 C 62.958537 24.045563 63.612327 24.384945 64.253906 24.748047 A 0.50026338 0.50026338 0 1 0 64.746094 23.876953 C 64.083673 23.502055 63.405464 23.151031 62.710938 22.826172 A 0.50005 0.50005 0 0 0 62.46875 22.777344 z M 66.498047 25.039062 A 0.50005 0.50005 0 0 0 66.220703 25.957031 C 66.551463 26.180465 66.877403 26.415671 67.203125 26.65625 A 0.50005 0.50005 0 1 0 67.796875 25.851562 C 67.464597 25.606143 67.126537 25.363473 66.779297 25.128906 A 0.50005 0.50005 0 0 0 66.498047 25.039062 z M 44.154297 36 C 43.871297 36 43.608234 36.103641 43.365234 36.306641 C 43.121234 36.510641 43 36.726078 43 36.955078 L 43 42.722656 C 43 42.976656 43.120281 43.200625 43.363281 43.390625 C 43.607281 43.580625 43.908578 43.677734 44.267578 43.677734 C 44.600578 43.677734 44.896344 43.581625 45.152344 43.390625 C 45.408344 43.199625 45.537109 42.976656 45.537109 42.722656 L 45.537109 38.330078 L 56.460938 38.330078 L 56.460938 40.392578 L 44.960938 62.242188 C 44.857938 62.498188 44.806641 62.675344 44.806641 62.777344 C 44.806641 63.134344 44.961531 63.42725 45.269531 63.65625 C 45.577531 63.88525 45.934703 64 46.345703 64 C 46.755703 64 47.037406 63.835906 47.191406 63.503906 L 58.615234 41.347656 C 58.871234 40.965656 59 40.597234 59 40.240234 L 59 36.955078 C 59 36.726078 58.870234 36.510641 58.615234 36.306641 C 58.359234 36.103641 58.090594 36 57.808594 36 L 44.154297 36 z"/></svg>