<svg fill="#000000" xmlns="http://www.w3.org/2000/svg"  viewBox="0 0 100 100" width="30px" height="30px"><path d="M 49.978516 14.021484 C 30.108109 14.021484 13.978516 30.151078 13.978516 50.021484 C 13.978516 69.891891 30.108109 86.021484 49.978516 86.021484 C 69.848922 86.021484 85.978516 69.891891 85.978516 50.021484 C 85.978516 30.151078 69.848922 14.021484 49.978516 14.021484 z M 49.978516 16.021484 C 68.768042 16.021484 83.978516 31.231958 83.978516 50.021484 C 83.978516 68.81101 68.768042 84.021484 49.978516 84.021484 C 31.18899 84.021484 15.978516 68.81101 15.978516 50.021484 C 15.978516 31.231958 31.18899 16.021484 49.978516 16.021484 z M 49.978516 19.021484 C 32.863307 19.021484 18.978516 32.906276 18.978516 50.021484 C 18.978516 67.136693 32.863307 81.021484 49.978516 81.021484 C 67.093724 81.021484 80.978516 67.136693 80.978516 50.021484 C 80.978516 40.925867 77.057591 32.738304 70.814453 27.068359 A 0.50005 0.50005 0 1 0 70.142578 27.808594 C 76.18544 33.296649 79.978516 41.213102 79.978516 50.021484 C 79.978516 66.596276 66.553307 80.021484 49.978516 80.021484 C 33.403724 80.021484 19.978516 66.596276 19.978516 50.021484 C 19.978516 33.446693 33.403724 20.021484 49.978516 20.021484 C 53.609256 20.021484 57.086577 20.665472 60.306641 21.845703 A 0.50005 0.50005 0 1 0 60.650391 20.908203 C 57.322454 19.688434 53.727775 19.021484 49.978516 19.021484 z M 63.458984 22.160156 A 0.50005 0.50005 0 0 0 63.257812 23.111328 C 63.927562 23.44276 64.583008 23.798875 65.224609 24.177734 A 0.50005 0.50005 0 1 0 65.732422 23.318359 C 65.070023 22.927219 64.393423 22.559365 63.701172 22.216797 A 0.50005 0.50005 0 0 0 63.458984 22.160156 z M 67.486328 24.533203 A 0.50005 0.50005 0 0 0 67.191406 25.447266 C 67.524099 25.680544 67.853681 25.921484 68.175781 26.167969 A 0.50021557 0.50021557 0 0 0 68.783203 25.373047 C 68.449303 25.117532 68.108933 24.869628 67.765625 24.628906 A 0.50005 0.50005 0 0 0 67.486328 24.533203 z M 49.962891 36 C 47.551891 36 45.622781 36.652078 44.175781 37.955078 C 42.728781 39.260078 42.001953 41.305797 42.001953 44.091797 L 42.001953 45.003906 C 42.001953 50.069906 44.55425 52.601562 49.65625 52.601562 C 52.29625 52.601562 54.230891 51.752688 55.462891 50.054688 L 55.462891 55.867188 C 55.462891 59.743187 53.628891 61.681641 49.962891 61.681641 C 48.423891 61.681641 47.129125 61.289906 46.078125 60.503906 C 45.026125 59.719906 44.501953 58.680672 44.501953 57.388672 C 44.501953 56.679672 44.063359 56.324219 43.193359 56.324219 C 42.398359 56.324219 42 56.718906 42 57.503906 C 42 59.276906 42.705187 60.802078 44.117188 62.080078 C 45.526188 63.359078 47.462828 64 49.923828 64 C 52.359828 64 54.312109 63.348922 55.787109 62.044922 C 57.261109 60.739922 58 58.680141 58 55.869141 L 58 44.091797 C 58 41.305797 57.269594 39.261031 55.808594 37.957031 C 54.347594 36.652031 52.397891 36 49.962891 36 z M 49.960938 38.164062 C 51.703938 38.164062 53.057578 38.647281 54.017578 39.613281 C 54.979578 40.579281 55.460938 42.039094 55.460938 43.996094 L 55.460938 45.253906 C 55.460938 48.708906 53.639047 50.4375 49.998047 50.4375 C 48.203047 50.4375 46.846828 49.998094 45.923828 49.121094 C 45.000828 48.245094 44.537109 46.842156 44.537109 44.910156 L 44.537109 43.996094 C 44.537109 40.109094 46.345937 38.164062 49.960938 38.164062 z"/></svg>