<?xml version="1.0"?><svg fill="#000000" xmlns="http://www.w3.org/2000/svg"  viewBox="0 0 100 100" width="30px" height="30px">    <path d="M 31 17.921875 C 23.832 17.921875 18 23.753875 18 30.921875 L 18 69.921875 C 18 77.089875 23.832 82.921875 31 82.921875 L 70 82.921875 C 77.168 82.921875 83 77.089875 83 69.921875 L 83 30.921875 C 83 23.753875 77.168 17.921875 70 17.921875 L 31 17.921875 z M 31 19.921875 L 70 19.921875 C 76.065 19.921875 81 24.856875 81 30.921875 L 81 69.921875 C 81 75.986875 76.065 80.921875 70 80.921875 L 31 80.921875 C 24.935 80.921875 20 75.986875 20 69.921875 L 20 30.921875 C 20 24.856875 24.935 19.921875 31 19.921875 z M 33.837891 22.921875 C 27.861891 22.921875 23 27.782813 23 33.757812 L 23 67.083984 C 23 73.059984 27.861891 77.921875 33.837891 77.921875 L 67.162109 77.921875 C 73.138109 77.921875 78 73.059984 78 67.083984 L 78 48.421875 C 78 48.145875 77.776 47.921875 77.5 47.921875 C 77.224 47.921875 77 48.145875 77 48.421875 L 77 67.083984 C 77 72.507984 72.586109 76.921875 67.162109 76.921875 L 33.837891 76.921875 C 28.413891 76.921875 24 72.507984 24 67.083984 L 24 33.757812 C 24 28.333813 28.413891 23.921875 33.837891 23.921875 L 67.5 23.921875 C 67.776 23.921875 68 23.697875 68 23.421875 C 68 23.145875 67.776 22.921875 67.5 22.921875 L 33.837891 22.921875 z M 36.5 36.921875 C 36.224 36.921875 36 37.145875 36 37.421875 L 36 61.421875 C 36 61.697875 36.224 61.921875 36.5 61.921875 L 39.5 61.921875 C 39.776 61.921875 40 61.697875 40 61.421875 L 40 52.921875 L 41.636719 52.921875 C 43.140719 52.921875 44.564188 52.732328 45.867188 52.361328 C 47.181188 51.987328 48.343359 51.442234 49.318359 50.740234 C 50.306359 50.029234 51.088578 49.153719 51.642578 48.136719 C 52.201578 47.111719 52.484375 45.948734 52.484375 44.677734 C 52.483375 43.385734 52.220219 42.237719 51.699219 41.261719 C 51.181219 40.291719 50.454109 39.470359 49.537109 38.818359 C 48.634109 38.177359 47.563422 37.694813 46.357422 37.382812 C 45.169422 37.075812 43.870187 36.921875 42.492188 36.921875 L 36.5 36.921875 z M 77.5 36.921875 C 77.224 36.921875 77 37.145875 77 37.421875 L 77 39.421875 C 77 39.697875 77.224 39.921875 77.5 39.921875 C 77.776 39.921875 78 39.697875 78 39.421875 L 78 37.421875 C 78 37.145875 77.776 36.921875 77.5 36.921875 z M 37 37.923828 L 42.492188 37.923828 C 43.785187 37.923828 45.003375 38.067516 46.109375 38.353516 C 47.197375 38.633516 48.156937 39.065766 48.960938 39.634766 C 49.749938 40.196766 50.374359 40.903375 50.818359 41.734375 C 51.260359 42.563375 51.484375 43.554641 51.484375 44.681641 C 51.483375 45.780641 51.241672 46.783156 50.763672 47.660156 C 50.281672 48.544156 49.598375 49.307641 48.734375 49.931641 C 47.853375 50.566641 46.797703 51.060344 45.595703 51.402344 C 44.381703 51.748344 43.048719 51.923828 41.636719 51.923828 L 39.5 51.923828 C 39.224 51.923828 39 52.147828 39 52.423828 L 39 60.923828 L 37 60.923828 L 37 37.923828 z M 39.5 39.921875 C 39.224 39.921875 39 40.145875 39 40.421875 L 39 49.421875 C 39 49.697875 39.224 49.921875 39.5 49.921875 L 41.375 49.921875 C 42.429 49.921875 43.415641 49.808891 44.306641 49.587891 C 45.208641 49.364891 46.008641 49.027938 46.681641 48.585938 C 47.368641 48.133938 47.909016 47.572922 48.291016 46.919922 C 48.679016 46.256922 48.875 45.493297 48.875 44.654297 C 48.875 43.788297 48.681781 43.039687 48.300781 42.429688 C 47.928781 41.836688 47.416391 41.342937 46.775391 40.960938 C 46.155391 40.592937 45.419891 40.321203 44.587891 40.158203 C 43.781891 40.000203 42.920391 39.921875 42.025391 39.921875 L 39.5 39.921875 z M 40 40.921875 L 42.025391 40.921875 C 42.856391 40.921875 43.653484 40.995625 44.396484 41.140625 C 45.114484 41.282625 45.742672 41.510313 46.263672 41.820312 C 46.773672 42.124313 47.162125 42.498891 47.453125 42.962891 C 47.733125 43.410891 47.875 43.98025 47.875 44.65625 C 47.875 45.32525 47.729734 45.900062 47.427734 46.414062 C 47.123734 46.934063 46.687859 47.383 46.130859 47.75 C 45.553859 48.13 44.858406 48.422187 44.066406 48.617188 C 43.253406 48.818188 42.348 48.921875 41.375 48.921875 L 40 48.921875 L 40 40.921875 z M 77.5 40.921875 C 77.224 40.921875 77 41.145875 77 41.421875 L 77 45.421875 C 77 45.697875 77.224 45.921875 77.5 45.921875 C 77.776 45.921875 78 45.697875 78 45.421875 L 78 41.421875 C 78 41.145875 77.776 40.921875 77.5 40.921875 z M 59.478516 43.667969 C 58.597016 43.658344 57.717313 43.748219 56.882812 43.949219 C 56.085813 44.141219 55.369859 44.452141 54.755859 44.869141 C 54.131859 45.295141 53.620328 45.845812 53.236328 46.507812 C 52.845328 47.181812 52.648438 47.993922 52.648438 48.919922 C 52.648438 49.773922 52.835125 50.523391 53.203125 51.150391 C 53.557125 51.754391 54.020125 52.291141 54.578125 52.744141 C 55.123125 53.187141 55.731719 53.571719 56.386719 53.886719 C 57.015719 54.189719 57.65725 54.467031 58.28125 54.707031 C 58.73225 54.897031 59.167031 55.087391 59.582031 55.275391 C 59.971031 55.454391 60.31075 55.649469 60.59375 55.855469 C 60.85275 56.044469 61.065609 56.266672 61.224609 56.513672 C 61.365609 56.733672 61.433594 56.980531 61.433594 57.269531 C 61.433594 57.898531 61.180672 58.324375 60.638672 58.609375 C 60.006672 58.941375 59.206719 59.109375 58.261719 59.109375 C 57.324719 59.109375 56.466938 59.007687 55.710938 58.804688 C 54.927937 58.593688 54.227812 58.357469 53.632812 58.105469 C 53.494813 58.044469 53.338078 58.052047 53.205078 58.123047 C 53.073078 58.192047 52.978266 58.315891 52.947266 58.462891 L 52.408203 61.019531 C 52.356203 61.248531 52.473547 61.481125 52.685547 61.578125 C 53.021547 61.732125 53.425719 61.881578 53.886719 62.017578 C 54.346719 62.154578 54.827406 62.271141 55.316406 62.369141 C 55.803406 62.467141 56.303687 62.54275 56.804688 62.59375 C 57.302687 62.64375 57.779656 62.667969 58.222656 62.667969 C 59.250656 62.667969 60.219562 62.534531 61.101562 62.269531 C 61.992562 62.002531 62.778547 61.618906 63.435547 61.128906 C 64.103547 60.631906 64.635578 60.020594 65.017578 59.308594 C 65.403578 58.589594 65.599609 57.772953 65.599609 56.876953 C 65.599609 55.886953 65.336359 55.0225 64.818359 54.3125 C 64.331359 53.6465 63.752703 53.081859 63.095703 52.630859 C 62.460703 52.194859 61.808297 51.831688 61.154297 51.554688 C 60.537297 51.293687 60.073344 51.093078 59.777344 50.955078 C 59.434344 50.785078 59.068781 50.611453 58.675781 50.439453 C 58.319781 50.285453 57.984688 50.110922 57.679688 49.919922 C 57.403687 49.745922 57.178766 49.55275 57.009766 49.34375 C 56.878766 49.18175 56.814453 48.983281 56.814453 48.738281 C 56.814453 47.982281 57.149344 47.727563 57.402344 47.601562 C 58.385344 47.108562 60.011656 47.130516 61.472656 47.478516 C 62.190656 47.650516 62.890781 47.898797 63.550781 48.216797 C 63.689781 48.283797 63.849328 48.283797 63.986328 48.216797 C 64.124328 48.149797 64.222859 48.023047 64.255859 47.873047 L 64.796875 45.425781 C 64.845875 45.204781 64.738109 44.978047 64.537109 44.873047 C 63.806109 44.496047 62.980031 44.198328 62.082031 43.986328 C 61.242531 43.787828 60.360016 43.677594 59.478516 43.667969 z M 59.482422 44.669922 C 60.285547 44.679922 61.090016 44.780937 61.853516 44.960938 C 62.532516 45.121938 63.163375 45.334656 63.734375 45.597656 L 63.412109 47.060547 C 62.861109 46.831547 62.289078 46.647813 61.705078 46.507812 C 60.015078 46.106812 58.160078 46.104031 56.955078 46.707031 C 56.434078 46.967031 55.814453 47.531281 55.814453 48.738281 C 55.814453 49.214281 55.956422 49.629703 56.232422 49.970703 C 56.469422 50.264703 56.777484 50.531672 57.146484 50.763672 C 57.493484 50.982672 57.872437 51.183422 58.273438 51.357422 C 58.649437 51.522422 59.00275 51.686469 59.34375 51.855469 C 59.65875 52.001469 60.132672 52.209609 60.763672 52.474609 C 61.355672 52.725609 61.949297 53.055125 62.529297 53.453125 C 63.092297 53.840125 63.590766 54.328344 64.009766 54.902344 C 64.405766 55.445344 64.597656 56.090953 64.597656 56.876953 C 64.597656 57.605953 64.442719 58.264938 64.136719 58.835938 C 63.824719 59.416938 63.386891 59.918172 62.837891 60.326172 C 62.274891 60.746172 61.593453 61.076547 60.814453 61.310547 C 59.675453 61.650547 58.418297 61.746656 56.904297 61.597656 C 56.436297 61.549656 55.967719 61.479672 55.511719 61.388672 C 55.046719 61.295672 54.599922 61.186594 54.169922 61.058594 C 53.913922 60.982594 53.67875 60.903266 53.46875 60.822266 L 53.800781 59.251953 C 54.300781 59.437953 54.851266 59.610484 55.447266 59.771484 C 56.288266 59.998484 57.234766 60.111328 58.259766 60.111328 C 59.368766 60.111328 60.323562 59.904094 61.101562 59.496094 C 61.971562 59.039094 62.431641 58.269484 62.431641 57.271484 C 62.431641 56.792484 62.307453 56.358562 62.064453 55.976562 C 61.838453 55.624563 61.541641 55.312781 61.181641 55.050781 C 60.845641 54.804781 60.447094 54.574188 59.996094 54.367188 C 59.572094 54.174188 59.128297 53.98125 58.654297 53.78125 C 58.041297 53.54625 57.425313 53.278328 56.820312 52.986328 C 56.236312 52.706328 55.693984 52.36475 55.208984 51.96875 C 54.742984 51.59075 54.357453 51.146484 54.064453 50.646484 C 53.787453 50.174484 53.648438 49.593922 53.648438 48.919922 C 53.648438 48.172922 53.801516 47.528766 54.103516 47.009766 C 54.411516 46.477766 54.820359 46.036266 55.318359 45.697266 C 55.832359 45.347266 56.437188 45.087828 57.117188 44.923828 C 57.876188 44.739828 58.679297 44.659922 59.482422 44.669922 z"/></svg>