<?xml version="1.0"?><svg fill="#000000" xmlns="http://www.w3.org/2000/svg"  viewBox="0 0 100 100" width="30px" height="30px">    <path d="M 30.654297 17.921875 C 23.486297 17.921875 17.654297 23.753875 17.654297 30.921875 L 17.654297 69.921875 C 17.654297 77.089875 23.486297 82.921875 30.654297 82.921875 L 69.654297 82.921875 C 76.822297 82.921875 82.654297 77.089875 82.654297 69.921875 L 82.654297 30.921875 C 82.654297 23.753875 76.822297 17.921875 69.654297 17.921875 L 30.654297 17.921875 z M 30.654297 19.921875 L 69.654297 19.921875 C 75.719297 19.921875 80.654297 24.856875 80.654297 30.921875 L 80.654297 69.921875 C 80.654297 75.986875 75.719297 80.921875 69.654297 80.921875 L 30.654297 80.921875 C 24.589297 80.921875 19.654297 75.986875 19.654297 69.921875 L 19.654297 30.921875 C 19.654297 24.856875 24.589297 19.921875 30.654297 19.921875 z M 33.490234 22.921875 C 27.514234 22.921875 22.652344 27.781813 22.652344 33.757812 L 22.652344 67.083984 C 22.652344 73.059984 27.514234 77.921875 33.490234 77.921875 L 66.816406 77.921875 C 72.792406 77.921875 77.652344 73.059984 77.652344 67.083984 L 77.652344 48.421875 C 77.653344 48.145875 77.430297 47.921875 77.154297 47.921875 C 76.878297 47.921875 76.654297 48.145875 76.654297 48.421875 L 76.654297 67.083984 C 76.654297 72.507984 72.240406 76.921875 66.816406 76.921875 L 33.490234 76.921875 C 28.066234 76.921875 23.652344 72.507984 23.652344 67.083984 L 23.652344 33.757812 C 23.652344 28.333813 28.066234 23.921875 33.490234 23.921875 L 67.152344 23.921875 C 67.428344 23.921875 67.652344 23.697875 67.652344 23.421875 C 67.652344 23.145875 67.428344 22.921875 67.152344 22.921875 L 33.490234 22.921875 z M 77.154297 36.921875 C 76.878297 36.921875 76.654297 37.145875 76.654297 37.421875 L 76.654297 39.421875 C 76.654297 39.697875 76.878297 39.921875 77.154297 39.921875 C 77.430297 39.921875 77.654297 39.697875 77.654297 39.421875 L 77.654297 37.421875 C 77.654297 37.145875 77.430297 36.921875 77.154297 36.921875 z M 62.298828 37.277344 C 61.530828 37.277344 60.903547 37.538734 60.435547 38.052734 C 59.978547 38.553734 59.746094 39.152078 59.746094 39.830078 C 59.746094 40.510078 59.977594 41.106469 60.433594 41.605469 C 60.901594 42.120469 61.528875 42.380859 62.296875 42.380859 C 63.063875 42.380859 63.691156 42.119469 64.160156 41.605469 C 64.617156 41.105469 64.849609 40.508078 64.849609 39.830078 C 64.850609 39.153078 64.618156 38.553734 64.160156 38.052734 C 63.691156 37.537734 63.065828 37.277344 62.298828 37.277344 z M 45.1875 37.921875 C 44.9825 37.921875 44.799609 38.046328 44.724609 38.236328 L 35.173828 62.236328 C 35.111828 62.389328 35.131609 62.564172 35.224609 62.701172 C 35.317609 62.839172 35.472672 62.921875 35.638672 62.921875 L 38.761719 62.921875 C 38.970719 62.921875 39.157469 62.790703 39.230469 62.595703 L 41.34375 56.921875 L 52.242188 56.921875 L 54.392578 62.597656 C 54.466578 62.791656 54.651375 62.921875 54.859375 62.921875 L 57.982422 62.921875 C 58.148422 62.921875 58.303484 62.839172 58.396484 62.701172 C 58.489484 62.564172 58.508266 62.389328 58.447266 62.236328 L 48.896484 38.236328 C 48.820484 38.046328 48.635641 37.921875 48.431641 37.921875 L 45.1875 37.921875 z M 62.298828 38.277344 C 62.779828 38.277344 63.147828 38.424563 63.423828 38.726562 C 63.711828 39.041562 63.851562 39.403078 63.851562 39.830078 C 63.851562 40.257078 63.711828 40.618594 63.423828 40.933594 C 63.147828 41.235594 62.779828 41.382813 62.298828 41.382812 C 61.817828 41.382812 61.449828 41.235641 61.173828 40.931641 C 60.885828 40.618641 60.746094 40.258078 60.746094 39.830078 C 60.746094 39.402078 60.885828 39.042563 61.173828 38.726562 C 61.448828 38.423563 61.817828 38.277344 62.298828 38.277344 z M 45.527344 38.921875 L 48.09375 38.921875 L 57.244141 61.921875 L 55.205078 61.921875 L 53.054688 56.244141 C 52.980688 56.050141 52.795891 55.921875 52.587891 55.921875 L 40.996094 55.921875 C 40.787094 55.921875 40.600344 56.051094 40.527344 56.246094 L 38.414062 61.921875 L 36.376953 61.921875 L 45.527344 38.921875 z M 46.810547 40.462891 C 46.612297 40.462891 46.414797 40.559859 46.341797 40.755859 L 41.732422 53.248047 C 41.675422 53.401047 41.698969 53.572031 41.792969 53.707031 C 41.885969 53.841031 42.038172 53.921875 42.201172 53.921875 L 51.417969 53.921875 C 51.581969 53.921875 51.735125 53.841031 51.828125 53.707031 C 51.922125 53.572031 51.943719 53.401047 51.886719 53.248047 L 47.279297 40.755859 C 47.206297 40.559859 47.008797 40.462891 46.810547 40.462891 z M 77.154297 40.921875 C 76.878297 40.921875 76.654297 41.145875 76.654297 41.421875 L 76.654297 45.421875 C 76.654297 45.697875 76.878297 45.921875 77.154297 45.921875 C 77.430297 45.921875 77.654297 45.697875 77.654297 45.421875 L 77.654297 41.421875 C 77.654297 41.145875 77.430297 40.921875 77.154297 40.921875 z M 46.810547 42.373047 L 50.701172 52.921875 L 42.919922 52.921875 L 46.810547 42.373047 z M 61.154297 44.921875 C 60.878297 44.921875 60.654297 45.145875 60.654297 45.421875 L 60.654297 62.421875 C 60.654297 62.697875 60.878297 62.921875 61.154297 62.921875 L 64.154297 62.921875 C 64.430297 62.921875 64.654297 62.697875 64.654297 62.421875 L 64.654297 45.421875 C 64.654297 45.145875 64.430297 44.921875 64.154297 44.921875 L 61.154297 44.921875 z M 61.654297 45.921875 L 63.654297 45.921875 L 63.654297 61.921875 L 61.654297 61.921875 L 61.654297 45.921875 z"/></svg>