<svg fill="#000000" xmlns="http://www.w3.org/2000/svg"  viewBox="0 0 100 100" width="30px" height="30px"><path d="M 49.978516 14.021484 C 30.108109 14.021484 13.978516 30.151078 13.978516 50.021484 C 13.978516 69.891891 30.108109 86.021484 49.978516 86.021484 C 69.848922 86.021484 85.978516 69.891891 85.978516 50.021484 C 85.978516 30.151078 69.848922 14.021484 49.978516 14.021484 z M 49.978516 16.021484 C 68.768042 16.021484 83.978516 31.231958 83.978516 50.021484 C 83.978516 68.81101 68.768042 84.021484 49.978516 84.021484 C 31.18899 84.021484 15.978516 68.81101 15.978516 50.021484 C 15.978516 31.231958 31.18899 16.021484 49.978516 16.021484 z M 50 20 C 33.437765 20 20 33.437765 20 50 C 20 66.562235 33.437765 80 50 80 C 66.562235 80 80 66.562235 80 50 C 80 41.038621 76.062117 32.994931 69.830078 27.498047 A 0.50005 0.50005 0 1 0 69.169922 28.248047 C 75.195883 33.563163 79 41.331379 79 50 C 79 66.021765 66.021765 79 50 79 C 33.978235 79 21 66.021765 21 50 C 21 33.978235 33.978235 21 50 21 C 53.26906 21 56.407907 21.547945 59.339844 22.544922 A 0.50005 0.50005 0 1 0 59.660156 21.597656 C 56.628093 20.566633 53.38094 20 50 20 z M 62.46875 22.777344 A 0.50005 0.50005 0 0 0 62.289062 23.732422 C 62.958537 24.045563 63.612327 24.384945 64.253906 24.748047 A 0.50026338 0.50026338 0 1 0 64.746094 23.876953 C 64.083673 23.502055 63.405464 23.151031 62.710938 22.826172 A 0.50005 0.50005 0 0 0 62.46875 22.777344 z M 66.498047 25.039062 A 0.50005 0.50005 0 0 0 66.220703 25.957031 C 66.551463 26.180465 66.877403 26.415671 67.203125 26.65625 A 0.50005 0.50005 0 1 0 67.796875 25.851562 C 67.464597 25.606143 67.126537 25.363473 66.779297 25.128906 A 0.50005 0.50005 0 0 0 66.498047 25.039062 z M 50.076172 36 C 47.614172 36 45.653406 36.652031 44.191406 37.957031 C 42.730406 39.261031 42 41.305797 42 44.091797 L 42 55.869141 C 42 58.680141 42.724828 60.737969 44.173828 62.042969 C 45.621828 63.347969 47.565 64 50 64 C 52.435 64 54.377172 63.348922 55.826172 62.044922 C 57.274172 60.740922 58 58.682094 58 55.871094 L 58 54.958984 C 58 49.918984 55.447703 47.398438 50.345703 47.398438 C 47.729703 47.398438 45.793109 48.232344 44.537109 49.902344 L 44.537109 44.091797 C 44.537109 40.242797 46.358 38.316406 50 38.316406 C 51.539 38.316406 52.832766 38.709141 53.884766 39.494141 C 54.935766 40.279141 55.462891 41.317375 55.462891 42.609375 C 55.462891 43.293375 55.910594 43.636719 56.808594 43.636719 C 57.602594 43.636719 58 43.256094 58 42.496094 C 58 40.724094 57.294766 39.197922 55.884766 37.919922 C 54.473766 36.640922 52.538172 36 50.076172 36 z M 50 49.560547 C 53.641 49.560547 55.462891 51.386156 55.462891 55.035156 L 55.462891 55.943359 C 55.462891 59.769359 53.641 61.681641 50 61.681641 C 46.358 61.681641 44.537109 59.769359 44.537109 55.943359 L 44.537109 54.695312 C 44.537109 51.272313 46.358 49.560547 50 49.560547 z"/></svg>