<svg fill="#000000" xmlns="http://www.w3.org/2000/svg"  viewBox="0 0 100 100" width="30px" height="30px"><path d="M 49.978516 14.021484 C 30.108109 14.021484 13.978516 30.151078 13.978516 50.021484 C 13.978516 69.891891 30.108109 86.021484 49.978516 86.021484 C 69.848922 86.021484 85.978516 69.891891 85.978516 50.021484 C 85.978516 30.151078 69.848922 14.021484 49.978516 14.021484 z M 49.978516 16.021484 C 68.768042 16.021484 83.978516 31.231958 83.978516 50.021484 C 83.978516 68.81101 68.768042 84.021484 49.978516 84.021484 C 31.18899 84.021484 15.978516 68.81101 15.978516 50.021484 C 15.978516 31.231958 31.18899 16.021484 49.978516 16.021484 z M 50 20 C 33.437765 20 20 33.437765 20 50 C 20 66.562235 33.437765 80 50 80 C 66.562235 80 80 66.562235 80 50 C 80 41.038621 76.062117 32.994931 69.830078 27.498047 A 0.50005 0.50005 0 1 0 69.169922 28.248047 C 75.195883 33.563163 79 41.331379 79 50 C 79 66.021765 66.021765 79 50 79 C 33.978235 79 21 66.021765 21 50 C 21 33.978235 33.978235 21 50 21 C 53.26906 21 56.407907 21.547945 59.339844 22.544922 A 0.50005 0.50005 0 1 0 59.660156 21.597656 C 56.628093 20.566633 53.38094 20 50 20 z M 62.46875 22.777344 A 0.50005 0.50005 0 0 0 62.289062 23.732422 C 62.958537 24.045563 63.612327 24.384945 64.253906 24.748047 A 0.50026338 0.50026338 0 1 0 64.746094 23.876953 C 64.083673 23.502055 63.405464 23.151031 62.710938 22.826172 A 0.50005 0.50005 0 0 0 62.46875 22.777344 z M 66.498047 25.039062 A 0.50005 0.50005 0 0 0 66.220703 25.957031 C 66.551463 26.180465 66.877403 26.415671 67.203125 26.65625 A 0.50005 0.50005 0 1 0 67.796875 25.851562 C 67.464597 25.606143 67.126537 25.363473 66.779297 25.128906 A 0.50005 0.50005 0 0 0 66.498047 25.039062 z M 52.742188 36 C 52.216187 36 51.826172 36.254672 51.576172 36.763672 L 42.148438 55.683594 C 42.048437 55.861594 42 56.078984 42 56.333984 C 42 57.002984 42.325609 57.335938 42.974609 57.335938 L 52.513672 57.335938 L 52.513672 62.992188 C 52.513672 63.302188 52.632094 63.548516 52.871094 63.728516 C 53.110094 63.908516 53.402906 64 53.753906 64 C 54.078906 64 54.367188 63.908516 54.617188 63.728516 C 54.867188 63.547516 54.994141 63.302188 54.994141 62.992188 L 54.994141 57.335938 L 57.060547 57.335938 C 57.337547 57.335937 57.560328 57.218375 57.736328 56.984375 C 57.911328 56.749375 58.001953 56.471438 58.001953 56.148438 C 58.001953 55.851438 57.918859 55.585563 57.755859 55.351562 C 57.593859 55.116563 57.361547 54.998047 57.060547 54.998047 L 54.994141 54.998047 L 54.994141 47.537109 C 54.994141 47.228109 54.869141 46.989266 54.619141 46.822266 C 54.369141 46.654266 54.080859 46.570312 53.755859 46.570312 C 52.929859 46.570312 52.515625 46.893109 52.515625 47.537109 L 52.515625 54.998047 L 45.154297 54.998047 L 53.830078 37.53125 C 53.905078 37.35325 53.943359 37.186203 53.943359 37.033203 C 53.943359 36.753203 53.811828 36.511641 53.548828 36.306641 C 53.286828 36.103641 53.017187 36 52.742188 36 z"/></svg>