<svg fill="#000000" xmlns="http://www.w3.org/2000/svg"  viewBox="0 0 100 100" width="30px" height="30px"><path d="M 49.978516 14.021484 C 30.108109 14.021484 13.978516 30.151078 13.978516 50.021484 C 13.978516 69.891891 30.108109 86.021484 49.978516 86.021484 C 69.848922 86.021484 85.978516 69.891891 85.978516 50.021484 C 85.978516 30.151078 69.848922 14.021484 49.978516 14.021484 z M 49.978516 16.021484 C 68.768042 16.021484 83.978516 31.231958 83.978516 50.021484 C 83.978516 68.81101 68.768042 84.021484 49.978516 84.021484 C 31.18899 84.021484 15.978516 68.81101 15.978516 50.021484 C 15.978516 31.231958 31.18899 16.021484 49.978516 16.021484 z M 50 20 C 33.437765 20 20 33.437765 20 50 C 20 66.562235 33.437765 80 50 80 C 66.562235 80 80 66.562235 80 50 C 80 41.038621 76.062117 32.994931 69.830078 27.498047 A 0.50005 0.50005 0 1 0 69.169922 28.248047 C 75.195883 33.563163 79 41.331379 79 50 C 79 66.021765 66.021765 79 50 79 C 33.978235 79 21 66.021765 21 50 C 21 33.978235 33.978235 21 50 21 C 53.26906 21 56.407907 21.547945 59.339844 22.544922 A 0.50005 0.50005 0 1 0 59.660156 21.597656 C 56.628093 20.566633 53.38094 20 50 20 z M 62.46875 22.777344 A 0.50005 0.50005 0 0 0 62.289062 23.732422 C 62.958537 24.045563 63.612327 24.384945 64.253906 24.748047 A 0.50026338 0.50026338 0 1 0 64.746094 23.876953 C 64.083673 23.502055 63.405464 23.151031 62.710938 22.826172 A 0.50005 0.50005 0 0 0 62.46875 22.777344 z M 66.498047 25.039062 A 0.50005 0.50005 0 0 0 66.220703 25.957031 C 66.551463 26.180465 66.877403 26.415671 67.203125 26.65625 A 0.50005 0.50005 0 1 0 67.796875 25.851562 C 67.464597 25.606143 67.126537 25.363473 66.779297 25.128906 A 0.50005 0.50005 0 0 0 66.498047 25.039062 z M 50 36 C 45.179 36 42.769531 38.19875 42.769531 42.59375 C 42.769531 45.64175 43.909406 47.635219 46.191406 48.574219 C 43.397406 49.691219 42 52.066266 42 55.697266 L 42 56.154297 C 42 58.845297 42.730406 60.826703 44.191406 62.095703 C 45.653406 63.365703 47.589 64 50 64 C 52.41 64 54.346594 63.364703 55.808594 62.095703 C 57.269594 60.825703 58 58.845297 58 56.154297 L 58 55.697266 C 58 52.040266 56.614703 49.665219 53.845703 48.574219 C 56.101703 47.634219 57.230469 45.64075 57.230469 42.59375 C 57.230469 38.19875 54.82 36 50 36 z M 50 38.166016 C 53.179 38.166016 54.769531 39.70425 54.769531 42.78125 C 54.769531 45.90925 53.179 47.474609 50 47.474609 C 46.846 47.474609 45.269531 45.90925 45.269531 42.78125 C 45.269531 39.70325 46.846 38.166016 50 38.166016 z M 49.998047 49.789062 C 53.639047 49.789062 55.460938 51.68375 55.460938 55.46875 L 55.460938 56.003906 C 55.460938 57.935906 54.992641 59.388188 54.056641 60.367188 C 53.120641 61.346188 51.780109 61.835938 50.037109 61.835938 C 48.293109 61.835937 46.942469 61.346187 45.980469 60.367188 C 45.019469 59.388188 44.537109 57.935906 44.537109 56.003906 L 44.537109 55.46875 C 44.537109 51.68375 46.356047 49.789062 49.998047 49.789062 z"/></svg>