<svg fill="#000000" xmlns="http://www.w3.org/2000/svg"  viewBox="0 0 100 100" width="30px" height="30px"><path d="M 49.978516 14.021484 C 30.108109 14.021484 13.978516 30.151078 13.978516 50.021484 C 13.978516 69.891891 30.108109 86.021484 49.978516 86.021484 C 69.848922 86.021484 85.978516 69.891891 85.978516 50.021484 C 85.978516 30.151078 69.848922 14.021484 49.978516 14.021484 z M 49.978516 16.021484 C 68.768042 16.021484 83.978516 31.231958 83.978516 50.021484 C 83.978516 68.81101 68.768042 84.021484 49.978516 84.021484 C 31.18899 84.021484 15.978516 68.81101 15.978516 50.021484 C 15.978516 31.231958 31.18899 16.021484 49.978516 16.021484 z M 50 20 C 33.437765 20 20 33.437765 20 50 C 20 66.562235 33.437765 80 50 80 C 66.562235 80 80 66.562235 80 50 C 80 41.038621 76.062117 32.994931 69.830078 27.498047 A 0.50005 0.50005 0 1 0 69.169922 28.248047 C 75.195883 33.563163 79 41.331379 79 50 C 79 66.021765 66.021765 79 50 79 C 33.978235 79 21 66.021765 21 50 C 21 33.978235 33.978235 21 50 21 C 53.26906 21 56.407907 21.547945 59.339844 22.544922 A 0.50005 0.50005 0 1 0 59.660156 21.597656 C 56.628093 20.566633 53.38094 20 50 20 z M 62.46875 22.777344 A 0.50005 0.50005 0 0 0 62.289062 23.732422 C 62.958537 24.045563 63.612327 24.384945 64.253906 24.748047 A 0.50026338 0.50026338 0 1 0 64.746094 23.876953 C 64.083673 23.502055 63.405464 23.151031 62.710938 22.826172 A 0.50005 0.50005 0 0 0 62.46875 22.777344 z M 66.498047 25.039062 A 0.50005 0.50005 0 0 0 66.220703 25.957031 C 66.551463 26.180465 66.877403 26.415671 67.203125 26.65625 A 0.50005 0.50005 0 1 0 67.796875 25.851562 C 67.464597 25.606143 67.126537 25.363473 66.779297 25.128906 A 0.50005 0.50005 0 0 0 66.498047 25.039062 z M 45.042969 36 C 44.585969 36 44.320141 36.316266 44.244141 36.947266 L 43.523438 47.892578 C 43.523438 47.942578 43.510375 48.069484 43.484375 48.271484 C 43.458375 48.473484 43.445312 48.599391 43.445312 48.650391 C 43.445312 49.282391 43.877281 49.599609 44.738281 49.599609 L 50.019531 49.599609 C 51.716531 49.599609 53.034656 50.068859 53.972656 51.005859 C 54.908656 51.942859 55.378906 53.347656 55.378906 55.222656 L 55.378906 55.943359 C 55.378906 57.869359 54.909656 59.305859 53.972656 60.255859 C 53.035656 61.205859 51.705422 61.681641 49.982422 61.681641 C 48.436422 61.681641 47.157531 61.294484 46.144531 60.521484 C 45.130531 59.748484 44.623047 58.692609 44.623047 57.349609 C 44.623047 56.640609 44.191078 56.285156 43.330078 56.285156 C 42.519078 56.285156 42.115234 56.703063 42.115234 57.539062 C 42.115234 59.363062 42.823187 60.897672 44.242188 62.138672 C 45.660188 63.379672 47.585578 64 50.017578 64 C 52.399578 64 54.306281 63.347922 55.738281 62.044922 C 57.168281 60.739922 57.884766 58.708266 57.884766 55.947266 L 57.884766 55.224609 C 57.884766 52.514609 57.174859 50.540828 55.755859 49.298828 C 54.337859 48.057828 52.424578 47.435547 50.017578 47.435547 L 45.876953 47.435547 L 46.474609 38.318359 L 55.679688 38.318359 C 56.237687 38.318359 56.515625 37.926625 56.515625 37.140625 C 56.515625 36.380625 56.237687 36 55.679688 36 L 45.042969 36 z"/></svg>