<?xml version="1.0"?><svg fill="#000000" xmlns="http://www.w3.org/2000/svg"  viewBox="0 0 100 100" width="30px" height="30px">    <path d="M 29 17 C 22.383 17 17 22.383 17 29 L 17 71 C 17 77.617 22.383 83 29 83 L 71 83 C 77.617 83 83 77.617 83 71 L 83 29 C 83 22.383 77.617 17 71 17 L 29 17 z M 29 19 L 49 19 L 49 49 L 19 49 L 19 29 C 19 23.486 23.486 19 29 19 z M 51 19 L 71 19 C 76.514 19 81 23.486 81 29 L 81 49 L 51 49 L 51 19 z M 41.5 23 C 39.57 23 38 24.57 38 26.5 C 38 28.43 39.57 30 41.5 30 C 43.43 30 45 28.43 45 26.5 C 45 24.57 43.43 23 41.5 23 z M 66.5 23 C 66.224 23 66 23.224 66 23.5 L 66 27.025391 C 64.307925 27.137799 62.770354 27.81026 61.568359 28.863281 L 58.853516 26.146484 C 58.658516 25.951484 58.341484 25.951484 58.146484 26.146484 C 57.951484 26.341484 57.951484 26.658516 58.146484 26.853516 L 60.861328 29.570312 C 59.809347 30.772005 59.137734 32.308899 59.025391 34 L 55.5 34 C 55.224 34 55 34.224 55 34.5 C 55 34.776 55.224 35 55.5 35 L 59.025391 35 C 59.137765 36.691564 59.810805 38.227851 60.863281 39.429688 L 58.146484 42.146484 C 57.951484 42.341484 57.951484 42.658516 58.146484 42.853516 C 58.244484 42.950516 58.372 43 58.5 43 C 58.628 43 58.756516 42.950516 58.853516 42.853516 L 61.570312 40.136719 C 62.772149 41.189195 64.308436 41.862235 66 41.974609 L 66 45.5 C 66 45.776 66.224 46 66.5 46 C 66.776 46 67 45.776 67 45.5 L 67 41.974609 C 68.691101 41.862266 70.227995 41.190653 71.429688 40.138672 L 74.146484 42.853516 C 74.244484 42.950516 74.372 43 74.5 43 C 74.628 43 74.756516 42.950516 74.853516 42.853516 C 75.048516 42.658516 75.048516 42.341484 74.853516 42.146484 L 72.136719 39.431641 C 73.18974 38.229646 73.862201 36.692075 73.974609 35 L 77.5 35 C 77.776 35 78 34.776 78 34.5 C 78 34.224 77.776 34 77.5 34 L 73.974609 34 C 73.862235 32.308436 73.189195 30.772149 72.136719 29.570312 L 74.853516 26.853516 C 75.048516 26.658516 75.048516 26.341484 74.853516 26.146484 C 74.658516 25.951484 74.341484 25.951484 74.146484 26.146484 L 71.429688 28.863281 C 70.227851 27.810805 68.691564 27.137765 67 27.025391 L 67 23.5 C 67 23.224 66.776 23 66.5 23 z M 41.5 24 C 42.878 24 44 25.121 44 26.5 C 44 27.879 42.878 29 41.5 29 C 40.122 29 39 27.879 39 26.5 C 39 25.121 40.122 24 41.5 24 z M 66.5 28 C 70.084 28 73 30.916 73 34.5 C 73 38.084 70.084 41 66.5 41 C 62.916 41 60 38.084 60 34.5 C 60 30.916 62.916 28 66.5 28 z M 31.501953 29.015625 C 31.340453 29.015625 31.178937 29.084156 31.085938 29.222656 L 30.417969 30.222656 C 30.264969 30.451656 30.326641 30.763016 30.556641 30.916016 C 30.785641 31.067016 31.097 31.006344 31.25 30.777344 L 31.5 30.400391 L 40.566406 44 L 22.433594 44 L 25.248047 39.775391 C 25.401047 39.546391 25.339375 39.235031 25.109375 39.082031 C 24.878375 38.929031 24.569969 38.993656 24.417969 39.222656 L 21.083984 44.222656 C 20.981984 44.376656 20.971594 44.573328 21.058594 44.736328 C 21.145594 44.898328 21.315 45 21.5 45 L 41.5 45 L 46.5 45 C 46.684 45 46.852453 44.899281 46.939453 44.738281 C 47.026453 44.577281 47.019922 44.379562 46.919922 44.226562 L 40.419922 34.226562 C 40.234922 33.943562 39.765078 33.943562 39.580078 34.226562 L 37.443359 37.511719 L 31.917969 29.222656 C 31.824969 29.084156 31.663453 29.015625 31.501953 29.015625 z M 29.400391 32.009766 C 29.275141 32.034891 29.160484 32.107656 29.083984 32.222656 L 28.417969 33.222656 C 28.264969 33.451656 28.326641 33.763016 28.556641 33.916016 C 28.642641 33.973016 28.737031 34 28.832031 34 C 28.994031 34 29.152047 33.922344 29.248047 33.777344 L 29.916016 32.777344 C 30.069016 32.548344 30.007344 32.236984 29.777344 32.083984 C 29.661844 32.007484 29.525641 31.984641 29.400391 32.009766 z M 27.400391 35.009766 C 27.275016 35.034891 27.158031 35.107656 27.082031 35.222656 L 25.75 37.222656 C 25.597 37.451656 25.658672 37.763016 25.888672 37.916016 C 25.974672 37.973016 26.071016 38 26.166016 38 C 26.328016 38 26.486031 37.922344 26.582031 37.777344 L 27.914062 35.777344 C 28.067062 35.548344 28.005391 35.236984 27.775391 35.083984 C 27.659891 35.007484 27.525766 34.984641 27.400391 35.009766 z M 40 35.417969 L 45.578125 44 L 41.769531 44 L 38.048828 38.417969 L 40 35.417969 z M 19 51 L 49 51 L 49 81 L 29 81 C 23.486 81 19 76.514 19 71 L 19 51 z M 51 51 L 81 51 L 81 71 C 81 76.514 76.514 81 71 81 L 51 81 L 51 51 z M 57.5 54 C 55.57 54 54 55.57 54 57.5 C 54 59.43 55.57 61 57.5 61 C 59.43 61 61 59.43 61 57.5 C 61 55.57 59.43 54 57.5 54 z M 34 55 C 31.799 55 30.007812 56.794 30.007812 59 C 30.007813 59.648 30.174563 60.596938 30.476562 61.585938 C 29.848562 61.057938 29.210875 60.620094 28.671875 60.371094 C 28.323875 60.209094 27.953266 60.099969 27.572266 60.042969 C 27.292266 60.006969 27.046859 60.192844 27.005859 60.464844 C 26.964859 60.737844 27.152781 60.99025 27.425781 61.03125 C 27.711781 61.07325 27.987047 61.155344 28.248047 61.277344 C 29.134047 61.687344 30.642859 62.902609 31.630859 64.224609 C 31.790859 64.440609 32.0915 64.488844 32.3125 64.339844 C 32.5335 64.189844 32.596031 63.892063 32.457031 63.664062 C 31.588031 62.242063 31.005859 60.103047 31.005859 58.998047 C 31.005859 57.344047 32.348047 55.998047 33.998047 55.998047 C 35.648047 55.998047 36.992188 57.344047 36.992188 58.998047 C 36.992188 60.103047 36.408062 62.242063 35.539062 63.664062 C 35.399062 63.892062 35.464547 64.190844 35.685547 64.339844 C 35.908547 64.489844 36.207188 64.440609 36.367188 64.224609 C 37.355188 62.902609 38.861047 61.687344 39.748047 61.277344 C 40.474047 60.940344 41.285156 60.907594 42.035156 61.183594 C 42.787156 61.459594 43.386656 62.013188 43.722656 62.742188 C 44.416656 64.243187 43.759719 66.028656 42.261719 66.722656 C 41.433719 67.106656 39.661094 67.484297 37.996094 67.404297 C 37.732094 67.403297 37.488563 67.607812 37.476562 67.882812 C 37.464562 68.158813 37.677125 68.391297 37.953125 68.404297 C 38.100125 68.410297 38.250344 68.412109 38.402344 68.412109 C 39.929344 68.412109 41.666594 68.102813 42.683594 67.632812 C 44.681594 66.705813 45.554859 64.324266 44.630859 62.322266 C 44.181859 61.351266 43.382859 60.613141 42.380859 60.244141 C 41.379859 59.878141 40.297078 59.921141 39.330078 60.369141 C 38.791078 60.619141 38.151438 61.056937 37.523438 61.585938 C 37.825438 60.596938 37.992188 59.647 37.992188 59 C 37.992187 56.794 36.201 55 34 55 z M 57.5 55 C 58.878 55 60 56.121 60 57.5 C 60 58.879 58.878 60 57.5 60 C 56.122 60 55 58.879 55 57.5 C 55 56.121 56.122 55 57.5 55 z M 24.554688 61 C 24.426813 60.998625 24.298219 61.044625 24.199219 61.140625 C 23.854219 61.478625 23.575141 61.875312 23.369141 62.320312 C 22.445141 64.322313 23.319359 66.703859 25.318359 67.630859 C 26.052359 67.969859 27.161875 68.22675 28.296875 68.34375 C 27.519875 68.87175 26.838875 69.451891 26.421875 69.962891 C 25.025875 71.667891 25.274562 74.192797 26.976562 75.591797 C 27.800563 76.268797 28.843391 76.584469 29.900391 76.480469 C 30.962391 76.376469 31.920656 75.862156 32.597656 75.035156 C 33.087656 74.436156 33.604 73.45225 34 72.40625 C 34.396 73.45225 34.912344 74.436156 35.402344 75.035156 C 36.079344 75.862156 37.037609 76.376469 38.099609 76.480469 C 38.232609 76.493469 38.366047 76.5 38.498047 76.5 C 39.418047 76.5 40.303438 76.185797 41.023438 75.591797 C 42.725438 74.191797 42.974125 71.667891 41.578125 69.962891 C 41.402125 69.748891 41.087047 69.715578 40.873047 69.892578 C 40.659047 70.067578 40.629688 70.382703 40.804688 70.595703 C 41.851688 71.875703 41.665672 73.769359 40.388672 74.818359 C 39.771672 75.326359 38.993266 75.560375 38.197266 75.484375 C 37.402266 75.405375 36.684734 75.021344 36.177734 74.402344 C 35.633734 73.737344 34.855328 72.178562 34.486328 70.601562 C 34.380328 70.150563 33.618672 70.150563 33.513672 70.601562 C 33.144672 72.178563 32.366266 73.737344 31.822266 74.402344 C 31.314266 75.021344 30.597734 75.405375 29.802734 75.484375 C 29.006734 75.560375 28.229328 75.326359 27.611328 74.818359 C 26.334328 73.769359 26.147312 71.874703 27.195312 70.595703 C 27.779312 69.882703 29.034047 68.957609 30.248047 68.349609 C 30.459047 68.243609 30.566813 68.006344 30.507812 67.777344 C 30.449812 67.549344 30.250906 67.402344 30.003906 67.402344 C 28.340906 67.483344 26.566281 67.107656 25.738281 66.722656 C 24.239281 66.028656 23.584344 64.241234 24.277344 62.740234 C 24.431344 62.405234 24.641437 62.107469 24.898438 61.855469 C 25.095437 61.662469 25.09925 61.345438 24.90625 61.148438 C 24.80975 61.049938 24.682562 61.001375 24.554688 61 z M 67 61 C 66.427 61 65.865078 61.097109 65.330078 61.287109 C 65.070078 61.381109 64.935297 61.667734 65.029297 61.927734 C 65.123297 62.187734 65.410922 62.319469 65.669922 62.230469 C 66.095922 62.077469 66.543 62 67 62 C 68.756 62 70.329266 63.188578 70.822266 64.892578 C 70.862266 65.029578 70.959844 65.143078 71.089844 65.205078 C 71.219844 65.266078 71.369953 65.269937 71.501953 65.210938 C 71.821953 65.070938 72.158 65 72.5 65 C 73.878 65 75 66.121 75 67.5 C 75 67.649 74.979125 67.795453 74.953125 67.939453 C 74.916125 68.148453 75.015172 68.358891 75.201172 68.462891 C 76.310172 69.085891 77 70.249 77 71.5 C 77 73.43 75.43 75 73.5 75 L 59.5 75 C 57.57 75 56 73.43 56 71.5 C 56 69.883 57.101687 68.487422 58.679688 68.107422 C 58.936688 68.045422 59.100687 67.794203 59.054688 67.533203 C 59.022687 67.359203 59 67.183 59 67 C 59 65.346 60.346 64 62 64 C 62.143 64 62.282922 64.012203 62.419922 64.033203 C 62.693922 64.084203 62.949141 63.892094 62.994141 63.621094 C 63.038141 63.349094 62.852078 63.092828 62.580078 63.048828 C 62.392078 63.017828 62.198 63 62 63 C 59.794 63 58 64.794 58 67 C 58 67.089 58.004719 67.176672 58.011719 67.263672 C 56.217719 67.888672 55 69.571 55 71.5 C 55 73.981 57.019 76 59.5 76 L 73.5 76 C 75.981 76 78 73.981 78 71.5 C 78 70.002 77.236328 68.604484 75.986328 67.771484 C 75.994328 67.682484 76 67.592 76 67.5 C 76 65.57 74.43 64 72.5 64 C 72.198 64 71.899375 64.038234 71.609375 64.115234 C 70.849375 62.257234 69.023 61 67 61 z"/></svg>