<svg fill="#000000" xmlns="http://www.w3.org/2000/svg"  viewBox="0 0 16 16" width="32px" height="32px"><path d="M 4.5 2 C 3.6774686 2 3 2.6774686 3 3.5 L 3 8 L 4 8 L 4 3.5 C 4 3.2185314 4.2185314 3 4.5 3 L 9 3 L 9 6 L 12 6 L 12 8 L 13 8 L 13 5.2929688 L 9.7070312 2 L 4.5 2 z M 10 3.7070312 L 11.292969 5 L 10 5 L 10 3.7070312 z M 2 9 L 2 11.5 L 2 12.5 C 2 12.781469 1.7814686 13 1.5 13 C 1.2185314 13 1 12.781469 1 12.5 L 1 12 L 0 12 L 0 12.5 C 0 13.322531 0.6774686 14 1.5 14 C 2.3225314 14 3 13.322531 3 12.5 L 3 11.5 L 3 9 L 2 9 z M 5.5 9 C 4.91 9 4.5649062 9.2384531 4.3789062 9.4394531 C 3.9679062 9.8824531 3.9989531 10.472 4.0019531 10.5 C 4.0019531 11.308 4.7364375 11.672453 5.2734375 11.939453 C 5.6994375 12.150453 6 12.313812 6 12.507812 C 6 12.509813 5.990375 12.751766 5.859375 12.884766 C 5.830375 12.913766 5.747 13 5.5 13 L 4.0917969 13 C 4.1517969 13.191 4.2476875 13.402891 4.4296875 13.587891 C 4.6146875 13.775891 4.951 14 5.5 14 C 6.049 14 6.3862656 13.774937 6.5722656 13.585938 C 6.9982656 13.152938 6.9990469 12.558 6.9980469 12.5 C 6.9980469 11.68 6.2577969 11.311969 5.7167969 11.042969 C 5.2977969 10.834969 5.0029531 10.67375 5.0019531 10.46875 C 5.0019531 10.46675 4.9932812 10.242187 5.1132812 10.117188 C 5.1872812 10.040188 5.318 10 5.5 10 L 6.9140625 10 C 6.7460625 9.497 6.316 9 5.5 9 z M 9.5 9 C 8.6774686 9 8 9.6774686 8 10.5 L 8 12.5 C 8 13.322531 8.6774686 14 9.5 14 C 10.322531 14 11 13.322531 11 12.5 L 11 10.5 C 11 9.6774686 10.322531 9 9.5 9 z M 12 9 L 12 14 L 13 14 L 13 11.357422 L 14 14 L 15 14 L 15 9 L 14 9 L 14 11.642578 L 13 9 L 12 9 z M 9.5 10 C 9.7814686 10 10 10.218531 10 10.5 L 10 12.5 C 10 12.781469 9.7814686 13 9.5 13 C 9.2185314 13 9 12.781469 9 12.5 L 9 10.5 C 9 10.218531 9.2185314 10 9.5 10 z"/></svg>