<svg fill="#000000" xmlns="http://www.w3.org/2000/svg"  viewBox="0 0 100 100" width="40px" height="40px"><path d="M 25.976562 23 A 1.0001 1.0001 0 0 0 24.976562 24 L 24.976562 29 A 1.0001 1.0001 0 0 0 25.976562 30 L 28.228516 30 L 18.140625 43.226562 A 0.50099183 0.50099183 0 1 0 18.9375 43.833984 L 29.199219 30.376953 L 38.679688 43.818359 A 0.50005 0.50005 0 1 0 39.496094 43.242188 L 30.158203 30 L 47.976562 30 L 47.976562 73 L 39.537109 73 C 35.720398 73 32.783203 76.637507 32.783203 80.875 C 32.783203 80.996365 32.789062 81.037365 32.789062 81 A 1.0001 1.0001 0 0 0 33.789062 82 L 66.210938 82 A 1.0001 1.0001 0 0 0 67.210938 81.023438 C 67.210796 81.029438 67.216797 80.980488 67.216797 80.875 C 67.216797 76.637507 64.279602 73 60.462891 73 L 51.976562 73 L 51.976562 30 L 69.796875 30 L 59.710938 43.226562 A 0.50021517 0.50021517 0 1 0 60.505859 43.833984 L 70.769531 30.375 L 80.25 43.818359 A 0.50005 0.50005 0 1 0 81.066406 43.242188 L 71.728516 30 L 73.976562 30 A 1.0001 1.0001 0 0 0 74.976562 29 L 74.976562 24 A 1.0001 1.0001 0 0 0 73.976562 23 L 25.976562 23 z M 26.976562 25 L 72.976562 25 L 72.976562 28 L 26.976562 28 L 26.976562 25 z M 48.976562 30 L 50.976562 30 L 50.976562 73 L 48.976562 73 L 48.976562 30 z M 18.542969 45 A 1.0001 1.0001 0 0 0 17.835938 45.292969 L 17.832031 45.294922 A 1.0001 1.0001 0 0 0 17.541016 45.994141 C 17.521043 48.064009 17.959827 49.957963 18.75 51.416016 C 19.540173 52.874069 20.772855 54 22.326172 54 L 36.101562 54 C 37.654879 54 38.887397 52.874107 39.677734 51.416016 C 40.468072 49.957925 40.909178 48.062259 40.888672 45.992188 A 1.0001 1.0001 0 0 0 40.595703 45.294922 L 40.59375 45.292969 A 1.0001 1.0001 0 0 0 39.886719 45 L 18.542969 45 z M 60.113281 45 A 1.0001 1.0001 0 0 0 59.40625 45.292969 L 59.402344 45.294922 A 1.0001 1.0001 0 0 0 59.109375 45.994141 C 59.089405 48.064143 59.529859 49.957976 60.320312 51.416016 C 61.11076 52.874009 62.345121 54 63.898438 54 L 77.673828 54 C 79.227145 54 80.459662 52.874107 81.25 51.416016 C 82.040338 49.957925 82.479491 48.062259 82.458984 45.992188 A 1.0001 1.0001 0 0 0 82.167969 45.294922 L 82.164062 45.292969 A 1.0001 1.0001 0 0 0 81.457031 45 L 60.113281 45 z M 19.642578 47 L 38.787109 47 C 38.675446 48.351661 38.389556 49.596465 37.919922 50.462891 C 37.33376 51.5443 36.654246 52 36.101562 52 L 22.326172 52 C 21.773488 52 21.095842 51.544338 20.509766 50.462891 C 20.040352 49.596714 19.754602 48.351243 19.642578 47 z M 61.212891 47 L 80.357422 47 C 80.245747 48.351611 79.961807 49.596491 79.492188 50.462891 C 78.906025 51.5443 78.226512 52 77.673828 52 L 63.898438 52 C 63.345754 52 62.666375 51.544351 62.080078 50.462891 C 61.610489 49.596704 61.324974 48.351184 61.212891 47 z M 39.537109 75 L 60.462891 75 C 62.739273 75 64.703544 77.135328 65.070312 80 L 34.929688 80 C 35.021917 79.279632 35.216407 78.60577 35.490234 78 L 58.476562 78 A 0.50005 0.50005 0 1 0 58.476562 77 L 36.072266 77 C 36.935437 75.773546 38.175886 75 39.537109 75 z M 61.476562 77 A 0.50005 0.50005 0 1 0 61.476562 78 L 62.476562 78 A 0.50005 0.50005 0 1 0 62.476562 77 L 61.476562 77 z"/></svg>