<svg fill="#000000" xmlns="http://www.w3.org/2000/svg"  viewBox="0 0 100 100" width="50px" height="50px"><path d="M 52.697266 19.888672 C 51.462857 19.888672 50.229211 20.356726 49.294922 21.291016 A 1.0001 1.0001 0 0 0 49.078125 21.619141 A 1.0001 1.0001 0 0 0 49.076172 21.623047 C 48.090547 22.793375 47.731992 24.325115 48.025391 25.742188 L 35.722656 38.046875 C 35.37535 37.969712 35.022474 37.919922 34.667969 37.919922 C 33.43356 37.919922 32.197961 38.387976 31.263672 39.322266 A 1.0001 1.0001 0 0 0 31.044922 39.652344 A 1.0001 1.0001 0 0 0 31.044922 39.654297 C 29.458806 41.537923 29.492642 44.357877 31.263672 46.128906 L 39.925781 54.791016 C 41.698356 56.563591 44.522669 56.598244 46.40625 55.007812 A 1.0001 1.0001 0 0 0 46.732422 54.791016 C 47.93585 53.588399 48.354038 51.889854 48.007812 50.332031 L 52.078125 46.261719 L 75.605469 69.787109 C 76.746282 70.927923 78.618952 70.927923 79.759766 69.787109 C 80.900274 68.645398 80.900579 66.773628 79.759766 65.632812 L 56.234375 42.107422 L 60.3125 38.029297 C 61.731826 38.323697 63.2666 37.96523 64.4375 36.976562 A 1.0001 1.0001 0 0 0 64.763672 36.759766 C 66.632251 34.891187 66.632251 31.821704 64.763672 29.953125 L 56.101562 21.291016 C 55.167274 20.356726 53.931674 19.888672 52.697266 19.888672 z M 52.697266 21.882812 C 53.417357 21.882812 54.13879 22.156368 54.6875 22.705078 L 63.349609 31.367188 C 64.44703 32.464607 64.44703 34.248282 63.349609 35.345703 C 62.568636 36.126676 61.442343 36.340342 60.460938 36.009766 A 1.0001 1.0001 0 0 0 60.248047 35.933594 C 59.930128 35.796825 59.630465 35.605075 59.371094 35.345703 L 50.708984 26.683594 C 49.611563 25.586173 49.611563 23.802499 50.708984 22.705078 C 51.257695 22.156368 51.977174 21.882813 52.697266 21.882812 z M 48.935547 27.662109 C 49.051184 27.809694 49.158822 27.961557 49.294922 28.097656 L 57.957031 36.759766 C 58.09302 36.895754 58.245109 37.003559 58.392578 37.119141 L 47.103516 48.408203 C 46.988172 48.261824 46.867204 48.119157 46.732422 47.984375 L 38.070312 39.322266 C 37.935542 39.187495 37.792817 39.066535 37.646484 38.951172 L 48.935547 27.662109 z M 49.431641 29.587891 A 0.50005 0.50005 0 0 0 49.087891 29.740234 L 47.867188 30.958984 A 0.50005 0.50005 0 1 0 48.574219 31.666016 L 49.794922 30.447266 A 0.50005 0.50005 0 0 0 49.431641 29.587891 z M 46.474609 32.544922 A 0.50005 0.50005 0 0 0 46.130859 32.697266 L 40.650391 38.175781 A 0.50005 0.50005 0 1 0 41.357422 38.882812 L 46.837891 33.404297 A 0.50005 0.50005 0 0 0 46.474609 32.544922 z M 34.667969 39.912109 C 35.38806 39.912109 36.10754 40.187618 36.65625 40.736328 L 45.318359 49.398438 C 45.572926 49.653004 45.762018 49.946554 45.898438 50.257812 A 1.0001 1.0001 0 0 0 45.988281 50.507812 C 46.309271 51.484376 46.093801 52.600082 45.318359 53.375 C 44.220938 54.472421 42.437265 54.472421 41.339844 53.375 L 32.677734 44.714844 C 31.580313 43.617423 31.580313 41.833749 32.677734 40.736328 C 33.226445 40.187618 33.947877 39.912109 34.667969 39.912109 z M 55.529297 42.816406 L 79.052734 66.339844 C 79.807921 67.09503 79.808226 68.32379 79.052734 69.080078 C 78.297548 69.835265 77.067687 69.835265 76.3125 69.080078 L 52.785156 45.554688 L 55.490234 42.849609 C 55.502891 42.837736 55.516672 42.828357 55.529297 42.816406 z M 28.421875 65.998047 C 27.083949 65.998047 25.984375 67.09883 25.984375 68.4375 L 25.984375 68.5625 C 25.984375 68.712376 26.002943 68.857332 26.029297 69 L 22.123047 69 A 1.0001 1.0001 0 0 0 21.146484 69.785156 L 19.171875 78.785156 A 1.0001 1.0001 0 0 0 20.148438 80 L 59.363281 80 A 1.0001 1.0001 0 0 0 60.339844 78.785156 L 58.367188 69.785156 A 1.0001 1.0001 0 0 0 57.390625 69 L 53.939453 69 C 53.965905 68.857328 53.984234 68.712382 53.984375 68.5625 L 53.984375 68.4375 C 53.984375 67.09883 52.885545 65.998047 51.546875 65.998047 L 28.421875 65.998047 z M 28.421875 66.998047 L 51.546875 66.998047 C 52.340205 66.998047 52.984375 67.64417 52.984375 68.4375 L 52.984375 68.5625 C 52.984231 68.716394 52.953158 68.860967 52.908203 69 L 27.060547 69 C 27.015708 68.860964 26.984375 68.716405 26.984375 68.5625 L 26.984375 68.4375 C 26.984375 67.64417 27.629801 66.998047 28.421875 66.998047 z M 22.927734 71 L 28.421875 71 L 51.546875 71 L 56.585938 71 L 58.121094 78 L 21.390625 78 L 21.830078 76 L 41.484375 76 A 0.50005 0.50005 0 1 0 41.484375 75 L 22.048828 75 L 22.927734 71 z M 43.484375 75 A 0.50005 0.50005 0 1 0 43.484375 76 L 44.484375 76 A 0.50005 0.50005 0 1 0 44.484375 75 L 43.484375 75 z M 47.484375 75 A 0.50005 0.50005 0 1 0 47.484375 76 L 51.484375 76 A 0.50005 0.50005 0 1 0 51.484375 75 L 47.484375 75 z"/></svg>