<svg fill="#000000" xmlns="http://www.w3.org/2000/svg"  viewBox="0 0 16 16" width="32px" height="32px"><path d="M 2.5 2 C 1.675781 2 1 2.675781 1 3.5 L 1 12.5 C 1 13.324219 1.675781 14 2.5 14 L 13.5 14 C 14.324219 14 15 13.324219 15 12.5 L 15 3.5 C 15 2.675781 14.324219 2 13.5 2 Z M 2.5 3 L 13.5 3 C 13.78125 3 14 3.21875 14 3.5 L 14 12.5 C 14 12.78125 13.78125 13 13.5 13 L 2.5 13 C 2.21875 13 2 12.78125 2 12.5 L 2 3.5 C 2 3.21875 2.21875 3 2.5 3 Z M 11 5 L 11 9 L 10 9 L 11.5 11 L 13 9 L 12 9 L 12 5 Z M 3 5.027344 L 3 11 L 4 11 L 4 7.441406 L 5.5 8.941406 L 7 7.441406 L 7 11 L 8 11 L 8 5.027344 L 5.5 7.527344 Z"/></svg>