<?xml version="1.0"?><svg fill="#000000" xmlns="http://www.w3.org/2000/svg"  viewBox="0 0 100 100" width="30px" height="30px">    <path d="M 16 17 C 14.897 17 14 17.897 14 19 L 14 35 C 14 36.103 14.897 37 16 37 L 32 37 C 33.103 37 34 36.103 34 35 L 34 19 C 34 17.897 33.103 17 32 17 L 16 17 z M 16 19 L 32 19 L 32.001953 35 L 16 35 L 16 19 z M 41 22 C 40.448 22 40 22.448 40 23 L 40 31 C 40 31.552 40.448 32 41 32 L 85 32 C 85.552 32 86 31.552 86 31 L 86 23 C 86 22.448 85.552 22 85 22 L 41 22 z M 24.001953 22.019531 C 23.752453 22.019656 23.500969 22.129062 23.355469 22.351562 L 18.111328 30.808594 C 17.974328 31.043594 17.963844 31.328937 18.089844 31.585938 C 18.223844 31.840938 18.482672 32 18.763672 32 L 29.236328 32 C 29.518328 32 29.776109 31.841891 29.912109 31.587891 L 29.917969 31.574219 C 30.037969 31.330219 30.026812 31.045828 29.882812 30.798828 L 24.638672 22.341797 C 24.499172 22.128797 24.251453 22.019406 24.001953 22.019531 z M 24 23.207031 L 28.832031 31 L 19.169922 31 L 24 23.207031 z M 42 24 L 84 24 L 84 27 L 48.5 27 C 48.224 27 48 27.224 48 27.5 C 48 27.776 48.224 28 48.5 28 L 84 28 L 84 30 L 42 30 L 42 28 L 46.5 28 C 46.776 28 47 27.776 47 27.5 C 47 27.224 46.776 27 46.5 27 L 42 27 L 42 24 z M 16 40 C 14.897 40 14 40.897 14 42 L 14 58 C 14 59.103 14.897 60 16 60 L 32 60 C 33.103 60 34 59.103 34 58 L 34 42 C 34 40.897 33.103 40 32 40 L 16 40 z M 16 42 L 32 42 L 32.001953 58 L 16 58 L 16 42 z M 24 43.998047 C 22.624 43.998047 21.505859 45.140922 21.505859 46.544922 C 21.505859 46.617922 21.507672 46.695344 21.513672 46.777344 C 20.916672 46.506344 20.249719 46.484797 19.636719 46.716797 C 19.010719 46.946797 18.510516 47.416063 18.228516 48.039062 C 17.655516 49.314063 18.202313 50.828109 19.445312 51.412109 C 19.609313 51.490109 19.802625 51.560094 20.015625 51.621094 C 19.943625 51.696094 19.876359 51.769797 19.818359 51.841797 C 18.955359 52.928797 19.113969 54.532063 20.167969 55.414062 C 20.678969 55.848063 21.327047 56.051328 21.998047 55.986328 C 22.659047 55.922328 23.260406 55.596453 23.691406 55.064453 C 23.792406 54.937453 23.897 54.780609 24 54.599609 C 24.095 54.766609 24.1995 54.927359 24.3125 55.068359 C 24.7415 55.597359 25.341766 55.923281 26.009766 55.988281 C 26.087766 55.995281 26.172 56 26.25 56 C 26.83 56 27.376078 55.797969 27.830078 55.417969 C 28.887078 54.532969 29.044687 52.930797 28.179688 51.841797 C 28.122688 51.770797 28.056375 51.697047 27.984375 51.623047 C 28.197375 51.562047 28.389734 51.491062 28.552734 51.414062 C 29.432734 51.001063 30 50.092609 30 49.099609 C 30 48.731609 29.922484 48.376109 29.771484 48.037109 C 29.489484 47.415109 28.990141 46.945797 28.369141 46.716797 C 27.751141 46.482797 27.084328 46.505344 26.486328 46.777344 C 26.492328 46.695344 26.496094 46.617922 26.496094 46.544922 C 26.496094 45.140922 25.376 43.998047 24 43.998047 z M 41 45 C 40.448 45 40 45.448 40 46 L 40 54 C 40 54.552 40.448 55 41 55 L 85 55 C 85.552 55 86 54.552 86 54 L 86 46 C 86 45.448 85.552 45 85 45 L 41 45 z M 23.998047 45.001953 C 24.823047 45.001953 25.494141 45.693875 25.494141 46.546875 C 25.494141 46.844875 25.41325 47.297562 25.28125 47.726562 C 25.21525 47.939563 25.298375 48.169016 25.484375 48.291016 C 25.673375 48.414016 25.917938 48.396953 26.085938 48.251953 C 26.379937 47.998953 26.659906 47.803219 26.878906 47.699219 C 27.237906 47.529219 27.641578 47.51325 28.017578 47.65625 C 28.389578 47.79325 28.689375 48.075172 28.859375 48.451172 C 28.953375 48.657172 29 48.875609 29 49.099609 C 29 49.706609 28.657 50.259766 28.125 50.509766 C 27.815 50.656766 27.319781 50.775172 26.800781 50.826172 C 26.592781 50.847172 26.418234 50.996219 26.365234 51.199219 C 26.313234 51.403219 26.392453 51.616328 26.564453 51.736328 C 26.919453 51.983328 27.225438 52.249844 27.398438 52.464844 C 27.928437 53.130844 27.834453 54.110391 27.189453 54.650391 C 26.876453 54.912391 26.435656 55.021188 26.097656 54.992188 C 25.705656 54.954187 25.346844 54.757406 25.089844 54.441406 C 24.890844 54.192406 24.658797 53.739469 24.466797 53.230469 C 24.393797 53.035469 24.206047 52.90625 23.998047 52.90625 C 23.790047 52.90625 23.604297 53.036469 23.529297 53.230469 C 23.338297 53.738469 23.105203 54.1905 22.908203 54.4375 C 22.649203 54.7565 22.291438 54.954188 21.898438 54.992188 C 21.496437 55.026188 21.112641 54.909391 20.806641 54.650391 C 20.162641 54.110391 20.068703 53.130797 20.595703 52.466797 C 20.770703 52.249797 21.075641 51.984328 21.431641 51.736328 C 21.604641 51.616328 21.683859 51.402219 21.630859 51.199219 C 21.577859 50.996219 21.403312 50.847172 21.195312 50.826172 C 20.675313 50.775172 20.181141 50.657766 19.869141 50.509766 C 19.115141 50.154766 18.787672 49.230172 19.138672 48.451172 C 19.309672 48.075172 19.607375 47.793297 19.984375 47.654297 C 20.356375 47.513297 20.759141 47.529219 21.119141 47.699219 C 21.337141 47.802219 21.617156 47.998 21.910156 48.25 C 22.080156 48.396 22.325719 48.412062 22.511719 48.289062 C 22.698719 48.168062 22.781797 47.939563 22.716797 47.726562 C 22.585797 47.296563 22.503906 46.843875 22.503906 46.546875 C 22.503906 45.694875 23.174047 45.001953 23.998047 45.001953 z M 42 47 L 84 47 L 84 49 L 79.5 49 C 79.224 49 79 49.224 79 49.5 C 79 49.776 79.224 50 79.5 50 L 84 50 L 84 53 L 42 53 L 42 50 L 73.5 50 C 73.776 50 74 49.776 74 49.5 C 74 49.224 73.776 49 73.5 49 L 42 49 L 42 47 z M 75.5 49 C 75.224 49 75 49.224 75 49.5 C 75 49.776 75.224 50 75.5 50 L 77.5 50 C 77.776 50 78 49.776 78 49.5 C 78 49.224 77.776 49 77.5 49 L 75.5 49 z M 16 63 C 14.897 63 14 63.897 14 65 L 14 81 C 14 82.103 14.897 83 16 83 L 32 83 C 33.103 83 34 82.103 34 81 L 34 65 C 34 63.897 33.103 63 32 63 L 16 63 z M 16 65 L 32 65 L 32.001953 81 L 16 81 L 16 65 z M 24 66.167969 C 23.724 66.167969 23.5 66.391969 23.5 66.667969 L 23.5 69.050781 C 22.125129 69.224976 20.97033 70.08788 20.396484 71.292969 L 18.142578 70.560547 C 17.881578 70.475547 17.599672 70.619812 17.513672 70.882812 C 17.427672 71.144813 17.570984 71.426719 17.833984 71.511719 L 20.078125 72.240234 C 20.030411 72.486862 20 72.739621 20 73 C 20 74.146329 20.490686 75.174389 21.265625 75.904297 L 19.880859 77.810547 C 19.717859 78.033547 19.767234 78.345812 19.990234 78.507812 C 20.078234 78.572812 20.181203 78.603516 20.283203 78.603516 C 20.437203 78.603516 20.591453 78.533438 20.689453 78.398438 L 22.078125 76.486328 C 22.65125 76.803813 23.299566 77 24 77 C 24.700434 77 25.34875 76.803813 25.921875 76.486328 L 27.310547 78.398438 C 27.408547 78.533438 27.561797 78.603516 27.716797 78.603516 C 27.818797 78.603516 27.921766 78.572812 28.009766 78.507812 C 28.232766 78.345813 28.282141 78.034547 28.119141 77.810547 L 26.734375 75.904297 C 27.509314 75.174389 28 74.146329 28 73 C 28 72.738958 27.969826 72.485495 27.921875 72.238281 L 30.166016 71.511719 C 30.428016 71.425719 30.571328 71.142859 30.486328 70.880859 C 30.400328 70.617859 30.118422 70.475547 29.857422 70.560547 L 27.603516 71.292969 C 27.02967 70.08788 25.874871 69.224976 24.5 69.050781 L 24.5 66.667969 C 24.5 66.391969 24.276 66.167969 24 66.167969 z M 41 68 C 40.448 68 40 68.448 40 69 L 40 77 C 40 77.552 40.448 78 41 78 L 85 78 C 85.552 78 86 77.552 86 77 L 86 69 C 86 68.448 85.552 68 85 68 L 41 68 z M 24 70 C 25.654 70 27 71.346 27 73 C 27 74.654 25.654 76 24 76 C 22.346 76 21 74.654 21 73 C 21 71.346 22.346 70 24 70 z M 42 70 L 84 70 L 84 76 L 42 76 L 42 70 z"/></svg>