<?xml version="1.0"?><svg fill="#000000" xmlns="http://www.w3.org/2000/svg"  viewBox="0 0 100 100" width="30px" height="30px">    <path d="M 60.5 13 C 55.813 13 52 16.813 52 21.5 C 52 24.825232 53.923982 27.701743 56.712891 29.097656 L 54.193359 36.349609 C 53.163174 36.12518 52.096469 36 51 36 C 47.224178 36 43.780239 37.413391 41.140625 39.724609 L 30.027344 28.609375 C 31.258656 27.069645 32 25.120407 32 23 C 32 18.037 27.962 14 23 14 C 18.038 14 14 18.037 14 23 C 14 27.963 18.038 32 23 32 C 25.122851 32 27.072513 31.257627 28.613281 30.023438 L 39.726562 41.138672 C 37.414261 43.778551 36 47.223188 36 51 C 36 53.651698 36.697796 56.140908 37.910156 58.304688 L 29.595703 65.205078 C 27.854123 63.244333 25.322372 62 22.5 62 C 17.262 62 13 66.262 13 71.5 C 13 76.738 17.262 81 22.5 81 C 27.738 81 32 76.738 32 71.5 C 32 69.803788 31.547905 68.213914 30.765625 66.833984 L 39.017578 59.986328 C 41.756811 63.629168 46.101622 66 51 66 C 53.212652 66 55.308539 65.506414 57.201172 64.642578 L 60.771484 71.689453 C 58.493244 73.32396 57 75.98817 57 79 C 57 83.963 61.038 88 66 88 C 70.962 88 75 83.963 75 79 C 75 74.037 70.962 70 66 70 C 64.765377 70 63.587872 70.251192 62.515625 70.703125 L 58.962891 63.689453 C 62.360253 61.549651 64.850973 58.097477 65.689453 54.039062 L 65.681641 54.091797 L 70.037109 54.800781 C 70.018116 55.032178 70 55.263787 70 55.5 C 70 60.187 73.813 64 78.5 64 C 83.187 64 87 60.187 87 55.5 C 87 50.813 83.187 47 78.5 47 C 74.743255 47 71.553965 49.452019 70.433594 52.837891 L 66.003906 52.117188 L 65.720703 53.847656 C 65.89894 52.924703 66 51.974216 66 51 C 66 44.52653 61.870423 39.013436 56.113281 36.916016 L 58.59375 29.775391 C 59.207606 29.916796 59.843819 30 60.5 30 C 65.187 30 69 26.187 69 21.5 C 69 16.813 65.187 13 60.5 13 z M 60.5 15 C 64.084 15 67 17.916 67 21.5 C 67 25.084 64.084 28 60.5 28 C 56.916 28 54 25.084 54 21.5 C 54 17.916 56.916 15 60.5 15 z M 23 16 C 26.86 16 30 19.141 30 23 C 30 26.859 26.86 30 23 30 C 19.14 30 16 26.859 16 23 C 16 19.141 19.14 16 23 16 z M 23 18 C 20.885 18 18.989203 19.339031 18.283203 21.332031 C 18.191203 21.593031 18.328844 21.879656 18.589844 21.972656 C 18.851844 22.063656 19.134563 21.927969 19.226562 21.667969 C 19.791562 20.071969 21.308 19 23 19 C 25.206 19 27 20.794 27 23 C 27 23.459 26.923437 23.906031 26.773438 24.332031 C 26.681437 24.593031 26.816172 24.879656 27.076172 24.972656 C 27.131172 24.991656 27.189141 25 27.244141 25 C 27.450141 25 27.642844 24.872969 27.714844 24.667969 C 27.903844 24.134969 28 23.573 28 23 C 28 20.243 25.757 18 23 18 z M 25.880859 26.003906 C 25.753484 25.990281 25.620672 26.023828 25.513672 26.111328 C 24.918672 26.592328 24.204313 26.892563 23.445312 26.976562 C 23.171312 27.007563 22.973906 27.253344 23.003906 27.527344 C 23.032906 27.783344 23.248 27.972656 23.5 27.972656 C 23.518 27.972656 23.536688 27.972703 23.554688 27.970703 C 24.504688 27.866703 25.398578 27.491672 26.142578 26.888672 C 26.357578 26.714672 26.390797 26.400547 26.216797 26.185547 C 26.130297 26.078547 26.008234 26.017531 25.880859 26.003906 z M 51 38 C 58.168 38 64 43.832 64 51 C 64 58.168 58.168 64 51 64 C 43.832 64 38 58.168 38 51 C 38 43.832 43.832 38 51 38 z M 51 40 C 44.935 40 40 44.935 40 51 C 40 51.526 40.038328 52.054313 40.111328 52.570312 C 40.148328 52.819313 40.360469 53 40.605469 53 C 40.628469 53 40.652734 52.997141 40.677734 52.994141 C 40.950734 52.955141 41.140563 52.702688 41.101562 52.429688 C 41.033563 51.960687 41 51.479 41 51 C 41 45.486 45.486 41 51 41 C 51.16 41 51.319563 41.004719 51.476562 41.011719 C 51.736563 41.039719 51.985047 40.810156 51.998047 40.535156 C 52.011047 40.260156 51.799438 40.026672 51.523438 40.013672 C 51.350437 40.004672 51.175 40 51 40 z M 60.931641 47 C 60.866734 46.996031 60.799875 47.004344 60.734375 47.027344 C 60.474375 47.119344 60.337688 47.406969 60.429688 47.667969 C 60.539688 47.977969 60.634844 48.296141 60.714844 48.619141 C 60.770844 48.848141 60.974219 49 61.199219 49 C 61.239219 49 61.279359 48.994375 61.318359 48.984375 C 61.586359 48.919375 61.751547 48.648859 61.685547 48.380859 C 61.598547 48.023859 61.494047 47.674031 61.373047 47.332031 C 61.304047 47.137031 61.126359 47.011906 60.931641 47 z M 78.5 49 C 82.084 49 85 51.916 85 55.5 C 85 59.084 82.084 62 78.5 62 C 74.916 62 72 59.084 72 55.5 C 72 51.916 74.916 49 78.5 49 z M 61.464844 50.001953 C 61.188844 50.013953 60.975281 50.248438 60.988281 50.523438 C 60.995281 50.682437 61 50.84 61 51 C 61 51.479 60.965437 51.958688 60.898438 52.429688 C 60.859437 52.702687 61.051219 52.955141 61.324219 52.994141 C 61.348219 52.997141 61.371531 53 61.394531 53 C 61.639531 53 61.853672 52.820312 61.888672 52.570312 C 61.962672 52.054313 62 51.525 62 51 C 62 50.824 61.996281 50.649562 61.988281 50.476562 C 61.975281 50.200563 61.746844 49.975953 61.464844 50.001953 z M 60.873047 54 C 60.678609 54.011906 60.500641 54.137031 60.431641 54.332031 C 59.022641 58.320031 55.233 61 51 61 C 47.918 61 45.055531 59.611406 43.144531 57.191406 C 42.974531 56.975406 42.657406 56.937422 42.441406 57.107422 C 42.224406 57.278422 42.188375 57.593547 42.359375 57.810547 C 44.461375 60.473547 47.61 62 51 62 C 55.656 62 59.825 59.053969 61.375 54.667969 C 61.467 54.406969 61.330312 54.119344 61.070312 54.027344 C 61.005313 54.004344 60.937859 53.996031 60.873047 54 z M 22.5 64 C 26.636 64 30 67.364 30 71.5 C 30 75.636 26.636 79 22.5 79 C 18.364 79 15 75.636 15 71.5 C 15 67.364 18.364 64 22.5 64 z M 66 72 C 69.86 72 73 75.141 73 79 C 73 82.859 69.86 86 66 86 C 62.14 86 59 82.859 59 79 C 59 75.141 62.14 72 66 72 z M 66 74 C 65.724 74 65.5 74.224 65.5 74.5 C 65.5 74.776 65.724 75 66 75 C 66.985 75 67.933969 75.361531 68.667969 76.019531 C 68.762969 76.104531 68.881 76.146484 69 76.146484 C 69.137 76.146484 69.273094 76.089516 69.371094 75.978516 C 69.555094 75.773516 69.538031 75.456484 69.332031 75.271484 C 68.415031 74.451484 67.232 74 66 74 z M 70.273438 77 C 70.208484 76.996078 70.141922 77.004094 70.076172 77.027344 C 69.816172 77.120344 69.679484 77.406969 69.771484 77.667969 C 69.922484 78.094969 70 78.542 70 79 C 70 79.15 69.992563 79.299313 69.976562 79.445312 C 69.945562 79.720312 70.143969 79.966094 70.417969 79.996094 C 70.435969 79.998094 70.454656 80 70.472656 80 C 70.724656 80 70.941703 79.810688 70.970703 79.554688 C 70.990703 79.372687 71 79.188 71 79 C 71 78.428 70.904844 77.866031 70.714844 77.332031 C 70.645844 77.137031 70.468297 77.011766 70.273438 77 z M 61.5 78.5 C 61.224 78.5 61 78.724 61 79 C 61 81.757 63.243 84 66 84 C 67.141 84 68.256578 83.605672 69.142578 82.888672 C 69.357578 82.714672 69.390797 82.400547 69.216797 82.185547 C 69.043797 81.971547 68.728672 81.937328 68.513672 82.111328 C 67.804672 82.685328 66.913 83 66 83 C 63.794 83 62 81.206 62 79 C 62 78.724 61.776 78.5 61.5 78.5 z"/></svg>