<svg fill="#000000" xmlns="http://www.w3.org/2000/svg"  viewBox="0 0 100 100" width="30px" height="30px"><path d="M 49.978516 14.021484 C 30.108109 14.021484 13.978516 30.151078 13.978516 50.021484 C 13.978516 69.891891 30.108109 86.021484 49.978516 86.021484 C 69.848922 86.021484 85.978516 69.891891 85.978516 50.021484 C 85.978516 30.151078 69.848922 14.021484 49.978516 14.021484 z M 49.978516 16.021484 C 68.768042 16.021484 83.978516 31.231958 83.978516 50.021484 C 83.978516 68.81101 68.768042 84.021484 49.978516 84.021484 C 31.18899 84.021484 15.978516 68.81101 15.978516 50.021484 C 15.978516 31.231958 31.18899 16.021484 49.978516 16.021484 z M 49.978516 19.021484 C 32.863307 19.021484 18.978516 32.906276 18.978516 50.021484 C 18.978516 67.136693 32.863307 81.021484 49.978516 81.021484 C 67.093724 81.021484 80.978516 67.136693 80.978516 50.021484 C 80.978516 40.925867 77.057591 32.738304 70.814453 27.068359 A 0.50005 0.50005 0 1 0 70.142578 27.808594 C 76.18544 33.296649 79.978516 41.213102 79.978516 50.021484 C 79.978516 66.596276 66.553307 80.021484 49.978516 80.021484 C 33.403724 80.021484 19.978516 66.596276 19.978516 50.021484 C 19.978516 33.446693 33.403724 20.021484 49.978516 20.021484 C 53.609256 20.021484 57.086577 20.665472 60.306641 21.845703 A 0.50005 0.50005 0 1 0 60.650391 20.908203 C 57.322454 19.688434 53.727775 19.021484 49.978516 19.021484 z M 63.458984 22.160156 A 0.50005 0.50005 0 0 0 63.257812 23.111328 C 63.927562 23.44276 64.583008 23.798875 65.224609 24.177734 A 0.50005 0.50005 0 1 0 65.732422 23.318359 C 65.070023 22.927219 64.393423 22.559365 63.701172 22.216797 A 0.50005 0.50005 0 0 0 63.458984 22.160156 z M 67.486328 24.533203 A 0.50005 0.50005 0 0 0 67.191406 25.447266 C 67.524099 25.680544 67.853681 25.921484 68.175781 26.167969 A 0.50021557 0.50021557 0 0 0 68.783203 25.373047 C 68.449303 25.117532 68.108933 24.869628 67.765625 24.628906 A 0.50005 0.50005 0 0 0 67.486328 24.533203 z M 50.847656 36 C 50.475656 36 50.144516 36.190266 49.853516 36.572266 L 46.595703 41.009766 C 46.198703 41.342766 46 41.725203 46 42.158203 C 46 42.464203 46.098828 42.725406 46.298828 42.941406 C 46.497828 43.158406 46.741203 43.267578 47.033203 43.267578 C 47.324203 43.267578 47.577062 43.114594 47.789062 42.808594 L 49.378906 40.322266 L 49.378906 63.005859 C 49.378906 63.311859 49.503859 63.554422 49.755859 63.732422 C 50.007859 63.911422 50.318453 64 50.689453 64 C 51.033453 64 51.338516 63.911422 51.603516 63.732422 C 51.867516 63.554422 52 63.311859 52 63.005859 L 52 36.955078 C 52 36.674078 51.881578 36.445578 51.642578 36.267578 C 51.403578 36.089578 51.139656 36 50.847656 36 z"/></svg>