<?xml version="1.0"?><svg fill="#000000" xmlns="http://www.w3.org/2000/svg"  viewBox="0 0 100 100" width="50px" height="50px">    <path d="M 17.167969 18.960938 C 15.759969 18.960937 14.613281 20.107625 14.613281 21.515625 L 14.613281 32.076172 C 14.613281 34.973961 15.760437 37.604134 17.613281 39.556641 L 17.613281 72.636719 C 17.613281 77.777719 21.7965 81.960937 26.9375 81.960938 L 73.289062 81.960938 C 78.430063 81.960938 82.613281 77.777719 82.613281 72.636719 L 82.613281 39.558594 C 84.467118 37.605647 85.613764 34.972998 85.613281 32.074219 L 85.613281 21.484375 C 85.613281 20.093375 84.481844 18.960938 83.089844 18.960938 L 17.167969 18.960938 z M 17.167969 20.960938 L 83.089844 20.960938 C 83.372844 20.960937 83.613281 21.200375 83.613281 21.484375 L 83.613281 32.076172 C 83.613281 36.975172 79.627516 40.960938 74.728516 40.960938 L 25.498047 40.960938 C 20.599047 40.960937 16.613281 36.975172 16.613281 32.076172 L 16.613281 21.515625 C 16.613281 21.215625 16.867969 20.960938 17.167969 20.960938 z M 20.113281 22.960938 C 19.837281 22.960938 19.613281 23.184938 19.613281 23.460938 C 19.613281 23.736937 19.837281 23.960938 20.113281 23.960938 L 68.113281 23.960938 C 68.390281 23.960937 68.613281 23.736937 68.613281 23.460938 C 68.613281 23.184938 68.389281 22.960938 68.113281 22.960938 L 20.113281 22.960938 z M 71.113281 22.960938 C 70.837281 22.960938 70.613281 23.184938 70.613281 23.460938 C 70.613281 23.736937 70.837281 23.960938 71.113281 23.960938 L 75.113281 23.960938 C 75.390281 23.960937 75.613281 23.736937 75.613281 23.460938 C 75.613281 23.184938 75.389281 22.960938 75.113281 22.960938 L 71.113281 22.960938 z M 77.113281 22.960938 C 76.837281 22.960938 76.613281 23.184938 76.613281 23.460938 C 76.613281 23.736937 76.837281 23.960938 77.113281 23.960938 L 81.113281 23.960938 C 81.390281 23.960937 81.613281 23.736937 81.613281 23.460938 C 81.613281 23.184938 81.389281 22.960938 81.113281 22.960938 L 77.113281 22.960938 z M 19.613281 41.21875 C 21.312343 42.316452 23.329102 42.960938 25.498047 42.960938 L 49.78125 42.960938 L 49.78125 48.960938 L 41.173828 48.960938 C 39.577828 48.960938 38.279297 50.257516 38.279297 51.853516 L 38.279297 53.066406 C 38.279297 54.662406 39.577828 55.960938 41.173828 55.960938 L 49.863281 55.960938 C 49.815776 56.040324 49.78125 56.128066 49.78125 56.228516 L 49.78125 74.900391 C 49.78125 74.921983 49.790506 74.940043 49.792969 74.960938 L 34.068359 74.960938 C 28.532359 74.960938 24.613281 74.263234 24.613281 65.240234 L 24.613281 46.460938 C 24.613281 46.184937 24.389281 45.960938 24.113281 45.960938 C 23.837281 45.960938 23.613281 46.184937 23.613281 46.460938 L 23.613281 65.240234 C 23.613281 75.154234 28.348359 75.960938 34.068359 75.960938 L 66.160156 75.960938 C 72.281156 75.960938 76.613281 75.192234 76.613281 65.240234 L 76.613281 56.460938 C 76.613281 56.184937 76.389281 55.960938 76.113281 55.960938 C 75.837281 55.960938 75.613281 56.184937 75.613281 56.460938 L 75.613281 65.240234 C 75.613281 74.961234 71.233156 74.960938 66.160156 74.960938 L 50.769531 74.960938 C 50.771994 74.940043 50.78125 74.921983 50.78125 74.900391 L 50.78125 56.228516 C 50.78125 56.128066 50.746724 56.040324 50.699219 55.960938 L 59.386719 55.960938 C 60.982719 55.960937 62.28125 54.662406 62.28125 53.066406 L 62.28125 51.853516 C 62.28125 50.257516 60.982719 48.960938 59.386719 48.960938 L 50.78125 48.960938 L 50.78125 42.960938 L 65.613281 42.960938 L 65.613281 49.960938 C 65.613281 50.154937 65.726344 50.330109 65.902344 50.412109 C 66.077344 50.495109 66.284594 50.470703 66.433594 50.345703 L 69.113281 48.111328 L 71.794922 50.345703 C 71.885922 50.421703 71.998281 50.460938 72.113281 50.460938 C 72.185281 50.460937 72.259172 50.444109 72.326172 50.412109 C 72.502172 50.330109 72.613281 50.154938 72.613281 49.960938 L 72.613281 42.960938 L 74.728516 42.960938 C 76.896864 42.960938 78.914556 42.316063 80.613281 41.21875 L 80.613281 72.636719 C 80.613281 76.674719 77.327063 79.960938 73.289062 79.960938 L 26.9375 79.960938 C 22.8995 79.960938 19.613281 76.674719 19.613281 72.636719 L 19.613281 41.21875 z M 66.613281 42.960938 L 71.613281 42.960938 L 71.613281 48.894531 L 69.433594 47.076172 C 69.341594 46.999172 69.227281 46.960938 69.113281 46.960938 C 68.999281 46.960938 68.887922 46.998172 68.794922 47.076172 L 66.613281 48.894531 L 66.613281 42.960938 z M 76.113281 45.960938 C 75.837281 45.960938 75.613281 46.184937 75.613281 46.460938 L 75.613281 52.460938 C 75.613281 52.736938 75.837281 52.960938 76.113281 52.960938 C 76.390281 52.960937 76.613281 52.736938 76.613281 52.460938 L 76.613281 46.460938 C 76.613281 46.184937 76.389281 45.960938 76.113281 45.960938 z M 41.173828 49.960938 L 59.386719 49.960938 C 60.430719 49.960938 61.28125 50.811469 61.28125 51.855469 L 61.28125 53.068359 C 61.28125 54.112359 60.430719 54.962891 59.386719 54.962891 L 41.173828 54.962891 C 40.129828 54.962891 39.279297 54.112359 39.279297 53.068359 L 39.279297 51.855469 C 39.279297 50.811469 40.129828 49.960938 41.173828 49.960938 z"/></svg>