<svg fill="#000000" xmlns="http://www.w3.org/2000/svg"  viewBox="0 0 100 100" width="40px" height="40px"><path d="M 20.984375 12.986328 A 1.0001 1.0001 0 0 0 20 14 L 19.998047 32.013672 C 20.000247 35.279547 21.409131 37.794619 23.236328 39.955078 C 23.585594 40.368322 24.489027 41.313259 25.806641 42.681641 C 26.969351 43.889149 28.473732 45.437296 30 47.005859 L 30 55 L 20.800781 55 A 1.0001 1.0001 0 0 0 19.853516 55.679688 L 12.052734 78.779297 A 1.0001 1.0001 0 0 0 12 79.099609 L 12 86 A 1.0001 1.0001 0 1 0 14 86 L 14 80 L 86 80 L 86 86 A 1.0001 1.0001 0 1 0 88 86 L 88 79.099609 A 1.0001 1.0001 0 0 0 87.947266 78.779297 L 80.146484 55.679688 A 1.0001 1.0001 0 0 0 79.199219 55 L 70 55 L 70 35.5 A 0.50005 0.50005 0 0 0 69.5 35 L 64 35 L 64 34.9375 C 64 31.502651 62.64016 28.206764 60.216797 25.771484 A 1.0001 1.0001 0 0 0 60.214844 25.767578 L 47.707031 13.291016 A 1.0001 1.0001 0 0 0 46.988281 12.990234 A 1.0001 1.0001 0 0 0 46.292969 14.708984 L 58.798828 27.181641 C 60.849465 29.242361 62 32.030349 62 34.9375 L 62 35 L 39.179688 35 C 38.152943 33.001469 36.890625 30.544922 36.890625 30.544922 A 1.0001544 1.0001544 0 1 0 35.109375 31.455078 C 35.109375 31.455078 41.160095 43.304287 44.019531 48.595703 C 45.194805 50.770239 45.047353 51.675004 44.945312 52.814453 C 44.796629 54.469309 43.272116 56.039633 41.759766 55.984375 C 41.76004 55.956837 41.504939 55.865388 41.324219 55.712891 C 41.077756 55.504915 40.849986 55.27243 40.777344 55.197266 A 1.0001 1.0001 0 0 0 40.775391 55.195312 C 40.492076 54.902886 39.580254 53.970354 39.164062 53.542969 L 41.853516 50.853516 A 0.50005 0.50005 0 0 0 41.490234 49.996094 A 0.50005 0.50005 0 0 0 41.146484 50.146484 L 38.466797 52.826172 C 36.600655 50.911748 34.568192 48.831091 31.992188 46.185547 C 30.244799 44.390988 28.560683 42.656181 27.248047 41.292969 C 25.935411 39.929757 24.949406 38.88382 24.763672 38.664062 C 23.093303 36.689036 22.000426 34.720709 21.998047 32.013672 L 21.998047 32.011719 L 22 14 A 1.0001 1.0001 0 0 0 20.984375 12.986328 z M 49.671875 36 L 62.832031 36 A 1.0001 1.0001 0 0 0 63.158203 36 L 69 36 L 69 55.832031 A 1.0001 1.0001 0 0 0 69 56.158203 L 69 70 L 65 70 L 65 40.5 A 0.50005 0.50005 0 0 0 64.777344 40.083984 C 63.926004 39.516425 62.477317 38.965096 60.589844 38.396484 C 58.702371 37.827873 56.393229 37.262271 53.912109 36.759766 C 52.536757 36.481213 51.1087 36.229362 49.671875 36 z M 39.701172 36.013672 C 43.805768 36.08795 49.063519 36.79859 53.712891 37.740234 C 56.169271 38.237729 58.453879 38.797127 60.300781 39.353516 C 62.042961 39.878357 63.306046 40.4056 64 40.828125 L 64 70 L 31 70 L 31 56.167969 A 1.0001 1.0001 0 0 0 31 55.841797 L 31 48.035156 C 34.339614 51.463095 37.883546 55.084752 39.339844 56.587891 C 39.411204 56.661731 39.688916 56.951663 40.033203 57.242188 C 40.37749 57.532711 40.658492 57.907532 41.458984 57.982422 C 44.341655 58.249095 46.689972 55.747179 46.9375 52.992188 C 47.03946 51.853636 47.128023 50.139995 45.779297 47.644531 C 44.125997 44.585083 41.707803 39.91187 39.701172 36.013672 z M 21.517578 57 L 30 57 L 30 65 L 29 65 C 27.350592 65 26 66.350592 26 68 C 26 69.649408 27.350592 71 29 71 L 64.419922 71 A 0.50005 0.50005 0 0 0 64.582031 71 L 71 71 C 72.649408 71 74 69.649408 74 68 C 74 66.350592 72.649408 65 71 65 L 70 65 L 70 57 L 78.482422 57 L 85.910156 79 L 14.089844 79 L 21.517578 57 z M 26.183594 60 C 24.683955 60 23.346216 60.960092 22.867188 62.380859 L 19.382812 72.699219 C 18.839997 74.305362 20.055707 76 21.751953 76 L 57.5 76 A 0.50005 0.50005 0 1 0 57.5 75 L 21.751953 75 C 20.710199 75 19.996895 74.005388 20.330078 73.019531 L 23.814453 62.699219 C 24.157425 61.681986 25.109233 61 26.183594 61 L 27.5 61 A 0.50005 0.50005 0 1 0 27.5 60 L 26.183594 60 z M 72.5 60 A 0.50005 0.50005 0 1 0 72.5 61 L 73.816406 61 C 74.890767 61 75.841558 61.681446 76.185547 62.699219 L 79.210938 71.660156 A 0.50005 0.50005 0 1 0 80.158203 71.339844 L 77.132812 62.380859 C 76.652801 60.960632 75.316045 60 73.816406 60 L 72.5 60 z M 29 66 L 30 66 L 30 70 L 29 70 C 27.893408 70 27 69.106592 27 68 C 27 66.893408 27.893408 66 29 66 z M 70 66 L 71 66 C 72.106592 66 73 66.893408 73 68 C 73 69.106592 72.106592 70 71 70 L 70 70 L 70 66 z M 60.5 75 A 0.50005 0.50005 0 1 0 60.5 76 L 63.5 76 A 0.50005 0.50005 0 1 0 63.5 75 L 60.5 75 z M 66.5 75 A 0.50005 0.50005 0 1 0 66.5 76 L 67.5 76 A 0.50005 0.50005 0 1 0 67.5 75 L 66.5 75 z"/></svg>