<svg xmlns="http://www.w3.org/2000/svg"  viewBox="0 0 40 40" width="40px" height="40px"><path fill="#dff0fe" d="M35.551,37.5h-6.787l-5.591-9.375c-0.505-0.862-0.997-1.599-1.477-2.209 c-0.48-0.61-0.969-1.111-1.465-1.501c-0.497-0.391-1.038-0.635-1.624-0.814c-0.586-0.179-1.245-0.1-1.978-0.1H14.5v14h-6V2.49 h11.523c1.644,0,3.157,0.195,4.541,0.586c1.383,0.391,2.588,0.981,3.613,1.77c1.025,0.79,1.827,1.774,2.405,2.954 c0.577,1.18,0.866,2.56,0.866,4.138c0,1.237-0.183,2.373-0.55,3.406c-0.365,1.034-0.887,1.953-1.563,2.759 c-0.675,0.806-1.488,1.494-2.441,2.063c-0.951,0.57-2.022,1.009-3.21,1.318v0.098c0.635,0.358,1.188,0.753,1.66,1.184 c0.472,0.432,0.919,0.875,1.343,1.331c0.423,0.456,0.842,0.973,1.258,1.55c0.414,0.578,0.874,1.25,1.379,2.014L35.551,37.5z M14.5,7.5v11.079h4.62c0.895,0,1.721-0.138,2.479-0.415c0.756-0.276,1.579-0.675,2.133-1.196 c0.553-0.521,0.984-1.155,1.294-1.904c0.309-0.749,0.464-1.587,0.464-2.515c0-1.676-0.529-2.986-1.587-3.931 C22.844,7.674,21.154,7.5,19.169,7.5H14.5z"/><path fill="#4788c7" d="M36.459,38h-7.979l-5.736-9.619c-0.493-0.843-0.978-1.568-1.44-2.156 c-0.453-0.576-0.918-1.053-1.38-1.417c-0.401-0.315-0.865-0.546-1.461-0.729c-0.305-0.093-0.751-0.1-1.304-0.087 C16.986,23.996,16.81,24,16.63,24H15v14H8V2.025h12.023c1.682-0.034,3.255,0.169,4.677,0.57c1.438,0.407,2.711,1.031,3.782,1.855 c1.082,0.833,1.939,1.887,2.55,3.13c0.608,1.245,0.917,2.711,0.917,4.358c0,1.291-0.194,2.493-0.579,3.573 c-0.382,1.083-0.938,2.063-1.65,2.913c-0.708,0.846-1.572,1.576-2.567,2.171c-0.722,0.432-1.516,0.795-2.372,1.084 c0.326,0.228,0.628,0.467,0.902,0.717c0.479,0.438,0.94,0.896,1.372,1.36c0.435,0.468,0.871,1.006,1.297,1.599 c0.419,0.583,0.882,1.26,1.391,2.031L36.459,38z M29.048,37h5.595l-5.74-9.071c-0.495-0.751-0.952-1.417-1.362-1.991 c-0.402-0.558-0.813-1.063-1.218-1.501c-0.413-0.444-0.855-0.882-1.314-1.302c-0.442-0.404-0.971-0.78-1.568-1.117l-0.254-0.144 v-0.679L23.56,21c1.138-0.296,2.174-0.721,3.079-1.263c0.899-0.538,1.679-1.195,2.314-1.956c0.636-0.757,1.132-1.633,1.475-2.604 c0.347-0.974,0.521-2.063,0.521-3.239c0-1.494-0.274-2.812-0.815-3.918c-0.541-1.104-1.302-2.039-2.261-2.778 c-0.971-0.747-2.129-1.313-3.444-1.685c-1.333-0.376-2.815-0.567-4.405-0.567H9V37h5V23c0,0,2.524,0.043,3.103,0.034 c0.521-0.008,1.063-0.092,1.65,0.088c0.718,0.219,1.286,0.505,1.787,0.899c0.525,0.414,1.046,0.947,1.548,1.585 c0.491,0.625,1.001,1.387,1.516,2.266L29.048,37z M19.12,18.976H14V7h5.169c1.906,0,3.839,0.151,5.066,1.245 c1.164,1.039,1.754,2.487,1.754,4.304c0,0.988-0.169,1.898-0.502,2.705c-0.335,0.812-0.811,1.51-1.413,2.078 c-0.66,0.621-1.617,1.051-2.304,1.302C20.961,18.929,20.103,18.966,19.12,18.976z M15,18.079h4.12 c0.832,0,1.608-0.129,2.307-0.385c0.858-0.314,1.537-0.691,1.962-1.091c0.499-0.469,0.894-1.052,1.175-1.731 c0.282-0.686,0.426-1.467,0.426-2.324c0-1.541-0.465-2.705-1.42-3.558C22.593,8.12,20.877,8,19.169,8H15V18.079z"/></svg>