<svg fill="#000000" xmlns="http://www.w3.org/2000/svg"  viewBox="0 0 100 100" width="50px" height="50px"><path d="M 53.5 13 C 51.572833 13 50 14.572833 50 16.5 L 50 20 L 17 20 C 13.698375 20 11 22.698375 11 26 L 11 73 C 11 74.093063 11.906937 75 13 75 L 20.058594 75 C 20.557367 79.495165 24.373457 83 29 83 C 33.626543 83 37.442633 79.495165 37.941406 75 L 59 75 L 64.058594 75 C 64.557367 79.495165 68.373457 83 73 83 C 77.626543 83 81.442633 79.495165 81.941406 75 L 85.001953 75 C 88.303579 75 90.998804 72.300947 91 69 L 91 51.941406 C 91 49.817063 90.322553 47.749258 89.068359 46.035156 L 72.703125 23.683594 C 71.008434 21.369278 68.31019 20 65.441406 20 L 57 20 L 57 16.5 C 57 14.572833 55.427167 13 53.5 13 z M 53.5 14 C 54.886833 14 56 15.113167 56 16.5 L 56 20 L 51 20 L 51 16.5 C 51 15.113167 52.113167 14 53.5 14 z M 17 22 L 65.441406 22 C 67.674622 22 69.770535 23.06355 71.089844 24.865234 L 86.566406 46 L 61.5 46 C 60.664985 46 60 45.335015 60 44.5 L 60 31.5 C 60 30.664985 60.664985 30 61.5 30 L 64.5 30 A 0.50005 0.50005 0 1 0 64.5 29 L 61.5 29 C 60.125015 29 59 30.125015 59 31.5 L 59 44.5 C 59 45.874985 60.125015 47 61.5 47 L 87.296875 47 L 87.455078 47.214844 C 88.458885 48.586742 89 50.241749 89 51.941406 L 89 53 L 86.5 53 A 0.50005 0.50005 0 1 0 86.5 54 L 89 54 L 89 58 L 13 58 L 13 54 L 74.5 54 A 0.50005 0.50005 0 1 0 74.5 53 L 13 53 L 13 26 C 13 23.779625 14.779625 22 17 22 z M 34.5 28 C 28.706929 28 24 32.706933 24 38.5 C 24 44.293067 28.706929 49 34.5 49 C 40.293071 49 45 44.293067 45 38.5 C 45 32.706933 40.293071 28 34.5 28 z M 34.5 29 C 39.752631 29 44 33.247372 44 38.5 C 44 43.752628 39.752631 48 34.5 48 C 29.247369 48 25 43.752628 25 38.5 C 25 33.247372 29.247369 29 34.5 29 z M 66.5 29 A 0.50005 0.50005 0 1 0 66.5 30 L 68.5 30 A 0.50005 0.50005 0 1 0 68.5 29 L 66.5 29 z M 70.5 29 A 0.50005 0.50005 0 1 0 70.5 30 L 71.5 30 A 0.50005 0.50005 0 1 0 71.5 29 L 70.5 29 z M 32.5 32 A 0.50005 0.50005 0 0 0 32 32.5 L 32 36 L 28.5 36 A 0.50005 0.50005 0 0 0 28 36.5 L 28 40.5 A 0.50005 0.50005 0 0 0 28.5 41 L 32 41 L 32 44.5 A 0.50005 0.50005 0 0 0 32.5 45 L 36.5 45 A 0.50005 0.50005 0 0 0 37 44.5 L 37 41 L 40.5 41 A 0.50005 0.50005 0 0 0 41 40.5 L 41 36.5 A 0.50005 0.50005 0 0 0 40.5 36 L 37 36 L 37 32.5 A 0.50005 0.50005 0 0 0 36.5 32 L 32.5 32 z M 33 33 L 36 33 L 36 36.5 A 0.50005 0.50005 0 0 0 36.5 37 L 40 37 L 40 40 L 36.5 40 A 0.50005 0.50005 0 0 0 36 40.5 L 36 44 L 33 44 L 33 40.5 A 0.50005 0.50005 0 0 0 32.5 40 L 29 40 L 29 37 L 32.5 37 A 0.50005 0.50005 0 0 0 33 36.5 L 33 33 z M 79.5 53 A 0.50005 0.50005 0 1 0 79.5 54 L 81.5 54 A 0.50005 0.50005 0 1 0 81.5 53 L 79.5 53 z M 83.5 53 A 0.50005 0.50005 0 1 0 83.5 54 L 84.5 54 A 0.50005 0.50005 0 1 0 84.5 53 L 83.5 53 z M 13 59 L 89 59 L 89 63 L 85.5 63 C 84.125015 63 83 64.125015 83 65.5 L 83 67.5 C 83 68.874985 84.125015 70 85.5 70 L 88.861328 70 C 88.418812 71.728436 86.874359 73 85.001953 73 L 81.941406 73 C 81.442633 68.504835 77.626543 65 73 65 C 68.373457 65 64.557367 68.504835 64.058594 73 L 59 73 L 37.941406 73 C 37.442633 68.504835 33.626543 65 29 65 C 24.373457 65 20.557367 68.504835 20.058594 73 L 13 73 L 13 70 L 16.5 70 C 17.874985 70 19 68.874985 19 67.5 L 19 65.5 C 19 64.125015 17.874985 63 16.5 63 L 13 63 L 13 59 z M 13 64 L 16.5 64 C 17.335015 64 18 64.664985 18 65.5 L 18 67.5 C 18 68.335015 17.335015 69 16.5 69 L 13 69 L 13 64 z M 85.5 64 L 89 64 L 89 69 L 85.5 69 C 84.664985 69 84 68.335015 84 67.5 L 84 65.5 C 84 64.664985 84.664985 64 85.5 64 z M 29 66 C 33.424204 66 37 69.575799 37 74 C 37 78.424201 33.424204 82 29 82 C 24.575796 82 21 78.424201 21 74 C 21 69.575799 24.575796 66 29 66 z M 73 66 C 77.424204 66 81 69.575799 81 74 C 81 78.424201 77.424204 82 73 82 C 68.575796 82 65 78.424201 65 74 C 65 69.575799 68.575796 66 73 66 z M 29 70 C 27.708334 70 26.676923 70.502378 26.001953 71.261719 C 25.326984 72.02106 25 73.013889 25 74 C 25 74.986111 25.326984 75.97894 26.001953 76.738281 C 26.676923 77.497622 27.708334 78 29 78 C 30.291666 78 31.323077 77.497622 31.998047 76.738281 C 32.673016 75.97894 33 74.986111 33 74 C 33 73.013889 32.673016 72.02106 31.998047 71.261719 C 31.323077 70.502378 30.291666 70 29 70 z M 73 70 C 71.708334 70 70.676923 70.502378 70.001953 71.261719 C 69.326984 72.02106 69 73.013889 69 74 C 69 74.986111 69.326984 75.97894 70.001953 76.738281 C 70.676923 77.497622 71.708334 78 73 78 C 74.291666 78 75.323077 77.497622 75.998047 76.738281 C 76.673016 75.97894 77 74.986111 77 74 C 77 73.013889 76.673016 72.02106 75.998047 71.261719 C 75.323077 70.502378 74.291666 70 73 70 z M 29 71 C 30.041666 71 30.760256 71.372622 31.251953 71.925781 C 31.74365 72.47894 32 73.236111 32 74 C 32 74.763889 31.74365 75.52106 31.251953 76.074219 C 30.760256 76.627378 30.041666 77 29 77 C 27.958334 77 27.239744 76.627378 26.748047 76.074219 C 26.25635 75.52106 26 74.763889 26 74 C 26 73.236111 26.25635 72.47894 26.748047 71.925781 C 27.239744 71.372622 27.958334 71 29 71 z M 73 71 C 74.041666 71 74.760256 71.372622 75.251953 71.925781 C 75.74365 72.47894 76 73.236111 76 74 C 76 74.763889 75.74365 75.52106 75.251953 76.074219 C 74.760256 76.627378 74.041666 77 73 77 C 71.958334 77 71.239744 76.627378 70.748047 76.074219 C 70.25635 75.52106 70 74.763889 70 74 C 70 73.236111 70.25635 72.47894 70.748047 71.925781 C 71.239744 71.372622 71.958334 71 73 71 z"/></svg>