<?xml version="1.0"?><svg fill="#000000" xmlns="http://www.w3.org/2000/svg"  viewBox="0 0 100 100" width="50px" height="50px">    <path d="M 49.675781 13.001953 C 44.070125 13.084563 38.786797 15.246406 34.724609 19.167969 C 30.387609 23.352969 28 28.975 28 35 L 28 42 L 27 42 C 23.691 42 21 44.691 21 48 L 21 69 C 21 77.822 28.178 85 37 85 L 63 85 C 71.822 85 79 77.822 79 69 L 79 48 C 79 44.691 76.309 42 73 42 L 72 42 L 72 35.503906 C 72 23.519906 62.489781 13.429672 50.800781 13.013672 C 50.424469 13.000609 50.049492 12.996446 49.675781 13.001953 z M 49.707031 15.001953 C 50.047042 14.997041 50.388031 15.001672 50.730469 15.013672 C 61.355469 15.391672 70 24.583906 70 35.503906 L 70 42 L 65 42 L 65 35 C 65 30.859 63.349562 27.004484 60.351562 24.146484 C 57.355562 21.288484 53.409391 19.826578 49.275391 20.017578 C 41.270391 20.394578 35 27.149484 35 35.396484 L 35 42 L 30 42 L 30 35 C 30 29.523 32.171281 24.412422 36.113281 20.607422 C 39.806094 17.043047 44.60687 15.075642 49.707031 15.001953 z M 49.369141 22.015625 C 52.982141 21.842625 56.377656 23.115797 58.972656 25.591797 C 61.569656 28.069797 63 31.411 63 35 L 63 42 L 37 42 L 37 35.396484 C 37 28.219484 42.433141 22.341625 49.369141 22.015625 z M 27 44 L 73 44 C 75.206 44 77 45.794 77 48 L 77 49 L 65.5 49 C 65.224 49 65 49.224 65 49.5 C 65 49.776 65.224 50 65.5 50 L 67.619141 50 L 62.818359 54 L 56.380859 54 L 61.181641 50 L 62.5 50 C 62.776 50 63 49.776 63 49.5 C 63 49.224 62.776 49 62.5 49 L 57.5 49 C 57.224 49 57 49.224 57 49.5 C 57 49.776 57.224 50 57.5 50 L 59.619141 50 L 54.818359 54 L 48.380859 54 L 53.181641 50 L 54.5 50 C 54.776 50 55 49.776 55 49.5 C 55 49.224 54.776 49 54.5 49 L 23 49 L 23 48 C 23 45.794 24.794 44 27 44 z M 23 50 L 27.619141 50 L 23 53.849609 L 23 50 z M 29.181641 50 L 35.619141 50 L 30.818359 54 L 24.380859 54 L 29.181641 50 z M 37.181641 50 L 43.619141 50 L 38.818359 54 L 32.380859 54 L 37.181641 50 z M 45.181641 50 L 51.619141 50 L 46.818359 54 L 40.380859 54 L 45.181641 50 z M 69.181641 50 L 75.619141 50 L 70.818359 54 L 64.380859 54 L 69.181641 50 z M 77 50.150391 L 77 54 L 72.380859 54 L 77 50.150391 z M 23 55 L 77 55 L 77 69 C 77 76.72 70.72 83 63 83 L 37 83 C 29.28 83 23 76.72 23 69 L 23 55 z M 50 58 C 44.486 58 40 62.486 40 68 C 40 73.514 44.486 78 50 78 C 55.514 78 60 73.514 60 68 C 60 62.486 55.514 58 50 58 z M 50 59 C 54.963 59 59 63.037 59 68 C 59 72.963 54.963 77 50 77 C 45.037 77 41 72.963 41 68 C 41 63.037 45.037 59 50 59 z M 50 63 C 47.243 63 45 65.243 45 68 C 45 70.757 47.243 73 50 73 C 52.757 73 55 70.757 55 68 C 55 67.417 54.902938 66.852313 54.710938 66.320312 C 54.645938 66.138313 54.478156 66.010188 54.285156 65.992188 C 54.082156 65.983187 53.906594 66.071281 53.808594 66.238281 C 53.534594 66.708281 53.032 67 52.5 67 C 51.673 67 51 66.327 51 65.5 C 51 64.968 51.291719 64.466406 51.761719 64.191406 C 51.929719 64.093406 52.025813 63.906891 52.007812 63.712891 C 51.989812 63.520891 51.861687 63.355062 51.679688 63.289062 C 51.147688 63.098062 50.583 63 50 63 z M 50 64 C 50.163 64 50.323422 64.009344 50.482422 64.027344 C 50.174422 64.451344 50 64.966 50 65.5 C 50 66.879 51.121 68 52.5 68 C 53.034 68 53.548656 67.825578 53.972656 67.517578 C 53.990656 67.676578 54 67.837 54 68 C 54 70.206 52.206 72 50 72 C 47.794 72 46 70.206 46 68 C 46 65.794 47.794 64 50 64 z"/></svg>