<svg fill="#000000" xmlns="http://www.w3.org/2000/svg"  viewBox="0 0 100 100" width="30px" height="30px"><path d="M 50 14 C 30.129594 14 14 30.129594 14 50 C 14 69.870406 30.129594 86 50 86 C 69.870406 86 86 69.870406 86 50 C 86 30.129594 69.870406 14 50 14 z M 50 16 C 68.789526 16 84 31.210474 84 50 C 84 68.789526 68.789526 84 50 84 C 31.210474 84 16 68.789526 16 50 C 16 31.210474 31.210474 16 50 16 z M 50 19 C 32.884791 19 19 32.884791 19 50 C 19 67.115209 32.884791 81 50 81 C 67.115209 81 81 67.115209 81 50 C 81 40.904382 77.079076 32.716819 70.835938 27.046875 A 0.50005 0.50005 0 1 0 70.164062 27.787109 C 76.206924 33.275165 80 41.191618 80 50 C 80 66.574791 66.574791 80 50 80 C 33.425209 80 20 66.574791 20 50 C 20 33.425209 33.425209 20 50 20 C 53.630741 20 57.108062 20.645941 60.328125 21.826172 A 0.50018397 0.50018397 0 1 0 60.671875 20.886719 C 57.343938 19.66695 53.749259 19 50 19 z M 63.480469 22.140625 A 0.50005 0.50005 0 0 0 63.277344 23.091797 C 63.947092 23.423229 64.604492 23.779343 65.246094 24.158203 A 0.50005 0.50005 0 1 0 65.753906 23.296875 C 65.091508 22.905735 64.414908 22.53788 63.722656 22.195312 A 0.50005 0.50005 0 0 0 63.480469 22.140625 z M 67.507812 24.511719 A 0.50005 0.50005 0 0 0 67.457031 24.513672 A 0.50005 0.50005 0 0 0 67.212891 25.425781 C 67.545583 25.65906 67.873213 25.899999 68.195312 26.146484 A 0.50080937 0.50080937 0 1 0 68.804688 25.351562 C 68.470787 25.096048 68.130417 24.848143 67.787109 24.607422 A 0.50005 0.50005 0 0 0 67.507812 24.511719 z M 49.994141 34 A 0.50005 0.50005 0 0 0 49.644531 34.148438 L 33.144531 50.761719 A 0.50005 0.50005 0 0 0 33 51.115234 L 33 59.5 A 0.50005 0.50005 0 0 0 33.855469 59.851562 L 50 43.595703 L 66.144531 59.851562 A 0.50005 0.50005 0 0 0 67 59.5 L 67 51.115234 A 0.50005 0.50005 0 0 0 66.855469 50.761719 L 50.355469 34.148438 A 0.50005 0.50005 0 0 0 49.994141 34 z M 50 35.208984 L 66 51.320312 L 66 58.287109 L 50.355469 42.533203 A 0.50005 0.50005 0 0 0 49.644531 42.533203 L 34 58.287109 L 34 51.320312 L 50 35.208984 z"/></svg>