<svg fill="#000000" xmlns="http://www.w3.org/2000/svg"  viewBox="0 0 100 100" width="50px" height="50px"><path d="M 34.974609 29 A 1.0001 1.0001 0 0 0 34.287109 29.292969 C 29.003889 34.585548 26 42.125057 26 50 C 26 57.874943 29.003889 65.414452 34.287109 70.707031 A 1.0001 1.0001 0 0 0 35.697266 70.710938 L 39.955078 66.507812 A 1.0001 1.0001 0 0 0 39.960938 65.089844 C 36.192459 61.314774 34 55.807202 34 50 C 34 44.192798 36.191558 38.685225 39.960938 34.910156 A 1.0001 1.0001 0 0 0 39.957031 33.492188 L 35.697266 29.289062 A 1.0001 1.0001 0 0 0 34.974609 29 z M 64.990234 29 A 1.0001 1.0001 0 0 0 64.302734 29.289062 L 60.044922 33.492188 A 1.0001 1.0001 0 0 0 60.039062 34.910156 C 63.807541 38.685233 66 44.192798 66 50 C 66 55.807202 63.808441 61.314775 60.039062 65.089844 A 1.0001 1.0001 0 0 0 60.042969 66.507812 L 64.302734 70.710938 A 1.0001 1.0001 0 0 0 65.712891 70.707031 C 70.996118 65.414445 74 57.874943 74 50 C 74 42.125057 70.996111 34.585548 65.712891 29.292969 A 1.0001 1.0001 0 0 0 64.990234 29 z M 27.998047 30.994141 A 0.50005 0.50005 0 0 0 27.591797 31.222656 C 27.152322 31.883903 26.73905 32.562243 26.349609 33.253906 A 0.50111378 0.50111378 0 0 0 27.222656 33.746094 C 27.601215 33.073757 27.999303 32.416097 28.423828 31.777344 A 0.50005 0.50005 0 0 0 27.998047 30.994141 z M 71.986328 30.994141 A 0.50005 0.50005 0 0 0 71.576172 31.777344 C 71.777878 32.080837 71.964742 32.417228 72.175781 32.761719 A 0.50061884 0.50061884 0 1 0 73.029297 32.238281 C 72.832336 31.916772 72.638497 31.569163 72.408203 31.222656 A 0.50005 0.50005 0 0 0 71.986328 30.994141 z M 35.076172 31.484375 L 37.912109 34.283203 C 34.165889 38.422677 32 44.050223 32 50 C 32 55.950113 34.166384 61.577278 37.912109 65.716797 L 35.076172 68.515625 C 30.621716 63.670078 28 57.010972 28 50 C 28 42.989028 30.621716 36.329922 35.076172 31.484375 z M 64.923828 31.484375 C 69.378284 36.329922 72 42.989028 72 50 C 72 57.010972 69.378284 63.670078 64.923828 68.515625 L 62.087891 65.716797 C 65.834111 61.577323 68 55.949777 68 50 C 68 44.049887 65.833616 38.422722 62.087891 34.283203 L 64.923828 31.484375 z M 73.732422 33.994141 A 0.50005 0.50005 0 0 0 73.287109 34.730469 C 73.785549 35.692803 74.242657 36.674455 74.642578 37.683594 A 0.50005 0.50005 0 1 0 75.572266 37.316406 C 75.158187 36.271545 74.687341 35.257197 74.175781 34.269531 A 0.50005 0.50005 0 0 0 73.732422 33.994141 z M 3 34 A 1.0001 1.0001 0 0 0 2 35 L 2 41 A 1.0001 1.0001 0 0 0 3 42 L 6.1894531 42 L 14.951172 66.337891 A 1.0001 1.0001 0 0 0 15.892578 67 L 24 67 A 1.0001 1.0001 0 0 0 25 66 L 25 60 A 1.0001 1.0001 0 0 0 24 59 L 20.810547 59 L 12.048828 34.662109 A 1.0001 1.0001 0 0 0 11.107422 34 L 3 34 z M 88.892578 34 A 1.0001 1.0001 0 0 0 87.951172 34.662109 L 79.189453 59 L 76 59 A 1.0001 1.0001 0 0 0 75 60 L 75 66 A 1.0001 1.0001 0 0 0 76 67 L 84.107422 67 A 1.0001 1.0001 0 0 0 85.048828 66.337891 L 93.810547 42 L 97 42 A 1.0001 1.0001 0 0 0 98 41 L 98 35 A 1.0001 1.0001 0 0 0 97 34 L 88.892578 34 z M 25.773438 34.992188 A 0.50005 0.50005 0 0 0 25.722656 34.994141 A 0.50005 0.50005 0 0 0 25.304688 35.285156 C 23.16474 39.787368 22 44.828908 22 50 C 22 50.853911 22.039941 51.699616 22.101562 52.537109 A 0.50040144 0.50040144 0 0 0 23.099609 52.462891 C 23.039234 51.642386 23 50.822089 23 50 C 23 44.979092 24.130978 40.082632 26.207031 35.714844 A 0.50005 0.50005 0 0 0 25.773438 34.992188 z M 4 36 L 10.404297 36 L 19.167969 60.337891 A 1.0001 1.0001 0 0 0 20.107422 61 L 23 61 L 23 65 L 16.595703 65 L 7.8320312 40.662109 A 1.0001 1.0001 0 0 0 6.8925781 40 L 4 40 L 4 36 z M 89.595703 36 L 96 36 L 96 40 L 93.107422 40 A 1.0001 1.0001 0 0 0 92.167969 40.662109 L 83.404297 65 L 77 65 L 77 61 L 79.892578 61 A 1.0001 1.0001 0 0 0 80.832031 60.337891 L 89.595703 36 z M 49.314453 38.988281 A 1.0001 1.0001 0 0 0 48.431641 40.333984 L 50.556641 46.333984 A 1.0007355 1.0007355 0 1 0 52.443359 45.666016 L 50.318359 39.666016 A 1.0001 1.0001 0 0 0 49.314453 38.988281 z M 42.939453 40.988281 A 1.0001 1.0001 0 0 0 42.056641 42.333984 L 44.181641 48.333984 A 1.0007355 1.0007355 0 1 0 46.068359 47.666016 L 43.943359 41.666016 A 1.0001 1.0001 0 0 0 42.939453 40.988281 z M 76.642578 41.994141 A 0.50005 0.50005 0 0 0 76.173828 42.609375 C 76.714849 45.008985 77 47.489807 77 50 C 77 50.822089 76.960771 51.642384 76.900391 52.462891 A 0.50040144 0.50040144 0 1 0 77.898438 52.537109 C 77.960062 51.699614 78 50.853911 78 50 C 78 47.414193 77.70737 44.861015 77.150391 42.390625 A 0.50005 0.50005 0 0 0 76.642578 41.994141 z M 59.970703 43.089844 A 1.0001 1.0001 0 0 0 59.017578 43.919922 C 57.603791 51.526305 52.107333 57.715834 44.871094 60.15625 A 1.0001 1.0001 0 1 0 45.509766 62.050781 C 53.425526 59.381197 59.434209 52.614773 60.982422 44.285156 A 1.0001 1.0001 0 0 0 59.970703 43.089844 z"/></svg>