<svg fill="#ffffff" xmlns="http://www.w3.org/2000/svg"  viewBox="0 0 100 100" width="30px" height="30px"><path d="M 49.984375 7.984375 A 1.0001 1.0001 0 0 0 49 8.9980469 L 49 18 A 1.0001 1.0001 0 1 0 51 18 L 51 8.9980469 A 1.0001 1.0001 0 0 0 49.984375 7.984375 z M 29.455078 13.480469 A 1.0001 1.0001 0 0 0 28.634766 14.992188 L 33.134766 22.787109 A 1.0001 1.0001 0 1 0 34.865234 21.787109 L 30.365234 13.992188 A 1.0001 1.0001 0 0 0 29.455078 13.480469 z M 70.515625 13.480469 A 1.0001 1.0001 0 0 0 69.634766 13.992188 L 65.134766 21.787109 A 1.0001 1.0001 0 1 0 66.865234 22.787109 L 71.365234 14.992188 A 1.0001 1.0001 0 0 0 70.515625 13.480469 z M 50 21 C 33.995577 21 21 33.995588 21 50 C 21 66.004412 33.995577 79 50 79 C 66.004423 79 79 66.004412 79 50 C 79 33.995588 66.004423 21 50 21 z M 50 23 C 64.923544 23 77 35.076467 77 50 C 77 64.923533 64.923544 77 50 77 C 35.076456 77 23 64.923533 23 50 C 23 35.076467 35.076456 23 50 23 z M 50 27 C 37.30376 27 27 37.30376 27 50 C 27 62.69624 37.30376 73 50 73 C 50.185857 73 50.354786 72.990098 50.511719 72.986328 A 0.50013734 0.50013734 0 0 0 50.488281 71.986328 C 50.311216 71.990567 50.150143 72 50 72 C 37.84424 72 28 62.15576 28 50 C 28 37.84424 37.84424 28 50 28 C 53.710216 28 57.200188 28.921759 60.265625 30.542969 A 0.50063396 0.50063396 0 1 0 60.734375 29.658203 C 57.529812 27.963413 53.875784 27 50 27 z M 14.517578 28.492188 A 1.0001 1.0001 0 0 0 14.417969 28.494141 A 1.0001 1.0001 0 0 0 13.992188 30.365234 L 21.787109 34.865234 A 1.0001 1.0001 0 1 0 22.787109 33.134766 L 14.992188 28.634766 A 1.0001 1.0001 0 0 0 14.517578 28.492188 z M 85.550781 28.494141 A 1.0001 1.0001 0 0 0 85.007812 28.634766 L 77.212891 33.134766 A 1.0001 1.0001 0 1 0 78.212891 34.865234 L 86.007812 30.365234 A 1.0001 1.0001 0 0 0 85.550781 28.494141 z M 62.496094 30.787109 A 0.50005 0.50005 0 0 0 62.222656 31.707031 C 62.900931 32.160506 63.545353 32.668412 64.177734 33.203125 A 0.50005 0.50005 0 1 0 64.822266 32.439453 C 64.172647 31.890166 63.499069 31.359478 62.777344 30.876953 A 0.50005 0.50005 0 0 0 62.496094 30.787109 z M 40.5 40 C 38.225777 40 36.328858 41.675864 36.009766 43.855469 A 1.000726 1.000726 0 1 0 37.990234 44.144531 C 38.167142 42.936136 39.200223 42 40.5 42 C 41.799777 42 42.832858 42.936136 43.009766 44.144531 A 1.000726 1.000726 0 0 0 44.990234 43.855469 C 44.671142 41.675864 42.774223 40 40.5 40 z M 59.5 40 C 57.225777 40 55.328858 41.675864 55.009766 43.855469 A 1.000726 1.000726 0 1 0 56.990234 44.144531 C 57.167142 42.936136 58.200223 42 59.5 42 C 60.799777 42 61.832858 42.936136 62.009766 44.144531 A 1.000726 1.000726 0 0 0 63.990234 43.855469 C 63.671142 41.675864 61.774223 40 59.5 40 z M 8.9980469 49 A 1.0001 1.0001 0 1 0 8.9980469 51 L 18 51 A 1.0001 1.0001 0 1 0 18 49 L 8.9980469 49 z M 82 49 A 1.0001 1.0001 0 1 0 82 51 L 91.001953 51 A 1.0001 1.0001 0 1 0 91.001953 49 L 82 49 z M 37.5 51 A 0.50005 0.50005 0 0 0 37 51.519531 C 37.123353 54.627205 38.34576 57.454017 40.279297 59.628906 A 0.50005 0.50005 0 0 0 40.296875 59.648438 A 0.50005 0.50005 0 0 0 40.332031 59.683594 C 42.711498 62.328545 46.158508 64 50 64 C 53.836608 64 57.27998 62.331446 59.658203 59.693359 A 0.50005 0.50005 0 0 0 59.703125 59.648438 A 0.50005 0.50005 0 0 0 59.734375 59.609375 C 61.658921 57.437727 62.87596 54.61949 63 51.519531 A 0.50005 0.50005 0 0 0 62.5 51 L 37.5 51 z M 38.113281 52 L 61.886719 52 C 61.6724 54.504845 60.71794 56.776556 59.203125 58.605469 C 56.983608 56.995832 53.695978 56 50 56 C 49.532999 56 49.073611 56.018303 48.623047 56.050781 C 45.489927 56.26355 42.736338 57.198932 40.796875 58.605469 C 39.281867 56.775668 38.326944 54.503888 38.113281 52 z M 50 57 C 50.434937 57 50.86174 57.018189 51.283203 57.046875 C 54.21695 57.25879 56.723832 58.183221 58.470703 59.425781 C 56.297937 61.60888 53.33087 63 50 63 C 46.668907 63 43.702804 61.609777 41.529297 59.425781 C 43.275384 58.183779 45.780843 57.259335 48.712891 57.046875 C 48.714172 57.046788 48.715516 57.046962 48.716797 57.046875 C 49.135904 57.016601 49.564478 57 50 57 z M 77.738281 64.992188 A 1.0001 1.0001 0 0 0 77.638672 64.994141 A 1.0001 1.0001 0 0 0 77.212891 66.865234 L 85.007812 71.365234 A 1.0001 1.0001 0 1 0 86.007812 69.634766 L 78.212891 65.134766 A 1.0001 1.0001 0 0 0 77.738281 64.992188 z M 22.332031 64.994141 A 1.0001 1.0001 0 0 0 21.787109 65.134766 L 13.992188 69.634766 A 1.0001 1.0001 0 1 0 14.992188 71.365234 L 22.787109 66.865234 A 1.0001 1.0001 0 0 0 22.332031 64.994141 z M 60.490234 69.396484 A 0.50005 0.50005 0 0 0 60.265625 69.457031 C 59.326118 69.95367 58.34799 70.385278 57.333984 70.744141 A 0.50005 0.50005 0 1 0 57.666016 71.685547 C 58.72601 71.310409 59.751882 70.861158 60.734375 70.341797 A 0.50005 0.50005 0 0 0 60.490234 69.396484 z M 55.511719 71.318359 A 0.50005 0.50005 0 0 0 55.378906 71.335938 C 55.052962 71.417667 54.726483 71.492599 54.400391 71.558594 A 0.50025126 0.50025126 0 1 0 54.599609 72.539062 C 54.945517 72.469063 55.285038 72.388954 55.621094 72.304688 A 0.50005 0.50005 0 0 0 55.511719 71.318359 z M 34.015625 76.701172 A 1.0001 1.0001 0 0 0 33.134766 77.212891 L 28.634766 85.007812 A 1.0001 1.0001 0 1 0 30.365234 86.007812 L 34.865234 78.212891 A 1.0001 1.0001 0 0 0 34.015625 76.701172 z M 65.955078 76.701172 A 1.0001 1.0001 0 0 0 65.134766 78.212891 L 69.634766 86.007812 A 1.0001 1.0001 0 1 0 71.365234 85.007812 L 66.865234 77.212891 A 1.0001 1.0001 0 0 0 65.955078 76.701172 z M 49.984375 80.986328 A 1.0001 1.0001 0 0 0 49 82 L 49 91.001953 A 1.0001 1.0001 0 1 0 51 91.001953 L 51 82 A 1.0001 1.0001 0 0 0 49.984375 80.986328 z"/></svg>