<svg fill="#ffffff" xmlns="http://www.w3.org/2000/svg"  viewBox="0 0 100 100" width="30px" height="30px"><path d="M 66 17 A 1.0001 1.0001 0 0 0 65 18 L 65 20 C 65 22.749516 67.250484 25 70 25 L 75 25 L 75 39.205078 C 73.717769 37.587528 72.263851 36.232769 70.712891 35.205078 C 68.34277 33.634599 65.708993 32.816487 63.173828 33.042969 C 62.328773 33.118459 61.495122 33.310507 60.685547 33.628906 A 1.0001 1.0001 0 0 0 60.683594 33.628906 C 60.424209 33.731066 59.488701 34.126055 57.884766 34.804688 C 56.28083 35.483319 54.069362 36.423163 51.455078 37.533203 C 46.226511 39.753284 39.389639 42.659407 32.597656 45.548828 C 19.013737 51.32767 5.6074219 57.035156 5.6074219 57.035156 A 1.0001 1.0001 0 0 0 5.0214844 58.160156 C 6.8622397 66.944241 14.033219 70.582946 15.828125 71.367188 C 17.549783 75.478433 20.227151 78.771252 23.287109 80.798828 C 26.447271 82.8928 30.076151 83.648597 33.314453 82.375 C 33.32379 82.371329 33.332478 82.366981 33.341797 82.363281 C 33.341797 82.363281 42.87175 78.298202 52.636719 74.140625 C 57.519203 72.061837 62.459632 69.96006 66.296875 68.332031 C 70.134118 66.704002 72.936298 65.523683 73.314453 65.375 C 76.55277 64.10196 78.683272 61.078876 79.546875 57.400391 C 80.086365 55.102452 80.151165 52.527954 79.707031 49.871094 L 81.912109 48.957031 C 83.778275 48.184351 85 46.357621 85 44.337891 L 85 25 L 90 25 C 92.749516 25 95 22.749516 95 20 L 95 18 A 1.0001 1.0001 0 0 0 94 17 L 66 17 z M 67 19 L 93 19 L 93 20 C 93 21.668484 91.668484 23 90 23 L 85 23 L 75 23 L 70 23 C 68.331516 23 67 21.668484 67 20 L 67 19 z M 77 25 L 83 25 L 83 44.337891 C 83 45.55416 82.270318 46.644055 81.146484 47.109375 L 79.271484 47.884766 C 79.024709 46.936114 78.725371 45.984099 78.347656 45.035156 C 77.95341 44.044679 77.497678 43.105682 77 42.212891 L 77 25 z M 64.386719 35.009766 C 66.096854 35.087591 67.881819 35.728342 69.609375 36.873047 C 71.336931 38.017752 72.979343 39.66553 74.351562 41.705078 L 74.755859 42.355469 C 75.056225 42.839999 75.338662 43.344182 75.607422 43.861328 C 75.645227 43.934943 75.685542 44.005731 75.722656 44.080078 C 75.935177 44.500655 76.125016 44.941575 76.3125 45.384766 L 37.931641 61.279297 C 37.721683 61.038589 36.381402 59.565232 33.654297 58.119141 C 30.685006 56.544673 26.074429 55 19.5 55 C 17.865505 55 16.398477 55.087855 15.021484 55.205078 C 19.70051 53.212248 24.140134 51.319828 33.380859 47.388672 C 40.172626 44.499343 47.008582 41.592779 52.236328 39.373047 C 54.850201 38.263181 57.061616 37.324486 58.664062 36.646484 C 60.266511 35.968483 61.319353 35.529074 61.417969 35.490234 C 62.361356 35.119208 63.360638 34.96307 64.386719 35.009766 z M 76.675781 46.316406 C 76.827615 46.731547 76.982281 47.14692 77.105469 47.5625 C 77.123168 47.621142 77.137147 47.679675 77.154297 47.738281 C 77.319792 48.314417 77.464766 48.889591 77.582031 49.462891 C 78.129353 52.147173 78.118388 54.73364 77.599609 56.943359 C 76.845462 60.155624 75.099668 62.524712 72.583984 63.513672 C 72.023639 63.733989 69.354351 64.861576 65.515625 66.490234 C 61.676899 68.118893 56.736406 70.22182 51.853516 72.300781 C 44.874068 75.272382 41.40863 76.751109 38.0625 78.177734 C 38.72658 77.046769 39.225443 75.769307 39.546875 74.400391 C 40.40148 70.760794 40.062459 66.429323 38.396484 62.171875 L 76.675781 46.316406 z M 19.5 57 C 20.257746 57 20.983679 57.02438 21.683594 57.064453 C 21.252221 57.539744 20.956904 58.09315 20.757812 58.552734 C 19.575336 61.281115 19.7907 65.140903 21.226562 68.748047 C 22.474272 71.880907 24.281342 74.116943 26.095703 75.466797 C 27.90931 76.816089 29.746175 77.332495 31.119141 76.791016 C 32.273465 76.337095 32.897565 75.248727 33.244141 74.451172 L 33.244141 74.449219 C 34.426542 71.719987 34.211285 67.8601 32.775391 64.253906 C 31.749257 61.678571 30.306543 59.675443 28.783203 58.283203 C 30.350164 58.763181 31.65952 59.32608 32.716797 59.886719 C 35.30025 61.256637 36.314922 62.467016 36.398438 62.568359 C 36.437348 62.655249 36.471964 62.731843 36.490234 62.777344 C 38.062997 66.728467 38.35375 70.731621 37.599609 73.943359 C 36.849039 77.139896 35.115042 79.498544 32.619141 80.496094 C 32.618991 80.496158 32.572304 80.515609 32.572266 80.515625 C 30.058733 81.500051 27.151313 80.960134 24.390625 79.130859 C 21.626536 77.299331 19.082689 74.180215 17.509766 70.228516 C 15.591597 65.411761 15.651394 60.57627 17.099609 57.126953 C 17.91417 57.087916 18.601441 57 19.5 57 z M 23.164062 57.191406 C 24.214191 57.296944 25.198442 57.440893 26.109375 57.621094 C 26.72098 57.933674 27.361237 58.349127 27.998047 58.916016 C 29.438014 60.197874 30.846987 62.118477 31.845703 64.625 C 33.201121 68.030278 33.351537 71.690443 32.328125 74.052734 C 32.030575 74.736914 31.491075 75.571448 30.753906 75.861328 C 29.905057 76.196742 28.335795 75.887458 26.691406 74.664062 C 25.047018 73.440667 23.341542 71.355046 22.15625 68.378906 C 20.800113 64.97205 20.650305 61.312791 21.673828 58.951172 C 21.958267 58.294569 22.470719 57.510549 23.164062 57.191406 z M 14.966797 57.240234 C 13.828978 60.536776 13.733278 64.526594 14.869141 68.601562 C 12.496418 67.175114 8.7294718 64.148853 7.2480469 58.615234 C 8.5066218 58.245128 11.12358 57.5833 14.966797 57.240234 z M 73.484375 58.855469 A 0.50005 0.50005 0 0 0 73.304688 58.898438 L 55.304688 66.53125 A 0.50005 0.50005 0 1 0 55.695312 67.451172 L 73.695312 59.818359 A 0.50005 0.50005 0 0 0 73.484375 58.855469 z M 50.484375 68.609375 A 0.50005 0.50005 0 0 0 50.304688 68.650391 L 47.304688 69.921875 A 0.50060978 0.50060978 0 0 0 47.695312 70.84375 L 50.695312 69.572266 A 0.50005 0.50005 0 0 0 50.484375 68.609375 z M 44.484375 71.152344 A 0.50005 0.50005 0 0 0 44.304688 71.195312 L 43.304688 71.619141 A 0.50005 0.50005 0 1 0 43.695312 72.539062 L 44.695312 72.115234 A 0.50005 0.50005 0 0 0 44.484375 71.152344 z"/></svg>