<svg fill="#000000" xmlns="http://www.w3.org/2000/svg"  viewBox="0 0 100 100" width="30px" height="30px"><path d="M 49.978516 14.021484 C 30.108109 14.021484 13.978516 30.151078 13.978516 50.021484 C 13.978516 69.891891 30.108109 86.021484 49.978516 86.021484 C 69.848922 86.021484 85.978516 69.891891 85.978516 50.021484 C 85.978516 30.151078 69.848922 14.021484 49.978516 14.021484 z M 49.978516 16.021484 C 68.768042 16.021484 83.978516 31.231958 83.978516 50.021484 C 83.978516 68.81101 68.768042 84.021484 49.978516 84.021484 C 31.18899 84.021484 15.978516 68.81101 15.978516 50.021484 C 15.978516 31.231958 31.18899 16.021484 49.978516 16.021484 z M 50 20 C 33.437765 20 20 33.437765 20 50 C 20 66.562235 33.437765 80 50 80 C 66.562235 80 80 66.562235 80 50 C 80 41.038621 76.062117 32.994931 69.830078 27.498047 A 0.50005 0.50005 0 1 0 69.169922 28.248047 C 75.195883 33.563163 79 41.331379 79 50 C 79 66.021765 66.021765 79 50 79 C 33.978235 79 21 66.021765 21 50 C 21 33.978235 33.978235 21 50 21 C 53.26906 21 56.407907 21.547945 59.339844 22.544922 A 0.50005 0.50005 0 1 0 59.660156 21.597656 C 56.628093 20.566633 53.38094 20 50 20 z M 62.46875 22.777344 A 0.50005 0.50005 0 0 0 62.289062 23.732422 C 62.958537 24.045563 63.612327 24.384945 64.253906 24.748047 A 0.50026338 0.50026338 0 1 0 64.746094 23.876953 C 64.083673 23.502055 63.405464 23.151031 62.710938 22.826172 A 0.50005 0.50005 0 0 0 62.46875 22.777344 z M 66.498047 25.039062 A 0.50005 0.50005 0 0 0 66.220703 25.957031 C 66.551463 26.180465 66.877403 26.415671 67.203125 26.65625 A 0.50005 0.50005 0 1 0 67.796875 25.851562 C 67.464597 25.606143 67.126537 25.363473 66.779297 25.128906 A 0.50005 0.50005 0 0 0 66.498047 25.039062 z M 50.191406 36 C 48.755406 36 47.512891 36.215484 46.462891 36.646484 C 45.411891 37.078484 44.628234 37.631687 44.115234 38.304688 C 43.602234 38.977688 43.232953 39.634531 43.001953 40.269531 C 42.770953 40.905531 42.654297 41.528672 42.654297 42.138672 C 42.654297 42.693672 42.751359 43.071438 42.943359 43.273438 C 43.135359 43.475437 43.475891 43.576172 43.962891 43.576172 C 44.783891 43.576172 45.193359 43.173234 45.193359 42.365234 C 45.193359 41.307234 45.564594 40.367875 46.308594 39.546875 C 47.052594 38.726875 48.320234 38.316406 50.115234 38.316406 C 51.730234 38.316406 52.910297 38.713813 53.654297 39.507812 C 54.397297 40.301812 54.769531 41.531266 54.769531 43.197266 C 54.769531 44.988266 54.371172 46.243891 53.576172 46.962891 C 52.781172 47.682891 51.577891 48.041016 49.962891 48.041016 C 49.320891 48.041016 49 48.408578 49 49.142578 C 49 49.852578 49.333 50.207031 50 50.207031 C 51.717 50.207031 53.057531 50.624938 54.019531 51.460938 C 54.980531 52.296938 55.460938 53.562766 55.460938 55.259766 L 55.460938 55.980469 C 55.460937 59.779469 53.615828 61.679688 49.923828 61.679688 C 48.025828 61.679688 46.645109 61.236609 45.787109 60.349609 C 44.928109 59.463609 44.5 58.501891 44.5 57.462891 C 44.5 56.753891 44.062406 56.398438 43.191406 56.398438 C 42.755406 56.398438 42.448531 56.493594 42.269531 56.683594 C 42.089531 56.873594 42 57.222516 42 57.728516 C 42 59.324516 42.691172 60.7695 44.076172 62.0625 C 45.461172 63.3545 47.424891 64 49.962891 64 C 52.371891 64 54.313109 63.3535 55.787109 62.0625 C 57.261109 60.7705 58 58.745375 58 55.984375 L 58 55.261719 C 58 52.197719 56.691172 50.145422 54.076172 49.107422 C 55.024172 48.652422 55.788234 47.882875 56.365234 46.796875 C 56.942234 45.711875 57.230469 44.349031 57.230469 42.707031 C 57.230469 38.236031 54.883406 36 50.191406 36 z"/></svg>