<?xml version="1.0"?><svg fill="#000000" xmlns="http://www.w3.org/2000/svg"  viewBox="0 0 100 100" width="50px" height="50px">    <path d="M 36.261719 20.613281 C 28.92806 20.613281 22.524015 26.290326 21.46875 33.613281 L 19.921875 33.613281 C 18.818875 33.613281 17.921875 34.510281 17.921875 35.613281 L 17.921875 36.613281 L 14.921875 36.613281 C 11.612875 36.613281 8.921875 39.304281 8.921875 42.613281 L 8.921875 53.072266 C 8.921875 53.922266 9.6118906 54.613281 10.462891 54.613281 L 11.919922 54.613281 L 11.919922 75.470703 C 11.919922 79.408703 15.1235 82.613281 19.0625 82.613281 L 82.777344 82.613281 C 86.715344 82.613281 89.921875 79.408703 89.921875 75.470703 L 89.921875 54.613281 L 91.546875 54.613281 C 92.304875 54.613281 92.921875 53.996281 92.921875 53.238281 L 92.921875 42.613281 C 92.921875 39.305281 90.230875 36.613281 86.921875 36.613281 L 83.921875 36.613281 L 83.921875 35.613281 C 83.921875 34.510281 83.024875 33.613281 81.921875 33.613281 L 80.326172 33.613281 C 79.271766 26.290374 72.866829 20.613281 65.533203 20.613281 L 36.261719 20.613281 z M 36.261719 21.613281 L 65.533203 21.613281 C 72.215203 21.613281 78.287078 26.946281 79.330078 33.613281 L 74.591797 33.613281 C 73.658797 29.690281 70.067188 25.613281 65.617188 25.613281 L 36.181641 25.613281 C 31.767641 25.613281 28.199578 29.690281 27.267578 33.613281 L 22.464844 33.613281 C 23.507844 26.946281 29.579719 21.613281 36.261719 21.613281 z M 36.181641 26.613281 L 65.617188 26.613281 C 69.367881 26.613281 72.622175 30.128601 73.556641 33.613281 L 72.921875 33.613281 C 71.818875 33.613281 70.921875 34.510281 70.921875 35.613281 L 70.921875 36.613281 L 30.921875 36.613281 L 30.921875 35.613281 C 30.921875 34.510281 30.024875 33.613281 28.921875 33.613281 L 28.302734 33.613281 C 29.221563 30.141017 32.345215 26.613281 36.181641 26.613281 z M 19.921875 34.613281 L 28.921875 34.613281 C 29.473875 34.613281 29.921875 35.062281 29.921875 35.613281 L 29.921875 36.613281 L 18.921875 36.613281 L 18.921875 35.613281 C 18.921875 35.062281 19.369875 34.613281 19.921875 34.613281 z M 72.921875 34.613281 L 81.921875 34.613281 C 82.473875 34.613281 82.921875 35.062281 82.921875 35.613281 L 82.921875 36.613281 L 71.921875 36.613281 L 71.921875 35.613281 C 71.921875 35.062281 72.369875 34.613281 72.921875 34.613281 z M 14.921875 38.613281 L 86.921875 38.613281 C 89.127875 38.613281 90.921875 40.407281 90.921875 42.613281 L 87.421875 42.613281 C 87.145875 42.613281 86.921875 42.837281 86.921875 43.113281 C 86.921875 43.389281 87.145875 43.613281 87.421875 43.613281 L 90.921875 43.613281 L 90.921875 52.613281 L 76.71875 52.613281 L 77.841797 50.335938 C 77.918797 50.181938 77.909359 49.996609 77.818359 49.849609 C 77.726359 49.702609 77.567531 49.613281 77.394531 49.613281 L 67.447266 49.613281 C 67.273266 49.613281 67.113484 49.704563 67.021484 49.851562 C 66.931484 49.999563 66.923 50.182891 67 50.337891 L 68.140625 52.613281 L 34.71875 52.613281 L 35.841797 50.335938 C 35.918797 50.181938 35.909359 49.996609 35.818359 49.849609 C 35.726359 49.702609 35.567531 49.613281 35.394531 49.613281 L 25.447266 49.613281 C 25.273266 49.613281 25.113484 49.704563 25.021484 49.851562 C 24.931484 49.999563 24.923 50.182891 25 50.337891 L 26.140625 52.613281 L 10.921875 52.613281 L 10.921875 43.113281 L 10.921875 42.613281 C 10.921875 40.407281 12.715875 38.613281 14.921875 38.613281 z M 10.921875 43.113281 C 10.921875 43.389281 11.145875 43.613281 11.421875 43.613281 L 76.421875 43.613281 C 76.698875 43.613281 76.921875 43.389281 76.921875 43.113281 C 76.921875 42.837281 76.697875 42.613281 76.421875 42.613281 L 11.421875 42.613281 C 11.145875 42.613281 10.921875 42.837281 10.921875 43.113281 z M 79.421875 42.613281 C 79.145875 42.613281 78.921875 42.837281 78.921875 43.113281 C 78.921875 43.389281 79.145875 43.613281 79.421875 43.613281 L 85.421875 43.613281 C 85.698875 43.613281 85.921875 43.389281 85.921875 43.113281 C 85.921875 42.837281 85.697875 42.613281 85.421875 42.613281 L 79.421875 42.613281 z M 26.257812 50.613281 L 34.589844 50.613281 L 32.972656 53.892578 C 32.938656 53.961578 32.921875 54.036281 32.921875 54.113281 L 32.921875 57.613281 L 30.921875 57.613281 L 30.921875 55.113281 C 30.921875 54.837281 30.697875 54.613281 30.421875 54.613281 C 30.145875 54.613281 29.921875 54.837281 29.921875 55.113281 L 29.921875 57.613281 L 27.925781 57.613281 L 27.953125 54.117188 C 27.954125 54.038187 27.935391 53.961625 27.900391 53.890625 L 26.257812 50.613281 z M 68.257812 50.613281 L 76.589844 50.613281 L 74.972656 53.892578 C 74.938656 53.961578 74.921875 54.036281 74.921875 54.113281 L 74.921875 57.613281 L 72.921875 57.613281 L 72.921875 55.113281 C 72.921875 54.837281 72.697875 54.613281 72.421875 54.613281 C 72.145875 54.613281 71.921875 54.837281 71.921875 55.113281 L 71.921875 57.613281 L 69.925781 57.613281 L 69.953125 54.117188 C 69.954125 54.038187 69.935391 53.961625 69.900391 53.890625 L 68.257812 50.613281 z M 13.921875 54.613281 L 26.949219 54.613281 L 26.921875 58.109375 C 26.921875 58.242375 26.971406 58.371797 27.066406 58.466797 C 27.159406 58.561797 27.288875 58.613281 27.421875 58.613281 L 33.421875 58.613281 C 33.698875 58.613281 33.920922 58.390281 33.919922 58.113281 L 33.919922 54.613281 L 68.949219 54.613281 L 68.921875 58.109375 C 68.921875 58.242375 68.971406 58.371797 69.066406 58.466797 C 69.159406 58.561797 69.288875 58.613281 69.421875 58.613281 L 75.421875 58.613281 C 75.698875 58.613281 75.920922 58.390281 75.919922 58.113281 L 75.919922 54.613281 L 87.921875 54.613281 L 87.921875 69.628906 C 82.567601 70.173103 78.297213 74.873105 78.107422 80.613281 L 24.28125 80.613281 C 24.281515 80.606568 24.285156 80.600481 24.285156 80.59375 C 24.285156 74.92212 19.711526 70.196648 13.921875 69.669922 L 13.921875 54.613281 z M 87.921875 70.634766 L 87.921875 75.470703 C 87.921875 78.306703 85.615297 80.613281 82.779297 80.613281 L 79.107422 80.613281 C 79.293908 75.427882 83.113309 71.178471 87.921875 70.634766 z M 13.921875 70.671875 C 19.16212 71.193186 23.286102 75.47117 23.285156 80.59375 C 23.284924 80.596999 23.285541 80.606546 23.285156 80.613281 L 19.064453 80.613281 C 16.228453 80.613281 13.921875 78.306703 13.921875 75.470703 L 13.921875 70.671875 z"/></svg>