<svg fill="#000000" xmlns="http://www.w3.org/2000/svg"  viewBox="0 0 100 100" width="50px" height="50px"><path d="M 46.5 13 C 29.66753 13 16 26.66753 16 43.5 C 16 45.08456 16.127178 46.637389 16.359375 48.152344 A 1.0001 1.0001 0 0 0 16.460938 48.458984 C 17.162118 52.745634 18.709215 56.751353 21.005859 60.240234 A 1.0001 1.0001 0 0 0 21.007812 60.240234 C 24.204289 65.092704 26 70.712066 26 76.498047 L 26 87 A 1.0001 1.0001 0 1 0 28 87 L 28 76.498047 C 28 70.298028 26.075212 64.298155 22.677734 59.140625 C 20.481521 55.804311 18.98575 51.973502 18.355469 47.849609 A 1.0001 1.0001 0 0 0 18.326172 47.71875 C 18.12055 46.338167 18 44.93364 18 43.5 C 18 27.74847 30.74847 15 46.5 15 C 60.912423 15 72.802045 25.683415 74.722656 39.556641 C 74.805716 40.155166 74.988854 40.749811 75.292969 41.300781 A 1.0001 1.0001 0 0 0 75.308594 41.328125 L 81.816406 52.279297 C 82.224313 52.966085 81.955116 53.813938 81.224609 54.138672 L 74.59375 57.085938 A 1.0001 1.0001 0 0 0 74 58 L 74 66 C 74 70.982593 69.982593 75 65 75 L 59.535156 75 L 59.5 75 L 59 75 L 50.5 75 A 0.50005 0.50005 0 1 0 50.5 76 L 58 76 L 58 87 A 1.0001 1.0001 0 1 0 60 87 L 60 77 L 65 77 C 71.063407 77 76 72.063407 76 66 L 76 58.650391 L 82.037109 55.966797 C 83.830602 55.169531 84.537249 52.945024 83.535156 51.257812 L 77.044922 40.333984 L 77.044922 40.332031 C 76.871533 40.017441 76.757928 39.662083 76.705078 39.28125 C 74.649689 24.434476 61.901577 13 46.5 13 z M 47.988281 28.001953 C 47.173717 28.001953 46.44043 28.251349 45.875 28.751953 C 45.292625 29.267559 45 30.021183 45 30.873047 C 45 32.787845 45.09042 35.953875 45.269531 40.386719 C 45.448416 44.813875 45.537109 47.977181 45.537109 49.859375 C 45.537109 50.505552 45.7538 51.093818 46.205078 51.472656 C 46.656356 51.851494 47.269342 52 47.990234 52 C 48.567325 52 49.122976 51.817294 49.609375 51.476562 L 49.611328 51.476562 C 50.138973 51.109161 50.443359 50.508996 50.443359 49.859375 C 50.443359 47.977708 50.534829 44.815679 50.720703 40.388672 C 50.905779 35.955732 51 32.788371 51 30.873047 C 51 30.04554 50.700218 29.301318 50.119141 28.777344 C 49.548462 28.261584 48.806096 28.001953 47.988281 28.001953 z M 47.988281 29.001953 C 48.606467 29.001953 49.061944 29.171291 49.447266 29.519531 L 49.449219 29.519531 C 49.824732 29.857457 50 30.265539 50 30.873047 C 50 32.755722 49.90753 35.918643 49.722656 40.345703 C 49.536531 44.778696 49.443359 47.945042 49.443359 49.859375 C 49.443359 50.244814 49.334005 50.453462 49.039062 50.658203 L 49.037109 50.658203 C 48.699934 50.89475 48.368513 51 47.990234 51 C 47.409127 51 47.047378 50.874693 46.847656 50.707031 C 46.647935 50.539369 46.537109 50.307198 46.537109 49.859375 C 46.537109 47.945569 46.448649 44.7805 46.269531 40.347656 C 46.090646 35.9205 46 32.756249 46 30.873047 C 46 30.230911 46.177484 29.818394 46.537109 29.5 C 46.913679 29.166604 47.366846 29.001953 47.988281 29.001953 z M 48.005859 55 C 47.178691 55 46.427022 55.308034 45.861328 55.886719 C 45.300674 56.460249 45 57.197868 45 58 C 45 58.802132 45.30006 59.540296 45.861328 60.113281 C 46.427134 60.692539 47.179802 61 48.005859 61 C 48.813487 61 49.554805 60.681056 50.125 60.095703 L 50.125 60.09375 C 50.689331 59.513276 51 58.785364 51 58 C 51 57.194952 50.691179 56.455234 50.121094 55.882812 C 49.549319 55.311039 48.810567 55 48.005859 55 z M 48.005859 56 C 48.571151 56 49.005837 56.181618 49.414062 56.589844 C 49.818551 56.996839 50 57.433994 50 58 C 50 58.537998 49.818836 58.973479 49.408203 59.396484 C 49.000398 59.815131 48.568232 60 48.005859 60 C 47.40856 60 46.968217 59.815929 46.576172 59.414062 L 46.574219 59.414062 C 46.177534 59.009048 46 58.569868 46 58 C 46 57.430132 46.178826 56.992408 46.576172 56.585938 C 46.968478 56.184621 47.409028 56 48.005859 56 z M 46.5 75 A 0.50005 0.50005 0 1 0 46.5 76 L 48.5 76 A 0.50005 0.50005 0 1 0 48.5 75 L 46.5 75 z"/></svg>