<svg fill="#000000" xmlns="http://www.w3.org/2000/svg"  viewBox="0 0 100 100" width="30px" height="30px"><path d="M 49.978516 14.021484 C 30.108109 14.021484 13.978516 30.151078 13.978516 50.021484 C 13.978516 69.891891 30.108109 86.021484 49.978516 86.021484 C 69.848922 86.021484 85.978516 69.891891 85.978516 50.021484 C 85.978516 30.151078 69.848922 14.021484 49.978516 14.021484 z M 49.978516 16.021484 C 68.768042 16.021484 83.978516 31.231958 83.978516 50.021484 C 83.978516 68.81101 68.768042 84.021484 49.978516 84.021484 C 31.18899 84.021484 15.978516 68.81101 15.978516 50.021484 C 15.978516 31.231958 31.18899 16.021484 49.978516 16.021484 z M 50 20 C 33.437765 20 20 33.437765 20 50 C 20 66.562235 33.437765 80 50 80 C 66.562235 80 80 66.562235 80 50 C 80 41.038621 76.062117 32.994931 69.830078 27.498047 A 0.50005 0.50005 0 1 0 69.169922 28.248047 C 75.195883 33.563163 79 41.331379 79 50 C 79 66.021765 66.021765 79 50 79 C 33.978235 79 21 66.021765 21 50 C 21 33.978235 33.978235 21 50 21 C 53.26906 21 56.407907 21.547945 59.339844 22.544922 A 0.50005 0.50005 0 1 0 59.660156 21.597656 C 56.628093 20.566633 53.38094 20 50 20 z M 62.46875 22.777344 A 0.50005 0.50005 0 0 0 62.289062 23.732422 C 62.958537 24.045563 63.612327 24.384945 64.253906 24.748047 A 0.50026338 0.50026338 0 1 0 64.746094 23.876953 C 64.083673 23.502055 63.405464 23.151031 62.710938 22.826172 A 0.50005 0.50005 0 0 0 62.46875 22.777344 z M 66.498047 25.039062 A 0.50005 0.50005 0 0 0 66.220703 25.957031 C 66.551463 26.180465 66.877403 26.415671 67.203125 26.65625 A 0.50005 0.50005 0 1 0 67.796875 25.851562 C 67.464597 25.606143 67.126537 25.363473 66.779297 25.128906 A 0.50005 0.50005 0 0 0 66.498047 25.039062 z M 49.939453 36 C 47.852453 36 46.106266 36.601781 44.697266 37.800781 C 43.288266 39.001781 42.583984 40.519422 42.583984 42.357422 C 42.583984 43.404422 42.975859 43.927734 43.755859 43.927734 C 44.171859 43.927734 44.503 43.825141 44.75 43.619141 C 44.997 43.412141 45.121094 43.169719 45.121094 42.886719 C 45.121094 41.421719 45.558594 40.294719 46.433594 39.511719 C 47.308594 38.728719 48.451328 38.335938 49.861328 38.335938 C 51.533328 38.335937 52.832766 38.846141 53.759766 39.869141 C 54.685766 40.892141 55.148438 42.071391 55.148438 43.400391 C 55.148438 44.628391 54.691344 45.823328 53.777344 46.986328 C 52.863344 48.151328 51.753266 49.193281 50.447266 50.113281 L 46.609375 52.837891 C 45.329375 53.757891 44.23975 54.767187 43.34375 55.867188 C 42.44875 56.967187 42 58.10525 42 59.28125 L 42 63.001953 C 42 63.282953 42.129625 63.520891 42.390625 63.712891 C 42.649625 63.903891 42.922031 64 43.207031 64 L 57.066406 64 C 57.324406 64 57.544563 63.879719 57.726562 63.636719 C 57.909562 63.395719 58 63.1185 58 62.8125 C 58 62.5055 57.909609 62.238766 57.724609 62.009766 C 57.542609 61.779766 57.320547 61.664062 57.060547 61.664062 L 44.576172 61.664062 L 44.576172 59.285156 C 44.576172 58.492156 44.902687 57.691719 45.554688 56.886719 C 46.206688 56.081719 47.016422 55.35875 47.982422 54.71875 L 51.154297 52.494141 C 52.301297 51.650141 53.358266 50.819953 54.322266 50.001953 C 55.286266 49.181953 56.094094 48.183813 56.746094 47.007812 C 57.398094 45.831813 57.724609 44.603219 57.724609 43.324219 C 57.724609 41.239219 56.986672 39.496656 55.513672 38.097656 C 54.039672 36.698656 52.182453 36 49.939453 36 z"/></svg>