<svg fill="#000000" xmlns="http://www.w3.org/2000/svg"  viewBox="0 0 32 32" width="32px" height="32px"><path d="M 16 2 C 11.593562 2 8 5.593562 8 10 C 8 14.052135 11.084606 17.281986 15 17.796875 L 15 24 L 11 24 L 11 26 L 15 26 L 15 30 L 17 30 L 17 26 L 21 26 L 21 24 L 17 24 L 17 17.796875 C 20.915394 17.281986 24 14.052135 24 10 C 24 5.593562 20.406438 2 16 2 z M 16 4 C 19.325562 4 22 6.674438 22 10 C 22 13.325562 19.325562 16 16 16 C 12.674438 16 10 13.325562 10 10 C 10 6.674438 12.674438 4 16 4 z"/></svg>