<svg xmlns="http://www.w3.org/2000/svg" viewBox="0 0 309.91 273.38"><defs><style>.cls-1,.cls-5{fill:#00b9bc;}.cls-1,.cls-2,.cls-3,.cls-4{fill-rule:evenodd;}.cls-2{fill:#007c7d;}.cls-3{fill:#003e3f;}.cls-4{fill:#005c5d;}</style></defs><g id="Layer_2" data-name="Layer 2"><g id="Layer_1-2" data-name="Layer 1"><path class="cls-1" d="M108,24.93a83.11,83.11,0,0,0-83.09,83.12,12.47,12.47,0,1,1-24.93,0A108,108,0,0,1,108,0a12.47,12.47,0,0,1,0,24.93Z"/><path class="cls-2" d="M226.72,101.66a76.38,76.38,0,0,0-76.37-76.39,12.46,12.46,0,0,1,0-24.91,101.29,101.29,0,0,1,101.28,101.3,12.46,12.46,0,1,1-24.91,0Z"/><path class="cls-1" d="M247.06,162.91a27.36,27.36,0,1,0-2.48-49.63,12.44,12.44,0,1,1-11.45-22.09,52.37,52.37,0,1,1,4.52,94.75,12.44,12.44,0,1,1,9.41-23Z"/><path class="cls-3" d="M171.27,261a20.76,20.76,0,0,0-41.52,0,12.46,12.46,0,0,1-24.91,0,45.67,45.67,0,0,1,91.34,0,12.46,12.46,0,0,1-24.91,0Z"/><path class="cls-4" d="M66.46,168.87A12.45,12.45,0,1,1,78.9,156.42,12.45,12.45,0,0,1,66.46,168.87Z"/><path class="cls-1" d="M156.06,112.34a25.8,25.8,0,0,0,0,51.59c51.09,0,92.37,41.6,92.37,92.75a12.46,12.46,0,0,1-24.92,0,67.65,67.65,0,0,0-67.45-67.86,50.69,50.69,0,0,1,0-101.37,12.45,12.45,0,1,1,0,24.89Z"/><path class="cls-2" d="M66.46,181.31A12.45,12.45,0,0,1,78.9,193.77v54a12.44,12.44,0,1,1-24.88,0v-54A12.45,12.45,0,0,1,66.46,181.31Z"/><path class="cls-5" d="M272.24,137.94a12.45,12.45,0,0,1-12.46,12.44H154.27a12.45,12.45,0,1,1,0-24.89H259.78A12.45,12.45,0,0,1,272.24,137.94Z"/><path class="cls-3" d="M247.27,111.18a12.44,12.44,0,1,1,0-17.59A12.43,12.43,0,0,1,247.27,111.18Z"/><path class="cls-3" d="M162.69,73.86a12.45,12.45,0,1,1,0-17.6A12.45,12.45,0,0,1,162.69,73.86Z"/><path class="cls-4" d="M117.3,79.24a38.09,38.09,0,0,0-38.08,38.1,12.42,12.42,0,0,1-24.84,0A62.93,62.93,0,0,1,117.3,54.39a12.43,12.43,0,0,1,0,24.85Z"/><path class="cls-3" d="M58,108.52a12.44,12.44,0,1,1,0,17.6A12.43,12.43,0,0,1,58,108.52Z"/><path class="cls-4" d="M272.24,137.87a12.44,12.44,0,1,1-12.5-12.38A12.44,12.44,0,0,1,272.24,137.87Z"/><path class="cls-4" d="M272.24,12.74A12.44,12.44,0,1,1,259.74.36,12.44,12.44,0,0,1,272.24,12.74Z"/><path class="cls-4" d="M272.24,45.8a12.44,12.44,0,1,1-12.5-12.38A12.44,12.44,0,0,1,272.24,45.8Z"/></g></g></svg>