<svg xmlns="http://www.w3.org/2000/svg" viewBox="0 0 280.41 310.41"><defs><style>.cls-1,.cls-5{fill:#00b9bc;}.cls-1,.cls-2,.cls-3,.cls-4{fill-rule:evenodd;}.cls-2{fill:#003e3f;}.cls-3{fill:#007c7d;}.cls-4{fill:#005c5d;}</style></defs><g id="Layer_2" data-name="Layer 2"><g id="Layer_1-2" data-name="Layer 1"><path class="cls-1" d="M255.5,222.72a20.76,20.76,0,1,0-20.76,20.77A20.76,20.76,0,0,0,255.5,222.72ZM234.74,177a45.69,45.69,0,1,1-45.67,45.68A45.67,45.67,0,0,1,234.74,177Z"/><path class="cls-2" d="M233.86,235a12.45,12.45,0,1,1,12.43-12.44A12.44,12.44,0,0,1,233.86,235Z"/><path class="cls-3" d="M174.4,223.46a45.67,45.67,0,0,1-45.68,45.66h-83a45.66,45.66,0,1,1,0-91.31H72.25V151.66A45.67,45.67,0,0,1,117.93,106h83a20.76,20.76,0,0,0,20.77-20.75V47.08A20.76,20.76,0,0,0,201,26.32a12.45,12.45,0,1,1,0-24.9,45.67,45.67,0,0,1,45.68,45.66V85.26a45.51,45.51,0,0,1-14.33,33.2,45.53,45.53,0,0,1,14.33,33.2V189a12.46,12.46,0,0,1-24.91,0V151.66A20.76,20.76,0,0,0,201,130.91h-83a20.75,20.75,0,0,0-20.76,20.75v26.15h31.55A45.67,45.67,0,0,1,174.4,223.46ZM45.68,202.71a20.76,20.76,0,1,0,0,41.51h83a20.76,20.76,0,1,0,0-41.51Z"/><path class="cls-1" d="M135,45.68a20.76,20.76,0,1,0-20.76,20.77,12.46,12.46,0,0,1,0,24.92,45.69,45.69,0,1,1,45.67-45.69,12.46,12.46,0,1,1-24.91,0Z"/><path class="cls-4" d="M127.59,78.92a12.44,12.44,0,1,1-12.44-12.44A12.45,12.45,0,0,1,127.59,78.92Z"/><path class="cls-2" d="M161,78.92a12.44,12.44,0,1,1-12.44-12.44A12.46,12.46,0,0,1,161,78.92Z"/><path class="cls-2" d="M194.05,78.92a12.44,12.44,0,1,1-12.44-12.44A12.45,12.45,0,0,1,194.05,78.92Z"/><path class="cls-2" d="M234.21,201.93a12.45,12.45,0,1,1,12.44-12.44A12.44,12.44,0,0,1,234.21,201.93Z"/><path class="cls-5" d="M54.85,281.83a27.37,27.37,0,1,0,4.06-49.58,12.46,12.46,0,0,1-8.45-23.44,52.43,52.43,0,1,1-8,94.62,12.44,12.44,0,1,1,12.35-21.6Z"/></g></g></svg>