<?xml version="1.0" encoding="UTF-8"?><svg version="1.1" id="Слой_1" xmlns="http://www.w3.org/2000/svg" xmlns:xlink="http://www.w3.org/1999/xlink" x="0px" y="0px" viewBox="0 0 612.4 469.4" style="enable-background:new 0 0 612.4 469.4;" xml:space="preserve" width="613px" height="470px">

<path d="M558,106.8c-0.6-1-0.5-2.4-1.1-3.4c-0.6-1-1.8-1.6-2.5-2.5c-0.7-0.9-1.2-2-2-2.8s-1.9-1.3-2.8-2.1
	c-0.8-0.8-1.4-1.9-2.3-2.6c-0.9-0.7-1.8-1.4-2.8-2.1c-0.9-0.6-2-1-2.9-1.6s-2-1-2.9-1.5s-1.7-1.4-2.7-1.9s-2.1-0.8-3.1-1.3
	s-1.9-1.1-3-1.5s-1.9-1.2-2.9-1.6c-1.1-0.4-2.6-0.1-3.7-0.5s-2.3-0.8-3.5-1.1s-2.3-0.7-3.5-1s-2.3-0.9-3.4-1.2s-2.3-0.7-3.5-1
	s-2.3-0.9-3.5-1.1s-2.4-0.6-3.6-0.8s-2.5,0-3.7-0.2s-2.3-1.1-3.4-1.3s-2.4-0.3-3.6-0.6s-2.4-0.2-3.6-0.4s-2.5-0.1-3.6-0.4
	s-2.4-0.6-3.6-0.8s-2.3-0.8-3.5-1s-2.3-0.6-3.5-0.9s-2.4-0.3-3.6-0.6s-2.1-1.5-3.2-1.8s-2.3-0.6-3.5-1s-2.4-0.5-3.5-0.9
	s-2.1-1.2-3.2-1.7s-2-1.3-3.1-1.8s-2.3-0.8-3.4-1.3s-2.3-0.8-3.3-1.4s-2.1-1.2-3.1-1.8s-1.7-1.8-2.7-2.4s-2-1.3-3-2s-2.2-1-3.2-1.7
	s-1.7-1.8-2.6-2.5s-1.8-1.5-2.7-2.3s-1.8-1.6-2.7-2.3s-2.3-0.9-3.2-1.7s-1.7-1.7-2.5-2.5s-1.5-1.9-2.4-2.7s-1.6-1.7-2.5-2.6
	s-2-1.3-2.9-2.1s-1.7-1.7-2.6-2.5s-1.6-1.7-2.5-2.6s-1.3-2.1-2.2-2.9s-2.1-1.2-3-2c-0.8-0.8-2.1-1-3.1-0.4c-1,0.7-1.2,2.1-0.5,3.1
	c0.7,1,1.1,2.2,1.8,3.1s1.5,1.9,2.2,2.8s1.7,1.7,2.4,2.7s1.8,1.6,2.5,2.5s1,2.2,1.8,3.1s1.6,1.8,2.4,2.7s2,1.4,2.8,2.3
	s1.7,1.7,2.5,2.5s1.8,1.5,2.7,2.3s1.7,1.6,2.6,2.4s1.8,1.5,2.8,2.3s1.8,1.5,2.8,2.2s1.4,2,2.4,2.7s1.8,1.5,2.8,2.2s2.4,0.8,3.3,1.5
	s1.6,2,2.6,2.6s2.2,1,3.2,1.6s2,1.3,3,1.9s2,1.4,3,1.9s2.3,0.7,3.4,1.2s2,1.3,3.1,1.8s2.2,0.9,3.3,1.3s2.1,1.2,3.2,1.6
	s2.3,0.7,3.4,1.1s2.4,0.4,3.5,0.7c1.2,0.3,2.4,0.5,3.5,0.8s2.3,0.6,3.5,0.9s2.3,0.9,3.5,1.2s2.4,0.5,3.5,0.8s2.3,0.7,3.5,1
	s2.5,0.1,3.6,0.4s2.4,0.5,3.5,0.8s2.4,0.5,3.5,0.8s2.3,0.9,3.5,1.1s2.5-0.1,3.7,0.2s2.3,1,3.4,1.3s2.5,0.2,3.6,0.5s2.2,1.3,3.3,1.6
	s2.3,0.8,3.4,1.2s2.3,0.7,3.4,1.1s2.3,0.9,3.4,1.3s2.2,1,3.3,1.5s2.2,1,3.3,1.6s2.3,0.8,3.3,1.4s2.1,1.2,3.1,1.8s2.2,1.1,3.2,1.8
	s1.8,1.7,2.7,2.5s1.8,1.6,2.7,2.4s1.7,1.7,2.6,2.5c0.9,0.8,1.6,1.7,2.5,2.6c0.9,0.8,2.3,1.1,3.4,0.7c1.2-0.2,2.3-0.9,2.9-1.9
	C559.1,109.1,558.7,108,558,106.8z" style="fill:#F59CA0;"/>
<path d="M488.2,44.4c-1.3-0.1-2.6,0-3.9,0c-1.3,0-2.6-0.6-3.9-0.7s-2.5-0.1-3.8-0.3c-1.3-0.1-2.5-0.3-3.8-0.6
	c-1.1-0.3-2.1-0.6-3.1-1s-2-0.8-3-1.2s-2-0.9-2.9-1.4s-1.8-1.2-2.7-1.8s-2-1-2.8-1.7c-1.2-1-2.8-1.2-3.6-0.4s-0.5,2.3,0.6,3.4
	c0.8,0.8,1,2.3,1.9,3.1c0.8,0.8,2.1,1.1,3.1,1.8c0.9,0.7,1.8,1.5,2.7,2.2s2.3,0.7,3.3,1.2s1.9,1.4,3,1.9s2.2,0.8,3.3,1.2
	c1.1,0.2,2.3,0.4,3.5,0.5c1.1,0.2,2.3,0.2,3.4,0.2c1.1,0.2,2.3,0.3,3.5,0.4c1.2-0.2,2.3-0.4,3.4-0.7c1.1-0.2,2.3-0.5,3.4-0.9
	c1.3-0.5,2-1.9,1.6-3.2C490.9,45.1,489.4,44.5,488.2,44.4z" style="fill:#F59CA0;"/>
<path d="M144.9,458.6c-1.2-0.2-2.5-0.4-3.7-0.6s-2.5,0-3.7-0.1s-2.5-0.2-3.7-0.4s-2.4-0.4-3.7-0.6s-2.6,0.5-3.8,0.3
	c-1.2-0.2-2.4-0.8-3.6-1.2c-1.2-0.3-2.3-1-3.4-1.4s-2.2-1-3.4-1.4s-2.2-1-3.3-1.5s-2.5-0.5-3.6-1.1s-2.1-1.2-3.2-1.8
	s-1.9-1.6-2.9-2.3s-2.3-0.9-3.3-1.6s-1.7-1.8-2.7-2.5s-2.2-1.1-3.2-1.8s-2-1.4-2.9-2.2s-1.9-1.5-2.8-2.3s-1.4-2.1-2.2-2.9
	s-1.5-1.9-2.3-2.8s-2.1-1.3-2.9-2.3s-1.6-1.8-2.4-2.7s-1.4-2-2.1-3s-1.7-1.8-2.4-2.8s-0.9-2.3-1.6-3.3s-1.8-1.7-2.5-2.7
	s-1.1-2.2-1.8-3.3s-1.5-2-2.1-3s-0.8-2.4-1.5-3.4s-1.1-2.2-1.7-3.2s-1.7-1.9-2.3-2.9s-1.3-2.1-1.8-3.2s-0.6-2.4-1.2-3.5
	s-1.1-2.2-1.7-3.3s-1.6-2-2.1-3.1s-1-2.2-1.6-3.3s-1-2.2-1.5-3.4s-1.2-2.1-1.7-3.3s-0.7-2.4-1.2-3.5c-0.5-1.1-1-2.2-1.4-3.3
	s-0.6-2.4-1-3.5s-1-2.2-1.5-3.3s-1.1-2.2-1.5-3.3s-0.7-2.3-1.1-3.5s-0.6-2.3-1-3.5s-1.6-2-1.9-3.2s-0.8-2.3-1.2-3.4
	s-0.5-2.4-0.9-3.5s-0.8-2.3-1.1-3.5s-0.6-2.4-0.9-3.5s-0.7-2.3-0.9-3.5s-0.3-2.4-0.5-3.6s-0.4-2.4-0.6-3.6c-0.2-1.2,0-2.5-0.2-3.7
	s-1-2.4-1.1-3.6s-0.4-2.4-0.5-3.7s0.3-2.5,0.2-3.7s0-2.5-0.1-3.7s-0.3-2.5-0.3-3.7s-0.2-2.5-0.2-3.7s-0.2-2.5-0.2-3.7
	s0.1-2.5,0.1-3.7s0.6-2.4,0.7-3.7s0-2.5,0.1-3.7s0.2-2.5,0.3-3.7s0-2.5,0.2-3.7s1-2.3,1.3-3.5s0.5-2.4,0.8-3.6s0.1-2.5,0.4-3.7
	c0.4-1.6-0.2-2.3-1.3-2.6c-1.1-0.3-1.9,0.2-2.5,1.6c-0.5,1.1-1.8,1.9-2.2,3s-0.1,2.5-0.4,3.6s-1,2.2-1.3,3.3s-0.5,2.3-0.8,3.5
	s-0.5,2.3-0.8,3.5s-0.4,2.3-0.6,3.5s-1,2.2-1.2,3.4s-0.4,2.4-0.5,3.5s-0.2,2.4-0.3,3.6s-0.2,2.4-0.3,3.6s-0.1,2.4-0.1,3.6
	s0.1,2.4,0.1,3.6s0,2.4,0,3.6s0.5,2.4,0.6,3.5s-0.5,2.4-0.4,3.6s1,2.3,1.2,3.5s-0.6,2.5-0.4,3.6s0.9,2.3,1.1,3.4s0.1,2.4,0.4,3.5
	s1,2.2,1.2,3.4s0,2.4,0.3,3.6s0.5,2.3,0.8,3.5s0.9,2.2,1.2,3.4s0.8,2.2,1.1,3.4s0.3,2.4,0.6,3.5s0.9,2.2,1.2,3.3s0.6,2.3,0.9,3.4
	s0.4,2.4,0.8,3.5s1.6,2,2,3.1s0.8,2.2,1.3,3.3s0.9,2.2,1.3,3.3s0.7,2.3,1.1,3.4s0.8,2.2,1.3,3.3s0.6,2.3,1.1,3.4s0.9,2.2,1.4,3.3
	s1.4,1.9,1.9,3s0.4,2.4,0.9,3.5s1.2,2.1,1.7,3.1s1.3,2,1.8,3.1s1.4,2,1.9,3s1.1,2.1,1.6,3.2s0.9,2.2,1.5,3.2s1.2,2.1,1.7,3.1
	s1.5,1.8,2.1,2.9s0.6,2.4,1.2,3.4s1.4,1.9,2.1,2.9s1.6,1.8,2.3,2.7s1.1,2.1,1.8,3.1s1.1,2.1,1.8,3.1s1.7,1.7,2.4,2.6
	s1.7,1.7,2.5,2.6s1.5,1.8,2.3,2.7s1.1,2.2,1.9,3.1s1.6,1.7,2.4,2.6s2,1.3,2.9,2.2s1.4,1.9,2.3,2.7s1.7,1.6,2.6,2.4s1.8,1.6,2.7,2.3
	s2.4,0.8,3.3,1.5s1.8,1.5,2.8,2.2s1.8,1.6,2.9,2.3c1,0.7,2,1.4,3.1,2.1c1,0.6,2.3,0.8,3.4,1.4c1.1,0.6,2.1,1.2,3.2,1.7
	s2.1,1.2,3.3,1.7s2,1.5,3.2,2s2.5,0.3,3.7,0.7s2.2,1.2,3.4,1.5s2.4,0.6,3.6,0.9s2.3,0.9,3.5,1.1s2.5,0.3,3.7,0.5
	c1.2,0.1,2.5,0,3.7,0c1.2,0.1,2.5-0.3,3.7-0.3s2.5,0.5,3.7,0.3c1.2-0.2,2.5-0.4,3.7-0.7c1.1-0.3,1.8-1.4,2.3-2.3
	c0.6-0.9,0.9-1.9,0.9-2.9c0-1-0.3-2-0.9-2.8C146.7,459.8,146.1,458.7,144.9,458.6z" style="fill:#F59CA0;"/>
<path d="M34.3,426.8c-0.6-1-0.8-2.3-1.4-3.3s-1.6-1.9-2.1-3s-1-2.2-1.5-3.3s-1-2.2-1.5-3.3s-0.6-2.3-1.1-3.4
	s-1.1-2.1-1.5-3.2s-1-2.2-1.4-3.3s-1.6-1.9-2-3.1s-0.6-2.3-1-3.5s-0.3-2.4-0.7-3.6s-1.3-2.1-1.7-3.2s-0.8-2.3-1.2-3.4
	s-0.7-2.3-1.1-3.4s-0.7-2.3-1-3.4c-0.3-1.1,0.1-2.5-0.2-3.6s-1-2.2-1.3-3.3s-0.7-2.2-1-3.4s-0.2-2.3-0.5-3.5s-0.7-2.3-0.9-3.4
	s-0.7-2.3-0.9-3.4s-0.3-2.3-0.5-3.5s-0.8-2.2-1-3.4s0.4-2.4,0.3-3.6s-1.1-2.2-1.3-3.3s-0.3-2.3-0.5-3.5s0.1-2.4,0-3.5
	s-0.8-2.3-0.9-3.4s-0.5-2.3-0.7-3.4c0-1.1-0.9-1.9-1.9-1.9c-0.2,0-0.4,0-0.6,0.1c-1.3,0.2-2.8,1-2.9,2.5c0,1.2-0.2,2.4-0.2,3.7
	s0.2,2.4,0.3,3.7s0.1,2.4,0.2,3.7s0,2.4,0.2,3.7s1.1,2.3,1.3,3.5s0,2.4,0.2,3.7s0.1,2.5,0.3,3.7s0.3,2.4,0.5,3.6s0.4,2.4,0.7,3.6
	s1.1,2.2,1.4,3.4s0.5,2.4,0.8,3.6s0.2,2.5,0.5,3.6s1.1,2.2,1.5,3.4s0.2,2.5,0.6,3.6s1.2,2.2,1.6,3.3s0.9,2.2,1.3,3.4s1,2.2,1.4,3.4
	s0.4,2.5,0.8,3.6s0.7,2.4,1.1,3.5s1.6,2,2.1,3.1s1.1,2.2,1.6,3.3s0.9,2.3,1.4,3.4s1.3,2.1,1.9,3.1s0.5,2.5,1.1,3.5s1.6,1.9,2.2,2.9
	s0.9,2.3,1.5,3.3s1.4,2,2,3.1s0.8,2.3,1.4,3.4c0.8,1.2,2.4,1.6,3.6,1C34.7,429.4,35,427.9,34.3,426.8z" style="fill:#F59CA0;"/>
<path d="M342.2,437.8c-1-0.8-2-1.5-3.1-2.1c-1.1-0.5-2.3-0.9-3.5-1.2c-1.2-0.4-2.4-0.7-3.6-0.9
	c-1.2-0.3-2.3-0.9-3.6-1.1c-1.2-0.2-2.6,0.4-3.8,0.2c-1.3-0.2-2.4-1-3.6-1.2c-1.3-0.2-2.6,0.2-3.8,0s-2.5-0.8-3.7-0.9
	s-2.6,0.2-3.8,0.1s-2.5-0.2-3.8-0.2s-2.5-0.1-3.8-0.1s-2.5,0.9-3.8,0.9c-1.2,0.1-2.3-0.2-3.5-0.1s-2.4-0.3-3.5-0.2s-2.3,0.8-3.4,0.9
	s-2.4-0.1-3.5,0.1s-2.2,0.8-3.4,1s-2.3,0.4-3.4,0.6s-2.3,0.5-3.4,0.8s-2.3,0.4-3.4,0.7s-2.1,1.1-3.2,1.4s-2.3,0.5-3.4,0.9
	s-2.4,0.2-3.5,0.6s-2,1.4-3.1,1.8s-2.4,0.2-3.5,0.7c-1.3,0.5-1.3,2.3-0.8,3.4c0.5,1,1.7,2.3,3,1.8c1.1-0.4,2.1-1.2,3.3-1.5
	s2.3-0.6,3.5-0.9s2.3-0.6,3.5-0.9s2.4-0.2,3.6-0.4s2.3-0.6,3.5-0.9s2.3-0.5,3.5-0.7s2.2-1.2,3.4-1.3s2.4-0.1,3.6-0.2
	s2.4,0.2,3.6,0.1s2.3-0.8,3.5-0.9s2.4-0.2,3.6-0.2s2.4-0.1,3.6-0.1c1.2,0,2.4,0,3.6,0s2.4,0.8,3.6,0.9s2.4-0.3,3.6-0.2
	s2.4,0,3.6,0.1s2.4,0.5,3.6,0.7s2.4,0.1,3.6,0.3c1.1,0.2,2.2,0.2,3.4,0.5c1.1,0.3,2.1,0.7,3.2,1c1.1,0.3,2.3,0.2,3.4,0.5
	s2,1.3,3.1,1.5c1.1,0.2,2.3-0.4,3.4-0.3c1.1,0.1,2.2,0.1,3.3,0c1.2,0,2.3-0.6,3-1.6C343.4,440.1,343.2,438.6,342.2,437.8z" style="fill:#F59CA0;"/>
<path d="M611.5,233.8c0-1.6,0.3-3.2,0.3-4.7s0.6-3.2,0.5-4.8c-0.1-1.6-0.5-3.2-0.7-4.7s-0.7-3.1-0.9-4.7
	c-0.3-1.6,0.1-3.3-0.3-4.8s-2.5-2.6-3-4.1c-0.4-1.5-0.4-3.2-0.9-4.7c-0.5-1.5-1.1-3-1.7-4.4c-0.6-1.5-1.2-2.9-1.8-4.4
	c-0.7-1.4-0.8-3.1-1.6-4.5c-0.7-1.4-1.4-2.8-2.3-4.2c-0.8-1.3-2.5-2.1-3.4-3.5c-0.9-1.3-0.6-3.5-1.5-4.7c-0.9-1.3-2.4-2.2-3.4-3.4
	c-1-1.2-2.6-2-3.6-3.1c-1.1-1.2-1.1-3.3-2.3-4.4s-3.3-1.2-4.4-2.2c-1.2-1.1-1.6-3-2.8-4.1c-1.2-1-2.8-1.6-4-2.6s-2.4-2.1-3.7-3
	s-2.8-1.6-4.1-2.4c-1.3-0.8-3.1-1-4.4-1.8s-3-1-4.4-1.7s-2.3-2.5-3.7-3.2c-1.4-0.7-3.1-0.8-4.6-1.4s-2.7-1.7-4.1-2.4s-2.5-2.2-4-2.8
	c-1.5-0.6-3-1-4.5-1.5c-1.5-0.6-3-1.1-4.4-1.7c-1.5-0.5-3.3-0.2-4.8-0.7c-1.5-0.5-3-1.1-4.5-1.6s-3.2-0.3-4.7-0.8
	c-1.5-0.5-2.8-1.4-4.3-1.9c-1.5-0.5-3.1-0.8-4.6-1.2c-1.5-0.5-2.6-2.2-4.1-2.7c-1.5-0.5-3.3-0.1-4.8-0.6c-1.5-0.5-2.9-1.3-4.4-1.8
	c-1.5-0.5-3.2-0.3-4.7-0.8c-1.5-0.5-2.7-1.8-4.2-2.3c-1.5-0.5-3-0.9-4.5-1.4c-1.5-0.5-3.3-0.3-4.7-0.8c-1.5-0.5-3-0.9-4.5-1.5
	s-2.8-1.4-4.3-2s-2.4-2.4-3.9-3c-1.4-0.6-2.9-1.2-4.3-1.9s-3.5,0-4.9-0.7c-1.4-0.7-2.3-2.5-3.7-3.2c-1.4-0.7-3.4-0.4-4.8-1.2
	s-2.1-2.7-3.5-3.5c-1.4-0.8-2.7-1.6-4-2.5c-1.3-0.8-3.6-0.3-4.9-1.2c-1.3-0.9-2-2.7-3.4-3.6c-1.3-0.9-2.5-2-3.8-2.9
	c-1.3-0.9-3.2-1-4.5-1.9c-1.3-0.9-2.5-2-3.8-2.9c-1.3-0.9-2.6-1.8-3.9-2.8c-1.3-1-2.6-1.8-3.9-2.7c-1.3-1-2.2-2.3-3.5-3.3
	c-1.2-1-2.5-2-3.7-3c-1.2-1-2.3-2.2-3.5-3.2s-3.1-1.2-4.3-2.2c-1.2-1-2-2.6-3.2-3.6s-1.8-2.8-3-3.8c-1.2-1-2.9-1.5-4.1-2.5
	c-1.2-1-3-1.3-4.3-2.3c-1.2-1-2.2-2.4-3.4-3.4c-1.2-1-1.7-3-2.9-4c-1.2-1-2.8-1.6-4-2.6s-2.2-2.3-3.5-3.3c-1.3-1-3.2-1.1-4.4-2
	c-1.3-1-3-1.3-4.3-2.2s-1.8-3-3.1-3.9c-1.3-0.9-3-1.2-4.3-2.1c-1.3-0.9-2.2-2.3-3.6-3.2c-1.3-0.9-2.8-1.6-4.1-2.4
	c-1.3-0.9-2.9-1.4-4.2-2.2c-1.4-0.8-2.2-2.4-3.6-3.2c-1.4-0.8-2.6-1.8-4-2.6c-1.4-0.8-3.5-0.2-4.9-0.9c-1.4-0.7-2.8-1.5-4.2-2.2
	c-1.4-0.7-2.4-2.4-3.9-3.1s-3.1-0.9-4.6-1.5c-1.5-0.6-2.9-1.3-4.4-1.9c-1.5-0.6-3.2-0.5-4.8-1c-1.5-0.5-2.8-1.9-4.3-2.4
	c-1.5-0.5-3.1-0.9-4.6-1.3c-1.5-0.4-3.4,0.2-4.9-0.2c-1.6-0.4-3.1-0.8-4.7-1.1c-1.6-0.3-3.2-0.4-4.8-0.6c-1.6-0.2-3-1.8-4.6-2
	c-1.6-0.2-3.3,0-4.9-0.1c-1.6-0.1-3.3,1.3-4.9,1.3c-1.6,0-3.2-1.1-4.8-1c-1.6,0-3.2-0.4-4.8-0.3s-3.2,0.5-4.8,0.7
	c-1.6,0.2-3.2,0.2-4.8,0.5c-1.6,0.2-3.1,0.8-4.6,1.1c-1.5,0.3-2.8,1.7-4.3,2.1s-3.5-1-5-0.6s-2.4,2.7-3.9,3.2
	c-1.5,0.5-3.5-0.4-4.9,0.2s-3.1,0.8-4.5,1.4c-1.4,0.6-2.2,2.8-3.6,3.5c-1.4,0.7-3.4,0.3-4.8,1s-2.1,2.7-3.5,3.5
	c-1.4,0.8-3.2,0.7-4.6,1.5s-3,1.1-4.3,2s-2.2,2.4-3.5,3.3s-3,1.2-4.3,2.1c-1.3,0.9-1.8,2.9-3,3.8c-1.2,1-3.4,0.8-4.6,1.8
	s-1.4,3.2-2.6,4.2c-1.2,1-2.6,1.8-3.8,2.9c-1.2,1.1-2.3,2.2-3.4,3.3c-1.1,1.1-3.1,1.4-4.2,2.6c-1.1,1.1-1.5,2.9-2.6,4.1
	c-1.1,1.2-2.7,1.8-3.8,3c-1.1,1.2-1,3.3-2.1,4.5c-1,1.2-2.7,1.9-3.7,3.1c-1,1.2-1.6,2.8-2.6,4.1c-1,1.2-2.8,1.8-3.8,3.1
	c-1,1.3-0.7,3.4-1.7,4.7c-0.9,1.3-2,2.5-2.9,3.8s-1.9,2.5-2.8,3.8c-0.9,1.3-2.8,1.9-3.7,3.3c-0.9,1.3-0.9,3.3-1.7,4.6
	c-0.9,1.3-1.6,2.8-2.4,4.1c-0.9,1.3-1.7,2.7-2.5,4c-0.9,1.3-3,1.9-3.8,3.2c-0.8,1.3-1.1,3.1-1.9,4.4s-0.9,3.2-1.8,4.5
	c-0.8,1.4-1.7,2.7-2.5,4c-0.8,1.4-2.6,2.1-3.4,3.5s-1.8,2.6-2.7,4c-0.8,1.4-0.4,3.5-1.2,4.8c-0.8,1.4-2,2.5-2.8,3.9
	c-0.8,1.4-3,1.9-3.8,3.3s-0.1,3.7-0.9,5c-0.8,1.4-2.1,2.5-2.9,3.8c-0.8,1.4-2.3,2.4-3.1,3.7s-1,3.1-1.8,4.5
	c-0.8,1.4-2.1,2.5-2.9,3.9c-0.8,1.4-1,3.1-1.8,4.5c-0.8,1.4-0.9,3.1-1.6,4.5c-0.8,1.4-2.2,2.4-3,3.8c-0.7,1.4-1,3.1-1.7,4.5
	c-0.7,1.4-2.3,2.4-3,3.8s-2,2.6-2.7,4c-0.7,1.4-1.3,3-2,4.4c-0.7,1.4-0.8,3.2-1.4,4.6c-0.7,1.4-1.4,2.9-2.1,4.3s-1.1,3-1.7,4.5
	s-1.8,2.7-2.5,4.2c-0.6,1.5-0.4,3.3-1,4.8c-0.6,1.5-2,2.6-2.6,4.1s-0.3,3.3-0.9,4.8c-0.6,1.5-1,3-1.6,4.5s-1.5,2.8-2.1,4.3
	s-1.4,2.9-1.9,4.4c-0.5,1.5-0.2,3.3-0.7,4.8c-0.5,1.5-1.7,2.8-2.1,4.4c-0.5,1.5-0.9,3.1-1.3,4.6s-1.1,3-1.5,4.6
	c-0.4,1.5,0.3,3.4-0.1,4.9c-0.4,1.6-0.7,3.1-1,4.7s-1.7,2.9-2,4.5c-0.3,1.6-0.6,3.1-0.9,4.7c-0.3,1.6-0.4,3.2-0.6,4.8
	c-0.2,1.6-0.2,3.2-0.4,4.8s0,3.2-0.2,4.8s-1,3.1-1.1,4.7c-0.1,1.6,0.2,3.2,0.1,4.8c-0.1,1.6,0.2,3.2,0.1,4.8
	c-0.1,1.6-0.7,3.2-0.7,4.8c0,1.6-1.1,3.2-1.1,4.8s0,3.2,0.1,4.8c0.1,1.6,0.9,3.2,1,4.8c0.1,1.6-0.3,3.3-0.2,4.8s2,3,2.2,4.6
	c0.2,1.6-0.2,3.3,0,4.8s1.1,3,1.4,4.6c0.3,1.6-0.3,3.3,0,4.9c0.4,1.6,0.8,3.2,1.2,4.7c0.4,1.6,1.7,2.9,2.1,4.5
	c0.5,1.6,0.4,3.3,0.9,4.8c0.5,1.5,0.4,3.3,0.9,4.9c0.6,1.5,0.9,3.2,1.5,4.7c0.6,1.5,1.8,2.8,2.5,4.3c0.7,1.5,2.4,2.4,3.2,3.9
	c0.7,1.5,1.4,2.9,2.1,4.4c0.8,1.4,1.9,2.6,2.7,4c0.8,1.4,1.2,3.1,2.1,4.4c0.9,1.4,1,3.3,1.9,4.6c0.9,1.3,2.1,2.5,3,3.8
	c1,1.3,2.3,2.3,3.4,3.6c1,1.3,1.8,2.8,2.8,4c1.1,1.2,2.2,2.4,3.3,3.6c1.1,1.2,2.4,2.2,3.5,3.4c1.2,1.1,2.6,1.9,3.8,3
	c1.2,1.1,1.9,2.8,3.2,3.8c1.3,1,2.6,2,3.9,3s3.2,1.1,4.5,2c1.3,0.9,2.1,2.8,3.5,3.6c1.4,0.9,3.4,0.6,4.8,1.4
	c1.4,0.8,2.9,1.5,4.3,2.2c1.5,0.7,3,1.2,4.5,1.8c1.5,0.6,2.7,1.6,4.1,2.2c1.5,0.6,2.7,1.9,4.1,2.3c1.5,0.5,3,1,4.5,1.4
	c1.5,0.4,3,1.1,4.5,1.4c1.5,0.4,3.2,0.2,4.7,0.5c1.5,0.3,3.1,0.6,4.6,0.7c1.5,0.1,3.1,0.4,4.7,0.5c1.6,0,3.1-1.2,4.6-1.3
	c1.5-0.1,3.2,1.2,4.7,1.1c1.5-0.1,3.1-0.2,4.7-0.4c1.5-0.2,2.8-1.9,4.4-2.1c1.5-0.3,3.3,0.8,4.8,0.5c1.5-0.3,2.7-2,4.3-2.3
	c1.6-0.4,3.5,1,5.1,0.6s2.8-1.9,4.4-2.3c1.5-0.4,3.4,0.2,4.9-0.2c1.5-0.4,2.9-1.6,4.4-2s2.8-1.7,4.4-2.2c1.5-0.4,3.4,0.1,4.9-0.3
	s3-1.3,4.5-1.7c1.5-0.4,3.3,0,4.9-0.4c1.5-0.4,2.7-2.2,4.3-2.6c1.5-0.4,3.2-0.5,4.7-0.9c1.5-0.4,3.1-1,4.6-1.4s3.1-1,4.6-1.4
	c1.6-0.4,3.3,0.2,4.9-0.2c1.6-0.4,3.2-0.4,4.8-0.7s3.2-0.3,4.8-0.6c1.6-0.3,3-1.1,4.6-1.5c1.6-0.3,3.1-0.7,4.7-0.9s3.1-0.8,4.7-1.1
	c1.6-0.3,3.1-1.2,4.6-1.4c1.6-0.2,3.2,0,4.8-0.2c1.6-0.2,3.1-1,4.7-1.2c1.6-0.2,3.2,0,4.8-0.1c1.6-0.1,3.2-0.9,4.8-1s3.4,1.5,5,1.4
	c1.6-0.1,3.2-0.1,4.9-0.1c1.6-0.1,3.2-0.2,4.9-0.2c1.6,0,3.2-0.2,4.9-0.2s3.2,0.3,4.9,0.3c1.6,0,3.3-0.6,4.9-0.6
	c1.6,0.1,3.3-0.6,4.9-0.5c1.6,0.1,3.2,1.3,4.8,1.4c1.6,0.1,3.3-1,5-0.8c1.6,0.1,3.2,1.1,4.8,1.3c1.6,0.2,3.2,0.5,4.8,0.7
	s3.1,1,4.7,1.3c1.6,0.2,3.2,0.4,4.8,0.7c1.6,0.3,3.2,0.5,4.8,0.8s3.4-0.5,5-0.1c1.6,0.3,3.1,1.1,4.7,1.4c1.6,0.4,3.4-0.2,5,0.2
	c1.6,0.4,2.8,2.4,4.3,2.8c1.5,0.4,3.2,0.5,4.7,0.9c1.5,0.4,3.5-0.6,5-0.2c1.5,0.4,3.1,0.9,4.6,1.3c1.5,0.4,3.1,0.7,4.6,1.1
	s3,1.2,4.5,1.6c1.5,0.4,3.1,0.8,4.6,1.2c1.5,0.4,3,1.3,4.5,1.6s3.3-0.3,4.9,0s3.1,0.5,4.7,0.8c1.6,0.3,3,1.3,4.6,1.6
	s3.2,0.3,4.8,0.5c1.6,0.2,3.1,0.8,4.7,0.9s3.2-0.6,4.8-0.4c1.6,0.1,3.1,1.6,4.7,1.6c1.6,0.1,3.2-0.4,4.8-0.3s3.2-0.1,4.8-0.1
	c1.6-0.1,3.2-0.5,4.8-0.6c1.6-0.1,3.1-0.3,4.7-0.5c1.6-0.2,3.1-0.6,4.7-0.9s3.4,1,5,0.7c1.6-0.3,2.8-1.9,4.4-2.3
	c1.5-0.4,3.1-0.6,4.6-1c1.5-0.5,2.7-1.7,4.2-2.2c1.5-0.5,3.5,0.2,4.9-0.4c1.5-0.6,3-1.1,4.4-1.8s3.1-1,4.5-1.7
	c1.4-0.7,2.7-1.7,4.1-2.5c1.4-0.8,2.1-2.7,3.4-3.6s2.7-1.7,4-2.5s2.5-1.9,3.8-2.8s2.8-1.5,4.1-2.5c1.3-1,2.6-1.8,3.8-2.8
	s2.1-2.3,3.3-3.4c1.2-1,3.4-1,4.6-2s2-2.5,3.1-3.6c1.1-1.1,2.1-2.3,3.2-3.5c1.1-1.1,2.6-1.9,3.7-3c1.1-1.2,0.9-3.4,2-4.6
	s2.3-2.2,3.3-3.4c1-1.2,2-2.5,3-3.7c1-1.2,2.2-2.2,3.2-3.5s1.9-2.5,2.8-3.8c1-1.3,1.8-2.6,2.8-3.8c0.9-1.3,2-2.4,3-3.7
	c0.9-1.3,2-2.5,2.9-3.8c0.9-1.3,1.5-2.8,2.4-4.1c0.9-1.3,2.4-2.2,3.3-3.5c0.9-1.3,1.1-3.1,2-4.4c0.9-1.3,1.6-2.7,2.4-4.1
	c0.8-1.3,2.4-2.2,3.2-3.6s2.1-2.4,2.9-3.8c0.8-1.4,1.8-2.6,2.6-4s0-3.6,0.8-5s2.8-2.1,3.5-3.5s1-3,1.8-4.5s2.1-2.5,2.8-3.9
	c0.7-1.4,0.8-3.1,1.5-4.6s1.7-2.7,2.3-4.2c0.6-1.5,1.2-2.9,1.8-4.4c0.6-1.5,0.1-3.4,0.7-4.8c0.6-1.5,1.9-2.7,2.4-4.2
	c0.5-1.5,0.6-3.1,1.1-4.6c0.5-1.5,1.3-2.9,1.8-4.4s1.7-2.8,2.1-4.3s-0.2-3.3,0.2-4.9c0.4-1.5,1.5-2.9,1.9-4.4
	c0.3-1.5,0.6-3.1,0.9-4.7s-0.5-3.3-0.3-4.9s1.3-3,1.5-4.6c0.2-1.6,0.4-3.2,0.6-4.7c0.1-1.6,0.1-3.2,0.1-4.8
	C612.4,237,611.5,235.4,611.5,233.8z M284.7,54.5c-0.2,1.2-1.3,1.9-2.8,2.2c-1.1,0.2-2.2,1-3.4,0.9c-1.1-0.1-2.2-0.9-3.3-1.2
	c-1.1-0.2-2.3-0.3-3.4-0.6s-2.2-0.4-3.3-0.6c-1.1-0.4-2.2-0.7-3.3-1c-1.2-0.1-2.4,0-3.6,0c-1.2,0-2.4,0.1-3.5,0.1
	c-1.2,0.1-2.3,0.6-3.5,0.7c-1.2,0.1-2.4-0.1-3.5,0.1s-2.2,0.8-3.4,1.1c-1.1,0.3-2.4,0.2-3.5,0.6c-1.1,0.4-2.2,0.8-3.3,1.3
	c-1.1,0.5-2.2,0.9-3.2,1.4s-1.7,1.8-2.7,2.4s-2.2,0.8-3.2,1.5c-1,0.7-2.1,1.1-3.1,1.8c-0.9,0.7-1.7,1.7-2.6,2.4
	c-0.9,0.8-1.4,1.9-2.2,2.8c-0.8,0.8-1.9,1.4-2.7,2.3c0,0,0,0-0.1,0.1c-0.7,0.8-2,0.9-2.8,0.1c-0.9-0.7-1.8-2.1-1.1-3.2
	c0.6-1,1.6-1.8,2.3-2.7c0.7-0.9,1.4-1.9,2.2-2.8s1.9-1.4,2.7-2.2c0.8-0.8,1.4-1.9,2.3-2.7c0.9-0.8,1.9-1.3,2.8-2.1
	c0.9-0.7,1.7-1.6,2.7-2.3c1-0.6,2.3-0.7,3.3-1.3c1-0.6,1.6-1.9,2.7-2.4c1-0.5,2.3-0.5,3.4-1c1.1-0.5,2-1.3,3.1-1.7
	c1.1-0.4,2.3-0.5,3.4-0.8s2.2-0.5,3.3-0.8c1.1-0.2,2.3-0.3,3.4-0.5c1.1-0.2,2.3,0,3.4-0.1c1.1-0.1,2.2-1,3.4-1.1
	c1.1-0.1,2.3,0.7,3.4,0.7c1.2,0,2.5,0.1,3.9,0.1c1.3,0.1,2.6-0.5,3.9-0.3c1.3,0.2,2.6,0.5,3.8,0.9c1.2,0.4,2.4,1,3.5,1.7
	c1.2,0.5,2.3,1.2,3.2,2.2C284.5,51.9,284.9,53.2,284.7,54.5z M318,34.7c-0.8,1.1-2.3,1.4-3.6,0.9c-1.1-0.5-2-1.3-3.1-1.7
	s-2.5-0.2-3.6-0.6c-1.1-0.4-2.2-0.8-3.3-1.2s-2.1-1.3-3.2-1.6c-1.1-0.3-2.4-0.3-3.5-0.6c-1.1-0.3-2.2-0.8-3.4-1.1
	c-1.1-0.3-2.3-0.5-3.5-0.7c-1.2-0.2-2.4-0.1-3.5-0.3c-1.2-0.2-2.3-0.3-3.5-0.4c-1.2-0.1-2.3-0.7-3.5-0.8c-1.2-0.1-2.3-0.3-3.5-0.3
	c-1.2-0.1-2.4,0-3.5,0c-1.2,0-2.4-0.3-3.5-0.3s-2.3,0.8-3.5,0.8c-1.2,0-2.4-0.2-3.5-0.1c-1.2,0.1-2.3,0.5-3.5,0.6
	c-1.2,0.1-2.4-0.3-3.6-0.1s-2.4,0.1-3.5,0.3c-1.2,0.2-2.3,0.7-3.4,1c-1.2,0.2-2.2,0.8-3.4,1.1c-1.1,0.3-2.2,0.8-3.4,1.1
	c-1.1,0.3-2.3,0.4-3.4,0.8c-1.1,0.4-2.3,0.5-3.4,0.9c-1.1,0.4-2.4,0.4-3.5,0.8c-1.1,0.4-2.1,1.1-3.2,1.5s-2.2,0.9-3.2,1.4
	s-1.9,1.5-2.9,2c-1,0.5-2.2,0.8-3.2,1.4c-1,0.6-1.8,1.5-2.8,2.1c-1,0.6-2.1,1-3.1,1.6c-1,0.6-1.7,1.7-2.7,2.3
	c-1,0.7-2.2,0.9-3.2,1.6s-1.6,1.7-2.5,2.5c-0.9,0.7-2.3,0.9-3.2,1.7c-0.9,0.8-1.3,2.1-2.2,2.9s-1.8,1.5-2.7,2.3
	c-0.9,0.9-1.7,1.8-2.6,2.7c-0.9,0.9-1.7,1.8-2.5,2.8c-0.8,0.9-2.2,1.4-3.1,2.3s-1.2,2.3-2,3.2c-0.8,1-1.8,1.8-2.6,2.8
	c-0.7,0.9-0.7,2.2-1.3,3.1c-0.6,0.9-1.4,1.7-2,2.6c-0.6,0.9-1.3,1.8-1.8,2.7c-0.6,0.9-1,2-1.6,2.9c-0.6,0.9-1.5,1.6-2.1,2.6
	s-1.1,1.9-1.7,2.8c-0.6,0.9-1.6,1.5-2.7,1.7c-1.1,0-2.2-0.4-2.9-1.2c-0.7-0.7-0.6-1.6-0.2-2.9c0.3-1.1,0-2.5,0.4-3.6
	c0.4-1.1,1.4-2,1.9-3.1c0.5-1.1,1.2-2,1.8-3.1s1.1-2.1,1.7-3.1c0.6-1,1-2.1,1.7-3.1s1.4-1.9,2.1-2.8s1.3-2,2.1-2.9
	c0.7-0.9,1.5-1.8,2.3-2.7c0.8-0.9,1.7-1.7,2.5-2.5c0.8-0.9,1.8-1.6,2.6-2.4c0.8-0.9,1.4-2,2.2-2.8c0.9-0.8,1.7-1.7,2.6-2.5
	s2.1-1.1,3-1.9s1.4-1.9,2.3-2.6c0.9-0.7,2-1.3,2.9-2c0.9-0.7,1.6-1.7,2.6-2.4c0.9-0.7,1.9-1.4,2.8-2s2.1-1.1,3-1.7
	c1-0.6,2-1.2,3-1.8c1-0.6,1.8-1.4,2.9-2s2.2-0.8,3.3-1.3c1-0.5,2-1.1,3.1-1.6c1-0.5,2.1-1,3.1-1.5s2.2-0.6,3.3-1
	c1.1-0.4,2.3-0.7,3.4-1.1c1.1-0.4,2-1.4,3.2-1.8c1.1-0.4,2.3-0.8,3.4-1.1c1.1-0.3,2.3-0.6,3.5-0.9c1.2-0.3,2.5,0,3.6-0.2
	c1.2-0.2,2.2-1.1,3.4-1.3s2.3-0.6,3.5-0.7c1.2-0.2,2.5,0.5,3.7,0.4s2.3-0.6,3.5-0.7s2.4-0.6,3.5-0.6s2.4,0.6,3.6,0.6
	c1.2,0,2.4,0.2,3.6,0.2c1.2,0,2.4-0.6,3.6-0.6c1.2,0.1,2.4-0.1,3.6,0c1.2,0.1,2.3,1,3.5,1.1c1.2,0.1,2.4-0.3,3.6-0.1
	s2.3,0.7,3.5,0.9c1.2,0.2,2.5-0.2,3.6,0.1c1.2,0.2,2.3,0.6,3.5,0.8c1.2,0.3,2.3,0.5,3.5,0.8c1.2,0.3,2.3,0.8,3.4,1.1
	c1.1,0.3,2.2,0.9,3.3,1.3c1.1,0.4,2.2,1,3.3,1.4c1.1,0.4,2.5,0.2,3.6,0.6c1.1,0.5,2.1,1.2,3.2,1.7s2.3,0.8,3.3,1.3c0,0,0,0,0,0
	C318.4,31.8,318.8,33.4,318,34.7z M528.4,350c-0.4,1.2-0.9,2.3-1.5,3.4c-0.6,1.1-1.2,2.1-1.9,3.1c-0.7,1-1.2,2.2-2,3.2
	c-0.8,1-1.9,1.7-2.7,2.6c-0.8,1-1.7,2-2.5,3c-0.9,1-1.7,2-2.7,2.9s-2.1,1.6-3,2.6c-1,0.9-2,1.7-3,2.5c-1,0.8-1.5,2.2-2.5,3
	c-1,0.8-1.9,1.7-2.9,2.4c-1,0.8-2,1.5-3.1,2.2c-1,0.7-2.4,0.9-3.5,1.6c-1.1,0.7-1.8,1.9-2.9,2.6c-1.1,0.7-2.1,1.4-3.2,2
	c-1.1,0.6-2.6,0.5-3.8,1s-2.1,1.5-3.3,2c-1.1,0.5-2,1.3-3.1,1.8c-1.1,0.5-2.5,0.3-3.6,0.7c-1.1,0.4-2.3,0.6-3.4,1
	c-1.1,0.4-2,1.4-3.2,1.7s-2.2,0.9-3.4,1.2s-2.5-0.2-3.7,0c-1.2,0.3-2.2,1-3.4,1.2c-1.2,0.2-2.4,0-3.6,0.2c-1.2,0.2-2.3,0.9-3.5,1
	c-1.2,0.1-2.4,0.2-3.6,0.2c-1.2,0.1-2.4,0.3-3.6,0.3s-2.4-0.1-3.6-0.1s-2.4-0.3-3.6-0.3s-2.4-0.3-3.5-0.4c-1.2-0.1-2.5,0.5-3.6,0.4
	c-1.2-0.1-2.3-0.6-3.5-0.8c-1.2-0.2-2.4-0.2-3.6-0.4c-1.2-0.2-1.5-1.8-1.3-2.8c0.1-1.1,0.8-2.4,2-2.2c1.2,0.2,2.3,0.4,3.5,0.5
	c1.2,0.1,2.4-0.1,3.6,0c1.2,0.1,2.4,0.8,3.6,0.8c1.2,0,2.4,0,3.6,0c1.2,0,2.4-0.3,3.6-0.4c1.2-0.1,2.4,0.2,3.6,0.1s2.3-0.8,3.5-0.9
	c1.2-0.2,2.3-0.5,3.5-0.7s2.3-0.4,3.5-0.7s2.3-0.5,3.5-0.7s2.5,0,3.6-0.4c1.2-0.3,2.1-1.4,3.2-1.7c1.1-0.4,2.5-0.1,3.6-0.5
	c1.1-0.4,2.2-1.1,3.3-1.5c1.1-0.4,2.1-1.1,3.2-1.5c1.1-0.5,2.4-0.6,3.4-1.1c1.1-0.5,2.1-1.2,3.1-1.8c1.1-0.6,2.1-1.2,3.1-1.8
	s1.8-1.6,2.8-2.2c1-0.6,2.2-0.9,3.2-1.6c1-0.7,1.8-1.6,2.8-2.3c1-0.7,2.2-1.1,3.1-1.8s1.9-1.5,2.8-2.2c0.9-0.8,1.9-1.5,2.8-2.3
	c0.8-0.8,1.1-2.1,1.9-2.9c0.8-0.8,2-1.3,2.7-2.1s1.8-1.4,2.6-2.3c0.8-0.9,1.4-1.9,2.1-2.7c0.7-0.9,1-2.2,1.7-3.2
	c0.7-1,1.6-1.8,2.3-2.8s1.3-2,2.1-2.9c0.8-0.9,1.2-2.2,2.1-3c1.2-0.9,2.8-1,4.1-0.2C528.1,347,528.7,348.5,528.4,350z" style="fill:#F59CA0;"/>
</svg>