<?xml version="1.0" encoding="utf-8"?>
<!-- Generator: Adobe Illustrator 25.0.1, SVG Export Plug-In . SVG Version: 6.00 Build 0)  -->
<svg version="1.1" id="Слой_1" xmlns="http://www.w3.org/2000/svg" xmlns:xlink="http://www.w3.org/1999/xlink" x="0px" y="0px"
	 viewBox="0 0 762 496" style="enable-background:new 0 0 762 496;" xml:space="preserve">
<style type="text/css">
	.st0{fill:#173847;}
	.st1{fill:#53B7C9;}
	.st2{fill-rule:evenodd;clip-rule:evenodd;fill:#B3B3B4;}
	.st3{fill-rule:evenodd;clip-rule:evenodd;fill:#F0F0F0;}
	.st4{fill-rule:evenodd;clip-rule:evenodd;fill:#464647;}
</style>
<path class="st0" d="M254.6,78.8c-10.3,1.3-20.6,0-31,0.6c-0.6,0-1.2,0.5-1.8,0.4c-10.8-1.9-21.8-0.2-32.7,0
	c-5.6,0.2-11.2,0.1-16.8-0.5c-5.1-0.7-10.2,0.9-15.4,0.4c-5.6-0.5-11.6,1.3-16.7,0.2c-7.5-1.5-14.8-0.4-22.1-0.5
	c-6.5,0.2-13-0.9-19.1-3.2c-3.1-1.3-6.5-2-4.2-6.6c0.2-0.4,0.2-0.8,0-1.2c-4.1-6.5-2.5-14.6,4-18.2c1.9-1.1,1.4-3,2.7-4.5
	c7.3-7.9,16.2-7.4,25.2-5.1c5.8,1.3,10.5,5.5,12.3,11.2c0.7,2.2,3.1,2.2,5.1,0.8c2.9-2,5.7-4,8.6-5.8c5.9-3.6,11.8-7.3,18.3-1.3
	c6.2-1.3,5.4,6.5,9.8,7.9c1.4,0.5,1.5,4.3,0.4,7.2c2.5-0.9,4.6-2.6,6-4.9c3.1-4.1,7.5-7.2,12.4-8.7c3.6-1.5,7.5-2.4,11.4-2.6
	c7.3,0.2,12.9,3.8,19.1,6.6c1.2,0.6,0.5,1.7,0.6,2.5c0.3,1.8-0.9,3.7,0.2,5.6c2.8-5.6,11.2-8.5,16.5-5c2.3,1.5,5.1,4.2,5,7.2
	c-0.2,4,1.4,5.1,4.9,4.9c0.9,0,1.9,0.1,2.8,0.2c2.6,1,5.4,1.4,8.2,1.1c2.2-0.5,3.2,1.6,3.6,3c0.9,2.8-4.9,9.2-7.8,8.6
	C261.1,78.7,257.9,78.6,254.6,78.8z"/>
<path class="st0" d="M74.5,78.3c-4.1,0-10.9-5.6-10.9-9.1c0-4.5,7.2-13.3,11.1-13.1c6.2,0.2,13.1,4.1,13.3,10.5
	C88.1,70.9,79.8,78.2,74.5,78.3z"/>
<path class="st0" d="M590.5,87.2c-1.1-1.6-3.1-2-4.1-3.9c-1.6-3.3-1.6-3.8,1.6-6.4c-4.4-1-2-3.5-0.8-5.1c5.3-6.7,8.2-6.9,15.2-1.8
	c0.7,0.5,1.5,0.9,2.3,1.3C606.8,82.2,603.6,88.9,590.5,87.2z"/>
<path class="st1" d="M325.3,477.6c5.8,1.3,6.4,2.5,5,7.9c0,0.3-0.1,0.6-0.2,0.9c-3.1,9.6-3.3,9.8-10.7,3.2
	c-3.1-2.7-2.3-7.1-1.8-10.8c0-0.6,1.1-0.6,0.9-1.8c-1.2-6.3-1-6,5.6-4.4C328.4,473.7,329.1,474.5,325.3,477.6z"/>
<path class="st1" d="M139.7,489.9c0,2.7-1.7,4.5-4,3.3c-3.1-1.7-7.1-3-7.2-7.9c-0.3-3.4-0.9-6.7-1.8-10c-0.6-1.6,0-3.4,1.5-4.3
	c1.6-0.9,3.1-2,5.4-0.7c5.2,3,6.4,6,4.6,11.6c-0.7,2.1,2.1,4.1,1.2,6.8C139.2,488.9,139.6,489.4,139.7,489.9z"/>
<path class="st1" d="M297.1,472.3c5.5-0.1,10,4.3,10.1,9.8c0,0.7-0.1,1.4-0.2,2c-0.2,1.1-0.5,2.3-0.7,3.3c-0.5,2.3-0.9,6.1-3.2,5.7
	c-2.3-0.4-7.1-0.8-7.1-5.9c-0.2-3.9-0.8-7.7-1.7-11.4C293.7,473,294.8,472.2,297.1,472.3z"/>
<path class="st1" d="M119.1,480.9c-1.6,3.4,0.2,6.6,0,9.8c-0.2,4.3-2.5,4.6-5.6,3.6c-2.9-1-4.8-3.7-4.9-6.8
	c-0.4-4.2,0.5-8.5-0.9-12.6c-0.2-1,0.3-2,1.2-2.5c1.1-0.7,1.8-0.3,2.3,0.9c0.2,0.4,0.4,0.8,0.7,1.1c1.2-2.7,3.4-1.8,4.4-0.4
	C117.5,476.2,118.4,478.5,119.1,480.9z"/>
<path class="st1" d="M155.1,479.6c0,2.5,0.4,5.1,1,7.6c1.5,4-0.9,3.7-3.3,3.6c-4.5-0.2-6.1-2.9-6.6-7.1c-0.4-2.9,0.7-6-0.5-8.5
	c-1.2-2.6-0.1-5.7,2.4-6.9c3-0.5,5.8,1.5,6.4,4.4c0,0.1,0,0.2,0,0.3C154.8,475,156.7,477.1,155.1,479.6z"/>
<path class="st1" d="M226.6,477.8c0.8-2-2-5.7,2.3-6.4c3.5-0.5,4.7,2.6,5.7,7.3c0.9,4.2,1.6,8.5,2.7,12.7c0.7,2.6-0.3,3.5-2.5,3.3
	c-3.2-0.2-6.8-0.2-6.4-5C228.5,485.7,224.7,482.2,226.6,477.8z"/>
<path class="st1" d="M172.5,483.2v6.9c0.1,1-0.5,1.9-1.5,2.3c-1,0.4-1.7-0.2-2.6-0.8c-4.1-2.7-6.5-5.6-4.5-11.1
	c0.8-2.3-0.2-5.4-0.7-8.1c-0.6-3,0.8-3.6,3.2-3c3.6,0.9,6.4,2.5,6.2,6.9c-0.1,2.3,0,4.5,0,6.9L172.5,483.2z"/>
<path class="st1" d="M288.2,483.4l-0.5,3.7c-0.3,2.5-0.5,5.5-3.9,5.1c-3.4-0.4-6.1-1.8-6.1-5.8s0-8.3,0.2-12.4c0-1.4,1.4-2,2.4-2.5
	c1.9-1,3.5,0,4.9,1.3C288.7,475.8,286.7,480.2,288.2,483.4z"/>
<path class="st1" d="M253.8,479.8c0.8-2.9-0.2-6.8,3.3-8.3c1.4-0.6,4.3-2.3,4.8-0.8c0.9,2.7,3.5,5.1,2.7,8c-0.5,2.4-0.8,4.8-0.8,7.2
	c-0.1,2.3-0.2,5.3-2.8,5.4c-2.9,0-5.4-1.9-6.2-4.7C254.3,484.4,253.9,482.1,253.8,479.8z"/>
<path class="st1" d="M384.8,481.2c-0.8-1.8,0-3.5,0-5.3c0-1.8,0-4.3,2.5-4.5c2.2-0.2,4.3,1,5.2,3c1.9,3.1,2.5,6.8,1.9,10.3
	c-0.1,0.6-0.3,1.3-0.6,1.8c-0.8,2,1.8,6.4-2.5,5.7c-3.7-0.6-6.4-3.8-6.5-7.5C384.8,483.5,384.8,482.4,384.8,481.2z"/>
<path class="st1" d="M447.4,482.1c-0.3-1.3,0.5-2.6,0.2-4.2c-1.2-6.5-0.8-6.8,5.4-4.6c2.5,0.8,3.4,2.3,2.6,4.4
	c-1.2,3.6-0.5,7.7,2,10.6c1.2,1.3,1.2,3.2,0,4.5c-1.2,1.3-2.7,0.8-4.1,0.4C449,491.8,447.1,488.4,447.4,482.1z"/>
<path class="st1" d="M83.4,486c-0.6-2-1.1-4.8-1.8-7.5c-0.7-2.7,0.7-3.2,2.4-4.2c1.7-1,3.3-0.5,4.5,1c4.1,4.6,3.6,10.5,4.5,16
	c0.3,1.8-1.2,2.5-2.9,2.6C87,494,83.3,490.2,83.4,486z"/>
<path class="st1" d="M220,480.8c-0.4,2.3,0.8,4.1,1,6.2c0.1,1.4,0.5,3-1.3,3.9c-1.3,0.7-2.9,0.7-4.2,0c-3.4-1.8-5.6-4.2-5.1-8.5
	c0.5-3.1,0.7-6.3,0.6-9.5c-0.1-2.7,2.5-1.8,3.5-1.2C217.6,473.8,221.9,475.5,220,480.8z"/>
<path class="st1" d="M406.6,482c0-1.7-0.4-3.4-1.1-5c-0.5-2-2-4.3,0.7-5.5c2.5-1.1,5.5-0.3,7.1,1.9c3.3,4.5,2.4,10,2.6,15
	c0.1,2.3-2.9,1.2-4.5,1.1c-2.7-0.2-4.9-2.2-5.3-4.9C406,484,406.4,483.3,406.6,482z"/>
<path class="st1" d="M243.3,480.2c0.4-2.1,0-4.3-1-6.1c-1-1.6-0.7-3.7,0.8-4.9c1.7-1.2,3.5,0,4.9,0.9c2.9,1.9,3,5.3,3.9,8.2
	c0.9,2.9-1.1,6.2,0.9,9.3c0.4,1.1-0.1,2.2-1.1,2.7c-0.7,0.3-1.6,0.1-2.2-0.4C246.1,487.7,241.6,485.9,243.3,480.2z"/>
<path class="st1" d="M572.7,465.9c4.3,0.5,5.9,3.1,5.7,7.3c-0.1,3-1.1,6.3,0.7,9.2c0.5,0.8,0.6,1.7-0.3,2s-2.7,0.5-2.8,0.2
	c-1.1-3-4.7,0.8-5.7-2.3c-1.6-5.1-1.7-10.4-0.5-15.6C570,465.4,571.7,465.9,572.7,465.9z"/>
<path class="st1" d="M371.6,486.4c-0.4,2-0.2,4,0.5,5.8c0.5,0.9,0.9,2.4-0.2,3.2c-1.1,0.8-2.3,0.2-3.2-0.4
	c-4.9-2.8-8.9-12.2-7.4-17.7c0.6-2.1,4.3-2.8,6.1-0.8C370.1,479.5,372.6,482.6,371.6,486.4z"/>
<path class="st1" d="M340.6,482.7c1-2.8-1.7-4.5-1.4-7.2c0.3-2.7,0.4-4.7,2.9-4.8c2.3-0.6,4.7,0.7,5.6,2.9c1.2,3.7,2.9,7.2,3.9,11
	c0.7,2.5-0.2,2.9-1.9,3.4C345.7,489.3,340.3,486,340.6,482.7z"/>
<path class="st1" d="M469.9,494.5c-5.5-2.8-7.7-7.3-8.4-13.3c-0.2-2.2,0.4-4.3,1.8-6c1.1-1.7,3,0,4.5,0.2c2,0.5,2.1,2.3,2.5,4.5
	c0.7,2.9,1.1,5.8,1.4,8.8C472,490.8,471.4,492.9,469.9,494.5z"/>
<path class="st1" d="M556.8,483.7c-0.2,1.4,0.8,3.4-1.2,3.8c-2.6,0.4-5.2-1-6.4-3.4c-2.5-3.9-2.4-8.6-2.3-13.1c0-1,0-3,2.1-2.5
	c3.1,0.7,6,1.9,6.8,5.5C556.4,477.2,556.5,480.5,556.8,483.7z"/>
<path class="st1" d="M506.5,482.4c-1.6,3.2,0.5,6.8-0.6,10.2c-0.2,0.7,0.3,1.7-0.9,1.8c-0.6,0-1.3-0.2-1.7-0.7
	c-1.8-3.8-6.6-5.5-6.8-10.5c-0.1-2.6-1.5-5.3,0.7-7.4c1.5-1.4,3.9-0.7,5.6,0C505.6,476.9,506.2,479.6,506.5,482.4z"/>
<path class="st1" d="M602.5,472.3c-2.1,3,1,5.5,0.2,8.3c-0.5,1.7-0.9,3.5-2.8,3.4c-1.2,0-3.7,0-2.5-3.1c0.7-2-3.6,0-3.6-2.8
	c0-3.2-1.3-6-1.4-9.4c0-6.1,3.3-3.7,5.4-3C600.9,466.7,602,469.5,602.5,472.3z"/>
<path class="st1" d="M55.9,492.8c-1.4-0.3-2.2-1.7-1.9-3c0.9-5-0.9-10.6,3.1-15.4c1,1.2,1.2,3.7,3.8,2.8c1.2-0.2,2.4,0.6,2.6,1.8
	c0,0.2,0,0.3,0,0.5c0.2,2.8-0.3,5.5,1.6,8c0.6,0.8-5.6,5.1-7,4.7c-1-0.2-1.9-0.6-2.3,0.8L55.9,492.8z"/>
<path class="st1" d="M525.1,485.6c0,1.7,0,2.8-1.6,3c-3.4,0.5-8.3-3.5-7.7-6.8c0.1-1.6-0.2-3.1-0.9-4.5c-0.7-2.4-0.3-5.7,1.8-6.4
	c2.8-0.8,5.7,0.9,6.5,3.7l0,0C524.7,478.4,523.7,482.4,525.1,485.6z"/>
<path class="st1" d="M539.1,481.9c-0.1,2.3,0.3,4.7-2.3,4.5s-5.8,0-6.3-2.7c-0.9-3.3-1.7-6.6-2.3-9.9c0-1.6-0.5-3.3,1.8-4
	c1.9-0.8,4-0.1,5.1,1.6C537.3,474.6,538.6,478.2,539.1,481.9z"/>
<path class="st1" d="M200.3,478.3c-0.2,1.1,0.5,2.6-0.9,3.1c-2.6,0.9-1.3,2.1-0.2,3c2.3,2,0.7,4.1-0.4,5.3c-2.1,2.3-2.3-1.1-3.4-1.8
	c-5.8-3.7-2.3-9.8-3.5-14.7c0-1,0.8-1.8,1.8-1.8c0.2,0,0.5,0,0.7,0.1C197.1,473.1,200.7,474,200.3,478.3z"/>
<path class="st1" d="M619.4,470.8c2.5-1.2-2.1-6.8,3.7-6.5c3.1,0,7.8,7.1,7.4,10.8c-0.4,3-3,3.2-5.1,3.5
	C623.3,478.9,619.2,473.2,619.4,470.8z"/>
<path class="st1" d="M684,476.8c0.4,1.7-0.2,3.5-1.7,4.5c-1.3,0.9-2-0.5-3-0.9c-6.4-2.3-4.5-8.4-5.5-12.9c-0.5-2.4,2.8-2.4,4.9-1.4
	C683.8,468.5,681.6,474.1,684,476.8z"/>
<path class="st1" d="M479,475.3c4.4,0,6,2.3,6,7.2c0.3,1.6,0.8,3.2,1.5,4.6c0.4,1.5-0.1,3-1.3,4c-1.3,1.3-2.4-0.1-3.5-0.7
	c-3.8-2.3-6.3-9.8-4.7-14.1C477.2,475.4,477.9,475.2,479,475.3z"/>
<path class="st1" d="M437.5,480.2c0.2,0.4,0.3,0.9,0.2,1.4c-0.2,2.1,2.3,5.1-1.4,6.2c-2.4,0.7-6.6-3.2-6.8-5.9
	c0-0.8-0.2-1.6-0.4-2.4c-0.5-1.8-2.4-3.4-0.2-5.3c1.6-1.3,3.8-1.4,5.5-0.4C436.7,474.8,438,476.4,437.5,480.2z"/>
<path class="st1" d="M651.5,478.5c-1.5-1.1-4.2-2.3-5.1-4.2c-1-2.7-1.4-5.7-1.2-8.6c0.1-1.5,1.4-2.6,2.9-2.6l0,0c0.1,0,0.1,0,0.2,0
	c3.4,0.2,6,3,5.8,6.4c0,0.4-0.1,0.8-0.2,1.2c0,1.8,0.2,3.5,0.7,5.2C654.7,477.7,654.2,478.9,651.5,478.5z"/>
<path class="st1" d="M185.1,485.4c-1.3-0.5-2-0.7-2.1,1.3c0,1.4-1.6,0.2-1.5,0c1-3.1-1.9-4.5-2.6-6.9c-1.1-3.1-1.6-6.6,2.3-8
	c3.9-1.4,3.9,3.4,6.1,5c1.3,0.9,1,4.3,1.2,6.6C188.7,485.7,187,485.9,185.1,485.4z"/>
<path class="st1" d="M28.2,487.1c0-2.3-0.3-4.8,2.3-4.7c4.7,0.3,4.5,4.5,5,7.8c0.3,2-0.5,4.7-2.8,4.3
	C28.5,493.8,29.3,489.5,28.2,487.1z"/>
<path class="st1" d="M3.7,488.6c1.7-0.2,2.6,0.5,2.6,2.3s-0.9,2-2.3,1.8c-1.4-0.2-3.9-0.2-4-2C-0.3,488.1,2.7,489.8,3.7,488.6z"/>
<path class="st0" d="M743.7,68.6c-4.5-4.4-10.1-7.3-17-5.6c-0.7,0.2-1.5,0.5-2-0.2c-0.8-1,0.2-1.5,0.7-2.2c1.7-2.8,2-12.1,0-12.9
	c-3.8-1.5-6.1-8.6-11.9-3.6c-0.2,0.1-0.5,0.1-0.8,0c-2-2.4-4.7-1.1-7.2-1.1c-6.8,0-11.6,3.8-16.1,7.9c-1.4,1.6-3.3,2.6-5.4,2.9
	c-2.1-0.4-3.5-2.4-3.1-4.5c0-0.2,0.1-0.4,0.2-0.6c0.6-2-1.5-3.1-1.9-4.8c-0.6-3.3-3.9-0.5-5.2-2.3c-1.3-1.8-2.4-0.7-3.7-0.3
	c-1.8-0.9-2,0-2,1.5l-1.2,0.3c-1.9-2.6-4.7-1-7.1-1.6c-1,0.3-0.4,1-0.5,1.6c-1.4,1.1-2.5-1.1-4.1-0.2c-4.3,2.4-8.2,5.4-12.3,8.2
	c-4.1,2.8-5.8,8.5-9.4,12.4c-1.4,1.5-2.3,1.7-3.4,0.9c-2.3-1.8-5.4-2.3-8.2-1.3c-2.5,1-4.7,2.7-6.3,4.9c-2.4,4.4-3.9,9.3-4.4,14.3
	c-0.1,1.1,0.4,2.1,1.2,2.8c2.9,1.9,6.5,4.1,9.5,3.5c7-1.1,13.7,1,20.7,0.5c2.5-0.2,4.7-1.3,7.4-1.1c6.8,0.4,13.6,2.2,20.5-0.2
	c2.1-0.9,4.4-1,6.6-0.3c5.4,2.8,10.9-0.5,16.4,1.1c3,0.8,7.1-0.4,10.8-0.5c8.6-0.2,17.1,0.1,25.7,1c1.2,0.1,2.7,0.3,3.4-0.8
	c2.7-4.4,8.6-4.8,11.1-10.5C746.7,73.4,745.6,70.4,743.7,68.6z"/>
<path class="st1" d="M55.8,492.9l0.4,0.7l-0.2-0.4L55.8,492.9L55.8,492.9z"/>
<path class="st1" d="M709.8,484.2c-0.4-1.4-1.2-1.1-2.3-0.8c-1.4,0.3-7.5-4-7-4.7c1.8-2.5,1.4-5.3,1.6-8c0-1.2,1-2.3,2.2-2.3
	c0.2,0,0.3,0,0.5,0c2.6,0.9,2.8-1.6,3.8-2.8c4,4.8,2.2,10.4,3.1,15.4c0.3,1.4-0.6,2.7-1.9,3L709.8,484.2z"/>
<path class="st1" d="M731.1,484.4c-2.3,0.4-3.1-2.3-2.8-4.3c0.5-3.3,0.3-7.5,5-7.8c2.5-0.2,2.3,2.4,2.3,4.7
	C734.4,479.4,735.1,483.7,731.1,484.4z"/>
<path class="st1" d="M761.9,480.6c-0.2,1.8-2.6,1.8-4,2c-1.4,0.2-2.2-0.1-2.3-1.8s0.8-2.5,2.6-2.3
	C759.2,479.8,762.2,478,761.9,480.6z"/>
<path class="st1" d="M706.1,482.8l-0.2,0.4l-0.2,0.4L706.1,482.8L706.1,482.8z"/>
<path class="st0" d="M475.6,20.6c1,0.6,2.6,0.8,1.9,2.7c-0.2,0.4,0.2,0.7,0.6,0.8c0.4,0.1,0.6,0.2,0.6,0.2c-0.4,2.4,2.4,3.5,2.4,5.8
	c-0.1,1-0.1,2.1,0,3.1c0.3,1.2-0.5,0.9-1.2,0.6c-0.1-0.1-0.2-0.2-0.3-0.2c-0.2,0.2-0.1,0.3,0,0.4c0.6,2.2-0.1,4.6-1.8,6.1
	c-1.1,1.3-2,2.7-2.7,4.3c-0.5,1.1-1.6,1.9-2.8,2c-0.9,0.1-1.7,0-1.9,1.1c0,0.2-0.6,0.6-0.7,0.5c-2.5-1.6-1.5,1-1.8,1.4
	c-0.9,0.8-2.4-3.1-2.4,0.7c-1,0.2-2.1,0.4-3.2,0.5c-2.2,0.2-4.5-0.3-6.3-1.6c-0.9-0.6-0.9-2.7-1.5-4c-0.3-0.7,0-1.2-1.3-1.1
	c-1.3,0.1-1.9-1.1-2.4-2.3c-0.4-0.9-1.6-1.3-1.8-0.2c-0.5,2.6-2.9,3.5-4.2,5.4c-0.9,1.7-2,3.3-3.4,4.7c-2,1.6-3.6,3.8-6.3,4.1
	c-0.5,0-1,0.3-1.3,0.8c-1.3,2.4-3.7,1.8-5.7,2.6c-2,0.8-4-1.3-5.6,0.5c-0.3,0.2-0.8,0.2-1.1,0c-2.1-1.7-5.5-1-7.1-3.6
	c-0.3-0.4-0.5-0.4-0.9-0.3c-2.1,0.6-2.5-1.1-3.1-2.4c0.4,0,0.7,0,0.8-0.4c0-0.1-0.1-0.3-0.2-0.3c-0.4,0-0.7,0.3-0.7,0.6
	c-1.7-2.3-2.9-4.8-3.6-7.5c-1,3-3.5,3.8-5.1,5.5c-0.3,0.3-0.7,0.5-1.2,0.6c-2,0.4-4,1-5.9,1.8c-2.2,0.8-4-0.4-6-0.8
	c-0.9-0.2-2.1-0.9-3-1c-2.6-0.5-3.5-2.7-5.2-4.2c-0.2-0.1-0.3-0.3-0.3-0.6c-0.2-2,0-1.8-2.1-0.8c-2.3,1.2-5,1.6-7.6,1.4
	c-2.8-0.3-5.8,0.1-8.2-1.9c-1.5-1.3-3.9-2-3.4-4.9c0-0.3-2-0.4-1.5-1.7c0.9-2-0.6-3.9-0.1-5.8c0.1-0.4,0-1,0.2-1.1
	c1.8-0.8,2.1-2.9,3.2-3.8c1.6-1.5,2-3.8,4.2-4.5c0.8-0.2,1.5-0.8,2.3-0.7c0.1,0.2,0,0.7,0.4,0.5s0-0.5-0.2-0.7
	c1.5-1.1,3.3-1.7,5.1-1.6c2.3,0.2,4.5,0.6,6.7,1c0.7,0.1,1.7,0.2,1.9,1.4c0,0.4,0.4,0.7,0.8,0.6l0,0c0.1,0,0.2,0,0.2-0.1
	c0.3-0.2,0.6-0.5,0.7-0.8c1-3.4,3.6-5.7,6-8.1c1.7-1.7,3.9-2.9,6.2-3.5c2.1-0.7,4.3-1.2,6.6-1.3c2.8,0.1,4.8,1.7,7.2,2.5
	c2,0.6,3.3,2.5,3,4.5c1.3-0.4,2.4-1.2,3.2-2.3c3.5-4.9,7.9-9,13.2-12c2.3-1.2,5.1-1.3,7.4-2.7c0.2-0.2,0.7-0.3,0.8,0
	c0.7,2.3,2.4,1.7,4.2,1.8c4.2,0.1,7.4,2.4,10.2,5.5c2.8,3.2,4.7,7.2,5.2,11.4c0.1,1,0.1,1.9-0.1,2.9l-0.6,0.1l0.2,0.2l0.4-0.4
	c1.1,0.2,0.8-1.2,1.5-1.5c1.4,1.1,1.6-0.7,2.4-1c2.5-0.9,5.3-1.2,7.5-3c1.7,0.3,3.3,1.2,5.2,1.1C473.8,17.7,474.9,19.1,475.6,20.6
	l-0.7-0.1c0,0.1,0,0.3,0.1,0.4C475.3,20.9,475.5,20.9,475.6,20.6z"/>
<g>
	<g>
		<g>
			<path class="st2" d="M503.8,113.9c0,0-3.5-0.7-8.1-1.3c-1.6-0.2-3.7-0.4-5.3-0.4s-3.7,0.2-5.3,0.5c-4.6,0.5-8.1,1.3-8.1,1.3
				c-0.9,0-1.6,0.7-1.6,1.6s0.7,1.6,1.6,1.6c0,0,3.5,0.7,8.1,1.3c1.6,0.2,3.7,0.5,5.3,0.5s3.7-0.2,5.3-0.4c4.6-0.5,8.1-1.3,8.1-1.3
				c0.9,0,1.6-0.7,1.6-1.6C505.3,114.4,504.7,113.9,503.8,113.9L503.8,113.9z"/>
			<path class="st3" d="M496.5,114.8c0,0-1.6-0.4-3.7-0.5c-0.9-0.2-1.6-0.2-2.4-0.2s-1.6,0.2-2.4,0.2c-2,0.2-3.7,0.5-3.7,0.5
				c-0.4,0-0.7,0.4-0.7,0.7c0,0.4,0.4,0.7,0.7,0.7c0,0,1.6,0.4,3.7,0.5c0.9,0.2,1.6,0.2,2.4,0.2c0.9,0,1.6-0.2,2.4-0.2
				c2-0.2,3.7-0.5,3.7-0.5c0.4,0,0.7-0.4,0.7-0.7C497.2,115.2,496.9,114.8,496.5,114.8L496.5,114.8z"/>
			<path class="st4" d="M532,108.2c0,1.3,0.5,2.6,1.6,3.5c1.1,0.9,2.4,1.3,3.7,0.9c2.4-0.5,5.1-1.3,6.4-1.6c2.6-1.3,7-2.2,10.1-0.7
				l0,0c0.4,0.2,0.7,0.5,1.1,0.7l8.1,5.1c0.4,0.2,0.5,0.5,0.5,0.9s-0.4,0.7-0.7,0.9l-3.8,0.9c-0.7,0.2-3.8,1.3-4.6,1.5
				c-6.4,2.4-14.1,6-14.1,6c-2.4,1.1-4.8,1.6-7.3,1.6h-10.4c-0.9,0-1.8-0.2-2.7-0.2l0,0c-0.9-0.2-1.6-0.4-2.4-0.5l-22-5.3
				c-0.5-0.2-0.7-0.5-0.7-0.9l0,0c0-0.4-0.2-0.7-0.5-0.9c-0.7-0.4-1.8-0.7-2.6-1.1c-0.4-0.2-0.7-0.5-0.7-0.9c0-1.3,0-3.5,0-4.6
				c0-0.5,0.4-0.9,0.7-0.9c0.7-0.4,1.8-0.7,2.6-1.1c0.4-0.2,0.7-0.5,0.7-0.9l0,0c0-0.5,0.5-1.1,1.1-1.1c0,0,4.2-0.2,7.3-0.2
				c1.6,0,3.1-1.3,3.7-2.9c3.8-19.4,18.7-26.9,24.4-29.3c0.5-0.2,0.9-0.2,1.3,0.4c0.2,0.2,0.4,0.5,0.4,0.7l0,0l0,0
				c0,0.2,0,0.2,0,0.2L532,108.2L532,108.2z"/>
			<path class="st2" d="M516.3,126.7l7.1-7.1c0.2-0.2,0.5-0.4,0.9-0.4h20.5c0.7,0,1.3,0.5,1.3,1.3v2.7c-0.9,0.4-1.8,0.9-2.6,1.3V122
				h-18.5l-5.9,5.9c-0.9-0.2-1.5-0.4-2.2-0.5L516.3,126.7L516.3,126.7z M557.3,112.4l3.8,2.6c-0.2,0-0.2,0-0.2,0h-9.3
				c-0.7,0-1.3-0.5-1.3-1.3c0-0.7,0.5-1.3,1.3-1.3L557.3,112.4L557.3,112.4z M524,80.2l4.4,4.4c1.3-0.9,2.4-1.6,3.7-2.2v2.9
				c-5.9,3.7-13.9,10.4-17.2,23.3c0,0.2-0.2,0.2-0.2,0.4l0,0c-0.2,0.2-0.2,0.2-0.2,0.4c-0.2,0.2-0.4,0.4-0.5,0.4l0,0
				c-0.2,0.2-0.5,0.2-0.7,0c-0.2,0-0.2-0.2-0.4-0.2l0,0c-0.2-0.2-0.2-0.2-0.4-0.2l-5.9-5.9c0.4-0.9,0.5-1.8,0.9-2.7l5.3,5.3
				c0.7-2.2,1.5-4.2,2.4-6.2l-5.1-5.1c0.5-0.9,0.9-1.5,1.3-2.4l4.9,4.9c1.3-2,2.4-3.7,3.7-5.3l-4.8-4.8c0.5-0.7,1.3-1.3,1.6-1.8
				l4.8,4.8c1.5-1.6,3.1-2.9,4.6-4.2l-4.6-4.6C522.5,81.1,523.2,80.8,524,80.2z"/>
			<circle class="st2" cx="510.4" cy="120.1" r="1.8"/>
			<ellipse class="st2" cx="503.8" cy="120.1" rx="1.8" ry="1.8"/>
		</g>
		<g>
			<path class="st4" d="M476.7,108c-0.2,0.2-0.5,0.4-0.7,0.4c-0.5-0.2-1.3-0.2-1.8-0.2c-0.4-0.2-0.5-0.4-0.5-0.7
				c0.2-0.7,0.2-1.8,0.4-2.7c0-0.2,0.2-0.5,0.4-0.5c0.2-0.2,0.5-0.2,0.7,0c0.7,0.5,1.8,1.1,2.4,1.3c0.2,0.2,0.4,0.2,0.4,0.5
				c0.2,0.2,0,0.4-0.2,0.5C477.5,106.9,477.1,107.7,476.7,108L476.7,108z"/>
			<path class="st4" d="M548.1,133.5c-0.2,0.4-0.4,0.5-0.5,0.5c-0.2,0-0.7,0.2-1.1,0.2c-0.4,0-0.7-0.2-0.7-0.5
				c-0.2-0.5-0.2-1.1-0.2-1.5c0-0.2,0.2-0.5,0.2-0.5c0.2-0.2,0.5-0.2,0.7-0.2c0.5,0.2,1.1,0.4,1.5,0.5c0.2,0.2,0.4,0.2,0.5,0.4
				c0.2,0.2,0.2,0.4,0.2,0.5C548.5,132.9,548.1,133.3,548.1,133.5z"/>
			<path class="st4" d="M466.6,100.7c-0.4,0-0.5-0.2-0.5-0.5c-0.2-0.4-0.4-0.7-0.4-0.9c-0.2-0.4,0-0.7,0.4-0.9
				c0.5-0.2,0.9-0.5,1.3-0.7c0.2-0.2,0.5-0.2,0.7,0.2c0.2,0.2,0.4,0.4,0.4,0.5c0,0.5,0,1.1,0,1.6c0,0.2-0.2,0.4-0.2,0.5
				c-0.2,0.2-0.4,0.2-0.5,0.2C467.6,100.7,467.2,100.7,466.6,100.7z"/>
			<path class="st4" d="M537.7,141.4c0.2-0.2,0.2-0.2,0.2-0.2c0.2,0,0.2,0,0.4,0.2c0.5,0.5,1.6,1.3,2.4,2c0.2,0.2,0.2,0.2,0.2,0.4
				s-0.2,0.2-0.4,0.4c-1.1,0.2-2.7,0.7-3.8,1.1c-0.2,0-0.4,0-0.4-0.2c-0.2-0.2-0.2-0.4-0.2-0.4C536.4,143.4,537.1,142.1,537.7,141.4
				L537.7,141.4z"/>
			<path class="st4" d="M510.6,137.2c0,0.2-0.2,0.2-0.2,0.4c-0.2,0.2-0.2,0.2-0.4,0.2c-0.5-0.2-1.3-0.5-2-0.5
				c-0.2-0.2-0.2-0.2-0.2-0.4s0-0.4,0.2-0.4c0.5-0.5,1.5-1.1,2-1.6c0.2-0.2,0.4-0.2,0.4,0c0.2,0.2,0.2,0.2,0.2,0.4
				C510.6,135.7,510.6,136.6,510.6,137.2z"/>
			<path class="st4" d="M488.4,87.7c-0.2-0.2-0.2-0.2-0.2-0.4c0-0.2,0.2-0.2,0.2-0.4c0.7-0.4,1.8-1.3,2.6-1.6c0.2-0.2,0.4-0.2,0.4,0
				c0.2,0.2,0.2,0.2,0.2,0.4c-0.2,1.1-0.2,2.9-0.2,3.8c0,0.2-0.2,0.4-0.2,0.4c-0.2,0.2-0.4,0-0.4-0.2
				C490.1,89.2,488.8,88.3,488.4,87.7z"/>
		</g>
	</g>
</g>
</svg>
