<?xml version="1.0" encoding="utf-8"?>
<!-- Generator: Adobe Illustrator 25.0.1, SVG Export Plug-In . SVG Version: 6.00 Build 0)  -->
<svg version="1.1" id="Layer_1" xmlns="http://www.w3.org/2000/svg" xmlns:xlink="http://www.w3.org/1999/xlink" x="0px" y="0px"
	 viewBox="0 0 500 503.2" style="enable-background:new 0 0 500 503.2;" xml:space="preserve">
<style type="text/css">
	.st0{fill:#EEEEEE;}
	.st1{clip-path:url(#SVGID_2_);}
	.st2{fill:#003E3F;}
	.st3{clip-path:url(#SVGID_4_);}
	.st4{clip-path:url(#SVGID_6_);}
	.st5{clip-path:url(#SVGID_8_);}
	.st6{clip-path:url(#SVGID_10_);}
	.st7{clip-path:url(#SVGID_12_);}
	.st8{clip-path:url(#SVGID_14_);}
	.st9{clip-path:url(#SVGID_16_);}
	.st10{clip-path:url(#SVGID_18_);}
	.st11{fill:#009092;}
</style>
<g>
	<rect y="3.2" class="st0" width="500" height="500"/>
</g>
<g>
	<g transform="translate(1334.0 1015.0) rotate(5.260547612882023 35.0 29.5) scale(2.7559055118110236 2.7570093457943927)">
		<g>
			<g>
				<g>
					<defs>
						
							<rect id="SVGID_1_" x="-600.5" y="-490.2" transform="matrix(0.2719 -0.9623 0.9623 0.2719 -30.7684 -646.202)" width="316.2" height="374.8"/>
					</defs>
					<clipPath id="SVGID_2_">
						<use xlink:href="#SVGID_1_"  style="overflow:visible;"/>
					</clipPath>
					<g transform="translate(-0.0 -0.0)" class="st1">
						<path class="st2" d="M-442.3-308.1c0.1,0,0.1,0,0.1-0.1c0.8-1.3,2.3-2.2,4-2.2c2.6,0,4.7,2.1,4.7,4.7v0.1l0,0l0,0v0.1l0,0
							c-0.2,5.3-9,10.2-9,10.2s-8-4.6-8.9-9.4c-0.1-0.3-0.1-0.6-0.1-0.9c0-2.6,2.1-4.7,4.7-4.7c1.7,0,3.2,0.8,4,2.2
							c0.1,0.1,0.1,0.1,0.1,0.1S-442.4-308.1-442.3-308.1L-442.3-308.1z"/>
					</g>
				</g>
			</g>
		</g>
	</g>
</g>
<g>
	<g transform="translate(1310.0 914.0) rotate(0.0 18.5 16.0) scale(1.4566929133858268 1.4953271028037385)">
		<g>
			<g>
				<g>
					<defs>
						<rect id="SVGID_3_" x="-631.7" y="-544.4" width="55.4" height="50.4"/>
					</defs>
					<clipPath id="SVGID_4_">
						<use xlink:href="#SVGID_3_"  style="overflow:visible;"/>
					</clipPath>
					<g transform="translate(-0.0 -0.0)" class="st3">
						<path class="st2" d="M-603.9-524.5C-603.8-524.5-603.8-524.5-603.9-524.5c0.9-1.4,2.4-2.3,4.1-2.3c2.6,0,4.7,2.1,4.7,4.7v0.1
							l0,0l0,0v0.1l0,0c-0.2,5.3-9,10.2-9,10.2s-8-4.6-8.9-9.4c-0.1-0.3-0.1-0.6-0.1-0.9c0-2.6,2.1-4.7,4.7-4.7c1.7,0,3.2,0.8,4,2.2
							c0.1,0.1,0.1,0.1,0.1,0.1C-604-524.5-604-524.5-603.9-524.5L-603.9-524.5z"/>
					</g>
				</g>
			</g>
		</g>
	</g>
</g>
<g>
	<g transform="translate(457.0 1250.0) rotate(-6.061588418576241 34.0 29.5) scale(2.677165354330709 2.7570093457943927)">
		<g>
			<g>
				<g>
					<defs>
						<polygon id="SVGID_5_" points="-112.5,-344 -64.9,-349 -60.5,-307.6 -108.2,-302.6 						"/>
					</defs>
					<clipPath id="SVGID_6_">
						<use xlink:href="#SVGID_5_"  style="overflow:visible;"/>
					</clipPath>
					<g transform="translate(-0.0 -0.0)" class="st4">
						<path class="st2" d="M-86.4-331.1c0.1,0,0.1,0,0.1-0.1c0.8-1.3,2.3-2.2,4-2.2c2.6,0,4.7,2.1,4.7,4.7v0.1l0,0l0,0v0.1l0,0
							c-0.2,5.3-9,10.2-9,10.2s-8-4.6-8.9-9.4c-0.1-0.3-0.1-0.6-0.1-0.9c0-2.6,2.1-4.7,4.7-4.7c1.7,0,3.2,0.8,4,2.2
							c0.1,0.1,0.1,0.1,0.1,0.1C-86.5-331.1-86.5-331.1-86.4-331.1L-86.4-331.1z"/>
					</g>
				</g>
			</g>
		</g>
	</g>
</g>
<g>
	<g transform="translate(371.0 701.0) rotate(0.0 18.5 16.0) scale(1.4566929133858268 1.4953271028037385)">
		<g>
			<g>
				<g>
					<defs>
						<rect id="SVGID_7_" x="-39.6" y="-327.8" width="55.4" height="50.4"/>
					</defs>
					<clipPath id="SVGID_8_">
						<use xlink:href="#SVGID_7_"  style="overflow:visible;"/>
					</clipPath>
					<g transform="translate(-0.0 -0.0)" class="st5">
						<path class="st2" d="M-11.8-308c0.1,0,0.1,0,0.1-0.1c0.8-1.3,2.3-2.2,4-2.2c2.6,0,4.7,2.1,4.7,4.7v0.1l0,0l0,0v0.1l0,0
							c-0.2,5.3-9,10.2-9,10.2s-8-4.6-8.9-9.4c-0.1-0.3-0.1-0.6-0.1-0.9c0-2.6,2.1-4.7,4.7-4.7c1.7,0,3.2,0.8,4,2.2
							c0.1,0.1,0.1,0.1,0.1,0.1S-11.9-308-11.8-308L-11.8-308z"/>
					</g>
				</g>
			</g>
		</g>
	</g>
</g>
<g>
	<g transform="translate(709.0 1110.0) rotate(0.0 25.0 21.5) scale(1.968503937007874 2.0093457943925235)">
		<g>
			<g>
				<g>
					<defs>
						<rect id="SVGID_9_" x="-255.4" y="-449.6" width="136.6" height="122.4"/>
					</defs>
					<clipPath id="SVGID_10_">
						<use xlink:href="#SVGID_9_"  style="overflow:visible;"/>
					</clipPath>
					<g transform="translate(-0.0 -0.0)" class="st6">
						<path class="st2" d="M-187-393.7c0.1,0,0.1,0,0.1-0.1c0.8-1.3,2.3-2.2,4-2.2c2.6,0,4.7,2.1,4.7,4.7v0.1l0,0l0,0v0.1l0,0
							c-0.2,5.3-9,10.2-9,10.2s-8-4.6-8.9-9.4c-0.1-0.3-0.1-0.6-0.1-0.9c0-2.6,2.1-4.7,4.7-4.7c1.7,0,3.2,0.8,4,2.2
							c0.1,0.1,0.1,0.1,0.1,0.1C-187.1-393.7-187.1-393.7-187-393.7L-187-393.7z"/>
					</g>
				</g>
			</g>
		</g>
	</g>
</g>
<g>
	<g transform="translate(788.0 1193.0) rotate(0.0 17.5 15.0) scale(1.3779527559055118 1.4018691588785048)">
		<g>
			<g>
				<g>
					<defs>
						<rect id="SVGID_11_" x="-489.4" y="-649.3" width="46.9" height="41.6"/>
					</defs>
					<clipPath id="SVGID_12_">
						<use xlink:href="#SVGID_11_"  style="overflow:visible;"/>
					</clipPath>
					<g transform="translate(-0.0 -0.0)" class="st7">
						<path class="st2" d="M-465.9-633.8c0.1,0,0.1,0,0.1-0.1c0.8-1.3,2.3-2.2,4-2.2c2.6,0,4.7,2.1,4.7,4.7v0.1l0,0l0,0v0.1l0,0
							c-0.2,5.3-9,10.2-9,10.2s-8-4.6-8.9-9.4c-0.1-0.3-0.1-0.6-0.1-0.9c0-2.6,2.1-4.7,4.7-4.7c1.7,0,3.2,0.8,4,2.2
							c0.1,0.1,0.1,0.1,0.1,0.1C-466-633.8-466-633.8-465.9-633.8L-465.9-633.8z"/>
					</g>
				</g>
			</g>
		</g>
	</g>
</g>
<g>
	<g transform="translate(396.0 1327.0) rotate(-7.79467742990204 17.0 14.5) scale(1.3385826771653544 1.355140186915888)">
		<g>
			<g>
				<g>
					<defs>
						
							<rect id="SVGID_13_" x="-57.7" y="-873.3" transform="matrix(0.9634 -0.268 0.268 0.9634 228.8209 -42.5917)" width="32.2" height="27.8"/>
					</defs>
					<clipPath id="SVGID_14_">
						<use xlink:href="#SVGID_13_"  style="overflow:visible;"/>
					</clipPath>
					<g transform="translate(-0.0 -0.0)" class="st8">
						<path class="st2" d="M-41.5-864.7C-41.4-864.7-41.4-864.7-41.5-864.7c0.9-1.4,2.4-2.3,4.1-2.3c2.6,0,4.7,2.1,4.7,4.7v0.1l0,0
							l0,0v0.1l0,0c-0.2,5.3-9,10.2-9,10.2s-8-4.6-8.9-9.4c-0.1-0.3-0.1-0.6-0.1-0.9c0-2.6,2.1-4.7,4.7-4.7c1.7,0,3.2,0.8,4,2.2
							c0.1,0.1,0.1,0.1,0.1,0.1C-41.6-864.7-41.6-864.7-41.5-864.7L-41.5-864.7z"/>
					</g>
				</g>
			</g>
		</g>
	</g>
</g>
<g>
	<g transform="translate(1103.0 1363.0) rotate(5.34919804632582 18.5 16.0) scale(1.4566929133858268 1.4953271028037385)">
		<g>
			<g>
				<g>
					<defs>
						<polygon id="SVGID_15_" points="-651.1,-679.2 -649,-701.7 -623,-699.2 -625.2,-676.8 						"/>
					</defs>
					<clipPath id="SVGID_16_">
						<use xlink:href="#SVGID_15_"  style="overflow:visible;"/>
					</clipPath>
					<g transform="translate(-0.0 -0.0)" class="st9">
						<path class="st2" d="M-637-694.5C-636.9-694.5-636.9-694.5-637-694.5c0.9-1.4,2.4-2.3,4.1-2.3c2.6,0,4.7,2.1,4.7,4.7v0.1l0,0
							l0,0v0.1l0,0c-0.2,5.3-9,10.2-9,10.2s-8-4.6-8.9-9.4c-0.1-0.3-0.1-0.6-0.1-0.9c0-2.6,2.1-4.7,4.7-4.7c1.7,0,3.2,0.8,4,2.2
							c0.1,0.1,0.1,0.1,0.1,0.1C-637.1-694.5-637.1-694.5-637-694.5L-637-694.5z"/>
					</g>
				</g>
			</g>
		</g>
	</g>
</g>
<g>
	<g transform="translate(272.0 1257.0) rotate(-12.681791095907384 13.0 11.5) scale(1.0236220472440944 1.074766355140187)">
		<g>
			<g>
				<g>
					<defs>
						<polygon id="SVGID_17_" points="-28.3,-777.7 -10.4,-781.8 -6.9,-765.9 -24.8,-761.9 						"/>
					</defs>
					<clipPath id="SVGID_18_">
						<use xlink:href="#SVGID_17_"  style="overflow:visible;"/>
					</clipPath>
					<g transform="translate(-0.0 -0.0)" class="st10">
						<path class="st2" d="M-17.5-777.1c0.1,0,0.1,0,0.1-0.1c0.8-1.3,2.3-2.2,4-2.2c2.6,0,4.7,2.1,4.7,4.7v0.1l0,0l0,0v0.1l0,0
							c-0.2,5.3-9,10.2-9,10.2s-8-4.6-8.9-9.4c-0.1-0.3-0.1-0.6-0.1-0.9c0-2.6,2.1-4.7,4.7-4.7c1.7,0,3.2,0.8,4,2.2
							c0.1,0.1,0.1,0.1,0.1,0.1C-17.6-777.1-17.6-777.1-17.5-777.1L-17.5-777.1z"/>
					</g>
				</g>
			</g>
		</g>
	</g>
</g>
<path class="st11" d="M446.7,309.3v-6.7h4.9v6.8h6.8v4.9h-6.8v6.8h-4.9v-6.8h-6.8v-4.9L446.7,309.3L446.7,309.3z"/>
<path class="st11" d="M417.9,66.2v-6.7h4.9v6.8h6.8v4.9h-6.8V78h-4.9v-6.8h-6.8v-4.9L417.9,66.2L417.9,66.2z"/>
<path class="st11" d="M392.5,445.5v-6.8h4.9v6.8h6.8v4.9h-6.8v6.8h-4.9v-6.8h-6.8v-4.9H392.5z"/>
<path class="st11" d="M206.1,298.5v-6.8h4.9v6.8h6.8v4.9H211v6.8h-4.9v-6.8h-6.8v-4.9H206.1z"/>
<path class="st11" d="M115.2,66.4v-6.8h4.9v6.8h6.8v4.9h-6.8v6.8h-4.9v-6.8h-6.8v-4.9H115.2z"/>
<path class="st11" d="M105.9,203.3v-6.8h4.9v6.8h6.8v4.9h-6.8v6.8h-4.9v-6.8h-6.8v-4.9C99.3,203.3,105.9,203.3,105.9,203.3z"/>
<path class="st11" d="M392.5,244v-6.8h4.9v6.8h6.8v4.9h-6.8v6.8h-4.9v-6.8h-6.8V244H392.5z"/>
<path class="st11" d="M320.7,405.4v-11.6h8.5v11.6h11.6v8.5h-11.6v11.5h-8.5v-11.6h-11.6v-8.5L320.7,405.4L320.7,405.4z"/>
<path class="st11" d="M37.6,313.8v-11.6h8.5v11.6h11.6v8.5H46.1v11.6h-8.5v-11.6H26v-8.5H37.6z"/>
<path class="st11" d="M242.6,178.9v-11.6h8.5v11.6h11.6v8.5h-11.6V199h-8.5v-11.6h-11.5v-8.5H242.6z"/>
<path class="st11" d="M199.3,434.4v-11.6h8.5v11.6h11.6v8.5h-11.6v11.6h-8.5v-11.6h-11.6v-8.5H199.3z"/>
<path class="st11" d="M65.9,116.5V105h8.5v11.6H86v8.5H74.3v11.6h-8.5V125H54.3v-8.5H65.9z"/>
<path class="st11" d="M334.8,85V68.8h11.8V85h16.2v11.8h-16.2V113h-11.8V96.9h-16.2V85H334.8L334.8,85z"/>
<path class="st11" d="M256.7,342.4v-16.2h11.8v16.2h16.2v11.8h-16.2v16.2h-11.8v-16.2h-16.2v-11.8H256.7z"/>
</svg>
