<?xml version="1.0" encoding="utf-8"?>
<!-- Generator: Adobe Illustrator 25.0.1, SVG Export Plug-In . SVG Version: 6.00 Build 0)  -->
<svg version="1.1" id="Layer_1" xmlns:serif="http://www.serif.com/"
	 xmlns="http://www.w3.org/2000/svg" xmlns:xlink="http://www.w3.org/1999/xlink" x="0px" y="0px" viewBox="0 0 501.5 500"
	 style="enable-background:new 0 0 501.5 500;" xml:space="preserve">
<style type="text/css">
	.st0{fill-rule:evenodd;clip-rule:evenodd;fill:#009092;}
	.st1{fill-rule:evenodd;clip-rule:evenodd;fill:#F1F1F1;}
	.st2{fill-rule:evenodd;clip-rule:evenodd;fill:#003E3F;}
	.st3{fill-rule:evenodd;clip-rule:evenodd;fill:#FFFFFF;}
	.st4{fill:none;stroke:#00B9BC;stroke-width:3.8352;stroke-linecap:round;stroke-linejoin:round;stroke-miterlimit:1.4382;}
	.st5{fill-rule:evenodd;clip-rule:evenodd;fill:#00B9BC;}
	.st6{fill:none;}
	.st7{fill:none;stroke:#003E3F;stroke-width:3;stroke-miterlimit:10;}
</style>
<g>
	<g>
		<path class="st0" d="M396.7,259.6c0,0-3.9-0.8-9-1.4c-1.9-0.2-4-0.4-6-0.4s-4.1,0.2-6,0.5c-5.1,0.6-9,1.3-9,1.3
			c-1,0-1.8,0.8-1.8,1.8s0.8,1.8,1.8,1.8c0,0,3.9,0.7,9,1.3c1.9,0.2,4,0.5,6,0.5s4.1-0.2,6-0.4c5.1-0.6,9-1.4,9-1.4
			c1,0,1.8-0.8,1.8-1.8C398.4,260.3,397.6,259.6,396.7,259.6L396.7,259.6z"/>
		<path class="st1" d="M388.5,260.6c0,0-1.8-0.3-4-0.6c-0.9-0.1-1.8-0.2-2.7-0.2s-1.9,0.1-2.7,0.2c-2.3,0.2-4,0.6-4,0.6
			c-0.4,0-0.7,0.3-0.7,0.7s0.3,0.7,0.7,0.7c0,0,1.8,0.3,4,0.6c0.9,0.1,1.8,0.2,2.7,0.2s1.9-0.1,2.7-0.2c2.3-0.2,4-0.6,4-0.6
			c0.4,0,0.7-0.3,0.7-0.7C389.3,261,388.9,260.6,388.5,260.6L388.5,260.6z"/>
		<path class="st2" d="M428.4,253.2c0,1.5,0.6,2.9,1.9,3.8c1.2,0.9,2.7,1.3,4.1,1c2.7-0.6,5.8-1.3,7.3-1.9c2.8-1.3,7.9-2.4,11.3-0.7
			l0,0c0.4,0.2,0.8,0.5,1.1,0.7l9,5.8c0.4,0.2,0.6,0.6,0.6,1s-0.3,0.8-0.8,0.9l-4.4,1c-0.8,0.2-4.3,1.3-5.2,1.6
			c-7.3,2.6-15.9,6.8-15.9,6.8c-2.6,1.2-5.3,1.9-8.2,1.9h-11.8c-1,0-2.1-0.1-3.1-0.2l0,0c-0.9-0.2-1.8-0.4-2.7-0.6l-24.8-6
			c-0.5-0.1-0.8-0.6-0.8-1l0,0c0-0.4-0.2-0.8-0.6-1c-0.8-0.3-2.1-0.8-2.9-1.2c-0.4-0.2-0.7-0.6-0.7-1c0-1.3,0-3.9,0-5.2
			c0-0.5,0.3-0.9,0.7-1c0.8-0.3,2.1-0.8,2.8-1.1c0.4-0.2,0.7-0.6,0.7-1l0,0c0-0.6,0.5-1.1,1.1-1.1c0,0,4.8-0.1,8.3-0.1
			c1.9,0,3.5-1.4,4-3.2c4.4-21.8,21-30.3,27.4-32.9c0.5-0.2,1-0.1,1.3,0.3c0.2,0.2,0.3,0.5,0.3,0.7l0,0l0,0c0,0.1,0,0.2,0,0.2
			L428.4,253.2L428.4,253.2z"/>
		<path class="st0" d="M410.9,274.1l8.1-8.1c0.2-0.2,0.6-0.4,1-0.4h23.1c0.8,0,1.5,0.6,1.5,1.5v3c-1,0.4-2,0.9-2.8,1.3v-2.8h-21.1
			l-6.5,6.5c-0.9-0.2-1.7-0.3-2.5-0.6L410.9,274.1L410.9,274.1z M456.8,257.9l4.4,2.8c-0.1,0-0.2,0-0.2,0h-10.6
			c-0.8,0-1.5-0.6-1.5-1.5c0-0.8,0.6-1.5,1.5-1.5L456.8,257.9L456.8,257.9z M419.4,221.8l5,5c1.4-1,2.7-1.8,4-2.4v3.3
			c-6.6,4-15.6,11.7-19.4,26.1c0,0.1-0.1,0.2-0.2,0.3l0,0c-0.1,0.1-0.2,0.2-0.2,0.3c-0.2,0.2-0.4,0.3-0.6,0.4l0,0
			c-0.2,0.1-0.5,0.1-0.7,0c-0.1,0-0.2-0.1-0.3-0.2l0,0c-0.1-0.1-0.2-0.2-0.3-0.2l-6.5-6.5c0.3-1,0.6-2.1,1-3.1l5.9,5.9
			c0.8-2.5,1.7-4.8,2.7-6.9l-5.7-5.7c0.5-0.9,1-1.7,1.5-2.6l5.6,5.6c1.3-2.2,2.7-4.1,4-5.9l-5.4-5.4c0.6-0.7,1.3-1.4,1.9-2.1
			l5.3,5.3c1.7-1.8,3.4-3.3,5.1-4.7l-5.1-5.1C417.8,222.9,418.6,222.3,419.4,221.8z"/>
		<circle class="st0" cx="404" cy="266.6" r="2.1"/>
		<ellipse class="st0" cx="396.8" cy="266.6" rx="2.1" ry="2.1"/>
	</g>
	<g>
		<path class="st2" d="M366.4,253c-0.2,0.2-0.5,0.4-0.7,0.3c-0.6-0.1-1.4-0.2-2-0.2c-0.4-0.1-0.6-0.4-0.6-0.8
			c0.1-0.8,0.2-2.1,0.3-3.1c0-0.2,0.2-0.5,0.4-0.6c0.2-0.1,0.5-0.1,0.7,0c0.8,0.5,2,1.1,2.7,1.5c0.2,0.1,0.3,0.2,0.3,0.5
			c0.1,0.2,0,0.4-0.1,0.6C367.1,251.8,366.6,252.5,366.4,253L366.4,253z"/>
		<path class="st2" d="M446.7,281.7c-0.1,0.3-0.3,0.5-0.6,0.5c-0.3,0-0.8,0.1-1.1,0.1c-0.4,0-0.7-0.2-0.8-0.6
			c-0.1-0.5-0.2-1.1-0.2-1.7c0-0.2,0.1-0.5,0.2-0.6c0.2-0.2,0.5-0.2,0.7-0.2c0.6,0.2,1.2,0.3,1.7,0.5c0.2,0.1,0.3,0.2,0.5,0.4
			c0.1,0.2,0.1,0.4,0.1,0.6C446.9,281,446.8,281.4,446.7,281.7z"/>
		<path class="st2" d="M355.2,244.7c-0.3,0-0.6-0.2-0.6-0.5c-0.2-0.3-0.3-0.7-0.4-1c-0.2-0.4,0-0.8,0.4-1c0.5-0.2,1-0.5,1.5-0.7
			c0.2-0.1,0.5-0.1,0.7,0.1c0.2,0.2,0.3,0.4,0.3,0.6c0,0.6,0,1.2,0,1.8c0,0.2-0.1,0.4-0.2,0.6c-0.2,0.2-0.3,0.2-0.6,0.2
			C356,244.7,355.5,244.7,355.2,244.7z"/>
		<path class="st2" d="M434.7,290.5c0.1-0.1,0.2-0.2,0.2-0.2c0.1,0,0.2,0,0.3,0.1c0.6,0.5,1.9,1.5,2.7,2.2c0.1,0.1,0.2,0.2,0.2,0.4
			s-0.2,0.2-0.3,0.3c-1.1,0.2-3.1,0.8-4.3,1.1c-0.2,0-0.3,0-0.4-0.2c-0.1-0.1-0.1-0.3-0.1-0.4C433.5,292.8,434.3,291.3,434.7,290.5
			L434.7,290.5z"/>
		<path class="st2" d="M404.5,285.7c0,0.1-0.1,0.2-0.2,0.3c-0.1,0.1-0.2,0.1-0.3,0.1c-0.6-0.2-1.5-0.5-2.2-0.6
			c-0.2-0.1-0.2-0.2-0.2-0.3s0-0.3,0.2-0.4c0.6-0.5,1.6-1.2,2.3-1.8c0.2-0.1,0.3-0.1,0.4,0c0.2,0.1,0.2,0.2,0.2,0.4
			C404.6,284,404.5,285.1,404.5,285.7z"/>
		<path class="st2" d="M379.4,230.1c-0.1-0.1-0.2-0.2-0.1-0.3c0-0.1,0.1-0.2,0.2-0.3c0.7-0.4,2.1-1.3,2.9-1.9c0.2-0.1,0.3-0.1,0.4,0
			c0.2,0.1,0.2,0.2,0.2,0.3c-0.1,1.1-0.2,3.2-0.2,4.4c0,0.2-0.1,0.3-0.2,0.3c-0.2,0.1-0.3,0-0.4-0.1
			C381.3,231.9,380.1,230.7,379.4,230.1z"/>
	</g>
</g>
<g>
	<path class="st0" d="M250.9,247.6c137.7,0.3,249.4,112.3,249.4,250H250.9V247.6L250.9,247.6z"/>
	<path class="st3" d="M250.9,459.7c1.2,0.1,2.4,0.2,3.6,0.1c2.6-0.1,5-0.5,7.2-1.1c1.9-0.6,3.5-1.3,4.8-2.1c0.3-0.2,0.7-0.5,1.2-0.8
		l0,0l0,0l0,0c0.4-0.3,0.9-0.6,1.4-1l0,0c2-1.3,4.4-2.4,7.2-3.2c2.7-0.8,5.8-1.3,9-1.4s6.3,0.2,9.1,0.9c3.5,0.8,6.5,2.2,9,3.9
		c1.5,1,3.5,1.9,5.8,2.3c2.1,0.5,4.4,0.6,6.9,0.6c2.4-0.1,4.7-0.5,6.7-1c2.2-0.6,4-1.5,5.4-2.7l0.5-0.3c2.3-1.7,5.3-3.1,8.7-4.1
		c2.9-0.8,6-1.3,9.4-1.5c3.4-0.1,6.6,0.3,9.6,1c3.8,0.9,7,2.4,9.6,4.2l0.6,0.3c1.3,0.7,2.9,1.3,4.7,1.7c1.9,0.5,4.1,0.6,6.4,0.6
		s4.4-0.5,6.2-1c1.9-0.6,3.5-1.4,4.8-2.3l0.5-0.4c2.5-1.9,5.6-3.4,9.4-4.4c3-0.9,6.4-1.4,9.9-1.5c4.4-0.2,8.5,0.5,12.1,1.6
		c3.2,1,6,2.3,8.2,4l0.5,0.3c1.1,0.6,2.5,1,4,1.5c1.8,0.4,3.8,0.6,5.9,0.5c2-0.1,4-0.4,5.7-1c1.6-0.5,3-1.2,4-2
		c2.3-1.8,5.1-3.3,8.4-4.4c3.7-1.3,8-2.1,12.5-2.2c4.6-0.2,9,0.6,12.7,1.7c3.4,1,6.4,2.5,8.8,4.2c1,0.7,2.3,1,3.9,1.5
		c0.4,0.1,0.9,0.2,1.4,0.2c1.3,7.1,2.3,14.3,3,21.5c-4.3-0.2-8.3-1-11.9-2.3c-3.4-1.2-6.3-2.7-8.6-4.6c-1-0.8-2.3-1.5-3.7-1.9
		c-1.7-0.5-3.5-0.9-5.5-0.9c-2-0.1-3.9,0.1-5.6,0.5c-1.4,0.3-2.7,0.7-3.7,1.3l-0.6,0.4c-2.3,1.6-5.1,3.1-8.3,4
		c-3.7,1-7.9,1.8-12.4,1.6c-3.6-0.1-7.1-0.6-10.2-1.5c-4-1.2-7.5-2.9-10.2-4.9l-0.5-0.3c-1-0.7-2.4-1.4-4-1.9c-1.9-0.6-3.8-0.9-6-1
		s-4.2,0.1-6.1,0.5s-3.5,1-4.8,1.9c-2.2,1.5-4.8,2.9-8,3.8c-3.5,1-7.5,1.6-11.8,1.5c-3.5-0.1-6.8-0.6-9.7-1.5
		c-3.8-1.1-7-2.7-9.5-4.7l-0.5-0.4c-1.2-0.9-2.7-1.6-4.5-2.1c-1.9-0.6-4.1-1-6.5-1c-2.3-0.1-4.6,0.1-6.6,0.6c-1.9,0.4-3.5,1-4.9,1.9
		l-0.6,0.4c-2.5,1.7-5.6,3.1-9.3,4c-2.8,0.6-6,1-9.4,1s-6.5-0.6-9.2-1.4c-3.4-1-6.3-2.4-8.5-4.1l-0.6-0.4c-1.5-1-3.3-1.9-5.4-2.6
		c-2.1-0.6-4.4-1-6.9-1.1s-4.9,0.2-7.1,0.6c-2.4,0.6-4.5,1.4-6.1,2.5c-2.3,1.6-5.2,2.9-8.6,3.7c-2.7,0.6-5.7,1-8.9,0.9
		c-1.2,0-2.4-0.2-3.6-0.2L250.9,459.7L250.9,459.7z M250.9,412.2c1.2,0.1,2.4,0.2,3.6,0.1c2.6-0.1,5-0.5,7.2-1.1
		c1.9-0.6,3.5-1.3,4.8-2.1c0.3-0.2,0.7-0.5,1.2-0.8l0,0l0,0l0,0c0.4-0.3,0.9-0.6,1.4-1l0,0c2-1.3,4.4-2.4,7.2-3.2
		c2.7-0.8,5.8-1.3,9-1.4s6.3,0.2,9.1,0.9c3.5,0.8,6.5,2.2,9,3.9c1.5,1,3.5,1.9,5.8,2.3c2.1,0.5,4.4,0.6,6.9,0.6
		c2.4-0.1,4.7-0.5,6.7-1c2.2-0.6,4-1.5,5.4-2.7l0.5-0.3c2.3-1.7,5.3-3.1,8.7-4.1c2.9-0.8,6-1.3,9.4-1.5c3.4-0.1,6.6,0.3,9.6,1
		c3.8,0.9,7,2.4,9.6,4.2l0.6,0.3c1.3,0.7,2.9,1.3,4.7,1.7c1.9,0.5,4.1,0.6,6.4,0.6c2.3-0.1,4.4-0.5,6.2-1c1.9-0.6,3.5-1.4,4.8-2.3
		l0.5-0.4c2.5-1.9,5.6-3.4,9.4-4.4c3-0.9,6.4-1.4,9.9-1.5c4.4-0.2,8.5,0.5,12.1,1.6c3.2,1,6,2.3,8.2,4l0.5,0.3c1.1,0.6,2.5,1,4,1.5
		c1.8,0.4,3.8,0.6,5.9,0.5c2-0.1,4-0.4,5.7-1c1.6-0.5,3-1.2,4-2c2.3-1.8,5.1-3.3,8.4-4.4c3.7-1.3,8-2.1,12.5-2.2
		c3.6-0.1,7.1,0.3,10.2,1c3.8,8.6,7,17.5,9.8,26.5c-0.7-0.2-1.5-0.4-2.1-0.6c-3.4-1.2-6.3-2.7-8.6-4.6c-1-0.8-2.3-1.5-3.7-1.9
		c-1.7-0.5-3.5-0.9-5.5-0.9c-2-0.1-3.9,0.1-5.6,0.5c-1.4,0.3-2.7,0.7-3.7,1.3L460,419c-2.3,1.6-5.1,3.1-8.3,4
		c-3.7,1-7.9,1.8-12.4,1.6c-3.6-0.1-7.1-0.6-10.2-1.5c-4-1.2-7.5-2.9-10.2-4.9l-0.5-0.3c-1-0.7-2.4-1.4-4-1.9c-1.9-0.6-3.8-0.9-6-1
		s-4.2,0.1-6.1,0.5s-3.5,1-4.8,1.9c-2.2,1.5-4.8,2.9-8,3.8c-3.5,1-7.5,1.6-11.8,1.5c-3.5-0.1-6.8-0.6-9.7-1.5
		c-3.8-1.1-7-2.7-9.5-4.7l-0.5-0.4c-1.2-0.9-2.7-1.6-4.5-2.1c-1.9-0.6-4.1-1-6.5-1c-2.3-0.1-4.6,0.1-6.6,0.6c-1.9,0.4-3.5,1-4.9,1.9
		l-0.6,0.4c-2.5,1.7-5.6,3.1-9.3,4c-2.8,0.6-6,1-9.4,1c-3.3-0.1-6.5-0.6-9.2-1.4c-3.4-1-6.3-2.4-8.5-4.1l-0.6-0.4
		c-1.5-1-3.3-1.9-5.4-2.6s-4.4-1-6.9-1.1s-4.9,0.2-7.1,0.6c-2.4,0.6-4.5,1.4-6.1,2.5c-2.3,1.6-5.2,2.9-8.6,3.7
		c-2.7,0.6-5.7,1-8.9,0.9c-1.2,0-2.4-0.2-3.6-0.2L250.9,412.2L250.9,412.2z M250.9,362.7c1.2,0.1,2.4,0.2,3.6,0.1
		c2.6-0.1,5-0.5,7.2-1.1c1.9-0.6,3.5-1.3,4.8-2.1c0.3-0.2,0.7-0.5,1.2-0.8l0,0l0,0l0,0c0.4-0.3,0.9-0.6,1.4-1l0,0
		c2-1.3,4.4-2.4,7.2-3.2c2.7-0.8,5.8-1.3,9-1.4s6.3,0.2,9.1,0.9c3.5,0.8,6.5,2.2,9,3.9c1.5,1,3.5,1.9,5.8,2.3
		c2.1,0.5,4.4,0.6,6.9,0.6c2.4-0.1,4.7-0.5,6.7-1c2.2-0.6,4-1.5,5.4-2.7l0.5-0.3c2.3-1.7,5.3-3.1,8.7-4.1c2.9-0.8,6-1.3,9.4-1.5
		c3.4-0.1,6.6,0.3,9.6,1c3.8,0.9,7,2.4,9.6,4.2l0.6,0.3c1.3,0.7,2.9,1.3,4.7,1.7c1.9,0.5,4.1,0.6,6.4,0.6c2.3-0.1,4.4-0.5,6.2-1
		c1.9-0.6,3.5-1.4,4.8-2.3l0.5-0.4c2.5-1.9,5.6-3.4,9.4-4.4c3-0.9,6.4-1.4,9.9-1.5c4.4-0.2,8.5,0.5,12.1,1.6c3.2,1,6,2.3,8.2,4
		l0.5,0.3c1.1,0.6,2.5,1,4,1.5c1.8,0.4,3.8,0.6,5.9,0.5c2-0.1,4-0.4,5.7-1c1.6-0.5,3-1.2,4-2c1.3-1,2.8-1.9,4.4-2.8
		c3.8,5.2,7.3,10.6,10.7,16.1c-1.4,0.3-2.6,0.6-3.6,1.2l-0.6,0.4c-2.3,1.6-5.1,3.1-8.3,4c-3.7,1-7.9,1.8-12.4,1.6
		c-3.6-0.1-7.1-0.6-10.2-1.5c-4-1.2-7.5-2.9-10.2-4.9l-0.5-0.3c-1-0.7-2.4-1.4-4-1.9c-1.9-0.6-3.8-0.9-6-1s-4.2,0.1-6.1,0.5
		s-3.5,1-4.8,1.9c-2.2,1.5-4.8,2.9-8,3.8c-3.5,1-7.5,1.6-11.8,1.5c-3.5-0.1-6.8-0.6-9.7-1.5c-3.8-1.1-7-2.7-9.5-4.7l-0.5-0.4
		c-1.2-0.9-2.7-1.6-4.5-2.1c-1.9-0.6-4.1-1-6.5-1c-2.3-0.1-4.6,0.1-6.6,0.6c-1.9,0.4-3.5,1-4.9,1.9l-0.7,0.4c-2.5,1.7-5.6,3.1-9.3,4
		c-2.8,0.6-6,1-9.4,1c-3.3-0.1-6.5-0.6-9.2-1.4c-3.4-1-6.3-2.4-8.5-4.1l-0.6-0.4c-1.5-1-3.3-1.9-5.4-2.6c-2.1-0.6-4.4-1-6.9-1.1
		s-4.9,0.2-7.1,0.6c-2.4,0.6-4.5,1.4-6.1,2.5c-2.3,1.6-5.2,2.9-8.6,3.7c-2.7,0.6-5.7,1-8.9,0.9c-1.2,0-2.4-0.2-3.6-0.2L250.9,362.7
		L250.9,362.7z M405.2,301.5c9.5,7.5,18.4,15.6,26.7,24.4c-1.1-0.2-2.3-0.5-3.4-0.8c-4-1.2-7.5-2.9-10.2-4.9l-0.5-0.3
		c-1-0.7-2.4-1.4-4-1.9c-1.9-0.6-3.8-0.9-6-1s-4.2,0.1-6.1,0.5s-3.5,1-4.8,1.9c-2.2,1.5-4.8,2.9-8,3.8c-3.5,1-7.5,1.6-11.8,1.5
		c-3.5-0.1-6.8-0.6-9.7-1.5c-3.8-1.1-7-2.7-9.5-4.7l-0.5-0.4c-1.2-0.9-2.7-1.6-4.5-2.1c-1.9-0.6-4.1-1-6.5-1
		c-2.3-0.1-4.6,0.1-6.6,0.6c-1.9,0.4-3.5,1-4.9,1.9l-0.6,0.4c-2.5,1.7-5.6,3.1-9.3,4c-2.8,0.6-6,1-9.4,1c-3.3-0.1-6.5-0.6-9.2-1.4
		c-3.4-1-6.3-2.4-8.5-4.1l-0.6-0.4c-1.5-1-3.3-1.9-5.4-2.6c-2.1-0.6-4.4-1-6.9-1.1s-4.9,0.2-7.1,0.6c-2.4,0.6-4.5,1.4-6.1,2.5
		c-2.3,1.6-5.2,2.9-8.6,3.7c-2.7,0.6-5.7,1-8.9,0.9c-1.2,0-2.4-0.2-3.6-0.2v-6c1.2,0.1,2.4,0.2,3.6,0.1c2.6-0.1,5-0.5,7.2-1.1
		c1.9-0.6,3.5-1.3,4.8-2.1c0.3-0.2,0.7-0.5,1.2-0.8l0,0l0,0l0,0c0.4-0.3,0.9-0.6,1.4-1l0,0c2-1.3,4.4-2.4,7.2-3.2
		c2.7-0.8,5.8-1.3,9-1.4s6.3,0.2,9.1,0.9c3.5,0.8,6.5,2.2,9,3.9c1.5,1,3.5,1.9,5.8,2.3c2.1,0.5,4.4,0.6,6.9,0.6
		c2.4-0.1,4.7-0.5,6.7-1c2.2-0.6,4-1.5,5.4-2.7l0.5-0.3c2.3-1.7,5.3-3.1,8.7-4.1c2.9-0.8,6-1.3,9.4-1.5c3.4-0.1,6.6,0.3,9.6,1
		c3.8,0.9,7,2.4,9.6,4.2l0.6,0.3c1.3,0.7,2.9,1.3,4.7,1.7c1.9,0.5,4.1,0.6,6.4,0.6c2.3-0.1,4.4-0.5,6.2-1c1.9-0.6,3.5-1.4,4.8-2.3
		l0.5-0.4c2.5-1.9,5.6-3.4,9.4-4.4C400.3,302.2,402.7,301.7,405.2,301.5L405.2,301.5z"/>
</g>
<path class="st4" d="M250.9,249.2v248.5H1.9c0-137.1,111.3-248.5,248.5-248.5L250.9,249.2L250.9,249.2z"/>
<g>
	<path class="st5" d="M85.4,308.6c-9-3-15.1-11.4-15.1-20.9V182.3c0-10.7,7.2-20.2,17.5-23c1.4-0.4,2.8-0.8,4.2-1.2
		c10.3-2.9,17.5-12.3,17.5-23v-1.7c0-6.4,2.5-12.4,7-16.9s10.6-7,16.9-7c6.9,0,14.4,0,21.3,0c6.4,0,12.4,2.5,16.9,7s7,10.6,7,16.9
		v20.2c0,9.3,5.3,17.7,13.7,21.6c1,0.5,2.1,1,3.1,1.5c8.4,4,13.7,12.3,13.7,21.6v90.8c0,8.5-4.8,16.2-12.3,20
		c-0.6,0.3-1.3,0.6-1.9,1c-4.1,2.1-7.3,5.7-8.5,10.2l0,0c-2.5,8.5-10.4,14.4-19.3,14.4c-13.6,0-33.7,0-47,0
		c-8.6,0-16.6-4.7-20.8-12.2c-0.9-1.6-1.8-3.1-2.6-4.6C94.2,313.5,90.2,310.2,85.4,308.6L85.4,308.6L85.4,308.6z"/>
	<path class="st1" d="M163.2,257.8l-4.2,4.4c-0.6,0.6-0.6,1.5,0.1,2c0.6,0.6,1.5,0.6,2-0.1l4.2-4.4c0.6-0.6,0.6-1.5-0.1-2
		C164.7,257.2,163.8,257.2,163.2,257.8z"/>
	<path class="st1" d="M152.9,185.5l-4.2,4.4c-0.6,0.6-0.6,1.5,0.1,2c0.6,0.6,1.5,0.6,2-0.1l4.2-4.4c0.6-0.6,0.6-1.5-0.1-2
		C154.3,184.9,153.4,184.9,152.9,185.5z"/>
	<path class="st1" d="M111.5,193.2l4.2,4.4c0.6,0.6,1.5,0.6,2,0.1c0.6-0.6,0.6-1.5,0.1-2l-4.2-4.4c-0.6-0.6-1.5-0.6-2-0.1
		C110.9,191.8,110.9,192.6,111.5,193.2z"/>
	<path class="st1" d="M92.2,280l4.2,4.4c0.6,0.6,1.5,0.6,2,0.1c0.6-0.6,0.6-1.5,0.1-2l-4.2-4.4c-0.6-0.6-1.5-0.6-2-0.1
		C91.8,278.5,91.8,279.4,92.2,280z"/>
	<path class="st1" d="M124.6,130.1l4.2,4.4c0.6,0.6,1.5,0.6,2,0.1c0.6-0.6,0.6-1.5,0.1-2l-4.2-4.4c-0.6-0.6-1.5-0.6-2-0.1
		C124.1,128.6,124,129.5,124.6,130.1z"/>
	<path class="st1" d="M173.1,312l-4.2,4.4c-0.6,0.6-0.6,1.5,0.1,2c0.6,0.6,1.5,0.6,2-0.1l4.2-4.4c0.6-0.6,0.6-1.5-0.1-2
		C174.6,311.4,173.7,311.4,173.1,312z"/>
	<path class="st1" d="M185.9,205.5l-4.2,4.4c-0.6,0.6-0.6,1.5,0.1,2c0.6,0.6,1.5,0.6,2-0.1l4.2-4.4c0.6-0.6,0.6-1.5-0.1-2
		C187.4,205,186.5,205,185.9,205.5L185.9,205.5z"/>
	<path class="st1" d="M166.8,245.7l-2.1,2.2c-0.6,0.6-0.6,1.5,0.1,2c0.6,0.6,1.5,0.6,2-0.1l2.1-2.2c0.6-0.6,0.6-1.5-0.1-2
		C168.1,245.1,167.2,245.1,166.8,245.7z"/>
	<path class="st1" d="M155,170.2l-2.1,2.2c-0.6,0.6-0.6,1.5,0.1,2c0.6,0.6,1.5,0.6,2-0.1l2.1-2.2c0.6-0.6,0.6-1.5-0.1-2
		C156.4,169.7,155.5,169.7,155,170.2z"/>
	<path class="st1" d="M166,140.9l-2.1,2.2c-0.6,0.6-0.6,1.5,0.1,2c0.6,0.6,1.5,0.6,2-0.1l2.1-2.2c0.6-0.6,0.6-1.5-0.1-2
		C167.5,140.3,166.6,140.3,166,140.9z"/>
	<path class="st1" d="M99.1,199.7l2.1,2.2c0.6,0.6,1.5,0.6,2,0.1c0.6-0.6,0.6-1.5,0.1-2l-2.1-2.2c-0.6-0.6-1.5-0.6-2-0.1
		C98.6,198.2,98.6,199.1,99.1,199.7z"/>
	<path class="st1" d="M97.8,299.7l2.1,2.2c0.6,0.6,1.5,0.6,2,0.1c0.6-0.6,0.6-1.5,0.1-2l-2.1-2.2c-0.6-0.6-1.5-0.6-2-0.1
		C97.3,298.2,97.3,299.1,97.8,299.7z"/>
	<path class="st1" d="M109.2,164.6l2.1,2.2c0.6,0.6,1.5,0.6,2,0.1c0.6-0.6,0.6-1.5,0.1-2l-2.1-2.2c-0.6-0.6-1.5-0.6-2-0.1
		C108.6,163,108.6,163.9,109.2,164.6L109.2,164.6z"/>
	<path class="st1" d="M115.8,242.6l2.1,2.2c0.6,0.6,1.5,0.6,2,0.1c0.6-0.6,0.6-1.5,0.1-2l-2.1-2.2c-0.6-0.6-1.5-0.6-2-0.1
		C115.2,241.2,115.2,242.1,115.8,242.6L115.8,242.6z"/>
	<path class="st1" d="M187,192.3l-2.1,2.2c-0.6,0.6-0.6,1.5,0.1,2c0.6,0.6,1.5,0.6,2-0.1l2.1-2.2c0.6-0.6,0.6-1.5-0.1-2
		C188.4,191.8,187.6,191.8,187,192.3z"/>
	<path class="st1" d="M189.5,250.4l-2.1,2.2c-0.6,0.6-0.6,1.5,0.1,2c0.6,0.6,1.5,0.6,2-0.1l2.1-2.2c0.6-0.6,0.6-1.5-0.1-2
		C190.9,249.8,190,249.8,189.5,250.4z"/>
</g>
<g>
	<path class="st2" d="M133.5,281.5c0.1-5.2,0.2-10.3,0.4-15.4c1-24.4,2.4-45.7,2.4-45.7c0-1.9,1.5-3.4,3.4-3.4s3.4,1.5,3.4,3.4
		c0,0,1.5,21.4,2.4,45.7c0.2,6.8,0.4,13.7,0.5,20.6c0.1,5.7,0.2,11.4,0.2,16.6c2.3-2.2,4.8-4.6,7.3-7c2.6-2.4,5.2-4.9,7.9-7.3
		c9.6-8.5,18.3-15.4,18.3-15.4c1.1-1.1,2.9-1.1,4,0s1.1,2.9,0,4c0,0-6.9,8.7-15.4,18.3c-2.3,2.7-4.8,5.3-7.3,7.9
		c-5.9,6.3-11.5,12-14.8,15.2c0.1,9.5,0.1,15.6,0.1,15.6v115.1c0,3.7-3.1,6.8-6.8,6.8s-6.8-3.1-6.8-6.8v-115c0,0,0-16.8,0.3-37.5
		c-3.2-3.3-9.4-9.5-15.8-16.3c-2.6-2.7-5.2-5.5-7.7-8.2c-8.9-10-16.2-19.1-16.2-19.1c-1.1-1.1-1.1-2.9,0-4s2.9-1.1,4,0
		c0,0,6.6,5.3,14.8,12.3c0.8-0.7,2.2-2,3.7-3.3c0.6-0.6,1.4-1.1,2.1-1.6c2.7-1.8,5.2-2.8,5.2-2.8c0.9-0.9,2.3-0.9,3.3,0
		c0.9,0.9,0.9,2.3,0,3.3c0,0-1,2.4-2.8,5.2c-0.5,0.7-1,1.4-1.6,2.1c-1.1,1.3-2.2,2.5-3,3.3c1.9,1.8,3.8,3.5,5.7,5.3
		C128,276.2,130.9,279,133.5,281.5L133.5,281.5z"/>
	<path class="st5" d="M138.7,402.6v-3c0-0.8-0.6-1.5-1.5-1.5c-0.8,0-1.5,0.6-1.5,1.5v3c0,0.8,0.6,1.5,1.5,1.5
		C138,404,138.7,403.3,138.7,402.6z"/>
	<path class="st5" d="M122.9,275.8l-2.1-2.1c-0.6-0.6-1.5-0.6-2,0c-0.6,0.6-0.6,1.5,0,2l2.1,2.1c0.6,0.6,1.5,0.6,2,0
		C123.4,277.2,123.4,276.4,122.9,275.8z"/>
	<path class="st5" d="M142.6,345.1v-3c0-0.8-0.6-1.5-1.5-1.5c-0.8,0-1.5,0.6-1.5,1.5v3c0,0.8,0.6,1.5,1.5,1.5
		C141.9,346.6,142.6,346,142.6,345.1z"/>
	<path class="st5" d="M141.5,390.5v-1c0-0.8-0.6-1.5-1.5-1.5c-0.8,0-1.5,0.6-1.5,1.5v1c0,0.8,0.6,1.5,1.5,1.5
		C140.9,391.9,141.5,391.3,141.5,390.5z"/>
	<path class="st5" d="M157.5,302.6l0.7-0.7c0.6-0.6,0.6-1.5,0-2s-1.5-0.6-2,0l-0.7,0.7c-0.6,0.6-0.6,1.5,0,2
		S156.9,303.2,157.5,302.6z"/>
	<path class="st5" d="M146.3,299.3c0,1.4,0,2.7,0.1,4c0.2-0.2,0.5-0.5,0.8-0.7l-3,3.1c-0.6,0.6-1.5,0.6-2,0.1
		c-0.6-0.6-0.6-1.5-0.1-2L146.3,299.3z"/>
</g>
<g>
	<path class="st5" d="M56.7,442.8c0.5-0.9,0.8-1.9,1-2.9c4.2-19.4,21.5-34,42.2-34c20.6,0,37.8,14.4,42.1,33.6
		c1.1,5.1,5.4,9,10.6,9.5c23,2.7,42.2,24.4,42.2,47.4c0,0.4,0,0.8,0,1.1H21.6c0.1-20.4,11-38.2,27.3-48.1c4.7-2.7,10.5-5.1,17.4-6.5
		c0.8-0.2,1.3-0.9,1.1-1.7c-0.2-0.8-0.9-1.3-1.7-1.1C62.5,440.9,59.5,441.8,56.7,442.8L56.7,442.8z"/>
	<path class="st1" d="M76,434.4l4.2,4.4c0.6,0.6,1.5,0.6,2,0.1c0.6-0.6,0.6-1.5,0.1-2l-4.2-4.4c-0.6-0.6-1.5-0.6-2-0.1
		C75.5,433,75.5,433.9,76,434.4L76,434.4z"/>
	<path class="st1" d="M34.4,485.9l4.2,4.4c0.6,0.6,1.5,0.6,2,0.1c0.6-0.6,0.6-1.5,0.1-2l-4.2-4.4c-0.6-0.6-1.5-0.6-2-0.1
		C33.9,484.4,33.9,485.3,34.4,485.9z"/>
	<path class="st1" d="M133.2,453.5l-4.2,4.4c-0.6,0.6-0.6,1.5,0.1,2c0.6,0.6,1.5,0.6,2-0.1l4.2-4.4c0.6-0.6,0.6-1.5-0.1-2
		C134.7,452.9,133.8,452.9,133.2,453.5L133.2,453.5z"/>
	<path class="st1" d="M78.4,487.7l4.2,4.4c0.6,0.6,1.5,0.6,2,0.1c0.6-0.6,0.6-1.5,0.1-2l-4.2-4.4c-0.6-0.6-1.5-0.6-2-0.1
		C77.9,486.3,77.8,487.2,78.4,487.7L78.4,487.7z"/>
	<path class="st1" d="M123.1,434.7l-4.2,4.4c-0.6,0.6-0.6,1.5,0.1,2c0.6,0.6,1.5,0.6,2-0.1l4.2-4.4c0.6-0.6,0.6-1.5-0.1-2
		C124.6,434.2,123.7,434.2,123.1,434.7L123.1,434.7z"/>
	<path class="st1" d="M80.2,424.5l2.1,2.2c0.6,0.6,1.5,0.6,2,0.1c0.6-0.6,0.6-1.5,0.1-2l-2.1-2.2c-0.6-0.6-1.5-0.6-2-0.1
		C79.7,423,79.7,423.9,80.2,424.5L80.2,424.5z"/>
	<path class="st1" d="M38.4,470.4l2.1,2.2c0.6,0.6,1.5,0.6,2,0.1c0.6-0.6,0.6-1.5,0.1-2l-2.1-2.2c-0.6-0.6-1.5-0.6-2-0.1
		C37.9,468.9,37.9,469.8,38.4,470.4z"/>
	<path class="st1" d="M123.6,424.3l-2.1,2.2c-0.6,0.6-0.6,1.5,0.1,2c0.6,0.6,1.5,0.6,2-0.1l2.1-2.2c0.6-0.6,0.6-1.5-0.1-2
		C125.1,423.8,124.2,423.8,123.6,424.3L123.6,424.3z"/>
	<path class="st1" d="M110.9,413.4l-2.1,2.2c-0.6,0.6-0.6,1.5,0.1,2c0.6,0.6,1.5,0.6,2-0.1l2.1-2.2c0.6-0.6,0.6-1.5-0.1-2
		C112.4,412.8,111.5,412.8,110.9,413.4z"/>
	<path class="st1" d="M46,486.5l2.1,2.2c0.6,0.6,1.5,0.6,2,0.1c0.6-0.6,0.6-1.5,0.1-2l-2.1-2.2c-0.6-0.6-1.5-0.6-2-0.1
		C45.5,485.1,45.5,486,46,486.5L46,486.5z"/>
	<path class="st1" d="M121.8,486.5l-2.1,2.2c-0.6,0.6-0.6,1.5,0.1,2c0.6,0.6,1.5,0.6,2-0.1l2.1-2.2c0.6-0.6,0.6-1.5-0.1-2
		C123.2,486,122.3,486,121.8,486.5z"/>
	<path class="st1" d="M134.7,473l-2.1,2.2c-0.6,0.6-0.6,1.5,0.1,2c0.6,0.6,1.5,0.6,2-0.1l2.1-2.2c0.6-0.6,0.6-1.5-0.1-2
		C136.2,472.4,135.3,472.4,134.7,473z"/>
	<path class="st1" d="M161.2,481.3l-4.2,4.4c-0.6,0.6-0.6,1.5,0.1,2c0.6,0.6,1.5,0.6,2-0.1l4.2-4.4c0.6-0.6,0.6-1.5-0.1-2
		C162.6,480.6,161.8,480.7,161.2,481.3L161.2,481.3z"/>
	<path class="st1" d="M157.2,465.7l-2.1,2.2c-0.6,0.6-0.6,1.5,0.1,2c0.6,0.6,1.5,0.6,2-0.1l2.1-2.2c0.6-0.6,0.6-1.5-0.1-2
		C158.6,465.1,157.7,465.1,157.2,465.7z"/>
</g>
<g>
	<path class="st2" d="M100.2,435.5c2.4,0,4.4,0.8,4.4,4.8s-2,9.5-4.4,9.5s-4.4-5.6-4.4-9.5C95.8,436.4,97.7,435.5,100.2,435.5z"/>
	<path class="st2" d="M100.1,469c-2.4,0-4.4-0.8-4.4-4.8s2-9.5,4.4-9.5s4.4,5.6,4.4,9.5S102.6,469,100.1,469z"/>
	<path class="st1" d="M88,440.1c1.8-1.8,3.7-2.6,6.5,0.2c2.8,2.8,5.3,8.1,3.6,9.8c-1.8,1.8-7.1-0.8-9.8-3.6
		C85.4,443.8,86.2,441.8,88,440.1L88,440.1z"/>
	<path class="st1" d="M112.5,464.4c-1.8,1.8-3.7,2.6-6.5-0.2c-2.8-2.8-5.3-8.1-3.5-9.8c1.8-1.8,7.1,0.8,9.8,3.6
		C115,460.7,114.2,462.7,112.5,464.4z"/>
	<path class="st1" d="M112.5,440.1c-1.8-1.8-3.7-2.6-6.5,0.2c-2.8,2.8-5.3,8.1-3.5,9.8c1.8,1.8,7.1-0.8,9.8-3.6
		C115,443.8,114.2,441.8,112.5,440.1L112.5,440.1z"/>
	<path class="st1" d="M88,464.4c1.8,1.8,3.7,2.6,6.5-0.2c2.8-2.8,5.3-8.1,3.6-9.8c-1.8-1.8-7.1,0.8-9.8,3.6
		C85.4,460.7,86.2,462.7,88,464.4z"/>
	<path class="st2" d="M117.2,452.3c0,2.4-0.8,4.4-4.8,4.4s-9.5-2-9.5-4.4s5.6-4.4,9.5-4.4C116.4,447.9,117.2,449.8,117.2,452.3z"/>
	<path class="st2" d="M83.2,452.3c0,2.4,0.8,4.4,4.8,4.4s9.5-2,9.5-4.4s-5.6-4.4-9.5-4.4S83.2,449.8,83.2,452.3z"/>
	<circle class="st5" cx="100.2" cy="452.2" r="4.5"/>
	<path class="st2" d="M98.8,475.9v-13.1c0-0.8,0.6-1.5,1.5-1.5s1.5,0.6,1.5,1.5v9.6l4.4-1.9c0.5-0.2,1-0.1,1.4,0.4
		c0.3,0.4,0.2,1-0.1,1.4l-5.7,6.4v19.1c0,0.8-0.6,1.5-1.5,1.5s-1.5-0.6-1.5-1.5v-12.4l-6.3-10.7c-0.2-0.4-0.2-1,0.2-1.4
		c0.3-0.3,0.9-0.4,1.4-0.2L98.8,475.9z"/>
</g>
<g>
	<path class="st2" d="M67.3,484.7v-22c0-0.8,0.6-1.5,1.5-1.5s1.5,0.6,1.5,1.5v34.9c0,0.8-0.6,1.5-1.5,1.5s-1.5-0.6-1.5-1.5v-5.4
		l-4.9-6.3c-0.2-0.3-0.3-0.9-0.1-1.2c0.2-0.4,0.6-0.6,1.1-0.6L67.3,484.7z"/>
	<g>
		<path class="st1" d="M68.8,458.3c0.4-0.6,0.9-1,1.4-1.5c3.1-3.1,6.5-3.5,8.5-1.5c1.9,1.9,1.6,5.4-1.5,8.5c-0.5,0.5-1,0.9-1.5,1.4
			c0.6,0.4,1,0.9,1.5,1.4c3.1,3.1,3.5,6.5,1.5,8.5c-1.9,1.9-5.4,1.6-8.5-1.5c-0.5-0.5-0.9-1-1.4-1.5c-0.4,0.6-0.9,1-1.4,1.5
			c-3.1,3.1-6.5,3.5-8.5,1.5c-1.9-1.9-1.6-5.4,1.5-8.5c0.5-0.5,1-0.9,1.5-1.4c-0.6-0.4-1-0.9-1.5-1.4c-3.1-3.1-3.5-6.5-1.5-8.5
			c1.9-1.9,5.4-1.6,8.5,1.5C67.9,457.2,68.4,457.7,68.8,458.3z"/>
		<circle class="st2" cx="68.8" cy="465.1" r="3.9"/>
	</g>
</g>
<g>
	<path class="st2" d="M366.5,457.7c1.5,0,2.8,0.6,2.8,3.1s-1.3,6.1-2.8,6.1s-2.8-3.5-2.8-6.1C363.6,458.3,364.9,457.7,366.5,457.7z"
		/>
	<path class="st2" d="M374.3,460.7c-1.1-1.1-2.4-1.6-4.2,0.2s-3.4,5.2-2.3,6.3c1.1,1.1,4.5-0.5,6.3-2.3
		C375.9,463.1,375.5,461.8,374.3,460.7z"/>
	<path class="st2" d="M379.2,486.5c-1.1,1.1-2.4,1.6-4.2-0.2s-3.4-5.2-2.3-6.3c1.1-1.1,4.5,0.5,6.3,2.3
		C380.8,484.2,380.3,485.5,379.2,486.5z"/>
	<path class="st2" d="M355.6,468.5c0,1.5,0.6,2.8,3.1,2.8s6.1-1.3,6.1-2.8s-3.5-2.8-6.1-2.8S355.6,467,355.6,468.5z"/>
	<path class="st2" d="M359.7,485.9c0.5-1,1.1-1.9,1.9-2.7c0.5-0.5,1-1,1.5-1.5c1.4-1.4,2.1-3.1,2.1-5.1c0-2.6,0-5.6,0-5.6
		c0-0.8,0.6-1.5,1.5-1.5s1.5,0.6,1.5,1.5c0,0,0,3,0,5.6c0,2.7-1,5.2-2.9,7.1c-0.5,0.5-1,1-1.5,1.5c-1.4,1.4-2.1,3.1-2.1,5.1v5.9
		c0,0.8-0.6,1.5-1.5,1.5c-0.8,0-1.5-0.6-1.5-1.5V492l-3.9-6.6c-0.2-0.4-0.2-1,0.2-1.4c0.3-0.3,0.9-0.4,1.4-0.2L359.7,485.9
		L359.7,485.9z"/>
	<circle class="st2" cx="366.5" cy="468.5" r="2.9"/>
</g>
<path class="st2" d="M388.7,497.6v-5.1c0-0.8-0.6-1.5-1.5-1.5s-1.5,0.6-1.5,1.5v5.1c0,0.8,0.6,1.5,1.5,1.5S388.7,498.5,388.7,497.6z
	"/>
<path class="st2" d="M459.3,497.6v-5.1c0-0.8-0.6-1.5-1.5-1.5c-0.8,0-1.5,0.6-1.5,1.5v5.1c0,0.8,0.6,1.5,1.5,1.5
	C458.6,499.1,459.3,498.5,459.3,497.6z"/>
<path class="st2" d="M394.5,497.6v-10.1c0-0.8-0.6-1.5-1.5-1.5c-0.8,0-1.5,0.6-1.5,1.5v10.1c0,0.8,0.6,1.5,1.5,1.5
	S394.5,498.5,394.5,497.6z"/>
<g>
	<path class="st2" d="M421.3,442c0.4,0.4,1,0.5,1.6,0.2c0.6-0.2,0.9-0.8,0.9-1.4c0-8.8,0-31.8,0-41.5c0-0.6,0.4-1.2,1-1.5
		c0.6-0.2,1.3,0,1.7,0.5c0.6,0.7,1.1,1.5,1.7,2.2c0.3,0.5,0.9,0.6,1.5,0.6c0.6-0.1,1-0.5,1.2-1c0.8-2.6,2-6.3,2.7-8.7
		c0.2-0.6,0.6-1,1.2-1c0.6-0.1,1.1,0.2,1.5,0.6c0.6,1.1,1.1,2.4,1.1,3.9v19c0,0.6,0.3,1,0.8,1.3c0.5,0.2,1,0.2,1.5-0.2l0,0
		c2.3-1.8,4.4-3.3,6.1-4.5c0.2-0.2,0.5-0.2,0.7-0.2c0.7-0.1,2.3-0.2,3.5-0.3c0.5-0.1,1,0.2,1.3,0.6s0.4,0.9,0.3,1.4
		c-0.5,1.9-1.2,4.4-1.5,5.2c-0.1,0.2-0.2,0.3-0.2,0.5c-1,1.4-2.2,3-3.4,4.6c-1.1,1.5-2.3,2.8-3.6,4.2c-1.9,2.1-3.7,4-5.2,5.6
		c-0.2,0.2-0.4,0.6-0.4,1c0,6.6,0,64.7,0,64.7c0,0.2-13.5,0.2-13.5,0V461c0-0.4-0.2-0.8-0.4-1c-2.5-2.6-6.1-6.3-9.9-10.4
		c-1.9-1.9-3.7-4-5.4-6c-1.8-2.1-3.4-4.1-4.8-5.9c-0.2-0.2-0.2-0.4-0.3-0.6c-0.1-0.2-0.2-0.7-0.2-1.2c-0.2-0.6,0.1-1.3,0.6-1.6
		s1.2-0.3,1.7,0.1c0.8,0.6,1.6,1.2,2.4,1.8c0.4,0.3,1,0.3,1.4,0.1c0.5-0.2,0.7-0.7,0.6-1.2l0,0c0-0.6,0.2-1,0.7-1.3
		c0.5-0.2,1-0.2,1.5,0.2c1.1,0.9,2.3,1.9,3.4,2.8c2,1.7,4,3.6,6,5.4C421.1,441.8,421.2,441.9,421.3,442L421.3,442z"/>
	<path class="st2" d="M423.5,459.8l5.8,6c0.6,0.6,0.6,1.5-0.1,2c-0.6,0.6-1.5,0.6-2-0.1l-3.5-3.5v-3.5
		C423.9,460.4,423.7,460.1,423.5,459.8L423.5,459.8z"/>
	<path class="st0" d="M430.6,487.6v-3c0-0.8-0.6-1.5-1.5-1.5c-0.8,0-1.5,0.6-1.5,1.5v3c0,0.8,0.6,1.5,1.5,1.5
		C430,489,430.6,488.4,430.6,487.6z"/>
	<path class="st0" d="M430.6,428.7v-0.9c0-0.8-0.6-1.5-1.5-1.5c-0.8,0-1.5,0.6-1.5,1.5v0.9c0,0.8,0.6,1.5,1.5,1.5
		C430,430.1,430.6,429.4,430.6,428.7z"/>
	<path class="st0" d="M434.2,477.6v-1.1c0-0.8-0.6-1.5-1.5-1.5s-1.5,0.6-1.5,1.5v1c0,0.8,0.6,1.5,1.5,1.5S434.2,478.3,434.2,477.6z"
		/>
</g>
<g>
	<path class="st1" d="M83.8,176.8c1.6-0.7,0.9,0.6,0.5,1.5l0,0c-3.1,5.8-4.9,12.5-4.9,19.5c0,8.8,2.7,16.9,7.5,23.6
		c3.7-0.2,5.7-1.4,9.6-3.1c3.8-1.8,11.9-3.2,14.2,2.5c0,0.1,0.1,0.1,0.1,0.2l0,0c0.2,0.6,1,3.1,0.1,6.9c-7.8,2.4-18.5,7.7-18.5,7.7
		c-2.6,1.2-5.3,1.9-8.2,1.9h-12c-2.5,0-5-0.5-7.3-1.5c-3.5-1.5-8.9-3.8-12-5.1c-1.6-0.6-3.3-1-5.1-1h-9c-1.5,0-3-0.5-4.3-1.3
		c-0.9-0.6-2-1.4-2.9-2c-0.3-0.2-0.4-0.6-0.3-1c0.1-0.3,0.4-0.6,0.8-0.6c5.7,0,18.5,0,18.5,0s2.9-0.9,8.7-1.8
		c-3.5-3.2-5.9-7-6.5-10.9c7.6,2.3,9,0,9,0c-10.8-6.4-9-17.6-9-17.6c3.7,6.4,10.6,7.7,10.6,7.7c-5.3-11.3,2.4-20.5,2.4-20.5
		c-0.5,9.8,4,13,4,13c2.3-10.5,9.2-15.6,13.1-17.8c0.1,0,0.1-0.1,0.2-0.1C83.4,176.9,83.5,176.8,83.8,176.8L83.8,176.8z"/>
	<path class="st2" d="M89.9,221c0.5,0.7,1.2,1.6,1.9,2.2c0.6,0.5,0.7,1.4,0.2,2s-1.4,0.7-2,0.2c-1.3-1-2.6-2.9-3.2-4l0,0
		C88,221.4,88.9,221.3,89.9,221z"/>
	<path class="st2" d="M110.7,221l7.2,3.1c0.4,0.2,0.6,0.6,0.6,1s-0.3,0.8-0.8,0.9l-4.4,1c-0.8,0.2-1.6,0.4-2.5,0.7
		C111.7,224.3,110.9,221.8,110.7,221L110.7,221z"/>
	<path class="st2" d="M47.7,228.5h0.2c1.9,0,3.9,0.4,5.6,1.1c3.1,1.3,8.5,3.5,12,5.1c0.7,0.3,1,1.1,0.7,1.9c-0.3,1-1.2,1-1.5,1
		c0,0-4.6,1-10.6,0.6c-3.3-0.2-6.9-0.7-10.4-1.9c-0.8-0.2-1.3-1-1-1.9c0.2-0.8,1-1.3,1.9-1c2.6,0.6,5.2,0.7,7.7,0.7
		c1.6,0,3.1,0,4.6-0.1l-4.5-1.9c-1.5-0.6-3-0.9-4.5-0.9c-2.6,0-6.5,0-9,0c-1.8,0-3.5-0.6-5.1-1.5c-0.9-0.6-2-1.4-2.9-2
		c-0.8-0.6-1.2-1.6-0.9-2.6c0.3-1,1.2-1.6,2.2-1.6h18.3c0.6-0.2,2.6-0.7,6-1.3c-2.7-3-4.4-6.4-5-9.8c-0.1-0.5,0.1-1,0.5-1.3
		s0.9-0.4,1.4-0.3c2.5,0.7,4.3,1,5.5,1c-9-7-7.3-17.3-7.3-17.3c0.1-0.6,0.6-1,1.1-1.2c0.6-0.1,1.2,0.2,1.5,0.6
		c1.9,3.4,4.8,5.2,6.9,6c-3.3-10.8,3.8-19.1,3.8-19.1c0.4-0.5,1-0.6,1.6-0.4c0.6,0.2,0.9,0.8,0.9,1.4c-0.2,6.3,3,11.1,3.9,13.1
		c0.3,0.7,0,1.5-0.7,1.9c-0.7,0.3-1.5,0-1.9-0.7c-0.2-0.3-0.4-0.7-0.7-1.3c-1.5,1.2-2.9,2.7-4,4.3c0.2,0.8,0.6,1.6,1,2.5
		c0.2,0.5,0.2,1-0.2,1.5c-0.3,0.4-0.9,0.6-1.4,0.6c0,0-0.6-0.1-1.7-0.5c-0.7,1.8-1.4,3.6-1.7,5.7c0.8,0.7,1.8,1.4,2.8,2
		c0.3,0.2,0.6,0.6,0.6,0.9c0.1,0.3,0,0.8-0.2,1.1c0,0-0.7,1.4-3.5,1.6c0.2,2.5,0.6,5.2,1.5,8.1c1.2,0.9,3.9,2.7,7.9,4.2
		c0.7,0.2,1.1,1,0.9,1.9c-0.2,0.8-1,1.1-1.9,0.9c-4.8-1.8-7.9-4-9-4.9c-5.2,0.8-7.9,1.6-7.9,1.6c-0.2,0-0.2,0.1-0.4,0.1h-3
		L47.7,228.5L47.7,228.5z M70.4,193.3c2.6-9.4,9-14.1,12.7-16.1c0.1,0,0.1-0.1,0.2-0.1c0.2-0.1,0.4-0.2,0.6-0.3
		c1.6-0.7,0.9,0.6,0.5,1.5l0,0c-1.9,3.5-3.3,7.3-4.1,11.5C77.2,190.1,73.7,191.2,70.4,193.3L70.4,193.3z"/>
	<circle class="st2" cx="104.4" cy="221.4" r="1.7"/>
</g>
<g>
	<path class="st2" d="M172.6,484.7c0,0.2,0.1,0.4,0.2,0.6l2.8,10h-11.9l1.2-10.6H172.6L172.6,484.7z"/>
	<path class="st2" d="M208.4,412.1l2.9-0.9c0.7-0.2,1.1-1,0.9-1.8c-0.2-0.7-1-1.1-1.8-0.9l-2.9,0.9c-0.7,0.2-1.1,1-0.9,1.8
		C206.8,411.9,207.6,412.3,208.4,412.1z"/>
	<path class="st2" d="M225.5,378.9l2.9-0.9c0.7-0.2,1.1-1,0.9-1.8s-1-1.1-1.8-0.9l-2.9,0.9c-0.7,0.2-1.1,1-0.9,1.8
		C224,378.7,224.7,379.1,225.5,378.9z"/>
	<path class="st2" d="M213.6,415.8l1.4-0.4c0.7-0.2,1.1-1,0.9-1.8c-0.2-0.7-1-1.1-1.8-0.9l-1.4,0.4c-0.7,0.2-1.1,1-0.9,1.8
		C212,415.6,212.8,416,213.6,415.8z"/>
	<path class="st2" d="M216.7,404.2l1.4-0.4c0.7-0.2,1.1-1,0.9-1.8s-1-1.1-1.8-0.9l-1.4,0.4c-0.7,0.2-1.1,1-0.9,1.8
		C215.1,404,215.9,404.4,216.7,404.2z"/>
	<path class="st2" d="M216.7,376.8l1.4-0.4c0.7-0.2,1.1-1,0.9-1.8c-0.2-0.7-1-1.1-1.8-0.9l-1.4,0.4c-0.7,0.2-1.1,1-0.9,1.8
		C215.1,376.7,215.9,377.1,216.7,376.8z"/>
	<path class="st2" d="M223.9,420.9l1.6-1.7c0.6-0.6,1.5-0.6,2-0.1c0.6,0.6,0.6,1.5,0.1,2c0,0-14.9,16-21.2,22.8
		c-1.4,1.5-1.9,3.6-1.5,5.6c2.1,8.7,7,29,8.1,33.3c0.1,0.4,0.2,0.8,0.5,1.1c1.5,2.5,6.2,10.4,6.2,10.4c0.2,0.4,0.2,1,0,1.5
		s-0.7,0.7-1.2,0.7H207c-0.6,0-1.2-0.5-1.4-1.1c0,0-9-38.2-11.6-49.5c-0.6-2.3-0.2-4.8,1.1-6.9c2.9-4.7,8.6-13.8,8.6-13.8
		c0.4-0.6,1.3-0.9,1.9-0.5c0.3,0.2,0.5,0.5,0.6,0.8L223.9,420.9L223.9,420.9z"/>
	<path class="st2" d="M188.8,414.5c0.7-0.7,1.1-1.6,1.1-2.7v-14c-1.2,1-2.9,1.9-5.2,1.7c-7-0.5-6.9-7.3-6.9-8.1
		c0-10.4,7.6-19.7,17.4-21.5c0,0,41.2-7.7,48.5-9.1c0.8-0.2,1.7-0.2,2.5-0.2h13.5v2.8c-0.9,0-1.8,0.4-2.6,1.1
		c-1,0.8-1.9,2.1-2.7,3.6c-2.7,5-4.4,13.1-4.4,22.3c0,9.1,1.7,17.3,4.4,22.3c0.8,1.5,1.7,2.7,2.7,3.6c0.8,0.7,1.7,1.1,2.6,1.1
		c0.8,0,1.5,0.6,1.5,1.5s-0.6,1.5-1.5,1.5H230c-1.5,0-2.9,0.2-4.3,0.6c-9.4,3-44.5,14.2-44.5,14.2c-0.4,0.2-0.7,0.3-1,0.6
		c-0.9,0.6-1.5,1.6-1.6,2.7c-1.5,14.8-3.1,29.7-4.6,44.5c-0.1,0.6,0,1.2,0.2,1.8l2.8,10c0.1,0.4,0,0.9-0.2,1.2
		c-0.2,0.3-0.7,0.6-1.1,0.6h-11.9c-0.4,0-0.8-0.2-1-0.5s-0.4-0.7-0.3-1.1c0,0,6-53.7,7.4-66.5c0.2-2.2,1.5-4,3.4-5.1l8.2-4.6
		L188.8,414.5z M182.6,421.4l-8.3,4.6c-1,0.6-1.9,1.7-1.9,2.9l-7.3,64.9h8.5l-2.3-8.2c-0.2-0.9-0.3-1.9-0.2-2.8
		c1.5-14.8,3.1-29.7,4.6-44.5c0.2-1.9,1.2-3.6,2.7-4.8c0.6-0.4,1.2-0.7,1.9-0.9l0,0c0,0,35.1-11.2,44.5-14.2
		c1.7-0.6,3.4-0.8,5.2-0.8h24.4c-0.8-0.9-1.6-2-2.3-3.4c-2.8-5.3-4.8-14-4.8-23.6s1.9-18.3,4.8-23.6c0.7-1.4,1.5-2.5,2.3-3.4h-8
		c-0.6,0-1.3,0.1-1.9,0.2c-7.3,1.4-48.5,9.1-48.5,9.1c-8.6,1.6-15.2,9.7-15.2,18.8v0.1c0,0-0.4,4.8,4.2,5.1c3.8,0.2,4.8-3.4,5-4.1
		v-7c0-0.8,0.6-1.5,1.5-1.5c0.8,0,1.5,0.6,1.5,1.5V412c0,0.2,0,0.2,0,0.4l3.3-1.9c0.6-0.4,1.5-0.2,1.9,0.6c0.4,0.6,0.2,1.5-0.6,1.9
		l-7,4c-0.3,0.2-0.6,0.5-1,0.7L182.6,421.4L182.6,421.4z"/>
</g>
<g>
	<path class="st2" d="M337.8,411c-0.2,0.2-0.5,0.4-0.8,0.4c-0.5-0.1-1.3-0.2-1.9-0.2c-0.4-0.1-0.7-0.5-0.7-0.9
		c0.1-0.8,0.2-1.9,0.3-2.9c0-0.2,0.2-0.5,0.4-0.6c0.2-0.2,0.6-0.1,0.8,0c0.8,0.5,1.9,1,2.6,1.5c0.2,0.1,0.3,0.3,0.4,0.5
		s0,0.4-0.1,0.6C338.4,409.9,338,410.6,337.8,411L337.8,411z"/>
	<path class="st2" d="M281.8,345.5c-0.3-0.2-0.5-0.5-0.4-0.8c0-0.2,0-0.6,0.1-0.8c0-0.4,0.4-0.8,0.8-0.7c0.3,0,0.8,0,1.1,0.1
		c0.2,0,0.5,0.2,0.6,0.4c0.2,0.2,0.2,0.5,0,0.8c-0.2,0.4-0.4,0.7-0.6,1.1c-0.1,0.2-0.2,0.3-0.5,0.4s-0.4,0.1-0.6-0.1
		C282.2,345.7,282,345.5,281.8,345.5z"/>
	<path class="st2" d="M325.1,486c-0.2-0.2-0.4-0.5-0.3-0.8c0.1-0.4,0.2-1,0.3-1.5c0.1-0.4,0.5-0.7,1-0.6c0.6,0.2,1.5,0.3,2.3,0.5
		c0.2,0.1,0.5,0.2,0.6,0.5s0.1,0.6-0.1,0.7c-0.4,0.6-1,1.5-1.4,2c-0.2,0.2-0.3,0.3-0.6,0.3c-0.2,0-0.4,0-0.6-0.2
		C325.9,486.7,325.4,486.3,325.1,486L325.1,486z"/>
	<path class="st2" d="M357.7,380.8c-0.2-0.2-0.2-0.6-0.2-0.9c0.2-0.2,0.3-0.6,0.4-1c0.2-0.4,0.6-0.6,1-0.4s1,0.4,1.5,0.6
		c0.2,0.1,0.4,0.3,0.5,0.6c0.1,0.2,0,0.6-0.2,0.7c-0.4,0.4-0.8,0.8-1.1,1.1c-0.2,0.2-0.4,0.2-0.6,0.2s-0.4-0.1-0.6-0.2
		C358.2,381.3,358,381,357.7,380.8z"/>
	<path class="st2" d="M341.8,401.8c0.2,0.3,0.7,0.5,1,0.2c0.5-0.2,1-0.6,1.6-0.9c0.2-0.1,0.3-0.3,0.4-0.6c0-0.2,0-0.5-0.2-0.6
		c-0.3-0.4-0.8-0.9-1.1-1.2c-0.2-0.3-0.7-0.3-1-0.1c-0.4,0.3-0.9,0.7-1.2,1c-0.3,0.2-0.4,0.7-0.2,1
		C341.3,401.1,341.5,401.5,341.8,401.8L341.8,401.8z"/>
	<path class="st2" d="M286.9,335.9c-0.3,0.2-0.4,0.7-0.2,1c0.3,0.4,0.7,1,1,1.5c0.2,0.2,0.3,0.3,0.6,0.3c0.2,0,0.5-0.1,0.6-0.2
		c0.4-0.4,0.8-0.8,1.1-1.1s0.3-0.8,0-1.1s-0.8-0.8-1.1-1.2c-0.2-0.3-0.7-0.3-1-0.1C287.6,335.3,287.2,335.6,286.9,335.9L286.9,335.9
		z"/>
	<path class="st2" d="M355.9,371c0.1,0.1,0.1,0.2,0.1,0.4c0,0.2-0.2,0.2-0.2,0.2c-0.7,0.3-2.2,0.8-3.1,1.1c-0.2,0.1-0.3,0-0.4-0.1
		s-0.2-0.2-0.2-0.4c0.3-1,0.8-3,1.1-4.1c0.1-0.2,0.2-0.2,0.3-0.3c0.2,0,0.3,0.1,0.4,0.2C354.6,368.9,355.5,370.3,355.9,371
		L355.9,371z"/>
	<path class="st2" d="M281.8,315.3c0-0.2,0.2-0.2,0.2-0.2c0.1-0.1,0.2-0.1,0.4,0c0.7,0.4,2.1,1.1,2.9,1.5c0.2,0.1,0.2,0.2,0.2,0.4
		c0,0.2-0.1,0.3-0.2,0.4c-1,0.5-2.8,1.4-3.9,1.9c-0.2,0.1-0.3,0.1-0.5-0.1c-0.2-0.1-0.2-0.2-0.2-0.4
		C281.1,317.7,281.5,316.1,281.8,315.3L281.8,315.3z"/>
	<path class="st2" d="M345.7,429.6c0.2,0,0.2,0,0.4,0.1c0.1,0.1,0.2,0.2,0.2,0.3c0,0.6,0.1,1.6,0.2,2.3c0,0.2-0.1,0.3-0.2,0.4
		c-0.2,0.1-0.3,0.1-0.5,0c-0.7-0.5-1.8-1.1-2.5-1.6c-0.2-0.1-0.2-0.2-0.2-0.4c0-0.2,0.2-0.3,0.3-0.3
		C344.1,430.1,345.1,429.7,345.7,429.6z"/>
</g>
<g>
	<path class="st2" d="M263.9,497.2c2.4-3.2,4-8.2,4-13.9c0-5.6-1.5-10.6-4-13.9c-2.4-3.2-4-8.2-4-13.9s1.5-10.6,4-13.9
		c2.4-3.2,4-8.2,4-13.9c0-5.6-1.5-10.6-4-13.9c-2.4-3.2-4-8.2-4-13.9s1.5-10.6,4-13.9c2.4-3.2,4-8.2,4-13.9s-1.5-10.6-4-13.9
		c-2.4-3.2-4-8.2-4-13.9c0-5.6,1.5-10.6,4-13.9c2.4-3.2,4-8.2,4-13.9s-1.5-10.6-4-13.9c-2.4-3.2-4-8.2-4-13.9c0-5.6,1.5-10.6,4-13.9
		c2.4-3.2,4-8.2,4-13.9c0-9.8-3.1-13.5-13.5-13.5c-10.5,0-13.5,3.1-13.5,13.5c0,5.6-1.5,10.6-4,13.9c-2.4,3.2-4,8.2-4,13.9
		c0,5.6,1.5,10.6,4,13.9c2.4,3.2,4,8.2,4,13.9s-1.5,10.6-4,13.9c-2.4,3.2-4,8.2-4,13.9c0,5.6,1.5,10.6,4,13.9c2.4,3.2,4,8.2,4,13.9
		s-1.5,10.6-4,13.9c-2.4,3.2-4,8.2-4,13.9c0,5.6,1.5,10.6,4,13.9c2.4,3.2,4,8.2,4,13.9s-1.5,10.6-4,13.9c-2.4,3.2-4,8.2-4,13.9
		c0,5.6,1.5,10.6,4,13.9c2.4,3.2,4,8.2,4,13.9c0,5.6-1.5,10.6-4,13.9H263.9L263.9,497.2z"/>
	<path class="st0" d="M263.4,357.9c0.2,0.2,0.2,0.4,0.4,0.6c0.5,0.6,1,1.5,1.4,2.3h-1.5c-2.6,0-5,2.2-6.9,5.8
		c-2.9,5.4-4.8,14.2-4.8,24s1.9,18.6,4.8,24c1.9,3.6,4.4,5.8,6.9,5.8h3c0.2,0.9,0.5,1.9,0.6,2.8h-3.6c-3.4,0-6.9-2.5-9.4-7.3
		c-3.1-5.7-5.1-15-5.1-25.4s2-19.7,5.1-25.4C256.8,360.5,260.2,358,263.4,357.9L263.4,357.9z"/>
	<path class="st0" d="M251.3,419.8c-3.1-5.2-5.4-13.1-6.2-22.2c-0.1-0.8-0.7-1.4-1.5-1.3s-1.4,0.7-1.3,1.5
		c0.8,9.6,3.3,17.8,6.6,23.4c0.4,0.6,1.3,0.9,1.9,0.5C251.4,421.4,251.7,420.5,251.3,419.8L251.3,419.8z"/>
	<path class="st0" d="M244.7,390.5c0-2,0.1-4,0.2-5.8c0.1-0.8-0.6-1.5-1.3-1.5c-0.8-0.1-1.5,0.6-1.5,1.3c-0.2,1.9-0.2,4-0.2,6
		c0,0.8,0.6,1.5,1.5,1.5C244.1,392,244.7,391.4,244.7,390.5L244.7,390.5z"/>
	<path class="st0" d="M249.3,365.1c0.6-1.4,1.2-2.7,1.9-3.8c1.4-2.3,3-4.2,4.8-5.4c0.6-0.5,0.8-1.4,0.3-2s-1.4-0.8-2-0.3
		c-2,1.5-3.9,3.5-5.6,6.3c-0.7,1.2-1.5,2.7-2.1,4.1c-0.3,0.7,0,1.5,0.7,1.9C248.2,366.2,249,365.9,249.3,365.1L249.3,365.1z"/>
	<path class="st0" d="M256,428.7c0,0,3.2,2,7.2,1.1c0.8-0.2,1.3-0.9,1.1-1.7c-0.2-0.8-0.9-1.3-1.7-1.1c-2.8,0.6-5.1-0.8-5.1-0.8
		c-0.6-0.4-1.5-0.2-1.9,0.5C255.1,427.4,255.4,428.3,256,428.7L256,428.7z"/>
	<path class="st0" d="M247.7,254.8v-1c0-0.8,0.6-1.5,1.5-1.5c0.8,0,1.5,0.6,1.5,1.5v1h1c0.8,0,1.5,0.6,1.5,1.5
		c0,0.8-0.6,1.5-1.5,1.5h-1v1c0,0.8-0.6,1.5-1.5,1.5c-0.8,0-1.5-0.6-1.5-1.5v-1h-1c-0.8,0-1.5-0.6-1.5-1.5c0-0.8,0.6-1.5,1.5-1.5
		L247.7,254.8L247.7,254.8z"/>
	<path class="st0" d="M250.2,314.5v-1c0-0.8,0.6-1.5,1.5-1.5c0.8,0,1.5,0.6,1.5,1.5v1h1c0.8,0,1.5,0.6,1.5,1.5
		c0,0.8-0.6,1.5-1.5,1.5h-1v1c0,0.8-0.6,1.5-1.5,1.5c-0.8,0-1.5-0.6-1.5-1.5v-1h-1c-0.8,0-1.5-0.6-1.5-1.5s0.6-1.5,1.5-1.5H250.2
		L250.2,314.5z"/>
	<path class="st0" d="M241,346.1v-1c0-0.8,0.6-1.5,1.5-1.5c0.8,0,1.5,0.6,1.5,1.5v1h1c0.8,0,1.5,0.6,1.5,1.5c0,0.8-0.6,1.5-1.5,1.5
		h-1v1c0,0.8-0.6,1.5-1.5,1.5c-0.8,0-1.5-0.6-1.5-1.5v-1h-1c-0.8,0-1.5-0.6-1.5-1.5c0-0.8,0.6-1.5,1.5-1.5H241L241,346.1z"/>
	<path class="st0" d="M241.7,448.4v-1c0-0.8,0.6-1.5,1.5-1.5c0.8,0,1.5,0.6,1.5,1.5v1h1c0.8,0,1.5,0.6,1.5,1.5s-0.6,1.5-1.5,1.5h-1
		v1c0,0.8-0.6,1.5-1.5,1.5c-0.8,0-1.5-0.6-1.5-1.5v-1h-1c-0.8,0-1.5-0.6-1.5-1.5s0.6-1.5,1.5-1.5H241.7z"/>
	<path class="st0" d="M257.7,489.2v-1c0-0.8,0.6-1.5,1.5-1.5c0.8,0,1.5,0.6,1.5,1.5v1h1c0.8,0,1.5,0.6,1.5,1.5s-0.6,1.5-1.5,1.5h-1
		v1c0,0.8-0.6,1.5-1.5,1.5c-0.8,0-1.5-0.6-1.5-1.5v-1h-1c-0.8,0-1.5-0.6-1.5-1.5s0.6-1.5,1.5-1.5H257.7z"/>
	<path class="st0" d="M251.8,264.8v-0.2c0-0.8,0.6-1.5,1.5-1.5c0.8,0,1.5,0.6,1.5,1.5v0.2h0.2c0.8,0,1.5,0.6,1.5,1.5
		c0,0.8-0.6,1.5-1.5,1.5h-0.2v0.2c0,0.8-0.6,1.5-1.5,1.5c-0.8,0-1.5-0.6-1.5-1.5v-0.2h-0.2c-0.8,0-1.5-0.6-1.5-1.5
		c0-0.8,0.6-1.5,1.5-1.5H251.8z"/>
	<path class="st0" d="M242.2,299v-0.2c0-0.8,0.6-1.5,1.5-1.5c0.8,0,1.5,0.6,1.5,1.5v0.2h0.2c0.8,0,1.5,0.6,1.5,1.5
		c0,0.8-0.6,1.5-1.5,1.5h-0.2v0.2c0,0.8-0.6,1.5-1.5,1.5c-0.8,0-1.5-0.6-1.5-1.5V302H242c-0.8,0-1.5-0.6-1.5-1.5
		c0-0.8,0.6-1.5,1.5-1.5H242.2z"/>
	<path class="st0" d="M254.8,329.1v-0.2c0-0.8,0.6-1.5,1.5-1.5c0.8,0,1.5,0.6,1.5,1.5v0.2h0.2c0.8,0,1.5,0.6,1.5,1.5
		s-0.6,1.5-1.5,1.5h-0.2v0.2c0,0.8-0.6,1.5-1.5,1.5c-0.8,0-1.5-0.6-1.5-1.5V332h-0.1c-0.8,0-1.5-0.6-1.5-1.5
		S253.9,329.1,254.8,329.1L254.8,329.1z"/>
	<path class="st0" d="M253.9,437.5v-0.2c0-0.8,0.6-1.5,1.5-1.5c0.8,0,1.5,0.6,1.5,1.5v0.2h0.2c0.8,0,1.5,0.6,1.5,1.5
		c0,0.8-0.6,1.5-1.5,1.5h-0.2v0.2c0,0.8-0.6,1.5-1.5,1.5c-0.8,0-1.5-0.6-1.5-1.5v-0.2h-0.2c-0.8,0-1.5-0.6-1.5-1.5
		c0-0.8,0.6-1.5,1.5-1.5H253.9z"/>
	<path class="st0" d="M249,475.8v-0.2c0-0.8,0.6-1.5,1.5-1.5c0.8,0,1.5,0.6,1.5,1.5v0.2h0.2c0.8,0,1.5,0.6,1.5,1.5
		c0,0.8-0.6,1.5-1.5,1.5H252v0.2c0,0.8-0.6,1.5-1.5,1.5c-0.8,0-1.5-0.6-1.5-1.5v-0.2h-0.2c-0.8,0-1.5-0.6-1.5-1.5
		c0-0.8,0.6-1.5,1.5-1.5H249z"/>
	<path class="st0" d="M249.2,289.3v-0.2c0-0.8,0.6-1.5,1.5-1.5c0.8,0,1.5,0.6,1.5,1.5v0.2h0.2c0.8,0,1.5,0.6,1.5,1.5
		c0,0.8-0.6,1.5-1.5,1.5h-0.2v0.2c0,0.8-0.6,1.5-1.5,1.5c-0.8,0-1.5-0.6-1.5-1.5v-0.2H249c-0.8,0-1.5-0.6-1.5-1.5
		c0-0.8,0.6-1.5,1.5-1.5H249.2z"/>
</g>
<g>
	<path class="st2" d="M341.1,385.1v2.5c0,3.3-2.7,6-6,6c-1.9,0-3.5,1.5-3.7,3.3v0.6c-0.2,3.5-3.1,6.1-6.7,6.1h-3.1
		c-1.5,2.7-2.5,4.4-2.7,4.8c-0.6,1.3-1.5,2.3-2.7,2.9l-4.3,2.1l-12.1,5.9c-0.3,0.2-0.6,0.4-0.7,0.8l-1.9,5.2l0,0l-0.8,2.3l0,0
		l-3.5,9.6c-0.1,0.2-0.1,0.3-0.1,0.4l-3.2,9.2c-0.2,0.6-0.3,1.2-0.3,1.9c0,0,0.2,9.9,0.2,15.2c0,0.6-0.3,1-0.8,1.2s-1,0.1-1.5-0.2
		c-1-1-1.9-1.9-1.9-1.9c-0.6-0.6-1.5-0.6-2,0c-0.6,0.6-0.6,1.5,0,2c0,0,4.5,4.5,5.9,5.9c0.2,0.2,0.4,0.6,0.4,0.9c0,0.4,0,1,0,1.7
		c0,0.6-0.3,1-0.8,1.2s-1,0.1-1.5-0.3c-1-1-2-2-2-2c-0.6-0.6-1.5-0.6-2,0c-0.6,0.6-0.6,1.5,0,2c0,0,4.7,4.7,6,6
		c0.2,0.2,0.4,0.6,0.4,0.9c0,0.4,0,0.9,0,0.9c0,0.6,0.1,1.1,0.3,1.7l3.6,10.6c0.2,0.4,0.1,0.9-0.2,1.3s-0.7,0.6-1.1,0.6h-11.9
		c-0.8,0-8.5-5.4-8.5-6.2c0,0-0.2,1.1-0.2-4.6l0,0v-35.7c-0.9-0.5-1.5-1.5-1.5-2.5v-27.3h-6.4c-2.9,0-5.6-2.2-7.8-6.2
		c-2.8-5.3-4.8-14-4.8-23.6s1.9-18.3,4.8-23.6c2.2-4,4.9-6.2,7.8-6.2h24.5c2.6,0,5.1-0.9,7-2.6c4.4-3.8,11.8-10.2,15.2-13.1
		c1.1-1,2-2.1,2.7-3.5l4.7-9.6c0.1-0.2,0.1-0.2,0.2-0.4l2.4-5.1c-0.8-0.1-0.6-0.2,0.2-0.5c-6.6-0.2-11.5-0.3-11.5-0.3
		c-1.3,0-2.4-0.5-3.3-1.5l-15.4-17.7c-0.6-0.6-1-1.6-1-2.5l1.2-24.2c0-1.4,1.1-2.5,2.5-2.5s2.5,1.1,2.5,2.5l1.1,22.6
		c0,0,11.3,11.1,13.8,13.5c0.3,0.3,0.7,0.5,1.1,0.5l0,0c1.1,0,2.1-0.7,2.6-1.7s0.3-2.2-0.4-3.1c-2-2.4-4.1-4.9-4.1-4.9
		c-0.6-0.6-0.9-1.4-0.9-2.2l1-13.1c0-1.2,1-2.1,2.1-2.1c1.2,0,2.1,1,2.1,2.1l0.9,11.7l7.1,6.7c2.3-0.1,7.3-0.3,12.2-0.3
		c4.9,0,9.8,0.2,12.2,0.4l7.1-6.7l0.9-11.7c0-1.2,1-2.1,2.1-2.1s2.1,1,2.1,2.1l1,13.1c0,0.8-0.3,1.5-0.8,2.1c0,0-2,2.4-4,4.8
		c-0.7,0.9-0.9,2.1-0.4,3.1s1.5,1.8,2.7,1.8l0,0c0.4,0,0.9-0.2,1.1-0.5c2.5-2.5,13.6-13.5,13.6-13.5l1-22.7c0-1.4,1.1-2.5,2.5-2.5
		s2.5,1.1,2.5,2.5l1.1,24.2c0,0.9-0.3,1.8-1,2.4l-15.2,17.6c-0.8,0.9-2,1.5-3.3,1.5c0,0-4.1,0.2-10,0.3l20.4,13.5
		c0.9,0.6,1.5,1.5,1.6,2.5v0.2v0.1l0,0c0,0.1,0,0.2,0,0.3l-2.4,10c-0.4,1.5-1.7,2.6-3.2,2.7c-4.4,0.4-11.5,1-14.9,1.3
		c-0.2,0-0.3,0-0.5,0.1c-0.6,0.1-1.2,0.4-1.6,0.8c-0.2,0.2-0.7,1-1.5,2.3v16.4C347.4,380.3,344.8,383.8,341.1,385.1L341.1,385.1z
		 M310.5,470.2c1.2-5.5,5.2-23.6,6.8-30.7c0.2-1.2-0.2-2.4-1.3-3l-16.2-9.5l1.9-5.2l12.1-5.9l13.5,11c1.7,1.4,2.4,3.5,1.9,5.7
		c0,0-3.8,15.9-5.5,22.8c-0.2,0.5-0.6,0.9-1,1c-0.6,0.1-1-0.2-1.4-0.6c-0.8-1.3-1.5-2.6-1.5-2.6c-0.4-0.6-1.3-0.9-1.9-0.5
		s-0.9,1.3-0.5,1.9c0,0,3.4,5.7,4.4,7.4c0.2,0.3,0.2,0.6,0.2,1c-0.1,0.4-0.2,1-0.4,1.5c-0.2,0.5-0.6,0.9-1,1c-0.6,0.1-1-0.2-1.3-0.6
		c-0.8-1.4-1.6-2.7-1.6-2.7c-0.4-0.6-1.3-0.9-1.9-0.5s-0.9,1.3-0.5,1.9c0,0,3.5,5.9,4.5,7.6c0.2,0.3,0.2,0.6,0.2,1s-0.2,0.7-0.2,0.9
		c0,0.1,0,0.2,0,0.2c0,0.2,0,0.2,0,0.4V485c0,0.5-0.2,0.9-0.6,1.1s-0.9,0.3-1.3,0.2l-10-3.4c-0.7-0.2-6.6-6.8-6.4-7.5
		c0,0,0,0,1.9-5.4c0,0,0,0,0.1-0.1l1.8-25.2c-0.2-0.1-0.3-0.2-0.5-0.4l-7.9-8.3l2.2-6l9.9,10.4c1,1.1,1,3-0.1,4
		c-0.2,0.2-0.5,0.4-0.7,0.5l-1.8,25.6c1.5,0.3,3.1,0.7,3.8,0.7c0.2-0.1,0.2-0.1,0.3-0.2c0.1-0.3,0.2-0.6,0.3-0.9L310.5,470.2
		L310.5,470.2z M276.3,414.3v33.4c0,1-0.6,2-1.5,2.5v35.2c1.9-0.2,4.3-0.4,4.3-0.6v-70.5c0-0.8-0.6-1.5-1.5-1.5
		C276.9,412.9,276.3,413.5,276.3,414.3L276.3,414.3z M338.3,385.6c-0.1,0-0.2,0-0.3,0h-5.9c-3.2,5.6-6.4,11-8.8,15.2h1.5
		c1.9,0,3.6-1.4,3.8-3.2v-0.8c0.2-3.4,3.1-6.1,6.5-6.1c1.7,0,3.1-1.4,3.1-3.1L338.3,385.6L338.3,385.6z M338.3,382.8v-7.7
		c-1.5,2.5-3,5.1-4.5,7.7h4.2C338,382.8,338.2,382.8,338.3,382.8L338.3,382.8z M344.6,364.5c-1,1.7-2.2,3.6-3.4,5.7V382
		c2-1.1,3.4-3.3,3.4-5.7V364.5z"/>
	<g>
		<path class="st0" d="M296.9,298.7h-6.8l0.2-2.8h6.5L296.9,298.7L296.9,298.7z M296.6,292.2h-6.1l0.2-2.8h5.9V292.2L296.6,292.2z"
			/>
		<path class="st0" d="M379,298.7h-6.7l0.2-2.8h6.5V298.7z M378.7,292.2h-6.1l0.2-2.8h5.8L378.7,292.2L378.7,292.2z"/>
		<path class="st0" d="M363.6,347.9c0,0,0.2,0.2,0.8,0.6c0.2,0.1,0.3,0.2,0.6,0.2s0.4-0.1,0.6-0.2c0.6-0.2,0.8-0.6,0.8-0.6
			c0.4,0,0.7-0.3,0.7-0.7c0-0.4-0.3-0.7-0.7-0.7c0,0-0.2-0.2-0.8-0.6c-0.2-0.1-0.3-0.2-0.6-0.2s-0.4,0.1-0.6,0.2
			c-0.6,0.3-0.8,0.6-0.8,0.6c-0.4,0-0.7,0.3-0.7,0.7S363.2,347.9,363.6,347.9z"/>
		<path class="st0" d="M357.6,347.9c0,0,0.2,0.2,0.8,0.6c0.2,0.1,0.3,0.2,0.6,0.2s0.4-0.1,0.6-0.2c0.6-0.2,0.8-0.6,0.8-0.6
			c0.4,0,0.7-0.3,0.7-0.7c0-0.4-0.3-0.7-0.7-0.7c0,0-0.2-0.2-0.8-0.6c-0.2-0.1-0.3-0.2-0.6-0.2s-0.4,0.1-0.6,0.2
			c-0.6,0.3-0.8,0.6-0.8,0.6c-0.4,0-0.7,0.3-0.7,0.7C356.8,347.6,357.2,347.9,357.6,347.9z"/>
		<path class="st0" d="M351.5,347.9c0,0,0.2,0.2,0.8,0.6c0.2,0.1,0.3,0.2,0.6,0.2s0.4-0.1,0.6-0.2c0.6-0.2,0.8-0.6,0.8-0.6
			c0.4,0,0.7-0.3,0.7-0.7c0-0.4-0.3-0.7-0.7-0.7c0,0-0.2-0.2-0.8-0.6c-0.2-0.1-0.3-0.2-0.6-0.2s-0.4,0.1-0.6,0.2
			c-0.6,0.3-0.8,0.6-0.8,0.6c-0.4,0-0.7,0.3-0.7,0.7S351.1,347.9,351.5,347.9z"/>
		<path class="st0" d="M360.6,344.1c0,0,0.2,0.2,0.8,0.6c0.2,0.1,0.3,0.2,0.6,0.2s0.4-0.1,0.6-0.2c0.6-0.2,0.8-0.6,0.8-0.6
			c0.4,0,0.7-0.3,0.7-0.7s-0.3-0.7-0.7-0.7c0,0-0.2-0.2-0.8-0.6c-0.2-0.1-0.3-0.2-0.6-0.2s-0.4,0.1-0.6,0.2
			c-0.6,0.3-0.8,0.6-0.8,0.6c-0.4,0-0.7,0.3-0.7,0.7S360.2,344.1,360.6,344.1z"/>
		<path class="st0" d="M354.6,344.1c0,0,0.2,0.2,0.8,0.6c0.2,0.1,0.3,0.2,0.6,0.2s0.4-0.1,0.6-0.2c0.6-0.2,0.8-0.6,0.8-0.6
			c0.4,0,0.7-0.3,0.7-0.7s-0.3-0.7-0.7-0.7c0,0-0.2-0.2-0.8-0.6c-0.2-0.1-0.3-0.2-0.6-0.2s-0.4,0.1-0.6,0.2
			c-0.6,0.3-0.8,0.6-0.8,0.6c-0.4,0-0.7,0.3-0.7,0.7S354.2,344.1,354.6,344.1z"/>
		<path class="st0" d="M360.6,351.6c0,0,0.2,0.2,0.8,0.6c0.2,0.1,0.3,0.2,0.6,0.2s0.4-0.1,0.6-0.2c0.6-0.2,0.8-0.6,0.8-0.6
			c0.4,0,0.7-0.3,0.7-0.7s-0.3-0.7-0.7-0.7c0,0-0.2-0.2-0.8-0.6c-0.2-0.1-0.3-0.2-0.6-0.2s-0.4,0.1-0.6,0.2
			c-0.6,0.3-0.8,0.6-0.8,0.6c-0.4,0-0.7,0.3-0.7,0.7C359.9,351.3,360.2,351.6,360.6,351.6z"/>
		<path class="st0" d="M354.6,351.6c0,0,0.2,0.2,0.8,0.6c0.2,0.1,0.3,0.2,0.6,0.2s0.4-0.1,0.6-0.2c0.6-0.2,0.8-0.6,0.8-0.6
			c0.4,0,0.7-0.3,0.7-0.7s-0.3-0.7-0.7-0.7c0,0-0.2-0.2-0.8-0.6c-0.2-0.1-0.3-0.2-0.6-0.2s-0.4,0.1-0.6,0.2
			c-0.6,0.3-0.8,0.6-0.8,0.6c-0.4,0-0.7,0.3-0.7,0.7C353.9,351.3,354.2,351.6,354.6,351.6z"/>
		<circle class="st0" cx="351.6" cy="320.5" r="2"/>
		<circle class="st0" cx="346.4" cy="315.4" r="2"/>
		<circle class="st0" cx="274.4" cy="376.8" r="2.7"/>
		<circle class="st0" cx="264.3" cy="376.8" r="2.7"/>
		<path class="st0" d="M296.2,357.6l19.3,19.3c0.6,0.6,0.6,1.5,0,2l-6,6c-0.6,0.6-1.5,0.6-2,0l-5-5l-4.7,4.7c-0.2,0.2-0.6,0.4-1,0.4
			h-26.5l18.8,18.8h21.4c0-0.1,0-0.1,0-0.2c0-6.4,5.2-11.6,11.6-11.6c2,0,4,0.6,5.6,1.5c-0.5,0.8-1,1.7-1.5,2.5
			c-1.2-0.6-2.7-1-4.2-1c-4.8,0-8.7,4-8.7,8.7c0,3.1,1.6,5.7,4,7.3c-0.3,0.2-0.6,0.4-0.9,0.6l-1.9,0.9c-1.8-1.5-3.1-3.5-3.6-5.8
			h-22.3c-0.4,0-0.7-0.2-1-0.4l-21.2-21.2h-14.2c-0.1,0-0.1,0-0.2,0c0.1-1,0.2-1.9,0.2-2.8h44l10.2-10.2l-12.6-12.6
			c0.6-0.3,1.1-0.7,1.6-1.1L296.2,357.6L296.2,357.6z M308.5,373.9l-4,4l4,4l4-4L308.5,373.9z M325.1,360.5l2.4-2.4
			c0.6-0.6,0.6-1.5,0-2c-0.6-0.6-1.5-0.6-2,0l-2.4,2.4c-0.6,0.6-0.6,1.5,0,2S324.6,361,325.1,360.5z M312.8,360.5l2.4-2.4
			c0.6-0.6,0.6-1.5,0-2c-0.6-0.6-1.5-0.6-2,0l-2.4,2.4c-0.6,0.6-0.6,1.5,0,2S312.3,361,312.8,360.5z M319,360.5l2.4-2.4
			c0.6-0.6,0.6-1.5,0-2c-0.6-0.6-1.5-0.6-2,0l-2.4,2.4c-0.6,0.6-0.6,1.5,0,2S318.4,361,319,360.5z M355.4,325.8
			c-1.5,0.1-3.5,0.1-5.6,0.2l4.1,2.7h-17c-0.9,0-1.5,0.7-1.5,1.5v2.2c0,0.9,0.7,1.5,1.5,1.5h25l4.4,2.8h-29.4
			c-0.7,0-1.4-0.2-1.9-0.5l0,0l-13.4,13.4c-0.2,0.2-0.6,0.4-1,0.4H305l3.3-2.8H320l13-13l0,0c-0.3-0.6-0.5-1.2-0.5-1.9v-2.2
			c0-2.4,2-4.4,4.4-4.4L355.4,325.8L355.4,325.8z M319.3,326h4.4c0.8,0,1.5,0.6,1.5,1.5s-0.6,1.5-1.5,1.5h-4.2l1.1-2.3
			c-0.8-0.1-0.6-0.2,0.2-0.5C320.4,326,319.9,326,319.3,326L319.3,326z M330.9,309.7l-4,4h7.1l4-4c1.4,0,2.7,0.1,4,0.1l-6.3,6.3
			c-0.2,0.2-0.6,0.4-1,0.4h-10.6l-9.4,9.4c-1.7-0.1-3.1-0.1-4-0.1l11.5-11.5c0.1-0.2,0.2-0.2,0.3-0.3l4.2-4.2
			C328,309.7,329.5,309.7,330.9,309.7L330.9,309.7z"/>
		<g>
			<path class="st6" d="M296.2,357.6l19.3,19.3c0.6,0.6,0.6,1.5,0,2l-6,6c-0.6,0.6-1.5,0.6-2,0l-5-5l-4.7,4.7
				c-0.2,0.2-0.6,0.4-1,0.4h-26.5l18.8,18.8h21.4c0-0.1,0-0.1,0-0.2c0-6.4,5.2-11.6,11.6-11.6c2,0,4,0.6,5.6,1.5
				c-0.5,0.8-1,1.7-1.5,2.5c-1.2-0.6-2.7-1-4.2-1c-4.8,0-8.7,4-8.7,8.7c0,3.1,1.6,5.7,4,7.3c-0.3,0.2-0.6,0.4-0.9,0.6l-1.9,0.9
				c-1.8-1.5-3.1-3.5-3.6-5.8h-22.3c-0.4,0-0.7-0.2-1-0.4l-21.2-21.2h-14.2c-0.1,0-0.1,0-0.2,0c0.1-1,0.2-1.9,0.2-2.8h44l10.2-10.2
				l-12.6-12.6c0.6-0.3,1.1-0.7,1.6-1.1L296.2,357.6L296.2,357.6z M308.5,373.9l-4,4l4,4l4-4L308.5,373.9z M325.1,360.5l2.4-2.4
				c0.6-0.6,0.6-1.5,0-2c-0.6-0.6-1.5-0.6-2,0l-2.4,2.4c-0.6,0.6-0.6,1.5,0,2S324.6,361,325.1,360.5z M312.8,360.5l2.4-2.4
				c0.6-0.6,0.6-1.5,0-2c-0.6-0.6-1.5-0.6-2,0l-2.4,2.4c-0.6,0.6-0.6,1.5,0,2S312.3,361,312.8,360.5z M319,360.5l2.4-2.4
				c0.6-0.6,0.6-1.5,0-2c-0.6-0.6-1.5-0.6-2,0l-2.4,2.4c-0.6,0.6-0.6,1.5,0,2S318.4,361,319,360.5z M355.4,325.8
				c-1.5,0.1-3.5,0.1-5.6,0.2l4.1,2.7h-17c-0.9,0-1.5,0.7-1.5,1.5v2.2c0,0.9,0.7,1.5,1.5,1.5h25l4.4,2.8h-29.4
				c-0.7,0-1.4-0.2-1.9-0.5l0,0l-13.4,13.4c-0.2,0.2-0.6,0.4-1,0.4H305l3.3-2.8H320l13-13l0,0c-0.3-0.6-0.5-1.2-0.5-1.9v-2.2
				c0-2.4,2-4.4,4.4-4.4L355.4,325.8L355.4,325.8z M319.3,326h4.4c0.8,0,1.5,0.6,1.5,1.5s-0.6,1.5-1.5,1.5h-4.2l1.1-2.3
				c-0.8-0.1-0.6-0.2,0.2-0.5C320.4,326,319.9,326,319.3,326L319.3,326z M330.9,309.7l-4,4h7.1l4-4c1.4,0,2.7,0.1,4,0.1l-6.3,6.3
				c-0.2,0.2-0.6,0.4-1,0.4h-10.6l-9.4,9.4c-1.7-0.1-3.1-0.1-4-0.1l11.5-11.5c0.1-0.2,0.2-0.2,0.3-0.3l4.2-4.2
				C328,309.7,329.5,309.7,330.9,309.7L330.9,309.7z"/>
			<g>
				<path class="st0" d="M279.1,424.4v-10.1c0-0.8-0.6-1.5-1.5-1.5s-1.5,0.6-1.5,1.5v10.1c0,0.8,0.6,1.5,1.5,1.5
					S279.1,425.2,279.1,424.4z"/>
				<path class="st0" d="M363.6,347.9c0,0,0.2,0.2,0.8,0.6c0.2,0.1,0.3,0.2,0.6,0.2s0.4-0.1,0.6-0.2c0.6-0.2,0.8-0.6,0.8-0.6
					c0.4,0,0.7-0.3,0.7-0.7c0-0.4-0.3-0.7-0.7-0.7c0,0-0.2-0.2-0.8-0.6c-0.2-0.1-0.3-0.2-0.6-0.2s-0.4,0.1-0.6,0.2
					c-0.6,0.3-0.8,0.6-0.8,0.6c-0.4,0-0.7,0.3-0.7,0.7S363.2,347.9,363.6,347.9z"/>
				<path class="st0" d="M357.6,347.9c0,0,0.2,0.2,0.8,0.6c0.2,0.1,0.3,0.2,0.6,0.2s0.4-0.1,0.6-0.2c0.6-0.2,0.8-0.6,0.8-0.6
					c0.4,0,0.7-0.3,0.7-0.7c0-0.4-0.3-0.7-0.7-0.7c0,0-0.2-0.2-0.8-0.6c-0.2-0.1-0.3-0.2-0.6-0.2s-0.4,0.1-0.6,0.2
					c-0.6,0.3-0.8,0.6-0.8,0.6c-0.4,0-0.7,0.3-0.7,0.7C356.8,347.6,357.2,347.9,357.6,347.9z"/>
				<path class="st0" d="M351.5,347.9c0,0,0.2,0.2,0.8,0.6c0.2,0.1,0.3,0.2,0.6,0.2s0.4-0.1,0.6-0.2c0.6-0.2,0.8-0.6,0.8-0.6
					c0.4,0,0.7-0.3,0.7-0.7c0-0.4-0.3-0.7-0.7-0.7c0,0-0.2-0.2-0.8-0.6c-0.2-0.1-0.3-0.2-0.6-0.2s-0.4,0.1-0.6,0.2
					c-0.6,0.3-0.8,0.6-0.8,0.6c-0.4,0-0.7,0.3-0.7,0.7S351.1,347.9,351.5,347.9z"/>
				<path class="st0" d="M360.6,344.1c0,0,0.2,0.2,0.8,0.6c0.2,0.1,0.3,0.2,0.6,0.2s0.4-0.1,0.6-0.2c0.6-0.2,0.8-0.6,0.8-0.6
					c0.4,0,0.7-0.3,0.7-0.7s-0.3-0.7-0.7-0.7c0,0-0.2-0.2-0.8-0.6c-0.2-0.1-0.3-0.2-0.6-0.2s-0.4,0.1-0.6,0.2
					c-0.6,0.3-0.8,0.6-0.8,0.6c-0.4,0-0.7,0.3-0.7,0.7S360.2,344.1,360.6,344.1z"/>
				<path class="st0" d="M354.6,344.1c0,0,0.2,0.2,0.8,0.6c0.2,0.1,0.3,0.2,0.6,0.2s0.4-0.1,0.6-0.2c0.6-0.2,0.8-0.6,0.8-0.6
					c0.4,0,0.7-0.3,0.7-0.7s-0.3-0.7-0.7-0.7c0,0-0.2-0.2-0.8-0.6c-0.2-0.1-0.3-0.2-0.6-0.2s-0.4,0.1-0.6,0.2
					c-0.6,0.3-0.8,0.6-0.8,0.6c-0.4,0-0.7,0.3-0.7,0.7S354.2,344.1,354.6,344.1z"/>
				<path class="st0" d="M360.6,351.6c0,0,0.2,0.2,0.8,0.6c0.2,0.1,0.3,0.2,0.6,0.2s0.4-0.1,0.6-0.2c0.6-0.2,0.8-0.6,0.8-0.6
					c0.4,0,0.7-0.3,0.7-0.7s-0.3-0.7-0.7-0.7c0,0-0.2-0.2-0.8-0.6c-0.2-0.1-0.3-0.2-0.6-0.2s-0.4,0.1-0.6,0.2
					c-0.6,0.3-0.8,0.6-0.8,0.6c-0.4,0-0.7,0.3-0.7,0.7C359.9,351.3,360.2,351.6,360.6,351.6z"/>
				<path class="st0" d="M354.6,351.6c0,0,0.2,0.2,0.8,0.6c0.2,0.1,0.3,0.2,0.6,0.2s0.4-0.1,0.6-0.2c0.6-0.2,0.8-0.6,0.8-0.6
					c0.4,0,0.7-0.3,0.7-0.7s-0.3-0.7-0.7-0.7c0,0-0.2-0.2-0.8-0.6c-0.2-0.1-0.3-0.2-0.6-0.2s-0.4,0.1-0.6,0.2
					c-0.6,0.3-0.8,0.6-0.8,0.6c-0.4,0-0.7,0.3-0.7,0.7C353.9,351.3,354.2,351.6,354.6,351.6z"/>
				<circle class="st0" cx="351.6" cy="320.5" r="2"/>
				<circle class="st0" cx="346.4" cy="315.4" r="2"/>
			</g>
		</g>
		<circle class="st0" cx="279.1" cy="489.8" r="2.2"/>
		<circle class="st0" cx="308.5" cy="476.5" r="2.2"/>
	</g>
</g>
<line class="st7" x1="2" y1="498.5" x2="500.3" y2="498.5"/>
</svg>
