<?xml version="1.0" encoding="utf-8"?>
<!-- Generator: Adobe Illustrator 25.0.1, SVG Export Plug-In . SVG Version: 6.00 Build 0)  -->
<svg version="1.1" id="Calque_1" xmlns:serif="http://www.serif.com/"
	 xmlns="http://www.w3.org/2000/svg" xmlns:xlink="http://www.w3.org/1999/xlink" x="0px" y="0px" viewBox="0 0 500 500"
	 style="enable-background:new 0 0 500 500;" xml:space="preserve">
<style type="text/css">
	.st0{fill:#EEEEEE;}
	.st1{fill:#00B9BC;}
	.st2{fill:#009092;}
	.st3{fill:#003E3F;}
	.st4{fill:#FFFFFF;}
	.st5{fill:none;stroke:#E86166;stroke-width:5;}
	.st6{fill:#E86166;}
	.st7{fill:#163847;}
	.st8{fill:#E86166;stroke:#E86166;}
	.st9{fill:none;stroke:#FFFFFF;stroke-width:2;}
</style>
<g>
	<rect class="st0" width="500" height="500"/>
</g>
<circle class="st1" cx="346.9" cy="451.7" r="32.6"/>
<g>
	<path class="st1" d="M159.5,385.1h-75c-3.1,0-6.1,1.2-8.3,3.5c-2.3,2.3-3.5,5.2-3.5,8.3l0,0c0,3.1,1.2,6.1,3.5,8.3
		c2.3,2.3,5.2,3.5,8.3,3.5c23.8,0,75,0,75,0V385.1L159.5,385.1z"/>
	<path class="st2" d="M442,396.9c0-3.1-1.2-6.1-3.5-8.3s-5.2-3.5-8.3-3.5c-53.4,0-270.7,0-270.7,0v23.6h270.7c3.1,0,6.1-1.2,8.3-3.5
		C440.8,403,442,400,442,396.9L442,396.9L442,396.9z"/>
</g>
<circle class="st3" cx="159.5" cy="396.9" r="19.4"/>
<path class="st3" d="M126.3,436.3c-0.9-0.7-2.1-0.7-3.1-0.2s-1.6,1.6-1.6,2.8c0,7.1,0,18.7,0,25.9c0,1.2,0.7,2.3,1.6,2.8
	c1,0.5,2.3,0.5,3.1-0.2c5.4-3.6,14.2-9.5,19.3-12.8c0.9-0.5,1.4-1.6,1.4-2.6s-0.5-1.9-1.4-2.6C140.6,445.8,131.7,439.9,126.3,436.3
	L126.3,436.3z"/>
<g>
	<path class="st3" d="M185.5,461.3c-0.3-0.3-0.7-0.5-1-0.5c-1.9,0-7.6,0-10.4,0c-0.3,0-0.9-0.2-1-0.5c-0.3-0.3-0.5-0.7-0.5-1
		c0-3.5,0-11.8,0-15.1c0-0.3,0.2-0.9,0.5-1c0.3-0.3,0.7-0.5,1-0.5c2.8,0,8.5,0,10.4,0c0.3,0,0.9-0.2,1-0.5c1.7-1.7,8.3-8.3,9.2-9.2
		c0,0,0.2-0.2,0.2,0l0,0c5.4,0,5.7,33.5,0.7,37.1c-0.5,0.2-1,0-1.4-0.3C192.3,468,187.1,462.8,185.5,461.3L185.5,461.3z"/>
	<g>
		<path class="st3" d="M204.4,438.7c1,2.4,1.7,7.5,1.7,13c0,5.7-0.7,10.6-1.7,13c-0.9,1.9,0.2,4.2,2.1,4.9c1.9,0.9,4.2-0.2,4.9-2.1
			c1.2-2.9,2.3-9,2.3-16s-1-12.8-2.3-15.8c-0.7-1.9-2.9-2.9-4.9-2.1C204.6,434.6,203.7,436.8,204.4,438.7z"/>
	</g>
</g>
<g>
	<path class="st3" d="M301.8,447c0-4.9-4-8.8-8.8-8.8c-12,0-33.1,0-45.1,0c-4.9,0-8.8,4-8.8,8.8c0,2.9,0,6.4,0,9.4
		c0,4.9,4,8.8,8.8,8.8c12,0,33.1,0,45.1,0c4.9,0,8.8-4,8.8-8.8C301.8,453.5,301.8,450,301.8,447z"/>
	<path class="st4" d="M252.7,455.5h17.5c2.1,0,3.8-1.7,3.8-3.8s-1.7-3.8-3.8-3.8h-17.5c-2.1,0-3.8,1.7-3.8,3.8
		S250.6,455.5,252.7,455.5z"/>
	<path class="st4" d="M284.8,455.5h3.5c2.1,0,3.8-1.7,3.8-3.8s-1.7-3.8-3.8-3.8h-3.5c-2.1,0-3.8,1.7-3.8,3.8
		C281.1,453.8,282.7,455.5,284.8,455.5z"/>
</g>
<path class="st3" d="M354,450.5v-14.9c0-0.7,0.3-1.4,0.7-1.7c0.5-0.5,1.2-0.7,1.7-0.7c1.7,0,4.2,0,6.1,0c0.7,0,1.4,0.3,1.7,0.7
	c0.5,0.5,0.7,1.2,0.7,1.7c0,6.8,0,25.5,0,32.3c0,0.7-0.3,1.4-0.7,1.7c-0.5,0.5-1.2,0.7-1.7,0.7c-1.7,0-4.2,0-6.1,0
	c-0.7,0-1.4-0.3-1.7-0.7c-0.5-0.5-0.7-1.2-0.7-1.7V453c-0.2,0.3-0.5,0.7-0.9,0.9c-5,3.5-15.1,10.2-20.6,13.9
	c-0.9,0.5-1.7,0.5-2.6,0.2c-0.9-0.5-1.4-1.4-1.4-2.3c0-7.1,0-20.6,0-27.8c0-0.9,0.5-1.7,1.4-2.3c0.9-0.5,1.9-0.3,2.6,0.2
	c5.6,3.8,15.6,10.4,20.6,13.9C353.5,449.8,353.8,450.2,354,450.5L354,450.5z"/>
<g>
	<path class="st3" d="M222.8,192.8c-0.3-0.3-0.7-0.4-1.2-0.4c-11.3,0-162.7,0-162.7,0c-12.6,0-22.9-10.3-22.9-22.9
		c0-28.8,0-78.1,0-107c0-12.6,10.3-22.9,22.9-22.9h184.6c12.6,0,22.9,10.3,22.9,22.9v107c0,10.5-7.1,19.4-16.7,22.1
		c-1,0.3-1.6,1.3-1.4,2.4c0.7,3.5,2.4,11.1,3.5,16.3c0.2,0.8-0.2,1.7-0.9,2.1c-0.7,0.5-1.6,0.4-2.3-0.1
		C241,206.6,225.8,195.1,222.8,192.8L222.8,192.8z"/>
	<path class="st2" d="M212,182.1c-0.3-0.3-0.7-0.4-1.2-0.4c-11.3,0-162.7,0-162.7,0c-12.6,0-22.9-10.3-22.9-22.9
		c0-28.8,0-78.1,0-107c0-12.6,10.3-22.9,22.9-22.9h184.6c12.6,0,22.9,10.3,22.9,22.9v107c0,10.5-7.1,19.4-16.7,22.1
		c-1,0.3-1.6,1.3-1.4,2.4c0.7,3.5,2.4,11.1,3.5,16.3c0.2,0.8-0.2,1.7-0.9,2.1c-0.7,0.5-1.6,0.4-2.3-0.1
		C230.3,195.8,215,184.4,212,182.1L212,182.1z"/>
	<path class="st3" d="M140.4,99.3c9.1-5.9,18.2-11.7,26.3-16.8c16.5-10.5,29-18.1,29-18.1c1.5-1,3.5-0.5,4.5,0.9
		c1,1.5,0.5,3.5-0.9,4.5c0,0-12,8.4-28.2,19.4c-7,4.8-14.8,10.1-22.8,15.4c3.9,2.6,7.8,5.2,11.5,7.7c21.6,14.7,39.4,27.1,39.4,27.1
		c1.5,1,1.9,3,0.9,4.5s-3,1.9-4.5,0.9c0,0-18.4-11.4-40.5-25.5c-4.8-3-9.9-6.3-14.8-9.5c-5,3.2-10,6.4-14.8,9.5
		c-22,14-40.5,25.5-40.5,25.5c-1.5,1-3.5,0.5-4.5-0.9c-1-1.5-0.5-3.5,0.9-4.5c0,0,17.8-12.4,39.4-27.1c3.7-2.5,7.6-5.1,11.5-7.7
		c-8-5.3-15.8-10.6-22.8-15.4c-16.2-11-28.2-19.4-28.2-19.4c-1.5-1-1.9-3-0.9-4.5s3-1.9,4.5-0.9c0,0,12.4,7.6,29,18.1
		C122.2,87.6,131.3,93.4,140.4,99.3L140.4,99.3z"/>
	<path class="st3" d="M53.6,18.7h-7.5c-17.9,0-32.4,14.5-32.4,32.4c0,4.5,0,7.8,0,7.8c0,1.2,1,2.2,2.2,2.2s2.2-1,2.2-2.2
		c0,0,0-3.2,0-7.8c0-15.5,12.6-28,28-28h7.5c1.2,0,2.2-1,2.2-2.2C55.9,19.7,54.8,18.7,53.6,18.7z"/>
</g>
<g id="flamenco-119" transform="translate(2.5 2.5)">
	<g id="Group_17_">
		<path id="New-shape-3" class="st5" d="M214.5,328.9l2.4-0.2l5.2,4.9c0,0,1.7,11.8,4.3,22c0.9,3.6,2.8,4.9,4.5,5.4
			c2.9,1,5.7-0.7,6.4-1.6c1-1.2-0.9-7.3-1.2-11.6c-0.5-4.2-0.2-4.2-0.2-4.2s8,4.3,17.7,5c9.7,0.5,21-2.6,21-2.6s-0.5,5.2-2.3,11.3
			c-0.7,2.1,0.7,3.6,1.7,4.2c1.4,0.5,4.2,0.7,5.9-0.3c2.4-1.6,6.8-21,6.8-21l5.9-5.7c0,0-0.9,3.1-1.9,9.4c-0.7,4.2-1.9,7.5-3.1,10.6
			c-0.5,1.4-1.7,4.5-1.4,5.9c0.3,1,3.3,1.6,3.3,1.6l2.3,0.2c1-0.2,3.1-0.2,4.2-1.4c1.2-1.4-0.5,2.4,5.4-12.8
			c5.9-15.3,4.5-33.3,4.5-33.3s2.6-0.5,9.4-3.6c22.7-10.8,17.4-22.6,19.3-35.6c0.9-5.4,4.5-9.2,10.8-10.8c6.4-1.6,14.6-1.7,17-2.9
			c6.8-3.5,7.5-11.8,3.1-16.3c-1.4-1.6-2.6-3.1-9.9-3.1c-4.5,0-8.8,1.2-10.2,1.7c-26.7,11.3-24.8,43.7-25,47.4s-1.7,7.3-6.2,10.4
			c-2.3,1.6-10.2,2.9-10.2,2.9s-0.7-5.7-4.3-9.2c-3.6-3.5-8.2-5.2-13.2-5.2s-3.6,0.5-12.8,2.1c-22.9,3.8-18.4-13.9-18.4-13.9
			l2.1-4.2l4.5-9.4c0,0,5.6-5.9,8.8-11.3c3.3-5.4,4.3-9.7,4.3-9.7s-3.6-0.7-8.5-0.7s-10.4,1.4-10.4,1.4s-4.9-6.1-11.3-8.5
			s-14.2-1.2-14.2-1.2s-2.6-4.7-5.6-7.8c-2.9-3.1-6.4-4.9-6.4-4.9s-2.3,3.5-3.5,9.4s-1,8.2-1,13.9"/>
		<path id="New-shape-2" class="st5" d="M219.5,238c0,0-14.4,15.1-18.2,40.1c-1.6,10.4-1,24.5,0.2,39.2s6.1,30.2,7.5,34.2
			c1.2,4,3.3,9.9,6.4,9.9c3.1,0,6.8,0.3,7.3-2.6c0.7-2.9-2.3-9.9-4-16.1l-3.1-18l-2.1-76"/>
		<g id="Group" transform="translate(0.84910583 73.246765)">
			<path id="Shape" class="st6" d="M257.8,275.7c-1.6,0-2.9,0.2-4.2,0c-1.6-0.2-3.1-0.3-4.5-0.3c-0.5,0-1-0.2-1.6-0.3
				c-0.5-0.2-0.5-0.3-0.9-0.3s-0.3,0.2-1,0c-0.5-0.2-1.2-0.7-1.7-0.9c-1-0.3-2.1-0.3-3.1-0.9c-2.3-1.2-4.3-1.7-6.6-2.9
				c-0.5-0.2-0.9-0.5-1.4-0.9c-0.5-0.2-1.4-0.7-2.1-1c-0.7-0.5-1.4-1-2.1-1.6c-0.5-0.3-0.9-0.9-1.4-1c-1.4-0.7-1.9-2.1-3.3-2.9
				c-0.2-0.2-0.9-0.2-1-0.3s0-0.7-0.2-0.9s-0.7-0.2-1-0.5c-0.3-0.2-1-0.9-1.2-1c-0.3-0.3-0.7-1-1-1.2c-0.3-0.3-0.9-0.7-1.2-1
				c-0.2-0.2-0.3-0.9-0.7-1.2c-0.2-0.2-0.5-0.2-0.5-0.3c-0.5-0.5-0.9-1.2-1.6-1.7c-0.5-0.3-1-1-1.2-1.6c-0.2-0.3-0.9-0.7-1-1.2
				c-0.2-0.2-0.2-0.5-0.3-0.9h-0.2c-0.3,0-0.5-0.2-0.3-0.5c-0.5-0.7-0.9-1.9-1.4-2.6c-0.2-0.2-0.5-0.2-0.7-0.3
				c-0.3-0.5-0.2-0.9-0.5-1.2c-0.2-0.2-0.5-0.2-0.7-0.3c-0.2-0.3-0.2-1-0.3-1.4c-0.3-0.9-1.2-1.4-1.6-2.1c0-0.2,0-0.5,0-0.7
				c-0.2-0.3-0.3-0.7-0.5-1c-1.2-2.8-2.4-5.2-3.5-8c-0.5-1.2-0.7-2.6-1-3.8c-0.7-2.1-1-4.2-1.4-6.4c-0.2-0.9,0-1.7-0.2-2.6
				c-0.2-0.5-0.3-0.5-0.3-1.2c0-0.3,0.2-0.7,0-1c0-0.5-0.2-1-0.3-1.6c0-0.7,0.2-1.4,0.2-1.9c0-1.4,0-2.6,0.2-4
				c0.2-1,0.3-2.1,0.3-3.3c0-0.2-0.3-0.5-0.3-0.7c0-0.7,0.5-1.2,0.7-1.9c0-0.3,0.2-1,0.2-1.2c0,0.2-0.2-1.4-0.2-1
				c0,0,0.2-0.9,0.2-0.5l0.2-1c0-0.2,0.3-0.3,0.3-0.5c0.2-0.5-0.2-0.9,0-1.4c0.2-1,0.5-2.4,0.9-3.3c0.2-0.7,0.5-1.4,0.7-2.1
				c0.2-0.5,0.3-1,0.5-1.6c0-0.2,0.3-0.5,0.3-0.7s0.2-0.5,0.2-0.9c0.2-0.5,0.7-1,0.9-1.6c0.3-1.2,0.5-2.3,1-3.3
				c0.5-1.4,1.4-3.1,2.3-4.3c0.5-0.7,0.5-1.4,1-2.1c0.2-0.2,0.5-0.3,0.7-0.5c0.2-0.3,0-0.7,0.3-1c0.7-1.4,1.7-2.3,2.3-3.5
				c0.2-0.5,0.5-1.4,1-1.7c0.3-0.2,1-0.5,1.4-0.7c0.3-0.2,0.9-0.3,1.2-0.3c0.5,0,1,0.2,1.4,0c0.3,0,0.9-0.3,1.2-0.5
				c0.5-0.2,0.9,0,1.4-0.2c0.7-0.2,1.2-0.7,1.9-0.9c0.9-0.2,1.7-0.2,2.4-0.3c0.3,0,0.5-0.3,0.7-0.3c0.3,0,0.5,0.2,0.9,0
				c0.5-0.2,0.3-0.3,1-0.3c0.3,0,0.7,0,1,0c1.7-0.2,3.6-0.5,5.6-0.7c0.9-0.2,1.6,0,2.3,0.2c0.5,0.2,2.1,0.3,2.4,1
				c0.2,0.3,0.2,1,0.2,1.6c0.2,1,0,1.6,0,2.4c0,0.7,0.2,1.6,0.2,2.4c0,0.5-0.2,0.5-0.2,1c0,0.3,0.2,0.9,0,1.2c0,0.3-0.3,1.4-0.3,1.6
				c0.2,0.7,0.7,1.6,1,2.1s0.9,1.2,1.4,1.9c0.2,0.2,0,0.5,0.2,0.7c0.3,0.5,1,0.9,1.4,1.4c0.3,0.5,0.5,1,1,1.6c0.3,0.3,1,0.5,1.4,1
				c0.5,0.5,0.5,1.4,1.2,1.9c0.3,0.2,0.5,0.3,0.9,0.5c0.3,0.3,0.5,0.5,0.7,0.9c1,1,2.1,2.4,3.3,3.3c0.7,0.5,1.2,1,1.9,1.6
				c0.2,0.2,0.5,0.5,0.5,0.5c0.2,0.2,0.7,0.3,0.9,0.5s0.3,0.5,0.5,0.9c0.2,0.2,0.5,0.2,0.5,0.3c0.3,0.2,0.3,0.7,0.5,0.9
				c0.2,0.2,0.5,0,0.7,0.2c1.2,1.2,0.2,2.1-0.3,3.3c-0.2,0.5-1,1-1.2,1.7c-0.2,0.2,0,0.7,0,1s-0.3,0.5-0.3,0.9
				c-0.3,1.4-0.5,3.1-0.2,4.5c0,0.2,0.3,0.3,0.3,0.5s-0.2,0.2-0.2,0.3c-0.2,0.3-0.2,0.5,0.2,0.7c0,0.5,0.5,1.4,0.9,1.9
				c0.5,0.7,0.9,1.4,1.4,1.9s1.6,1,2.3,1.4c1.2,0.9,2.6,1.4,4,1.6c0.5,0.2,1,0.3,1.6,0.5c0.2,0,0.5-0.2,0.7-0.2
				c0.5,0.2,0.7,0.5,1.2,0.5c0.7,0,1.6-0.3,2.4-0.2s0.9,0,1.6-0.2c0.3,0,0.7,0,1-0.2c-0.2,0,0.7-0.3,0.5-0.3
				c0.7-0.3,1.6-0.3,2.3-0.5c0.3-0.2,0.5-0.5,0.9-0.5c0.2,0,0.9-0.2,1-0.2c0.7-0.2,1.6-0.5,2.3-0.5c0.7-0.2,1.6,0,2.3-0.2
				c0.2,0,1.2-0.5,1.4-0.5c0.3,0,0.7,0.3,1,0.3c1.6,0.2,2.9-0.3,4.3,0c0.3,0,0.5,0.3,0.7,0.5c0.2,0,0.7,0,0.9,0s0.7,0,0.9,0
				s0.3,0,0.5,0.2c0.2,0.3,0.3,0.3,0.7,0.2c0.2,0,0.5,0,0.7,0.2c0.3,0.2,0.5,0.5,0.9,0.5c0.2,0.2,0.5,0,0.7,0c0.2,0.2,0.9,0.7,1,0.9
				c0.7,0.3,1.4,0.5,2.1,0.9c0.7,0.3,1,0.9,1.6,1.4c1,1,2.3,1.9,3.1,2.9c0.5,0.7,0.7,1,1,1.9c0.3,0.7,0.5,1.2,1,1.9
				c0.5,0.9,0.3,1.6,0.7,2.4c0.2,0.5,0.7,1,0.9,1.7c0,0.3,0,0.5,0,1c0,0.3,0.3,0.5,0.3,0.9c0,0.7-0.3,1.7-0.2,2.6
				c0,0.3,0.3,0.7,0.3,1s-0.2,0.5-0.2,0.9c0,0.7-0.2,1.6-0.2,2.3c0,1-0.2,1.6-0.5,2.6c-0.2,0.3-0.5,0.7-0.5,1.2
				c-0.2,0.2-0.2,0.5,0,0.7c0.2,0.3,0.2,0.5-0.2,0.5c0-0.3-0.3,0.7-0.2,0.5c-0.2,0.5-0.2,1-0.5,1.6c-0.2,0.5-0.7,1-0.9,1.4
				c-0.3,0.5-0.3,1-0.7,1.6c-0.3,0.7-1.2,1-1.6,1.7c-0.7,1-1,2.3-2.3,3.3c-1.2,1-1.9,2.1-2.9,3.3c-0.2,0.2-0.5,0.3-0.7,0.5l-0.5,0.5
				c-0.3,0.3-0.9,0.7-1,1c-0.2,0.2-0.2,0.5-0.3,0.7c-0.2,0-0.2,0-0.3,0c-0.3-0.2-0.5,0-0.5,0.3c0,0-0.3,0.5-0.5,0.5
				c-0.5,0.5-1.6,1-2.1,1.6c-0.3,0.3-0.9,0.7-1.2,1c-0.5,0.3-0.7,0.3-1.2,0.7c-0.2,0.2-0.2,0.5-0.3,0.5c-0.7,0.3-1,0.2-1.6,0.7
				c-0.9,0.7-1.7,0.5-2.6,1.2c-0.5,0.3-1,0.9-1.6,1.2c-0.9,0.5-1.7,0.5-2.4,0.9c-1.4,0.5-2.4,1.4-4,1.6c-1.4,0.2-2.8,0.9-4,1.4
				c-0.7,0.3-1.2,0.3-1.9,0.5c-0.7,0-1.2,0.2-2.1,0.5c-1,0.3-2.3,0.2-3.5,0.3c-0.7,0-1.7,0.3-2.4,0.5c-0.2,0-0.9,0-0.9,0
				c-0.2,0-0.2,0.2-0.3,0.2C258.1,275.9,258,275.9,257.8,275.7L257.8,275.7z"/>
		</g>
		<g id="Group_1_" transform="translate(315.65802 78.13864)">
			<path id="Shape_1_" class="st6" d="M-17.3,225.5c0.9,0.2,1.9,0.5,2.9,0.5c0.3,0,0.7-0.2,1-0.2c0.5,0,0.9,0.3,1.4,0.3
				s1-0.3,1.4-0.3c0.7,0,1,0.2,1.7,0c0.3-0.2,0.7-0.3,1-0.3c0.7-0.2,1.2-0.3,1.9-0.5c0.5-0.2,1-0.2,1.4-0.2c0.5-0.2,0.7-0.3,1.2-0.5
				s0.9-0.2,1.4-0.5s0.7-0.5,1.2-0.9c0.9-0.5,1.4-1,2.1-1.7c0.9-1,1.2-1.7,1.7-2.9c0.2-0.3,0.3-0.3,0.5-0.9c0.2-0.3,0.2-1,0.3-1.4
				c0.2-0.7,0.3-1.7,0.5-2.4V213c0-0.2,0.3-0.3,0.3-0.7c0-0.5-0.3-1.2-0.2-1.7c0.2-1.2,0.5-2.6,0.3-4c0-0.5-0.2-0.9,0-1.4
				c0-0.5,0-1,0-1.4c0-1,0.3-2.1,0.5-3.3c0.2-0.9,0-1.7,0.3-2.6c0.2-0.3,0.2-0.9,0.3-1c0-0.2-0.2-0.3-0.2-0.5
				c0.2-0.3,0.5-0.5,0.5-0.9c0.2-0.7,0.3-1.6,0.5-2.3c0.2-1,0.7-1.9,1-2.9c0.2-0.3,0.2-0.7,0.3-1c0.2-0.5,0.5-0.9,0.7-1.4
				c0.3-1,0.7-2.1,1.4-3.1c0.2-0.3,0.7-0.7,0.9-1c0-0.2-0.2-0.5-0.2-0.9c0-0.2,0.3-0.2,0.3-0.3c0.5-1.2,1.4-1.9,1.9-2.9
				c0.5-0.7,0.7-1.7,1.2-2.4c0-0.2,0.5,0,0.5-0.2l0.2-0.5c0.3-0.3,0.7-0.7,1.2-1.2c0.5-0.5,1.2-1.4,1.7-1.9c0.3-0.5,0.3-1,1-1.4
				c0.5-0.3,1-0.7,1.6-1.2c0.3-0.2,1-0.5,1.4-0.7c0.2-0.2,0.2-0.7,0.3-0.9c0.3-0.3,1.2-0.2,1.6-0.5c0.5-0.3,1-0.9,1.6-1
				c1.9-0.7,3.5-1.7,5.7-2.3c1.2-0.3,2.1-0.3,3.3-0.5c0.5-0.2,0.7-0.3,1-0.3c0.5,0,1,0.2,1.7,0c1-0.2,1.6-0.3,2.4-0.2
				c0.5,0,1.4-0.2,1.7-0.2c0.5,0,0.5,0.2,1,0.3c0.2,0,0.9,0,1.2,0c0.2,0,0.5,0.2,0.7,0.3c0.2,0,0.5-0.3,0.7-0.2c1,0.2,2.1,1,2.9,1.7
				c0.9,0.5,1.4,1,1.9,1.7c0.2,0.2,0.3,0.2,0.5,0.3c0.2,0.2,0,0.5,0.2,0.7c0.2,0.5,0.7,1,0.9,1.6c1,2.1,1,5.2,0.3,7.3
				c-0.2,0.9-0.9,1.9-1.4,2.8c-0.5,0.9-1,1.2-1.7,1.7c-0.2,0.2-0.2,0.5-0.3,0.5c-0.2,0.2-0.3,0-0.5,0.2c-0.5,0.3-1.2,0.7-1.9,0.9
				c-0.5,0.2-0.7,0.2-1.2,0.2c-0.2,0-0.7,0-1,0.2c0.2,0-0.9,0.5-0.7,0.5c-0.3,0-0.5-0.2-0.9-0.2c-0.7,0-1,0.3-1.6,0.5
				c-1,0.2-2.1,0-2.9,0.2c-0.7,0-1,0.2-1.6,0.3c-0.5,0.2-1.2-0.2-1.7,0c-0.2,0-0.7,0.3-0.9,0.5c-0.3,0.2-1,0.2-1.4,0.2
				c-0.5,0-0.9-0.2-1.2,0c-0.5,0.2-0.9,0.5-1.4,0.5c-1.2,0.3-2.1,0.5-3.3,1.2c-0.9,0.5-1.7,0.7-2.4,1.4c-0.3,0.2-0.7,0.5-1,0.7
				c0,0-0.2,0.3-0.3,0.3l-0.7,0.5c-0.5,0.5-0.9,1.2-1.2,1.9c-0.2,0.2-0.3,0.5-0.5,0.9c-0.3,0.5-0.3,0.7-0.5,1.2
				c-0.9,1.7-1,4.2-1.2,6.1c-0.2,0.7,0.2,1.6,0.2,2.4c0,0.3-0.3,0.7-0.3,1.2c-0.2,0.7,0.2,1.6,0.2,2.3v0.5c0,0-0.3,0.2-0.3,0.3
				c0,0.3,0.2,0.7,0.2,1c0,0.5,0,1.2,0,1.6c0,0.3-0.2,1-0.2,1.2c-0.2,0.9-0.5,1.7-0.7,2.4c-0.2,1-0.5,1.9-0.9,2.9
				c-0.5,1.7-1.2,2.9-2.3,4.3c-0.2,0.2,0.2,0.5,0,0.5c-0.2,0.2-0.5,0.2-0.7,0.3c-0.3,0.3-0.7,0.9-1,1.2c-0.3,0.5-0.5,1-0.9,1.4
				c-0.3,0.3-0.9,0.7-1.2,0.9c-0.2,0.2-0.2,0.5-0.3,0.5c-0.2,0.2-0.5,0-0.5,0.2c-0.5,0.3-0.9,0.9-1.4,1.2c-0.9,0.9-1.7,1-2.6,1.7
				c-0.7,0.5-1.6,1-2.4,1.4c-0.5,0.2-0.9,0.5-1.2,0.7c-0.2,0.2-0.5,0-0.7,0.2S0.7,232,0.4,232c-0.9,0.5-1.9,0.5-2.8,1
				c-1,0.5-1.9,0.3-2.8,0.9c-0.3,0.2-0.7,0.5-1,0.5c-0.7,0.2-1.4,0.5-2.1,0.5c-1.4,0.3-2.8,0.5-4.2,0.9c-1,0.2-2.1,0.2-3.3,0.5
				c-0.5,0.2-1.2,0-1.7,0c-0.2,0-0.5,0-0.7,0s-0.3,0.3-0.7,0.3c-0.9,0-1.6-0.2-2.3-0.2c-1,0-2.1-0.2-3.1-0.2s-2.1-0.3-3.3-0.5
				c-0.7-0.2-1,0-1.7,0s-1.2-0.5-1.9-0.9c-1-0.3-2.1-0.3-2.8-0.3c-0.2,0-0.5-0.3-0.5-0.5c-0.2,0-0.3,0-0.5,0c-0.3-0.2-0.7-0.3-1-0.5
				c0.3-0.2,0.5-0.5,0.9-0.7c0.5-0.3,1.2-0.5,1.7-0.7c0.9-0.3,1.7-0.5,2.4-0.9c0.2,0,0.9-0.5,0.9-0.5s0.7-0.5,0.9-0.5
				c0.2,0,0.9-0.2,1-0.2c0.3-0.2,0.9-0.3,1.2-0.5c1.2-0.5,2.4-1.4,3.5-1.7C-20.7,227.1-19,226.2-17.3,225.5L-17.3,225.5z"/>
		</g>
		<g id="Group_2_" transform="translate(35.613464 45.900665)">
			<path id="Shape_2_" class="st6" d="M226.1,214.3c0,0.7-0.2,1.2-0.2,1.9c-0.2,0.7,0,1.2,0,1.7c0,0.3-0.2,1-0.2,1.4
				c-0.2,0.3-0.3,0.5-0.5,0.9c-0.2,0.5,0,1-0.2,1.6c-0.2,0.3-0.3,0.9-0.5,1.2c-0.2,0.5-0.5,0.7-0.7,1.2c0,0.2,0.2,0.5,0,0.7
				s-0.5,0.2-0.5,0.5c-0.2,0.5-0.3,0.9-0.5,1.2c-0.3,0.7-0.5,1-1,1.6c-1,1.2-1.6,2.4-2.6,3.3c-0.5,0.5-0.5,1-0.9,1.4
				c-0.5,0.7-1.2,0.7-1.7,1.2c-0.2,0.2-0.3,0.7-0.7,1c-0.2,0.2-1,0.7-1,0.7c-0.3,0.2-0.7,0-1,0.2s-0.3,0.5-0.7,0.7
				c-0.7,0.5-1.4,0.5-2.1,0.7c-0.7,0.3-1.2,1-1.9,1.4c-1,0.5-2.8,0.7-3.8,0.9c-1.2,0.2-2.6,0.3-4,0.3c-0.9,0-1.7,0.3-2.6,0.2
				c-0.9,0-1.6-0.5-2.4-0.5c-0.7,0-1,0.2-1.7,0c-0.2-0.2-0.5-0.5-0.7-0.5c-0.3,0-0.9,0-1.2,0c-1,0-2.1-0.9-2.9-1.4
				c-0.7-0.5-1.4-0.3-2.3-0.7c-0.2-0.2-0.3-0.3-0.5-0.5c-0.3-0.2-0.9-0.3-1.2-0.5c-0.9-0.5-1.2-1.2-1.9-1.7c-0.5-0.3-1-0.7-1.6-1.2
				c-1-1-1.9-1.9-2.8-2.9c-1.7-1.9-2.8-4.2-3.8-6.6c-0.3-0.7-0.7-1.2-0.9-2.1c-0.2-1-0.3-1.9-0.5-2.9c-0.3-1.6-0.7-3.1-0.5-4.9
				c0.2-1,0-2.1,0.2-3.1c0.2-0.5,0-1.2,0.2-1.7c0-0.3,0.3-0.5,0.5-0.9c0.2-0.5,0-1.2,0-1.7c0.2-0.5,0.7-1,0.9-1.7
				c0.2-0.9,0.3-1,0.9-1.7c0.7-1,1.2-2.1,1.7-3.1c0.7-1,1.4-1.9,2.1-2.9c0.5-0.5,0.9-0.9,1.4-1.4c0.2-0.2,0.2-0.5,0.3-0.7
				c0.5-0.3,1-0.3,1.4-0.7c0.5-0.3,0.9-0.9,1.4-1.2s0.9-0.5,1.4-0.9l0.5-0.5c-0.2,0,0.7-0.3,0.5-0.3c0.2,0,0.2,0,0.3,0
				c0.2-0.2,0.3-0.3,0.5-0.5c0.5-0.3,1-0.5,1.6-0.7c2.9-0.9,5.6-2.1,8.5-2.3c0.5,0,0.9,0.2,1.2,0.2s0.5-0.3,0.9-0.3
				c0.7,0,0.5,0.2,1,0.2c0.2,0,0.7,0,0.9,0c1.2,0.2,2.3,0.5,3.5,0.5c1.4,0.2,2.8,0.7,4,1.2c1,0.3,2.6,1,3.8,1.6
				c0.7,0.3,1.4,1,2.1,1.4c0.2,0.2,0.2,0.5,0.3,0.5c0.2,0.2,0.7,0.2,1,0.3c0.7,0.3,1.4,1.2,1.9,1.9c0.3,0.5,0.9,1,1.4,1.4
				c1.2,1.2,1.7,2.1,2.4,3.5c0.9,1.6,1.9,2.6,2.4,4.3c0.2,0.9,0.3,1.7,0.5,2.6l0.3,0.5c0.2,0,0.2,0.2,0.3,0.2c0,0.2-0.2,0.5-0.2,0.7
				C225.6,210.9,226.1,212.6,226.1,214.3L226.1,214.3z"/>
		</g>
		<g id="Group_3_" transform="translate(52.793793 0.37280273)">
			<path id="Shape_3_" class="st6" d="M162.9,254.1c-0.3-1.2-0.9-2.4-0.9-3.6c0-0.5-0.3-1-0.3-1.6c-0.2-0.9-0.2-1.4-0.3-2.3
				c0-0.2,0.2-0.2,0.2-0.3c-0.2-0.2-0.3-0.3-0.3-0.5c0-0.3-0.2-1-0.2-1.2c0-0.5,0.3-0.7,0.3-1.4c0-0.2-0.5-0.5-0.5-0.7
				s0.2-1,0.2-1.4c0-0.5,0-0.9,0-1.4c0-0.7-0.2-0.5-0.2-1.4c0-0.5,0.3-0.9,0.3-1.2c0-0.9-0.2-1.7,0-2.6c0.2-0.7,0.3-1.2,0.5-1.9
				c0-0.3-0.2-0.5,0-0.9c0-0.3,0.3-0.5,0.3-0.7c0-0.3,0-0.5,0-0.9c0.2-0.5,0.3-0.9,0.5-1.4c0.3-1.4,0.7-2.9,1.4-4.5
				c0.7-1.7,1-3.3,2.9-1.9c1,0.9,2.4,1.2,3.3,2.3c0.5,0.5,0.9,1,1.4,1.4c0.7,0.5,0.9,0.7,1.4,1.4c0.7,1,1.9,1.6,2.6,2.6
				c0.3,0.5,0.2,0.7,0.5,1.2c0.2,0.2,0.5,0.5,0.7,0.7c0.5,0.5,0.9,1.2,1.2,1.9c0.7,1,1,1.9,1.7,3.1c0.3,0.5,0.5,1.4,0.7,2.1
				c0,0.5,0.3,0,0.2,0.7c0,0.2-0.7,0.3-0.9,0.5c-0.5,0.3-0.7,0.7-1.2,1c-0.7,0.3-0.5,0.9-1,1.4s-0.9,0.3-1.4,0.7
				c-0.5,0.3-0.7,1-1.4,1.4c-0.5,0.3-1.2,0.5-1.7,0.9c-0.5,0.3-0.5,1-1.2,1.4c-0.5,0.3-1,0.3-1.6,0.9c-0.5,0.3-0.9,1.2-1.2,1.6
				c-1,0.9-2.3,1.6-3.1,2.3c-0.5,0.3-1,0.9-1.6,1.2c-0.2,0.2-0.3,0.2-0.5,0.3C163.8,253.4,163.1,254.1,162.9,254.1L162.9,254.1z"/>
		</g>
		<g id="Group_4_" transform="translate(199.17899 81.12564)">
			<path id="Shape_4_" class="st6" d="M54.6,189.2c1.2-0.5,2.9-1.2,4-2.3c0.3-0.3,0.3-0.7,0.9-1c0.2-0.2,0.5,0,0.7-0.2
				c0.3-0.2,0.3-0.5,0.7-0.7c0.3-0.2,0.7-0.2,1-0.3c0.7-0.5,1.4-1.4,2.1-2.1c0.5-0.3,0.9-0.7,1.2-1c0.7-0.5,0.9-0.9,1.4-1.4
				c0.2-0.2,0.5-0.5,0.7-0.7s0.3-0.5,0.5-0.9c0.5-0.5,1-1,1.6-1.7c0.3-0.5,0.5-1.2,1-1.7c0.2-0.2,0.5-0.3,0.7-0.5s0.2-0.5,0.2-0.9
				c0.2,0,0.2-0.2,0.3-0.2c0.3,0,0.5-0.2,0.3-0.5c0.2-0.3,0.5-0.7,0.7-1c0.5-0.7,0.5-1.6,1-2.3c0.3-0.5,0.9-1,1-1.6
				c0.3-0.7,0.5-1.4,0.7-2.1c0.3-1,1-1.4,1-2.4s0.3-0.5-0.3-0.9c-0.5-0.3-1.2,0-1.7-0.2c-0.2,0-0.5,0-0.5,0c0.3,0-1-0.3-0.7-0.3
				c-0.5-0.2-1.7-0.5-2.3-0.5s-0.5,0.3-1.4,0.2c-0.5,0-0.5-0.3-1-0.3c-1.4,0-2.6,0.2-4,0c0,0-0.7,0-0.9,0s-0.5,0.3-0.7,0.5
				c-0.7,0-0.9-0.3-1.4-0.3c-0.2,0-1,0.5-1.2,0.5c-0.5,0.2-0.9-0.2-1.4,0c-0.7,0.2-0.7,0.5-1.2,0.7c-0.2,0-0.5-0.2-0.7-0.2
				c-0.5,0.2-1.2,0.3-1.9,0.7c-0.7,0.3-1,0.3-1.7,0.5c-0.5,0.2-0.9,0.2-1.2,0.5c-0.7,0.7-0.3,0-0.3,0.9c0,0.3,0.2,0.7,0.2,1
				c0,0.2-0.2,0.7-0.2,0.9c0,0.5,0.3,1.2,0.3,1.7c0.2,1.4,0.2,2.3,0.5,3.6c0.2,0.7,0,1.4,0.2,1.9c0.2,0.9,0.3,1.4,0.3,2.3
				c0,1.4,0.2,2.6,0.3,4c0.2,0.5,0.2,1.4,0.2,1.9c0,0.7,0.2,1.2,0.3,1.9c0.2,0.7-0.2,1.4-0.2,2.1C54.1,187.5,54.5,188.7,54.6,189.2
				L54.6,189.2z"/>
		</g>
		<g id="Group_12_" transform="translate(59.000336 87.26672)">
			<g id="Group_5_">
				<path id="Shape_5_" class="st4" d="M173.5,166.1c0,0.2-0.3,0.7-0.3,0.9c-0.2,0.3-0.2,0.9-0.3,1.2c-0.2,0.5-0.3,0.5-0.7,1
					c-0.3,0.3-0.5,1-0.9,1.4c-0.5,0.3-1.2,0.7-1.7,1c-0.2,0.2-0.9,0.7-1,0.9c-0.2,0-0.3-0.2-0.5-0.2c-0.3,0.2-0.7,0.2-1,0.3
					c-0.5,0.2-1.4,0.5-2.1,0.5c-0.3,0-0.5-0.2-1-0.3c-0.5-0.2-1-0.2-1.4-0.2c-0.5-0.2-1.7-0.5-2.4-1c-0.9-0.5-1.2-1.6-1.9-2.4
					c-0.5-0.5-0.9-0.9-1.2-1.6c-0.2-0.2-0.7-0.9-0.7-1.2s0.2-1,0.2-1.6c-0.2-1.2-0.3-1.6,0.2-2.6c0.3-0.7,0.9-1.4,1.4-2.1
					c0.5-0.9,0.7-1.2,1.6-1.7c0.3-0.2,0.3-0.3,0.9-0.5c0.5-0.2,1-0.2,1.4-0.3c0.5-0.2,0.7-0.7,1.6-0.5c0.3,0,0.9,0,1.2,0.2
					c0.3,0,0.5,0,1,0.2s0.9,0.5,1.4,0.7s0.9,0,1.4,0.3c0.2,0,0.2,0.3,0.3,0.5c0.2,0.2,0.5,0,0.7,0.2c0.7,0.5,1.4,1.2,1.9,1.7
					c0.3,0.3,1,0.5,1.2,1c0.2,0.3,0.2,0.7,0.3,1c0,0.2,0.3,0.2,0.5,0.3c0,0.2-0.2,0.5-0.2,0.7s0.3,0.2,0.3,0.3
					C173.5,165.1,173.5,165.4,173.5,166.1L173.5,166.1z"/>
			</g>
			<g id="Group_6_" transform="translate(20.01767 23.267166)">
				<path id="Shape_6_" class="st7" d="M145.4,142c0,0.2-0.7,1-0.9,1.2c-0.7,0.5-1,0.3-1.6,0.2c-0.7-0.2-1.7-1-1.4-1.9
					c0.2-0.5,1.4-1.6,2.1-1.6c0.7,0,0.7,0.7,1,1C144.7,141.3,145.4,141.1,145.4,142L145.4,142z"/>
			</g>
			<g id="Group_7_" transform="translate(101.08136 34.157196)">
				<path id="Shape_7_" class="st4" d="M98.8,139.4c0,0.3-0.5,1.4-0.7,1.9s-0.5,1.4-0.9,1.7c-0.5,0.7-1,1.4-1.7,1.9
					c-0.5,0.3-1,0.5-1.4,0.7c-0.3,0.2-0.2,0.5-0.9,0.7c-0.2,0-0.5-0.2-0.7-0.2c-0.2,0.2-0.2,0.3-0.3,0.5c-0.2,0-0.9,0.2-1.2,0.2
					c-0.9-0.2-1.7,0-2.6-0.2c-1.6-0.3-2.3-1.2-3.5-2.1c-1.6-1.2-3.6-3.6-3.8-5.9c0-0.5,0.2-1.4,0.3-1.9c0.2-0.7,0.3-0.5,0.7-1
					c0.3-0.5,0-0.7,0.5-1c0.5-0.5,0.9-0.5,1.4-0.9c0.3-0.2,0.9-1,1.2-1c0.5-0.2,1-0.2,1.6-0.3c1-0.3,1.7-0.3,2.8-0.3
					c1.2,0,2.3,0.3,3.5,0.7c1,0.3,1.6,0.5,2.3,1.4c0.5,0.5,1,0.5,1.6,0.9c0,0.2,0.2,0.5,0.2,0.7c0.2,0.3,0.3,0.5,0.7,0.7
					C98.3,136.8,98.8,138.3,98.8,139.4L98.8,139.4z"/>
			</g>
			<g id="Group_8_" transform="translate(138.3201 54.48105)">
				<path id="Shape_8_" class="st7" d="M56.7,118c0,1-1.9,1.4-2.6,1.2c-0.9-0.2-1.4-0.9-1-1.7c0.2-0.5,0.9-0.9,1.4-1
					C55,116.5,56.7,117.4,56.7,118L56.7,118z"/>
			</g>
			<g id="Group_9_" transform="translate(48.532196 65.780914)">
				<path id="Shape_9_" class="st7" d="M122.4,108.3c1.4-0.2,1.7-0.2,4,0.2c2.3,0.3,2.8,0.7,3.5,1c1.2,0.5,3.5,2.4,4,3.1
					c0.2,0.2,0.5,1.7-0.3,1.9s-1.7-0.3-3.5-0.9c-1.7-0.5-2.6-0.9-3.6-1c-0.7-0.2-1.4-0.3-2.1-0.5s-1-0.3-1.7-0.5
					c-0.5-0.2-1-0.3-1.7-0.5s-0.9-0.7-0.9-1.2C120,109.2,120.9,108.5,122.4,108.3z"/>
			</g>
			<g id="Group_10_" transform="translate(64.23819 66.87427)">
				<path id="Shape_10_" class="st7" d="M118.2,118.8c-0.5,0.3-1.4,0.9-2.1,1c-0.5,0.2-0.7,0.2-1.2,0.2c-1.2,0-1.6,0-2.8-0.5
					c-0.7-0.3-1.2-0.9-1.7-1.4c-0.7-0.7-1-1.9-1.4-2.8c-0.3-0.7-0.7-0.7-0.7-1.6c0-0.5,0.2-0.9,0.2-1.4c-0.2-1-0.2-1,0.2-2.1
					c0.2-0.5-0.2-1.2,0.2-1.7c0.2-0.5,0.3-0.9,1-1.2c-0.2,0,1,0,1,0c0.3,0,0.5,0,1,0.3s0.3,0.2,0.5,0.9c0.3,0.7,0.3,0.9,0,1.7
					c-0.3,0.9-0.3,1.2-0.5,2.1c-0.2,1.2,0.3,2.6,0.9,4c0.5,1.2,1.4,1.4,1.6,1.4s0.9,0.2,1.6,0s0.9-0.3,1.4-0.5
					c0.3-0.2,0.9-0.3,1.2,0C118.5,117.6,118.5,118.7,118.2,118.8L118.2,118.8z"/>
			</g>
			<g id="Group_11_" transform="translate(38.68741 76.206055)">
				<path id="Shape_11_" class="st7" d="M132.2,105.7c1.2-0.9,1.4-4.3,2.1-5.2c0.5-0.5,1.7,0.9,2.3,1.4c0.9,0.7,0.2,2.1,0,2.9
					c-0.5,1.4-1,2.3-2.3,2.8c-1.2,0.5-2.3,0.7-3.5,0.5c-0.9-0.2-2.3-0.9-2.8-1.7c-0.3-0.5-0.7-1.2-0.5-1.7l0,0
					c0.2-0.5,0.9-1,1.6-0.2C129.1,104.7,130.1,107,132.2,105.7z"/>
			</g>
		</g>
		<g id="Group_13_" transform="translate(0 214.92828)">
			<path id="Shape_12_" class="st8" d="M222.8,144.3c-0.3,1.2-1,1.9-2.4,2.1c-0.7,0-1,0.3-1.9,0c-1-0.2-1.2,0-2.1,0.2
				c-0.5,0-1.2-0.2-1.7-0.2s-2.6-1.6-2.8-2.4c0-0.5-0.3-0.7-0.5-1.2c-0.5-0.9-0.7-1.7-1-2.6c-0.5-1.4-1-2.6-1.4-4
				c-0.2-0.9-0.5-1.9-1-2.8c-0.2-0.3-0.5-0.5-0.5-0.9c-0.2-0.3,0.2-0.9,0.2-1.4c-0.3-1-0.9-1.7-1-2.8c-0.2-0.9-0.5-1.7-0.9-2.6
				c-0.2-0.3-0.2-0.9-0.2-1c-0.2-0.3-0.3-0.5-0.5-0.9c-0.2-0.5,0-1-0.2-1.7c-0.2-0.5-0.3-0.7-0.5-1.2c-0.2-0.7,0-1.2-0.3-1.9
				c-0.3-1-0.5-2.1-0.7-3.1c0-0.5,0-1.2-0.2-1.7s-0.3-0.7-0.5-1.2c0-0.2,0-0.5,0.2-0.7c-0.2-0.2-0.3-0.3-0.3-0.5c0-0.7,0-1.4,0-2.1
				c-0.2-0.9-0.2-1.6-0.3-2.4c-0.2-0.5-0.3-0.5-0.5-1.2c0-0.3,0-0.7,0-1s0-0.9-0.2-1.2c0-0.2,0.2-0.3,0.2-0.5
				c-0.2-0.2-0.3-0.3-0.5-0.5c-0.2-0.5,0-0.9,0-1.4c0-0.3,0-0.9,0-1c0-0.5-0.2-1-0.3-1.6c0-0.3,0-0.7-0.2-1
				c-0.2-0.5-0.2-0.9-0.2-1.4c0-1,0.3-2.1,0.2-3.3c-0.2-1-0.5-1.6-0.3-2.6c0-0.7,0.2-1.6,0.2-2.3c0-0.9-0.5-1.4-0.5-2.3
				c0-0.3,0.3-0.7,0.3-1c-0.2-0.2-0.2-0.5-0.3-0.7c0.2-0.2,0.2-0.5,0.3-0.7c0-0.5-0.5-0.5-0.5-1.4c0-0.2,0.3-0.5,0.3-0.7
				c0.2-1,0-2.1,0-3.3c0-0.9-0.2-1.2-0.2-1.9c-0.2-1,0.3-2.3,0.5-3.3c0-1.4,0.2-2.6,0.2-4c0.2-1,0.2-2.1,0.3-3.3
				c0.2-0.7,0.3-1.2,0.3-1.9c0-0.3-0.2-0.7,0-1c0.3-0.5,2.8-0.3,3.6-0.3c1.4,0,2.6,0,4,0c0.5,0,1-0.2,1.6-0.2c0.3,0,0.7,0.2,1,0.2
				s0.5-0.2,1-0.3c0.5,0,1.2,0,1.6,0.2c0.2,0,0.9,0,1,0.2c0.2,0.2-0.2,1.7-0.2,1.9c0,0.5,0,1.2,0,1.6c0,0.3-0.2,0.5-0.3,1
				c-0.2,0.9,0,1.7,0,2.6c0,0.7,0,1.7-0.2,2.3c-0.2,0.5-0.3,1.4-0.3,2.3c0,1.7,0.3,3.5,0,5.2c-0.2,0.5-0.3,1.4-0.2,1.9
				c0,0.5,0.3,0.5,0.3,1s-0.2,0.9-0.2,1.4s0,1.4,0,1.9c0,0.9,0,1.7-0.2,2.6c0-0.2,0.3,0.7,0.3,0.5v0.9c0,0.2-0.2,0.7-0.2,1
				c0.2,0.2,0.2,0.5,0.3,0.7c-0.2,0.2-0.2,0.5-0.3,0.7c0,1.6,0.3,2.9,0.3,4.5c0,1.2-0.2,2.1,0,3.3c0.2,1,0.2,1.6,0.2,2.6
				c0,0.3,0.2,0.9,0.3,1.4c0,0.5,0.2,1,0.2,1.6c0,0.7,0.3,1.6,0.3,2.3c0,0.3-0.2,0.7-0.2,1c0,0.5,0.2,0.9,0.2,1.4
				c0,0.3,0.2,0.9,0.2,1.2c0,0.3-0.2,0.9,0,1.2c0,0.5,0.5,0.7,0.5,1.2c0.2,0.7,0,1.2,0,1.9c0,1.2,0.5,2.1,0.7,3.1
				c0,0.3-0.2,1-0.2,1.4c0,0.7,0.3,1.2,0.5,1.9c0.2,1,0.2,1.4,0.5,2.3c0.2,0.7,0.2,1.7,0.3,2.4c0.2,0.5,0.3,0.2,0.5,1
				c0,0.2,0,0.7,0,0.9c0-0.3,0.5,1,0.3,0.7c0.2,0.3,0,1,0.2,1.4c0,0.2,0,0.2-0.2,0.3c0.2,0.2,0.3,0.3,0.5,0.5c0,0.2,0,0.7,0.2,1
				c0.5,1.9,0.9,4.2,1.4,6.1c0.3,1.4,0.9,2.4,1.4,3.6C223.1,142.9,222.8,143.4,222.8,144.3L222.8,144.3z"/>
		</g>
		<g id="Group_14_" transform="translate(335.62903 327.85938)">
			<path id="Shape_13_" class="st6" d="M-29.7-8.7C-29.8-8.5-29.8-8.2-30-8c0,0.2,0,0.5,0.2,0.7c0,0.5,0,1,0,1.4
				c0,0.2-0.2,0.3-0.2,0.5c0.2,0.2,0.2,0.3,0.3,0.5c0,0.3,0,0.7-0.2,1.2c0,0.5,0.2,1.2,0,1.6c0,0.5-0.5,0.9-0.5,1.2
				c-0.2,0.9-0.2,2.1,0,2.9c0,0.9,0,1.7-0.3,2.6s-0.7,2.1-0.7,3.1s0,2.3-0.3,3.3c-0.2,0.3-0.5,0.5-0.5,0.9c-0.2,0.3,0.2,0.9,0,1.4
				c-0.2,0.2-0.3,0.2-0.3,0.3c-0.2,0.2-0.2,0.3,0,0.5c0,0-0.2,0.9-0.3,1c-0.2,1-0.5,1.6-0.7,2.4c-0.3,1-0.2,1.7-0.7,2.8
				c-0.5,1-0.7,1.9-1.2,2.9c-0.3,0.7-0.5,1.4-0.7,2.1c-0.2,0.5-0.3,0.5-0.5,0.9c-0.2,0.5,0,0.9-0.2,1.4c-0.2,0.2-0.5,0.5-0.5,0.9
				c-0.2,0.3-0.3,0.9-0.5,1.2c-0.2,0.5-0.7,0.9-0.9,1.2s0,0.7-0.2,1c-0.3,1-0.5,1.2-1,1.7c-0.7,0.9-2.8,1-3.8,1
				c-0.9,0-2.4-0.2-3.3-0.3c-0.5,0-1.9-0.5-2.1-1c-0.5-0.7-0.5-0.5-0.5-1.7c0-0.2,0.2-1,0.3-1.2c0.2-0.9,0.5-1,0.9-1.7
				c0.3-0.7,0.2-1.4,0.3-1.9c0-0.2,0.5-0.3,0.5-0.5c0.2-0.5,0.2-1,0.3-1.6c0.2-0.5,0.3-0.9,0.5-1.4c0-0.2,0.3-0.5,0.3-0.5
				c0-0.2-0.2-0.5,0-0.7c0.3-1.2,1-2.6,1.2-4c0-0.2-0.2-0.5-0.2-0.7s0.5-0.3,0.5-0.5c0.2-0.5,0.2-1.2,0.2-1.6c0-0.3,0-0.9,0-1.2
				c0-0.5,0.7-1.2,0.7-1.7s-0.2-0.9-0.2-1.4c0-0.2,0.3-0.3,0.3-0.5s-0.2-0.5-0.2-0.7s0.5-0.3,0.5-0.5s-0.2-0.5-0.2-0.7
				c0-0.5,0.2-1,0.2-1.4c0-0.2,0.2-0.5,0.3-0.9c0-0.3,0-0.9,0-1.4c0-0.7,0.2-1.2,0.3-1.9c0-0.3,0-0.9,0-1.2c0-0.2,0.3-0.3,0.3-0.5
				c0-0.9-0.2-1.6,0-2.3c0.2-0.9,0.2-1.4,0.2-2.3c0-0.5-0.2-1-0.2-1.6c0-0.5,0.3-0.7,0.3-1.4c0.2-0.7-0.2-1.6-0.2-2.3
				s0.2-1.2,0.2-1.9s-0.2-1.4-0.2-1.9c0-0.7,0-1-0.2-1.6c-0.2-0.9,0-1.4,0-2.1c0-0.3-0.2-0.9-0.3-1.4c0-0.5,0.2-1,0-1.7
				c-0.2-0.5-0.5-1-0.5-1.7c0-1.2,0.2-0.9,1-0.9c1.9,0,3.8,0,5.7,0.2c1,0.2,2.1,0.2,2.9,0c0.5-0.2,0.9-0.2,1.4-0.2s1.2-0.2,1.7,0
				c0,0.3-0.2,0.5-0.2,0.9c0.2,0.2,0.3,0.3,0.5,0.5c0.2,0.7-0.2,1-0.2,1.7c0,0.3,0,1,0.2,1.4c0,0.3,0,1,0.2,1.4
				c0.3,1,0.2,2.1,0.2,3.3C-29.8-11.5-29.7-10.1-29.7-8.7L-29.7-8.7z"/>
		</g>
		<g id="Group_15_" transform="translate(72.58322 214.67737)">
			<path id="Shape_14_" class="st6" d="M165.3,144.4c-0.7,1.2-2.1,2.3-3.5,2.3c-0.7,0-1,0-1.6,0c-0.3,0-2.4-0.5-2.8-0.5
				c-0.9,0-1-1-1.9-1.6c-0.5-0.2-0.2,0-0.5-0.5c-0.2-0.3-0.3-1-0.5-1.4c-0.3-0.9-0.7-1.7-0.9-2.6c-0.2-1.2-0.5-2.6-0.9-3.8
				c-0.2-0.5-0.3-1.2-0.5-1.7c0-0.2,0.2-0.3,0-0.5c0-0.2-0.3-0.3-0.5-0.5c-0.2-0.9-0.2-1.7-0.5-2.6c-0.2-0.9-0.3-1.9-0.5-2.8
				c-0.2-0.9-0.5-1.6-0.7-2.6c0-0.2,0.3-0.3,0.3-0.5s-0.3-0.2-0.3-0.5c-0.2-0.5-0.2-0.9-0.2-1.4c0-1-0.3-1.9-0.5-2.8
				c0,0,0.2-0.7,0.2-0.9c0-0.5-0.3-1.2-0.3-1.7c-0.2-0.9-0.3-1.7-0.5-2.6c0-0.2,0.3-0.3,0.2-0.5c0-0.2-0.2-0.3-0.2-0.5
				c0-0.7-0.3-1.4-0.3-2.1c0-0.3,0.2-0.5,0-1c0-0.2-0.3-0.3-0.3-0.5c0-0.3,0-0.5,0-0.7c-0.2-0.7,0-1.7-0.2-2.4
				c0-0.5-0.5-0.9-0.5-1.4s0.2-1,0.2-1.4s0-1.2-0.2-1.7c0-0.3-0.3-0.7-0.3-1c-0.2-0.7,0.2-1,0.2-1.7c0-0.5-0.2-0.9-0.3-1.4
				c-0.3-1-0.2-2.1,0-3.3c0.2-0.7-0.2-1-0.2-1.6c0-0.2-0.2-0.3-0.2-0.5c0-0.3,0.2-0.5,0.2-0.7c0-0.9-0.2-1.7,0-2.8
				c0.2-1-0.2-2.3-0.2-3.3s-0.2-2.3-0.2-3.5c0-0.9,0.2-1.7,0.2-2.6s-0.5-1.4-0.2-2.4c0.3-1.2,0.3-2.1,0.2-3.3
				c-0.2-1,0.2-1.9,0.3-2.9c0-0.9,0-1.4,0-2.3c0-0.2-0.2-0.3-0.2-0.5s0.3-0.5,0.3-0.7l-0.2-0.5c0-0.2,0-0.9,0-1.2
				c0-0.2,0.3-0.3,0.3-0.5s-0.3-0.5-0.3-0.7s0.3-0.3,0.3-0.7c0-0.2-0.3-0.5-0.3-0.7s0.3-1.9,0.3-1.9c0.5-0.3,0.7,0.2,1.2,0.2
				c0.7,0,1.9,0,2.4,0c0.7-0.2,1.4-0.2,2.3-0.2c0.3,0,0.9,0,1.2,0c0.5,0,0.9,0.2,1.4,0.3c0.7,0.2,1.7,0.2,2.4,0
				c0.7,0,1.4-0.7,2.4-0.3c0,0.7-0.2,1.2-0.2,1.7c-0.2,0.9-0.3,1.6-0.2,2.6c0.2,0.7,0.2,1.4,0.2,2.3s-0.2,1.4-0.3,2.1
				c0,0.3,0.2,0.7,0.2,1c0,0.2-0.3,0.3-0.5,0.7c0,0.2,0.3,0.5,0.3,0.9c0,0.3-0.2,0.7-0.2,1c0,0.5,0,1,0,1.6c-0.2,1,0.5,1.7,0.3,2.9
				c-0.2,1.2-0.3,2.6-0.3,4c0,0.7,0.3,1.2,0.5,1.9c0,0.2-0.3,0.5-0.3,0.7c0,0.5,0.3,0.9,0.3,1.4c0,0.2-0.3,0.5-0.3,0.7
				c0,0.3,0.2,1,0.2,1.4c0,0.5,0,1.2,0,1.6c0,0.5,0.2,0.7,0.2,1.4c0.2,0.7,0,1.9,0,2.6c0,1.6-0.2,2.9,0.2,4.5c0.2,0.7-0.2,1-0.2,1.7
				c0,0.5,0.3,0.7,0.5,1c0,0.3-0.2,0.7-0.2,1c0,0.7,0.2,1,0.3,1.7c0.2,0.9-0.2,1.7,0,2.6c0,0.2,0.3,0.3,0.3,0.5s-0.2,0.7-0.2,1
				c0,0.9,0.2,1.7,0.2,2.6c0,0.5,0.2,1,0.3,1.4c0,0.7,0,1.4,0,2.1c0,0.9,0.3,1.4,0.3,2.3c0,0.7,0,1.2,0,1.9c0,0.5,0.3,1,0.5,1.6
				c0,0.5-0.2,1.2-0.2,1.7s0.3,1,0.5,1.6c0.2,0.5-0.2,1.2,0,1.6c0.3,1.4,0.3,2.8,0.7,4.2c0.5,1.6,0.2,3.1,0.5,4.5
				c0.2,1,0.2,1.6,0.3,2.6c0.2,1,0.7,1.9,0.9,2.8s-0.2,1.4,0.2,2.3C165.8,143,165.8,143.7,165.3,144.4L165.3,144.4z"/>
		</g>
		<g id="Group_16_" transform="translate(281.57886 327.73184)">
			<path id="Shape_15_" class="st6" d="M6.8-8.6C7-8.4,7-8.1,7.1-7.9C6.9-7.4,6.9-7.1,6.9-6.5S6.8-5.5,6.8-5c0,1,0,2.4,0,3.6
				S6.6,0.7,6.5,1.9c-0.2,0.9,0,1.4,0,1.9C6.3,4,6.3,4.2,6.1,4.4c0.2,0.2,0.2,0.5,0.3,0.7c-0.2,1.4-1,2.9-1,4.5c0,0.7,0,1,0,1.7
				c0,0.5-0.2,1.4-0.3,1.9c0,0.7-0.2,1.4-0.3,1.9c-0.2,0.7-0.2,1-0.2,1.6c-0.2,1.2-0.3,2.3-0.7,3.5c-0.2,1-0.7,2.1-1,3.1
				c-0.2,0.5-0.5,1.4-0.7,2.1C2,25.9,2,26.6,1.9,27c0.2,0.3,0.2,0.5-0.2,0.7C1.2,27.8,1,28.2,1,28.5c-0.2,0.2-0.2,0.3-0.3,0.5
				c0,0.2,0,0.3,0.2,0.5c-0.2,0.2-0.5,0.5-0.7,0.7c-0.2,0.5,0.2,0.3,0,1c-0.3,1.2-1.2,2.1-2.3,2.6c-0.5,0.2-3.5,0.3-4,0.3
				c-0.2,0-0.7-0.3-1-0.3c-1.7-0.2-2.8-1.2-2.6-2.6c0.2-0.3,0.2-0.5,0.2-1c0-0.2-0.2-0.3-0.2-0.5l0.2-0.5c0,0,0.2-0.3,0.2-0.5
				s-0.2-0.3-0.2-0.5c0.2-0.7,0.7-1,0.9-1.7c0.2-0.9,0-1.7,0.2-2.6c0-0.5,0.2-0.9,0.3-1.2c0-0.5,0.2-0.7,0.3-1
				c0.2-0.5,0-1.4,0.2-1.9c0.2-0.9,0.7-1.7,0.7-2.8c0-0.5-0.2-0.7,0-1.2c0-0.5,0.2-1,0.3-1.6c0-1,0.7-2.1,0.7-3.1
				c0-0.3-0.5-0.5-0.5-0.7c0-0.3,0.5-0.7,0.5-1.2s-0.2-0.9-0.2-1.4s0.3-1,0.3-1.6c0-1,0.2-1.9,0.2-2.9c0-0.5-0.2-0.9-0.2-1.4
				s0.3-1,0.3-1.6c0-1,0.2-2.1,0-3.3c0-0.5,0.2-1,0.2-1.4c0-0.5-0.3-1-0.3-1.4c0-0.2,0.2-0.3,0.2-0.5S-5.6-6.8-5.6-7
				c0-0.3,0-0.7,0-1c0-1,0.2-1.9,0-2.8c-0.2-0.9-0.2-1.7-0.2-2.6c0-0.2,0.3-0.2,0.3-0.3c0-0.2-0.2-0.3-0.2-0.5c0-0.5,0-0.9,0-1.4
				c0-0.5,0.2-1.4,0.2-1.9c0-0.2-0.3-0.3-0.3-0.5l0.2-0.5c0,0,0.2-0.2,0.2-0.3c0-0.2-0.2-0.5-0.2-0.7c0-0.7-0.2-1.4-0.2-2.1
				c0.2,0,1.4,0,1.6,0.2c0.5,0,0.7,0.3,1,0.3s1-0.2,1.4-0.2c0.2,0,0.5,0,0.9,0c0.2,0,0.5,0.3,0.9,0.3c0.5,0,0.9-0.5,1.4-0.5
				c0.2,0,0.2,0.3,0.5,0.3c0.2,0,0.5-0.3,0.7-0.3c0.5,0,1,0.2,1.6,0.2c0.5,0,1-0.5,1.7-0.2c0,0.3-0.2,0.5-0.2,0.9
				c0,0.2,0.2,0.5,0.2,0.7c0,0.7,0,1.4,0,1.9c0,0.7,0.3,0.9,0.3,1.6c0,0.5-0.2,0.9,0,1.4c0.2,1.2,0.3,2.1,0.2,3.5
				c-0.2,0.9,0.2,1.2,0.2,1.9c0,0.2,0.2,0.5,0.2,0.7C7.1-9,6.9-8.8,6.8-8.6L6.8-8.6z"/>
		</g>
	</g>
	<g id="Group_18_" transform="translate(57.28601 86)">
		<path id="Ellipse" class="st4" d="M157.5,166.8c0-4.7,3.8-8.7,8.7-8.7s9.2,4.2,9.2,8.8c0,4.7-4,7.6-8.8,7.6
			C161.7,174.6,157.5,171.5,157.5,166.8z"/>
		<path id="Ellipse-2" class="st4" d="M183.5,173.9c0-4.3,4-6.9,8.5-6.9c4.3,0,9.5,2.8,9.5,6.9c0,4.2-4,8.5-8.5,8.5
			C188.7,182.6,183.5,178.1,183.5,173.9z"/>
		<g id="Group-2" transform="translate(16.5 20)">
			<path id="Ellipse_1_" class="st7" d="M145.2,146.1c0-1.6,1.2-2.8,2.8-2.8s2.8,1.2,2.8,2.8s-1.2,2.8-2.8,2.8
				C146.4,148.9,145.2,147.6,145.2,146.1z"/>
			<path id="Ellipse-2_1_" class="st7" d="M175.7,153.4c0-1.6,1.2-2.8,2.8-2.8s2.8,1.2,2.8,2.8s-1.2,2.8-2.8,2.8
				C176.9,156.1,175.7,154.9,175.7,153.4z"/>
			<path id="New-shape-6" class="st9" d="M146.2,145.6c0,0,0.5-1.4,2.6-1.2"/>
			<path id="New-shape-7" class="st9" d="M176.8,152.8c0,0,0.5-1.4,2.6-1.2"/>
		</g>
	</g>
</g>
<g id="Group_19_" transform="translate(57.28601 86)">
	<g id="Group-2_2_" transform="translate(16.5 20)">
		<path id="Ellipse_2_" class="st7" d="M147.3,148.8c0-1.7,1.4-3.3,3.1-3.3c1.7,0,3.1,1.4,3.1,3.3c0,1.7-1.4,3.3-3.1,3.3
			C148.7,151.9,147.3,150.5,147.3,148.8z"/>
		<path id="Ellipse-2_2_" class="st7" d="M177.7,155.9c0-1.7,1.4-3.3,3.1-3.3c1.7,0,3.1,1.4,3.1,3.3c0,1.7-1.4,3.3-3.1,3.3
			C179.1,159.2,177.7,157.6,177.7,155.9z"/>
		<path id="New-shape-7_2_" class="st9" d="M182.2,153.8"/>
		<path id="New-shape-7_1_" class="st9" d="M179.3,155.2"/>
	</g>
</g>
</svg>
