<?xml version="1.0" encoding="utf-8"?>
<!-- Generator: Adobe Illustrator 25.0.1, SVG Export Plug-In . SVG Version: 6.00 Build 0)  -->
<svg version="1.1" id="Calque_1" xmlns:serif="http://www.serif.com/"
	 xmlns="http://www.w3.org/2000/svg" xmlns:xlink="http://www.w3.org/1999/xlink" x="0px" y="0px" viewBox="0 0 500 500"
	 style="enable-background:new 0 0 500 500;" xml:space="preserve">
<style type="text/css">
	.st0{fill:#EEEEEE;}
	.st1{fill:#003E3F;}
	.st2{fill:#00B9BC;}
	.st3{fill:#009092;}
	.st4{fill:#FFFFFF;}
</style>
<g>
	<rect class="st0" width="500" height="500"/>
</g>
<path class="st1" d="M469.7,204.6c0-6.8-5.4-12.2-12.2-12.2c-63.3,0-351.8,0-415,0c-6.8,0-12.2,5.4-12.2,12.2c0,45.6,0,204.5,0,250
	c0,6.8,5.4,12.2,12.2,12.2c63.3,0,351.8,0,415,0c6.8,0,12.2-5.4,12.2-12.2C469.7,409.1,469.7,250.2,469.7,204.6z"/>
<rect x="69.2" y="404.2" class="st2" width="23.3" height="37.7"/>
<path class="st2" d="M139.1,404.2h-30v23.1h23.3L139.1,404.2z"/>
<path class="st3" d="M172.2,404.2h-30l6.9-31.8h23.3v31.8H172.2z"/>
<rect x="188.8" y="381" class="st3" width="23.3" height="23.1"/>
<rect x="228.7" y="349.1" class="st3" width="23.3" height="55.1"/>
<rect x="268.5" y="300" class="st3" width="23.3" height="104.1"/>
<rect x="308.4" y="308" class="st3" width="23.3" height="96.2"/>
<rect x="348.3" y="284.7" class="st3" width="23.3" height="119.3"/>
<rect x="388.1" y="255.6" class="st3" width="23.3" height="148.4"/>
<g>
	<path class="st4" d="M428,406.2H52.3c-1.2,0-2.1-0.9-2.1-2.1s0.9-2.1,2.1-2.1H428c1.2,0,2.1,0.9,2.1,2.1S429.2,406.2,428,406.2z"/>
</g>
<g>
	<path class="st4" d="M92.3,446.1H69c-2.3,0-4.1-1.9-4.1-4.1c0-2.3,1.9-4.1,4.1-4.1h21.7l15.5-13.7c0.8-0.7,1.7-1.1,2.8-1.1h20.2
		l15.7-52c0.5-1.7,2.1-2.9,4-2.9h23.3c0.7,0,1.3,0.1,1.9,0.5l15.7,8.1h19.7l15.4-29.8c0.7-1.3,2.1-2.3,3.7-2.3h20.2l15.7-46.2
		c0.5-1.7,2.1-2.8,4-2.8h23.3c0.7,0,1.2,0.1,1.9,0.4l15.8,7.6h20.2l15.4-21.4c0.8-1.1,2-1.7,3.5-1.7h20.9l15.4-27
		c0.8-1.3,2.1-2.1,3.6-2.1H410l12.3-12.5c1.6-1.6,4.3-1.6,5.8,0c1.6,1.6,1.6,4.3,0,5.8l-13.8,13.8c-0.8,0.8-1.9,1.2-2.9,1.2h-20.7
		l-15.4,27c-0.8,1.3-2.1,2.1-3.6,2.1h-21.1l-15.4,21.4c-0.8,1.1-2,1.7-3.5,1.7h-23.3c-0.7,0-1.2-0.1-1.9-0.4l-15.8-7.6h-19.3
		l-15.7,46.2c-0.5,1.7-2.1,2.8-4,2.8h-20.5l-15.4,30c-0.7,1.3-2.1,2.3-3.7,2.3h-23.3c-0.7,0-1.3-0.1-1.9-0.5l-15.7-8.1h-19.1
		l-15.7,52c-0.5,1.7-2.1,2.9-4,2.9h-21.7L95.4,445C94.3,445.7,93.4,446.1,92.3,446.1z"/>
</g>
<path class="st4" d="M415.4,232.1c-1.1-1.1-1.5-2.5-1.2-4s1.3-2.5,2.8-3.1c8-2.8,21.4-7.4,30.2-10.5c1.6-0.5,3.2-0.1,4.4,1.1
	s1.6,2.9,1.1,4.4c-3.1,8.8-7.7,22.2-10.5,30.2c-0.5,1.3-1.6,2.4-3.1,2.8c-1.5,0.3-2.9-0.1-4-1.2
	C429.6,246.3,420.8,237.6,415.4,232.1L415.4,232.1z"/>
<g>
	<path class="st2" d="M179.1,290.2c-0.8-0.3-1.5-0.7-1.9-1.5c-0.4-0.7-0.5-1.6-0.3-2.3l7.3-26.7c0.4-1.6,2.1-2.5,3.7-2.1
		c19.1,4.9,39.9-3.3,50.2-21.1c12.5-21.5,5-49.2-16.5-61.7c-3.3-1.9-6.6-3.3-10.1-4.3c-1.6-0.4-2.5-2.1-2.1-3.7l7.3-26.7
		c0.3-0.8,0.7-1.5,1.5-1.9c0.7-0.4,1.6-0.5,2.3-0.3c6.2,1.7,12.2,4.3,18.1,7.7c37.7,21.8,50.6,70,28.8,107.8
		C249.3,284.7,212.7,298.9,179.1,290.2L179.1,290.2z"/>
	<path class="st1" d="M169,180.2c-1.2,1.1-3.1,1.1-4.1-0.1l-19.7-19.7c-0.5-0.5-0.9-1.3-0.9-2.3c0-0.8,0.4-1.6,0.9-2.1
		c20.1-18.7,48.8-25.8,75.2-18.2c1.6,0.4,2.5,2.1,2.1,3.7l-7.3,26.7c-0.3,0.8-0.8,1.5-1.5,1.9s-1.6,0.5-2.3,0.3
		C196.6,166.1,180.4,170,169,180.2z"/>
	<path class="st3" d="M162.6,240.4L162.6,240.4c-10.2-14-11.8-33.2-2.7-49.2c2.4-4.3,5.4-8,8.9-11c0.7-0.5,0.9-1.3,1.1-2.1
		c0-0.8-0.3-1.6-0.9-2.3l-19.7-19.7c-1.2-1.2-3.1-1.2-4.3-0.1c-5.6,5.2-10.5,11.3-14.5,18.2c-16.2,28-13.2,62.1,4.9,86.5l0,0
		c6.2,8.4,14.2,15.7,23.9,21.3c6.2,3.6,12.9,6.2,19.5,8c1.6,0.4,3.3-0.5,3.7-2.1l7.3-26.7c0.3-0.8,0.1-1.6-0.3-2.3
		c-0.4-0.7-1.1-1.2-1.9-1.5c-3.9-0.9-7.7-2.5-11.4-4.7C170.9,249.7,166.2,245.3,162.6,240.4L162.6,240.4z"/>
</g>
<g>
	<path class="st3" d="M144.3,191.6c0.8,0,1.6-0.3,2.3-0.9c1.2-1.2,1.2-3.2,0-4.4L114.3,154v-46.6c0-1.7-1.5-3.2-3.2-3.2
		s-3.2,1.5-3.2,3.2v48c0,0.8,0.3,1.6,0.9,2.3l33.2,33.2C142.7,191.4,143.5,191.6,144.3,191.6z"/>
</g>
<path class="st3" d="M66.8,66.7c0-4,3.2-7.2,7.2-7.2h73.6c4,0,7.2,3.2,7.2,7.2v41.7c0,4-3.2,7.2-7.2,7.2H74c-4,0-7.2-3.2-7.2-7.2
	V66.7L66.8,66.7z"/>
<path class="st4" d="M106,69c-0.5,0-0.9,0.1-1.3,0.5s-0.5,0.8-0.5,1.3c0,0.8,0,1.6,0,2.4c0,0.5,0.1,0.9,0.5,1.3s0.8,0.5,1.3,0.5
	c6.9,0,31.5,0,38.4,0c0.5,0,0.9-0.1,1.3-0.5c0.4-0.4,0.5-0.8,0.5-1.3c0-0.8,0-1.6,0-2.4c0-0.5-0.1-0.9-0.5-1.3s-0.8-0.5-1.3-0.5
	C137.5,69,112.9,69,106,69z"/>
<path class="st4" d="M77.3,69c-0.5,0-0.9,0.1-1.3,0.5s-0.5,0.8-0.5,1.3c0,0.8,0,1.6,0,2.4c0,0.5,0.1,0.9,0.5,1.3s0.8,0.5,1.3,0.5
	c4.3,0,14.9,0,19.1,0c0.5,0,0.9-0.1,1.3-0.5s0.5-0.8,0.5-1.3c0-0.8,0-1.6,0-2.4c0-0.5-0.1-0.9-0.5-1.3S96.9,69,96.4,69
	C92.2,69,81.6,69,77.3,69z"/>
<path class="st4" d="M138.4,81.3c-0.5,0-0.9,0.1-1.3,0.5c-0.4,0.4-0.5,0.8-0.5,1.3c0,0.8,0,1.6,0,2.4c0,0.5,0.1,0.9,0.5,1.3
	s0.8,0.5,1.3,0.5c1.7,0,4.3,0,6,0c0.5,0,0.9-0.1,1.3-0.5c0.4-0.4,0.5-0.8,0.5-1.3c0-0.8,0-1.6,0-2.4c0-0.5-0.1-0.9-0.5-1.3
	s-0.8-0.5-1.3-0.5C142.7,81.3,140.2,81.3,138.4,81.3z"/>
<path class="st4" d="M87.4,81.3c-1.1,0-1.9,0.8-1.9,1.9c0,0.8,0,1.6,0,2.4c0,1.1,0.8,1.9,1.9,1.9c7.3,0,34.3,0,41.6,0
	c1.1,0,1.9-0.8,1.9-1.9c0-0.8,0-1.6,0-2.4c0-1.1-0.8-1.9-1.9-1.9C121.7,81.3,94.7,81.3,87.4,81.3z"/>
<path class="st1" d="M142,106.1c0-0.7,0.5-1.3,1.3-1.3c0.3,0,0.7,0,1.1,0c0.5,0,0.9-0.3,1.2-0.7c0.3-0.4,0.1-0.9-0.1-1.3
	c-1.6-2.1-4-5.4-5.3-7.3c-0.3-0.4-0.7-0.5-1.1-0.5c-0.4,0-0.8,0.1-1.1,0.5c-1.3,1.9-3.7,5.2-5.3,7.3c-0.3,0.4-0.4,0.9-0.1,1.3
	c0.3,0.4,0.7,0.7,1.2,0.7c0.4,0,0.7,0,1.1,0c0.7,0,1.3,0.5,1.3,1.3s0,1.6,0,2.3c0,0.4,0.1,0.7,0.4,0.9c0.3,0.3,0.5,0.4,0.9,0.4
	c1.1,0,2.5,0,3.5,0c0.4,0,0.7-0.1,0.9-0.4c0.3-0.3,0.4-0.5,0.4-0.9C142,107.7,142,106.7,142,106.1z"/>
<path class="st1" d="M104.5,106.1c0-0.7,0.5-1.3,1.3-1.3c0.3,0,0.7,0,1.1,0c0.5,0,0.9-0.3,1.2-0.7c0.3-0.4,0.1-0.9-0.1-1.3
	c-1.6-2.1-4-5.4-5.3-7.3c-0.3-0.4-0.7-0.5-1.1-0.5s-0.8,0.1-1.1,0.5c-1.3,1.9-3.7,5.2-5.3,7.3c-0.3,0.4-0.4,0.9-0.1,1.3
	s0.7,0.7,1.2,0.7c0.4,0,0.7,0,1.1,0c0.7,0,1.3,0.5,1.3,1.3s0,1.6,0,2.3c0,0.4,0.1,0.7,0.4,0.9c0.3,0.3,0.5,0.4,0.9,0.4
	c1.1,0,2.5,0,3.5,0c0.4,0,0.7-0.1,0.9-0.4c0.3-0.3,0.4-0.5,0.4-0.9C104.5,107.7,104.5,106.7,104.5,106.1z"/>
<path class="st1" d="M123.3,106.1c0-0.7,0.5-1.3,1.3-1.3c0.3,0,0.7,0,1.1,0c0.5,0,0.9-0.3,1.2-0.7c0.3-0.4,0.1-0.9-0.1-1.3
	c-1.6-2.1-4-5.4-5.3-7.3c-0.3-0.4-0.7-0.5-1.1-0.5s-0.8,0.1-1.1,0.5c-1.3,1.9-3.7,5.2-5.3,7.3c-0.3,0.4-0.4,0.9-0.1,1.3
	s0.7,0.7,1.2,0.7c0.4,0,0.7,0,1.1,0c0.7,0,1.3,0.5,1.3,1.3s0,1.6,0,2.3c0,0.4,0.1,0.7,0.4,0.9c0.3,0.3,0.5,0.4,0.9,0.4
	c1.1,0,2.5,0,3.5,0c0.4,0,0.7-0.1,0.9-0.4c0.3-0.3,0.4-0.5,0.4-0.9C123.3,107.7,123.3,106.7,123.3,106.1z"/>
<path class="st1" d="M85.8,106.1c0-0.7,0.5-1.3,1.3-1.3c0.3,0,0.7,0,1.1,0c0.5,0,0.9-0.3,1.2-0.7c0.3-0.4,0.1-0.9-0.1-1.3
	c-1.6-2.1-4-5.4-5.3-7.3c-0.3-0.4-0.7-0.5-1.1-0.5s-0.8,0.1-1.1,0.5c-1.3,1.9-3.7,5.2-5.3,7.3c-0.3,0.4-0.4,0.9-0.1,1.3
	s0.7,0.7,1.2,0.7c0.4,0,0.7,0,1.1,0c0.7,0,1.3,0.5,1.3,1.3s0,1.6,0,2.3c0,0.4,0.1,0.7,0.4,0.9c0.3,0.3,0.5,0.4,0.9,0.4
	c1.1,0,2.5,0,3.5,0c0.4,0,0.7-0.1,0.9-0.4c0.3-0.3,0.4-0.5,0.4-0.9C85.8,107.7,85.8,106.7,85.8,106.1z"/>
</svg>
